<?xml version="1.0" encoding="UTF-8" standalone="no"?>
<!DOCTYPE svg PUBLIC "-//W3C//DTD SVG 1.1//EN"
 "http://www.w3.org/Graphics/SVG/1.1/DTD/svg11.dtd">
<!-- Generated by graphviz version 2.40.1 (20161225.0304)
 -->
<!-- Title: sirius::Beta_projectors_base Pages: 1 -->
<svg width="2146pt" height="1017pt"
 viewBox="0.00 0.00 2146.00 1017.00" xmlns="http://www.w3.org/2000/svg" xmlns:xlink="http://www.w3.org/1999/xlink">
<g id="graph0" class="graph" transform="scale(1 1) rotate(0) translate(4 1013)">
<title>sirius::Beta_projectors_base</title>
<polygon fill="#ffffff" stroke="transparent" points="-4,4 -4,-1013 2142,-1013 2142,4 -4,4"/>
<!-- Node1 -->
<g id="node1" class="node">
<title>Node1</title>
<g id="a_node1"><a xlink:title="Base class for beta&#45;projectors, gradient of beta&#45;projectors and strain derivatives of beta&#45;projectors...">
<polygon fill="#bfbfbf" stroke="#000000" points="1995,-364.5 1995,-383.5 2138,-383.5 2138,-364.5 1995,-364.5"/>
<text text-anchor="middle" x="2066.5" y="-371.5" font-family="Helvetica,sans-Serif" font-size="10.00" fill="#000000">sirius::Beta_projectors_base</text>
</a>
</g>
</g>
<!-- Node2 -->
<g id="node2" class="node">
<title>Node2</title>
<g id="a_node2"><a xlink:href="../../d6/d66/classsirius_1_1_simulation__context.html" target="_top" xlink:title="Simulation context is a set of parameters and objects describing a single simulation.">
<polygon fill="#ffffff" stroke="#000000" points="1789,-550 1789,-580 1881,-580 1881,-550 1789,-550"/>
<text text-anchor="start" x="1797" y="-568" font-family="Helvetica,sans-Serif" font-size="10.00" fill="#000000">sirius::Simulation</text>
<text text-anchor="middle" x="1835" y="-557" font-family="Helvetica,sans-Serif" font-size="10.00" fill="#000000">_context</text>
</a>
</g>
</g>
<!-- Node2&#45;&gt;Node1 -->
<g id="edge1" class="edge">
<title>Node2&#45;&gt;Node1</title>
<path fill="none" stroke="#9a32cd" stroke-dasharray="5,2" d="M1861.3968,-543.2212C1911.6912,-501.7257 2019.4024,-412.8581 2054.8935,-383.576"/>
<polygon fill="#9a32cd" stroke="#9a32cd" points="1859.0394,-540.6287 1853.5533,-549.6925 1863.4943,-546.0282 1859.0394,-540.6287"/>
<text text-anchor="middle" x="1944.5" y="-501" font-family="Helvetica,sans-Serif" font-size="10.00" fill="#000000"> ctx_</text>
</g>
<!-- Node3 -->
<g id="node3" class="node">
<title>Node3</title>
<g id="a_node3"><a xlink:href="../../d0/d04/classsirius_1_1_simulation__parameters.html" target="_top" xlink:title="Set of basic parameters of a simulation.">
<polygon fill="#ffffff" stroke="#000000" points="1522.5,-656 1522.5,-686 1614.5,-686 1614.5,-656 1522.5,-656"/>
<text text-anchor="start" x="1530.5" y="-674" font-family="Helvetica,sans-Serif" font-size="10.00" fill="#000000">sirius::Simulation</text>
<text text-anchor="middle" x="1568.5" y="-663" font-family="Helvetica,sans-Serif" font-size="10.00" fill="#000000">_parameters</text>
</a>
</g>
</g>
<!-- Node3&#45;&gt;Node2 -->
<g id="edge2" class="edge">
<title>Node3&#45;&gt;Node2</title>
<path fill="none" stroke="#191970" d="M1624.9678,-665.1791C1672.141,-659.6409 1735.2334,-650.462 1758,-639 1785.8213,-624.9931 1810.2883,-597.5011 1823.8218,-580.2555"/>
<polygon fill="#191970" stroke="#191970" points="1624.3988,-661.7213 1614.8631,-666.3388 1625.197,-668.6757 1624.3988,-661.7213"/>
</g>
<!-- Node4 -->
<g id="node4" class="node">
<title>Node4</title>
<g id="a_node4"><a xlink:href="../../d2/dcd/structsirius_1_1_hubbard__input.html" target="_top" xlink:title=" ">
<polygon fill="#ffffff" stroke="#000000" points="1278,-623.5 1278,-642.5 1389,-642.5 1389,-623.5 1278,-623.5"/>
<text text-anchor="middle" x="1333.5" y="-630.5" font-family="Helvetica,sans-Serif" font-size="10.00" fill="#000000">sirius::Hubbard_input</text>
</a>
</g>
</g>
<!-- Node4&#45;&gt;Node3 -->
<g id="edge3" class="edge">
<title>Node4&#45;&gt;Node3</title>
<path fill="none" stroke="#9a32cd" stroke-dasharray="5,2" d="M1399.3784,-636.2175C1424.7235,-638.1409 1453.8451,-641.189 1480,-646 1493.9752,-648.5706 1508.9297,-652.3755 1522.4937,-656.2457"/>
<polygon fill="#9a32cd" stroke="#9a32cd" points="1399.3593,-632.7073 1389.135,-635.4849 1398.8598,-639.6895 1399.3593,-632.7073"/>
<text text-anchor="middle" x="1443.5" y="-649" font-family="Helvetica,sans-Serif" font-size="10.00" fill="#000000"> hubbard_input_</text>
</g>
<!-- Node5 -->
<g id="node5" class="node">
<title>Node5</title>
<g id="a_node5"><a xlink:href="../../d3/d40/classsirius_1_1_config.html" target="_top" xlink:title=" ">
<polygon fill="#ffffff" stroke="#000000" points="1296.5,-765.5 1296.5,-784.5 1370.5,-784.5 1370.5,-765.5 1296.5,-765.5"/>
<text text-anchor="middle" x="1333.5" y="-772.5" font-family="Helvetica,sans-Serif" font-size="10.00" fill="#000000">sirius::Config</text>
</a>
</g>
</g>
<!-- Node5&#45;&gt;Node3 -->
<g id="edge4" class="edge">
<title>Node5&#45;&gt;Node3</title>
<path fill="none" stroke="#9a32cd" stroke-dasharray="5,2" d="M1361.8257,-760.6181C1394.33,-744.3382 1449.4159,-717.429 1498,-697 1506.8989,-693.2581 1516.5439,-689.507 1525.7601,-686.0647"/>
<polygon fill="#9a32cd" stroke="#9a32cd" points="1359.8568,-757.6905 1352.4953,-765.3102 1363.0018,-763.9443 1359.8568,-757.6905"/>
<text text-anchor="middle" x="1443.5" y="-741" font-family="Helvetica,sans-Serif" font-size="10.00" fill="#000000"> cfg_</text>
</g>
<!-- Node6 -->
<g id="node6" class="node">
<title>Node6</title>
<g id="a_node6"><a xlink:href="../../db/da5/classsirius_1_1config__t.html" target="_top" xlink:title=" ">
<polygon fill="#ffffff" stroke="#000000" points="1137,-831.5 1137,-850.5 1217,-850.5 1217,-831.5 1137,-831.5"/>
<text text-anchor="middle" x="1177" y="-838.5" font-family="Helvetica,sans-Serif" font-size="10.00" fill="#000000">sirius::config_t</text>
</a>
</g>
</g>
<!-- Node6&#45;&gt;Node5 -->
<g id="edge5" class="edge">
<title>Node6&#45;&gt;Node5</title>
<path fill="none" stroke="#191970" d="M1209.0639,-827.4778C1239.421,-814.6755 1284.2212,-795.7821 1310.97,-784.5015"/>
<polygon fill="#191970" stroke="#191970" points="1207.6105,-824.2922 1199.7564,-831.403 1210.3307,-830.7421 1207.6105,-824.2922"/>
</g>
<!-- Node7 -->
<g id="node7" class="node">
<title>Node7</title>
<g id="a_node7"><a xlink:href="../../d1/d31/classsirius_1_1config__t_1_1control__t.html" target="_top" xlink:title="Control parameters.">
<polygon fill="#ffffff" stroke="#000000" points="866.5,-951.5 866.5,-970.5 990.5,-970.5 990.5,-951.5 866.5,-951.5"/>
<text text-anchor="middle" x="928.5" y="-958.5" font-family="Helvetica,sans-Serif" font-size="10.00" fill="#000000">sirius::config_t::control_t</text>
</a>
</g>
</g>
<!-- Node7&#45;&gt;Node6 -->
<g id="edge6" class="edge">
<title>Node7&#45;&gt;Node6</title>
<path fill="none" stroke="#9a32cd" stroke-dasharray="5,2" d="M1000.7516,-951.1316C1031.1797,-944.9022 1066.1481,-934.9027 1095,-919 1127.5218,-901.0746 1156.718,-867.1025 1169.7727,-850.5481"/>
<polygon fill="#9a32cd" stroke="#9a32cd" points="999.7693,-947.7571 990.622,-953.1028 1001.1064,-954.6282 999.7693,-947.7571"/>
<text text-anchor="middle" x="1057" y="-949" font-family="Helvetica,sans-Serif" font-size="10.00" fill="#000000"> control_</text>
</g>
<!-- Node8 -->
<g id="node8" class="node">
<title>Node8</title>
<g id="a_node8"><a xlink:href="../../d9/dcc/classnlohmann_1_1basic__json.html" target="_top" xlink:title="a class to store JSON values">
<polygon fill="#ffffff" stroke="#000000" points="602,-804 602,-878 796,-878 796,-804 602,-804"/>
<text text-anchor="start" x="610" y="-866" font-family="Helvetica,sans-Serif" font-size="10.00" fill="#000000">nlohmann::basic_json</text>
<text text-anchor="start" x="610" y="-855" font-family="Helvetica,sans-Serif" font-size="10.00" fill="#000000">&lt; ObjectType, ArrayType,</text>
<text text-anchor="start" x="610" y="-844" font-family="Helvetica,sans-Serif" font-size="10.00" fill="#000000"> StringType, BooleanType,</text>
<text text-anchor="start" x="610" y="-833" font-family="Helvetica,sans-Serif" font-size="10.00" fill="#000000"> NumberIntegerType, NumberUnsigned</text>
<text text-anchor="start" x="610" y="-822" font-family="Helvetica,sans-Serif" font-size="10.00" fill="#000000">Type, NumberFloatType, AllocatorType,</text>
<text text-anchor="middle" x="699" y="-811" font-family="Helvetica,sans-Serif" font-size="10.00" fill="#000000"> JSONSerializer, BinaryType &gt;</text>
</a>
</g>
</g>
<!-- Node8&#45;&gt;Node3 -->
<g id="edge25" class="edge">
<title>Node8&#45;&gt;Node3</title>
<path fill="none" stroke="#9a32cd" stroke-dasharray="5,2" d="M731.4058,-795.5208C771.4512,-745.1633 844.6596,-671 928.5,-671 928.5,-671 928.5,-671 1333.5,-671 1398.9818,-671 1474.727,-671 1522.1274,-671"/>
<polygon fill="#9a32cd" stroke="#9a32cd" points="728.4219,-793.6555 725.03,-803.6928 733.9409,-797.9615 728.4219,-793.6555"/>
<text text-anchor="middle" x="1177" y="-674" font-family="Helvetica,sans-Serif" font-size="10.00" fill="#000000"> runtime_options_dictionary_</text>
</g>
<!-- Node8&#45;&gt;Node7 -->
<g id="edge7" class="edge">
<title>Node8&#45;&gt;Node7</title>
<path fill="none" stroke="#9a32cd" stroke-dasharray="5,2" d="M756.2557,-884.0632C784.9771,-904.0072 821.0268,-926.6337 856,-942 864.458,-945.7162 873.8011,-948.8326 882.8878,-951.396"/>
<polygon fill="#9a32cd" stroke="#9a32cd" points="758.1674,-881.1288 747.9726,-878.245 754.1438,-886.857 758.1674,-881.1288"/>
<text text-anchor="middle" x="826" y="-936" font-family="Helvetica,sans-Serif" font-size="10.00" fill="#000000"> dict_</text>
</g>
<!-- Node12 -->
<g id="node12" class="node">
<title>Node12</title>
<g id="a_node12"><a xlink:href="../../dc/d5b/classsirius_1_1config__t_1_1mixer__t.html" target="_top" xlink:title="Parameters of the mixer.">
<polygon fill="#ffffff" stroke="#000000" points="869,-913.5 869,-932.5 988,-932.5 988,-913.5 869,-913.5"/>
<text text-anchor="middle" x="928.5" y="-920.5" font-family="Helvetica,sans-Serif" font-size="10.00" fill="#000000">sirius::config_t::mixer_t</text>
</a>
</g>
</g>
<!-- Node8&#45;&gt;Node12 -->
<g id="edge12" class="edge">
<title>Node8&#45;&gt;Node12</title>
<path fill="none" stroke="#9a32cd" stroke-dasharray="5,2" d="M795.2627,-881.8332C815.1756,-889.6553 836.1378,-897.4409 856,-904 866.3787,-907.4274 877.7522,-910.6512 888.3501,-913.436"/>
<polygon fill="#9a32cd" stroke="#9a32cd" points="796.4755,-878.549 785.8894,-878.1188 793.8966,-885.0567 796.4755,-878.549"/>
<text text-anchor="middle" x="826" y="-899" font-family="Helvetica,sans-Serif" font-size="10.00" fill="#000000"> dict_</text>
</g>
<!-- Node13 -->
<g id="node13" class="node">
<title>Node13</title>
<g id="a_node13"><a xlink:href="../../d6/d65/classsirius_1_1config__t_1_1hubbard__t.html" target="_top" xlink:title="Hubbard U correction.">
<polygon fill="#ffffff" stroke="#000000" points="863,-875.5 863,-894.5 994,-894.5 994,-875.5 863,-875.5"/>
<text text-anchor="middle" x="928.5" y="-882.5" font-family="Helvetica,sans-Serif" font-size="10.00" fill="#000000">sirius::config_t::hubbard_t</text>
</a>
</g>
</g>
<!-- Node8&#45;&gt;Node13 -->
<g id="edge14" class="edge">
<title>Node8&#45;&gt;Node13</title>
<path fill="none" stroke="#9a32cd" stroke-dasharray="5,2" d="M806.3847,-861.5879C831.7295,-866.447 857.5555,-871.3984 878.8896,-875.4886"/>
<polygon fill="#9a32cd" stroke="#9a32cd" points="806.8088,-858.1056 796.3287,-859.66 805.4907,-864.9804 806.8088,-858.1056"/>
<text text-anchor="middle" x="826" y="-869" font-family="Helvetica,sans-Serif" font-size="10.00" fill="#000000"> dict_</text>
</g>
<!-- Node14 -->
<g id="node14" class="node">
<title>Node14</title>
<g id="a_node14"><a xlink:href="../../dc/d09/classsirius_1_1config__t_1_1iterative__solver__t.html" target="_top" xlink:title="Parameters of the iterative solver.">
<polygon fill="#ffffff" stroke="#000000" points="868,-826 868,-856 989,-856 989,-826 868,-826"/>
<text text-anchor="start" x="876" y="-844" font-family="Helvetica,sans-Serif" font-size="10.00" fill="#000000">sirius::config_t::iterative</text>
<text text-anchor="middle" x="928.5" y="-833" font-family="Helvetica,sans-Serif" font-size="10.00" fill="#000000">_solver_t</text>
</a>
</g>
</g>
<!-- Node8&#45;&gt;Node14 -->
<g id="edge16" class="edge">
<title>Node8&#45;&gt;Node14</title>
<path fill="none" stroke="#9a32cd" stroke-dasharray="5,2" d="M806.3486,-841C827.5157,-841 849.0201,-841 867.9647,-841"/>
<polygon fill="#9a32cd" stroke="#9a32cd" points="806.3287,-837.5001 796.3287,-841 806.3286,-844.5001 806.3287,-837.5001"/>
<text text-anchor="middle" x="826" y="-844" font-family="Helvetica,sans-Serif" font-size="10.00" fill="#000000"> dict_</text>
</g>
<!-- Node15 -->
<g id="node15" class="node">
<title>Node15</title>
<g id="a_node15"><a xlink:href="../../db/dc8/classsirius_1_1config__t_1_1parameters__t.html" target="_top" xlink:title="Parameters of the simulation.">
<polygon fill="#ffffff" stroke="#000000" points="856,-787.5 856,-806.5 1001,-806.5 1001,-787.5 856,-787.5"/>
<text text-anchor="middle" x="928.5" y="-794.5" font-family="Helvetica,sans-Serif" font-size="10.00" fill="#000000">sirius::config_t::parameters_t</text>
</a>
</g>
</g>
<!-- Node8&#45;&gt;Node15 -->
<g id="edge18" class="edge">
<title>Node8&#45;&gt;Node15</title>
<path fill="none" stroke="#9a32cd" stroke-dasharray="5,2" d="M806.3847,-820.4121C831.7295,-815.553 857.5555,-810.6016 878.8896,-806.5114"/>
<polygon fill="#9a32cd" stroke="#9a32cd" points="805.4907,-817.0196 796.3287,-822.34 806.8088,-823.8944 805.4907,-817.0196"/>
<text text-anchor="middle" x="826" y="-820" font-family="Helvetica,sans-Serif" font-size="10.00" fill="#000000"> dict_</text>
</g>
<!-- Node16 -->
<g id="node16" class="node">
<title>Node16</title>
<g id="a_node16"><a xlink:href="../../d9/d67/classsirius_1_1config__t_1_1unit__cell__t.html" target="_top" xlink:title="Unit cell representation.">
<polygon fill="#ffffff" stroke="#000000" points="877.5,-738 877.5,-768 979.5,-768 979.5,-738 877.5,-738"/>
<text text-anchor="start" x="885.5" y="-756" font-family="Helvetica,sans-Serif" font-size="10.00" fill="#000000">sirius::config_t::unit</text>
<text text-anchor="middle" x="928.5" y="-745" font-family="Helvetica,sans-Serif" font-size="10.00" fill="#000000">_cell_t</text>
</a>
</g>
</g>
<!-- Node8&#45;&gt;Node16 -->
<g id="edge20" class="edge">
<title>Node8&#45;&gt;Node16</title>
<path fill="none" stroke="#9a32cd" stroke-dasharray="5,2" d="M798.7277,-800.121C817.6815,-792.5964 837.4018,-784.9332 856,-778 864.8576,-774.698 874.3786,-771.3046 883.5138,-768.1244"/>
<polygon fill="#9a32cd" stroke="#9a32cd" points="797.1901,-796.9659 789.1957,-803.9187 799.781,-803.4688 797.1901,-796.9659"/>
<text text-anchor="middle" x="826" y="-795" font-family="Helvetica,sans-Serif" font-size="10.00" fill="#000000"> dict_</text>
</g>
<!-- Node17 -->
<g id="node17" class="node">
<title>Node17</title>
<g id="a_node17"><a xlink:href="../../d2/d6f/classsirius_1_1config__t_1_1nlcg__t.html" target="_top" xlink:title="Non&#45;linear conjugate gradient minimisation.">
<polygon fill="#ffffff" stroke="#000000" points="872,-699.5 872,-718.5 985,-718.5 985,-699.5 872,-699.5"/>
<text text-anchor="middle" x="928.5" y="-706.5" font-family="Helvetica,sans-Serif" font-size="10.00" fill="#000000">sirius::config_t::nlcg_t</text>
</a>
</g>
</g>
<!-- Node8&#45;&gt;Node17 -->
<g id="edge22" class="edge">
<title>Node8&#45;&gt;Node17</title>
<path fill="none" stroke="#9a32cd" stroke-dasharray="5,2" d="M750.0948,-797.5443C779.4766,-774.4147 818.0064,-747.0916 856,-729 864.8415,-724.7899 874.7252,-721.33 884.2815,-718.5422"/>
<polygon fill="#9a32cd" stroke="#9a32cd" points="747.6996,-794.9775 742.0583,-803.9456 752.0609,-800.4529 747.6996,-794.9775"/>
<text text-anchor="middle" x="826" y="-754" font-family="Helvetica,sans-Serif" font-size="10.00" fill="#000000"> dict_</text>
</g>
<!-- Node18 -->
<g id="node18" class="node">
<title>Node18</title>
<g id="a_node18"><a xlink:href="../../d0/d41/classsirius_1_1config__t_1_1settings__t.html" target="_top" xlink:title="Settings control the internal parameters related to the numerical implementation.">
<polygon fill="#ffffff" stroke="#000000" points="864,-989.5 864,-1008.5 993,-1008.5 993,-989.5 864,-989.5"/>
<text text-anchor="middle" x="928.5" y="-996.5" font-family="Helvetica,sans-Serif" font-size="10.00" fill="#000000">sirius::config_t::settings_t</text>
</a>
</g>
</g>
<!-- Node8&#45;&gt;Node18 -->
<g id="edge24" class="edge">
<title>Node8&#45;&gt;Node18</title>
<path fill="none" stroke="#9a32cd" stroke-dasharray="5,2" d="M736.9636,-885.5931C766.2464,-916.9929 809.5,-957.3259 856,-980 863.836,-983.821 872.5364,-986.9433 881.1119,-989.471"/>
<polygon fill="#9a32cd" stroke="#9a32cd" points="739.539,-883.2229 730.1959,-878.2271 734.3843,-887.9589 739.539,-883.2229"/>
<text text-anchor="middle" x="826" y="-972" font-family="Helvetica,sans-Serif" font-size="10.00" fill="#000000"> dict_</text>
</g>
<!-- Node9 -->
<g id="node9" class="node">
<title>Node9</title>
<g id="a_node9"><a xlink:href="../../d1/de3/unionnlohmann_1_1basic__json_1_1json__value.html" target="_top" xlink:title="a JSON value">
<polygon fill="#ffffff" stroke="#000000" points="319,-804 319,-878 525,-878 525,-804 319,-804"/>
<text text-anchor="start" x="327" y="-866" font-family="Helvetica,sans-Serif" font-size="10.00" fill="#000000">nlohmann::basic_json</text>
<text text-anchor="start" x="327" y="-855" font-family="Helvetica,sans-Serif" font-size="10.00" fill="#000000">&lt; ObjectType, ArrayType,</text>
<text text-anchor="start" x="327" y="-844" font-family="Helvetica,sans-Serif" font-size="10.00" fill="#000000"> StringType, BooleanType,</text>
<text text-anchor="start" x="327" y="-833" font-family="Helvetica,sans-Serif" font-size="10.00" fill="#000000"> NumberIntegerType, NumberUnsigned</text>
<text text-anchor="start" x="327" y="-822" font-family="Helvetica,sans-Serif" font-size="10.00" fill="#000000">Type, NumberFloatType, AllocatorType,</text>
<text text-anchor="middle" x="422" y="-811" font-family="Helvetica,sans-Serif" font-size="10.00" fill="#000000"> JSONSerializer, BinaryType &gt;::json_value</text>
</a>
</g>
</g>
<!-- Node9&#45;&gt;Node8 -->
<g id="edge8" class="edge">
<title>Node9&#45;&gt;Node8</title>
<path fill="none" stroke="#9a32cd" stroke-dasharray="5,2" d="M535.2136,-841C557.2827,-841 580.2384,-841 601.7357,-841"/>
<polygon fill="#9a32cd" stroke="#9a32cd" points="535.1446,-837.5001 525.1446,-841 535.1445,-844.5001 535.1446,-837.5001"/>
<text text-anchor="middle" x="563.5" y="-844" font-family="Helvetica,sans-Serif" font-size="10.00" fill="#000000"> m_value</text>
</g>
<!-- Node10 -->
<g id="node10" class="node">
<title>Node10</title>
<g id="a_node10"><a xlink:href="../../dd/d0d/classnlohmann_1_1byte__container__with__subtype.html" target="_top" xlink:title="an internal type for a backed binary type">
<polygon fill="#ffffff" stroke="#000000" points="104,-826 104,-856 252,-856 252,-826 104,-826"/>
<text text-anchor="start" x="112" y="-844" font-family="Helvetica,sans-Serif" font-size="10.00" fill="#000000">nlohmann::byte_container</text>
<text text-anchor="middle" x="178" y="-833" font-family="Helvetica,sans-Serif" font-size="10.00" fill="#000000">_with_subtype&lt; BinaryType &gt;</text>
</a>
</g>
</g>
<!-- Node10&#45;&gt;Node9 -->
<g id="edge9" class="edge">
<title>Node10&#45;&gt;Node9</title>
<path fill="none" stroke="#9a32cd" stroke-dasharray="5,2" d="M262.2131,-841C280.4873,-841 300.0164,-841 318.924,-841"/>
<polygon fill="#9a32cd" stroke="#9a32cd" points="262.2019,-837.5001 252.2018,-841 262.2018,-844.5001 262.2019,-837.5001"/>
<text text-anchor="middle" x="285.5" y="-844" font-family="Helvetica,sans-Serif" font-size="10.00" fill="#000000"> binary</text>
</g>
<!-- Node11 -->
<g id="node11" class="node">
<title>Node11</title>
<g id="a_node11"><a xlink:title=" ">
<polygon fill="#ffffff" stroke="#bfbfbf" points="0,-831.5 0,-850.5 67,-850.5 67,-831.5 0,-831.5"/>
<text text-anchor="middle" x="33.5" y="-838.5" font-family="Helvetica,sans-Serif" font-size="10.00" fill="#000000">BinaryType</text>
</a>
</g>
</g>
<!-- Node11&#45;&gt;Node10 -->
<g id="edge10" class="edge">
<title>Node11&#45;&gt;Node10</title>
<path fill="none" stroke="#191970" d="M77.0237,-841C85.5195,-841 94.6484,-841 103.8187,-841"/>
<polygon fill="#191970" stroke="#191970" points="77.0144,-837.5001 67.0144,-841 77.0144,-844.5001 77.0144,-837.5001"/>
</g>
<!-- Node12&#45;&gt;Node6 -->
<g id="edge11" class="edge">
<title>Node12&#45;&gt;Node6</title>
<path fill="none" stroke="#9a32cd" stroke-dasharray="5,2" d="M992.2828,-911.3893C1023.7334,-904.7345 1061.9187,-895.247 1095,-883 1118.9999,-874.115 1145.0312,-859.93 1161.1796,-850.5407"/>
<polygon fill="#9a32cd" stroke="#9a32cd" points="991.4065,-907.9964 982.3233,-913.4504 992.8251,-914.8512 991.4065,-907.9964"/>
<text text-anchor="middle" x="1057" y="-907" font-family="Helvetica,sans-Serif" font-size="10.00" fill="#000000"> mixer_</text>
</g>
<!-- Node13&#45;&gt;Node6 -->
<g id="edge13" class="edge">
<title>Node13&#45;&gt;Node6</title>
<path fill="none" stroke="#9a32cd" stroke-dasharray="5,2" d="M994.1586,-873.6962C1024.8098,-868.3853 1061.7827,-861.9309 1095,-856 1108.6771,-853.558 1123.6277,-850.8381 1136.9732,-848.3922"/>
<polygon fill="#9a32cd" stroke="#9a32cd" points="993.2772,-870.2966 984.0207,-875.451 994.4712,-877.194 993.2772,-870.2966"/>
<text text-anchor="middle" x="1057" y="-871" font-family="Helvetica,sans-Serif" font-size="10.00" fill="#000000"> hubbard_</text>
</g>
<!-- Node14&#45;&gt;Node6 -->
<g id="edge15" class="edge">
<title>Node14&#45;&gt;Node6</title>
<path fill="none" stroke="#9a32cd" stroke-dasharray="5,2" d="M999.4598,-841C1043.9143,-841 1099.5976,-841 1136.6304,-841"/>
<polygon fill="#9a32cd" stroke="#9a32cd" points="999.29,-837.5001 989.2899,-841 999.2899,-844.5001 999.29,-837.5001"/>
<text text-anchor="middle" x="1057" y="-844" font-family="Helvetica,sans-Serif" font-size="10.00" fill="#000000"> iterative_solver_</text>
</g>
<!-- Node15&#45;&gt;Node6 -->
<g id="edge17" class="edge">
<title>Node15&#45;&gt;Node6</title>
<path fill="none" stroke="#9a32cd" stroke-dasharray="5,2" d="M994.1586,-808.3038C1024.8098,-813.6147 1061.7827,-820.0691 1095,-826 1108.6771,-828.442 1123.6277,-831.1619 1136.9732,-833.6078"/>
<polygon fill="#9a32cd" stroke="#9a32cd" points="994.4712,-804.806 984.0207,-806.549 993.2772,-811.7034 994.4712,-804.806"/>
<text text-anchor="middle" x="1057" y="-829" font-family="Helvetica,sans-Serif" font-size="10.00" fill="#000000"> parameters_</text>
</g>
<!-- Node16&#45;&gt;Node6 -->
<g id="edge19" class="edge">
<title>Node16&#45;&gt;Node6</title>
<path fill="none" stroke="#9a32cd" stroke-dasharray="5,2" d="M989.7863,-766.1605C1021.6973,-773.8597 1061.0384,-784.6919 1095,-798 1118.9467,-807.3837 1144.9913,-821.8346 1161.1572,-831.3533"/>
<polygon fill="#9a32cd" stroke="#9a32cd" points="990.2404,-762.6712 979.7029,-763.7716 988.6267,-769.4827 990.2404,-762.6712"/>
<text text-anchor="middle" x="1057" y="-801" font-family="Helvetica,sans-Serif" font-size="10.00" fill="#000000"> unit_cell_</text>
</g>
<!-- Node17&#45;&gt;Node6 -->
<g id="edge21" class="edge">
<title>Node17&#45;&gt;Node6</title>
<path fill="none" stroke="#9a32cd" stroke-dasharray="5,2" d="M995.1694,-720.8183C1026.9903,-728.4503 1064.6483,-740.5094 1095,-759 1127.6678,-778.9015 1157.0134,-814.4308 1169.9734,-831.4278"/>
<polygon fill="#9a32cd" stroke="#9a32cd" points="995.5898,-717.3237 985.0598,-718.4934 994.021,-724.1456 995.5898,-717.3237"/>
<text text-anchor="middle" x="1057" y="-762" font-family="Helvetica,sans-Serif" font-size="10.00" fill="#000000"> nlcg_</text>
</g>
<!-- Node18&#45;&gt;Node6 -->
<g id="edge23" class="edge">
<title>Node18&#45;&gt;Node6</title>
<path fill="none" stroke="#9a32cd" stroke-dasharray="5,2" d="M1003.2172,-993.8786C1033.756,-988.8873 1068.1386,-979.2928 1095,-961 1137.3375,-932.1679 1164.0919,-873.6058 1173.3553,-850.5932"/>
<polygon fill="#9a32cd" stroke="#9a32cd" points="1002.3977,-990.4621 993.0243,-995.4007 1003.4316,-997.3853 1002.3977,-990.4621"/>
<text text-anchor="middle" x="1057" y="-993" font-family="Helvetica,sans-Serif" font-size="10.00" fill="#000000"> settings_</text>
</g>
<!-- Node19 -->
<g id="node19" class="node">
<title>Node19</title>
<g id="a_node19"><a xlink:href="../../d7/dab/classsddk_1_1mdarray.html" target="_top" xlink:title=" ">
<polygon fill="#ffffff" stroke="#000000" points="1509,-617.5 1509,-636.5 1628,-636.5 1628,-617.5 1509,-617.5"/>
<text text-anchor="middle" x="1568.5" y="-624.5" font-family="Helvetica,sans-Serif" font-size="10.00" fill="#000000">sddk::mdarray&lt; int, 2 &gt;</text>
</a>
</g>
</g>
<!-- Node19&#45;&gt;Node2 -->
<g id="edge26" class="edge">
<title>Node19&#45;&gt;Node2</title>
<path fill="none" stroke="#9a32cd" stroke-dasharray="5,2" d="M1638.1275,-624.9596C1674.4977,-622.3923 1719.3577,-616.8411 1758,-605 1776.8681,-599.2183 1796.5888,-588.8795 1811.3488,-580.1616"/>
<polygon fill="#9a32cd" stroke="#9a32cd" points="1637.86,-621.4695 1628.1066,-625.6073 1638.3116,-628.4549 1637.86,-621.4695"/>
<text text-anchor="middle" x="1707.5" y="-627" font-family="Helvetica,sans-Serif" font-size="10.00" fill="#000000"> gvec_coord_</text>
</g>
<!-- Node20 -->
<g id="node20" class="node">
<title>Node20</title>
<g id="a_node20"><a xlink:href="../../d7/dab/classsddk_1_1mdarray.html" target="_top" xlink:title=" ">
<polygon fill="#ffffff" stroke="#000000" points="1509.5,-761 1509.5,-791 1627.5,-791 1627.5,-761 1509.5,-761"/>
<text text-anchor="start" x="1517.5" y="-779" font-family="Helvetica,sans-Serif" font-size="10.00" fill="#000000">sddk::mdarray&lt; double</text>
<text text-anchor="middle" x="1568.5" y="-768" font-family="Helvetica,sans-Serif" font-size="10.00" fill="#000000">_complex, 1 &gt;</text>
</a>
</g>
</g>
<!-- Node20&#45;&gt;Node1 -->
<g id="edge35" class="edge">
<title>Node20&#45;&gt;Node1</title>
<path fill="none" stroke="#9a32cd" stroke-dasharray="5,2" d="M1637.924,-781.7445C1710.2043,-783.8558 1822.6351,-775.7286 1894,-715 2007.686,-618.258 2054.7855,-428.1559 2064.5253,-383.5342"/>
<polygon fill="#9a32cd" stroke="#9a32cd" points="1637.6825,-778.2334 1627.5607,-781.3638 1637.4254,-785.2287 1637.6825,-778.2334"/>
<text text-anchor="middle" x="1835" y="-772" font-family="Helvetica,sans-Serif" font-size="10.00" fill="#000000"> pw_coeffs_a_g0_</text>
</g>
<!-- Node20&#45;&gt;Node2 -->
<g id="edge27" class="edge">
<title>Node20&#45;&gt;Node2</title>
<path fill="none" stroke="#9a32cd" stroke-dasharray="5,2" d="M1637.632,-758.8755C1683.8244,-746.3525 1739.4042,-728.8551 1758,-713 1800.7581,-676.5437 1822.9305,-610.3481 1831.1623,-580.4229"/>
<polygon fill="#9a32cd" stroke="#9a32cd" points="1636.6899,-755.5043 1627.9342,-761.4699 1638.499,-762.2665 1636.6899,-755.5043"/>
<text text-anchor="middle" x="1707.5" y="-755" font-family="Helvetica,sans-Serif" font-size="10.00" fill="#000000"> theta_pw_</text>
</g>
<!-- Node21 -->
<g id="node21" class="node">
<title>Node21</title>
<g id="a_node21"><a xlink:href="../../d7/dab/classsddk_1_1mdarray.html" target="_top" xlink:title=" ">
<polygon fill="#ffffff" stroke="#000000" points="1499.5,-375.5 1499.5,-394.5 1637.5,-394.5 1637.5,-375.5 1499.5,-375.5"/>
<text text-anchor="middle" x="1568.5" y="-382.5" font-family="Helvetica,sans-Serif" font-size="10.00" fill="#000000">sddk::mdarray&lt; double, 1 &gt;</text>
</a>
</g>
</g>
<!-- Node21&#45;&gt;Node2 -->
<g id="edge28" class="edge">
<title>Node21&#45;&gt;Node2</title>
<path fill="none" stroke="#9a32cd" stroke-dasharray="5,2" d="M1647.8935,-384.8234C1691.5529,-386.2056 1740.3575,-390.6457 1758,-403 1808.761,-438.5458 1827.1328,-516.7197 1832.7975,-549.7692"/>
<polygon fill="#9a32cd" stroke="#9a32cd" points="1647.8917,-381.3222 1637.8018,-384.5538 1647.7047,-388.3197 1647.8917,-381.3222"/>
<text text-anchor="middle" x="1707.5" y="-406" font-family="Helvetica,sans-Serif" font-size="10.00" fill="#000000"> theta_</text>
</g>
<!-- Node29 -->
<g id="node29" class="node">
<title>Node29</title>
<g id="a_node29"><a xlink:href="../../dc/d9b/classsddk_1_1_gvec.html" target="_top" xlink:title="A set of G&#45;vectors for FFTs and G+k basis functions.">
<polygon fill="#ffffff" stroke="#000000" points="1801.5,-171.5 1801.5,-190.5 1868.5,-190.5 1868.5,-171.5 1801.5,-171.5"/>
<text text-anchor="middle" x="1835" y="-178.5" font-family="Helvetica,sans-Serif" font-size="10.00" fill="#000000">sddk::Gvec</text>
</a>
</g>
</g>
<!-- Node21&#45;&gt;Node29 -->
<g id="edge40" class="edge">
<title>Node21&#45;&gt;Node29</title>
<path fill="none" stroke="#9a32cd" stroke-dasharray="5,2" d="M1632.583,-373.6046C1685.8119,-363.8591 1753.5424,-350.6878 1758,-346 1794.2544,-307.8737 1749.847,-274.6511 1776,-229 1785.649,-212.1572 1803.6707,-198.8304 1817.2679,-190.5352"/>
<polygon fill="#9a32cd" stroke="#9a32cd" points="1631.7036,-370.2071 1622.4929,-375.443 1632.9583,-377.0938 1631.7036,-370.2071"/>
<text text-anchor="middle" x="1707.5" y="-372" font-family="Helvetica,sans-Serif" font-size="10.00" fill="#000000"> gvec_shell_len_</text>
</g>
<!-- Node22 -->
<g id="node22" class="node">
<title>Node22</title>
<g id="a_node22"><a xlink:href="../../d7/dab/classsddk_1_1mdarray.html" target="_top" xlink:title=" ">
<polygon fill="#ffffff" stroke="#000000" points="1509.5,-706 1509.5,-736 1627.5,-736 1627.5,-706 1509.5,-706"/>
<text text-anchor="start" x="1517.5" y="-724" font-family="Helvetica,sans-Serif" font-size="10.00" fill="#000000">sddk::mdarray&lt; double</text>
<text text-anchor="middle" x="1568.5" y="-713" font-family="Helvetica,sans-Serif" font-size="10.00" fill="#000000">_complex, 3 &gt;</text>
</a>
</g>
</g>
<!-- Node22&#45;&gt;Node1 -->
<g id="edge37" class="edge">
<title>Node22&#45;&gt;Node1</title>
<path fill="none" stroke="#9a32cd" stroke-dasharray="5,2" d="M1637.7027,-727.2107C1674.7072,-727.9554 1720.2852,-724.6401 1758,-709 1923.4202,-640.4011 2037.6211,-430.9487 2061.7443,-383.5874"/>
<polygon fill="#9a32cd" stroke="#9a32cd" points="1637.6086,-723.7063 1627.5066,-726.8999 1637.3952,-730.7031 1637.6086,-723.7063"/>
<text text-anchor="middle" x="1835" y="-703" font-family="Helvetica,sans-Serif" font-size="10.00" fill="#000000"> pw_coeffs_t_</text>
</g>
<!-- Node22&#45;&gt;Node2 -->
<g id="edge29" class="edge">
<title>Node22&#45;&gt;Node2</title>
<path fill="none" stroke="#9a32cd" stroke-dasharray="5,2" d="M1623.2187,-702.3464C1628.5857,-700.2927 1633.9212,-698.1605 1639,-696 1647.2305,-692.4987 1648.5933,-690.0541 1657,-687 1700.3657,-671.2453 1719.1324,-687.8615 1758,-663 1790.8095,-642.0135 1815.5483,-602.0896 1827.3453,-580.2344"/>
<polygon fill="#9a32cd" stroke="#9a32cd" points="1621.7169,-699.171 1613.5726,-705.9475 1624.1652,-705.729 1621.7169,-699.171"/>
<text text-anchor="middle" x="1707.5" y="-701" font-family="Helvetica,sans-Serif" font-size="10.00" fill="#000000"> phase_factors_</text>
<text text-anchor="middle" x="1707.5" y="-690" font-family="Helvetica,sans-Serif" font-size="10.00" fill="#000000">sym_phase_factors_</text>
</g>
<!-- Node23 -->
<g id="node23" class="node">
<title>Node23</title>
<g id="a_node23"><a xlink:href="../../d7/dab/classsddk_1_1mdarray.html" target="_top" xlink:title=" ">
<polygon fill="#ffffff" stroke="#000000" points="1509.5,-530 1509.5,-560 1627.5,-560 1627.5,-530 1509.5,-530"/>
<text text-anchor="start" x="1517.5" y="-548" font-family="Helvetica,sans-Serif" font-size="10.00" fill="#000000">sddk::mdarray&lt; double</text>
<text text-anchor="middle" x="1568.5" y="-537" font-family="Helvetica,sans-Serif" font-size="10.00" fill="#000000">_complex, 2 &gt;</text>
</a>
</g>
</g>
<!-- Node23&#45;&gt;Node2 -->
<g id="edge30" class="edge">
<title>Node23&#45;&gt;Node2</title>
<path fill="none" stroke="#9a32cd" stroke-dasharray="5,2" d="M1637.963,-543.4186C1673.9009,-543.3705 1718.4203,-544.5087 1758,-549 1768.0392,-550.1392 1778.7084,-551.9567 1788.8046,-553.9652"/>
<polygon fill="#9a32cd" stroke="#9a32cd" points="1637.5684,-539.9202 1627.5843,-543.4654 1637.6,-546.9202 1637.5684,-539.9202"/>
<text text-anchor="middle" x="1707.5" y="-552" font-family="Helvetica,sans-Serif" font-size="10.00" fill="#000000"> phase_factors_t_</text>
</g>
<!-- Node24 -->
<g id="node24" class="node">
<title>Node24</title>
<g id="a_node24"><a xlink:href="../../da/d70/classsddk_1_1_communicator.html" target="_top" xlink:title="MPI communicator wrapper.">
<polygon fill="#ffffff" stroke="#000000" points="1514.5,-443.5 1514.5,-462.5 1622.5,-462.5 1622.5,-443.5 1514.5,-443.5"/>
<text text-anchor="middle" x="1568.5" y="-450.5" font-family="Helvetica,sans-Serif" font-size="10.00" fill="#000000">sddk::Communicator</text>
</a>
</g>
</g>
<!-- Node24&#45;&gt;Node2 -->
<g id="edge31" class="edge">
<title>Node24&#45;&gt;Node2</title>
<path fill="none" stroke="#9a32cd" stroke-dasharray="5,2" d="M1632.8458,-453.8806C1671.1168,-456.7658 1719.542,-464.6893 1758,-485 1787.3189,-500.4841 1811.9996,-531.2748 1825.0396,-549.814"/>
<polygon fill="#9a32cd" stroke="#9a32cd" points="1633.0517,-450.3867 1622.8435,-453.2226 1632.5922,-457.3716 1633.0517,-450.3867"/>
<text text-anchor="middle" x="1707.5" y="-532" font-family="Helvetica,sans-Serif" font-size="10.00" fill="#000000"> comm_</text>
<text text-anchor="start" x="1665.5" y="-521" font-family="Helvetica,sans-Serif" font-size="10.00" fill="#000000">comm_band_ortho</text>
<text text-anchor="middle" x="1707.5" y="-510" font-family="Helvetica,sans-Serif" font-size="10.00" fill="#000000">_fft_coarse_</text>
<text text-anchor="start" x="1665.5" y="-499" font-family="Helvetica,sans-Serif" font-size="10.00" fill="#000000">comm_ortho_fft</text>
<text text-anchor="middle" x="1707.5" y="-488" font-family="Helvetica,sans-Serif" font-size="10.00" fill="#000000">_coarse_</text>
</g>
<!-- Node24&#45;&gt;Node29 -->
<g id="edge45" class="edge">
<title>Node24&#45;&gt;Node29</title>
<path fill="none" stroke="#9a32cd" stroke-dasharray="5,2" d="M1632.8155,-443.599C1684.3667,-435.4405 1749.4724,-423.4829 1758,-414 1785.6193,-383.2868 1756.4727,-265.3979 1776,-229 1785.1142,-212.0116 1803.0227,-198.7883 1816.73,-190.5611"/>
<polygon fill="#9a32cd" stroke="#9a32cd" points="1632.0467,-440.1765 1622.7067,-445.1781 1633.1271,-447.0927 1632.0467,-440.1765"/>
<text text-anchor="middle" x="1707.5" y="-443" font-family="Helvetica,sans-Serif" font-size="10.00" fill="#000000"> comm_</text>
</g>
<!-- Node25 -->
<g id="node25" class="node">
<title>Node25</title>
<g id="a_node25"><a xlink:href="../../d7/dab/classsddk_1_1mdarray.html" target="_top" xlink:title=" ">
<polygon fill="#ffffff" stroke="#000000" points="1499.5,-291.5 1499.5,-310.5 1637.5,-310.5 1637.5,-291.5 1499.5,-291.5"/>
<text text-anchor="middle" x="1568.5" y="-298.5" font-family="Helvetica,sans-Serif" font-size="10.00" fill="#000000">sddk::mdarray&lt; double, 2 &gt;</text>
</a>
</g>
</g>
<!-- Node25&#45;&gt;Node1 -->
<g id="edge50" class="edge">
<title>Node25&#45;&gt;Node1</title>
<path fill="none" stroke="#9a32cd" stroke-dasharray="5,2" d="M1647.8997,-304.8226C1681.8984,-306.9874 1721.989,-310.2424 1758,-315 1854.2267,-327.7131 1965.7854,-351.2712 2024.8333,-364.4466"/>
<polygon fill="#9a32cd" stroke="#9a32cd" points="1647.7515,-301.307 1637.5552,-304.1853 1647.321,-308.2937 1647.7515,-301.307"/>
<text text-anchor="middle" x="1835" y="-340" font-family="Helvetica,sans-Serif" font-size="10.00" fill="#000000"> gkvec_coord_</text>
</g>
<!-- Node25&#45;&gt;Node2 -->
<g id="edge32" class="edge">
<title>Node25&#45;&gt;Node2</title>
<path fill="none" stroke="#9a32cd" stroke-dasharray="5,2" d="M1644.5582,-312.0116C1695.2831,-319.6545 1753.4883,-329.1314 1758,-333 1792.2299,-362.351 1822.6881,-502.8296 1832.0508,-549.723"/>
<polygon fill="#9a32cd" stroke="#9a32cd" points="1644.9393,-308.5297 1634.5311,-310.5096 1643.9023,-315.4524 1644.9393,-308.5297"/>
<text text-anchor="middle" x="1707.5" y="-336" font-family="Helvetica,sans-Serif" font-size="10.00" fill="#000000"> gvec_tp_</text>
</g>
<!-- Node25&#45;&gt;Node29 -->
<g id="edge47" class="edge">
<title>Node25&#45;&gt;Node29</title>
<path fill="none" stroke="#9a32cd" stroke-dasharray="5,2" d="M1598.6116,-287.3287C1615.5254,-280.0123 1637.162,-271.2481 1657,-265 1700.9116,-251.1698 1716.484,-261.898 1758,-242 1761.6526,-240.2494 1802.2982,-207.4959 1823.0134,-190.7238"/>
<polygon fill="#9a32cd" stroke="#9a32cd" points="1596.9976,-284.2148 1589.248,-291.4393 1599.8115,-290.6244 1596.9976,-284.2148"/>
<text text-anchor="middle" x="1707.5" y="-279" font-family="Helvetica,sans-Serif" font-size="10.00" fill="#000000"> gkvec_cart_</text>
<text text-anchor="middle" x="1707.5" y="-268" font-family="Helvetica,sans-Serif" font-size="10.00" fill="#000000">gvec_cart_</text>
</g>
<!-- Node26 -->
<g id="node26" class="node">
<title>Node26</title>
<g id="a_node26"><a xlink:href="../../dd/d26/classsddk_1_1_f_f_t3_d__grid.html" target="_top" xlink:title="Handling of FFT grids.">
<polygon fill="#ffffff" stroke="#000000" points="1520,-579.5 1520,-598.5 1617,-598.5 1617,-579.5 1520,-579.5"/>
<text text-anchor="middle" x="1568.5" y="-586.5" font-family="Helvetica,sans-Serif" font-size="10.00" fill="#000000">sddk::FFT3D_grid</text>
</a>
</g>
</g>
<!-- Node26&#45;&gt;Node2 -->
<g id="edge33" class="edge">
<title>Node26&#45;&gt;Node2</title>
<path fill="none" stroke="#9a32cd" stroke-dasharray="5,2" d="M1627.1495,-583.7182C1675.8513,-579.3323 1744.1698,-573.1798 1788.9915,-569.1434"/>
<polygon fill="#9a32cd" stroke="#9a32cd" points="1626.7161,-580.243 1617.0703,-584.6259 1627.344,-587.2148 1626.7161,-580.243"/>
<text text-anchor="middle" x="1707.5" y="-595" font-family="Helvetica,sans-Serif" font-size="10.00" fill="#000000"> fft_coarse_grid_</text>
<text text-anchor="middle" x="1707.5" y="-584" font-family="Helvetica,sans-Serif" font-size="10.00" fill="#000000">fft_grid_</text>
</g>
<!-- Node27 -->
<g id="node27" class="node">
<title>Node27</title>
<g id="a_node27"><a xlink:title=" ">
<polygon fill="#ffffff" stroke="#bfbfbf" points="1285,-579.5 1285,-598.5 1382,-598.5 1382,-579.5 1285,-579.5"/>
<text text-anchor="middle" x="1333.5" y="-586.5" font-family="Helvetica,sans-Serif" font-size="10.00" fill="#000000">std::array&lt; int, 3 &gt;</text>
</a>
</g>
</g>
<!-- Node27&#45;&gt;Node26 -->
<g id="edge34" class="edge">
<title>Node27&#45;&gt;Node26</title>
<path fill="none" stroke="#191970" d="M1392.4362,-589C1431.7682,-589 1482.8627,-589 1519.8702,-589"/>
<polygon fill="#191970" stroke="#191970" points="1392.1922,-585.5001 1382.1922,-589 1392.1921,-592.5001 1392.1922,-585.5001"/>
</g>
<!-- Node28 -->
<g id="node28" class="node">
<title>Node28</title>
<g id="a_node28"><a xlink:href="../../d7/dab/classsddk_1_1mdarray.html" target="_top" xlink:title=" ">
<polygon fill="#ffffff" stroke="#000000" points="1776,-239 1776,-269 1894,-269 1894,-239 1776,-239"/>
<text text-anchor="start" x="1784" y="-257" font-family="Helvetica,sans-Serif" font-size="10.00" fill="#000000">sddk::mdarray&lt; double</text>
<text text-anchor="middle" x="1835" y="-246" font-family="Helvetica,sans-Serif" font-size="10.00" fill="#000000">_complex &gt;</text>
</a>
</g>
</g>
<!-- Node28&#45;&gt;Node1 -->
<g id="edge36" class="edge">
<title>Node28&#45;&gt;Node1</title>
<path fill="none" stroke="#9a32cd" stroke-dasharray="5,2" d="M1904.2062,-258.5277C1928.3383,-262.2933 1954.891,-269.0297 1977,-281 2015.4253,-301.8044 2047.2413,-344.8746 2060.222,-364.2191"/>
<polygon fill="#9a32cd" stroke="#9a32cd" points="1904.4236,-255.0237 1894.032,-257.0891 1903.4435,-261.9548 1904.4236,-255.0237"/>
<text text-anchor="middle" x="1944.5" y="-284" font-family="Helvetica,sans-Serif" font-size="10.00" fill="#000000"> pw_coeffs_a_</text>
</g>
<!-- Node29&#45;&gt;Node1 -->
<g id="edge38" class="edge">
<title>Node29&#45;&gt;Node1</title>
<path fill="none" stroke="#9a32cd" stroke-dasharray="5,2" d="M1877.6972,-193.8348C1907.7659,-204.3848 1947.7186,-221.589 1977,-246 2019.2797,-281.2473 2050.784,-341.0809 2062.0165,-364.345"/>
<polygon fill="#9a32cd" stroke="#9a32cd" points="1878.503,-190.4122 1867.9086,-190.5113 1876.2524,-197.0406 1878.503,-190.4122"/>
<text text-anchor="middle" x="1944.5" y="-249" font-family="Helvetica,sans-Serif" font-size="10.00" fill="#000000"> gkvec_</text>
</g>
<!-- Node29&#45;&gt;Node29 -->
<g id="edge46" class="edge">
<title>Node29&#45;&gt;Node29</title>
<path fill="none" stroke="#9a32cd" stroke-dasharray="5,2" d="M1815.001,-200.4C1816.3366,-205.3146 1823.0029,-209 1835,-209 1854.1953,-209 1859.744,-199.5653 1851.6459,-190.7571"/>
<polygon fill="#9a32cd" stroke="#9a32cd" points="1818.3755,-201.3519 1818.3541,-190.7571 1811.7638,-199.0528 1818.3755,-201.3519"/>
<text text-anchor="middle" x="1835" y="-212" font-family="Helvetica,sans-Serif" font-size="10.00" fill="#000000"> gvec_base_</text>
</g>
<!-- Node30 -->
<g id="node30" class="node">
<title>Node30</title>
<g id="a_node30"><a xlink:href="../../d7/dab/classsddk_1_1mdarray.html" target="_top" xlink:title=" ">
<polygon fill="#ffffff" stroke="#000000" points="1509,-41.5 1509,-60.5 1628,-60.5 1628,-41.5 1509,-41.5"/>
<text text-anchor="middle" x="1568.5" y="-48.5" font-family="Helvetica,sans-Serif" font-size="10.00" fill="#000000">sddk::mdarray&lt; int, 3 &gt;</text>
</a>
</g>
</g>
<!-- Node30&#45;&gt;Node29 -->
<g id="edge39" class="edge">
<title>Node30&#45;&gt;Node29</title>
<path fill="none" stroke="#9a32cd" stroke-dasharray="5,2" d="M1638.5333,-58.5187C1675.9776,-64.8898 1721.7078,-76.5894 1758,-98 1790.3347,-117.0759 1817.2825,-153.8894 1828.8823,-171.354"/>
<polygon fill="#9a32cd" stroke="#9a32cd" points="1638.6352,-54.9903 1628.2065,-56.8594 1637.5246,-61.9016 1638.6352,-54.9903"/>
<text text-anchor="middle" x="1707.5" y="-101" font-family="Helvetica,sans-Serif" font-size="10.00" fill="#000000"> gvec_index_by_xy_</text>
</g>
<!-- Node31 -->
<g id="node31" class="node">
<title>Node31</title>
<g id="a_node31"><a xlink:href="../../d7/dab/classsddk_1_1mdarray.html" target="_top" xlink:title=" ">
<polygon fill="#ffffff" stroke="#000000" points="1509,-.5 1509,-19.5 1628,-19.5 1628,-.5 1509,-.5"/>
<text text-anchor="middle" x="1568.5" y="-7.5" font-family="Helvetica,sans-Serif" font-size="10.00" fill="#000000">sddk::mdarray&lt; int, 1 &gt;</text>
</a>
</g>
</g>
<!-- Node31&#45;&gt;Node29 -->
<g id="edge41" class="edge">
<title>Node31&#45;&gt;Node29</title>
<path fill="none" stroke="#9a32cd" stroke-dasharray="5,2" d="M1638.3123,-5.2295C1676.7518,-6.001 1723.5103,-12.8614 1758,-37 1806.3107,-70.8115 1826.9486,-144.7418 1832.9893,-171.277"/>
<polygon fill="#9a32cd" stroke="#9a32cd" points="1638.2449,-1.7291 1628.2212,-5.1606 1638.197,-8.7289 1638.2449,-1.7291"/>
<text text-anchor="middle" x="1707.5" y="-51" font-family="Helvetica,sans-Serif" font-size="10.00" fill="#000000"> gvec_base_mapping_</text>
<text text-anchor="middle" x="1707.5" y="-40" font-family="Helvetica,sans-Serif" font-size="10.00" fill="#000000">gvec_shell_</text>
</g>
<!-- Node32 -->
<g id="node32" class="node">
<title>Node32</title>
<g id="a_node32"><a xlink:href="../../db/dea/structsddk_1_1block__data__descriptor.html" target="_top" xlink:title=" ">
<polygon fill="#ffffff" stroke="#000000" points="1498,-227.5 1498,-246.5 1639,-246.5 1639,-227.5 1498,-227.5"/>
<text text-anchor="middle" x="1568.5" y="-234.5" font-family="Helvetica,sans-Serif" font-size="10.00" fill="#000000">sddk::block_data_descriptor</text>
</a>
</g>
</g>
<!-- Node32&#45;&gt;Node29 -->
<g id="edge42" class="edge">
<title>Node32&#45;&gt;Node29</title>
<path fill="none" stroke="#9a32cd" stroke-dasharray="5,2" d="M1624.0308,-225.3312C1677.6027,-214.0741 1756.941,-197.4026 1801.4932,-188.0408"/>
<polygon fill="#9a32cd" stroke="#9a32cd" points="1623.0767,-221.9552 1614.0102,-227.4369 1624.5162,-228.8056 1623.0767,-221.9552"/>
<text text-anchor="middle" x="1707.5" y="-232" font-family="Helvetica,sans-Serif" font-size="10.00" fill="#000000"> gvec_distr_</text>
<text text-anchor="middle" x="1707.5" y="-221" font-family="Helvetica,sans-Serif" font-size="10.00" fill="#000000">zcol_distr_</text>
</g>
<!-- Node33 -->
<g id="node33" class="node">
<title>Node33</title>
<g id="a_node33"><a xlink:href="../../d7/dab/classsddk_1_1mdarray.html" target="_top" xlink:title=" ">
<polygon fill="#ffffff" stroke="#000000" points="1510.5,-178 1510.5,-208 1626.5,-208 1626.5,-178 1510.5,-178"/>
<text text-anchor="start" x="1518.5" y="-196" font-family="Helvetica,sans-Serif" font-size="10.00" fill="#000000">sddk::mdarray&lt; uint32</text>
<text text-anchor="middle" x="1568.5" y="-185" font-family="Helvetica,sans-Serif" font-size="10.00" fill="#000000">_t, 1 &gt;</text>
</a>
</g>
</g>
<!-- Node33&#45;&gt;Node29 -->
<g id="edge43" class="edge">
<title>Node33&#45;&gt;Node29</title>
<path fill="none" stroke="#9a32cd" stroke-dasharray="5,2" d="M1636.6038,-187.2623C1643.4905,-186.7873 1650.3821,-186.3544 1657,-186 1707.1649,-183.3133 1765.365,-182.0228 1801.1865,-181.4385"/>
<polygon fill="#9a32cd" stroke="#9a32cd" points="1636.2738,-183.7768 1626.5501,-187.984 1636.7751,-190.7589 1636.2738,-183.7768"/>
<text text-anchor="middle" x="1707.5" y="-189" font-family="Helvetica,sans-Serif" font-size="10.00" fill="#000000"> gvec_full_index_</text>
</g>
<!-- Node34 -->
<g id="node34" class="node">
<title>Node34</title>
<g id="a_node34"><a xlink:href="../../da/dfd/classgeometry3d_1_1matrix3d.html" target="_top" xlink:title=" ">
<polygon fill="#ffffff" stroke="#000000" points="1512,-129 1512,-159 1625,-159 1625,-129 1512,-129"/>
<text text-anchor="start" x="1520" y="-147" font-family="Helvetica,sans-Serif" font-size="10.00" fill="#000000">geometry3d::matrix3d</text>
<text text-anchor="middle" x="1568.5" y="-136" font-family="Helvetica,sans-Serif" font-size="10.00" fill="#000000">&lt; double &gt;</text>
</a>
</g>
</g>
<!-- Node34&#45;&gt;Node29 -->
<g id="edge44" class="edge">
<title>Node34&#45;&gt;Node29</title>
<path fill="none" stroke="#9a32cd" stroke-dasharray="5,2" d="M1635.3706,-151.7862C1671.6952,-156.1875 1717.3676,-161.9996 1758,-168 1772.2165,-170.0994 1787.8614,-172.6891 1801.3145,-175.0031"/>
<polygon fill="#9a32cd" stroke="#9a32cd" points="1635.7318,-148.3045 1625.385,-150.5832 1634.8945,-155.2542 1635.7318,-148.3045"/>
<text text-anchor="middle" x="1707.5" y="-171" font-family="Helvetica,sans-Serif" font-size="10.00" fill="#000000"> lattice_vectors_</text>
</g>
<!-- Node35 -->
<g id="node35" class="node">
<title>Node35</title>
<g id="a_node35"><a xlink:href="../../d2/d6b/classgeometry3d_1_1vector3d.html" target="_top" xlink:title=" ">
<polygon fill="#ffffff" stroke="#000000" points="1512,-80 1512,-110 1625,-110 1625,-80 1512,-80"/>
<text text-anchor="start" x="1520" y="-98" font-family="Helvetica,sans-Serif" font-size="10.00" fill="#000000">geometry3d::vector3d</text>
<text text-anchor="middle" x="1568.5" y="-87" font-family="Helvetica,sans-Serif" font-size="10.00" fill="#000000">&lt; double &gt;</text>
</a>
</g>
</g>
<!-- Node35&#45;&gt;Node29 -->
<g id="edge48" class="edge">
<title>Node35&#45;&gt;Node29</title>
<path fill="none" stroke="#9a32cd" stroke-dasharray="5,2" d="M1635.3188,-106.5158C1672.1857,-113.943 1718.3882,-125.035 1758,-140 1780.5266,-148.5104 1804.7743,-162.2653 1819.9153,-171.4672"/>
<polygon fill="#9a32cd" stroke="#9a32cd" points="1635.6693,-103.0176 1625.1812,-104.5179 1634.3158,-109.8855 1635.6693,-103.0176"/>
<text text-anchor="middle" x="1707.5" y="-143" font-family="Helvetica,sans-Serif" font-size="10.00" fill="#000000"> vk_</text>
</g>
<!-- Node36 -->
<g id="node36" class="node">
<title>Node36</title>
<g id="a_node36"><a xlink:title=" ">
<polygon fill="#ffffff" stroke="#bfbfbf" points="1285,-80 1285,-110 1382,-110 1382,-80 1285,-80"/>
<text text-anchor="start" x="1293" y="-98" font-family="Helvetica,sans-Serif" font-size="10.00" fill="#000000">std::array&lt; double</text>
<text text-anchor="middle" x="1333.5" y="-87" font-family="Helvetica,sans-Serif" font-size="10.00" fill="#000000"> , 3 &gt;</text>
</a>
</g>
</g>
<!-- Node36&#45;&gt;Node35 -->
<g id="edge49" class="edge">
<title>Node36&#45;&gt;Node35</title>
<path fill="none" stroke="#191970" d="M1392.2021,-95C1428.7122,-95 1475.4261,-95 1511.5943,-95"/>
<polygon fill="#191970" stroke="#191970" points="1392.1922,-91.5001 1382.1922,-95 1392.1921,-98.5001 1392.1922,-91.5001"/>
</g>
</g>
</svg>
