<?xml version="1.0" encoding="UTF-8" standalone="no"?>
<!DOCTYPE svg PUBLIC "-//W3C//DTD SVG 1.1//EN"
 "http://www.w3.org/Graphics/SVG/1.1/DTD/svg11.dtd">
<!-- Generated by graphviz version 2.40.1 (20161225.0304)
 -->
<!-- Title: wave_functions.hpp Pages: 1 -->
<!--zoomable 1204 -->
<svg id="main" version="1.1" xmlns="http://www.w3.org/2000/svg" xmlns:xlink="http://www.w3.org/1999/xlink" xml:space="preserve" onload="init(evt)">
<style type="text/css"><![CDATA[
.edge:hover path { stroke: red; }
.edge:hover polygon { stroke: red; fill: red; }
]]></style>
<script type="text/javascript"><![CDATA[
var edges = document.getElementsByTagName('g');
if (edges && edges.length) {
  for (var i=0;i<edges.length;i++) {
    if (edges[i].id.substr(0,4)=='edge') {
      edges[i].setAttribute('class','edge');
    }
  }
}
]]></script>
        <defs>
                <circle id="rim" cx="0" cy="0" r="7"/>
                <circle id="rim2" cx="0" cy="0" r="3.5"/>
                <g id="zoomPlus">
                        <use xlink:href="#rim" fill="#404040">
                                <set attributeName="fill" to="#808080" begin="zoomplus.mouseover" end="zoomplus.mouseout"/>
                        </use>
                        <path d="M-4,0h8M0,-4v8" fill="none" stroke="white" stroke-width="1.5" pointer-events="none"/>
                </g>
                <g id="zoomMin">
                        <use xlink:href="#rim" fill="#404040">
                                <set attributeName="fill" to="#808080" begin="zoomminus.mouseover" end="zoomminus.mouseout"/>
                        </use>
                        <path d="M-4,0h8" fill="none" stroke="white" stroke-width="1.5" pointer-events="none"/>
                </g>
                <g id="dirArrow">
                        <path fill="none" stroke="white" stroke-width="1.5" d="M0,-3.0v7 M-2.5,-0.5L0,-3.0L2.5,-0.5"/>
                </g>
               <g id="resetDef">
                       <use xlink:href="#rim2" fill="#404040">
                               <set attributeName="fill" to="#808080" begin="reset.mouseover" end="reset.mouseout"/>
                       </use>
               </g>
        </defs>

<script type="text/javascript">
var viewWidth = 1104;
var viewHeight = 1204;
var sectionId = 'dynsection-1';
</script>
<script xlink:href="../../svgpan.js"/>
<svg id="graph" class="graph">
<g id="viewport">
<title>wave_functions.hpp</title>
<polygon fill="#ffffff" stroke="transparent" points="-4,4 -4,-1200 1100,-1200 1100,4 -4,4"/>
<!-- Node50 -->
<g id="node1" class="node">
<title>Node50</title>
<polygon fill="#bfbfbf" stroke="#000000" points="90.5,-1176.5 90.5,-1195.5 195.5,-1195.5 195.5,-1176.5 90.5,-1176.5"/>
<text text-anchor="middle" x="143" y="-1183.5" font-family="Helvetica,sans-Serif" font-size="10.00" fill="#000000">wave_functions.hpp</text>
</g>
<!-- Node51 -->
<g id="node2" class="node">
<title>Node51</title>
<g id="a_node2"><a xlink:href="../../d0/d85/beta__projectors_8hpp.html" target="_top" xlink:title="Contains declaration and implementation of sirius::Beta_projectors class. ">
<polygon fill="#ffffff" stroke="#000000" points="351.5,-504.5 351.5,-523.5 456.5,-523.5 456.5,-504.5 351.5,-504.5"/>
<text text-anchor="middle" x="404" y="-511.5" font-family="Helvetica,sans-Serif" font-size="10.00" fill="#000000">beta_projectors.hpp</text>
</a>
</g>
</g>
<!-- Node50&#45;&gt;Node51 -->
<g id="edge1" class="edge">
<title>Node50&#45;&gt;Node51</title>
<path fill="none" stroke="#191970" d="M148.3978,-1166.3284C154.0148,-1144.0948 162,-1106.7312 162,-1074 162,-1074 162,-1074 162,-626 162,-581.8459 296.3583,-541.3094 364.8496,-523.5138"/>
<polygon fill="#191970" stroke="#191970" points="144.9585,-1165.6455 145.8035,-1176.2066 151.7289,-1167.4237 144.9585,-1165.6455"/>
</g>
<!-- Node53 -->
<g id="node4" class="node">
<title>Node53</title>
<g id="a_node4"><a xlink:href="../../db/d74/hubbard_8hpp.html" target="_top" xlink:title="Contains declaration and partial implementation of sirius::Hubbard class. ">
<polygon fill="#ffffff" stroke="#000000" points="480.5,-392.5 480.5,-411.5 553.5,-411.5 553.5,-392.5 480.5,-392.5"/>
<text text-anchor="middle" x="517" y="-399.5" font-family="Helvetica,sans-Serif" font-size="10.00" fill="#000000">hubbard.hpp</text>
</a>
</g>
</g>
<!-- Node50&#45;&gt;Node53 -->
<g id="edge34" class="edge">
<title>Node50&#45;&gt;Node53</title>
<path fill="none" stroke="#191970" d="M137.6022,-1166.3284C131.9852,-1144.0948 124,-1106.7312 124,-1074 124,-1074 124,-1074 124,-514 124,-483.4754 119.6484,-467.6585 143,-448 199.2644,-400.6339 399.4373,-423.9954 472,-412 474.6846,-411.5562 477.4499,-411.0539 480.227,-410.5165"/>
<polygon fill="#191970" stroke="#191970" points="134.2711,-1167.4237 140.1965,-1176.2066 141.0415,-1165.6455 134.2711,-1167.4237"/>
</g>
<!-- Node60 -->
<g id="node11" class="node">
<title>Node60</title>
<g id="a_node11"><a xlink:href="../../d3/d9a/k__point_8hpp.html" target="_top" xlink:title="Contains definition and partial implementation of sirius::K_point class. ">
<polygon fill="#ffffff" stroke="#000000" points="28,-448.5 28,-467.5 96,-467.5 96,-448.5 28,-448.5"/>
<text text-anchor="middle" x="62" y="-455.5" font-family="Helvetica,sans-Serif" font-size="10.00" fill="#000000">k_point.hpp</text>
</a>
</g>
</g>
<!-- Node50&#45;&gt;Node60 -->
<g id="edge33" class="edge">
<title>Node50&#45;&gt;Node60</title>
<path fill="none" stroke="#191970" d="M124.6409,-1169.4899C104.2001,-1149.2007 74,-1112.6797 74,-1074 74,-1074 74,-1074 74,-570 74,-531.8663 67.0374,-486.8428 63.7193,-467.5514"/>
<polygon fill="#191970" stroke="#191970" points="122.2667,-1172.0622 131.914,-1176.4418 127.1035,-1167.002 122.2667,-1172.0622"/>
</g>
<!-- Node68 -->
<g id="node19" class="node">
<title>Node68</title>
<g id="a_node19"><a xlink:href="../../db/d5a/sddk_8hpp.html" target="_top" xlink:title="Main include file for SDDK library. ">
<polygon fill="#ffffff" stroke="#000000" points="321.5,-1120.5 321.5,-1139.5 378.5,-1139.5 378.5,-1120.5 321.5,-1120.5"/>
<text text-anchor="middle" x="350" y="-1127.5" font-family="Helvetica,sans-Serif" font-size="10.00" fill="#000000">sddk.hpp</text>
</a>
</g>
</g>
<!-- Node50&#45;&gt;Node68 -->
<g id="edge35" class="edge">
<title>Node50&#45;&gt;Node68</title>
<path fill="none" stroke="#191970" d="M188.4662,-1173.7C228.9126,-1162.7579 286.8302,-1147.0894 321.2082,-1137.7891"/>
<polygon fill="#191970" stroke="#191970" points="187.3235,-1170.3832 178.5846,-1176.3733 189.1516,-1177.1403 187.3235,-1170.3832"/>
</g>
<!-- Node52 -->
<g id="node3" class="node">
<title>Node52</title>
<g id="a_node3"><a xlink:href="../../d9/de8/beta__projectors__gradient_8hpp.html" target="_top" xlink:title="Contains declaration and implementation of sirius::Beta_projectors_gradient class. ">
<polygon fill="#ffffff" stroke="#000000" points="330.5,-448.5 330.5,-467.5 477.5,-467.5 477.5,-448.5 330.5,-448.5"/>
<text text-anchor="middle" x="404" y="-455.5" font-family="Helvetica,sans-Serif" font-size="10.00" fill="#000000">beta_projectors_gradient.hpp</text>
</a>
</g>
</g>
<!-- Node51&#45;&gt;Node52 -->
<g id="edge2" class="edge">
<title>Node51&#45;&gt;Node52</title>
<path fill="none" stroke="#191970" d="M404,-494.1575C404,-485.155 404,-474.9199 404,-467.6427"/>
<polygon fill="#191970" stroke="#191970" points="400.5001,-494.2455 404,-504.2455 407.5001,-494.2456 400.5001,-494.2455"/>
</g>
<!-- Node51&#45;&gt;Node53 -->
<g id="edge24" class="edge">
<title>Node51&#45;&gt;Node53</title>
<path fill="none" stroke="#191970" d="M365.2526,-500.7036C336.4538,-488.6955 304.8806,-469.6277 322,-448 323.2447,-446.4275 423.9808,-423.2286 480.1543,-410.3925"/>
<polygon fill="#191970" stroke="#191970" points="364.2522,-504.0718 374.8384,-504.4988 366.829,-497.5633 364.2522,-504.0718"/>
</g>
<!-- Node59 -->
<g id="node10" class="node">
<title>Node59</title>
<g id="a_node10"><a xlink:href="../../d6/d1e/force_8hpp.html" target="_top" xlink:title="Contains defintion and implementation of sirius::Force class. ">
<polygon fill="#ffffff" stroke="#000000" points="721,-392.5 721,-411.5 779,-411.5 779,-392.5 721,-392.5"/>
<text text-anchor="middle" x="750" y="-399.5" font-family="Helvetica,sans-Serif" font-size="10.00" fill="#000000">force.hpp</text>
</a>
</g>
</g>
<!-- Node51&#45;&gt;Node59 -->
<g id="edge29" class="edge">
<title>Node51&#45;&gt;Node59</title>
<path fill="none" stroke="#191970" d="M443.2736,-501.2871C513.3318,-478.6094 658.3361,-431.6716 720.5749,-411.5249"/>
<polygon fill="#191970" stroke="#191970" points="441.9358,-498.0413 433.4998,-504.4509 444.0916,-504.7011 441.9358,-498.0413"/>
</g>
<!-- Node51&#45;&gt;Node60 -->
<g id="edge12" class="edge">
<title>Node51&#45;&gt;Node60</title>
<path fill="none" stroke="#191970" d="M341.4293,-503.7545C269.2516,-491.9359 153.2025,-472.9337 96.0487,-463.5752"/>
<polygon fill="#191970" stroke="#191970" points="340.8778,-507.2107 351.312,-505.3727 342.009,-500.3027 340.8778,-507.2107"/>
</g>
<!-- Node65 -->
<g id="node16" class="node">
<title>Node65</title>
<g id="a_node16"><a xlink:href="../../d5/d72/non__local__functor_8hpp.html" target="_top" xlink:title="Common operation for forces and stress tensor. ">
<polygon fill="#ffffff" stroke="#000000" points="762.5,-448.5 762.5,-467.5 877.5,-467.5 877.5,-448.5 762.5,-448.5"/>
<text text-anchor="middle" x="820" y="-455.5" font-family="Helvetica,sans-Serif" font-size="10.00" fill="#000000">non_local_functor.hpp</text>
</a>
</g>
</g>
<!-- Node51&#45;&gt;Node65 -->
<g id="edge25" class="edge">
<title>Node51&#45;&gt;Node65</title>
<path fill="none" stroke="#191970" d="M466.6524,-505.566C546.8597,-494.7689 684.7204,-476.2107 762.4096,-465.7525"/>
<polygon fill="#191970" stroke="#191970" points="466.1303,-502.1046 456.6867,-506.9076 467.0643,-509.0421 466.1303,-502.1046"/>
</g>
<!-- Node67 -->
<g id="node18" class="node">
<title>Node67</title>
<g id="a_node18"><a xlink:href="../../de/de7/non__local__operator_8hpp.html" target="_top" xlink:title="Contains declaration and implementation of sirius::Non_local_operator class. ">
<polygon fill="#ffffff" stroke="#000000" points="152,-448.5 152,-467.5 274,-467.5 274,-448.5 152,-448.5"/>
<text text-anchor="middle" x="213" y="-455.5" font-family="Helvetica,sans-Serif" font-size="10.00" fill="#000000">non_local_operator.hpp</text>
</a>
</g>
</g>
<!-- Node51&#45;&gt;Node67 -->
<g id="edge30" class="edge">
<title>Node51&#45;&gt;Node67</title>
<path fill="none" stroke="#191970" d="M361.2163,-501.4561C326.1555,-491.1765 277.2898,-476.8494 245.4056,-467.5011"/>
<polygon fill="#191970" stroke="#191970" points="360.5851,-504.9183 371.1659,-504.3733 362.5546,-498.2011 360.5851,-504.9183"/>
</g>
<!-- Node52&#45;&gt;Node53 -->
<g id="edge3" class="edge">
<title>Node52&#45;&gt;Node53</title>
<path fill="none" stroke="#191970" d="M432.5792,-443.8368C453.0058,-433.7139 479.9362,-420.3679 497.8281,-411.5011"/>
<polygon fill="#191970" stroke="#191970" points="430.8313,-440.7968 423.4254,-448.3733 433.9396,-447.0688 430.8313,-440.7968"/>
</g>
<!-- Node52&#45;&gt;Node59 -->
<g id="edge10" class="edge">
<title>Node52&#45;&gt;Node59</title>
<path fill="none" stroke="#191970" d="M473.0143,-446.83C548.6879,-434.5823 666.566,-415.5038 720.8426,-406.7191"/>
<polygon fill="#191970" stroke="#191970" points="472.3987,-443.3841 463.0864,-448.4369 473.5172,-450.2941 472.3987,-443.3841"/>
</g>
<!-- Node54 -->
<g id="node5" class="node">
<title>Node54</title>
<g id="a_node5"><a xlink:href="../../df/dc4/dft__ground__state_8hpp.html" target="_top" xlink:title="Contains definition and partial implementation of sirius::DFT_ground_state class. ...">
<polygon fill="#ffffff" stroke="#000000" points="721.5,-336.5 721.5,-355.5 832.5,-355.5 832.5,-336.5 721.5,-336.5"/>
<text text-anchor="middle" x="777" y="-343.5" font-family="Helvetica,sans-Serif" font-size="10.00" fill="#000000">dft_ground_state.hpp</text>
</a>
</g>
</g>
<!-- Node53&#45;&gt;Node54 -->
<g id="edge4" class="edge">
<title>Node53&#45;&gt;Node54</title>
<path fill="none" stroke="#191970" d="M563.5064,-391.9832C611.4165,-381.6641 685.5529,-365.6963 732.6551,-355.5512"/>
<polygon fill="#191970" stroke="#191970" points="562.7391,-388.5682 553.7002,-394.0953 564.213,-395.4112 562.7391,-388.5682"/>
</g>
<!-- Node57 -->
<g id="node8" class="node">
<title>Node57</title>
<g id="a_node8"><a xlink:href="../../de/dec/hamiltonian_8hpp.html" target="_top" xlink:title="Contains declaration and definition of sirius::Hamiltonian class. ">
<polygon fill="#ffffff" stroke="#000000" points="518.5,-168.5 518.5,-187.5 605.5,-187.5 605.5,-168.5 518.5,-168.5"/>
<text text-anchor="middle" x="562" y="-175.5" font-family="Helvetica,sans-Serif" font-size="10.00" fill="#000000">hamiltonian.hpp</text>
</a>
</g>
</g>
<!-- Node53&#45;&gt;Node57 -->
<g id="edge7" class="edge">
<title>Node53&#45;&gt;Node57</title>
<path fill="none" stroke="#191970" d="M520.9351,-382.4119C530.2276,-336.1557 553.2624,-221.494 560.0736,-187.5891"/>
<polygon fill="#191970" stroke="#191970" points="517.4718,-381.8815 518.9336,-392.375 524.3347,-383.2603 517.4718,-381.8815"/>
</g>
<!-- Node55 -->
<g id="node6" class="node">
<title>Node55</title>
<g id="a_node6"><a xlink:href="../../dd/dc2/sirius_8h.html" target="_top" xlink:title="&quot;All&#45;in&#45;one&quot; include file. ">
<polygon fill="#ffffff" stroke="#000000" points="958,-56.5 958,-75.5 1006,-75.5 1006,-56.5 958,-56.5"/>
<text text-anchor="middle" x="982" y="-63.5" font-family="Helvetica,sans-Serif" font-size="10.00" fill="#000000">sirius.h</text>
</a>
</g>
</g>
<!-- Node54&#45;&gt;Node55 -->
<g id="edge5" class="edge">
<title>Node54&#45;&gt;Node55</title>
<path fill="none" stroke="#191970" d="M842.9365,-337.7303C902.8711,-326.0881 982,-298.5032 982,-234 982,-234 982,-234 982,-178 982,-140.0833 982,-94.9462 982,-75.5884"/>
<polygon fill="#191970" stroke="#191970" points="841.9531,-334.3521 832.7464,-339.5949 843.213,-341.2378 841.9531,-334.3521"/>
</g>
<!-- Node56 -->
<g id="node7" class="node">
<title>Node56</title>
<g id="a_node7"><a xlink:href="../../d4/d53/sirius__api_8cpp.html" target="_top" xlink:title="Fortran API. ">
<polygon fill="#ffffff" stroke="#000000" points="943,-.5 943,-19.5 1021,-19.5 1021,-.5 943,-.5"/>
<text text-anchor="middle" x="982" y="-7.5" font-family="Helvetica,sans-Serif" font-size="10.00" fill="#000000">sirius_api.cpp</text>
</a>
</g>
</g>
<!-- Node55&#45;&gt;Node56 -->
<g id="edge6" class="edge">
<title>Node55&#45;&gt;Node56</title>
<path fill="none" stroke="#191970" d="M982,-46.1575C982,-37.155 982,-26.9199 982,-19.6427"/>
<polygon fill="#191970" stroke="#191970" points="978.5001,-46.2455 982,-56.2455 985.5001,-46.2456 978.5001,-46.2455"/>
</g>
<!-- Node58 -->
<g id="node9" class="node">
<title>Node58</title>
<g id="a_node9"><a xlink:href="../../da/d3d/band_8hpp.html" target="_top" xlink:title="Contains declaration and partial implementation of sirius::Band class. ">
<polygon fill="#ffffff" stroke="#000000" points="495,-112.5 495,-131.5 553,-131.5 553,-112.5 495,-112.5"/>
<text text-anchor="middle" x="524" y="-119.5" font-family="Helvetica,sans-Serif" font-size="10.00" fill="#000000">band.hpp</text>
</a>
</g>
</g>
<!-- Node57&#45;&gt;Node58 -->
<g id="edge8" class="edge">
<title>Node57&#45;&gt;Node58</title>
<path fill="none" stroke="#191970" d="M549.7321,-159.9209C543.3512,-150.5176 535.8069,-139.3997 530.5432,-131.6427"/>
<polygon fill="#191970" stroke="#191970" points="546.8697,-161.936 555.3809,-168.2455 552.662,-158.0055 546.8697,-161.936"/>
</g>
<!-- Node58&#45;&gt;Node55 -->
<g id="edge9" class="edge">
<title>Node58&#45;&gt;Node55</title>
<path fill="none" stroke="#191970" d="M563.3913,-117.1836C655.6377,-105.9046 883.4845,-78.0456 957.9957,-68.935"/>
<polygon fill="#191970" stroke="#191970" points="562.8479,-113.7239 553.3467,-118.4118 563.6976,-120.6721 562.8479,-113.7239"/>
</g>
<!-- Node59&#45;&gt;Node54 -->
<g id="edge11" class="edge">
<title>Node59&#45;&gt;Node54</title>
<path fill="none" stroke="#191970" d="M759.1396,-383.0437C763.5805,-373.8331 768.7265,-363.1598 772.3509,-355.6427"/>
<polygon fill="#191970" stroke="#191970" points="755.8934,-381.7178 754.703,-392.2455 762.1988,-384.7579 755.8934,-381.7178"/>
</g>
<!-- Node60&#45;&gt;Node53 -->
<g id="edge22" class="edge">
<title>Node60&#45;&gt;Node53</title>
<path fill="none" stroke="#191970" d="M106.1211,-448.6219C107.427,-448.4041 108.7222,-448.1961 110,-448 269.812,-423.4775 312.3543,-437.5826 472,-412 474.6868,-411.5695 477.4536,-411.0769 480.2319,-410.5464"/>
<polygon fill="#191970" stroke="#191970" points="105.2256,-445.227 96.0073,-450.4493 106.4703,-452.1154 105.2256,-445.227"/>
</g>
<!-- Node60&#45;&gt;Node57 -->
<g id="edge23" class="edge">
<title>Node60&#45;&gt;Node57</title>
<path fill="none" stroke="#191970" d="M88.1758,-443.3416C177.7836,-393.1612 470.7782,-229.0842 544.8613,-187.5977"/>
<polygon fill="#191970" stroke="#191970" points="86.2261,-440.4219 79.2111,-448.3618 89.6463,-446.5295 86.2261,-440.4219"/>
</g>
<!-- Node61 -->
<g id="node12" class="node">
<title>Node61</title>
<g id="a_node12"><a xlink:href="../../d3/de4/k__point__set_8hpp.html" target="_top" xlink:title="Contains declaration and partial implementation of sirius::K_point_set class. ">
<polygon fill="#ffffff" stroke="#000000" points="375.5,-392.5 375.5,-411.5 462.5,-411.5 462.5,-392.5 375.5,-392.5"/>
<text text-anchor="middle" x="419" y="-399.5" font-family="Helvetica,sans-Serif" font-size="10.00" fill="#000000">k_point_set.hpp</text>
</a>
</g>
</g>
<!-- Node60&#45;&gt;Node61 -->
<g id="edge13" class="edge">
<title>Node60&#45;&gt;Node61</title>
<path fill="none" stroke="#191970" d="M106.1347,-448.7043C107.4367,-448.4625 108.7273,-448.2271 110,-448 204.2396,-431.1832 315.4134,-415.6893 375.3744,-407.6879"/>
<polygon fill="#191970" stroke="#191970" points="105.1954,-445.321 96.0415,-450.6554 106.524,-452.1938 105.1954,-445.321"/>
</g>
<!-- Node61&#45;&gt;Node54 -->
<g id="edge21" class="edge">
<title>Node61&#45;&gt;Node54</title>
<path fill="none" stroke="#191970" d="M472.5297,-391.9596C565.7179,-376.2586 662.1124,-362.1743 721.2463,-353.7806"/>
<polygon fill="#191970" stroke="#191970" points="471.9253,-388.5121 462.6499,-393.6325 473.0939,-395.4138 471.9253,-388.5121"/>
</g>
<!-- Node61&#45;&gt;Node58 -->
<g id="edge14" class="edge">
<title>Node61&#45;&gt;Node58</title>
<path fill="none" stroke="#191970" d="M399.5069,-385.3338C378.184,-365.1378 347,-328.9446 347,-290 347,-290 347,-290 347,-234 347,-164.9077 444.4991,-136.6799 494.772,-126.7174"/>
<polygon fill="#191970" stroke="#191970" points="397.3619,-388.1144 407.1107,-392.2632 402.0769,-382.9405 397.3619,-388.1144"/>
</g>
<!-- Node62 -->
<g id="node13" class="node">
<title>Node62</title>
<g id="a_node13"><a xlink:href="../../d0/d9a/density_8hpp.html" target="_top" xlink:title="Contains definition and partial implementation of sirius::Density class. ">
<polygon fill="#ffffff" stroke="#000000" points="590,-336.5 590,-355.5 658,-355.5 658,-336.5 590,-336.5"/>
<text text-anchor="middle" x="624" y="-343.5" font-family="Helvetica,sans-Serif" font-size="10.00" fill="#000000">density.hpp</text>
</a>
</g>
</g>
<!-- Node61&#45;&gt;Node62 -->
<g id="edge15" class="edge">
<title>Node61&#45;&gt;Node62</title>
<path fill="none" stroke="#191970" d="M464.0152,-389.7032C501.9551,-379.3391 555.4239,-364.733 589.9003,-355.315"/>
<polygon fill="#191970" stroke="#191970" points="462.965,-386.3617 454.2408,-392.3733 464.8096,-393.1143 462.965,-386.3617"/>
</g>
<!-- Node63 -->
<g id="node14" class="node">
<title>Node63</title>
<g id="a_node14"><a xlink:href="../../de/df2/potential_8hpp.html" target="_top" xlink:title="Contains declaration and partial implementation of sirius::Potential class. ">
<polygon fill="#ffffff" stroke="#000000" points="652,-280.5 652,-299.5 726,-299.5 726,-280.5 652,-280.5"/>
<text text-anchor="middle" x="689" y="-287.5" font-family="Helvetica,sans-Serif" font-size="10.00" fill="#000000">potential.hpp</text>
</a>
</g>
</g>
<!-- Node62&#45;&gt;Node63 -->
<g id="edge16" class="edge">
<title>Node62&#45;&gt;Node63</title>
<path fill="none" stroke="#191970" d="M642.9835,-329.645C654.2879,-319.9058 668.247,-307.8795 677.8076,-299.6427"/>
<polygon fill="#191970" stroke="#191970" points="640.6138,-327.0668 635.3221,-336.2455 645.1827,-332.3701 640.6138,-327.0668"/>
</g>
<!-- Node63&#45;&gt;Node55 -->
<g id="edge20" class="edge">
<title>Node63&#45;&gt;Node55</title>
<path fill="none" stroke="#191970" d="M709.8399,-274.0678C766.8026,-230.5195 923.8894,-110.4258 969.4571,-75.5891"/>
<polygon fill="#191970" stroke="#191970" points="707.4085,-271.5209 701.5898,-280.375 711.6599,-277.082 707.4085,-271.5209"/>
</g>
<!-- Node63&#45;&gt;Node57 -->
<g id="edge17" class="edge">
<title>Node63&#45;&gt;Node57</title>
<path fill="none" stroke="#191970" d="M666.6014,-274.2628C654.8071,-265.6923 640.2828,-254.681 628,-244 606.479,-225.2855 583.354,-201.1081 571.0026,-187.8248"/>
<polygon fill="#191970" stroke="#191970" points="664.8411,-277.3076 675.0061,-280.295 668.9227,-271.6207 664.8411,-277.3076"/>
</g>
<!-- Node64 -->
<g id="node15" class="node">
<title>Node64</title>
<g id="a_node15"><a xlink:href="../../d3/d2c/local__operator_8hpp.html" target="_top" xlink:title="Contains declaration and implementation of sirius::Local_operator class. ">
<polygon fill="#ffffff" stroke="#000000" points="636.5,-224.5 636.5,-243.5 735.5,-243.5 735.5,-224.5 636.5,-224.5"/>
<text text-anchor="middle" x="686" y="-231.5" font-family="Helvetica,sans-Serif" font-size="10.00" fill="#000000">local_operator.hpp</text>
</a>
</g>
</g>
<!-- Node63&#45;&gt;Node64 -->
<g id="edge18" class="edge">
<title>Node63&#45;&gt;Node64</title>
<path fill="none" stroke="#191970" d="M687.937,-270.1575C687.4547,-261.155 686.9064,-250.9199 686.5166,-243.6427"/>
<polygon fill="#191970" stroke="#191970" points="684.4474,-270.4471 688.4774,-280.2455 691.4374,-270.0726 684.4474,-270.4471"/>
</g>
<!-- Node64&#45;&gt;Node57 -->
<g id="edge19" class="edge">
<title>Node64&#45;&gt;Node57</title>
<path fill="none" stroke="#191970" d="M655.5476,-220.2473C633.0278,-210.0771 602.9383,-196.4883 583.0382,-187.5011"/>
<polygon fill="#191970" stroke="#191970" points="654.1294,-223.4471 664.6836,-224.3733 657.0105,-217.0675 654.1294,-223.4471"/>
</g>
<!-- Node65&#45;&gt;Node59 -->
<g id="edge28" class="edge">
<title>Node65&#45;&gt;Node59</title>
<path fill="none" stroke="#191970" d="M799.91,-441.928C787.6747,-432.1397 772.4493,-419.9595 762.0533,-411.6427"/>
<polygon fill="#191970" stroke="#191970" points="797.8118,-444.7316 807.8069,-448.2455 802.1847,-439.2655 797.8118,-444.7316"/>
</g>
<!-- Node66 -->
<g id="node17" class="node">
<title>Node66</title>
<g id="a_node17"><a xlink:href="../../d7/dd1/stress_8hpp.html" target="_top" xlink:title="Stress tensor calculation. ">
<polygon fill="#ffffff" stroke="#000000" points="797.5,-392.5 797.5,-411.5 860.5,-411.5 860.5,-392.5 797.5,-392.5"/>
<text text-anchor="middle" x="829" y="-399.5" font-family="Helvetica,sans-Serif" font-size="10.00" fill="#000000">stress.hpp</text>
</a>
</g>
</g>
<!-- Node65&#45;&gt;Node66 -->
<g id="edge26" class="edge">
<title>Node65&#45;&gt;Node66</title>
<path fill="none" stroke="#191970" d="M823.189,-438.1575C824.6358,-429.155 826.2807,-418.9199 827.4503,-411.6427"/>
<polygon fill="#191970" stroke="#191970" points="819.6989,-437.8168 821.5677,-448.2455 826.6102,-438.9276 819.6989,-437.8168"/>
</g>
<!-- Node66&#45;&gt;Node54 -->
<g id="edge27" class="edge">
<title>Node66&#45;&gt;Node54</title>
<path fill="none" stroke="#191970" d="M813.0178,-384.7884C804.1222,-375.2085 793.3796,-363.6396 785.9539,-355.6427"/>
<polygon fill="#191970" stroke="#191970" points="810.573,-387.2992 819.9423,-392.2455 815.7025,-382.536 810.573,-387.2992"/>
</g>
<!-- Node67&#45;&gt;Node53 -->
<g id="edge31" class="edge">
<title>Node67&#45;&gt;Node53</title>
<path fill="none" stroke="#191970" d="M280.9065,-446.7586C333.2385,-437.8974 407.3436,-424.9196 472,-412 474.6683,-411.4668 477.4216,-410.8989 480.1902,-410.3148"/>
<polygon fill="#191970" stroke="#191970" points="280.0176,-443.359 270.7397,-448.4747 281.1828,-450.2614 280.0176,-443.359"/>
</g>
<!-- Node67&#45;&gt;Node57 -->
<g id="edge32" class="edge">
<title>Node67&#45;&gt;Node57</title>
<path fill="none" stroke="#191970" d="M253.9641,-445.0721C275.497,-437.2633 301.7552,-426.0851 323,-412 428.0251,-342.3692 526.7264,-222.6504 554.3619,-187.7896"/>
<polygon fill="#191970" stroke="#191970" points="252.7112,-441.8025 244.4381,-448.4211 255.033,-448.4062 252.7112,-441.8025"/>
</g>
<!-- Node68&#45;&gt;Node55 -->
<g id="edge71" class="edge">
<title>Node68&#45;&gt;Node55</title>
<path fill="none" stroke="#191970" d="M311.7818,-1119.673C267.3408,-1105.0706 200,-1073.7465 200,-1018 200,-1018 200,-1018 200,-626 200,-519.2177 76.328,-558.0887 19,-468 2.6123,-442.2474 0,-432.5246 0,-402 0,-402 0,-402 0,-178 0,-78.477 806.5059,-67.3551 957.7257,-66.1444"/>
<polygon fill="#191970" stroke="#191970" points="310.8438,-1123.0469 321.4331,-1122.7025 312.9403,-1116.3682 310.8438,-1123.0469"/>
</g>
<!-- Node69 -->
<g id="node20" class="node">
<title>Node69</title>
<g id="a_node20"><a xlink:href="../../de/ded/input_8h.html" target="_top" xlink:title="Contains input parameters structures. ">
<polygon fill="#ffffff" stroke="#000000" points="608.5,-1064.5 608.5,-1083.5 655.5,-1083.5 655.5,-1064.5 608.5,-1064.5"/>
<text text-anchor="middle" x="632" y="-1071.5" font-family="Helvetica,sans-Serif" font-size="10.00" fill="#000000">input.h</text>
</a>
</g>
</g>
<!-- Node68&#45;&gt;Node69 -->
<g id="edge36" class="edge">
<title>Node68&#45;&gt;Node69</title>
<path fill="none" stroke="#191970" d="M388.6762,-1122.3196C447.9394,-1110.551 559.4602,-1088.4051 608.1942,-1078.7274"/>
<polygon fill="#191970" stroke="#191970" points="387.7183,-1118.9414 378.5916,-1124.3222 389.0818,-1125.8074 387.7183,-1118.9414"/>
</g>
<!-- Node75 -->
<g id="node26" class="node">
<title>Node75</title>
<g id="a_node26"><a xlink:href="../../de/d6d/atom_8hpp.html" target="_top" xlink:title="Contains declaration and partial implementation of sirius::Atom class. ">
<polygon fill="#ffffff" stroke="#000000" points="557,-840.5 557,-859.5 615,-859.5 615,-840.5 557,-840.5"/>
<text text-anchor="middle" x="586" y="-847.5" font-family="Helvetica,sans-Serif" font-size="10.00" fill="#000000">atom.hpp</text>
</a>
</g>
</g>
<!-- Node68&#45;&gt;Node75 -->
<g id="edge69" class="edge">
<title>Node68&#45;&gt;Node75</title>
<path fill="none" stroke="#191970" d="M388.2339,-1117.9409C429.686,-1102.1964 490,-1070.3013 490,-1018 490,-1018 490,-1018 490,-962 490,-931.3494 491.1985,-920.2067 510,-896 523.0558,-879.1908 544.1205,-867.137 560.7657,-859.5962"/>
<polygon fill="#191970" stroke="#191970" points="386.8712,-1114.7121 378.6689,-1121.4184 389.263,-1121.2909 386.8712,-1114.7121"/>
</g>
<!-- Node81 -->
<g id="node32" class="node">
<title>Node81</title>
<g id="a_node32"><a xlink:href="../../d4/dde/sddk__api_8cpp.html" target="_top" xlink:title="Fortran interface for the SDDK library. ">
<polygon fill="#ffffff" stroke="#000000" points="312.5,-1064.5 312.5,-1083.5 387.5,-1083.5 387.5,-1064.5 312.5,-1064.5"/>
<text text-anchor="middle" x="350" y="-1071.5" font-family="Helvetica,sans-Serif" font-size="10.00" fill="#000000">sddk_api.cpp</text>
</a>
</g>
</g>
<!-- Node68&#45;&gt;Node81 -->
<g id="edge70" class="edge">
<title>Node68&#45;&gt;Node81</title>
<path fill="none" stroke="#191970" d="M350,-1110.1575C350,-1101.155 350,-1090.9199 350,-1083.6427"/>
<polygon fill="#191970" stroke="#191970" points="346.5001,-1110.2455 350,-1120.2455 353.5001,-1110.2456 346.5001,-1110.2455"/>
</g>
<!-- Node69&#45;&gt;Node55 -->
<g id="edge68" class="edge">
<title>Node69&#45;&gt;Node55</title>
<path fill="none" stroke="#191970" d="M665.8753,-1073.0874C772.7838,-1069.3003 1096,-1050.5299 1096,-962 1096,-962 1096,-962 1096,-178 1096,-127.0875 1037.4271,-91.6175 1004.251,-75.6105"/>
<polygon fill="#191970" stroke="#191970" points="665.5261,-1069.597 655.6477,-1073.4268 665.7584,-1076.5931 665.5261,-1069.597"/>
</g>
<!-- Node70 -->
<g id="node21" class="node">
<title>Node70</title>
<g id="a_node21"><a xlink:href="../../d1/de1/simulation__parameters_8h.html" target="_top" xlink:title="Contains definition and implementation of sirius::Simulation_parameters_base class. ">
<polygon fill="#ffffff" stroke="#000000" points="569,-1008.5 569,-1027.5 695,-1027.5 695,-1008.5 569,-1008.5"/>
<text text-anchor="middle" x="632" y="-1015.5" font-family="Helvetica,sans-Serif" font-size="10.00" fill="#000000">simulation_parameters.h</text>
</a>
</g>
</g>
<!-- Node69&#45;&gt;Node70 -->
<g id="edge37" class="edge">
<title>Node69&#45;&gt;Node70</title>
<path fill="none" stroke="#191970" d="M632,-1054.1575C632,-1045.155 632,-1034.9199 632,-1027.6427"/>
<polygon fill="#191970" stroke="#191970" points="628.5001,-1054.2455 632,-1064.2455 635.5001,-1054.2456 628.5001,-1054.2455"/>
</g>
<!-- Node71 -->
<g id="node22" class="node">
<title>Node71</title>
<g id="a_node22"><a xlink:href="../../d5/d5b/simulation__context_8h.html" target="_top" xlink:title="Contains definition and implementation of Simulation_context class. ">
<polygon fill="#ffffff" stroke="#000000" points="442,-560.5 442,-579.5 550,-579.5 550,-560.5 442,-560.5"/>
<text text-anchor="middle" x="496" y="-567.5" font-family="Helvetica,sans-Serif" font-size="10.00" fill="#000000">simulation_context.h</text>
</a>
</g>
</g>
<!-- Node70&#45;&gt;Node71 -->
<g id="edge38" class="edge">
<title>Node70&#45;&gt;Node71</title>
<path fill="none" stroke="#191970" d="M569.1158,-1005.8417C517.1974,-991.7241 452,-962.7064 452,-906 452,-906 452,-906 452,-682 452,-641.6801 477.0085,-598.4971 489.3173,-579.6848"/>
<polygon fill="#191970" stroke="#191970" points="568.4098,-1009.2742 578.9676,-1008.3891 570.1622,-1002.4971 568.4098,-1009.2742"/>
</g>
<!-- Node73 -->
<g id="node24" class="node">
<title>Node73</title>
<g id="a_node24"><a xlink:href="../../db/df7/atom__type_8hpp.html" target="_top" xlink:title="Contains declaration and implementation of sirius::Atom_type class. ">
<polygon fill="#ffffff" stroke="#000000" points="590.5,-952.5 590.5,-971.5 673.5,-971.5 673.5,-952.5 590.5,-952.5"/>
<text text-anchor="middle" x="632" y="-959.5" font-family="Helvetica,sans-Serif" font-size="10.00" fill="#000000">atom_type.hpp</text>
</a>
</g>
</g>
<!-- Node70&#45;&gt;Node73 -->
<g id="edge50" class="edge">
<title>Node70&#45;&gt;Node73</title>
<path fill="none" stroke="#191970" d="M632,-998.1575C632,-989.155 632,-978.9199 632,-971.6427"/>
<polygon fill="#191970" stroke="#191970" points="628.5001,-998.2455 632,-1008.2455 635.5001,-998.2456 628.5001,-998.2455"/>
</g>
<!-- Node76 -->
<g id="node27" class="node">
<title>Node76</title>
<g id="a_node27"><a xlink:href="../../d4/d91/unit__cell_8hpp.html" target="_top" xlink:title="Contains definition and partial implementation of sirius::Unit_cell class. ">
<polygon fill="#ffffff" stroke="#000000" points="570.5,-784.5 570.5,-803.5 643.5,-803.5 643.5,-784.5 570.5,-784.5"/>
<text text-anchor="middle" x="607" y="-791.5" font-family="Helvetica,sans-Serif" font-size="10.00" fill="#000000">unit_cell.hpp</text>
</a>
</g>
</g>
<!-- Node70&#45;&gt;Node76 -->
<g id="edge67" class="edge">
<title>Node70&#45;&gt;Node76</title>
<path fill="none" stroke="#191970" d="M652.7881,-1001.7538C691.3644,-969.6124 766.7319,-896.1608 728,-840 718.0798,-825.6157 675.5667,-811.7339 643.7163,-803.0513"/>
<polygon fill="#191970" stroke="#191970" points="650.2775,-999.2845 644.7321,-1008.3122 654.6969,-1004.713 650.2775,-999.2845"/>
</g>
<!-- Node71&#45;&gt;Node51 -->
<g id="edge39" class="edge">
<title>Node71&#45;&gt;Node51</title>
<path fill="none" stroke="#191970" d="M470.9776,-554.769C454.675,-544.8456 433.899,-532.1994 419.8415,-523.6427"/>
<polygon fill="#191970" stroke="#191970" points="469.613,-558.0357 479.9748,-560.2455 473.2527,-552.0563 469.613,-558.0357"/>
</g>
<!-- Node71&#45;&gt;Node53 -->
<g id="edge40" class="edge">
<title>Node71&#45;&gt;Node53</title>
<path fill="none" stroke="#191970" d="M498.4675,-550.2601C502.9791,-514.1669 512.4043,-438.7656 515.7715,-411.8279"/>
<polygon fill="#191970" stroke="#191970" points="494.9567,-550.1293 497.1892,-560.4862 501.9026,-550.9976 494.9567,-550.1293"/>
</g>
<!-- Node71&#45;&gt;Node57 -->
<g id="edge41" class="edge">
<title>Node71&#45;&gt;Node57</title>
<path fill="none" stroke="#191970" d="M560.3042,-564.0723C665.5156,-552.8308 866.7147,-524.334 906,-468 980.3182,-361.4298 859.2352,-285.8928 745,-224 700.931,-200.1233 644.1719,-188.3559 605.6325,-182.7519"/>
<polygon fill="#191970" stroke="#191970" points="559.7036,-560.616 550.1225,-565.1383 560.4326,-567.5779 559.7036,-560.616"/>
</g>
<!-- Node71&#45;&gt;Node63 -->
<g id="edge49" class="edge">
<title>Node71&#45;&gt;Node63</title>
<path fill="none" stroke="#191970" d="M560.1504,-559.7131C606.8216,-551.628 671.3234,-539.2065 727,-524 763.3394,-514.0749 865.2024,-498.7234 887,-468 922.8653,-417.4485 889.4224,-375.9111 842,-336 809.1066,-308.3166 759.9564,-297.2928 726.2938,-292.9034"/>
<polygon fill="#191970" stroke="#191970" points="559.4407,-556.2836 550.1754,-561.4221 560.6229,-563.183 559.4407,-556.2836"/>
</g>
<!-- Node71&#45;&gt;Node67 -->
<g id="edge42" class="edge">
<title>Node71&#45;&gt;Node67</title>
<path fill="none" stroke="#191970" d="M447.6758,-557.8394C417.1862,-549.5895 377.2381,-537.7116 343,-524 300.7049,-507.0617 253.6173,-481.3135 229.3867,-467.5183"/>
<polygon fill="#191970" stroke="#191970" points="447.0669,-561.2993 457.6312,-560.4955 448.8715,-554.5359 447.0669,-561.2993"/>
</g>
<!-- Node72 -->
<g id="node23" class="node">
<title>Node72</title>
<g id="a_node23"><a xlink:href="../../d3/d6a/periodic__function_8hpp.html" target="_top" xlink:title="Contains declaration and partial implementation of sirius::Periodic_function class. ">
<polygon fill="#ffffff" stroke="#000000" points="606,-504.5 606,-523.5 718,-523.5 718,-504.5 606,-504.5"/>
<text text-anchor="middle" x="662" y="-511.5" font-family="Helvetica,sans-Serif" font-size="10.00" fill="#000000">periodic_function.hpp</text>
</a>
</g>
</g>
<!-- Node71&#45;&gt;Node72 -->
<g id="edge43" class="edge">
<title>Node71&#45;&gt;Node72</title>
<path fill="none" stroke="#191970" d="M534.3667,-557.057C564.7466,-546.8084 606.4819,-532.729 633.836,-523.5011"/>
<polygon fill="#191970" stroke="#191970" points="532.893,-553.8603 524.5364,-560.3733 535.1306,-560.4931 532.893,-553.8603"/>
</g>
<!-- Node72&#45;&gt;Node58 -->
<g id="edge44" class="edge">
<title>Node72&#45;&gt;Node58</title>
<path fill="none" stroke="#191970" d="M649.7114,-495.8537C618.2584,-448.1073 535.5254,-313.9683 510,-188 505.9524,-168.0249 513.8746,-144.7131 519.3651,-131.8284"/>
<polygon fill="#191970" stroke="#191970" points="646.9888,-498.0798 655.4465,-504.4609 652.8141,-494.1983 646.9888,-498.0798"/>
</g>
<!-- Node72&#45;&gt;Node59 -->
<g id="edge47" class="edge">
<title>Node72&#45;&gt;Node59</title>
<path fill="none" stroke="#191970" d="M681.4829,-497.4811C690.6976,-489.1514 701.5124,-478.5871 710,-468 724.75,-449.6012 738.125,-425.3055 745.0439,-411.9174"/>
<polygon fill="#191970" stroke="#191970" points="679.0821,-494.9317 673.8958,-504.1703 683.7114,-500.1824 679.0821,-494.9317"/>
</g>
<!-- Node72&#45;&gt;Node62 -->
<g id="edge45" class="edge">
<title>Node72&#45;&gt;Node62</title>
<path fill="none" stroke="#191970" d="M657.6406,-494.7267C649.519,-458.8207 632.3424,-382.8822 626.223,-355.8279"/>
<polygon fill="#191970" stroke="#191970" points="654.2281,-495.5048 659.8481,-504.4862 661.0556,-493.9604 654.2281,-495.5048"/>
</g>
<!-- Node72&#45;&gt;Node63 -->
<g id="edge48" class="edge">
<title>Node72&#45;&gt;Node63</title>
<path fill="none" stroke="#191970" d="M664.3611,-494.4119C669.9366,-448.1557 683.7574,-333.494 687.8442,-299.5891"/>
<polygon fill="#191970" stroke="#191970" points="660.8821,-494.028 663.1602,-504.375 667.8318,-494.8657 660.8821,-494.028"/>
</g>
<!-- Node72&#45;&gt;Node65 -->
<g id="edge46" class="edge">
<title>Node72&#45;&gt;Node65</title>
<path fill="none" stroke="#191970" d="M698.8955,-500.9231C727.7787,-490.686 767.2706,-476.6889 793.1933,-467.5011"/>
<polygon fill="#191970" stroke="#191970" points="697.4174,-497.7336 689.1612,-504.3733 699.7559,-504.3314 697.4174,-497.7336"/>
</g>
<!-- Node74 -->
<g id="node25" class="node">
<title>Node74</title>
<g id="a_node25"><a xlink:href="../../d6/d50/atom__symmetry__class_8hpp.html" target="_top" xlink:title="Contains declaration and partial implementation of sirius::Atom_symmetry_class class. ">
<polygon fill="#ffffff" stroke="#000000" points="518.5,-896.5 518.5,-915.5 653.5,-915.5 653.5,-896.5 518.5,-896.5"/>
<text text-anchor="middle" x="586" y="-903.5" font-family="Helvetica,sans-Serif" font-size="10.00" fill="#000000">atom_symmetry_class.hpp</text>
</a>
</g>
</g>
<!-- Node73&#45;&gt;Node74 -->
<g id="edge51" class="edge">
<title>Node73&#45;&gt;Node74</title>
<path fill="none" stroke="#191970" d="M617.6253,-944.5004C609.8029,-934.9775 600.424,-923.5596 593.9208,-915.6427"/>
<polygon fill="#191970" stroke="#191970" points="614.9354,-946.7399 623.9874,-952.2455 620.3445,-942.2967 614.9354,-946.7399"/>
</g>
<!-- Node80 -->
<g id="node31" class="node">
<title>Node80</title>
<g id="a_node31"><a xlink:href="../../d8/d64/free__atom_8hpp.html" target="_top" xlink:title="Free atom full&#45;potential solver. ">
<polygon fill="#ffffff" stroke="#000000" points="637.5,-840.5 637.5,-859.5 718.5,-859.5 718.5,-840.5 637.5,-840.5"/>
<text text-anchor="middle" x="678" y="-847.5" font-family="Helvetica,sans-Serif" font-size="10.00" fill="#000000">free_atom.hpp</text>
</a>
</g>
</g>
<!-- Node73&#45;&gt;Node80 -->
<g id="edge65" class="edge">
<title>Node73&#45;&gt;Node80</title>
<path fill="none" stroke="#191970" d="M646.1532,-944.3455C652.1226,-936.1379 658.6762,-925.9963 663,-916 671.2102,-897.0186 675.2212,-872.9413 676.9263,-859.7467"/>
<polygon fill="#191970" stroke="#191970" points="643.3009,-942.3143 640.0382,-952.3942 648.8748,-946.549 643.3009,-942.3143"/>
</g>
<!-- Node74&#45;&gt;Node75 -->
<g id="edge52" class="edge">
<title>Node74&#45;&gt;Node75</title>
<path fill="none" stroke="#191970" d="M586,-886.1575C586,-877.155 586,-866.9199 586,-859.6427"/>
<polygon fill="#191970" stroke="#191970" points="582.5001,-886.2455 586,-896.2455 589.5001,-886.2456 582.5001,-886.2455"/>
</g>
<!-- Node75&#45;&gt;Node76 -->
<g id="edge53" class="edge">
<title>Node75&#45;&gt;Node76</title>
<path fill="none" stroke="#191970" d="M593.219,-830.7493C596.6476,-821.6064 600.5951,-811.0798 603.384,-803.6427"/>
<polygon fill="#191970" stroke="#191970" points="589.8921,-829.6533 589.6579,-840.2455 596.4464,-832.1112 589.8921,-829.6533"/>
</g>
<!-- Node76&#45;&gt;Node51 -->
<g id="edge54" class="edge">
<title>Node76&#45;&gt;Node51</title>
<path fill="none" stroke="#191970" d="M570.4617,-780.3282C553.8463,-772.7372 534.8516,-761.972 521,-748 451.6085,-678.0056 415.7903,-558.5396 406.4874,-523.7643"/>
<polygon fill="#191970" stroke="#191970" points="569.346,-783.6594 579.9127,-784.4312 572.1336,-777.2384 569.346,-783.6594"/>
</g>
<!-- Node76&#45;&gt;Node55 -->
<g id="edge64" class="edge">
<title>Node76&#45;&gt;Node55</title>
<path fill="none" stroke="#191970" d="M653.9507,-791.1985C762.1839,-783.4574 1020,-757.1324 1020,-682 1020,-682 1020,-682 1020,-178 1020,-138.1657 998.1774,-94.3859 987.607,-75.5166"/>
<polygon fill="#191970" stroke="#191970" points="653.3855,-787.7291 643.651,-791.9111 653.8688,-794.7124 653.3855,-787.7291"/>
</g>
<!-- Node77 -->
<g id="node28" class="node">
<title>Node77</title>
<g id="a_node28"><a xlink:href="../../d4/df7/radial__integrals_8hpp.html" target="_top" xlink:title="Representation of various radial integrals. ">
<polygon fill="#ffffff" stroke="#000000" points="526,-672.5 526,-691.5 630,-691.5 630,-672.5 526,-672.5"/>
<text text-anchor="middle" x="578" y="-679.5" font-family="Helvetica,sans-Serif" font-size="10.00" fill="#000000">radial_integrals.hpp</text>
</a>
</g>
</g>
<!-- Node76&#45;&gt;Node77 -->
<g id="edge55" class="edge">
<title>Node76&#45;&gt;Node77</title>
<path fill="none" stroke="#191970" d="M610.8492,-774.3571C612.6866,-760.9959 613.6054,-743.0746 609,-728 604.7231,-714.0006 594.5963,-700.4087 587.0741,-691.6757"/>
<polygon fill="#191970" stroke="#191970" points="607.3761,-773.9071 609.1909,-784.3454 614.2816,-775.0537 607.3761,-773.9071"/>
</g>
<!-- Node79 -->
<g id="node30" class="node">
<title>Node79</title>
<g id="a_node30"><a xlink:href="../../d1/d2b/sbessel_8hpp.html" target="_top" xlink:title="Contains implementation of sirius::Spherical_Bessel_functions classe. ">
<polygon fill="#ffffff" stroke="#000000" points="530,-728.5 530,-747.5 600,-747.5 600,-728.5 530,-728.5"/>
<text text-anchor="middle" x="565" y="-735.5" font-family="Helvetica,sans-Serif" font-size="10.00" fill="#000000">sbessel.hpp</text>
</a>
</g>
</g>
<!-- Node76&#45;&gt;Node79 -->
<g id="edge62" class="edge">
<title>Node76&#45;&gt;Node79</title>
<path fill="none" stroke="#191970" d="M593.6584,-776.2112C586.5604,-766.7472 578.1097,-755.4797 572.232,-747.6427"/>
<polygon fill="#191970" stroke="#191970" points="590.8841,-778.3455 599.6842,-784.2455 596.4841,-774.1455 590.8841,-778.3455"/>
</g>
<!-- Node77&#45;&gt;Node53 -->
<g id="edge60" class="edge">
<title>Node77&#45;&gt;Node53</title>
<path fill="none" stroke="#191970" d="M575.5966,-662.4161C572.479,-638.2204 566.5361,-595.8569 559,-560 547.0326,-503.0585 527.2992,-435.9948 519.9117,-411.534"/>
<polygon fill="#191970" stroke="#191970" points="572.1377,-662.9627 576.8604,-672.4468 579.0828,-662.0877 572.1377,-662.9627"/>
</g>
<!-- Node77&#45;&gt;Node71 -->
<g id="edge61" class="edge">
<title>Node77&#45;&gt;Node71</title>
<path fill="none" stroke="#191970" d="M564.976,-664.2111C547.3956,-640.1989 516.6961,-598.2679 502.9736,-579.5249"/>
<polygon fill="#191970" stroke="#191970" points="562.2773,-666.4499 571.0087,-672.4509 567.9253,-662.3147 562.2773,-666.4499"/>
</g>
<!-- Node78 -->
<g id="node29" class="node">
<title>Node78</title>
<g id="a_node29"><a xlink:href="../../d3/d1c/augmentation__operator_8hpp.html" target="_top" xlink:title="Contains implementation of sirius::Augmentation_operator class. ">
<polygon fill="#ffffff" stroke="#000000" points="697.5,-616.5 697.5,-635.5 836.5,-635.5 836.5,-616.5 697.5,-616.5"/>
<text text-anchor="middle" x="767" y="-623.5" font-family="Helvetica,sans-Serif" font-size="10.00" fill="#000000">augmentation_operator.hpp</text>
</a>
</g>
</g>
<!-- Node77&#45;&gt;Node78 -->
<g id="edge56" class="edge">
<title>Node77&#45;&gt;Node78</title>
<path fill="none" stroke="#191970" d="M620.3357,-669.4561C655.0294,-659.1765 703.3834,-644.8494 734.9337,-635.5011"/>
<polygon fill="#191970" stroke="#191970" points="619.0839,-666.1765 610.4903,-672.3733 621.0726,-672.8881 619.0839,-666.1765"/>
</g>
<!-- Node78&#45;&gt;Node59 -->
<g id="edge58" class="edge">
<title>Node78&#45;&gt;Node59</title>
<path fill="none" stroke="#191970" d="M791.0881,-610.7712C837.1522,-579.7455 929.5315,-507.1456 887,-448 880.5183,-438.9864 817.5077,-420.4469 779.2357,-409.863"/>
<polygon fill="#191970" stroke="#191970" points="788.9666,-607.9777 782.5465,-616.4057 792.8212,-613.8209 788.9666,-607.9777"/>
</g>
<!-- Node78&#45;&gt;Node65 -->
<g id="edge57" class="edge">
<title>Node78&#45;&gt;Node65</title>
<path fill="none" stroke="#191970" d="M773.0803,-606.7267C784.4078,-570.8207 808.3646,-494.8822 816.8995,-467.8279"/>
<polygon fill="#191970" stroke="#191970" points="769.6722,-605.8965 770.0014,-616.4862 776.3479,-608.0026 769.6722,-605.8965"/>
</g>
<!-- Node78&#45;&gt;Node71 -->
<g id="edge59" class="edge">
<title>Node78&#45;&gt;Node71</title>
<path fill="none" stroke="#191970" d="M710.7288,-614.372C660.7801,-604.0505 588.6902,-589.1537 542.0878,-579.5237"/>
<polygon fill="#191970" stroke="#191970" points="710.2199,-617.8407 720.7214,-616.4369 711.6366,-610.9856 710.2199,-617.8407"/>
</g>
<!-- Node79&#45;&gt;Node77 -->
<g id="edge63" class="edge">
<title>Node79&#45;&gt;Node77</title>
<path fill="none" stroke="#191970" d="M569.5375,-718.4538C571.6439,-709.3803 574.0536,-698.9998 575.7615,-691.6427"/>
<polygon fill="#191970" stroke="#191970" points="566.1165,-717.7131 567.2644,-728.2455 572.9351,-719.2961 566.1165,-717.7131"/>
</g>
<!-- Node80&#45;&gt;Node55 -->
<g id="edge66" class="edge">
<title>Node80&#45;&gt;Node55</title>
<path fill="none" stroke="#191970" d="M728.8911,-845.7253C832.4543,-835.6193 1058,-805.8243 1058,-738 1058,-738 1058,-738 1058,-178 1058,-133.3528 1016.136,-93.2845 994.5499,-75.5918"/>
<polygon fill="#191970" stroke="#191970" points="728.2904,-842.2666 718.6667,-846.6976 728.9531,-849.2351 728.2904,-842.2666"/>
</g>
</g>
</svg>
        <g id="navigator" transform="translate(0 0)" fill="#404254">
                <rect fill="#f2f5e9" fill-opacity="0.5" stroke="#606060" stroke-width=".5" x="0" y="0" width="60" height="60"/>
                <use id="zoomplus" xlink:href="#zoomPlus" x="17" y="9" onmousedown="handleZoom(evt,'in')"/>
                <use id="zoomminus" xlink:href="#zoomMin" x="42" y="9" onmousedown="handleZoom(evt,'out')"/>
                <use id="reset" xlink:href="#resetDef" x="30" y="36" onmousedown="handleReset()"/>
                <g id="arrowUp" xlink:href="#dirArrow" transform="translate(30 24)" onmousedown="handlePan(0,-1)">
                  <use xlink:href="#rim" fill="#404040">
                        <set attributeName="fill" to="#808080" begin="arrowUp.mouseover" end="arrowUp.mouseout"/>
                  </use>
                  <path fill="none" stroke="white" stroke-width="1.5" d="M0,-3.0v7 M-2.5,-0.5L0,-3.0L2.5,-0.5"/>
                </g>
                <g id="arrowRight" xlink:href="#dirArrow" transform="rotate(90) translate(36 -43)" onmousedown="handlePan(1,0)">
                  <use xlink:href="#rim" fill="#404040">
                        <set attributeName="fill" to="#808080" begin="arrowRight.mouseover" end="arrowRight.mouseout"/>
                  </use>
                  <path fill="none" stroke="white" stroke-width="1.5" d="M0,-3.0v7 M-2.5,-0.5L0,-3.0L2.5,-0.5"/>
                </g>
                <g id="arrowDown" xlink:href="#dirArrow" transform="rotate(180) translate(-30 -48)" onmousedown="handlePan(0,1)">
                  <use xlink:href="#rim" fill="#404040">
                        <set attributeName="fill" to="#808080" begin="arrowDown.mouseover" end="arrowDown.mouseout"/>
                  </use>
                  <path fill="none" stroke="white" stroke-width="1.5" d="M0,-3.0v7 M-2.5,-0.5L0,-3.0L2.5,-0.5"/>
                </g>
                <g id="arrowLeft" xlink:href="#dirArrow" transform="rotate(270) translate(-36 17)" onmousedown="handlePan(-1,0)">
                  <use xlink:href="#rim" fill="#404040">
                        <set attributeName="fill" to="#808080" begin="arrowLeft.mouseover" end="arrowLeft.mouseout"/>
                  </use>
                  <path fill="none" stroke="white" stroke-width="1.5" d="M0,-3.0v7 M-2.5,-0.5L0,-3.0L2.5,-0.5"/>
                </g>
        </g>
        <svg viewBox="0 0 15 15" width="100%" height="30px" preserveAspectRatio="xMaxYMin meet">
         <g id="arrow_out" transform="scale(0.3 0.3)">
          <a xlink:href="wave__functions_8hpp__dep__incl_org.svg" target="_base">
           <rect id="button" ry="5" rx="5" y="6" x="6" height="38" width="38"
                fill="#f2f5e9" fill-opacity="0.5" stroke="#606060" stroke-width="1.0"/>
           <path id="arrow"
             d="M 11.500037,31.436501 C 11.940474,20.09759 22.043105,11.32322 32.158766,21.979434 L 37.068811,17.246167 C 37.068811,17.246167 37.088388,32 37.088388,32 L 22.160133,31.978069 C 22.160133,31.978069 26.997745,27.140456 26.997745,27.140456 C 18.528582,18.264221 13.291696,25.230495 11.500037,31.436501 z"
             style="fill:#404040;"/>
          </a>
         </g>
        </svg>
</svg>
