<?xml version="1.0" encoding="UTF-8" standalone="no"?>
<!DOCTYPE svg PUBLIC "-//W3C//DTD SVG 1.1//EN"
 "http://www.w3.org/Graphics/SVG/1.1/DTD/svg11.dtd">
<!-- Generated by graphviz version 2.40.1 (20161225.0304)
 -->
<!-- Title: Eigenproblem_elpa Pages: 1 -->
<svg width="196pt" height="140pt"
 viewBox="0.00 0.00 196.00 140.00" xmlns="http://www.w3.org/2000/svg" xmlns:xlink="http://www.w3.org/1999/xlink">
<g id="graph0" class="graph" transform="scale(1 1) rotate(0) translate(4 136)">
<title>Eigenproblem_elpa</title>
<polygon fill="#ffffff" stroke="transparent" points="-4,4 -4,-136 192,-136 192,4 -4,4"/>
<!-- Node0 -->
<g id="node1" class="node">
<title>Node0</title>
<polygon fill="#bfbfbf" stroke="#000000" points="53,-56.5 53,-75.5 134,-75.5 134,-56.5 53,-56.5"/>
<text text-anchor="middle" x="93.5" y="-63.5" font-family="Helvetica,sans-Serif" font-size="10.00" fill="#000000">Eigenproblem_elpa</text>
</g>
<!-- Node2 -->
<g id="node3" class="node">
<title>Node2</title>
<g id="a_node3"><a xlink:href="../../d6/dc1/class_eigenproblem__elpa1.html" target="_top" xlink:title="Eigenproblem_elpa1">
<polygon fill="#ffffff" stroke="#000000" points="0,-.5 0,-19.5 85,-19.5 85,-.5 0,-.5"/>
<text text-anchor="middle" x="42.5" y="-7.5" font-family="Helvetica,sans-Serif" font-size="10.00" fill="#000000">Eigenproblem_elpa1</text>
</a>
</g>
</g>
<!-- Node0&#45;&gt;Node2 -->
<g id="edge2" class="edge">
<title>Node0&#45;&gt;Node2</title>
<path fill="none" stroke="#191970" d="M77.8251,-48.7884C69.1006,-39.2085 58.5646,-27.6396 51.2817,-19.6427"/>
<polygon fill="#191970" stroke="#191970" points="75.2954,-51.2088 84.6165,-56.2455 80.4709,-46.4954 75.2954,-51.2088"/>
</g>
<!-- Node3 -->
<g id="node4" class="node">
<title>Node3</title>
<g id="a_node4"><a xlink:href="../../db/d08/class_eigenproblem__elpa2.html" target="_top" xlink:title="Eigenproblem_elpa2">
<polygon fill="#ffffff" stroke="#000000" points="103,-.5 103,-19.5 188,-19.5 188,-.5 103,-.5"/>
<text text-anchor="middle" x="145.5" y="-7.5" font-family="Helvetica,sans-Serif" font-size="10.00" fill="#000000">Eigenproblem_elpa2</text>
</a>
</g>
</g>
<!-- Node0&#45;&gt;Node3 -->
<g id="edge3" class="edge">
<title>Node0&#45;&gt;Node3</title>
<path fill="none" stroke="#191970" d="M109.4822,-48.7884C118.3778,-39.2085 129.1204,-27.6396 136.5461,-19.6427"/>
<polygon fill="#191970" stroke="#191970" points="106.7975,-46.536 102.5577,-56.2455 111.927,-51.2992 106.7975,-46.536"/>
</g>
<!-- Node1 -->
<g id="node2" class="node">
<title>Node1</title>
<g id="a_node2"><a xlink:href="../../d3/d52/class_eigenproblem.html" target="_top" xlink:title="Base class for eigen&#45;value problems. ">
<polygon fill="#ffffff" stroke="#000000" points="62,-112.5 62,-131.5 125,-131.5 125,-112.5 62,-112.5"/>
<text text-anchor="middle" x="93.5" y="-119.5" font-family="Helvetica,sans-Serif" font-size="10.00" fill="#000000">Eigenproblem</text>
</a>
</g>
</g>
<!-- Node1&#45;&gt;Node0 -->
<g id="edge1" class="edge">
<title>Node1&#45;&gt;Node0</title>
<path fill="none" stroke="#191970" d="M93.5,-102.1575C93.5,-93.155 93.5,-82.9199 93.5,-75.6427"/>
<polygon fill="#191970" stroke="#191970" points="90.0001,-102.2455 93.5,-112.2455 97.0001,-102.2456 90.0001,-102.2455"/>
</g>
</g>
</svg>
