<?xml version="1.0" encoding="UTF-8" standalone="no"?>
<!DOCTYPE svg PUBLIC "-//W3C//DTD SVG 1.1//EN"
 "http://www.w3.org/Graphics/SVG/1.1/DTD/svg11.dtd">
<!-- Generated by graphviz version 2.40.1 (20161225.0304)
 -->
<!-- Title: sirius::Atom Pages: 1 -->
<!--zoomable 986 -->
<svg id="main" version="1.1" xmlns="http://www.w3.org/2000/svg" xmlns:xlink="http://www.w3.org/1999/xlink" xml:space="preserve" onload="init(evt)">
<style type="text/css"><![CDATA[
.edge:hover path { stroke: red; }
.edge:hover polygon { stroke: red; fill: red; }
]]></style>
<script type="text/javascript"><![CDATA[
var edges = document.getElementsByTagName('g');
if (edges && edges.length) {
  for (var i=0;i<edges.length;i++) {
    if (edges[i].id.substr(0,4)=='edge') {
      edges[i].setAttribute('class','edge');
    }
  }
}
]]></script>
        <defs>
                <circle id="rim" cx="0" cy="0" r="7"/>
                <circle id="rim2" cx="0" cy="0" r="3.5"/>
                <g id="zoomPlus">
                        <use xlink:href="#rim" fill="#404040">
                                <set attributeName="fill" to="#808080" begin="zoomplus.mouseover" end="zoomplus.mouseout"/>
                        </use>
                        <path d="M-4,0h8M0,-4v8" fill="none" stroke="white" stroke-width="1.5" pointer-events="none"/>
                </g>
                <g id="zoomMin">
                        <use xlink:href="#rim" fill="#404040">
                                <set attributeName="fill" to="#808080" begin="zoomminus.mouseover" end="zoomminus.mouseout"/>
                        </use>
                        <path d="M-4,0h8" fill="none" stroke="white" stroke-width="1.5" pointer-events="none"/>
                </g>
                <g id="dirArrow">
                        <path fill="none" stroke="white" stroke-width="1.5" d="M0,-3.0v7 M-2.5,-0.5L0,-3.0L2.5,-0.5"/>
                </g>
               <g id="resetDef">
                       <use xlink:href="#rim2" fill="#404040">
                               <set attributeName="fill" to="#808080" begin="reset.mouseover" end="reset.mouseout"/>
                       </use>
               </g>
        </defs>

<script type="text/javascript">
var viewWidth = 1517;
var viewHeight = 986;
var sectionId = 'dynsection-0';
</script>
<script xlink:href="../../svgpan.js"/>
<svg id="graph" class="graph">
<g id="viewport">
<title>sirius::Atom</title>
<polygon fill="#ffffff" stroke="transparent" points="-4,4 -4,-981.643 1513,-981.643 1513,4 -4,4"/>
<!-- Node1 -->
<g id="node1" class="node">
<title>Node1</title>
<g id="a_node1"><a xlink:title="Data and methods specific to the actual atom in the unit cell.">
<polygon fill="#bfbfbf" stroke="#000000" points="1440,-699.143 1440,-718.143 1509,-718.143 1509,-699.143 1440,-699.143"/>
<text text-anchor="middle" x="1474.5" y="-706.143" font-family="Helvetica,sans-Serif" font-size="10.00" fill="#000000">sirius::Atom</text>
</a>
</g>
</g>
<!-- Node2 -->
<g id="node2" class="node">
<title>Node2</title>
<g id="a_node2"><a xlink:href="../../d7/dab/classsddk_1_1mdarray.html" target="_top" xlink:title=" ">
<polygon fill="#ffffff" stroke="#000000" points="682,-691.643 682,-721.643 800,-721.643 800,-691.643 682,-691.643"/>
<text text-anchor="start" x="690" y="-709.643" font-family="Helvetica,sans-Serif" font-size="10.00" fill="#000000">sddk::mdarray&lt; double</text>
<text text-anchor="middle" x="741" y="-698.643" font-family="Helvetica,sans-Serif" font-size="10.00" fill="#000000">_complex, 4 &gt;</text>
</a>
</g>
</g>
<!-- Node2&#45;&gt;Node1 -->
<g id="edge1" class="edge">
<title>Node2&#45;&gt;Node1</title>
<path fill="none" stroke="#9a32cd" stroke-dasharray="5,2" d="M810.3149,-706.832C963.4808,-707.2497 1326.164,-708.2386 1439.8184,-708.5485"/>
<polygon fill="#9a32cd" stroke="#9a32cd" points="810.104,-703.3316 800.0944,-706.8042 810.0848,-710.3315 810.104,-703.3316"/>
<text text-anchor="start" x="1067" y="-732.643" font-family="Helvetica,sans-Serif" font-size="10.00" fill="#000000"> uj_correction_matrix</text>
<text text-anchor="middle" x="1113.5" y="-721.643" font-family="Helvetica,sans-Serif" font-size="10.00" fill="#000000">_</text>
<text text-anchor="middle" x="1113.5" y="-710.643" font-family="Helvetica,sans-Serif" font-size="10.00" fill="#000000">occupation_matrix_</text>
</g>
<!-- Node3 -->
<g id="node3" class="node">
<title>Node3</title>
<g id="a_node3"><a xlink:href="../../d3/d37/classsirius_1_1_atom__type.html" target="_top" xlink:title="Defines the properties of atom type.">
<polygon fill="#ffffff" stroke="#000000" points="950,-562.143 950,-581.143 1043,-581.143 1043,-562.143 950,-562.143"/>
<text text-anchor="middle" x="996.5" y="-569.143" font-family="Helvetica,sans-Serif" font-size="10.00" fill="#000000">sirius::Atom_type</text>
</a>
</g>
</g>
<!-- Node2&#45;&gt;Node3 -->
<g id="edge11" class="edge">
<title>Node2&#45;&gt;Node3</title>
<path fill="none" stroke="#9a32cd" stroke-dasharray="5,2" d="M806.8013,-689.0393C813.9487,-687.1892 821.1218,-685.359 828,-683.643 871.4085,-672.8135 888.2306,-684.6233 926,-660.643 958.2835,-640.1459 982.124,-599.6038 991.7782,-581.1685"/>
<polygon fill="#9a32cd" stroke="#9a32cd" points="805.896,-685.6583 797.1009,-691.5656 807.6602,-692.4323 805.896,-685.6583"/>
<text text-anchor="middle" x="877" y="-686.643" font-family="Helvetica,sans-Serif" font-size="10.00" fill="#000000"> f_coefficients_</text>
</g>
<!-- Node3&#45;&gt;Node1 -->
<g id="edge2" class="edge">
<title>Node3&#45;&gt;Node1</title>
<path fill="none" stroke="#9a32cd" stroke-dasharray="5,2" d="M1051.8384,-583.3982C1083.633,-590.4277 1124.233,-599.8726 1160,-609.643 1266.8484,-638.8308 1391.8533,-680.4559 1446.5222,-699.0409"/>
<polygon fill="#9a32cd" stroke="#9a32cd" points="1052.3602,-579.9294 1041.8422,-581.2034 1050.859,-586.7666 1052.3602,-579.9294"/>
<text text-anchor="middle" x="1247" y="-657.643" font-family="Helvetica,sans-Serif" font-size="10.00" fill="#000000"> type_</text>
</g>
<!-- Node26 -->
<g id="node26" class="node">
<title>Node26</title>
<g id="a_node26"><a xlink:href="../../d5/d15/classsirius_1_1_atom__symmetry__class.html" target="_top" xlink:title="Data and methods specific to the symmetry class of the atom.">
<polygon fill="#ffffff" stroke="#000000" points="1188,-739.643 1188,-769.643 1306,-769.643 1306,-739.643 1188,-739.643"/>
<text text-anchor="start" x="1196" y="-757.643" font-family="Helvetica,sans-Serif" font-size="10.00" fill="#000000">sirius::Atom_symmetry</text>
<text text-anchor="middle" x="1247" y="-746.643" font-family="Helvetica,sans-Serif" font-size="10.00" fill="#000000">_class</text>
</a>
</g>
</g>
<!-- Node3&#45;&gt;Node26 -->
<g id="edge33" class="edge">
<title>Node3&#45;&gt;Node26</title>
<path fill="none" stroke="#9a32cd" stroke-dasharray="5,2" d="M1022.8895,-586.5414C1055.9944,-605.6504 1113.9972,-640.5343 1160,-675.643 1186.7604,-696.0662 1215.1666,-722.9809 1231.9802,-739.5349"/>
<polygon fill="#9a32cd" stroke="#9a32cd" points="1024.2655,-583.2958 1013.8493,-581.3586 1020.7839,-589.3687 1024.2655,-583.2958"/>
<text text-anchor="middle" x="1113.5" y="-678.643" font-family="Helvetica,sans-Serif" font-size="10.00" fill="#000000"> atom_type_</text>
</g>
<!-- Node4 -->
<g id="node4" class="node">
<title>Node4</title>
<g id="a_node4"><a xlink:href="../../d7/dab/classsddk_1_1mdarray.html" target="_top" xlink:title=" ">
<polygon fill="#ffffff" stroke="#000000" points="413.5,-112.143 413.5,-131.143 532.5,-131.143 532.5,-112.143 413.5,-112.143"/>
<text text-anchor="middle" x="473" y="-119.143" font-family="Helvetica,sans-Serif" font-size="10.00" fill="#000000">sddk::mdarray&lt; int, 2 &gt;</text>
</a>
</g>
</g>
<!-- Node4&#45;&gt;Node3 -->
<g id="edge3" class="edge">
<title>Node4&#45;&gt;Node3</title>
<path fill="none" stroke="#9a32cd" stroke-dasharray="5,2" d="M523.3212,-110.1358C618.4062,-91.718 824.0498,-68.3826 926,-182.643 978.4349,-241.4094 993.5154,-507.4427 996.0757,-561.8902"/>
<polygon fill="#9a32cd" stroke="#9a32cd" points="522.4983,-106.7309 513.378,-112.1226 523.87,-113.5952 522.4983,-106.7309"/>
<text text-anchor="middle" x="741" y="-115.643" font-family="Helvetica,sans-Serif" font-size="10.00" fill="#000000"> idx_radial_integrals_</text>
</g>
<!-- Node11 -->
<g id="node11" class="node">
<title>Node11</title>
<g id="a_node11"><a xlink:href="../../d1/df3/classsirius_1_1radial__functions__index.html" target="_top" xlink:title="A helper class to establish various index mappings for the atomic radial functions.">
<polygon fill="#ffffff" stroke="#000000" points="683.5,-216.643 683.5,-246.643 798.5,-246.643 798.5,-216.643 683.5,-216.643"/>
<text text-anchor="start" x="691.5" y="-234.643" font-family="Helvetica,sans-Serif" font-size="10.00" fill="#000000">sirius::radial_functions</text>
<text text-anchor="middle" x="741" y="-223.643" font-family="Helvetica,sans-Serif" font-size="10.00" fill="#000000">_index</text>
</a>
</g>
</g>
<!-- Node4&#45;&gt;Node11 -->
<g id="edge14" class="edge">
<title>Node4&#45;&gt;Node11</title>
<path fill="none" stroke="#9a32cd" stroke-dasharray="5,2" d="M538.7994,-133.068C583.0252,-141.8558 636.3404,-154.954 654,-169.643 668.3673,-181.5936 658.094,-195.1587 672,-207.643 675.7751,-211.0322 680.0551,-213.9482 684.5899,-216.4561"/>
<polygon fill="#9a32cd" stroke="#9a32cd" points="539.4248,-129.6242 528.9403,-131.1493 538.0875,-136.4952 539.4248,-129.6242"/>
<text text-anchor="middle" x="602.5" y="-172.643" font-family="Helvetica,sans-Serif" font-size="10.00" fill="#000000"> index_by_l_order_</text>
</g>
<!-- Node25 -->
<g id="node25" class="node">
<title>Node25</title>
<g id="a_node25"><a xlink:href="../../d3/dfd/classsirius_1_1basis__functions__index.html" target="_top" xlink:title="A helper class to establish various index mappings for the atomic basis functions.">
<polygon fill="#ffffff" stroke="#000000" points="684,-167.643 684,-197.643 798,-197.643 798,-167.643 684,-167.643"/>
<text text-anchor="start" x="692" y="-185.643" font-family="Helvetica,sans-Serif" font-size="10.00" fill="#000000">sirius::basis_functions</text>
<text text-anchor="middle" x="741" y="-174.643" font-family="Helvetica,sans-Serif" font-size="10.00" fill="#000000">_index</text>
</a>
</g>
</g>
<!-- Node4&#45;&gt;Node25 -->
<g id="edge30" class="edge">
<title>Node4&#45;&gt;Node25</title>
<path fill="none" stroke="#9a32cd" stroke-dasharray="5,2" d="M543.0163,-112.5196C577.2219,-110.4347 618.5473,-111.4958 654,-122.643 682.0048,-131.4484 708.988,-152.6846 725.2872,-167.3734"/>
<polygon fill="#9a32cd" stroke="#9a32cd" points="542.3691,-109.0568 532.6437,-113.26 542.8675,-116.039 542.3691,-109.0568"/>
<text text-anchor="middle" x="602.5" y="-125.643" font-family="Helvetica,sans-Serif" font-size="10.00" fill="#000000"> index_by_lm_order_</text>
</g>
<!-- Node5 -->
<g id="node5" class="node">
<title>Node5</title>
<g id="a_node5"><a xlink:href="../../d5/d6b/classsirius_1_1_spline.html" target="_top" xlink:title=" ">
<polygon fill="#ffffff" stroke="#000000" points="413,-598.143 413,-617.143 533,-617.143 533,-598.143 413,-598.143"/>
<text text-anchor="middle" x="473" y="-605.143" font-family="Helvetica,sans-Serif" font-size="10.00" fill="#000000">sirius::Spline&lt; double &gt;</text>
</a>
</g>
</g>
<!-- Node5&#45;&gt;Node3 -->
<g id="edge4" class="edge">
<title>Node5&#45;&gt;Node3</title>
<path fill="none" stroke="#9a32cd" stroke-dasharray="5,2" d="M543.236,-609.5281C545.857,-609.5717 548.4518,-609.6104 551,-609.643 717.9661,-611.7833 760.8411,-611.2357 926,-586.643 935.7779,-585.1871 946.2347,-583.2013 956.0203,-581.1513"/>
<polygon fill="#9a32cd" stroke="#9a32cd" points="543.1048,-606.0251 533.0411,-609.3377 542.974,-613.0239 543.1048,-606.0251"/>
<text text-anchor="middle" x="741" y="-612.643" font-family="Helvetica,sans-Serif" font-size="10.00" fill="#000000"> free_atom_density_spline_</text>
</g>
<!-- Node10 -->
<g id="node10" class="node">
<title>Node10</title>
<g id="a_node10"><a xlink:href="../../d7/dab/classsddk_1_1mdarray.html" target="_top" xlink:title=" ">
<polygon fill="#ffffff" stroke="#000000" points="682.5,-556.643 682.5,-586.643 799.5,-586.643 799.5,-556.643 682.5,-556.643"/>
<text text-anchor="start" x="690.5" y="-574.643" font-family="Helvetica,sans-Serif" font-size="10.00" fill="#000000">sddk::mdarray&lt; sirius</text>
<text text-anchor="middle" x="741" y="-563.643" font-family="Helvetica,sans-Serif" font-size="10.00" fill="#000000">::Spline&lt; double &gt;, 2 &gt;</text>
</a>
</g>
</g>
<!-- Node5&#45;&gt;Node10 -->
<g id="edge10" class="edge">
<title>Node5&#45;&gt;Node10</title>
<path fill="none" stroke="#9a32cd" stroke-dasharray="5,2" d="M515.1983,-595.4536C526.7254,-592.4999 539.2728,-589.626 551,-587.643 594.737,-580.2475 644.7443,-576.2104 682.4743,-574.0421"/>
<polygon fill="#9a32cd" stroke="#9a32cd" points="514.1509,-592.1101 505.3773,-598.0493 515.9397,-598.8777 514.1509,-592.1101"/>
<text text-anchor="middle" x="602.5" y="-601.643" font-family="Helvetica,sans-Serif" font-size="10.00" fill="#000000"> raw_ptr_device_</text>
<text text-anchor="middle" x="602.5" y="-590.643" font-family="Helvetica,sans-Serif" font-size="10.00" fill="#000000">raw_ptr_</text>
</g>
<!-- Node6 -->
<g id="node6" class="node">
<title>Node6</title>
<g id="a_node6"><a xlink:href="../../d9/dbf/classsirius_1_1_radial__grid.html" target="_top" xlink:title=" ">
<polygon fill="#ffffff" stroke="#000000" points="224,-555.643 224,-585.643 320,-585.643 320,-555.643 224,-555.643"/>
<text text-anchor="start" x="232" y="-573.643" font-family="Helvetica,sans-Serif" font-size="10.00" fill="#000000">sirius::Radial_grid</text>
<text text-anchor="middle" x="272" y="-562.643" font-family="Helvetica,sans-Serif" font-size="10.00" fill="#000000">&lt; double &gt;</text>
</a>
</g>
</g>
<!-- Node6&#45;&gt;Node3 -->
<g id="edge12" class="edge">
<title>Node6&#45;&gt;Node3</title>
<path fill="none" stroke="#9a32cd" stroke-dasharray="5,2" d="M330.3854,-561.9797C386.7178,-554.0875 474.4747,-543.0173 551,-538.643 665.9929,-532.07 695.3151,-536.969 810,-547.643 857.7823,-552.0903 912.1838,-559.3436 949.8475,-564.714"/>
<polygon fill="#9a32cd" stroke="#9a32cd" points="329.6538,-558.5483 320.2424,-563.414 330.634,-565.4793 329.6538,-558.5483"/>
<text text-anchor="start" x="552" y="-563.643" font-family="Helvetica,sans-Serif" font-size="10.00" fill="#000000"> free_atom_radial_grid</text>
<text text-anchor="middle" x="602.5" y="-552.643" font-family="Helvetica,sans-Serif" font-size="10.00" fill="#000000">_</text>
<text text-anchor="middle" x="602.5" y="-541.643" font-family="Helvetica,sans-Serif" font-size="10.00" fill="#000000">radial_grid_</text>
</g>
<!-- Node6&#45;&gt;Node5 -->
<g id="edge5" class="edge">
<title>Node6&#45;&gt;Node5</title>
<path fill="none" stroke="#191970" d="M330.0876,-581.3358C358.9286,-586.6448 393.4764,-593.0044 421.3793,-598.1407"/>
<polygon fill="#191970" stroke="#191970" points="330.6129,-577.8738 320.1445,-579.5055 329.3456,-584.7581 330.6129,-577.8738"/>
</g>
<!-- Node7 -->
<g id="node7" class="node">
<title>Node7</title>
<g id="a_node7"><a xlink:href="../../d7/dab/classsddk_1_1mdarray.html" target="_top" xlink:title=" ">
<polygon fill="#ffffff" stroke="#000000" points="0,-561.143 0,-580.143 138,-580.143 138,-561.143 0,-561.143"/>
<text text-anchor="middle" x="69" y="-568.143" font-family="Helvetica,sans-Serif" font-size="10.00" fill="#000000">sddk::mdarray&lt; double, 1 &gt;</text>
</a>
</g>
</g>
<!-- Node7&#45;&gt;Node6 -->
<g id="edge6" class="edge">
<title>Node7&#45;&gt;Node6</title>
<path fill="none" stroke="#9a32cd" stroke-dasharray="5,2" d="M148.0891,-570.643C173.7063,-570.643 201.3281,-570.643 223.9772,-570.643"/>
<polygon fill="#9a32cd" stroke="#9a32cd" points="148.0098,-567.1431 138.0098,-570.643 148.0098,-574.1431 148.0098,-567.1431"/>
<text text-anchor="middle" x="170.5" y="-595.643" font-family="Helvetica,sans-Serif" font-size="10.00" fill="#000000"> dx_</text>
<text text-anchor="middle" x="170.5" y="-584.643" font-family="Helvetica,sans-Serif" font-size="10.00" fill="#000000">x_inv_</text>
<text text-anchor="middle" x="170.5" y="-573.643" font-family="Helvetica,sans-Serif" font-size="10.00" fill="#000000">x_</text>
</g>
<!-- Node8 -->
<g id="node8" class="node">
<title>Node8</title>
<g id="a_node8"><a xlink:href="../../d7/dab/classsddk_1_1mdarray.html" target="_top" xlink:title=" ">
<polygon fill="#ffffff" stroke="#000000" points="203,-701.143 203,-720.143 341,-720.143 341,-701.143 203,-701.143"/>
<text text-anchor="middle" x="272" y="-708.143" font-family="Helvetica,sans-Serif" font-size="10.00" fill="#000000">sddk::mdarray&lt; double, 2 &gt;</text>
</a>
</g>
</g>
<!-- Node8&#45;&gt;Node1 -->
<g id="edge36" class="edge">
<title>Node8&#45;&gt;Node1</title>
<path fill="none" stroke="#9a32cd" stroke-dasharray="5,2" d="M277.4737,-729.9933C295.1507,-787.8672 356.4473,-955.643 473,-955.643 473,-955.643 473,-955.643 1247,-955.643 1378.4655,-955.643 1454.846,-763.9925 1471.18,-718.3257"/>
<polygon fill="#9a32cd" stroke="#9a32cd" points="280.7847,-728.847 274.5963,-720.2473 274.0712,-730.8291 280.7847,-728.847"/>
<text text-anchor="middle" x="877" y="-969.643" font-family="Helvetica,sans-Serif" font-size="10.00" fill="#000000"> beff_</text>
<text text-anchor="middle" x="877" y="-958.643" font-family="Helvetica,sans-Serif" font-size="10.00" fill="#000000">veff_</text>
</g>
<!-- Node8&#45;&gt;Node3 -->
<g id="edge16" class="edge">
<title>Node8&#45;&gt;Node3</title>
<path fill="none" stroke="#9a32cd" stroke-dasharray="5,2" d="M351.6124,-705.7694C476.5705,-696.4024 725.2102,-670.7964 926,-606.643 945.7853,-600.3215 966.9296,-589.1679 980.8439,-581.149"/>
<polygon fill="#9a32cd" stroke="#9a32cd" points="351.0877,-702.2984 341.3709,-706.5213 351.6003,-709.2796 351.0877,-702.2984"/>
<text text-anchor="middle" x="602.5" y="-708.643" font-family="Helvetica,sans-Serif" font-size="10.00" fill="#000000"> ae_paw_wfs_array_</text>
<text text-anchor="middle" x="602.5" y="-697.643" font-family="Helvetica,sans-Serif" font-size="10.00" fill="#000000">ps_paw_wfs_array_</text>
<text text-anchor="middle" x="602.5" y="-686.643" font-family="Helvetica,sans-Serif" font-size="10.00" fill="#000000">d_mtrx_ion_</text>
</g>
<!-- Node8&#45;&gt;Node5 -->
<g id="edge7" class="edge">
<title>Node8&#45;&gt;Node5</title>
<path fill="none" stroke="#9a32cd" stroke-dasharray="5,2" d="M287.7562,-693.6155C304.0569,-676.9881 331.0122,-652.1329 359,-637.643 376.9017,-628.375 397.9045,-621.7977 416.9719,-617.2126"/>
<polygon fill="#9a32cd" stroke="#9a32cd" points="285.0395,-691.392 280.6521,-701.0357 290.0958,-696.2329 285.0395,-691.392"/>
<text text-anchor="middle" x="377" y="-640.643" font-family="Helvetica,sans-Serif" font-size="10.00" fill="#000000"> coeffs_</text>
</g>
<!-- Node8&#45;&gt;Node26 -->
<g id="edge34" class="edge">
<title>Node8&#45;&gt;Node26</title>
<path fill="none" stroke="#9a32cd" stroke-dasharray="5,2" d="M351.352,-717.1456C353.9311,-717.3193 356.4857,-717.4857 359,-717.643 671.0409,-737.1688 1045.4315,-748.9648 1187.9848,-753.0349"/>
<polygon fill="#9a32cd" stroke="#9a32cd" points="351.5359,-713.65 341.3161,-716.4438 351.0475,-720.633 351.5359,-713.65"/>
<text text-anchor="start" x="690.5" y="-764.643" font-family="Helvetica,sans-Serif" font-size="10.00" fill="#000000"> o1_radial_integrals</text>
<text text-anchor="middle" x="741" y="-753.643" font-family="Helvetica,sans-Serif" font-size="10.00" fill="#000000">_</text>
<text text-anchor="middle" x="741" y="-742.643" font-family="Helvetica,sans-Serif" font-size="10.00" fill="#000000">h_spherical_integrals_</text>
</g>
<!-- Node9 -->
<g id="node9" class="node">
<title>Node9</title>
<g id="a_node9"><a xlink:href="../../d7/dab/classsddk_1_1mdarray.html" target="_top" xlink:title=" ">
<polygon fill="#ffffff" stroke="#000000" points="682,-468.643 682,-498.643 800,-498.643 800,-468.643 682,-468.643"/>
<text text-anchor="start" x="690" y="-486.643" font-family="Helvetica,sans-Serif" font-size="10.00" fill="#000000">sddk::mdarray&lt; double</text>
<text text-anchor="middle" x="741" y="-475.643" font-family="Helvetica,sans-Serif" font-size="10.00" fill="#000000">_complex &gt;</text>
</a>
</g>
</g>
<!-- Node9&#45;&gt;Node3 -->
<g id="edge8" class="edge">
<title>Node9&#45;&gt;Node3</title>
<path fill="none" stroke="#9a32cd" stroke-dasharray="5,2" d="M810.7197,-480.0647C846.6771,-480.8231 890.3479,-485.9242 926,-502.643 954.8411,-516.1679 978.9889,-546.4641 990.0384,-562.0211"/>
<polygon fill="#9a32cd" stroke="#9a32cd" points="810.3467,-476.5608 800.312,-479.96 810.2763,-483.5605 810.3467,-476.5608"/>
<text text-anchor="middle" x="877" y="-505.643" font-family="Helvetica,sans-Serif" font-size="10.00" fill="#000000"> p_mtrx_</text>
</g>
<!-- Node10&#45;&gt;Node3 -->
<g id="edge9" class="edge">
<title>Node10&#45;&gt;Node3</title>
<path fill="none" stroke="#9a32cd" stroke-dasharray="5,2" d="M809.7352,-571.643C854.039,-571.643 910.4795,-571.643 949.6618,-571.643"/>
<polygon fill="#9a32cd" stroke="#9a32cd" points="809.6169,-568.1431 799.6169,-571.643 809.6168,-575.1431 809.6169,-568.1431"/>
<text text-anchor="middle" x="877" y="-574.643" font-family="Helvetica,sans-Serif" font-size="10.00" fill="#000000"> q_radial_functions_l_</text>
</g>
<!-- Node11&#45;&gt;Node3 -->
<g id="edge13" class="edge">
<title>Node11&#45;&gt;Node3</title>
<path fill="none" stroke="#9a32cd" stroke-dasharray="5,2" d="M781.1273,-251.6667C822.876,-274.4145 887.4295,-315.2734 926,-367.643 973.3323,-431.9092 990.7061,-530.4567 995.2073,-561.7494"/>
<polygon fill="#9a32cd" stroke="#9a32cd" points="782.5357,-248.4508 772.0673,-246.819 779.2333,-254.6229 782.5357,-248.4508"/>
<text text-anchor="middle" x="877" y="-403.643" font-family="Helvetica,sans-Serif" font-size="10.00" fill="#000000"> indexr_</text>
<text text-anchor="middle" x="877" y="-392.643" font-family="Helvetica,sans-Serif" font-size="10.00" fill="#000000">hubbard_indexr_</text>
<text text-anchor="middle" x="877" y="-381.643" font-family="Helvetica,sans-Serif" font-size="10.00" fill="#000000">indexr_wfs_</text>
<text text-anchor="middle" x="877" y="-370.643" font-family="Helvetica,sans-Serif" font-size="10.00" fill="#000000">indexr_hub_</text>
</g>
<!-- Node12 -->
<g id="node12" class="node">
<title>Node12</title>
<g id="a_node12"><a xlink:href="../../d7/dab/classsddk_1_1mdarray.html" target="_top" xlink:title=" ">
<polygon fill="#ffffff" stroke="#000000" points="413.5,-180.143 413.5,-199.143 532.5,-199.143 532.5,-180.143 413.5,-180.143"/>
<text text-anchor="middle" x="473" y="-187.143" font-family="Helvetica,sans-Serif" font-size="10.00" fill="#000000">sddk::mdarray&lt; int, 1 &gt;</text>
</a>
</g>
</g>
<!-- Node12&#45;&gt;Node11 -->
<g id="edge15" class="edge">
<title>Node12&#45;&gt;Node11</title>
<path fill="none" stroke="#9a32cd" stroke-dasharray="5,2" d="M542.7851,-200.5795C586.4487,-207.4223 642.0256,-216.1321 683.2121,-222.5867"/>
<polygon fill="#9a32cd" stroke="#9a32cd" points="543.2322,-197.1069 532.8109,-199.0164 542.1484,-204.0225 543.2322,-197.1069"/>
<text text-anchor="middle" x="602.5" y="-219.643" font-family="Helvetica,sans-Serif" font-size="10.00" fill="#000000"> index_by_idxlo_</text>
</g>
<!-- Node12&#45;&gt;Node25 -->
<g id="edge31" class="edge">
<title>Node12&#45;&gt;Node25</title>
<path fill="none" stroke="#9a32cd" stroke-dasharray="5,2" d="M542.8201,-187.8194C586.6402,-186.6748 642.4484,-185.2172 683.6691,-184.1405"/>
<polygon fill="#9a32cd" stroke="#9a32cd" points="542.716,-184.3208 532.8109,-188.0808 542.8989,-191.3184 542.716,-184.3208"/>
<text text-anchor="middle" x="602.5" y="-189.643" font-family="Helvetica,sans-Serif" font-size="10.00" fill="#000000"> index_by_idxrf_</text>
</g>
<!-- Node13 -->
<g id="node13" class="node">
<title>Node13</title>
<g id="a_node13"><a xlink:href="../../d0/d04/classsirius_1_1_simulation__parameters.html" target="_top" xlink:title="Set of basic parameters of a simulation.">
<polygon fill="#ffffff" stroke="#000000" points="695,-378.643 695,-408.643 787,-408.643 787,-378.643 695,-378.643"/>
<text text-anchor="start" x="703" y="-396.643" font-family="Helvetica,sans-Serif" font-size="10.00" fill="#000000">sirius::Simulation</text>
<text text-anchor="middle" x="741" y="-385.643" font-family="Helvetica,sans-Serif" font-size="10.00" fill="#000000">_parameters</text>
</a>
</g>
</g>
<!-- Node13&#45;&gt;Node3 -->
<g id="edge17" class="edge">
<title>Node13&#45;&gt;Node3</title>
<path fill="none" stroke="#9a32cd" stroke-dasharray="5,2" d="M796.882,-405.8302C836.1686,-416.5427 888.2491,-435.27 926,-465.643 960.0953,-493.0749 983.6229,-541.4829 992.5338,-562.0097"/>
<polygon fill="#9a32cd" stroke="#9a32cd" points="797.7477,-402.4389 787.1861,-403.2772 795.9652,-409.2082 797.7477,-402.4389"/>
<text text-anchor="middle" x="877" y="-468.643" font-family="Helvetica,sans-Serif" font-size="10.00" fill="#000000"> parameters_</text>
</g>
<!-- Node14 -->
<g id="node14" class="node">
<title>Node14</title>
<g id="a_node14"><a xlink:href="../../d4/d6e/structsirius_1_1_parameters__input.html" target="_top" xlink:title="Parse parameters input section.">
<polygon fill="#ffffff" stroke="#000000" points="424.5,-496.643 424.5,-526.643 521.5,-526.643 521.5,-496.643 424.5,-496.643"/>
<text text-anchor="start" x="432.5" y="-514.643" font-family="Helvetica,sans-Serif" font-size="10.00" fill="#000000">sirius::Parameters</text>
<text text-anchor="middle" x="473" y="-503.643" font-family="Helvetica,sans-Serif" font-size="10.00" fill="#000000">_input</text>
</a>
</g>
</g>
<!-- Node14&#45;&gt;Node13 -->
<g id="edge18" class="edge">
<title>Node14&#45;&gt;Node13</title>
<path fill="none" stroke="#9a32cd" stroke-dasharray="5,2" d="M531.5965,-500.2393C580.1842,-490.528 643.018,-477.2797 654,-471.643 670.0622,-463.3989 705.8489,-428.9094 726.1652,-408.6578"/>
<polygon fill="#9a32cd" stroke="#9a32cd" points="530.9037,-496.8085 521.7789,-502.1925 532.2696,-503.6739 530.9037,-496.8085"/>
<text text-anchor="middle" x="602.5" y="-498.643" font-family="Helvetica,sans-Serif" font-size="10.00" fill="#000000"> parameters_input_</text>
</g>
<!-- Node15 -->
<g id="node15" class="node">
<title>Node15</title>
<g id="a_node15"><a xlink:href="../../da/de3/structsirius_1_1_control__input.html" target="_top" xlink:title="Parse control input section.">
<polygon fill="#ffffff" stroke="#000000" points="420.5,-458.143 420.5,-477.143 525.5,-477.143 525.5,-458.143 420.5,-458.143"/>
<text text-anchor="middle" x="473" y="-465.143" font-family="Helvetica,sans-Serif" font-size="10.00" fill="#000000">sirius::Control_input</text>
</a>
</g>
</g>
<!-- Node15&#45;&gt;Node13 -->
<g id="edge19" class="edge">
<title>Node15&#45;&gt;Node13</title>
<path fill="none" stroke="#9a32cd" stroke-dasharray="5,2" d="M535.8767,-459.7094C571.1267,-454.3031 615.5962,-445.8736 654,-433.643 674.2755,-427.1859 696.0255,-417.1859 712.7066,-408.8002"/>
<polygon fill="#9a32cd" stroke="#9a32cd" points="535.0969,-456.2869 525.7221,-461.2228 536.1288,-463.2105 535.0969,-456.2869"/>
<text text-anchor="middle" x="602.5" y="-459.643" font-family="Helvetica,sans-Serif" font-size="10.00" fill="#000000"> control_input_</text>
</g>
<!-- Node16 -->
<g id="node16" class="node">
<title>Node16</title>
<g id="a_node16"><a xlink:href="../../d2/dcd/structsirius_1_1_hubbard__input.html" target="_top" xlink:title=" ">
<polygon fill="#ffffff" stroke="#000000" points="417.5,-420.143 417.5,-439.143 528.5,-439.143 528.5,-420.143 417.5,-420.143"/>
<text text-anchor="middle" x="473" y="-427.143" font-family="Helvetica,sans-Serif" font-size="10.00" fill="#000000">sirius::Hubbard_input</text>
</a>
</g>
</g>
<!-- Node16&#45;&gt;Node13 -->
<g id="edge20" class="edge">
<title>Node16&#45;&gt;Node13</title>
<path fill="none" stroke="#9a32cd" stroke-dasharray="5,2" d="M539.2546,-421.5775C573.5312,-417.3152 616.0376,-411.8906 654,-406.643 667.3126,-404.8028 681.7531,-402.6916 694.973,-400.7132"/>
<polygon fill="#9a32cd" stroke="#9a32cd" points="538.3889,-418.1579 528.8953,-422.8614 539.2499,-425.1048 538.3889,-418.1579"/>
<text text-anchor="middle" x="602.5" y="-421.643" font-family="Helvetica,sans-Serif" font-size="10.00" fill="#000000"> hubbard_input_</text>
</g>
<!-- Node17 -->
<g id="node17" class="node">
<title>Node17</title>
<g id="a_node17"><a xlink:href="../../db/dc3/structsirius_1_1_n_l_c_g__input.html" target="_top" xlink:title=" ">
<polygon fill="#ffffff" stroke="#000000" points="423,-382.143 423,-401.143 523,-401.143 523,-382.143 423,-382.143"/>
<text text-anchor="middle" x="473" y="-389.143" font-family="Helvetica,sans-Serif" font-size="10.00" fill="#000000">sirius::NLCG_input</text>
</a>
</g>
</g>
<!-- Node17&#45;&gt;Node13 -->
<g id="edge21" class="edge">
<title>Node17&#45;&gt;Node13</title>
<path fill="none" stroke="#9a32cd" stroke-dasharray="5,2" d="M533.2229,-392.0925C582.1133,-392.4573 650.0405,-392.9642 694.7343,-393.2978"/>
<polygon fill="#9a32cd" stroke="#9a32cd" points="533.1202,-388.5917 523.0944,-392.0169 533.0679,-395.5915 533.1202,-388.5917"/>
<text text-anchor="middle" x="602.5" y="-395.643" font-family="Helvetica,sans-Serif" font-size="10.00" fill="#000000"> nlcg_input_</text>
</g>
<!-- Node18 -->
<g id="node18" class="node">
<title>Node18</title>
<g id="a_node18"><a xlink:href="../../d6/de3/structsirius_1_1_settings__input.html" target="_top" xlink:title="Settings control the internal parameters related to the numerical implementation.">
<polygon fill="#ffffff" stroke="#000000" points="418.5,-344.143 418.5,-363.143 527.5,-363.143 527.5,-344.143 418.5,-344.143"/>
<text text-anchor="middle" x="473" y="-351.143" font-family="Helvetica,sans-Serif" font-size="10.00" fill="#000000">sirius::Settings_input</text>
</a>
</g>
</g>
<!-- Node18&#45;&gt;Node13 -->
<g id="edge22" class="edge">
<title>Node18&#45;&gt;Node13</title>
<path fill="none" stroke="#9a32cd" stroke-dasharray="5,2" d="M537.7613,-360.813C572.3381,-364.908 615.5741,-370.4544 654,-376.643 667.2188,-378.772 681.5009,-381.4173 694.5969,-383.9821"/>
<polygon fill="#9a32cd" stroke="#9a32cd" points="538.1275,-357.332 527.7879,-359.6435 537.3122,-364.2844 538.1275,-357.332"/>
<text text-anchor="middle" x="602.5" y="-379.643" font-family="Helvetica,sans-Serif" font-size="10.00" fill="#000000"> settings_input_</text>
</g>
<!-- Node19 -->
<g id="node19" class="node">
<title>Node19</title>
<g id="a_node19"><a xlink:href="../../d7/d51/structsirius_1_1_unit__cell__input.html" target="_top" xlink:title="Parse unit cell input section.">
<polygon fill="#ffffff" stroke="#000000" points="417.5,-306.143 417.5,-325.143 528.5,-325.143 528.5,-306.143 417.5,-306.143"/>
<text text-anchor="middle" x="473" y="-313.143" font-family="Helvetica,sans-Serif" font-size="10.00" fill="#000000">sirius::Unit_cell_input</text>
</a>
</g>
</g>
<!-- Node19&#45;&gt;Node13 -->
<g id="edge23" class="edge">
<title>Node19&#45;&gt;Node13</title>
<path fill="none" stroke="#9a32cd" stroke-dasharray="5,2" d="M538.8957,-321.7015C573.7923,-326.2043 616.9724,-333.858 654,-346.643 676.8804,-354.5433 700.9489,-367.9988 717.9558,-378.4936"/>
<polygon fill="#9a32cd" stroke="#9a32cd" points="539.1709,-318.209 528.8175,-320.4583 538.3138,-325.1564 539.1709,-318.209"/>
<text text-anchor="middle" x="602.5" y="-349.643" font-family="Helvetica,sans-Serif" font-size="10.00" fill="#000000"> unit_cell_input_</text>
</g>
<!-- Node20 -->
<g id="node20" class="node">
<title>Node20</title>
<g id="a_node20"><a xlink:href="../../d2/d6b/classgeometry3d_1_1vector3d.html" target="_top" xlink:title=" ">
<polygon fill="#ffffff" stroke="#000000" points="215.5,-115.643 215.5,-145.643 328.5,-145.643 328.5,-115.643 215.5,-115.643"/>
<text text-anchor="start" x="223.5" y="-133.643" font-family="Helvetica,sans-Serif" font-size="10.00" fill="#000000">geometry3d::vector3d</text>
<text text-anchor="middle" x="272" y="-122.643" font-family="Helvetica,sans-Serif" font-size="10.00" fill="#000000">&lt; double &gt;</text>
</a>
</g>
</g>
<!-- Node20&#45;&gt;Node1 -->
<g id="edge39" class="edge">
<title>Node20&#45;&gt;Node1</title>
<path fill="none" stroke="#9a32cd" stroke-dasharray="5,2" d="M303.3833,-110.3642C341.7761,-87.5509 409.5176,-53.643 473,-53.643 473,-53.643 473,-53.643 1247,-53.643 1390.1007,-53.643 1463.6227,-618.5832 1473.3781,-699.1313"/>
<polygon fill="#9a32cd" stroke="#9a32cd" points="301.4659,-107.4337 294.7328,-115.6139 305.0976,-113.4179 301.4659,-107.4337"/>
<text text-anchor="middle" x="877" y="-67.643" font-family="Helvetica,sans-Serif" font-size="10.00" fill="#000000"> vector_field_</text>
<text text-anchor="middle" x="877" y="-56.643" font-family="Helvetica,sans-Serif" font-size="10.00" fill="#000000">position_</text>
</g>
<!-- Node20&#45;&gt;Node19 -->
<g id="edge24" class="edge">
<title>Node20&#45;&gt;Node19</title>
<path fill="none" stroke="#9a32cd" stroke-dasharray="5,2" d="M286.2567,-154.8298C308.726,-190.8969 355.7645,-258.5966 413,-296.643 418.7327,-300.4538 425.2775,-303.5396 431.8876,-306.0265"/>
<polygon fill="#9a32cd" stroke="#9a32cd" points="289.0361,-152.6661 280.8319,-145.9622 283.0649,-156.3191 289.0361,-152.6661"/>
<text text-anchor="middle" x="377" y="-307.643" font-family="Helvetica,sans-Serif" font-size="10.00" fill="#000000"> a2_</text>
<text text-anchor="middle" x="377" y="-296.643" font-family="Helvetica,sans-Serif" font-size="10.00" fill="#000000">a1_</text>
<text text-anchor="middle" x="377" y="-285.643" font-family="Helvetica,sans-Serif" font-size="10.00" fill="#000000">a0_</text>
</g>
<!-- Node21 -->
<g id="node21" class="node">
<title>Node21</title>
<g id="a_node21"><a xlink:title=" ">
<polygon fill="#ffffff" stroke="#bfbfbf" points="20.5,-115.643 20.5,-145.643 117.5,-145.643 117.5,-115.643 20.5,-115.643"/>
<text text-anchor="start" x="28.5" y="-133.643" font-family="Helvetica,sans-Serif" font-size="10.00" fill="#000000">std::array&lt; double</text>
<text text-anchor="middle" x="69" y="-122.643" font-family="Helvetica,sans-Serif" font-size="10.00" fill="#000000"> , 3 &gt;</text>
</a>
</g>
</g>
<!-- Node21&#45;&gt;Node20 -->
<g id="edge25" class="edge">
<title>Node21&#45;&gt;Node20</title>
<path fill="none" stroke="#191970" d="M127.8819,-130.643C155.355,-130.643 187.9182,-130.643 215.1347,-130.643"/>
<polygon fill="#191970" stroke="#191970" points="127.6236,-127.1431 117.6236,-130.643 127.6235,-134.1431 127.6236,-127.1431"/>
</g>
<!-- Node22 -->
<g id="node22" class="node">
<title>Node22</title>
<g id="a_node22"><a xlink:href="../../d2/d11/structsirius_1_1_iterative__solver__input.html" target="_top" xlink:title="Parse the parameters of iterative solver.">
<polygon fill="#ffffff" stroke="#000000" points="416.5,-256.643 416.5,-286.643 529.5,-286.643 529.5,-256.643 416.5,-256.643"/>
<text text-anchor="start" x="424.5" y="-274.643" font-family="Helvetica,sans-Serif" font-size="10.00" fill="#000000">sirius::Iterative_solver</text>
<text text-anchor="middle" x="473" y="-263.643" font-family="Helvetica,sans-Serif" font-size="10.00" fill="#000000">_input</text>
</a>
</g>
</g>
<!-- Node22&#45;&gt;Node13 -->
<g id="edge26" class="edge">
<title>Node22&#45;&gt;Node13</title>
<path fill="none" stroke="#9a32cd" stroke-dasharray="5,2" d="M539.94,-275.6532C575.4994,-280.0203 618.9703,-289.0496 654,-307.643 686.8287,-325.0682 715.4296,-358.8578 730.242,-378.4957"/>
<polygon fill="#9a32cd" stroke="#9a32cd" points="539.9862,-272.1362 529.6565,-274.4915 539.2004,-279.092 539.9862,-272.1362"/>
<text text-anchor="middle" x="602.5" y="-310.643" font-family="Helvetica,sans-Serif" font-size="10.00" fill="#000000"> iterative_solver_input_</text>
</g>
<!-- Node23 -->
<g id="node23" class="node">
<title>Node23</title>
<g id="a_node23"><a xlink:href="../../d4/db0/structsirius_1_1_mixer__input.html" target="_top" xlink:title="Parse mixer input section.">
<polygon fill="#ffffff" stroke="#000000" points="424.5,-218.143 424.5,-237.143 521.5,-237.143 521.5,-218.143 424.5,-218.143"/>
<text text-anchor="middle" x="473" y="-225.143" font-family="Helvetica,sans-Serif" font-size="10.00" fill="#000000">sirius::Mixer_input</text>
</a>
</g>
</g>
<!-- Node23&#45;&gt;Node13 -->
<g id="edge27" class="edge">
<title>Node23&#45;&gt;Node13</title>
<path fill="none" stroke="#9a32cd" stroke-dasharray="5,2" d="M531.6828,-233.6636C576.6603,-239.1886 634.2607,-248.5158 654,-261.643 697.8799,-290.8245 724.8774,-350.4838 735.6337,-378.4896"/>
<polygon fill="#9a32cd" stroke="#9a32cd" points="532.0604,-230.1839 521.7163,-232.4752 531.2316,-237.1346 532.0604,-230.1839"/>
<text text-anchor="middle" x="602.5" y="-264.643" font-family="Helvetica,sans-Serif" font-size="10.00" fill="#000000"> mixer_input_</text>
</g>
<!-- Node24 -->
<g id="node24" class="node">
<title>Node24</title>
<g id="a_node24"><a xlink:href="../../d7/dab/classsddk_1_1mdarray.html" target="_top" xlink:title=" ">
<polygon fill="#ffffff" stroke="#000000" points="672,-817.143 672,-836.143 810,-836.143 810,-817.143 672,-817.143"/>
<text text-anchor="middle" x="741" y="-824.143" font-family="Helvetica,sans-Serif" font-size="10.00" fill="#000000">sddk::mdarray&lt; double, 3 &gt;</text>
</a>
</g>
</g>
<!-- Node24&#45;&gt;Node1 -->
<g id="edge37" class="edge">
<title>Node24&#45;&gt;Node1</title>
<path fill="none" stroke="#9a32cd" stroke-dasharray="5,2" d="M771.367,-840.1762C826.5106,-863.0699 946.8564,-905.3089 1049,-887.643 1222.4265,-857.6487 1270.2348,-843.7707 1422,-754.643 1439.1373,-744.5788 1455.8635,-728.5309 1465.6721,-718.2963"/>
<polygon fill="#9a32cd" stroke="#9a32cd" points="772.4216,-836.822 761.8484,-836.1454 769.6919,-843.2678 772.4216,-836.822"/>
<text text-anchor="start" x="1072.5" y="-908.643" font-family="Helvetica,sans-Serif" font-size="10.00" fill="#000000"> h_radial_integrals</text>
<text text-anchor="middle" x="1113.5" y="-897.643" font-family="Helvetica,sans-Serif" font-size="10.00" fill="#000000">_</text>
<text text-anchor="middle" x="1113.5" y="-886.643" font-family="Helvetica,sans-Serif" font-size="10.00" fill="#000000">d_mtrx_</text>
</g>
<!-- Node24&#45;&gt;Node3 -->
<g id="edge28" class="edge">
<title>Node24&#45;&gt;Node3</title>
<path fill="none" stroke="#9a32cd" stroke-dasharray="5,2" d="M776.2253,-813.0377C787.3618,-808.1583 799.4966,-802.2185 810,-795.643 866.9635,-759.9821 883.1921,-750.4507 926,-698.643 958.287,-659.5682 983.3345,-603.5613 992.6068,-581.2995"/>
<polygon fill="#9a32cd" stroke="#9a32cd" points="774.6073,-809.9218 766.7617,-817.042 777.3351,-816.3685 774.6073,-809.9218"/>
<text text-anchor="middle" x="877" y="-797.643" font-family="Helvetica,sans-Serif" font-size="10.00" fill="#000000"> rf_coef_</text>
<text text-anchor="middle" x="877" y="-786.643" font-family="Helvetica,sans-Serif" font-size="10.00" fill="#000000">vrf_coef_</text>
</g>
<!-- Node24&#45;&gt;Node26 -->
<g id="edge35" class="edge">
<title>Node24&#45;&gt;Node26</title>
<path fill="none" stroke="#9a32cd" stroke-dasharray="5,2" d="M820.0935,-820.6623C852.9184,-817.8461 891.3581,-814.1154 926,-809.643 1030.5667,-796.1433 1056.1486,-788.8456 1160,-770.643 1168.9249,-769.0787 1178.357,-767.3856 1187.5885,-765.7062"/>
<polygon fill="#9a32cd" stroke="#9a32cd" points="819.767,-817.1773 810.0971,-821.5067 820.3563,-824.1525 819.767,-817.1773"/>
<text text-anchor="start" x="944" y="-875.643" font-family="Helvetica,sans-Serif" font-size="10.00" fill="#000000"> o_radial_integrals</text>
<text text-anchor="middle" x="996.5" y="-864.643" font-family="Helvetica,sans-Serif" font-size="10.00" fill="#000000">_</text>
<text text-anchor="start" x="944" y="-853.643" font-family="Helvetica,sans-Serif" font-size="10.00" fill="#000000">aw_surface_derivatives</text>
<text text-anchor="middle" x="996.5" y="-842.643" font-family="Helvetica,sans-Serif" font-size="10.00" fill="#000000">_</text>
<text text-anchor="start" x="944" y="-831.643" font-family="Helvetica,sans-Serif" font-size="10.00" fill="#000000">so_radial_integrals</text>
<text text-anchor="middle" x="996.5" y="-820.643" font-family="Helvetica,sans-Serif" font-size="10.00" fill="#000000">_</text>
<text text-anchor="middle" x="996.5" y="-809.643" font-family="Helvetica,sans-Serif" font-size="10.00" fill="#000000">radial_functions_</text>
</g>
<!-- Node25&#45;&gt;Node3 -->
<g id="edge29" class="edge">
<title>Node25&#45;&gt;Node3</title>
<path fill="none" stroke="#9a32cd" stroke-dasharray="5,2" d="M808.3683,-184.0251C847.9595,-188.4772 895.9772,-200.797 926,-232.643 972.906,-282.3976 992.1204,-511.4423 995.8173,-561.8239"/>
<polygon fill="#9a32cd" stroke="#9a32cd" points="808.5316,-180.5245 798.2382,-183.0337 807.8497,-187.4912 808.5316,-180.5245"/>
<text text-anchor="middle" x="877" y="-268.643" font-family="Helvetica,sans-Serif" font-size="10.00" fill="#000000"> indexb_</text>
<text text-anchor="middle" x="877" y="-257.643" font-family="Helvetica,sans-Serif" font-size="10.00" fill="#000000">hubbard_indexb_</text>
<text text-anchor="middle" x="877" y="-246.643" font-family="Helvetica,sans-Serif" font-size="10.00" fill="#000000">indexb_wfs_</text>
<text text-anchor="middle" x="877" y="-235.643" font-family="Helvetica,sans-Serif" font-size="10.00" fill="#000000">indexb_hub_</text>
</g>
<!-- Node26&#45;&gt;Node1 -->
<g id="edge32" class="edge">
<title>Node26&#45;&gt;Node1</title>
<path fill="none" stroke="#9a32cd" stroke-dasharray="5,2" d="M1316.5827,-743.2321C1348.7805,-737.6162 1387.4645,-730.3924 1422,-722.643 1427.9827,-721.3006 1434.312,-719.7373 1440.426,-718.1519"/>
<polygon fill="#9a32cd" stroke="#9a32cd" points="1315.6278,-739.8452 1306.3702,-744.9976 1316.8203,-746.7429 1315.6278,-739.8452"/>
<text text-anchor="middle" x="1378" y="-742.643" font-family="Helvetica,sans-Serif" font-size="10.00" fill="#000000"> symmetry_class_</text>
</g>
<!-- Node27 -->
<g id="node27" class="node">
<title>Node27</title>
<g id="a_node27"><a xlink:href="../../d7/dab/classsddk_1_1mdarray.html" target="_top" xlink:title=" ">
<polygon fill="#ffffff" stroke="#000000" points="1178,-6.143 1178,-25.143 1316,-25.143 1316,-6.143 1178,-6.143"/>
<text text-anchor="middle" x="1247" y="-13.143" font-family="Helvetica,sans-Serif" font-size="10.00" fill="#000000">sddk::mdarray&lt; double, 4 &gt;</text>
</a>
</g>
</g>
<!-- Node27&#45;&gt;Node1 -->
<g id="edge38" class="edge">
<title>Node27&#45;&gt;Node1</title>
<path fill="none" stroke="#9a32cd" stroke-dasharray="5,2" d="M1293.3899,-4.2407C1333.1449,2.4911 1389.0554,4.206 1422,-28.643 1446.8923,-53.4632 1470.784,-617.5003 1474.1071,-698.8916"/>
<polygon fill="#9a32cd" stroke="#9a32cd" points="1292.5951,-.8283 1283.4011,-6.0932 1293.8716,-7.7109 1292.5951,-.8283"/>
<text text-anchor="middle" x="1378" y="-31.643" font-family="Helvetica,sans-Serif" font-size="10.00" fill="#000000"> b_radial_integrals_</text>
</g>
</g>
</svg>
        <g id="navigator" transform="translate(0 0)" fill="#404254">
                <rect fill="#f2f5e9" fill-opacity="0.5" stroke="#606060" stroke-width=".5" x="0" y="0" width="60" height="60"/>
                <use id="zoomplus" xlink:href="#zoomPlus" x="17" y="9" onmousedown="handleZoom(evt,'in')"/>
                <use id="zoomminus" xlink:href="#zoomMin" x="42" y="9" onmousedown="handleZoom(evt,'out')"/>
                <use id="reset" xlink:href="#resetDef" x="30" y="36" onmousedown="handleReset()"/>
                <g id="arrowUp" xlink:href="#dirArrow" transform="translate(30 24)" onmousedown="handlePan(0,-1)">
                  <use xlink:href="#rim" fill="#404040">
                        <set attributeName="fill" to="#808080" begin="arrowUp.mouseover" end="arrowUp.mouseout"/>
                  </use>
                  <path fill="none" stroke="white" stroke-width="1.5" d="M0,-3.0v7 M-2.5,-0.5L0,-3.0L2.5,-0.5"/>
                </g>
                <g id="arrowRight" xlink:href="#dirArrow" transform="rotate(90) translate(36 -43)" onmousedown="handlePan(1,0)">
                  <use xlink:href="#rim" fill="#404040">
                        <set attributeName="fill" to="#808080" begin="arrowRight.mouseover" end="arrowRight.mouseout"/>
                  </use>
                  <path fill="none" stroke="white" stroke-width="1.5" d="M0,-3.0v7 M-2.5,-0.5L0,-3.0L2.5,-0.5"/>
                </g>
                <g id="arrowDown" xlink:href="#dirArrow" transform="rotate(180) translate(-30 -48)" onmousedown="handlePan(0,1)">
                  <use xlink:href="#rim" fill="#404040">
                        <set attributeName="fill" to="#808080" begin="arrowDown.mouseover" end="arrowDown.mouseout"/>
                  </use>
                  <path fill="none" stroke="white" stroke-width="1.5" d="M0,-3.0v7 M-2.5,-0.5L0,-3.0L2.5,-0.5"/>
                </g>
                <g id="arrowLeft" xlink:href="#dirArrow" transform="rotate(270) translate(-36 17)" onmousedown="handlePan(-1,0)">
                  <use xlink:href="#rim" fill="#404040">
                        <set attributeName="fill" to="#808080" begin="arrowLeft.mouseover" end="arrowLeft.mouseout"/>
                  </use>
                  <path fill="none" stroke="white" stroke-width="1.5" d="M0,-3.0v7 M-2.5,-0.5L0,-3.0L2.5,-0.5"/>
                </g>
        </g>
        <svg viewBox="0 0 15 15" width="100%" height="30px" preserveAspectRatio="xMaxYMin meet">
         <g id="arrow_out" transform="scale(0.3 0.3)">
          <a xlink:href="classsirius_1_1_atom__coll__graph_org.svg" target="_base">
           <rect id="button" ry="5" rx="5" y="6" x="6" height="38" width="38"
                fill="#f2f5e9" fill-opacity="0.5" stroke="#606060" stroke-width="1.0"/>
           <path id="arrow"
             d="M 11.500037,31.436501 C 11.940474,20.09759 22.043105,11.32322 32.158766,21.979434 L 37.068811,17.246167 C 37.068811,17.246167 37.088388,32 37.088388,32 L 22.160133,31.978069 C 22.160133,31.978069 26.997745,27.140456 26.997745,27.140456 C 18.528582,18.264221 13.291696,25.230495 11.500037,31.436501 z"
             style="fill:#404040;"/>
          </a>
         </g>
        </svg>
</svg>
