<?xml version="1.0" encoding="UTF-8" standalone="no"?>
<!DOCTYPE svg PUBLIC "-//W3C//DTD SVG 1.1//EN"
 "http://www.w3.org/Graphics/SVG/1.1/DTD/svg11.dtd">
<!-- Generated by graphviz version 2.40.1 (20161225.0304)
 -->
<!-- Title: augmentation_operator.hpp Pages: 1 -->
<svg width="1867pt" height="532pt"
 viewBox="0.00 0.00 1866.50 532.00" xmlns="http://www.w3.org/2000/svg" xmlns:xlink="http://www.w3.org/1999/xlink">
<g id="graph0" class="graph" transform="scale(1 1) rotate(0) translate(4 528)">
<title>augmentation_operator.hpp</title>
<polygon fill="#ffffff" stroke="transparent" points="-4,4 -4,-528 1862.5,-528 1862.5,4 -4,4"/>
<!-- Node0 -->
<g id="node1" class="node">
<title>Node0</title>
<polygon fill="#bfbfbf" stroke="#000000" points="749.5,-504.5 749.5,-523.5 888.5,-523.5 888.5,-504.5 749.5,-504.5"/>
<text text-anchor="middle" x="819" y="-511.5" font-family="Helvetica,sans-Serif" font-size="10.00" fill="#000000">augmentation_operator.hpp</text>
</g>
<!-- Node1 -->
<g id="node2" class="node">
<title>Node1</title>
<g id="a_node2"><a xlink:href="../../d4/df7/radial__integrals_8hpp.html" target="_top" xlink:title="Representation of various radial integrals. ">
<polygon fill="#ffffff" stroke="#000000" points="767,-448.5 767,-467.5 871,-467.5 871,-448.5 767,-448.5"/>
<text text-anchor="middle" x="819" y="-455.5" font-family="Helvetica,sans-Serif" font-size="10.00" fill="#000000">radial_integrals.hpp</text>
</a>
</g>
</g>
<!-- Node0&#45;&gt;Node1 -->
<g id="edge1" class="edge">
<title>Node0&#45;&gt;Node1</title>
<path fill="none" stroke="#191970" d="M819,-504.2455C819,-496.9382 819,-486.6944 819,-477.7046"/>
<polygon fill="#191970" stroke="#191970" points="822.5001,-477.6426 819,-467.6427 815.5001,-477.6427 822.5001,-477.6426"/>
</g>
<!-- Node2 -->
<g id="node3" class="node">
<title>Node2</title>
<g id="a_node3"><a xlink:href="../../d4/d91/unit__cell_8hpp.html" target="_top" xlink:title="Contains definition and partial implementation of sirius::Unit_cell class. ">
<polygon fill="#ffffff" stroke="#000000" points="707,-392.5 707,-411.5 821,-411.5 821,-392.5 707,-392.5"/>
<text text-anchor="middle" x="764" y="-399.5" font-family="Helvetica,sans-Serif" font-size="10.00" fill="#000000">Unit_cell/unit_cell.hpp</text>
</a>
</g>
</g>
<!-- Node1&#45;&gt;Node2 -->
<g id="edge2" class="edge">
<title>Node1&#45;&gt;Node2</title>
<path fill="none" stroke="#191970" d="M809.4197,-448.2455C801.4542,-440.1352 789.9359,-428.4075 780.4921,-418.7919"/>
<polygon fill="#191970" stroke="#191970" points="782.9747,-416.3247 773.4705,-411.6427 777.9805,-421.2297 782.9747,-416.3247"/>
</g>
<!-- Node115 -->
<g id="node49" class="node">
<title>Node115</title>
<g id="a_node49"><a xlink:href="../../d1/d2b/sbessel_8hpp.html" target="_top" xlink:title="Contains implementation of sirius::Spherical_Bessel_functions classe. ">
<polygon fill="#ffffff" stroke="#000000" points="951,-392.5 951,-411.5 1021,-411.5 1021,-392.5 951,-392.5"/>
<text text-anchor="middle" x="986" y="-399.5" font-family="Helvetica,sans-Serif" font-size="10.00" fill="#000000">sbessel.hpp</text>
</a>
</g>
</g>
<!-- Node1&#45;&gt;Node115 -->
<g id="edge82" class="edge">
<title>Node1&#45;&gt;Node115</title>
<path fill="none" stroke="#191970" d="M847.7083,-448.3733C875.3577,-439.1016 917.3576,-425.0178 947.8166,-414.804"/>
<polygon fill="#191970" stroke="#191970" points="949.2979,-417.9989 957.6663,-411.5011 947.0724,-411.3621 949.2979,-417.9989"/>
</g>
<!-- Node3 -->
<g id="node4" class="node">
<title>Node3</title>
<polygon fill="#ffffff" stroke="#bfbfbf" points="0,-.5 0,-19.5 58,-19.5 58,-.5 0,-.5"/>
<text text-anchor="middle" x="29" y="-7.5" font-family="Helvetica,sans-Serif" font-size="10.00" fill="#000000">algorithm</text>
</g>
<!-- Node2&#45;&gt;Node3 -->
<g id="edge3" class="edge">
<title>Node2&#45;&gt;Node3</title>
<path fill="none" stroke="#191970" d="M706.856,-399.3613C533.2823,-390.5929 24,-358.9876 24,-290 24,-290 24,-290 24,-122 24,-89.6794 26.1037,-52.1646 27.582,-29.7929"/>
<polygon fill="#191970" stroke="#191970" points="31.0898,-29.7984 28.2836,-19.5819 24.1063,-29.3185 31.0898,-29.7984"/>
</g>
<!-- Node4 -->
<g id="node5" class="node">
<title>Node4</title>
<g id="a_node5"><a xlink:href="../../de/d6d/atom_8hpp.html" target="_top" xlink:title="Contains declaration and partial implementation of sirius::Atom class. ">
<polygon fill="#ffffff" stroke="#000000" points="319,-280.5 319,-299.5 377,-299.5 377,-280.5 319,-280.5"/>
<text text-anchor="middle" x="348" y="-287.5" font-family="Helvetica,sans-Serif" font-size="10.00" fill="#000000">atom.hpp</text>
</a>
</g>
</g>
<!-- Node2&#45;&gt;Node4 -->
<g id="edge4" class="edge">
<title>Node2&#45;&gt;Node4</title>
<path fill="none" stroke="#191970" d="M728.5321,-392.4509C651.0889,-371.6009 467.3728,-322.1388 386.897,-300.4723"/>
<polygon fill="#191970" stroke="#191970" points="387.7202,-297.0693 377.1541,-297.8492 385.9003,-303.8286 387.7202,-297.0693"/>
</g>
<!-- Node52 -->
<g id="node15" class="node">
<title>Node52</title>
<g id="a_node15"><a xlink:href="../../d5/db8/json_8hpp_source.html" target="_top" xlink:title="json.hpp">
<polygon fill="#ffffff" stroke="#ff0000" points="798,-56.5 798,-75.5 852,-75.5 852,-56.5 798,-56.5"/>
<text text-anchor="middle" x="825" y="-63.5" font-family="Helvetica,sans-Serif" font-size="10.00" fill="#000000">json.hpp</text>
</a>
</g>
</g>
<!-- Node2&#45;&gt;Node52 -->
<g id="edge81" class="edge">
<title>Node2&#45;&gt;Node52</title>
<path fill="none" stroke="#191970" d="M758.0499,-392.4801C752.6244,-383.413 744.7518,-369.2243 740,-356 729.8601,-327.7805 726,-319.986 726,-290 726,-290 726,-290 726,-178 726,-134.255 768.9217,-99.5596 798.2418,-80.9623"/>
<polygon fill="#191970" stroke="#191970" points="800.1281,-83.9114 806.8419,-75.7153 796.4823,-77.9358 800.1281,-83.9114"/>
</g>
<!-- Node74 -->
<g id="node38" class="node">
<title>Node74</title>
<g id="a_node38"><a xlink:href="../../d1/d76/mpi__grid_8hpp.html" target="_top" xlink:title="Contains declaration and implementation of sddk::MPI_grid class. ">
<polygon fill="#ffffff" stroke="#000000" points="391,-168.5 391,-187.5 465,-187.5 465,-168.5 391,-168.5"/>
<text text-anchor="middle" x="428" y="-175.5" font-family="Helvetica,sans-Serif" font-size="10.00" fill="#000000">mpi_grid.hpp</text>
</a>
</g>
</g>
<!-- Node2&#45;&gt;Node74 -->
<g id="edge68" class="edge">
<title>Node2&#45;&gt;Node74</title>
<path fill="none" stroke="#191970" d="M762.7599,-392.3449C760.5102,-378.3793 754.56,-352.4209 740,-336 667.4898,-254.222 542.6884,-209.3294 474.9857,-189.8834"/>
<polygon fill="#191970" stroke="#191970" points="475.5992,-186.4204 465.0254,-187.0883 473.7078,-193.1601 475.5992,-186.4204"/>
</g>
<!-- Node113 -->
<g id="node42" class="node">
<title>Node113</title>
<g id="a_node42"><a xlink:href="../../d8/d7a/unit__cell__symmetry_8hpp.html" target="_top" xlink:title="Contains definition and implementation of sirius::Unit_cell_symmetry class. ">
<polygon fill="#ffffff" stroke="#000000" points="792,-280.5 792,-299.5 914,-299.5 914,-280.5 792,-280.5"/>
<text text-anchor="middle" x="853" y="-287.5" font-family="Helvetica,sans-Serif" font-size="10.00" fill="#000000">unit_cell_symmetry.hpp</text>
</a>
</g>
</g>
<!-- Node2&#45;&gt;Node113 -->
<g id="edge69" class="edge">
<title>Node2&#45;&gt;Node113</title>
<path fill="none" stroke="#191970" d="M771.5881,-392.4509C786.5636,-373.6054 820.1138,-331.3849 839.1399,-307.4419"/>
<polygon fill="#191970" stroke="#191970" points="841.9499,-309.5315 845.4311,-299.5249 836.4695,-305.1765 841.9499,-309.5315"/>
</g>
<!-- Node43 -->
<g id="node45" class="node">
<title>Node43</title>
<g id="a_node45"><a xlink:href="../../de/d06/simulation__parameters_8hpp.html" target="_top" xlink:title="Contains definition and implementation of sirius::Simulation_parameters_base class. ">
<polygon fill="#ffffff" stroke="#000000" points="914.5,-336.5 914.5,-355.5 1051.5,-355.5 1051.5,-336.5 914.5,-336.5"/>
<text text-anchor="middle" x="983" y="-343.5" font-family="Helvetica,sans-Serif" font-size="10.00" fill="#000000">simulation_parameters.hpp</text>
</a>
</g>
</g>
<!-- Node2&#45;&gt;Node43 -->
<g id="edge74" class="edge">
<title>Node2&#45;&gt;Node43</title>
<path fill="none" stroke="#191970" d="M801.6474,-392.3733C838.852,-382.8598 895.8703,-368.2797 936.0216,-358.0127"/>
<polygon fill="#191970" stroke="#191970" points="937.0227,-361.3695 945.8438,-355.5011 935.2884,-354.5877 937.0227,-361.3695"/>
</g>
<!-- Node5 -->
<g id="node6" class="node">
<title>Node5</title>
<g id="a_node6"><a xlink:href="../../d8/db4/gaunt_8hpp.html" target="_top" xlink:title="Contains definition and implementation of sirius::Gaunt class. ">
<polygon fill="#ffffff" stroke="#ff0000" points="64,-224.5 64,-243.5 148,-243.5 148,-224.5 64,-224.5"/>
<text text-anchor="middle" x="106" y="-231.5" font-family="Helvetica,sans-Serif" font-size="10.00" fill="#000000">SHT/gaunt.hpp</text>
</a>
</g>
</g>
<!-- Node4&#45;&gt;Node5 -->
<g id="edge5" class="edge">
<title>Node4&#45;&gt;Node5</title>
<path fill="none" stroke="#191970" d="M318.8091,-283.2451C278.8219,-273.9918 206.3826,-257.229 157.2475,-245.8589"/>
<polygon fill="#191970" stroke="#191970" points="157.9739,-242.4346 147.4422,-243.5899 156.3957,-249.2544 157.9739,-242.4346"/>
</g>
<!-- Node21 -->
<g id="node7" class="node">
<title>Node21</title>
<g id="a_node7"><a xlink:href="../../d6/d50/atom__symmetry__class_8hpp.html" target="_top" xlink:title="Contains declaration and partial implementation of sirius::Atom_symmetry_class class. ">
<polygon fill="#ffffff" stroke="#ff0000" points="166.5,-224.5 166.5,-243.5 301.5,-243.5 301.5,-224.5 166.5,-224.5"/>
<text text-anchor="middle" x="234" y="-231.5" font-family="Helvetica,sans-Serif" font-size="10.00" fill="#000000">atom_symmetry_class.hpp</text>
</a>
</g>
</g>
<!-- Node4&#45;&gt;Node21 -->
<g id="edge6" class="edge">
<title>Node4&#45;&gt;Node21</title>
<path fill="none" stroke="#191970" d="M328.4027,-280.3733C310.2669,-271.4644 283.0865,-258.1127 262.5413,-248.0203"/>
<polygon fill="#191970" stroke="#191970" points="263.8603,-244.7688 253.3416,-243.5011 260.7739,-251.0517 263.8603,-244.7688"/>
</g>
<!-- Node45 -->
<g id="node8" class="node">
<title>Node45</title>
<g id="a_node8"><a xlink:href="../../db/d5a/sddk_8hpp.html" target="_top" xlink:title="Main include file for SDDK library. ">
<polygon fill="#ffffff" stroke="#ff0000" points="319.5,-224.5 319.5,-243.5 376.5,-243.5 376.5,-224.5 319.5,-224.5"/>
<text text-anchor="middle" x="348" y="-231.5" font-family="Helvetica,sans-Serif" font-size="10.00" fill="#000000">sddk.hpp</text>
</a>
</g>
</g>
<!-- Node4&#45;&gt;Node45 -->
<g id="edge7" class="edge">
<title>Node4&#45;&gt;Node45</title>
<path fill="none" stroke="#191970" d="M348,-280.2455C348,-272.9382 348,-262.6944 348,-253.7046"/>
<polygon fill="#191970" stroke="#191970" points="351.5001,-253.6426 348,-243.6427 344.5001,-253.6427 351.5001,-253.6426"/>
</g>
<!-- Node104 -->
<g id="node41" class="node">
<title>Node104</title>
<g id="a_node41"><a xlink:href="../../d0/df9/spheric__function_8hpp.html" target="_top" xlink:title="Contains declaration and implementation of sirius::Spheric_function and sirius::Spheric_function_grad...">
<polygon fill="#ffffff" stroke="#ff0000" points="588.5,-112.5 588.5,-131.5 697.5,-131.5 697.5,-112.5 588.5,-112.5"/>
<text text-anchor="middle" x="643" y="-119.5" font-family="Helvetica,sans-Serif" font-size="10.00" fill="#000000">spheric_function.hpp</text>
</a>
</g>
</g>
<!-- Node4&#45;&gt;Node104 -->
<g id="edge66" class="edge">
<title>Node4&#45;&gt;Node104</title>
<path fill="none" stroke="#191970" d="M370.1992,-280.4639C408.5371,-263.6673 489.1787,-226.8856 553,-188 578.3113,-172.5781 605.5081,-152.0213 623.2998,-137.9725"/>
<polygon fill="#191970" stroke="#191970" points="625.5925,-140.6209 631.2289,-131.6497 621.2282,-135.1479 625.5925,-140.6209"/>
</g>
<!-- Node45&#45;&gt;Node3 -->
<g id="edge12" class="edge">
<title>Node45&#45;&gt;Node3</title>
<path fill="none" stroke="#191970" d="M319.3962,-226.3461C316.2302,-225.5366 313.0496,-224.7398 310,-224 238.3227,-206.6115 208.8703,-229.6511 148,-188 88.5263,-147.3046 50.8859,-66.1669 36.1174,-29.1767"/>
<polygon fill="#191970" stroke="#191970" points="39.2836,-27.66 32.4136,-19.5944 32.7544,-30.1838 39.2836,-27.66"/>
</g>
<!-- Node24 -->
<g id="node9" class="node">
<title>Node24</title>
<polygon fill="#ffffff" stroke="#bfbfbf" points="76.5,-.5 76.5,-19.5 117.5,-19.5 117.5,-.5 76.5,-.5"/>
<text text-anchor="middle" x="97" y="-7.5" font-family="Helvetica,sans-Serif" font-size="10.00" fill="#000000">string</text>
</g>
<!-- Node45&#45;&gt;Node24 -->
<g id="edge8" class="edge">
<title>Node45&#45;&gt;Node24</title>
<path fill="none" stroke="#191970" d="M319.372,-226.4423C316.2105,-225.6148 313.0376,-224.7875 310,-224 247.3925,-207.77 217.7012,-230.5594 169,-188 120.7746,-145.8564 104.3816,-66.7139 99.2035,-29.8437"/>
<polygon fill="#191970" stroke="#191970" points="102.6659,-29.3254 97.9337,-19.8461 95.7217,-30.2074 102.6659,-29.3254"/>
</g>
<!-- Node9 -->
<g id="node10" class="node">
<title>Node9</title>
<polygon fill="#ffffff" stroke="#bfbfbf" points="136,-.5 136,-19.5 172,-19.5 172,-.5 136,-.5"/>
<text text-anchor="middle" x="154" y="-7.5" font-family="Helvetica,sans-Serif" font-size="10.00" fill="#000000">map</text>
</g>
<!-- Node45&#45;&gt;Node9 -->
<g id="edge9" class="edge">
<title>Node45&#45;&gt;Node9</title>
<path fill="none" stroke="#191970" d="M319.3481,-226.2241C273.6861,-213.7751 189.2795,-190.5071 187,-188 146.5527,-143.5159 148.1274,-66.1206 151.5072,-29.8395"/>
<polygon fill="#191970" stroke="#191970" points="155.0191,-29.9173 152.6169,-19.5984 148.0599,-29.1631 155.0191,-29.9173"/>
</g>
<!-- Node19 -->
<g id="node11" class="node">
<title>Node19</title>
<polygon fill="#ffffff" stroke="#bfbfbf" points="262,-.5 262,-19.5 306,-19.5 306,-.5 262,-.5"/>
<text text-anchor="middle" x="284" y="-7.5" font-family="Helvetica,sans-Serif" font-size="10.00" fill="#000000">vector</text>
</g>
<!-- Node45&#45;&gt;Node19 -->
<g id="edge10" class="edge">
<title>Node45&#45;&gt;Node19</title>
<path fill="none" stroke="#191970" d="M319.3058,-226.0241C277.3055,-214.216 203.6397,-192.9426 200,-188 160.608,-134.5057 229.4926,-59.6031 264.9155,-26.6604"/>
<polygon fill="#191970" stroke="#191970" points="267.6646,-28.8919 272.7167,-19.5792 262.9598,-23.7088 267.6646,-28.8919"/>
</g>
<!-- Node10 -->
<g id="node12" class="node">
<title>Node10</title>
<polygon fill="#ffffff" stroke="#bfbfbf" points="190.5,-.5 190.5,-19.5 243.5,-19.5 243.5,-.5 190.5,-.5"/>
<text text-anchor="middle" x="217" y="-7.5" font-family="Helvetica,sans-Serif" font-size="10.00" fill="#000000">memory</text>
</g>
<!-- Node45&#45;&gt;Node10 -->
<g id="edge11" class="edge">
<title>Node45&#45;&gt;Node10</title>
<path fill="none" stroke="#191970" d="M333.3215,-224.365C309.9987,-208.2244 264.7913,-173.3868 242,-132 223.9114,-99.1529 218.8577,-54.8158 217.4794,-29.6341"/>
<polygon fill="#191970" stroke="#191970" points="220.9718,-29.3727 217.0711,-19.5221 213.9775,-29.6552 220.9718,-29.3727"/>
</g>
<!-- Node48 -->
<g id="node13" class="node">
<title>Node48</title>
<g id="a_node13"><a xlink:href="../../df/d93/utils_8hpp.html" target="_top" xlink:title="A collection of utility functions. ">
<polygon fill="#ffffff" stroke="#ff0000" points="251.5,-112.5 251.5,-131.5 334.5,-131.5 334.5,-112.5 251.5,-112.5"/>
<text text-anchor="middle" x="293" y="-119.5" font-family="Helvetica,sans-Serif" font-size="10.00" fill="#000000">../utils/utils.hpp</text>
</a>
</g>
</g>
<!-- Node45&#45;&gt;Node48 -->
<g id="edge13" class="edge">
<title>Node45&#45;&gt;Node48</title>
<path fill="none" stroke="#191970" d="M343.3107,-224.4509C334.2186,-205.936 314.0469,-164.8591 302.1922,-140.7187"/>
<polygon fill="#191970" stroke="#191970" points="305.227,-138.9582 297.6774,-131.5249 298.9437,-142.0438 305.227,-138.9582"/>
</g>
<!-- Node72 -->
<g id="node37" class="node">
<title>Node72</title>
<g id="a_node37"><a xlink:href="../../d4/d32/communicator_8hpp.html" target="_top" xlink:title="Contains declaration and implementation of sddk::Communicator class. ">
<polygon fill="#ffffff" stroke="#ff0000" points="394.5,-56.5 394.5,-75.5 493.5,-75.5 493.5,-56.5 394.5,-56.5"/>
<text text-anchor="middle" x="444" y="-63.5" font-family="Helvetica,sans-Serif" font-size="10.00" fill="#000000">communicator.hpp</text>
</a>
</g>
</g>
<!-- Node45&#45;&gt;Node72 -->
<g id="edge45" class="edge">
<title>Node45&#45;&gt;Node72</title>
<path fill="none" stroke="#191970" d="M352.6359,-224.4897C358.9966,-211.5629 370.9071,-187.7882 382,-168 398.7086,-138.1942 419.6143,-104.4688 432.3789,-84.2379"/>
<polygon fill="#191970" stroke="#191970" points="435.3862,-86.031 437.7819,-75.7105 429.4732,-82.2844 435.3862,-86.031"/>
</g>
<!-- Node45&#45;&gt;Node74 -->
<g id="edge53" class="edge">
<title>Node45&#45;&gt;Node74</title>
<path fill="none" stroke="#191970" d="M361.9349,-224.2455C374.0947,-215.7337 391.9464,-203.2375 406.0285,-193.3801"/>
<polygon fill="#191970" stroke="#191970" points="408.0395,-196.2447 414.2248,-187.6427 404.0253,-190.51 408.0395,-196.2447"/>
</g>
<!-- Node84 -->
<g id="node39" class="node">
<title>Node84</title>
<g id="a_node39"><a xlink:href="../../d6/dd8/gvec_8hpp.html" target="_top" xlink:title="Declaration and implementation of Gvec class. ">
<polygon fill="#ffffff" stroke="#ff0000" points="487.5,-168.5 487.5,-187.5 544.5,-187.5 544.5,-168.5 487.5,-168.5"/>
<text text-anchor="middle" x="516" y="-175.5" font-family="Helvetica,sans-Serif" font-size="10.00" fill="#000000">gvec.hpp</text>
</a>
</g>
</g>
<!-- Node45&#45;&gt;Node84 -->
<g id="edge56" class="edge">
<title>Node45&#45;&gt;Node84</title>
<path fill="none" stroke="#191970" d="M376.8802,-224.3733C404.8161,-215.0613 447.3142,-200.8953 477.9869,-190.671"/>
<polygon fill="#191970" stroke="#191970" points="479.1166,-193.9839 487.4966,-187.5011 476.903,-187.3431 479.1166,-193.9839"/>
</g>
<!-- Node48&#45;&gt;Node24 -->
<g id="edge15" class="edge">
<title>Node48&#45;&gt;Node24</title>
<path fill="none" stroke="#191970" d="M276.2892,-112.4509C241.9352,-92.8201 163.1953,-47.8259 122.4576,-24.5472"/>
<polygon fill="#191970" stroke="#191970" points="124.0875,-21.4475 113.6686,-19.5249 120.6145,-27.5252 124.0875,-21.4475"/>
</g>
<!-- Node48&#45;&gt;Node19 -->
<g id="edge16" class="edge">
<title>Node48&#45;&gt;Node19</title>
<path fill="none" stroke="#191970" d="M292.2327,-112.4509C290.7648,-94.184 287.5321,-53.9553 285.5828,-29.6976"/>
<polygon fill="#191970" stroke="#191970" points="289.0552,-29.2124 284.7654,-19.5249 282.0777,-29.7731 289.0552,-29.2124"/>
</g>
<!-- Node49 -->
<g id="node14" class="node">
<title>Node49</title>
<polygon fill="#ffffff" stroke="#bfbfbf" points="324.5,-.5 324.5,-19.5 373.5,-19.5 373.5,-.5 324.5,-.5"/>
<text text-anchor="middle" x="349" y="-7.5" font-family="Helvetica,sans-Serif" font-size="10.00" fill="#000000">cassert</text>
</g>
<!-- Node48&#45;&gt;Node49 -->
<g id="edge14" class="edge">
<title>Node48&#45;&gt;Node49</title>
<path fill="none" stroke="#191970" d="M297.7745,-112.4509C307.032,-93.936 327.5705,-52.8591 339.6407,-28.7187"/>
<polygon fill="#191970" stroke="#191970" points="342.8959,-30.0344 344.2376,-19.5249 336.6349,-26.9039 342.8959,-30.0344"/>
</g>
<!-- Node48&#45;&gt;Node52 -->
<g id="edge17" class="edge">
<title>Node48&#45;&gt;Node52</title>
<path fill="none" stroke="#191970" d="M334.7451,-117.6058C435.6773,-106.9813 691.6836,-80.0333 787.7867,-69.9172"/>
<polygon fill="#191970" stroke="#191970" points="788.3253,-73.3799 797.9039,-68.8522 787.5924,-66.4184 788.3253,-73.3799"/>
</g>
<!-- Node52&#45;&gt;Node3 -->
<g id="edge18" class="edge">
<title>Node52&#45;&gt;Node3</title>
<path fill="none" stroke="#191970" d="M797.6963,-65.064C682.1318,-60.9937 232.0717,-44.0216 68.6777,-19.9273"/>
<polygon fill="#191970" stroke="#191970" points="68.7535,-16.3976 58.3364,-18.33 67.6849,-23.3155 68.7535,-16.3976"/>
</g>
<!-- Node52&#45;&gt;Node24 -->
<g id="edge27" class="edge">
<title>Node52&#45;&gt;Node24</title>
<path fill="none" stroke="#191970" d="M797.9567,-65.1426C688.5924,-61.5358 278.1506,-46.6208 127.7462,-19.5734"/>
<polygon fill="#191970" stroke="#191970" points="128.2739,-16.1112 117.7973,-17.6897 126.9716,-22.989 128.2739,-16.1112"/>
</g>
<!-- Node52&#45;&gt;Node9 -->
<g id="edge30" class="edge">
<title>Node52&#45;&gt;Node9</title>
<path fill="none" stroke="#191970" d="M797.8891,-65.086C693.9891,-61.4292 320.5112,-46.8325 182.0372,-19.5655"/>
<polygon fill="#191970" stroke="#191970" points="182.5942,-16.1065 172.0907,-17.4946 181.1673,-22.9595 182.5942,-16.1065"/>
</g>
<!-- Node52&#45;&gt;Node19 -->
<g id="edge32" class="edge">
<title>Node52&#45;&gt;Node19</title>
<path fill="none" stroke="#191970" d="M797.8764,-65.6638C722.5481,-64.2874 504.4715,-57.2955 315.9966,-19.7953"/>
<polygon fill="#191970" stroke="#191970" points="316.6888,-16.3645 306.1933,-17.8114 315.3004,-23.2254 316.6888,-16.3645"/>
</g>
<!-- Node52&#45;&gt;Node10 -->
<g id="edge31" class="edge">
<title>Node52&#45;&gt;Node10</title>
<path fill="none" stroke="#191970" d="M797.9645,-65.6502C716.7997,-64.217 468.1518,-57.0323 253.4795,-19.7408"/>
<polygon fill="#191970" stroke="#191970" points="254.0621,-16.2896 243.6062,-17.9999 252.8465,-23.1832 254.0621,-16.2896"/>
</g>
<!-- Node52&#45;&gt;Node49 -->
<g id="edge19" class="edge">
<title>Node52&#45;&gt;Node49</title>
<path fill="none" stroke="#191970" d="M797.7611,-64.9787C729.4178,-62.0354 545.1557,-51.7471 383.838,-20.0674"/>
<polygon fill="#191970" stroke="#191970" points="384.2288,-16.5763 373.7369,-18.0492 382.8573,-23.4407 384.2288,-16.5763"/>
</g>
<!-- Node53 -->
<g id="node16" class="node">
<title>Node53</title>
<polygon fill="#ffffff" stroke="#bfbfbf" points="539.5,-.5 539.5,-19.5 590.5,-19.5 590.5,-.5 539.5,-.5"/>
<text text-anchor="middle" x="565" y="-7.5" font-family="Helvetica,sans-Serif" font-size="10.00" fill="#000000">ciso646</text>
</g>
<!-- Node52&#45;&gt;Node53 -->
<g id="edge20" class="edge">
<title>Node52&#45;&gt;Node53</title>
<path fill="none" stroke="#191970" d="M797.6974,-61.2202C756.7931,-53.8919 677.0098,-38.9529 600.3692,-20.1974"/>
<polygon fill="#191970" stroke="#191970" points="601.1039,-16.7737 590.556,-17.7703 599.4231,-23.569 601.1039,-16.7737"/>
</g>
<!-- Node54 -->
<g id="node17" class="node">
<title>Node54</title>
<polygon fill="#ffffff" stroke="#bfbfbf" points="608.5,-.5 608.5,-19.5 657.5,-19.5 657.5,-.5 608.5,-.5"/>
<text text-anchor="middle" x="633" y="-7.5" font-family="Helvetica,sans-Serif" font-size="10.00" fill="#000000">cstddef</text>
</g>
<!-- Node52&#45;&gt;Node54 -->
<g id="edge21" class="edge">
<title>Node52&#45;&gt;Node54</title>
<path fill="none" stroke="#191970" d="M797.9618,-58.29C768.2166,-49.7837 718.7478,-35.5654 667.7339,-20.4925"/>
<polygon fill="#191970" stroke="#191970" points="668.4383,-17.0509 657.8562,-17.5688 666.4516,-23.7631 668.4383,-17.0509"/>
</g>
<!-- Node12 -->
<g id="node18" class="node">
<title>Node12</title>
<polygon fill="#ffffff" stroke="#bfbfbf" points="391.5,-.5 391.5,-19.5 450.5,-19.5 450.5,-.5 391.5,-.5"/>
<text text-anchor="middle" x="421" y="-7.5" font-family="Helvetica,sans-Serif" font-size="10.00" fill="#000000">functional</text>
</g>
<!-- Node52&#45;&gt;Node12 -->
<g id="edge22" class="edge">
<title>Node52&#45;&gt;Node12</title>
<path fill="none" stroke="#191970" d="M797.8015,-63.7504C738.403,-58.587 592.5251,-44.5454 460.6004,-19.9017"/>
<polygon fill="#191970" stroke="#191970" points="461.2005,-16.4532 450.7239,-18.0316 459.8982,-23.331 461.2005,-16.4532"/>
</g>
<!-- Node29 -->
<g id="node19" class="node">
<title>Node29</title>
<polygon fill="#ffffff" stroke="#bfbfbf" points="1594.5,-.5 1594.5,-19.5 1667.5,-19.5 1667.5,-.5 1594.5,-.5"/>
<text text-anchor="middle" x="1631" y="-7.5" font-family="Helvetica,sans-Serif" font-size="10.00" fill="#000000">initializer_list</text>
</g>
<!-- Node52&#45;&gt;Node29 -->
<g id="edge23" class="edge">
<title>Node52&#45;&gt;Node29</title>
<path fill="none" stroke="#191970" d="M852.3906,-64.9271C968.326,-60.2979 1419.8638,-41.3623 1583.8693,-20.0697"/>
<polygon fill="#191970" stroke="#191970" points="1584.8098,-23.4744 1594.2496,-18.664 1583.8703,-16.5377 1584.8098,-23.4744"/>
</g>
<!-- Node55 -->
<g id="node20" class="node">
<title>Node55</title>
<polygon fill="#ffffff" stroke="#bfbfbf" points="675.5,-.5 675.5,-19.5 720.5,-19.5 720.5,-.5 675.5,-.5"/>
<text text-anchor="middle" x="698" y="-7.5" font-family="Helvetica,sans-Serif" font-size="10.00" fill="#000000">iosfwd</text>
</g>
<!-- Node52&#45;&gt;Node55 -->
<g id="edge24" class="edge">
<title>Node52&#45;&gt;Node55</title>
<path fill="none" stroke="#191970" d="M803.1679,-56.3733C782.6897,-47.3435 751.8601,-33.7494 728.8681,-23.6111"/>
<polygon fill="#191970" stroke="#191970" points="730.1093,-20.3333 719.5472,-19.5011 727.285,-26.7383 730.1093,-20.3333"/>
</g>
<!-- Node56 -->
<g id="node21" class="node">
<title>Node56</title>
<polygon fill="#ffffff" stroke="#bfbfbf" points="739,-.5 739,-19.5 787,-19.5 787,-.5 739,-.5"/>
<text text-anchor="middle" x="763" y="-7.5" font-family="Helvetica,sans-Serif" font-size="10.00" fill="#000000">iterator</text>
</g>
<!-- Node52&#45;&gt;Node56 -->
<g id="edge25" class="edge">
<title>Node52&#45;&gt;Node56</title>
<path fill="none" stroke="#191970" d="M814.2004,-56.2455C805.1322,-48.0549 791.9794,-36.1749 781.2755,-26.5069"/>
<polygon fill="#191970" stroke="#191970" points="783.4429,-23.7482 773.6758,-19.6427 778.7509,-28.9429 783.4429,-23.7482"/>
</g>
<!-- Node57 -->
<g id="node22" class="node">
<title>Node57</title>
<polygon fill="#ffffff" stroke="#bfbfbf" points="469,-.5 469,-19.5 521,-19.5 521,-.5 469,-.5"/>
<text text-anchor="middle" x="495" y="-7.5" font-family="Helvetica,sans-Serif" font-size="10.00" fill="#000000">numeric</text>
</g>
<!-- Node52&#45;&gt;Node57 -->
<g id="edge26" class="edge">
<title>Node52&#45;&gt;Node57</title>
<path fill="none" stroke="#191970" d="M797.9475,-62.9179C747.3904,-56.9156 635.0188,-42.4324 531.2931,-20.075"/>
<polygon fill="#191970" stroke="#191970" points="531.8013,-16.6035 521.2845,-17.8868 530.3061,-23.442 531.8013,-16.6035"/>
</g>
<!-- Node58 -->
<g id="node23" class="node">
<title>Node58</title>
<polygon fill="#ffffff" stroke="#bfbfbf" points="805.5,-.5 805.5,-19.5 844.5,-19.5 844.5,-.5 805.5,-.5"/>
<text text-anchor="middle" x="825" y="-7.5" font-family="Helvetica,sans-Serif" font-size="10.00" fill="#000000">utility</text>
</g>
<!-- Node52&#45;&gt;Node58 -->
<g id="edge28" class="edge">
<title>Node52&#45;&gt;Node58</title>
<path fill="none" stroke="#191970" d="M825,-56.2455C825,-48.9382 825,-38.6944 825,-29.7046"/>
<polygon fill="#191970" stroke="#191970" points="828.5001,-29.6426 825,-19.6427 821.5001,-29.6427 828.5001,-29.6426"/>
</g>
<!-- Node59 -->
<g id="node24" class="node">
<title>Node59</title>
<polygon fill="#ffffff" stroke="#bfbfbf" points="862.5,-.5 862.5,-19.5 907.5,-19.5 907.5,-.5 862.5,-.5"/>
<text text-anchor="middle" x="885" y="-7.5" font-family="Helvetica,sans-Serif" font-size="10.00" fill="#000000">cstdint</text>
</g>
<!-- Node52&#45;&gt;Node59 -->
<g id="edge29" class="edge">
<title>Node52&#45;&gt;Node59</title>
<path fill="none" stroke="#191970" d="M835.4512,-56.2455C844.2269,-48.0549 856.9554,-36.1749 867.314,-26.5069"/>
<polygon fill="#191970" stroke="#191970" points="869.7461,-29.0246 874.6686,-19.6427 864.9699,-23.9072 869.7461,-29.0246"/>
</g>
<!-- Node60 -->
<g id="node25" class="node">
<title>Node60</title>
<polygon fill="#ffffff" stroke="#bfbfbf" points="925.5,-.5 925.5,-19.5 988.5,-19.5 988.5,-.5 925.5,-.5"/>
<text text-anchor="middle" x="957" y="-7.5" font-family="Helvetica,sans-Serif" font-size="10.00" fill="#000000">type_traits</text>
</g>
<!-- Node52&#45;&gt;Node60 -->
<g id="edge33" class="edge">
<title>Node52&#45;&gt;Node60</title>
<path fill="none" stroke="#191970" d="M847.6916,-56.3733C869.0711,-47.3032 901.3057,-33.6279 925.2362,-23.4755"/>
<polygon fill="#191970" stroke="#191970" points="926.7656,-26.6287 934.6045,-19.5011 924.0317,-20.1846 926.7656,-26.6287"/>
</g>
<!-- Node39 -->
<g id="node26" class="node">
<title>Node39</title>
<polygon fill="#ffffff" stroke="#bfbfbf" points="1819.5,-.5 1819.5,-19.5 1858.5,-19.5 1858.5,-.5 1819.5,-.5"/>
<text text-anchor="middle" x="1839" y="-7.5" font-family="Helvetica,sans-Serif" font-size="10.00" fill="#000000">limits</text>
</g>
<!-- Node52&#45;&gt;Node39 -->
<g id="edge34" class="edge">
<title>Node52&#45;&gt;Node39</title>
<path fill="none" stroke="#191970" d="M852.286,-65.8161C988.8844,-64.7326 1599.8298,-57.9199 1809.3526,-19.7458"/>
<polygon fill="#191970" stroke="#191970" points="1810.1527,-23.1564 1819.3199,-17.8449 1808.8412,-16.2804 1810.1527,-23.1564"/>
</g>
<!-- Node61 -->
<g id="node27" class="node">
<title>Node61</title>
<polygon fill="#ffffff" stroke="#bfbfbf" points="1006.5,-.5 1006.5,-19.5 1065.5,-19.5 1065.5,-.5 1006.5,-.5"/>
<text text-anchor="middle" x="1036" y="-7.5" font-family="Helvetica,sans-Serif" font-size="10.00" fill="#000000">exception</text>
</g>
<!-- Node52&#45;&gt;Node61 -->
<g id="edge35" class="edge">
<title>Node52&#45;&gt;Node61</title>
<path fill="none" stroke="#191970" d="M852.1526,-58.7936C888.7586,-49.0783 954.1947,-31.7114 996.3188,-20.5315"/>
<polygon fill="#191970" stroke="#191970" points="997.4663,-23.8482 1006.2338,-17.9 995.6706,-17.0824 997.4663,-23.8482"/>
</g>
<!-- Node30 -->
<g id="node28" class="node">
<title>Node30</title>
<polygon fill="#ffffff" stroke="#bfbfbf" points="1685.5,-.5 1685.5,-19.5 1744.5,-19.5 1744.5,-.5 1685.5,-.5"/>
<text text-anchor="middle" x="1715" y="-7.5" font-family="Helvetica,sans-Serif" font-size="10.00" fill="#000000">stdexcept</text>
</g>
<!-- Node52&#45;&gt;Node30 -->
<g id="edge36" class="edge">
<title>Node52&#45;&gt;Node30</title>
<path fill="none" stroke="#191970" d="M852.2122,-65.2761C976.6258,-61.8546 1492.7118,-46.419 1675.2598,-19.9534"/>
<polygon fill="#191970" stroke="#191970" points="1675.8875,-23.3983 1685.2507,-18.4405 1674.8394,-16.4772 1675.8875,-23.3983"/>
</g>
<!-- Node27 -->
<g id="node29" class="node">
<title>Node27</title>
<polygon fill="#ffffff" stroke="#bfbfbf" points="1762.5,-.5 1762.5,-19.5 1801.5,-19.5 1801.5,-.5 1762.5,-.5"/>
<text text-anchor="middle" x="1782" y="-7.5" font-family="Helvetica,sans-Serif" font-size="10.00" fill="#000000">array</text>
</g>
<!-- Node52&#45;&gt;Node27 -->
<g id="edge37" class="edge">
<title>Node52&#45;&gt;Node27</title>
<path fill="none" stroke="#191970" d="M852.0199,-65.7289C983.1506,-64.2534 1554.6261,-55.9507 1752.3483,-19.7513"/>
<polygon fill="#191970" stroke="#191970" points="1753.1575,-23.1599 1762.3185,-17.8377 1751.838,-16.2854 1753.1575,-23.1599"/>
</g>
<!-- Node62 -->
<g id="node30" class="node">
<title>Node62</title>
<polygon fill="#ffffff" stroke="#bfbfbf" points="1084,-.5 1084,-19.5 1152,-19.5 1152,-.5 1084,-.5"/>
<text text-anchor="middle" x="1118" y="-7.5" font-family="Helvetica,sans-Serif" font-size="10.00" fill="#000000">forward_list</text>
</g>
<!-- Node52&#45;&gt;Node62 -->
<g id="edge38" class="edge">
<title>Node52&#45;&gt;Node62</title>
<path fill="none" stroke="#191970" d="M852.3364,-61.3259C898.2456,-53.3921 993.6982,-36.5355 1074,-20 1074.1007,-19.9793 1074.2015,-19.9585 1074.3025,-19.9376"/>
<polygon fill="#191970" stroke="#191970" points="1074.8683,-23.3957 1083.92,-17.8897 1073.4103,-16.5492 1074.8683,-23.3957"/>
</g>
<!-- Node33 -->
<g id="node31" class="node">
<title>Node33</title>
<polygon fill="#ffffff" stroke="#bfbfbf" points="1170,-.5 1170,-19.5 1208,-19.5 1208,-.5 1170,-.5"/>
<text text-anchor="middle" x="1189" y="-7.5" font-family="Helvetica,sans-Serif" font-size="10.00" fill="#000000">tuple</text>
</g>
<!-- Node52&#45;&gt;Node33 -->
<g id="edge39" class="edge">
<title>Node52&#45;&gt;Node33</title>
<path fill="none" stroke="#191970" d="M852.3597,-64.1813C908.5125,-60.0412 1040.8239,-48.1915 1159.8731,-19.8477"/>
<polygon fill="#191970" stroke="#191970" points="1160.9881,-23.1787 1169.8799,-17.4179 1159.3364,-16.3763 1160.9881,-23.1787"/>
</g>
<!-- Node63 -->
<g id="node32" class="node">
<title>Node63</title>
<polygon fill="#ffffff" stroke="#bfbfbf" points="1226.5,-.5 1226.5,-19.5 1313.5,-19.5 1313.5,-.5 1226.5,-.5"/>
<text text-anchor="middle" x="1270" y="-7.5" font-family="Helvetica,sans-Serif" font-size="10.00" fill="#000000">unordered_map</text>
</g>
<!-- Node52&#45;&gt;Node63 -->
<g id="edge40" class="edge">
<title>Node52&#45;&gt;Node63</title>
<path fill="none" stroke="#191970" d="M852.1766,-63.4693C914.5293,-57.5228 1072.8567,-41.6273 1216.0838,-20.0454"/>
<polygon fill="#191970" stroke="#191970" points="1217.0082,-23.4451 1226.3685,-18.4817 1215.956,-16.5246 1217.0082,-23.4451"/>
</g>
<!-- Node64 -->
<g id="node33" class="node">
<title>Node64</title>
<polygon fill="#ffffff" stroke="#bfbfbf" points="1332,-.5 1332,-19.5 1384,-19.5 1384,-.5 1332,-.5"/>
<text text-anchor="middle" x="1358" y="-7.5" font-family="Helvetica,sans-Serif" font-size="10.00" fill="#000000">valarray</text>
</g>
<!-- Node52&#45;&gt;Node64 -->
<g id="edge41" class="edge">
<title>Node52&#45;&gt;Node64</title>
<path fill="none" stroke="#191970" d="M852.2362,-65.2624C926.3497,-62.8811 1137.8761,-53.5914 1321.9014,-19.8988"/>
<polygon fill="#191970" stroke="#191970" points="1322.5608,-23.3363 1331.7522,-18.0667 1321.2808,-16.4543 1322.5608,-23.3363"/>
</g>
<!-- Node11 -->
<g id="node34" class="node">
<title>Node11</title>
<polygon fill="#ffffff" stroke="#bfbfbf" points="1402,-.5 1402,-19.5 1448,-19.5 1448,-.5 1402,-.5"/>
<text text-anchor="middle" x="1425" y="-7.5" font-family="Helvetica,sans-Serif" font-size="10.00" fill="#000000">cstring</text>
</g>
<!-- Node52&#45;&gt;Node11 -->
<g id="edge42" class="edge">
<title>Node52&#45;&gt;Node11</title>
<path fill="none" stroke="#191970" d="M852.1701,-64.6016C947.769,-59.56 1269.0211,-41.5604 1391.8553,-19.7729"/>
<polygon fill="#191970" stroke="#191970" points="1392.548,-23.2042 1401.7349,-17.9267 1391.2621,-16.3233 1392.548,-23.2042"/>
</g>
<!-- Node65 -->
<g id="node35" class="node">
<title>Node65</title>
<polygon fill="#ffffff" stroke="#bfbfbf" points="1466.5,-.5 1466.5,-19.5 1515.5,-19.5 1515.5,-.5 1466.5,-.5"/>
<text text-anchor="middle" x="1491" y="-7.5" font-family="Helvetica,sans-Serif" font-size="10.00" fill="#000000">istream</text>
</g>
<!-- Node52&#45;&gt;Node65 -->
<g id="edge43" class="edge">
<title>Node52&#45;&gt;Node65</title>
<path fill="none" stroke="#191970" d="M852.2735,-64.7913C954.9537,-60.1235 1318.9212,-42.4911 1456.02,-19.7279"/>
<polygon fill="#191970" stroke="#191970" points="1457.016,-23.107 1466.2646,-17.9385 1455.8115,-16.2114 1457.016,-23.107"/>
</g>
<!-- Node66 -->
<g id="node36" class="node">
<title>Node66</title>
<polygon fill="#ffffff" stroke="#bfbfbf" points="1533.5,-.5 1533.5,-19.5 1576.5,-19.5 1576.5,-.5 1533.5,-.5"/>
<text text-anchor="middle" x="1555" y="-7.5" font-family="Helvetica,sans-Serif" font-size="10.00" fill="#000000">cstdio</text>
</g>
<!-- Node52&#45;&gt;Node66 -->
<g id="edge44" class="edge">
<title>Node52&#45;&gt;Node66</title>
<path fill="none" stroke="#191970" d="M852.1207,-65.1459C961.7983,-61.552 1373.4155,-46.6803 1523.308,-19.8469"/>
<polygon fill="#191970" stroke="#191970" points="1524.0405,-23.2705 1533.2189,-17.9782 1522.7435,-16.3917 1524.0405,-23.2705"/>
</g>
<!-- Node72&#45;&gt;Node3 -->
<g id="edge50" class="edge">
<title>Node72&#45;&gt;Node3</title>
<path fill="none" stroke="#191970" d="M394.2643,-62.1004C323.7311,-56.0936 190.5027,-42.9941 68.2728,-20.037"/>
<polygon fill="#191970" stroke="#191970" points="68.8464,-16.5834 58.368,-18.1502 67.5364,-23.4598 68.8464,-16.5834"/>
</g>
<!-- Node72&#45;&gt;Node9 -->
<g id="edge52" class="edge">
<title>Node72&#45;&gt;Node9</title>
<path fill="none" stroke="#191970" d="M394.4281,-57.8293C330.1866,-47.171 222.3978,-29.0299 181.8906,-19.6777"/>
<polygon fill="#191970" stroke="#191970" points="182.7054,-16.2738 172.1542,-17.2336 181.0011,-23.0631 182.7054,-16.2738"/>
</g>
<!-- Node72&#45;&gt;Node19 -->
<g id="edge47" class="edge">
<title>Node72&#45;&gt;Node19</title>
<path fill="none" stroke="#191970" d="M416.495,-56.3733C388.5213,-46.5825 345.2157,-31.4255 315.7891,-21.1262"/>
<polygon fill="#191970" stroke="#191970" points="316.6021,-17.7026 306.0073,-17.7026 314.2896,-24.3096 316.6021,-17.7026"/>
</g>
<!-- Node72&#45;&gt;Node10 -->
<g id="edge49" class="edge">
<title>Node72&#45;&gt;Node10</title>
<path fill="none" stroke="#191970" d="M402.5404,-56.4514C365.9017,-47.9155 310.7803,-34.8372 253.6422,-20.103"/>
<polygon fill="#191970" stroke="#191970" points="254.2668,-16.6494 243.7087,-17.5298 252.5114,-23.4257 254.2668,-16.6494"/>
</g>
<!-- Node72&#45;&gt;Node49 -->
<g id="edge46" class="edge">
<title>Node72&#45;&gt;Node49</title>
<path fill="none" stroke="#191970" d="M427.4523,-56.2455C412.7401,-47.5731 391.0112,-34.7645 374.1495,-24.825"/>
<polygon fill="#191970" stroke="#191970" points="375.7502,-21.7057 365.3581,-19.6427 372.1954,-27.736 375.7502,-21.7057"/>
</g>
<!-- Node72&#45;&gt;Node12 -->
<g id="edge48" class="edge">
<title>Node72&#45;&gt;Node12</title>
<path fill="none" stroke="#191970" d="M439.9937,-56.2455C436.9265,-48.7776 432.5997,-38.2427 428.8503,-29.1137"/>
<polygon fill="#191970" stroke="#191970" points="431.9972,-27.5631 424.9604,-19.6427 425.5221,-30.2226 431.9972,-27.5631"/>
</g>
<!-- Node72&#45;&gt;Node11 -->
<g id="edge51" class="edge">
<title>Node72&#45;&gt;Node11</title>
<path fill="none" stroke="#191970" d="M493.7264,-64.331C671.0401,-58.2807 1267.9219,-37.0337 1391.8479,-19.5855"/>
<polygon fill="#191970" stroke="#191970" points="1392.4225,-23.0383 1401.7516,-18.0166 1391.3271,-16.1245 1392.4225,-23.0383"/>
</g>
<!-- Node74&#45;&gt;Node48 -->
<g id="edge55" class="edge">
<title>Node74&#45;&gt;Node48</title>
<path fill="none" stroke="#191970" d="M404.7927,-168.3733C382.8301,-159.2629 349.6668,-145.5062 325.1599,-135.3404"/>
<polygon fill="#191970" stroke="#191970" points="326.4824,-132.0999 315.9045,-131.5011 323.8003,-138.5657 326.4824,-132.0999"/>
</g>
<!-- Node74&#45;&gt;Node72 -->
<g id="edge54" class="edge">
<title>Node74&#45;&gt;Node72</title>
<path fill="none" stroke="#191970" d="M429.3642,-168.4509C431.9737,-150.184 437.7207,-109.9553 441.1861,-85.6976"/>
<polygon fill="#191970" stroke="#191970" points="444.6898,-85.9194 442.6393,-75.5249 437.7602,-84.9294 444.6898,-85.9194"/>
</g>
<!-- Node84&#45;&gt;Node9 -->
<g id="edge58" class="edge">
<title>Node84&#45;&gt;Node9</title>
<path fill="none" stroke="#191970" d="M495.5001,-168.4862C434.058,-139.9717 251.3713,-55.1889 181.5513,-22.7862"/>
<polygon fill="#191970" stroke="#191970" points="182.641,-19.4334 172.0968,-18.3985 179.6942,-25.783 182.641,-19.4334"/>
</g>
<!-- Node84&#45;&gt;Node48 -->
<g id="edge65" class="edge">
<title>Node84&#45;&gt;Node48</title>
<path fill="none" stroke="#191970" d="M487.3032,-170.7936C450.2291,-161.4835 385.1743,-145.1469 340.6338,-133.9618"/>
<polygon fill="#191970" stroke="#191970" points="341.4523,-130.5588 330.9009,-131.5177 339.7473,-137.348 341.4523,-130.5588"/>
</g>
<!-- Node84&#45;&gt;Node57 -->
<g id="edge57" class="edge">
<title>Node84&#45;&gt;Node57</title>
<path fill="none" stroke="#191970" d="M515.0294,-168.4939C512.9044,-147.9407 507.5825,-97.842 502,-56 500.8396,-47.3023 499.4036,-37.7037 498.1349,-29.5347"/>
<polygon fill="#191970" stroke="#191970" points="501.5673,-28.8317 496.55,-19.5002 494.653,-29.9238 501.5673,-28.8317"/>
</g>
<!-- Node25 -->
<g id="node40" class="node">
<title>Node25</title>
<g id="a_node40"><a xlink:href="../../d6/d99/geometry3d_8hpp.html" target="_top" xlink:title="Simple classes and functions to work with the 3D vectors and matrices of the crystal lattice...">
<polygon fill="#ffffff" stroke="#ff0000" points="1380.5,-56.5 1380.5,-75.5 1469.5,-75.5 1469.5,-56.5 1380.5,-56.5"/>
<text text-anchor="middle" x="1425" y="-63.5" font-family="Helvetica,sans-Serif" font-size="10.00" fill="#000000">geometry3d.hpp</text>
</a>
</g>
</g>
<!-- Node84&#45;&gt;Node25 -->
<g id="edge59" class="edge">
<title>Node84&#45;&gt;Node25</title>
<path fill="none" stroke="#191970" d="M521.8644,-168.1672C531.5618,-152.9524 552.5248,-124.1897 579,-112 650.5182,-79.0716 1194.1903,-69.0462 1370.2011,-66.6469"/>
<polygon fill="#191970" stroke="#191970" points="1370.323,-70.1457 1380.2753,-66.5125 1370.2295,-63.1463 1370.323,-70.1457"/>
</g>
<!-- Node25&#45;&gt;Node19 -->
<g id="edge61" class="edge">
<title>Node25&#45;&gt;Node19</title>
<path fill="none" stroke="#191970" d="M1380.3522,-64.8633C1191.2037,-59.9535 459.4658,-39.9768 316.1506,-19.5427"/>
<polygon fill="#191970" stroke="#191970" points="316.5952,-16.0694 306.1678,-17.9449 315.4889,-22.9814 316.5952,-16.0694"/>
</g>
<!-- Node25&#45;&gt;Node29 -->
<g id="edge63" class="edge">
<title>Node25&#45;&gt;Node29</title>
<path fill="none" stroke="#191970" d="M1460.4127,-56.3733C1495.2605,-46.9001 1548.5882,-32.4032 1586.3293,-22.1435"/>
<polygon fill="#191970" stroke="#191970" points="1587.3178,-25.5019 1596.0494,-19.5011 1585.4815,-18.747 1587.3178,-25.5019"/>
</g>
<!-- Node25&#45;&gt;Node30 -->
<g id="edge64" class="edge">
<title>Node25&#45;&gt;Node30</title>
<path fill="none" stroke="#191970" d="M1469.819,-58.8866C1518.2987,-50.955 1598.0575,-37.2198 1675.289,-20.2703"/>
<polygon fill="#191970" stroke="#191970" points="1676.1761,-23.6587 1685.182,-18.0781 1674.6616,-16.8245 1676.1761,-23.6587"/>
</g>
<!-- Node25&#45;&gt;Node27 -->
<g id="edge60" class="edge">
<title>Node25&#45;&gt;Node27</title>
<path fill="none" stroke="#191970" d="M1469.7134,-62.6599C1531.5849,-57.4035 1646.7824,-45.3285 1752.4057,-20.0196"/>
<polygon fill="#191970" stroke="#191970" points="1753.3842,-23.3835 1762.268,-17.6104 1751.723,-16.5835 1753.3842,-23.3835"/>
</g>
<!-- Node25&#45;&gt;Node11 -->
<g id="edge62" class="edge">
<title>Node25&#45;&gt;Node11</title>
<path fill="none" stroke="#191970" d="M1425,-56.2455C1425,-48.9382 1425,-38.6944 1425,-29.7046"/>
<polygon fill="#191970" stroke="#191970" points="1428.5001,-29.6426 1425,-19.6427 1421.5001,-29.6427 1428.5001,-29.6426"/>
</g>
<!-- Node104&#45;&gt;Node27 -->
<g id="edge67" class="edge">
<title>Node104&#45;&gt;Node27</title>
<path fill="none" stroke="#191970" d="M697.5994,-120.0387C858.1579,-114.1058 1326.9901,-95.5533 1479,-76 1599.4494,-60.5064 1632.147,-53.8583 1752.2718,-20.2452"/>
<polygon fill="#191970" stroke="#191970" points="1753.5431,-23.5239 1762.2271,-17.4543 1751.6535,-16.7837 1753.5431,-23.5239"/>
</g>
<!-- Node113&#45;&gt;Node84 -->
<g id="edge73" class="edge">
<title>Node113&#45;&gt;Node84</title>
<path fill="none" stroke="#191970" d="M844.9557,-280.0696C832.3584,-265.2592 806.4557,-237.666 778,-224 739.157,-205.3454 617.7246,-189.4444 554.7499,-182.195"/>
<polygon fill="#191970" stroke="#191970" points="555.1313,-178.7159 544.8004,-181.0657 554.3418,-185.6712 555.1313,-178.7159"/>
</g>
<!-- Node113&#45;&gt;Node25 -->
<g id="edge71" class="edge">
<title>Node113&#45;&gt;Node25</title>
<path fill="none" stroke="#191970" d="M850.7674,-280.2102C848.1627,-266.0769 845.7437,-239.9115 859,-224 925.2034,-144.5363 1241.593,-91.8329 1370.3303,-73.3482"/>
<polygon fill="#191970" stroke="#191970" points="1370.9597,-76.794 1380.3678,-71.9218 1369.9748,-69.8636 1370.9597,-76.794"/>
</g>
<!-- Node114 -->
<g id="node43" class="node">
<title>Node114</title>
<polygon fill="#ffffff" stroke="#bfbfbf" points="868,-224.5 868,-243.5 948,-243.5 948,-224.5 868,-224.5"/>
<text text-anchor="middle" x="908" y="-231.5" font-family="Helvetica,sans-Serif" font-size="10.00" fill="#000000">spglib/spglib.h</text>
</g>
<!-- Node113&#45;&gt;Node114 -->
<g id="edge70" class="edge">
<title>Node113&#45;&gt;Node114</title>
<path fill="none" stroke="#191970" d="M862.5803,-280.2455C870.5458,-272.1352 882.0641,-260.4075 891.5079,-250.7919"/>
<polygon fill="#191970" stroke="#191970" points="894.0195,-253.2297 898.5295,-243.6427 889.0253,-248.3247 894.0195,-253.2297"/>
</g>
<!-- Node36 -->
<g id="node44" class="node">
<title>Node36</title>
<g id="a_node44"><a xlink:href="../../d3/dad/constants_8hpp.html" target="_top" xlink:title="Various constants. ">
<polygon fill="#ffffff" stroke="#ff0000" points="966.5,-224.5 966.5,-243.5 1045.5,-243.5 1045.5,-224.5 966.5,-224.5"/>
<text text-anchor="middle" x="1006" y="-231.5" font-family="Helvetica,sans-Serif" font-size="10.00" fill="#000000">constants.hpp</text>
</a>
</g>
</g>
<!-- Node113&#45;&gt;Node36 -->
<g id="edge72" class="edge">
<title>Node113&#45;&gt;Node36</title>
<path fill="none" stroke="#191970" d="M879.3016,-280.3733C904.4128,-271.1822 942.4438,-257.2624 970.2872,-247.0713"/>
<polygon fill="#191970" stroke="#191970" points="971.8538,-250.2251 980.0416,-243.5011 969.4478,-243.6516 971.8538,-250.2251"/>
</g>
<!-- Node37 -->
<g id="node46" class="node">
<title>Node37</title>
<g id="a_node46"><a xlink:href="../../de/df7/typedefs_8hpp.html" target="_top" xlink:title="Contains typedefs, enums and simple descriptors. ">
<polygon fill="#ffffff" stroke="#ff0000" points="1379,-168.5 1379,-187.5 1453,-187.5 1453,-168.5 1379,-168.5"/>
<text text-anchor="middle" x="1416" y="-175.5" font-family="Helvetica,sans-Serif" font-size="10.00" fill="#000000">typedefs.hpp</text>
</a>
</g>
</g>
<!-- Node43&#45;&gt;Node37 -->
<g id="edge75" class="edge">
<title>Node43&#45;&gt;Node37</title>
<path fill="none" stroke="#191970" d="M996.6636,-336.3556C1016.9149,-322.4034 1056.4479,-296.4614 1093,-280 1187.413,-237.4806 1304.756,-205.1972 1368.8204,-189.1842"/>
<polygon fill="#191970" stroke="#191970" points="1369.7674,-192.5555 1378.6332,-186.7548 1368.0851,-185.7606 1369.7674,-192.5555"/>
</g>
<!-- Node44 -->
<g id="node47" class="node">
<title>Node44</title>
<g id="a_node47"><a xlink:href="../../dd/d46/input_8hpp.html" target="_top" xlink:title="Contains input parameters structures. ">
<polygon fill="#ffffff" stroke="#000000" points="954,-280.5 954,-299.5 1012,-299.5 1012,-280.5 954,-280.5"/>
<text text-anchor="middle" x="983" y="-287.5" font-family="Helvetica,sans-Serif" font-size="10.00" fill="#000000">input.hpp</text>
</a>
</g>
</g>
<!-- Node43&#45;&gt;Node44 -->
<g id="edge77" class="edge">
<title>Node43&#45;&gt;Node44</title>
<path fill="none" stroke="#191970" d="M983,-336.2455C983,-328.9382 983,-318.6944 983,-309.7046"/>
<polygon fill="#191970" stroke="#191970" points="986.5001,-309.6426 983,-299.6427 979.5001,-309.6427 986.5001,-309.6426"/>
</g>
<!-- Node100 -->
<g id="node48" class="node">
<title>Node100</title>
<g id="a_node48"><a xlink:href="../../d7/dfb/runtime__options__json_8hpp_source.html" target="_top" xlink:title="runtime_options_json.hpp">
<polygon fill="#ffffff" stroke="#000000" points="1102.5,-280.5 1102.5,-299.5 1233.5,-299.5 1233.5,-280.5 1102.5,-280.5"/>
<text text-anchor="middle" x="1168" y="-287.5" font-family="Helvetica,sans-Serif" font-size="10.00" fill="#000000">runtime_options_json.hpp</text>
</a>
</g>
</g>
<!-- Node43&#45;&gt;Node100 -->
<g id="edge80" class="edge">
<title>Node43&#45;&gt;Node100</title>
<path fill="none" stroke="#191970" d="M1014.8026,-336.3733C1045.8317,-326.9807 1093.1754,-312.6496 1127.0147,-302.4064"/>
<polygon fill="#191970" stroke="#191970" points="1128.0553,-305.7483 1136.6124,-299.5011 1126.0272,-299.0485 1128.0553,-305.7483"/>
</g>
<!-- Node37&#45;&gt;Node39 -->
<g id="edge76" class="edge">
<title>Node37&#45;&gt;Node39</title>
<path fill="none" stroke="#191970" d="M1439.9543,-168.4862C1512.694,-139.5967 1730.86,-52.9492 1809.9558,-21.5353"/>
<polygon fill="#191970" stroke="#191970" points="1811.3172,-24.7606 1819.3191,-17.8165 1808.7333,-18.2549 1811.3172,-24.7606"/>
</g>
<!-- Node44&#45;&gt;Node45 -->
<g id="edge79" class="edge">
<title>Node44&#45;&gt;Node45</title>
<path fill="none" stroke="#191970" d="M953.7758,-284.6156C944.015,-282.9546 933.062,-281.2387 923,-280 721.7771,-255.2283 479.2178,-240.8685 386.5421,-235.9447"/>
<polygon fill="#191970" stroke="#191970" points="386.6758,-232.447 376.5059,-235.4174 386.3084,-239.4373 386.6758,-232.447"/>
</g>
<!-- Node44&#45;&gt;Node36 -->
<g id="edge78" class="edge">
<title>Node44&#45;&gt;Node36</title>
<path fill="none" stroke="#191970" d="M987.0063,-280.2455C990.0735,-272.7776 994.4003,-262.2427 998.1497,-253.1137"/>
<polygon fill="#191970" stroke="#191970" points="1001.4779,-254.2226 1002.0396,-243.6427 995.0028,-251.5631 1001.4779,-254.2226"/>
</g>
<!-- Node116 -->
<g id="node50" class="node">
<title>Node116</title>
<polygon fill="#ffffff" stroke="#bfbfbf" points="1069.5,-336.5 1069.5,-355.5 1170.5,-355.5 1170.5,-336.5 1069.5,-336.5"/>
<text text-anchor="middle" x="1120" y="-343.5" font-family="Helvetica,sans-Serif" font-size="10.00" fill="#000000">gsl/gsl_sf_bessel.h</text>
</g>
<!-- Node115&#45;&gt;Node116 -->
<g id="edge83" class="edge">
<title>Node115&#45;&gt;Node116</title>
<path fill="none" stroke="#191970" d="M1009.0354,-392.3733C1030.7388,-383.3032 1063.4618,-369.6279 1087.755,-359.4755"/>
<polygon fill="#191970" stroke="#191970" points="1089.3881,-362.5865 1097.2652,-355.5011 1086.6889,-356.1278 1089.3881,-362.5865"/>
</g>
</g>
</svg>
