<?xml version="1.0" encoding="UTF-8" standalone="no"?>
<!DOCTYPE svg PUBLIC "-//W3C//DTD SVG 1.1//EN"
 "http://www.w3.org/Graphics/SVG/1.1/DTD/svg11.dtd">
<!-- Generated by graphviz version 2.40.1 (20161225.0304)
 -->
<!-- Title: sddk::mdarray&lt; T, N &gt; Pages: 1 -->
<svg width="214pt" height="151pt"
 viewBox="0.00 0.00 214.00 151.00" xmlns="http://www.w3.org/2000/svg" xmlns:xlink="http://www.w3.org/1999/xlink">
<g id="graph0" class="graph" transform="scale(1 1) rotate(0) translate(4 147)">
<title>sddk::mdarray&lt; T, N &gt;</title>
<polygon fill="#ffffff" stroke="transparent" points="-4,4 -4,-147 210,-147 210,4 -4,4"/>
<!-- Node0 -->
<g id="node1" class="node">
<title>Node0</title>
<polygon fill="#bfbfbf" stroke="#000000" points="65,-56.5 65,-75.5 156,-75.5 156,-56.5 65,-56.5"/>
<text text-anchor="middle" x="110.5" y="-63.5" font-family="Helvetica,sans-Serif" font-size="10.00" fill="#000000">sddk::mdarray&lt; T, N &gt;</text>
</g>
<!-- Node2 -->
<g id="node3" class="node">
<title>Node2</title>
<g id="a_node3"><a xlink:href="../../dc/deb/classsddk_1_1dmatrix.html" target="_top" xlink:title="dmatrix\&lt; double_complex \&gt;">
<polygon fill="#ffffff" stroke="#000000" points="0,-.5 0,-19.5 109,-19.5 109,-.5 0,-.5"/>
<text text-anchor="middle" x="54.5" y="-7.5" font-family="Helvetica,sans-Serif" font-size="10.00" fill="#000000">dmatrix&lt; double_complex &gt;</text>
</a>
</g>
</g>
<!-- Node0&#45;&gt;Node2 -->
<g id="edge2" class="edge">
<title>Node0&#45;&gt;Node2</title>
<path fill="none" stroke="#191970" d="M93.5751,-49.0751C83.9402,-39.4402 72.2196,-27.7196 64.1427,-19.6427"/>
<polygon fill="#191970" stroke="#191970" points="91.1996,-51.6493 100.7455,-56.2455 96.1493,-46.6996 91.1996,-51.6493"/>
</g>
<!-- Node3 -->
<g id="node4" class="node">
<title>Node3</title>
<g id="a_node4"><a xlink:href="../../dc/deb/classsddk_1_1dmatrix.html" target="_top" xlink:title="Distributed matrix. ">
<polygon fill="#ffffff" stroke="#000000" points="127,-.5 127,-19.5 206,-19.5 206,-.5 127,-.5"/>
<text text-anchor="middle" x="166.5" y="-7.5" font-family="Helvetica,sans-Serif" font-size="10.00" fill="#000000">sddk::dmatrix&lt; T &gt;</text>
</a>
</g>
</g>
<!-- Node0&#45;&gt;Node3 -->
<g id="edge3" class="edge">
<title>Node0&#45;&gt;Node3</title>
<path fill="none" stroke="#191970" d="M127.4249,-49.0751C137.0598,-39.4402 148.7804,-27.7196 156.8573,-19.6427"/>
<polygon fill="#191970" stroke="#191970" points="124.8507,-46.6996 120.2545,-56.2455 129.8004,-51.6493 124.8507,-46.6996"/>
</g>
<!-- Node1 -->
<g id="node2" class="node">
<title>Node1</title>
<g id="a_node2"><a xlink:href="../../d0/d58/classsddk_1_1mdarray__base.html" target="_top" xlink:title="Base class of multidimensional array. ">
<polygon fill="#ffffff" stroke="#000000" points="68.5,-112.5 68.5,-142.5 152.5,-142.5 152.5,-112.5 68.5,-112.5"/>
<text text-anchor="start" x="76.5" y="-130.5" font-family="Helvetica,sans-Serif" font-size="10.00" fill="#000000">sddk::mdarray_base</text>
<text text-anchor="middle" x="110.5" y="-119.5" font-family="Helvetica,sans-Serif" font-size="10.00" fill="#000000">&lt; T, N &gt;</text>
</a>
</g>
</g>
<!-- Node1&#45;&gt;Node0 -->
<g id="edge1" class="edge">
<title>Node1&#45;&gt;Node0</title>
<path fill="none" stroke="#191970" d="M110.5,-102.2849C110.5,-92.9858 110.5,-82.9883 110.5,-75.8469"/>
<polygon fill="#191970" stroke="#191970" points="107.0001,-102.2977 110.5,-112.2977 114.0001,-102.2978 107.0001,-102.2977"/>
</g>
</g>
</svg>
