<?xml version="1.0" encoding="UTF-8" standalone="no"?>
<!DOCTYPE svg PUBLIC "-//W3C//DTD SVG 1.1//EN"
 "http://www.w3.org/Graphics/SVG/1.1/DTD/svg11.dtd">
<!-- Generated by graphviz version 2.40.1 (20161225.0304)
 -->
<!-- Title: fft3d.hpp Pages: 1 -->
<!--zoomable 308 -->
<svg id="main" version="1.1" xmlns="http://www.w3.org/2000/svg" xmlns:xlink="http://www.w3.org/1999/xlink" xml:space="preserve" onload="init(evt)">
<style type="text/css"><![CDATA[
.edge:hover path { stroke: red; }
.edge:hover polygon { stroke: red; fill: red; }
]]></style>
<script type="text/javascript"><![CDATA[
var edges = document.getElementsByTagName('g');
if (edges && edges.length) {
  for (var i=0;i<edges.length;i++) {
    if (edges[i].id.substr(0,4)=='edge') {
      edges[i].setAttribute('class','edge');
    }
  }
}
]]></script>
        <defs>
                <circle id="rim" cx="0" cy="0" r="7"/>
                <circle id="rim2" cx="0" cy="0" r="3.5"/>
                <g id="zoomPlus">
                        <use xlink:href="#rim" fill="#404040">
                                <set attributeName="fill" to="#808080" begin="zoomplus.mouseover" end="zoomplus.mouseout"/>
                        </use>
                        <path d="M-4,0h8M0,-4v8" fill="none" stroke="white" stroke-width="1.5" pointer-events="none"/>
                </g>
                <g id="zoomMin">
                        <use xlink:href="#rim" fill="#404040">
                                <set attributeName="fill" to="#808080" begin="zoomminus.mouseover" end="zoomminus.mouseout"/>
                        </use>
                        <path d="M-4,0h8" fill="none" stroke="white" stroke-width="1.5" pointer-events="none"/>
                </g>
                <g id="dirArrow">
                        <path fill="none" stroke="white" stroke-width="1.5" d="M0,-3.0v7 M-2.5,-0.5L0,-3.0L2.5,-0.5"/>
                </g>
               <g id="resetDef">
                       <use xlink:href="#rim2" fill="#404040">
                               <set attributeName="fill" to="#808080" begin="reset.mouseover" end="reset.mouseout"/>
                       </use>
               </g>
        </defs>

<script type="text/javascript">
var viewWidth = 908;
var viewHeight = 308;
var sectionId = 'dynsection-0';
</script>
<script xlink:href="../../svgpan.js"/>
<svg id="graph" class="graph">
<g id="viewport">
<title>fft3d.hpp</title>
<polygon fill="#ffffff" stroke="transparent" points="-4,4 -4,-304 903.6,-304 903.6,4 -4,4"/>
<!-- Node0 -->
<g id="node1" class="node">
<title>Node0</title>
<polygon fill="#bfbfbf" stroke="#000000" points="308,-280.5 308,-299.5 363,-299.5 363,-280.5 308,-280.5"/>
<text text-anchor="middle" x="335.5" y="-287.5" font-family="Helvetica,sans-Serif" font-size="10.00" fill="#000000">fft3d.hpp</text>
</g>
<!-- Node1 -->
<g id="node2" class="node">
<title>Node1</title>
<polygon fill="#ffffff" stroke="#bfbfbf" points="31.5,-224.5 31.5,-243.5 77.5,-243.5 77.5,-224.5 31.5,-224.5"/>
<text text-anchor="middle" x="54.5" y="-231.5" font-family="Helvetica,sans-Serif" font-size="10.00" fill="#000000">fftw3.h</text>
</g>
<!-- Node0&#45;&gt;Node1 -->
<g id="edge1" class="edge">
<title>Node0&#45;&gt;Node1</title>
<path fill="none" stroke="#191970" d="M307.9115,-285.5173C262.5454,-277.9854 169.4458,-261.8522 91.5,-244 90.223,-243.7075 88.9237,-243.4009 87.6129,-243.084"/>
<polygon fill="#191970" stroke="#191970" points="88.0774,-239.5908 77.5233,-240.519 86.3526,-246.3751 88.0774,-239.5908"/>
</g>
<!-- Node2 -->
<g id="node3" class="node">
<title>Node2</title>
<g id="a_node3"><a xlink:href="../../d6/d99/geometry3d_8hpp.html" target="_top" xlink:title="Simple classes and functions to work with the 3D vectors and matrices of the crystal lattice...">
<polygon fill="#ffffff" stroke="#000000" points="341,-168.5 341,-187.5 430,-187.5 430,-168.5 341,-168.5"/>
<text text-anchor="middle" x="385.5" y="-175.5" font-family="Helvetica,sans-Serif" font-size="10.00" fill="#000000">geometry3d.hpp</text>
</a>
</g>
</g>
<!-- Node0&#45;&gt;Node2 -->
<g id="edge2" class="edge">
<title>Node0&#45;&gt;Node2</title>
<path fill="none" stroke="#191970" d="M339.763,-280.4509C348.0286,-261.936 366.3665,-220.8591 377.1434,-196.7187"/>
<polygon fill="#191970" stroke="#191970" points="380.3672,-198.0831 381.2478,-187.5249 373.9753,-195.2295 380.3672,-198.0831"/>
</g>
<!-- Node12 -->
<g id="node13" class="node">
<title>Node12</title>
<g id="a_node13"><a xlink:href="../../db/d5f/fft3d__grid_8hpp.html" target="_top" xlink:title="Contains declaration and implementation of sddk::FFT3D_grid class. ">
<polygon fill="#ffffff" stroke="#000000" points="448.5,-168.5 448.5,-187.5 526.5,-187.5 526.5,-168.5 448.5,-168.5"/>
<text text-anchor="middle" x="487.5" y="-175.5" font-family="Helvetica,sans-Serif" font-size="10.00" fill="#000000">fft3d_grid.hpp</text>
</a>
</g>
</g>
<!-- Node0&#45;&gt;Node12 -->
<g id="edge12" class="edge">
<title>Node0&#45;&gt;Node12</title>
<path fill="none" stroke="#191970" d="M348.4594,-280.4509C374.7086,-261.1094 434.3726,-217.1465 466.3416,-193.5904"/>
<polygon fill="#191970" stroke="#191970" points="468.599,-196.2746 474.5734,-187.5249 464.4466,-190.6392 468.599,-196.2746"/>
</g>
<!-- Node13 -->
<g id="node14" class="node">
<title>Node13</title>
<g id="a_node14"><a xlink:href="../../d6/dd8/gvec_8hpp.html" target="_top" xlink:title="Declaration and implementation of Gvec class. ">
<polygon fill="#ffffff" stroke="#000000" points="554,-224.5 554,-243.5 611,-243.5 611,-224.5 554,-224.5"/>
<text text-anchor="middle" x="582.5" y="-231.5" font-family="Helvetica,sans-Serif" font-size="10.00" fill="#000000">gvec.hpp</text>
</a>
</g>
</g>
<!-- Node0&#45;&gt;Node13 -->
<g id="edge13" class="edge">
<title>Node0&#45;&gt;Node13</title>
<path fill="none" stroke="#191970" d="M363.3539,-283.6849C407.6166,-273.6497 494.1137,-254.039 544.1838,-242.6871"/>
<polygon fill="#191970" stroke="#191970" points="545.0093,-246.0888 553.9879,-240.4643 543.4615,-239.2621 545.0093,-246.0888"/>
</g>
<!-- Node31 -->
<g id="node32" class="node">
<title>Node31</title>
<g id="a_node32"><a xlink:href="../../d8/d8d/cufft_8hpp.html" target="_top" xlink:title="Interface to cuFFT related functions. ">
<polygon fill="#ffffff" stroke="#000000" points="36,-112.5 36,-131.5 115,-131.5 115,-112.5 36,-112.5"/>
<text text-anchor="middle" x="75.5" y="-119.5" font-family="Helvetica,sans-Serif" font-size="10.00" fill="#000000">GPU/cufft.hpp</text>
</a>
</g>
</g>
<!-- Node0&#45;&gt;Node31 -->
<g id="edge37" class="edge">
<title>Node0&#45;&gt;Node31</title>
<path fill="none" stroke="#191970" d="M307.7571,-287.2145C273.8801,-282.7168 215.9791,-271.3956 174.5,-244 133.3495,-216.8214 100.9447,-167.1818 85.4572,-140.3627"/>
<polygon fill="#191970" stroke="#191970" points="88.4822,-138.6013 80.5318,-131.5983 82.3798,-142.0307 88.4822,-138.6013"/>
</g>
<!-- Node33 -->
<g id="node34" class="node">
<title>Node33</title>
<g id="a_node34"><a xlink:href="../../dc/dac/fft__kernels_8hpp.html" target="_top" xlink:title="Contains definition of CUDA kernels necessary for a FFT driver. ">
<polygon fill="#ffffff" stroke="#000000" points="183,-224.5 183,-243.5 290,-243.5 290,-224.5 183,-224.5"/>
<text text-anchor="middle" x="236.5" y="-231.5" font-family="Helvetica,sans-Serif" font-size="10.00" fill="#000000">GPU/fft_kernels.hpp</text>
</a>
</g>
</g>
<!-- Node0&#45;&gt;Node33 -->
<g id="edge42" class="edge">
<title>Node0&#45;&gt;Node33</title>
<path fill="none" stroke="#191970" d="M318.2555,-280.2455C302.9239,-271.5731 280.2801,-258.7645 262.7084,-248.825"/>
<polygon fill="#191970" stroke="#191970" points="263.9741,-245.5198 253.5469,-243.6427 260.5276,-251.6126 263.9741,-245.5198"/>
</g>
<!-- Node3 -->
<g id="node4" class="node">
<title>Node3</title>
<polygon fill="#ffffff" stroke="#bfbfbf" points="633.5,-.5 633.5,-19.5 685.5,-19.5 685.5,-.5 633.5,-.5"/>
<text text-anchor="middle" x="659.5" y="-7.5" font-family="Helvetica,sans-Serif" font-size="10.00" fill="#000000">assert.h</text>
</g>
<!-- Node2&#45;&gt;Node3 -->
<g id="edge3" class="edge">
<title>Node2&#45;&gt;Node3</title>
<path fill="none" stroke="#191970" d="M430.2774,-169.6412C433.3974,-169.0793 436.4949,-168.5275 439.5,-168 487.6453,-159.5492 624.4345,-168.8942 656.5,-132 681.1751,-103.6092 673.0681,-55.9201 665.7809,-29.3548"/>
<polygon fill="#191970" stroke="#191970" points="669.1098,-28.2698 662.9034,-19.6831 662.4004,-30.266 669.1098,-28.2698"/>
</g>
<!-- Node4 -->
<g id="node5" class="node">
<title>Node4</title>
<polygon fill="#ffffff" stroke="#bfbfbf" points="171.5,-112.5 171.5,-131.5 215.5,-131.5 215.5,-112.5 171.5,-112.5"/>
<text text-anchor="middle" x="193.5" y="-119.5" font-family="Helvetica,sans-Serif" font-size="10.00" fill="#000000">cmath</text>
</g>
<!-- Node2&#45;&gt;Node4 -->
<g id="edge4" class="edge">
<title>Node2&#45;&gt;Node4</title>
<path fill="none" stroke="#191970" d="M351.4125,-168.4444C318.9748,-159.2935 268.826,-144.9959 225.5,-132 225.399,-131.9697 225.2977,-131.9393 225.1963,-131.9089"/>
<polygon fill="#191970" stroke="#191970" points="226.0998,-128.5253 215.5136,-128.952 224.0554,-135.2201 226.0998,-128.5253"/>
</g>
<!-- Node5 -->
<g id="node6" class="node">
<title>Node5</title>
<polygon fill="#ffffff" stroke="#bfbfbf" points="234,-112.5 234,-131.5 273,-131.5 273,-112.5 234,-112.5"/>
<text text-anchor="middle" x="253.5" y="-119.5" font-family="Helvetica,sans-Serif" font-size="10.00" fill="#000000">array</text>
</g>
<!-- Node2&#45;&gt;Node5 -->
<g id="edge5" class="edge">
<title>Node2&#45;&gt;Node5</title>
<path fill="none" stroke="#191970" d="M362.8084,-168.3733C340.6515,-158.9734 306.8356,-144.6272 282.687,-134.3824"/>
<polygon fill="#191970" stroke="#191970" points="283.8847,-131.0886 273.3119,-130.4051 281.1508,-137.5327 283.8847,-131.0886"/>
</g>
<!-- Node6 -->
<g id="node7" class="node">
<title>Node6</title>
<polygon fill="#ffffff" stroke="#bfbfbf" points="792.5,-.5 792.5,-19.5 836.5,-19.5 836.5,-.5 792.5,-.5"/>
<text text-anchor="middle" x="814.5" y="-7.5" font-family="Helvetica,sans-Serif" font-size="10.00" fill="#000000">vector</text>
</g>
<!-- Node2&#45;&gt;Node6 -->
<g id="edge6" class="edge">
<title>Node2&#45;&gt;Node6</title>
<path fill="none" stroke="#191970" d="M430.2398,-169.4026C433.3687,-168.8975 436.4785,-168.4236 439.5,-168 605.7496,-144.6935 658.3306,-190.9908 815.5,-132 860.8149,-114.9918 917.6235,-97.9616 893.5,-56 883.3831,-38.4021 863.6564,-26.9064 846.4473,-19.808"/>
<polygon fill="#191970" stroke="#191970" points="847.2891,-16.3846 836.6974,-16.1238 844.8147,-22.9327 847.2891,-16.3846"/>
</g>
<!-- Node7 -->
<g id="node8" class="node">
<title>Node7</title>
<polygon fill="#ffffff" stroke="#bfbfbf" points="291,-112.5 291,-131.5 344,-131.5 344,-112.5 291,-112.5"/>
<text text-anchor="middle" x="317.5" y="-119.5" font-family="Helvetica,sans-Serif" font-size="10.00" fill="#000000">ostream</text>
</g>
<!-- Node2&#45;&gt;Node7 -->
<g id="edge7" class="edge">
<title>Node2&#45;&gt;Node7</title>
<path fill="none" stroke="#191970" d="M373.6553,-168.2455C363.612,-159.9746 349.0005,-147.9416 337.1996,-138.2232"/>
<polygon fill="#191970" stroke="#191970" points="339.1533,-135.298 329.209,-131.6427 334.7033,-140.7015 339.1533,-135.298"/>
</g>
<!-- Node8 -->
<g id="node9" class="node">
<title>Node8</title>
<polygon fill="#ffffff" stroke="#bfbfbf" points="362.5,-112.5 362.5,-131.5 408.5,-131.5 408.5,-112.5 362.5,-112.5"/>
<text text-anchor="middle" x="385.5" y="-119.5" font-family="Helvetica,sans-Serif" font-size="10.00" fill="#000000">cstring</text>
</g>
<!-- Node2&#45;&gt;Node8 -->
<g id="edge8" class="edge">
<title>Node2&#45;&gt;Node8</title>
<path fill="none" stroke="#191970" d="M385.5,-168.2455C385.5,-160.9382 385.5,-150.6944 385.5,-141.7046"/>
<polygon fill="#191970" stroke="#191970" points="389.0001,-141.6426 385.5,-131.6427 382.0001,-141.6427 389.0001,-141.6426"/>
</g>
<!-- Node9 -->
<g id="node10" class="node">
<title>Node9</title>
<polygon fill="#ffffff" stroke="#bfbfbf" points="427,-112.5 427,-131.5 500,-131.5 500,-112.5 427,-112.5"/>
<text text-anchor="middle" x="463.5" y="-119.5" font-family="Helvetica,sans-Serif" font-size="10.00" fill="#000000">initializer_list</text>
</g>
<!-- Node2&#45;&gt;Node9 -->
<g id="edge9" class="edge">
<title>Node2&#45;&gt;Node9</title>
<path fill="none" stroke="#191970" d="M399.0866,-168.2455C410.8305,-159.814 428.0199,-147.4729 441.6882,-137.6598"/>
<polygon fill="#191970" stroke="#191970" points="443.9871,-140.3179 450.0691,-131.6427 439.9046,-134.6316 443.9871,-140.3179"/>
</g>
<!-- Node10 -->
<g id="node11" class="node">
<title>Node10</title>
<polygon fill="#ffffff" stroke="#bfbfbf" points="518,-112.5 518,-131.5 577,-131.5 577,-112.5 518,-112.5"/>
<text text-anchor="middle" x="547.5" y="-119.5" font-family="Helvetica,sans-Serif" font-size="10.00" fill="#000000">stdexcept</text>
</g>
<!-- Node2&#45;&gt;Node10 -->
<g id="edge10" class="edge">
<title>Node2&#45;&gt;Node10</title>
<path fill="none" stroke="#191970" d="M413.3488,-168.3733C440.1703,-159.1016 480.9127,-145.0178 510.4598,-134.804"/>
<polygon fill="#191970" stroke="#191970" points="511.7069,-138.0762 520.0146,-131.5011 509.4198,-131.4603 511.7069,-138.0762"/>
</g>
<!-- Node11 -->
<g id="node12" class="node">
<title>Node11</title>
<polygon fill="#ffffff" stroke="#bfbfbf" points="595.5,-112.5 595.5,-131.5 647.5,-131.5 647.5,-112.5 595.5,-112.5"/>
<text text-anchor="middle" x="621.5" y="-119.5" font-family="Helvetica,sans-Serif" font-size="10.00" fill="#000000">sstream</text>
</g>
<!-- Node2&#45;&gt;Node11 -->
<g id="edge11" class="edge">
<title>Node2&#45;&gt;Node11</title>
<path fill="none" stroke="#191970" d="M430.3714,-168.4489C469.0615,-160.0523 526.6382,-147.1744 585.354,-132.2052"/>
<polygon fill="#191970" stroke="#191970" points="586.3519,-135.5626 595.1677,-129.6862 584.6115,-128.7824 586.3519,-135.5626"/>
</g>
<!-- Node13&#45;&gt;Node2 -->
<g id="edge18" class="edge">
<title>Node13&#45;&gt;Node2</title>
<path fill="none" stroke="#191970" d="M553.8545,-225.8571C521.0379,-216.5285 466.9084,-201.1415 428.9067,-190.339"/>
<polygon fill="#191970" stroke="#191970" points="429.708,-186.9281 419.1321,-187.5604 427.7939,-193.6614 429.708,-186.9281"/>
</g>
<!-- Node13&#45;&gt;Node12 -->
<g id="edge17" class="edge">
<title>Node13&#45;&gt;Node12</title>
<path fill="none" stroke="#191970" d="M565.9523,-224.2455C551.2401,-215.5731 529.5112,-202.7645 512.6495,-192.825"/>
<polygon fill="#191970" stroke="#191970" points="514.2502,-189.7057 503.8581,-187.6427 510.6954,-195.736 514.2502,-189.7057"/>
</g>
<!-- Node14 -->
<g id="node15" class="node">
<title>Node14</title>
<polygon fill="#ffffff" stroke="#bfbfbf" points="638.5,-168.5 638.5,-187.5 690.5,-187.5 690.5,-168.5 638.5,-168.5"/>
<text text-anchor="middle" x="664.5" y="-175.5" font-family="Helvetica,sans-Serif" font-size="10.00" fill="#000000">numeric</text>
</g>
<!-- Node13&#45;&gt;Node14 -->
<g id="edge14" class="edge">
<title>Node13&#45;&gt;Node14</title>
<path fill="none" stroke="#191970" d="M596.7833,-224.2455C609.247,-215.7337 627.5451,-203.2375 641.9792,-193.3801"/>
<polygon fill="#191970" stroke="#191970" points="644.0962,-196.1726 650.3804,-187.6427 640.1485,-190.392 644.0962,-196.1726"/>
</g>
<!-- Node15 -->
<g id="node16" class="node">
<title>Node15</title>
<polygon fill="#ffffff" stroke="#bfbfbf" points="708.5,-168.5 708.5,-187.5 744.5,-187.5 744.5,-168.5 708.5,-168.5"/>
<text text-anchor="middle" x="726.5" y="-175.5" font-family="Helvetica,sans-Serif" font-size="10.00" fill="#000000">map</text>
</g>
<!-- Node13&#45;&gt;Node15 -->
<g id="edge15" class="edge">
<title>Node13&#45;&gt;Node15</title>
<path fill="none" stroke="#191970" d="M607.2545,-224.3733C632.7814,-214.4461 672.4939,-199.0024 698.9887,-188.6988"/>
<polygon fill="#191970" stroke="#191970" points="700.3873,-191.9103 708.4388,-185.0238 697.8502,-185.3863 700.3873,-191.9103"/>
</g>
<!-- Node16 -->
<g id="node17" class="node">
<title>Node16</title>
<polygon fill="#ffffff" stroke="#bfbfbf" points="763,-168.5 763,-187.5 818,-187.5 818,-168.5 763,-168.5"/>
<text text-anchor="middle" x="790.5" y="-175.5" font-family="Helvetica,sans-Serif" font-size="10.00" fill="#000000">iostream</text>
</g>
<!-- Node13&#45;&gt;Node16 -->
<g id="edge16" class="edge">
<title>Node13&#45;&gt;Node16</title>
<path fill="none" stroke="#191970" d="M611.2459,-226.2783C643.3688,-217.647 697.1852,-203.1795 752.9303,-188.1515"/>
<polygon fill="#191970" stroke="#191970" points="753.8766,-191.5214 762.6206,-185.5387 752.0543,-184.7628 753.8766,-191.5214"/>
</g>
<!-- Node17 -->
<g id="node18" class="node">
<title>Node17</title>
<g id="a_node18"><a xlink:href="../../db/d1c/serializer_8hpp.html" target="_top" xlink:title="Serializer for simple data structures. ">
<polygon fill="#ffffff" stroke="#000000" points="544.5,-168.5 544.5,-187.5 620.5,-187.5 620.5,-168.5 544.5,-168.5"/>
<text text-anchor="middle" x="582.5" y="-175.5" font-family="Helvetica,sans-Serif" font-size="10.00" fill="#000000">serializer.hpp</text>
</a>
</g>
</g>
<!-- Node13&#45;&gt;Node17 -->
<g id="edge19" class="edge">
<title>Node13&#45;&gt;Node17</title>
<path fill="none" stroke="#191970" d="M582.5,-224.2455C582.5,-216.9382 582.5,-206.6944 582.5,-197.7046"/>
<polygon fill="#191970" stroke="#191970" points="586.0001,-197.6426 582.5,-187.6427 579.0001,-197.6427 586.0001,-197.6426"/>
</g>
<!-- Node18 -->
<g id="node19" class="node">
<title>Node18</title>
<g id="a_node19"><a xlink:href="../../d4/d32/communicator_8hpp.html" target="_top" xlink:title="Contains declaration and implementation of sddk::Communicator class. ">
<polygon fill="#ffffff" stroke="#000000" points="707,-112.5 707,-131.5 806,-131.5 806,-112.5 707,-112.5"/>
<text text-anchor="middle" x="756.5" y="-119.5" font-family="Helvetica,sans-Serif" font-size="10.00" fill="#000000">communicator.hpp</text>
</a>
</g>
</g>
<!-- Node17&#45;&gt;Node18 -->
<g id="edge20" class="edge">
<title>Node17&#45;&gt;Node18</title>
<path fill="none" stroke="#191970" d="M612.4117,-168.3733C641.3452,-159.0613 685.3611,-144.8953 717.1293,-134.671"/>
<polygon fill="#191970" stroke="#191970" points="718.5318,-137.8965 726.9787,-131.5011 716.3872,-131.2331 718.5318,-137.8965"/>
</g>
<!-- Node18&#45;&gt;Node6 -->
<g id="edge23" class="edge">
<title>Node18&#45;&gt;Node6</title>
<path fill="none" stroke="#191970" d="M766.8593,-112.3388C775.6454,-103.6151 787.9855,-90.0286 795.5,-76 803.2415,-61.5477 808.1481,-43.5803 811.0319,-30.043"/>
<polygon fill="#191970" stroke="#191970" points="814.5333,-30.3708 812.9963,-19.888 807.6607,-29.0413 814.5333,-30.3708"/>
</g>
<!-- Node19 -->
<g id="node20" class="node">
<title>Node19</title>
<polygon fill="#ffffff" stroke="#bfbfbf" points="843,-56.5 843,-75.5 884,-75.5 884,-56.5 843,-56.5"/>
<text text-anchor="middle" x="863.5" y="-63.5" font-family="Helvetica,sans-Serif" font-size="10.00" fill="#000000">mpi.h</text>
</g>
<!-- Node18&#45;&gt;Node19 -->
<g id="edge21" class="edge">
<title>Node18&#45;&gt;Node19</title>
<path fill="none" stroke="#191970" d="M775.138,-112.2455C791.9386,-103.4527 816.8634,-90.4079 835.9618,-80.4125"/>
<polygon fill="#191970" stroke="#191970" points="837.8386,-83.3807 845.0756,-75.6427 834.5927,-77.1787 837.8386,-83.3807"/>
</g>
<!-- Node20 -->
<g id="node21" class="node">
<title>Node20</title>
<polygon fill="#ffffff" stroke="#bfbfbf" points="737,-56.5 737,-75.5 786,-75.5 786,-56.5 737,-56.5"/>
<text text-anchor="middle" x="761.5" y="-63.5" font-family="Helvetica,sans-Serif" font-size="10.00" fill="#000000">cassert</text>
</g>
<!-- Node18&#45;&gt;Node20 -->
<g id="edge22" class="edge">
<title>Node18&#45;&gt;Node20</title>
<path fill="none" stroke="#191970" d="M757.3709,-112.2455C758.0234,-104.9382 758.938,-94.6944 759.7407,-85.7046"/>
<polygon fill="#191970" stroke="#191970" points="763.2358,-85.9143 760.639,-75.6427 756.2635,-85.2918 763.2358,-85.9143"/>
</g>
<!-- Node21 -->
<g id="node22" class="node">
<title>Node21</title>
<polygon fill="#ffffff" stroke="#bfbfbf" points="703.5,-.5 703.5,-19.5 757.5,-19.5 757.5,-.5 703.5,-.5"/>
<text text-anchor="middle" x="730.5" y="-7.5" font-family="Helvetica,sans-Serif" font-size="10.00" fill="#000000">complex</text>
</g>
<!-- Node18&#45;&gt;Node21 -->
<g id="edge24" class="edge">
<title>Node18&#45;&gt;Node21</title>
<path fill="none" stroke="#191970" d="M748.2911,-112.1677C741.4886,-103.3343 732.3369,-89.6831 728.5,-76 724.2441,-60.823 725.137,-42.9093 726.8754,-29.5771"/>
<polygon fill="#191970" stroke="#191970" points="730.3458,-30.0383 728.4402,-19.6162 723.4306,-28.9519 730.3458,-30.0383"/>
</g>
<!-- Node22 -->
<g id="node23" class="node">
<title>Node22</title>
<g id="a_node23"><a xlink:href="../../d8/d7b/cuda_8hpp.html" target="_top" xlink:title="Interface to CUDA related functions. ">
<polygon fill="#ffffff" stroke="#000000" points="320.5,-56.5 320.5,-75.5 402.5,-75.5 402.5,-56.5 320.5,-56.5"/>
<text text-anchor="middle" x="361.5" y="-63.5" font-family="Helvetica,sans-Serif" font-size="10.00" fill="#000000">GPU/cuda.hpp</text>
</a>
</g>
</g>
<!-- Node18&#45;&gt;Node22 -->
<g id="edge25" class="edge">
<title>Node18&#45;&gt;Node22</title>
<path fill="none" stroke="#191970" d="M706.8729,-114.9643C631.5732,-104.2889 489.1714,-84.1003 412.858,-73.2811"/>
<polygon fill="#191970" stroke="#191970" points="412.9346,-69.7571 402.5423,-71.8187 411.952,-76.6878 412.9346,-69.7571"/>
</g>
<!-- Node22&#45;&gt;Node3 -->
<g id="edge32" class="edge">
<title>Node22&#45;&gt;Node3</title>
<path fill="none" stroke="#191970" d="M402.7676,-60.1558C452.803,-52.7678 539.8449,-38.9485 623.309,-20.0968"/>
<polygon fill="#191970" stroke="#191970" points="624.2356,-23.4753 633.2037,-17.834 622.675,-16.6515 624.2356,-23.4753"/>
</g>
<!-- Node22&#45;&gt;Node6 -->
<g id="edge35" class="edge">
<title>Node22&#45;&gt;Node6</title>
<path fill="none" stroke="#191970" d="M402.7757,-62.5801C476.2121,-56.2136 634.2725,-41.2364 766.5,-20 771.6215,-19.1775 777.0246,-18.1799 782.285,-17.1372"/>
<polygon fill="#191970" stroke="#191970" points="783.0262,-20.5581 792.1134,-15.1107 781.6126,-13.7023 783.0262,-20.5581"/>
</g>
<!-- Node22&#45;&gt;Node21 -->
<g id="edge34" class="edge">
<title>Node22&#45;&gt;Node21</title>
<path fill="none" stroke="#191970" d="M402.5541,-62.1144C463.8662,-55.9225 583.0944,-42.3832 693.4976,-19.9793"/>
<polygon fill="#191970" stroke="#191970" points="694.3792,-23.3712 703.4679,-17.9265 692.9675,-16.515 694.3792,-23.3712"/>
</g>
<!-- Node23 -->
<g id="node24" class="node">
<title>Node23</title>
<polygon fill="#ffffff" stroke="#bfbfbf" points="442,-.5 442,-19.5 527,-19.5 527,-.5 442,-.5"/>
<text text-anchor="middle" x="484.5" y="-7.5" font-family="Helvetica,sans-Serif" font-size="10.00" fill="#000000">cuda_runtime.h</text>
</g>
<!-- Node22&#45;&gt;Node23 -->
<g id="edge26" class="edge">
<title>Node22&#45;&gt;Node23</title>
<path fill="none" stroke="#191970" d="M382.6445,-56.3733C402.3892,-47.3838 432.0698,-33.8706 454.3055,-23.7471"/>
<polygon fill="#191970" stroke="#191970" points="455.9806,-26.8302 463.6315,-19.5011 453.08,-20.4594 455.9806,-26.8302"/>
</g>
<!-- Node24 -->
<g id="node25" class="node">
<title>Node24</title>
<polygon fill="#ffffff" stroke="#bfbfbf" points="0,-.5 0,-19.5 47,-19.5 47,-.5 0,-.5"/>
<text text-anchor="middle" x="23.5" y="-7.5" font-family="Helvetica,sans-Serif" font-size="10.00" fill="#000000">cuda.h</text>
</g>
<!-- Node22&#45;&gt;Node24 -->
<g id="edge27" class="edge">
<title>Node22&#45;&gt;Node24</title>
<path fill="none" stroke="#191970" d="M320.2029,-61.6908C263.1401,-55.3174 156.874,-41.9416 57.1248,-19.8593"/>
<polygon fill="#191970" stroke="#191970" points="57.7079,-16.4031 47.1837,-17.6243 56.1724,-23.2327 57.7079,-16.4031"/>
</g>
<!-- Node25 -->
<g id="node26" class="node">
<title>Node25</title>
<polygon fill="#ffffff" stroke="#bfbfbf" points="545.5,-.5 545.5,-19.5 615.5,-19.5 615.5,-.5 545.5,-.5"/>
<text text-anchor="middle" x="580.5" y="-7.5" font-family="Helvetica,sans-Serif" font-size="10.00" fill="#000000">cublas_v2.h</text>
</g>
<!-- Node22&#45;&gt;Node25 -->
<g id="edge28" class="edge">
<title>Node22&#45;&gt;Node25</title>
<path fill="none" stroke="#191970" d="M399.1474,-56.3733C436.9158,-46.7156 495.1027,-31.8368 535.3349,-21.5491"/>
<polygon fill="#191970" stroke="#191970" points="536.3321,-24.9068 545.1533,-19.0384 534.5979,-18.125 536.3321,-24.9068"/>
</g>
<!-- Node26 -->
<g id="node27" class="node">
<title>Node26</title>
<polygon fill="#ffffff" stroke="#bfbfbf" points="135.5,-.5 135.5,-19.5 197.5,-19.5 197.5,-.5 135.5,-.5"/>
<text text-anchor="middle" x="166.5" y="-7.5" font-family="Helvetica,sans-Serif" font-size="10.00" fill="#000000">execinfo.h</text>
</g>
<!-- Node22&#45;&gt;Node26 -->
<g id="edge29" class="edge">
<title>Node22&#45;&gt;Node26</title>
<path fill="none" stroke="#191970" d="M327.9783,-56.3733C294.5344,-46.7689 243.1096,-32.0007 207.3096,-21.7197"/>
<polygon fill="#191970" stroke="#191970" points="208.2321,-18.3432 197.6544,-18.9469 206.2999,-25.0712 208.2321,-18.3432"/>
</g>
<!-- Node27 -->
<g id="node28" class="node">
<title>Node27</title>
<polygon fill="#ffffff" stroke="#bfbfbf" points="65.5,-.5 65.5,-19.5 117.5,-19.5 117.5,-.5 65.5,-.5"/>
<text text-anchor="middle" x="91.5" y="-7.5" font-family="Helvetica,sans-Serif" font-size="10.00" fill="#000000">unistd.h</text>
</g>
<!-- Node22&#45;&gt;Node27 -->
<g id="edge30" class="edge">
<title>Node22&#45;&gt;Node27</title>
<path fill="none" stroke="#191970" d="M320.0928,-58.9936C274.9916,-51.119 200.5474,-37.4134 127.6207,-20.1263"/>
<polygon fill="#191970" stroke="#191970" points="128.3501,-16.7021 117.8099,-17.7764 126.7195,-23.5096 128.3501,-16.7021"/>
</g>
<!-- Node28 -->
<g id="node29" class="node">
<title>Node28</title>
<polygon fill="#ffffff" stroke="#bfbfbf" points="216,-.5 216,-19.5 267,-19.5 267,-.5 216,-.5"/>
<text text-anchor="middle" x="241.5" y="-7.5" font-family="Helvetica,sans-Serif" font-size="10.00" fill="#000000">signal.h</text>
</g>
<!-- Node22&#45;&gt;Node28 -->
<g id="edge31" class="edge">
<title>Node22&#45;&gt;Node28</title>
<path fill="none" stroke="#191970" d="M340.8713,-56.3733C321.6081,-47.3838 292.6514,-33.8706 270.9581,-23.7471"/>
<polygon fill="#191970" stroke="#191970" points="272.4015,-20.5584 261.8595,-19.5011 269.4413,-26.9017 272.4015,-20.5584"/>
</g>
<!-- Node29 -->
<g id="node30" class="node">
<title>Node29</title>
<polygon fill="#ffffff" stroke="#bfbfbf" points="285.5,-.5 285.5,-19.5 359.5,-19.5 359.5,-.5 285.5,-.5"/>
<text text-anchor="middle" x="322.5" y="-7.5" font-family="Helvetica,sans-Serif" font-size="10.00" fill="#000000">nvToolsExt.h</text>
</g>
<!-- Node22&#45;&gt;Node29 -->
<g id="edge33" class="edge">
<title>Node22&#45;&gt;Node29</title>
<path fill="none" stroke="#191970" d="M354.7067,-56.2455C349.2822,-48.4564 341.5339,-37.3308 334.9967,-27.9439"/>
<polygon fill="#191970" stroke="#191970" points="337.8025,-25.8485 329.2154,-19.6427 332.0583,-29.849 337.8025,-25.8485"/>
</g>
<!-- Node30 -->
<g id="node31" class="node">
<title>Node30</title>
<polygon fill="#ffffff" stroke="#bfbfbf" points="377.5,-.5 377.5,-19.5 423.5,-19.5 423.5,-.5 377.5,-.5"/>
<text text-anchor="middle" x="400.5" y="-7.5" font-family="Helvetica,sans-Serif" font-size="10.00" fill="#000000">stdio.h</text>
</g>
<!-- Node22&#45;&gt;Node30 -->
<g id="edge36" class="edge">
<title>Node22&#45;&gt;Node30</title>
<path fill="none" stroke="#191970" d="M368.2933,-56.2455C373.7178,-48.4564 381.4661,-37.3308 388.0033,-27.9439"/>
<polygon fill="#191970" stroke="#191970" points="390.9417,-29.849 393.7846,-19.6427 385.1975,-25.8485 390.9417,-29.849"/>
</g>
<!-- Node31&#45;&gt;Node22 -->
<g id="edge41" class="edge">
<title>Node31&#45;&gt;Node22</title>
<path fill="none" stroke="#191970" d="M115.2671,-114.2134C166.1286,-104.2545 254.2977,-86.9907 310.1768,-76.0493"/>
<polygon fill="#191970" stroke="#191970" points="311.0775,-79.4395 320.2186,-74.0831 309.7324,-72.5699 311.0775,-79.4395"/>
</g>
<!-- Node31&#45;&gt;Node24 -->
<g id="edge40" class="edge">
<title>Node31&#45;&gt;Node24</title>
<path fill="none" stroke="#191970" d="M71.0665,-112.4509C62.4703,-93.936 43.3989,-52.8591 32.1908,-28.7187"/>
<polygon fill="#191970" stroke="#191970" points="35.308,-27.1211 27.9223,-19.5249 28.9589,-30.0689 35.308,-27.1211"/>
</g>
<!-- Node31&#45;&gt;Node27 -->
<g id="edge38" class="edge">
<title>Node31&#45;&gt;Node27</title>
<path fill="none" stroke="#191970" d="M76.8642,-112.4509C79.4737,-94.184 85.2207,-53.9553 88.6861,-29.6976"/>
<polygon fill="#191970" stroke="#191970" points="92.1898,-29.9194 90.1393,-19.5249 85.2602,-28.9294 92.1898,-29.9194"/>
</g>
<!-- Node32 -->
<g id="node33" class="node">
<title>Node32</title>
<polygon fill="#ffffff" stroke="#bfbfbf" points="103.5,-56.5 103.5,-75.5 147.5,-75.5 147.5,-56.5 103.5,-56.5"/>
<text text-anchor="middle" x="125.5" y="-63.5" font-family="Helvetica,sans-Serif" font-size="10.00" fill="#000000">cufft.h</text>
</g>
<!-- Node31&#45;&gt;Node32 -->
<g id="edge39" class="edge">
<title>Node31&#45;&gt;Node32</title>
<path fill="none" stroke="#191970" d="M84.2093,-112.2455C91.3073,-104.2958 101.5084,-92.8706 109.995,-83.3656"/>
<polygon fill="#191970" stroke="#191970" points="112.8411,-85.4331 116.8905,-75.6427 107.6195,-80.771 112.8411,-85.4331"/>
</g>
<!-- Node33&#45;&gt;Node22 -->
<g id="edge43" class="edge">
<title>Node33&#45;&gt;Node22</title>
<path fill="none" stroke="#191970" d="M222.5645,-224.2872C193.5521,-202.9022 131.8172,-150.5843 162.5,-112 180.6046,-89.233 257.2358,-76.7546 309.942,-70.7281"/>
<polygon fill="#191970" stroke="#191970" points="310.5819,-74.179 320.1398,-69.6077 309.8173,-67.2208 310.5819,-74.179"/>
</g>
</g>
</svg>
        <g id="navigator" transform="translate(0 0)" fill="#404254">
                <rect fill="#f2f5e9" fill-opacity="0.5" stroke="#606060" stroke-width=".5" x="0" y="0" width="60" height="60"/>
                <use id="zoomplus" xlink:href="#zoomPlus" x="17" y="9" onmousedown="handleZoom(evt,'in')"/>
                <use id="zoomminus" xlink:href="#zoomMin" x="42" y="9" onmousedown="handleZoom(evt,'out')"/>
                <use id="reset" xlink:href="#resetDef" x="30" y="36" onmousedown="handleReset()"/>
                <g id="arrowUp" xlink:href="#dirArrow" transform="translate(30 24)" onmousedown="handlePan(0,-1)">
                  <use xlink:href="#rim" fill="#404040">
                        <set attributeName="fill" to="#808080" begin="arrowUp.mouseover" end="arrowUp.mouseout"/>
                  </use>
                  <path fill="none" stroke="white" stroke-width="1.5" d="M0,-3.0v7 M-2.5,-0.5L0,-3.0L2.5,-0.5"/>
                </g>
                <g id="arrowRight" xlink:href="#dirArrow" transform="rotate(90) translate(36 -43)" onmousedown="handlePan(1,0)">
                  <use xlink:href="#rim" fill="#404040">
                        <set attributeName="fill" to="#808080" begin="arrowRight.mouseover" end="arrowRight.mouseout"/>
                  </use>
                  <path fill="none" stroke="white" stroke-width="1.5" d="M0,-3.0v7 M-2.5,-0.5L0,-3.0L2.5,-0.5"/>
                </g>
                <g id="arrowDown" xlink:href="#dirArrow" transform="rotate(180) translate(-30 -48)" onmousedown="handlePan(0,1)">
                  <use xlink:href="#rim" fill="#404040">
                        <set attributeName="fill" to="#808080" begin="arrowDown.mouseover" end="arrowDown.mouseout"/>
                  </use>
                  <path fill="none" stroke="white" stroke-width="1.5" d="M0,-3.0v7 M-2.5,-0.5L0,-3.0L2.5,-0.5"/>
                </g>
                <g id="arrowLeft" xlink:href="#dirArrow" transform="rotate(270) translate(-36 17)" onmousedown="handlePan(-1,0)">
                  <use xlink:href="#rim" fill="#404040">
                        <set attributeName="fill" to="#808080" begin="arrowLeft.mouseover" end="arrowLeft.mouseout"/>
                  </use>
                  <path fill="none" stroke="white" stroke-width="1.5" d="M0,-3.0v7 M-2.5,-0.5L0,-3.0L2.5,-0.5"/>
                </g>
        </g>
        <svg viewBox="0 0 15 15" width="100%" height="30px" preserveAspectRatio="xMaxYMin meet">
         <g id="arrow_out" transform="scale(0.3 0.3)">
          <a xlink:href="fft3d_8hpp__incl_org.svg" target="_base">
           <rect id="button" ry="5" rx="5" y="6" x="6" height="38" width="38"
                fill="#f2f5e9" fill-opacity="0.5" stroke="#606060" stroke-width="1.0"/>
           <path id="arrow"
             d="M 11.500037,31.436501 C 11.940474,20.09759 22.043105,11.32322 32.158766,21.979434 L 37.068811,17.246167 C 37.068811,17.246167 37.088388,32 37.088388,32 L 22.160133,31.978069 C 22.160133,31.978069 26.997745,27.140456 26.997745,27.140456 C 18.528582,18.264221 13.291696,25.230495 11.500037,31.436501 z"
             style="fill:#404040;"/>
          </a>
         </g>
        </svg>
</svg>
