<?xml version="1.0" encoding="UTF-8" standalone="no"?>
<!DOCTYPE svg PUBLIC "-//W3C//DTD SVG 1.1//EN"
 "http://www.w3.org/Graphics/SVG/1.1/DTD/svg11.dtd">
<!-- Generated by graphviz version 2.40.1 (20161225.0304)
 -->
<!-- Title: fft3d.hpp Pages: 1 -->
<!--zoomable 196 -->
<svg id="main" version="1.1" xmlns="http://www.w3.org/2000/svg" xmlns:xlink="http://www.w3.org/1999/xlink" xml:space="preserve" onload="init(evt)">
<style type="text/css"><![CDATA[
.edge:hover path { stroke: red; }
.edge:hover polygon { stroke: red; fill: red; }
]]></style>
<script type="text/javascript"><![CDATA[
var edges = document.getElementsByTagName('g');
if (edges && edges.length) {
  for (var i=0;i<edges.length;i++) {
    if (edges[i].id.substr(0,4)=='edge') {
      edges[i].setAttribute('class','edge');
    }
  }
}
]]></script>
        <defs>
                <circle id="rim" cx="0" cy="0" r="7"/>
                <circle id="rim2" cx="0" cy="0" r="3.5"/>
                <g id="zoomPlus">
                        <use xlink:href="#rim" fill="#404040">
                                <set attributeName="fill" to="#808080" begin="zoomplus.mouseover" end="zoomplus.mouseout"/>
                        </use>
                        <path d="M-4,0h8M0,-4v8" fill="none" stroke="white" stroke-width="1.5" pointer-events="none"/>
                </g>
                <g id="zoomMin">
                        <use xlink:href="#rim" fill="#404040">
                                <set attributeName="fill" to="#808080" begin="zoomminus.mouseover" end="zoomminus.mouseout"/>
                        </use>
                        <path d="M-4,0h8" fill="none" stroke="white" stroke-width="1.5" pointer-events="none"/>
                </g>
                <g id="dirArrow">
                        <path fill="none" stroke="white" stroke-width="1.5" d="M0,-3.0v7 M-2.5,-0.5L0,-3.0L2.5,-0.5"/>
                </g>
               <g id="resetDef">
                       <use xlink:href="#rim2" fill="#404040">
                               <set attributeName="fill" to="#808080" begin="reset.mouseover" end="reset.mouseout"/>
                       </use>
               </g>
        </defs>

<script type="text/javascript">
var viewWidth = 1146;
var viewHeight = 196;
var sectionId = 'dynsection-0';
</script>
<script xlink:href="../../svgpan.js"/>
<svg id="graph" class="graph">
<g id="viewport">
<title>fft3d.hpp</title>
<polygon fill="#ffffff" stroke="transparent" points="-4,4 -4,-192 1141.5,-192 1141.5,4 -4,4"/>
<!-- Node0 -->
<g id="node1" class="node">
<title>Node0</title>
<polygon fill="#bfbfbf" stroke="#000000" points="607,-168.5 607,-187.5 653,-187.5 653,-168.5 607,-168.5"/>
<text text-anchor="middle" x="630" y="-175.5" font-family="Helvetica,sans-Serif" font-size="10.00" fill="#000000">fft3d.hpp</text>
</g>
<!-- Node1 -->
<g id="node2" class="node">
<title>Node1</title>
<polygon fill="#ffffff" stroke="#bfbfbf" points="408.5,-112.5 408.5,-131.5 447.5,-131.5 447.5,-112.5 408.5,-112.5"/>
<text text-anchor="middle" x="428" y="-119.5" font-family="Helvetica,sans-Serif" font-size="10.00" fill="#000000">fftw3.h</text>
</g>
<!-- Node0&#45;&gt;Node1 -->
<g id="edge1" class="edge">
<title>Node0&#45;&gt;Node1</title>
<path fill="none" stroke="#191970" d="M606.9036,-172.4224C575.3476,-164.6814 516.8123,-149.8939 457.5011,-131.9892"/>
<polygon fill="#191970" stroke="#191970" points="458.1787,-128.5369 447.5928,-128.9706 456.1387,-135.233 458.1787,-128.5369"/>
</g>
<!-- Node2 -->
<g id="node3" class="node">
<title>Node2</title>
<g id="a_node3"><a xlink:href="../../d6/d99/geometry3d_8hpp.html" target="_top" xlink:title="Simple classes and functions to work with the 3D vectors and matrices of the crystal lattice...">
<polygon fill="#ffffff" stroke="#000000" points="744.5,-56.5 744.5,-75.5 815.5,-75.5 815.5,-56.5 744.5,-56.5"/>
<text text-anchor="middle" x="780" y="-63.5" font-family="Helvetica,sans-Serif" font-size="10.00" fill="#000000">geometry3d.hpp</text>
</a>
</g>
</g>
<!-- Node0&#45;&gt;Node2 -->
<g id="edge2" class="edge">
<title>Node0&#45;&gt;Node2</title>
<path fill="none" stroke="#191970" d="M642.7889,-168.4509C668.6927,-149.1094 727.5716,-105.1465 759.12,-81.5904"/>
<polygon fill="#191970" stroke="#191970" points="761.3247,-84.3123 767.2435,-75.5249 757.1366,-78.7033 761.3247,-84.3123"/>
</g>
<!-- Node12 -->
<g id="node13" class="node">
<title>Node12</title>
<g id="a_node13"><a xlink:href="../../db/d5f/fft3d__grid_8hpp.html" target="_top" xlink:title="Contains declaration and implementation of FFT3D_grid class. ">
<polygon fill="#ffffff" stroke="#000000" points="834,-56.5 834,-75.5 896,-75.5 896,-56.5 834,-56.5"/>
<text text-anchor="middle" x="865" y="-63.5" font-family="Helvetica,sans-Serif" font-size="10.00" fill="#000000">fft3d_grid.hpp</text>
</a>
</g>
</g>
<!-- Node0&#45;&gt;Node12 -->
<g id="edge12" class="edge">
<title>Node0&#45;&gt;Node12</title>
<path fill="none" stroke="#191970" d="M650.036,-168.4509C691.5725,-148.6548 787.227,-103.0663 835.701,-79.9638"/>
<polygon fill="#191970" stroke="#191970" points="837.4934,-82.9868 845.0147,-75.5249 834.4817,-76.6677 837.4934,-82.9868"/>
</g>
<!-- Node13 -->
<g id="node14" class="node">
<title>Node13</title>
<g id="a_node14"><a xlink:href="../../d6/dd8/gvec_8hpp.html" target="_top" xlink:title="Declaration and implementation of Gvec class. ">
<polygon fill="#ffffff" stroke="#000000" points="841.5,-112.5 841.5,-131.5 888.5,-131.5 888.5,-112.5 841.5,-112.5"/>
<text text-anchor="middle" x="865" y="-119.5" font-family="Helvetica,sans-Serif" font-size="10.00" fill="#000000">gvec.hpp</text>
</a>
</g>
</g>
<!-- Node0&#45;&gt;Node13 -->
<g id="edge13" class="edge">
<title>Node0&#45;&gt;Node13</title>
<path fill="none" stroke="#191970" d="M653.3918,-172.4258C695.2492,-162.4513 783.0883,-141.5194 831.3932,-130.0084"/>
<polygon fill="#191970" stroke="#191970" points="832.4377,-133.3576 841.354,-127.6348 830.815,-126.5483 832.4377,-133.3576"/>
</g>
<!-- Node16 -->
<g id="node17" class="node">
<title>Node16</title>
<g id="a_node17"><a xlink:href="../../d8/d8d/cufft_8hpp.html" target="_top" xlink:title="Interface to cuFFT related functions. ">
<polygon fill="#ffffff" stroke="#000000" points="560,-112.5 560,-131.5 624,-131.5 624,-112.5 560,-112.5"/>
<text text-anchor="middle" x="592" y="-119.5" font-family="Helvetica,sans-Serif" font-size="10.00" fill="#000000">GPU/cufft.hpp</text>
</a>
</g>
</g>
<!-- Node0&#45;&gt;Node16 -->
<g id="edge18" class="edge">
<title>Node0&#45;&gt;Node16</title>
<path fill="none" stroke="#191970" d="M623.3809,-168.2455C618.0954,-160.4564 610.5459,-149.3308 604.1762,-139.9439"/>
<polygon fill="#191970" stroke="#191970" points="607.0545,-137.9522 598.5432,-131.6427 601.2621,-141.8827 607.0545,-137.9522"/>
</g>
<!-- Node28 -->
<g id="node29" class="node">
<title>Node28</title>
<g id="a_node29"><a xlink:href="../../d6/d3f/fft__kernels_8h_source.html" target="_top" xlink:title="GPU/fft_kernels.h">
<polygon fill="#ffffff" stroke="#000000" points="466,-112.5 466,-131.5 542,-131.5 542,-112.5 466,-112.5"/>
<text text-anchor="middle" x="504" y="-119.5" font-family="Helvetica,sans-Serif" font-size="10.00" fill="#000000">GPU/fft_kernels.h</text>
</a>
</g>
</g>
<!-- Node0&#45;&gt;Node28 -->
<g id="edge34" class="edge">
<title>Node0&#45;&gt;Node28</title>
<path fill="none" stroke="#191970" d="M608.3398,-168.3733C588.0228,-159.3435 557.436,-145.7494 534.625,-135.6111"/>
<polygon fill="#191970" stroke="#191970" points="535.9372,-132.3642 525.3775,-131.5011 533.0941,-138.7609 535.9372,-132.3642"/>
</g>
<!-- Node3 -->
<g id="node4" class="node">
<title>Node3</title>
<polygon fill="#ffffff" stroke="#bfbfbf" points="607.5,-.5 607.5,-19.5 650.5,-19.5 650.5,-.5 607.5,-.5"/>
<text text-anchor="middle" x="629" y="-7.5" font-family="Helvetica,sans-Serif" font-size="10.00" fill="#000000">assert.h</text>
</g>
<!-- Node2&#45;&gt;Node3 -->
<g id="edge3" class="edge">
<title>Node2&#45;&gt;Node3</title>
<path fill="none" stroke="#191970" d="M754.0422,-56.3733C728.0577,-46.7366 688.0558,-31.9015 660.3225,-21.6163"/>
<polygon fill="#191970" stroke="#191970" points="661.3017,-18.2466 650.7087,-18.0509 658.8676,-24.8098 661.3017,-18.2466"/>
</g>
<!-- Node4 -->
<g id="node5" class="node">
<title>Node4</title>
<polygon fill="#ffffff" stroke="#bfbfbf" points="851.5,-.5 851.5,-19.5 888.5,-19.5 888.5,-.5 851.5,-.5"/>
<text text-anchor="middle" x="870" y="-7.5" font-family="Helvetica,sans-Serif" font-size="10.00" fill="#000000">cmath</text>
</g>
<!-- Node2&#45;&gt;Node4 -->
<g id="edge4" class="edge">
<title>Node2&#45;&gt;Node4</title>
<path fill="none" stroke="#191970" d="M795.6768,-56.2455C809.4856,-47.6534 829.8193,-35.0014 845.7292,-25.1018"/>
<polygon fill="#191970" stroke="#191970" points="847.8613,-27.8974 854.5028,-19.6427 844.1632,-21.954 847.8613,-27.8974"/>
</g>
<!-- Node5 -->
<g id="node6" class="node">
<title>Node5</title>
<polygon fill="#ffffff" stroke="#bfbfbf" points="907,-.5 907,-19.5 941,-19.5 941,-.5 907,-.5"/>
<text text-anchor="middle" x="924" y="-7.5" font-family="Helvetica,sans-Serif" font-size="10.00" fill="#000000">array</text>
</g>
<!-- Node2&#45;&gt;Node5 -->
<g id="edge5" class="edge">
<title>Node2&#45;&gt;Node5</title>
<path fill="none" stroke="#191970" d="M804.7545,-56.3733C830.5666,-46.3352 870.8831,-30.6566 897.3718,-20.3554"/>
<polygon fill="#191970" stroke="#191970" points="898.7363,-23.5802 906.7878,-16.6936 896.1991,-17.0562 898.7363,-23.5802"/>
</g>
<!-- Node6 -->
<g id="node7" class="node">
<title>Node6</title>
<polygon fill="#ffffff" stroke="#bfbfbf" points="668.5,-.5 668.5,-19.5 705.5,-19.5 705.5,-.5 668.5,-.5"/>
<text text-anchor="middle" x="687" y="-7.5" font-family="Helvetica,sans-Serif" font-size="10.00" fill="#000000">vector</text>
</g>
<!-- Node2&#45;&gt;Node6 -->
<g id="edge6" class="edge">
<title>Node2&#45;&gt;Node6</title>
<path fill="none" stroke="#191970" d="M763.8006,-56.2455C749.3982,-47.5731 728.1268,-34.7645 711.6201,-24.825"/>
<polygon fill="#191970" stroke="#191970" points="713.386,-21.8028 703.0137,-19.6427 709.775,-27.7996 713.386,-21.8028"/>
</g>
<!-- Node7 -->
<g id="node8" class="node">
<title>Node7</title>
<polygon fill="#ffffff" stroke="#bfbfbf" points="959,-.5 959,-19.5 1003,-19.5 1003,-.5 959,-.5"/>
<text text-anchor="middle" x="981" y="-7.5" font-family="Helvetica,sans-Serif" font-size="10.00" fill="#000000">ostream</text>
</g>
<!-- Node2&#45;&gt;Node7 -->
<g id="edge7" class="edge">
<title>Node2&#45;&gt;Node7</title>
<path fill="none" stroke="#191970" d="M815.6296,-56.8884C848.1019,-48.4668 897.6016,-35.3376 949.0608,-20.1892"/>
<polygon fill="#191970" stroke="#191970" points="950.0941,-23.5335 958.6885,-17.3379 948.1063,-16.8217 950.0941,-23.5335"/>
</g>
<!-- Node8 -->
<g id="node9" class="node">
<title>Node8</title>
<polygon fill="#ffffff" stroke="#bfbfbf" points="1021.5,-.5 1021.5,-19.5 1060.5,-19.5 1060.5,-.5 1021.5,-.5"/>
<text text-anchor="middle" x="1041" y="-7.5" font-family="Helvetica,sans-Serif" font-size="10.00" fill="#000000">cstring</text>
</g>
<!-- Node2&#45;&gt;Node8 -->
<g id="edge8" class="edge">
<title>Node2&#45;&gt;Node8</title>
<path fill="none" stroke="#191970" d="M815.8416,-57.9387C818.9368,-57.2718 822.0222,-56.6174 825,-56 904.7994,-39.4557 928.4893,-41.6532 1011.5826,-19.7956"/>
<polygon fill="#191970" stroke="#191970" points="1012.702,-23.1195 1021.4611,-17.1588 1010.8967,-16.3562 1012.702,-23.1195"/>
</g>
<!-- Node9 -->
<g id="node10" class="node">
<title>Node9</title>
<polygon fill="#ffffff" stroke="#bfbfbf" points="1078.5,-.5 1078.5,-19.5 1137.5,-19.5 1137.5,-.5 1078.5,-.5"/>
<text text-anchor="middle" x="1108" y="-7.5" font-family="Helvetica,sans-Serif" font-size="10.00" fill="#000000">initializer_list</text>
</g>
<!-- Node2&#45;&gt;Node9 -->
<g id="edge9" class="edge">
<title>Node2&#45;&gt;Node9</title>
<path fill="none" stroke="#191970" d="M815.8134,-57.7949C818.9148,-57.1592 822.0092,-56.5513 825,-56 930.0638,-36.6338 960.4075,-41.71 1068.2251,-20.1986"/>
<polygon fill="#191970" stroke="#191970" points="1069.0974,-23.5931 1078.2031,-18.1769 1067.7072,-16.7325 1069.0974,-23.5931"/>
</g>
<!-- Node10 -->
<g id="node11" class="node">
<title>Node10</title>
<polygon fill="#ffffff" stroke="#bfbfbf" points="723.5,-.5 723.5,-19.5 772.5,-19.5 772.5,-.5 723.5,-.5"/>
<text text-anchor="middle" x="748" y="-7.5" font-family="Helvetica,sans-Serif" font-size="10.00" fill="#000000">stdexcept</text>
</g>
<!-- Node2&#45;&gt;Node10 -->
<g id="edge10" class="edge">
<title>Node2&#45;&gt;Node10</title>
<path fill="none" stroke="#191970" d="M774.426,-56.2455C770.0669,-48.617 763.8789,-37.7881 758.5867,-28.5267"/>
<polygon fill="#191970" stroke="#191970" points="761.5104,-26.5886 753.5101,-19.6427 755.4327,-30.0616 761.5104,-26.5886"/>
</g>
<!-- Node11 -->
<g id="node12" class="node">
<title>Node11</title>
<polygon fill="#ffffff" stroke="#bfbfbf" points="790.5,-.5 790.5,-19.5 833.5,-19.5 833.5,-.5 790.5,-.5"/>
<text text-anchor="middle" x="812" y="-7.5" font-family="Helvetica,sans-Serif" font-size="10.00" fill="#000000">sstream</text>
</g>
<!-- Node2&#45;&gt;Node11 -->
<g id="edge11" class="edge">
<title>Node2&#45;&gt;Node11</title>
<path fill="none" stroke="#191970" d="M785.574,-56.2455C789.9331,-48.617 796.1211,-37.7881 801.4133,-28.5267"/>
<polygon fill="#191970" stroke="#191970" points="804.5673,-30.0616 806.4899,-19.6427 798.4896,-26.5886 804.5673,-30.0616"/>
</g>
<!-- Node13&#45;&gt;Node2 -->
<g id="edge17" class="edge">
<title>Node13&#45;&gt;Node2</title>
<path fill="none" stroke="#191970" d="M850.1941,-112.2455C837.2744,-103.7337 818.3069,-91.2375 803.3448,-81.3801"/>
<polygon fill="#191970" stroke="#191970" points="804.9124,-78.2216 794.6362,-75.6427 801.0613,-84.067 804.9124,-78.2216"/>
</g>
<!-- Node13&#45;&gt;Node12 -->
<g id="edge16" class="edge">
<title>Node13&#45;&gt;Node12</title>
<path fill="none" stroke="#191970" d="M865,-112.2455C865,-104.9382 865,-94.6944 865,-85.7046"/>
<polygon fill="#191970" stroke="#191970" points="868.5001,-85.6426 865,-75.6427 861.5001,-85.6427 868.5001,-85.6426"/>
</g>
<!-- Node14 -->
<g id="node15" class="node">
<title>Node14</title>
<polygon fill="#ffffff" stroke="#bfbfbf" points="914.5,-56.5 914.5,-75.5 957.5,-75.5 957.5,-56.5 914.5,-56.5"/>
<text text-anchor="middle" x="936" y="-63.5" font-family="Helvetica,sans-Serif" font-size="10.00" fill="#000000">numeric</text>
</g>
<!-- Node13&#45;&gt;Node14 -->
<g id="edge14" class="edge">
<title>Node13&#45;&gt;Node14</title>
<path fill="none" stroke="#191970" d="M877.3673,-112.2455C887.9554,-103.8943 903.4064,-91.7076 915.7893,-81.9408"/>
<polygon fill="#191970" stroke="#191970" points="918.0903,-84.5837 923.7745,-75.6427 913.7553,-79.0875 918.0903,-84.5837"/>
</g>
<!-- Node15 -->
<g id="node16" class="node">
<title>Node15</title>
<polygon fill="#ffffff" stroke="#bfbfbf" points="975.5,-56.5 975.5,-75.5 1006.5,-75.5 1006.5,-56.5 975.5,-56.5"/>
<text text-anchor="middle" x="991" y="-63.5" font-family="Helvetica,sans-Serif" font-size="10.00" fill="#000000">map</text>
</g>
<!-- Node13&#45;&gt;Node15 -->
<g id="edge15" class="edge">
<title>Node13&#45;&gt;Node15</title>
<path fill="none" stroke="#191970" d="M886.6602,-112.3733C908.701,-102.5773 942.8284,-87.4096 966.0025,-77.11"/>
<polygon fill="#191970" stroke="#191970" points="967.4798,-80.2836 975.1965,-73.0238 964.6368,-73.8869 967.4798,-80.2836"/>
</g>
<!-- Node17 -->
<g id="node18" class="node">
<title>Node17</title>
<polygon fill="#ffffff" stroke="#bfbfbf" points="546.5,-.5 546.5,-19.5 589.5,-19.5 589.5,-.5 546.5,-.5"/>
<text text-anchor="middle" x="568" y="-7.5" font-family="Helvetica,sans-Serif" font-size="10.00" fill="#000000">unistd.h</text>
</g>
<!-- Node16&#45;&gt;Node17 -->
<g id="edge19" class="edge">
<title>Node16&#45;&gt;Node17</title>
<path fill="none" stroke="#191970" d="M589.9538,-112.4509C586.0217,-94.1013 577.3409,-53.5908 572.1506,-29.3693"/>
<polygon fill="#191970" stroke="#191970" points="575.5587,-28.5695 570.041,-19.5249 568.7141,-30.0363 575.5587,-28.5695"/>
</g>
<!-- Node18 -->
<g id="node19" class="node">
<title>Node18</title>
<polygon fill="#ffffff" stroke="#bfbfbf" points="596.5,-56.5 596.5,-75.5 633.5,-75.5 633.5,-56.5 596.5,-56.5"/>
<text text-anchor="middle" x="615" y="-63.5" font-family="Helvetica,sans-Serif" font-size="10.00" fill="#000000">cufft.h</text>
</g>
<!-- Node16&#45;&gt;Node18 -->
<g id="edge20" class="edge">
<title>Node16&#45;&gt;Node18</title>
<path fill="none" stroke="#191970" d="M596.0063,-112.2455C599.0735,-104.7776 603.4003,-94.2427 607.1497,-85.1137"/>
<polygon fill="#191970" stroke="#191970" points="610.4779,-86.2226 611.0396,-75.6427 604.0028,-83.5631 610.4779,-86.2226"/>
</g>
<!-- Node19 -->
<g id="node20" class="node">
<title>Node19</title>
<polygon fill="#ffffff" stroke="#bfbfbf" points="489.5,-.5 489.5,-19.5 528.5,-19.5 528.5,-.5 489.5,-.5"/>
<text text-anchor="middle" x="509" y="-7.5" font-family="Helvetica,sans-Serif" font-size="10.00" fill="#000000">cuda.h</text>
</g>
<!-- Node16&#45;&gt;Node19 -->
<g id="edge21" class="edge">
<title>Node16&#45;&gt;Node19</title>
<path fill="none" stroke="#191970" d="M584.9235,-112.4509C571.0188,-93.688 539.9433,-51.7548 522.1599,-27.758"/>
<polygon fill="#191970" stroke="#191970" points="524.8247,-25.4753 516.0586,-19.5249 519.2006,-29.6431 524.8247,-25.4753"/>
</g>
<!-- Node20 -->
<g id="node21" class="node">
<title>Node20</title>
<g id="a_node21"><a xlink:href="../../d8/d7b/cuda_8hpp.html" target="_top" xlink:title="Interface to CUDA related functions. ">
<polygon fill="#ffffff" stroke="#000000" points="426.5,-56.5 426.5,-75.5 473.5,-75.5 473.5,-56.5 426.5,-56.5"/>
<text text-anchor="middle" x="450" y="-63.5" font-family="Helvetica,sans-Serif" font-size="10.00" fill="#000000">cuda.hpp</text>
</a>
</g>
</g>
<!-- Node16&#45;&gt;Node20 -->
<g id="edge22" class="edge">
<title>Node16&#45;&gt;Node20</title>
<path fill="none" stroke="#191970" d="M567.5893,-112.3733C544.2451,-103.1671 508.8704,-89.2165 483.0175,-79.021"/>
<polygon fill="#191970" stroke="#191970" points="484.2071,-75.7278 473.6203,-75.315 481.639,-82.2397 484.2071,-75.7278"/>
</g>
<!-- Node20&#45;&gt;Node3 -->
<g id="edge29" class="edge">
<title>Node20&#45;&gt;Node3</title>
<path fill="none" stroke="#191970" d="M473.6064,-58.7481C501.0669,-50.2938 548.005,-35.7862 597.6925,-20.0746"/>
<polygon fill="#191970" stroke="#191970" points="598.8524,-23.3787 607.3292,-17.0232 596.7392,-16.7053 598.8524,-23.3787"/>
</g>
<!-- Node20&#45;&gt;Node6 -->
<g id="edge32" class="edge">
<title>Node20&#45;&gt;Node6</title>
<path fill="none" stroke="#191970" d="M473.7509,-61.7864C511.1029,-54.9441 585.9639,-40.3603 658.6562,-19.8061"/>
<polygon fill="#191970" stroke="#191970" points="659.7838,-23.1239 668.4307,-17.0016 657.8532,-16.3953 659.7838,-23.1239"/>
</g>
<!-- Node20&#45;&gt;Node17 -->
<g id="edge27" class="edge">
<title>Node20&#45;&gt;Node17</title>
<path fill="none" stroke="#191970" d="M470.2849,-56.3733C489.1421,-47.4241 517.446,-33.9917 538.7455,-23.8835"/>
<polygon fill="#191970" stroke="#191970" points="540.4461,-26.9506 547.9798,-19.5011 537.4449,-20.6266 540.4461,-26.9506"/>
</g>
<!-- Node20&#45;&gt;Node19 -->
<g id="edge24" class="edge">
<title>Node20&#45;&gt;Node19</title>
<path fill="none" stroke="#191970" d="M460.277,-56.2455C468.8218,-48.1352 481.1778,-36.4075 491.3085,-26.7919"/>
<polygon fill="#191970" stroke="#191970" points="493.9972,-29.0655 498.8408,-19.6427 489.1782,-23.9884 493.9972,-29.0655"/>
</g>
<!-- Node21 -->
<g id="node22" class="node">
<title>Node21</title>
<polygon fill="#ffffff" stroke="#bfbfbf" points="198,-.5 198,-19.5 266,-19.5 266,-.5 198,-.5"/>
<text text-anchor="middle" x="232" y="-7.5" font-family="Helvetica,sans-Serif" font-size="10.00" fill="#000000">cuda_runtime.h</text>
</g>
<!-- Node20&#45;&gt;Node21 -->
<g id="edge23" class="edge">
<title>Node20&#45;&gt;Node21</title>
<path fill="none" stroke="#191970" d="M426.2552,-59.9004C390.2447,-50.65 321.2284,-32.9211 275.9062,-21.2786"/>
<polygon fill="#191970" stroke="#191970" points="276.6105,-17.846 266.0541,-18.7478 274.8688,-24.6259 276.6105,-17.846"/>
</g>
<!-- Node22 -->
<g id="node23" class="node">
<title>Node22</title>
<polygon fill="#ffffff" stroke="#bfbfbf" points="284.5,-.5 284.5,-19.5 341.5,-19.5 341.5,-.5 284.5,-.5"/>
<text text-anchor="middle" x="313" y="-7.5" font-family="Helvetica,sans-Serif" font-size="10.00" fill="#000000">cublas_v2.h</text>
</g>
<!-- Node20&#45;&gt;Node22 -->
<g id="edge25" class="edge">
<title>Node20&#45;&gt;Node22</title>
<path fill="none" stroke="#191970" d="M426.4489,-56.3733C404.1609,-47.2629 370.5063,-33.5062 345.6363,-23.3404"/>
<polygon fill="#191970" stroke="#191970" points="346.8247,-20.0451 336.2438,-19.5011 344.1761,-26.5247 346.8247,-20.0451"/>
</g>
<!-- Node23 -->
<g id="node24" class="node">
<title>Node23</title>
<polygon fill="#ffffff" stroke="#bfbfbf" points="359.5,-.5 359.5,-19.5 410.5,-19.5 410.5,-.5 359.5,-.5"/>
<text text-anchor="middle" x="385" y="-7.5" font-family="Helvetica,sans-Serif" font-size="10.00" fill="#000000">execinfo.h</text>
</g>
<!-- Node20&#45;&gt;Node23 -->
<g id="edge26" class="edge">
<title>Node20&#45;&gt;Node23</title>
<path fill="none" stroke="#191970" d="M438.6779,-56.2455C429.0777,-47.9746 415.1108,-35.9416 403.8305,-26.2232"/>
<polygon fill="#191970" stroke="#191970" points="406.053,-23.5182 396.1924,-19.6427 401.484,-28.8214 406.053,-23.5182"/>
</g>
<!-- Node24 -->
<g id="node25" class="node">
<title>Node24</title>
<polygon fill="#ffffff" stroke="#bfbfbf" points="429,-.5 429,-19.5 471,-19.5 471,-.5 429,-.5"/>
<text text-anchor="middle" x="450" y="-7.5" font-family="Helvetica,sans-Serif" font-size="10.00" fill="#000000">signal.h</text>
</g>
<!-- Node20&#45;&gt;Node24 -->
<g id="edge28" class="edge">
<title>Node20&#45;&gt;Node24</title>
<path fill="none" stroke="#191970" d="M450,-56.2455C450,-48.9382 450,-38.6944 450,-29.7046"/>
<polygon fill="#191970" stroke="#191970" points="453.5001,-29.6426 450,-19.6427 446.5001,-29.6427 453.5001,-29.6426"/>
</g>
<!-- Node25 -->
<g id="node26" class="node">
<title>Node25</title>
<polygon fill="#ffffff" stroke="#bfbfbf" points="0,-.5 0,-19.5 60,-19.5 60,-.5 0,-.5"/>
<text text-anchor="middle" x="30" y="-7.5" font-family="Helvetica,sans-Serif" font-size="10.00" fill="#000000">nvToolsExt.h</text>
</g>
<!-- Node20&#45;&gt;Node25 -->
<g id="edge30" class="edge">
<title>Node20&#45;&gt;Node25</title>
<path fill="none" stroke="#191970" d="M426.2046,-64.2164C367.4154,-59.5801 210.4996,-45.8066 70.2165,-20.0225"/>
<polygon fill="#191970" stroke="#191970" points="70.6186,-16.5372 60.1465,-18.1452 69.3357,-23.4187 70.6186,-16.5372"/>
</g>
<!-- Node26 -->
<g id="node27" class="node">
<title>Node26</title>
<polygon fill="#ffffff" stroke="#bfbfbf" points="78,-.5 78,-19.5 122,-19.5 122,-.5 78,-.5"/>
<text text-anchor="middle" x="100" y="-7.5" font-family="Helvetica,sans-Serif" font-size="10.00" fill="#000000">complex</text>
</g>
<!-- Node20&#45;&gt;Node26 -->
<g id="edge31" class="edge">
<title>Node20&#45;&gt;Node26</title>
<path fill="none" stroke="#191970" d="M426.1351,-63.9483C374.2453,-59.1941 247.2186,-45.9693 132.2451,-19.9715"/>
<polygon fill="#191970" stroke="#191970" points="132.7552,-16.4975 122.225,-17.6656 131.1854,-23.3192 132.7552,-16.4975"/>
</g>
<!-- Node27 -->
<g id="node28" class="node">
<title>Node27</title>
<polygon fill="#ffffff" stroke="#bfbfbf" points="140.5,-.5 140.5,-19.5 179.5,-19.5 179.5,-.5 140.5,-.5"/>
<text text-anchor="middle" x="160" y="-7.5" font-family="Helvetica,sans-Serif" font-size="10.00" fill="#000000">stdio.h</text>
</g>
<!-- Node20&#45;&gt;Node27 -->
<g id="edge33" class="edge">
<title>Node20&#45;&gt;Node27</title>
<path fill="none" stroke="#191970" d="M426.3378,-63.1022C381.7778,-57.3758 282.3007,-43.3132 189.367,-19.7401"/>
<polygon fill="#191970" stroke="#191970" points="190.085,-16.3108 179.5277,-17.2016 188.3362,-23.0889 190.085,-16.3108"/>
</g>
<!-- Node28&#45;&gt;Node20 -->
<g id="edge35" class="edge">
<title>Node28&#45;&gt;Node20</title>
<path fill="none" stroke="#191970" d="M494.5939,-112.2455C486.8507,-104.2155 475.688,-92.6394 466.4682,-83.0781"/>
<polygon fill="#191970" stroke="#191970" points="468.7591,-80.4117 459.2983,-75.6427 463.7202,-85.2706 468.7591,-80.4117"/>
</g>
</g>
</svg>
        <g id="navigator" transform="translate(0 0)" fill="#404254">
                <rect fill="#f2f5e9" fill-opacity="0.5" stroke="#606060" stroke-width=".5" x="0" y="0" width="60" height="60"/>
                <use id="zoomplus" xlink:href="#zoomPlus" x="17" y="9" onmousedown="handleZoom(evt,'in')"/>
                <use id="zoomminus" xlink:href="#zoomMin" x="42" y="9" onmousedown="handleZoom(evt,'out')"/>
                <use id="reset" xlink:href="#resetDef" x="30" y="36" onmousedown="handleReset()"/>
                <g id="arrowUp" xlink:href="#dirArrow" transform="translate(30 24)" onmousedown="handlePan(0,-1)">
                  <use xlink:href="#rim" fill="#404040">
                        <set attributeName="fill" to="#808080" begin="arrowUp.mouseover" end="arrowUp.mouseout"/>
                  </use>
                  <path fill="none" stroke="white" stroke-width="1.5" d="M0,-3.0v7 M-2.5,-0.5L0,-3.0L2.5,-0.5"/>
                </g>
                <g id="arrowRight" xlink:href="#dirArrow" transform="rotate(90) translate(36 -43)" onmousedown="handlePan(1,0)">
                  <use xlink:href="#rim" fill="#404040">
                        <set attributeName="fill" to="#808080" begin="arrowRight.mouseover" end="arrowRight.mouseout"/>
                  </use>
                  <path fill="none" stroke="white" stroke-width="1.5" d="M0,-3.0v7 M-2.5,-0.5L0,-3.0L2.5,-0.5"/>
                </g>
                <g id="arrowDown" xlink:href="#dirArrow" transform="rotate(180) translate(-30 -48)" onmousedown="handlePan(0,1)">
                  <use xlink:href="#rim" fill="#404040">
                        <set attributeName="fill" to="#808080" begin="arrowDown.mouseover" end="arrowDown.mouseout"/>
                  </use>
                  <path fill="none" stroke="white" stroke-width="1.5" d="M0,-3.0v7 M-2.5,-0.5L0,-3.0L2.5,-0.5"/>
                </g>
                <g id="arrowLeft" xlink:href="#dirArrow" transform="rotate(270) translate(-36 17)" onmousedown="handlePan(-1,0)">
                  <use xlink:href="#rim" fill="#404040">
                        <set attributeName="fill" to="#808080" begin="arrowLeft.mouseover" end="arrowLeft.mouseout"/>
                  </use>
                  <path fill="none" stroke="white" stroke-width="1.5" d="M0,-3.0v7 M-2.5,-0.5L0,-3.0L2.5,-0.5"/>
                </g>
        </g>
        <svg viewBox="0 0 15 15" width="100%" height="30px" preserveAspectRatio="xMaxYMin meet">
         <g id="arrow_out" transform="scale(0.3 0.3)">
          <a xlink:href="fft3d_8hpp__incl_org.svg" target="_base">
           <rect id="button" ry="5" rx="5" y="6" x="6" height="38" width="38"
                fill="#f2f5e9" fill-opacity="0.5" stroke="#606060" stroke-width="1.0"/>
           <path id="arrow"
             d="M 11.500037,31.436501 C 11.940474,20.09759 22.043105,11.32322 32.158766,21.979434 L 37.068811,17.246167 C 37.068811,17.246167 37.088388,32 37.088388,32 L 22.160133,31.978069 C 22.160133,31.978069 26.997745,27.140456 26.997745,27.140456 C 18.528582,18.264221 13.291696,25.230495 11.500037,31.436501 z"
             style="fill:#404040;"/>
          </a>
         </g>
        </svg>
</svg>
