<?xml version="1.0" encoding="UTF-8" standalone="no"?>
<!DOCTYPE svg PUBLIC "-//W3C//DTD SVG 1.1//EN"
 "http://www.w3.org/Graphics/SVG/1.1/DTD/svg11.dtd">
<!-- Generated by graphviz version 2.40.1 (20161225.0304)
 -->
<!-- Title: nlohmann::detail::is_compatible_array_type_impl&lt; BasicJsonType, CompatibleArrayType, typename &gt; Pages: 1 -->
<svg width="181pt" height="206pt"
 viewBox="0.00 0.00 181.00 206.00" xmlns="http://www.w3.org/2000/svg" xmlns:xlink="http://www.w3.org/1999/xlink">
<g id="graph0" class="graph" transform="scale(1 1) rotate(0) translate(4 202)">
<title>nlohmann::detail::is_compatible_array_type_impl&lt; BasicJsonType, CompatibleArrayType, typename &gt;</title>
<polygon fill="#ffffff" stroke="transparent" points="-4,4 -4,-202 177,-202 177,4 -4,4"/>
<!-- Node1 -->
<g id="node1" class="node">
<title>Node1</title>
<g id="a_node1"><a xlink:title=" ">
<polygon fill="#bfbfbf" stroke="#000000" points="0,-89.5 0,-141.5 173,-141.5 173,-89.5 0,-89.5"/>
<text text-anchor="start" x="8" y="-129.5" font-family="Helvetica,sans-Serif" font-size="10.00" fill="#000000">nlohmann::detail::is</text>
<text text-anchor="start" x="8" y="-118.5" font-family="Helvetica,sans-Serif" font-size="10.00" fill="#000000">_compatible_array_type</text>
<text text-anchor="start" x="8" y="-107.5" font-family="Helvetica,sans-Serif" font-size="10.00" fill="#000000">_impl&lt; BasicJsonType, Compatible</text>
<text text-anchor="middle" x="86.5" y="-96.5" font-family="Helvetica,sans-Serif" font-size="10.00" fill="#000000">ArrayType, typename &gt;</text>
</a>
</g>
</g>
<!-- Node3 -->
<g id="node3" class="node">
<title>Node3</title>
<g id="a_node3"><a xlink:href="../../d8/d94/structnlohmann_1_1detail_1_1is__compatible__array__type.html" target="_top" xlink:title=" ">
<polygon fill="#ffffff" stroke="#000000" points="0,-.5 0,-52.5 173,-52.5 173,-.5 0,-.5"/>
<text text-anchor="start" x="8" y="-40.5" font-family="Helvetica,sans-Serif" font-size="10.00" fill="#000000">nlohmann::detail::is</text>
<text text-anchor="start" x="8" y="-29.5" font-family="Helvetica,sans-Serif" font-size="10.00" fill="#000000">_compatible_array_type</text>
<text text-anchor="start" x="8" y="-18.5" font-family="Helvetica,sans-Serif" font-size="10.00" fill="#000000">&lt; BasicJsonType, CompatibleArray</text>
<text text-anchor="middle" x="86.5" y="-7.5" font-family="Helvetica,sans-Serif" font-size="10.00" fill="#000000">Type &gt;</text>
</a>
</g>
</g>
<!-- Node1&#45;&gt;Node3 -->
<g id="edge2" class="edge">
<title>Node1&#45;&gt;Node3</title>
<path fill="none" stroke="#191970" d="M86.5,-79.1155C86.5,-70.2061 86.5,-60.8475 86.5,-52.5341"/>
<polygon fill="#191970" stroke="#191970" points="83.0001,-79.2784 86.5,-89.2784 90.0001,-79.2785 83.0001,-79.2784"/>
</g>
<!-- Node2 -->
<g id="node2" class="node">
<title>Node2</title>
<g id="a_node2"><a xlink:title=" ">
<polygon fill="#ffffff" stroke="#bfbfbf" points="46,-178.5 46,-197.5 127,-197.5 127,-178.5 46,-178.5"/>
<text text-anchor="middle" x="86.5" y="-185.5" font-family="Helvetica,sans-Serif" font-size="10.00" fill="#000000">std::false_type</text>
</a>
</g>
</g>
<!-- Node2&#45;&gt;Node1 -->
<g id="edge1" class="edge">
<title>Node2&#45;&gt;Node1</title>
<path fill="none" stroke="#191970" d="M86.5,-168.1515C86.5,-159.9677 86.5,-150.3707 86.5,-141.6277"/>
<polygon fill="#191970" stroke="#191970" points="83.0001,-168.2223 86.5,-178.2223 90.0001,-168.2224 83.0001,-168.2223"/>
</g>
</g>
</svg>
