<?xml version="1.0" encoding="UTF-8" standalone="no"?>
<!DOCTYPE svg PUBLIC "-//W3C//DTD SVG 1.1//EN"
 "http://www.w3.org/Graphics/SVG/1.1/DTD/svg11.dtd">
<!-- Generated by graphviz version 2.40.1 (20161225.0304)
 -->
<!-- Title: sirius::Unit_cell Pages: 1 -->
<svg width="748pt" height="368pt"
 viewBox="0.00 0.00 748.00 368.00" xmlns="http://www.w3.org/2000/svg" xmlns:xlink="http://www.w3.org/1999/xlink">
<g id="graph0" class="graph" transform="scale(1 1) rotate(0) translate(4 364)">
<title>sirius::Unit_cell</title>
<polygon fill="#ffffff" stroke="transparent" points="-4,4 -4,-364 744,-364 744,4 -4,4"/>
<!-- Node1 -->
<g id="node1" class="node">
<title>Node1</title>
<polygon fill="#bfbfbf" stroke="#000000" points="673,-268.5 673,-287.5 740,-287.5 740,-268.5 673,-268.5"/>
<text text-anchor="middle" x="706.5" y="-275.5" font-family="Helvetica,sans-Serif" font-size="10.00" fill="#000000">sirius::Unit_cell</text>
</g>
<!-- Node2 -->
<g id="node2" class="node">
<title>Node2</title>
<g id="a_node2"><a xlink:href="../../d7/d14/classsddk_1_1_communicator__bundle.html" target="_top" xlink:title="A bundle of MPI communicators. ">
<polygon fill="#ffffff" stroke="#000000" points="461.5,-291 461.5,-321 546.5,-321 546.5,-291 461.5,-291"/>
<text text-anchor="start" x="469.5" y="-309" font-family="Helvetica,sans-Serif" font-size="10.00" fill="#000000">sddk::Communicator</text>
<text text-anchor="middle" x="504" y="-298" font-family="Helvetica,sans-Serif" font-size="10.00" fill="#000000">_bundle</text>
</a>
</g>
</g>
<!-- Node2&#45;&gt;Node1 -->
<g id="edge1" class="edge">
<title>Node2&#45;&gt;Node1</title>
<path fill="none" stroke="#9a32cd" stroke-dasharray="5,2" d="M557.1589,-301.9806C586.1901,-299.3809 622.7042,-295.4523 655,-290 660.7935,-289.0219 666.909,-287.7829 672.8235,-286.4745"/>
<polygon fill="#9a32cd" stroke="#9a32cd" points="556.4829,-298.5261 546.8235,-302.8786 557.0889,-305.4998 556.4829,-298.5261"/>
<text text-anchor="middle" x="612" y="-303" font-family="Helvetica,sans-Serif" font-size="10.00" fill="#000000"> comm_bundle_atoms_</text>
</g>
<!-- Node3 -->
<g id="node3" class="node">
<title>Node3</title>
<g id="a_node3"><a xlink:href="../../da/d70/classsddk_1_1_communicator.html" target="_top" xlink:title="MPI communicator wrapper. ">
<polygon fill="#ffffff" stroke="#000000" points="256,-330.5 256,-349.5 341,-349.5 341,-330.5 256,-330.5"/>
<text text-anchor="middle" x="298.5" y="-337.5" font-family="Helvetica,sans-Serif" font-size="10.00" fill="#000000">sddk::Communicator</text>
</a>
</g>
</g>
<!-- Node3&#45;&gt;Node1 -->
<g id="edge5" class="edge">
<title>Node3&#45;&gt;Node1</title>
<path fill="none" stroke="#9a32cd" stroke-dasharray="5,2" d="M351.1679,-346.2647C422.8308,-352.6126 553.7232,-356.373 655,-315 670.899,-308.5051 686.545,-296.1863 696.3424,-287.5534"/>
<polygon fill="#9a32cd" stroke="#9a32cd" points="351.3182,-342.7635 341.035,-345.3144 350.6645,-349.7329 351.3182,-342.7635"/>
<text text-anchor="middle" x="504" y="-352" font-family="Helvetica,sans-Serif" font-size="10.00" fill="#000000"> comm_</text>
</g>
<!-- Node3&#45;&gt;Node2 -->
<g id="edge2" class="edge">
<title>Node3&#45;&gt;Node2</title>
<path fill="none" stroke="#9a32cd" stroke-dasharray="5,2" d="M351.3601,-331.2543C385.5712,-325.5941 429.5261,-318.3217 461.4748,-313.0358"/>
<polygon fill="#9a32cd" stroke="#9a32cd" points="350.3743,-327.8697 341.0797,-332.9552 351.5169,-334.7758 350.3743,-327.8697"/>
<text text-anchor="middle" x="400" y="-332" font-family="Helvetica,sans-Serif" font-size="10.00" fill="#000000"> comm_</text>
</g>
<!-- Node4 -->
<g id="node4" class="node">
<title>Node4</title>
<g id="a_node4"><a xlink:href="../../d2/dc9/classsddk_1_1splindex.html" target="_top" xlink:title="sddk::splindex\&lt; block \&gt;">
<polygon fill="#ffffff" stroke="#000000" points="457,-246.5 457,-265.5 551,-265.5 551,-246.5 457,-246.5"/>
<text text-anchor="middle" x="504" y="-253.5" font-family="Helvetica,sans-Serif" font-size="10.00" fill="#000000">sddk::splindex&lt; block &gt;</text>
</a>
</g>
</g>
<!-- Node4&#45;&gt;Node1 -->
<g id="edge3" class="edge">
<title>Node4&#45;&gt;Node1</title>
<path fill="none" stroke="#9a32cd" stroke-dasharray="5,2" d="M551.8291,-244.6483C581.973,-239.4832 621.4067,-236.4132 655,-246 670.1834,-250.333 685.2549,-260.5746 695.1328,-268.313"/>
<polygon fill="#9a32cd" stroke="#9a32cd" points="551.1832,-241.2083 541.9844,-246.465 552.4535,-248.0921 551.1832,-241.2083"/>
<text text-anchor="middle" x="612" y="-282" font-family="Helvetica,sans-Serif" font-size="10.00" fill="#000000"> spl_num_paw_atoms_</text>
<text text-anchor="middle" x="612" y="-271" font-family="Helvetica,sans-Serif" font-size="10.00" fill="#000000">spl_num_atoms_</text>
<text text-anchor="start" x="569" y="-260" font-family="Helvetica,sans-Serif" font-size="10.00" fill="#000000">spl_num_atom_symmetry</text>
<text text-anchor="middle" x="612" y="-249" font-family="Helvetica,sans-Serif" font-size="10.00" fill="#000000">_classes_</text>
</g>
<!-- Node5 -->
<g id="node5" class="node">
<title>Node5</title>
<g id="a_node5"><a xlink:href="../../d6/dec/classsddk_1_1splindex__base.html" target="_top" xlink:title="sddk::splindex_base\l\&lt; int \&gt;">
<polygon fill="#ffffff" stroke="#000000" points="256.5,-252 256.5,-282 340.5,-282 340.5,-252 256.5,-252"/>
<text text-anchor="start" x="264.5" y="-270" font-family="Helvetica,sans-Serif" font-size="10.00" fill="#000000">sddk::splindex_base</text>
<text text-anchor="middle" x="298.5" y="-259" font-family="Helvetica,sans-Serif" font-size="10.00" fill="#000000">&lt; int &gt;</text>
</a>
</g>
</g>
<!-- Node5&#45;&gt;Node4 -->
<g id="edge4" class="edge">
<title>Node5&#45;&gt;Node4</title>
<path fill="none" stroke="#191970" d="M350.8562,-264.1975C383.5553,-262.4472 425.3045,-260.2124 456.9508,-258.5184"/>
<polygon fill="#191970" stroke="#191970" points="350.3805,-260.7178 340.5819,-264.7474 350.7547,-267.7078 350.3805,-260.7178"/>
</g>
<!-- Node6 -->
<g id="node6" class="node">
<title>Node6</title>
<g id="a_node6"><a xlink:href="../../d0/d04/classsirius_1_1_simulation__parameters.html" target="_top" xlink:title="Set of basic parameters of a simulation. ">
<polygon fill="#ffffff" stroke="#000000" points="467.5,-121 467.5,-151 540.5,-151 540.5,-121 467.5,-121"/>
<text text-anchor="start" x="475.5" y="-139" font-family="Helvetica,sans-Serif" font-size="10.00" fill="#000000">sirius::Simulation</text>
<text text-anchor="middle" x="504" y="-128" font-family="Helvetica,sans-Serif" font-size="10.00" fill="#000000">_parameters</text>
</a>
</g>
</g>
<!-- Node6&#45;&gt;Node1 -->
<g id="edge6" class="edge">
<title>Node6&#45;&gt;Node1</title>
<path fill="none" stroke="#9a32cd" stroke-dasharray="5,2" d="M544.3696,-155.5472C575.9593,-171.7578 620.2133,-196.5319 655,-224 672.2847,-237.6482 689.3235,-256.9828 698.8209,-268.4329"/>
<polygon fill="#9a32cd" stroke="#9a32cd" points="545.9081,-152.4031 535.4063,-151.0026 542.7426,-158.6465 545.9081,-152.4031"/>
<text text-anchor="middle" x="612" y="-227" font-family="Helvetica,sans-Serif" font-size="10.00" fill="#000000"> parameters_</text>
</g>
<!-- Node7 -->
<g id="node7" class="node">
<title>Node7</title>
<g id="a_node7"><a xlink:href="../../d4/d6e/structsirius_1_1_parameters__input.html" target="_top" xlink:title="sirius::Parameters\l_input">
<polygon fill="#ffffff" stroke="#000000" points="260,-203 260,-233 337,-233 337,-203 260,-203"/>
<text text-anchor="start" x="268" y="-221" font-family="Helvetica,sans-Serif" font-size="10.00" fill="#000000">sirius::Parameters</text>
<text text-anchor="middle" x="298.5" y="-210" font-family="Helvetica,sans-Serif" font-size="10.00" fill="#000000">_input</text>
</a>
</g>
</g>
<!-- Node7&#45;&gt;Node6 -->
<g id="edge7" class="edge">
<title>Node7&#45;&gt;Node6</title>
<path fill="none" stroke="#9a32cd" stroke-dasharray="5,2" d="M347.0533,-208.4816C374.7412,-202.0895 409.6623,-192.3699 439,-179 455.3753,-171.5374 472.28,-160.2226 484.7441,-151.0726"/>
<polygon fill="#9a32cd" stroke="#9a32cd" points="346.1973,-205.0866 337.2035,-210.6867 347.7266,-211.9175 346.1973,-205.0866"/>
<text text-anchor="middle" x="400" y="-207" font-family="Helvetica,sans-Serif" font-size="10.00" fill="#000000"> parameters_input_</text>
</g>
<!-- Node8 -->
<g id="node8" class="node">
<title>Node8</title>
<g id="a_node8"><a xlink:href="../../da/de3/structsirius_1_1_control__input.html" target="_top" xlink:title="Parse control input section. ">
<polygon fill="#ffffff" stroke="#000000" points="257,-164.5 257,-183.5 340,-183.5 340,-164.5 257,-164.5"/>
<text text-anchor="middle" x="298.5" y="-171.5" font-family="Helvetica,sans-Serif" font-size="10.00" fill="#000000">sirius::Control_input</text>
</a>
</g>
</g>
<!-- Node8&#45;&gt;Node6 -->
<g id="edge8" class="edge">
<title>Node8&#45;&gt;Node6</title>
<path fill="none" stroke="#9a32cd" stroke-dasharray="5,2" d="M350.3544,-166.3297C376.934,-162.191 409.7768,-156.7576 439,-151 448.2039,-149.1866 458.0908,-147.0191 467.3071,-144.903"/>
<polygon fill="#9a32cd" stroke="#9a32cd" points="349.4736,-162.9241 340.1238,-167.9072 350.5404,-169.8423 349.4736,-162.9241"/>
<text text-anchor="middle" x="400" y="-167" font-family="Helvetica,sans-Serif" font-size="10.00" fill="#000000"> control_input_</text>
</g>
<!-- Node9 -->
<g id="node9" class="node">
<title>Node9</title>
<g id="a_node9"><a xlink:href="../../d6/de3/structsirius_1_1_settings__input.html" target="_top" xlink:title="Settings control the internal parameters related to the numerical implementation. ...">
<polygon fill="#ffffff" stroke="#000000" points="255.5,-126.5 255.5,-145.5 341.5,-145.5 341.5,-126.5 255.5,-126.5"/>
<text text-anchor="middle" x="298.5" y="-133.5" font-family="Helvetica,sans-Serif" font-size="10.00" fill="#000000">sirius::Settings_input</text>
</a>
</g>
</g>
<!-- Node9&#45;&gt;Node6 -->
<g id="edge9" class="edge">
<title>Node9&#45;&gt;Node6</title>
<path fill="none" stroke="#9a32cd" stroke-dasharray="5,2" d="M351.9657,-136C388.1771,-136 435.0899,-136 467.1681,-136"/>
<polygon fill="#9a32cd" stroke="#9a32cd" points="351.5796,-132.5001 341.5795,-136 351.5795,-139.5001 351.5796,-132.5001"/>
<text text-anchor="middle" x="400" y="-139" font-family="Helvetica,sans-Serif" font-size="10.00" fill="#000000"> settings_input_</text>
</g>
<!-- Node10 -->
<g id="node10" class="node">
<title>Node10</title>
<g id="a_node10"><a xlink:href="../../d7/d51/structsirius_1_1_unit__cell__input.html" target="_top" xlink:title="Parse unit cell input section. ">
<polygon fill="#ffffff" stroke="#000000" points="255,-88.5 255,-107.5 342,-107.5 342,-88.5 255,-88.5"/>
<text text-anchor="middle" x="298.5" y="-95.5" font-family="Helvetica,sans-Serif" font-size="10.00" fill="#000000">sirius::Unit_cell_input</text>
</a>
</g>
</g>
<!-- Node10&#45;&gt;Node6 -->
<g id="edge10" class="edge">
<title>Node10&#45;&gt;Node6</title>
<path fill="none" stroke="#9a32cd" stroke-dasharray="5,2" d="M352.4111,-105.9912C378.6159,-110.0878 410.5261,-115.39 439,-121 448.2039,-122.8134 458.0908,-124.9809 467.3071,-127.097"/>
<polygon fill="#9a32cd" stroke="#9a32cd" points="352.7164,-102.4968 342.2986,-104.4256 351.6454,-109.4144 352.7164,-102.4968"/>
<text text-anchor="middle" x="400" y="-124" font-family="Helvetica,sans-Serif" font-size="10.00" fill="#000000"> unit_cell_input_</text>
</g>
<!-- Node11 -->
<g id="node11" class="node">
<title>Node11</title>
<g id="a_node11"><a xlink:href="../../d2/d6b/classgeometry3d_1_1vector3d.html" target="_top" xlink:title="geometry3d::vector3d\l\&lt; double \&gt;">
<polygon fill="#ffffff" stroke="#000000" points="114,-83 114,-113 203,-113 203,-83 114,-83"/>
<text text-anchor="start" x="122" y="-101" font-family="Helvetica,sans-Serif" font-size="10.00" fill="#000000">geometry3d::vector3d</text>
<text text-anchor="middle" x="158.5" y="-90" font-family="Helvetica,sans-Serif" font-size="10.00" fill="#000000">&lt; double &gt;</text>
</a>
</g>
</g>
<!-- Node11&#45;&gt;Node10 -->
<g id="edge11" class="edge">
<title>Node11&#45;&gt;Node10</title>
<path fill="none" stroke="#9a32cd" stroke-dasharray="5,2" d="M213.4582,-98C227.1505,-98 241.6485,-98 254.7206,-98"/>
<polygon fill="#9a32cd" stroke="#9a32cd" points="213.1818,-94.5001 203.1818,-98 213.1818,-101.5001 213.1818,-94.5001"/>
<text text-anchor="middle" x="228.5" y="-123" font-family="Helvetica,sans-Serif" font-size="10.00" fill="#000000"> a2_</text>
<text text-anchor="middle" x="228.5" y="-112" font-family="Helvetica,sans-Serif" font-size="10.00" fill="#000000">a1_</text>
<text text-anchor="middle" x="228.5" y="-101" font-family="Helvetica,sans-Serif" font-size="10.00" fill="#000000">a0_</text>
</g>
<!-- Node12 -->
<g id="node12" class="node">
<title>Node12</title>
<polygon fill="#ffffff" stroke="#bfbfbf" points="0,-83 0,-113 77,-113 77,-83 0,-83"/>
<text text-anchor="start" x="8" y="-101" font-family="Helvetica,sans-Serif" font-size="10.00" fill="#000000">std::array&lt; double</text>
<text text-anchor="middle" x="38.5" y="-90" font-family="Helvetica,sans-Serif" font-size="10.00" fill="#000000"> , 3 &gt;</text>
</g>
<!-- Node12&#45;&gt;Node11 -->
<g id="edge12" class="edge">
<title>Node12&#45;&gt;Node11</title>
<path fill="none" stroke="#191970" d="M87.2034,-98C95.9552,-98 105.0396,-98 113.6751,-98"/>
<polygon fill="#191970" stroke="#191970" points="87.1293,-94.5001 77.1293,-98 87.1293,-101.5001 87.1293,-94.5001"/>
</g>
<!-- Node13 -->
<g id="node13" class="node">
<title>Node13</title>
<g id="a_node13"><a xlink:href="../../d2/d11/structsirius_1_1_iterative__solver__input.html" target="_top" xlink:title="sirius::Iterative_solver\l_input">
<polygon fill="#ffffff" stroke="#000000" points="254,-39 254,-69 343,-69 343,-39 254,-39"/>
<text text-anchor="start" x="262" y="-57" font-family="Helvetica,sans-Serif" font-size="10.00" fill="#000000">sirius::Iterative_solver</text>
<text text-anchor="middle" x="298.5" y="-46" font-family="Helvetica,sans-Serif" font-size="10.00" fill="#000000">_input</text>
</a>
</g>
</g>
<!-- Node13&#45;&gt;Node6 -->
<g id="edge13" class="edge">
<title>Node13&#45;&gt;Node6</title>
<path fill="none" stroke="#9a32cd" stroke-dasharray="5,2" d="M353.0795,-64.3366C379.7192,-70.4792 411.8057,-79.5411 439,-92 455.7249,-99.6624 472.8862,-111.4794 485.3726,-120.9383"/>
<polygon fill="#9a32cd" stroke="#9a32cd" points="353.6799,-60.8846 343.1579,-62.1244 352.1565,-67.7168 353.6799,-60.8846"/>
<text text-anchor="middle" x="400" y="-95" font-family="Helvetica,sans-Serif" font-size="10.00" fill="#000000"> iterative_solver_input_</text>
</g>
<!-- Node14 -->
<g id="node14" class="node">
<title>Node14</title>
<g id="a_node14"><a xlink:href="../../d4/db0/structsirius_1_1_mixer__input.html" target="_top" xlink:title="Parse mixer input section. ">
<polygon fill="#ffffff" stroke="#000000" points="260,-.5 260,-19.5 337,-19.5 337,-.5 260,-.5"/>
<text text-anchor="middle" x="298.5" y="-7.5" font-family="Helvetica,sans-Serif" font-size="10.00" fill="#000000">sirius::Mixer_input</text>
</a>
</g>
</g>
<!-- Node14&#45;&gt;Node6 -->
<g id="edge14" class="edge">
<title>Node14&#45;&gt;Node6</title>
<path fill="none" stroke="#9a32cd" stroke-dasharray="5,2" d="M347.2825,-16.4419C375.9318,-22.0368 411.748,-32.3183 439,-51 465.508,-69.1717 485.873,-101.6011 496.292,-120.7193"/>
<polygon fill="#9a32cd" stroke="#9a32cd" points="347.5459,-12.9325 337.0809,-14.5858 346.2928,-19.8194 347.5459,-12.9325"/>
<text text-anchor="middle" x="400" y="-54" font-family="Helvetica,sans-Serif" font-size="10.00" fill="#000000"> mixer_input_</text>
</g>
</g>
</svg>
