<?xml version="1.0" encoding="UTF-8" standalone="no"?>
<!DOCTYPE svg PUBLIC "-//W3C//DTD SVG 1.1//EN"
 "http://www.w3.org/Graphics/SVG/1.1/DTD/svg11.dtd">
<!-- Generated by graphviz version 2.40.1 (20161225.0304)
 -->
<!-- Title: sirius::Smooth_periodic_function&lt; T &gt; Pages: 1 -->
<svg width="963pt" height="505pt"
 viewBox="0.00 0.00 963.00 504.50" xmlns="http://www.w3.org/2000/svg" xmlns:xlink="http://www.w3.org/1999/xlink">
<g id="graph0" class="graph" transform="scale(1 1) rotate(0) translate(4 500.5)">
<title>sirius::Smooth_periodic_function&lt; T &gt;</title>
<polygon fill="#ffffff" stroke="transparent" points="-4,4 -4,-500.5 959,-500.5 959,4 -4,4"/>
<!-- Node1 -->
<g id="node1" class="node">
<title>Node1</title>
<g id="a_node1"><a xlink:title="Representation of a smooth (Fourier&#45;transformable) periodic function.">
<polygon fill="#bfbfbf" stroke="#000000" points="835,-378.5 835,-408.5 955,-408.5 955,-378.5 835,-378.5"/>
<text text-anchor="start" x="843" y="-396.5" font-family="Helvetica,sans-Serif" font-size="10.00" fill="#000000">sirius::Smooth_periodic</text>
<text text-anchor="middle" x="895" y="-385.5" font-family="Helvetica,sans-Serif" font-size="10.00" fill="#000000">_function&lt; T &gt;</text>
</a>
</g>
</g>
<!-- Node2 -->
<g id="node2" class="node">
<title>Node2</title>
<g id="a_node2"><a xlink:href="../../d7/dab/classsddk_1_1mdarray.html" target="_top" xlink:title=" ">
<polygon fill="#ffffff" stroke="#000000" points="620,-422.5 620,-452.5 746,-452.5 746,-422.5 620,-422.5"/>
<text text-anchor="start" x="628" y="-440.5" font-family="Helvetica,sans-Serif" font-size="10.00" fill="#000000">sddk::mdarray&lt; complex</text>
<text text-anchor="middle" x="683" y="-429.5" font-family="Helvetica,sans-Serif" font-size="10.00" fill="#000000">_type&lt; T &gt;, 1 &gt;</text>
</a>
</g>
</g>
<!-- Node2&#45;&gt;Node1 -->
<g id="edge1" class="edge">
<title>Node2&#45;&gt;Node1</title>
<path fill="none" stroke="#9a32cd" stroke-dasharray="5,2" d="M756.0855,-422.3313C781.7483,-417.0051 810.2684,-411.0858 834.7566,-406.0033"/>
<polygon fill="#9a32cd" stroke="#9a32cd" points="755.1131,-418.9585 746.033,-424.4177 756.5356,-425.8124 755.1131,-418.9585"/>
<text text-anchor="middle" x="790.5" y="-432.5" font-family="Helvetica,sans-Serif" font-size="10.00" fill="#000000"> f_pw_fft_</text>
<text text-anchor="middle" x="790.5" y="-421.5" font-family="Helvetica,sans-Serif" font-size="10.00" fill="#000000">f_pw_local_</text>
</g>
<!-- Node3 -->
<g id="node3" class="node">
<title>Node3</title>
<g id="a_node3"><a xlink:href="../../d7/dab/classsddk_1_1mdarray.html" target="_top" xlink:title=" ">
<polygon fill="#ffffff" stroke="#000000" points="626,-384 626,-403 740,-403 740,-384 626,-384"/>
<text text-anchor="middle" x="683" y="-391" font-family="Helvetica,sans-Serif" font-size="10.00" fill="#000000">sddk::mdarray&lt; T, 1 &gt;</text>
</a>
</g>
</g>
<!-- Node3&#45;&gt;Node1 -->
<g id="edge2" class="edge">
<title>Node3&#45;&gt;Node1</title>
<path fill="none" stroke="#9a32cd" stroke-dasharray="5,2" d="M750.2801,-393.5C777.4137,-393.5 808.4715,-393.5 834.8413,-393.5"/>
<polygon fill="#9a32cd" stroke="#9a32cd" points="750.091,-390.0001 740.091,-393.5 750.091,-397.0001 750.091,-390.0001"/>
<text text-anchor="middle" x="790.5" y="-396.5" font-family="Helvetica,sans-Serif" font-size="10.00" fill="#000000"> f_rg_</text>
</g>
<!-- Node4 -->
<g id="node4" class="node">
<title>Node4</title>
<g id="a_node4"><a xlink:href="../../d7/def/classsddk_1_1_gvec__partition.html" target="_top" xlink:title="Stores information about G&#45;vector partitioning between MPI ranks for the FFT transformation.">
<polygon fill="#ffffff" stroke="#000000" points="629,-346 629,-365 737,-365 737,-346 629,-346"/>
<text text-anchor="middle" x="683" y="-353" font-family="Helvetica,sans-Serif" font-size="10.00" fill="#000000">sddk::Gvec_partition</text>
</a>
</g>
</g>
<!-- Node4&#45;&gt;Node1 -->
<g id="edge3" class="edge">
<title>Node4&#45;&gt;Node1</title>
<path fill="none" stroke="#9a32cd" stroke-dasharray="5,2" d="M747.1213,-366.2377C769.2746,-370.0186 794.2435,-374.3593 817,-378.5 822.8338,-379.5615 828.9085,-380.6896 834.9785,-381.832"/>
<polygon fill="#9a32cd" stroke="#9a32cd" points="747.6045,-362.7696 737.159,-364.5426 746.4302,-369.6705 747.6045,-362.7696"/>
<text text-anchor="middle" x="790.5" y="-381.5" font-family="Helvetica,sans-Serif" font-size="10.00" fill="#000000"> gvecp_</text>
</g>
<!-- Node5 -->
<g id="node5" class="node">
<title>Node5</title>
<g id="a_node5"><a xlink:href="../../d7/dab/classsddk_1_1mdarray.html" target="_top" xlink:title=" ">
<polygon fill="#ffffff" stroke="#000000" points="412,-477 412,-496 531,-496 531,-477 412,-477"/>
<text text-anchor="middle" x="471.5" y="-484" font-family="Helvetica,sans-Serif" font-size="10.00" fill="#000000">sddk::mdarray&lt; int, 2 &gt;</text>
</a>
</g>
</g>
<!-- Node5&#45;&gt;Node4 -->
<g id="edge4" class="edge">
<title>Node5&#45;&gt;Node4</title>
<path fill="none" stroke="#9a32cd" stroke-dasharray="5,2" d="M540.935,-474.6651C563.071,-467.7485 585.9552,-456.805 602,-439.5 622.3808,-417.5184 599.0463,-395.9361 620,-374.5 623.7532,-370.6604 628.2518,-367.5902 633.0956,-365.1363"/>
<polygon fill="#9a32cd" stroke="#9a32cd" points="539.8196,-471.344 531.1815,-477.4786 541.7598,-478.0698 539.8196,-471.344"/>
<text text-anchor="middle" x="575.5" y="-473.5" font-family="Helvetica,sans-Serif" font-size="10.00" fill="#000000"> rank_map_</text>
</g>
<!-- Node6 -->
<g id="node6" class="node">
<title>Node6</title>
<g id="a_node6"><a xlink:href="../../d7/dab/classsddk_1_1mdarray.html" target="_top" xlink:title=" ">
<polygon fill="#ffffff" stroke="#000000" points="145,-388 145,-407 264,-407 264,-388 145,-388"/>
<text text-anchor="middle" x="204.5" y="-395" font-family="Helvetica,sans-Serif" font-size="10.00" fill="#000000">sddk::mdarray&lt; int, 1 &gt;</text>
</a>
</g>
</g>
<!-- Node6&#45;&gt;Node4 -->
<g id="edge5" class="edge">
<title>Node6&#45;&gt;Node4</title>
<path fill="none" stroke="#9a32cd" stroke-dasharray="5,2" d="M274.7783,-404.4342C280.9361,-404.8655 287.0762,-405.2328 293,-405.5 398.9089,-410.2771 426.4789,-407.244 531,-389.5 570.3229,-382.8244 614.7923,-372.5542 645.4236,-365.0478"/>
<polygon fill="#9a32cd" stroke="#9a32cd" points="274.6682,-400.916 264.4333,-403.6542 274.1418,-407.8962 274.6682,-400.916"/>
<text text-anchor="middle" x="471.5" y="-430.5" font-family="Helvetica,sans-Serif" font-size="10.00" fill="#000000"> idx_gvec_</text>
<text text-anchor="middle" x="471.5" y="-419.5" font-family="Helvetica,sans-Serif" font-size="10.00" fill="#000000">idx_zcol_</text>
<text text-anchor="middle" x="471.5" y="-408.5" font-family="Helvetica,sans-Serif" font-size="10.00" fill="#000000">zcol_offs_</text>
</g>
<!-- Node9 -->
<g id="node9" class="node">
<title>Node9</title>
<g id="a_node9"><a xlink:href="../../dc/d9b/classsddk_1_1_gvec.html" target="_top" xlink:title="A set of G&#45;vectors for FFTs and G+k basis functions.">
<polygon fill="#ffffff" stroke="#000000" points="438,-192 438,-211 505,-211 505,-192 438,-192"/>
<text text-anchor="middle" x="471.5" y="-199" font-family="Helvetica,sans-Serif" font-size="10.00" fill="#000000">sddk::Gvec</text>
</a>
</g>
</g>
<!-- Node6&#45;&gt;Node9 -->
<g id="edge11" class="edge">
<title>Node6&#45;&gt;Node9</title>
<path fill="none" stroke="#9a32cd" stroke-dasharray="5,2" d="M267.9583,-385.8742C316.0038,-375.8088 376.6037,-359.9827 394,-341.5 418.3844,-315.5929 395.074,-294.7936 412,-263.5 423.7819,-241.7171 445.3022,-222.1147 458.9774,-211.024"/>
<polygon fill="#9a32cd" stroke="#9a32cd" points="267.0095,-382.4958 257.9165,-387.9334 268.4158,-389.3531 267.0095,-382.4958"/>
<text text-anchor="middle" x="343.5" y="-393.5" font-family="Helvetica,sans-Serif" font-size="10.00" fill="#000000"> gvec_base_mapping_</text>
<text text-anchor="middle" x="343.5" y="-382.5" font-family="Helvetica,sans-Serif" font-size="10.00" fill="#000000">gvec_shell_</text>
</g>
<!-- Node7 -->
<g id="node7" class="node">
<title>Node7</title>
<g id="a_node7"><a xlink:href="../../db/dea/structsddk_1_1block__data__descriptor.html" target="_top" xlink:title=" ">
<polygon fill="#ffffff" stroke="#000000" points="134,-337 134,-356 275,-356 275,-337 134,-337"/>
<text text-anchor="middle" x="204.5" y="-344" font-family="Helvetica,sans-Serif" font-size="10.00" fill="#000000">sddk::block_data_descriptor</text>
</a>
</g>
</g>
<!-- Node7&#45;&gt;Node4 -->
<g id="edge6" class="edge">
<title>Node7&#45;&gt;Node4</title>
<path fill="none" stroke="#9a32cd" stroke-dasharray="5,2" d="M285.2344,-348.0185C382.9803,-349.857 544.9046,-352.9026 628.8263,-354.4811"/>
<polygon fill="#9a32cd" stroke="#9a32cd" points="285.1684,-344.5168 275.1043,-347.828 285.0367,-351.5155 285.1684,-344.5168"/>
<text text-anchor="middle" x="471.5" y="-377.5" font-family="Helvetica,sans-Serif" font-size="10.00" fill="#000000"> gvec_distr_fft_</text>
<text text-anchor="middle" x="471.5" y="-366.5" font-family="Helvetica,sans-Serif" font-size="10.00" fill="#000000">gvec_fft_slab_</text>
<text text-anchor="middle" x="471.5" y="-355.5" font-family="Helvetica,sans-Serif" font-size="10.00" fill="#000000">zcol_distr_fft_</text>
</g>
<!-- Node7&#45;&gt;Node9 -->
<g id="edge12" class="edge">
<title>Node7&#45;&gt;Node9</title>
<path fill="none" stroke="#9a32cd" stroke-dasharray="5,2" d="M243.4405,-333.7172C290.982,-317.7654 368.2385,-290.6262 394,-274.5 422.828,-256.4542 450.2524,-226.6373 463.3982,-211.2928"/>
<polygon fill="#9a32cd" stroke="#9a32cd" points="242.1532,-330.457 233.776,-336.9433 244.3697,-337.0968 242.1532,-330.457"/>
<text text-anchor="middle" x="343.5" y="-329.5" font-family="Helvetica,sans-Serif" font-size="10.00" fill="#000000"> gvec_distr_</text>
<text text-anchor="middle" x="343.5" y="-318.5" font-family="Helvetica,sans-Serif" font-size="10.00" fill="#000000">zcol_distr_</text>
</g>
<!-- Node8 -->
<g id="node8" class="node">
<title>Node8</title>
<g id="a_node8"><a xlink:href="../../da/d70/classsddk_1_1_communicator.html" target="_top" xlink:title="MPI communicator wrapper.">
<polygon fill="#ffffff" stroke="#000000" points="150.5,-270 150.5,-289 258.5,-289 258.5,-270 150.5,-270"/>
<text text-anchor="middle" x="204.5" y="-277" font-family="Helvetica,sans-Serif" font-size="10.00" fill="#000000">sddk::Communicator</text>
</a>
</g>
</g>
<!-- Node8&#45;&gt;Node4 -->
<g id="edge7" class="edge">
<title>Node8&#45;&gt;Node4</title>
<path fill="none" stroke="#9a32cd" stroke-dasharray="5,2" d="M268.6338,-285.0571C305.4106,-288.5466 352.3957,-293.5172 394,-299.5 455.2642,-308.31 470.2293,-312.7595 531,-324.5 566.8305,-331.4222 607.3146,-339.7014 637.488,-345.9618"/>
<polygon fill="#9a32cd" stroke="#9a32cd" points="268.8272,-281.56 258.5445,-284.1126 268.1747,-288.5296 268.8272,-281.56"/>
<text text-anchor="middle" x="471.5" y="-338.5" font-family="Helvetica,sans-Serif" font-size="10.00" fill="#000000"> comm_ortho_fft_</text>
<text text-anchor="middle" x="471.5" y="-327.5" font-family="Helvetica,sans-Serif" font-size="10.00" fill="#000000">fft_comm_</text>
</g>
<!-- Node8&#45;&gt;Node9 -->
<g id="edge15" class="edge">
<title>Node8&#45;&gt;Node9</title>
<path fill="none" stroke="#9a32cd" stroke-dasharray="5,2" d="M258.7863,-267.7694C312.4542,-256.1262 387.497,-239.7019 394,-237.5 415.2184,-230.3154 438.3692,-219.0814 453.7905,-211.0747"/>
<polygon fill="#9a32cd" stroke="#9a32cd" points="257.7317,-264.4166 248.7002,-269.9559 259.2148,-271.2577 257.7317,-264.4166"/>
<text text-anchor="middle" x="343.5" y="-262.5" font-family="Helvetica,sans-Serif" font-size="10.00" fill="#000000"> comm_</text>
</g>
<!-- Node9&#45;&gt;Node4 -->
<g id="edge8" class="edge">
<title>Node9&#45;&gt;Node4</title>
<path fill="none" stroke="#9a32cd" stroke-dasharray="5,2" d="M511.8738,-214.4931C539.0019,-224.4358 574.6537,-239.9394 602,-260.5 635.6085,-285.7689 664.7958,-327.2962 676.9621,-345.9288"/>
<polygon fill="#9a32cd" stroke="#9a32cd" points="512.8907,-211.14 502.296,-211.0826 510.5425,-217.7344 512.8907,-211.14"/>
<text text-anchor="middle" x="575.5" y="-263.5" font-family="Helvetica,sans-Serif" font-size="10.00" fill="#000000"> gvec_</text>
</g>
<!-- Node9&#45;&gt;Node9 -->
<g id="edge16" class="edge">
<title>Node9&#45;&gt;Node9</title>
<path fill="none" stroke="#9a32cd" stroke-dasharray="5,2" d="M452.2417,-220.9C453.5278,-225.8146 459.9473,-229.5 471.5,-229.5 489.9844,-229.5 495.3275,-220.0653 487.5294,-211.2571"/>
<polygon fill="#9a32cd" stroke="#9a32cd" points="455.6142,-221.8509 455.4706,-211.2571 448.9765,-219.6283 455.6142,-221.8509"/>
<text text-anchor="middle" x="471.5" y="-232.5" font-family="Helvetica,sans-Serif" font-size="10.00" fill="#000000"> gvec_base_</text>
</g>
<!-- Node10 -->
<g id="node10" class="node">
<title>Node10</title>
<g id="a_node10"><a xlink:href="../../d7/dab/classsddk_1_1mdarray.html" target="_top" xlink:title=" ">
<polygon fill="#ffffff" stroke="#000000" points="145,-225 145,-244 264,-244 264,-225 145,-225"/>
<text text-anchor="middle" x="204.5" y="-232" font-family="Helvetica,sans-Serif" font-size="10.00" fill="#000000">sddk::mdarray&lt; int, 3 &gt;</text>
</a>
</g>
</g>
<!-- Node10&#45;&gt;Node9 -->
<g id="edge9" class="edge">
<title>Node10&#45;&gt;Node9</title>
<path fill="none" stroke="#9a32cd" stroke-dasharray="5,2" d="M274.0445,-225.9046C326.7275,-219.3932 396.8098,-210.7314 437.754,-205.6708"/>
<polygon fill="#9a32cd" stroke="#9a32cd" points="273.5828,-222.435 264.0877,-227.1352 274.4415,-229.3821 273.5828,-222.435"/>
<text text-anchor="middle" x="343.5" y="-225.5" font-family="Helvetica,sans-Serif" font-size="10.00" fill="#000000"> gvec_index_by_xy_</text>
</g>
<!-- Node11 -->
<g id="node11" class="node">
<title>Node11</title>
<g id="a_node11"><a xlink:href="../../d7/dab/classsddk_1_1mdarray.html" target="_top" xlink:title=" ">
<polygon fill="#ffffff" stroke="#000000" points="135.5,-187 135.5,-206 273.5,-206 273.5,-187 135.5,-187"/>
<text text-anchor="middle" x="204.5" y="-194" font-family="Helvetica,sans-Serif" font-size="10.00" fill="#000000">sddk::mdarray&lt; double, 1 &gt;</text>
</a>
</g>
</g>
<!-- Node11&#45;&gt;Node9 -->
<g id="edge10" class="edge">
<title>Node11&#45;&gt;Node9</title>
<path fill="none" stroke="#9a32cd" stroke-dasharray="5,2" d="M284.1618,-192.0292C318.0442,-190.8505 357.9761,-190.4153 394,-192.5 408.334,-193.3295 424.0849,-195.0151 437.6217,-196.7056"/>
<polygon fill="#9a32cd" stroke="#9a32cd" points="283.7132,-188.5435 273.8519,-192.417 283.9764,-195.5386 283.7132,-188.5435"/>
<text text-anchor="middle" x="343.5" y="-195.5" font-family="Helvetica,sans-Serif" font-size="10.00" fill="#000000"> gvec_shell_len_</text>
</g>
<!-- Node12 -->
<g id="node12" class="node">
<title>Node12</title>
<g id="a_node12"><a xlink:href="../../d7/dab/classsddk_1_1mdarray.html" target="_top" xlink:title=" ">
<polygon fill="#ffffff" stroke="#000000" points="146.5,-137.5 146.5,-167.5 262.5,-167.5 262.5,-137.5 146.5,-137.5"/>
<text text-anchor="start" x="154.5" y="-155.5" font-family="Helvetica,sans-Serif" font-size="10.00" fill="#000000">sddk::mdarray&lt; uint32</text>
<text text-anchor="middle" x="204.5" y="-144.5" font-family="Helvetica,sans-Serif" font-size="10.00" fill="#000000">_t, 1 &gt;</text>
</a>
</g>
</g>
<!-- Node12&#45;&gt;Node9 -->
<g id="edge13" class="edge">
<title>Node12&#45;&gt;Node9</title>
<path fill="none" stroke="#9a32cd" stroke-dasharray="5,2" d="M272.6552,-157.4033C308.9832,-160.8604 354.2583,-166.5198 394,-175.5 412.1341,-179.5977 432.0029,-186.3099 447.0826,-191.8878"/>
<polygon fill="#9a32cd" stroke="#9a32cd" points="272.9361,-153.9145 262.6581,-156.4857 272.2963,-160.8852 272.9361,-153.9145"/>
<text text-anchor="middle" x="343.5" y="-178.5" font-family="Helvetica,sans-Serif" font-size="10.00" fill="#000000"> gvec_full_index_</text>
</g>
<!-- Node13 -->
<g id="node13" class="node">
<title>Node13</title>
<g id="a_node13"><a xlink:href="../../da/dfd/classgeometry3d_1_1matrix3d.html" target="_top" xlink:title=" ">
<polygon fill="#ffffff" stroke="#000000" points="148,-88.5 148,-118.5 261,-118.5 261,-88.5 148,-88.5"/>
<text text-anchor="start" x="156" y="-106.5" font-family="Helvetica,sans-Serif" font-size="10.00" fill="#000000">geometry3d::matrix3d</text>
<text text-anchor="middle" x="204.5" y="-95.5" font-family="Helvetica,sans-Serif" font-size="10.00" fill="#000000">&lt; double &gt;</text>
</a>
</g>
</g>
<!-- Node13&#45;&gt;Node9 -->
<g id="edge14" class="edge">
<title>Node13&#45;&gt;Node9</title>
<path fill="none" stroke="#9a32cd" stroke-dasharray="5,2" d="M271.4349,-110.9737C308.7225,-116.8389 355.2934,-127.0468 394,-144.5 420.7975,-156.5832 447.3793,-178.9934 461.376,-191.8198"/>
<polygon fill="#9a32cd" stroke="#9a32cd" points="271.5875,-107.4574 261.1783,-109.4322 270.547,-114.3796 271.5875,-107.4574"/>
<text text-anchor="middle" x="343.5" y="-147.5" font-family="Helvetica,sans-Serif" font-size="10.00" fill="#000000"> lattice_vectors_</text>
</g>
<!-- Node14 -->
<g id="node14" class="node">
<title>Node14</title>
<g id="a_node14"><a xlink:href="../../d7/dab/classsddk_1_1mdarray.html" target="_top" xlink:title=" ">
<polygon fill="#ffffff" stroke="#000000" points="135.5,-50 135.5,-69 273.5,-69 273.5,-50 135.5,-50"/>
<text text-anchor="middle" x="204.5" y="-57" font-family="Helvetica,sans-Serif" font-size="10.00" fill="#000000">sddk::mdarray&lt; double, 2 &gt;</text>
</a>
</g>
</g>
<!-- Node14&#45;&gt;Node9 -->
<g id="edge17" class="edge">
<title>Node14&#45;&gt;Node9</title>
<path fill="none" stroke="#9a32cd" stroke-dasharray="5,2" d="M283.5475,-57.6352C319.5996,-60.1391 361.4095,-68.0335 394,-88.5 414.75,-101.5308 452.2884,-166.7601 466.1603,-191.7433"/>
<polygon fill="#9a32cd" stroke="#9a32cd" points="283.7269,-54.1399 273.5441,-57.066 283.3291,-61.1285 283.7269,-54.1399"/>
<text text-anchor="middle" x="343.5" y="-102.5" font-family="Helvetica,sans-Serif" font-size="10.00" fill="#000000"> gkvec_cart_</text>
<text text-anchor="middle" x="343.5" y="-91.5" font-family="Helvetica,sans-Serif" font-size="10.00" fill="#000000">gvec_cart_</text>
</g>
<!-- Node15 -->
<g id="node15" class="node">
<title>Node15</title>
<g id="a_node15"><a xlink:href="../../d2/d6b/classgeometry3d_1_1vector3d.html" target="_top" xlink:title=" ">
<polygon fill="#ffffff" stroke="#000000" points="148,-.5 148,-30.5 261,-30.5 261,-.5 148,-.5"/>
<text text-anchor="start" x="156" y="-18.5" font-family="Helvetica,sans-Serif" font-size="10.00" fill="#000000">geometry3d::vector3d</text>
<text text-anchor="middle" x="204.5" y="-7.5" font-family="Helvetica,sans-Serif" font-size="10.00" fill="#000000">&lt; double &gt;</text>
</a>
</g>
</g>
<!-- Node15&#45;&gt;Node9 -->
<g id="edge18" class="edge">
<title>Node15&#45;&gt;Node9</title>
<path fill="none" stroke="#9a32cd" stroke-dasharray="5,2" d="M271.0881,-10.6351C310.2956,-11.116 358.916,-17.8803 394,-43.5 445.8159,-81.338 464.772,-163.4182 469.9114,-191.6941"/>
<polygon fill="#9a32cd" stroke="#9a32cd" points="271.0752,-7.135 261.0784,-10.6441 271.0815,-14.135 271.0752,-7.135"/>
<text text-anchor="middle" x="343.5" y="-46.5" font-family="Helvetica,sans-Serif" font-size="10.00" fill="#000000"> vk_</text>
</g>
<!-- Node16 -->
<g id="node16" class="node">
<title>Node16</title>
<g id="a_node16"><a xlink:title=" ">
<polygon fill="#ffffff" stroke="#bfbfbf" points="0,-.5 0,-30.5 97,-30.5 97,-.5 0,-.5"/>
<text text-anchor="start" x="8" y="-18.5" font-family="Helvetica,sans-Serif" font-size="10.00" fill="#000000">std::array&lt; double</text>
<text text-anchor="middle" x="48.5" y="-7.5" font-family="Helvetica,sans-Serif" font-size="10.00" fill="#000000"> , 3 &gt;</text>
</a>
</g>
</g>
<!-- Node16&#45;&gt;Node15 -->
<g id="edge19" class="edge">
<title>Node16&#45;&gt;Node15</title>
<path fill="none" stroke="#191970" d="M107.03,-15.5C120.3849,-15.5 134.5533,-15.5 147.8288,-15.5"/>
<polygon fill="#191970" stroke="#191970" points="107.0043,-12.0001 97.0042,-15.5 107.0042,-19.0001 107.0043,-12.0001"/>
</g>
</g>
</svg>
