<?xml version="1.0" encoding="UTF-8" standalone="no"?>
<!DOCTYPE svg PUBLIC "-//W3C//DTD SVG 1.1//EN"
 "http://www.w3.org/Graphics/SVG/1.1/DTD/svg11.dtd">
<!-- Generated by graphviz version 2.40.1 (20161225.0304)
 -->
<!-- Title: power.hpp Pages: 1 -->
<svg width="118pt" height="84pt"
 viewBox="0.00 0.00 117.50 84.00" xmlns="http://www.w3.org/2000/svg" xmlns:xlink="http://www.w3.org/1999/xlink">
<g id="graph0" class="graph" transform="scale(1 1) rotate(0) translate(4 80)">
<title>power.hpp</title>
<polygon fill="#ffffff" stroke="transparent" points="-4,4 -4,-80 113.5,-80 113.5,4 -4,4"/>
<!-- Node0 -->
<g id="node1" class="node">
<title>Node0</title>
<g id="a_node1"><a xlink:title="Read power counters on Cray.">
<polygon fill="#bfbfbf" stroke="#000000" points="25.5,-56.5 25.5,-75.5 88.5,-75.5 88.5,-56.5 25.5,-56.5"/>
<text text-anchor="middle" x="57" y="-63.5" font-family="Helvetica,sans-Serif" font-size="10.00" fill="#000000">power.hpp</text>
</a>
</g>
</g>
<!-- Node1 -->
<g id="node2" class="node">
<title>Node1</title>
<g id="a_node2"><a xlink:title=" ">
<polygon fill="#ffffff" stroke="#bfbfbf" points="0,-.5 0,-19.5 50,-19.5 50,-.5 0,-.5"/>
<text text-anchor="middle" x="25" y="-7.5" font-family="Helvetica,sans-Serif" font-size="10.00" fill="#000000">fstream</text>
</a>
</g>
</g>
<!-- Node0&#45;&gt;Node1 -->
<g id="edge1" class="edge">
<title>Node0&#45;&gt;Node1</title>
<path fill="none" stroke="#191970" d="M51.426,-56.2455C47.0669,-48.617 40.8789,-37.7881 35.5867,-28.5267"/>
<polygon fill="#191970" stroke="#191970" points="38.5104,-26.5886 30.5101,-19.6427 32.4327,-30.0616 38.5104,-26.5886"/>
</g>
<!-- Node2 -->
<g id="node3" class="node">
<title>Node2</title>
<g id="a_node3"><a xlink:title=" ">
<polygon fill="#ffffff" stroke="#bfbfbf" points="68.5,-.5 68.5,-19.5 109.5,-19.5 109.5,-.5 68.5,-.5"/>
<text text-anchor="middle" x="89" y="-7.5" font-family="Helvetica,sans-Serif" font-size="10.00" fill="#000000">string</text>
</a>
</g>
</g>
<!-- Node0&#45;&gt;Node2 -->
<g id="edge2" class="edge">
<title>Node0&#45;&gt;Node2</title>
<path fill="none" stroke="#191970" d="M62.574,-56.2455C66.9331,-48.617 73.1211,-37.7881 78.4133,-28.5267"/>
<polygon fill="#191970" stroke="#191970" points="81.5673,-30.0616 83.4899,-19.6427 75.4896,-26.5886 81.5673,-30.0616"/>
</g>
</g>
</svg>
