<?xml version="1.0" encoding="UTF-8" standalone="no"?>
<!DOCTYPE svg PUBLIC "-//W3C//DTD SVG 1.1//EN"
 "http://www.w3.org/Graphics/SVG/1.1/DTD/svg11.dtd">
<!-- Generated by graphviz version 2.40.1 (20161225.0304)
 -->
<!-- Title: nlohmann::detail::input_adapter_protocol Pages: 1 -->
<svg width="210pt" height="106pt"
 viewBox="0.00 0.00 210.00 106.00" xmlns="http://www.w3.org/2000/svg" xmlns:xlink="http://www.w3.org/1999/xlink">
<g id="graph0" class="graph" transform="scale(1 1) rotate(0) translate(4 102)">
<title>nlohmann::detail::input_adapter_protocol</title>
<polygon fill="#ffffff" stroke="transparent" points="-4,4 -4,-102 206,-102 206,4 -4,4"/>
<!-- Node0 -->
<g id="node1" class="node">
<title>Node0</title>
<polygon fill="#bfbfbf" stroke="#000000" points="55,-67.5 55,-97.5 147,-97.5 147,-67.5 55,-67.5"/>
<text text-anchor="start" x="63" y="-85.5" font-family="Helvetica,sans-Serif" font-size="10.00" fill="#000000">nlohmann::detail::input</text>
<text text-anchor="middle" x="101" y="-74.5" font-family="Helvetica,sans-Serif" font-size="10.00" fill="#000000">_adapter_protocol</text>
</g>
<!-- Node1 -->
<g id="node2" class="node">
<title>Node1</title>
<g id="a_node2"><a xlink:href="../../d8/dba/classnlohmann_1_1detail_1_1input__buffer__adapter.html" target="_top" xlink:title="input adapter for buffer input ">
<polygon fill="#ffffff" stroke="#000000" points="0,-.5 0,-30.5 92,-30.5 92,-.5 0,-.5"/>
<text text-anchor="start" x="8" y="-18.5" font-family="Helvetica,sans-Serif" font-size="10.00" fill="#000000">nlohmann::detail::input</text>
<text text-anchor="middle" x="46" y="-7.5" font-family="Helvetica,sans-Serif" font-size="10.00" fill="#000000">_buffer_adapter</text>
</a>
</g>
</g>
<!-- Node0&#45;&gt;Node1 -->
<g id="edge1" class="edge">
<title>Node0&#45;&gt;Node1</title>
<path fill="none" stroke="#191970" d="M81.997,-59.3509C74.1963,-49.8482 65.384,-39.1132 58.431,-30.6432"/>
<polygon fill="#191970" stroke="#191970" points="79.4694,-61.7881 88.5196,-67.2967 84.8799,-57.3466 79.4694,-61.7881"/>
</g>
<!-- Node2 -->
<g id="node3" class="node">
<title>Node2</title>
<g id="a_node3"><a xlink:href="../../db/df0/classnlohmann_1_1detail_1_1input__stream__adapter.html" target="_top" xlink:title="nlohmann::detail::input\l_stream_adapter">
<polygon fill="#ffffff" stroke="#000000" points="110,-.5 110,-30.5 202,-30.5 202,-.5 110,-.5"/>
<text text-anchor="start" x="118" y="-18.5" font-family="Helvetica,sans-Serif" font-size="10.00" fill="#000000">nlohmann::detail::input</text>
<text text-anchor="middle" x="156" y="-7.5" font-family="Helvetica,sans-Serif" font-size="10.00" fill="#000000">_stream_adapter</text>
</a>
</g>
</g>
<!-- Node0&#45;&gt;Node2 -->
<g id="edge2" class="edge">
<title>Node0&#45;&gt;Node2</title>
<path fill="none" stroke="#191970" d="M120.003,-59.3509C127.8037,-49.8482 136.616,-39.1132 143.569,-30.6432"/>
<polygon fill="#191970" stroke="#191970" points="117.1201,-57.3466 113.4804,-67.2967 122.5306,-61.7881 117.1201,-57.3466"/>
</g>
</g>
</svg>
