<?xml version="1.0" encoding="UTF-8" standalone="no"?>
<!DOCTYPE svg PUBLIC "-//W3C//DTD SVG 1.1//EN"
 "http://www.w3.org/Graphics/SVG/1.1/DTD/svg11.dtd">
<!-- Generated by graphviz version 2.40.1 (20161225.0304)
 -->
<!-- Title: serializer.hpp Pages: 1 -->
<svg width="723pt" height="140pt"
 viewBox="0.00 0.00 722.50 140.00" xmlns="http://www.w3.org/2000/svg" xmlns:xlink="http://www.w3.org/1999/xlink">
<g id="graph0" class="graph" transform="scale(1 1) rotate(0) translate(4 136)">
<title>serializer.hpp</title>
<polygon fill="#ffffff" stroke="transparent" points="-4,4 -4,-136 718.5,-136 718.5,4 -4,4"/>
<!-- Node1 -->
<g id="node1" class="node">
<title>Node1</title>
<g id="a_node1"><a xlink:title="Serializer for simple data structures.">
<polygon fill="#bfbfbf" stroke="#000000" points="270.5,-112.5 270.5,-131.5 346.5,-131.5 346.5,-112.5 270.5,-112.5"/>
<text text-anchor="middle" x="308.5" y="-119.5" font-family="Helvetica,sans-Serif" font-size="10.00" fill="#000000">serializer.hpp</text>
</a>
</g>
</g>
<!-- Node2 -->
<g id="node2" class="node">
<title>Node2</title>
<g id="a_node2"><a xlink:title=" ">
<polygon fill="#ffffff" stroke="#bfbfbf" points="241,-56.5 241,-75.5 280,-75.5 280,-56.5 241,-56.5"/>
<text text-anchor="middle" x="260.5" y="-63.5" font-family="Helvetica,sans-Serif" font-size="10.00" fill="#000000">limits</text>
</a>
</g>
</g>
<!-- Node1&#45;&gt;Node2 -->
<g id="edge1" class="edge">
<title>Node1&#45;&gt;Node2</title>
<path fill="none" stroke="#191970" d="M300.139,-112.2455C293.325,-104.2958 283.5319,-92.8706 275.3848,-83.3656"/>
<polygon fill="#191970" stroke="#191970" points="277.9305,-80.9575 268.7651,-75.6427 272.6157,-85.513 277.9305,-80.9575"/>
</g>
<!-- Node3 -->
<g id="node3" class="node">
<title>Node3</title>
<g id="a_node3"><a xlink:href="../../d4/d32/communicator_8hpp.html" target="_top" xlink:title="Contains declaration and implementation of sddk::Communicator class.">
<polygon fill="#ffffff" stroke="#000000" points="298.5,-56.5 298.5,-75.5 416.5,-75.5 416.5,-56.5 298.5,-56.5"/>
<text text-anchor="middle" x="357.5" y="-63.5" font-family="Helvetica,sans-Serif" font-size="10.00" fill="#000000">mpi/communicator.hpp</text>
</a>
</g>
</g>
<!-- Node1&#45;&gt;Node3 -->
<g id="edge2" class="edge">
<title>Node1&#45;&gt;Node3</title>
<path fill="none" stroke="#191970" d="M317.0351,-112.2455C323.9912,-104.2958 333.9883,-92.8706 342.3051,-83.3656"/>
<polygon fill="#191970" stroke="#191970" points="345.1116,-85.4732 349.0627,-75.6427 339.8436,-80.8637 345.1116,-85.4732"/>
</g>
<!-- Node4 -->
<g id="node4" class="node">
<title>Node4</title>
<g id="a_node4"><a xlink:title=" ">
<polygon fill="#ffffff" stroke="#bfbfbf" points="0,-.5 0,-19.5 41,-19.5 41,-.5 0,-.5"/>
<text text-anchor="middle" x="20.5" y="-7.5" font-family="Helvetica,sans-Serif" font-size="10.00" fill="#000000">mpi.h</text>
</a>
</g>
</g>
<!-- Node3&#45;&gt;Node4 -->
<g id="edge3" class="edge">
<title>Node3&#45;&gt;Node4</title>
<path fill="none" stroke="#191970" d="M298.4738,-57.3236C220.6761,-45.8706 89.8161,-26.5404 51.2368,-19.66"/>
<polygon fill="#191970" stroke="#191970" points="51.7634,-16.1962 41.2722,-17.675 50.3957,-23.0613 51.7634,-16.1962"/>
</g>
<!-- Node5 -->
<g id="node5" class="node">
<title>Node5</title>
<g id="a_node5"><a xlink:title=" ">
<polygon fill="#ffffff" stroke="#bfbfbf" points="59,-.5 59,-19.5 108,-19.5 108,-.5 59,-.5"/>
<text text-anchor="middle" x="83.5" y="-7.5" font-family="Helvetica,sans-Serif" font-size="10.00" fill="#000000">cassert</text>
</a>
</g>
</g>
<!-- Node3&#45;&gt;Node5 -->
<g id="edge4" class="edge">
<title>Node3&#45;&gt;Node5</title>
<path fill="none" stroke="#191970" d="M299.455,-56.495C252.9254,-48.5072 185.7948,-36.1603 118.2706,-20.008"/>
<polygon fill="#191970" stroke="#191970" points="118.8503,-16.5474 108.3076,-17.5974 117.204,-23.351 118.8503,-16.5474"/>
</g>
<!-- Node6 -->
<g id="node6" class="node">
<title>Node6</title>
<g id="a_node6"><a xlink:title=" ">
<polygon fill="#ffffff" stroke="#bfbfbf" points="126.5,-.5 126.5,-19.5 170.5,-19.5 170.5,-.5 126.5,-.5"/>
<text text-anchor="middle" x="148.5" y="-7.5" font-family="Helvetica,sans-Serif" font-size="10.00" fill="#000000">vector</text>
</a>
</g>
</g>
<!-- Node3&#45;&gt;Node6 -->
<g id="edge5" class="edge">
<title>Node3&#45;&gt;Node6</title>
<path fill="none" stroke="#191970" d="M317.7263,-56.4364C283.6521,-48.0838 233.0667,-35.308 180.6146,-20.2133"/>
<polygon fill="#191970" stroke="#191970" points="181.3816,-16.7916 170.8025,-17.3684 179.4323,-23.5148 181.3816,-16.7916"/>
</g>
<!-- Node7 -->
<g id="node7" class="node">
<title>Node7</title>
<g id="a_node7"><a xlink:title=" ">
<polygon fill="#ffffff" stroke="#bfbfbf" points="188.5,-.5 188.5,-19.5 242.5,-19.5 242.5,-.5 188.5,-.5"/>
<text text-anchor="middle" x="215.5" y="-7.5" font-family="Helvetica,sans-Serif" font-size="10.00" fill="#000000">complex</text>
</a>
</g>
</g>
<!-- Node3&#45;&gt;Node7 -->
<g id="edge6" class="edge">
<title>Node3&#45;&gt;Node7</title>
<path fill="none" stroke="#191970" d="M333.0893,-56.3733C309.8858,-47.2226 274.7962,-33.3844 248.9858,-23.2057"/>
<polygon fill="#191970" stroke="#191970" points="250.1789,-19.9139 239.5921,-19.5011 247.6108,-26.4258 250.1789,-19.9139"/>
</g>
<!-- Node8 -->
<g id="node8" class="node">
<title>Node8</title>
<g id="a_node8"><a xlink:title=" ">
<polygon fill="#ffffff" stroke="#bfbfbf" points="261,-.5 261,-19.5 310,-19.5 310,-.5 261,-.5"/>
<text text-anchor="middle" x="285.5" y="-7.5" font-family="Helvetica,sans-Serif" font-size="10.00" fill="#000000">cstdarg</text>
</a>
</g>
</g>
<!-- Node3&#45;&gt;Node8 -->
<g id="edge7" class="edge">
<title>Node3&#45;&gt;Node8</title>
<path fill="none" stroke="#191970" d="M344.9586,-56.2455C334.2213,-47.8943 318.5527,-35.7076 305.9953,-25.9408"/>
<polygon fill="#191970" stroke="#191970" points="307.9401,-23.0194 297.8977,-19.6427 303.6425,-28.5449 307.9401,-23.0194"/>
</g>
<!-- Node9 -->
<g id="node9" class="node">
<title>Node9</title>
<g id="a_node9"><a xlink:title=" ">
<polygon fill="#ffffff" stroke="#bfbfbf" points="328,-.5 328,-19.5 387,-19.5 387,-.5 328,-.5"/>
<text text-anchor="middle" x="357.5" y="-7.5" font-family="Helvetica,sans-Serif" font-size="10.00" fill="#000000">functional</text>
</a>
</g>
</g>
<!-- Node3&#45;&gt;Node9 -->
<g id="edge8" class="edge">
<title>Node3&#45;&gt;Node9</title>
<path fill="none" stroke="#191970" d="M357.5,-56.2455C357.5,-48.9382 357.5,-38.6944 357.5,-29.7046"/>
<polygon fill="#191970" stroke="#191970" points="361.0001,-29.6426 357.5,-19.6427 354.0001,-29.6427 361.0001,-29.6426"/>
</g>
<!-- Node10 -->
<g id="node10" class="node">
<title>Node10</title>
<g id="a_node10"><a xlink:title=" ">
<polygon fill="#ffffff" stroke="#bfbfbf" points="405,-.5 405,-19.5 458,-19.5 458,-.5 405,-.5"/>
<text text-anchor="middle" x="431.5" y="-7.5" font-family="Helvetica,sans-Serif" font-size="10.00" fill="#000000">memory</text>
</a>
</g>
</g>
<!-- Node3&#45;&gt;Node10 -->
<g id="edge9" class="edge">
<title>Node3&#45;&gt;Node10</title>
<path fill="none" stroke="#191970" d="M370.3898,-56.2455C381.4254,-47.8943 397.5292,-35.7076 410.4353,-25.9408"/>
<polygon fill="#191970" stroke="#191970" points="412.8959,-28.4681 418.7579,-19.6427 408.6717,-22.8862 412.8959,-28.4681"/>
</g>
<!-- Node11 -->
<g id="node11" class="node">
<title>Node11</title>
<g id="a_node11"><a xlink:title=" ">
<polygon fill="#ffffff" stroke="#bfbfbf" points="476.5,-.5 476.5,-19.5 534.5,-19.5 534.5,-.5 476.5,-.5"/>
<text text-anchor="middle" x="505.5" y="-7.5" font-family="Helvetica,sans-Serif" font-size="10.00" fill="#000000">algorithm</text>
</a>
</g>
</g>
<!-- Node3&#45;&gt;Node11 -->
<g id="edge10" class="edge">
<title>Node3&#45;&gt;Node11</title>
<path fill="none" stroke="#191970" d="M382.9421,-56.3733C407.2326,-47.1822 444.0208,-33.2624 470.9543,-23.0713"/>
<polygon fill="#191970" stroke="#191970" points="472.2757,-26.3136 480.3899,-19.5011 469.7984,-19.7666 472.2757,-26.3136"/>
</g>
<!-- Node12 -->
<g id="node12" class="node">
<title>Node12</title>
<g id="a_node12"><a xlink:title=" ">
<polygon fill="#ffffff" stroke="#bfbfbf" points="552.5,-.5 552.5,-19.5 598.5,-19.5 598.5,-.5 552.5,-.5"/>
<text text-anchor="middle" x="575.5" y="-7.5" font-family="Helvetica,sans-Serif" font-size="10.00" fill="#000000">cstring</text>
</a>
</g>
</g>
<!-- Node3&#45;&gt;Node12 -->
<g id="edge11" class="edge">
<title>Node3&#45;&gt;Node12</title>
<path fill="none" stroke="#191970" d="M399.0577,-56.4817C434.735,-48.1405 487.7379,-35.3478 542.5821,-20.1417"/>
<polygon fill="#191970" stroke="#191970" points="543.7881,-23.4389 552.4774,-17.3771 541.9044,-16.6971 543.7881,-23.4389"/>
</g>
<!-- Node13 -->
<g id="node13" class="node">
<title>Node13</title>
<g id="a_node13"><a xlink:title=" ">
<polygon fill="#ffffff" stroke="#bfbfbf" points="617,-.5 617,-19.5 660,-19.5 660,-.5 617,-.5"/>
<text text-anchor="middle" x="638.5" y="-7.5" font-family="Helvetica,sans-Serif" font-size="10.00" fill="#000000">cstdio</text>
</a>
</g>
</g>
<!-- Node3&#45;&gt;Node13 -->
<g id="edge12" class="edge">
<title>Node3&#45;&gt;Node13</title>
<path fill="none" stroke="#191970" d="M416.5606,-57.3553C465.2269,-49.7282 536.162,-37.4576 606.9401,-19.8727"/>
<polygon fill="#191970" stroke="#191970" points="608.0827,-23.1942 616.9238,-17.356 606.3716,-16.4066 608.0827,-23.1942"/>
</g>
<!-- Node14 -->
<g id="node14" class="node">
<title>Node14</title>
<g id="a_node14"><a xlink:title=" ">
<polygon fill="#ffffff" stroke="#bfbfbf" points="678.5,-.5 678.5,-19.5 714.5,-19.5 714.5,-.5 678.5,-.5"/>
<text text-anchor="middle" x="696.5" y="-7.5" font-family="Helvetica,sans-Serif" font-size="10.00" fill="#000000">map</text>
</a>
</g>
</g>
<!-- Node3&#45;&gt;Node14 -->
<g id="edge13" class="edge">
<title>Node3&#45;&gt;Node14</title>
<path fill="none" stroke="#191970" d="M416.5882,-60.9876C477.7147,-54.9768 575.9111,-43.0149 668.5512,-19.8082"/>
<polygon fill="#191970" stroke="#191970" points="669.541,-23.1678 678.3638,-17.3019 667.8087,-16.3855 669.541,-23.1678"/>
</g>
</g>
</svg>
