<?xml version="1.0" encoding="UTF-8" standalone="no"?>
<!DOCTYPE svg PUBLIC "-//W3C//DTD SVG 1.1//EN"
 "http://www.w3.org/Graphics/SVG/1.1/DTD/svg11.dtd">
<!-- Generated by graphviz version 2.40.1 (20161225.0304)
 -->
<!-- Title: sirius::Simulation_context Pages: 1 -->
<!--zoomable 401 -->
<svg id="main" version="1.1" xmlns="http://www.w3.org/2000/svg" xmlns:xlink="http://www.w3.org/1999/xlink" xml:space="preserve" onload="init(evt)">
<style type="text/css"><![CDATA[
.edge:hover path { stroke: red; }
.edge:hover polygon { stroke: red; fill: red; }
]]></style>
<script type="text/javascript"><![CDATA[
var edges = document.getElementsByTagName('g');
if (edges && edges.length) {
  for (var i=0;i<edges.length;i++) {
    if (edges[i].id.substr(0,4)=='edge') {
      edges[i].setAttribute('class','edge');
    }
  }
}
]]></script>
        <defs>
                <circle id="rim" cx="0" cy="0" r="7"/>
                <circle id="rim2" cx="0" cy="0" r="3.5"/>
                <g id="zoomPlus">
                        <use xlink:href="#rim" fill="#404040">
                                <set attributeName="fill" to="#808080" begin="zoomplus.mouseover" end="zoomplus.mouseout"/>
                        </use>
                        <path d="M-4,0h8M0,-4v8" fill="none" stroke="white" stroke-width="1.5" pointer-events="none"/>
                </g>
                <g id="zoomMin">
                        <use xlink:href="#rim" fill="#404040">
                                <set attributeName="fill" to="#808080" begin="zoomminus.mouseover" end="zoomminus.mouseout"/>
                        </use>
                        <path d="M-4,0h8" fill="none" stroke="white" stroke-width="1.5" pointer-events="none"/>
                </g>
                <g id="dirArrow">
                        <path fill="none" stroke="white" stroke-width="1.5" d="M0,-3.0v7 M-2.5,-0.5L0,-3.0L2.5,-0.5"/>
                </g>
               <g id="resetDef">
                       <use xlink:href="#rim2" fill="#404040">
                               <set attributeName="fill" to="#808080" begin="reset.mouseover" end="reset.mouseout"/>
                       </use>
               </g>
        </defs>

<script type="text/javascript">
var viewWidth = 1065;
var viewHeight = 401;
var sectionId = 'dynsection-1';
</script>
<script xlink:href="../../svgpan.js"/>
<svg id="graph" class="graph">
<g id="viewport">
<title>sirius::Simulation_context</title>
<polygon fill="#ffffff" stroke="transparent" points="-4,4 -4,-396.5 1061,-396.5 1061,4 -4,4"/>
<!-- Node3 -->
<g id="node1" class="node">
<title>Node3</title>
<polygon fill="#bfbfbf" stroke="#000000" points="984,-131.5 984,-161.5 1057,-161.5 1057,-131.5 984,-131.5"/>
<text text-anchor="start" x="992" y="-149.5" font-family="Helvetica,sans-Serif" font-size="10.00" fill="#000000">sirius::Simulation</text>
<text text-anchor="middle" x="1020.5" y="-138.5" font-family="Helvetica,sans-Serif" font-size="10.00" fill="#000000">_context</text>
</g>
<!-- Node4 -->
<g id="node2" class="node">
<title>Node4</title>
<g id="a_node2"><a xlink:href="../../db/d7d/classsirius_1_1_simulation__context__base.html" target="_top" xlink:title="Base class for Simulation_context. ">
<polygon fill="#ffffff" stroke="#000000" points="874,-131.5 874,-161.5 947,-161.5 947,-131.5 874,-131.5"/>
<text text-anchor="start" x="882" y="-149.5" font-family="Helvetica,sans-Serif" font-size="10.00" fill="#000000">sirius::Simulation</text>
<text text-anchor="middle" x="910.5" y="-138.5" font-family="Helvetica,sans-Serif" font-size="10.00" fill="#000000">_context_base</text>
</a>
</g>
</g>
<!-- Node4&#45;&gt;Node3 -->
<g id="edge1" class="edge">
<title>Node4&#45;&gt;Node3</title>
<path fill="none" stroke="#191970" d="M957.2862,-146.5C966.0994,-146.5 975.2004,-146.5 983.6565,-146.5"/>
<polygon fill="#191970" stroke="#191970" points="957.1284,-143.0001 947.1284,-146.5 957.1284,-150.0001 957.1284,-143.0001"/>
</g>
<!-- Node5 -->
<g id="node3" class="node">
<title>Node5</title>
<g id="a_node3"><a xlink:href="../../d0/d04/classsirius_1_1_simulation__parameters.html" target="_top" xlink:title="Set of basic parameters of a simulation. ">
<polygon fill="#ffffff" stroke="#000000" points="467.5,-174.5 467.5,-204.5 540.5,-204.5 540.5,-174.5 467.5,-174.5"/>
<text text-anchor="start" x="475.5" y="-192.5" font-family="Helvetica,sans-Serif" font-size="10.00" fill="#000000">sirius::Simulation</text>
<text text-anchor="middle" x="504" y="-181.5" font-family="Helvetica,sans-Serif" font-size="10.00" fill="#000000">_parameters</text>
</a>
</g>
</g>
<!-- Node5&#45;&gt;Node4 -->
<g id="edge2" class="edge">
<title>Node5&#45;&gt;Node4</title>
<path fill="none" stroke="#191970" d="M550.8581,-188.5853C618.6512,-186.6275 747.8225,-180.5128 856,-161.5 861.7993,-160.4807 867.8739,-159.1153 873.7763,-157.6219"/>
<polygon fill="#191970" stroke="#191970" points="550.4189,-185.0958 540.5173,-188.8652 550.6083,-192.0933 550.4189,-185.0958"/>
</g>
<!-- Node22 -->
<g id="node20" class="node">
<title>Node22</title>
<g id="a_node20"><a xlink:href="../../d6/dd1/classsirius_1_1_unit__cell.html" target="_top" xlink:title="Representation of a unit cell. ">
<polygon fill="#ffffff" stroke="#000000" points="686,-234 686,-253 753,-253 753,-234 686,-234"/>
<text text-anchor="middle" x="719.5" y="-241" font-family="Helvetica,sans-Serif" font-size="10.00" fill="#000000">sirius::Unit_cell</text>
</a>
</g>
</g>
<!-- Node5&#45;&gt;Node22 -->
<g id="edge24" class="edge">
<title>Node5&#45;&gt;Node22</title>
<path fill="none" stroke="#9a32cd" stroke-dasharray="5,2" d="M550.2641,-201.0929C591.0556,-211.3144 649.5181,-225.9639 685.9594,-235.0954"/>
<polygon fill="#9a32cd" stroke="#9a32cd" points="551.1075,-197.6961 540.5566,-198.6604 549.406,-204.4861 551.1075,-197.6961"/>
<text text-anchor="middle" x="612" y="-228.5" font-family="Helvetica,sans-Serif" font-size="10.00" fill="#000000"> parameters_</text>
</g>
<!-- Node6 -->
<g id="node4" class="node">
<title>Node6</title>
<g id="a_node4"><a xlink:href="../../d4/d6e/structsirius_1_1_parameters__input.html" target="_top" xlink:title="sirius::Parameters\l_input">
<polygon fill="#ffffff" stroke="#000000" points="260,-275.5 260,-305.5 337,-305.5 337,-275.5 260,-275.5"/>
<text text-anchor="start" x="268" y="-293.5" font-family="Helvetica,sans-Serif" font-size="10.00" fill="#000000">sirius::Parameters</text>
<text text-anchor="middle" x="298.5" y="-282.5" font-family="Helvetica,sans-Serif" font-size="10.00" fill="#000000">_input</text>
</a>
</g>
</g>
<!-- Node6&#45;&gt;Node5 -->
<g id="edge3" class="edge">
<title>Node6&#45;&gt;Node5</title>
<path fill="none" stroke="#9a32cd" stroke-dasharray="5,2" d="M347.0603,-282.1091C375.1822,-275.8714 410.5352,-265.5972 439,-249.5 459.7203,-237.7824 479.1781,-218.2585 491.3063,-204.6769"/>
<polygon fill="#9a32cd" stroke="#9a32cd" points="346.1111,-278.7324 337.0529,-284.2279 347.5611,-285.5806 346.1111,-278.7324"/>
<text text-anchor="middle" x="400" y="-281.5" font-family="Helvetica,sans-Serif" font-size="10.00" fill="#000000"> parameters_input_</text>
</g>
<!-- Node7 -->
<g id="node5" class="node">
<title>Node7</title>
<g id="a_node5"><a xlink:href="../../da/de3/structsirius_1_1_control__input.html" target="_top" xlink:title="Parse control input section. ">
<polygon fill="#ffffff" stroke="#000000" points="257,-237 257,-256 340,-256 340,-237 257,-237"/>
<text text-anchor="middle" x="298.5" y="-244" font-family="Helvetica,sans-Serif" font-size="10.00" fill="#000000">sirius::Control_input</text>
</a>
</g>
</g>
<!-- Node7&#45;&gt;Node5 -->
<g id="edge4" class="edge">
<title>Node7&#45;&gt;Node5</title>
<path fill="none" stroke="#9a32cd" stroke-dasharray="5,2" d="M350.1498,-237.8209C376.9602,-232.7275 410.0716,-225.513 439,-216.5 449.6165,-213.1923 460.8985,-208.8245 471.0316,-204.5682"/>
<polygon fill="#9a32cd" stroke="#9a32cd" points="349.3973,-234.4007 340.2048,-239.6684 350.6759,-241.2829 349.3973,-234.4007"/>
<text text-anchor="middle" x="400" y="-237.5" font-family="Helvetica,sans-Serif" font-size="10.00" fill="#000000"> control_input_</text>
</g>
<!-- Node8 -->
<g id="node6" class="node">
<title>Node8</title>
<g id="a_node6"><a xlink:href="../../d2/dcd/structsirius_1_1_hubbard__input.html" target="_top" xlink:title="sirius::Hubbard_input">
<polygon fill="#ffffff" stroke="#000000" points="255,-199 255,-218 342,-218 342,-199 255,-199"/>
<text text-anchor="middle" x="298.5" y="-206" font-family="Helvetica,sans-Serif" font-size="10.00" fill="#000000">sirius::Hubbard_input</text>
</a>
</g>
</g>
<!-- Node8&#45;&gt;Node5 -->
<g id="edge5" class="edge">
<title>Node8&#45;&gt;Node5</title>
<path fill="none" stroke="#9a32cd" stroke-dasharray="5,2" d="M352.4724,-203.5099C388.6823,-200.162 435.4162,-195.8411 467.3496,-192.8886"/>
<polygon fill="#9a32cd" stroke="#9a32cd" points="351.7165,-200.0647 342.0813,-204.4706 352.3611,-207.035 351.7165,-200.0647"/>
<text text-anchor="middle" x="400" y="-204.5" font-family="Helvetica,sans-Serif" font-size="10.00" fill="#000000"> hubbard_input_</text>
</g>
<!-- Node9 -->
<g id="node7" class="node">
<title>Node9</title>
<g id="a_node7"><a xlink:href="../../d6/de3/structsirius_1_1_settings__input.html" target="_top" xlink:title="Settings control the internal parameters related to the numerical implementation. ...">
<polygon fill="#ffffff" stroke="#000000" points="255.5,-161 255.5,-180 341.5,-180 341.5,-161 255.5,-161"/>
<text text-anchor="middle" x="298.5" y="-168" font-family="Helvetica,sans-Serif" font-size="10.00" fill="#000000">sirius::Settings_input</text>
</a>
</g>
</g>
<!-- Node9&#45;&gt;Node5 -->
<g id="edge6" class="edge">
<title>Node9&#45;&gt;Node5</title>
<path fill="none" stroke="#9a32cd" stroke-dasharray="5,2" d="M351.7489,-173.4527C378.0464,-175.124 410.2289,-177.4876 439,-180.5 448.1777,-181.4609 458.0549,-182.7148 467.2703,-183.98"/>
<polygon fill="#9a32cd" stroke="#9a32cd" points="351.8067,-169.9496 341.6092,-172.8238 351.3734,-176.9362 351.8067,-169.9496"/>
<text text-anchor="middle" x="400" y="-183.5" font-family="Helvetica,sans-Serif" font-size="10.00" fill="#000000"> settings_input_</text>
</g>
<!-- Node10 -->
<g id="node8" class="node">
<title>Node10</title>
<g id="a_node8"><a xlink:href="../../d7/d51/structsirius_1_1_unit__cell__input.html" target="_top" xlink:title="Parse unit cell input section. ">
<polygon fill="#ffffff" stroke="#000000" points="255,-123 255,-142 342,-142 342,-123 255,-123"/>
<text text-anchor="middle" x="298.5" y="-130" font-family="Helvetica,sans-Serif" font-size="10.00" fill="#000000">sirius::Unit_cell_input</text>
</a>
</g>
</g>
<!-- Node10&#45;&gt;Node5 -->
<g id="edge7" class="edge">
<title>Node10&#45;&gt;Node5</title>
<path fill="none" stroke="#9a32cd" stroke-dasharray="5,2" d="M352.4959,-139.1079C378.9722,-143.1973 411.0895,-149.4362 439,-158.5 446.0752,-160.7976 460.6179,-167.6577 474.1568,-174.342"/>
<polygon fill="#9a32cd" stroke="#9a32cd" points="352.6788,-135.5968 342.2734,-137.5914 351.6516,-142.521 352.6788,-135.5968"/>
<text text-anchor="middle" x="400" y="-161.5" font-family="Helvetica,sans-Serif" font-size="10.00" fill="#000000"> unit_cell_input_</text>
</g>
<!-- Node11 -->
<g id="node9" class="node">
<title>Node11</title>
<g id="a_node9"><a xlink:href="../../d2/d6b/classgeometry3d_1_1vector3d.html" target="_top" xlink:title="geometry3d::vector3d\l\&lt; double \&gt;">
<polygon fill="#ffffff" stroke="#000000" points="114,-117.5 114,-147.5 203,-147.5 203,-117.5 114,-117.5"/>
<text text-anchor="start" x="122" y="-135.5" font-family="Helvetica,sans-Serif" font-size="10.00" fill="#000000">geometry3d::vector3d</text>
<text text-anchor="middle" x="158.5" y="-124.5" font-family="Helvetica,sans-Serif" font-size="10.00" fill="#000000">&lt; double &gt;</text>
</a>
</g>
</g>
<!-- Node11&#45;&gt;Node10 -->
<g id="edge8" class="edge">
<title>Node11&#45;&gt;Node10</title>
<path fill="none" stroke="#9a32cd" stroke-dasharray="5,2" d="M213.4582,-132.5C227.1505,-132.5 241.6485,-132.5 254.7206,-132.5"/>
<polygon fill="#9a32cd" stroke="#9a32cd" points="213.1818,-129.0001 203.1818,-132.5 213.1818,-136.0001 213.1818,-129.0001"/>
<text text-anchor="middle" x="228.5" y="-157.5" font-family="Helvetica,sans-Serif" font-size="10.00" fill="#000000"> a2_</text>
<text text-anchor="middle" x="228.5" y="-146.5" font-family="Helvetica,sans-Serif" font-size="10.00" fill="#000000">a1_</text>
<text text-anchor="middle" x="228.5" y="-135.5" font-family="Helvetica,sans-Serif" font-size="10.00" fill="#000000">a0_</text>
</g>
<!-- Node12 -->
<g id="node10" class="node">
<title>Node12</title>
<polygon fill="#ffffff" stroke="#bfbfbf" points="0,-117.5 0,-147.5 77,-147.5 77,-117.5 0,-117.5"/>
<text text-anchor="start" x="8" y="-135.5" font-family="Helvetica,sans-Serif" font-size="10.00" fill="#000000">std::array&lt; double</text>
<text text-anchor="middle" x="38.5" y="-124.5" font-family="Helvetica,sans-Serif" font-size="10.00" fill="#000000"> , 3 &gt;</text>
</g>
<!-- Node12&#45;&gt;Node11 -->
<g id="edge9" class="edge">
<title>Node12&#45;&gt;Node11</title>
<path fill="none" stroke="#191970" d="M87.2034,-132.5C95.9552,-132.5 105.0396,-132.5 113.6751,-132.5"/>
<polygon fill="#191970" stroke="#191970" points="87.1293,-129.0001 77.1293,-132.5 87.1293,-136.0001 87.1293,-129.0001"/>
</g>
<!-- Node13 -->
<g id="node11" class="node">
<title>Node13</title>
<g id="a_node11"><a xlink:href="../../d2/d11/structsirius_1_1_iterative__solver__input.html" target="_top" xlink:title="sirius::Iterative_solver\l_input">
<polygon fill="#ffffff" stroke="#000000" points="254,-73.5 254,-103.5 343,-103.5 343,-73.5 254,-73.5"/>
<text text-anchor="start" x="262" y="-91.5" font-family="Helvetica,sans-Serif" font-size="10.00" fill="#000000">sirius::Iterative_solver</text>
<text text-anchor="middle" x="298.5" y="-80.5" font-family="Helvetica,sans-Serif" font-size="10.00" fill="#000000">_input</text>
</a>
</g>
</g>
<!-- Node13&#45;&gt;Node5 -->
<g id="edge10" class="edge">
<title>Node13&#45;&gt;Node5</title>
<path fill="none" stroke="#9a32cd" stroke-dasharray="5,2" d="M353.4511,-91.8103C381.7748,-96.0704 415.2572,-105.391 439,-125.5 453.8763,-138.0995 443.5588,-151.3797 457,-165.5 460.1585,-168.8181 463.8761,-171.7555 467.8139,-174.3345"/>
<polygon fill="#9a32cd" stroke="#9a32cd" points="353.6509,-88.3062 343.2771,-90.4591 352.7293,-95.2452 353.6509,-88.3062"/>
<text text-anchor="middle" x="400" y="-128.5" font-family="Helvetica,sans-Serif" font-size="10.00" fill="#000000"> iterative_solver_input_</text>
</g>
<!-- Node14 -->
<g id="node12" class="node">
<title>Node14</title>
<g id="a_node12"><a xlink:href="../../d4/db0/structsirius_1_1_mixer__input.html" target="_top" xlink:title="Parse mixer input section. ">
<polygon fill="#ffffff" stroke="#000000" points="260,-35 260,-54 337,-54 337,-35 260,-35"/>
<text text-anchor="middle" x="298.5" y="-42" font-family="Helvetica,sans-Serif" font-size="10.00" fill="#000000">sirius::Mixer_input</text>
</a>
</g>
</g>
<!-- Node14&#45;&gt;Node5 -->
<g id="edge11" class="edge">
<title>Node14&#45;&gt;Node5</title>
<path fill="none" stroke="#9a32cd" stroke-dasharray="5,2" d="M347.062,-43.7741C377.5426,-45.9972 415.4092,-54.1075 439,-78.5 466.4502,-106.883 433.0616,-134.0984 457,-165.5 459.7773,-169.1431 463.2626,-172.2787 467.0734,-174.966"/>
<polygon fill="#9a32cd" stroke="#9a32cd" points="347.2143,-40.2773 337.0395,-43.2308 346.8354,-47.267 347.2143,-40.2773"/>
<text text-anchor="middle" x="400" y="-81.5" font-family="Helvetica,sans-Serif" font-size="10.00" fill="#000000"> mixer_input_</text>
</g>
<!-- Node15 -->
<g id="node13" class="node">
<title>Node15</title>
<g id="a_node13"><a xlink:href="../../d7/dab/classsddk_1_1mdarray.html" target="_top" xlink:title="sddk::mdarray\&lt; int, 2 \&gt;">
<polygon fill="#ffffff" stroke="#000000" points="673,-137 673,-156 766,-156 766,-137 673,-137"/>
<text text-anchor="middle" x="719.5" y="-144" font-family="Helvetica,sans-Serif" font-size="10.00" fill="#000000">sddk::mdarray&lt; int, 2 &gt;</text>
</a>
</g>
</g>
<!-- Node15&#45;&gt;Node4 -->
<g id="edge12" class="edge">
<title>Node15&#45;&gt;Node4</title>
<path fill="none" stroke="#9a32cd" stroke-dasharray="5,2" d="M776.625,-146.5C808.1243,-146.5 846.3048,-146.5 873.8181,-146.5"/>
<polygon fill="#9a32cd" stroke="#9a32cd" points="776.2239,-143.0001 766.2239,-146.5 776.2238,-150.0001 776.2239,-143.0001"/>
<text text-anchor="middle" x="820" y="-149.5" font-family="Helvetica,sans-Serif" font-size="10.00" fill="#000000"> gvec_coord_</text>
</g>
<!-- Node16 -->
<g id="node14" class="node">
<title>Node16</title>
<g id="a_node14"><a xlink:href="../../d0/d58/classsddk_1_1mdarray__base.html" target="_top" xlink:title="sddk::mdarray_base\l\&lt; int, N \&gt;">
<polygon fill="#ffffff" stroke="#000000" points="462,-125.5 462,-155.5 546,-155.5 546,-125.5 462,-125.5"/>
<text text-anchor="start" x="470" y="-143.5" font-family="Helvetica,sans-Serif" font-size="10.00" fill="#000000">sddk::mdarray_base</text>
<text text-anchor="middle" x="504" y="-132.5" font-family="Helvetica,sans-Serif" font-size="10.00" fill="#000000">&lt; int, N &gt;</text>
</a>
</g>
</g>
<!-- Node16&#45;&gt;Node15 -->
<g id="edge13" class="edge">
<title>Node16&#45;&gt;Node15</title>
<path fill="none" stroke="#191970" d="M556.2362,-141.9544C591.7614,-142.9435 638.3629,-144.241 672.6806,-145.1964"/>
<polygon fill="#191970" stroke="#191970" points="556.1557,-138.4509 546.0621,-141.6711 555.9608,-145.4482 556.1557,-138.4509"/>
</g>
<!-- Node17 -->
<g id="node15" class="node">
<title>Node17</title>
<g id="a_node15"><a xlink:href="../../d0/dc8/classsddk_1_1memory__pool.html" target="_top" xlink:title="sddk::memory_pool">
<polygon fill="#ffffff" stroke="#000000" points="678.5,-99 678.5,-118 760.5,-118 760.5,-99 678.5,-99"/>
<text text-anchor="middle" x="719.5" y="-106" font-family="Helvetica,sans-Serif" font-size="10.00" fill="#000000">sddk::memory_pool</text>
</a>
</g>
</g>
<!-- Node17&#45;&gt;Node4 -->
<g id="edge14" class="edge">
<title>Node17&#45;&gt;Node4</title>
<path fill="none" stroke="#9a32cd" stroke-dasharray="5,2" d="M770.5443,-115.8399C796.2906,-119.8611 827.9316,-125.2895 856,-131.5 861.845,-132.7933 867.9988,-134.3219 873.9825,-135.9003"/>
<polygon fill="#9a32cd" stroke="#9a32cd" points="771.041,-112.3752 760.6251,-114.3144 769.9769,-119.2939 771.041,-112.3752"/>
<text text-anchor="middle" x="820" y="-134.5" font-family="Helvetica,sans-Serif" font-size="10.00" fill="#000000"> memory_pool_</text>
</g>
<!-- Node18 -->
<g id="node16" class="node">
<title>Node18</title>
<g id="a_node16"><a xlink:href="../../d7/dab/classsddk_1_1mdarray.html" target="_top" xlink:title="sddk::mdarray\&lt; double\l_complex, 3 \&gt;">
<polygon fill="#ffffff" stroke="#000000" points="673,-49.5 673,-79.5 766,-79.5 766,-49.5 673,-49.5"/>
<text text-anchor="start" x="681" y="-67.5" font-family="Helvetica,sans-Serif" font-size="10.00" fill="#000000">sddk::mdarray&lt; double</text>
<text text-anchor="middle" x="719.5" y="-56.5" font-family="Helvetica,sans-Serif" font-size="10.00" fill="#000000">_complex, 3 &gt;</text>
</a>
</g>
</g>
<!-- Node18&#45;&gt;Node4 -->
<g id="edge15" class="edge">
<title>Node18&#45;&gt;Node4</title>
<path fill="none" stroke="#9a32cd" stroke-dasharray="5,2" d="M775.9923,-68.1138C801.6137,-71.6062 831.5725,-78.3882 856,-91.5 874.0031,-101.1634 889.8409,-118.7412 899.7379,-131.4282"/>
<polygon fill="#9a32cd" stroke="#9a32cd" points="776.3939,-64.6369 766.0414,-66.8898 775.5393,-71.5846 776.3939,-64.6369"/>
<text text-anchor="middle" x="820" y="-105.5" font-family="Helvetica,sans-Serif" font-size="10.00" fill="#000000"> sym_phase_factors_</text>
<text text-anchor="middle" x="820" y="-94.5" font-family="Helvetica,sans-Serif" font-size="10.00" fill="#000000">phase_factors_</text>
</g>
<!-- Node19 -->
<g id="node17" class="node">
<title>Node19</title>
<g id="a_node17"><a xlink:href="../../d0/d58/classsddk_1_1mdarray__base.html" target="_top" xlink:title="sddk::mdarray_base\l\&lt; double_complex, N \&gt;">
<polygon fill="#ffffff" stroke="#000000" points="457,-25.5 457,-55.5 551,-55.5 551,-25.5 457,-25.5"/>
<text text-anchor="start" x="465" y="-43.5" font-family="Helvetica,sans-Serif" font-size="10.00" fill="#000000">sddk::mdarray_base</text>
<text text-anchor="middle" x="504" y="-32.5" font-family="Helvetica,sans-Serif" font-size="10.00" fill="#000000">&lt; double_complex, N &gt;</text>
</a>
</g>
</g>
<!-- Node19&#45;&gt;Node18 -->
<g id="edge16" class="edge">
<title>Node19&#45;&gt;Node18</title>
<path fill="none" stroke="#191970" d="M561.0814,-46.8571C596.0111,-50.7472 640.139,-55.6616 672.945,-59.3152"/>
<polygon fill="#191970" stroke="#191970" points="561.3521,-43.3657 551.0261,-45.7372 560.5772,-50.3227 561.3521,-43.3657"/>
</g>
<!-- Node20 -->
<g id="node18" class="node">
<title>Node20</title>
<g id="a_node18"><a xlink:href="../../d7/dab/classsddk_1_1mdarray.html" target="_top" xlink:title="sddk::mdarray\&lt; double\l_complex, 2 \&gt;">
<polygon fill="#ffffff" stroke="#000000" points="673,-.5 673,-30.5 766,-30.5 766,-.5 673,-.5"/>
<text text-anchor="start" x="681" y="-18.5" font-family="Helvetica,sans-Serif" font-size="10.00" fill="#000000">sddk::mdarray&lt; double</text>
<text text-anchor="middle" x="719.5" y="-7.5" font-family="Helvetica,sans-Serif" font-size="10.00" fill="#000000">_complex, 2 &gt;</text>
</a>
</g>
</g>
<!-- Node19&#45;&gt;Node20 -->
<g id="edge18" class="edge">
<title>Node19&#45;&gt;Node20</title>
<path fill="none" stroke="#191970" d="M561.0814,-33.878C596.0111,-29.8259 640.139,-24.7066 672.945,-20.9008"/>
<polygon fill="#191970" stroke="#191970" points="560.5561,-30.4154 551.0261,-35.0445 561.3628,-37.3688 560.5561,-30.4154"/>
</g>
<!-- Node20&#45;&gt;Node4 -->
<g id="edge17" class="edge">
<title>Node20&#45;&gt;Node4</title>
<path fill="none" stroke="#9a32cd" stroke-dasharray="5,2" d="M776.0251,-21.3508C802.4678,-26.4172 833.0994,-35.8688 856,-53.5 882.2462,-73.707 898.2522,-110.4294 905.6314,-131.1698"/>
<polygon fill="#9a32cd" stroke="#9a32cd" points="776.5746,-17.8938 766.1207,-19.6159 775.3668,-24.7888 776.5746,-17.8938"/>
<text text-anchor="middle" x="820" y="-56.5" font-family="Helvetica,sans-Serif" font-size="10.00" fill="#000000"> phase_factors_t_</text>
</g>
<!-- Node21 -->
<g id="node19" class="node">
<title>Node21</title>
<g id="a_node19"><a xlink:href="../../da/d70/classsddk_1_1_communicator.html" target="_top" xlink:title="MPI communicator wrapper. ">
<polygon fill="#ffffff" stroke="#000000" points="461.5,-322 461.5,-341 546.5,-341 546.5,-322 461.5,-322"/>
<text text-anchor="middle" x="504" y="-329" font-family="Helvetica,sans-Serif" font-size="10.00" fill="#000000">sddk::Communicator</text>
</a>
</g>
</g>
<!-- Node21&#45;&gt;Node4 -->
<g id="edge19" class="edge">
<title>Node21&#45;&gt;Node4</title>
<path fill="none" stroke="#9a32cd" stroke-dasharray="5,2" d="M556.7991,-336.2796C586.0429,-337.651 622.8734,-337.2655 655,-330.5 750.2533,-310.4408 783.7031,-308.6821 856,-243.5 881.5365,-220.4765 897.9099,-182.5745 905.5167,-161.6153"/>
<polygon fill="#9a32cd" stroke="#9a32cd" points="556.9691,-332.7837 546.7918,-335.7288 556.5843,-339.7731 556.9691,-332.7837"/>
<text text-anchor="middle" x="719.5" y="-384.5" font-family="Helvetica,sans-Serif" font-size="10.00" fill="#000000"> comm_ortho_fft_</text>
<text text-anchor="start" x="680" y="-373.5" font-family="Helvetica,sans-Serif" font-size="10.00" fill="#000000">comm_ortho_fft_coarse</text>
<text text-anchor="middle" x="719.5" y="-362.5" font-family="Helvetica,sans-Serif" font-size="10.00" fill="#000000">_</text>
<text text-anchor="start" x="680" y="-351.5" font-family="Helvetica,sans-Serif" font-size="10.00" fill="#000000">comm_band_ortho</text>
<text text-anchor="middle" x="719.5" y="-340.5" font-family="Helvetica,sans-Serif" font-size="10.00" fill="#000000">_fft_coarse_</text>
<text text-anchor="middle" x="719.5" y="-329.5" font-family="Helvetica,sans-Serif" font-size="10.00" fill="#000000">comm_</text>
</g>
<!-- Node21&#45;&gt;Node22 -->
<g id="edge23" class="edge">
<title>Node21&#45;&gt;Node22</title>
<path fill="none" stroke="#9a32cd" stroke-dasharray="5,2" d="M556.5116,-321.9722C592.903,-314.872 637.7895,-304.9799 655,-296.5 677.3617,-285.4821 698.7912,-265.3445 710.4467,-253.3154"/>
<polygon fill="#9a32cd" stroke="#9a32cd" points="555.6616,-318.5715 546.5027,-323.8973 556.9838,-325.4455 555.6616,-318.5715"/>
<text text-anchor="middle" x="612" y="-321.5" font-family="Helvetica,sans-Serif" font-size="10.00" fill="#000000"> comm_</text>
</g>
<!-- Node22&#45;&gt;Node4 -->
<g id="edge20" class="edge">
<title>Node22&#45;&gt;Node4</title>
<path fill="none" stroke="#9a32cd" stroke-dasharray="5,2" d="M763.1154,-234.3739C791.0088,-227.3028 827.221,-215.7584 856,-198.5 872.3748,-188.6803 887.7985,-173.1478 898.03,-161.6127"/>
<polygon fill="#9a32cd" stroke="#9a32cd" points="762.1317,-231.0111 753.2445,-236.7789 763.7888,-237.8121 762.1317,-231.0111"/>
<text text-anchor="middle" x="820" y="-231.5" font-family="Helvetica,sans-Serif" font-size="10.00" fill="#000000"> unit_cell_</text>
</g>
<!-- Node23 -->
<g id="node21" class="node">
<title>Node23</title>
<g id="a_node21"><a xlink:href="../../d2/dc9/classsddk_1_1splindex.html" target="_top" xlink:title="sddk::splindex\&lt; block \&gt;">
<polygon fill="#ffffff" stroke="#000000" points="457,-263 457,-282 551,-282 551,-263 457,-263"/>
<text text-anchor="middle" x="504" y="-270" font-family="Helvetica,sans-Serif" font-size="10.00" fill="#000000">sddk::splindex&lt; block &gt;</text>
</a>
</g>
</g>
<!-- Node23&#45;&gt;Node22 -->
<g id="edge21" class="edge">
<title>Node23&#45;&gt;Node22</title>
<path fill="none" stroke="#9a32cd" stroke-dasharray="5,2" d="M539.4266,-259.9259C548.9207,-257.0189 559.2564,-254.2641 569,-252.5 608.6649,-245.3185 655.0705,-243.5203 685.7531,-243.2275"/>
<polygon fill="#9a32cd" stroke="#9a32cd" points="538.3551,-256.5939 529.8976,-262.9752 540.4886,-263.2608 538.3551,-256.5939"/>
<text text-anchor="middle" x="612" y="-288.5" font-family="Helvetica,sans-Serif" font-size="10.00" fill="#000000"> spl_num_paw_atoms_</text>
<text text-anchor="middle" x="612" y="-277.5" font-family="Helvetica,sans-Serif" font-size="10.00" fill="#000000">spl_num_atoms_</text>
<text text-anchor="start" x="569" y="-266.5" font-family="Helvetica,sans-Serif" font-size="10.00" fill="#000000">spl_num_atom_symmetry</text>
<text text-anchor="middle" x="612" y="-255.5" font-family="Helvetica,sans-Serif" font-size="10.00" fill="#000000">_classes_</text>
</g>
<!-- Node24 -->
<g id="node22" class="node">
<title>Node24</title>
<g id="a_node22"><a xlink:href="../../d6/dec/classsddk_1_1splindex__base.html" target="_top" xlink:title="sddk::splindex_base\l\&lt; int \&gt;">
<polygon fill="#ffffff" stroke="#000000" points="256.5,-324.5 256.5,-354.5 340.5,-354.5 340.5,-324.5 256.5,-324.5"/>
<text text-anchor="start" x="264.5" y="-342.5" font-family="Helvetica,sans-Serif" font-size="10.00" fill="#000000">sddk::splindex_base</text>
<text text-anchor="middle" x="298.5" y="-331.5" font-family="Helvetica,sans-Serif" font-size="10.00" fill="#000000">&lt; int &gt;</text>
</a>
</g>
</g>
<!-- Node24&#45;&gt;Node23 -->
<g id="edge22" class="edge">
<title>Node24&#45;&gt;Node23</title>
<path fill="none" stroke="#191970" d="M350.7156,-329.8849C377.5457,-324.1913 410.5034,-316.0187 439,-305.5 456.2155,-299.1454 474.7821,-289.4025 487.6463,-282.1482"/>
<polygon fill="#191970" stroke="#191970" points="349.8384,-326.4921 340.7547,-331.9453 351.2564,-333.347 349.8384,-326.4921"/>
</g>
</g>
</svg>
        <g id="navigator" transform="translate(0 0)" fill="#404254">
                <rect fill="#f2f5e9" fill-opacity="0.5" stroke="#606060" stroke-width=".5" x="0" y="0" width="60" height="60"/>
                <use id="zoomplus" xlink:href="#zoomPlus" x="17" y="9" onmousedown="handleZoom(evt,'in')"/>
                <use id="zoomminus" xlink:href="#zoomMin" x="42" y="9" onmousedown="handleZoom(evt,'out')"/>
                <use id="reset" xlink:href="#resetDef" x="30" y="36" onmousedown="handleReset()"/>
                <g id="arrowUp" xlink:href="#dirArrow" transform="translate(30 24)" onmousedown="handlePan(0,-1)">
                  <use xlink:href="#rim" fill="#404040">
                        <set attributeName="fill" to="#808080" begin="arrowUp.mouseover" end="arrowUp.mouseout"/>
                  </use>
                  <path fill="none" stroke="white" stroke-width="1.5" d="M0,-3.0v7 M-2.5,-0.5L0,-3.0L2.5,-0.5"/>
                </g>
                <g id="arrowRight" xlink:href="#dirArrow" transform="rotate(90) translate(36 -43)" onmousedown="handlePan(1,0)">
                  <use xlink:href="#rim" fill="#404040">
                        <set attributeName="fill" to="#808080" begin="arrowRight.mouseover" end="arrowRight.mouseout"/>
                  </use>
                  <path fill="none" stroke="white" stroke-width="1.5" d="M0,-3.0v7 M-2.5,-0.5L0,-3.0L2.5,-0.5"/>
                </g>
                <g id="arrowDown" xlink:href="#dirArrow" transform="rotate(180) translate(-30 -48)" onmousedown="handlePan(0,1)">
                  <use xlink:href="#rim" fill="#404040">
                        <set attributeName="fill" to="#808080" begin="arrowDown.mouseover" end="arrowDown.mouseout"/>
                  </use>
                  <path fill="none" stroke="white" stroke-width="1.5" d="M0,-3.0v7 M-2.5,-0.5L0,-3.0L2.5,-0.5"/>
                </g>
                <g id="arrowLeft" xlink:href="#dirArrow" transform="rotate(270) translate(-36 17)" onmousedown="handlePan(-1,0)">
                  <use xlink:href="#rim" fill="#404040">
                        <set attributeName="fill" to="#808080" begin="arrowLeft.mouseover" end="arrowLeft.mouseout"/>
                  </use>
                  <path fill="none" stroke="white" stroke-width="1.5" d="M0,-3.0v7 M-2.5,-0.5L0,-3.0L2.5,-0.5"/>
                </g>
        </g>
        <svg viewBox="0 0 15 15" width="100%" height="30px" preserveAspectRatio="xMaxYMin meet">
         <g id="arrow_out" transform="scale(0.3 0.3)">
          <a xlink:href="classsirius_1_1_simulation__context__coll__graph_org.svg" target="_base">
           <rect id="button" ry="5" rx="5" y="6" x="6" height="38" width="38"
                fill="#f2f5e9" fill-opacity="0.5" stroke="#606060" stroke-width="1.0"/>
           <path id="arrow"
             d="M 11.500037,31.436501 C 11.940474,20.09759 22.043105,11.32322 32.158766,21.979434 L 37.068811,17.246167 C 37.068811,17.246167 37.088388,32 37.088388,32 L 22.160133,31.978069 C 22.160133,31.978069 26.997745,27.140456 26.997745,27.140456 C 18.528582,18.264221 13.291696,25.230495 11.500037,31.436501 z"
             style="fill:#404040;"/>
          </a>
         </g>
        </svg>
</svg>
