<?xml version="1.0" encoding="UTF-8" standalone="no"?>
<!DOCTYPE svg PUBLIC "-//W3C//DTD SVG 1.1//EN"
 "http://www.w3.org/Graphics/SVG/1.1/DTD/svg11.dtd">
<!-- Generated by graphviz version 2.40.1 (20161225.0304)
 -->
<!-- Title: sirius::Periodic_function&lt; T &gt; Pages: 1 -->
<!--zoomable 909 -->
<svg id="main" version="1.1" xmlns="http://www.w3.org/2000/svg" xmlns:xlink="http://www.w3.org/1999/xlink" xml:space="preserve" onload="init(evt)">
<style type="text/css"><![CDATA[
.edge:hover path { stroke: red; }
.edge:hover polygon { stroke: red; fill: red; }
]]></style>
<script type="text/javascript"><![CDATA[
var edges = document.getElementsByTagName('g');
if (edges && edges.length) {
  for (var i=0;i<edges.length;i++) {
    if (edges[i].id.substr(0,4)=='edge') {
      edges[i].setAttribute('class','edge');
    }
  }
}
]]></script>
        <defs>
                <circle id="rim" cx="0" cy="0" r="7"/>
                <circle id="rim2" cx="0" cy="0" r="3.5"/>
                <g id="zoomPlus">
                        <use xlink:href="#rim" fill="#404040">
                                <set attributeName="fill" to="#808080" begin="zoomplus.mouseover" end="zoomplus.mouseout"/>
                        </use>
                        <path d="M-4,0h8M0,-4v8" fill="none" stroke="white" stroke-width="1.5" pointer-events="none"/>
                </g>
                <g id="zoomMin">
                        <use xlink:href="#rim" fill="#404040">
                                <set attributeName="fill" to="#808080" begin="zoomminus.mouseover" end="zoomminus.mouseout"/>
                        </use>
                        <path d="M-4,0h8" fill="none" stroke="white" stroke-width="1.5" pointer-events="none"/>
                </g>
                <g id="dirArrow">
                        <path fill="none" stroke="white" stroke-width="1.5" d="M0,-3.0v7 M-2.5,-0.5L0,-3.0L2.5,-0.5"/>
                </g>
               <g id="resetDef">
                       <use xlink:href="#rim2" fill="#404040">
                               <set attributeName="fill" to="#808080" begin="reset.mouseover" end="reset.mouseout"/>
                       </use>
               </g>
        </defs>

<script type="text/javascript">
var viewWidth = 1168;
var viewHeight = 909;
var sectionId = 'dynsection-1';
</script>
<script xlink:href="../../svgpan.js"/>
<svg id="graph" class="graph">
<g id="viewport">
<title>sirius::Periodic_function&lt; T &gt;</title>
<polygon fill="#ffffff" stroke="transparent" points="-4,4 -4,-904.7677 1164,-904.7677 1164,4 -4,4"/>
<!-- Node2 -->
<g id="node1" class="node">
<title>Node2</title>
<polygon fill="#bfbfbf" stroke="#000000" points="1015,-401.2677 1015,-420.2677 1160,-420.2677 1160,-401.2677 1015,-401.2677"/>
<text text-anchor="middle" x="1087.5" y="-408.2677" font-family="Helvetica,sans-Serif" font-size="10.00" fill="#000000">sirius::Periodic_function&lt; T &gt;</text>
</g>
<!-- Node3 -->
<g id="node2" class="node">
<title>Node3</title>
<g id="a_node2"><a xlink:href="../../d6/d10/classsirius_1_1_smooth__periodic__function.html" target="_top" xlink:title="Representation of a smooth (Fourier&#45;transformable) periodic function. ">
<polygon fill="#ffffff" stroke="#000000" points="793.5,-395.7677 793.5,-425.7677 913.5,-425.7677 913.5,-395.7677 793.5,-395.7677"/>
<text text-anchor="start" x="801.5" y="-413.7677" font-family="Helvetica,sans-Serif" font-size="10.00" fill="#000000">sirius::Smooth_periodic</text>
<text text-anchor="middle" x="853.5" y="-402.7677" font-family="Helvetica,sans-Serif" font-size="10.00" fill="#000000">_function&lt; T &gt;</text>
</a>
</g>
</g>
<!-- Node3&#45;&gt;Node2 -->
<g id="edge1" class="edge">
<title>Node3&#45;&gt;Node2</title>
<path fill="none" stroke="#191970" d="M924.1251,-410.7677C952.8466,-410.7677 986.0166,-410.7677 1014.9336,-410.7677"/>
<polygon fill="#191970" stroke="#191970" points="923.7608,-407.2678 913.7608,-410.7677 923.7608,-414.2678 923.7608,-407.2678"/>
</g>
<!-- Node4 -->
<g id="node3" class="node">
<title>Node4</title>
<g id="a_node3"><a xlink:href="../../d7/dab/classsddk_1_1mdarray.html" target="_top" xlink:title="sddk::mdarray\&lt; double\l_complex, 1 \&gt;">
<polygon fill="#ffffff" stroke="#000000" points="502.5,-470.7677 502.5,-500.7677 620.5,-500.7677 620.5,-470.7677 502.5,-470.7677"/>
<text text-anchor="start" x="510.5" y="-488.7677" font-family="Helvetica,sans-Serif" font-size="10.00" fill="#000000">sddk::mdarray&lt; double</text>
<text text-anchor="middle" x="561.5" y="-477.7677" font-family="Helvetica,sans-Serif" font-size="10.00" fill="#000000">_complex, 1 &gt;</text>
</a>
</g>
</g>
<!-- Node4&#45;&gt;Node3 -->
<g id="edge2" class="edge">
<title>Node4&#45;&gt;Node3</title>
<path fill="none" stroke="#9a32cd" stroke-dasharray="5,2" d="M630.6993,-473.1183C684.1631,-463.2311 751.1545,-450.5499 764,-446.7677 783.1187,-441.1384 803.8021,-432.9637 820.4644,-425.8264"/>
<polygon fill="#9a32cd" stroke="#9a32cd" points="629.7474,-469.7348 620.5489,-474.992 631.0181,-476.6185 629.7474,-469.7348"/>
<text text-anchor="middle" x="707" y="-481.7677" font-family="Helvetica,sans-Serif" font-size="10.00" fill="#000000"> f_pw_fft_</text>
<text text-anchor="middle" x="707" y="-470.7677" font-family="Helvetica,sans-Serif" font-size="10.00" fill="#000000">f_pw_local_</text>
</g>
<!-- Node7 -->
<g id="node6" class="node">
<title>Node7</title>
<g id="a_node6"><a xlink:href="../../d6/d66/classsirius_1_1_simulation__context.html" target="_top" xlink:title="Simulation context is a set of parameters and objects describing a single simulation. ">
<polygon fill="#ffffff" stroke="#000000" points="807.5,-558.7677 807.5,-588.7677 899.5,-588.7677 899.5,-558.7677 807.5,-558.7677"/>
<text text-anchor="start" x="815.5" y="-576.7677" font-family="Helvetica,sans-Serif" font-size="10.00" fill="#000000">sirius::Simulation</text>
<text text-anchor="middle" x="853.5" y="-565.7677" font-family="Helvetica,sans-Serif" font-size="10.00" fill="#000000">_context</text>
</a>
</g>
</g>
<!-- Node4&#45;&gt;Node7 -->
<g id="edge8" class="edge">
<title>Node4&#45;&gt;Node7</title>
<path fill="none" stroke="#9a32cd" stroke-dasharray="5,2" d="M631.0664,-492.5989C670.8601,-497.946 721.2163,-507.1828 764,-522.7677 788.5334,-531.7045 814.1938,-547.0358 831.7161,-558.5612"/>
<polygon fill="#9a32cd" stroke="#9a32cd" points="631.2924,-489.0991 620.9264,-491.2894 630.3957,-496.0415 631.2924,-489.0991"/>
<text text-anchor="middle" x="707" y="-525.7677" font-family="Helvetica,sans-Serif" font-size="10.00" fill="#000000"> theta_pw_</text>
</g>
<!-- Node5 -->
<g id="node4" class="node">
<title>Node5</title>
<g id="a_node4"><a xlink:href="../../d7/dab/classsddk_1_1mdarray.html" target="_top" xlink:title="sddk::mdarray\&lt; T, 1 \&gt;">
<polygon fill="#ffffff" stroke="#000000" points="358.5,-305.2677 358.5,-324.2677 472.5,-324.2677 472.5,-305.2677 358.5,-305.2677"/>
<text text-anchor="middle" x="415.5" y="-312.2677" font-family="Helvetica,sans-Serif" font-size="10.00" fill="#000000">sddk::mdarray&lt; T, 1 &gt;</text>
</a>
</g>
</g>
<!-- Node5&#45;&gt;Node3 -->
<g id="edge3" class="edge">
<title>Node5&#45;&gt;Node3</title>
<path fill="none" stroke="#9a32cd" stroke-dasharray="5,2" d="M477.1231,-326.1866C569.663,-343.3995 736.6445,-374.7348 764,-381.7677 779.3445,-385.7126 795.9103,-390.8316 810.5688,-395.6684"/>
<polygon fill="#9a32cd" stroke="#9a32cd" points="477.5123,-322.6991 467.041,-324.3124 476.2329,-329.5812 477.5123,-322.6991"/>
<text text-anchor="middle" x="561.5" y="-357.7677" font-family="Helvetica,sans-Serif" font-size="10.00" fill="#000000"> f_rg_</text>
</g>
<!-- Node6 -->
<g id="node5" class="node">
<title>Node6</title>
<polygon fill="#ffffff" stroke="#bfbfbf" points="39,-43.2677 39,-62.2677 68,-62.2677 68,-43.2677 39,-43.2677"/>
<text text-anchor="middle" x="53.5" y="-50.2677" font-family="Helvetica,sans-Serif" font-size="10.00" fill="#000000">T</text>
</g>
<!-- Node6&#45;&gt;Node5 -->
<g id="edge4" class="edge">
<title>Node6&#45;&gt;Node5</title>
<path fill="none" stroke="#9a32cd" stroke-dasharray="5,2" d="M75.0165,-68.3404C142.3072,-117.0425 347.5182,-265.5653 402.0659,-305.0446"/>
<polygon fill="#9a32cd" stroke="#9a32cd" points="76.9661,-65.4309 66.8131,-62.4031 72.8619,-71.1015 76.9661,-65.4309"/>
<text text-anchor="middle" x="163.5" y="-169.7677" font-family="Helvetica,sans-Serif" font-size="10.00" fill="#000000"> raw_ptr_device_</text>
<text text-anchor="middle" x="163.5" y="-158.7677" font-family="Helvetica,sans-Serif" font-size="10.00" fill="#000000">raw_ptr_</text>
</g>
<!-- Node17 -->
<g id="node16" class="node">
<title>Node17</title>
<g id="a_node16"><a xlink:href="../../d7/dab/classsddk_1_1mdarray.html" target="_top" xlink:title="sddk::mdarray\&lt; T, 3 \&gt;">
<polygon fill="#ffffff" stroke="#000000" points="650,-2.2677 650,-21.2677 764,-21.2677 764,-2.2677 650,-2.2677"/>
<text text-anchor="middle" x="707" y="-9.2677" font-family="Helvetica,sans-Serif" font-size="10.00" fill="#000000">sddk::mdarray&lt; T, 3 &gt;</text>
</a>
</g>
</g>
<!-- Node6&#45;&gt;Node17 -->
<g id="edge18" class="edge">
<title>Node6&#45;&gt;Node17</title>
<path fill="none" stroke="#9a32cd" stroke-dasharray="5,2" d="M78.3117,-44.6582C110.5427,-34.5896 168.7554,-17.9842 220,-11.7677 374.4372,6.9673 558.4559,-1.2293 649.7502,-7.3218"/>
<polygon fill="#9a32cd" stroke="#9a32cd" points="76.8965,-41.4353 68.4248,-47.7978 79.0152,-48.107 76.8965,-41.4353"/>
<text text-anchor="middle" x="280" y="-25.7677" font-family="Helvetica,sans-Serif" font-size="10.00" fill="#000000"> raw_ptr_device_</text>
<text text-anchor="middle" x="280" y="-14.7677" font-family="Helvetica,sans-Serif" font-size="10.00" fill="#000000">raw_ptr_</text>
</g>
<!-- Node28 -->
<g id="node27" class="node">
<title>Node28</title>
<g id="a_node27"><a xlink:href="../../d7/dab/classsddk_1_1mdarray.html" target="_top" xlink:title="sddk::mdarray\&lt; T, 2 \&gt;">
<polygon fill="#ffffff" stroke="#000000" points="223,-43.2677 223,-62.2677 337,-62.2677 337,-43.2677 223,-43.2677"/>
<text text-anchor="middle" x="280" y="-50.2677" font-family="Helvetica,sans-Serif" font-size="10.00" fill="#000000">sddk::mdarray&lt; T, 2 &gt;</text>
</a>
</g>
</g>
<!-- Node6&#45;&gt;Node28 -->
<g id="edge34" class="edge">
<title>Node6&#45;&gt;Node28</title>
<path fill="none" stroke="#9a32cd" stroke-dasharray="5,2" d="M78.1058,-52.7677C112.5207,-52.7677 176.0403,-52.7677 222.6718,-52.7677"/>
<polygon fill="#9a32cd" stroke="#9a32cd" points="78.0132,-49.2678 68.0132,-52.7677 78.0131,-56.2678 78.0132,-49.2678"/>
<text text-anchor="middle" x="163.5" y="-66.7677" font-family="Helvetica,sans-Serif" font-size="10.00" fill="#000000"> raw_ptr_device_</text>
<text text-anchor="middle" x="163.5" y="-55.7677" font-family="Helvetica,sans-Serif" font-size="10.00" fill="#000000">raw_ptr_</text>
</g>
<!-- Node7&#45;&gt;Node2 -->
<g id="edge5" class="edge">
<title>Node7&#45;&gt;Node2</title>
<path fill="none" stroke="#9a32cd" stroke-dasharray="5,2" d="M883.43,-552.919C934.5403,-517.3165 1036.7079,-446.1485 1073.7143,-420.3705"/>
<polygon fill="#9a32cd" stroke="#9a32cd" points="881.2997,-550.1374 875.0947,-558.7252 885.3008,-555.8813 881.2997,-550.1374"/>
<text text-anchor="middle" x="970" y="-509.7677" font-family="Helvetica,sans-Serif" font-size="10.00" fill="#000000"> ctx_</text>
</g>
<!-- Node8 -->
<g id="node7" class="node">
<title>Node8</title>
<polygon fill="#ffffff" stroke="#bfbfbf" points="502,-558.2677 502,-577.2677 621,-577.2677 621,-558.2677 502,-558.2677"/>
<text text-anchor="middle" x="561.5" y="-565.2677" font-family="Helvetica,sans-Serif" font-size="10.00" fill="#000000">Simulation_parameters</text>
</g>
<!-- Node8&#45;&gt;Node7 -->
<g id="edge6" class="edge">
<title>Node8&#45;&gt;Node7</title>
<path fill="none" stroke="#191970" d="M631.5645,-569.2074C685.9993,-570.3259 759.9488,-571.8454 807.2091,-572.8165"/>
<polygon fill="#191970" stroke="#191970" points="631.365,-565.7026 621.2952,-568.9963 631.2211,-572.7011 631.365,-565.7026"/>
</g>
<!-- Node9 -->
<g id="node8" class="node">
<title>Node9</title>
<g id="a_node8"><a xlink:href="../../d7/dab/classsddk_1_1mdarray.html" target="_top" xlink:title="sddk::mdarray\&lt; int, 2 \&gt;">
<polygon fill="#ffffff" stroke="#000000" points="502,-520.2677 502,-539.2677 621,-539.2677 621,-520.2677 502,-520.2677"/>
<text text-anchor="middle" x="561.5" y="-527.2677" font-family="Helvetica,sans-Serif" font-size="10.00" fill="#000000">sddk::mdarray&lt; int, 2 &gt;</text>
</a>
</g>
</g>
<!-- Node9&#45;&gt;Node7 -->
<g id="edge7" class="edge">
<title>Node9&#45;&gt;Node7</title>
<path fill="none" stroke="#9a32cd" stroke-dasharray="5,2" d="M631.0778,-536.2448C670.2624,-540.335 720.0177,-546.2672 764,-553.7677 778.1254,-556.1765 793.3807,-559.3636 807.2256,-562.4839"/>
<polygon fill="#9a32cd" stroke="#9a32cd" points="631.4015,-532.7598 621.096,-535.2188 630.6856,-539.7231 631.4015,-532.7598"/>
<text text-anchor="middle" x="707" y="-556.7677" font-family="Helvetica,sans-Serif" font-size="10.00" fill="#000000"> gvec_coord_</text>
</g>
<!-- Node10 -->
<g id="node9" class="node">
<title>Node10</title>
<g id="a_node9"><a xlink:href="../../d7/dab/classsddk_1_1mdarray.html" target="_top" xlink:title="sddk::mdarray\&lt; double, 1 \&gt;">
<polygon fill="#ffffff" stroke="#000000" points="492.5,-432.2677 492.5,-451.2677 630.5,-451.2677 630.5,-432.2677 492.5,-432.2677"/>
<text text-anchor="middle" x="561.5" y="-439.2677" font-family="Helvetica,sans-Serif" font-size="10.00" fill="#000000">sddk::mdarray&lt; double, 1 &gt;</text>
</a>
</g>
</g>
<!-- Node10&#45;&gt;Node7 -->
<g id="edge9" class="edge">
<title>Node10&#45;&gt;Node7</title>
<path fill="none" stroke="#9a32cd" stroke-dasharray="5,2" d="M598.7867,-429.4261C641.5139,-417.6317 712.2894,-405.4512 764,-433.7677 813.34,-460.786 839.4429,-527.8738 849.0811,-558.3112"/>
<polygon fill="#9a32cd" stroke="#9a32cd" points="597.7098,-426.0941 589.0756,-432.2343 599.6543,-432.8186 597.7098,-426.0941"/>
<text text-anchor="middle" x="707" y="-436.7677" font-family="Helvetica,sans-Serif" font-size="10.00" fill="#000000"> theta_</text>
</g>
<!-- Node18 -->
<g id="node17" class="node">
<title>Node18</title>
<g id="a_node17"><a xlink:href="../../dc/d9b/classsddk_1_1_gvec.html" target="_top" xlink:title="A set of G&#45;vectors for FFTs and G+k basis functions. ">
<polygon fill="#ffffff" stroke="#000000" points="820,-262.2677 820,-281.2677 887,-281.2677 887,-262.2677 820,-262.2677"/>
<text text-anchor="middle" x="853.5" y="-269.2677" font-family="Helvetica,sans-Serif" font-size="10.00" fill="#000000">sddk::Gvec</text>
</a>
</g>
</g>
<!-- Node10&#45;&gt;Node18 -->
<g id="edge22" class="edge">
<title>Node10&#45;&gt;Node18</title>
<path fill="none" stroke="#9a32cd" stroke-dasharray="5,2" d="M609.0312,-428.7243C616.9674,-425.6738 624.9149,-422.0386 632,-417.7677 641.4241,-412.0868 640.692,-406.6369 650,-400.7677 695.9392,-371.8 718.1012,-385.7992 764,-356.7677 798.4097,-335.0031 831.0429,-298.7237 845.5823,-281.4638"/>
<polygon fill="#9a32cd" stroke="#9a32cd" points="607.6553,-425.4992 599.4151,-432.1587 610.0097,-432.0913 607.6553,-425.4992"/>
<text text-anchor="middle" x="707" y="-403.7677" font-family="Helvetica,sans-Serif" font-size="10.00" fill="#000000"> gvec_shell_len_</text>
</g>
<!-- Node11 -->
<g id="node10" class="node">
<title>Node11</title>
<g id="a_node10"><a xlink:href="../../d7/dab/classsddk_1_1mdarray.html" target="_top" xlink:title="sddk::mdarray\&lt; double\l_complex, 3 \&gt;">
<polygon fill="#ffffff" stroke="#000000" points="502.5,-747.7677 502.5,-777.7677 620.5,-777.7677 620.5,-747.7677 502.5,-747.7677"/>
<text text-anchor="start" x="510.5" y="-765.7677" font-family="Helvetica,sans-Serif" font-size="10.00" fill="#000000">sddk::mdarray&lt; double</text>
<text text-anchor="middle" x="561.5" y="-754.7677" font-family="Helvetica,sans-Serif" font-size="10.00" fill="#000000">_complex, 3 &gt;</text>
</a>
</g>
</g>
<!-- Node11&#45;&gt;Node7 -->
<g id="edge10" class="edge">
<title>Node11&#45;&gt;Node7</title>
<path fill="none" stroke="#9a32cd" stroke-dasharray="5,2" d="M618.6529,-744.6136C674.1737,-726.6766 751.8421,-700.6691 764,-691.7677 802.5878,-663.5156 832.3491,-614.0259 845.7397,-589.0736"/>
<polygon fill="#9a32cd" stroke="#9a32cd" points="617.356,-741.3542 608.9108,-747.7518 619.5023,-748.0171 617.356,-741.3542"/>
<text text-anchor="middle" x="707" y="-745.7677" font-family="Helvetica,sans-Serif" font-size="10.00" fill="#000000"> sym_phase_factors_</text>
<text text-anchor="middle" x="707" y="-734.7677" font-family="Helvetica,sans-Serif" font-size="10.00" fill="#000000">phase_factors_</text>
</g>
<!-- Node12 -->
<g id="node11" class="node">
<title>Node12</title>
<g id="a_node11"><a xlink:href="../../d7/dab/classsddk_1_1mdarray.html" target="_top" xlink:title="sddk::mdarray\&lt; double\l_complex, 2 \&gt;">
<polygon fill="#ffffff" stroke="#000000" points="502.5,-698.7677 502.5,-728.7677 620.5,-728.7677 620.5,-698.7677 502.5,-698.7677"/>
<text text-anchor="start" x="510.5" y="-716.7677" font-family="Helvetica,sans-Serif" font-size="10.00" fill="#000000">sddk::mdarray&lt; double</text>
<text text-anchor="middle" x="561.5" y="-705.7677" font-family="Helvetica,sans-Serif" font-size="10.00" fill="#000000">_complex, 2 &gt;</text>
</a>
</g>
</g>
<!-- Node12&#45;&gt;Node7 -->
<g id="edge11" class="edge">
<title>Node12&#45;&gt;Node7</title>
<path fill="none" stroke="#9a32cd" stroke-dasharray="5,2" d="M610.8027,-695.0935C652.3628,-678.8188 713.0359,-653.7998 764,-627.7677 787.272,-615.8805 812.6814,-600.2805 830.4601,-588.9057"/>
<polygon fill="#9a32cd" stroke="#9a32cd" points="609.5012,-691.8443 601.4523,-698.7338 612.0408,-698.3673 609.5012,-691.8443"/>
<text text-anchor="middle" x="707" y="-679.7677" font-family="Helvetica,sans-Serif" font-size="10.00" fill="#000000"> phase_factors_t_</text>
</g>
<!-- Node13 -->
<g id="node12" class="node">
<title>Node13</title>
<g id="a_node12"><a xlink:href="../../da/d70/classsddk_1_1_communicator.html" target="_top" xlink:title="MPI communicator wrapper. ">
<polygon fill="#ffffff" stroke="#000000" points="226,-653.2677 226,-672.2677 334,-672.2677 334,-653.2677 226,-653.2677"/>
<text text-anchor="middle" x="280" y="-660.2677" font-family="Helvetica,sans-Serif" font-size="10.00" fill="#000000">sddk::Communicator</text>
</a>
</g>
</g>
<!-- Node13&#45;&gt;Node2 -->
<g id="edge19" class="edge">
<title>Node13&#45;&gt;Node2</title>
<path fill="none" stroke="#9a32cd" stroke-dasharray="5,2" d="M286.0991,-682.2213C296.2099,-711.1697 319.2619,-765.2294 358,-793.7677 459.4447,-868.5017 824.735,-872.0771 925,-795.7677 1056.3397,-695.808 1082.576,-469.462 1086.7898,-420.3036"/>
<polygon fill="#9a32cd" stroke="#9a32cd" points="289.33,-680.8453 282.852,-672.4616 282.688,-683.0552 289.33,-680.8453"/>
<text text-anchor="middle" x="707" y="-853.7677" font-family="Helvetica,sans-Serif" font-size="10.00" fill="#000000"> comm_</text>
</g>
<!-- Node13&#45;&gt;Node7 -->
<g id="edge12" class="edge">
<title>Node13&#45;&gt;Node7</title>
<path fill="none" stroke="#9a32cd" stroke-dasharray="5,2" d="M337.9265,-651.3233C380.2506,-643.1417 439.0775,-632.1426 491,-623.7677 604.365,-605.4823 738.3573,-588.0922 807.3349,-579.4487"/>
<polygon fill="#9a32cd" stroke="#9a32cd" points="337.228,-647.8935 328.0775,-653.2339 338.5611,-654.7654 337.228,-647.8935"/>
<text text-anchor="middle" x="561.5" y="-681.7677" font-family="Helvetica,sans-Serif" font-size="10.00" fill="#000000"> comm_ortho_fft_</text>
<text text-anchor="start" x="508.5" y="-670.7677" font-family="Helvetica,sans-Serif" font-size="10.00" fill="#000000">comm_ortho_fft_coarse</text>
<text text-anchor="middle" x="561.5" y="-659.7677" font-family="Helvetica,sans-Serif" font-size="10.00" fill="#000000">_</text>
<text text-anchor="start" x="508.5" y="-648.7677" font-family="Helvetica,sans-Serif" font-size="10.00" fill="#000000">comm_band_ortho</text>
<text text-anchor="middle" x="561.5" y="-637.7677" font-family="Helvetica,sans-Serif" font-size="10.00" fill="#000000">_fft_coarse_</text>
<text text-anchor="middle" x="561.5" y="-626.7677" font-family="Helvetica,sans-Serif" font-size="10.00" fill="#000000">comm_</text>
</g>
<!-- Node14 -->
<g id="node13" class="node">
<title>Node14</title>
<g id="a_node13"><a xlink:href="../../d6/dd1/classsirius_1_1_unit__cell.html" target="_top" xlink:title="Representation of a unit cell. ">
<polygon fill="#ffffff" stroke="#000000" points="519.5,-797.2677 519.5,-816.2677 603.5,-816.2677 603.5,-797.2677 519.5,-797.2677"/>
<text text-anchor="middle" x="561.5" y="-804.2677" font-family="Helvetica,sans-Serif" font-size="10.00" fill="#000000">sirius::Unit_cell</text>
</a>
</g>
</g>
<!-- Node13&#45;&gt;Node14 -->
<g id="edge16" class="edge">
<title>Node13&#45;&gt;Node14</title>
<path fill="none" stroke="#9a32cd" stroke-dasharray="5,2" d="M301.6497,-678.3145C338.747,-704.3149 417.5801,-756.8095 491,-787.7677 499.9939,-791.56 509.9555,-794.79 519.489,-797.4527"/>
<polygon fill="#9a32cd" stroke="#9a32cd" points="303.3324,-675.2179 293.1461,-672.3043 299.2922,-680.9343 303.3324,-675.2179"/>
<text text-anchor="middle" x="415.5" y="-781.7677" font-family="Helvetica,sans-Serif" font-size="10.00" fill="#000000"> comm_</text>
</g>
<!-- Node13&#45;&gt;Node18 -->
<g id="edge26" class="edge">
<title>Node13&#45;&gt;Node18</title>
<path fill="none" stroke="#9a32cd" stroke-dasharray="5,2" d="M290.3659,-644.1308C317.1954,-597.6258 393.6636,-475.6276 491,-411.7677 545.6717,-375.899 573.3366,-398.6495 632,-369.7677 640.8534,-365.4088 641.1825,-361.1988 650,-356.7677 697.4751,-332.9093 715.1318,-341.6246 764,-320.7677 791.0458,-309.2245 820.6487,-292.0483 838.1205,-281.398"/>
<polygon fill="#9a32cd" stroke="#9a32cd" points="287.1694,-642.6718 285.2731,-653.0956 293.2559,-646.1294 287.1694,-642.6718"/>
<text text-anchor="middle" x="561.5" y="-414.7677" font-family="Helvetica,sans-Serif" font-size="10.00" fill="#000000"> comm_</text>
</g>
<!-- Node14&#45;&gt;Node2 -->
<g id="edge36" class="edge">
<title>Node14&#45;&gt;Node2</title>
<path fill="none" stroke="#9a32cd" stroke-dasharray="5,2" d="M613.6948,-813.4918C656.3972,-816.5886 717.1665,-815.3447 764,-791.7677 940.3258,-703.0013 1058.7402,-471.1132 1082.9205,-420.5821"/>
<polygon fill="#9a32cd" stroke="#9a32cd" points="613.7737,-809.9864 603.5185,-812.6474 613.1948,-816.9624 613.7737,-809.9864"/>
<text text-anchor="middle" x="853.5" y="-783.7677" font-family="Helvetica,sans-Serif" font-size="10.00" fill="#000000"> unit_cell_</text>
</g>
<!-- Node14&#45;&gt;Node7 -->
<g id="edge13" class="edge">
<title>Node14&#45;&gt;Node7</title>
<path fill="none" stroke="#9a32cd" stroke-dasharray="5,2" d="M609.5658,-794.558C617.1137,-792.4269 624.7978,-790.131 632,-787.7677 640.1558,-785.0914 641.7626,-783.1809 650,-780.7677 699.6028,-766.236 723.1222,-789.4002 764,-757.7677 820.7495,-713.8531 843.6656,-624.6792 850.8084,-589.0129"/>
<polygon fill="#9a32cd" stroke="#9a32cd" points="608.4846,-791.2254 599.7737,-797.2563 610.3442,-797.9739 608.4846,-791.2254"/>
<text text-anchor="middle" x="707" y="-783.7677" font-family="Helvetica,sans-Serif" font-size="10.00" fill="#000000"> unit_cell_</text>
</g>
<!-- Node15 -->
<g id="node14" class="node">
<title>Node15</title>
<g id="a_node14"><a xlink:href="../../d2/dc9/classsddk_1_1splindex.html" target="_top" xlink:title="sddk::splindex\&lt; block \&gt;">
<polygon fill="#ffffff" stroke="#000000" points="220,-868.2677 220,-887.2677 340,-887.2677 340,-868.2677 220,-868.2677"/>
<text text-anchor="middle" x="280" y="-875.2677" font-family="Helvetica,sans-Serif" font-size="10.00" fill="#000000">sddk::splindex&lt; block &gt;</text>
</a>
</g>
</g>
<!-- Node15&#45;&gt;Node14 -->
<g id="edge14" class="edge">
<title>Node15&#45;&gt;Node14</title>
<path fill="none" stroke="#9a32cd" stroke-dasharray="5,2" d="M327.5665,-865.7704C382.8163,-851.8353 472.8514,-829.1266 523.6013,-816.3265"/>
<polygon fill="#9a32cd" stroke="#9a32cd" points="326.5126,-862.4266 317.6722,-868.266 328.2246,-869.214 326.5126,-862.4266"/>
<text text-anchor="middle" x="415.5" y="-892.7677" font-family="Helvetica,sans-Serif" font-size="10.00" fill="#000000"> spl_num_paw_atoms_</text>
<text text-anchor="middle" x="415.5" y="-881.7677" font-family="Helvetica,sans-Serif" font-size="10.00" fill="#000000">spl_num_atoms_</text>
<text text-anchor="start" x="358" y="-870.7677" font-family="Helvetica,sans-Serif" font-size="10.00" fill="#000000">spl_num_atom_symmetry</text>
<text text-anchor="middle" x="415.5" y="-859.7677" font-family="Helvetica,sans-Serif" font-size="10.00" fill="#000000">_classes_</text>
</g>
<!-- Node16 -->
<g id="node15" class="node">
<title>Node16</title>
<g id="a_node15"><a xlink:href="../../d6/dec/classsddk_1_1splindex__base.html" target="_top" xlink:title="sddk::splindex_base\l\&lt; int \&gt;">
<polygon fill="#ffffff" stroke="#000000" points="0,-862.7677 0,-892.7677 107,-892.7677 107,-862.7677 0,-862.7677"/>
<text text-anchor="start" x="8" y="-880.7677" font-family="Helvetica,sans-Serif" font-size="10.00" fill="#000000">sddk::splindex_base</text>
<text text-anchor="middle" x="53.5" y="-869.7677" font-family="Helvetica,sans-Serif" font-size="10.00" fill="#000000">&lt; int &gt;</text>
</a>
</g>
</g>
<!-- Node16&#45;&gt;Node15 -->
<g id="edge15" class="edge">
<title>Node16&#45;&gt;Node15</title>
<path fill="none" stroke="#191970" d="M117.3708,-877.7677C149.5356,-877.7677 188.3084,-877.7677 219.927,-877.7677"/>
<polygon fill="#191970" stroke="#191970" points="117.1774,-874.2678 107.1773,-877.7677 117.1773,-881.2678 117.1774,-874.2678"/>
</g>
<!-- Node17&#45;&gt;Node2 -->
<g id="edge17" class="edge">
<title>Node17&#45;&gt;Node2</title>
<path fill="none" stroke="#9a32cd" stroke-dasharray="5,2" d="M748.4783,-24.877C753.7922,-26.9746 759.0872,-29.2819 764,-31.7677 841.3271,-70.8935 865.459,-78.7979 925,-141.7677 1007.2821,-228.7881 1067.9287,-364.3434 1083.5498,-401.2289"/>
<polygon fill="#9a32cd" stroke="#9a32cd" points="749.5642,-21.5466 738.9715,-21.3347 747.1201,-28.106 749.5642,-21.5466"/>
<text text-anchor="middle" x="853.5" y="-144.7677" font-family="Helvetica,sans-Serif" font-size="10.00" fill="#000000"> f_mt_</text>
</g>
<!-- Node18&#45;&gt;Node2 -->
<g id="edge20" class="edge">
<title>Node18&#45;&gt;Node2</title>
<path fill="none" stroke="#9a32cd" stroke-dasharray="5,2" d="M878.4228,-286.5722C926.5578,-315.1652 1031.1069,-377.2692 1071.3037,-401.1468"/>
<polygon fill="#9a32cd" stroke="#9a32cd" points="879.9688,-283.4197 869.5838,-281.3217 876.3938,-289.438 879.9688,-283.4197"/>
<text text-anchor="middle" x="970" y="-355.7677" font-family="Helvetica,sans-Serif" font-size="10.00" fill="#000000"> gvec_</text>
</g>
<!-- Node18&#45;&gt;Node18 -->
<g id="edge27" class="edge">
<title>Node18&#45;&gt;Node18</title>
<path fill="none" stroke="#9a32cd" stroke-dasharray="5,2" d="M832.0196,-291.1677C833.4541,-296.0822 840.6143,-299.7677 853.5,-299.7677 874.1172,-299.7677 880.0768,-290.3329 871.379,-281.5247"/>
<polygon fill="#9a32cd" stroke="#9a32cd" points="835.401,-292.1173 835.621,-281.5247 828.8434,-289.6681 835.401,-292.1173"/>
<text text-anchor="middle" x="853.5" y="-302.7677" font-family="Helvetica,sans-Serif" font-size="10.00" fill="#000000"> gvec_base_</text>
</g>
<!-- Node19 -->
<g id="node18" class="node">
<title>Node19</title>
<g id="a_node18"><a xlink:href="../../d7/dab/classsddk_1_1mdarray.html" target="_top" xlink:title="sddk::mdarray\&lt; int, 3 \&gt;">
<polygon fill="#ffffff" stroke="#000000" points="502,-300.2677 502,-319.2677 621,-319.2677 621,-300.2677 502,-300.2677"/>
<text text-anchor="middle" x="561.5" y="-307.2677" font-family="Helvetica,sans-Serif" font-size="10.00" fill="#000000">sddk::mdarray&lt; int, 3 &gt;</text>
</a>
</g>
</g>
<!-- Node19&#45;&gt;Node18 -->
<g id="edge21" class="edge">
<title>Node19&#45;&gt;Node18</title>
<path fill="none" stroke="#9a32cd" stroke-dasharray="5,2" d="M631.1867,-307.6608C670.4053,-305.7123 720.1585,-301.9661 764,-294.7677 783.4722,-291.5705 804.894,-286.136 821.8967,-281.3523"/>
<polygon fill="#9a32cd" stroke="#9a32cd" points="631.02,-304.1647 621.1952,-308.1299 631.3483,-311.157 631.02,-304.1647"/>
<text text-anchor="middle" x="707" y="-308.7677" font-family="Helvetica,sans-Serif" font-size="10.00" fill="#000000"> gvec_index_by_xy_</text>
</g>
<!-- Node20 -->
<g id="node19" class="node">
<title>Node20</title>
<g id="a_node19"><a xlink:href="../../d7/dab/classsddk_1_1mdarray.html" target="_top" xlink:title="sddk::mdarray\&lt; int, 1 \&gt;">
<polygon fill="#ffffff" stroke="#000000" points="502,-262.2677 502,-281.2677 621,-281.2677 621,-262.2677 502,-262.2677"/>
<text text-anchor="middle" x="561.5" y="-269.2677" font-family="Helvetica,sans-Serif" font-size="10.00" fill="#000000">sddk::mdarray&lt; int, 1 &gt;</text>
</a>
</g>
</g>
<!-- Node20&#45;&gt;Node18 -->
<g id="edge23" class="edge">
<title>Node20&#45;&gt;Node18</title>
<path fill="none" stroke="#9a32cd" stroke-dasharray="5,2" d="M631.3814,-271.7677C690.9213,-271.7677 773.9075,-271.7677 819.7331,-271.7677"/>
<polygon fill="#9a32cd" stroke="#9a32cd" points="631.2952,-268.2678 621.2952,-271.7677 631.2951,-275.2678 631.2952,-268.2678"/>
<text text-anchor="middle" x="707" y="-285.7677" font-family="Helvetica,sans-Serif" font-size="10.00" fill="#000000"> gvec_shell_</text>
<text text-anchor="middle" x="707" y="-274.7677" font-family="Helvetica,sans-Serif" font-size="10.00" fill="#000000">gvec_base_mapping_</text>
</g>
<!-- Node21 -->
<g id="node20" class="node">
<title>Node21</title>
<g id="a_node20"><a xlink:href="../../db/dea/structsddk_1_1block__data__descriptor.html" target="_top" xlink:title="sddk::block_data_descriptor">
<polygon fill="#ffffff" stroke="#000000" points="491,-224.2677 491,-243.2677 632,-243.2677 632,-224.2677 491,-224.2677"/>
<text text-anchor="middle" x="561.5" y="-231.2677" font-family="Helvetica,sans-Serif" font-size="10.00" fill="#000000">sddk::block_data_descriptor</text>
</a>
</g>
</g>
<!-- Node21&#45;&gt;Node18 -->
<g id="edge24" class="edge">
<title>Node21&#45;&gt;Node18</title>
<path fill="none" stroke="#9a32cd" stroke-dasharray="5,2" d="M642.5248,-234.4343C679.752,-235.7966 724.3474,-238.922 764,-245.7677 785.3659,-249.4563 808.8862,-256.407 826.4515,-262.1943"/>
<polygon fill="#9a32cd" stroke="#9a32cd" points="642.3403,-230.9265 632.2304,-234.0952 642.1098,-237.9227 642.3403,-230.9265"/>
<text text-anchor="middle" x="707" y="-259.7677" font-family="Helvetica,sans-Serif" font-size="10.00" fill="#000000"> gvec_distr_</text>
<text text-anchor="middle" x="707" y="-248.7677" font-family="Helvetica,sans-Serif" font-size="10.00" fill="#000000">zcol_distr_</text>
</g>
<!-- Node22 -->
<g id="node21" class="node">
<title>Node22</title>
<g id="a_node21"><a xlink:href="../../d7/dab/classsddk_1_1mdarray.html" target="_top" xlink:title="sddk::mdarray\&lt; uint32\l_t, 1 \&gt;">
<polygon fill="#ffffff" stroke="#000000" points="503.5,-174.7677 503.5,-204.7677 619.5,-204.7677 619.5,-174.7677 503.5,-174.7677"/>
<text text-anchor="start" x="511.5" y="-192.7677" font-family="Helvetica,sans-Serif" font-size="10.00" fill="#000000">sddk::mdarray&lt; uint32</text>
<text text-anchor="middle" x="561.5" y="-181.7677" font-family="Helvetica,sans-Serif" font-size="10.00" fill="#000000">_t, 1 &gt;</text>
</a>
</g>
</g>
<!-- Node22&#45;&gt;Node18 -->
<g id="edge25" class="edge">
<title>Node22&#45;&gt;Node18</title>
<path fill="none" stroke="#9a32cd" stroke-dasharray="5,2" d="M629.811,-193.4268C669.8138,-197.1461 720.7986,-204.6456 764,-219.7677 793.3431,-230.0388 823.9001,-250.1753 840.6299,-262.1528"/>
<polygon fill="#9a32cd" stroke="#9a32cd" points="629.8926,-189.9208 619.6264,-192.539 629.2846,-196.8943 629.8926,-189.9208"/>
<text text-anchor="middle" x="707" y="-222.7677" font-family="Helvetica,sans-Serif" font-size="10.00" fill="#000000"> gvec_full_index_</text>
</g>
<!-- Node23 -->
<g id="node22" class="node">
<title>Node23</title>
<g id="a_node22"><a xlink:href="../../d7/dab/classsddk_1_1mdarray.html" target="_top" xlink:title="sddk::mdarray\&lt; double, 2 \&gt;">
<polygon fill="#ffffff" stroke="#000000" points="492.5,-87.2677 492.5,-106.2677 630.5,-106.2677 630.5,-87.2677 492.5,-87.2677"/>
<text text-anchor="middle" x="561.5" y="-94.2677" font-family="Helvetica,sans-Serif" font-size="10.00" fill="#000000">sddk::mdarray&lt; double, 2 &gt;</text>
</a>
</g>
</g>
<!-- Node23&#45;&gt;Node18 -->
<g id="edge28" class="edge">
<title>Node23&#45;&gt;Node18</title>
<path fill="none" stroke="#9a32cd" stroke-dasharray="5,2" d="M612.8985,-85.6711C658.4246,-79.0874 723.7354,-78.0835 764,-114.7677 796.7352,-144.592 759.5644,-174.5875 782,-212.7677 794.8826,-234.6908 819.099,-252.0269 835.7519,-262.0871"/>
<polygon fill="#9a32cd" stroke="#9a32cd" points="612.259,-82.2287 602.9279,-87.2468 613.3517,-89.1429 612.259,-82.2287"/>
<text text-anchor="middle" x="707" y="-128.7677" font-family="Helvetica,sans-Serif" font-size="10.00" fill="#000000"> gkvec_cart_</text>
<text text-anchor="middle" x="707" y="-117.7677" font-family="Helvetica,sans-Serif" font-size="10.00" fill="#000000">gvec_cart_</text>
</g>
<!-- Node24 -->
<g id="node23" class="node">
<title>Node24</title>
<g id="a_node23"><a xlink:href="../../d2/d6b/classgeometry3d_1_1vector3d.html" target="_top" xlink:title="geometry3d::vector3d\l\&lt; double \&gt;">
<polygon fill="#ffffff" stroke="#000000" points="505,-125.7677 505,-155.7677 618,-155.7677 618,-125.7677 505,-125.7677"/>
<text text-anchor="start" x="513" y="-143.7677" font-family="Helvetica,sans-Serif" font-size="10.00" fill="#000000">geometry3d::vector3d</text>
<text text-anchor="middle" x="561.5" y="-132.7677" font-family="Helvetica,sans-Serif" font-size="10.00" fill="#000000">&lt; double &gt;</text>
</a>
</g>
</g>
<!-- Node24&#45;&gt;Node18 -->
<g id="edge29" class="edge">
<title>Node24&#45;&gt;Node18</title>
<path fill="none" stroke="#9a32cd" stroke-dasharray="5,2" d="M628.4086,-139.5693C670.888,-141.9892 725.0049,-151.2846 764,-179.7677 777.491,-189.6218 771.3641,-199.884 782,-212.7677 798.7005,-232.9976 823.1209,-251.3852 838.6597,-262.0751"/>
<polygon fill="#9a32cd" stroke="#9a32cd" points="628.3017,-136.061 618.1533,-139.1041 627.9844,-143.0538 628.3017,-136.061"/>
<text text-anchor="middle" x="707" y="-182.7677" font-family="Helvetica,sans-Serif" font-size="10.00" fill="#000000"> vk_</text>
</g>
<!-- Node25 -->
<g id="node24" class="node">
<title>Node25</title>
<polygon fill="#ffffff" stroke="#bfbfbf" points="231.5,-130.7677 231.5,-160.7677 328.5,-160.7677 328.5,-130.7677 231.5,-130.7677"/>
<text text-anchor="start" x="239.5" y="-148.7677" font-family="Helvetica,sans-Serif" font-size="10.00" fill="#000000">std::array&lt; double</text>
<text text-anchor="middle" x="280" y="-137.7677" font-family="Helvetica,sans-Serif" font-size="10.00" fill="#000000"> , 3 &gt;</text>
</g>
<!-- Node25&#45;&gt;Node24 -->
<g id="edge30" class="edge">
<title>Node25&#45;&gt;Node24</title>
<path fill="none" stroke="#191970" d="M338.7969,-144.7233C387.5577,-143.8572 456.4561,-142.6335 504.666,-141.7772"/>
<polygon fill="#191970" stroke="#191970" points="338.6484,-141.2253 328.7122,-144.9024 338.7728,-148.2242 338.6484,-141.2253"/>
</g>
<!-- Node26 -->
<g id="node25" class="node">
<title>Node26</title>
<g id="a_node25"><a xlink:href="../../d7/dab/classsddk_1_1mdarray.html" target="_top" xlink:title="sddk::mdarray\&lt; sirius\l::Spheric_function\&lt; spectral,\l T \&gt;, 1 \&gt;">
<polygon fill="#ffffff" stroke="#000000" points="782,-162.2677 782,-203.2677 925,-203.2677 925,-162.2677 782,-162.2677"/>
<text text-anchor="start" x="790" y="-191.2677" font-family="Helvetica,sans-Serif" font-size="10.00" fill="#000000">sddk::mdarray&lt; sirius</text>
<text text-anchor="start" x="790" y="-180.2677" font-family="Helvetica,sans-Serif" font-size="10.00" fill="#000000">::Spheric_function&lt; spectral,</text>
<text text-anchor="middle" x="853.5" y="-169.2677" font-family="Helvetica,sans-Serif" font-size="10.00" fill="#000000"> T &gt;, 1 &gt;</text>
</a>
</g>
</g>
<!-- Node26&#45;&gt;Node2 -->
<g id="edge31" class="edge">
<title>Node26&#45;&gt;Node2</title>
<path fill="none" stroke="#9a32cd" stroke-dasharray="5,2" d="M884.6656,-209.9207C914.188,-235.9429 959.465,-276.6379 997,-313.7677 1028.2743,-344.7043 1063.2588,-383.4733 1079.0082,-401.1663"/>
<polygon fill="#9a32cd" stroke="#9a32cd" points="886.9666,-207.2833 877.1453,-203.3091 882.3446,-212.5405 886.9666,-207.2833"/>
<text text-anchor="middle" x="970" y="-316.7677" font-family="Helvetica,sans-Serif" font-size="10.00" fill="#000000"> f_mt_local_</text>
</g>
<!-- Node27 -->
<g id="node26" class="node">
<title>Node27</title>
<g id="a_node26"><a xlink:href="../../d9/ddf/classsirius_1_1_spheric__function.html" target="_top" xlink:title="sirius::Spheric_function\l\&lt; spectral, T \&gt;">
<polygon fill="#ffffff" stroke="#000000" points="501.5,-37.7677 501.5,-67.7677 621.5,-67.7677 621.5,-37.7677 501.5,-37.7677"/>
<text text-anchor="start" x="509.5" y="-55.7677" font-family="Helvetica,sans-Serif" font-size="10.00" fill="#000000">sirius::Spheric_function</text>
<text text-anchor="middle" x="561.5" y="-44.7677" font-family="Helvetica,sans-Serif" font-size="10.00" fill="#000000">&lt; spectral, T &gt;</text>
</a>
</g>
</g>
<!-- Node27&#45;&gt;Node26 -->
<g id="edge32" class="edge">
<title>Node27&#45;&gt;Node26</title>
<path fill="none" stroke="#9a32cd" stroke-dasharray="5,2" d="M631.8747,-37.6705C672.7144,-32.5516 723.85,-32.6303 764,-53.7677 786.4917,-65.6087 823.7131,-128.6618 842.2654,-162.0249"/>
<polygon fill="#9a32cd" stroke="#9a32cd" points="631.1526,-34.237 621.7265,-39.0743 632.1118,-41.171 631.1526,-34.237"/>
<text text-anchor="middle" x="707" y="-67.7677" font-family="Helvetica,sans-Serif" font-size="10.00" fill="#000000"> raw_ptr_device_</text>
<text text-anchor="middle" x="707" y="-56.7677" font-family="Helvetica,sans-Serif" font-size="10.00" fill="#000000">raw_ptr_</text>
</g>
<!-- Node28&#45;&gt;Node27 -->
<g id="edge33" class="edge">
<title>Node28&#45;&gt;Node27</title>
<path fill="none" stroke="#191970" d="M347.3648,-52.7677C394.2277,-52.7677 456.1587,-52.7677 501.3587,-52.7677"/>
<polygon fill="#191970" stroke="#191970" points="347.3051,-49.2678 337.305,-52.7677 347.305,-56.2678 347.3051,-49.2678"/>
</g>
<!-- Node29 -->
<g id="node28" class="node">
<title>Node29</title>
<g id="a_node28"><a xlink:href="../../d9/dbf/classsirius_1_1_radial__grid.html" target="_top" xlink:title="sirius::Radial_grid\l\&lt; double \&gt;">
<polygon fill="#ffffff" stroke="#000000" points="232,-81.7677 232,-111.7677 328,-111.7677 328,-81.7677 232,-81.7677"/>
<text text-anchor="start" x="240" y="-99.7677" font-family="Helvetica,sans-Serif" font-size="10.00" fill="#000000">sirius::Radial_grid</text>
<text text-anchor="middle" x="280" y="-88.7677" font-family="Helvetica,sans-Serif" font-size="10.00" fill="#000000">&lt; double &gt;</text>
</a>
</g>
</g>
<!-- Node29&#45;&gt;Node27 -->
<g id="edge35" class="edge">
<title>Node29&#45;&gt;Node27</title>
<path fill="none" stroke="#9a32cd" stroke-dasharray="5,2" d="M338.3315,-87.7423C376.6211,-81.8076 427.7947,-73.8566 473,-66.7677 482.067,-65.3458 491.6555,-63.8357 501.0434,-62.3536"/>
<polygon fill="#9a32cd" stroke="#9a32cd" points="337.7348,-84.2929 328.3887,-89.2829 338.8067,-91.2104 337.7348,-84.2929"/>
<text text-anchor="middle" x="415.5" y="-86.7677" font-family="Helvetica,sans-Serif" font-size="10.00" fill="#000000"> radial_grid_</text>
</g>
</g>
</svg>
        <g id="navigator" transform="translate(0 0)" fill="#404254">
                <rect fill="#f2f5e9" fill-opacity="0.5" stroke="#606060" stroke-width=".5" x="0" y="0" width="60" height="60"/>
                <use id="zoomplus" xlink:href="#zoomPlus" x="17" y="9" onmousedown="handleZoom(evt,'in')"/>
                <use id="zoomminus" xlink:href="#zoomMin" x="42" y="9" onmousedown="handleZoom(evt,'out')"/>
                <use id="reset" xlink:href="#resetDef" x="30" y="36" onmousedown="handleReset()"/>
                <g id="arrowUp" xlink:href="#dirArrow" transform="translate(30 24)" onmousedown="handlePan(0,-1)">
                  <use xlink:href="#rim" fill="#404040">
                        <set attributeName="fill" to="#808080" begin="arrowUp.mouseover" end="arrowUp.mouseout"/>
                  </use>
                  <path fill="none" stroke="white" stroke-width="1.5" d="M0,-3.0v7 M-2.5,-0.5L0,-3.0L2.5,-0.5"/>
                </g>
                <g id="arrowRight" xlink:href="#dirArrow" transform="rotate(90) translate(36 -43)" onmousedown="handlePan(1,0)">
                  <use xlink:href="#rim" fill="#404040">
                        <set attributeName="fill" to="#808080" begin="arrowRight.mouseover" end="arrowRight.mouseout"/>
                  </use>
                  <path fill="none" stroke="white" stroke-width="1.5" d="M0,-3.0v7 M-2.5,-0.5L0,-3.0L2.5,-0.5"/>
                </g>
                <g id="arrowDown" xlink:href="#dirArrow" transform="rotate(180) translate(-30 -48)" onmousedown="handlePan(0,1)">
                  <use xlink:href="#rim" fill="#404040">
                        <set attributeName="fill" to="#808080" begin="arrowDown.mouseover" end="arrowDown.mouseout"/>
                  </use>
                  <path fill="none" stroke="white" stroke-width="1.5" d="M0,-3.0v7 M-2.5,-0.5L0,-3.0L2.5,-0.5"/>
                </g>
                <g id="arrowLeft" xlink:href="#dirArrow" transform="rotate(270) translate(-36 17)" onmousedown="handlePan(-1,0)">
                  <use xlink:href="#rim" fill="#404040">
                        <set attributeName="fill" to="#808080" begin="arrowLeft.mouseover" end="arrowLeft.mouseout"/>
                  </use>
                  <path fill="none" stroke="white" stroke-width="1.5" d="M0,-3.0v7 M-2.5,-0.5L0,-3.0L2.5,-0.5"/>
                </g>
        </g>
        <svg viewBox="0 0 15 15" width="100%" height="30px" preserveAspectRatio="xMaxYMin meet">
         <g id="arrow_out" transform="scale(0.3 0.3)">
          <a xlink:href="classsirius_1_1_periodic__function__coll__graph_org.svg" target="_base">
           <rect id="button" ry="5" rx="5" y="6" x="6" height="38" width="38"
                fill="#f2f5e9" fill-opacity="0.5" stroke="#606060" stroke-width="1.0"/>
           <path id="arrow"
             d="M 11.500037,31.436501 C 11.940474,20.09759 22.043105,11.32322 32.158766,21.979434 L 37.068811,17.246167 C 37.068811,17.246167 37.088388,32 37.088388,32 L 22.160133,31.978069 C 22.160133,31.978069 26.997745,27.140456 26.997745,27.140456 C 18.528582,18.264221 13.291696,25.230495 11.500037,31.436501 z"
             style="fill:#404040;"/>
          </a>
         </g>
        </svg>
</svg>
