<?xml version="1.0" encoding="UTF-8" standalone="no"?>
<!DOCTYPE svg PUBLIC "-//W3C//DTD SVG 1.1//EN"
 "http://www.w3.org/Graphics/SVG/1.1/DTD/svg11.dtd">
<!-- Generated by graphviz version 2.40.1 (20161225.0304)
 -->
<!-- Title: sirius::Atom_symmetry_class Pages: 1 -->
<!--zoomable 768 -->
<svg id="main" version="1.1" xmlns="http://www.w3.org/2000/svg" xmlns:xlink="http://www.w3.org/1999/xlink" xml:space="preserve" onload="init(evt)">
<style type="text/css"><![CDATA[
.edge:hover path { stroke: red; }
.edge:hover polygon { stroke: red; fill: red; }
]]></style>
<script type="text/javascript"><![CDATA[
var edges = document.getElementsByTagName('g');
if (edges && edges.length) {
  for (var i=0;i<edges.length;i++) {
    if (edges[i].id.substr(0,4)=='edge') {
      edges[i].setAttribute('class','edge');
    }
  }
}
]]></script>
        <defs>
                <circle id="rim" cx="0" cy="0" r="7"/>
                <circle id="rim2" cx="0" cy="0" r="3.5"/>
                <g id="zoomPlus">
                        <use xlink:href="#rim" fill="#404040">
                                <set attributeName="fill" to="#808080" begin="zoomplus.mouseover" end="zoomplus.mouseout"/>
                        </use>
                        <path d="M-4,0h8M0,-4v8" fill="none" stroke="white" stroke-width="1.5" pointer-events="none"/>
                </g>
                <g id="zoomMin">
                        <use xlink:href="#rim" fill="#404040">
                                <set attributeName="fill" to="#808080" begin="zoomminus.mouseover" end="zoomminus.mouseout"/>
                        </use>
                        <path d="M-4,0h8" fill="none" stroke="white" stroke-width="1.5" pointer-events="none"/>
                </g>
                <g id="dirArrow">
                        <path fill="none" stroke="white" stroke-width="1.5" d="M0,-3.0v7 M-2.5,-0.5L0,-3.0L2.5,-0.5"/>
                </g>
               <g id="resetDef">
                       <use xlink:href="#rim2" fill="#404040">
                               <set attributeName="fill" to="#808080" begin="reset.mouseover" end="reset.mouseout"/>
                       </use>
               </g>
        </defs>

<script type="text/javascript">
var viewWidth = 2105;
var viewHeight = 768;
var sectionId = 'dynsection-0';
</script>
<script xlink:href="../../svgpan.js"/>
<svg id="graph" class="graph">
<g id="viewport">
<title>sirius::Atom_symmetry_class</title>
<polygon fill="#ffffff" stroke="transparent" points="-4,4 -4,-764.1233 2101,-764.1233 2101,4 -4,4"/>
<!-- Node1 -->
<g id="node1" class="node">
<title>Node1</title>
<g id="a_node1"><a xlink:title="Data and methods specific to the symmetry class of the atom.">
<polygon fill="#bfbfbf" stroke="#000000" points="1979,-87.1233 1979,-117.1233 2097,-117.1233 2097,-87.1233 1979,-87.1233"/>
<text text-anchor="start" x="1987" y="-105.1233" font-family="Helvetica,sans-Serif" font-size="10.00" fill="#000000">sirius::Atom_symmetry</text>
<text text-anchor="middle" x="2038" y="-94.1233" font-family="Helvetica,sans-Serif" font-size="10.00" fill="#000000">_class</text>
</a>
</g>
</g>
<!-- Node2 -->
<g id="node2" class="node">
<title>Node2</title>
<g id="a_node2"><a xlink:href="../../d3/d37/classsirius_1_1_atom__type.html" target="_top" xlink:title="Defines the properties of atom type.">
<polygon fill="#ffffff" stroke="#000000" points="1786.5,-306.6233 1786.5,-325.6233 1879.5,-325.6233 1879.5,-306.6233 1786.5,-306.6233"/>
<text text-anchor="middle" x="1833" y="-313.6233" font-family="Helvetica,sans-Serif" font-size="10.00" fill="#000000">sirius::Atom_type</text>
</a>
</g>
</g>
<!-- Node2&#45;&gt;Node1 -->
<g id="edge1" class="edge">
<title>Node2&#45;&gt;Node1</title>
<path fill="none" stroke="#9a32cd" stroke-dasharray="5,2" d="M1849.3084,-299.0989C1888.2555,-258.4419 1986.2041,-156.1931 2023.3802,-117.3849"/>
<polygon fill="#9a32cd" stroke="#9a32cd" points="1846.7313,-296.7296 1842.3411,-306.3721 1851.7862,-301.5719 1846.7313,-296.7296"/>
<text text-anchor="middle" x="1933" y="-243.1233" font-family="Helvetica,sans-Serif" font-size="10.00" fill="#000000"> atom_type_</text>
</g>
<!-- Node3 -->
<g id="node3" class="node">
<title>Node3</title>
<g id="a_node3"><a xlink:href="../../d7/dab/classsddk_1_1mdarray.html" target="_top" xlink:title=" ">
<polygon fill="#ffffff" stroke="#000000" points="1231.5,-524.6233 1231.5,-543.6233 1350.5,-543.6233 1350.5,-524.6233 1231.5,-524.6233"/>
<text text-anchor="middle" x="1291" y="-531.6233" font-family="Helvetica,sans-Serif" font-size="10.00" fill="#000000">sddk::mdarray&lt; int, 2 &gt;</text>
</a>
</g>
</g>
<!-- Node3&#45;&gt;Node2 -->
<g id="edge2" class="edge">
<title>Node3&#45;&gt;Node2</title>
<path fill="none" stroke="#9a32cd" stroke-dasharray="5,2" d="M1360.7855,-541.8778C1476.2821,-553.1591 1700.4677,-568.0028 1761,-521.1233 1793.806,-495.7166 1823.4005,-362.5799 1831.0752,-325.6377"/>
<polygon fill="#9a32cd" stroke="#9a32cd" points="1360.9299,-538.375 1350.6325,-540.8679 1360.237,-545.3406 1360.9299,-538.375"/>
<text text-anchor="middle" x="1551" y="-556.1233" font-family="Helvetica,sans-Serif" font-size="10.00" fill="#000000"> idx_radial_integrals_</text>
</g>
<!-- Node11 -->
<g id="node11" class="node">
<title>Node11</title>
<g id="a_node11"><a xlink:href="../../d1/df3/classsirius_1_1radial__functions__index.html" target="_top" xlink:title="A helper class to establish various index mappings for the atomic radial functions.">
<polygon fill="#ffffff" stroke="#000000" points="1493.5,-444.1233 1493.5,-474.1233 1608.5,-474.1233 1608.5,-444.1233 1493.5,-444.1233"/>
<text text-anchor="start" x="1501.5" y="-462.1233" font-family="Helvetica,sans-Serif" font-size="10.00" fill="#000000">sirius::radial_functions</text>
<text text-anchor="middle" x="1551" y="-451.1233" font-family="Helvetica,sans-Serif" font-size="10.00" fill="#000000">_index</text>
</a>
</g>
</g>
<!-- Node3&#45;&gt;Node11 -->
<g id="edge12" class="edge">
<title>Node3&#45;&gt;Node11</title>
<path fill="none" stroke="#9a32cd" stroke-dasharray="5,2" d="M1321.6021,-520.4646C1336.0857,-514.328 1353.736,-507.3161 1370,-502.1233 1392.6914,-494.8783 1449.3218,-481.7071 1493.2488,-471.8439"/>
<polygon fill="#9a32cd" stroke="#9a32cd" points="1319.9376,-517.3706 1312.1369,-524.54 1322.7059,-523.7999 1319.9376,-517.3706"/>
<text text-anchor="middle" x="1417" y="-505.1233" font-family="Helvetica,sans-Serif" font-size="10.00" fill="#000000"> index_by_l_order_</text>
</g>
<!-- Node30 -->
<g id="node30" class="node">
<title>Node30</title>
<g id="a_node30"><a xlink:href="../../d3/dfd/classsirius_1_1basis__functions__index.html" target="_top" xlink:title="A helper class to establish various index mappings for the atomic basis functions.">
<polygon fill="#ffffff" stroke="#000000" points="1494,-493.1233 1494,-523.1233 1608,-523.1233 1608,-493.1233 1494,-493.1233"/>
<text text-anchor="start" x="1502" y="-511.1233" font-family="Helvetica,sans-Serif" font-size="10.00" fill="#000000">sirius::basis_functions</text>
<text text-anchor="middle" x="1551" y="-500.1233" font-family="Helvetica,sans-Serif" font-size="10.00" fill="#000000">_index</text>
</a>
</g>
</g>
<!-- Node3&#45;&gt;Node30 -->
<g id="edge40" class="edge">
<title>Node3&#45;&gt;Node30</title>
<path fill="none" stroke="#9a32cd" stroke-dasharray="5,2" d="M1360.7247,-527.1508C1402.3852,-522.9848 1454.6524,-517.758 1493.8602,-513.8373"/>
<polygon fill="#9a32cd" stroke="#9a32cd" points="1360.2513,-523.6806 1350.6493,-528.1583 1360.9479,-530.6459 1360.2513,-523.6806"/>
<text text-anchor="middle" x="1417" y="-528.1233" font-family="Helvetica,sans-Serif" font-size="10.00" fill="#000000"> index_by_lm_order_</text>
</g>
<!-- Node4 -->
<g id="node4" class="node">
<title>Node4</title>
<g id="a_node4"><a xlink:href="../../d5/d6b/classsirius_1_1_spline.html" target="_top" xlink:title=" ">
<polygon fill="#ffffff" stroke="#000000" points="1491,-336.6233 1491,-355.6233 1611,-355.6233 1611,-336.6233 1491,-336.6233"/>
<text text-anchor="middle" x="1551" y="-343.6233" font-family="Helvetica,sans-Serif" font-size="10.00" fill="#000000">sirius::Spline&lt; double &gt;</text>
</a>
</g>
</g>
<!-- Node4&#45;&gt;Node2 -->
<g id="edge3" class="edge">
<title>Node4&#45;&gt;Node2</title>
<path fill="none" stroke="#9a32cd" stroke-dasharray="5,2" d="M1621.2287,-338.6521C1672.8194,-333.1638 1741.4757,-325.8599 1786.431,-321.0774"/>
<polygon fill="#9a32cd" stroke="#9a32cd" points="1620.7238,-335.186 1611.1502,-339.7243 1621.4644,-342.1467 1620.7238,-335.186"/>
<text text-anchor="middle" x="1699.5" y="-339.1233" font-family="Helvetica,sans-Serif" font-size="10.00" fill="#000000"> free_atom_density_spline_</text>
</g>
<!-- Node5 -->
<g id="node5" class="node">
<title>Node5</title>
<g id="a_node5"><a xlink:href="../../d9/dbf/classsirius_1_1_radial__grid.html" target="_top" xlink:title=" ">
<polygon fill="#ffffff" stroke="#000000" points="1243,-354.1233 1243,-384.1233 1339,-384.1233 1339,-354.1233 1243,-354.1233"/>
<text text-anchor="start" x="1251" y="-372.1233" font-family="Helvetica,sans-Serif" font-size="10.00" fill="#000000">sirius::Radial_grid</text>
<text text-anchor="middle" x="1291" y="-361.1233" font-family="Helvetica,sans-Serif" font-size="10.00" fill="#000000">&lt; double &gt;</text>
</a>
</g>
</g>
<!-- Node5&#45;&gt;Node2 -->
<g id="edge10" class="edge">
<title>Node5&#45;&gt;Node2</title>
<path fill="none" stroke="#9a32cd" stroke-dasharray="5,2" d="M1349.2118,-375.5294C1439.3933,-383.5488 1617.4408,-391.74 1761,-351.1233 1781.4617,-345.3341 1803.1832,-333.963 1817.3498,-325.7501"/>
<polygon fill="#9a32cd" stroke="#9a32cd" points="1349.4626,-372.0378 1339.1837,-374.6058 1348.8205,-379.0082 1349.4626,-372.0378"/>
<text text-anchor="start" x="1500.5" y="-406.1233" font-family="Helvetica,sans-Serif" font-size="10.00" fill="#000000"> free_atom_radial_grid</text>
<text text-anchor="middle" x="1551" y="-395.1233" font-family="Helvetica,sans-Serif" font-size="10.00" fill="#000000">_</text>
<text text-anchor="middle" x="1551" y="-384.1233" font-family="Helvetica,sans-Serif" font-size="10.00" fill="#000000">radial_grid_</text>
</g>
<!-- Node5&#45;&gt;Node4 -->
<g id="edge4" class="edge">
<title>Node5&#45;&gt;Node4</title>
<path fill="none" stroke="#191970" d="M1349.3891,-363.9581C1391.4622,-360.2362 1448.081,-355.2276 1490.6065,-351.4658"/>
<polygon fill="#191970" stroke="#191970" points="1348.9473,-360.4834 1339.2947,-364.8511 1349.5642,-367.4562 1348.9473,-360.4834"/>
</g>
<!-- Node6 -->
<g id="node6" class="node">
<title>Node6</title>
<g id="a_node6"><a xlink:href="../../db/dac/classsirius_1_1experimental_1_1basis__functions__index.html" target="_top" xlink:title=" ">
<polygon fill="#ffffff" stroke="#000000" points="1491,-229.1233 1491,-259.1233 1611,-259.1233 1611,-229.1233 1491,-229.1233"/>
<text text-anchor="start" x="1499" y="-247.1233" font-family="Helvetica,sans-Serif" font-size="10.00" fill="#000000">sirius::experimental</text>
<text text-anchor="middle" x="1551" y="-236.1233" font-family="Helvetica,sans-Serif" font-size="10.00" fill="#000000">::basis_functions_index</text>
</a>
</g>
</g>
<!-- Node6&#45;&gt;Node2 -->
<g id="edge5" class="edge">
<title>Node6&#45;&gt;Node2</title>
<path fill="none" stroke="#9a32cd" stroke-dasharray="5,2" d="M1621.5097,-239.4893C1663.3641,-239.1527 1716.7275,-243.0257 1761,-260.1233 1787.295,-270.2781 1811.8326,-293.3851 1824.3441,-306.5232"/>
<polygon fill="#9a32cd" stroke="#9a32cd" points="1621.3449,-235.9914 1611.403,-239.6533 1621.4586,-242.9905 1621.3449,-235.9914"/>
<text text-anchor="middle" x="1699.5" y="-274.1233" font-family="Helvetica,sans-Serif" font-size="10.00" fill="#000000"> indexb_hub_</text>
<text text-anchor="middle" x="1699.5" y="-263.1233" font-family="Helvetica,sans-Serif" font-size="10.00" fill="#000000">indexb_wfs_</text>
</g>
<!-- Node7 -->
<g id="node7" class="node">
<title>Node7</title>
<g id="a_node7"><a xlink:href="../../d2/de3/classsirius_1_1experimental_1_1radial__functions__index.html" target="_top" xlink:title=" ">
<polygon fill="#ffffff" stroke="#000000" points="1230,-262.1233 1230,-292.1233 1352,-292.1233 1352,-262.1233 1230,-262.1233"/>
<text text-anchor="start" x="1238" y="-280.1233" font-family="Helvetica,sans-Serif" font-size="10.00" fill="#000000">sirius::experimental</text>
<text text-anchor="middle" x="1291" y="-269.1233" font-family="Helvetica,sans-Serif" font-size="10.00" fill="#000000">::radial_functions_index</text>
</a>
</g>
</g>
<!-- Node7&#45;&gt;Node2 -->
<g id="edge15" class="edge">
<title>Node7&#45;&gt;Node2</title>
<path fill="none" stroke="#9a32cd" stroke-dasharray="5,2" d="M1362.3686,-282.2587C1475.0923,-290.3698 1691.2788,-305.9256 1786.2744,-312.7611"/>
<polygon fill="#9a32cd" stroke="#9a32cd" points="1362.3462,-278.7481 1352.1207,-281.5213 1361.8437,-285.73 1362.3462,-278.7481"/>
<text text-anchor="middle" x="1551" y="-314.1233" font-family="Helvetica,sans-Serif" font-size="10.00" fill="#000000"> indexr_hub_</text>
<text text-anchor="middle" x="1551" y="-303.1233" font-family="Helvetica,sans-Serif" font-size="10.00" fill="#000000">indexr_wfs_</text>
</g>
<!-- Node7&#45;&gt;Node6 -->
<g id="edge6" class="edge">
<title>Node7&#45;&gt;Node6</title>
<path fill="none" stroke="#9a32cd" stroke-dasharray="5,2" d="M1362.2992,-268.0738C1402.5349,-262.9669 1452.2668,-256.6548 1490.5732,-251.7928"/>
<polygon fill="#9a32cd" stroke="#9a32cd" points="1361.7668,-264.6132 1352.2871,-269.3445 1362.6483,-271.5575 1361.7668,-264.6132"/>
<text text-anchor="middle" x="1417" y="-269.1233" font-family="Helvetica,sans-Serif" font-size="10.00" fill="#000000"> indexr_</text>
</g>
<!-- Node8 -->
<g id="node8" class="node">
<title>Node8</title>
<g id="a_node8"><a xlink:href="../../d7/dab/classsddk_1_1mdarray.html" target="_top" xlink:title=" ">
<polygon fill="#ffffff" stroke="#000000" points="1492,-180.1233 1492,-210.1233 1610,-210.1233 1610,-180.1233 1492,-180.1233"/>
<text text-anchor="start" x="1500" y="-198.1233" font-family="Helvetica,sans-Serif" font-size="10.00" fill="#000000">sddk::mdarray&lt; double</text>
<text text-anchor="middle" x="1551" y="-187.1233" font-family="Helvetica,sans-Serif" font-size="10.00" fill="#000000">_complex &gt;</text>
</a>
</g>
</g>
<!-- Node8&#45;&gt;Node2 -->
<g id="edge7" class="edge">
<title>Node8&#45;&gt;Node2</title>
<path fill="none" stroke="#9a32cd" stroke-dasharray="5,2" d="M1620.1593,-202.0697C1676.5603,-208.1648 1748.8299,-217.123 1761,-224.1233 1795.4589,-243.9442 1819.3577,-287.3431 1828.6674,-306.5975"/>
<polygon fill="#9a32cd" stroke="#9a32cd" points="1620.5036,-198.5866 1610.1882,-201.0038 1619.7595,-205.547 1620.5036,-198.5866"/>
<text text-anchor="middle" x="1699.5" y="-227.1233" font-family="Helvetica,sans-Serif" font-size="10.00" fill="#000000"> p_mtrx_</text>
</g>
<!-- Node9 -->
<g id="node9" class="node">
<title>Node9</title>
<g id="a_node9"><a xlink:href="../../d7/dab/classsddk_1_1mdarray.html" target="_top" xlink:title=" ">
<polygon fill="#ffffff" stroke="#000000" points="1492.5,-92.1233 1492.5,-122.1233 1609.5,-122.1233 1609.5,-92.1233 1492.5,-92.1233"/>
<text text-anchor="start" x="1500.5" y="-110.1233" font-family="Helvetica,sans-Serif" font-size="10.00" fill="#000000">sddk::mdarray&lt; sirius</text>
<text text-anchor="middle" x="1551" y="-99.1233" font-family="Helvetica,sans-Serif" font-size="10.00" fill="#000000">::Spline&lt; double &gt;, 2 &gt;</text>
</a>
</g>
</g>
<!-- Node9&#45;&gt;Node2 -->
<g id="edge8" class="edge">
<title>Node9&#45;&gt;Node2</title>
<path fill="none" stroke="#9a32cd" stroke-dasharray="5,2" d="M1619.7855,-99.1414C1664.4209,-97.7006 1721.4277,-103.349 1761,-134.1233 1818.134,-178.5548 1830.0373,-275.0437 1832.4242,-306.2044"/>
<polygon fill="#9a32cd" stroke="#9a32cd" points="1619.4273,-95.6538 1609.5942,-99.5986 1619.741,-102.6468 1619.4273,-95.6538"/>
<text text-anchor="middle" x="1699.5" y="-137.1233" font-family="Helvetica,sans-Serif" font-size="10.00" fill="#000000"> q_radial_functions_l_</text>
</g>
<!-- Node10 -->
<g id="node10" class="node">
<title>Node10</title>
<g id="a_node10"><a xlink:href="../../d7/dab/classsddk_1_1mdarray.html" target="_top" xlink:title=" ">
<polygon fill="#ffffff" stroke="#000000" points="1492,-639.1233 1492,-669.1233 1610,-669.1233 1610,-639.1233 1492,-639.1233"/>
<text text-anchor="start" x="1500" y="-657.1233" font-family="Helvetica,sans-Serif" font-size="10.00" fill="#000000">sddk::mdarray&lt; double</text>
<text text-anchor="middle" x="1551" y="-646.1233" font-family="Helvetica,sans-Serif" font-size="10.00" fill="#000000">_complex, 4 &gt;</text>
</a>
</g>
</g>
<!-- Node10&#45;&gt;Node2 -->
<g id="edge9" class="edge">
<title>Node10&#45;&gt;Node2</title>
<path fill="none" stroke="#9a32cd" stroke-dasharray="5,2" d="M1620.1503,-663.9193C1665.6458,-666.3176 1723.4999,-661.0616 1761,-627.1233 1807.5361,-585.0072 1828.0874,-373.9629 1832.2059,-325.883"/>
<polygon fill="#9a32cd" stroke="#9a32cd" points="1620.2628,-660.4192 1610.054,-663.2529 1619.8017,-667.404 1620.2628,-660.4192"/>
<text text-anchor="middle" x="1699.5" y="-667.1233" font-family="Helvetica,sans-Serif" font-size="10.00" fill="#000000"> f_coefficients_</text>
</g>
<!-- Node11&#45;&gt;Node2 -->
<g id="edge11" class="edge">
<title>Node11&#45;&gt;Node2</title>
<path fill="none" stroke="#9a32cd" stroke-dasharray="5,2" d="M1618.7969,-453.1987C1662.2559,-446.8201 1718.3129,-433.5831 1761,-406.1233 1793.6474,-385.1219 1818.1617,-344.2655 1828.1209,-325.7076"/>
<polygon fill="#9a32cd" stroke="#9a32cd" points="1618.31,-449.7327 1608.8829,-454.5679 1619.2677,-456.6669 1618.31,-449.7327"/>
<text text-anchor="middle" x="1699.5" y="-452.1233" font-family="Helvetica,sans-Serif" font-size="10.00" fill="#000000"> indexr_</text>
</g>
<!-- Node12 -->
<g id="node12" class="node">
<title>Node12</title>
<g id="a_node12"><a xlink:href="../../d7/dab/classsddk_1_1mdarray.html" target="_top" xlink:title=" ">
<polygon fill="#ffffff" stroke="#000000" points="1231.5,-441.6233 1231.5,-460.6233 1350.5,-460.6233 1350.5,-441.6233 1231.5,-441.6233"/>
<text text-anchor="middle" x="1291" y="-448.6233" font-family="Helvetica,sans-Serif" font-size="10.00" fill="#000000">sddk::mdarray&lt; int, 1 &gt;</text>
</a>
</g>
</g>
<!-- Node12&#45;&gt;Node11 -->
<g id="edge13" class="edge">
<title>Node12&#45;&gt;Node11</title>
<path fill="none" stroke="#9a32cd" stroke-dasharray="5,2" d="M1335.34,-439.189C1346.5643,-436.6753 1358.6555,-434.3993 1370,-433.1233 1411.516,-428.4534 1422.6619,-427.0784 1464,-433.1233 1479.1304,-435.3358 1495.2854,-439.6045 1509.5162,-444.0534"/>
<polygon fill="#9a32cd" stroke="#9a32cd" points="1334.2564,-435.8482 1325.3219,-441.5425 1335.8574,-442.6627 1334.2564,-435.8482"/>
<text text-anchor="middle" x="1417" y="-436.1233" font-family="Helvetica,sans-Serif" font-size="10.00" fill="#000000"> index_by_idxlo_</text>
</g>
<!-- Node12&#45;&gt;Node30 -->
<g id="edge41" class="edge">
<title>Node12&#45;&gt;Node30</title>
<path fill="none" stroke="#9a32cd" stroke-dasharray="5,2" d="M1361.0635,-447.3156C1393.6395,-448.0793 1432.1303,-452.7177 1464,-467.1233 1474.0271,-471.6557 1472.5947,-478.4112 1482,-484.1233 1487.5287,-487.481 1493.593,-490.4533 1499.7601,-493.0606"/>
<polygon fill="#9a32cd" stroke="#9a32cd" points="1360.7503,-443.8118 1350.7106,-447.1963 1360.6696,-450.8114 1360.7503,-443.8118"/>
<text text-anchor="middle" x="1417" y="-470.1233" font-family="Helvetica,sans-Serif" font-size="10.00" fill="#000000"> index_by_idxrf_</text>
</g>
<!-- Node13 -->
<g id="node13" class="node">
<title>Node13</title>
<g id="a_node13"><a xlink:href="../../d7/dab/classsddk_1_1mdarray.html" target="_top" xlink:title=" ">
<polygon fill="#ffffff" stroke="#000000" points="1482,-141.6233 1482,-160.6233 1620,-160.6233 1620,-141.6233 1482,-141.6233"/>
<text text-anchor="middle" x="1551" y="-148.6233" font-family="Helvetica,sans-Serif" font-size="10.00" fill="#000000">sddk::mdarray&lt; double, 2 &gt;</text>
</a>
</g>
</g>
<!-- Node13&#45;&gt;Node1 -->
<g id="edge42" class="edge">
<title>Node13&#45;&gt;Node1</title>
<path fill="none" stroke="#9a32cd" stroke-dasharray="5,2" d="M1606.6515,-138.2415C1611.2751,-136.4432 1615.7864,-134.4125 1620,-132.1233 1629.4052,-127.0136 1628.0631,-120.1016 1638,-116.1233 1698.1547,-92.0399 1882.9561,-95.6165 1978.8639,-99.3335"/>
<polygon fill="#9a32cd" stroke="#9a32cd" points="1605.3348,-134.9944 1597.0629,-141.6145 1607.6577,-141.5977 1605.3348,-134.9944"/>
<text text-anchor="start" x="1784" y="-122.1233" font-family="Helvetica,sans-Serif" font-size="10.00" fill="#000000"> h_spherical_integrals</text>
<text text-anchor="middle" x="1833" y="-111.1233" font-family="Helvetica,sans-Serif" font-size="10.00" fill="#000000">_</text>
<text text-anchor="middle" x="1833" y="-100.1233" font-family="Helvetica,sans-Serif" font-size="10.00" fill="#000000">o1_radial_integrals_</text>
</g>
<!-- Node13&#45;&gt;Node2 -->
<g id="edge14" class="edge">
<title>Node13&#45;&gt;Node2</title>
<path fill="none" stroke="#9a32cd" stroke-dasharray="5,2" d="M1630.4408,-149.1297C1680.7649,-149.3733 1740.1551,-152.9128 1761,-167.1233 1810.6134,-200.9458 1827.2068,-278.8538 1831.6274,-306.3207"/>
<polygon fill="#9a32cd" stroke="#9a32cd" points="1630.1865,-145.6296 1620.1844,-149.1238 1630.1824,-152.6296 1630.1865,-145.6296"/>
<text text-anchor="middle" x="1699.5" y="-192.1233" font-family="Helvetica,sans-Serif" font-size="10.00" fill="#000000"> ae_paw_wfs_array_</text>
<text text-anchor="middle" x="1699.5" y="-181.1233" font-family="Helvetica,sans-Serif" font-size="10.00" fill="#000000">d_mtrx_ion_</text>
<text text-anchor="middle" x="1699.5" y="-170.1233" font-family="Helvetica,sans-Serif" font-size="10.00" fill="#000000">ps_paw_wfs_array_</text>
</g>
<!-- Node14 -->
<g id="node14" class="node">
<title>Node14</title>
<g id="a_node14"><a xlink:href="../../d0/d04/classsirius_1_1_simulation__parameters.html" target="_top" xlink:title="Set of basic parameters of a simulation.">
<polygon fill="#ffffff" stroke="#000000" points="1505,-590.1233 1505,-620.1233 1597,-620.1233 1597,-590.1233 1505,-590.1233"/>
<text text-anchor="start" x="1513" y="-608.1233" font-family="Helvetica,sans-Serif" font-size="10.00" fill="#000000">sirius::Simulation</text>
<text text-anchor="middle" x="1551" y="-597.1233" font-family="Helvetica,sans-Serif" font-size="10.00" fill="#000000">_parameters</text>
</a>
</g>
</g>
<!-- Node14&#45;&gt;Node2 -->
<g id="edge16" class="edge">
<title>Node14&#45;&gt;Node2</title>
<path fill="none" stroke="#9a32cd" stroke-dasharray="5,2" d="M1607.3009,-612.3512C1654.0359,-615.0766 1719.3667,-610.8308 1761,-574.1233 1799.9799,-539.7552 1825.7764,-368.7466 1831.6981,-325.8804"/>
<polygon fill="#9a32cd" stroke="#9a32cd" points="1607.2568,-608.8394 1597.0346,-611.6242 1606.7623,-615.8219 1607.2568,-608.8394"/>
<text text-anchor="middle" x="1699.5" y="-615.1233" font-family="Helvetica,sans-Serif" font-size="10.00" fill="#000000"> parameters_</text>
</g>
<!-- Node15 -->
<g id="node15" class="node">
<title>Node15</title>
<g id="a_node15"><a xlink:href="../../d3/d40/classsirius_1_1_config.html" target="_top" xlink:title=" ">
<polygon fill="#ffffff" stroke="#000000" points="1254,-595.6233 1254,-614.6233 1328,-614.6233 1328,-595.6233 1254,-595.6233"/>
<text text-anchor="middle" x="1291" y="-602.6233" font-family="Helvetica,sans-Serif" font-size="10.00" fill="#000000">sirius::Config</text>
</a>
</g>
</g>
<!-- Node15&#45;&gt;Node14 -->
<g id="edge17" class="edge">
<title>Node15&#45;&gt;Node14</title>
<path fill="none" stroke="#9a32cd" stroke-dasharray="5,2" d="M1338.5233,-605.1233C1385.7619,-605.1233 1457.7512,-605.1233 1504.5945,-605.1233"/>
<polygon fill="#9a32cd" stroke="#9a32cd" points="1338.2517,-601.6234 1328.2517,-605.1233 1338.2516,-608.6234 1338.2517,-601.6234"/>
<text text-anchor="middle" x="1417" y="-608.1233" font-family="Helvetica,sans-Serif" font-size="10.00" fill="#000000"> cfg_</text>
</g>
<!-- Node16 -->
<g id="node16" class="node">
<title>Node16</title>
<g id="a_node16"><a xlink:href="../../db/da5/classsirius_1_1config__t.html" target="_top" xlink:title=" ">
<polygon fill="#ffffff" stroke="#000000" points="1113,-595.6233 1113,-614.6233 1193,-614.6233 1193,-595.6233 1113,-595.6233"/>
<text text-anchor="middle" x="1153" y="-602.6233" font-family="Helvetica,sans-Serif" font-size="10.00" fill="#000000">sirius::config_t</text>
</a>
</g>
</g>
<!-- Node16&#45;&gt;Node15 -->
<g id="edge18" class="edge">
<title>Node16&#45;&gt;Node15</title>
<path fill="none" stroke="#191970" d="M1203.4094,-605.1233C1220.053,-605.1233 1238.2559,-605.1233 1253.7348,-605.1233"/>
<polygon fill="#191970" stroke="#191970" points="1203.2863,-601.6234 1193.2863,-605.1233 1203.2863,-608.6234 1203.2863,-601.6234"/>
</g>
<!-- Node17 -->
<g id="node17" class="node">
<title>Node17</title>
<g id="a_node17"><a xlink:href="../../d1/d31/classsirius_1_1config__t_1_1control__t.html" target="_top" xlink:title="Control parameters.">
<polygon fill="#ffffff" stroke="#000000" points="866.5,-740.6233 866.5,-759.6233 990.5,-759.6233 990.5,-740.6233 866.5,-740.6233"/>
<text text-anchor="middle" x="928.5" y="-747.6233" font-family="Helvetica,sans-Serif" font-size="10.00" fill="#000000">sirius::config_t::control_t</text>
</a>
</g>
</g>
<!-- Node17&#45;&gt;Node16 -->
<g id="edge19" class="edge">
<title>Node17&#45;&gt;Node16</title>
<path fill="none" stroke="#9a32cd" stroke-dasharray="5,2" d="M1000.7705,-747.3804C1032.3239,-743.0227 1068.1641,-733.4527 1095,-713.1233 1128.9291,-687.4203 1145.2444,-635.9603 1150.7587,-614.6764"/>
<polygon fill="#9a32cd" stroke="#9a32cd" points="1000.1916,-743.9251 990.6934,-748.6191 1001.0457,-750.8728 1000.1916,-743.9251"/>
<text text-anchor="middle" x="1057" y="-747.1233" font-family="Helvetica,sans-Serif" font-size="10.00" fill="#000000"> control_</text>
</g>
<!-- Node18 -->
<g id="node18" class="node">
<title>Node18</title>
<g id="a_node18"><a xlink:href="../../d9/dcc/classnlohmann_1_1basic__json.html" target="_top" xlink:title="a class to store JSON values">
<polygon fill="#ffffff" stroke="#000000" points="602,-568.1233 602,-642.1233 796,-642.1233 796,-568.1233 602,-568.1233"/>
<text text-anchor="start" x="610" y="-630.1233" font-family="Helvetica,sans-Serif" font-size="10.00" fill="#000000">nlohmann::basic_json</text>
<text text-anchor="start" x="610" y="-619.1233" font-family="Helvetica,sans-Serif" font-size="10.00" fill="#000000">&lt; ObjectType, ArrayType,</text>
<text text-anchor="start" x="610" y="-608.1233" font-family="Helvetica,sans-Serif" font-size="10.00" fill="#000000"> StringType, BooleanType,</text>
<text text-anchor="start" x="610" y="-597.1233" font-family="Helvetica,sans-Serif" font-size="10.00" fill="#000000"> NumberIntegerType, NumberUnsigned</text>
<text text-anchor="start" x="610" y="-586.1233" font-family="Helvetica,sans-Serif" font-size="10.00" fill="#000000">Type, NumberFloatType, AllocatorType,</text>
<text text-anchor="middle" x="699" y="-575.1233" font-family="Helvetica,sans-Serif" font-size="10.00" fill="#000000"> JSONSerializer, BinaryType &gt;</text>
</a>
</g>
</g>
<!-- Node18&#45;&gt;Node17 -->
<g id="edge20" class="edge">
<title>Node18&#45;&gt;Node17</title>
<path fill="none" stroke="#9a32cd" stroke-dasharray="5,2" d="M743.3935,-649.4844C772.9953,-676.7273 814.0523,-710.2809 856,-731.1233 863.6908,-734.9446 872.2349,-738.0584 880.6812,-740.5755"/>
<polygon fill="#9a32cd" stroke="#9a32cd" points="745.4399,-646.6069 735.7397,-642.3457 740.6654,-651.7259 745.4399,-646.6069"/>
<text text-anchor="middle" x="826" y="-723.1233" font-family="Helvetica,sans-Serif" font-size="10.00" fill="#000000"> dict_</text>
</g>
<!-- Node22 -->
<g id="node22" class="node">
<title>Node22</title>
<g id="a_node22"><a xlink:href="../../dc/d5b/classsirius_1_1config__t_1_1mixer__t.html" target="_top" xlink:title="Parameters of the mixer.">
<polygon fill="#ffffff" stroke="#000000" points="869,-702.6233 869,-721.6233 988,-721.6233 988,-702.6233 869,-702.6233"/>
<text text-anchor="middle" x="928.5" y="-709.6233" font-family="Helvetica,sans-Serif" font-size="10.00" fill="#000000">sirius::config_t::mixer_t</text>
</a>
</g>
</g>
<!-- Node18&#45;&gt;Node22 -->
<g id="edge25" class="edge">
<title>Node18&#45;&gt;Node22</title>
<path fill="none" stroke="#9a32cd" stroke-dasharray="5,2" d="M765.5378,-647.3734C792.7998,-663.3547 825.1475,-680.6718 856,-693.1233 865.0497,-696.7756 875.0195,-699.9186 884.5937,-702.5374"/>
<polygon fill="#9a32cd" stroke="#9a32cd" points="767.2609,-644.3261 756.8736,-642.2395 763.6925,-650.3483 767.2609,-644.3261"/>
<text text-anchor="middle" x="826" y="-686.1233" font-family="Helvetica,sans-Serif" font-size="10.00" fill="#000000"> dict_</text>
</g>
<!-- Node23 -->
<g id="node23" class="node">
<title>Node23</title>
<g id="a_node23"><a xlink:href="../../d6/d65/classsirius_1_1config__t_1_1hubbard__t.html" target="_top" xlink:title="Hubbard U correction.">
<polygon fill="#ffffff" stroke="#000000" points="863,-664.6233 863,-683.6233 994,-683.6233 994,-664.6233 863,-664.6233"/>
<text text-anchor="middle" x="928.5" y="-671.6233" font-family="Helvetica,sans-Serif" font-size="10.00" fill="#000000">sirius::config_t::hubbard_t</text>
</a>
</g>
</g>
<!-- Node18&#45;&gt;Node23 -->
<g id="edge27" class="edge">
<title>Node18&#45;&gt;Node23</title>
<path fill="none" stroke="#9a32cd" stroke-dasharray="5,2" d="M806.0862,-640.045C822.7521,-645.2431 839.8089,-650.4269 856,-655.1233 867.1221,-658.3493 879.2736,-661.6287 890.3944,-664.5344"/>
<polygon fill="#9a32cd" stroke="#9a32cd" points="806.9173,-636.6377 796.3282,-636.9864 804.8236,-643.3172 806.9173,-636.6377"/>
<text text-anchor="middle" x="826" y="-651.1233" font-family="Helvetica,sans-Serif" font-size="10.00" fill="#000000"> dict_</text>
</g>
<!-- Node24 -->
<g id="node24" class="node">
<title>Node24</title>
<g id="a_node24"><a xlink:href="../../dc/d09/classsirius_1_1config__t_1_1iterative__solver__t.html" target="_top" xlink:title="Parameters of the iterative solver.">
<polygon fill="#ffffff" stroke="#000000" points="868,-615.1233 868,-645.1233 989,-645.1233 989,-615.1233 868,-615.1233"/>
<text text-anchor="start" x="876" y="-633.1233" font-family="Helvetica,sans-Serif" font-size="10.00" fill="#000000">sirius::config_t::iterative</text>
<text text-anchor="middle" x="928.5" y="-622.1233" font-family="Helvetica,sans-Serif" font-size="10.00" fill="#000000">_solver_t</text>
</a>
</g>
</g>
<!-- Node18&#45;&gt;Node24 -->
<g id="edge29" class="edge">
<title>Node18&#45;&gt;Node24</title>
<path fill="none" stroke="#9a32cd" stroke-dasharray="5,2" d="M806.3486,-616.817C827.5157,-619.1228 849.0201,-621.4653 867.9647,-623.529"/>
<polygon fill="#9a32cd" stroke="#9a32cd" points="806.6489,-613.3291 796.3287,-615.7255 805.8908,-620.2879 806.6489,-613.3291"/>
<text text-anchor="middle" x="826" y="-622.1233" font-family="Helvetica,sans-Serif" font-size="10.00" fill="#000000"> dict_</text>
</g>
<!-- Node25 -->
<g id="node25" class="node">
<title>Node25</title>
<g id="a_node25"><a xlink:href="../../db/dc8/classsirius_1_1config__t_1_1parameters__t.html" target="_top" xlink:title="Parameters of the simulation.">
<polygon fill="#ffffff" stroke="#000000" points="856,-576.6233 856,-595.6233 1001,-595.6233 1001,-576.6233 856,-576.6233"/>
<text text-anchor="middle" x="928.5" y="-583.6233" font-family="Helvetica,sans-Serif" font-size="10.00" fill="#000000">sirius::config_t::parameters_t</text>
</a>
</g>
</g>
<!-- Node18&#45;&gt;Node25 -->
<g id="edge31" class="edge">
<title>Node18&#45;&gt;Node25</title>
<path fill="none" stroke="#9a32cd" stroke-dasharray="5,2" d="M806.308,-594.7703C808.8969,-594.5492 811.464,-594.3331 814,-594.1233 827.5042,-593.0058 841.913,-591.9176 855.793,-590.9219"/>
<polygon fill="#9a32cd" stroke="#9a32cd" points="805.8934,-591.2931 796.2341,-595.6462 806.4997,-598.2668 805.8934,-591.2931"/>
<text text-anchor="middle" x="826" y="-597.1233" font-family="Helvetica,sans-Serif" font-size="10.00" fill="#000000"> dict_</text>
</g>
<!-- Node26 -->
<g id="node26" class="node">
<title>Node26</title>
<g id="a_node26"><a xlink:href="../../d9/d67/classsirius_1_1config__t_1_1unit__cell__t.html" target="_top" xlink:title="Unit cell representation.">
<polygon fill="#ffffff" stroke="#000000" points="877.5,-527.1233 877.5,-557.1233 979.5,-557.1233 979.5,-527.1233 877.5,-527.1233"/>
<text text-anchor="start" x="885.5" y="-545.1233" font-family="Helvetica,sans-Serif" font-size="10.00" fill="#000000">sirius::config_t::unit</text>
<text text-anchor="middle" x="928.5" y="-534.1233" font-family="Helvetica,sans-Serif" font-size="10.00" fill="#000000">_cell_t</text>
</a>
</g>
</g>
<!-- Node18&#45;&gt;Node26 -->
<g id="edge33" class="edge">
<title>Node18&#45;&gt;Node26</title>
<path fill="none" stroke="#9a32cd" stroke-dasharray="5,2" d="M806.1681,-575.7046C830.9663,-568.8972 856.2388,-561.9597 877.326,-556.1711"/>
<polygon fill="#9a32cd" stroke="#9a32cd" points="805.0454,-572.3832 796.3287,-578.4056 806.8985,-579.1335 805.0454,-572.3832"/>
<text text-anchor="middle" x="826" y="-574.1233" font-family="Helvetica,sans-Serif" font-size="10.00" fill="#000000"> dict_</text>
</g>
<!-- Node27 -->
<g id="node27" class="node">
<title>Node27</title>
<g id="a_node27"><a xlink:href="../../d2/d6f/classsirius_1_1config__t_1_1nlcg__t.html" target="_top" xlink:title="Non&#45;linear conjugate gradient minimisation.">
<polygon fill="#ffffff" stroke="#000000" points="872,-488.6233 872,-507.6233 985,-507.6233 985,-488.6233 872,-488.6233"/>
<text text-anchor="middle" x="928.5" y="-495.6233" font-family="Helvetica,sans-Serif" font-size="10.00" fill="#000000">sirius::config_t::nlcg_t</text>
</a>
</g>
</g>
<!-- Node18&#45;&gt;Node27 -->
<g id="edge35" class="edge">
<title>Node18&#45;&gt;Node27</title>
<path fill="none" stroke="#9a32cd" stroke-dasharray="5,2" d="M767.0688,-562.7849C794.0533,-547.2417 825.8027,-530.4511 856,-518.1233 865.9125,-514.0766 876.9133,-510.5703 887.2882,-507.6734"/>
<polygon fill="#9a32cd" stroke="#9a32cd" points="764.9912,-559.9445 758.1094,-568 768.5126,-565.9942 764.9912,-559.9445"/>
<text text-anchor="middle" x="826" y="-539.1233" font-family="Helvetica,sans-Serif" font-size="10.00" fill="#000000"> dict_</text>
</g>
<!-- Node28 -->
<g id="node28" class="node">
<title>Node28</title>
<g id="a_node28"><a xlink:href="../../d0/d41/classsirius_1_1config__t_1_1settings__t.html" target="_top" xlink:title="Settings control the internal parameters related to the numerical implementation.">
<polygon fill="#ffffff" stroke="#000000" points="864,-450.6233 864,-469.6233 993,-469.6233 993,-450.6233 864,-450.6233"/>
<text text-anchor="middle" x="928.5" y="-457.6233" font-family="Helvetica,sans-Serif" font-size="10.00" fill="#000000">sirius::config_t::settings_t</text>
</a>
</g>
</g>
<!-- Node18&#45;&gt;Node28 -->
<g id="edge37" class="edge">
<title>Node18&#45;&gt;Node28</title>
<path fill="none" stroke="#9a32cd" stroke-dasharray="5,2" d="M743.3935,-560.7622C772.9953,-533.5193 814.0523,-499.9657 856,-479.1233 863.6908,-475.302 872.2349,-472.1882 880.6812,-469.671"/>
<polygon fill="#9a32cd" stroke="#9a32cd" points="740.6654,-558.5206 735.7397,-567.9008 745.4399,-563.6397 740.6654,-558.5206"/>
<text text-anchor="middle" x="826" y="-504.1233" font-family="Helvetica,sans-Serif" font-size="10.00" fill="#000000"> dict_</text>
</g>
<!-- Node19 -->
<g id="node19" class="node">
<title>Node19</title>
<g id="a_node19"><a xlink:href="../../d1/de3/unionnlohmann_1_1basic__json_1_1json__value.html" target="_top" xlink:title="a JSON value">
<polygon fill="#ffffff" stroke="#000000" points="319,-568.1233 319,-642.1233 525,-642.1233 525,-568.1233 319,-568.1233"/>
<text text-anchor="start" x="327" y="-630.1233" font-family="Helvetica,sans-Serif" font-size="10.00" fill="#000000">nlohmann::basic_json</text>
<text text-anchor="start" x="327" y="-619.1233" font-family="Helvetica,sans-Serif" font-size="10.00" fill="#000000">&lt; ObjectType, ArrayType,</text>
<text text-anchor="start" x="327" y="-608.1233" font-family="Helvetica,sans-Serif" font-size="10.00" fill="#000000"> StringType, BooleanType,</text>
<text text-anchor="start" x="327" y="-597.1233" font-family="Helvetica,sans-Serif" font-size="10.00" fill="#000000"> NumberIntegerType, NumberUnsigned</text>
<text text-anchor="start" x="327" y="-586.1233" font-family="Helvetica,sans-Serif" font-size="10.00" fill="#000000">Type, NumberFloatType, AllocatorType,</text>
<text text-anchor="middle" x="422" y="-575.1233" font-family="Helvetica,sans-Serif" font-size="10.00" fill="#000000"> JSONSerializer, BinaryType &gt;::json_value</text>
</a>
</g>
</g>
<!-- Node19&#45;&gt;Node18 -->
<g id="edge21" class="edge">
<title>Node19&#45;&gt;Node18</title>
<path fill="none" stroke="#9a32cd" stroke-dasharray="5,2" d="M535.2136,-605.1233C557.2827,-605.1233 580.2384,-605.1233 601.7357,-605.1233"/>
<polygon fill="#9a32cd" stroke="#9a32cd" points="535.1446,-601.6234 525.1446,-605.1233 535.1445,-608.6234 535.1446,-601.6234"/>
<text text-anchor="middle" x="563.5" y="-608.1233" font-family="Helvetica,sans-Serif" font-size="10.00" fill="#000000"> m_value</text>
</g>
<!-- Node20 -->
<g id="node20" class="node">
<title>Node20</title>
<g id="a_node20"><a xlink:href="../../dd/d0d/classnlohmann_1_1byte__container__with__subtype.html" target="_top" xlink:title="an internal type for a backed binary type">
<polygon fill="#ffffff" stroke="#000000" points="104,-590.1233 104,-620.1233 252,-620.1233 252,-590.1233 104,-590.1233"/>
<text text-anchor="start" x="112" y="-608.1233" font-family="Helvetica,sans-Serif" font-size="10.00" fill="#000000">nlohmann::byte_container</text>
<text text-anchor="middle" x="178" y="-597.1233" font-family="Helvetica,sans-Serif" font-size="10.00" fill="#000000">_with_subtype&lt; BinaryType &gt;</text>
</a>
</g>
</g>
<!-- Node20&#45;&gt;Node19 -->
<g id="edge22" class="edge">
<title>Node20&#45;&gt;Node19</title>
<path fill="none" stroke="#9a32cd" stroke-dasharray="5,2" d="M262.2131,-605.1233C280.4873,-605.1233 300.0164,-605.1233 318.924,-605.1233"/>
<polygon fill="#9a32cd" stroke="#9a32cd" points="262.2019,-601.6234 252.2018,-605.1233 262.2018,-608.6234 262.2019,-601.6234"/>
<text text-anchor="middle" x="285.5" y="-608.1233" font-family="Helvetica,sans-Serif" font-size="10.00" fill="#000000"> binary</text>
</g>
<!-- Node21 -->
<g id="node21" class="node">
<title>Node21</title>
<g id="a_node21"><a xlink:title=" ">
<polygon fill="#ffffff" stroke="#bfbfbf" points="0,-595.6233 0,-614.6233 67,-614.6233 67,-595.6233 0,-595.6233"/>
<text text-anchor="middle" x="33.5" y="-602.6233" font-family="Helvetica,sans-Serif" font-size="10.00" fill="#000000">BinaryType</text>
</a>
</g>
</g>
<!-- Node21&#45;&gt;Node20 -->
<g id="edge23" class="edge">
<title>Node21&#45;&gt;Node20</title>
<path fill="none" stroke="#191970" d="M77.0237,-605.1233C85.5195,-605.1233 94.6484,-605.1233 103.8187,-605.1233"/>
<polygon fill="#191970" stroke="#191970" points="77.0144,-601.6234 67.0144,-605.1233 77.0144,-608.6234 77.0144,-601.6234"/>
</g>
<!-- Node22&#45;&gt;Node16 -->
<g id="edge24" class="edge">
<title>Node22&#45;&gt;Node16</title>
<path fill="none" stroke="#9a32cd" stroke-dasharray="5,2" d="M998.0329,-704.0389C1029.3559,-698.0944 1065.78,-687.8247 1095,-670.1233 1118.5428,-655.8611 1137.9257,-629.0249 1147.1643,-614.7019"/>
<polygon fill="#9a32cd" stroke="#9a32cd" points="997.2865,-700.6167 988.0579,-705.8209 998.5176,-707.5076 997.2865,-700.6167"/>
<text text-anchor="middle" x="1057" y="-701.1233" font-family="Helvetica,sans-Serif" font-size="10.00" fill="#000000"> mixer_</text>
</g>
<!-- Node23&#45;&gt;Node16 -->
<g id="edge26" class="edge">
<title>Node23&#45;&gt;Node16</title>
<path fill="none" stroke="#9a32cd" stroke-dasharray="5,2" d="M991.5158,-662.5259C1023.0889,-655.8292 1061.6076,-646.3015 1095,-634.1233 1109.3841,-628.8774 1124.8543,-621.0207 1136.1969,-614.8077"/>
<polygon fill="#9a32cd" stroke="#9a32cd" points="990.6038,-659.1406 981.5241,-664.6005 992.0269,-665.9944 990.6038,-659.1406"/>
<text text-anchor="middle" x="1057" y="-658.1233" font-family="Helvetica,sans-Serif" font-size="10.00" fill="#000000"> hubbard_</text>
</g>
<!-- Node24&#45;&gt;Node16 -->
<g id="edge28" class="edge">
<title>Node24&#45;&gt;Node16</title>
<path fill="none" stroke="#9a32cd" stroke-dasharray="5,2" d="M999.584,-622.2075C1036.9353,-618.0481 1081.3455,-613.1026 1112.7485,-609.6056"/>
<polygon fill="#9a32cd" stroke="#9a32cd" points="998.8041,-618.7726 989.2529,-623.3579 999.5789,-625.7296 998.8041,-618.7726"/>
<text text-anchor="middle" x="1057" y="-622.1233" font-family="Helvetica,sans-Serif" font-size="10.00" fill="#000000"> iterative_solver_</text>
</g>
<!-- Node25&#45;&gt;Node16 -->
<g id="edge30" class="edge">
<title>Node25&#45;&gt;Node16</title>
<path fill="none" stroke="#9a32cd" stroke-dasharray="5,2" d="M1011.3147,-587.8252C1038.086,-588.9832 1067.8599,-590.9135 1095,-594.1233 1100.8015,-594.8094 1106.8949,-595.7353 1112.8626,-596.7602"/>
<polygon fill="#9a32cd" stroke="#9a32cd" points="1011.3459,-584.3237 1001.213,-587.4181 1011.064,-591.318 1011.3459,-584.3237"/>
<text text-anchor="middle" x="1057" y="-597.1233" font-family="Helvetica,sans-Serif" font-size="10.00" fill="#000000"> parameters_</text>
</g>
<!-- Node26&#45;&gt;Node16 -->
<g id="edge32" class="edge">
<title>Node26&#45;&gt;Node16</title>
<path fill="none" stroke="#9a32cd" stroke-dasharray="5,2" d="M989.6324,-548.7344C1021.6616,-553.3801 1061.1574,-560.9947 1095,-573.1233 1110.8061,-578.7879 1127.4482,-588.3995 1138.8318,-595.6136"/>
<polygon fill="#9a32cd" stroke="#9a32cd" points="989.8988,-545.2379 979.5123,-547.3284 988.9355,-552.1713 989.8988,-545.2379"/>
<text text-anchor="middle" x="1057" y="-576.1233" font-family="Helvetica,sans-Serif" font-size="10.00" fill="#000000"> unit_cell_</text>
</g>
<!-- Node27&#45;&gt;Node16 -->
<g id="edge34" class="edge">
<title>Node27&#45;&gt;Node16</title>
<path fill="none" stroke="#9a32cd" stroke-dasharray="5,2" d="M995.5073,-505.1633C1027.4074,-510.7998 1065.0345,-520.9308 1095,-539.1233 1118.7313,-553.5309 1138.0347,-580.8112 1147.2116,-595.3788"/>
<polygon fill="#9a32cd" stroke="#9a32cd" points="995.8054,-501.6651 985.3684,-503.4867 994.6633,-508.5713 995.8054,-501.6651"/>
<text text-anchor="middle" x="1057" y="-542.1233" font-family="Helvetica,sans-Serif" font-size="10.00" fill="#000000"> nlcg_</text>
</g>
<!-- Node28&#45;&gt;Node16 -->
<g id="edge36" class="edge">
<title>Node28&#45;&gt;Node16</title>
<path fill="none" stroke="#9a32cd" stroke-dasharray="5,2" d="M1003.4599,-462.1376C1034.3566,-466.2544 1068.9431,-475.4631 1095,-495.1233 1129.4681,-521.1298 1145.4802,-573.6398 1150.8361,-595.3685"/>
<polygon fill="#9a32cd" stroke="#9a32cd" points="1003.4803,-458.6161 993.141,-460.9289 1002.6659,-465.5686 1003.4803,-458.6161"/>
<text text-anchor="middle" x="1057" y="-498.1233" font-family="Helvetica,sans-Serif" font-size="10.00" fill="#000000"> settings_</text>
</g>
<!-- Node29 -->
<g id="node29" class="node">
<title>Node29</title>
<g id="a_node29"><a xlink:href="../../d7/dab/classsddk_1_1mdarray.html" target="_top" xlink:title=" ">
<polygon fill="#ffffff" stroke="#000000" points="1482,-16.6233 1482,-35.6233 1620,-35.6233 1620,-16.6233 1482,-16.6233"/>
<text text-anchor="middle" x="1551" y="-23.6233" font-family="Helvetica,sans-Serif" font-size="10.00" fill="#000000">sddk::mdarray&lt; double, 3 &gt;</text>
</a>
</g>
</g>
<!-- Node29&#45;&gt;Node1 -->
<g id="edge43" class="edge">
<title>Node29&#45;&gt;Node1</title>
<path fill="none" stroke="#9a32cd" stroke-dasharray="5,2" d="M1605.3916,-14.8054C1672.7677,-2.94 1790.4668,10.6965 1887,-15.1233 1939.3177,-29.1167 1992.2973,-66.0761 2019.4347,-87.0435"/>
<polygon fill="#9a32cd" stroke="#9a32cd" points="1604.6379,-11.3849 1595.4229,-16.6132 1605.887,-18.2726 1604.6379,-11.3849"/>
<text text-anchor="start" x="1779" y="-84.1233" font-family="Helvetica,sans-Serif" font-size="10.00" fill="#000000"> aw_surface_derivatives</text>
<text text-anchor="middle" x="1833" y="-73.1233" font-family="Helvetica,sans-Serif" font-size="10.00" fill="#000000">_</text>
<text text-anchor="start" x="1779" y="-62.1233" font-family="Helvetica,sans-Serif" font-size="10.00" fill="#000000">o_radial_integrals</text>
<text text-anchor="middle" x="1833" y="-51.1233" font-family="Helvetica,sans-Serif" font-size="10.00" fill="#000000">_</text>
<text text-anchor="start" x="1779" y="-40.1233" font-family="Helvetica,sans-Serif" font-size="10.00" fill="#000000">radial_functions</text>
<text text-anchor="middle" x="1833" y="-29.1233" font-family="Helvetica,sans-Serif" font-size="10.00" fill="#000000">_</text>
<text text-anchor="middle" x="1833" y="-18.1233" font-family="Helvetica,sans-Serif" font-size="10.00" fill="#000000">so_radial_integrals_</text>
</g>
<!-- Node29&#45;&gt;Node2 -->
<g id="edge38" class="edge">
<title>Node29&#45;&gt;Node2</title>
<path fill="none" stroke="#9a32cd" stroke-dasharray="5,2" d="M1630.5274,-24.4213C1674.2957,-27.7212 1726.5557,-39.255 1761,-72.1233 1783.3071,-93.4097 1770.5001,-109.4843 1779,-139.1233 1797.4217,-203.359 1821.5566,-280.0593 1829.9595,-306.5637"/>
<polygon fill="#9a32cd" stroke="#9a32cd" points="1630.665,-20.9232 1620.4665,-23.7938 1630.2292,-27.9096 1630.665,-20.9232"/>
<text text-anchor="middle" x="1699.5" y="-86.1233" font-family="Helvetica,sans-Serif" font-size="10.00" fill="#000000"> rf_coef_</text>
<text text-anchor="middle" x="1699.5" y="-75.1233" font-family="Helvetica,sans-Serif" font-size="10.00" fill="#000000">vrf_coef_</text>
</g>
<!-- Node30&#45;&gt;Node2 -->
<g id="edge39" class="edge">
<title>Node30&#45;&gt;Node2</title>
<path fill="none" stroke="#9a32cd" stroke-dasharray="5,2" d="M1618.559,-508.801C1663.1883,-505.9448 1720.6666,-495.5737 1761,-464.1233 1807.8687,-427.5769 1826.107,-352.7153 1831.2987,-325.927"/>
<polygon fill="#9a32cd" stroke="#9a32cd" points="1618.1797,-505.3161 1608.3779,-509.3381 1618.5485,-512.3064 1618.1797,-505.3161"/>
<text text-anchor="middle" x="1699.5" y="-509.1233" font-family="Helvetica,sans-Serif" font-size="10.00" fill="#000000"> indexb_</text>
</g>
</g>
</svg>
        <g id="navigator" transform="translate(0 0)" fill="#404254">
                <rect fill="#f2f5e9" fill-opacity="0.5" stroke="#606060" stroke-width=".5" x="0" y="0" width="60" height="60"/>
                <use id="zoomplus" xlink:href="#zoomPlus" x="17" y="9" onmousedown="handleZoom(evt,'in')"/>
                <use id="zoomminus" xlink:href="#zoomMin" x="42" y="9" onmousedown="handleZoom(evt,'out')"/>
                <use id="reset" xlink:href="#resetDef" x="30" y="36" onmousedown="handleReset()"/>
                <g id="arrowUp" xlink:href="#dirArrow" transform="translate(30 24)" onmousedown="handlePan(0,-1)">
                  <use xlink:href="#rim" fill="#404040">
                        <set attributeName="fill" to="#808080" begin="arrowUp.mouseover" end="arrowUp.mouseout"/>
                  </use>
                  <path fill="none" stroke="white" stroke-width="1.5" d="M0,-3.0v7 M-2.5,-0.5L0,-3.0L2.5,-0.5"/>
                </g>
                <g id="arrowRight" xlink:href="#dirArrow" transform="rotate(90) translate(36 -43)" onmousedown="handlePan(1,0)">
                  <use xlink:href="#rim" fill="#404040">
                        <set attributeName="fill" to="#808080" begin="arrowRight.mouseover" end="arrowRight.mouseout"/>
                  </use>
                  <path fill="none" stroke="white" stroke-width="1.5" d="M0,-3.0v7 M-2.5,-0.5L0,-3.0L2.5,-0.5"/>
                </g>
                <g id="arrowDown" xlink:href="#dirArrow" transform="rotate(180) translate(-30 -48)" onmousedown="handlePan(0,1)">
                  <use xlink:href="#rim" fill="#404040">
                        <set attributeName="fill" to="#808080" begin="arrowDown.mouseover" end="arrowDown.mouseout"/>
                  </use>
                  <path fill="none" stroke="white" stroke-width="1.5" d="M0,-3.0v7 M-2.5,-0.5L0,-3.0L2.5,-0.5"/>
                </g>
                <g id="arrowLeft" xlink:href="#dirArrow" transform="rotate(270) translate(-36 17)" onmousedown="handlePan(-1,0)">
                  <use xlink:href="#rim" fill="#404040">
                        <set attributeName="fill" to="#808080" begin="arrowLeft.mouseover" end="arrowLeft.mouseout"/>
                  </use>
                  <path fill="none" stroke="white" stroke-width="1.5" d="M0,-3.0v7 M-2.5,-0.5L0,-3.0L2.5,-0.5"/>
                </g>
        </g>
        <svg viewBox="0 0 15 15" width="100%" height="30px" preserveAspectRatio="xMaxYMin meet">
         <g id="arrow_out" transform="scale(0.3 0.3)">
          <a xlink:href="classsirius_1_1_atom__symmetry__class__coll__graph_org.svg" target="_base">
           <rect id="button" ry="5" rx="5" y="6" x="6" height="38" width="38"
                fill="#f2f5e9" fill-opacity="0.5" stroke="#606060" stroke-width="1.0"/>
           <path id="arrow"
             d="M 11.500037,31.436501 C 11.940474,20.09759 22.043105,11.32322 32.158766,21.979434 L 37.068811,17.246167 C 37.068811,17.246167 37.088388,32 37.088388,32 L 22.160133,31.978069 C 22.160133,31.978069 26.997745,27.140456 26.997745,27.140456 C 18.528582,18.264221 13.291696,25.230495 11.500037,31.436501 z"
             style="fill:#404040;"/>
          </a>
         </g>
        </svg>
</svg>
