<?xml version="1.0" encoding="UTF-8" standalone="no"?>
<!DOCTYPE svg PUBLIC "-//W3C//DTD SVG 1.1//EN"
 "http://www.w3.org/Graphics/SVG/1.1/DTD/svg11.dtd">
<!-- Generated by graphviz version 2.40.1 (20161225.0304)
 -->
<!-- Title: sirius::Atom_symmetry_class Pages: 1 -->
<svg width="1157pt" height="508pt"
 viewBox="0.00 0.00 1157.00 508.00" xmlns="http://www.w3.org/2000/svg" xmlns:xlink="http://www.w3.org/1999/xlink">
<g id="graph0" class="graph" transform="scale(1 1) rotate(0) translate(4 504)">
<title>sirius::Atom_symmetry_class</title>
<polygon fill="#ffffff" stroke="transparent" points="-4,4 -4,-504 1153,-504 1153,4 -4,4"/>
<!-- Node1 -->
<g id="node1" class="node">
<title>Node1</title>
<polygon fill="#bfbfbf" stroke="#000000" points="1031,-170 1031,-200 1149,-200 1149,-170 1031,-170"/>
<text text-anchor="start" x="1039" y="-188" font-family="Helvetica,sans-Serif" font-size="10.00" fill="#000000">sirius::Atom_symmetry</text>
<text text-anchor="middle" x="1090" y="-177" font-family="Helvetica,sans-Serif" font-size="10.00" fill="#000000">_class</text>
</g>
<!-- Node2 -->
<g id="node2" class="node">
<title>Node2</title>
<g id="a_node2"><a xlink:href="../../d3/d37/classsirius_1_1_atom__type.html" target="_top" xlink:title="Defines the properties of atom type. ">
<polygon fill="#ffffff" stroke="#000000" points="840,-264.5 840,-283.5 933,-283.5 933,-264.5 840,-264.5"/>
<text text-anchor="middle" x="886.5" y="-271.5" font-family="Helvetica,sans-Serif" font-size="10.00" fill="#000000">sirius::Atom_type</text>
</a>
</g>
</g>
<!-- Node2&#45;&gt;Node1 -->
<g id="edge1" class="edge">
<title>Node2&#45;&gt;Node1</title>
<path fill="none" stroke="#9a32cd" stroke-dasharray="5,2" d="M917.6229,-260.3885C954.8317,-244.1154 1016.9091,-216.966 1055.5366,-200.0725"/>
<polygon fill="#9a32cd" stroke="#9a32cd" points="916.0377,-257.2616 908.2781,-264.4754 918.8426,-263.6751 916.0377,-257.2616"/>
<text text-anchor="middle" x="985" y="-245" font-family="Helvetica,sans-Serif" font-size="10.00" fill="#000000"> atom_type_</text>
</g>
<!-- Node3 -->
<g id="node3" class="node">
<title>Node3</title>
<g id="a_node3"><a xlink:href="../../d7/dab/classsddk_1_1mdarray.html" target="_top" xlink:title="sddk::mdarray\&lt; int, 2 \&gt;">
<polygon fill="#ffffff" stroke="#000000" points="571.5,-475.5 571.5,-494.5 690.5,-494.5 690.5,-475.5 571.5,-475.5"/>
<text text-anchor="middle" x="631" y="-482.5" font-family="Helvetica,sans-Serif" font-size="10.00" fill="#000000">sddk::mdarray&lt; int, 2 &gt;</text>
</a>
</g>
</g>
<!-- Node3&#45;&gt;Node2 -->
<g id="edge2" class="edge">
<title>Node3&#45;&gt;Node2</title>
<path fill="none" stroke="#9a32cd" stroke-dasharray="5,2" d="M701.2649,-490.4939C739.0009,-489.7765 784.1681,-482.5649 816,-457 872.5423,-411.5896 883.8001,-315.0584 885.9868,-283.9112"/>
<polygon fill="#9a32cd" stroke="#9a32cd" points="700.8222,-486.9955 690.8357,-490.5339 700.8491,-493.9955 700.8222,-486.9955"/>
<text text-anchor="middle" x="767" y="-492" font-family="Helvetica,sans-Serif" font-size="10.00" fill="#000000"> idx_radial_integrals_</text>
</g>
<!-- Node4 -->
<g id="node4" class="node">
<title>Node4</title>
<g id="a_node4"><a xlink:href="../../d5/d6b/classsirius_1_1_spline.html" target="_top" xlink:title="sirius::Spline\&lt; double \&gt;">
<polygon fill="#ffffff" stroke="#000000" points="303,-386.5 303,-405.5 423,-405.5 423,-386.5 303,-386.5"/>
<text text-anchor="middle" x="363" y="-393.5" font-family="Helvetica,sans-Serif" font-size="10.00" fill="#000000">sirius::Spline&lt; double &gt;</text>
</a>
</g>
</g>
<!-- Node4&#45;&gt;Node2 -->
<g id="edge3" class="edge">
<title>Node4&#45;&gt;Node2</title>
<path fill="none" stroke="#9a32cd" stroke-dasharray="5,2" d="M433.383,-395.3272C543.7477,-393.2031 751.5821,-384.5783 816,-350 845.97,-333.9127 870.1141,-300.1548 880.6992,-283.5866"/>
<polygon fill="#9a32cd" stroke="#9a32cd" points="433.2745,-391.8285 423.339,-395.5077 433.4003,-398.8274 433.2745,-391.8285"/>
<text text-anchor="middle" x="631" y="-393" font-family="Helvetica,sans-Serif" font-size="10.00" fill="#000000"> free_atom_density_spline_</text>
</g>
<!-- Node7 -->
<g id="node7" class="node">
<title>Node7</title>
<g id="a_node7"><a xlink:href="../../d7/dab/classsddk_1_1mdarray.html" target="_top" xlink:title="sddk::mdarray\&lt; sirius\l::Spline\&lt; double \&gt;, 2 \&gt;">
<polygon fill="#ffffff" stroke="#000000" points="572.5,-426 572.5,-456 689.5,-456 689.5,-426 572.5,-426"/>
<text text-anchor="start" x="580.5" y="-444" font-family="Helvetica,sans-Serif" font-size="10.00" fill="#000000">sddk::mdarray&lt; sirius</text>
<text text-anchor="middle" x="631" y="-433" font-family="Helvetica,sans-Serif" font-size="10.00" fill="#000000">::Spline&lt; double &gt;, 2 &gt;</text>
</a>
</g>
</g>
<!-- Node4&#45;&gt;Node7 -->
<g id="edge7" class="edge">
<title>Node4&#45;&gt;Node7</title>
<path fill="none" stroke="#9a32cd" stroke-dasharray="5,2" d="M425.4946,-407.3073C430.7379,-408.2285 435.9593,-409.1365 441,-410 484.9781,-417.5339 534.7581,-425.6405 572.3292,-431.6737"/>
<polygon fill="#9a32cd" stroke="#9a32cd" points="425.8826,-403.8217 415.426,-405.5275 424.6641,-410.7149 425.8826,-403.8217"/>
<text text-anchor="middle" x="492.5" y="-440" font-family="Helvetica,sans-Serif" font-size="10.00" fill="#000000"> raw_ptr_device_</text>
<text text-anchor="middle" x="492.5" y="-429" font-family="Helvetica,sans-Serif" font-size="10.00" fill="#000000">raw_ptr_</text>
</g>
<!-- Node5 -->
<g id="node5" class="node">
<title>Node5</title>
<g id="a_node5"><a xlink:href="../../d9/dbf/classsirius_1_1_radial__grid.html" target="_top" xlink:title="sirius::Radial_grid\l\&lt; double \&gt;">
<polygon fill="#ffffff" stroke="#000000" points="142.5,-297 142.5,-327 238.5,-327 238.5,-297 142.5,-297"/>
<text text-anchor="start" x="150.5" y="-315" font-family="Helvetica,sans-Serif" font-size="10.00" fill="#000000">sirius::Radial_grid</text>
<text text-anchor="middle" x="190.5" y="-304" font-family="Helvetica,sans-Serif" font-size="10.00" fill="#000000">&lt; double &gt;</text>
</a>
</g>
</g>
<!-- Node5&#45;&gt;Node2 -->
<g id="edge9" class="edge">
<title>Node5&#45;&gt;Node2</title>
<path fill="none" stroke="#9a32cd" stroke-dasharray="5,2" d="M249.1507,-310.8578C360.0446,-308.3484 607.9999,-301.0687 816,-283 823.7444,-282.3273 831.9467,-281.4406 839.9125,-280.486"/>
<polygon fill="#9a32cd" stroke="#9a32cd" points="248.7728,-307.3652 238.8528,-311.086 248.9279,-314.3635 248.7728,-307.3652"/>
<text text-anchor="start" x="442" y="-329" font-family="Helvetica,sans-Serif" font-size="10.00" fill="#000000"> free_atom_radial_grid</text>
<text text-anchor="middle" x="492.5" y="-318" font-family="Helvetica,sans-Serif" font-size="10.00" fill="#000000">_</text>
<text text-anchor="middle" x="492.5" y="-307" font-family="Helvetica,sans-Serif" font-size="10.00" fill="#000000">radial_grid_</text>
</g>
<!-- Node5&#45;&gt;Node4 -->
<g id="edge4" class="edge">
<title>Node5&#45;&gt;Node4</title>
<path fill="none" stroke="#191970" d="M230.4266,-331.4425C265.7387,-348.638 315.7805,-373.0062 343.1752,-386.3462"/>
<polygon fill="#191970" stroke="#191970" points="231.8626,-328.2489 221.3395,-327.0175 228.7979,-334.5424 231.8626,-328.2489"/>
</g>
<!-- Node6 -->
<g id="node6" class="node">
<title>Node6</title>
<g id="a_node6"><a xlink:href="../../d7/dab/classsddk_1_1mdarray.html" target="_top" xlink:title="sddk::mdarray\&lt; double\l_complex \&gt;">
<polygon fill="#ffffff" stroke="#000000" points="572,-329 572,-359 690,-359 690,-329 572,-329"/>
<text text-anchor="start" x="580" y="-347" font-family="Helvetica,sans-Serif" font-size="10.00" fill="#000000">sddk::mdarray&lt; double</text>
<text text-anchor="middle" x="631" y="-336" font-family="Helvetica,sans-Serif" font-size="10.00" fill="#000000">_complex &gt;</text>
</a>
</g>
</g>
<!-- Node6&#45;&gt;Node2 -->
<g id="edge5" class="edge">
<title>Node6&#45;&gt;Node2</title>
<path fill="none" stroke="#9a32cd" stroke-dasharray="5,2" d="M700.4527,-338.6335C735.7916,-334.4384 778.9867,-327.0274 816,-314 837.2387,-306.5247 859.4681,-292.7685 873.1535,-283.5026"/>
<polygon fill="#9a32cd" stroke="#9a32cd" points="699.7764,-335.1875 690.2307,-339.7842 700.5595,-342.1435 699.7764,-335.1875"/>
<text text-anchor="middle" x="767" y="-338" font-family="Helvetica,sans-Serif" font-size="10.00" fill="#000000"> p_mtrx_</text>
</g>
<!-- Node7&#45;&gt;Node2 -->
<g id="edge6" class="edge">
<title>Node7&#45;&gt;Node2</title>
<path fill="none" stroke="#9a32cd" stroke-dasharray="5,2" d="M699.879,-443.8262C737.3915,-442.0554 782.79,-434.1777 816,-410 860.2913,-377.7549 878.9516,-309.3413 884.5512,-283.8472"/>
<polygon fill="#9a32cd" stroke="#9a32cd" points="699.4019,-440.3401 689.5244,-444.1722 699.6357,-447.3362 699.4019,-440.3401"/>
<text text-anchor="middle" x="767" y="-445" font-family="Helvetica,sans-Serif" font-size="10.00" fill="#000000"> q_radial_functions_l_</text>
</g>
<!-- Node8 -->
<g id="node8" class="node">
<title>Node8</title>
<g id="a_node8"><a xlink:href="../../d7/dab/classsddk_1_1mdarray.html" target="_top" xlink:title="sddk::mdarray\&lt; double\l_complex, 4 \&gt;">
<polygon fill="#ffffff" stroke="#000000" points="572,-241 572,-271 690,-271 690,-241 572,-241"/>
<text text-anchor="start" x="580" y="-259" font-family="Helvetica,sans-Serif" font-size="10.00" fill="#000000">sddk::mdarray&lt; double</text>
<text text-anchor="middle" x="631" y="-248" font-family="Helvetica,sans-Serif" font-size="10.00" fill="#000000">_complex, 4 &gt;</text>
</a>
</g>
</g>
<!-- Node8&#45;&gt;Node2 -->
<g id="edge8" class="edge">
<title>Node8&#45;&gt;Node2</title>
<path fill="none" stroke="#9a32cd" stroke-dasharray="5,2" d="M700.3792,-260.8878C744.6739,-264.0083 800.8953,-267.9691 839.8974,-270.7168"/>
<polygon fill="#9a32cd" stroke="#9a32cd" points="700.4803,-257.3863 690.259,-260.1748 699.9883,-264.369 700.4803,-257.3863"/>
<text text-anchor="middle" x="767" y="-271" font-family="Helvetica,sans-Serif" font-size="10.00" fill="#000000"> f_coefficients_</text>
</g>
<!-- Node9 -->
<g id="node9" class="node">
<title>Node9</title>
<g id="a_node9"><a xlink:href="../../d7/dab/classsddk_1_1mdarray.html" target="_top" xlink:title="sddk::mdarray\&lt; double, 2 \&gt;">
<polygon fill="#ffffff" stroke="#000000" points="562,-189.5 562,-208.5 700,-208.5 700,-189.5 562,-189.5"/>
<text text-anchor="middle" x="631" y="-196.5" font-family="Helvetica,sans-Serif" font-size="10.00" fill="#000000">sddk::mdarray&lt; double, 2 &gt;</text>
</a>
</g>
</g>
<!-- Node9&#45;&gt;Node1 -->
<g id="edge23" class="edge">
<title>Node9&#45;&gt;Node1</title>
<path fill="none" stroke="#9a32cd" stroke-dasharray="5,2" d="M710.2244,-196.5836C801.4116,-193.8023 949.0808,-189.2982 1030.8213,-186.805"/>
<polygon fill="#9a32cd" stroke="#9a32cd" points="710.1025,-193.0856 700.2139,-196.8889 710.316,-200.0823 710.1025,-193.0856"/>
<text text-anchor="start" x="836" y="-217" font-family="Helvetica,sans-Serif" font-size="10.00" fill="#000000"> o1_radial_integrals</text>
<text text-anchor="middle" x="886.5" y="-206" font-family="Helvetica,sans-Serif" font-size="10.00" fill="#000000">_</text>
<text text-anchor="middle" x="886.5" y="-195" font-family="Helvetica,sans-Serif" font-size="10.00" fill="#000000">h_spherical_integrals_</text>
</g>
<!-- Node9&#45;&gt;Node2 -->
<g id="edge10" class="edge">
<title>Node9&#45;&gt;Node2</title>
<path fill="none" stroke="#9a32cd" stroke-dasharray="5,2" d="M710.3709,-202.0117C743.8775,-205.3378 782.7497,-211.9691 816,-225 839.5924,-234.2459 862.9402,-252.8201 875.9644,-264.2561"/>
<polygon fill="#9a32cd" stroke="#9a32cd" points="710.4327,-198.503 700.1567,-201.0821 709.7983,-205.4741 710.4327,-198.503"/>
<text text-anchor="middle" x="767" y="-250" font-family="Helvetica,sans-Serif" font-size="10.00" fill="#000000"> ae_paw_wfs_array_</text>
<text text-anchor="middle" x="767" y="-239" font-family="Helvetica,sans-Serif" font-size="10.00" fill="#000000">ps_paw_wfs_array_</text>
<text text-anchor="middle" x="767" y="-228" font-family="Helvetica,sans-Serif" font-size="10.00" fill="#000000">d_mtrx_ion_</text>
</g>
<!-- Node10 -->
<g id="node10" class="node">
<title>Node10</title>
<g id="a_node10"><a xlink:href="../../d0/d04/classsirius_1_1_simulation__parameters.html" target="_top" xlink:title="Set of basic parameters of a simulation. ">
<polygon fill="#ffffff" stroke="#000000" points="585,-130 585,-160 677,-160 677,-130 585,-130"/>
<text text-anchor="start" x="593" y="-148" font-family="Helvetica,sans-Serif" font-size="10.00" fill="#000000">sirius::Simulation</text>
<text text-anchor="middle" x="631" y="-137" font-family="Helvetica,sans-Serif" font-size="10.00" fill="#000000">_parameters</text>
</a>
</g>
</g>
<!-- Node10&#45;&gt;Node2 -->
<g id="edge11" class="edge">
<title>Node10&#45;&gt;Node2</title>
<path fill="none" stroke="#9a32cd" stroke-dasharray="5,2" d="M687.3669,-146.0829C726.9676,-149.5087 779.2264,-159.6867 816,-188 829.5478,-198.4309 823.8091,-208.2708 834,-222 846.0811,-238.2756 863.2479,-254.2689 874.6208,-264.1286"/>
<polygon fill="#9a32cd" stroke="#9a32cd" points="687.5643,-142.588 677.3316,-145.3342 687.0435,-149.5686 687.5643,-142.588"/>
<text text-anchor="middle" x="767" y="-191" font-family="Helvetica,sans-Serif" font-size="10.00" fill="#000000"> parameters_</text>
</g>
<!-- Node11 -->
<g id="node11" class="node">
<title>Node11</title>
<g id="a_node11"><a xlink:href="../../d4/d6e/structsirius_1_1_parameters__input.html" target="_top" xlink:title="Parse parameters input section. ">
<polygon fill="#ffffff" stroke="#000000" points="314.5,-241 314.5,-271 411.5,-271 411.5,-241 314.5,-241"/>
<text text-anchor="start" x="322.5" y="-259" font-family="Helvetica,sans-Serif" font-size="10.00" fill="#000000">sirius::Parameters</text>
<text text-anchor="middle" x="363" y="-248" font-family="Helvetica,sans-Serif" font-size="10.00" fill="#000000">_input</text>
</a>
</g>
</g>
<!-- Node11&#45;&gt;Node10 -->
<g id="edge12" class="edge">
<title>Node11&#45;&gt;Node10</title>
<path fill="none" stroke="#9a32cd" stroke-dasharray="5,2" d="M421.6207,-255.6666C460.001,-252.6309 509.2894,-243.0686 544,-216 558.1063,-204.9994 549.3875,-192.6856 562,-180 570.0499,-171.9034 580.3611,-165.3249 590.5444,-160.149"/>
<polygon fill="#9a32cd" stroke="#9a32cd" points="421.3569,-252.1763 411.6111,-256.3319 421.8212,-259.1609 421.3569,-252.1763"/>
<text text-anchor="middle" x="492.5" y="-256" font-family="Helvetica,sans-Serif" font-size="10.00" fill="#000000"> parameters_input_</text>
</g>
<!-- Node12 -->
<g id="node12" class="node">
<title>Node12</title>
<g id="a_node12"><a xlink:href="../../da/de3/structsirius_1_1_control__input.html" target="_top" xlink:title="Parse control input section. ">
<polygon fill="#ffffff" stroke="#000000" points="310.5,-202.5 310.5,-221.5 415.5,-221.5 415.5,-202.5 310.5,-202.5"/>
<text text-anchor="middle" x="363" y="-209.5" font-family="Helvetica,sans-Serif" font-size="10.00" fill="#000000">sirius::Control_input</text>
</a>
</g>
</g>
<!-- Node12&#45;&gt;Node10 -->
<g id="edge13" class="edge">
<title>Node12&#45;&gt;Node10</title>
<path fill="none" stroke="#9a32cd" stroke-dasharray="5,2" d="M425.6685,-204.1905C460.8531,-198.9948 505.3267,-191.0678 544,-180 562.3131,-174.759 582.0593,-166.9979 598.1033,-160.1149"/>
<polygon fill="#9a32cd" stroke="#9a32cd" points="424.9341,-200.76 415.535,-205.6497 425.9318,-207.6886 424.9341,-200.76"/>
<text text-anchor="middle" x="492.5" y="-204" font-family="Helvetica,sans-Serif" font-size="10.00" fill="#000000"> control_input_</text>
</g>
<!-- Node13 -->
<g id="node13" class="node">
<title>Node13</title>
<g id="a_node13"><a xlink:href="../../d2/dcd/structsirius_1_1_hubbard__input.html" target="_top" xlink:title="sirius::Hubbard_input">
<polygon fill="#ffffff" stroke="#000000" points="307.5,-164.5 307.5,-183.5 418.5,-183.5 418.5,-164.5 307.5,-164.5"/>
<text text-anchor="middle" x="363" y="-171.5" font-family="Helvetica,sans-Serif" font-size="10.00" fill="#000000">sirius::Hubbard_input</text>
</a>
</g>
</g>
<!-- Node13&#45;&gt;Node10 -->
<g id="edge14" class="edge">
<title>Node13&#45;&gt;Node10</title>
<path fill="none" stroke="#9a32cd" stroke-dasharray="5,2" d="M428.6091,-166.9005C477.0675,-161.6569 541.8284,-154.6492 584.903,-149.9881"/>
<polygon fill="#9a32cd" stroke="#9a32cd" points="428.0952,-163.4356 418.5298,-167.9912 428.8483,-170.395 428.0952,-163.4356"/>
<text text-anchor="middle" x="492.5" y="-168" font-family="Helvetica,sans-Serif" font-size="10.00" fill="#000000"> hubbard_input_</text>
</g>
<!-- Node14 -->
<g id="node14" class="node">
<title>Node14</title>
<g id="a_node14"><a xlink:href="../../d6/de3/structsirius_1_1_settings__input.html" target="_top" xlink:title="Settings control the internal parameters related to the numerical implementation. ...">
<polygon fill="#ffffff" stroke="#000000" points="308.5,-126.5 308.5,-145.5 417.5,-145.5 417.5,-126.5 308.5,-126.5"/>
<text text-anchor="middle" x="363" y="-133.5" font-family="Helvetica,sans-Serif" font-size="10.00" fill="#000000">sirius::Settings_input</text>
</a>
</g>
</g>
<!-- Node14&#45;&gt;Node10 -->
<g id="edge15" class="edge">
<title>Node14&#45;&gt;Node10</title>
<path fill="none" stroke="#9a32cd" stroke-dasharray="5,2" d="M428.0659,-137.5091C462.529,-138.3813 505.5665,-139.5857 544,-141 557.2967,-141.4893 571.7322,-142.1148 584.9524,-142.7252"/>
<polygon fill="#9a32cd" stroke="#9a32cd" points="427.7446,-134.0001 417.6603,-137.2492 427.5698,-140.9979 427.7446,-134.0001"/>
<text text-anchor="middle" x="492.5" y="-144" font-family="Helvetica,sans-Serif" font-size="10.00" fill="#000000"> settings_input_</text>
</g>
<!-- Node15 -->
<g id="node15" class="node">
<title>Node15</title>
<g id="a_node15"><a xlink:href="../../d7/d51/structsirius_1_1_unit__cell__input.html" target="_top" xlink:title="Parse unit cell input section. ">
<polygon fill="#ffffff" stroke="#000000" points="307.5,-88.5 307.5,-107.5 418.5,-107.5 418.5,-88.5 307.5,-88.5"/>
<text text-anchor="middle" x="363" y="-95.5" font-family="Helvetica,sans-Serif" font-size="10.00" fill="#000000">sirius::Unit_cell_input</text>
</a>
</g>
</g>
<!-- Node15&#45;&gt;Node10 -->
<g id="edge16" class="edge">
<title>Node15&#45;&gt;Node10</title>
<path fill="none" stroke="#9a32cd" stroke-dasharray="5,2" d="M428.7079,-104.6833C463.2035,-108.7028 506.0738,-114.5036 544,-122 557.3341,-124.6356 571.6531,-128.1361 584.7477,-131.6094"/>
<polygon fill="#9a32cd" stroke="#9a32cd" points="429.0829,-101.2035 418.7501,-103.5451 428.288,-108.1582 429.0829,-101.2035"/>
<text text-anchor="middle" x="492.5" y="-125" font-family="Helvetica,sans-Serif" font-size="10.00" fill="#000000"> unit_cell_input_</text>
</g>
<!-- Node16 -->
<g id="node16" class="node">
<title>Node16</title>
<g id="a_node16"><a xlink:href="../../d2/d6b/classgeometry3d_1_1vector3d.html" target="_top" xlink:title="geometry3d::vector3d\l\&lt; double \&gt;">
<polygon fill="#ffffff" stroke="#000000" points="134,-83 134,-113 247,-113 247,-83 134,-83"/>
<text text-anchor="start" x="142" y="-101" font-family="Helvetica,sans-Serif" font-size="10.00" fill="#000000">geometry3d::vector3d</text>
<text text-anchor="middle" x="190.5" y="-90" font-family="Helvetica,sans-Serif" font-size="10.00" fill="#000000">&lt; double &gt;</text>
</a>
</g>
</g>
<!-- Node16&#45;&gt;Node15 -->
<g id="edge17" class="edge">
<title>Node16&#45;&gt;Node15</title>
<path fill="none" stroke="#9a32cd" stroke-dasharray="5,2" d="M257.5514,-98C273.9975,-98 291.4247,-98 307.2733,-98"/>
<polygon fill="#9a32cd" stroke="#9a32cd" points="257.4611,-94.5001 247.461,-98 257.461,-101.5001 257.4611,-94.5001"/>
<text text-anchor="middle" x="275" y="-123" font-family="Helvetica,sans-Serif" font-size="10.00" fill="#000000"> a2_</text>
<text text-anchor="middle" x="275" y="-112" font-family="Helvetica,sans-Serif" font-size="10.00" fill="#000000">a1_</text>
<text text-anchor="middle" x="275" y="-101" font-family="Helvetica,sans-Serif" font-size="10.00" fill="#000000">a0_</text>
</g>
<!-- Node17 -->
<g id="node17" class="node">
<title>Node17</title>
<polygon fill="#ffffff" stroke="#bfbfbf" points="0,-83 0,-113 97,-113 97,-83 0,-83"/>
<text text-anchor="start" x="8" y="-101" font-family="Helvetica,sans-Serif" font-size="10.00" fill="#000000">std::array&lt; double</text>
<text text-anchor="middle" x="48.5" y="-90" font-family="Helvetica,sans-Serif" font-size="10.00" fill="#000000"> , 3 &gt;</text>
</g>
<!-- Node17&#45;&gt;Node16 -->
<g id="edge18" class="edge">
<title>Node17&#45;&gt;Node16</title>
<path fill="none" stroke="#191970" d="M107.4305,-98C116.1271,-98 125.0725,-98 133.7242,-98"/>
<polygon fill="#191970" stroke="#191970" points="107.3684,-94.5001 97.3683,-98 107.3683,-101.5001 107.3684,-94.5001"/>
</g>
<!-- Node18 -->
<g id="node18" class="node">
<title>Node18</title>
<g id="a_node18"><a xlink:href="../../d2/d11/structsirius_1_1_iterative__solver__input.html" target="_top" xlink:title="Parse the parameters of iterative solver. ">
<polygon fill="#ffffff" stroke="#000000" points="306.5,-39 306.5,-69 419.5,-69 419.5,-39 306.5,-39"/>
<text text-anchor="start" x="314.5" y="-57" font-family="Helvetica,sans-Serif" font-size="10.00" fill="#000000">sirius::Iterative_solver</text>
<text text-anchor="middle" x="363" y="-46" font-family="Helvetica,sans-Serif" font-size="10.00" fill="#000000">_input</text>
</a>
</g>
</g>
<!-- Node18&#45;&gt;Node10 -->
<g id="edge19" class="edge">
<title>Node18&#45;&gt;Node10</title>
<path fill="none" stroke="#9a32cd" stroke-dasharray="5,2" d="M429.7053,-55.2544C466.1917,-58.8222 510.6214,-68.1375 544,-91 556.2055,-99.3601 550.4957,-109.6987 562,-119 568.7692,-124.473 576.8107,-128.8729 584.971,-132.3837"/>
<polygon fill="#9a32cd" stroke="#9a32cd" points="429.9025,-51.7586 419.6407,-54.3941 429.3062,-58.7332 429.9025,-51.7586"/>
<text text-anchor="middle" x="492.5" y="-94" font-family="Helvetica,sans-Serif" font-size="10.00" fill="#000000"> iterative_solver_input_</text>
</g>
<!-- Node19 -->
<g id="node19" class="node">
<title>Node19</title>
<g id="a_node19"><a xlink:href="../../d4/db0/structsirius_1_1_mixer__input.html" target="_top" xlink:title="Parse mixer input section. ">
<polygon fill="#ffffff" stroke="#000000" points="314.5,-.5 314.5,-19.5 411.5,-19.5 411.5,-.5 314.5,-.5"/>
<text text-anchor="middle" x="363" y="-7.5" font-family="Helvetica,sans-Serif" font-size="10.00" fill="#000000">sirius::Mixer_input</text>
</a>
</g>
</g>
<!-- Node19&#45;&gt;Node10 -->
<g id="edge20" class="edge">
<title>Node19&#45;&gt;Node10</title>
<path fill="none" stroke="#9a32cd" stroke-dasharray="5,2" d="M421.7521,-4.4396C461.2559,-4.0573 511.8031,-10.5932 544,-41 569.8661,-65.4279 538.5775,-92.22 562,-119 568.068,-125.9378 576.1807,-131.0297 584.7081,-134.7653"/>
<polygon fill="#9a32cd" stroke="#9a32cd" points="421.6175,-.9418 411.7062,-4.6856 421.7889,-7.9397 421.6175,-.9418"/>
<text text-anchor="middle" x="492.5" y="-44" font-family="Helvetica,sans-Serif" font-size="10.00" fill="#000000"> mixer_input_</text>
</g>
<!-- Node20 -->
<g id="node20" class="node">
<title>Node20</title>
<g id="a_node20"><a xlink:href="../../d7/dab/classsddk_1_1mdarray.html" target="_top" xlink:title="sddk::mdarray\&lt; double, 3 \&gt;">
<polygon fill="#ffffff" stroke="#000000" points="562,-90.5 562,-109.5 700,-109.5 700,-90.5 562,-90.5"/>
<text text-anchor="middle" x="631" y="-97.5" font-family="Helvetica,sans-Serif" font-size="10.00" fill="#000000">sddk::mdarray&lt; double, 3 &gt;</text>
</a>
</g>
</g>
<!-- Node20&#45;&gt;Node1 -->
<g id="edge24" class="edge">
<title>Node20&#45;&gt;Node1</title>
<path fill="none" stroke="#9a32cd" stroke-dasharray="5,2" d="M691.3785,-89.0111C700.2781,-87.762 709.3576,-86.6909 718,-86 816.3938,-78.1339 845.4368,-76.5494 939,-108 986.1396,-123.8456 1036.847,-152.3272 1065.8678,-169.8556"/>
<polygon fill="#9a32cd" stroke="#9a32cd" points="690.8176,-85.556 681.4398,-90.4863 691.8454,-92.4801 690.8176,-85.556"/>
<text text-anchor="start" x="834" y="-177" font-family="Helvetica,sans-Serif" font-size="10.00" fill="#000000"> o_radial_integrals</text>
<text text-anchor="middle" x="886.5" y="-166" font-family="Helvetica,sans-Serif" font-size="10.00" fill="#000000">_</text>
<text text-anchor="start" x="834" y="-155" font-family="Helvetica,sans-Serif" font-size="10.00" fill="#000000">aw_surface_derivatives</text>
<text text-anchor="middle" x="886.5" y="-144" font-family="Helvetica,sans-Serif" font-size="10.00" fill="#000000">_</text>
<text text-anchor="start" x="834" y="-133" font-family="Helvetica,sans-Serif" font-size="10.00" fill="#000000">so_radial_integrals</text>
<text text-anchor="middle" x="886.5" y="-122" font-family="Helvetica,sans-Serif" font-size="10.00" fill="#000000">_</text>
<text text-anchor="middle" x="886.5" y="-111" font-family="Helvetica,sans-Serif" font-size="10.00" fill="#000000">radial_functions_</text>
</g>
<!-- Node20&#45;&gt;Node2 -->
<g id="edge21" class="edge">
<title>Node20&#45;&gt;Node2</title>
<path fill="none" stroke="#9a32cd" stroke-dasharray="5,2" d="M710.228,-90.4736C746.8634,-90.5535 788.295,-97.7163 816,-124 848.1269,-154.4787 813.3185,-182.8418 834,-222 843.3464,-239.6963 860.7971,-255.1348 873.0043,-264.4959"/>
<polygon fill="#9a32cd" stroke="#9a32cd" points="709.983,-86.9768 700.0375,-90.6289 710.0897,-93.976 709.983,-86.9768"/>
<text text-anchor="middle" x="767" y="-138" font-family="Helvetica,sans-Serif" font-size="10.00" fill="#000000"> rf_coef_</text>
<text text-anchor="middle" x="767" y="-127" font-family="Helvetica,sans-Serif" font-size="10.00" fill="#000000">vrf_coef_</text>
</g>
<!-- Node21 -->
<g id="node21" class="node">
<title>Node21</title>
<g id="a_node21"><a xlink:href="../../d3/dfd/classsirius_1_1basis__functions__index.html" target="_top" xlink:title="A helper class to establish various index mappings for the atomic basis functions. ">
<polygon fill="#ffffff" stroke="#000000" points="574,-31 574,-61 688,-61 688,-31 574,-31"/>
<text text-anchor="start" x="582" y="-49" font-family="Helvetica,sans-Serif" font-size="10.00" fill="#000000">sirius::basis_functions</text>
<text text-anchor="middle" x="631" y="-38" font-family="Helvetica,sans-Serif" font-size="10.00" fill="#000000">_index</text>
</a>
</g>
</g>
<!-- Node21&#45;&gt;Node2 -->
<g id="edge22" class="edge">
<title>Node21&#45;&gt;Node2</title>
<path fill="none" stroke="#9a32cd" stroke-dasharray="5,2" d="M698.5775,-38.0991C738.2464,-37.4496 786.2723,-44.2548 816,-75 838.8765,-98.6596 819.5071,-192.4523 834,-222 842.7001,-239.7375 859.9315,-254.9522 872.2815,-264.2605"/>
<polygon fill="#9a32cd" stroke="#9a32cd" points="698.3073,-34.6059 688.4257,-38.4273 698.5336,-41.6023 698.3073,-34.6059"/>
<text text-anchor="middle" x="767" y="-78" font-family="Helvetica,sans-Serif" font-size="10.00" fill="#000000"> indexb_</text>
</g>
</g>
</svg>
