<?xml version="1.0" encoding="UTF-8" standalone="no"?>
<!DOCTYPE svg PUBLIC "-//W3C//DTD SVG 1.1//EN"
 "http://www.w3.org/Graphics/SVG/1.1/DTD/svg11.dtd">
<!-- Generated by graphviz version 2.40.1 (20161225.0304)
 -->
<!-- Title: sirius::Atom_symmetry_class Pages: 1 -->
<svg width="1053pt" height="812pt"
 viewBox="0.00 0.00 1053.00 812.13" xmlns="http://www.w3.org/2000/svg" xmlns:xlink="http://www.w3.org/1999/xlink">
<g id="graph0" class="graph" transform="scale(1 1) rotate(0) translate(4 808.133)">
<title>sirius::Atom_symmetry_class</title>
<polygon fill="#ffffff" stroke="transparent" points="-4,4 -4,-808.133 1049,-808.133 1049,4 -4,4"/>
<!-- Node1 -->
<g id="node1" class="node">
<title>Node1</title>
<polygon fill="#bfbfbf" stroke="#000000" points="953,-668.133 953,-698.133 1045,-698.133 1045,-668.133 953,-668.133"/>
<text text-anchor="start" x="961" y="-686.133" font-family="Helvetica,sans-Serif" font-size="10.00" fill="#000000">sirius::Atom_symmetry</text>
<text text-anchor="middle" x="999" y="-675.133" font-family="Helvetica,sans-Serif" font-size="10.00" fill="#000000">_class</text>
</g>
<!-- Node2 -->
<g id="node2" class="node">
<title>Node2</title>
<g id="a_node2"><a xlink:href="../../d3/d37/classsirius_1_1_atom__type.html" target="_top" xlink:title="sirius::Atom_type">
<polygon fill="#ffffff" stroke="#000000" points="801,-299.633 801,-318.633 875,-318.633 875,-299.633 801,-299.633"/>
<text text-anchor="middle" x="838" y="-306.633" font-family="Helvetica,sans-Serif" font-size="10.00" fill="#000000">sirius::Atom_type</text>
</a>
</g>
</g>
<!-- Node2&#45;&gt;Node1 -->
<g id="edge1" class="edge">
<title>Node2&#45;&gt;Node1</title>
<path fill="none" stroke="#9a32cd" stroke-dasharray="5,2" d="M846.2333,-328.2589C874.4437,-393.7909 966.8693,-608.4939 992.4094,-667.8231"/>
<polygon fill="#9a32cd" stroke="#9a32cd" points="849.3104,-326.555 842.1416,-318.7538 842.8809,-329.3228 849.3104,-326.555"/>
<text text-anchor="middle" x="914" y="-532.133" font-family="Helvetica,sans-Serif" font-size="10.00" fill="#000000"> atom_type_</text>
</g>
<!-- Node3 -->
<g id="node3" class="node">
<title>Node3</title>
<g id="a_node3"><a xlink:href="../../db/d3d/structpseudopotential__descriptor.html" target="_top" xlink:title="Descriptor of the pseudopotential. ">
<polygon fill="#ffffff" stroke="#000000" points="579,-635.633 579,-654.633 686,-654.633 686,-635.633 579,-635.633"/>
<text text-anchor="middle" x="632.5" y="-642.633" font-family="Helvetica,sans-Serif" font-size="10.00" fill="#000000">pseudopotential_descriptor</text>
</a>
</g>
</g>
<!-- Node3&#45;&gt;Node2 -->
<g id="edge2" class="edge">
<title>Node3&#45;&gt;Node2</title>
<path fill="none" stroke="#9a32cd" stroke-dasharray="5,2" d="M696.4028,-645.2149C726.6577,-641.8234 760.9152,-632.4314 783,-609.133 824.1636,-565.7073 835.5124,-365.1477 837.607,-318.7379"/>
<polygon fill="#9a32cd" stroke="#9a32cd" points="695.9548,-641.7413 686.3192,-646.1465 696.5988,-648.7116 695.9548,-641.7413"/>
<text text-anchor="middle" x="743.5" y="-646.133" font-family="Helvetica,sans-Serif" font-size="10.00" fill="#000000"> pp_desc_</text>
</g>
<!-- Node4 -->
<g id="node4" class="node">
<title>Node4</title>
<g id="a_node4"><a xlink:href="../../d7/dab/classsddk_1_1mdarray.html" target="_top" xlink:title="sddk::mdarray\&lt; double, 2 \&gt;">
<polygon fill="#ffffff" stroke="#000000" points="343,-706.633 343,-725.633 451,-725.633 451,-706.633 343,-706.633"/>
<text text-anchor="middle" x="397" y="-713.633" font-family="Helvetica,sans-Serif" font-size="10.00" fill="#000000">sddk::mdarray&lt; double, 2 &gt;</text>
</a>
</g>
</g>
<!-- Node4&#45;&gt;Node1 -->
<g id="edge38" class="edge">
<title>Node4&#45;&gt;Node1</title>
<path fill="none" stroke="#9a32cd" stroke-dasharray="5,2" d="M424.4703,-730.1331C437.6038,-736.1548 453.755,-742.6093 469,-746.133 605.1058,-777.592 645.3484,-783.9345 783,-760.133 851.2591,-748.3302 926.5151,-716.9997 967.7226,-698.1396"/>
<polygon fill="#9a32cd" stroke="#9a32cd" points="425.6142,-726.8016 415.0802,-725.6683 422.6083,-733.1233 425.6142,-726.8016"/>
<text text-anchor="start" x="705.5" y="-796.133" font-family="Helvetica,sans-Serif" font-size="10.00" fill="#000000"> o1_radial_integrals</text>
<text text-anchor="middle" x="743.5" y="-785.133" font-family="Helvetica,sans-Serif" font-size="10.00" fill="#000000">_</text>
<text text-anchor="middle" x="743.5" y="-774.133" font-family="Helvetica,sans-Serif" font-size="10.00" fill="#000000">h_spherical_integrals_</text>
</g>
<!-- Node4&#45;&gt;Node3 -->
<g id="edge3" class="edge">
<title>Node4&#45;&gt;Node3</title>
<path fill="none" stroke="#9a32cd" stroke-dasharray="5,2" d="M448.5905,-704.2459C481.1154,-696.3491 523.8418,-685.2343 561,-673.133 577.7321,-667.6839 596.2188,-660.4098 610.2022,-654.6415"/>
<polygon fill="#9a32cd" stroke="#9a32cd" points="447.7457,-700.8492 438.8416,-706.5908 449.3828,-707.6551 447.7457,-700.8492"/>
<text text-anchor="middle" x="515" y="-734.133" font-family="Helvetica,sans-Serif" font-size="10.00" fill="#000000"> all_elec_wfc</text>
<text text-anchor="middle" x="515" y="-723.133" font-family="Helvetica,sans-Serif" font-size="10.00" fill="#000000">beta_radial_functions</text>
<text text-anchor="middle" x="515" y="-712.133" font-family="Helvetica,sans-Serif" font-size="10.00" fill="#000000">d_mtrx_ion</text>
<text text-anchor="middle" x="515" y="-701.133" font-family="Helvetica,sans-Serif" font-size="10.00" fill="#000000">pseudo_wfc</text>
</g>
<!-- Node5 -->
<g id="node5" class="node">
<title>Node5</title>
<g id="a_node5"><a xlink:href="../../d0/d58/classsddk_1_1mdarray__base.html" target="_top" xlink:title="sddk::mdarray_base\l\&lt; double, N \&gt;">
<polygon fill="#ffffff" stroke="#000000" points="160,-678.133 160,-708.133 244,-708.133 244,-678.133 160,-678.133"/>
<text text-anchor="start" x="168" y="-696.133" font-family="Helvetica,sans-Serif" font-size="10.00" fill="#000000">sddk::mdarray_base</text>
<text text-anchor="middle" x="202" y="-685.133" font-family="Helvetica,sans-Serif" font-size="10.00" fill="#000000">&lt; double, N &gt;</text>
</a>
</g>
</g>
<!-- Node5&#45;&gt;Node4 -->
<g id="edge4" class="edge">
<title>Node5&#45;&gt;Node4</title>
<path fill="none" stroke="#191970" d="M254.48,-699.3229C281.8494,-702.5511 315.2832,-706.4946 342.888,-709.7505"/>
<polygon fill="#191970" stroke="#191970" points="254.6533,-695.8192 244.3121,-698.1236 253.8332,-702.771 254.6533,-695.8192"/>
</g>
<!-- Node6 -->
<g id="node6" class="node">
<title>Node6</title>
<g id="a_node6"><a xlink:href="../../d7/dab/classsddk_1_1mdarray.html" target="_top" xlink:title="sddk::mdarray\&lt; double, 3 \&gt;">
<polygon fill="#ffffff" stroke="#000000" points="343,-662.633 343,-681.633 451,-681.633 451,-662.633 343,-662.633"/>
<text text-anchor="middle" x="397" y="-669.633" font-family="Helvetica,sans-Serif" font-size="10.00" fill="#000000">sddk::mdarray&lt; double, 3 &gt;</text>
</a>
</g>
</g>
<!-- Node5&#45;&gt;Node6 -->
<g id="edge6" class="edge">
<title>Node5&#45;&gt;Node6</title>
<path fill="none" stroke="#191970" d="M254.48,-687.4813C281.8494,-684.5338 315.2832,-680.9332 342.888,-677.9604"/>
<polygon fill="#191970" stroke="#191970" points="253.8798,-684.0256 244.3121,-688.5763 254.6294,-690.9854 253.8798,-684.0256"/>
</g>
<!-- Node6&#45;&gt;Node1 -->
<g id="edge39" class="edge">
<title>Node6&#45;&gt;Node1</title>
<path fill="none" stroke="#9a32cd" stroke-dasharray="5,2" d="M461.5487,-673.3124C583.8662,-675.5475 846.6687,-680.3495 952.9692,-682.2919"/>
<polygon fill="#9a32cd" stroke="#9a32cd" points="461.2813,-669.8071 451.219,-673.1237 461.1533,-676.8059 461.2813,-669.8071"/>
<text text-anchor="start" x="704" y="-748.133" font-family="Helvetica,sans-Serif" font-size="10.00" fill="#000000"> o_radial_integrals</text>
<text text-anchor="middle" x="743.5" y="-737.133" font-family="Helvetica,sans-Serif" font-size="10.00" fill="#000000">_</text>
<text text-anchor="start" x="704" y="-726.133" font-family="Helvetica,sans-Serif" font-size="10.00" fill="#000000">aw_surface_derivatives</text>
<text text-anchor="middle" x="743.5" y="-715.133" font-family="Helvetica,sans-Serif" font-size="10.00" fill="#000000">_</text>
<text text-anchor="start" x="704" y="-704.133" font-family="Helvetica,sans-Serif" font-size="10.00" fill="#000000">so_radial_integrals</text>
<text text-anchor="middle" x="743.5" y="-693.133" font-family="Helvetica,sans-Serif" font-size="10.00" fill="#000000">_</text>
<text text-anchor="middle" x="743.5" y="-682.133" font-family="Helvetica,sans-Serif" font-size="10.00" fill="#000000">radial_functions_</text>
</g>
<!-- Node6&#45;&gt;Node2 -->
<g id="edge34" class="edge">
<title>Node6&#45;&gt;Node2</title>
<path fill="none" stroke="#9a32cd" stroke-dasharray="5,2" d="M431.8309,-659.0554C443.63,-654.6296 456.8861,-649.6619 469,-645.133 517.8707,-626.862 529.9537,-621.9271 579,-604.133 669.3835,-571.3416 718.4062,-603.3516 783,-532.133 812.6018,-499.4952 832.0832,-357.0168 836.8569,-318.668"/>
<polygon fill="#9a32cd" stroke="#9a32cd" points="430.4526,-655.8343 422.3194,-662.6241 432.9116,-662.3881 430.4526,-655.8343"/>
<text text-anchor="middle" x="632.5" y="-618.133" font-family="Helvetica,sans-Serif" font-size="10.00" fill="#000000"> rf_coef_</text>
<text text-anchor="middle" x="632.5" y="-607.133" font-family="Helvetica,sans-Serif" font-size="10.00" fill="#000000">vrf_coef_</text>
</g>
<!-- Node6&#45;&gt;Node3 -->
<g id="edge5" class="edge">
<title>Node6&#45;&gt;Node3</title>
<path fill="none" stroke="#9a32cd" stroke-dasharray="5,2" d="M452.0268,-660.7741C457.7439,-659.7916 463.48,-658.8866 469,-658.133 505.5361,-653.1445 546.9466,-649.8764 578.9506,-647.8646"/>
<polygon fill="#9a32cd" stroke="#9a32cd" points="451.0305,-657.397 441.8071,-662.6105 452.2685,-664.2867 451.0305,-657.397"/>
<text text-anchor="middle" x="515" y="-661.133" font-family="Helvetica,sans-Serif" font-size="10.00" fill="#000000"> q_radial_functions_l</text>
</g>
<!-- Node7 -->
<g id="node7" class="node">
<title>Node7</title>
<g id="a_node7"><a xlink:href="../../d7/dab/classsddk_1_1mdarray.html" target="_top" xlink:title="sddk::mdarray\&lt; int, 2 \&gt;">
<polygon fill="#ffffff" stroke="#000000" points="350.5,-92.633 350.5,-111.633 443.5,-111.633 443.5,-92.633 350.5,-92.633"/>
<text text-anchor="middle" x="397" y="-99.633" font-family="Helvetica,sans-Serif" font-size="10.00" fill="#000000">sddk::mdarray&lt; int, 2 &gt;</text>
</a>
</g>
</g>
<!-- Node7&#45;&gt;Node2 -->
<g id="edge7" class="edge">
<title>Node7&#45;&gt;Node2</title>
<path fill="none" stroke="#9a32cd" stroke-dasharray="5,2" d="M453.9592,-109.6336C559.7872,-123.6727 776.6527,-152.9709 783,-158.133 806.0524,-176.8809 828.8194,-268.9648 835.8172,-299.3703"/>
<polygon fill="#9a32cd" stroke="#9a32cd" points="454.1415,-106.1272 443.7684,-108.2833 453.222,-113.0665 454.1415,-106.1272"/>
<text text-anchor="middle" x="632.5" y="-145.133" font-family="Helvetica,sans-Serif" font-size="10.00" fill="#000000"> idx_radial_integrals_</text>
</g>
<!-- Node17 -->
<g id="node17" class="node">
<title>Node17</title>
<g id="a_node17"><a xlink:href="../../d1/df3/classsirius_1_1radial__functions__index.html" target="_top" xlink:title="A helper class to establish various index mappings for the atomic radial functions. ">
<polygon fill="#ffffff" stroke="#000000" points="587,-66.133 587,-96.133 678,-96.133 678,-66.133 587,-66.133"/>
<text text-anchor="start" x="595" y="-84.133" font-family="Helvetica,sans-Serif" font-size="10.00" fill="#000000">sirius::radial_functions</text>
<text text-anchor="middle" x="632.5" y="-73.133" font-family="Helvetica,sans-Serif" font-size="10.00" fill="#000000">_index</text>
</a>
</g>
</g>
<!-- Node7&#45;&gt;Node17 -->
<g id="edge22" class="edge">
<title>Node7&#45;&gt;Node17</title>
<path fill="none" stroke="#9a32cd" stroke-dasharray="5,2" d="M453.5954,-97.0863C494.4191,-93.4459 548.8172,-88.5951 586.8708,-85.2018"/>
<polygon fill="#9a32cd" stroke="#9a32cd" points="453.1768,-93.6096 443.5272,-97.9841 453.7986,-100.5819 453.1768,-93.6096"/>
<text text-anchor="middle" x="515" y="-99.133" font-family="Helvetica,sans-Serif" font-size="10.00" fill="#000000"> index_by_l_order_</text>
</g>
<!-- Node28 -->
<g id="node28" class="node">
<title>Node28</title>
<g id="a_node28"><a xlink:href="../../d3/dfd/classsirius_1_1basis__functions__index.html" target="_top" xlink:title="sirius::basis_functions\l_index">
<polygon fill="#ffffff" stroke="#000000" points="587.5,-17.133 587.5,-47.133 677.5,-47.133 677.5,-17.133 587.5,-17.133"/>
<text text-anchor="start" x="595.5" y="-35.133" font-family="Helvetica,sans-Serif" font-size="10.00" fill="#000000">sirius::basis_functions</text>
<text text-anchor="middle" x="632.5" y="-24.133" font-family="Helvetica,sans-Serif" font-size="10.00" fill="#000000">_index</text>
</a>
</g>
</g>
<!-- Node7&#45;&gt;Node28 -->
<g id="edge36" class="edge">
<title>Node7&#45;&gt;Node28</title>
<path fill="none" stroke="#9a32cd" stroke-dasharray="5,2" d="M427.9878,-88.4802C440.563,-83.249 455.3241,-77.4958 469,-73.133 509.053,-60.3554 520.2366,-61.4213 561,-51.133 569.4684,-48.9956 578.4827,-46.6532 587.1555,-44.3654"/>
<polygon fill="#9a32cd" stroke="#9a32cd" points="426.2768,-85.4038 418.4338,-92.5269 429.007,-91.8494 426.2768,-85.4038"/>
<text text-anchor="middle" x="515" y="-76.133" font-family="Helvetica,sans-Serif" font-size="10.00" fill="#000000"> index_by_lm_order_</text>
</g>
<!-- Node8 -->
<g id="node8" class="node">
<title>Node8</title>
<g id="a_node8"><a xlink:href="../../d0/d58/classsddk_1_1mdarray__base.html" target="_top" xlink:title="sddk::mdarray_base\l\&lt; int, N \&gt;">
<polygon fill="#ffffff" stroke="#000000" points="160,-48.133 160,-78.133 244,-78.133 244,-48.133 160,-48.133"/>
<text text-anchor="start" x="168" y="-66.133" font-family="Helvetica,sans-Serif" font-size="10.00" fill="#000000">sddk::mdarray_base</text>
<text text-anchor="middle" x="202" y="-55.133" font-family="Helvetica,sans-Serif" font-size="10.00" fill="#000000">&lt; int, N &gt;</text>
</a>
</g>
</g>
<!-- Node8&#45;&gt;Node7 -->
<g id="edge8" class="edge">
<title>Node8&#45;&gt;Node7</title>
<path fill="none" stroke="#191970" d="M254.1606,-73.5651C284.0969,-79.5524 321.3695,-87.0069 350.3333,-92.7996"/>
<polygon fill="#191970" stroke="#191970" points="254.8043,-70.1246 244.3121,-71.5954 253.4315,-76.9887 254.8043,-70.1246"/>
</g>
<!-- Node18 -->
<g id="node18" class="node">
<title>Node18</title>
<g id="a_node18"><a xlink:href="../../d7/dab/classsddk_1_1mdarray.html" target="_top" xlink:title="sddk::mdarray\&lt; int, 1 \&gt;">
<polygon fill="#ffffff" stroke="#000000" points="350.5,-29.633 350.5,-48.633 443.5,-48.633 443.5,-29.633 350.5,-29.633"/>
<text text-anchor="middle" x="397" y="-36.633" font-family="Helvetica,sans-Serif" font-size="10.00" fill="#000000">sddk::mdarray&lt; int, 1 &gt;</text>
</a>
</g>
</g>
<!-- Node8&#45;&gt;Node18 -->
<g id="edge24" class="edge">
<title>Node8&#45;&gt;Node18</title>
<path fill="none" stroke="#191970" d="M254.5515,-56.6651C284.4209,-52.9889 321.4954,-48.4259 350.3333,-44.8766"/>
<polygon fill="#191970" stroke="#191970" points="253.8096,-53.2299 244.3121,-57.9253 254.6648,-60.1775 253.8096,-53.2299"/>
</g>
<!-- Node9 -->
<g id="node9" class="node">
<title>Node9</title>
<g id="a_node9"><a xlink:href="../../d5/d6b/classsirius_1_1_spline.html" target="_top" xlink:title="sirius::Spline\&lt; double \&gt;">
<polygon fill="#ffffff" stroke="#000000" points="155,-211.633 155,-230.633 249,-230.633 249,-211.633 155,-211.633"/>
<text text-anchor="middle" x="202" y="-218.633" font-family="Helvetica,sans-Serif" font-size="10.00" fill="#000000">sirius::Spline&lt; double &gt;</text>
</a>
</g>
</g>
<!-- Node9&#45;&gt;Node2 -->
<g id="edge9" class="edge">
<title>Node9&#45;&gt;Node2</title>
<path fill="none" stroke="#9a32cd" stroke-dasharray="5,2" d="M246.4693,-209.1707C274.0342,-202.3822 310.303,-194.5729 343,-191.133 494.6077,-175.183 535.4864,-166.9471 686,-191.133 730.8215,-198.3353 747.1437,-195.2913 783,-223.133 809.8768,-244.0023 827.3759,-281.9426 834.4456,-299.6085"/>
<polygon fill="#9a32cd" stroke="#9a32cd" points="245.5771,-205.786 236.7303,-211.6156 247.2816,-212.5753 245.5771,-205.786"/>
<text text-anchor="middle" x="515" y="-182.133" font-family="Helvetica,sans-Serif" font-size="10.00" fill="#000000"> free_atom_density_spline_</text>
</g>
<!-- Node12 -->
<g id="node12" class="node">
<title>Node12</title>
<g id="a_node12"><a xlink:href="../../d0/d58/classsddk_1_1mdarray__base.html" target="_top" xlink:title="sddk::mdarray_base\l\&lt; sirius::Spline\&lt; double\l \&gt;, N \&gt;">
<polygon fill="#ffffff" stroke="#000000" points="350,-200.633 350,-241.633 444,-241.633 444,-200.633 350,-200.633"/>
<text text-anchor="start" x="358" y="-229.633" font-family="Helvetica,sans-Serif" font-size="10.00" fill="#000000">sddk::mdarray_base</text>
<text text-anchor="start" x="358" y="-218.633" font-family="Helvetica,sans-Serif" font-size="10.00" fill="#000000">&lt; sirius::Spline&lt; double</text>
<text text-anchor="middle" x="397" y="-207.633" font-family="Helvetica,sans-Serif" font-size="10.00" fill="#000000"> &gt;, N &gt;</text>
</a>
</g>
</g>
<!-- Node9&#45;&gt;Node12 -->
<g id="edge13" class="edge">
<title>Node9&#45;&gt;Node12</title>
<path fill="none" stroke="#9a32cd" stroke-dasharray="5,2" d="M259.5288,-221.133C288.3075,-221.133 322.7051,-221.133 349.8931,-221.133"/>
<polygon fill="#9a32cd" stroke="#9a32cd" points="259.2041,-217.6331 249.2041,-221.133 259.204,-224.6331 259.2041,-217.6331"/>
<text text-anchor="middle" x="296" y="-235.133" font-family="Helvetica,sans-Serif" font-size="10.00" fill="#000000"> raw_ptr_device_</text>
<text text-anchor="middle" x="296" y="-224.133" font-family="Helvetica,sans-Serif" font-size="10.00" fill="#000000">raw_ptr_</text>
</g>
<!-- Node10 -->
<g id="node10" class="node">
<title>Node10</title>
<g id="a_node10"><a xlink:href="../../d9/dbf/classsirius_1_1_radial__grid.html" target="_top" xlink:title="sirius::Radial_grid\l\&lt; double \&gt;">
<polygon fill="#ffffff" stroke="#000000" points=".5,-243.133 .5,-273.133 76.5,-273.133 76.5,-243.133 .5,-243.133"/>
<text text-anchor="start" x="8.5" y="-261.133" font-family="Helvetica,sans-Serif" font-size="10.00" fill="#000000">sirius::Radial_grid</text>
<text text-anchor="middle" x="38.5" y="-250.133" font-family="Helvetica,sans-Serif" font-size="10.00" fill="#000000">&lt; double &gt;</text>
</a>
</g>
</g>
<!-- Node10&#45;&gt;Node2 -->
<g id="edge20" class="edge">
<title>Node10&#45;&gt;Node2</title>
<path fill="none" stroke="#9a32cd" stroke-dasharray="5,2" d="M86.5348,-261.1971C232.6792,-270.5196 669.9255,-298.4115 800.6719,-306.7518"/>
<polygon fill="#9a32cd" stroke="#9a32cd" points="86.7263,-257.7023 76.5237,-260.5585 86.2806,-264.6881 86.7263,-257.7023"/>
<text text-anchor="start" x="359" y="-309.133" font-family="Helvetica,sans-Serif" font-size="10.00" fill="#000000"> free_atom_radial_grid</text>
<text text-anchor="middle" x="397" y="-298.133" font-family="Helvetica,sans-Serif" font-size="10.00" fill="#000000">_</text>
<text text-anchor="middle" x="397" y="-287.133" font-family="Helvetica,sans-Serif" font-size="10.00" fill="#000000">radial_grid_</text>
</g>
<!-- Node10&#45;&gt;Node9 -->
<g id="edge10" class="edge">
<title>Node10&#45;&gt;Node9</title>
<path fill="none" stroke="#9a32cd" stroke-dasharray="5,2" d="M86.8167,-247.1989C110.0161,-241.9489 137.5555,-235.7168 159.888,-230.6629"/>
<polygon fill="#9a32cd" stroke="#9a32cd" points="85.8143,-243.8372 76.8335,-249.4581 87.3594,-250.6645 85.8143,-243.8372"/>
<text text-anchor="middle" x="116" y="-248.133" font-family="Helvetica,sans-Serif" font-size="10.00" fill="#000000"> radial_grid_</text>
</g>
<!-- Node11 -->
<g id="node11" class="node">
<title>Node11</title>
<g id="a_node11"><a xlink:href="../../d7/dab/classsddk_1_1mdarray.html" target="_top" xlink:title="sddk::mdarray\&lt; sirius\l::Spline\&lt; double \&gt;, 2 \&gt;">
<polygon fill="#ffffff" stroke="#000000" points="586.5,-250.133 586.5,-280.133 678.5,-280.133 678.5,-250.133 586.5,-250.133"/>
<text text-anchor="start" x="594.5" y="-268.133" font-family="Helvetica,sans-Serif" font-size="10.00" fill="#000000">sddk::mdarray&lt; sirius</text>
<text text-anchor="middle" x="632.5" y="-257.133" font-family="Helvetica,sans-Serif" font-size="10.00" fill="#000000">::Spline&lt; double &gt;, 2 &gt;</text>
</a>
</g>
</g>
<!-- Node11&#45;&gt;Node2 -->
<g id="edge11" class="edge">
<title>Node11&#45;&gt;Node2</title>
<path fill="none" stroke="#9a32cd" stroke-dasharray="5,2" d="M688.884,-268.213C717.4881,-270.786 752.5345,-275.5009 783,-284.133 796.1189,-287.8501 810.097,-294.2389 820.6786,-299.6273"/>
<polygon fill="#9a32cd" stroke="#9a32cd" points="688.9142,-264.7034 678.6575,-267.3586 688.3314,-271.6791 688.9142,-264.7034"/>
<text text-anchor="middle" x="743.5" y="-287.133" font-family="Helvetica,sans-Serif" font-size="10.00" fill="#000000"> q_rf_</text>
</g>
<!-- Node12&#45;&gt;Node11 -->
<g id="edge12" class="edge">
<title>Node12&#45;&gt;Node11</title>
<path fill="none" stroke="#191970" d="M454.1005,-231.8014C494.6602,-239.3795 548.4257,-249.4248 586.2932,-256.4999"/>
<polygon fill="#191970" stroke="#191970" points="454.5637,-228.3275 444.0909,-229.9313 453.278,-235.2084 454.5637,-228.3275"/>
</g>
<!-- Node15 -->
<g id="node15" class="node">
<title>Node15</title>
<g id="a_node15"><a xlink:href="../../d7/dab/classsddk_1_1mdarray.html" target="_top" xlink:title="sddk::mdarray\&lt; sirius\l::Spline\&lt; double \&gt;, 1 \&gt;">
<polygon fill="#ffffff" stroke="#000000" points="586.5,-201.133 586.5,-231.133 678.5,-231.133 678.5,-201.133 586.5,-201.133"/>
<text text-anchor="start" x="594.5" y="-219.133" font-family="Helvetica,sans-Serif" font-size="10.00" fill="#000000">sddk::mdarray&lt; sirius</text>
<text text-anchor="middle" x="632.5" y="-208.133" font-family="Helvetica,sans-Serif" font-size="10.00" fill="#000000">::Spline&lt; double &gt;, 1 &gt;</text>
</a>
</g>
</g>
<!-- Node12&#45;&gt;Node15 -->
<g id="edge17" class="edge">
<title>Node12&#45;&gt;Node15</title>
<path fill="none" stroke="#191970" d="M454.1005,-219.9207C494.6602,-219.0595 548.4257,-217.918 586.2932,-217.114"/>
<polygon fill="#191970" stroke="#191970" points="454.0144,-216.4216 444.0909,-220.1332 454.163,-223.42 454.0144,-216.4216"/>
</g>
<!-- Node13 -->
<g id="node13" class="node">
<title>Node13</title>
<g id="a_node13"><a xlink:href="../../d7/dab/classsddk_1_1mdarray.html" target="_top" xlink:title="sddk::mdarray\&lt; double\l_complex \&gt;">
<polygon fill="#ffffff" stroke="#000000" points="586,-525.133 586,-555.133 679,-555.133 679,-525.133 586,-525.133"/>
<text text-anchor="start" x="594" y="-543.133" font-family="Helvetica,sans-Serif" font-size="10.00" fill="#000000">sddk::mdarray&lt; double</text>
<text text-anchor="middle" x="632.5" y="-532.133" font-family="Helvetica,sans-Serif" font-size="10.00" fill="#000000">_complex &gt;</text>
</a>
</g>
</g>
<!-- Node13&#45;&gt;Node2 -->
<g id="edge14" class="edge">
<title>Node13&#45;&gt;Node2</title>
<path fill="none" stroke="#9a32cd" stroke-dasharray="5,2" d="M688.6862,-523.8225C720.2268,-512.0852 758.1235,-493.2845 783,-465.133 822.553,-420.3729 834.141,-345.3636 837.0959,-318.8087"/>
<polygon fill="#9a32cd" stroke="#9a32cd" points="687.3616,-520.579 679.1233,-527.2409 689.7179,-527.1706 687.3616,-520.579"/>
<text text-anchor="middle" x="743.5" y="-520.133" font-family="Helvetica,sans-Serif" font-size="10.00" fill="#000000"> p_mtrx_</text>
</g>
<!-- Node14 -->
<g id="node14" class="node">
<title>Node14</title>
<g id="a_node14"><a xlink:href="../../d0/d58/classsddk_1_1mdarray__base.html" target="_top" xlink:title="sddk::mdarray_base\l\&lt; double_complex, N \&gt;">
<polygon fill="#ffffff" stroke="#000000" points="350,-582.133 350,-612.133 444,-612.133 444,-582.133 350,-582.133"/>
<text text-anchor="start" x="358" y="-600.133" font-family="Helvetica,sans-Serif" font-size="10.00" fill="#000000">sddk::mdarray_base</text>
<text text-anchor="middle" x="397" y="-589.133" font-family="Helvetica,sans-Serif" font-size="10.00" fill="#000000">&lt; double_complex, N &gt;</text>
</a>
</g>
</g>
<!-- Node14&#45;&gt;Node13 -->
<g id="edge15" class="edge">
<title>Node14&#45;&gt;Node13</title>
<path fill="none" stroke="#191970" d="M454.1124,-584.995C485.7119,-578.0919 525.6326,-569.063 561,-560.133 568.9984,-558.1135 577.4663,-555.8537 585.6691,-553.6"/>
<polygon fill="#191970" stroke="#191970" points="453.1895,-581.6138 444.1615,-587.1588 454.6769,-588.454 453.1895,-581.6138"/>
</g>
<!-- Node16 -->
<g id="node16" class="node">
<title>Node16</title>
<g id="a_node16"><a xlink:href="../../d7/dab/classsddk_1_1mdarray.html" target="_top" xlink:title="sddk::mdarray\&lt; double\l_complex, 4 \&gt;">
<polygon fill="#ffffff" stroke="#000000" points="586,-469.133 586,-499.133 679,-499.133 679,-469.133 586,-469.133"/>
<text text-anchor="start" x="594" y="-487.133" font-family="Helvetica,sans-Serif" font-size="10.00" fill="#000000">sddk::mdarray&lt; double</text>
<text text-anchor="middle" x="632.5" y="-476.133" font-family="Helvetica,sans-Serif" font-size="10.00" fill="#000000">_complex, 4 &gt;</text>
</a>
</g>
</g>
<!-- Node14&#45;&gt;Node16 -->
<g id="edge19" class="edge">
<title>Node14&#45;&gt;Node16</title>
<path fill="none" stroke="#191970" d="M439.1942,-577.7472C443.1921,-575.8657 447.1776,-573.9729 451,-572.133 459.0592,-568.2537 460.6923,-566.4468 469,-563.133 508.699,-547.2977 524.6506,-557.616 561,-535.133 570.8928,-529.014 569.924,-523.4086 579,-516.133 586.6845,-509.9729 595.666,-504.1487 604.0514,-499.2001"/>
<polygon fill="#191970" stroke="#191970" points="437.4902,-574.6802 429.914,-582.0865 440.4552,-581.0213 437.4902,-574.6802"/>
</g>
<!-- Node15&#45;&gt;Node2 -->
<g id="edge16" class="edge">
<title>Node15&#45;&gt;Node2</title>
<path fill="none" stroke="#9a32cd" stroke-dasharray="5,2" d="M688.7609,-223.537C718.2344,-229.1427 754.1054,-238.7844 783,-255.133 803.2651,-266.5989 821.391,-287.425 830.9236,-299.5903"/>
<polygon fill="#9a32cd" stroke="#9a32cd" points="689.0855,-220.0394 678.6245,-221.7181 687.8491,-226.9294 689.0855,-220.0394"/>
<text text-anchor="middle" x="743.5" y="-258.133" font-family="Helvetica,sans-Serif" font-size="10.00" fill="#000000"> beta_rf_</text>
</g>
<!-- Node16&#45;&gt;Node2 -->
<g id="edge18" class="edge">
<title>Node16&#45;&gt;Node2</title>
<path fill="none" stroke="#9a32cd" stroke-dasharray="5,2" d="M678.3692,-464.8684C710.3526,-449.812 752.5774,-426.5249 783,-397.133 807.7479,-373.2235 826.1834,-336.0057 833.9497,-318.6475"/>
<polygon fill="#9a32cd" stroke="#9a32cd" points="676.8362,-461.7211 669.2184,-469.0845 679.7654,-468.0787 676.8362,-461.7211"/>
<text text-anchor="middle" x="743.5" y="-453.133" font-family="Helvetica,sans-Serif" font-size="10.00" fill="#000000"> f_coefficients_</text>
</g>
<!-- Node17&#45;&gt;Node2 -->
<g id="edge21" class="edge">
<title>Node17&#45;&gt;Node2</title>
<path fill="none" stroke="#9a32cd" stroke-dasharray="5,2" d="M688.5915,-77.427C720.0166,-78.4065 757.8286,-85.1212 783,-108.133 812.2386,-134.8631 831.7023,-262.9568 836.7177,-299.4256"/>
<polygon fill="#9a32cd" stroke="#9a32cd" points="688.2489,-73.9226 678.2066,-77.2994 688.1629,-80.9221 688.2489,-73.9226"/>
<text text-anchor="middle" x="743.5" y="-111.133" font-family="Helvetica,sans-Serif" font-size="10.00" fill="#000000"> indexr_</text>
</g>
<!-- Node18&#45;&gt;Node17 -->
<g id="edge23" class="edge">
<title>Node18&#45;&gt;Node17</title>
<path fill="none" stroke="#9a32cd" stroke-dasharray="5,2" d="M453.7228,-29.8188C486.1775,-26.8286 527.0582,-27.1098 561,-40.133 570.9933,-43.9673 570.0579,-50.2502 579,-56.133 584.4816,-59.7392 590.5661,-63.1048 596.6096,-66.1247"/>
<polygon fill="#9a32cd" stroke="#9a32cd" points="453.0807,-26.3669 443.5011,-30.8926 453.8121,-33.3286 453.0807,-26.3669"/>
<text text-anchor="middle" x="515" y="-43.133" font-family="Helvetica,sans-Serif" font-size="10.00" fill="#000000"> index_by_idxlo_</text>
</g>
<!-- Node18&#45;&gt;Node28 -->
<g id="edge37" class="edge">
<title>Node18&#45;&gt;Node28</title>
<path fill="none" stroke="#9a32cd" stroke-dasharray="5,2" d="M421.6897,-24.6072C435.1764,-17.5131 452.4602,-9.7428 469,-6.133 508.9485,2.5858 520.7313,.9614 561,-6.133 573.6179,-8.3559 586.939,-12.6271 598.6189,-17.0752"/>
<polygon fill="#9a32cd" stroke="#9a32cd" points="419.6937,-21.7098 412.6052,-29.5841 423.057,-27.8488 419.6937,-21.7098"/>
<text text-anchor="middle" x="515" y="-9.133" font-family="Helvetica,sans-Serif" font-size="10.00" fill="#000000"> index_by_idxrf_</text>
</g>
<!-- Node19 -->
<g id="node19" class="node">
<title>Node19</title>
<g id="a_node19"><a xlink:href="../../d0/d04/classsirius_1_1_simulation__parameters.html" target="_top" xlink:title="Set of basic parameters of a simulation. ">
<polygon fill="#ffffff" stroke="#000000" points="596,-406.133 596,-436.133 669,-436.133 669,-406.133 596,-406.133"/>
<text text-anchor="start" x="604" y="-424.133" font-family="Helvetica,sans-Serif" font-size="10.00" fill="#000000">sirius::Simulation</text>
<text text-anchor="middle" x="632.5" y="-413.133" font-family="Helvetica,sans-Serif" font-size="10.00" fill="#000000">_parameters</text>
</a>
</g>
</g>
<!-- Node19&#45;&gt;Node2 -->
<g id="edge25" class="edge">
<title>Node19&#45;&gt;Node2</title>
<path fill="none" stroke="#9a32cd" stroke-dasharray="5,2" d="M669.2544,-401.1014C713.7704,-376.8396 786.9372,-336.9628 820.357,-318.7486"/>
<polygon fill="#9a32cd" stroke="#9a32cd" points="667.3203,-398.1694 660.2146,-406.0282 670.6702,-404.3158 667.3203,-398.1694"/>
<text text-anchor="middle" x="743.5" y="-385.133" font-family="Helvetica,sans-Serif" font-size="10.00" fill="#000000"> parameters_</text>
</g>
<!-- Node20 -->
<g id="node20" class="node">
<title>Node20</title>
<g id="a_node20"><a xlink:href="../../d4/d6e/structsirius_1_1_parameters__input.html" target="_top" xlink:title="sirius::Parameters\l_input">
<polygon fill="#ffffff" stroke="#000000" points="358.5,-406.133 358.5,-436.133 435.5,-436.133 435.5,-406.133 358.5,-406.133"/>
<text text-anchor="start" x="366.5" y="-424.133" font-family="Helvetica,sans-Serif" font-size="10.00" fill="#000000">sirius::Parameters</text>
<text text-anchor="middle" x="397" y="-413.133" font-family="Helvetica,sans-Serif" font-size="10.00" fill="#000000">_input</text>
</a>
</g>
</g>
<!-- Node20&#45;&gt;Node19 -->
<g id="edge26" class="edge">
<title>Node20&#45;&gt;Node19</title>
<path fill="none" stroke="#9a32cd" stroke-dasharray="5,2" d="M445.6585,-421.133C490.2847,-421.133 555.3978,-421.133 595.794,-421.133"/>
<polygon fill="#9a32cd" stroke="#9a32cd" points="445.6244,-417.6331 435.6243,-421.133 445.6243,-424.6331 445.6244,-417.6331"/>
<text text-anchor="middle" x="515" y="-424.133" font-family="Helvetica,sans-Serif" font-size="10.00" fill="#000000"> parameters_input_</text>
</g>
<!-- Node21 -->
<g id="node21" class="node">
<title>Node21</title>
<g id="a_node21"><a xlink:href="../../da/de3/structsirius_1_1_control__input.html" target="_top" xlink:title="Parse control input section. ">
<polygon fill="#ffffff" stroke="#000000" points="355.5,-367.633 355.5,-386.633 438.5,-386.633 438.5,-367.633 355.5,-367.633"/>
<text text-anchor="middle" x="397" y="-374.633" font-family="Helvetica,sans-Serif" font-size="10.00" fill="#000000">sirius::Control_input</text>
</a>
</g>
</g>
<!-- Node21&#45;&gt;Node19 -->
<g id="edge27" class="edge">
<title>Node21&#45;&gt;Node19</title>
<path fill="none" stroke="#9a32cd" stroke-dasharray="5,2" d="M448.6399,-385.8318C480.9711,-391.3852 523.4721,-398.8804 561,-406.133 572.3322,-408.323 584.6425,-410.8515 595.8037,-413.201"/>
<polygon fill="#9a32cd" stroke="#9a32cd" points="448.9664,-382.3369 438.5193,-384.0998 447.7855,-389.2366 448.9664,-382.3369"/>
<text text-anchor="middle" x="515" y="-409.133" font-family="Helvetica,sans-Serif" font-size="10.00" fill="#000000"> control_input_</text>
</g>
<!-- Node22 -->
<g id="node22" class="node">
<title>Node22</title>
<g id="a_node22"><a xlink:href="../../d6/de3/structsirius_1_1_settings__input.html" target="_top" xlink:title="Settings control the internal parameters related to the numerical implementation. ...">
<polygon fill="#ffffff" stroke="#000000" points="354,-329.633 354,-348.633 440,-348.633 440,-329.633 354,-329.633"/>
<text text-anchor="middle" x="397" y="-336.633" font-family="Helvetica,sans-Serif" font-size="10.00" fill="#000000">sirius::Settings_input</text>
</a>
</g>
</g>
<!-- Node22&#45;&gt;Node19 -->
<g id="edge28" class="edge">
<title>Node22&#45;&gt;Node19</title>
<path fill="none" stroke="#9a32cd" stroke-dasharray="5,2" d="M450.3407,-345.9269C483.1421,-351.2916 525.5377,-360.3946 561,-375.133 579.9457,-383.0069 599.3968,-395.8918 613.219,-406.0246"/>
<polygon fill="#9a32cd" stroke="#9a32cd" points="450.4703,-342.4046 440.049,-344.3141 449.3865,-349.3202 450.4703,-342.4046"/>
<text text-anchor="middle" x="515" y="-378.133" font-family="Helvetica,sans-Serif" font-size="10.00" fill="#000000"> settings_input_</text>
</g>
<!-- Node23 -->
<g id="node23" class="node">
<title>Node23</title>
<g id="a_node23"><a xlink:href="../../d7/d51/structsirius_1_1_unit__cell__input.html" target="_top" xlink:title="Parse unit cell input section. ">
<polygon fill="#ffffff" stroke="#000000" points="353.5,-543.633 353.5,-562.633 440.5,-562.633 440.5,-543.633 353.5,-543.633"/>
<text text-anchor="middle" x="397" y="-550.633" font-family="Helvetica,sans-Serif" font-size="10.00" fill="#000000">sirius::Unit_cell_input</text>
</a>
</g>
</g>
<!-- Node23&#45;&gt;Node19 -->
<g id="edge29" class="edge">
<title>Node23&#45;&gt;Node19</title>
<path fill="none" stroke="#9a32cd" stroke-dasharray="5,2" d="M438.0675,-539.9052C442.4989,-538.1184 446.8878,-536.1866 451,-534.133 459.6018,-529.8373 460.1676,-525.9321 469,-522.133 507.5277,-505.561 528.6738,-527.8543 561,-501.133 576.3389,-488.4536 566.5284,-475.6413 579,-460.133 586.4913,-450.8176 596.7255,-442.6345 606.2377,-436.201"/>
<polygon fill="#9a32cd" stroke="#9a32cd" points="436.4979,-536.7572 428.3895,-543.5767 438.9808,-543.3021 436.4979,-536.7572"/>
<text text-anchor="middle" x="515" y="-525.133" font-family="Helvetica,sans-Serif" font-size="10.00" fill="#000000"> unit_cell_input_</text>
</g>
<!-- Node24 -->
<g id="node24" class="node">
<title>Node24</title>
<g id="a_node24"><a xlink:href="../../d2/d6b/classgeometry3d_1_1vector3d.html" target="_top" xlink:title="geometry3d::vector3d\l\&lt; double \&gt;">
<polygon fill="#ffffff" stroke="#000000" points="157.5,-538.133 157.5,-568.133 246.5,-568.133 246.5,-538.133 157.5,-538.133"/>
<text text-anchor="start" x="165.5" y="-556.133" font-family="Helvetica,sans-Serif" font-size="10.00" fill="#000000">geometry3d::vector3d</text>
<text text-anchor="middle" x="202" y="-545.133" font-family="Helvetica,sans-Serif" font-size="10.00" fill="#000000">&lt; double &gt;</text>
</a>
</g>
</g>
<!-- Node24&#45;&gt;Node23 -->
<g id="edge30" class="edge">
<title>Node24&#45;&gt;Node23</title>
<path fill="none" stroke="#9a32cd" stroke-dasharray="5,2" d="M256.8147,-553.133C287.3878,-553.133 324.938,-553.133 353.4781,-553.133"/>
<polygon fill="#9a32cd" stroke="#9a32cd" points="256.737,-549.6331 246.7369,-553.133 256.7369,-556.6331 256.737,-549.6331"/>
<text text-anchor="middle" x="296" y="-578.133" font-family="Helvetica,sans-Serif" font-size="10.00" fill="#000000"> a2_</text>
<text text-anchor="middle" x="296" y="-567.133" font-family="Helvetica,sans-Serif" font-size="10.00" fill="#000000">a1_</text>
<text text-anchor="middle" x="296" y="-556.133" font-family="Helvetica,sans-Serif" font-size="10.00" fill="#000000">a0_</text>
</g>
<!-- Node25 -->
<g id="node25" class="node">
<title>Node25</title>
<polygon fill="#ffffff" stroke="#bfbfbf" points="0,-538.133 0,-568.133 77,-568.133 77,-538.133 0,-538.133"/>
<text text-anchor="start" x="8" y="-556.133" font-family="Helvetica,sans-Serif" font-size="10.00" fill="#000000">std::array&lt; double</text>
<text text-anchor="middle" x="38.5" y="-545.133" font-family="Helvetica,sans-Serif" font-size="10.00" fill="#000000"> , 3 &gt;</text>
</g>
<!-- Node25&#45;&gt;Node24 -->
<g id="edge31" class="edge">
<title>Node25&#45;&gt;Node24</title>
<path fill="none" stroke="#191970" d="M87.4811,-553.133C109.7035,-553.133 135.7972,-553.133 157.4596,-553.133"/>
<polygon fill="#191970" stroke="#191970" points="87.2473,-549.6331 77.2472,-553.133 87.2472,-556.6331 87.2473,-549.6331"/>
</g>
<!-- Node26 -->
<g id="node26" class="node">
<title>Node26</title>
<g id="a_node26"><a xlink:href="../../d2/d11/structsirius_1_1_iterative__solver__input.html" target="_top" xlink:title="sirius::Iterative_solver\l_input">
<polygon fill="#ffffff" stroke="#000000" points="352.5,-494.133 352.5,-524.133 441.5,-524.133 441.5,-494.133 352.5,-494.133"/>
<text text-anchor="start" x="360.5" y="-512.133" font-family="Helvetica,sans-Serif" font-size="10.00" fill="#000000">sirius::Iterative_solver</text>
<text text-anchor="middle" x="397" y="-501.133" font-family="Helvetica,sans-Serif" font-size="10.00" fill="#000000">_input</text>
</a>
</g>
</g>
<!-- Node26&#45;&gt;Node19 -->
<g id="edge32" class="edge">
<title>Node26&#45;&gt;Node19</title>
<path fill="none" stroke="#9a32cd" stroke-dasharray="5,2" d="M451.3954,-494.7359C498.1079,-482.342 558.362,-466.2698 561,-465.133 578.9364,-457.4036 597.6857,-445.7105 611.4825,-436.3209"/>
<polygon fill="#9a32cd" stroke="#9a32cd" points="450.4272,-491.3715 441.6586,-497.3181 452.2217,-498.1377 450.4272,-491.3715"/>
<text text-anchor="middle" x="515" y="-491.133" font-family="Helvetica,sans-Serif" font-size="10.00" fill="#000000"> iterative_solver_input_</text>
</g>
<!-- Node27 -->
<g id="node27" class="node">
<title>Node27</title>
<g id="a_node27"><a xlink:href="../../d4/db0/structsirius_1_1_mixer__input.html" target="_top" xlink:title="Parse mixer input section. ">
<polygon fill="#ffffff" stroke="#000000" points="358.5,-455.633 358.5,-474.633 435.5,-474.633 435.5,-455.633 358.5,-455.633"/>
<text text-anchor="middle" x="397" y="-462.633" font-family="Helvetica,sans-Serif" font-size="10.00" fill="#000000">sirius::Mixer_input</text>
</a>
</g>
</g>
<!-- Node27&#45;&gt;Node19 -->
<g id="edge33" class="edge">
<title>Node27&#45;&gt;Node19</title>
<path fill="none" stroke="#9a32cd" stroke-dasharray="5,2" d="M445.6585,-456.0418C490.2847,-447.704 555.3978,-435.5385 595.794,-427.991"/>
<polygon fill="#9a32cd" stroke="#9a32cd" points="444.8114,-452.6394 435.6243,-457.9165 446.0971,-459.5203 444.8114,-452.6394"/>
<text text-anchor="middle" x="515" y="-453.133" font-family="Helvetica,sans-Serif" font-size="10.00" fill="#000000"> mixer_input_</text>
</g>
<!-- Node28&#45;&gt;Node2 -->
<g id="edge35" class="edge">
<title>Node28&#45;&gt;Node2</title>
<path fill="none" stroke="#9a32cd" stroke-dasharray="5,2" d="M687.7549,-29.9977C719.6521,-31.7998 758.2323,-39.6442 783,-64.133 817.4866,-98.2312 833.5731,-258.1315 837.1927,-299.3964"/>
<polygon fill="#9a32cd" stroke="#9a32cd" points="687.786,-26.4964 677.6594,-29.6114 687.5183,-33.4913 687.786,-26.4964"/>
<text text-anchor="middle" x="743.5" y="-67.133" font-family="Helvetica,sans-Serif" font-size="10.00" fill="#000000"> indexb_</text>
</g>
</g>
</svg>
