<?xml version="1.0" encoding="UTF-8" standalone="no"?>
<!DOCTYPE svg PUBLIC "-//W3C//DTD SVG 1.1//EN"
 "http://www.w3.org/Graphics/SVG/1.1/DTD/svg11.dtd">
<!-- Generated by graphviz version 2.40.1 (20161225.0304)
 -->
<!-- Title: fft3d_grid.hpp Pages: 1 -->
<!--zoomable 1148 -->
<svg id="main" version="1.1" xmlns="http://www.w3.org/2000/svg" xmlns:xlink="http://www.w3.org/1999/xlink" xml:space="preserve" onload="init(evt)">
<style type="text/css"><![CDATA[
.edge:hover path { stroke: red; }
.edge:hover polygon { stroke: red; fill: red; }
]]></style>
<script type="text/javascript"><![CDATA[
var edges = document.getElementsByTagName('g');
if (edges && edges.length) {
  for (var i=0;i<edges.length;i++) {
    if (edges[i].id.substr(0,4)=='edge') {
      edges[i].setAttribute('class','edge');
    }
  }
}
]]></script>
        <defs>
                <circle id="rim" cx="0" cy="0" r="7"/>
                <circle id="rim2" cx="0" cy="0" r="3.5"/>
                <g id="zoomPlus">
                        <use xlink:href="#rim" fill="#404040">
                                <set attributeName="fill" to="#808080" begin="zoomplus.mouseover" end="zoomplus.mouseout"/>
                        </use>
                        <path d="M-4,0h8M0,-4v8" fill="none" stroke="white" stroke-width="1.5" pointer-events="none"/>
                </g>
                <g id="zoomMin">
                        <use xlink:href="#rim" fill="#404040">
                                <set attributeName="fill" to="#808080" begin="zoomminus.mouseover" end="zoomminus.mouseout"/>
                        </use>
                        <path d="M-4,0h8" fill="none" stroke="white" stroke-width="1.5" pointer-events="none"/>
                </g>
                <g id="dirArrow">
                        <path fill="none" stroke="white" stroke-width="1.5" d="M0,-3.0v7 M-2.5,-0.5L0,-3.0L2.5,-0.5"/>
                </g>
               <g id="resetDef">
                       <use xlink:href="#rim2" fill="#404040">
                               <set attributeName="fill" to="#808080" begin="reset.mouseover" end="reset.mouseout"/>
                       </use>
               </g>
        </defs>

<script type="text/javascript">
var viewWidth = 602;
var viewHeight = 1148;
var sectionId = 'dynsection-0';
</script>
<script xlink:href="../../svgpan.js"/>
<svg id="graph" class="graph">
<g id="viewport">
<title>fft3d_grid.hpp</title>
<polygon fill="#ffffff" stroke="transparent" points="-4,4 -4,-1144 598,-1144 598,4 -4,4"/>
<!-- Node1 -->
<g id="node1" class="node">
<title>Node1</title>
<polygon fill="#bfbfbf" stroke="#000000" points="360,-1120.5 360,-1139.5 438,-1139.5 438,-1120.5 360,-1120.5"/>
<text text-anchor="middle" x="399" y="-1127.5" font-family="Helvetica,sans-Serif" font-size="10.00" fill="#000000">fft3d_grid.hpp</text>
</g>
<!-- Node2 -->
<g id="node2" class="node">
<title>Node2</title>
<g id="a_node2"><a xlink:href="../../dd/d4a/fft3d_8hpp.html" target="_top" xlink:title="Contains declaration and partial implementation of sddk::FFT3D class. ">
<polygon fill="#ffffff" stroke="#000000" points="477.5,-1008.5 477.5,-1027.5 532.5,-1027.5 532.5,-1008.5 477.5,-1008.5"/>
<text text-anchor="middle" x="505" y="-1015.5" font-family="Helvetica,sans-Serif" font-size="10.00" fill="#000000">fft3d.hpp</text>
</a>
</g>
</g>
<!-- Node1&#45;&gt;Node2 -->
<g id="edge1" class="edge">
<title>Node1&#45;&gt;Node2</title>
<path fill="none" stroke="#191970" d="M414.9439,-1113.1536C437.509,-1089.3113 478.012,-1046.5156 495.9854,-1027.5249"/>
<polygon fill="#191970" stroke="#191970" points="412.3693,-1110.7821 408.0375,-1120.4509 417.4534,-1115.5938 412.3693,-1110.7821"/>
</g>
<!-- Node28 -->
<g id="node28" class="node">
<title>Node28</title>
<g id="a_node28"><a xlink:href="../../d6/dd8/gvec_8hpp.html" target="_top" xlink:title="Declaration and implementation of Gvec class. ">
<polygon fill="#ffffff" stroke="#000000" points="342.5,-1064.5 342.5,-1083.5 399.5,-1083.5 399.5,-1064.5 342.5,-1064.5"/>
<text text-anchor="middle" x="371" y="-1071.5" font-family="Helvetica,sans-Serif" font-size="10.00" fill="#000000">gvec.hpp</text>
</a>
</g>
</g>
<!-- Node1&#45;&gt;Node28 -->
<g id="edge46" class="edge">
<title>Node1&#45;&gt;Node28</title>
<path fill="none" stroke="#191970" d="M389.5219,-1111.0437C384.9165,-1101.8331 379.5799,-1091.1598 375.8213,-1083.6427"/>
<polygon fill="#191970" stroke="#191970" points="386.5201,-1112.8665 394.1228,-1120.2455 392.7811,-1109.736 386.5201,-1112.8665"/>
</g>
<!-- Node3 -->
<g id="node3" class="node">
<title>Node3</title>
<g id="a_node3"><a xlink:href="../../d9/d55/xc__functional_8hpp.html" target="_top" xlink:title="Contains implementation of sirius::XC_functional class. ">
<polygon fill="#ffffff" stroke="#000000" points="472,-504.5 472,-523.5 566,-523.5 566,-504.5 472,-504.5"/>
<text text-anchor="middle" x="519" y="-511.5" font-family="Helvetica,sans-Serif" font-size="10.00" fill="#000000">xc_functional.hpp</text>
</a>
</g>
</g>
<!-- Node2&#45;&gt;Node3 -->
<g id="edge2" class="edge">
<title>Node2&#45;&gt;Node3</title>
<path fill="none" stroke="#191970" d="M518.9033,-1000.1655C534.0045,-978.9648 556,-941.9198 556,-906 556,-906 556,-906 556,-626 556,-586.2726 534.7516,-542.4377 524.4595,-523.5354"/>
<polygon fill="#191970" stroke="#191970" points="515.8837,-998.362 512.7458,-1008.4815 521.5094,-1002.5275 515.8837,-998.362"/>
</g>
<!-- Node18 -->
<g id="node18" class="node">
<title>Node18</title>
<g id="a_node18"><a xlink:href="../../db/d5a/sddk_8hpp.html" target="_top" xlink:title="Main include file for SDDK library. ">
<polygon fill="#ffffff" stroke="#000000" points="303.5,-952.5 303.5,-971.5 360.5,-971.5 360.5,-952.5 303.5,-952.5"/>
<text text-anchor="middle" x="332" y="-959.5" font-family="Helvetica,sans-Serif" font-size="10.00" fill="#000000">sddk.hpp</text>
</a>
</g>
</g>
<!-- Node2&#45;&gt;Node18 -->
<g id="edge26" class="edge">
<title>Node2&#45;&gt;Node18</title>
<path fill="none" stroke="#191970" d="M467.2873,-1005.7924C435.1852,-995.401 389.7617,-980.6974 360.5902,-971.2546"/>
<polygon fill="#191970" stroke="#191970" points="466.6127,-1009.2528 477.2046,-1009.0026 468.7685,-1002.593 466.6127,-1009.2528"/>
</g>
<!-- Node4 -->
<g id="node4" class="node">
<title>Node4</title>
<g id="a_node4"><a xlink:href="../../d1/db8/simulation__context_8hpp.html" target="_top" xlink:title="Contains definition and implementation of Simulation_context class. ">
<polygon fill="#ffffff" stroke="#000000" points="256.5,-448.5 256.5,-467.5 375.5,-467.5 375.5,-448.5 256.5,-448.5"/>
<text text-anchor="middle" x="316" y="-455.5" font-family="Helvetica,sans-Serif" font-size="10.00" fill="#000000">simulation_context.hpp</text>
</a>
</g>
</g>
<!-- Node3&#45;&gt;Node4 -->
<g id="edge3" class="edge">
<title>Node3&#45;&gt;Node4</title>
<path fill="none" stroke="#191970" d="M474.0073,-501.5882C436.7109,-491.2996 384.4744,-476.8895 350.4416,-467.5011"/>
<polygon fill="#191970" stroke="#191970" points="473.5324,-505.0879 484.1031,-504.3733 475.3939,-498.3399 473.5324,-505.0879"/>
</g>
<!-- Node13 -->
<g id="node13" class="node">
<title>Node13</title>
<g id="a_node13"><a xlink:href="../../de/df2/potential_8hpp.html" target="_top" xlink:title="Contains declaration and partial implementation of sirius::Potential class. ">
<polygon fill="#ffffff" stroke="#000000" points="453,-280.5 453,-299.5 527,-299.5 527,-280.5 453,-280.5"/>
<text text-anchor="middle" x="490" y="-287.5" font-family="Helvetica,sans-Serif" font-size="10.00" fill="#000000">potential.hpp</text>
</a>
</g>
</g>
<!-- Node3&#45;&gt;Node13 -->
<g id="edge25" class="edge">
<title>Node3&#45;&gt;Node13</title>
<path fill="none" stroke="#191970" d="M518.962,-494.0683C518.559,-460.9329 516.2805,-392.5622 505,-336 502.4371,-323.1491 497.4277,-308.8787 493.9051,-299.6908"/>
<polygon fill="#191970" stroke="#191970" points="515.4633,-494.2686 519.038,-504.2421 522.4631,-494.2162 515.4633,-494.2686"/>
</g>
<!-- Node5 -->
<g id="node5" class="node">
<title>Node5</title>
<g id="a_node5"><a xlink:href="../../db/d74/hubbard_8hpp.html" target="_top" xlink:title="Contains declaration and partial implementation of sirius::Hubbard class. ">
<polygon fill="#ffffff" stroke="#000000" points="66.5,-392.5 66.5,-411.5 139.5,-411.5 139.5,-392.5 66.5,-392.5"/>
<text text-anchor="middle" x="103" y="-399.5" font-family="Helvetica,sans-Serif" font-size="10.00" fill="#000000">hubbard.hpp</text>
</a>
</g>
</g>
<!-- Node4&#45;&gt;Node5 -->
<g id="edge4" class="edge">
<title>Node4&#45;&gt;Node5</title>
<path fill="none" stroke="#191970" d="M269.5415,-445.7856C230.3607,-435.4845 175.0765,-420.9497 139.1382,-411.5011"/>
<polygon fill="#191970" stroke="#191970" points="268.8227,-449.2155 279.384,-448.3733 270.6026,-442.4455 268.8227,-449.2155"/>
</g>
<!-- Node9 -->
<g id="node9" class="node">
<title>Node9</title>
<g id="a_node9"><a xlink:href="../../de/dec/hamiltonian_8hpp.html" target="_top" xlink:title="Contains declaration and definition of sirius::Hamiltonian class. ">
<polygon fill="#ffffff" stroke="#000000" points="390.5,-168.5 390.5,-187.5 477.5,-187.5 477.5,-168.5 390.5,-168.5"/>
<text text-anchor="middle" x="434" y="-175.5" font-family="Helvetica,sans-Serif" font-size="10.00" fill="#000000">hamiltonian.hpp</text>
</a>
</g>
</g>
<!-- Node4&#45;&gt;Node9 -->
<g id="edge11" class="edge">
<title>Node4&#45;&gt;Node9</title>
<path fill="none" stroke="#191970" d="M345.0321,-443.3183C357.7243,-435.5734 371.7877,-424.9693 381,-412 398.6765,-387.1144 400,-376.5246 400,-346 400,-346 400,-346 400,-290 400,-250.5779 419.5255,-206.5856 428.9832,-187.5891"/>
<polygon fill="#191970" stroke="#191970" points="343.0436,-440.4243 336.1215,-448.4453 346.5347,-446.4917 343.0436,-440.4243"/>
</g>
<!-- Node11 -->
<g id="node11" class="node">
<title>Node11</title>
<g id="a_node11"><a xlink:href="../../d3/d6a/periodic__function_8hpp.html" target="_top" xlink:title="Contains declaration and partial implementation of sirius::Periodic_function class. ">
<polygon fill="#ffffff" stroke="#000000" points="260,-392.5 260,-411.5 372,-411.5 372,-392.5 260,-392.5"/>
<text text-anchor="middle" x="316" y="-399.5" font-family="Helvetica,sans-Serif" font-size="10.00" fill="#000000">periodic_function.hpp</text>
</a>
</g>
</g>
<!-- Node4&#45;&gt;Node11 -->
<g id="edge12" class="edge">
<title>Node4&#45;&gt;Node11</title>
<path fill="none" stroke="#191970" d="M316,-438.1575C316,-429.155 316,-418.9199 316,-411.6427"/>
<polygon fill="#191970" stroke="#191970" points="312.5001,-438.2455 316,-448.2455 319.5001,-438.2456 312.5001,-438.2455"/>
</g>
<!-- Node6 -->
<g id="node6" class="node">
<title>Node6</title>
<g id="a_node6"><a xlink:href="../../df/dc4/dft__ground__state_8hpp.html" target="_top" xlink:title="Contains definition and partial implementation of sirius::DFT_ground_state class. ...">
<polygon fill="#ffffff" stroke="#000000" points="180.5,-224.5 180.5,-243.5 291.5,-243.5 291.5,-224.5 180.5,-224.5"/>
<text text-anchor="middle" x="236" y="-231.5" font-family="Helvetica,sans-Serif" font-size="10.00" fill="#000000">dft_ground_state.hpp</text>
</a>
</g>
</g>
<!-- Node5&#45;&gt;Node6 -->
<g id="edge5" class="edge">
<title>Node5&#45;&gt;Node6</title>
<path fill="none" stroke="#191970" d="M107.9788,-382.593C115.4335,-356.6792 131.6263,-310.5076 159,-280 173.6634,-263.6579 195.5329,-251.3631 212.2222,-243.6147"/>
<polygon fill="#191970" stroke="#191970" points="104.5714,-381.785 105.3118,-392.3539 111.3238,-383.63 104.5714,-381.785"/>
</g>
<!-- Node5&#45;&gt;Node9 -->
<g id="edge8" class="edge">
<title>Node5&#45;&gt;Node9</title>
<path fill="none" stroke="#191970" d="M103.9264,-381.7814C106.8822,-343.6109 119.2546,-261.4178 171,-224 205.3687,-199.1475 324.9943,-186.3203 390.4236,-181.0256"/>
<polygon fill="#191970" stroke="#191970" points="100.4111,-381.9162 103.2782,-392.1158 107.3974,-382.3545 100.4111,-381.9162"/>
</g>
<!-- Node7 -->
<g id="node7" class="node">
<title>Node7</title>
<g id="a_node7"><a xlink:href="../../dd/dc2/sirius_8h.html" target="_top" xlink:title="&quot;All&#45;in&#45;one&quot; include file. ">
<polygon fill="#ffffff" stroke="#000000" points="306,-56.5 306,-75.5 354,-75.5 354,-56.5 306,-56.5"/>
<text text-anchor="middle" x="330" y="-63.5" font-family="Helvetica,sans-Serif" font-size="10.00" fill="#000000">sirius.h</text>
</a>
</g>
</g>
<!-- Node6&#45;&gt;Node7 -->
<g id="edge6" class="edge">
<title>Node6&#45;&gt;Node7</title>
<path fill="none" stroke="#191970" d="M246.2693,-215.6463C266.1395,-180.1336 309.2331,-103.1154 324.5011,-75.8279"/>
<polygon fill="#191970" stroke="#191970" points="243.1517,-214.0504 241.3232,-224.4862 249.2605,-217.4684 243.1517,-214.0504"/>
</g>
<!-- Node8 -->
<g id="node8" class="node">
<title>Node8</title>
<g id="a_node8"><a xlink:href="../../d4/d53/sirius__api_8cpp.html" target="_top" xlink:title="Fortran API. ">
<polygon fill="#ffffff" stroke="#000000" points="291,-.5 291,-19.5 369,-19.5 369,-.5 291,-.5"/>
<text text-anchor="middle" x="330" y="-7.5" font-family="Helvetica,sans-Serif" font-size="10.00" fill="#000000">sirius_api.cpp</text>
</a>
</g>
</g>
<!-- Node7&#45;&gt;Node8 -->
<g id="edge7" class="edge">
<title>Node7&#45;&gt;Node8</title>
<path fill="none" stroke="#191970" d="M330,-46.1575C330,-37.155 330,-26.9199 330,-19.6427"/>
<polygon fill="#191970" stroke="#191970" points="326.5001,-46.2455 330,-56.2455 333.5001,-46.2456 326.5001,-46.2455"/>
</g>
<!-- Node10 -->
<g id="node10" class="node">
<title>Node10</title>
<g id="a_node10"><a xlink:href="../../da/d3d/band_8hpp.html" target="_top" xlink:title="Contains declaration and partial implementation of sirius::Band class. ">
<polygon fill="#ffffff" stroke="#000000" points="333,-112.5 333,-131.5 391,-131.5 391,-112.5 333,-112.5"/>
<text text-anchor="middle" x="362" y="-119.5" font-family="Helvetica,sans-Serif" font-size="10.00" fill="#000000">band.hpp</text>
</a>
</g>
</g>
<!-- Node9&#45;&gt;Node10 -->
<g id="edge9" class="edge">
<title>Node9&#45;&gt;Node10</title>
<path fill="none" stroke="#191970" d="M413.336,-161.928C400.7511,-152.1397 385.0908,-139.9595 374.3977,-131.6427"/>
<polygon fill="#191970" stroke="#191970" points="411.4162,-164.8688 421.4586,-168.2455 415.7138,-159.3434 411.4162,-164.8688"/>
</g>
<!-- Node10&#45;&gt;Node7 -->
<g id="edge10" class="edge">
<title>Node10&#45;&gt;Node7</title>
<path fill="none" stroke="#191970" d="M351.3355,-103.3372C346.0346,-94.0605 339.8513,-83.2398 335.5101,-75.6427"/>
<polygon fill="#191970" stroke="#191970" points="348.4257,-105.2996 356.426,-112.2455 354.5034,-101.8266 348.4257,-105.2996"/>
</g>
<!-- Node11&#45;&gt;Node10 -->
<g id="edge13" class="edge">
<title>Node11&#45;&gt;Node10</title>
<path fill="none" stroke="#191970" d="M328.5403,-383.9605C342.1609,-362.5668 362,-325.34 362,-290 362,-290 362,-290 362,-234 362,-196.0833 362,-150.9462 362,-131.5884"/>
<polygon fill="#191970" stroke="#191970" points="325.5821,-382.0886 322.9864,-392.3606 331.4212,-385.9493 325.5821,-382.0886"/>
</g>
<!-- Node12 -->
<g id="node12" class="node">
<title>Node12</title>
<g id="a_node12"><a xlink:href="../../d0/d9a/density_8hpp.html" target="_top" xlink:title="Contains definition and partial implementation of sirius::Density class. ">
<polygon fill="#ffffff" stroke="#000000" points="428,-336.5 428,-355.5 496,-355.5 496,-336.5 428,-336.5"/>
<text text-anchor="middle" x="462" y="-343.5" font-family="Helvetica,sans-Serif" font-size="10.00" fill="#000000">density.hpp</text>
</a>
</g>
</g>
<!-- Node11&#45;&gt;Node12 -->
<g id="edge14" class="edge">
<title>Node11&#45;&gt;Node12</title>
<path fill="none" stroke="#191970" d="M350.4435,-388.7888C377.1013,-378.5639 413.38,-364.6488 437.2292,-355.5011"/>
<polygon fill="#191970" stroke="#191970" points="349.1816,-385.5241 341.0983,-392.3733 351.6885,-392.0598 349.1816,-385.5241"/>
</g>
<!-- Node15 -->
<g id="node15" class="node">
<title>Node15</title>
<g id="a_node15"><a xlink:href="../../d5/d72/non__local__functor_8hpp.html" target="_top" xlink:title="Common operation for forces and stress tensor. ">
<polygon fill="#ffffff" stroke="#000000" points="180.5,-336.5 180.5,-355.5 295.5,-355.5 295.5,-336.5 180.5,-336.5"/>
<text text-anchor="middle" x="238" y="-343.5" font-family="Helvetica,sans-Serif" font-size="10.00" fill="#000000">non_local_functor.hpp</text>
</a>
</g>
</g>
<!-- Node11&#45;&gt;Node15 -->
<g id="edge19" class="edge">
<title>Node11&#45;&gt;Node15</title>
<path fill="none" stroke="#191970" d="M294.0064,-386.2097C280.3071,-376.3743 263.1264,-364.0394 251.4309,-355.6427"/>
<polygon fill="#191970" stroke="#191970" points="292.2489,-389.2566 302.4134,-392.2455 296.3314,-383.5703 292.2489,-389.2566"/>
</g>
<!-- Node17 -->
<g id="node17" class="node">
<title>Node17</title>
<g id="a_node17"><a xlink:href="../../d6/d1e/force_8hpp.html" target="_top" xlink:title="Contains defintion and implementation of sirius::Force class. ">
<polygon fill="#ffffff" stroke="#000000" points="168,-280.5 168,-299.5 226,-299.5 226,-280.5 168,-280.5"/>
<text text-anchor="middle" x="197" y="-287.5" font-family="Helvetica,sans-Serif" font-size="10.00" fill="#000000">force.hpp</text>
</a>
</g>
</g>
<!-- Node11&#45;&gt;Node17 -->
<g id="edge24" class="edge">
<title>Node11&#45;&gt;Node17</title>
<path fill="none" stroke="#191970" d="M317.4668,-382.1141C317.4697,-367.8608 315.2021,-348.9665 305,-336 294.8239,-323.0666 254.505,-308.1443 226.1249,-298.8898"/>
<polygon fill="#191970" stroke="#191970" points="313.9603,-382.2247 317.0858,-392.348 320.9555,-382.4852 313.9603,-382.2247"/>
</g>
<!-- Node12&#45;&gt;Node13 -->
<g id="edge15" class="edge">
<title>Node12&#45;&gt;Node13</title>
<path fill="none" stroke="#191970" d="M471.4781,-327.0437C476.0835,-317.8331 481.4201,-307.1598 485.1787,-299.6427"/>
<polygon fill="#191970" stroke="#191970" points="468.2189,-325.736 466.8772,-336.2455 474.4799,-328.8665 468.2189,-325.736"/>
</g>
<!-- Node13&#45;&gt;Node9 -->
<g id="edge16" class="edge">
<title>Node13&#45;&gt;Node9</title>
<path fill="none" stroke="#191970" d="M475.9517,-272.1318C469.8988,-263.8826 463.0639,-253.7676 458,-244 448.1235,-224.9494 440.4834,-200.898 436.6729,-187.7264"/>
<polygon fill="#191970" stroke="#191970" points="473.2667,-274.3838 482.092,-280.2459 478.8486,-270.1597 473.2667,-274.3838"/>
</g>
<!-- Node14 -->
<g id="node14" class="node">
<title>Node14</title>
<g id="a_node14"><a xlink:href="../../d3/d2c/local__operator_8hpp.html" target="_top" xlink:title="Contains declaration and implementation of sirius::Local_operator class. ">
<polygon fill="#ffffff" stroke="#000000" points="466.5,-224.5 466.5,-243.5 565.5,-243.5 565.5,-224.5 466.5,-224.5"/>
<text text-anchor="middle" x="516" y="-231.5" font-family="Helvetica,sans-Serif" font-size="10.00" fill="#000000">local_operator.hpp</text>
</a>
</g>
</g>
<!-- Node13&#45;&gt;Node14 -->
<g id="edge17" class="edge">
<title>Node13&#45;&gt;Node14</title>
<path fill="none" stroke="#191970" d="M498.8011,-271.0437C503.0775,-261.8331 508.033,-251.1598 511.523,-243.6427"/>
<polygon fill="#191970" stroke="#191970" points="495.5655,-269.7015 494.5289,-280.2455 501.9146,-272.6494 495.5655,-269.7015"/>
</g>
<!-- Node14&#45;&gt;Node9 -->
<g id="edge18" class="edge">
<title>Node14&#45;&gt;Node9</title>
<path fill="none" stroke="#191970" d="M493.289,-218.49C478.8212,-208.6096 460.532,-196.1194 448.1196,-187.6427"/>
<polygon fill="#191970" stroke="#191970" points="491.4848,-221.4962 501.7167,-224.2455 495.4325,-215.7156 491.4848,-221.4962"/>
</g>
<!-- Node16 -->
<g id="node16" class="node">
<title>Node16</title>
<g id="a_node16"><a xlink:href="../../d7/dd1/stress_8hpp.html" target="_top" xlink:title="Stress tensor calculation. ">
<polygon fill="#ffffff" stroke="#000000" points="244.5,-280.5 244.5,-299.5 307.5,-299.5 307.5,-280.5 244.5,-280.5"/>
<text text-anchor="middle" x="276" y="-287.5" font-family="Helvetica,sans-Serif" font-size="10.00" fill="#000000">stress.hpp</text>
</a>
</g>
</g>
<!-- Node15&#45;&gt;Node16 -->
<g id="edge20" class="edge">
<title>Node15&#45;&gt;Node16</title>
<path fill="none" stroke="#191970" d="M250.2679,-327.9209C256.6488,-318.5176 264.1931,-307.3997 269.4568,-299.6427"/>
<polygon fill="#191970" stroke="#191970" points="247.338,-326.0055 244.6191,-336.2455 253.1303,-329.936 247.338,-326.0055"/>
</g>
<!-- Node15&#45;&gt;Node17 -->
<g id="edge22" class="edge">
<title>Node15&#45;&gt;Node17</title>
<path fill="none" stroke="#191970" d="M224.7636,-327.9209C217.8789,-318.5176 209.7391,-307.3997 204.0598,-299.6427"/>
<polygon fill="#191970" stroke="#191970" points="222.1269,-330.2445 230.8583,-336.2455 227.7749,-326.1093 222.1269,-330.2445"/>
</g>
<!-- Node16&#45;&gt;Node6 -->
<g id="edge21" class="edge">
<title>Node16&#45;&gt;Node6</title>
<path fill="none" stroke="#191970" d="M263.0864,-271.9209C256.3697,-262.5176 248.4283,-251.3997 242.8876,-243.6427"/>
<polygon fill="#191970" stroke="#191970" points="260.372,-274.1425 269.0325,-280.2455 266.0682,-270.0738 260.372,-274.1425"/>
</g>
<!-- Node17&#45;&gt;Node6 -->
<g id="edge23" class="edge">
<title>Node17&#45;&gt;Node6</title>
<path fill="none" stroke="#191970" d="M209.5908,-271.9209C216.1395,-262.5176 223.8824,-251.3997 229.2846,-243.6427"/>
<polygon fill="#191970" stroke="#191970" points="206.6361,-270.0392 203.7933,-280.2455 212.3804,-274.0397 206.6361,-270.0392"/>
</g>
<!-- Node18&#45;&gt;Node7 -->
<g id="edge45" class="edge">
<title>Node18&#45;&gt;Node7</title>
<path fill="none" stroke="#191970" d="M370.6796,-956.3344C425.1793,-945.9167 518,-918.1676 518,-850 518,-850 518,-850 518,-682 518,-600.0485 594,-595.9515 594,-514 594,-514 594,-514 594,-178 594,-126.2211 419.7188,-84.6454 354.3633,-70.8749"/>
<polygon fill="#191970" stroke="#191970" points="369.8766,-952.9226 360.6549,-958.1389 371.1168,-959.8119 369.8766,-952.9226"/>
</g>
<!-- Node19 -->
<g id="node19" class="node">
<title>Node19</title>
<g id="a_node19"><a xlink:href="../../dd/d46/input_8hpp.html" target="_top" xlink:title="Contains input parameters structures. ">
<polygon fill="#ffffff" stroke="#000000" points="173,-896.5 173,-915.5 231,-915.5 231,-896.5 173,-896.5"/>
<text text-anchor="middle" x="202" y="-903.5" font-family="Helvetica,sans-Serif" font-size="10.00" fill="#000000">input.hpp</text>
</a>
</g>
</g>
<!-- Node18&#45;&gt;Node19 -->
<g id="edge27" class="edge">
<title>Node18&#45;&gt;Node19</title>
<path fill="none" stroke="#191970" d="M300.3898,-948.3833C276.7465,-938.1985 245.0124,-924.5284 224.0562,-915.5011"/>
<polygon fill="#191970" stroke="#191970" points="299.0834,-951.6314 309.6522,-952.3733 301.8528,-945.2025 299.0834,-951.6314"/>
</g>
<!-- Node23 -->
<g id="node23" class="node">
<title>Node23</title>
<g id="a_node23"><a xlink:href="../../de/d6d/atom_8hpp.html" target="_top" xlink:title="Contains declaration and partial implementation of sirius::Atom class. ">
<polygon fill="#ffffff" stroke="#000000" points="174,-672.5 174,-691.5 232,-691.5 232,-672.5 174,-672.5"/>
<text text-anchor="middle" x="203" y="-679.5" font-family="Helvetica,sans-Serif" font-size="10.00" fill="#000000">atom.hpp</text>
</a>
</g>
</g>
<!-- Node18&#45;&gt;Node23 -->
<g id="edge43" class="edge">
<title>Node18&#45;&gt;Node23</title>
<path fill="none" stroke="#191970" d="M322.8911,-943.2634C313.1235,-921.4131 299,-883.949 299,-850 299,-850 299,-850 299,-794 299,-763.4754 298.6257,-752.1834 280,-728 266.9826,-711.0984 245.8457,-699.1127 229.0078,-691.6219"/>
<polygon fill="#191970" stroke="#191970" points="319.7448,-944.798 327.1307,-952.3939 326.0937,-941.8499 319.7448,-944.798"/>
</g>
<!-- Node27 -->
<g id="node27" class="node">
<title>Node27</title>
<g id="a_node27"><a xlink:href="../../d4/dde/sddk__api_8cpp.html" target="_top" xlink:title="Fortran interface for the SDDK library. ">
<polygon fill="#ffffff" stroke="#000000" points="327.5,-896.5 327.5,-915.5 402.5,-915.5 402.5,-896.5 327.5,-896.5"/>
<text text-anchor="middle" x="365" y="-903.5" font-family="Helvetica,sans-Serif" font-size="10.00" fill="#000000">sddk_api.cpp</text>
</a>
</g>
</g>
<!-- Node18&#45;&gt;Node27 -->
<g id="edge44" class="edge">
<title>Node18&#45;&gt;Node27</title>
<path fill="none" stroke="#191970" d="M342.8254,-943.6296C348.3299,-934.2887 354.7937,-923.3197 359.3177,-915.6427"/>
<polygon fill="#191970" stroke="#191970" points="339.8097,-941.8532 337.7482,-952.2455 345.8405,-945.4071 339.8097,-941.8532"/>
</g>
<!-- Node19&#45;&gt;Node7 -->
<g id="edge42" class="edge">
<title>Node19&#45;&gt;Node7</title>
<path fill="none" stroke="#191970" d="M162.7863,-897.4852C114.2716,-884.3753 38,-854.1929 38,-794 38,-794 38,-794 38,-178 38,-120.8539 235.4273,-81.9608 305.6065,-69.9408"/>
<polygon fill="#191970" stroke="#191970" points="162.1236,-900.9286 172.6801,-900.0283 163.8662,-894.149 162.1236,-900.9286"/>
</g>
<!-- Node20 -->
<g id="node20" class="node">
<title>Node20</title>
<g id="a_node20"><a xlink:href="../../de/d06/simulation__parameters_8hpp.html" target="_top" xlink:title="Contains definition and implementation of sirius::Simulation_parameters_base class. ">
<polygon fill="#ffffff" stroke="#000000" points="133.5,-840.5 133.5,-859.5 270.5,-859.5 270.5,-840.5 133.5,-840.5"/>
<text text-anchor="middle" x="202" y="-847.5" font-family="Helvetica,sans-Serif" font-size="10.00" fill="#000000">simulation_parameters.hpp</text>
</a>
</g>
</g>
<!-- Node19&#45;&gt;Node20 -->
<g id="edge28" class="edge">
<title>Node19&#45;&gt;Node20</title>
<path fill="none" stroke="#191970" d="M202,-886.1575C202,-877.155 202,-866.9199 202,-859.6427"/>
<polygon fill="#191970" stroke="#191970" points="198.5001,-886.2455 202,-896.2455 205.5001,-886.2456 198.5001,-886.2455"/>
</g>
<!-- Node20&#45;&gt;Node4 -->
<g id="edge29" class="edge">
<title>Node20&#45;&gt;Node4</title>
<path fill="none" stroke="#191970" d="M240.7831,-836.7613C280.6697,-820.3918 337,-788.3592 337,-738 337,-738 337,-738 337,-570 337,-531.6204 324.9401,-487.0906 319.0986,-467.7725"/>
<polygon fill="#191970" stroke="#191970" points="239.3189,-833.5761 231.293,-840.4925 241.8802,-840.0907 239.3189,-833.5761"/>
</g>
<!-- Node21 -->
<g id="node21" class="node">
<title>Node21</title>
<g id="a_node21"><a xlink:href="../../db/df7/atom__type_8hpp.html" target="_top" xlink:title="Contains declaration and implementation of sirius::Atom_type class. ">
<polygon fill="#ffffff" stroke="#000000" points="161.5,-784.5 161.5,-803.5 244.5,-803.5 244.5,-784.5 161.5,-784.5"/>
<text text-anchor="middle" x="203" y="-791.5" font-family="Helvetica,sans-Serif" font-size="10.00" fill="#000000">atom_type.hpp</text>
</a>
</g>
</g>
<!-- Node20&#45;&gt;Node21 -->
<g id="edge30" class="edge">
<title>Node20&#45;&gt;Node21</title>
<path fill="none" stroke="#191970" d="M202.3543,-830.1575C202.5151,-821.155 202.6979,-810.9199 202.8278,-803.6427"/>
<polygon fill="#191970" stroke="#191970" points="198.8534,-830.1846 202.1742,-840.2455 205.8523,-830.3097 198.8534,-830.1846"/>
</g>
<!-- Node24 -->
<g id="node24" class="node">
<title>Node24</title>
<g id="a_node24"><a xlink:href="../../d4/d91/unit__cell_8hpp.html" target="_top" xlink:title="Contains definition and partial implementation of sirius::Unit_cell class. ">
<polygon fill="#ffffff" stroke="#000000" points="94.5,-616.5 94.5,-635.5 167.5,-635.5 167.5,-616.5 94.5,-616.5"/>
<text text-anchor="middle" x="131" y="-623.5" font-family="Helvetica,sans-Serif" font-size="10.00" fill="#000000">unit_cell.hpp</text>
</a>
</g>
</g>
<!-- Node20&#45;&gt;Node24 -->
<g id="edge41" class="edge">
<title>Node20&#45;&gt;Node24</title>
<path fill="none" stroke="#191970" d="M180.7395,-833.6918C171.0962,-825.5325 160.0716,-815.0505 152,-804 135.8145,-781.8411 131.917,-774.7951 126,-748 116.9495,-707.0147 124.89,-656.4474 128.9526,-635.638"/>
<polygon fill="#191970" stroke="#191970" points="178.7867,-836.6154 188.7495,-840.22 183.2091,-831.1892 178.7867,-836.6154"/>
</g>
<!-- Node22 -->
<g id="node22" class="node">
<title>Node22</title>
<g id="a_node22"><a xlink:href="../../d6/d50/atom__symmetry__class_8hpp.html" target="_top" xlink:title="Contains declaration and partial implementation of sirius::Atom_symmetry_class class. ">
<polygon fill="#ffffff" stroke="#000000" points="135.5,-728.5 135.5,-747.5 270.5,-747.5 270.5,-728.5 135.5,-728.5"/>
<text text-anchor="middle" x="203" y="-735.5" font-family="Helvetica,sans-Serif" font-size="10.00" fill="#000000">atom_symmetry_class.hpp</text>
</a>
</g>
</g>
<!-- Node21&#45;&gt;Node22 -->
<g id="edge31" class="edge">
<title>Node21&#45;&gt;Node22</title>
<path fill="none" stroke="#191970" d="M203,-774.1575C203,-765.155 203,-754.9199 203,-747.6427"/>
<polygon fill="#191970" stroke="#191970" points="199.5001,-774.2455 203,-784.2455 206.5001,-774.2456 199.5001,-774.2455"/>
</g>
<!-- Node22&#45;&gt;Node23 -->
<g id="edge32" class="edge">
<title>Node22&#45;&gt;Node23</title>
<path fill="none" stroke="#191970" d="M203,-718.1575C203,-709.155 203,-698.9199 203,-691.6427"/>
<polygon fill="#191970" stroke="#191970" points="199.5001,-718.2455 203,-728.2455 206.5001,-718.2456 199.5001,-718.2455"/>
</g>
<!-- Node23&#45;&gt;Node24 -->
<g id="edge33" class="edge">
<title>Node23&#45;&gt;Node24</title>
<path fill="none" stroke="#191970" d="M182.336,-665.928C169.7511,-656.1397 154.0908,-643.9595 143.3977,-635.6427"/>
<polygon fill="#191970" stroke="#191970" points="180.4162,-668.8688 190.4586,-672.2455 184.7138,-663.3434 180.4162,-668.8688"/>
</g>
<!-- Node25 -->
<g id="node25" class="node">
<title>Node25</title>
<g id="a_node25"><a xlink:href="../../d4/df7/radial__integrals_8hpp.html" target="_top" xlink:title="Representation of various radial integrals. ">
<polygon fill="#ffffff" stroke="#000000" points="126,-560.5 126,-579.5 230,-579.5 230,-560.5 126,-560.5"/>
<text text-anchor="middle" x="178" y="-567.5" font-family="Helvetica,sans-Serif" font-size="10.00" fill="#000000">radial_integrals.hpp</text>
</a>
</g>
</g>
<!-- Node24&#45;&gt;Node25 -->
<g id="edge34" class="edge">
<title>Node24&#45;&gt;Node25</title>
<path fill="none" stroke="#191970" d="M145.6872,-608.5004C153.6796,-598.9775 163.2625,-587.5596 169.907,-579.6427"/>
<polygon fill="#191970" stroke="#191970" points="142.9346,-606.3357 139.1868,-616.2455 148.2964,-610.8358 142.9346,-606.3357"/>
</g>
<!-- Node25&#45;&gt;Node4 -->
<g id="edge40" class="edge">
<title>Node25&#45;&gt;Node4</title>
<path fill="none" stroke="#191970" d="M222.8949,-556.93C242.1721,-549.6202 263.9132,-538.9132 280,-524 297.2291,-508.0278 308.0276,-481.8871 312.9208,-467.7738"/>
<polygon fill="#191970" stroke="#191970" points="221.6035,-553.6748 213.3744,-560.348 223.9689,-560.2631 221.6035,-553.6748"/>
</g>
<!-- Node25&#45;&gt;Node5 -->
<g id="edge39" class="edge">
<title>Node25&#45;&gt;Node5</title>
<path fill="none" stroke="#191970" d="M152.109,-554.8236C141.0813,-547.0162 129.1379,-536.501 122,-524 100.7421,-486.7698 101.103,-433.2489 102.2781,-411.615"/>
<polygon fill="#191970" stroke="#191970" points="150.38,-557.8767 160.6474,-560.4906 154.251,-552.0445 150.38,-557.8767"/>
</g>
<!-- Node26 -->
<g id="node26" class="node">
<title>Node26</title>
<g id="a_node26"><a xlink:href="../../d3/d1c/augmentation__operator_8hpp.html" target="_top" xlink:title="Contains implementation of sirius::Augmentation_operator class. ">
<polygon fill="#ffffff" stroke="#000000" points="131.5,-504.5 131.5,-523.5 270.5,-523.5 270.5,-504.5 131.5,-504.5"/>
<text text-anchor="middle" x="201" y="-511.5" font-family="Helvetica,sans-Serif" font-size="10.00" fill="#000000">augmentation_operator.hpp</text>
</a>
</g>
</g>
<!-- Node25&#45;&gt;Node26 -->
<g id="edge35" class="edge">
<title>Node25&#45;&gt;Node26</title>
<path fill="none" stroke="#191970" d="M185.9066,-550.7493C189.6617,-541.6064 193.9851,-531.0798 197.0396,-523.6427"/>
<polygon fill="#191970" stroke="#191970" points="182.568,-549.6656 182.0063,-560.2455 189.0431,-552.3251 182.568,-549.6656"/>
</g>
<!-- Node26&#45;&gt;Node4 -->
<g id="edge38" class="edge">
<title>Node26&#45;&gt;Node4</title>
<path fill="none" stroke="#191970" d="M229.8033,-499.9741C250.625,-489.8348 278.1978,-476.408 296.4888,-467.5011"/>
<polygon fill="#191970" stroke="#191970" points="228.2276,-496.8484 220.7692,-504.3733 231.2922,-503.1419 228.2276,-496.8484"/>
</g>
<!-- Node26&#45;&gt;Node15 -->
<g id="edge36" class="edge">
<title>Node26&#45;&gt;Node15</title>
<path fill="none" stroke="#191970" d="M205.3475,-494.2601C213.2966,-458.1669 229.9028,-382.7656 235.8355,-355.8279"/>
<polygon fill="#191970" stroke="#191970" points="201.8281,-493.9675 203.0953,-504.4862 208.6643,-495.4731 201.8281,-493.9675"/>
</g>
<!-- Node26&#45;&gt;Node17 -->
<g id="edge37" class="edge">
<title>Node26&#45;&gt;Node17</title>
<path fill="none" stroke="#191970" d="M192.535,-494.8915C179.1396,-462.0359 156.0366,-392.8835 171,-336 174.5939,-322.3376 183.2727,-308.4664 189.6181,-299.5817"/>
<polygon fill="#191970" stroke="#191970" points="189.3626,-496.376 196.4825,-504.222 195.8094,-493.6485 189.3626,-496.376"/>
</g>
<!-- Node28&#45;&gt;Node2 -->
<g id="edge49" class="edge">
<title>Node28&#45;&gt;Node2</title>
<path fill="none" stroke="#191970" d="M403.5828,-1060.3833C427.9536,-1050.1985 460.6642,-1036.5284 482.2652,-1027.5011"/>
<polygon fill="#191970" stroke="#191970" points="401.9125,-1057.2879 394.0354,-1064.3733 404.6117,-1063.7466 401.9125,-1057.2879"/>
</g>
<!-- Node28&#45;&gt;Node18 -->
<g id="edge52" class="edge">
<title>Node28&#45;&gt;Node18</title>
<path fill="none" stroke="#191970" d="M362.5985,-1054.8446C359.1312,-1046.6474 355.1872,-1036.9256 352,-1028 344.9943,-1008.3805 338.2725,-984.9409 334.6851,-971.9379"/>
<polygon fill="#191970" stroke="#191970" points="359.4732,-1056.4366 366.6424,-1064.2374 365.9027,-1053.6685 359.4732,-1056.4366"/>
</g>
<!-- Node29 -->
<g id="node29" class="node">
<title>Node29</title>
<g id="a_node29"><a xlink:href="../../d8/d7a/unit__cell__symmetry_8hpp.html" target="_top" xlink:title="Contains definition and implementation of sirius::Unit_cell_symmetry class. ">
<polygon fill="#ffffff" stroke="#000000" points="8,-952.5 8,-971.5 130,-971.5 130,-952.5 8,-952.5"/>
<text text-anchor="middle" x="69" y="-959.5" font-family="Helvetica,sans-Serif" font-size="10.00" fill="#000000">unit_cell_symmetry.hpp</text>
</a>
</g>
</g>
<!-- Node28&#45;&gt;Node29 -->
<g id="edge47" class="edge">
<title>Node28&#45;&gt;Node29</title>
<path fill="none" stroke="#191970" d="M332.0442,-1066.7034C295.4174,-1059.2004 239.4317,-1046.063 193,-1028 151.8623,-1011.9965 106.9091,-985.63 84.1002,-971.5545"/>
<polygon fill="#191970" stroke="#191970" points="331.804,-1070.2249 342.297,-1068.76 333.1807,-1063.3616 331.804,-1070.2249"/>
</g>
<!-- Node30 -->
<g id="node30" class="node">
<title>Node30</title>
<g id="a_node30"><a xlink:href="../../db/d11/matrix__storage_8hpp.html" target="_top" xlink:title="Contains definition and implementaiton of sddk::matrix_storage class. ">
<polygon fill="#ffffff" stroke="#000000" points="202,-1008.5 202,-1027.5 304,-1027.5 304,-1008.5 202,-1008.5"/>
<text text-anchor="middle" x="253" y="-1015.5" font-family="Helvetica,sans-Serif" font-size="10.00" fill="#000000">matrix_storage.hpp</text>
</a>
</g>
</g>
<!-- Node28&#45;&gt;Node30 -->
<g id="edge50" class="edge">
<title>Node28&#45;&gt;Node30</title>
<path fill="none" stroke="#191970" d="M341.4453,-1059.9741C320.0805,-1049.8348 291.7884,-1036.408 273.0202,-1027.5011"/>
<polygon fill="#191970" stroke="#191970" points="340.1802,-1063.2478 350.7151,-1064.3733 343.1814,-1056.9238 340.1802,-1063.2478"/>
</g>
<!-- Node31 -->
<g id="node31" class="node">
<title>Node31</title>
<g id="a_node31"><a xlink:href="../../dc/d8b/serialize__gvec_8hpp_source.html" target="_top" xlink:title="serialize_gvec.hpp">
<polygon fill="#ffffff" stroke="#000000" points="360.5,-1008.5 360.5,-1027.5 459.5,-1027.5 459.5,-1008.5 360.5,-1008.5"/>
<text text-anchor="middle" x="410" y="-1015.5" font-family="Helvetica,sans-Serif" font-size="10.00" fill="#000000">serialize_gvec.hpp</text>
</a>
</g>
</g>
<!-- Node28&#45;&gt;Node31 -->
<g id="edge53" class="edge">
<title>Node28&#45;&gt;Node31</title>
<path fill="none" stroke="#191970" d="M383.5908,-1055.9209C390.1395,-1046.5176 397.8824,-1035.3997 403.2846,-1027.6427"/>
<polygon fill="#191970" stroke="#191970" points="380.6361,-1054.0392 377.7933,-1064.2455 386.3804,-1058.0397 380.6361,-1054.0392"/>
</g>
<!-- Node29&#45;&gt;Node24 -->
<g id="edge48" class="edge">
<title>Node29&#45;&gt;Node24</title>
<path fill="none" stroke="#191970" d="M50.6409,-945.4899C30.2001,-925.2007 0,-888.6797 0,-850 0,-850 0,-850 0,-738 0,-684.1402 64.7644,-650.6496 103.2183,-635.5116"/>
<polygon fill="#191970" stroke="#191970" points="48.2667,-948.0622 57.914,-952.4418 53.1035,-943.002 48.2667,-948.0622"/>
</g>
<!-- Node30&#45;&gt;Node18 -->
<g id="edge51" class="edge">
<title>Node30&#45;&gt;Node18</title>
<path fill="none" stroke="#191970" d="M275.2756,-1002.2097C289.1505,-992.3743 306.5515,-980.0394 318.3969,-971.6427"/>
<polygon fill="#191970" stroke="#191970" points="272.8949,-999.6071 266.7607,-1008.2455 276.9431,-1005.3178 272.8949,-999.6071"/>
</g>
</g>
</svg>
        <g id="navigator" transform="translate(0 0)" fill="#404254">
                <rect fill="#f2f5e9" fill-opacity="0.5" stroke="#606060" stroke-width=".5" x="0" y="0" width="60" height="60"/>
                <use id="zoomplus" xlink:href="#zoomPlus" x="17" y="9" onmousedown="handleZoom(evt,'in')"/>
                <use id="zoomminus" xlink:href="#zoomMin" x="42" y="9" onmousedown="handleZoom(evt,'out')"/>
                <use id="reset" xlink:href="#resetDef" x="30" y="36" onmousedown="handleReset()"/>
                <g id="arrowUp" xlink:href="#dirArrow" transform="translate(30 24)" onmousedown="handlePan(0,-1)">
                  <use xlink:href="#rim" fill="#404040">
                        <set attributeName="fill" to="#808080" begin="arrowUp.mouseover" end="arrowUp.mouseout"/>
                  </use>
                  <path fill="none" stroke="white" stroke-width="1.5" d="M0,-3.0v7 M-2.5,-0.5L0,-3.0L2.5,-0.5"/>
                </g>
                <g id="arrowRight" xlink:href="#dirArrow" transform="rotate(90) translate(36 -43)" onmousedown="handlePan(1,0)">
                  <use xlink:href="#rim" fill="#404040">
                        <set attributeName="fill" to="#808080" begin="arrowRight.mouseover" end="arrowRight.mouseout"/>
                  </use>
                  <path fill="none" stroke="white" stroke-width="1.5" d="M0,-3.0v7 M-2.5,-0.5L0,-3.0L2.5,-0.5"/>
                </g>
                <g id="arrowDown" xlink:href="#dirArrow" transform="rotate(180) translate(-30 -48)" onmousedown="handlePan(0,1)">
                  <use xlink:href="#rim" fill="#404040">
                        <set attributeName="fill" to="#808080" begin="arrowDown.mouseover" end="arrowDown.mouseout"/>
                  </use>
                  <path fill="none" stroke="white" stroke-width="1.5" d="M0,-3.0v7 M-2.5,-0.5L0,-3.0L2.5,-0.5"/>
                </g>
                <g id="arrowLeft" xlink:href="#dirArrow" transform="rotate(270) translate(-36 17)" onmousedown="handlePan(-1,0)">
                  <use xlink:href="#rim" fill="#404040">
                        <set attributeName="fill" to="#808080" begin="arrowLeft.mouseover" end="arrowLeft.mouseout"/>
                  </use>
                  <path fill="none" stroke="white" stroke-width="1.5" d="M0,-3.0v7 M-2.5,-0.5L0,-3.0L2.5,-0.5"/>
                </g>
        </g>
        <svg viewBox="0 0 15 15" width="100%" height="30px" preserveAspectRatio="xMaxYMin meet">
         <g id="arrow_out" transform="scale(0.3 0.3)">
          <a xlink:href="fft3d__grid_8hpp__dep__incl_org.svg" target="_base">
           <rect id="button" ry="5" rx="5" y="6" x="6" height="38" width="38"
                fill="#f2f5e9" fill-opacity="0.5" stroke="#606060" stroke-width="1.0"/>
           <path id="arrow"
             d="M 11.500037,31.436501 C 11.940474,20.09759 22.043105,11.32322 32.158766,21.979434 L 37.068811,17.246167 C 37.068811,17.246167 37.088388,32 37.088388,32 L 22.160133,31.978069 C 22.160133,31.978069 26.997745,27.140456 26.997745,27.140456 C 18.528582,18.264221 13.291696,25.230495 11.500037,31.436501 z"
             style="fill:#404040;"/>
          </a>
         </g>
        </svg>
</svg>
