<?xml version="1.0" encoding="UTF-8" standalone="no"?>
<!DOCTYPE svg PUBLIC "-//W3C//DTD SVG 1.1//EN"
 "http://www.w3.org/Graphics/SVG/1.1/DTD/svg11.dtd">
<!-- Generated by graphviz version 2.40.1 (20161225.0304)
 -->
<!-- Title: fft3d_grid.hpp Pages: 1 -->
<svg width="536pt" height="1204pt"
 viewBox="0.00 0.00 536.00 1204.00" xmlns="http://www.w3.org/2000/svg" xmlns:xlink="http://www.w3.org/1999/xlink">
<g id="graph0" class="graph" transform="scale(1 1) rotate(0) translate(4 1200)">
<title>fft3d_grid.hpp</title>
<polygon fill="#ffffff" stroke="transparent" points="-4,4 -4,-1200 532,-1200 532,4 -4,4"/>
<!-- Node1 -->
<g id="node1" class="node">
<title>Node1</title>
<polygon fill="#bfbfbf" stroke="#000000" points="394,-1176.5 394,-1195.5 472,-1195.5 472,-1176.5 394,-1176.5"/>
<text text-anchor="middle" x="433" y="-1183.5" font-family="Helvetica,sans-Serif" font-size="10.00" fill="#000000">fft3d_grid.hpp</text>
</g>
<!-- Node2 -->
<g id="node2" class="node">
<title>Node2</title>
<g id="a_node2"><a xlink:href="../../dd/d4a/fft3d_8hpp.html" target="_top" xlink:title="Contains declaration and partial implementation of sddk::FFT3D class. ">
<polygon fill="#ffffff" stroke="#000000" points="434.5,-1064.5 434.5,-1083.5 489.5,-1083.5 489.5,-1064.5 434.5,-1064.5"/>
<text text-anchor="middle" x="462" y="-1071.5" font-family="Helvetica,sans-Serif" font-size="10.00" fill="#000000">fft3d.hpp</text>
</a>
</g>
</g>
<!-- Node1&#45;&gt;Node2 -->
<g id="edge1" class="edge">
<title>Node1&#45;&gt;Node2</title>
<path fill="none" stroke="#191970" d="M438.0235,-1166.5987C444.2989,-1142.363 454.7875,-1101.8551 459.5337,-1083.5249"/>
<polygon fill="#191970" stroke="#191970" points="434.591,-1165.8929 435.4725,-1176.4509 441.3675,-1167.6475 434.591,-1165.8929"/>
</g>
<!-- Node28 -->
<g id="node28" class="node">
<title>Node28</title>
<g id="a_node28"><a xlink:href="../../d6/dd8/gvec_8hpp.html" target="_top" xlink:title="Declaration and implementation of Gvec class. ">
<polygon fill="#ffffff" stroke="#000000" points="376.5,-1120.5 376.5,-1139.5 433.5,-1139.5 433.5,-1120.5 376.5,-1120.5"/>
<text text-anchor="middle" x="405" y="-1127.5" font-family="Helvetica,sans-Serif" font-size="10.00" fill="#000000">gvec.hpp</text>
</a>
</g>
</g>
<!-- Node1&#45;&gt;Node28 -->
<g id="edge45" class="edge">
<title>Node1&#45;&gt;Node28</title>
<path fill="none" stroke="#191970" d="M423.5219,-1167.0437C418.9165,-1157.8331 413.5799,-1147.1598 409.8213,-1139.6427"/>
<polygon fill="#191970" stroke="#191970" points="420.5201,-1168.8665 428.1228,-1176.2455 426.7811,-1165.736 420.5201,-1168.8665"/>
</g>
<!-- Node3 -->
<g id="node3" class="node">
<title>Node3</title>
<g id="a_node3"><a xlink:href="../../db/d5a/sddk_8hpp.html" target="_top" xlink:title="Main include file for SDDK library. ">
<polygon fill="#ffffff" stroke="#000000" points="385.5,-1008.5 385.5,-1027.5 442.5,-1027.5 442.5,-1008.5 385.5,-1008.5"/>
<text text-anchor="middle" x="414" y="-1015.5" font-family="Helvetica,sans-Serif" font-size="10.00" fill="#000000">sddk.hpp</text>
</a>
</g>
</g>
<!-- Node2&#45;&gt;Node3 -->
<g id="edge2" class="edge">
<title>Node2&#45;&gt;Node3</title>
<path fill="none" stroke="#191970" d="M447.0003,-1056.5004C438.8378,-1046.9775 429.0511,-1035.5596 422.2651,-1027.6427"/>
<polygon fill="#191970" stroke="#191970" points="444.4737,-1058.9307 453.639,-1064.2455 449.7885,-1054.3752 444.4737,-1058.9307"/>
</g>
<!-- Node4 -->
<g id="node4" class="node">
<title>Node4</title>
<g id="a_node4"><a xlink:href="../../dd/d46/input_8hpp.html" target="_top" xlink:title="Contains input parameters structures. ">
<polygon fill="#ffffff" stroke="#000000" points="290,-952.5 290,-971.5 348,-971.5 348,-952.5 290,-952.5"/>
<text text-anchor="middle" x="319" y="-959.5" font-family="Helvetica,sans-Serif" font-size="10.00" fill="#000000">input.hpp</text>
</a>
</g>
</g>
<!-- Node3&#45;&gt;Node4 -->
<g id="edge3" class="edge">
<title>Node3&#45;&gt;Node4</title>
<path fill="none" stroke="#191970" d="M388.6324,-1003.0465C371.729,-993.0824 350.0096,-980.2794 335.3581,-971.6427"/>
<polygon fill="#191970" stroke="#191970" points="387.0602,-1006.1825 397.4523,-1008.2455 390.6149,-1000.1522 387.0602,-1006.1825"/>
</g>
<!-- Node9 -->
<g id="node9" class="node">
<title>Node9</title>
<g id="a_node9"><a xlink:href="../../dd/dc2/sirius_8h.html" target="_top" xlink:title="&quot;All&#45;in&#45;one&quot; include file. ">
<polygon fill="#ffffff" stroke="#000000" points="179,-56.5 179,-75.5 227,-75.5 227,-56.5 179,-56.5"/>
<text text-anchor="middle" x="203" y="-63.5" font-family="Helvetica,sans-Serif" font-size="10.00" fill="#000000">sirius.h</text>
</a>
</g>
</g>
<!-- Node3&#45;&gt;Node9 -->
<g id="edge44" class="edge">
<title>Node3&#45;&gt;Node9</title>
<path fill="none" stroke="#191970" d="M445.3136,-1003.8341C479.0617,-986.172 528,-952.5372 528,-906 528,-906 528,-906 528,-178 528,-114.3661 302.4818,-79.0303 227.1623,-69.0031"/>
<polygon fill="#191970" stroke="#191970" points="443.6138,-1000.7711 436.251,-1008.3895 446.7576,-1007.0254 443.6138,-1000.7711"/>
</g>
<!-- Node22 -->
<g id="node22" class="node">
<title>Node22</title>
<g id="a_node22"><a xlink:href="../../de/d6d/atom_8hpp.html" target="_top" xlink:title="Contains declaration and partial implementation of sirius::Atom class. ">
<polygon fill="#ffffff" stroke="#000000" points="365,-728.5 365,-747.5 423,-747.5 423,-728.5 365,-728.5"/>
<text text-anchor="middle" x="394" y="-735.5" font-family="Helvetica,sans-Serif" font-size="10.00" fill="#000000">atom.hpp</text>
</a>
</g>
</g>
<!-- Node3&#45;&gt;Node22 -->
<g id="edge42" class="edge">
<title>Node3&#45;&gt;Node22</title>
<path fill="none" stroke="#191970" d="M434.2792,-1001.823C456.7929,-981.8958 490,-945.7639 490,-906 490,-906 490,-906 490,-850 490,-819.4754 489.6257,-808.1834 471,-784 457.9826,-767.0984 436.8457,-755.1127 420.0078,-747.6219"/>
<polygon fill="#191970" stroke="#191970" points="431.8921,-999.2588 426.5499,-1008.4082 436.4317,-1004.5872 431.8921,-999.2588"/>
</g>
<!-- Node27 -->
<g id="node27" class="node">
<title>Node27</title>
<g id="a_node27"><a xlink:href="../../d4/dde/sddk__api_8cpp.html" target="_top" xlink:title="Fortran interface for the SDDK library. ">
<polygon fill="#ffffff" stroke="#000000" points="376.5,-952.5 376.5,-971.5 451.5,-971.5 451.5,-952.5 376.5,-952.5"/>
<text text-anchor="middle" x="414" y="-959.5" font-family="Helvetica,sans-Serif" font-size="10.00" fill="#000000">sddk_api.cpp</text>
</a>
</g>
</g>
<!-- Node3&#45;&gt;Node27 -->
<g id="edge43" class="edge">
<title>Node3&#45;&gt;Node27</title>
<path fill="none" stroke="#191970" d="M414,-998.1575C414,-989.155 414,-978.9199 414,-971.6427"/>
<polygon fill="#191970" stroke="#191970" points="410.5001,-998.2455 414,-1008.2455 417.5001,-998.2456 410.5001,-998.2455"/>
</g>
<!-- Node5 -->
<g id="node5" class="node">
<title>Node5</title>
<g id="a_node5"><a xlink:href="../../de/d06/simulation__parameters_8hpp.html" target="_top" xlink:title="Contains definition and implementation of sirius::Simulation_parameters_base class. ">
<polygon fill="#ffffff" stroke="#000000" points="250.5,-896.5 250.5,-915.5 387.5,-915.5 387.5,-896.5 250.5,-896.5"/>
<text text-anchor="middle" x="319" y="-903.5" font-family="Helvetica,sans-Serif" font-size="10.00" fill="#000000">simulation_parameters.hpp</text>
</a>
</g>
</g>
<!-- Node4&#45;&gt;Node5 -->
<g id="edge4" class="edge">
<title>Node4&#45;&gt;Node5</title>
<path fill="none" stroke="#191970" d="M319,-942.1575C319,-933.155 319,-922.9199 319,-915.6427"/>
<polygon fill="#191970" stroke="#191970" points="315.5001,-942.2455 319,-952.2455 322.5001,-942.2456 315.5001,-942.2455"/>
</g>
<!-- Node4&#45;&gt;Node9 -->
<g id="edge41" class="edge">
<title>Node4&#45;&gt;Node9</title>
<path fill="none" stroke="#191970" d="M279.7717,-956.676C194.5306,-944.0078 0,-908.6704 0,-850 0,-850 0,-850 0,-178 0,-97.0951 125.1435,-74.1915 178.9161,-68.0845"/>
<polygon fill="#191970" stroke="#191970" points="279.4452,-960.1653 289.8452,-958.1428 280.4539,-953.2383 279.4452,-960.1653"/>
</g>
<!-- Node6 -->
<g id="node6" class="node">
<title>Node6</title>
<g id="a_node6"><a xlink:href="../../d1/db8/simulation__context_8hpp.html" target="_top" xlink:title="Contains definition and implementation of Simulation_context class. ">
<polygon fill="#ffffff" stroke="#000000" points="204.5,-448.5 204.5,-467.5 323.5,-467.5 323.5,-448.5 204.5,-448.5"/>
<text text-anchor="middle" x="264" y="-455.5" font-family="Helvetica,sans-Serif" font-size="10.00" fill="#000000">simulation_context.hpp</text>
</a>
</g>
</g>
<!-- Node5&#45;&gt;Node6 -->
<g id="edge5" class="edge">
<title>Node5&#45;&gt;Node6</title>
<path fill="none" stroke="#191970" d="M305.2823,-888.2281C278.5337,-851.7396 222,-764.8236 222,-682 222,-682 222,-682 222,-570 222,-529.9203 245.8717,-486.6153 257.6211,-467.7285"/>
<polygon fill="#191970" stroke="#191970" points="302.5939,-890.4772 311.3886,-896.3852 308.1977,-886.2823 302.5939,-890.4772"/>
</g>
<!-- Node20 -->
<g id="node20" class="node">
<title>Node20</title>
<g id="a_node20"><a xlink:href="../../db/df7/atom__type_8hpp.html" target="_top" xlink:title="Contains declaration and implementation of sirius::Atom_type class. ">
<polygon fill="#ffffff" stroke="#000000" points="339.5,-840.5 339.5,-859.5 422.5,-859.5 422.5,-840.5 339.5,-840.5"/>
<text text-anchor="middle" x="381" y="-847.5" font-family="Helvetica,sans-Serif" font-size="10.00" fill="#000000">atom_type.hpp</text>
</a>
</g>
</g>
<!-- Node5&#45;&gt;Node20 -->
<g id="edge27" class="edge">
<title>Node5&#45;&gt;Node20</title>
<path fill="none" stroke="#191970" d="M337.4221,-889.3607C348.1481,-879.6727 361.2934,-867.7995 370.3242,-859.6427"/>
<polygon fill="#191970" stroke="#191970" points="334.8746,-886.9453 329.7996,-896.2455 339.5666,-892.14 334.8746,-886.9453"/>
</g>
<!-- Node23 -->
<g id="node23" class="node">
<title>Node23</title>
<g id="a_node23"><a xlink:href="../../d4/d91/unit__cell_8hpp.html" target="_top" xlink:title="Contains definition and partial implementation of sirius::Unit_cell class. ">
<polygon fill="#ffffff" stroke="#000000" points="261.5,-672.5 261.5,-691.5 334.5,-691.5 334.5,-672.5 261.5,-672.5"/>
<text text-anchor="middle" x="298" y="-679.5" font-family="Helvetica,sans-Serif" font-size="10.00" fill="#000000">unit_cell.hpp</text>
</a>
</g>
</g>
<!-- Node5&#45;&gt;Node23 -->
<g id="edge40" class="edge">
<title>Node5&#45;&gt;Node23</title>
<path fill="none" stroke="#191970" d="M317.1636,-886.4119C312.8271,-840.1557 302.0776,-725.494 298.899,-691.5891"/>
<polygon fill="#191970" stroke="#191970" points="313.6794,-886.7454 318.0977,-896.375 320.6489,-886.0919 313.6794,-886.7454"/>
</g>
<!-- Node7 -->
<g id="node7" class="node">
<title>Node7</title>
<g id="a_node7"><a xlink:href="../../db/d74/hubbard_8hpp.html" target="_top" xlink:title="Contains declaration and partial implementation of sirius::Hubbard class. ">
<polygon fill="#ffffff" stroke="#000000" points="426.5,-392.5 426.5,-411.5 499.5,-411.5 499.5,-392.5 426.5,-392.5"/>
<text text-anchor="middle" x="463" y="-399.5" font-family="Helvetica,sans-Serif" font-size="10.00" fill="#000000">hubbard.hpp</text>
</a>
</g>
</g>
<!-- Node6&#45;&gt;Node7 -->
<g id="edge6" class="edge">
<title>Node6&#45;&gt;Node7</title>
<path fill="none" stroke="#191970" d="M308.1062,-445.5882C344.6677,-435.2996 395.8748,-420.8895 429.2371,-411.5011"/>
<polygon fill="#191970" stroke="#191970" points="306.8873,-442.2952 298.2093,-448.3733 308.7836,-449.0335 306.8873,-442.2952"/>
</g>
<!-- Node11 -->
<g id="node11" class="node">
<title>Node11</title>
<g id="a_node11"><a xlink:href="../../de/dec/hamiltonian_8hpp.html" target="_top" xlink:title="Contains declaration and definition of sirius::Hamiltonian class. ">
<polygon fill="#ffffff" stroke="#000000" points="304.5,-168.5 304.5,-187.5 391.5,-187.5 391.5,-168.5 304.5,-168.5"/>
<text text-anchor="middle" x="348" y="-175.5" font-family="Helvetica,sans-Serif" font-size="10.00" fill="#000000">hamiltonian.hpp</text>
</a>
</g>
</g>
<!-- Node6&#45;&gt;Node11 -->
<g id="edge13" class="edge">
<title>Node6&#45;&gt;Node11</title>
<path fill="none" stroke="#191970" d="M283.2,-441.5813C292.6076,-433.1458 303.8505,-422.4613 313,-412 369.3273,-347.5971 387.9419,-327.4103 407,-244 408.98,-235.3344 410.9007,-231.9873 407,-224 398.9635,-207.5439 381.8815,-195.2606 368.1561,-187.5457"/>
<polygon fill="#191970" stroke="#191970" points="280.6993,-439.1196 275.5039,-448.3531 285.3234,-444.3748 280.6993,-439.1196"/>
</g>
<!-- Node13 -->
<g id="node13" class="node">
<title>Node13</title>
<g id="a_node13"><a xlink:href="../../d3/d6a/periodic__function_8hpp.html" target="_top" xlink:title="Contains declaration and partial implementation of sirius::Periodic_function class. ">
<polygon fill="#ffffff" stroke="#000000" points="192,-392.5 192,-411.5 304,-411.5 304,-392.5 192,-392.5"/>
<text text-anchor="middle" x="248" y="-399.5" font-family="Helvetica,sans-Serif" font-size="10.00" fill="#000000">periodic_function.hpp</text>
</a>
</g>
</g>
<!-- Node6&#45;&gt;Node13 -->
<g id="edge14" class="edge">
<title>Node6&#45;&gt;Node13</title>
<path fill="none" stroke="#191970" d="M258.4154,-438.4538C255.823,-429.3803 252.8571,-418.9998 250.755,-411.6427"/>
<polygon fill="#191970" stroke="#191970" points="255.1004,-439.5919 261.213,-448.2455 261.8311,-437.6688 255.1004,-439.5919"/>
</g>
<!-- Node8 -->
<g id="node8" class="node">
<title>Node8</title>
<g id="a_node8"><a xlink:href="../../df/dc4/dft__ground__state_8hpp.html" target="_top" xlink:title="Contains definition and partial implementation of sirius::DFT_ground_state class. ...">
<polygon fill="#ffffff" stroke="#000000" points="92.5,-224.5 92.5,-243.5 203.5,-243.5 203.5,-224.5 92.5,-224.5"/>
<text text-anchor="middle" x="148" y="-231.5" font-family="Helvetica,sans-Serif" font-size="10.00" fill="#000000">dft_ground_state.hpp</text>
</a>
</g>
</g>
<!-- Node7&#45;&gt;Node8 -->
<g id="edge7" class="edge">
<title>Node7&#45;&gt;Node8</title>
<path fill="none" stroke="#191970" d="M439.8445,-386.7681C417.9569,-372.6954 383.9505,-351.6607 353,-336 316.0276,-317.2922 304.2854,-318.0759 267,-300 229.1606,-281.6555 186.4099,-256.913 163.8716,-243.5385"/>
<polygon fill="#191970" stroke="#191970" points="438.1432,-389.8363 448.4387,-392.3371 441.9499,-383.9618 438.1432,-389.8363"/>
</g>
<!-- Node7&#45;&gt;Node11 -->
<g id="edge10" class="edge">
<title>Node7&#45;&gt;Node11</title>
<path fill="none" stroke="#191970" d="M466.0135,-382.4492C470.3359,-347.2437 474.3656,-272.3593 440,-224 427.0698,-205.8046 404.8322,-194.4108 385.4593,-187.5147"/>
<polygon fill="#191970" stroke="#191970" points="462.5399,-382.0185 464.6482,-392.4014 469.475,-382.97 462.5399,-382.0185"/>
</g>
<!-- Node8&#45;&gt;Node9 -->
<g id="edge8" class="edge">
<title>Node8&#45;&gt;Node9</title>
<path fill="none" stroke="#191970" d="M154.3097,-214.7267C166.0647,-178.8207 190.9255,-102.8822 199.7825,-75.8279"/>
<polygon fill="#191970" stroke="#191970" points="150.8997,-213.8936 151.1146,-224.4862 157.5523,-216.0716 150.8997,-213.8936"/>
</g>
<!-- Node10 -->
<g id="node10" class="node">
<title>Node10</title>
<g id="a_node10"><a xlink:href="../../d4/d53/sirius__api_8cpp.html" target="_top" xlink:title="Fortran API. ">
<polygon fill="#ffffff" stroke="#000000" points="164,-.5 164,-19.5 242,-19.5 242,-.5 164,-.5"/>
<text text-anchor="middle" x="203" y="-7.5" font-family="Helvetica,sans-Serif" font-size="10.00" fill="#000000">sirius_api.cpp</text>
</a>
</g>
</g>
<!-- Node9&#45;&gt;Node10 -->
<g id="edge9" class="edge">
<title>Node9&#45;&gt;Node10</title>
<path fill="none" stroke="#191970" d="M203,-46.1575C203,-37.155 203,-26.9199 203,-19.6427"/>
<polygon fill="#191970" stroke="#191970" points="199.5001,-46.2455 203,-56.2455 206.5001,-46.2456 199.5001,-46.2455"/>
</g>
<!-- Node12 -->
<g id="node12" class="node">
<title>Node12</title>
<g id="a_node12"><a xlink:href="../../da/d3d/band_8hpp.html" target="_top" xlink:title="Contains declaration and partial implementation of sirius::Band class. ">
<polygon fill="#ffffff" stroke="#000000" points="203,-112.5 203,-131.5 261,-131.5 261,-112.5 203,-112.5"/>
<text text-anchor="middle" x="232" y="-119.5" font-family="Helvetica,sans-Serif" font-size="10.00" fill="#000000">band.hpp</text>
</a>
</g>
</g>
<!-- Node11&#45;&gt;Node12 -->
<g id="edge11" class="edge">
<title>Node11&#45;&gt;Node12</title>
<path fill="none" stroke="#191970" d="M318.9463,-163.9741C297.9435,-153.8348 270.1309,-140.408 251.6809,-131.5011"/>
<polygon fill="#191970" stroke="#191970" points="317.5317,-167.1776 328.0589,-168.3733 320.575,-160.8738 317.5317,-167.1776"/>
</g>
<!-- Node12&#45;&gt;Node9 -->
<g id="edge12" class="edge">
<title>Node12&#45;&gt;Node9</title>
<path fill="none" stroke="#191970" d="M222.3353,-103.3372C217.5313,-94.0605 211.9277,-83.2398 207.9935,-75.6427"/>
<polygon fill="#191970" stroke="#191970" points="219.242,-104.9751 226.9486,-112.2455 225.458,-101.7561 219.242,-104.9751"/>
</g>
<!-- Node13&#45;&gt;Node12 -->
<g id="edge15" class="edge">
<title>Node13&#45;&gt;Node12</title>
<path fill="none" stroke="#191970" d="M246.8637,-382.1153C243.6949,-326.6613 234.8423,-171.7405 232.5484,-131.5977"/>
<polygon fill="#191970" stroke="#191970" points="243.3844,-382.5778 247.4492,-392.3618 250.373,-382.1783 243.3844,-382.5778"/>
</g>
<!-- Node14 -->
<g id="node14" class="node">
<title>Node14</title>
<g id="a_node14"><a xlink:href="../../d0/d9a/density_8hpp.html" target="_top" xlink:title="Contains definition and partial implementation of sirius::Density class. ">
<polygon fill="#ffffff" stroke="#000000" points="276,-336.5 276,-355.5 344,-355.5 344,-336.5 276,-336.5"/>
<text text-anchor="middle" x="310" y="-343.5" font-family="Helvetica,sans-Serif" font-size="10.00" fill="#000000">density.hpp</text>
</a>
</g>
</g>
<!-- Node13&#45;&gt;Node14 -->
<g id="edge16" class="edge">
<title>Node13&#45;&gt;Node14</title>
<path fill="none" stroke="#191970" d="M266.4221,-385.3607C277.1481,-375.6727 290.2934,-363.7995 299.3242,-355.6427"/>
<polygon fill="#191970" stroke="#191970" points="263.8746,-382.9453 258.7996,-392.2455 268.5666,-388.14 263.8746,-382.9453"/>
</g>
<!-- Node17 -->
<g id="node17" class="node">
<title>Node17</title>
<g id="a_node17"><a xlink:href="../../d5/d72/non__local__functor_8hpp.html" target="_top" xlink:title="Common operation for forces and stress tensor. ">
<polygon fill="#ffffff" stroke="#000000" points="66.5,-336.5 66.5,-355.5 181.5,-355.5 181.5,-336.5 66.5,-336.5"/>
<text text-anchor="middle" x="124" y="-343.5" font-family="Helvetica,sans-Serif" font-size="10.00" fill="#000000">non_local_functor.hpp</text>
</a>
</g>
</g>
<!-- Node13&#45;&gt;Node17 -->
<g id="edge21" class="edge">
<title>Node13&#45;&gt;Node17</title>
<path fill="none" stroke="#191970" d="M217.5476,-388.2473C195.0278,-378.0771 164.9383,-364.4883 145.0382,-355.5011"/>
<polygon fill="#191970" stroke="#191970" points="216.1294,-391.4471 226.6836,-392.3733 219.0105,-385.0675 216.1294,-391.4471"/>
</g>
<!-- Node19 -->
<g id="node19" class="node">
<title>Node19</title>
<g id="a_node19"><a xlink:href="../../d6/d1e/force_8hpp.html" target="_top" xlink:title="Contains defintion and implementation of sirius::Force class. ">
<polygon fill="#ffffff" stroke="#000000" points="41,-280.5 41,-299.5 99,-299.5 99,-280.5 41,-280.5"/>
<text text-anchor="middle" x="70" y="-287.5" font-family="Helvetica,sans-Serif" font-size="10.00" fill="#000000">force.hpp</text>
</a>
</g>
</g>
<!-- Node13&#45;&gt;Node19 -->
<g id="edge26" class="edge">
<title>Node13&#45;&gt;Node19</title>
<path fill="none" stroke="#191970" d="M235.8636,-383.8705C225.2574,-369.2274 208.664,-348.9875 190,-336 174.9368,-325.5182 129.6834,-309.5134 99.2586,-299.4116"/>
<polygon fill="#191970" stroke="#191970" points="233.057,-385.9643 241.6588,-392.1498 238.7917,-381.9502 233.057,-385.9643"/>
</g>
<!-- Node15 -->
<g id="node15" class="node">
<title>Node15</title>
<g id="a_node15"><a xlink:href="../../de/df2/potential_8hpp.html" target="_top" xlink:title="Contains declaration and partial implementation of sirius::Potential class. ">
<polygon fill="#ffffff" stroke="#000000" points="276,-280.5 276,-299.5 350,-299.5 350,-280.5 276,-280.5"/>
<text text-anchor="middle" x="313" y="-287.5" font-family="Helvetica,sans-Serif" font-size="10.00" fill="#000000">potential.hpp</text>
</a>
</g>
</g>
<!-- Node14&#45;&gt;Node15 -->
<g id="edge17" class="edge">
<title>Node14&#45;&gt;Node15</title>
<path fill="none" stroke="#191970" d="M311.063,-326.1575C311.5453,-317.155 312.0936,-306.9199 312.4834,-299.6427"/>
<polygon fill="#191970" stroke="#191970" points="307.5626,-326.0726 310.5226,-336.2455 314.5526,-326.4471 307.5626,-326.0726"/>
</g>
<!-- Node15&#45;&gt;Node11 -->
<g id="edge18" class="edge">
<title>Node15&#45;&gt;Node11</title>
<path fill="none" stroke="#191970" d="M298.6276,-271.9317C289.7343,-258.4246 281.349,-239.6667 289,-224 297.0365,-207.5439 314.1185,-195.2606 327.8439,-187.5457"/>
<polygon fill="#191970" stroke="#191970" points="295.9951,-274.2659 304.6748,-280.3414 301.6783,-270.1792 295.9951,-274.2659"/>
</g>
<!-- Node16 -->
<g id="node16" class="node">
<title>Node16</title>
<g id="a_node16"><a xlink:href="../../d3/d2c/local__operator_8hpp.html" target="_top" xlink:title="Contains declaration and implementation of sirius::Local_operator class. ">
<polygon fill="#ffffff" stroke="#000000" points="298.5,-224.5 298.5,-243.5 397.5,-243.5 397.5,-224.5 298.5,-224.5"/>
<text text-anchor="middle" x="348" y="-231.5" font-family="Helvetica,sans-Serif" font-size="10.00" fill="#000000">local_operator.hpp</text>
</a>
</g>
</g>
<!-- Node15&#45;&gt;Node16 -->
<g id="edge19" class="edge">
<title>Node15&#45;&gt;Node16</title>
<path fill="none" stroke="#191970" d="M324.4815,-271.6296C330.3196,-262.2887 337.1752,-251.3197 341.9733,-243.6427"/>
<polygon fill="#191970" stroke="#191970" points="321.4286,-269.9105 319.0965,-280.2455 327.3646,-273.6206 321.4286,-269.9105"/>
</g>
<!-- Node16&#45;&gt;Node11 -->
<g id="edge20" class="edge">
<title>Node16&#45;&gt;Node11</title>
<path fill="none" stroke="#191970" d="M348,-214.1575C348,-205.155 348,-194.9199 348,-187.6427"/>
<polygon fill="#191970" stroke="#191970" points="344.5001,-214.2455 348,-224.2455 351.5001,-214.2456 344.5001,-214.2455"/>
</g>
<!-- Node18 -->
<g id="node18" class="node">
<title>Node18</title>
<g id="a_node18"><a xlink:href="../../d7/dd1/stress_8hpp.html" target="_top" xlink:title="Stress tensor calculation. ">
<polygon fill="#ffffff" stroke="#000000" points="117.5,-280.5 117.5,-299.5 180.5,-299.5 180.5,-280.5 117.5,-280.5"/>
<text text-anchor="middle" x="149" y="-287.5" font-family="Helvetica,sans-Serif" font-size="10.00" fill="#000000">stress.hpp</text>
</a>
</g>
</g>
<!-- Node17&#45;&gt;Node18 -->
<g id="edge22" class="edge">
<title>Node17&#45;&gt;Node18</title>
<path fill="none" stroke="#191970" d="M132.4626,-327.0437C136.5745,-317.8331 141.3394,-307.1598 144.6952,-299.6427"/>
<polygon fill="#191970" stroke="#191970" points="129.2352,-325.6874 128.3547,-336.2455 135.6272,-328.541 129.2352,-325.6874"/>
</g>
<!-- Node17&#45;&gt;Node19 -->
<g id="edge24" class="edge">
<title>Node17&#45;&gt;Node19</title>
<path fill="none" stroke="#191970" d="M107.4031,-328.7884C98.1653,-319.2085 87.0096,-307.6396 79.2983,-299.6427"/>
<polygon fill="#191970" stroke="#191970" points="105.1331,-331.4766 114.5939,-336.2455 110.172,-326.6176 105.1331,-331.4766"/>
</g>
<!-- Node18&#45;&gt;Node8 -->
<g id="edge23" class="edge">
<title>Node18&#45;&gt;Node8</title>
<path fill="none" stroke="#191970" d="M148.6457,-270.1575C148.4849,-261.155 148.3021,-250.9199 148.1722,-243.6427"/>
<polygon fill="#191970" stroke="#191970" points="145.1477,-270.3097 148.8258,-280.2455 152.1466,-270.1846 145.1477,-270.3097"/>
</g>
<!-- Node19&#45;&gt;Node8 -->
<g id="edge25" class="edge">
<title>Node19&#45;&gt;Node8</title>
<path fill="none" stroke="#191970" d="M91.9936,-274.2097C105.6929,-264.3743 122.8736,-252.0394 134.5691,-243.6427"/>
<polygon fill="#191970" stroke="#191970" points="89.6686,-271.5703 83.5866,-280.2455 93.7511,-277.2566 89.6686,-271.5703"/>
</g>
<!-- Node21 -->
<g id="node21" class="node">
<title>Node21</title>
<g id="a_node21"><a xlink:href="../../d6/d50/atom__symmetry__class_8hpp.html" target="_top" xlink:title="Contains declaration and partial implementation of sirius::Atom_symmetry_class class. ">
<polygon fill="#ffffff" stroke="#000000" points="326.5,-784.5 326.5,-803.5 461.5,-803.5 461.5,-784.5 326.5,-784.5"/>
<text text-anchor="middle" x="394" y="-791.5" font-family="Helvetica,sans-Serif" font-size="10.00" fill="#000000">atom_symmetry_class.hpp</text>
</a>
</g>
</g>
<!-- Node20&#45;&gt;Node21 -->
<g id="edge28" class="edge">
<title>Node20&#45;&gt;Node21</title>
<path fill="none" stroke="#191970" d="M385.5375,-830.4538C387.6439,-821.3803 390.0536,-810.9998 391.7615,-803.6427"/>
<polygon fill="#191970" stroke="#191970" points="382.1165,-829.7131 383.2644,-840.2455 388.9351,-831.2961 382.1165,-829.7131"/>
</g>
<!-- Node21&#45;&gt;Node22 -->
<g id="edge29" class="edge">
<title>Node21&#45;&gt;Node22</title>
<path fill="none" stroke="#191970" d="M394,-774.1575C394,-765.155 394,-754.9199 394,-747.6427"/>
<polygon fill="#191970" stroke="#191970" points="390.5001,-774.2455 394,-784.2455 397.5001,-774.2456 390.5001,-774.2455"/>
</g>
<!-- Node22&#45;&gt;Node23 -->
<g id="edge30" class="edge">
<title>Node22&#45;&gt;Node23</title>
<path fill="none" stroke="#191970" d="M368.3654,-723.0465C351.2841,-713.0824 329.336,-700.2794 314.5303,-691.6427"/>
<polygon fill="#191970" stroke="#191970" points="366.8767,-726.23 377.2781,-728.2455 370.4038,-720.1836 366.8767,-726.23"/>
</g>
<!-- Node24 -->
<g id="node24" class="node">
<title>Node24</title>
<g id="a_node24"><a xlink:href="../../d4/df7/radial__integrals_8hpp.html" target="_top" xlink:title="Representation of various radial integrals. ">
<polygon fill="#ffffff" stroke="#000000" points="250,-560.5 250,-579.5 354,-579.5 354,-560.5 250,-560.5"/>
<text text-anchor="middle" x="302" y="-567.5" font-family="Helvetica,sans-Serif" font-size="10.00" fill="#000000">radial_integrals.hpp</text>
</a>
</g>
</g>
<!-- Node23&#45;&gt;Node24 -->
<g id="edge31" class="edge">
<title>Node23&#45;&gt;Node24</title>
<path fill="none" stroke="#191970" d="M297.5488,-661.939C297.3658,-648.8537 297.3314,-631.4059 298,-616 298.5422,-603.5064 299.9089,-589.1578 300.894,-579.8544"/>
<polygon fill="#191970" stroke="#191970" points="294.0532,-662.2193 297.7339,-672.1542 301.0521,-662.0924 294.0532,-662.2193"/>
</g>
<!-- Node26 -->
<g id="node26" class="node">
<title>Node26</title>
<g id="a_node26"><a xlink:href="../../d1/d2b/sbessel_8hpp.html" target="_top" xlink:title="Contains implementation of sirius::Spherical_Bessel_functions classe. ">
<polygon fill="#ffffff" stroke="#000000" points="307,-616.5 307,-635.5 377,-635.5 377,-616.5 307,-616.5"/>
<text text-anchor="middle" x="342" y="-623.5" font-family="Helvetica,sans-Serif" font-size="10.00" fill="#000000">sbessel.hpp</text>
</a>
</g>
</g>
<!-- Node23&#45;&gt;Node26 -->
<g id="edge38" class="edge">
<title>Node23&#45;&gt;Node26</title>
<path fill="none" stroke="#191970" d="M311.9769,-664.2112C319.4129,-654.7472 328.266,-643.4797 334.4236,-635.6427"/>
<polygon fill="#191970" stroke="#191970" points="309.0903,-662.22 305.6642,-672.2455 314.5946,-666.5447 309.0903,-662.22"/>
</g>
<!-- Node24&#45;&gt;Node6 -->
<g id="edge37" class="edge">
<title>Node24&#45;&gt;Node6</title>
<path fill="none" stroke="#191970" d="M295.5282,-550.9253C287.3185,-526.7284 273.4788,-485.9376 267.2317,-467.5249"/>
<polygon fill="#191970" stroke="#191970" points="292.2327,-552.1057 298.7601,-560.4509 298.8615,-549.8566 292.2327,-552.1057"/>
</g>
<!-- Node24&#45;&gt;Node7 -->
<g id="edge36" class="edge">
<title>Node24&#45;&gt;Node7</title>
<path fill="none" stroke="#191970" d="M318.2998,-552.9915C351.7216,-518.1166 427.0958,-439.4652 453.5816,-411.8279"/>
<polygon fill="#191970" stroke="#191970" points="315.5095,-550.8446 311.1174,-560.4862 320.5634,-555.688 315.5095,-550.8446"/>
</g>
<!-- Node25 -->
<g id="node25" class="node">
<title>Node25</title>
<g id="a_node25"><a xlink:href="../../d3/d1c/augmentation__operator_8hpp.html" target="_top" xlink:title="Contains implementation of sirius::Augmentation_operator class. ">
<polygon fill="#ffffff" stroke="#000000" points="54.5,-504.5 54.5,-523.5 193.5,-523.5 193.5,-504.5 54.5,-504.5"/>
<text text-anchor="middle" x="124" y="-511.5" font-family="Helvetica,sans-Serif" font-size="10.00" fill="#000000">augmentation_operator.hpp</text>
</a>
</g>
</g>
<!-- Node24&#45;&gt;Node25 -->
<g id="edge32" class="edge">
<title>Node24&#45;&gt;Node25</title>
<path fill="none" stroke="#191970" d="M261.7069,-557.3235C229.0632,-547.0536 183.7866,-532.8093 154.2,-523.5011"/>
<polygon fill="#191970" stroke="#191970" points="260.8113,-560.7108 271.4007,-560.3733 262.912,-554.0335 260.8113,-560.7108"/>
</g>
<!-- Node25&#45;&gt;Node6 -->
<g id="edge35" class="edge">
<title>Node25&#45;&gt;Node6</title>
<path fill="none" stroke="#191970" d="M157.3649,-500.6541C182.8952,-490.4419 217.4784,-476.6086 240.2472,-467.5011"/>
<polygon fill="#191970" stroke="#191970" points="156.0517,-497.4096 148.0669,-504.3733 158.6515,-503.909 156.0517,-497.4096"/>
</g>
<!-- Node25&#45;&gt;Node17 -->
<g id="edge33" class="edge">
<title>Node25&#45;&gt;Node17</title>
<path fill="none" stroke="#191970" d="M124,-494.2601C124,-458.1669 124,-382.7656 124,-355.8279"/>
<polygon fill="#191970" stroke="#191970" points="120.5001,-494.4862 124,-504.4862 127.5001,-494.4863 120.5001,-494.4862"/>
</g>
<!-- Node25&#45;&gt;Node19 -->
<g id="edge34" class="edge">
<title>Node25&#45;&gt;Node19</title>
<path fill="none" stroke="#191970" d="M113.277,-495.5761C97.2647,-466.8857 67.8303,-409.2815 57,-356 52.9523,-336.0866 60.4126,-312.7526 65.6072,-299.8474"/>
<polygon fill="#191970" stroke="#191970" points="110.3443,-497.4995 118.3284,-504.464 116.43,-494.0406 110.3443,-497.4995"/>
</g>
<!-- Node26&#45;&gt;Node24 -->
<g id="edge39" class="edge">
<title>Node26&#45;&gt;Node24</title>
<path fill="none" stroke="#191970" d="M329.0864,-607.9209C322.3697,-598.5176 314.4283,-587.3997 308.8876,-579.6427"/>
<polygon fill="#191970" stroke="#191970" points="326.372,-610.1425 335.0325,-616.2455 332.0682,-606.0738 326.372,-610.1425"/>
</g>
<!-- Node28&#45;&gt;Node2 -->
<g id="edge48" class="edge">
<title>Node28&#45;&gt;Node2</title>
<path fill="none" stroke="#191970" d="M422.2271,-1113.0751C432.0341,-1103.4402 443.964,-1091.7196 452.1851,-1083.6427"/>
<polygon fill="#191970" stroke="#191970" points="419.6091,-1110.7406 414.9286,-1120.2455 424.5149,-1115.734 419.6091,-1110.7406"/>
</g>
<!-- Node28&#45;&gt;Node3 -->
<g id="edge51" class="edge">
<title>Node28&#45;&gt;Node3</title>
<path fill="none" stroke="#191970" d="M406.5854,-1110.2702C408.5358,-1085.9985 411.7683,-1045.7725 413.2346,-1027.5249"/>
<polygon fill="#191970" stroke="#191970" points="403.0797,-1110.2027 405.7673,-1120.4509 410.0572,-1110.7635 403.0797,-1110.2027"/>
</g>
<!-- Node29 -->
<g id="node29" class="node">
<title>Node29</title>
<g id="a_node29"><a xlink:href="../../d8/d7a/unit__cell__symmetry_8hpp.html" target="_top" xlink:title="Contains definition and implementation of sirius::Unit_cell_symmetry class. ">
<polygon fill="#ffffff" stroke="#000000" points="167,-1008.5 167,-1027.5 289,-1027.5 289,-1008.5 167,-1008.5"/>
<text text-anchor="middle" x="228" y="-1015.5" font-family="Helvetica,sans-Serif" font-size="10.00" fill="#000000">unit_cell_symmetry.hpp</text>
</a>
</g>
</g>
<!-- Node28&#45;&gt;Node29 -->
<g id="edge46" class="edge">
<title>Node28&#45;&gt;Node29</title>
<path fill="none" stroke="#191970" d="M366.2291,-1124.6293C336.4282,-1118.8409 295.646,-1107.1374 267,-1084 248.1561,-1068.7797 236.394,-1041.8423 231.1686,-1027.5408"/>
<polygon fill="#191970" stroke="#191970" points="365.812,-1128.1104 376.2742,-1126.4391 367.0532,-1121.2213 365.812,-1128.1104"/>
</g>
<!-- Node30 -->
<g id="node30" class="node">
<title>Node30</title>
<g id="a_node30"><a xlink:href="../../db/d11/matrix__storage_8hpp.html" target="_top" xlink:title="Contains definition and implementaiton of sddk::matrix_storage class. ">
<polygon fill="#ffffff" stroke="#000000" points="276,-1064.5 276,-1083.5 378,-1083.5 378,-1064.5 276,-1064.5"/>
<text text-anchor="middle" x="327" y="-1071.5" font-family="Helvetica,sans-Serif" font-size="10.00" fill="#000000">matrix_storage.hpp</text>
</a>
</g>
</g>
<!-- Node28&#45;&gt;Node30 -->
<g id="edge49" class="edge">
<title>Node28&#45;&gt;Node30</title>
<path fill="none" stroke="#191970" d="M383.0064,-1114.2097C369.3071,-1104.3743 352.1264,-1092.0394 340.4309,-1083.6427"/>
<polygon fill="#191970" stroke="#191970" points="381.2489,-1117.2566 391.4134,-1120.2455 385.3314,-1111.5703 381.2489,-1117.2566"/>
</g>
<!-- Node29&#45;&gt;Node23 -->
<g id="edge47" class="edge">
<title>Node29&#45;&gt;Node23</title>
<path fill="none" stroke="#191970" d="M226.2984,-998.2124C224.5245,-975.8453 222,-938.3347 222,-906 222,-906 222,-906 222,-850 222,-784.3748 270.735,-716.1223 290.1529,-691.5326"/>
<polygon fill="#191970" stroke="#191970" points="222.8302,-998.7424 227.1403,-1008.4209 229.8065,-998.167 222.8302,-998.7424"/>
</g>
<!-- Node30&#45;&gt;Node3 -->
<g id="edge50" class="edge">
<title>Node30&#45;&gt;Node3</title>
<path fill="none" stroke="#191970" d="M350.6625,-1058.769C366.0791,-1048.8456 385.726,-1036.1994 399.0194,-1027.6427"/>
<polygon fill="#191970" stroke="#191970" points="348.6685,-1055.89 342.1542,-1064.2455 352.4573,-1061.7761 348.6685,-1055.89"/>
</g>
</g>
</svg>
