<?xml version="1.0" encoding="UTF-8" standalone="no"?>
<!DOCTYPE svg PUBLIC "-//W3C//DTD SVG 1.1//EN"
 "http://www.w3.org/Graphics/SVG/1.1/DTD/svg11.dtd">
<!-- Generated by graphviz version 2.40.1 (20161225.0304)
 -->
<!-- Title: potential.h Pages: 1 -->
<svg width="2354pt" height="688pt"
 viewBox="0.00 0.00 2353.50 688.00" xmlns="http://www.w3.org/2000/svg" xmlns:xlink="http://www.w3.org/1999/xlink">
<g id="graph0" class="graph" transform="scale(1 1) rotate(0) translate(4 684)">
<title>potential.h</title>
<polygon fill="#ffffff" stroke="transparent" points="-4,4 -4,-684 2349.5,-684 2349.5,4 -4,4"/>
<!-- Node0 -->
<g id="node1" class="node">
<title>Node0</title>
<polygon fill="#bfbfbf" stroke="#000000" points="1679.5,-660.5 1679.5,-679.5 1742.5,-679.5 1742.5,-660.5 1679.5,-660.5"/>
<text text-anchor="middle" x="1711" y="-667.5" font-family="Helvetica,sans-Serif" font-size="10.00" fill="#000000">potential.h</text>
</g>
<!-- Node1 -->
<g id="node2" class="node">
<title>Node1</title>
<g id="a_node2"><a xlink:href="../../d8/d65/periodic__function_8h.html" target="_top" xlink:title="Contains declaration and partial implementation of sirius::Periodic_function class. ">
<polygon fill="#ffffff" stroke="#000000" points="1216,-414.5 1216,-433.5 1316,-433.5 1316,-414.5 1216,-414.5"/>
<text text-anchor="middle" x="1266" y="-421.5" font-family="Helvetica,sans-Serif" font-size="10.00" fill="#000000">periodic_function.h</text>
</a>
</g>
</g>
<!-- Node0&#45;&gt;Node1 -->
<g id="edge1" class="edge">
<title>Node0&#45;&gt;Node1</title>
<path fill="none" stroke="#191970" d="M1679.3214,-664.6766C1653.5429,-658.8155 1617.8147,-646.9893 1595,-624 1562.0934,-590.8416 1590.5695,-558.487 1557,-526 1493.5531,-464.599 1391.0768,-439.9773 1326.1939,-430.2297"/>
<polygon fill="#191970" stroke="#191970" points="1326.5097,-426.7394 1316.1151,-428.7897 1325.5195,-433.669 1326.5097,-426.7394"/>
</g>
<!-- Node2 -->
<g id="node3" class="node">
<title>Node2</title>
<g id="a_node3"><a xlink:href="../../d5/d5b/simulation__context_8h.html" target="_top" xlink:title="Contains definition and implementation of Simulation_parameters and Simulation_context classes...">
<polygon fill="#ffffff" stroke="#000000" points="1070,-358.5 1070,-377.5 1178,-377.5 1178,-358.5 1070,-358.5"/>
<text text-anchor="middle" x="1124" y="-365.5" font-family="Helvetica,sans-Serif" font-size="10.00" fill="#000000">simulation_context.h</text>
</a>
</g>
</g>
<!-- Node0&#45;&gt;Node2 -->
<g id="edge41" class="edge">
<title>Node0&#45;&gt;Node2</title>
<path fill="none" stroke="#191970" d="M1679.4416,-669.2839C1449.2814,-663.8608 38,-627.1169 38,-541.5 38,-541.5 38,-541.5 38,-480 38,-428.3186 826.4778,-383.3941 1059.7428,-371.2344"/>
<polygon fill="#191970" stroke="#191970" points="1059.9684,-374.7275 1069.7735,-370.7139 1059.6056,-367.7369 1059.9684,-374.7275"/>
</g>
<!-- Node108 -->
<g id="node17" class="node">
<title>Node108</title>
<g id="a_node17"><a xlink:href="../../db/d16/spheric__function_8h.html" target="_top" xlink:title="Contains declaration and implementation of sirius::Spheric_function and sirius::Spheric_function_grad...">
<polygon fill="#ffffff" stroke="#000000" points="753,-358.5 753,-377.5 851,-377.5 851,-358.5 753,-358.5"/>
<text text-anchor="middle" x="802" y="-365.5" font-family="Helvetica,sans-Serif" font-size="10.00" fill="#000000">spheric_function.h</text>
</a>
</g>
</g>
<!-- Node0&#45;&gt;Node108 -->
<g id="edge40" class="edge">
<title>Node0&#45;&gt;Node108</title>
<path fill="none" stroke="#191970" d="M1679.4865,-669.5463C1479.1741,-666.5915 387.14,-649.4104 241,-624 129.4603,-604.6058 0,-654.7132 0,-541.5 0,-541.5 0,-541.5 0,-480 0,-405.0172 556.988,-377.2268 742.6144,-370.0471"/>
<polygon fill="#191970" stroke="#191970" points="742.8783,-373.5397 752.738,-369.6618 742.6121,-366.5448 742.8783,-373.5397"/>
</g>
<!-- Node123 -->
<g id="node31" class="node">
<title>Node123</title>
<g id="a_node31"><a xlink:href="../../d2/dcb/density_8h.html" target="_top" xlink:title="Contains definition and partial implementation of sirius::Density class. ">
<polygon fill="#ffffff" stroke="#000000" points="997.5,-599 997.5,-618 1054.5,-618 1054.5,-599 997.5,-599"/>
<text text-anchor="middle" x="1026" y="-606" font-family="Helvetica,sans-Serif" font-size="10.00" fill="#000000">density.h</text>
</a>
</g>
</g>
<!-- Node0&#45;&gt;Node123 -->
<g id="edge42" class="edge">
<title>Node0&#45;&gt;Node123</title>
<path fill="none" stroke="#191970" d="M1679.3348,-667.1571C1566.9676,-657.0686 1187.5215,-623.0016 1064.7056,-611.975"/>
<polygon fill="#191970" stroke="#191970" points="1064.9068,-608.4791 1054.6339,-611.0708 1064.2808,-615.4511 1064.9068,-608.4791"/>
</g>
<!-- Node145 -->
<g id="node45" class="node">
<title>Node145</title>
<g id="a_node45"><a xlink:href="../../dd/ded/init_8hpp_source.html" target="_top" xlink:title="Potential/init.hpp">
<polygon fill="#ffffff" stroke="#000000" points="1604,-599 1604,-618 1694,-618 1694,-599 1604,-599"/>
<text text-anchor="middle" x="1649" y="-606" font-family="Helvetica,sans-Serif" font-size="10.00" fill="#000000">Potential/init.hpp</text>
</a>
</g>
</g>
<!-- Node0&#45;&gt;Node145 -->
<g id="edge61" class="edge">
<title>Node0&#45;&gt;Node145</title>
<path fill="none" stroke="#191970" d="M1701.3125,-660.3906C1691.9041,-651.0581 1677.4193,-636.6902 1666.0751,-625.4374"/>
<polygon fill="#191970" stroke="#191970" points="1668.3886,-622.8024 1658.8241,-618.2449 1663.4589,-627.7722 1668.3886,-622.8024"/>
</g>
<!-- Node146 -->
<g id="node46" class="node">
<title>Node146</title>
<g id="a_node46"><a xlink:href="../../d9/d3d/generate__d__operator__matrix_8hpp.html" target="_top" xlink:title="Contains implementation of sirius::Potential::generate_D_operator_matrix method. ">
<polygon fill="#ffffff" stroke="#000000" points="1712.5,-593.5 1712.5,-623.5 1835.5,-623.5 1835.5,-593.5 1712.5,-593.5"/>
<text text-anchor="start" x="1720.5" y="-611.5" font-family="Helvetica,sans-Serif" font-size="10.00" fill="#000000">Potential/generate</text>
<text text-anchor="middle" x="1774" y="-600.5" font-family="Helvetica,sans-Serif" font-size="10.00" fill="#000000">_d_operator_matrix.hpp</text>
</a>
</g>
</g>
<!-- Node0&#45;&gt;Node146 -->
<g id="edge62" class="edge">
<title>Node0&#45;&gt;Node146</title>
<path fill="none" stroke="#191970" d="M1720.8438,-660.3906C1728.9753,-652.4527 1740.8386,-640.8718 1751.2959,-630.6635"/>
<polygon fill="#191970" stroke="#191970" points="1753.8776,-633.0345 1758.5885,-623.5446 1748.9878,-628.0255 1753.8776,-633.0345"/>
</g>
<!-- Node147 -->
<g id="node47" class="node">
<title>Node147</title>
<g id="a_node47"><a xlink:href="../../de/d98/generate__pw__coefs_8hpp_source.html" target="_top" xlink:title="Potential/generate\l_pw_coefs.hpp">
<polygon fill="#ffffff" stroke="#000000" points="1854,-593.5 1854,-623.5 1952,-623.5 1952,-593.5 1854,-593.5"/>
<text text-anchor="start" x="1862" y="-611.5" font-family="Helvetica,sans-Serif" font-size="10.00" fill="#000000">Potential/generate</text>
<text text-anchor="middle" x="1903" y="-600.5" font-family="Helvetica,sans-Serif" font-size="10.00" fill="#000000">_pw_coefs.hpp</text>
</a>
</g>
</g>
<!-- Node0&#45;&gt;Node147 -->
<g id="edge63" class="edge">
<title>Node0&#45;&gt;Node147</title>
<path fill="none" stroke="#191970" d="M1741,-660.3906C1769.03,-651.4123 1811.6095,-637.7735 1846.0818,-626.7316"/>
<polygon fill="#191970" stroke="#191970" points="1847.5758,-629.9283 1856.0315,-623.5446 1845.4405,-623.2619 1847.5758,-629.9283"/>
</g>
<!-- Node148 -->
<g id="node48" class="node">
<title>Node148</title>
<g id="a_node48"><a xlink:href="../../d3/d59/xc_8hpp_source.html" target="_top" xlink:title="Potential/xc.hpp">
<polygon fill="#ffffff" stroke="#000000" points="1970,-599 1970,-618 2058,-618 2058,-599 1970,-599"/>
<text text-anchor="middle" x="2014" y="-606" font-family="Helvetica,sans-Serif" font-size="10.00" fill="#000000">Potential/xc.hpp</text>
</a>
</g>
</g>
<!-- Node0&#45;&gt;Node148 -->
<g id="edge64" class="edge">
<title>Node0&#45;&gt;Node148</title>
<path fill="none" stroke="#191970" d="M1742.7892,-665.2227C1790.4906,-657.8129 1883.2851,-642.4624 1961,-624 1965.0923,-623.0278 1969.3387,-621.9336 1973.5661,-620.7877"/>
<polygon fill="#191970" stroke="#191970" points="1974.6312,-624.1241 1983.3143,-618.0533 1972.7406,-617.3842 1974.6312,-624.1241"/>
</g>
<!-- Node149 -->
<g id="node49" class="node">
<title>Node149</title>
<g id="a_node49"><a xlink:href="../../df/d0f/poisson_8hpp_source.html" target="_top" xlink:title="Potential/poisson.hpp">
<polygon fill="#ffffff" stroke="#000000" points="2076,-599 2076,-618 2188,-618 2188,-599 2076,-599"/>
<text text-anchor="middle" x="2132" y="-606" font-family="Helvetica,sans-Serif" font-size="10.00" fill="#000000">Potential/poisson.hpp</text>
</a>
</g>
</g>
<!-- Node0&#45;&gt;Node149 -->
<g id="edge65" class="edge">
<title>Node0&#45;&gt;Node149</title>
<path fill="none" stroke="#191970" d="M1742.6037,-667.0483C1804.9554,-660.9756 1948.0818,-645.7987 2067,-624 2072.8481,-622.928 2078.9598,-621.664 2084.9951,-620.3278"/>
<polygon fill="#191970" stroke="#191970" points="2086.0536,-623.6761 2095.02,-618.0322 2084.4911,-616.8527 2086.0536,-623.6761"/>
</g>
<!-- Node150 -->
<g id="node50" class="node">
<title>Node150</title>
<g id="a_node50"><a xlink:href="../../d6/d77/paw__potential_8hpp_source.html" target="_top" xlink:title="Potential/paw_potential.hpp">
<polygon fill="#ffffff" stroke="#000000" points="2206.5,-599 2206.5,-618 2345.5,-618 2345.5,-599 2206.5,-599"/>
<text text-anchor="middle" x="2276" y="-606" font-family="Helvetica,sans-Serif" font-size="10.00" fill="#000000">Potential/paw_potential.hpp</text>
</a>
</g>
</g>
<!-- Node0&#45;&gt;Node150 -->
<g id="edge66" class="edge">
<title>Node0&#45;&gt;Node150</title>
<path fill="none" stroke="#191970" d="M1742.6865,-668.0955C1820.3962,-663.1871 2026.5256,-648.729 2197,-624 2204.9653,-622.8446 2213.3445,-621.4246 2221.5484,-619.9177"/>
<polygon fill="#191970" stroke="#191970" points="2222.2537,-623.3464 2231.4287,-618.0483 2220.9523,-616.4684 2222.2537,-623.3464"/>
</g>
<!-- Node1&#45;&gt;Node2 -->
<g id="edge2" class="edge">
<title>Node1&#45;&gt;Node2</title>
<path fill="none" stroke="#191970" d="M1241.5893,-414.3733C1218.3858,-405.2226 1183.2962,-391.3844 1157.4858,-381.2057"/>
<polygon fill="#191970" stroke="#191970" points="1158.6789,-377.9139 1148.0921,-377.5011 1156.1108,-384.4258 1158.6789,-377.9139"/>
</g>
<!-- Node1&#45;&gt;Node108 -->
<g id="edge23" class="edge">
<title>Node1&#45;&gt;Node108</title>
<path fill="none" stroke="#191970" d="M1215.903,-417.9538C1129.621,-407.5405 953.3836,-386.2704 861.1923,-375.1439"/>
<polygon fill="#191970" stroke="#191970" points="861.5351,-371.66 851.1877,-373.9365 860.6963,-378.6095 861.5351,-371.66"/>
</g>
<!-- Node122 -->
<g id="node30" class="node">
<title>Node122</title>
<g id="a_node30"><a xlink:href="../../d8/d1b/smooth__periodic__function_8h.html" target="_top" xlink:title="Contains declaration and implementation of sirius::Smooth_periodic_function and sirius::Smooth_period...">
<polygon fill="#ffffff" stroke="#000000" points="1196.5,-358.5 1196.5,-377.5 1335.5,-377.5 1335.5,-358.5 1196.5,-358.5"/>
<text text-anchor="middle" x="1266" y="-365.5" font-family="Helvetica,sans-Serif" font-size="10.00" fill="#000000">smooth_periodic_function.h</text>
</a>
</g>
</g>
<!-- Node1&#45;&gt;Node122 -->
<g id="edge39" class="edge">
<title>Node1&#45;&gt;Node122</title>
<path fill="none" stroke="#191970" d="M1266,-414.2455C1266,-406.9382 1266,-396.6944 1266,-387.7046"/>
<polygon fill="#191970" stroke="#191970" points="1269.5001,-387.6426 1266,-377.6427 1262.5001,-387.6427 1269.5001,-387.6426"/>
</g>
<!-- Node3 -->
<g id="node4" class="node">
<title>Node3</title>
<g id="a_node4"><a xlink:href="../../de/df0/simulation__context__base_8h.html" target="_top" xlink:title="Contains definition and implementation of Simulation_context_base class. ">
<polygon fill="#ffffff" stroke="#000000" points="1120.5,-224.5 1120.5,-254.5 1219.5,-254.5 1219.5,-224.5 1120.5,-224.5"/>
<text text-anchor="start" x="1128.5" y="-242.5" font-family="Helvetica,sans-Serif" font-size="10.00" fill="#000000">simulation_context</text>
<text text-anchor="middle" x="1170" y="-231.5" font-family="Helvetica,sans-Serif" font-size="10.00" fill="#000000">_base.h</text>
</a>
</g>
</g>
<!-- Node2&#45;&gt;Node3 -->
<g id="edge3" class="edge">
<title>Node2&#45;&gt;Node3</title>
<path fill="none" stroke="#191970" d="M1113.9267,-358.2705C1099.821,-343.4162 1077.2628,-314.3478 1090,-291 1097.1987,-277.8046 1109.3882,-267.4828 1122.1107,-259.6591"/>
<polygon fill="#191970" stroke="#191970" points="1123.9836,-262.6205 1130.949,-254.6371 1120.5254,-256.5343 1123.9836,-262.6205"/>
</g>
<!-- Node4 -->
<g id="node5" class="node">
<title>Node4</title>
<g id="a_node5"><a xlink:href="../../df/dfc/version_8h_source.html" target="_top" xlink:title="version.h">
<polygon fill="#ffffff" stroke="#000000" points="1005.5,-168.5 1005.5,-187.5 1062.5,-187.5 1062.5,-168.5 1005.5,-168.5"/>
<text text-anchor="middle" x="1034" y="-175.5" font-family="Helvetica,sans-Serif" font-size="10.00" fill="#000000">version.h</text>
</a>
</g>
</g>
<!-- Node2&#45;&gt;Node4 -->
<g id="edge19" class="edge">
<title>Node2&#45;&gt;Node4</title>
<path fill="none" stroke="#191970" d="M1112.9574,-358.4114C1103.5682,-349.7342 1090.322,-336.1753 1082,-322 1057.9726,-281.0729 1043.9962,-226.4639 1037.8203,-197.678"/>
<polygon fill="#191970" stroke="#191970" points="1041.2059,-196.7649 1035.768,-187.6721 1034.3487,-198.1715 1041.2059,-196.7649"/>
</g>
<!-- Node63 -->
<g id="node9" class="node">
<title>Node63</title>
<g id="a_node9"><a xlink:href="../../d1/d76/mpi__grid_8hpp.html" target="_top" xlink:title="Contains declaration and implementation of MPI_grid class. ">
<polygon fill="#ffffff" stroke="#000000" points="1229,-168.5 1229,-187.5 1303,-187.5 1303,-168.5 1229,-168.5"/>
<text text-anchor="middle" x="1266" y="-175.5" font-family="Helvetica,sans-Serif" font-size="10.00" fill="#000000">mpi_grid.hpp</text>
</a>
</g>
</g>
<!-- Node2&#45;&gt;Node63 -->
<g id="edge16" class="edge">
<title>Node2&#45;&gt;Node63</title>
<path fill="none" stroke="#191970" d="M1162.7843,-358.4839C1195.2571,-349.6972 1238.0089,-335.9349 1249,-322 1277.4771,-285.8959 1273.9708,-228.0003 1269.6249,-197.7926"/>
<polygon fill="#191970" stroke="#191970" points="1273.0396,-196.9844 1267.9831,-187.6741 1266.13,-198.1056 1273.0396,-196.9844"/>
</g>
<!-- Node119 -->
<g id="node14" class="node">
<title>Node119</title>
<g id="a_node14"><a xlink:href="../../d3/d0e/step__function_8h.html" target="_top" xlink:title="Contains definition and partial implementation of sirius::Step_function class. ">
<polygon fill="#ffffff" stroke="#000000" points="1156,-297 1156,-316 1240,-316 1240,-297 1156,-297"/>
<text text-anchor="middle" x="1198" y="-304" font-family="Helvetica,sans-Serif" font-size="10.00" fill="#000000">step_function.h</text>
</a>
</g>
</g>
<!-- Node2&#45;&gt;Node119 -->
<g id="edge17" class="edge">
<title>Node2&#45;&gt;Node119</title>
<path fill="none" stroke="#191970" d="M1135.5625,-358.3906C1147.0079,-348.8786 1164.7473,-334.1357 1178.397,-322.7917"/>
<polygon fill="#191970" stroke="#191970" points="1180.8208,-325.3283 1186.2745,-316.2449 1176.3467,-319.9447 1180.8208,-325.3283"/>
</g>
<!-- Node120 -->
<g id="node15" class="node">
<title>Node120</title>
<g id="a_node15"><a xlink:href="../../da/d12/augmentation__operator_8h.html" target="_top" xlink:title="Contains implementation of sirius::Augmentation_operator class. ">
<polygon fill="#ffffff" stroke="#000000" points="1296,-230 1296,-249 1424,-249 1424,-230 1296,-230"/>
<text text-anchor="middle" x="1360" y="-237" font-family="Helvetica,sans-Serif" font-size="10.00" fill="#000000">augmentation_operator.h</text>
</a>
</g>
</g>
<!-- Node2&#45;&gt;Node120 -->
<g id="edge20" class="edge">
<title>Node2&#45;&gt;Node120</title>
<path fill="none" stroke="#191970" d="M1178.1146,-359.6096C1210.0566,-352.9207 1250.3054,-341.3611 1282,-322 1309.4653,-305.2225 1333.6262,-276.285 1347.5247,-257.5246"/>
<polygon fill="#191970" stroke="#191970" points="1350.4931,-259.3916 1353.4927,-249.2303 1344.8111,-255.3032 1350.4931,-259.3916"/>
</g>
<!-- Node121 -->
<g id="node16" class="node">
<title>Node121</title>
<g id="a_node16"><a xlink:href="../../de/de8/beta__projector__chunks_8h_source.html" target="_top" xlink:title="Beta_projectors/beta\l_projector_chunks.h">
<polygon fill="#ffffff" stroke="#000000" points="894.5,-291.5 894.5,-321.5 1003.5,-321.5 1003.5,-291.5 894.5,-291.5"/>
<text text-anchor="start" x="902.5" y="-309.5" font-family="Helvetica,sans-Serif" font-size="10.00" fill="#000000">Beta_projectors/beta</text>
<text text-anchor="middle" x="949" y="-298.5" font-family="Helvetica,sans-Serif" font-size="10.00" fill="#000000">_projector_chunks.h</text>
</a>
</g>
</g>
<!-- Node2&#45;&gt;Node121 -->
<g id="edge22" class="edge">
<title>Node2&#45;&gt;Node121</title>
<path fill="none" stroke="#191970" d="M1096.6563,-358.3906C1071.2178,-349.4508 1032.6315,-335.8905 1001.2835,-324.8739"/>
<polygon fill="#191970" stroke="#191970" points="1002.4046,-321.5581 991.8098,-321.5446 1000.0837,-328.1622 1002.4046,-321.5581"/>
</g>
<!-- Node3&#45;&gt;Node4 -->
<g id="edge4" class="edge">
<title>Node3&#45;&gt;Node4</title>
<path fill="none" stroke="#191970" d="M1136.7307,-224.4554C1114.6359,-214.464 1085.854,-201.4487 1064.3781,-191.7372"/>
<polygon fill="#191970" stroke="#191970" points="1065.629,-188.4616 1055.0752,-187.5303 1062.7447,-194.8398 1065.629,-188.4616"/>
</g>
<!-- Node5 -->
<g id="node6" class="node">
<title>Node5</title>
<g id="a_node6"><a xlink:href="../../d1/de1/simulation__parameters_8h.html" target="_top" xlink:title="Contains definition and implementation of sirius::Simulation_parameters_base class. ">
<polygon fill="#ffffff" stroke="#ff0000" points="1085,-168.5 1085,-187.5 1211,-187.5 1211,-168.5 1085,-168.5"/>
<text text-anchor="middle" x="1148" y="-175.5" font-family="Helvetica,sans-Serif" font-size="10.00" fill="#000000">simulation_parameters.h</text>
</a>
</g>
</g>
<!-- Node3&#45;&gt;Node5 -->
<g id="edge5" class="edge">
<title>Node3&#45;&gt;Node5</title>
<path fill="none" stroke="#191970" d="M1164.5618,-224.2977C1161.667,-216.2055 1158.0749,-206.1639 1154.9766,-197.5029"/>
<polygon fill="#191970" stroke="#191970" points="1158.1862,-196.0837 1151.5225,-187.8469 1151.5953,-198.4415 1158.1862,-196.0837"/>
</g>
<!-- Node3&#45;&gt;Node63 -->
<g id="edge9" class="edge">
<title>Node3&#45;&gt;Node63</title>
<path fill="none" stroke="#191970" d="M1193.7303,-224.2977C1208.5362,-214.8127 1227.5228,-202.6495 1242.3193,-193.1705"/>
<polygon fill="#191970" stroke="#191970" points="1244.3835,-196.0047 1250.9159,-187.6633 1240.6075,-190.1105 1244.3835,-196.0047"/>
</g>
<!-- Node91 -->
<g id="node13" class="node">
<title>Node91</title>
<g id="a_node13"><a xlink:href="../../de/d58/radial__integrals_8h.html" target="_top" xlink:title="Representation of various radial integrals. ">
<polygon fill="#ffffff" stroke="#ff0000" points="1321.5,-168.5 1321.5,-187.5 1414.5,-187.5 1414.5,-168.5 1321.5,-168.5"/>
<text text-anchor="middle" x="1368" y="-175.5" font-family="Helvetica,sans-Serif" font-size="10.00" fill="#000000">radial_integrals.h</text>
</a>
</g>
</g>
<!-- Node3&#45;&gt;Node91 -->
<g id="edge15" class="edge">
<title>Node3&#45;&gt;Node91</title>
<path fill="none" stroke="#191970" d="M1218.4362,-224.4554C1251.9078,-214.059 1295.9202,-200.3884 1327.5219,-190.5727"/>
<polygon fill="#191970" stroke="#191970" points="1328.8053,-193.8391 1337.317,-187.5303 1326.7289,-187.1542 1328.8053,-193.8391"/>
</g>
<!-- Node6 -->
<g id="node7" class="node">
<title>Node6</title>
<g id="a_node7"><a xlink:href="../../d7/d69/typedefs_8h.html" target="_top" xlink:title="Contains typedefs, enums and type_wrapper class. ">
<polygon fill="#ffffff" stroke="#ff0000" points="1108.5,-56.5 1108.5,-75.5 1171.5,-75.5 1171.5,-56.5 1108.5,-56.5"/>
<text text-anchor="middle" x="1140" y="-63.5" font-family="Helvetica,sans-Serif" font-size="10.00" fill="#000000">typedefs.h</text>
</a>
</g>
</g>
<!-- Node5&#45;&gt;Node6 -->
<g id="edge6" class="edge">
<title>Node5&#45;&gt;Node6</title>
<path fill="none" stroke="#191970" d="M1155.4664,-168.2384C1164.3265,-155.426 1177.1688,-132.1921 1171,-112 1167.8591,-101.7192 1161.5634,-91.6582 1155.4612,-83.5799"/>
<polygon fill="#191970" stroke="#191970" points="1158.0816,-81.2539 1149.0741,-75.6757 1152.637,-85.6535 1158.0816,-81.2539"/>
</g>
<!-- Node13 -->
<g id="node8" class="node">
<title>Node13</title>
<g id="a_node8"><a xlink:href="../../d5/d60/utils_8h.html" target="_top" xlink:title="Contains definition and partial implementation of sirius::Utils class. ">
<polygon fill="#ffffff" stroke="#ff0000" points="1118.5,-112.5 1118.5,-131.5 1161.5,-131.5 1161.5,-112.5 1118.5,-112.5"/>
<text text-anchor="middle" x="1140" y="-119.5" font-family="Helvetica,sans-Serif" font-size="10.00" fill="#000000">utils.h</text>
</a>
</g>
</g>
<!-- Node5&#45;&gt;Node13 -->
<g id="edge7" class="edge">
<title>Node5&#45;&gt;Node13</title>
<path fill="none" stroke="#191970" d="M1146.6065,-168.2455C1145.5626,-160.9382 1144.0992,-150.6944 1142.8149,-141.7046"/>
<polygon fill="#191970" stroke="#191970" points="1146.2566,-141.0472 1141.3775,-131.6427 1139.327,-142.0372 1146.2566,-141.0472"/>
</g>
<!-- Node13&#45;&gt;Node6 -->
<g id="edge8" class="edge">
<title>Node13&#45;&gt;Node6</title>
<path fill="none" stroke="#191970" d="M1140,-112.2455C1140,-104.9382 1140,-94.6944 1140,-85.7046"/>
<polygon fill="#191970" stroke="#191970" points="1143.5001,-85.6426 1140,-75.6427 1136.5001,-85.6427 1143.5001,-85.6426"/>
</g>
<!-- Node62 -->
<g id="node10" class="node">
<title>Node62</title>
<g id="a_node10"><a xlink:href="../../db/d0e/sddk__internal_8hpp_source.html" target="_top" xlink:title="sddk_internal.hpp">
<polygon fill="#ffffff" stroke="#ff0000" points="1218.5,-112.5 1218.5,-131.5 1313.5,-131.5 1313.5,-112.5 1218.5,-112.5"/>
<text text-anchor="middle" x="1266" y="-119.5" font-family="Helvetica,sans-Serif" font-size="10.00" fill="#000000">sddk_internal.hpp</text>
</a>
</g>
</g>
<!-- Node63&#45;&gt;Node62 -->
<g id="edge10" class="edge">
<title>Node63&#45;&gt;Node62</title>
<path fill="none" stroke="#191970" d="M1266,-168.2455C1266,-160.9382 1266,-150.6944 1266,-141.7046"/>
<polygon fill="#191970" stroke="#191970" points="1269.5001,-141.6426 1266,-131.6427 1262.5001,-141.6427 1269.5001,-141.6426"/>
</g>
<!-- Node29 -->
<g id="node12" class="node">
<title>Node29</title>
<g id="a_node12"><a xlink:href="../../d4/d32/communicator_8hpp.html" target="_top" xlink:title="Contains declaration and implementation of Communicator class. ">
<polygon fill="#ffffff" stroke="#ff0000" points="1292.5,-56.5 1292.5,-75.5 1391.5,-75.5 1391.5,-56.5 1292.5,-56.5"/>
<text text-anchor="middle" x="1342" y="-63.5" font-family="Helvetica,sans-Serif" font-size="10.00" fill="#000000">communicator.hpp</text>
</a>
</g>
</g>
<!-- Node63&#45;&gt;Node29 -->
<g id="edge14" class="edge">
<title>Node63&#45;&gt;Node29</title>
<path fill="none" stroke="#191970" d="M1282.8404,-168.3871C1295.6361,-160.2545 1312.7318,-147.4679 1323,-132 1332.2624,-118.0473 1337.0805,-99.538 1339.5428,-85.672"/>
<polygon fill="#191970" stroke="#191970" points="1343.0126,-86.1348 1341.0525,-75.7229 1336.0918,-85.0846 1343.0126,-86.1348"/>
</g>
<!-- Node25 -->
<g id="node11" class="node">
<title>Node25</title>
<polygon fill="#ffffff" stroke="#bfbfbf" points="1281,-.5 1281,-19.5 1325,-19.5 1325,-.5 1281,-.5"/>
<text text-anchor="middle" x="1303" y="-7.5" font-family="Helvetica,sans-Serif" font-size="10.00" fill="#000000">vector</text>
</g>
<!-- Node62&#45;&gt;Node25 -->
<g id="edge11" class="edge">
<title>Node62&#45;&gt;Node25</title>
<path fill="none" stroke="#191970" d="M1268.1963,-112.488C1271.2714,-99.5592 1277.2467,-75.7823 1284,-56 1287.062,-47.0307 1290.9881,-37.3026 1294.4758,-29.1126"/>
<polygon fill="#191970" stroke="#191970" points="1297.7762,-30.2998 1298.5609,-19.7341 1291.3586,-27.5044 1297.7762,-30.2998"/>
</g>
<!-- Node62&#45;&gt;Node29 -->
<g id="edge12" class="edge">
<title>Node62&#45;&gt;Node29</title>
<path fill="none" stroke="#191970" d="M1279.2382,-112.2455C1290.681,-103.814 1307.4296,-91.4729 1320.7475,-81.6598"/>
<polygon fill="#191970" stroke="#191970" points="1322.9391,-84.3924 1328.9135,-75.6427 1318.7867,-78.757 1322.9391,-84.3924"/>
</g>
<!-- Node29&#45;&gt;Node25 -->
<g id="edge13" class="edge">
<title>Node29&#45;&gt;Node25</title>
<path fill="none" stroke="#191970" d="M1335.2067,-56.2455C1329.7822,-48.4564 1322.0339,-37.3308 1315.4967,-27.9439"/>
<polygon fill="#191970" stroke="#191970" points="1318.3025,-25.8485 1309.7154,-19.6427 1312.5583,-29.849 1318.3025,-25.8485"/>
</g>
<!-- Node119&#45;&gt;Node3 -->
<g id="edge18" class="edge">
<title>Node119&#45;&gt;Node3</title>
<path fill="none" stroke="#191970" d="M1193.9883,-296.9005C1190.4094,-288.3368 1185.0135,-275.4252 1180.2452,-264.0152"/>
<polygon fill="#191970" stroke="#191970" points="1183.3631,-262.3989 1176.2778,-254.5218 1176.9044,-265.0981 1183.3631,-262.3989"/>
</g>
<!-- Node120&#45;&gt;Node91 -->
<g id="edge21" class="edge">
<title>Node120&#45;&gt;Node91</title>
<path fill="none" stroke="#191970" d="M1361.25,-229.8906C1362.3589,-221.3657 1364.0144,-208.6392 1365.4083,-197.9235"/>
<polygon fill="#191970" stroke="#191970" points="1368.9131,-198.1128 1366.7324,-187.7449 1361.9716,-197.2098 1368.9131,-198.1128"/>
</g>
<!-- Node39 -->
<g id="node18" class="node">
<title>Node39</title>
<polygon fill="#ffffff" stroke="#bfbfbf" points="1098.5,-297 1098.5,-316 1137.5,-316 1137.5,-297 1098.5,-297"/>
<text text-anchor="middle" x="1118" y="-304" font-family="Helvetica,sans-Serif" font-size="10.00" fill="#000000">array</text>
</g>
<!-- Node108&#45;&gt;Node39 -->
<g id="edge24" class="edge">
<title>Node108&#45;&gt;Node39</title>
<path fill="none" stroke="#191970" d="M851.0283,-358.4581C917.3371,-345.5531 1033.5719,-322.9314 1088.1283,-312.3136"/>
<polygon fill="#191970" stroke="#191970" points="1089.037,-315.7025 1098.1842,-310.3566 1087.6997,-308.8315 1089.037,-315.7025"/>
</g>
<!-- Node109 -->
<g id="node19" class="node">
<title>Node109</title>
<polygon fill="#ffffff" stroke="#bfbfbf" points="696,-297 696,-316 748,-316 748,-297 696,-297"/>
<text text-anchor="middle" x="722" y="-304" font-family="Helvetica,sans-Serif" font-size="10.00" fill="#000000">typeinfo</text>
</g>
<!-- Node108&#45;&gt;Node109 -->
<g id="edge25" class="edge">
<title>Node108&#45;&gt;Node109</title>
<path fill="none" stroke="#191970" d="M789.5,-358.3906C776.9364,-348.7324 757.3577,-333.6812 742.5151,-322.271"/>
<polygon fill="#191970" stroke="#191970" points="744.4735,-319.3618 734.4122,-316.0419 740.2072,-324.9115 744.4735,-319.3618"/>
</g>
<!-- Node96 -->
<g id="node20" class="node">
<title>Node96</title>
<g id="a_node20"><a xlink:href="../../dc/da1/radial__grid_8h.html" target="_top" xlink:title="Contains declaraion and partial implementation of sirius::Radial_grid class. ">
<polygon fill="#ffffff" stroke="#000000" points="766,-297 766,-316 838,-316 838,-297 766,-297"/>
<text text-anchor="middle" x="802" y="-304" font-family="Helvetica,sans-Serif" font-size="10.00" fill="#000000">radial_grid.h</text>
</a>
</g>
</g>
<!-- Node108&#45;&gt;Node96 -->
<g id="edge26" class="edge">
<title>Node108&#45;&gt;Node96</title>
<path fill="none" stroke="#191970" d="M802,-358.3906C802,-349.8657 802,-337.1392 802,-326.4235"/>
<polygon fill="#191970" stroke="#191970" points="805.5001,-326.2448 802,-316.2449 798.5001,-326.2449 805.5001,-326.2448"/>
</g>
<!-- Node99 -->
<g id="node21" class="node">
<title>Node99</title>
<g id="a_node21"><a xlink:href="../../dd/d09/spline_8h.html" target="_top" xlink:title="Contains definition and partial implementaiton of sirius::Spline class. ">
<polygon fill="#ffffff" stroke="#000000" points="626.5,-297 626.5,-316 677.5,-316 677.5,-297 626.5,-297"/>
<text text-anchor="middle" x="652" y="-304" font-family="Helvetica,sans-Serif" font-size="10.00" fill="#000000">spline.h</text>
</a>
</g>
</g>
<!-- Node108&#45;&gt;Node99 -->
<g id="edge27" class="edge">
<title>Node108&#45;&gt;Node99</title>
<path fill="none" stroke="#191970" d="M777.2176,-358.3879C753.8554,-349.2557 717.914,-335.023 687,-322 685.622,-321.4195 684.2159,-320.8213 682.7972,-320.213"/>
<polygon fill="#191970" stroke="#191970" points="683.9838,-316.9124 673.4177,-316.1326 681.1913,-323.3313 683.9838,-316.9124"/>
</g>
<!-- Node110 -->
<g id="node22" class="node">
<title>Node110</title>
<g id="a_node22"><a xlink:href="../../d4/d8b/sht_8h.html" target="_top" xlink:title="Contains declaration and particular implementation of sirius::SHT class. ">
<polygon fill="#ffffff" stroke="#000000" points="847,-168.5 847,-187.5 885,-187.5 885,-168.5 847,-168.5"/>
<text text-anchor="middle" x="866" y="-175.5" font-family="Helvetica,sans-Serif" font-size="10.00" fill="#000000">sht.h</text>
</a>
</g>
</g>
<!-- Node108&#45;&gt;Node110 -->
<g id="edge28" class="edge">
<title>Node108&#45;&gt;Node110</title>
<path fill="none" stroke="#191970" d="M815.4072,-358.2855C825.8564,-349.9196 839.7664,-336.8683 847,-322 866.8677,-281.1628 868.185,-226.5173 867.2195,-197.7018"/>
<polygon fill="#191970" stroke="#191970" points="870.7145,-197.5108 866.7523,-187.6847 863.7221,-197.837 870.7145,-197.5108"/>
</g>
<!-- Node110&#45;&gt;Node6 -->
<g id="edge35" class="edge">
<title>Node110&#45;&gt;Node6</title>
<path fill="none" stroke="#191970" d="M885.278,-176.7517C922.2614,-173.6896 1004.9182,-163.5822 1066,-132 1089.4821,-119.8586 1111.4196,-98.5349 1125.2161,-83.4138"/>
<polygon fill="#191970" stroke="#191970" points="1127.9936,-85.5566 1132.0013,-75.749 1122.7522,-80.9167 1127.9936,-85.5566"/>
</g>
<!-- Node110&#45;&gt;Node13 -->
<g id="edge36" class="edge">
<title>Node110&#45;&gt;Node13</title>
<path fill="none" stroke="#191970" d="M885.2376,-174.82C925.8617,-167.987 1023.2952,-150.9761 1104,-132 1105.4602,-131.6567 1106.9504,-131.2938 1108.4532,-130.9176"/>
<polygon fill="#191970" stroke="#191970" points="1109.5889,-134.238 1118.3703,-128.3104 1107.809,-127.4681 1109.5889,-134.238"/>
</g>
<!-- Node110&#45;&gt;Node25 -->
<g id="edge34" class="edge">
<title>Node110&#45;&gt;Node25</title>
<path fill="none" stroke="#191970" d="M885.2008,-176.3003C917.824,-172.6673 985.1819,-161.8809 1033,-132 1071.1869,-108.1375 1061.2751,-78.979 1100,-56 1128.6507,-38.9989 1221.3391,-22.6249 1270.9555,-14.7941"/>
<polygon fill="#191970" stroke="#191970" points="1271.5072,-18.2505 1280.8508,-13.2556 1270.4318,-11.3336 1271.5072,-18.2505"/>
</g>
<!-- Node111 -->
<g id="node23" class="node">
<title>Node111</title>
<polygon fill="#ffffff" stroke="#bfbfbf" points="582.5,-112.5 582.5,-131.5 629.5,-131.5 629.5,-112.5 582.5,-112.5"/>
<text text-anchor="middle" x="606" y="-119.5" font-family="Helvetica,sans-Serif" font-size="10.00" fill="#000000">math.h</text>
</g>
<!-- Node110&#45;&gt;Node111 -->
<g id="edge29" class="edge">
<title>Node110&#45;&gt;Node111</title>
<path fill="none" stroke="#191970" d="M846.7295,-174.7284C808.9106,-168.1741 722.17,-152.4836 639.5138,-131.9419"/>
<polygon fill="#191970" stroke="#191970" points="640.2699,-128.5232 629.7183,-129.4794 638.5632,-135.3119 640.2699,-128.5232"/>
</g>
<!-- Node112 -->
<g id="node24" class="node">
<title>Node112</title>
<polygon fill="#ffffff" stroke="#bfbfbf" points="648,-112.5 648,-131.5 700,-131.5 700,-112.5 648,-112.5"/>
<text text-anchor="middle" x="674" y="-119.5" font-family="Helvetica,sans-Serif" font-size="10.00" fill="#000000">stddef.h</text>
</g>
<!-- Node110&#45;&gt;Node112 -->
<g id="edge30" class="edge">
<title>Node110&#45;&gt;Node112</title>
<path fill="none" stroke="#191970" d="M846.8884,-172.4258C814.9722,-163.1169 750.3348,-144.2643 709.7694,-132.4327"/>
<polygon fill="#191970" stroke="#191970" points="710.5895,-129.0262 700.0094,-129.5861 708.6294,-135.7462 710.5895,-129.0262"/>
</g>
<!-- Node113 -->
<g id="node25" class="node">
<title>Node113</title>
<polygon fill="#ffffff" stroke="#bfbfbf" points="718.5,-112.5 718.5,-131.5 827.5,-131.5 827.5,-112.5 718.5,-112.5"/>
<text text-anchor="middle" x="773" y="-119.5" font-family="Helvetica,sans-Serif" font-size="10.00" fill="#000000">gsl/gsl_sf_coupling.h</text>
</g>
<!-- Node110&#45;&gt;Node113 -->
<g id="edge31" class="edge">
<title>Node110&#45;&gt;Node113</title>
<path fill="none" stroke="#191970" d="M849.8006,-168.2455C835.3982,-159.5731 814.1268,-146.7645 797.6201,-136.825"/>
<polygon fill="#191970" stroke="#191970" points="799.386,-133.8028 789.0137,-131.6427 795.775,-139.7996 799.386,-133.8028"/>
</g>
<!-- Node114 -->
<g id="node26" class="node">
<title>Node114</title>
<polygon fill="#ffffff" stroke="#bfbfbf" points="845.5,-112.5 845.5,-131.5 956.5,-131.5 956.5,-112.5 845.5,-112.5"/>
<text text-anchor="middle" x="901" y="-119.5" font-family="Helvetica,sans-Serif" font-size="10.00" fill="#000000">gsl/gsl_sf_legendre.h</text>
</g>
<!-- Node110&#45;&gt;Node114 -->
<g id="edge32" class="edge">
<title>Node110&#45;&gt;Node114</title>
<path fill="none" stroke="#191970" d="M872.0965,-168.2455C876.9145,-160.5367 883.7751,-149.5598 889.6032,-140.2348"/>
<polygon fill="#191970" stroke="#191970" points="892.6413,-141.9777 894.9733,-131.6427 886.7053,-138.2677 892.6413,-141.9777"/>
</g>
<!-- Node22 -->
<g id="node27" class="node">
<title>Node22</title>
<polygon fill="#ffffff" stroke="#bfbfbf" points="974.5,-112.5 974.5,-131.5 1023.5,-131.5 1023.5,-112.5 974.5,-112.5"/>
<text text-anchor="middle" x="999" y="-119.5" font-family="Helvetica,sans-Serif" font-size="10.00" fill="#000000">string.h</text>
</g>
<!-- Node110&#45;&gt;Node22 -->
<g id="edge33" class="edge">
<title>Node110&#45;&gt;Node22</title>
<path fill="none" stroke="#191970" d="M885.0557,-169.9766C906.4558,-160.966 941.5337,-146.1963 967.1244,-135.4213"/>
<polygon fill="#191970" stroke="#191970" points="968.5614,-138.6139 976.4195,-131.5076 965.845,-132.1625 968.5614,-138.6139"/>
</g>
<!-- Node83 -->
<g id="node28" class="node">
<title>Node83</title>
<g id="a_node28"><a xlink:href="../../d6/dc7/linalg_8hpp.html" target="_top" xlink:title="Linear algebra interface. ">
<polygon fill="#ffffff" stroke="#ff0000" points="394.5,-112.5 394.5,-131.5 453.5,-131.5 453.5,-112.5 394.5,-112.5"/>
<text text-anchor="middle" x="424" y="-119.5" font-family="Helvetica,sans-Serif" font-size="10.00" fill="#000000">linalg.hpp</text>
</a>
</g>
</g>
<!-- Node110&#45;&gt;Node83 -->
<g id="edge37" class="edge">
<title>Node110&#45;&gt;Node83</title>
<path fill="none" stroke="#191970" d="M846.9792,-176.7614C790.2382,-172.8717 617.1265,-159.5928 463.7872,-131.9122"/>
<polygon fill="#191970" stroke="#191970" points="464.184,-128.4267 453.7171,-130.068 462.923,-135.3122 464.184,-128.4267"/>
</g>
<!-- Node115 -->
<g id="node29" class="node">
<title>Node115</title>
<g id="a_node29"><a xlink:href="../../d3/d68/_lebedev_laikov_8h_source.html" target="_top" xlink:title="LebedevLaikov.h">
<polygon fill="#ffffff" stroke="#000000" points="472,-112.5 472,-131.5 564,-131.5 564,-112.5 472,-112.5"/>
<text text-anchor="middle" x="518" y="-119.5" font-family="Helvetica,sans-Serif" font-size="10.00" fill="#000000">LebedevLaikov.h</text>
</a>
</g>
</g>
<!-- Node110&#45;&gt;Node115 -->
<g id="edge38" class="edge">
<title>Node110&#45;&gt;Node115</title>
<path fill="none" stroke="#191970" d="M846.8459,-175.1213C800.1496,-168.073 676.7385,-149.2636 574,-132 573.8996,-131.9831 573.799,-131.9662 573.6984,-131.9493"/>
<polygon fill="#191970" stroke="#191970" points="574.5785,-128.549 564.1318,-130.3149 573.3996,-135.449 574.5785,-128.549"/>
</g>
<!-- Node123&#45;&gt;Node1 -->
<g id="edge43" class="edge">
<title>Node123&#45;&gt;Node1</title>
<path fill="none" stroke="#191970" d="M1054.6341,-603.0665C1098.514,-594.2626 1179.6637,-575.947 1202,-557 1220.5145,-541.2949 1246.6857,-475.9688 1259.0344,-443.0859"/>
<polygon fill="#191970" stroke="#191970" points="1262.3368,-444.2467 1262.5308,-433.6536 1255.7732,-441.8136 1262.3368,-444.2467"/>
</g>
<!-- Node123&#45;&gt;Node2 -->
<g id="edge50" class="edge">
<title>Node123&#45;&gt;Node2</title>
<path fill="none" stroke="#191970" d="M1054.613,-602.2725C1092.3529,-593.4117 1155.573,-576.1068 1169,-557 1206.7413,-503.2937 1161.0961,-422.0199 1137.0336,-386.1283"/>
<polygon fill="#191970" stroke="#191970" points="1139.7377,-383.8847 1131.1747,-377.6456 1133.9779,-387.8629 1139.7377,-383.8847"/>
</g>
<!-- Node124 -->
<g id="node32" class="node">
<title>Node124</title>
<g id="a_node32"><a xlink:href="../../d8/def/k__point__set_8h.html" target="_top" xlink:title="Contains declaration and partial implementation of sirius::K_point_set class. ">
<polygon fill="#ffffff" stroke="#000000" points="1254,-532 1254,-551 1330,-551 1330,-532 1254,-532"/>
<text text-anchor="middle" x="1292" y="-539" font-family="Helvetica,sans-Serif" font-size="10.00" fill="#000000">k_point_set.h</text>
</a>
</g>
</g>
<!-- Node123&#45;&gt;Node124 -->
<g id="edge44" class="edge">
<title>Node123&#45;&gt;Node124</title>
<path fill="none" stroke="#191970" d="M1054.5079,-602.1504C1095.6399,-592.8735 1173.9486,-574.7783 1240,-557 1243.6244,-556.0245 1247.3802,-554.9771 1251.1388,-553.904"/>
<polygon fill="#191970" stroke="#191970" points="1252.381,-557.1878 1261.0059,-551.0345 1250.4263,-550.4662 1252.381,-557.1878"/>
</g>
<!-- Node135 -->
<g id="node35" class="node">
<title>Node135</title>
<g id="a_node35"><a xlink:href="../../d2/d69/mixer_8h.html" target="_top" xlink:title="Contains definition and implementation of sirius::Mixer, sirius::Linear_mixer, sirius::Broyden1 and s...">
<polygon fill="#ffffff" stroke="#000000" points="1348.5,-532 1348.5,-551 1397.5,-551 1397.5,-532 1348.5,-532"/>
<text text-anchor="middle" x="1373" y="-539" font-family="Helvetica,sans-Serif" font-size="10.00" fill="#000000">mixer.h</text>
</a>
</g>
</g>
<!-- Node123&#45;&gt;Node135 -->
<g id="edge51" class="edge">
<title>Node123&#45;&gt;Node135</title>
<path fill="none" stroke="#191970" d="M1054.6298,-606.3373C1110.3973,-601.5712 1237.0536,-588.0232 1339,-557 1340.9084,-556.4193 1342.8489,-555.7544 1344.7863,-555.034"/>
<polygon fill="#191970" stroke="#191970" points="1346.3832,-558.161 1354.2836,-551.1016 1343.7053,-551.6935 1346.3832,-558.161"/>
</g>
<!-- Node136 -->
<g id="node36" class="node">
<title>Node136</title>
<g id="a_node36"><a xlink:href="../../de/d63/initial__density_8hpp_source.html" target="_top" xlink:title="Density/initial_density.hpp">
<polygon fill="#ffffff" stroke="#000000" points="1416,-532 1416,-551 1548,-551 1548,-532 1416,-532"/>
<text text-anchor="middle" x="1482" y="-539" font-family="Helvetica,sans-Serif" font-size="10.00" fill="#000000">Density/initial_density.hpp</text>
</a>
</g>
</g>
<!-- Node123&#45;&gt;Node136 -->
<g id="edge52" class="edge">
<title>Node123&#45;&gt;Node136</title>
<path fill="none" stroke="#191970" d="M1054.7806,-605.3017C1118.4695,-598.0728 1276.0668,-579.3512 1407,-557 1413.8686,-555.8275 1421.068,-554.4855 1428.175,-553.0925"/>
<polygon fill="#191970" stroke="#191970" points="1429.3548,-556.4257 1438.4721,-551.0289 1427.9793,-549.5622 1429.3548,-556.4257"/>
</g>
<!-- Node137 -->
<g id="node37" class="node">
<title>Node137</title>
<g id="a_node37"><a xlink:href="../../df/d37/add__k__point__contribution__rg_8hpp_source.html" target="_top" xlink:title="Density/add_k_point\l_contribution_rg.hpp">
<polygon fill="#ffffff" stroke="#000000" points="66,-526.5 66,-556.5 174,-556.5 174,-526.5 66,-526.5"/>
<text text-anchor="start" x="74" y="-544.5" font-family="Helvetica,sans-Serif" font-size="10.00" fill="#000000">Density/add_k_point</text>
<text text-anchor="middle" x="120" y="-533.5" font-family="Helvetica,sans-Serif" font-size="10.00" fill="#000000">_contribution_rg.hpp</text>
</a>
</g>
</g>
<!-- Node123&#45;&gt;Node137 -->
<g id="edge53" class="edge">
<title>Node123&#45;&gt;Node137</title>
<path fill="none" stroke="#191970" d="M997.4235,-607.4312C871.5858,-602.6223 365.4747,-582.185 184.2626,-556.7961"/>
<polygon fill="#191970" stroke="#191970" points="184.7381,-553.3285 174.3381,-555.3509 183.7293,-560.2554 184.7381,-553.3285"/>
</g>
<!-- Node138 -->
<g id="node38" class="node">
<title>Node138</title>
<g id="a_node38"><a xlink:href="../../d4/d81/add__k__point__contribution__dm_8hpp_source.html" target="_top" xlink:title="Density/add_k_point\l_contribution_dm.hpp">
<polygon fill="#ffffff" stroke="#000000" points="192.5,-526.5 192.5,-556.5 305.5,-556.5 305.5,-526.5 192.5,-526.5"/>
<text text-anchor="start" x="200.5" y="-544.5" font-family="Helvetica,sans-Serif" font-size="10.00" fill="#000000">Density/add_k_point</text>
<text text-anchor="middle" x="249" y="-533.5" font-family="Helvetica,sans-Serif" font-size="10.00" fill="#000000">_contribution_dm.hpp</text>
</a>
</g>
</g>
<!-- Node123&#45;&gt;Node138 -->
<g id="edge54" class="edge">
<title>Node123&#45;&gt;Node138</title>
<path fill="none" stroke="#191970" d="M997.3709,-608.0501C901.929,-606.2097 585.8836,-597.3742 315.7631,-556.9478"/>
<polygon fill="#191970" stroke="#191970" points="316.1816,-553.4713 305.7703,-555.4345 315.1334,-560.3924 316.1816,-553.4713"/>
</g>
<!-- Node139 -->
<g id="node39" class="node">
<title>Node139</title>
<g id="a_node39"><a xlink:href="../../dc/df3/generate__valence_8hpp_source.html" target="_top" xlink:title="Density/generate_valence.hpp">
<polygon fill="#ffffff" stroke="#000000" points="324,-532 324,-551 476,-551 476,-532 324,-532"/>
<text text-anchor="middle" x="400" y="-539" font-family="Helvetica,sans-Serif" font-size="10.00" fill="#000000">Density/generate_valence.hpp</text>
</a>
</g>
</g>
<!-- Node123&#45;&gt;Node139 -->
<g id="edge55" class="edge">
<title>Node123&#45;&gt;Node139</title>
<path fill="none" stroke="#191970" d="M997.4516,-606.6461C916.7401,-601.2189 680.0892,-584.0229 485,-557 476.3635,-555.8037 467.267,-554.3516 458.3645,-552.8215"/>
<polygon fill="#191970" stroke="#191970" points="458.8864,-549.3596 448.4306,-551.0703 457.6711,-556.2533 458.8864,-549.3596"/>
</g>
<!-- Node140 -->
<g id="node40" class="node">
<title>Node140</title>
<g id="a_node40"><a xlink:href="../../dd/d8d/generate__rho__aug_8hpp_source.html" target="_top" xlink:title="Density/generate_rho\l_aug.hpp">
<polygon fill="#ffffff" stroke="#000000" points="494,-526.5 494,-556.5 606,-556.5 606,-526.5 494,-526.5"/>
<text text-anchor="start" x="502" y="-544.5" font-family="Helvetica,sans-Serif" font-size="10.00" fill="#000000">Density/generate_rho</text>
<text text-anchor="middle" x="550" y="-533.5" font-family="Helvetica,sans-Serif" font-size="10.00" fill="#000000">_aug.hpp</text>
</a>
</g>
</g>
<!-- Node123&#45;&gt;Node140 -->
<g id="edge56" class="edge">
<title>Node123&#45;&gt;Node140</title>
<path fill="none" stroke="#191970" d="M997.4347,-606.0066C931.8456,-600.0507 765.2856,-583.6133 616.5159,-557.1607"/>
<polygon fill="#191970" stroke="#191970" points="616.7523,-553.6472 606.2906,-555.3215 615.513,-560.5366 616.7523,-553.6472"/>
</g>
<!-- Node141 -->
<g id="node41" class="node">
<title>Node141</title>
<g id="a_node41"><a xlink:href="../../df/dbc/symmetrize__density__matrix_8hpp_source.html" target="_top" xlink:title="Density/symmetrize\l_density_matrix.hpp">
<polygon fill="#ffffff" stroke="#000000" points="624,-526.5 624,-556.5 730,-556.5 730,-526.5 624,-526.5"/>
<text text-anchor="start" x="632" y="-544.5" font-family="Helvetica,sans-Serif" font-size="10.00" fill="#000000">Density/symmetrize</text>
<text text-anchor="middle" x="677" y="-533.5" font-family="Helvetica,sans-Serif" font-size="10.00" fill="#000000">_density_matrix.hpp</text>
</a>
</g>
</g>
<!-- Node123&#45;&gt;Node141 -->
<g id="edge57" class="edge">
<title>Node123&#45;&gt;Node141</title>
<path fill="none" stroke="#191970" d="M997.3603,-604.0176C947.2516,-596.034 840.2341,-578.3572 740.0303,-557.142"/>
<polygon fill="#191970" stroke="#191970" points="740.5553,-553.6753 730.045,-555.0111 739.0943,-560.5212 740.5553,-553.6753"/>
</g>
<!-- Node142 -->
<g id="node42" class="node">
<title>Node142</title>
<g id="a_node42"><a xlink:href="../../d1/d4d/generate__valence__mt_8hpp_source.html" target="_top" xlink:title="Density/generate_valence\l_mt.hpp">
<polygon fill="#ffffff" stroke="#000000" points="748,-526.5 748,-556.5 880,-556.5 880,-526.5 748,-526.5"/>
<text text-anchor="start" x="756" y="-544.5" font-family="Helvetica,sans-Serif" font-size="10.00" fill="#000000">Density/generate_valence</text>
<text text-anchor="middle" x="814" y="-533.5" font-family="Helvetica,sans-Serif" font-size="10.00" fill="#000000">_mt.hpp</text>
</a>
</g>
</g>
<!-- Node123&#45;&gt;Node142 -->
<g id="edge58" class="edge">
<title>Node123&#45;&gt;Node142</title>
<path fill="none" stroke="#191970" d="M997.4087,-599.4641C965.1818,-589.2791 911.9651,-572.4607 871.1331,-559.5562"/>
<polygon fill="#191970" stroke="#191970" points="872.1586,-556.2097 861.5687,-556.5335 870.0491,-562.8843 872.1586,-556.2097"/>
</g>
<!-- Node143 -->
<g id="node43" class="node">
<title>Node143</title>
<g id="a_node43"><a xlink:href="../../d7/d47/check__density__continuity__at__mt_8hpp_source.html" target="_top" xlink:title="Density/check_density\l_continuity_at_mt.hpp">
<polygon fill="#ffffff" stroke="#000000" points="898,-526.5 898,-556.5 1014,-556.5 1014,-526.5 898,-526.5"/>
<text text-anchor="start" x="906" y="-544.5" font-family="Helvetica,sans-Serif" font-size="10.00" fill="#000000">Density/check_density</text>
<text text-anchor="middle" x="956" y="-533.5" font-family="Helvetica,sans-Serif" font-size="10.00" fill="#000000">_continuity_at_mt.hpp</text>
</a>
</g>
</g>
<!-- Node123&#45;&gt;Node143 -->
<g id="edge59" class="edge">
<title>Node123&#45;&gt;Node143</title>
<path fill="none" stroke="#191970" d="M1015.9707,-598.9005C1006.3909,-589.7313 991.6035,-575.5776 979.1099,-563.6195"/>
<polygon fill="#191970" stroke="#191970" points="981.3387,-560.9079 971.6944,-556.5218 976.4985,-565.9648 981.3387,-560.9079"/>
</g>
<!-- Node144 -->
<g id="node44" class="node">
<title>Node144</title>
<g id="a_node44"><a xlink:href="../../d4/d2c/paw__density_8hpp_source.html" target="_top" xlink:title="Density/paw_density.hpp">
<polygon fill="#ffffff" stroke="#000000" points="1032,-532 1032,-551 1160,-551 1160,-532 1032,-532"/>
<text text-anchor="middle" x="1096" y="-539" font-family="Helvetica,sans-Serif" font-size="10.00" fill="#000000">Density/paw_density.hpp</text>
</a>
</g>
</g>
<!-- Node123&#45;&gt;Node144 -->
<g id="edge60" class="edge">
<title>Node123&#45;&gt;Node144</title>
<path fill="none" stroke="#191970" d="M1036.0293,-598.9005C1047.1531,-588.2535 1065.2987,-570.8856 1078.721,-558.0385"/>
<polygon fill="#191970" stroke="#191970" points="1081.1852,-560.5247 1085.9893,-551.0817 1076.345,-555.4678 1081.1852,-560.5247"/>
</g>
<!-- Node125 -->
<g id="node33" class="node">
<title>Node125</title>
<g id="a_node33"><a xlink:href="../../d9/d02/k__point_8h.html" target="_top" xlink:title="Contains definition and partial implementation of sirius::K_point class. ">
<polygon fill="#ffffff" stroke="#ff0000" points="1258.5,-470.5 1258.5,-489.5 1315.5,-489.5 1315.5,-470.5 1258.5,-470.5"/>
<text text-anchor="middle" x="1287" y="-477.5" font-family="Helvetica,sans-Serif" font-size="10.00" fill="#000000">k_point.h</text>
</a>
</g>
</g>
<!-- Node124&#45;&gt;Node125 -->
<g id="edge45" class="edge">
<title>Node124&#45;&gt;Node125</title>
<path fill="none" stroke="#191970" d="M1291.2188,-531.8906C1290.5257,-523.3657 1289.491,-510.6392 1288.6198,-499.9235"/>
<polygon fill="#191970" stroke="#191970" points="1292.0912,-499.4283 1287.7923,-489.7449 1285.1142,-499.9956 1292.0912,-499.4283"/>
</g>
<!-- Node75 -->
<g id="node34" class="node">
<title>Node75</title>
<g id="a_node34"><a xlink:href="../../d6/d99/geometry3d_8hpp.html" target="_top" xlink:title="Simple classes and functions to work with the 3D vectors and matrices of the crystal lattice...">
<polygon fill="#ffffff" stroke="#ff0000" points="1353.5,-358.5 1353.5,-377.5 1442.5,-377.5 1442.5,-358.5 1353.5,-358.5"/>
<text text-anchor="middle" x="1398" y="-365.5" font-family="Helvetica,sans-Serif" font-size="10.00" fill="#000000">geometry3d.hpp</text>
</a>
</g>
</g>
<!-- Node124&#45;&gt;Node75 -->
<g id="edge47" class="edge">
<title>Node124&#45;&gt;Node75</title>
<path fill="none" stroke="#191970" d="M1298.4165,-531.6839C1305.133,-521.3634 1315.9418,-504.6249 1325,-490 1347.6173,-453.4832 1373.2183,-410.237 1387.2951,-386.2847"/>
<polygon fill="#191970" stroke="#191970" points="1390.3774,-387.9476 1392.4193,-377.5513 1384.3399,-384.4051 1390.3774,-387.9476"/>
</g>
<!-- Node125&#45;&gt;Node1 -->
<g id="edge46" class="edge">
<title>Node125&#45;&gt;Node1</title>
<path fill="none" stroke="#191970" d="M1283.3421,-470.2455C1280.5416,-462.7776 1276.591,-452.2427 1273.1676,-443.1137"/>
<polygon fill="#191970" stroke="#191970" points="1276.4045,-441.777 1269.616,-433.6427 1269.8501,-444.2349 1276.4045,-441.777"/>
</g>
<!-- Node75&#45;&gt;Node25 -->
<g id="edge49" class="edge">
<title>Node75&#45;&gt;Node25</title>
<path fill="none" stroke="#191970" d="M1405.2827,-358.2663C1420.0224,-337.5686 1452,-287.1717 1452,-239.5 1452,-239.5 1452,-239.5 1452,-122 1452,-63.9064 1378.7318,-32.2134 1334.9521,-18.4615"/>
<polygon fill="#191970" stroke="#191970" points="1335.8907,-15.089 1325.3068,-15.5704 1333.8808,-21.7943 1335.8907,-15.089"/>
</g>
<!-- Node75&#45;&gt;Node39 -->
<g id="edge48" class="edge">
<title>Node75&#45;&gt;Node39</title>
<path fill="none" stroke="#191970" d="M1353.471,-359.5761C1350.6047,-359.0408 1347.7621,-358.5117 1345,-358 1257.0536,-341.7082 1231.4603,-351.4358 1147,-322 1145.7568,-321.5667 1144.5022,-321.0857 1143.2483,-320.5691"/>
<polygon fill="#191970" stroke="#191970" points="1144.3887,-317.2362 1133.8536,-316.1127 1141.3886,-323.5608 1144.3887,-317.2362"/>
</g>
</g>
</svg>
