<?xml version="1.0" encoding="UTF-8" standalone="no"?>
<!DOCTYPE svg PUBLIC "-//W3C//DTD SVG 1.1//EN"
 "http://www.w3.org/Graphics/SVG/1.1/DTD/svg11.dtd">
<!-- Generated by graphviz version 2.40.1 (20161225.0304)
 -->
<!-- Title: wf_inner.hpp Pages: 1 -->
<svg width="618pt" height="1092pt"
 viewBox="0.00 0.00 618.43 1092.00" xmlns="http://www.w3.org/2000/svg" xmlns:xlink="http://www.w3.org/1999/xlink">
<g id="graph0" class="graph" transform="scale(1 1) rotate(0) translate(4 1088)">
<title>wf_inner.hpp</title>
<polygon fill="#ffffff" stroke="transparent" points="-4,4 -4,-1088 614.4338,-1088 614.4338,4 -4,4"/>
<!-- Node1 -->
<g id="node1" class="node">
<title>Node1</title>
<polygon fill="#bfbfbf" stroke="#000000" points="437,-1064.5 437,-1083.5 511,-1083.5 511,-1064.5 437,-1064.5"/>
<text text-anchor="middle" x="474" y="-1071.5" font-family="Helvetica,sans-Serif" font-size="10.00" fill="#000000">wf_inner.hpp</text>
</g>
<!-- Node2 -->
<g id="node2" class="node">
<title>Node2</title>
<g id="a_node2"><a xlink:href="../../d7/de9/wave__functions_8hpp.html" target="_top" xlink:title="Contains declaration and implementation of Wave_functions class. ">
<polygon fill="#ffffff" stroke="#000000" points="421.5,-1008.5 421.5,-1027.5 526.5,-1027.5 526.5,-1008.5 421.5,-1008.5"/>
<text text-anchor="middle" x="474" y="-1015.5" font-family="Helvetica,sans-Serif" font-size="10.00" fill="#000000">wave_functions.hpp</text>
</a>
</g>
</g>
<!-- Node1&#45;&gt;Node2 -->
<g id="edge1" class="edge">
<title>Node1&#45;&gt;Node2</title>
<path fill="none" stroke="#191970" d="M474,-1054.1575C474,-1045.155 474,-1034.9199 474,-1027.6427"/>
<polygon fill="#191970" stroke="#191970" points="470.5001,-1054.2455 474,-1064.2455 477.5001,-1054.2456 470.5001,-1054.2455"/>
</g>
<!-- Node3 -->
<g id="node3" class="node">
<title>Node3</title>
<g id="a_node3"><a xlink:href="../../d3/d9a/k__point_8hpp.html" target="_top" xlink:title="Contains definition and partial implementation of sirius::K_point class. ">
<polygon fill="#ffffff" stroke="#000000" points="502,-448.5 502,-467.5 570,-467.5 570,-448.5 502,-448.5"/>
<text text-anchor="middle" x="536" y="-455.5" font-family="Helvetica,sans-Serif" font-size="10.00" fill="#000000">k_point.hpp</text>
</a>
</g>
</g>
<!-- Node2&#45;&gt;Node3 -->
<g id="edge2" class="edge">
<title>Node2&#45;&gt;Node3</title>
<path fill="none" stroke="#191970" d="M487.6307,-1000.1231C502.4357,-978.8825 524,-941.7999 524,-906 524,-906 524,-906 524,-570 524,-531.8663 530.9626,-486.8428 534.2807,-467.5514"/>
<polygon fill="#191970" stroke="#191970" points="484.6261,-998.3048 481.5939,-1008.4565 490.2949,-1002.4114 484.6261,-998.3048"/>
</g>
<!-- Node13 -->
<g id="node13" class="node">
<title>Node13</title>
<g id="a_node13"><a xlink:href="../../db/d74/hubbard_8hpp.html" target="_top" xlink:title="Contains declaration and partial implementation of sirius::Hubbard class. ">
<polygon fill="#ffffff" stroke="#000000" points="363.5,-392.5 363.5,-411.5 436.5,-411.5 436.5,-392.5 363.5,-392.5"/>
<text text-anchor="middle" x="400" y="-399.5" font-family="Helvetica,sans-Serif" font-size="10.00" fill="#000000">hubbard.hpp</text>
</a>
</g>
</g>
<!-- Node2&#45;&gt;Node13 -->
<g id="edge19" class="edge">
<title>Node2&#45;&gt;Node13</title>
<path fill="none" stroke="#191970" d="M474,-998.1952C474,-975.8128 474,-938.2884 474,-906 474,-906 474,-906 474,-514 474,-469.7199 433.2377,-429.4737 412.2196,-411.665"/>
<polygon fill="#191970" stroke="#191970" points="470.5001,-998.4116 474,-1008.4116 477.5001,-998.4117 470.5001,-998.4116"/>
</g>
<!-- Node14 -->
<g id="node14" class="node">
<title>Node14</title>
<g id="a_node14"><a xlink:href="../../db/d5a/sddk_8hpp.html" target="_top" xlink:title="Main include file for SDDK library. ">
<polygon fill="#ffffff" stroke="#000000" points="313.5,-952.5 313.5,-971.5 370.5,-971.5 370.5,-952.5 313.5,-952.5"/>
<text text-anchor="middle" x="342" y="-959.5" font-family="Helvetica,sans-Serif" font-size="10.00" fill="#000000">sddk.hpp</text>
</a>
</g>
</g>
<!-- Node2&#45;&gt;Node14 -->
<g id="edge20" class="edge">
<title>Node2&#45;&gt;Node14</title>
<path fill="none" stroke="#191970" d="M441.9035,-1004.3833C417.8965,-994.1985 385.6741,-980.5284 364.3955,-971.5011"/>
<polygon fill="#191970" stroke="#191970" points="440.7356,-1007.6897 451.3084,-1008.3733 443.4695,-1001.2457 440.7356,-1007.6897"/>
</g>
<!-- Node4 -->
<g id="node4" class="node">
<title>Node4</title>
<g id="a_node4"><a xlink:href="../../d3/de4/k__point__set_8hpp.html" target="_top" xlink:title="Contains declaration and partial implementation of sirius::K_point_set class. ">
<polygon fill="#ffffff" stroke="#000000" points="473.5,-392.5 473.5,-411.5 560.5,-411.5 560.5,-392.5 473.5,-392.5"/>
<text text-anchor="middle" x="517" y="-399.5" font-family="Helvetica,sans-Serif" font-size="10.00" fill="#000000">k_point_set.hpp</text>
</a>
</g>
</g>
<!-- Node3&#45;&gt;Node4 -->
<g id="edge3" class="edge">
<title>Node3&#45;&gt;Node4</title>
<path fill="none" stroke="#191970" d="M529.4685,-438.7493C526.3664,-429.6064 522.7949,-419.0798 520.2716,-411.6427"/>
<polygon fill="#191970" stroke="#191970" points="526.163,-439.9003 532.6905,-448.2455 532.7918,-437.6512 526.163,-439.9003"/>
</g>
<!-- Node10 -->
<g id="node10" class="node">
<title>Node10</title>
<g id="a_node10"><a xlink:href="../../de/dec/hamiltonian_8hpp.html" target="_top" xlink:title="Contains declaration and definition of sirius::Hamiltonian class. ">
<polygon fill="#ffffff" stroke="#000000" points="391.5,-168.5 391.5,-187.5 478.5,-187.5 478.5,-168.5 391.5,-168.5"/>
<text text-anchor="middle" x="435" y="-175.5" font-family="Helvetica,sans-Serif" font-size="10.00" fill="#000000">hamiltonian.hpp</text>
</a>
</g>
</g>
<!-- Node3&#45;&gt;Node10 -->
<g id="edge18" class="edge">
<title>Node3&#45;&gt;Node10</title>
<path fill="none" stroke="#191970" d="M555.7456,-441.7103C577.6668,-421.6742 610,-385.437 610,-346 610,-346 610,-346 610,-290 610,-259.3494 611.7353,-245.6109 590,-224 574.2749,-208.3649 518.9178,-194.507 478.8395,-186.1884"/>
<polygon fill="#191970" stroke="#191970" points="553.4133,-439.1005 548.2196,-448.335 558.0384,-444.3549 553.4133,-439.1005"/>
</g>
<!-- Node3&#45;&gt;Node13 -->
<g id="edge15" class="edge">
<title>Node3&#45;&gt;Node13</title>
<path fill="none" stroke="#191970" d="M503.2601,-444.5189C478.4917,-434.3201 445.095,-420.5685 423.0742,-411.5011"/>
<polygon fill="#191970" stroke="#191970" points="502.0413,-447.8021 512.6208,-448.3733 504.7066,-441.3293 502.0413,-447.8021"/>
</g>
<!-- Node5 -->
<g id="node5" class="node">
<title>Node5</title>
<g id="a_node5"><a xlink:href="../../da/d3d/band_8hpp.html" target="_top" xlink:title="Contains declaration and partial implementation of sirius::Band class. ">
<polygon fill="#ffffff" stroke="#000000" points="324,-112.5 324,-131.5 382,-131.5 382,-112.5 324,-112.5"/>
<text text-anchor="middle" x="353" y="-119.5" font-family="Helvetica,sans-Serif" font-size="10.00" fill="#000000">band.hpp</text>
</a>
</g>
</g>
<!-- Node4&#45;&gt;Node5 -->
<g id="edge4" class="edge">
<title>Node4&#45;&gt;Node5</title>
<path fill="none" stroke="#191970" d="M534.2292,-384.8662C564.9209,-352.1942 622.8879,-279.3152 590,-224 546.1612,-150.2661 435.2903,-129.7685 382.2046,-124.1202"/>
<polygon fill="#191970" stroke="#191970" points="531.5096,-382.6441 527.0857,-392.2712 536.5475,-387.5041 531.5096,-382.6441"/>
</g>
<!-- Node8 -->
<g id="node8" class="node">
<title>Node8</title>
<g id="a_node8"><a xlink:href="../../d0/d9a/density_8hpp.html" target="_top" xlink:title="Contains definition and partial implementation of sirius::Density class. ">
<polygon fill="#ffffff" stroke="#000000" points="473,-336.5 473,-355.5 541,-355.5 541,-336.5 473,-336.5"/>
<text text-anchor="middle" x="507" y="-343.5" font-family="Helvetica,sans-Serif" font-size="10.00" fill="#000000">density.hpp</text>
</a>
</g>
</g>
<!-- Node4&#45;&gt;Node8 -->
<g id="edge7" class="edge">
<title>Node4&#45;&gt;Node8</title>
<path fill="none" stroke="#191970" d="M513.4567,-382.1575C511.8491,-373.155 510.0214,-362.9199 508.7219,-355.6427"/>
<polygon fill="#191970" stroke="#191970" points="510.0546,-383.0166 515.2581,-392.2455 516.9456,-381.786 510.0546,-383.0166"/>
</g>
<!-- Node12 -->
<g id="node12" class="node">
<title>Node12</title>
<g id="a_node12"><a xlink:href="../../df/dc4/dft__ground__state_8hpp.html" target="_top" xlink:title="Contains definition and partial implementation of sirius::DFT_ground_state class. ...">
<polygon fill="#ffffff" stroke="#000000" points="150.5,-224.5 150.5,-243.5 261.5,-243.5 261.5,-224.5 150.5,-224.5"/>
<text text-anchor="middle" x="206" y="-231.5" font-family="Helvetica,sans-Serif" font-size="10.00" fill="#000000">dft_ground_state.hpp</text>
</a>
</g>
</g>
<!-- Node4&#45;&gt;Node12 -->
<g id="edge13" class="edge">
<title>Node4&#45;&gt;Node12</title>
<path fill="none" stroke="#191970" d="M490.2352,-387.5419C428.1945,-354.0279 275.8894,-271.7538 223.8041,-243.6177"/>
<polygon fill="#191970" stroke="#191970" points="488.9264,-390.8128 499.3882,-392.4862 492.2534,-384.654 488.9264,-390.8128"/>
</g>
<!-- Node6 -->
<g id="node6" class="node">
<title>Node6</title>
<g id="a_node6"><a xlink:href="../../dd/dc2/sirius_8h.html" target="_top" xlink:title="&quot;All&#45;in&#45;one&quot; include file. ">
<polygon fill="#ffffff" stroke="#000000" points="96,-56.5 96,-75.5 144,-75.5 144,-56.5 96,-56.5"/>
<text text-anchor="middle" x="120" y="-63.5" font-family="Helvetica,sans-Serif" font-size="10.00" fill="#000000">sirius.h</text>
</a>
</g>
</g>
<!-- Node5&#45;&gt;Node6 -->
<g id="edge5" class="edge">
<title>Node5&#45;&gt;Node6</title>
<path fill="none" stroke="#191970" d="M314.1496,-112.6626C265.7043,-101.0191 184.37,-81.4709 144.0958,-71.7913"/>
<polygon fill="#191970" stroke="#191970" points="313.4204,-116.0869 323.9615,-115.0208 315.0563,-109.2807 313.4204,-116.0869"/>
</g>
<!-- Node7 -->
<g id="node7" class="node">
<title>Node7</title>
<g id="a_node7"><a xlink:href="../../d4/d53/sirius__api_8cpp.html" target="_top" xlink:title="Fortran API. ">
<polygon fill="#ffffff" stroke="#000000" points="81,-.5 81,-19.5 159,-19.5 159,-.5 81,-.5"/>
<text text-anchor="middle" x="120" y="-7.5" font-family="Helvetica,sans-Serif" font-size="10.00" fill="#000000">sirius_api.cpp</text>
</a>
</g>
</g>
<!-- Node6&#45;&gt;Node7 -->
<g id="edge6" class="edge">
<title>Node6&#45;&gt;Node7</title>
<path fill="none" stroke="#191970" d="M120,-46.1575C120,-37.155 120,-26.9199 120,-19.6427"/>
<polygon fill="#191970" stroke="#191970" points="116.5001,-46.2455 120,-56.2455 123.5001,-46.2456 116.5001,-46.2455"/>
</g>
<!-- Node9 -->
<g id="node9" class="node">
<title>Node9</title>
<g id="a_node9"><a xlink:href="../../de/df2/potential_8hpp.html" target="_top" xlink:title="Contains declaration and partial implementation of sirius::Potential class. ">
<polygon fill="#ffffff" stroke="#000000" points="470,-280.5 470,-299.5 544,-299.5 544,-280.5 470,-280.5"/>
<text text-anchor="middle" x="507" y="-287.5" font-family="Helvetica,sans-Serif" font-size="10.00" fill="#000000">potential.hpp</text>
</a>
</g>
</g>
<!-- Node8&#45;&gt;Node9 -->
<g id="edge8" class="edge">
<title>Node8&#45;&gt;Node9</title>
<path fill="none" stroke="#191970" d="M507,-326.1575C507,-317.155 507,-306.9199 507,-299.6427"/>
<polygon fill="#191970" stroke="#191970" points="503.5001,-326.2455 507,-336.2455 510.5001,-326.2456 503.5001,-326.2455"/>
</g>
<!-- Node9&#45;&gt;Node10 -->
<g id="edge9" class="edge">
<title>Node9&#45;&gt;Node10</title>
<path fill="none" stroke="#191970" d="M493.2397,-272.3759C486.8516,-263.9487 479.2959,-253.6211 473,-244 460.2578,-224.5282 447.0752,-200.6348 440.0804,-187.603"/>
<polygon fill="#191970" stroke="#191970" points="490.5053,-274.5617 499.3723,-280.3606 496.0568,-270.2978 490.5053,-274.5617"/>
</g>
<!-- Node11 -->
<g id="node11" class="node">
<title>Node11</title>
<g id="a_node11"><a xlink:href="../../d3/d2c/local__operator_8hpp.html" target="_top" xlink:title="Contains declaration and implementation of sirius::Local_operator class. ">
<polygon fill="#ffffff" stroke="#000000" points="482.5,-224.5 482.5,-243.5 581.5,-243.5 581.5,-224.5 482.5,-224.5"/>
<text text-anchor="middle" x="532" y="-231.5" font-family="Helvetica,sans-Serif" font-size="10.00" fill="#000000">local_operator.hpp</text>
</a>
</g>
</g>
<!-- Node9&#45;&gt;Node11 -->
<g id="edge11" class="edge">
<title>Node9&#45;&gt;Node11</title>
<path fill="none" stroke="#191970" d="M515.4626,-271.0437C519.5745,-261.8331 524.3394,-251.1598 527.6952,-243.6427"/>
<polygon fill="#191970" stroke="#191970" points="512.2352,-269.6874 511.3547,-280.2455 518.6272,-272.541 512.2352,-269.6874"/>
</g>
<!-- Node10&#45;&gt;Node5 -->
<g id="edge10" class="edge">
<title>Node10&#45;&gt;Node5</title>
<path fill="none" stroke="#191970" d="M412.289,-162.49C397.8212,-152.6096 379.532,-140.1194 367.1196,-131.6427"/>
<polygon fill="#191970" stroke="#191970" points="410.4848,-165.4962 420.7167,-168.2455 414.4325,-159.7156 410.4848,-165.4962"/>
</g>
<!-- Node11&#45;&gt;Node10 -->
<g id="edge12" class="edge">
<title>Node11&#45;&gt;Node10</title>
<path fill="none" stroke="#191970" d="M506.0984,-219.0465C488.8391,-209.0824 466.6624,-196.2794 451.7025,-187.6427"/>
<polygon fill="#191970" stroke="#191970" points="504.6936,-222.2768 515.1039,-224.2455 508.1935,-216.2146 504.6936,-222.2768"/>
</g>
<!-- Node12&#45;&gt;Node6 -->
<g id="edge14" class="edge">
<title>Node12&#45;&gt;Node6</title>
<path fill="none" stroke="#191970" d="M196.3704,-215.1887C178.089,-179.4762 138.9399,-102.9988 125.0309,-75.8279"/>
<polygon fill="#191970" stroke="#191970" points="193.4576,-217.1796 201.1299,-224.4862 199.6886,-213.9899 193.4576,-217.1796"/>
</g>
<!-- Node13&#45;&gt;Node10 -->
<g id="edge17" class="edge">
<title>Node13&#45;&gt;Node10</title>
<path fill="none" stroke="#191970" d="M403.0606,-382.4119C410.2882,-336.1557 428.2041,-221.494 433.5017,-187.5891"/>
<polygon fill="#191970" stroke="#191970" points="399.5897,-381.9545 401.5039,-392.375 406.5058,-383.0352 399.5897,-381.9545"/>
</g>
<!-- Node13&#45;&gt;Node12 -->
<g id="edge16" class="edge">
<title>Node13&#45;&gt;Node12</title>
<path fill="none" stroke="#191970" d="M381.3679,-385.865C341.6241,-351.4477 249.5327,-271.6985 217.3489,-243.8279"/>
<polygon fill="#191970" stroke="#191970" points="379.1632,-388.5857 389.0139,-392.4862 383.7456,-383.294 379.1632,-388.5857"/>
</g>
<!-- Node14&#45;&gt;Node6 -->
<g id="edge50" class="edge">
<title>Node14&#45;&gt;Node6</title>
<path fill="none" stroke="#191970" d="M303.4104,-957.6555C213.9552,-946.5136 0,-913.2534 0,-850 0,-850 0,-850 0,-178 0,-125.9918 60.9856,-91.2161 96.0046,-75.5343"/>
<polygon fill="#191970" stroke="#191970" points="303.0798,-961.141 313.4295,-958.8754 303.9259,-954.1923 303.0798,-961.141"/>
</g>
<!-- Node15 -->
<g id="node15" class="node">
<title>Node15</title>
<g id="a_node15"><a xlink:href="../../dd/d46/input_8hpp.html" target="_top" xlink:title="Contains input parameters structures. ">
<polygon fill="#ffffff" stroke="#000000" points="160,-896.5 160,-915.5 218,-915.5 218,-896.5 160,-896.5"/>
<text text-anchor="middle" x="189" y="-903.5" font-family="Helvetica,sans-Serif" font-size="10.00" fill="#000000">input.hpp</text>
</a>
</g>
</g>
<!-- Node14&#45;&gt;Node15 -->
<g id="edge21" class="edge">
<title>Node14&#45;&gt;Node15</title>
<path fill="none" stroke="#191970" d="M306.2721,-948.9231C278.3029,-938.686 240.0607,-924.6889 214.9584,-915.5011"/>
<polygon fill="#191970" stroke="#191970" points="305.1046,-952.2228 315.6984,-952.3733 307.5106,-945.6493 305.1046,-952.2228"/>
</g>
<!-- Node24 -->
<g id="node24" class="node">
<title>Node24</title>
<g id="a_node24"><a xlink:href="../../de/d6d/atom_8hpp.html" target="_top" xlink:title="Contains declaration and partial implementation of sirius::Atom class. ">
<polygon fill="#ffffff" stroke="#000000" points="256,-672.5 256,-691.5 314,-691.5 314,-672.5 256,-672.5"/>
<text text-anchor="middle" x="285" y="-679.5" font-family="Helvetica,sans-Serif" font-size="10.00" fill="#000000">atom.hpp</text>
</a>
</g>
</g>
<!-- Node14&#45;&gt;Node24 -->
<g id="edge48" class="edge">
<title>Node14&#45;&gt;Node24</title>
<path fill="none" stroke="#191970" d="M346.3997,-942.1938C356.9826,-892.5902 381.5165,-764.3998 361,-728 351.0036,-710.2647 331.11,-698.589 314.1833,-691.4391"/>
<polygon fill="#191970" stroke="#191970" points="342.9125,-941.7591 344.2084,-952.2744 349.7528,-943.246 342.9125,-941.7591"/>
</g>
<!-- Node28 -->
<g id="node28" class="node">
<title>Node28</title>
<g id="a_node28"><a xlink:href="../../d4/dde/sddk__api_8cpp.html" target="_top" xlink:title="Fortran interface for the SDDK library. ">
<polygon fill="#ffffff" stroke="#000000" points="370.5,-896.5 370.5,-915.5 445.5,-915.5 445.5,-896.5 370.5,-896.5"/>
<text text-anchor="middle" x="408" y="-903.5" font-family="Helvetica,sans-Serif" font-size="10.00" fill="#000000">sddk_api.cpp</text>
</a>
</g>
</g>
<!-- Node14&#45;&gt;Node28 -->
<g id="edge49" class="edge">
<title>Node14&#45;&gt;Node28</title>
<path fill="none" stroke="#191970" d="M361.2755,-945.645C372.7538,-935.9058 386.9277,-923.8795 396.6354,-915.6427"/>
<polygon fill="#191970" stroke="#191970" points="358.857,-943.1069 353.4963,-952.2455 363.3859,-948.4445 358.857,-943.1069"/>
</g>
<!-- Node15&#45;&gt;Node6 -->
<g id="edge47" class="edge">
<title>Node15&#45;&gt;Node6</title>
<path fill="none" stroke="#191970" d="M150.1628,-895.6326C105.4228,-881.0587 38,-849.8337 38,-794 38,-794 38,-794 38,-178 38,-132.4532 82.6949,-93.1125 106.0898,-75.6399"/>
<polygon fill="#191970" stroke="#191970" points="149.2974,-899.0287 159.8857,-898.6569 151.3766,-892.3446 149.2974,-899.0287"/>
</g>
<!-- Node16 -->
<g id="node16" class="node">
<title>Node16</title>
<g id="a_node16"><a xlink:href="../../de/d06/simulation__parameters_8hpp.html" target="_top" xlink:title="Contains definition and implementation of sirius::Simulation_parameters_base class. ">
<polygon fill="#ffffff" stroke="#000000" points="120.5,-840.5 120.5,-859.5 257.5,-859.5 257.5,-840.5 120.5,-840.5"/>
<text text-anchor="middle" x="189" y="-847.5" font-family="Helvetica,sans-Serif" font-size="10.00" fill="#000000">simulation_parameters.hpp</text>
</a>
</g>
</g>
<!-- Node15&#45;&gt;Node16 -->
<g id="edge22" class="edge">
<title>Node15&#45;&gt;Node16</title>
<path fill="none" stroke="#191970" d="M189,-886.1575C189,-877.155 189,-866.9199 189,-859.6427"/>
<polygon fill="#191970" stroke="#191970" points="185.5001,-886.2455 189,-896.2455 192.5001,-886.2456 185.5001,-886.2455"/>
</g>
<!-- Node17 -->
<g id="node17" class="node">
<title>Node17</title>
<g id="a_node17"><a xlink:href="../../d1/db8/simulation__context_8hpp.html" target="_top" xlink:title="Contains definition and implementation of Simulation_context class. ">
<polygon fill="#ffffff" stroke="#000000" points="202.5,-448.5 202.5,-467.5 321.5,-467.5 321.5,-448.5 202.5,-448.5"/>
<text text-anchor="middle" x="262" y="-455.5" font-family="Helvetica,sans-Serif" font-size="10.00" fill="#000000">simulation_context.hpp</text>
</a>
</g>
</g>
<!-- Node16&#45;&gt;Node17 -->
<g id="edge23" class="edge">
<title>Node16&#45;&gt;Node17</title>
<path fill="none" stroke="#191970" d="M187.7504,-830.3583C185.3097,-782.8347 182.4111,-658.3153 211,-560 221.5035,-523.879 244.5088,-485.1892 255.6728,-467.6406"/>
<polygon fill="#191970" stroke="#191970" points="184.2641,-830.7006 188.3269,-840.4854 191.2528,-830.3027 184.2641,-830.7006"/>
</g>
<!-- Node22 -->
<g id="node22" class="node">
<title>Node22</title>
<g id="a_node22"><a xlink:href="../../db/df7/atom__type_8hpp.html" target="_top" xlink:title="Contains declaration and implementation of sirius::Atom_type class. ">
<polygon fill="#ffffff" stroke="#000000" points="230.5,-784.5 230.5,-803.5 313.5,-803.5 313.5,-784.5 230.5,-784.5"/>
<text text-anchor="middle" x="272" y="-791.5" font-family="Helvetica,sans-Serif" font-size="10.00" fill="#000000">atom_type.hpp</text>
</a>
</g>
</g>
<!-- Node16&#45;&gt;Node22 -->
<g id="edge35" class="edge">
<title>Node16&#45;&gt;Node22</title>
<path fill="none" stroke="#191970" d="M211.988,-834.49C226.6322,-824.6096 245.1444,-812.1194 257.7082,-803.6427"/>
<polygon fill="#191970" stroke="#191970" points="209.7896,-831.7511 203.4575,-840.2455 213.7047,-837.5539 209.7896,-831.7511"/>
</g>
<!-- Node25 -->
<g id="node25" class="node">
<title>Node25</title>
<g id="a_node25"><a xlink:href="../../d4/d91/unit__cell_8hpp.html" target="_top" xlink:title="Contains definition and partial implementation of sirius::Unit_cell class. ">
<polygon fill="#ffffff" stroke="#000000" points="235.5,-616.5 235.5,-635.5 308.5,-635.5 308.5,-616.5 235.5,-616.5"/>
<text text-anchor="middle" x="272" y="-623.5" font-family="Helvetica,sans-Serif" font-size="10.00" fill="#000000">unit_cell.hpp</text>
</a>
</g>
</g>
<!-- Node16&#45;&gt;Node25 -->
<g id="edge46" class="edge">
<title>Node16&#45;&gt;Node25</title>
<path fill="none" stroke="#191970" d="M189.6328,-830.2814C190.9678,-805.6353 195.1161,-762.498 208,-728 221.8237,-690.9857 250.1196,-653.0293 263.9839,-635.6968"/>
<polygon fill="#191970" stroke="#191970" points="186.1266,-830.3487 189.1867,-840.492 193.12,-830.6543 186.1266,-830.3487"/>
</g>
<!-- Node17&#45;&gt;Node10 -->
<g id="edge25" class="edge">
<title>Node17&#45;&gt;Node10</title>
<path fill="none" stroke="#191970" d="M282.7854,-442.1662C292.7325,-433.9037 304.3327,-423.1967 313,-412 373.5762,-333.7462 418.7836,-220.9578 431.432,-187.6219"/>
<polygon fill="#191970" stroke="#191970" points="280.5209,-439.4959 274.9193,-448.4888 284.9063,-444.9519 280.5209,-439.4959"/>
</g>
<!-- Node17&#45;&gt;Node13 -->
<g id="edge24" class="edge">
<title>Node17&#45;&gt;Node13</title>
<path fill="none" stroke="#191970" d="M295.2213,-444.5189C320.354,-434.3201 354.2418,-420.5685 376.5865,-411.5011"/>
<polygon fill="#191970" stroke="#191970" points="293.6731,-441.3699 285.723,-448.3733 296.3053,-447.8562 293.6731,-441.3699"/>
</g>
<!-- Node18 -->
<g id="node18" class="node">
<title>Node18</title>
<g id="a_node18"><a xlink:href="../../d3/d6a/periodic__function_8hpp.html" target="_top" xlink:title="Contains declaration and partial implementation of sirius::Periodic_function class. ">
<polygon fill="#ffffff" stroke="#000000" points="192,-392.5 192,-411.5 304,-411.5 304,-392.5 192,-392.5"/>
<text text-anchor="middle" x="248" y="-399.5" font-family="Helvetica,sans-Serif" font-size="10.00" fill="#000000">periodic_function.hpp</text>
</a>
</g>
</g>
<!-- Node17&#45;&gt;Node18 -->
<g id="edge26" class="edge">
<title>Node17&#45;&gt;Node18</title>
<path fill="none" stroke="#191970" d="M257.1135,-438.4538C254.8451,-429.3803 252.25,-418.9998 250.4107,-411.6427"/>
<polygon fill="#191970" stroke="#191970" points="253.7405,-439.393 259.5614,-448.2455 260.5315,-437.6952 253.7405,-439.393"/>
</g>
<!-- Node18&#45;&gt;Node5 -->
<g id="edge27" class="edge">
<title>Node18&#45;&gt;Node5</title>
<path fill="none" stroke="#191970" d="M259.6174,-383.5189C272.0481,-361.9387 290,-324.7566 290,-290 290,-290 290,-290 290,-234 290,-191.3888 325.0693,-150.016 342.878,-131.7535"/>
<polygon fill="#191970" stroke="#191970" points="256.5113,-381.8935 254.3789,-392.2715 262.5177,-385.4884 256.5113,-381.8935"/>
</g>
<!-- Node18&#45;&gt;Node8 -->
<g id="edge28" class="edge">
<title>Node18&#45;&gt;Node8</title>
<path fill="none" stroke="#191970" d="M302.1768,-390.2861C353.6181,-379.1636 429.3661,-362.7857 472.8771,-353.3779"/>
<polygon fill="#191970" stroke="#191970" points="301.2639,-386.9025 292.2294,-392.4369 302.7432,-393.7444 301.2639,-386.9025"/>
</g>
<!-- Node19 -->
<g id="node19" class="node">
<title>Node19</title>
<g id="a_node19"><a xlink:href="../../d5/d72/non__local__functor_8hpp.html" target="_top" xlink:title="Common operation for forces and stress tensor. ">
<polygon fill="#ffffff" stroke="#000000" points="66.5,-336.5 66.5,-355.5 181.5,-355.5 181.5,-336.5 66.5,-336.5"/>
<text text-anchor="middle" x="124" y="-343.5" font-family="Helvetica,sans-Serif" font-size="10.00" fill="#000000">non_local_functor.hpp</text>
</a>
</g>
</g>
<!-- Node18&#45;&gt;Node19 -->
<g id="edge29" class="edge">
<title>Node18&#45;&gt;Node19</title>
<path fill="none" stroke="#191970" d="M217.5476,-388.2473C195.0278,-378.0771 164.9383,-364.4883 145.0382,-355.5011"/>
<polygon fill="#191970" stroke="#191970" points="216.1294,-391.4471 226.6836,-392.3733 219.0105,-385.0675 216.1294,-391.4471"/>
</g>
<!-- Node21 -->
<g id="node21" class="node">
<title>Node21</title>
<g id="a_node21"><a xlink:href="../../d6/d1e/force_8hpp.html" target="_top" xlink:title="Contains defintion and implementation of sirius::Force class. ">
<polygon fill="#ffffff" stroke="#000000" points="179,-280.5 179,-299.5 237,-299.5 237,-280.5 179,-280.5"/>
<text text-anchor="middle" x="208" y="-287.5" font-family="Helvetica,sans-Serif" font-size="10.00" fill="#000000">force.hpp</text>
</a>
</g>
</g>
<!-- Node18&#45;&gt;Node21 -->
<g id="edge34" class="edge">
<title>Node18&#45;&gt;Node21</title>
<path fill="none" stroke="#191970" d="M241.1876,-382.9253C232.5458,-358.7284 217.9777,-317.9376 211.4017,-299.5249"/>
<polygon fill="#191970" stroke="#191970" points="237.9301,-384.2107 244.5896,-392.4509 244.5223,-381.8563 237.9301,-384.2107"/>
</g>
<!-- Node20 -->
<g id="node20" class="node">
<title>Node20</title>
<g id="a_node20"><a xlink:href="../../d7/dd1/stress_8hpp.html" target="_top" xlink:title="Stress tensor calculation. ">
<polygon fill="#ffffff" stroke="#000000" points="94.5,-280.5 94.5,-299.5 157.5,-299.5 157.5,-280.5 94.5,-280.5"/>
<text text-anchor="middle" x="126" y="-287.5" font-family="Helvetica,sans-Serif" font-size="10.00" fill="#000000">stress.hpp</text>
</a>
</g>
</g>
<!-- Node19&#45;&gt;Node20 -->
<g id="edge30" class="edge">
<title>Node19&#45;&gt;Node20</title>
<path fill="none" stroke="#191970" d="M124.7087,-326.1575C125.0302,-317.155 125.3957,-306.9199 125.6556,-299.6427"/>
<polygon fill="#191970" stroke="#191970" points="121.2076,-326.127 124.3484,-336.2455 128.2032,-326.3769 121.2076,-326.127"/>
</g>
<!-- Node19&#45;&gt;Node21 -->
<g id="edge32" class="edge">
<title>Node19&#45;&gt;Node21</title>
<path fill="none" stroke="#191970" d="M147.2649,-330.49C162.0856,-320.6096 180.8209,-308.1194 193.536,-299.6427"/>
<polygon fill="#191970" stroke="#191970" points="145.0107,-327.7863 138.6317,-336.2455 148.8937,-333.6107 145.0107,-327.7863"/>
</g>
<!-- Node20&#45;&gt;Node12 -->
<g id="edge31" class="edge">
<title>Node20&#45;&gt;Node12</title>
<path fill="none" stroke="#191970" d="M148.1571,-274.49C162.272,-264.6096 180.1151,-252.1194 192.2248,-243.6427"/>
<polygon fill="#191970" stroke="#191970" points="146.1201,-271.6436 139.9349,-280.2455 150.1344,-277.3782 146.1201,-271.6436"/>
</g>
<!-- Node21&#45;&gt;Node12 -->
<g id="edge33" class="edge">
<title>Node21&#45;&gt;Node12</title>
<path fill="none" stroke="#191970" d="M207.2913,-270.1575C206.9698,-261.155 206.6043,-250.9199 206.3444,-243.6427"/>
<polygon fill="#191970" stroke="#191970" points="203.7968,-270.3769 207.6516,-280.2455 210.7924,-270.127 203.7968,-270.3769"/>
</g>
<!-- Node23 -->
<g id="node23" class="node">
<title>Node23</title>
<g id="a_node23"><a xlink:href="../../d6/d50/atom__symmetry__class_8hpp.html" target="_top" xlink:title="Contains declaration and partial implementation of sirius::Atom_symmetry_class class. ">
<polygon fill="#ffffff" stroke="#000000" points="217.5,-728.5 217.5,-747.5 352.5,-747.5 352.5,-728.5 217.5,-728.5"/>
<text text-anchor="middle" x="285" y="-735.5" font-family="Helvetica,sans-Serif" font-size="10.00" fill="#000000">atom_symmetry_class.hpp</text>
</a>
</g>
</g>
<!-- Node22&#45;&gt;Node23 -->
<g id="edge36" class="edge">
<title>Node22&#45;&gt;Node23</title>
<path fill="none" stroke="#191970" d="M276.5375,-774.4538C278.6439,-765.3803 281.0536,-754.9998 282.7615,-747.6427"/>
<polygon fill="#191970" stroke="#191970" points="273.1165,-773.7131 274.2644,-784.2455 279.9351,-775.2961 273.1165,-773.7131"/>
</g>
<!-- Node23&#45;&gt;Node24 -->
<g id="edge37" class="edge">
<title>Node23&#45;&gt;Node24</title>
<path fill="none" stroke="#191970" d="M285,-718.1575C285,-709.155 285,-698.9199 285,-691.6427"/>
<polygon fill="#191970" stroke="#191970" points="281.5001,-718.2455 285,-728.2455 288.5001,-718.2456 281.5001,-718.2455"/>
</g>
<!-- Node24&#45;&gt;Node25 -->
<g id="edge38" class="edge">
<title>Node24&#45;&gt;Node25</title>
<path fill="none" stroke="#191970" d="M280.4625,-662.4538C278.3561,-653.3803 275.9464,-642.9998 274.2385,-635.6427"/>
<polygon fill="#191970" stroke="#191970" points="277.0649,-663.2961 282.7356,-672.2455 283.8835,-661.7131 277.0649,-663.2961"/>
</g>
<!-- Node26 -->
<g id="node26" class="node">
<title>Node26</title>
<g id="a_node26"><a xlink:href="../../d4/df7/radial__integrals_8hpp.html" target="_top" xlink:title="Representation of various radial integrals. ">
<polygon fill="#ffffff" stroke="#000000" points="220,-560.5 220,-579.5 324,-579.5 324,-560.5 220,-560.5"/>
<text text-anchor="middle" x="272" y="-567.5" font-family="Helvetica,sans-Serif" font-size="10.00" fill="#000000">radial_integrals.hpp</text>
</a>
</g>
</g>
<!-- Node25&#45;&gt;Node26 -->
<g id="edge39" class="edge">
<title>Node25&#45;&gt;Node26</title>
<path fill="none" stroke="#191970" d="M272,-606.1575C272,-597.155 272,-586.9199 272,-579.6427"/>
<polygon fill="#191970" stroke="#191970" points="268.5001,-606.2455 272,-616.2455 275.5001,-606.2456 268.5001,-606.2455"/>
</g>
<!-- Node26&#45;&gt;Node13 -->
<g id="edge44" class="edge">
<title>Node26&#45;&gt;Node13</title>
<path fill="none" stroke="#191970" d="M285.6386,-552.0993C312.5388,-516.7928 371.6328,-439.232 392.5121,-411.8279"/>
<polygon fill="#191970" stroke="#191970" points="282.525,-550.4107 279.2486,-560.4862 288.0931,-554.6531 282.525,-550.4107"/>
</g>
<!-- Node26&#45;&gt;Node17 -->
<g id="edge45" class="edge">
<title>Node26&#45;&gt;Node17</title>
<path fill="none" stroke="#191970" d="M270.2384,-550.2702C268.0713,-525.9985 264.4797,-485.7725 262.8504,-467.5249"/>
<polygon fill="#191970" stroke="#191970" points="266.7719,-550.8019 271.1474,-560.4509 273.7441,-550.1793 266.7719,-550.8019"/>
</g>
<!-- Node27 -->
<g id="node27" class="node">
<title>Node27</title>
<g id="a_node27"><a xlink:href="../../d3/d1c/augmentation__operator_8hpp.html" target="_top" xlink:title="Contains implementation of sirius::Augmentation_operator class. ">
<polygon fill="#ffffff" stroke="#000000" points="66.5,-504.5 66.5,-523.5 205.5,-523.5 205.5,-504.5 66.5,-504.5"/>
<text text-anchor="middle" x="136" y="-511.5" font-family="Helvetica,sans-Serif" font-size="10.00" fill="#000000">augmentation_operator.hpp</text>
</a>
</g>
</g>
<!-- Node26&#45;&gt;Node27 -->
<g id="edge40" class="edge">
<title>Node26&#45;&gt;Node27</title>
<path fill="none" stroke="#191970" d="M239.2601,-556.5189C214.4917,-546.3201 181.095,-532.5685 159.0742,-523.5011"/>
<polygon fill="#191970" stroke="#191970" points="238.0413,-559.8021 248.6208,-560.3733 240.7066,-553.3293 238.0413,-559.8021"/>
</g>
<!-- Node27&#45;&gt;Node17 -->
<g id="edge43" class="edge">
<title>Node27&#45;&gt;Node17</title>
<path fill="none" stroke="#191970" d="M166.9436,-500.2473C189.8265,-490.0771 220.4014,-476.4883 240.6225,-467.5011"/>
<polygon fill="#191970" stroke="#191970" points="165.3768,-497.1135 157.6602,-504.3733 168.2198,-503.5102 165.3768,-497.1135"/>
</g>
<!-- Node27&#45;&gt;Node19 -->
<g id="edge41" class="edge">
<title>Node27&#45;&gt;Node19</title>
<path fill="none" stroke="#191970" d="M134.59,-494.2601C132.0119,-458.1669 126.6261,-382.7656 124.702,-355.8279"/>
<polygon fill="#191970" stroke="#191970" points="131.1168,-494.761 135.3204,-504.4862 138.099,-494.2623 131.1168,-494.761"/>
</g>
<!-- Node27&#45;&gt;Node21 -->
<g id="edge42" class="edge">
<title>Node27&#45;&gt;Node21</title>
<path fill="none" stroke="#191970" d="M142.9456,-494.9511C153.6254,-465.3893 174.471,-406.597 190,-356 196.0635,-336.2439 202.2,-312.8534 205.509,-299.8958"/>
<polygon fill="#191970" stroke="#191970" points="139.6196,-493.8563 139.4995,-504.4505 146.2,-496.2435 139.6196,-493.8563"/>
</g>
</g>
</svg>
