<?xml version="1.0" encoding="UTF-8" standalone="no"?>
<!DOCTYPE svg PUBLIC "-//W3C//DTD SVG 1.1//EN"
 "http://www.w3.org/Graphics/SVG/1.1/DTD/svg11.dtd">
<!-- Generated by graphviz version 2.40.1 (20161225.0304)
 -->
<!-- Title: wf_inner.hpp Pages: 1 -->
<!--zoomable 442 -->
<svg id="main" version="1.1" xmlns="http://www.w3.org/2000/svg" xmlns:xlink="http://www.w3.org/1999/xlink" xml:space="preserve" onload="init(evt)">
<style type="text/css"><![CDATA[
.edge:hover path { stroke: red; }
.edge:hover polygon { stroke: red; fill: red; }
]]></style>
<script type="text/javascript"><![CDATA[
var edges = document.getElementsByTagName('g');
if (edges && edges.length) {
  for (var i=0;i<edges.length;i++) {
    if (edges[i].id.substr(0,4)=='edge') {
      edges[i].setAttribute('class','edge');
    }
  }
}
]]></script>
        <defs>
                <circle id="rim" cx="0" cy="0" r="7"/>
                <circle id="rim2" cx="0" cy="0" r="3.5"/>
                <g id="zoomPlus">
                        <use xlink:href="#rim" fill="#404040">
                                <set attributeName="fill" to="#808080" begin="zoomplus.mouseover" end="zoomplus.mouseout"/>
                        </use>
                        <path d="M-4,0h8M0,-4v8" fill="none" stroke="white" stroke-width="1.5" pointer-events="none"/>
                </g>
                <g id="zoomMin">
                        <use xlink:href="#rim" fill="#404040">
                                <set attributeName="fill" to="#808080" begin="zoomminus.mouseover" end="zoomminus.mouseout"/>
                        </use>
                        <path d="M-4,0h8" fill="none" stroke="white" stroke-width="1.5" pointer-events="none"/>
                </g>
                <g id="dirArrow">
                        <path fill="none" stroke="white" stroke-width="1.5" d="M0,-3.0v7 M-2.5,-0.5L0,-3.0L2.5,-0.5"/>
                </g>
               <g id="resetDef">
                       <use xlink:href="#rim2" fill="#404040">
                               <set attributeName="fill" to="#808080" begin="reset.mouseover" end="reset.mouseout"/>
                       </use>
               </g>
        </defs>

<script type="text/javascript">
var viewWidth = 2512;
var viewHeight = 442;
var sectionId = 'dynsection-1';
</script>
<script xlink:href="../../svgpan.js"/>
<svg id="graph" class="graph">
<g id="viewport">
<title>wf_inner.hpp</title>
<polygon fill="#ffffff" stroke="transparent" points="-4,4 -4,-438 2508,-438 2508,4 -4,4"/>
<!-- Node1 -->
<g id="node1" class="node">
<title>Node1</title>
<g id="a_node1"><a xlink:title="Contains implementation of inner product for wave&#45;functions.">
<polygon fill="#bfbfbf" stroke="#000000" points="533,-414.5 533,-433.5 607,-433.5 607,-414.5 533,-414.5"/>
<text text-anchor="middle" x="570" y="-421.5" font-family="Helvetica,sans-Serif" font-size="10.00" fill="#000000">wf_inner.hpp</text>
</a>
</g>
</g>
<!-- Node2 -->
<g id="node2" class="node">
<title>Node2</title>
<g id="a_node2"><a xlink:href="../../d6/dae/band_8cpp.html" target="_top" xlink:title="Contains implementation of sirius::Band class.">
<polygon fill="#ffffff" stroke="#000000" points="169,-358.5 169,-377.5 227,-377.5 227,-358.5 169,-358.5"/>
<text text-anchor="middle" x="198" y="-365.5" font-family="Helvetica,sans-Serif" font-size="10.00" fill="#000000">band.cpp</text>
</a>
</g>
</g>
<!-- Node1&#45;&gt;Node2 -->
<g id="edge1" class="edge">
<title>Node1&#45;&gt;Node2</title>
<path fill="none" stroke="#191970" d="M522.3435,-419.2636C457.2685,-412.3812 337.1343,-398.1951 236,-378 233.1903,-377.4389 230.2797,-376.7928 227.3769,-376.1046"/>
<polygon fill="#191970" stroke="#191970" points="522.3772,-422.7861 532.687,-420.3449 523.1051,-415.8241 522.3772,-422.7861"/>
</g>
<!-- Node3 -->
<g id="node3" class="node">
<title>Node3</title>
<g id="a_node3"><a xlink:href="../../dd/df3/diag__full__potential_8cpp.html" target="_top" xlink:title="Diagonalization of full&#45;potential Hamiltonian.">
<polygon fill="#ffffff" stroke="#000000" points="245,-358.5 245,-377.5 361,-377.5 361,-358.5 245,-358.5"/>
<text text-anchor="middle" x="303" y="-365.5" font-family="Helvetica,sans-Serif" font-size="10.00" fill="#000000">diag_full_potential.cpp</text>
</a>
</g>
</g>
<!-- Node1&#45;&gt;Node3 -->
<g id="edge2" class="edge">
<title>Node1&#45;&gt;Node3</title>
<path fill="none" stroke="#191970" d="M522.8295,-414.1066C473.7202,-403.8065 397.321,-387.7827 348.7472,-377.5949"/>
<polygon fill="#191970" stroke="#191970" points="522.3693,-417.5861 532.8748,-416.2134 523.8062,-410.7352 522.3693,-417.5861"/>
</g>
<!-- Node4 -->
<g id="node4" class="node">
<title>Node4</title>
<g id="a_node4"><a xlink:href="../../d7/d97/residuals_8cpp.html" target="_top" xlink:title="Compute residuals from the eigen&#45;vectors and basis functions.">
<polygon fill="#ffffff" stroke="#000000" points="379.5,-358.5 379.5,-377.5 454.5,-377.5 454.5,-358.5 379.5,-358.5"/>
<text text-anchor="middle" x="417" y="-365.5" font-family="Helvetica,sans-Serif" font-size="10.00" fill="#000000">residuals.cpp</text>
</a>
</g>
</g>
<!-- Node1&#45;&gt;Node4 -->
<g id="edge3" class="edge">
<title>Node1&#45;&gt;Node4</title>
<path fill="none" stroke="#191970" d="M534.2721,-410.9231C506.3029,-400.686 468.0607,-386.6889 442.9584,-377.5011"/>
<polygon fill="#191970" stroke="#191970" points="533.1046,-414.2228 543.6984,-414.3733 535.5106,-407.6493 533.1046,-414.2228"/>
</g>
<!-- Node5 -->
<g id="node5" class="node">
<title>Node5</title>
<g id="a_node5"><a xlink:href="../../d9/d86/density_8cpp.html" target="_top" xlink:title="Contains implementation of sirius::Density class.">
<polygon fill="#ffffff" stroke="#000000" points="404.5,-241 404.5,-260 471.5,-260 471.5,-241 404.5,-241"/>
<text text-anchor="middle" x="438" y="-248" font-family="Helvetica,sans-Serif" font-size="10.00" fill="#000000">density.cpp</text>
</a>
</g>
</g>
<!-- Node1&#45;&gt;Node5 -->
<g id="edge4" class="edge">
<title>Node1&#45;&gt;Node5</title>
<path fill="none" stroke="#191970" d="M542.3637,-409.3454C529.2351,-401.3785 514.0402,-390.58 503,-378 469.8949,-340.2777 448.5635,-282.7019 441.0373,-260.0906"/>
<polygon fill="#191970" stroke="#191970" points="540.6422,-412.3931 551.0461,-414.3956 544.1618,-406.3422 540.6422,-412.3931"/>
</g>
<!-- Node6 -->
<g id="node6" class="node">
<title>Node6</title>
<g id="a_node6"><a xlink:href="../../d0/d16/occupation__matrix_8hpp.html" target="_top" xlink:title="Occupation matrix of the LDA+U method.">
<polygon fill="#ffffff" stroke="#000000" points="511.5,-358.5 511.5,-377.5 628.5,-377.5 628.5,-358.5 511.5,-358.5"/>
<text text-anchor="middle" x="570" y="-365.5" font-family="Helvetica,sans-Serif" font-size="10.00" fill="#000000">occupation_matrix.hpp</text>
</a>
</g>
</g>
<!-- Node1&#45;&gt;Node6 -->
<g id="edge5" class="edge">
<title>Node1&#45;&gt;Node6</title>
<path fill="none" stroke="#191970" d="M570,-404.1575C570,-395.155 570,-384.9199 570,-377.6427"/>
<polygon fill="#191970" stroke="#191970" points="566.5001,-404.2455 570,-414.2455 573.5001,-404.2456 566.5001,-404.2455"/>
</g>
<!-- Node34 -->
<g id="node34" class="node">
<title>Node34</title>
<g id="a_node34"><a xlink:href="../../db/d74/hubbard_8hpp.html" target="_top" xlink:title="Contains declaration and partial implementation of sirius::Hubbard class.">
<polygon fill="#ffffff" stroke="#000000" points="1921.5,-302.5 1921.5,-321.5 1994.5,-321.5 1994.5,-302.5 1921.5,-302.5"/>
<text text-anchor="middle" x="1958" y="-309.5" font-family="Helvetica,sans-Serif" font-size="10.00" fill="#000000">hubbard.hpp</text>
</a>
</g>
</g>
<!-- Node1&#45;&gt;Node34 -->
<g id="edge41" class="edge">
<title>Node1&#45;&gt;Node34</title>
<path fill="none" stroke="#191970" d="M593.2514,-408.6297C621.6464,-390.0009 667.0199,-360.7423 676,-358 797.744,-320.822 1724.5187,-313.3607 1921.3333,-312.1901"/>
<polygon fill="#191970" stroke="#191970" points="591.1274,-405.8374 584.6965,-414.2573 594.9745,-411.6855 591.1274,-405.8374"/>
</g>
<!-- Node40 -->
<g id="node40" class="node">
<title>Node40</title>
<g id="a_node40"><a xlink:href="../../d3/dab/k__point_8cpp.html" target="_top" xlink:title="Contains partial implementation of sirius::K_point class.">
<polygon fill="#ffffff" stroke="#000000" points="685,-358.5 685,-377.5 753,-377.5 753,-358.5 685,-358.5"/>
<text text-anchor="middle" x="719" y="-365.5" font-family="Helvetica,sans-Serif" font-size="10.00" fill="#000000">k_point.cpp</text>
</a>
</g>
</g>
<!-- Node1&#45;&gt;Node40 -->
<g id="edge49" class="edge">
<title>Node1&#45;&gt;Node40</title>
<path fill="none" stroke="#191970" d="M605.1512,-410.7888C632.3568,-400.5639 669.3809,-386.6488 693.7202,-377.5011"/>
<polygon fill="#191970" stroke="#191970" points="603.7434,-407.5788 595.614,-414.3733 606.2061,-414.1313 603.7434,-407.5788"/>
</g>
<!-- Node41 -->
<g id="node41" class="node">
<title>Node41</title>
<g id="a_node41"><a xlink:href="../../d7/d5c/wf__inner_8cpp.html" target="_top" xlink:title="Definitions.">
<polygon fill="#ffffff" stroke="#000000" points="771.5,-358.5 771.5,-377.5 844.5,-377.5 844.5,-358.5 771.5,-358.5"/>
<text text-anchor="middle" x="808" y="-365.5" font-family="Helvetica,sans-Serif" font-size="10.00" fill="#000000">wf_inner.cpp</text>
</a>
</g>
</g>
<!-- Node1&#45;&gt;Node41 -->
<g id="edge50" class="edge">
<title>Node1&#45;&gt;Node41</title>
<path fill="none" stroke="#191970" d="M617.0711,-412.9244C662.411,-402.2562 730.0469,-386.3419 771.4641,-376.5967"/>
<polygon fill="#191970" stroke="#191970" points="616.12,-409.5526 607.1875,-415.25 617.7233,-416.3665 616.12,-409.5526"/>
</g>
<!-- Node42 -->
<g id="node42" class="node">
<title>Node42</title>
<g id="a_node42"><a xlink:href="../../dc/da9/wf__ortho_8cpp.html" target="_top" xlink:title="Definitions.">
<polygon fill="#ffffff" stroke="#000000" points="863,-358.5 863,-377.5 937,-377.5 937,-358.5 863,-358.5"/>
<text text-anchor="middle" x="900" y="-365.5" font-family="Helvetica,sans-Serif" font-size="10.00" fill="#000000">wf_ortho.cpp</text>
</a>
</g>
</g>
<!-- Node1&#45;&gt;Node42 -->
<g id="edge51" class="edge">
<title>Node1&#45;&gt;Node42</title>
<path fill="none" stroke="#191970" d="M617.3887,-417.1168C673.8809,-408.7285 771.0729,-393.7181 854,-378 856.8907,-377.4521 859.878,-376.8605 862.8777,-376.2484"/>
<polygon fill="#191970" stroke="#191970" points="616.7071,-413.6795 607.3267,-418.6047 617.7311,-420.6042 616.7071,-413.6795"/>
</g>
<!-- Node7 -->
<g id="node7" class="node">
<title>Node7</title>
<g id="a_node7"><a xlink:href="../../d0/d9a/density_8hpp.html" target="_top" xlink:title="Contains definition and partial implementation of sirius::Density class.">
<polygon fill="#ffffff" stroke="#000000" points="523,-302.5 523,-321.5 591,-321.5 591,-302.5 523,-302.5"/>
<text text-anchor="middle" x="557" y="-309.5" font-family="Helvetica,sans-Serif" font-size="10.00" fill="#000000">density.hpp</text>
</a>
</g>
</g>
<!-- Node6&#45;&gt;Node7 -->
<g id="edge6" class="edge">
<title>Node6&#45;&gt;Node7</title>
<path fill="none" stroke="#191970" d="M565.4625,-348.4538C563.3561,-339.3803 560.9464,-328.9998 559.2385,-321.6427"/>
<polygon fill="#191970" stroke="#191970" points="562.0649,-349.2961 567.7356,-358.2455 568.8835,-347.7131 562.0649,-349.2961"/>
</g>
<!-- Node33 -->
<g id="node33" class="node">
<title>Node33</title>
<g id="a_node33"><a xlink:href="../../d9/d69/occupation__matrix_8cpp.html" target="_top" xlink:title="Occupation matrix of the LDA+U method.">
<polygon fill="#ffffff" stroke="#000000" points="609.5,-302.5 609.5,-321.5 726.5,-321.5 726.5,-302.5 609.5,-302.5"/>
<text text-anchor="middle" x="668" y="-309.5" font-family="Helvetica,sans-Serif" font-size="10.00" fill="#000000">occupation_matrix.cpp</text>
</a>
</g>
</g>
<!-- Node6&#45;&gt;Node33 -->
<g id="edge40" class="edge">
<title>Node6&#45;&gt;Node33</title>
<path fill="none" stroke="#191970" d="M596.1686,-353.0465C613.6058,-343.0824 636.0111,-330.2794 651.1253,-321.6427"/>
<polygon fill="#191970" stroke="#191970" points="594.0162,-350.2453 587.0703,-358.2455 597.4892,-356.323 594.0162,-350.2453"/>
</g>
<!-- Node7&#45;&gt;Node5 -->
<g id="edge7" class="edge">
<title>Node7&#45;&gt;Node5</title>
<path fill="none" stroke="#191970" d="M529.3812,-297.7264C506.9621,-286.1401 475.9737,-270.1251 456.4632,-260.0419"/>
<polygon fill="#191970" stroke="#191970" points="527.9156,-300.9087 538.4063,-302.3906 531.1294,-294.6901 527.9156,-300.9087"/>
</g>
<!-- Node8 -->
<g id="node8" class="node">
<title>Node8</title>
<g id="a_node8"><a xlink:href="../../d4/de1/energy_8hpp.html" target="_top" xlink:title="Total energy terms.">
<polygon fill="#ffffff" stroke="#000000" points="1512.5,-174 1512.5,-193 1579.5,-193 1579.5,-174 1512.5,-174"/>
<text text-anchor="middle" x="1546" y="-181" font-family="Helvetica,sans-Serif" font-size="10.00" fill="#000000">energy.hpp</text>
</a>
</g>
</g>
<!-- Node7&#45;&gt;Node8 -->
<g id="edge8" class="edge">
<title>Node7&#45;&gt;Node8</title>
<path fill="none" stroke="#191970" d="M600.6951,-302.0489C600.7968,-302.0325 600.8985,-302.0162 601,-302 771.5877,-274.8002 816.3193,-285.1247 988,-266 1217.8368,-240.3969 1279.4433,-254.27 1504,-199 1510.1886,-197.4768 1516.7219,-195.3391 1522.744,-193.1368"/>
<polygon fill="#191970" stroke="#191970" points="600.2379,-298.5745 591.0243,-303.8052 601.4888,-305.4619 600.2379,-298.5745"/>
</g>
<!-- Node16 -->
<g id="node16" class="node">
<title>Node16</title>
<g id="a_node16"><a xlink:href="../../df/d4d/force_8cpp.html" target="_top" xlink:title="Contains implementation of sirius::Force class.">
<polygon fill="#ffffff" stroke="#000000" points="0,-174 0,-193 58,-193 58,-174 0,-174"/>
<text text-anchor="middle" x="29" y="-181" font-family="Helvetica,sans-Serif" font-size="10.00" fill="#000000">force.cpp</text>
</a>
</g>
</g>
<!-- Node7&#45;&gt;Node16 -->
<g id="edge16" class="edge">
<title>Node7&#45;&gt;Node16</title>
<path fill="none" stroke="#191970" d="M540.5928,-294.7857C519.3942,-272.6328 484.7471,-236.761 481,-235 313.8453,-156.4423 246.5308,-242.3668 67,-199 61.0439,-197.5613 54.8011,-195.3399 49.1364,-193.0242"/>
<polygon fill="#191970" stroke="#191970" points="538.2737,-297.425 547.7122,-302.2381 543.3353,-292.5896 538.2737,-297.425"/>
</g>
<!-- Node17 -->
<g id="node17" class="node">
<title>Node17</title>
<g id="a_node17"><a xlink:href="../../da/d42/adaptor_8hpp_source.html" target="_top" xlink:title=" ">
<polygon fill="#ffffff" stroke="#000000" points="76,-174 76,-193 146,-193 146,-174 76,-174"/>
<text text-anchor="middle" x="111" y="-181" font-family="Helvetica,sans-Serif" font-size="10.00" fill="#000000">adaptor.hpp</text>
</a>
</g>
</g>
<!-- Node7&#45;&gt;Node17 -->
<g id="edge17" class="edge">
<title>Node7&#45;&gt;Node17</title>
<path fill="none" stroke="#191970" d="M551.822,-292.6519C545.8778,-274.521 534.237,-248.2795 514,-235 446.9658,-191.0123 233.2573,-216.4441 155,-199 148.3598,-197.5199 141.3399,-195.3422 134.9045,-193.0842"/>
<polygon fill="#191970" stroke="#191970" points="548.5373,-293.8849 554.7494,-302.4675 555.2453,-291.8843 548.5373,-293.8849"/>
</g>
<!-- Node18 -->
<g id="node18" class="node">
<title>Node18</title>
<g id="a_node18"><a xlink:href="../../d5/df1/apply__hamiltonian_8hpp_source.html" target="_top" xlink:title=" ">
<polygon fill="#ffffff" stroke="#000000" points="164.5,-174 164.5,-193 281.5,-193 281.5,-174 164.5,-174"/>
<text text-anchor="middle" x="223" y="-181" font-family="Helvetica,sans-Serif" font-size="10.00" fill="#000000">apply_hamiltonian.hpp</text>
</a>
</g>
</g>
<!-- Node7&#45;&gt;Node18 -->
<g id="edge18" class="edge">
<title>Node7&#45;&gt;Node18</title>
<path fill="none" stroke="#191970" d="M561.9202,-292.1136C564.9164,-274.7983 565.8741,-250.159 552,-235 516.6272,-196.3515 370.7503,-207.1755 319,-199 306.9101,-197.09 293.9684,-195.0187 281.6271,-193.0306"/>
<polygon fill="#191970" stroke="#191970" points="558.4191,-291.7559 559.7922,-302.2614 565.2701,-293.1926 558.4191,-291.7559"/>
</g>
<!-- Node19 -->
<g id="node19" class="node">
<title>Node19</title>
<g id="a_node19"><a xlink:href="../../de/df2/potential_8hpp.html" target="_top" xlink:title="Contains declaration and partial implementation of sirius::Potential class.">
<polygon fill="#ffffff" stroke="#000000" points="905,-241 905,-260 979,-260 979,-241 905,-241"/>
<text text-anchor="middle" x="942" y="-248" font-family="Helvetica,sans-Serif" font-size="10.00" fill="#000000">potential.hpp</text>
</a>
</g>
</g>
<!-- Node7&#45;&gt;Node19 -->
<g id="edge19" class="edge">
<title>Node7&#45;&gt;Node19</title>
<path fill="none" stroke="#191970" d="M600.6965,-302.0574C600.7978,-302.0382 600.899,-302.0191 601,-302 710.8696,-281.2473 841.9073,-263.3663 904.7612,-255.211"/>
<polygon fill="#191970" stroke="#191970" points="600.1698,-298.5932 591.0581,-303.9993 601.5524,-305.4553 600.1698,-298.5932"/>
</g>
<!-- Node9 -->
<g id="node9" class="node">
<title>Node9</title>
<g id="a_node9"><a xlink:href="../../df/dc4/dft__ground__state_8hpp.html" target="_top" xlink:title="Contains definition and partial implementation of sirius::DFT_ground_state class.">
<polygon fill="#ffffff" stroke="#000000" points="1636.5,-112.5 1636.5,-131.5 1747.5,-131.5 1747.5,-112.5 1636.5,-112.5"/>
<text text-anchor="middle" x="1692" y="-119.5" font-family="Helvetica,sans-Serif" font-size="10.00" fill="#000000">dft_ground_state.hpp</text>
</a>
</g>
</g>
<!-- Node8&#45;&gt;Node9 -->
<g id="edge9" class="edge">
<title>Node8&#45;&gt;Node9</title>
<path fill="none" stroke="#191970" d="M1578.0594,-169.9955C1605.6867,-158.358 1644.8761,-141.8501 1669.3477,-131.5419"/>
<polygon fill="#191970" stroke="#191970" points="1576.6696,-166.7831 1568.8125,-173.8906 1579.387,-173.2341 1576.6696,-166.7831"/>
</g>
<!-- Node13 -->
<g id="node13" class="node">
<title>Node13</title>
<g id="a_node13"><a xlink:href="../../d5/df5/energy_8cpp.html" target="_top" xlink:title="Total energy terms.">
<polygon fill="#ffffff" stroke="#000000" points="1472,-112.5 1472,-131.5 1538,-131.5 1538,-112.5 1472,-112.5"/>
<text text-anchor="middle" x="1505" y="-119.5" font-family="Helvetica,sans-Serif" font-size="10.00" fill="#000000">energy.cpp</text>
</a>
</g>
</g>
<!-- Node8&#45;&gt;Node13 -->
<g id="edge13" class="edge">
<title>Node8&#45;&gt;Node13</title>
<path fill="none" stroke="#191970" d="M1533.9446,-165.4169C1526.6029,-154.4043 1517.51,-140.765 1511.4966,-131.7449"/>
<polygon fill="#191970" stroke="#191970" points="1531.1345,-167.5116 1539.5938,-173.8906 1536.9589,-163.6286 1531.1345,-167.5116"/>
</g>
<!-- Node14 -->
<g id="node14" class="node">
<title>Node14</title>
<g id="a_node14"><a xlink:href="../../d4/d58/stress_8cpp.html" target="_top" xlink:title="Contains implementation of sirius::Stress class.">
<polygon fill="#ffffff" stroke="#000000" points="1556,-112.5 1556,-131.5 1618,-131.5 1618,-112.5 1556,-112.5"/>
<text text-anchor="middle" x="1587" y="-119.5" font-family="Helvetica,sans-Serif" font-size="10.00" fill="#000000">stress.cpp</text>
</a>
</g>
</g>
<!-- Node8&#45;&gt;Node14 -->
<g id="edge14" class="edge">
<title>Node8&#45;&gt;Node14</title>
<path fill="none" stroke="#191970" d="M1558.0554,-165.4169C1565.3971,-154.4043 1574.49,-140.765 1580.5034,-131.7449"/>
<polygon fill="#191970" stroke="#191970" points="1555.0411,-163.6286 1552.4063,-173.8906 1560.8655,-167.5116 1555.0411,-163.6286"/>
</g>
<!-- Node15 -->
<g id="node15" class="node">
<title>Node15</title>
<g id="a_node15"><a xlink:href="../../dd/d59/check__xc__potential_8cpp.html" target="_top" xlink:title="Check XC potential by doing numerical functional derivative.">
<polygon fill="#ffffff" stroke="#000000" points="813,-112.5 813,-131.5 933,-131.5 933,-112.5 813,-112.5"/>
<text text-anchor="middle" x="873" y="-119.5" font-family="Helvetica,sans-Serif" font-size="10.00" fill="#000000">check_xc_potential.cpp</text>
</a>
</g>
</g>
<!-- Node8&#45;&gt;Node15 -->
<g id="edge15" class="edge">
<title>Node8&#45;&gt;Node15</title>
<path fill="none" stroke="#191970" d="M1513.9407,-170.6334C1510.6206,-169.6138 1507.2665,-168.707 1504,-168 1396.1769,-144.6623 1069.0554,-129.6269 933.1754,-124.2338"/>
<polygon fill="#191970" stroke="#191970" points="1513.0833,-174.0385 1523.6777,-173.9431 1515.3362,-167.4109 1513.0833,-174.0385"/>
</g>
<!-- Node10 -->
<g id="node10" class="node">
<title>Node10</title>
<g id="a_node10"><a xlink:href="../../d9/dde/dft__ground__state_8cpp.html" target="_top" xlink:title="Contains implementation of sirius::DFT_ground_state class.">
<polygon fill="#ffffff" stroke="#000000" points="1585,-56.5 1585,-75.5 1695,-75.5 1695,-56.5 1585,-56.5"/>
<text text-anchor="middle" x="1640" y="-63.5" font-family="Helvetica,sans-Serif" font-size="10.00" fill="#000000">dft_ground_state.cpp</text>
</a>
</g>
</g>
<!-- Node9&#45;&gt;Node10 -->
<g id="edge10" class="edge">
<title>Node9&#45;&gt;Node10</title>
<path fill="none" stroke="#191970" d="M1676.0178,-104.7884C1667.1222,-95.2085 1656.3796,-83.6396 1648.9539,-75.6427"/>
<polygon fill="#191970" stroke="#191970" points="1673.573,-107.2992 1682.9423,-112.2455 1678.7025,-102.536 1673.573,-107.2992"/>
</g>
<!-- Node11 -->
<g id="node11" class="node">
<title>Node11</title>
<g id="a_node11"><a xlink:href="../../d2/d92/sirius_8hpp.html" target="_top" xlink:title="&quot;All&#45;in&#45;one&quot; include file.">
<polygon fill="#ffffff" stroke="#000000" points="1713.5,-56.5 1713.5,-75.5 1772.5,-75.5 1772.5,-56.5 1713.5,-56.5"/>
<text text-anchor="middle" x="1743" y="-63.5" font-family="Helvetica,sans-Serif" font-size="10.00" fill="#000000">sirius.hpp</text>
</a>
</g>
</g>
<!-- Node9&#45;&gt;Node11 -->
<g id="edge11" class="edge">
<title>Node9&#45;&gt;Node11</title>
<path fill="none" stroke="#191970" d="M1707.6749,-104.7884C1716.3994,-95.2085 1726.9354,-83.6396 1734.2183,-75.6427"/>
<polygon fill="#191970" stroke="#191970" points="1705.0291,-102.4954 1700.8835,-112.2455 1710.2046,-107.2088 1705.0291,-102.4954"/>
</g>
<!-- Node12 -->
<g id="node12" class="node">
<title>Node12</title>
<g id="a_node12"><a xlink:href="../../d4/d53/sirius__api_8cpp.html" target="_top" xlink:title="Fortran API.">
<polygon fill="#ffffff" stroke="#000000" points="1704,-.5 1704,-19.5 1782,-19.5 1782,-.5 1704,-.5"/>
<text text-anchor="middle" x="1743" y="-7.5" font-family="Helvetica,sans-Serif" font-size="10.00" fill="#000000">sirius_api.cpp</text>
</a>
</g>
</g>
<!-- Node11&#45;&gt;Node12 -->
<g id="edge12" class="edge">
<title>Node11&#45;&gt;Node12</title>
<path fill="none" stroke="#191970" d="M1743,-46.1575C1743,-37.155 1743,-26.9199 1743,-19.6427"/>
<polygon fill="#191970" stroke="#191970" points="1739.5001,-46.2455 1743,-56.2455 1746.5001,-46.2456 1739.5001,-46.2455"/>
</g>
<!-- Node19&#45;&gt;Node8 -->
<g id="edge22" class="edge">
<title>Node19&#45;&gt;Node8</title>
<path fill="none" stroke="#191970" d="M989.0885,-247.7773C1105.8361,-240.7712 1406.2499,-221.1117 1504,-199 1510.3679,-197.5595 1517.0788,-195.3956 1523.2221,-193.138"/>
<polygon fill="#191970" stroke="#191970" points="988.8043,-244.2879 979.0303,-248.3768 989.2209,-251.2755 988.8043,-244.2879"/>
</g>
<!-- Node19&#45;&gt;Node15 -->
<g id="edge32" class="edge">
<title>Node19&#45;&gt;Node15</title>
<path fill="none" stroke="#191970" d="M894.521,-248.2526C753.8931,-241.369 348.1073,-219.7799 329,-199 319.6744,-188.858 319.6771,-178.1445 329,-168 361.2278,-132.932 678.2078,-124.5741 812.9225,-122.6015"/>
<polygon fill="#191970" stroke="#191970" points="894.412,-251.7513 904.5703,-248.7415 894.7522,-244.7596 894.412,-251.7513"/>
</g>
<!-- Node19&#45;&gt;Node16 -->
<g id="edge23" class="edge">
<title>Node19&#45;&gt;Node16</title>
<path fill="none" stroke="#191970" d="M894.7975,-248.6278C724.5427,-241.7502 147.8109,-217.3291 67,-199 61.0243,-197.6446 54.7751,-195.4507 49.1105,-193.1345"/>
<polygon fill="#191970" stroke="#191970" points="894.8159,-252.1312 904.9486,-249.0365 895.0975,-245.1369 894.8159,-252.1312"/>
</g>
<!-- Node19&#45;&gt;Node17 -->
<g id="edge30" class="edge">
<title>Node19&#45;&gt;Node17</title>
<path fill="none" stroke="#191970" d="M894.7118,-249.0986C747.3508,-244.465 297.7853,-228.2446 155,-199 148.1765,-197.6024 140.972,-195.3946 134.4125,-193.0787"/>
<polygon fill="#191970" stroke="#191970" points="894.6872,-252.5994 904.7912,-249.4122 894.9049,-245.6028 894.6872,-252.5994"/>
</g>
<!-- Node19&#45;&gt;Node18 -->
<g id="edge31" class="edge">
<title>Node19&#45;&gt;Node18</title>
<path fill="none" stroke="#191970" d="M894.505,-248.8231C787.2914,-244.5775 518.5034,-231.3518 296,-199 285.3583,-197.4527 273.9435,-195.2794 263.3755,-193.0487"/>
<polygon fill="#191970" stroke="#191970" points="894.5421,-252.3271 904.6704,-249.2177 894.8137,-245.3323 894.5421,-252.3271"/>
</g>
<!-- Node20 -->
<g id="node20" class="node">
<title>Node20</title>
<g id="a_node20"><a xlink:href="../../df/dd7/diag__pseudo__potential_8cpp.html" target="_top" xlink:title="Diagonalization of pseudopotential Hamiltonian.">
<polygon fill="#ffffff" stroke="#000000" points="1281,-174 1281,-193 1417,-193 1417,-174 1281,-174"/>
<text text-anchor="middle" x="1349" y="-181" font-family="Helvetica,sans-Serif" font-size="10.00" fill="#000000">diag_pseudo_potential.cpp</text>
</a>
</g>
</g>
<!-- Node19&#45;&gt;Node20 -->
<g id="edge20" class="edge">
<title>Node19&#45;&gt;Node20</title>
<path fill="none" stroke="#191970" d="M989.4141,-243.7673C1053.6126,-234.4991 1171.6968,-216.9133 1272,-199 1282.2021,-197.178 1293.1331,-195.0717 1303.461,-193.0105"/>
<polygon fill="#191970" stroke="#191970" points="988.6051,-240.3476 979.2057,-245.2365 989.6023,-247.2762 988.6051,-240.3476"/>
</g>
<!-- Node21 -->
<g id="node21" class="node">
<title>Node21</title>
<g id="a_node21"><a xlink:href="../../d4/d9e/solve_8cpp.html" target="_top" xlink:title="Contains interfaces to the sirius::Band solvers.">
<polygon fill="#ffffff" stroke="#000000" points="1435.5,-174 1435.5,-193 1494.5,-193 1494.5,-174 1435.5,-174"/>
<text text-anchor="middle" x="1465" y="-181" font-family="Helvetica,sans-Serif" font-size="10.00" fill="#000000">solve.cpp</text>
</a>
</g>
</g>
<!-- Node19&#45;&gt;Node21 -->
<g id="edge21" class="edge">
<title>Node19&#45;&gt;Node21</title>
<path fill="none" stroke="#191970" d="M989.0533,-247.1323C1093.878,-239.364 1343.8283,-219.2961 1426,-199 1431.9417,-197.5324 1438.1831,-195.3591 1443.8878,-193.1012"/>
<polygon fill="#191970" stroke="#191970" points="988.7917,-243.642 979.0758,-247.867 989.3058,-250.6231 988.7917,-243.642"/>
</g>
<!-- Node22 -->
<g id="node22" class="node">
<title>Node22</title>
<g id="a_node22"><a xlink:href="../../d7/dd1/stress_8hpp.html" target="_top" xlink:title="Contains definition of sirius::Stress tensor class.">
<polygon fill="#ffffff" stroke="#000000" points="1597.5,-174 1597.5,-193 1660.5,-193 1660.5,-174 1597.5,-174"/>
<text text-anchor="middle" x="1629" y="-181" font-family="Helvetica,sans-Serif" font-size="10.00" fill="#000000">stress.hpp</text>
</a>
</g>
</g>
<!-- Node19&#45;&gt;Node22 -->
<g id="edge24" class="edge">
<title>Node19&#45;&gt;Node22</title>
<path fill="none" stroke="#191970" d="M989.3824,-248.5117C1118.5286,-242.8089 1474.6718,-225.1137 1589,-199 1595.2441,-197.5738 1601.8071,-195.3566 1607.7701,-193.0408"/>
<polygon fill="#191970" stroke="#191970" points="988.8766,-245.0304 979.0392,-248.9642 989.1826,-252.0237 988.8766,-245.0304"/>
</g>
<!-- Node23 -->
<g id="node23" class="node">
<title>Node23</title>
<g id="a_node23"><a xlink:href="../../db/d8b/hamiltonian_8cpp.html" target="_top" xlink:title="Contains definition of sirius::Hamiltonian0 class.">
<polygon fill="#ffffff" stroke="#000000" points="1678.5,-174 1678.5,-193 1765.5,-193 1765.5,-174 1678.5,-174"/>
<text text-anchor="middle" x="1722" y="-181" font-family="Helvetica,sans-Serif" font-size="10.00" fill="#000000">hamiltonian.cpp</text>
</a>
</g>
</g>
<!-- Node19&#45;&gt;Node23 -->
<g id="edge27" class="edge">
<title>Node19&#45;&gt;Node23</title>
<path fill="none" stroke="#191970" d="M989.3789,-248.5061C1129.1976,-242.4071 1538.4881,-222.9526 1670,-199 1677.9703,-197.5483 1686.454,-195.3228 1694.2066,-193.0071"/>
<polygon fill="#191970" stroke="#191970" points="988.8486,-245.0257 979.0095,-248.9554 989.1517,-252.0191 988.8486,-245.0257"/>
</g>
<!-- Node24 -->
<g id="node24" class="node">
<title>Node24</title>
<g id="a_node24"><a xlink:href="../../d3/d3d/hamiltonian__k_8cpp.html" target="_top" xlink:title="Contains definition of sirius::Hamiltonian_k class.">
<polygon fill="#ffffff" stroke="#000000" points="338.5,-174 338.5,-193 435.5,-193 435.5,-174 338.5,-174"/>
<text text-anchor="middle" x="387" y="-181" font-family="Helvetica,sans-Serif" font-size="10.00" fill="#000000">hamiltonian_k.cpp</text>
</a>
</g>
</g>
<!-- Node19&#45;&gt;Node24 -->
<g id="edge28" class="edge">
<title>Node19&#45;&gt;Node24</title>
<path fill="none" stroke="#191970" d="M894.8124,-248.1792C805.9523,-243.2446 607.9758,-229.564 444,-199 435.6323,-197.4403 426.6988,-195.2627 418.446,-193.0317"/>
<polygon fill="#191970" stroke="#191970" points="894.67,-251.6766 904.8453,-248.7248 895.0501,-244.6869 894.67,-251.6766"/>
</g>
<!-- Node25 -->
<g id="node25" class="node">
<title>Node25</title>
<g id="a_node25"><a xlink:href="../../de/d63/local__operator_8cpp.html" target="_top" xlink:title="Implementation of sirius::Local_operator class.">
<polygon fill="#ffffff" stroke="#000000" points="453.5,-174 453.5,-193 552.5,-193 552.5,-174 453.5,-174"/>
<text text-anchor="middle" x="503" y="-181" font-family="Helvetica,sans-Serif" font-size="10.00" fill="#000000">local_operator.cpp</text>
</a>
</g>
</g>
<!-- Node19&#45;&gt;Node25 -->
<g id="edge29" class="edge">
<title>Node19&#45;&gt;Node25</title>
<path fill="none" stroke="#191970" d="M894.6663,-245.9644C822.4769,-238.6246 680.7268,-222.5491 562,-199 553.6894,-197.3516 544.8112,-195.2198 536.5317,-193.0677"/>
<polygon fill="#191970" stroke="#191970" points="894.5013,-249.4653 904.8014,-246.9837 895.2019,-242.5005 894.5013,-249.4653"/>
</g>
<!-- Node26 -->
<g id="node26" class="node">
<title>Node26</title>
<g id="a_node26"><a xlink:href="../../d4/db8/generate__d__operator__matrix_8cpp_source.html" target="_top" xlink:title=" ">
<polygon fill="#ffffff" stroke="#000000" points="571,-168.5 571,-198.5 681,-198.5 681,-168.5 571,-168.5"/>
<text text-anchor="start" x="579" y="-186.5" font-family="Helvetica,sans-Serif" font-size="10.00" fill="#000000">generate_d_operator</text>
<text text-anchor="middle" x="626" y="-175.5" font-family="Helvetica,sans-Serif" font-size="10.00" fill="#000000">_matrix.cpp</text>
</a>
</g>
</g>
<!-- Node19&#45;&gt;Node26 -->
<g id="edge33" class="edge">
<title>Node19&#45;&gt;Node26</title>
<path fill="none" stroke="#191970" d="M894.9537,-241.31C844.4468,-231.336 761.8993,-214.7228 691,-199 687.8287,-198.2967 684.5736,-197.5619 681.2908,-196.8108"/>
<polygon fill="#191970" stroke="#191970" points="894.4339,-244.7748 904.9219,-243.2745 895.7874,-237.9069 894.4339,-244.7748"/>
</g>
<!-- Node27 -->
<g id="node27" class="node">
<title>Node27</title>
<g id="a_node27"><a xlink:href="../../de/dfb/generate__pw__coeffs_8cpp_source.html" target="_top" xlink:title=" ">
<polygon fill="#ffffff" stroke="#000000" points="699.5,-174 699.5,-193 824.5,-193 824.5,-174 699.5,-174"/>
<text text-anchor="middle" x="762" y="-181" font-family="Helvetica,sans-Serif" font-size="10.00" fill="#000000">generate_pw_coeffs.cpp</text>
</a>
</g>
</g>
<!-- Node19&#45;&gt;Node27 -->
<g id="edge34" class="edge">
<title>Node19&#45;&gt;Node27</title>
<path fill="none" stroke="#191970" d="M906.3994,-237.2487C871.4097,-224.2247 818.8635,-204.6659 787.7418,-193.0817"/>
<polygon fill="#191970" stroke="#191970" points="905.6176,-240.6922 916.2104,-240.9005 908.0595,-234.1319 905.6176,-240.6922"/>
</g>
<!-- Node28 -->
<g id="node28" class="node">
<title>Node28</title>
<g id="a_node28"><a xlink:href="../../d0/d7d/paw__potential_8cpp_source.html" target="_top" xlink:title=" ">
<polygon fill="#ffffff" stroke="#000000" points="842.5,-174 842.5,-193 939.5,-193 939.5,-174 842.5,-174"/>
<text text-anchor="middle" x="891" y="-181" font-family="Helvetica,sans-Serif" font-size="10.00" fill="#000000">paw_potential.cpp</text>
</a>
</g>
</g>
<!-- Node19&#45;&gt;Node28 -->
<g id="edge35" class="edge">
<title>Node19&#45;&gt;Node28</title>
<path fill="none" stroke="#191970" d="M928.5639,-232.8486C918.8744,-220.1194 906.1652,-203.4229 898.2935,-193.0817"/>
<polygon fill="#191970" stroke="#191970" points="925.8511,-235.0634 934.6929,-240.9005 931.421,-230.8236 925.8511,-235.0634"/>
</g>
<!-- Node29 -->
<g id="node29" class="node">
<title>Node29</title>
<g id="a_node29"><a xlink:href="../../d8/dcd/poisson_8cpp_source.html" target="_top" xlink:title=" ">
<polygon fill="#ffffff" stroke="#000000" points="958,-174 958,-193 1028,-193 1028,-174 958,-174"/>
<text text-anchor="middle" x="993" y="-181" font-family="Helvetica,sans-Serif" font-size="10.00" fill="#000000">poisson.cpp</text>
</a>
</g>
</g>
<!-- Node19&#45;&gt;Node29 -->
<g id="edge36" class="edge">
<title>Node19&#45;&gt;Node29</title>
<path fill="none" stroke="#191970" d="M955.4361,-232.8486C965.1256,-220.1194 977.8348,-203.4229 985.7065,-193.0817"/>
<polygon fill="#191970" stroke="#191970" points="952.579,-230.8236 949.3071,-240.9005 958.1489,-235.0634 952.579,-230.8236"/>
</g>
<!-- Node30 -->
<g id="node30" class="node">
<title>Node30</title>
<g id="a_node30"><a xlink:href="../../d1/d97/potential_8cpp.html" target="_top" xlink:title="Generate effective potential.">
<polygon fill="#ffffff" stroke="#000000" points="1046.5,-174 1046.5,-193 1119.5,-193 1119.5,-174 1046.5,-174"/>
<text text-anchor="middle" x="1083" y="-181" font-family="Helvetica,sans-Serif" font-size="10.00" fill="#000000">potential.cpp</text>
</a>
</g>
</g>
<!-- Node19&#45;&gt;Node30 -->
<g id="edge37" class="edge">
<title>Node19&#45;&gt;Node30</title>
<path fill="none" stroke="#191970" d="M971.3108,-236.5722C998.704,-223.5555 1038.8754,-204.467 1062.8356,-193.0817"/>
<polygon fill="#191970" stroke="#191970" points="969.7319,-233.4473 962.2019,-240.9005 972.7362,-239.7699 969.7319,-233.4473"/>
</g>
<!-- Node31 -->
<g id="node31" class="node">
<title>Node31</title>
<g id="a_node31"><a xlink:href="../../d6/d2b/xc_8cpp.html" target="_top" xlink:title="Generate XC potential.">
<polygon fill="#ffffff" stroke="#000000" points="1137.5,-174 1137.5,-193 1182.5,-193 1182.5,-174 1137.5,-174"/>
<text text-anchor="middle" x="1160" y="-181" font-family="Helvetica,sans-Serif" font-size="10.00" fill="#000000">xc.cpp</text>
</a>
</g>
</g>
<!-- Node19&#45;&gt;Node31 -->
<g id="edge38" class="edge">
<title>Node19&#45;&gt;Node31</title>
<path fill="none" stroke="#191970" d="M989.0795,-240.2263C1027.3915,-231.2291 1082.532,-216.82 1129,-199 1133.3822,-197.3195 1137.9719,-195.2241 1142.2358,-193.1226"/>
<polygon fill="#191970" stroke="#191970" points="988.1825,-236.8414 979.23,-242.5073 989.7618,-243.6609 988.1825,-236.8414"/>
</g>
<!-- Node32 -->
<g id="node32" class="node">
<title>Node32</title>
<g id="a_node32"><a xlink:href="../../dc/dbb/xc__mt_8cpp.html" target="_top" xlink:title="Generate XC potential in the muffin&#45;tins.">
<polygon fill="#ffffff" stroke="#000000" points="1201,-174 1201,-193 1263,-193 1263,-174 1201,-174"/>
<text text-anchor="middle" x="1232" y="-181" font-family="Helvetica,sans-Serif" font-size="10.00" fill="#000000">xc_mt.cpp</text>
</a>
</g>
</g>
<!-- Node19&#45;&gt;Node32 -->
<g id="edge39" class="edge">
<title>Node19&#45;&gt;Node32</title>
<path fill="none" stroke="#191970" d="M989.3393,-243.167C1040.0485,-234.7531 1122.6031,-219.4387 1192,-199 1197.7153,-197.3167 1203.7649,-195.1718 1209.3815,-193.0182"/>
<polygon fill="#191970" stroke="#191970" points="988.6295,-239.7366 979.3268,-244.8072 989.7611,-246.6445 988.6295,-239.7366"/>
</g>
<!-- Node22&#45;&gt;Node9 -->
<g id="edge25" class="edge">
<title>Node22&#45;&gt;Node9</title>
<path fill="none" stroke="#191970" d="M1646.1838,-166.7253C1657.68,-155.5028 1672.4077,-141.1258 1682.0175,-131.7449"/>
<polygon fill="#191970" stroke="#191970" points="1643.5546,-164.4007 1638.8438,-173.8906 1648.4444,-169.4097 1643.5546,-164.4007"/>
</g>
<!-- Node22&#45;&gt;Node14 -->
<g id="edge26" class="edge">
<title>Node22&#45;&gt;Node14</title>
<path fill="none" stroke="#191970" d="M1616.6506,-165.4169C1609.1298,-154.4043 1599.8151,-140.765 1593.655,-131.7449"/>
<polygon fill="#191970" stroke="#191970" points="1613.9075,-167.6065 1622.4375,-173.8906 1619.6882,-163.6587 1613.9075,-167.6065"/>
</g>
<!-- Node34&#45;&gt;Node9 -->
<g id="edge42" class="edge">
<title>Node34&#45;&gt;Node9</title>
<path fill="none" stroke="#191970" d="M1911.2407,-307.4254C1880.2084,-302.126 1840.4673,-290.6877 1814,-266 1779.72,-234.0248 1805.9716,-203.1894 1775,-168 1760.088,-151.0572 1737.366,-139.0745 1719.4637,-131.5953"/>
<polygon fill="#191970" stroke="#191970" points="1910.9814,-310.9269 1921.3991,-308.9976 1912.052,-304.0093 1910.9814,-310.9269"/>
</g>
<!-- Node34&#45;&gt;Node19 -->
<g id="edge48" class="edge">
<title>Node34&#45;&gt;Node19</title>
<path fill="none" stroke="#191970" d="M1911.1688,-309.1652C1737.9489,-298.68 1135.4914,-262.2123 979.2459,-252.7545"/>
<polygon fill="#191970" stroke="#191970" points="1911.0466,-312.6642 1921.2398,-309.7748 1911.4696,-305.6769 1911.0466,-312.6642"/>
</g>
<!-- Node35 -->
<g id="node35" class="node">
<title>Node35</title>
<g id="a_node35"><a xlink:href="../../dd/d5b/apply__hubbard__potential_8cpp_source.html" target="_top" xlink:title=" ">
<polygon fill="#ffffff" stroke="#000000" points="1822.5,-241 1822.5,-260 1967.5,-260 1967.5,-241 1822.5,-241"/>
<text text-anchor="middle" x="1895" y="-248" font-family="Helvetica,sans-Serif" font-size="10.00" fill="#000000">apply_hubbard_potential.cpp</text>
</a>
</g>
</g>
<!-- Node34&#45;&gt;Node35 -->
<g id="edge43" class="edge">
<title>Node34&#45;&gt;Node35</title>
<path fill="none" stroke="#191970" d="M1940.8162,-295.2253C1929.32,-284.0028 1914.5923,-269.6258 1904.9825,-260.2449"/>
<polygon fill="#191970" stroke="#191970" points="1938.5556,-297.9097 1948.1563,-302.3906 1943.4454,-292.9007 1938.5556,-297.9097"/>
</g>
<!-- Node36 -->
<g id="node36" class="node">
<title>Node36</title>
<g id="a_node36"><a xlink:href="../../d7/d2d/hubbard_8cpp_source.html" target="_top" xlink:title=" ">
<polygon fill="#ffffff" stroke="#000000" points="1986,-241 1986,-260 2058,-260 2058,-241 1986,-241"/>
<text text-anchor="middle" x="2022" y="-248" font-family="Helvetica,sans-Serif" font-size="10.00" fill="#000000">hubbard.cpp</text>
</a>
</g>
</g>
<!-- Node34&#45;&gt;Node36 -->
<g id="edge44" class="edge">
<title>Node34&#45;&gt;Node36</title>
<path fill="none" stroke="#191970" d="M1975.4566,-295.2253C1987.1353,-284.0028 2002.0967,-269.6258 2011.859,-260.2449"/>
<polygon fill="#191970" stroke="#191970" points="1972.7854,-292.9381 1968,-302.3906 1977.6356,-297.9854 1972.7854,-292.9381"/>
</g>
<!-- Node37 -->
<g id="node37" class="node">
<title>Node37</title>
<g id="a_node37"><a xlink:href="../../d3/d2b/hubbard__occupancies__derivatives_8cpp_source.html" target="_top" xlink:title=" ">
<polygon fill="#ffffff" stroke="#000000" points="2076,-235.5 2076,-265.5 2190,-265.5 2190,-235.5 2076,-235.5"/>
<text text-anchor="start" x="2084" y="-253.5" font-family="Helvetica,sans-Serif" font-size="10.00" fill="#000000">hubbard_occupancies</text>
<text text-anchor="middle" x="2133" y="-242.5" font-family="Helvetica,sans-Serif" font-size="10.00" fill="#000000">_derivatives.cpp</text>
</a>
</g>
</g>
<!-- Node34&#45;&gt;Node37 -->
<g id="edge45" class="edge">
<title>Node34&#45;&gt;Node37</title>
<path fill="none" stroke="#191970" d="M1995.0929,-298.9645C2022.9199,-289.1853 2061.0689,-275.7786 2090.1902,-265.5446"/>
<polygon fill="#191970" stroke="#191970" points="1993.6177,-295.773 1985.3438,-302.3906 1995.9386,-302.3771 1993.6177,-295.773"/>
</g>
<!-- Node38 -->
<g id="node38" class="node">
<title>Node38</title>
<g id="a_node38"><a xlink:href="../../d6/dfc/hubbard__occupancy_8cpp_source.html" target="_top" xlink:title=" ">
<polygon fill="#ffffff" stroke="#000000" points="2208.5,-241 2208.5,-260 2333.5,-260 2333.5,-241 2208.5,-241"/>
<text text-anchor="middle" x="2271" y="-248" font-family="Helvetica,sans-Serif" font-size="10.00" fill="#000000">hubbard_occupancy.cpp</text>
</a>
</g>
</g>
<!-- Node34&#45;&gt;Node38 -->
<g id="edge46" class="edge">
<title>Node34&#45;&gt;Node38</title>
<path fill="none" stroke="#191970" d="M2004.7045,-303.4209C2053.3024,-294.4154 2131.5788,-279.6896 2199,-266 2208.2727,-264.1172 2218.2007,-262.0278 2227.6304,-260.0085"/>
<polygon fill="#191970" stroke="#191970" points="2003.9957,-299.9926 1994.7992,-305.2533 2005.2691,-306.8758 2003.9957,-299.9926"/>
</g>
<!-- Node39 -->
<g id="node39" class="node">
<title>Node39</title>
<g id="a_node39"><a xlink:href="../../d9/d0d/hubbard__potential__energy_8cpp_source.html" target="_top" xlink:title=" ">
<polygon fill="#ffffff" stroke="#000000" points="2352,-241 2352,-260 2504,-260 2504,-241 2352,-241"/>
<text text-anchor="middle" x="2428" y="-248" font-family="Helvetica,sans-Serif" font-size="10.00" fill="#000000">hubbard_potential_energy.cpp</text>
</a>
</g>
</g>
<!-- Node34&#45;&gt;Node39 -->
<g id="edge47" class="edge">
<title>Node34&#45;&gt;Node39</title>
<path fill="none" stroke="#191970" d="M2004.9162,-307.3339C2077.546,-299.8988 2221.5062,-284.3177 2343,-266 2354.5695,-264.2557 2366.9797,-262.1353 2378.6444,-260.0301"/>
<polygon fill="#191970" stroke="#191970" points="2004.3231,-303.8762 1994.7291,-308.3712 2005.0322,-310.8401 2004.3231,-303.8762"/>
</g>
</g>
</svg>
        <g id="navigator" transform="translate(0 0)" fill="#404254">
                <rect fill="#f2f5e9" fill-opacity="0.5" stroke="#606060" stroke-width=".5" x="0" y="0" width="60" height="60"/>
                <use id="zoomplus" xlink:href="#zoomPlus" x="17" y="9" onmousedown="handleZoom(evt,'in')"/>
                <use id="zoomminus" xlink:href="#zoomMin" x="42" y="9" onmousedown="handleZoom(evt,'out')"/>
                <use id="reset" xlink:href="#resetDef" x="30" y="36" onmousedown="handleReset()"/>
                <g id="arrowUp" xlink:href="#dirArrow" transform="translate(30 24)" onmousedown="handlePan(0,-1)">
                  <use xlink:href="#rim" fill="#404040">
                        <set attributeName="fill" to="#808080" begin="arrowUp.mouseover" end="arrowUp.mouseout"/>
                  </use>
                  <path fill="none" stroke="white" stroke-width="1.5" d="M0,-3.0v7 M-2.5,-0.5L0,-3.0L2.5,-0.5"/>
                </g>
                <g id="arrowRight" xlink:href="#dirArrow" transform="rotate(90) translate(36 -43)" onmousedown="handlePan(1,0)">
                  <use xlink:href="#rim" fill="#404040">
                        <set attributeName="fill" to="#808080" begin="arrowRight.mouseover" end="arrowRight.mouseout"/>
                  </use>
                  <path fill="none" stroke="white" stroke-width="1.5" d="M0,-3.0v7 M-2.5,-0.5L0,-3.0L2.5,-0.5"/>
                </g>
                <g id="arrowDown" xlink:href="#dirArrow" transform="rotate(180) translate(-30 -48)" onmousedown="handlePan(0,1)">
                  <use xlink:href="#rim" fill="#404040">
                        <set attributeName="fill" to="#808080" begin="arrowDown.mouseover" end="arrowDown.mouseout"/>
                  </use>
                  <path fill="none" stroke="white" stroke-width="1.5" d="M0,-3.0v7 M-2.5,-0.5L0,-3.0L2.5,-0.5"/>
                </g>
                <g id="arrowLeft" xlink:href="#dirArrow" transform="rotate(270) translate(-36 17)" onmousedown="handlePan(-1,0)">
                  <use xlink:href="#rim" fill="#404040">
                        <set attributeName="fill" to="#808080" begin="arrowLeft.mouseover" end="arrowLeft.mouseout"/>
                  </use>
                  <path fill="none" stroke="white" stroke-width="1.5" d="M0,-3.0v7 M-2.5,-0.5L0,-3.0L2.5,-0.5"/>
                </g>
        </g>
        <svg viewBox="0 0 15 15" width="100%" height="30px" preserveAspectRatio="xMaxYMin meet">
         <g id="arrow_out" transform="scale(0.3 0.3)">
          <a xlink:href="wf__inner_8hpp__dep__incl_org.svg" target="_base">
           <rect id="button" ry="5" rx="5" y="6" x="6" height="38" width="38"
                fill="#f2f5e9" fill-opacity="0.5" stroke="#606060" stroke-width="1.0"/>
           <path id="arrow"
             d="M 11.500037,31.436501 C 11.940474,20.09759 22.043105,11.32322 32.158766,21.979434 L 37.068811,17.246167 C 37.068811,17.246167 37.088388,32 37.088388,32 L 22.160133,31.978069 C 22.160133,31.978069 26.997745,27.140456 26.997745,27.140456 C 18.528582,18.264221 13.291696,25.230495 11.500037,31.436501 z"
             style="fill:#404040;"/>
          </a>
         </g>
        </svg>
</svg>
