<?xml version="1.0" encoding="UTF-8" standalone="no"?>
<!DOCTYPE svg PUBLIC "-//W3C//DTD SVG 1.1//EN"
 "http://www.w3.org/Graphics/SVG/1.1/DTD/svg11.dtd">
<!-- Generated by graphviz version 2.40.1 (20161225.0304)
 -->
<!-- Title: hdf5_tree.h Pages: 1 -->
<svg width="1240pt" height="1103pt"
 viewBox="0.00 0.00 1239.50 1103.00" xmlns="http://www.w3.org/2000/svg" xmlns:xlink="http://www.w3.org/1999/xlink">
<g id="graph0" class="graph" transform="scale(1 1) rotate(0) translate(4 1099)">
<title>hdf5_tree.h</title>
<polygon fill="#ffffff" stroke="transparent" points="-4,4 -4,-1099 1235.5,-1099 1235.5,4 -4,4"/>
<!-- Node85 -->
<g id="node1" class="node">
<title>Node85</title>
<polygon fill="#bfbfbf" stroke="#000000" points="1164.5,-1075.5 1164.5,-1094.5 1231.5,-1094.5 1231.5,-1075.5 1164.5,-1075.5"/>
<text text-anchor="middle" x="1198" y="-1082.5" font-family="Helvetica,sans-Serif" font-size="10.00" fill="#000000">hdf5_tree.h</text>
</g>
<!-- Node86 -->
<g id="node2" class="node">
<title>Node86</title>
<g id="a_node2"><a xlink:href="../../dd/dc2/sirius_8h.html" target="_top" xlink:title="&quot;All&#45;in&#45;one&quot; include file. ">
<polygon fill="#ffffff" stroke="#000000" points="359,-56.5 359,-75.5 407,-75.5 407,-56.5 359,-56.5"/>
<text text-anchor="middle" x="383" y="-63.5" font-family="Helvetica,sans-Serif" font-size="10.00" fill="#000000">sirius.h</text>
</a>
</g>
</g>
<!-- Node85&#45;&gt;Node86 -->
<g id="edge1" class="edge">
<title>Node85&#45;&gt;Node86</title>
<path fill="none" stroke="#191970" d="M1206.4016,-1065.88C1215.2764,-1043.9101 1228,-1006.5603 1228,-973 1228,-973 1228,-973 1228,-178 1228,-125.4878 1179.7279,-128.8721 1130,-112 1060.2495,-88.3345 528.0101,-70.5033 407.2957,-66.7375"/>
<polygon fill="#191970" stroke="#191970" points="1203.0714,-1064.7706 1202.4266,-1075.3458 1209.5255,-1067.4809 1203.0714,-1064.7706"/>
</g>
<!-- Node88 -->
<g id="node4" class="node">
<title>Node88</title>
<g id="a_node4"><a xlink:href="../../dc/d68/sirius__io_8h.html" target="_top" xlink:title="Contains declaration and implementation of sirius::pstdout and sirius::sirius_io classes. ">
<polygon fill="#ffffff" stroke="#000000" points="1138,-1019.5 1138,-1038.5 1200,-1038.5 1200,-1019.5 1138,-1019.5"/>
<text text-anchor="middle" x="1169" y="-1026.5" font-family="Helvetica,sans-Serif" font-size="10.00" fill="#000000">sirius_io.h</text>
</a>
</g>
</g>
<!-- Node85&#45;&gt;Node88 -->
<g id="edge3" class="edge">
<title>Node85&#45;&gt;Node88</title>
<path fill="none" stroke="#191970" d="M1188.3353,-1066.3372C1183.5313,-1057.0605 1177.9277,-1046.2398 1173.9935,-1038.6427"/>
<polygon fill="#191970" stroke="#191970" points="1185.242,-1067.9751 1192.9486,-1075.2455 1191.458,-1064.7561 1185.242,-1067.9751"/>
</g>
<!-- Node87 -->
<g id="node3" class="node">
<title>Node87</title>
<g id="a_node3"><a xlink:href="../../d4/d53/sirius__api_8cpp.html" target="_top" xlink:title="Fortran API. ">
<polygon fill="#ffffff" stroke="#000000" points="344,-.5 344,-19.5 422,-19.5 422,-.5 344,-.5"/>
<text text-anchor="middle" x="383" y="-7.5" font-family="Helvetica,sans-Serif" font-size="10.00" fill="#000000">sirius_api.cpp</text>
</a>
</g>
</g>
<!-- Node86&#45;&gt;Node87 -->
<g id="edge2" class="edge">
<title>Node86&#45;&gt;Node87</title>
<path fill="none" stroke="#191970" d="M383,-46.1575C383,-37.155 383,-26.9199 383,-19.6427"/>
<polygon fill="#191970" stroke="#191970" points="379.5001,-46.2455 383,-56.2455 386.5001,-46.2456 379.5001,-46.2455"/>
</g>
<!-- Node88&#45;&gt;Node86 -->
<g id="edge79" class="edge">
<title>Node88&#45;&gt;Node86</title>
<path fill="none" stroke="#191970" d="M1174.966,-1009.366C1181.1743,-987.166 1190,-949.8325 1190,-917 1190,-917 1190,-917 1190,-178 1190,-119.0696 1131.407,-129.0599 1075,-112 946.0659,-73.0048 513.8841,-67.0348 407.0408,-66.1496"/>
<polygon fill="#191970" stroke="#191970" points="1171.5299,-1008.6479 1172.0986,-1019.2275 1178.2515,-1010.6023 1171.5299,-1008.6479"/>
</g>
<!-- Node89 -->
<g id="node5" class="node">
<title>Node89</title>
<g id="a_node5"><a xlink:href="../../dc/d2c/atom__symmetry__class_8h.html" target="_top" xlink:title="Contains declaration and partial implementation of sirius::Atom_symmetry_class class. ">
<polygon fill="#ffffff" stroke="#000000" points="767,-963.5 767,-982.5 891,-982.5 891,-963.5 767,-963.5"/>
<text text-anchor="middle" x="829" y="-970.5" font-family="Helvetica,sans-Serif" font-size="10.00" fill="#000000">atom_symmetry_class.h</text>
</a>
</g>
</g>
<!-- Node88&#45;&gt;Node89 -->
<g id="edge4" class="edge">
<title>Node88&#45;&gt;Node89</title>
<path fill="none" stroke="#191970" d="M1128.0307,-1022.2521C1067.8804,-1012.345 955.3995,-993.8187 886.8486,-982.528"/>
<polygon fill="#191970" stroke="#191970" points="1127.49,-1025.7101 1137.9259,-1023.8819 1128.6277,-1018.8032 1127.49,-1025.7101"/>
</g>
<!-- Node89&#45;&gt;Node86 -->
<g id="edge78" class="edge">
<title>Node89&#45;&gt;Node86</title>
<path fill="none" stroke="#191970" d="M756.4767,-970.7712C554.4488,-963.6051 0,-937.0139 0,-861 0,-861 0,-861 0,-178 0,-138.0568 25.6321,-130.5625 61,-112 113.0021,-84.7072 293.0711,-71.398 358.7688,-67.3666"/>
<polygon fill="#191970" stroke="#191970" points="756.5743,-974.2766 766.6903,-971.1275 756.8184,-967.2809 756.5743,-974.2766"/>
</g>
<!-- Node90 -->
<g id="node6" class="node">
<title>Node90</title>
<g id="a_node6"><a xlink:href="../../d0/d51/unit__cell_8h.html" target="_top" xlink:title="Contains definition and partial implementation of sirius::Unit_cell class. ">
<polygon fill="#ffffff" stroke="#000000" points="772,-851.5 772,-870.5 834,-870.5 834,-851.5 772,-851.5"/>
<text text-anchor="middle" x="803" y="-858.5" font-family="Helvetica,sans-Serif" font-size="10.00" fill="#000000">unit_cell.h</text>
</a>
</g>
</g>
<!-- Node89&#45;&gt;Node90 -->
<g id="edge5" class="edge">
<title>Node89&#45;&gt;Node90</title>
<path fill="none" stroke="#191970" d="M824.4961,-953.5987C818.87,-929.363 809.4664,-888.8551 805.2111,-870.5249"/>
<polygon fill="#191970" stroke="#191970" points="821.1125,-954.5014 826.7833,-963.4509 827.9312,-952.9185 821.1125,-954.5014"/>
</g>
<!-- Node116 -->
<g id="node32" class="node">
<title>Node116</title>
<g id="a_node32"><a xlink:href="../../d9/d49/atom_8h.html" target="_top" xlink:title="Contains declaration and partial implementation of sirius::Atom class. ">
<polygon fill="#ffffff" stroke="#000000" points="831.5,-907.5 831.5,-926.5 878.5,-926.5 878.5,-907.5 831.5,-907.5"/>
<text text-anchor="middle" x="855" y="-914.5" font-family="Helvetica,sans-Serif" font-size="10.00" fill="#000000">atom.h</text>
</a>
</g>
</g>
<!-- Node89&#45;&gt;Node116 -->
<g id="edge75" class="edge">
<title>Node89&#45;&gt;Node116</title>
<path fill="none" stroke="#191970" d="M837.8011,-954.0437C842.0775,-944.8331 847.033,-934.1598 850.523,-926.6427"/>
<polygon fill="#191970" stroke="#191970" points="834.5655,-952.7015 833.5289,-963.2455 840.9146,-955.6494 834.5655,-952.7015"/>
</g>
<!-- Node90&#45;&gt;Node86 -->
<g id="edge74" class="edge">
<title>Node90&#45;&gt;Node86</title>
<path fill="none" stroke="#191970" d="M761.2221,-859.3301C601.4419,-852.3979 38,-822.7256 38,-749 38,-749 38,-749 38,-178 38,-136.5164 67.0976,-130.95 104,-112 148.5435,-89.1262 299.2635,-73.4971 358.6557,-68.0915"/>
<polygon fill="#191970" stroke="#191970" points="761.4448,-862.8427 771.5849,-859.7722 761.7432,-855.849 761.4448,-862.8427"/>
</g>
<!-- Node91 -->
<g id="node7" class="node">
<title>Node91</title>
<g id="a_node7"><a xlink:href="../../de/d58/radial__integrals_8h.html" target="_top" xlink:title="Representation of various radial integrals. ">
<polygon fill="#ffffff" stroke="#000000" points="833.5,-739.5 833.5,-758.5 926.5,-758.5 926.5,-739.5 833.5,-739.5"/>
<text text-anchor="middle" x="880" y="-746.5" font-family="Helvetica,sans-Serif" font-size="10.00" fill="#000000">radial_integrals.h</text>
</a>
</g>
</g>
<!-- Node90&#45;&gt;Node91 -->
<g id="edge6" class="edge">
<title>Node90&#45;&gt;Node91</title>
<path fill="none" stroke="#191970" d="M812.7393,-842.0264C819.9496,-828.5268 830.3342,-810.1693 841,-795 850.274,-781.8102 862.5035,-767.843 870.7765,-758.8068"/>
<polygon fill="#191970" stroke="#191970" points="809.4368,-840.7877 807.8922,-851.2693 815.6362,-844.0387 809.4368,-840.7877"/>
</g>
<!-- Node108 -->
<g id="node24" class="node">
<title>Node108</title>
<g id="a_node24"><a xlink:href="../../d2/d5f/beta__projectors_8h.html" target="_top" xlink:title="Contains declaration and implementation of sirius::Beta_projectors class. ">
<polygon fill="#ffffff" stroke="#000000" points="688,-504.5 688,-523.5 782,-523.5 782,-504.5 688,-504.5"/>
<text text-anchor="middle" x="735" y="-511.5" font-family="Helvetica,sans-Serif" font-size="10.00" fill="#000000">beta_projectors.h</text>
</a>
</g>
</g>
<!-- Node90&#45;&gt;Node108 -->
<g id="edge71" class="edge">
<title>Node90&#45;&gt;Node108</title>
<path fill="none" stroke="#191970" d="M797.6022,-841.3284C791.9852,-819.0948 784,-781.7312 784,-749 784,-749 784,-749 784,-626 784,-585.0378 756.1496,-542.181 742.442,-523.5681"/>
<polygon fill="#191970" stroke="#191970" points="794.2711,-842.4237 800.1965,-851.2066 801.0415,-840.6455 794.2711,-842.4237"/>
</g>
<!-- Node113 -->
<g id="node29" class="node">
<title>Node113</title>
<g id="a_node29"><a xlink:href="../../d0/d05/sbessel_8h.html" target="_top" xlink:title="Contains implementation of sirius::Spherical_Bessel_functions and sirius::sbessel_approx classes...">
<polygon fill="#ffffff" stroke="#000000" points="850.5,-795.5 850.5,-814.5 909.5,-814.5 909.5,-795.5 850.5,-795.5"/>
<text text-anchor="middle" x="880" y="-802.5" font-family="Helvetica,sans-Serif" font-size="10.00" fill="#000000">sbessel.h</text>
</a>
</g>
</g>
<!-- Node90&#45;&gt;Node113 -->
<g id="edge69" class="edge">
<title>Node90&#45;&gt;Node113</title>
<path fill="none" stroke="#191970" d="M824.7116,-845.2097C838.2353,-835.3743 855.1958,-823.0394 866.7413,-814.6427"/>
<polygon fill="#191970" stroke="#191970" points="822.4411,-842.5332 816.4124,-851.2455 826.5584,-848.1944 822.4411,-842.5332"/>
</g>
<!-- Node114 -->
<g id="node30" class="node">
<title>Node114</title>
<g id="a_node30"><a xlink:href="../../d7/db5/real__space__prj_8h_source.html" target="_top" xlink:title="real_space_prj.h">
<polygon fill="#ffffff" stroke="#000000" points="663,-795.5 663,-814.5 753,-814.5 753,-795.5 663,-795.5"/>
<text text-anchor="middle" x="708" y="-802.5" font-family="Helvetica,sans-Serif" font-size="10.00" fill="#000000">real_space_prj.h</text>
</a>
</g>
</g>
<!-- Node90&#45;&gt;Node114 -->
<g id="edge72" class="edge">
<title>Node90&#45;&gt;Node114</title>
<path fill="none" stroke="#191970" d="M777.6324,-846.0465C760.729,-836.0824 739.0096,-823.2794 724.3581,-814.6427"/>
<polygon fill="#191970" stroke="#191970" points="776.0602,-849.1825 786.4523,-851.2455 779.6149,-843.1522 776.0602,-849.1825"/>
</g>
<!-- Node92 -->
<g id="node8" class="node">
<title>Node92</title>
<g id="a_node8"><a xlink:href="../../da/d12/augmentation__operator_8h.html" target="_top" xlink:title="Contains implementation of sirius::Augmentation_operator class. ">
<polygon fill="#ffffff" stroke="#000000" points="974,-616.5 974,-635.5 1102,-635.5 1102,-616.5 974,-616.5"/>
<text text-anchor="middle" x="1038" y="-623.5" font-family="Helvetica,sans-Serif" font-size="10.00" fill="#000000">augmentation_operator.h</text>
</a>
</g>
</g>
<!-- Node91&#45;&gt;Node92 -->
<g id="edge7" class="edge">
<title>Node91&#45;&gt;Node92</title>
<path fill="none" stroke="#191970" d="M900.5198,-733.0257C933.8138,-707.107 998.6002,-656.672 1025.6596,-635.6068"/>
<polygon fill="#191970" stroke="#191970" points="898.1388,-730.4437 892.398,-739.3484 902.4389,-735.9673 898.1388,-730.4437"/>
</g>
<!-- Node111 -->
<g id="node27" class="node">
<title>Node111</title>
<g id="a_node27"><a xlink:href="../../de/df0/simulation__context__base_8h.html" target="_top" xlink:title="Contains definition and implementation of Simulation_context_base class. ">
<polygon fill="#ffffff" stroke="#000000" points="830.5,-672.5 830.5,-702.5 929.5,-702.5 929.5,-672.5 830.5,-672.5"/>
<text text-anchor="start" x="838.5" y="-690.5" font-family="Helvetica,sans-Serif" font-size="10.00" fill="#000000">simulation_context</text>
<text text-anchor="middle" x="880" y="-679.5" font-family="Helvetica,sans-Serif" font-size="10.00" fill="#000000">_base.h</text>
</a>
</g>
</g>
<!-- Node91&#45;&gt;Node111 -->
<g id="edge64" class="edge">
<title>Node91&#45;&gt;Node111</title>
<path fill="none" stroke="#191970" d="M880,-729.3693C880,-720.681 880,-710.6241 880,-702.5446"/>
<polygon fill="#191970" stroke="#191970" points="876.5001,-729.3906 880,-739.3906 883.5001,-729.3907 876.5001,-729.3906"/>
</g>
<!-- Node93 -->
<g id="node9" class="node">
<title>Node93</title>
<g id="a_node9"><a xlink:href="../../d5/d5b/simulation__context_8h.html" target="_top" xlink:title="Contains definition and implementation of Simulation_parameters and Simulation_context classes...">
<polygon fill="#ffffff" stroke="#000000" points="836,-560.5 836,-579.5 944,-579.5 944,-560.5 836,-560.5"/>
<text text-anchor="middle" x="890" y="-567.5" font-family="Helvetica,sans-Serif" font-size="10.00" fill="#000000">simulation_context.h</text>
</a>
</g>
</g>
<!-- Node92&#45;&gt;Node93 -->
<g id="edge8" class="edge">
<title>Node92&#45;&gt;Node93</title>
<path fill="none" stroke="#191970" d="M1003.0847,-612.7888C976.0617,-602.5639 939.286,-588.6488 915.1101,-579.5011"/>
<polygon fill="#191970" stroke="#191970" points="1001.9664,-616.1078 1012.5579,-616.3733 1004.4437,-609.5608 1001.9664,-616.1078"/>
</g>
<!-- Node104 -->
<g id="node20" class="node">
<title>Node104</title>
<g id="a_node20"><a xlink:href="../../d8/dab/forces_8h_source.html" target="_top" xlink:title="forces.h">
<polygon fill="#ffffff" stroke="#000000" points="632,-168.5 632,-187.5 684,-187.5 684,-168.5 632,-168.5"/>
<text text-anchor="middle" x="658" y="-175.5" font-family="Helvetica,sans-Serif" font-size="10.00" fill="#000000">forces.h</text>
</a>
</g>
</g>
<!-- Node92&#45;&gt;Node104 -->
<g id="edge62" class="edge">
<title>Node92&#45;&gt;Node104</title>
<path fill="none" stroke="#191970" d="M1045.2776,-606.8026C1056.3108,-575.9256 1076,-513.1042 1076,-458 1076,-458 1076,-458 1076,-290 1076,-241.4659 1033.824,-242.611 989,-224 960.9362,-212.3479 757.1302,-188.9602 684.0173,-180.8484"/>
<polygon fill="#191970" stroke="#191970" points="1041.9418,-605.7334 1041.7825,-616.327 1048.5133,-608.1449 1041.9418,-605.7334"/>
</g>
<!-- Node105 -->
<g id="node21" class="node">
<title>Node105</title>
<g id="a_node21"><a xlink:href="../../d6/d9f/non__local__functor_8h_source.html" target="_top" xlink:title="non_local_functor.h">
<polygon fill="#ffffff" stroke="#000000" points="876,-224.5 876,-243.5 980,-243.5 980,-224.5 876,-224.5"/>
<text text-anchor="middle" x="928" y="-231.5" font-family="Helvetica,sans-Serif" font-size="10.00" fill="#000000">non_local_functor.h</text>
</a>
</g>
</g>
<!-- Node92&#45;&gt;Node105 -->
<g id="edge63" class="edge">
<title>Node92&#45;&gt;Node105</title>
<path fill="none" stroke="#191970" d="M1038,-606.1952C1038,-583.8128 1038,-546.2884 1038,-514 1038,-514 1038,-514 1038,-346 1038,-295.716 980.8646,-259.7374 948.9491,-243.5625"/>
<polygon fill="#191970" stroke="#191970" points="1034.5001,-606.4116 1038,-616.4116 1041.5001,-606.4117 1034.5001,-606.4116"/>
</g>
<!-- Node94 -->
<g id="node10" class="node">
<title>Node94</title>
<g id="a_node10"><a xlink:href="../../d8/d65/periodic__function_8h.html" target="_top" xlink:title="Contains declaration and partial implementation of sirius::Periodic_function class. ">
<polygon fill="#ffffff" stroke="#000000" points="454,-504.5 454,-523.5 554,-523.5 554,-504.5 454,-504.5"/>
<text text-anchor="middle" x="504" y="-511.5" font-family="Helvetica,sans-Serif" font-size="10.00" fill="#000000">periodic_function.h</text>
</a>
</g>
</g>
<!-- Node93&#45;&gt;Node94 -->
<g id="edge9" class="edge">
<title>Node93&#45;&gt;Node94</title>
<path fill="none" stroke="#191970" d="M825.9472,-560.7074C749.5929,-549.6301 623.6076,-531.3524 554.0369,-521.2592"/>
<polygon fill="#191970" stroke="#191970" points="825.523,-564.1824 835.9219,-562.1545 826.5281,-557.2549 825.523,-564.1824"/>
</g>
<!-- Node102 -->
<g id="node18" class="node">
<title>Node102</title>
<g id="a_node18"><a xlink:href="../../d2/dcb/density_8h.html" target="_top" xlink:title="Contains definition and partial implementation of sirius::Density class. ">
<polygon fill="#ffffff" stroke="#000000" points="762.5,-336.5 762.5,-355.5 819.5,-355.5 819.5,-336.5 762.5,-336.5"/>
<text text-anchor="middle" x="791" y="-343.5" font-family="Helvetica,sans-Serif" font-size="10.00" fill="#000000">density.h</text>
</a>
</g>
</g>
<!-- Node93&#45;&gt;Node102 -->
<g id="edge58" class="edge">
<title>Node93&#45;&gt;Node102</title>
<path fill="none" stroke="#191970" d="M913.4273,-554.1886C922.9425,-546.3502 932.8844,-535.9878 938,-524 951.2574,-492.9327 953.2338,-478.1475 938,-448 913.4837,-399.4825 853.7926,-369.6329 818.4738,-355.6009"/>
<polygon fill="#191970" stroke="#191970" points="911.1203,-551.5468 905.3074,-560.4046 915.3754,-557.1051 911.1203,-551.5468"/>
</g>
<!-- Node103 -->
<g id="node19" class="node">
<title>Node103</title>
<g id="a_node19"><a xlink:href="../../df/d86/potential_8h.html" target="_top" xlink:title="Contains declaration and partial implementation of sirius::Potential class. ">
<polygon fill="#ffffff" stroke="#000000" points="476.5,-280.5 476.5,-299.5 539.5,-299.5 539.5,-280.5 476.5,-280.5"/>
<text text-anchor="middle" x="508" y="-287.5" font-family="Helvetica,sans-Serif" font-size="10.00" fill="#000000">potential.h</text>
</a>
</g>
</g>
<!-- Node93&#45;&gt;Node103 -->
<g id="edge57" class="edge">
<title>Node93&#45;&gt;Node103</title>
<path fill="none" stroke="#191970" d="M868.6794,-554.5083C848.9983,-540.5195 818.7118,-519.772 791,-504 708.7627,-457.1951 672.0756,-472.1135 599,-412 557.9832,-378.2587 525.2768,-322.2924 513.1165,-299.8018"/>
<polygon fill="#191970" stroke="#191970" points="866.7609,-557.4393 876.9285,-560.4178 870.8375,-551.7488 866.7609,-557.4393"/>
</g>
<!-- Node93&#45;&gt;Node104 -->
<g id="edge60" class="edge">
<title>Node93&#45;&gt;Node104</title>
<path fill="none" stroke="#191970" d="M877.4968,-551.8391C852.6149,-515.4103 795.6249,-430.5206 753,-356 720.3343,-298.8909 718.0167,-281.4754 686,-224 678.9024,-211.2587 670.0576,-196.9643 664.2305,-187.741"/>
<polygon fill="#191970" stroke="#191970" points="874.8249,-554.1317 883.365,-560.4022 880.5992,-550.1747 874.8249,-554.1317"/>
</g>
<!-- Node93&#45;&gt;Node105 -->
<g id="edge61" class="edge">
<title>Node93&#45;&gt;Node105</title>
<path fill="none" stroke="#191970" d="M920.1023,-555.6023C952.6699,-537.6822 1000,-503.7663 1000,-458 1000,-458 1000,-458 1000,-346 1000,-302.0801 960.3394,-261.6595 939.8893,-243.7368"/>
<polygon fill="#191970" stroke="#191970" points="918.1564,-552.6718 910.9491,-560.4375 921.426,-558.8613 918.1564,-552.6718"/>
</g>
<!-- Node93&#45;&gt;Node108 -->
<g id="edge49" class="edge">
<title>Node93&#45;&gt;Node108</title>
<path fill="none" stroke="#191970" d="M853.8051,-556.9231C825.4703,-546.686 786.7282,-532.6889 761.2978,-523.5011"/>
<polygon fill="#191970" stroke="#191970" points="852.7602,-560.267 863.3546,-560.3733 855.1388,-553.6835 852.7602,-560.267"/>
</g>
<!-- Node109 -->
<g id="node25" class="node">
<title>Node109</title>
<g id="a_node25"><a xlink:href="../../df/dae/non__local__operator_8h.html" target="_top" xlink:title="Contains declaration and implementation of sirius::Non_local_operator class. ">
<polygon fill="#ffffff" stroke="#000000" points="158,-448.5 158,-467.5 268,-467.5 268,-448.5 158,-448.5"/>
<text text-anchor="middle" x="213" y="-455.5" font-family="Helvetica,sans-Serif" font-size="10.00" fill="#000000">non_local_operator.h</text>
</a>
</g>
</g>
<!-- Node93&#45;&gt;Node109 -->
<g id="edge59" class="edge">
<title>Node93&#45;&gt;Node109</title>
<path fill="none" stroke="#191970" d="M825.5394,-566.8644C738.5222,-561.8311 578.9382,-549.7705 445,-524 369.7473,-509.521 283.5301,-482.0163 240.4784,-467.5074"/>
<polygon fill="#191970" stroke="#191970" points="825.6032,-570.3735 835.7849,-567.4438 825.9985,-563.3847 825.6032,-570.3735"/>
</g>
<!-- Node94&#45;&gt;Node86 -->
<g id="edge48" class="edge">
<title>Node94&#45;&gt;Node86</title>
<path fill="none" stroke="#191970" d="M443.7117,-510.5395C356.5287,-504.8038 200.0995,-491.5573 149,-468 109.2789,-449.6883 76,-445.7388 76,-402 76,-402 76,-402 76,-178 76,-131.9062 114.3926,-131.836 156,-112 224.7827,-79.2085 316.1187,-69.7582 358.9293,-67.0612"/>
<polygon fill="#191970" stroke="#191970" points="443.5264,-514.0348 453.731,-511.1857 443.977,-507.0493 443.5264,-514.0348"/>
</g>
<!-- Node95 -->
<g id="node11" class="node">
<title>Node95</title>
<g id="a_node11"><a xlink:href="../../d9/dc2/band_8h.html" target="_top" xlink:title="Contains declaration and partial implementation of sirius::Band class. ">
<polygon fill="#ffffff" stroke="#000000" points="272.5,-224.5 272.5,-243.5 319.5,-243.5 319.5,-224.5 272.5,-224.5"/>
<text text-anchor="middle" x="296" y="-231.5" font-family="Helvetica,sans-Serif" font-size="10.00" fill="#000000">band.h</text>
</a>
</g>
</g>
<!-- Node94&#45;&gt;Node95 -->
<g id="edge10" class="edge">
<title>Node94&#45;&gt;Node95</title>
<path fill="none" stroke="#191970" d="M447.8645,-501.7397C398.3473,-487.2301 334,-457.6659 334,-402 334,-402 334,-402 334,-346 334,-306.1657 312.1774,-262.3859 301.607,-243.5166"/>
<polygon fill="#191970" stroke="#191970" points="446.9738,-505.1248 457.5468,-504.4442 448.857,-498.3829 446.9738,-505.1248"/>
</g>
<!-- Node100 -->
<g id="node16" class="node">
<title>Node100</title>
<g id="a_node16"><a xlink:href="../../d9/d02/k__point_8h.html" target="_top" xlink:title="Contains definition and partial implementation of sirius::K_point class. ">
<polygon fill="#ffffff" stroke="#000000" points="409.5,-448.5 409.5,-467.5 466.5,-467.5 466.5,-448.5 409.5,-448.5"/>
<text text-anchor="middle" x="438" y="-455.5" font-family="Helvetica,sans-Serif" font-size="10.00" fill="#000000">k_point.h</text>
</a>
</g>
</g>
<!-- Node94&#45;&gt;Node100 -->
<g id="edge18" class="edge">
<title>Node94&#45;&gt;Node100</title>
<path fill="none" stroke="#191970" d="M484.7245,-497.645C473.2462,-487.9058 459.0723,-475.8795 449.3646,-467.6427"/>
<polygon fill="#191970" stroke="#191970" points="482.6141,-500.4445 492.5037,-504.2455 487.143,-495.1069 482.6141,-500.4445"/>
</g>
<!-- Node94&#45;&gt;Node102 -->
<g id="edge43" class="edge">
<title>Node94&#45;&gt;Node102</title>
<path fill="none" stroke="#191970" d="M560.1134,-501.9364C614.3105,-487.9371 696.1717,-460.3409 752,-412 770.1108,-396.3181 782.0343,-370.0595 787.5177,-355.8505"/>
<polygon fill="#191970" stroke="#191970" points="559.1743,-498.5635 550.3281,-504.3941 560.8795,-505.3527 559.1743,-498.5635"/>
</g>
<!-- Node94&#45;&gt;Node103 -->
<g id="edge42" class="edge">
<title>Node94&#45;&gt;Node103</title>
<path fill="none" stroke="#191970" d="M504.355,-494.1177C505.1844,-447.6713 507.2246,-333.4223 507.8288,-299.5891"/>
<polygon fill="#191970" stroke="#191970" points="500.8511,-494.3141 504.1719,-504.375 507.85,-494.4391 500.8511,-494.3141"/>
</g>
<!-- Node94&#45;&gt;Node104 -->
<g id="edge46" class="edge">
<title>Node94&#45;&gt;Node104</title>
<path fill="none" stroke="#191970" d="M512.6119,-495.2104C541.1919,-432.8541 632.2907,-234.093 653.5391,-187.7328"/>
<polygon fill="#191970" stroke="#191970" points="509.4277,-493.7576 508.4428,-504.3065 515.7912,-496.6742 509.4277,-493.7576"/>
</g>
<!-- Node94&#45;&gt;Node105 -->
<g id="edge47" class="edge">
<title>Node94&#45;&gt;Node105</title>
<path fill="none" stroke="#191970" d="M564.0275,-505.289C602.3673,-498.3307 652.4896,-486.5981 694,-468 797.7827,-421.5017 816.323,-389.0938 887,-300 901.7547,-281.4006 915.6006,-257.18 922.8134,-243.8586"/>
<polygon fill="#191970" stroke="#191970" points="563.2901,-501.8649 554.046,-507.0415 564.5006,-508.7594 563.2901,-501.8649"/>
</g>
<!-- Node107 -->
<g id="node23" class="node">
<title>Node107</title>
<g id="a_node23"><a xlink:href="../../dd/d3f/local__operator_8h.html" target="_top" xlink:title="Contains declaration and implementation of sirius::Local_operator class. ">
<polygon fill="#ffffff" stroke="#000000" points="218,-336.5 218,-355.5 306,-355.5 306,-336.5 218,-336.5"/>
<text text-anchor="middle" x="262" y="-343.5" font-family="Helvetica,sans-Serif" font-size="10.00" fill="#000000">local_operator.h</text>
</a>
</g>
</g>
<!-- Node94&#45;&gt;Node107 -->
<g id="edge44" class="edge">
<title>Node94&#45;&gt;Node107</title>
<path fill="none" stroke="#191970" d="M444.0104,-504.6868C397.8792,-496.5021 338.9305,-483.497 320,-468 283.1614,-437.8429 268.2761,-378.7995 263.6917,-355.6445"/>
<polygon fill="#191970" stroke="#191970" points="443.4859,-508.148 453.9372,-506.4096 444.683,-501.2511 443.4859,-508.148"/>
</g>
<!-- Node95&#45;&gt;Node86 -->
<g id="edge17" class="edge">
<title>Node95&#45;&gt;Node86</title>
<path fill="none" stroke="#191970" d="M262.9652,-220.6358C239.0932,-208.8155 212.9893,-190.0499 225,-168 253.5809,-115.5298 322.0383,-85.9534 358.7564,-73.3522"/>
<polygon fill="#191970" stroke="#191970" points="261.7169,-223.9154 272.2594,-224.9672 264.6739,-217.5706 261.7169,-223.9154"/>
</g>
<!-- Node96 -->
<g id="node12" class="node">
<title>Node96</title>
<g id="a_node12"><a xlink:href="../../d2/d15/add__nl__h__o__rs_8cpp_source.html" target="_top" xlink:title="add_nl_h_o_rs.cpp">
<polygon fill="#ffffff" stroke="#000000" points="234,-168.5 234,-187.5 336,-187.5 336,-168.5 234,-168.5"/>
<text text-anchor="middle" x="285" y="-175.5" font-family="Helvetica,sans-Serif" font-size="10.00" fill="#000000">add_nl_h_o_rs.cpp</text>
</a>
</g>
</g>
<!-- Node95&#45;&gt;Node96 -->
<g id="edge11" class="edge">
<title>Node95&#45;&gt;Node96</title>
<path fill="none" stroke="#191970" d="M292.1024,-214.1575C290.334,-205.155 288.3235,-194.9199 286.8941,-187.6427"/>
<polygon fill="#191970" stroke="#191970" points="288.722,-215.1077 294.0839,-224.2455 295.5908,-213.7584 288.722,-215.1077"/>
</g>
<!-- Node97 -->
<g id="node13" class="node">
<title>Node97</title>
<g id="a_node13"><a xlink:href="../../dd/d0d/force_8h.html" target="_top" xlink:title="Contains definition of sirius::Force class. ">
<polygon fill="#ffffff" stroke="#000000" points="392.5,-168.5 392.5,-187.5 439.5,-187.5 439.5,-168.5 392.5,-168.5"/>
<text text-anchor="middle" x="416" y="-175.5" font-family="Helvetica,sans-Serif" font-size="10.00" fill="#000000">force.h</text>
</a>
</g>
</g>
<!-- Node95&#45;&gt;Node97 -->
<g id="edge12" class="edge">
<title>Node95&#45;&gt;Node97</title>
<path fill="none" stroke="#191970" d="M325.7624,-220.1109C347.5232,-209.9559 376.4682,-196.4482 395.6405,-187.5011"/>
<polygon fill="#191970" stroke="#191970" points="324.2105,-216.9727 316.6287,-224.3733 327.1707,-223.316 324.2105,-216.9727"/>
</g>
<!-- Node97&#45;&gt;Node86 -->
<g id="edge16" class="edge">
<title>Node97&#45;&gt;Node86</title>
<path fill="none" stroke="#191970" d="M410.2836,-158.5987C403.1427,-134.363 391.2073,-93.8551 385.8064,-75.5249"/>
<polygon fill="#191970" stroke="#191970" points="407.0028,-159.8479 413.1864,-168.4509 413.7174,-157.8694 407.0028,-159.8479"/>
</g>
<!-- Node98 -->
<g id="node14" class="node">
<title>Node98</title>
<g id="a_node14"><a xlink:href="../../d6/df1/dft__ground__state_8h.html" target="_top" xlink:title="Contains definition and partial implementation of sirius::DFT_ground_state class. ...">
<polygon fill="#ffffff" stroke="#000000" points="506,-112.5 506,-131.5 606,-131.5 606,-112.5 506,-112.5"/>
<text text-anchor="middle" x="556" y="-119.5" font-family="Helvetica,sans-Serif" font-size="10.00" fill="#000000">dft_ground_state.h</text>
</a>
</g>
</g>
<!-- Node97&#45;&gt;Node98 -->
<g id="edge13" class="edge">
<title>Node97&#45;&gt;Node98</title>
<path fill="none" stroke="#191970" d="M449.0359,-164.7857C474.5555,-154.5778 509.2662,-140.6935 532.1344,-131.5462"/>
<polygon fill="#191970" stroke="#191970" points="447.734,-161.5367 439.7491,-168.5004 450.3338,-168.0361 447.734,-161.5367"/>
</g>
<!-- Node99 -->
<g id="node15" class="node">
<title>Node99</title>
<g id="a_node15"><a xlink:href="../../df/d4d/force_8cpp.html" target="_top" xlink:title="Contains implementation of sirius::Force class. ">
<polygon fill="#ffffff" stroke="#000000" points="430,-112.5 430,-131.5 488,-131.5 488,-112.5 430,-112.5"/>
<text text-anchor="middle" x="459" y="-119.5" font-family="Helvetica,sans-Serif" font-size="10.00" fill="#000000">force.cpp</text>
</a>
</g>
</g>
<!-- Node97&#45;&gt;Node99 -->
<g id="edge15" class="edge">
<title>Node97&#45;&gt;Node99</title>
<path fill="none" stroke="#191970" d="M429.6592,-160.2112C436.9263,-150.7472 445.5781,-139.4797 451.5958,-131.6427"/>
<polygon fill="#191970" stroke="#191970" points="426.8043,-158.1824 423.49,-168.2455 432.3564,-162.4456 426.8043,-158.1824"/>
</g>
<!-- Node98&#45;&gt;Node86 -->
<g id="edge14" class="edge">
<title>Node98&#45;&gt;Node86</title>
<path fill="none" stroke="#191970" d="M516.7056,-109.2804C482.9712,-98.3606 435.4289,-82.9712 407.0627,-73.7891"/>
<polygon fill="#191970" stroke="#191970" points="515.6684,-112.6234 526.2602,-112.3733 517.8242,-105.9636 515.6684,-112.6234"/>
</g>
<!-- Node100&#45;&gt;Node86 -->
<g id="edge41" class="edge">
<title>Node100&#45;&gt;Node86</title>
<path fill="none" stroke="#191970" d="M399.0879,-455.6632C313.0054,-448.1774 114,-417.1246 114,-290 114,-290 114,-290 114,-178 114,-125.2624 292.4368,-84.136 358.6536,-70.6899"/>
<polygon fill="#191970" stroke="#191970" points="398.9982,-459.1672 409.2472,-456.4821 399.5607,-452.1899 398.9982,-459.1672"/>
</g>
<!-- Node100&#45;&gt;Node97 -->
<g id="edge40" class="edge">
<title>Node100&#45;&gt;Node97</title>
<path fill="none" stroke="#191970" d="M415.0503,-442.092C405.7314,-434.235 395.9978,-423.8847 391,-412 356.949,-331.0276 397.7265,-221.0145 411.6614,-187.8529"/>
<polygon fill="#191970" stroke="#191970" points="412.9752,-444.9126 423.0035,-448.3308 417.2957,-439.4049 412.9752,-444.9126"/>
</g>
<!-- Node101 -->
<g id="node17" class="node">
<title>Node101</title>
<g id="a_node17"><a xlink:href="../../d8/def/k__point__set_8h.html" target="_top" xlink:title="Contains declaration and partial implementation of sirius::K_point_set class. ">
<polygon fill="#ffffff" stroke="#000000" points="400,-392.5 400,-411.5 476,-411.5 476,-392.5 400,-392.5"/>
<text text-anchor="middle" x="438" y="-399.5" font-family="Helvetica,sans-Serif" font-size="10.00" fill="#000000">k_point_set.h</text>
</a>
</g>
</g>
<!-- Node100&#45;&gt;Node101 -->
<g id="edge19" class="edge">
<title>Node100&#45;&gt;Node101</title>
<path fill="none" stroke="#191970" d="M438,-438.1575C438,-429.155 438,-418.9199 438,-411.6427"/>
<polygon fill="#191970" stroke="#191970" points="434.5001,-438.2455 438,-448.2455 441.5001,-438.2456 434.5001,-438.2455"/>
</g>
<!-- Node101&#45;&gt;Node86 -->
<g id="edge39" class="edge">
<title>Node101&#45;&gt;Node86</title>
<path fill="none" stroke="#191970" d="M389.8725,-399.2972C329.575,-394.789 231.408,-383.3568 209,-356 139.2721,-270.8727 165.9095,-181.7729 251,-112 282.8085,-85.9176 330.3629,-74.2081 358.8677,-69.2729"/>
<polygon fill="#191970" stroke="#191970" points="389.7123,-402.7946 399.9351,-400.0119 390.2082,-395.8122 389.7123,-402.7946"/>
</g>
<!-- Node101&#45;&gt;Node95 -->
<g id="edge20" class="edge">
<title>Node101&#45;&gt;Node95</title>
<path fill="none" stroke="#191970" d="M426.4136,-383.9083C410.244,-359.2566 379.3531,-314.264 348,-280 335.4693,-266.306 319.197,-252.4412 308.2193,-243.5667"/>
<polygon fill="#191970" stroke="#191970" points="423.4785,-385.8151 431.8602,-392.2956 429.3493,-382.0026 423.4785,-385.8151"/>
</g>
<!-- Node101&#45;&gt;Node98 -->
<g id="edge38" class="edge">
<title>Node101&#45;&gt;Node98</title>
<path fill="none" stroke="#191970" d="M440.9293,-382.3495C444.9789,-357.8064 453.3716,-314.8081 467,-280 490.4153,-220.1951 533.0283,-155.3727 549.3738,-131.5062"/>
<polygon fill="#191970" stroke="#191970" points="437.4715,-381.8086 439.3712,-392.2317 444.386,-382.8989 437.4715,-381.8086"/>
</g>
<!-- Node101&#45;&gt;Node102 -->
<g id="edge21" class="edge">
<title>Node101&#45;&gt;Node102</title>
<path fill="none" stroke="#191970" d="M486.1701,-394.3583C560.6787,-382.5382 701.5916,-360.1838 762.1506,-350.5767"/>
<polygon fill="#191970" stroke="#191970" points="485.4407,-390.9301 476.1126,-395.9538 486.5375,-397.8437 485.4407,-390.9301"/>
</g>
<!-- Node102&#45;&gt;Node86 -->
<g id="edge37" class="edge">
<title>Node102&#45;&gt;Node86</title>
<path fill="none" stroke="#191970" d="M806.3499,-328.6687C823.2325,-307.7623 848,-270.8174 848,-234 848,-234 848,-234 848,-178 848,-86.347 502.2402,-69.4798 407.0212,-66.5725"/>
<polygon fill="#191970" stroke="#191970" points="803.6489,-326.4426 799.9063,-336.3544 809.0131,-330.94 803.6489,-326.4426"/>
</g>
<!-- Node102&#45;&gt;Node97 -->
<g id="edge34" class="edge">
<title>Node102&#45;&gt;Node97</title>
<path fill="none" stroke="#191970" d="M760.5522,-332.3594C686.9506,-299.3858 500.7887,-215.9853 437.468,-187.6177"/>
<polygon fill="#191970" stroke="#191970" points="759.2069,-335.5918 769.7639,-336.4862 762.0689,-329.2036 759.2069,-335.5918"/>
</g>
<!-- Node102&#45;&gt;Node98 -->
<g id="edge33" class="edge">
<title>Node102&#45;&gt;Node98</title>
<path fill="none" stroke="#191970" d="M793.1045,-326.1561C793.8648,-318.0555 794.6273,-308.5893 795,-300 796.5478,-264.3339 791.5923,-251.6416 769,-224 726.0579,-171.4606 649.6169,-144.2229 600.9374,-131.531"/>
<polygon fill="#191970" stroke="#191970" points="789.6181,-325.8471 792.106,-336.1456 796.5834,-326.5433 789.6181,-325.8471"/>
</g>
<!-- Node102&#45;&gt;Node103 -->
<g id="edge22" class="edge">
<title>Node102&#45;&gt;Node103</title>
<path fill="none" stroke="#191970" d="M752.3461,-338.3512C695.9185,-327.1853 592.039,-306.6296 539.7841,-296.2894"/>
<polygon fill="#191970" stroke="#191970" points="751.8178,-341.8144 762.3071,-340.3222 753.1767,-334.9476 751.8178,-341.8144"/>
</g>
<!-- Node102&#45;&gt;Node104 -->
<g id="edge35" class="edge">
<title>Node102&#45;&gt;Node104</title>
<path fill="none" stroke="#191970" d="M788.5864,-326.0131C784.4772,-299.7788 773.8858,-253.5986 748,-224 731.1342,-204.7152 704.2329,-192.4653 684.2285,-185.4987"/>
<polygon fill="#191970" stroke="#191970" points="785.1638,-326.8113 790.0134,-336.231 792.0966,-325.843 785.1638,-326.8113"/>
</g>
<!-- Node102&#45;&gt;Node105 -->
<g id="edge36" class="edge">
<title>Node102&#45;&gt;Node105</title>
<path fill="none" stroke="#191970" d="M816.6392,-331.1982C830.5501,-322.7278 847.7618,-311.5173 862,-300 884.4258,-281.8598 907.574,-257.0375 919.5981,-243.5954"/>
<polygon fill="#191970" stroke="#191970" points="814.8228,-328.2063 808.0388,-336.3445 818.4171,-334.2131 814.8228,-328.2063"/>
</g>
<!-- Node103&#45;&gt;Node86 -->
<g id="edge32" class="edge">
<title>Node103&#45;&gt;Node86</title>
<path fill="none" stroke="#191970" d="M478.317,-275.764C447.9706,-259.3649 402.5931,-229.2764 383,-188 364.9255,-149.9228 374.9512,-97.3236 380.3118,-75.7883"/>
<polygon fill="#191970" stroke="#191970" points="476.7235,-278.8803 487.2071,-280.4111 479.9663,-272.6767 476.7235,-278.8803"/>
</g>
<!-- Node103&#45;&gt;Node95 -->
<g id="edge23" class="edge">
<title>Node103&#45;&gt;Node95</title>
<path fill="none" stroke="#191970" d="M466.4873,-279.0344C422.704,-267.469 355.2443,-249.6494 319.7332,-240.2691"/>
<polygon fill="#191970" stroke="#191970" points="465.6992,-282.4462 476.2615,-281.6162 467.487,-275.6783 465.6992,-282.4462"/>
</g>
<!-- Node103&#45;&gt;Node97 -->
<g id="edge25" class="edge">
<title>Node103&#45;&gt;Node97</title>
<path fill="none" stroke="#191970" d="M493.6475,-272.5274C473.9672,-248.5688 439.2879,-206.3505 423.824,-187.5249"/>
<polygon fill="#191970" stroke="#191970" points="491.1042,-274.9453 500.1561,-280.4509 496.5133,-270.5021 491.1042,-274.9453"/>
</g>
<!-- Node103&#45;&gt;Node98 -->
<g id="edge24" class="edge">
<title>Node103&#45;&gt;Node98</title>
<path fill="none" stroke="#191970" d="M513.5067,-270.7267C523.7655,-234.8207 545.4622,-158.8822 553.192,-131.8279"/>
<polygon fill="#191970" stroke="#191970" points="510.1002,-269.9094 510.7182,-280.4862 516.8308,-271.8325 510.1002,-269.9094"/>
</g>
<!-- Node103&#45;&gt;Node104 -->
<g id="edge26" class="edge">
<title>Node103&#45;&gt;Node104</title>
<path fill="none" stroke="#191970" d="M521.0626,-272.4109C532.3371,-258.0898 549.6623,-238.0198 568,-224 588.3527,-208.4396 614.7637,-195.666 633.7029,-187.5616"/>
<polygon fill="#191970" stroke="#191970" points="518.1819,-270.4156 514.8696,-280.4794 523.7348,-274.6778 518.1819,-270.4156"/>
</g>
<!-- Node103&#45;&gt;Node105 -->
<g id="edge28" class="edge">
<title>Node103&#45;&gt;Node105</title>
<path fill="none" stroke="#191970" d="M549.8626,-284.4183C627.0502,-274.1266 791.5912,-252.1878 875.8756,-240.9499"/>
<polygon fill="#191970" stroke="#191970" points="549.0179,-280.9999 539.5683,-285.7909 549.9431,-287.9385 549.0179,-280.9999"/>
</g>
<!-- Node104&#45;&gt;Node98 -->
<g id="edge27" class="edge">
<title>Node104&#45;&gt;Node98</title>
<path fill="none" stroke="#191970" d="M631.266,-163.3225C613.0468,-153.3198 589.4402,-140.3593 573.5634,-131.6427"/>
<polygon fill="#191970" stroke="#191970" points="629.7827,-166.5009 640.233,-168.2455 633.1516,-160.3649 629.7827,-166.5009"/>
</g>
<!-- Node105&#45;&gt;Node104 -->
<g id="edge29" class="edge">
<title>Node105&#45;&gt;Node104</title>
<path fill="none" stroke="#191970" d="M871.8684,-222.3579C814.3663,-210.4315 727.4642,-192.4074 684.2811,-183.4509"/>
<polygon fill="#191970" stroke="#191970" points="871.3897,-225.833 881.8921,-224.4369 872.8113,-218.9789 871.3897,-225.833"/>
</g>
<!-- Node106 -->
<g id="node22" class="node">
<title>Node106</title>
<g id="a_node22"><a xlink:href="../../d2/d50/stress_8h.html" target="_top" xlink:title="Stress tensor calculation. ">
<polygon fill="#ffffff" stroke="#000000" points="768,-168.5 768,-187.5 820,-187.5 820,-168.5 768,-168.5"/>
<text text-anchor="middle" x="794" y="-175.5" font-family="Helvetica,sans-Serif" font-size="10.00" fill="#000000">stress.h</text>
</a>
</g>
</g>
<!-- Node105&#45;&gt;Node106 -->
<g id="edge30" class="edge">
<title>Node105&#45;&gt;Node106</title>
<path fill="none" stroke="#191970" d="M895.4172,-220.3833C871.0464,-210.1985 838.3358,-196.5284 816.7348,-187.5011"/>
<polygon fill="#191970" stroke="#191970" points="894.3883,-223.7466 904.9646,-224.3733 897.0875,-217.2879 894.3883,-223.7466"/>
</g>
<!-- Node106&#45;&gt;Node98 -->
<g id="edge31" class="edge">
<title>Node106&#45;&gt;Node98</title>
<path fill="none" stroke="#191970" d="M757.8133,-168.9246C756.5267,-168.6111 755.2526,-168.302 754,-168 700.3094,-155.0528 638.267,-140.7444 598.1495,-131.5777"/>
<polygon fill="#191970" stroke="#191970" points="757.2186,-172.3826 767.7654,-171.3748 758.8921,-165.5856 757.2186,-172.3826"/>
</g>
<!-- Node107&#45;&gt;Node95 -->
<g id="edge45" class="edge">
<title>Node107&#45;&gt;Node95</title>
<path fill="none" stroke="#191970" d="M267.8897,-326.5987C275.247,-302.363 287.544,-261.8551 293.1085,-243.5249"/>
<polygon fill="#191970" stroke="#191970" points="264.4546,-325.8654 264.8988,-336.4509 271.1528,-327.8988 264.4546,-325.8654"/>
</g>
<!-- Node108&#45;&gt;Node100 -->
<g id="edge50" class="edge">
<title>Node108&#45;&gt;Node100</title>
<path fill="none" stroke="#191970" d="M677.7423,-503.2039C614.5953,-491.2974 515.5064,-472.614 466.8786,-463.4451"/>
<polygon fill="#191970" stroke="#191970" points="677.4641,-506.7131 687.9395,-505.1266 678.7612,-499.8343 677.4641,-506.7131"/>
</g>
<!-- Node108&#45;&gt;Node104 -->
<g id="edge55" class="edge">
<title>Node108&#45;&gt;Node104</title>
<path fill="none" stroke="#191970" d="M743.2917,-494.8962C752.7121,-470.3139 765.1742,-426.6508 752,-392 744.3923,-371.9902 730.8388,-374.4605 720,-356 685.3717,-297.0218 665.9607,-215.7035 660.0005,-187.8324"/>
<polygon fill="#191970" stroke="#191970" points="739.9256,-493.8829 739.4024,-504.4648 746.4103,-496.5188 739.9256,-493.8829"/>
</g>
<!-- Node108&#45;&gt;Node105 -->
<g id="edge56" class="edge">
<title>Node108&#45;&gt;Node105</title>
<path fill="none" stroke="#191970" d="M791.7787,-501.6819C815.2073,-494.6058 841.5922,-483.873 862,-468 926.6882,-417.6861 924.6566,-380.8579 938,-300 941.2833,-280.104 935.4836,-256.7638 931.4313,-243.8528"/>
<polygon fill="#191970" stroke="#191970" points="790.5966,-498.3795 781.9449,-504.4949 792.5218,-505.1096 790.5966,-498.3795"/>
</g>
<!-- Node108&#45;&gt;Node109 -->
<g id="edge51" class="edge">
<title>Node108&#45;&gt;Node109</title>
<path fill="none" stroke="#191970" d="M677.7324,-507.8563C576.6687,-497.0143 367.9567,-474.6237 268.3054,-463.9331"/>
<polygon fill="#191970" stroke="#191970" points="677.439,-511.3449 687.7553,-508.9316 678.1857,-504.3848 677.439,-511.3449"/>
</g>
<!-- Node110 -->
<g id="node26" class="node">
<title>Node110</title>
<g id="a_node26"><a xlink:href="../../d4/d0f/beta__projectors__gradient_8h.html" target="_top" xlink:title="Contains declaration and implementation of sirius::Beta_projectors_gradient class. ">
<polygon fill="#ffffff" stroke="#000000" points="608.5,-392.5 608.5,-411.5 743.5,-411.5 743.5,-392.5 608.5,-392.5"/>
<text text-anchor="middle" x="676" y="-399.5" font-family="Helvetica,sans-Serif" font-size="10.00" fill="#000000">beta_projectors_gradient.h</text>
</a>
</g>
</g>
<!-- Node108&#45;&gt;Node110 -->
<g id="edge53" class="edge">
<title>Node108&#45;&gt;Node110</title>
<path fill="none" stroke="#191970" d="M725.2925,-495.5723C712.5915,-471.4618 690.8041,-430.1028 681.0176,-411.5249"/>
<polygon fill="#191970" stroke="#191970" points="722.2123,-497.2347 729.9697,-504.4509 728.4055,-493.9722 722.2123,-497.2347"/>
</g>
<!-- Node109&#45;&gt;Node95 -->
<g id="edge52" class="edge">
<title>Node109&#45;&gt;Node95</title>
<path fill="none" stroke="#191970" d="M207.9729,-438.5067C202.5747,-413.8047 196.3535,-370.3148 209,-336 223.9705,-295.3795 263.1137,-259.9406 283.4008,-243.597"/>
<polygon fill="#191970" stroke="#191970" points="204.6136,-439.5099 210.3244,-448.4338 211.4251,-437.8963 204.6136,-439.5099"/>
</g>
<!-- Node110&#45;&gt;Node104 -->
<g id="edge54" class="edge">
<title>Node110&#45;&gt;Node104</title>
<path fill="none" stroke="#191970" d="M668.1612,-383.1052C660.2507,-362.9352 648.5707,-329.8384 644,-300 638.8855,-266.6117 639.0285,-257.4099 644,-224 645.9167,-211.1193 650.6962,-196.8554 654.1376,-187.6772"/>
<polygon fill="#191970" stroke="#191970" points="664.9168,-384.4182 671.8967,-392.3888 671.4108,-381.8051 664.9168,-384.4182"/>
</g>
<!-- Node111&#45;&gt;Node93 -->
<g id="edge65" class="edge">
<title>Node111&#45;&gt;Node93</title>
<path fill="none" stroke="#191970" d="M868.0804,-663.0246C862.8574,-649.1707 858.7721,-631.5552 863,-616 866.7403,-602.2386 875.7513,-588.3875 882.3381,-579.5346"/>
<polygon fill="#191970" stroke="#191970" points="864.8978,-664.4862 871.982,-672.3643 871.3569,-661.788 864.8978,-664.4862"/>
</g>
<!-- Node112 -->
<g id="node28" class="node">
<title>Node112</title>
<g id="a_node28"><a xlink:href="../../d3/d0e/step__function_8h.html" target="_top" xlink:title="Contains definition and partial implementation of sirius::Step_function class. ">
<polygon fill="#ffffff" stroke="#000000" points="872,-616.5 872,-635.5 956,-635.5 956,-616.5 872,-616.5"/>
<text text-anchor="middle" x="914" y="-623.5" font-family="Helvetica,sans-Serif" font-size="10.00" fill="#000000">step_function.h</text>
</a>
</g>
</g>
<!-- Node111&#45;&gt;Node112 -->
<g id="edge66" class="edge">
<title>Node111&#45;&gt;Node112</title>
<path fill="none" stroke="#191970" d="M893.279,-663.4806C898.6027,-653.8511 904.4383,-643.2954 908.5562,-635.8469"/>
<polygon fill="#191970" stroke="#191970" points="890.1798,-661.8527 888.4045,-672.2977 896.3059,-665.2395 890.1798,-661.8527"/>
</g>
<!-- Node112&#45;&gt;Node86 -->
<g id="edge68" class="edge">
<title>Node112&#45;&gt;Node86</title>
<path fill="none" stroke="#191970" d="M954.0448,-612.8523C1012.4183,-590.8708 1114,-540.733 1114,-458 1114,-458 1114,-458 1114,-178 1114,-104.8173 534.1614,-73.1514 407.3217,-67.1"/>
<polygon fill="#191970" stroke="#191970" points="952.567,-609.6659 944.3757,-616.3855 954.9695,-616.2407 952.567,-609.6659"/>
</g>
<!-- Node112&#45;&gt;Node93 -->
<g id="edge67" class="edge">
<title>Node112&#45;&gt;Node93</title>
<path fill="none" stroke="#191970" d="M905.8759,-607.0437C901.9285,-597.8331 897.3542,-587.1598 894.1326,-579.6427"/>
<polygon fill="#191970" stroke="#191970" points="902.6633,-608.4328 909.8195,-616.2455 909.0973,-605.6753 902.6633,-608.4328"/>
</g>
<!-- Node113&#45;&gt;Node91 -->
<g id="edge70" class="edge">
<title>Node113&#45;&gt;Node91</title>
<path fill="none" stroke="#191970" d="M880,-785.1575C880,-776.155 880,-765.9199 880,-758.6427"/>
<polygon fill="#191970" stroke="#191970" points="876.5001,-785.2455 880,-795.2455 883.5001,-785.2456 876.5001,-785.2455"/>
</g>
<!-- Node115 -->
<g id="node31" class="node">
<title>Node115</title>
<g id="a_node31"><a xlink:href="../../d6/dc4/real__space__prj_8cpp_source.html" target="_top" xlink:title="real_space_prj.cpp">
<polygon fill="#ffffff" stroke="#000000" points="654.5,-739.5 654.5,-758.5 755.5,-758.5 755.5,-739.5 654.5,-739.5"/>
<text text-anchor="middle" x="705" y="-746.5" font-family="Helvetica,sans-Serif" font-size="10.00" fill="#000000">real_space_prj.cpp</text>
</a>
</g>
</g>
<!-- Node114&#45;&gt;Node115 -->
<g id="edge73" class="edge">
<title>Node114&#45;&gt;Node115</title>
<path fill="none" stroke="#191970" d="M706.937,-785.1575C706.4547,-776.155 705.9064,-765.9199 705.5166,-758.6427"/>
<polygon fill="#191970" stroke="#191970" points="703.4474,-785.4471 707.4774,-795.2455 710.4374,-785.0726 703.4474,-785.4471"/>
</g>
<!-- Node116&#45;&gt;Node86 -->
<g id="edge77" class="edge">
<title>Node116&#45;&gt;Node86</title>
<path fill="none" stroke="#191970" d="M888.7946,-911.6287C966.6463,-898.3025 1152,-860.7236 1152,-805 1152,-805 1152,-805 1152,-178 1152,-101.8974 1068.0035,-129.7508 994,-112 879.4375,-84.5205 505.7086,-70.1564 407.0576,-66.7839"/>
<polygon fill="#191970" stroke="#191970" points="887.8361,-908.2406 878.5533,-913.3475 888.9947,-915.144 887.8361,-908.2406"/>
</g>
<!-- Node116&#45;&gt;Node90 -->
<g id="edge76" class="edge">
<title>Node116&#45;&gt;Node90</title>
<path fill="none" stroke="#191970" d="M839.0178,-899.7884C830.1222,-890.2085 819.3796,-878.6396 811.9539,-870.6427"/>
<polygon fill="#191970" stroke="#191970" points="836.573,-902.2992 845.9423,-907.2455 841.7025,-897.536 836.573,-902.2992"/>
</g>
</g>
</svg>
