<?xml version="1.0" encoding="UTF-8" standalone="no"?>
<!DOCTYPE svg PUBLIC "-//W3C//DTD SVG 1.1//EN"
 "http://www.w3.org/Graphics/SVG/1.1/DTD/svg11.dtd">
<!-- Generated by graphviz version 2.40.1 (20161225.0304)
 -->
<!-- Title: hdf5_tree.h Pages: 1 -->
<svg width="1274pt" height="1159pt"
 viewBox="0.00 0.00 1274.00 1159.00" xmlns="http://www.w3.org/2000/svg" xmlns:xlink="http://www.w3.org/1999/xlink">
<g id="graph0" class="graph" transform="scale(1 1) rotate(0) translate(4 1155)">
<title>hdf5_tree.h</title>
<polygon fill="#ffffff" stroke="transparent" points="-4,4 -4,-1155 1270,-1155 1270,4 -4,4"/>
<!-- Node80 -->
<g id="node1" class="node">
<title>Node80</title>
<polygon fill="#bfbfbf" stroke="#000000" points="1212,-1131.5 1212,-1150.5 1266,-1150.5 1266,-1131.5 1212,-1131.5"/>
<text text-anchor="middle" x="1239" y="-1138.5" font-family="Helvetica,sans-Serif" font-size="10.00" fill="#000000">hdf5_tree.h</text>
</g>
<!-- Node81 -->
<g id="node2" class="node">
<title>Node81</title>
<g id="a_node2"><a xlink:href="../../dd/dc2/sirius_8h.html" target="_top" xlink:title="&quot;All&#45;in&#45;one&quot; include file. ">
<polygon fill="#ffffff" stroke="#000000" points="961,-56.5 961,-75.5 1001,-75.5 1001,-56.5 961,-56.5"/>
<text text-anchor="middle" x="981" y="-63.5" font-family="Helvetica,sans-Serif" font-size="10.00" fill="#000000">sirius.h</text>
</a>
</g>
</g>
<!-- Node80&#45;&gt;Node81 -->
<g id="edge1" class="edge">
<title>Node80&#45;&gt;Node81</title>
<path fill="none" stroke="#191970" d="M1246.5614,-1121.8019C1254.5488,-1099.7608 1266,-1062.3462 1266,-1029 1266,-1029 1266,-1029 1266,-178 1266,-138.6547 1241.1237,-131.5863 1207,-112 1171.6655,-91.7187 1049.6978,-74.6141 1001.158,-68.4515"/>
<polygon fill="#191970" stroke="#191970" points="1243.2327,-1120.71 1242.9839,-1131.3019 1249.7836,-1123.177 1243.2327,-1120.71"/>
</g>
<!-- Node83 -->
<g id="node4" class="node">
<title>Node83</title>
<g id="a_node4"><a xlink:href="../../dc/d68/sirius__io_8h.html" target="_top" xlink:title="Contains declaration and implementation of sirius::pstdout and sirius::sirius_io classes. ">
<polygon fill="#ffffff" stroke="#000000" points="1188,-1075.5 1188,-1094.5 1238,-1094.5 1238,-1075.5 1188,-1075.5"/>
<text text-anchor="middle" x="1213" y="-1082.5" font-family="Helvetica,sans-Serif" font-size="10.00" fill="#000000">sirius_io.h</text>
</a>
</g>
</g>
<!-- Node80&#45;&gt;Node83 -->
<g id="edge3" class="edge">
<title>Node80&#45;&gt;Node83</title>
<path fill="none" stroke="#191970" d="M1230.1989,-1122.0437C1225.9225,-1112.8331 1220.967,-1102.1598 1217.477,-1094.6427"/>
<polygon fill="#191970" stroke="#191970" points="1227.0854,-1123.6494 1234.4711,-1131.2455 1233.4345,-1120.7015 1227.0854,-1123.6494"/>
</g>
<!-- Node82 -->
<g id="node3" class="node">
<title>Node82</title>
<g id="a_node3"><a xlink:href="../../d4/d53/sirius__api_8cpp.html" target="_top" xlink:title="Fortran API. ">
<polygon fill="#ffffff" stroke="#000000" points="950,-.5 950,-19.5 1012,-19.5 1012,-.5 950,-.5"/>
<text text-anchor="middle" x="981" y="-7.5" font-family="Helvetica,sans-Serif" font-size="10.00" fill="#000000">sirius_api.cpp</text>
</a>
</g>
</g>
<!-- Node81&#45;&gt;Node82 -->
<g id="edge2" class="edge">
<title>Node81&#45;&gt;Node82</title>
<path fill="none" stroke="#191970" d="M981,-46.1575C981,-37.155 981,-26.9199 981,-19.6427"/>
<polygon fill="#191970" stroke="#191970" points="977.5001,-46.2455 981,-56.2455 984.5001,-46.2456 977.5001,-46.2455"/>
</g>
<!-- Node83&#45;&gt;Node81 -->
<g id="edge80" class="edge">
<title>Node83&#45;&gt;Node81</title>
<path fill="none" stroke="#191970" d="M1217.193,-1065.6077C1221.6307,-1043.359 1228,-1005.7261 1228,-973 1228,-973 1228,-973 1228,-178 1228,-141.1996 1208.864,-132.042 1178,-112 1148.6178,-92.9202 1045.3917,-75.6421 1001.2583,-68.9448"/>
<polygon fill="#191970" stroke="#191970" points="1213.7515,-1064.9671 1215.1491,-1075.4693 1220.6058,-1066.3877 1213.7515,-1064.9671"/>
</g>
<!-- Node84 -->
<g id="node5" class="node">
<title>Node84</title>
<g id="a_node5"><a xlink:href="../../dc/d2c/atom__symmetry__class_8h.html" target="_top" xlink:title="Contains declaration and partial implementation of sirius::Atom_symmetry_class class. ">
<polygon fill="#ffffff" stroke="#000000" points="1098.5,-1019.5 1098.5,-1038.5 1195.5,-1038.5 1195.5,-1019.5 1098.5,-1019.5"/>
<text text-anchor="middle" x="1147" y="-1026.5" font-family="Helvetica,sans-Serif" font-size="10.00" fill="#000000">atom_symmetry_class.h</text>
</a>
</g>
</g>
<!-- Node83&#45;&gt;Node84 -->
<g id="edge4" class="edge">
<title>Node83&#45;&gt;Node84</title>
<path fill="none" stroke="#191970" d="M1193.7245,-1068.645C1182.2462,-1058.9058 1168.0723,-1046.8795 1158.3646,-1038.6427"/>
<polygon fill="#191970" stroke="#191970" points="1191.6141,-1071.4445 1201.5037,-1075.2455 1196.143,-1066.1069 1191.6141,-1071.4445"/>
</g>
<!-- Node84&#45;&gt;Node81 -->
<g id="edge79" class="edge">
<title>Node84&#45;&gt;Node81</title>
<path fill="none" stroke="#191970" d="M1158.8941,-1010.556C1171.6207,-989.0101 1190,-951.8597 1190,-917 1190,-917 1190,-917 1190,-178 1190,-92.7857 1053.3508,-72.1506 1001.0398,-67.3732"/>
<polygon fill="#191970" stroke="#191970" points="1155.7794,-1008.9397 1153.5308,-1019.2931 1161.7451,-1012.6017 1155.7794,-1008.9397"/>
</g>
<!-- Node85 -->
<g id="node6" class="node">
<title>Node85</title>
<g id="a_node6"><a xlink:href="../../d0/d51/unit__cell_8h.html" target="_top" xlink:title="Contains definition and partial implementation of sirius::Unit_cell class. ">
<polygon fill="#ffffff" stroke="#000000" points="370,-907.5 370,-926.5 420,-926.5 420,-907.5 370,-907.5"/>
<text text-anchor="middle" x="395" y="-914.5" font-family="Helvetica,sans-Serif" font-size="10.00" fill="#000000">unit_cell.h</text>
</a>
</g>
</g>
<!-- Node84&#45;&gt;Node85 -->
<g id="edge5" class="edge">
<title>Node84&#45;&gt;Node85</title>
<path fill="none" stroke="#191970" d="M1088.0512,-1020.2204C934.3069,-997.3223 525.7237,-936.4695 420.1702,-920.7488"/>
<polygon fill="#191970" stroke="#191970" points="1087.8321,-1023.7263 1098.2386,-1021.7377 1088.8633,-1016.8027 1087.8321,-1023.7263"/>
</g>
<!-- Node111 -->
<g id="node32" class="node">
<title>Node111</title>
<g id="a_node32"><a xlink:href="../../d9/d49/atom_8h.html" target="_top" xlink:title="Contains declaration and partial implementation of sirius::Atom class. ">
<polygon fill="#ffffff" stroke="#000000" points="1122.5,-963.5 1122.5,-982.5 1161.5,-982.5 1161.5,-963.5 1122.5,-963.5"/>
<text text-anchor="middle" x="1142" y="-970.5" font-family="Helvetica,sans-Serif" font-size="10.00" fill="#000000">atom.h</text>
</a>
</g>
</g>
<!-- Node84&#45;&gt;Node111 -->
<g id="edge76" class="edge">
<title>Node84&#45;&gt;Node111</title>
<path fill="none" stroke="#191970" d="M1145.2283,-1009.1575C1144.4246,-1000.155 1143.5107,-989.9199 1142.861,-982.6427"/>
<polygon fill="#191970" stroke="#191970" points="1141.7535,-1009.5965 1146.1291,-1019.2455 1148.7258,-1008.9739 1141.7535,-1009.5965"/>
</g>
<!-- Node85&#45;&gt;Node81 -->
<g id="edge75" class="edge">
<title>Node85&#45;&gt;Node81</title>
<path fill="none" stroke="#191970" d="M359.8328,-914.584C263.0691,-906.9794 0,-879.4582 0,-805 0,-805 0,-805 0,-178 0,-119.0696 58.4807,-128.6842 115,-112 198.4807,-87.3569 837.787,-69.6996 960.6226,-66.5157"/>
<polygon fill="#191970" stroke="#191970" points="359.7546,-918.0881 369.9913,-915.3567 360.2856,-911.1082 359.7546,-918.0881"/>
</g>
<!-- Node86 -->
<g id="node7" class="node">
<title>Node86</title>
<g id="a_node7"><a xlink:href="../../de/d58/radial__integrals_8h.html" target="_top" xlink:title="Representation of various radial integrals. ">
<polygon fill="#ffffff" stroke="#000000" points="272,-795.5 272,-814.5 346,-814.5 346,-795.5 272,-795.5"/>
<text text-anchor="middle" x="309" y="-802.5" font-family="Helvetica,sans-Serif" font-size="10.00" fill="#000000">radial_integrals.h</text>
</a>
</g>
</g>
<!-- Node85&#45;&gt;Node86 -->
<g id="edge6" class="edge">
<title>Node85&#45;&gt;Node86</title>
<path fill="none" stroke="#191970" d="M360.1132,-907.4974C341.821,-900.56 320.9856,-889.1227 310,-871 299.4261,-853.5565 303.073,-828.462 306.2771,-814.7895"/>
<polygon fill="#191970" stroke="#191970" points="359.0626,-910.8375 369.6574,-910.8144 361.3606,-904.2255 359.0626,-910.8375"/>
</g>
<!-- Node103 -->
<g id="node24" class="node">
<title>Node103</title>
<g id="a_node24"><a xlink:href="../../d2/d5f/beta__projectors_8h.html" target="_top" xlink:title="Contains declaration and implementation of sirius::Beta_projectors class. ">
<polygon fill="#ffffff" stroke="#000000" points="358,-560.5 358,-579.5 432,-579.5 432,-560.5 358,-560.5"/>
<text text-anchor="middle" x="395" y="-567.5" font-family="Helvetica,sans-Serif" font-size="10.00" fill="#000000">beta_projectors.h</text>
</a>
</g>
</g>
<!-- Node85&#45;&gt;Node103 -->
<g id="edge72" class="edge">
<title>Node85&#45;&gt;Node103</title>
<path fill="none" stroke="#191970" d="M395,-897.1952C395,-874.8128 395,-837.2884 395,-805 395,-805 395,-805 395,-682 395,-644.0833 395,-598.9462 395,-579.5884"/>
<polygon fill="#191970" stroke="#191970" points="391.5001,-897.4116 395,-907.4116 398.5001,-897.4117 391.5001,-897.4116"/>
</g>
<!-- Node108 -->
<g id="node29" class="node">
<title>Node108</title>
<g id="a_node29"><a xlink:href="../../d0/d05/sbessel_8h.html" target="_top" xlink:title="Contains implementation of sirius::Spherical_Bessel_functions and sirius::sbessel_approx classes...">
<polygon fill="#ffffff" stroke="#000000" points="319,-851.5 319,-870.5 367,-870.5 367,-851.5 319,-851.5"/>
<text text-anchor="middle" x="343" y="-858.5" font-family="Helvetica,sans-Serif" font-size="10.00" fill="#000000">sbessel.h</text>
</a>
</g>
</g>
<!-- Node85&#45;&gt;Node108 -->
<g id="edge70" class="edge">
<title>Node85&#45;&gt;Node108</title>
<path fill="none" stroke="#191970" d="M379.0178,-899.7884C370.1222,-890.2085 359.3796,-878.6396 351.9539,-870.6427"/>
<polygon fill="#191970" stroke="#191970" points="376.573,-902.2992 385.9423,-907.2455 381.7025,-897.536 376.573,-902.2992"/>
</g>
<!-- Node109 -->
<g id="node30" class="node">
<title>Node109</title>
<g id="a_node30"><a xlink:href="../../d7/db5/real__space__prj_8h_source.html" target="_top" xlink:title="real_space_prj.h">
<polygon fill="#ffffff" stroke="#000000" points="425,-851.5 425,-870.5 497,-870.5 497,-851.5 425,-851.5"/>
<text text-anchor="middle" x="461" y="-858.5" font-family="Helvetica,sans-Serif" font-size="10.00" fill="#000000">real_space_prj.h</text>
</a>
</g>
</g>
<!-- Node85&#45;&gt;Node109 -->
<g id="edge73" class="edge">
<title>Node85&#45;&gt;Node109</title>
<path fill="none" stroke="#191970" d="M414.2755,-900.645C425.7538,-890.9058 439.9277,-878.8795 449.6354,-870.6427"/>
<polygon fill="#191970" stroke="#191970" points="411.857,-898.1069 406.4963,-907.2455 416.3859,-903.4445 411.857,-898.1069"/>
</g>
<!-- Node87 -->
<g id="node8" class="node">
<title>Node87</title>
<g id="a_node8"><a xlink:href="../../da/d12/augmentation__operator_8h.html" target="_top" xlink:title="Contains implementation of sirius::Augmentation_operator class. ">
<polygon fill="#ffffff" stroke="#000000" points="250,-672.5 250,-691.5 350,-691.5 350,-672.5 250,-672.5"/>
<text text-anchor="middle" x="300" y="-679.5" font-family="Helvetica,sans-Serif" font-size="10.00" fill="#000000">augmentation_operator.h</text>
</a>
</g>
</g>
<!-- Node86&#45;&gt;Node87 -->
<g id="edge7" class="edge">
<title>Node86&#45;&gt;Node87</title>
<path fill="none" stroke="#191970" d="M307.5534,-785.2305C305.5939,-758.4497 302.1721,-711.686 300.7029,-691.6068"/>
<polygon fill="#191970" stroke="#191970" points="304.0733,-785.6305 308.2938,-795.3484 311.0546,-785.1196 304.0733,-785.6305"/>
</g>
<!-- Node106 -->
<g id="node27" class="node">
<title>Node106</title>
<g id="a_node27"><a xlink:href="../../de/df0/simulation__context__base_8h.html" target="_top" xlink:title="Contains definition and implementation of Simulation_context_base class. ">
<polygon fill="#ffffff" stroke="#000000" points="425.5,-728.5 425.5,-758.5 504.5,-758.5 504.5,-728.5 425.5,-728.5"/>
<text text-anchor="start" x="433.5" y="-746.5" font-family="Helvetica,sans-Serif" font-size="10.00" fill="#000000">simulation_context</text>
<text text-anchor="middle" x="465" y="-735.5" font-family="Helvetica,sans-Serif" font-size="10.00" fill="#000000">_base.h</text>
</a>
</g>
</g>
<!-- Node86&#45;&gt;Node106 -->
<g id="edge65" class="edge">
<title>Node86&#45;&gt;Node106</title>
<path fill="none" stroke="#191970" d="M342.7206,-791.7063C367.4674,-781.9503 401.1063,-768.6889 426.8381,-758.5446"/>
<polygon fill="#191970" stroke="#191970" points="341.3945,-788.4669 333.375,-795.3906 343.9618,-794.9791 341.3945,-788.4669"/>
</g>
<!-- Node88 -->
<g id="node9" class="node">
<title>Node88</title>
<g id="a_node9"><a xlink:href="../../d5/d5b/simulation__context_8h.html" target="_top" xlink:title="Contains definition and implementation of Simulation_parameters and Simulation_context classes...">
<polygon fill="#ffffff" stroke="#000000" points="423.5,-616.5 423.5,-635.5 508.5,-635.5 508.5,-616.5 423.5,-616.5"/>
<text text-anchor="middle" x="466" y="-623.5" font-family="Helvetica,sans-Serif" font-size="10.00" fill="#000000">simulation_context.h</text>
</a>
</g>
</g>
<!-- Node87&#45;&gt;Node88 -->
<g id="edge8" class="edge">
<title>Node87&#45;&gt;Node88</title>
<path fill="none" stroke="#191970" d="M338.3667,-669.057C368.7466,-658.8084 410.4819,-644.729 437.836,-635.5011"/>
<polygon fill="#191970" stroke="#191970" points="336.893,-665.8603 328.5364,-672.3733 339.1306,-672.4931 336.893,-665.8603"/>
</g>
<!-- Node100 -->
<g id="node21" class="node">
<title>Node100</title>
<g id="a_node21"><a xlink:href="../../d8/dab/forces_8h_source.html" target="_top" xlink:title="forces.h">
<polygon fill="#ffffff" stroke="#000000" points="320.5,-224.5 320.5,-243.5 363.5,-243.5 363.5,-224.5 320.5,-224.5"/>
<text text-anchor="middle" x="342" y="-231.5" font-family="Helvetica,sans-Serif" font-size="10.00" fill="#000000">forces.h</text>
</a>
</g>
</g>
<!-- Node87&#45;&gt;Node100 -->
<g id="edge63" class="edge">
<title>Node87&#45;&gt;Node100</title>
<path fill="none" stroke="#191970" d="M239.7416,-671.6672C185.4146,-658.4884 114,-629.7929 114,-570 114,-570 114,-570 114,-514 114,-408.9709 76.2098,-357.5877 147,-280 170.2684,-254.4973 274.6926,-240.8871 320.428,-236.0597"/>
<polygon fill="#191970" stroke="#191970" points="239.1354,-675.1191 249.6657,-673.9514 240.7056,-668.2975 239.1354,-675.1191"/>
</g>
<!-- Node101 -->
<g id="node22" class="node">
<title>Node101</title>
<g id="a_node22"><a xlink:href="../../d6/d9f/non__local__functor_8h_source.html" target="_top" xlink:title="non_local_functor.h">
<polygon fill="#ffffff" stroke="#000000" points="156,-280.5 156,-299.5 238,-299.5 238,-280.5 156,-280.5"/>
<text text-anchor="middle" x="197" y="-287.5" font-family="Helvetica,sans-Serif" font-size="10.00" fill="#000000">non_local_functor.h</text>
</a>
</g>
</g>
<!-- Node87&#45;&gt;Node101 -->
<g id="edge64" class="edge">
<title>Node87&#45;&gt;Node101</title>
<path fill="none" stroke="#191970" d="M239.5887,-674.5302C188.5314,-667.0859 120.5184,-654.1435 100,-636 76.6177,-615.3241 76,-601.2125 76,-570 76,-570 76,-570 76,-514 76,-420.7381 158.1997,-329.0412 187.0981,-299.6857"/>
<polygon fill="#191970" stroke="#191970" points="239.1622,-678.0046 249.555,-675.9456 240.1465,-671.0742 239.1622,-678.0046"/>
</g>
<!-- Node89 -->
<g id="node10" class="node">
<title>Node89</title>
<g id="a_node10"><a xlink:href="../../d8/d65/periodic__function_8h.html" target="_top" xlink:title="Contains declaration and partial implementation of sirius::Periodic_function class. ">
<polygon fill="#ffffff" stroke="#000000" points="502.5,-560.5 502.5,-579.5 581.5,-579.5 581.5,-560.5 502.5,-560.5"/>
<text text-anchor="middle" x="542" y="-567.5" font-family="Helvetica,sans-Serif" font-size="10.00" fill="#000000">periodic_function.h</text>
</a>
</g>
</g>
<!-- Node88&#45;&gt;Node89 -->
<g id="edge9" class="edge">
<title>Node88&#45;&gt;Node89</title>
<path fill="none" stroke="#191970" d="M487.4297,-610.2097C500.7777,-600.3743 517.5179,-588.0394 528.9135,-579.6427"/>
<polygon fill="#191970" stroke="#191970" points="485.2126,-607.4958 479.2382,-616.2455 489.365,-613.1312 485.2126,-607.4958"/>
</g>
<!-- Node97 -->
<g id="node18" class="node">
<title>Node97</title>
<g id="a_node18"><a xlink:href="../../d2/dcb/density_8h.html" target="_top" xlink:title="Contains definition and partial implementation of sirius::Density class. ">
<polygon fill="#ffffff" stroke="#000000" points="508.5,-392.5 508.5,-411.5 555.5,-411.5 555.5,-392.5 508.5,-392.5"/>
<text text-anchor="middle" x="532" y="-399.5" font-family="Helvetica,sans-Serif" font-size="10.00" fill="#000000">density.h</text>
</a>
</g>
</g>
<!-- Node88&#45;&gt;Node97 -->
<g id="edge59" class="edge">
<title>Node88&#45;&gt;Node97</title>
<path fill="none" stroke="#191970" d="M471.6853,-606.7044C485.2576,-560.6409 519.1637,-445.5657 529.1746,-411.5891"/>
<polygon fill="#191970" stroke="#191970" points="468.305,-605.7935 468.8359,-616.375 475.0196,-607.7719 468.305,-605.7935"/>
</g>
<!-- Node98 -->
<g id="node19" class="node">
<title>Node98</title>
<g id="a_node19"><a xlink:href="../../df/d86/potential_8h.html" target="_top" xlink:title="Contains declaration and partial implementation of sirius::Potential class. ">
<polygon fill="#ffffff" stroke="#000000" points="598.5,-336.5 598.5,-355.5 649.5,-355.5 649.5,-336.5 598.5,-336.5"/>
<text text-anchor="middle" x="624" y="-343.5" font-family="Helvetica,sans-Serif" font-size="10.00" fill="#000000">potential.h</text>
</a>
</g>
</g>
<!-- Node88&#45;&gt;Node98 -->
<g id="edge58" class="edge">
<title>Node88&#45;&gt;Node98</title>
<path fill="none" stroke="#191970" d="M518.3509,-615.8902C542.4328,-609.069 570.0204,-597.9229 590,-580 614.4125,-558.1005 623,-546.7957 623,-514 623,-514 623,-514 623,-458 623,-420.0818 623.5802,-374.9455 623.8567,-355.5881"/>
<polygon fill="#191970" stroke="#191970" points="517.3942,-612.5228 508.6257,-618.4697 519.1889,-619.2889 517.3942,-612.5228"/>
</g>
<!-- Node88&#45;&gt;Node100 -->
<g id="edge61" class="edge">
<title>Node88&#45;&gt;Node100</title>
<path fill="none" stroke="#191970" d="M419.9087,-613.3044C397.3254,-605.7756 370.4483,-594.7792 349,-580 293.56,-541.7986 271.3058,-530.7867 247,-468 213.1267,-380.4987 302.2705,-275.7714 332.4326,-243.763"/>
<polygon fill="#191970" stroke="#191970" points="419.0297,-616.698 429.6209,-616.42 421.168,-610.0326 419.0297,-616.698"/>
</g>
<!-- Node88&#45;&gt;Node101 -->
<g id="edge62" class="edge">
<title>Node88&#45;&gt;Node101</title>
<path fill="none" stroke="#191970" d="M413.3104,-623.9341C339.7489,-620.0205 211.3061,-609.1197 176,-580 151.9209,-560.1401 152,-545.2125 152,-514 152,-514 152,-514 152,-402 152,-361.5564 177.5769,-318.4362 190.1655,-299.6623"/>
<polygon fill="#191970" stroke="#191970" points="413.1462,-627.4301 423.3106,-624.4411 413.5007,-620.4391 413.1462,-627.4301"/>
</g>
<!-- Node88&#45;&gt;Node103 -->
<g id="edge50" class="edge">
<title>Node88&#45;&gt;Node103</title>
<path fill="none" stroke="#191970" d="M445.623,-609.928C433.2129,-600.1397 417.77,-587.9595 407.2255,-579.6427"/>
<polygon fill="#191970" stroke="#191970" points="443.6136,-612.8007 453.6327,-616.2455 447.9486,-607.3046 443.6136,-612.8007"/>
</g>
<!-- Node104 -->
<g id="node25" class="node">
<title>Node104</title>
<g id="a_node25"><a xlink:href="../../df/dae/non__local__operator_8h.html" target="_top" xlink:title="Contains declaration and implementation of sirius::Non_local_operator class. ">
<polygon fill="#ffffff" stroke="#000000" points="990.5,-504.5 990.5,-523.5 1077.5,-523.5 1077.5,-504.5 990.5,-504.5"/>
<text text-anchor="middle" x="1034" y="-511.5" font-family="Helvetica,sans-Serif" font-size="10.00" fill="#000000">non_local_operator.h</text>
</a>
</g>
</g>
<!-- Node88&#45;&gt;Node104 -->
<g id="edge60" class="edge">
<title>Node88&#45;&gt;Node104</title>
<path fill="none" stroke="#191970" d="M518.6863,-615.6112C630.0561,-593.6509 887.5775,-542.872 990.4226,-522.5927"/>
<polygon fill="#191970" stroke="#191970" points="517.8263,-612.2133 508.6923,-617.5818 519.1805,-619.081 517.8263,-612.2133"/>
</g>
<!-- Node89&#45;&gt;Node81 -->
<g id="edge49" class="edge">
<title>Node89&#45;&gt;Node81</title>
<path fill="none" stroke="#191970" d="M492.2085,-564.1972C364.995,-547.9934 38,-497.0938 38,-402 38,-402 38,-402 38,-178 38,-81.6565 824.2036,-67.8755 960.8678,-66.2077"/>
<polygon fill="#191970" stroke="#191970" points="492.0942,-567.7102 502.452,-565.4817 492.9652,-560.7646 492.0942,-567.7102"/>
</g>
<!-- Node90 -->
<g id="node11" class="node">
<title>Node90</title>
<g id="a_node11"><a xlink:href="../../d9/dc2/band_8h.html" target="_top" xlink:title="Contains declaration and partial implementation of sirius::Band class. ">
<polygon fill="#ffffff" stroke="#000000" points="877.5,-224.5 877.5,-243.5 916.5,-243.5 916.5,-224.5 877.5,-224.5"/>
<text text-anchor="middle" x="897" y="-231.5" font-family="Helvetica,sans-Serif" font-size="10.00" fill="#000000">band.h</text>
</a>
</g>
</g>
<!-- Node89&#45;&gt;Node90 -->
<g id="edge10" class="edge">
<title>Node89&#45;&gt;Node90</title>
<path fill="none" stroke="#191970" d="M591.8029,-567.2162C703.0422,-559.6371 962,-533.848 962,-458 962,-458 962,-458 962,-346 962,-315.4754 958.5062,-306.2928 943,-280 934.3941,-265.4076 920.0804,-252.1228 909.7023,-243.6232"/>
<polygon fill="#191970" stroke="#191970" points="591.2609,-563.7442 581.5126,-567.8939 591.721,-570.7291 591.2609,-563.7442"/>
</g>
<!-- Node95 -->
<g id="node16" class="node">
<title>Node95</title>
<g id="a_node16"><a xlink:href="../../d9/d02/k__point_8h.html" target="_top" xlink:title="Contains definition and partial implementation of sirius::K_point class. ">
<polygon fill="#ffffff" stroke="#000000" points="744.5,-504.5 744.5,-523.5 791.5,-523.5 791.5,-504.5 744.5,-504.5"/>
<text text-anchor="middle" x="768" y="-511.5" font-family="Helvetica,sans-Serif" font-size="10.00" fill="#000000">k_point.h</text>
</a>
</g>
</g>
<!-- Node89&#45;&gt;Node95 -->
<g id="edge18" class="edge">
<title>Node89&#45;&gt;Node95</title>
<path fill="none" stroke="#191970" d="M590.351,-558.0192C637.8016,-546.2616 708.1709,-528.8249 744.4598,-519.833"/>
<polygon fill="#191970" stroke="#191970" points="589.4586,-554.6344 580.594,-560.4369 591.1423,-561.4289 589.4586,-554.6344"/>
</g>
<!-- Node89&#45;&gt;Node97 -->
<g id="edge45" class="edge">
<title>Node89&#45;&gt;Node97</title>
<path fill="none" stroke="#191970" d="M540.825,-550.2601C538.6766,-514.1669 534.1884,-438.7656 532.585,-411.8279"/>
<polygon fill="#191970" stroke="#191970" points="537.3456,-550.7119 541.4337,-560.4862 544.3332,-550.2959 537.3456,-550.7119"/>
</g>
<!-- Node89&#45;&gt;Node98 -->
<g id="edge44" class="edge">
<title>Node89&#45;&gt;Node98</title>
<path fill="none" stroke="#191970" d="M549.0636,-550.7044C565.9261,-504.6409 608.0518,-389.5657 620.4897,-355.5891"/>
<polygon fill="#191970" stroke="#191970" points="545.6744,-549.7812 545.5234,-560.375 552.2478,-552.1876 545.6744,-549.7812"/>
</g>
<!-- Node99 -->
<g id="node20" class="node">
<title>Node99</title>
<g id="a_node20"><a xlink:href="../../dd/d3f/local__operator_8h.html" target="_top" xlink:title="Contains declaration and implementation of sirius::Local_operator class. ">
<polygon fill="#ffffff" stroke="#000000" points="864,-280.5 864,-299.5 934,-299.5 934,-280.5 864,-280.5"/>
<text text-anchor="middle" x="899" y="-287.5" font-family="Helvetica,sans-Serif" font-size="10.00" fill="#000000">local_operator.h</text>
</a>
</g>
</g>
<!-- Node89&#45;&gt;Node99 -->
<g id="edge46" class="edge">
<title>Node89&#45;&gt;Node99</title>
<path fill="none" stroke="#191970" d="M591.9347,-563.9595C656.0881,-555.7085 763.5258,-540.0921 800,-524 844.0811,-504.5517 886,-506.1807 886,-458 886,-458 886,-458 886,-402 886,-363.8288 893.5428,-318.8249 897.1374,-299.545"/>
<polygon fill="#191970" stroke="#191970" points="591.1213,-560.5347 581.6425,-565.2679 592.0041,-567.4788 591.1213,-560.5347"/>
</g>
<!-- Node89&#45;&gt;Node100 -->
<g id="edge47" class="edge">
<title>Node89&#45;&gt;Node100</title>
<path fill="none" stroke="#191970" d="M531.0443,-551.5944C494.1872,-489.6744 375.4456,-290.1886 347.7933,-243.7328"/>
<polygon fill="#191970" stroke="#191970" points="528.1077,-553.5038 536.2301,-560.3065 534.1227,-549.9234 528.1077,-553.5038"/>
</g>
<!-- Node89&#45;&gt;Node101 -->
<g id="edge48" class="edge">
<title>Node89&#45;&gt;Node101</title>
<path fill="none" stroke="#191970" d="M522.0185,-553.7831C458.0323,-501.8523 259.4256,-340.6643 208.8257,-299.5977"/>
<polygon fill="#191970" stroke="#191970" points="520.1541,-556.7777 530.1243,-560.3618 524.5653,-551.3424 520.1541,-556.7777"/>
</g>
<!-- Node90&#45;&gt;Node81 -->
<g id="edge17" class="edge">
<title>Node90&#45;&gt;Node81</title>
<path fill="none" stroke="#191970" d="M917.4139,-217.5911C926.3435,-209.4988 936.2905,-199.1004 943,-188 965.9511,-150.0289 976.2345,-96.9248 979.6352,-75.5087"/>
<polygon fill="#191970" stroke="#191970" points="914.8969,-215.1404 909.6213,-224.3285 919.4751,-220.4357 914.8969,-215.1404"/>
</g>
<!-- Node91 -->
<g id="node12" class="node">
<title>Node91</title>
<g id="a_node12"><a xlink:href="../../d2/d15/add__nl__h__o__rs_8cpp_source.html" target="_top" xlink:title="add_nl_h_o_rs.cpp">
<polygon fill="#ffffff" stroke="#000000" points="854,-168.5 854,-187.5 934,-187.5 934,-168.5 854,-168.5"/>
<text text-anchor="middle" x="894" y="-175.5" font-family="Helvetica,sans-Serif" font-size="10.00" fill="#000000">add_nl_h_o_rs.cpp</text>
</a>
</g>
</g>
<!-- Node90&#45;&gt;Node91 -->
<g id="edge11" class="edge">
<title>Node90&#45;&gt;Node91</title>
<path fill="none" stroke="#191970" d="M895.937,-214.1575C895.4547,-205.155 894.9064,-194.9199 894.5166,-187.6427"/>
<polygon fill="#191970" stroke="#191970" points="892.4474,-214.4471 896.4774,-224.2455 899.4374,-214.0726 892.4474,-214.4471"/>
</g>
<!-- Node92 -->
<g id="node13" class="node">
<title>Node92</title>
<g id="a_node13"><a xlink:href="../../dd/d0d/force_8h.html" target="_top" xlink:title="Contains definition of sirius::Force class. ">
<polygon fill="#ffffff" stroke="#000000" points="764.5,-168.5 764.5,-187.5 803.5,-187.5 803.5,-168.5 764.5,-168.5"/>
<text text-anchor="middle" x="784" y="-175.5" font-family="Helvetica,sans-Serif" font-size="10.00" fill="#000000">force.h</text>
</a>
</g>
</g>
<!-- Node90&#45;&gt;Node92 -->
<g id="edge12" class="edge">
<title>Node90&#45;&gt;Node92</title>
<path fill="none" stroke="#191970" d="M868.4208,-219.8368C847.9942,-209.7139 821.0638,-196.3679 803.1719,-187.5011"/>
<polygon fill="#191970" stroke="#191970" points="867.0604,-223.0688 877.5746,-224.3733 870.1687,-216.7968 867.0604,-223.0688"/>
</g>
<!-- Node92&#45;&gt;Node81 -->
<g id="edge16" class="edge">
<title>Node92&#45;&gt;Node81</title>
<path fill="none" stroke="#191970" d="M784.6285,-158.3452C786.1566,-143.6378 790.6055,-124.0593 803,-112 825.5906,-90.0202 919.2681,-74.5759 960.902,-68.6651"/>
<polygon fill="#191970" stroke="#191970" points="781.1288,-158.224 783.946,-168.4374 788.1128,-158.6963 781.1288,-158.224"/>
</g>
<!-- Node93 -->
<g id="node14" class="node">
<title>Node93</title>
<g id="a_node14"><a xlink:href="../../d6/df1/dft__ground__state_8h.html" target="_top" xlink:title="Contains definition and partial implementation of sirius::DFT_ground_state class. ...">
<polygon fill="#ffffff" stroke="#000000" points="538.5,-112.5 538.5,-131.5 617.5,-131.5 617.5,-112.5 538.5,-112.5"/>
<text text-anchor="middle" x="578" y="-119.5" font-family="Helvetica,sans-Serif" font-size="10.00" fill="#000000">dft_ground_state.h</text>
</a>
</g>
</g>
<!-- Node92&#45;&gt;Node93 -->
<g id="edge13" class="edge">
<title>Node92&#45;&gt;Node93</title>
<path fill="none" stroke="#191970" d="M754.4664,-169.9714C717.107,-159.8155 652.856,-142.3492 613.0508,-131.5284"/>
<polygon fill="#191970" stroke="#191970" points="753.6799,-173.3846 764.2479,-172.6305 755.5162,-166.6297 753.6799,-173.3846"/>
</g>
<!-- Node94 -->
<g id="node15" class="node">
<title>Node94</title>
<g id="a_node15"><a xlink:href="../../df/d4d/force_8cpp.html" target="_top" xlink:title="Contains implementation of sirius::Force class. ">
<polygon fill="#ffffff" stroke="#000000" points="812.5,-112.5 812.5,-131.5 859.5,-131.5 859.5,-112.5 812.5,-112.5"/>
<text text-anchor="middle" x="836" y="-119.5" font-family="Helvetica,sans-Serif" font-size="10.00" fill="#000000">force.cpp</text>
</a>
</g>
</g>
<!-- Node92&#45;&gt;Node94 -->
<g id="edge15" class="edge">
<title>Node92&#45;&gt;Node94</title>
<path fill="none" stroke="#191970" d="M799.9822,-160.7884C808.8778,-151.2085 819.6204,-139.6396 827.0461,-131.6427"/>
<polygon fill="#191970" stroke="#191970" points="797.2975,-158.536 793.0577,-168.2455 802.427,-163.2992 797.2975,-158.536"/>
</g>
<!-- Node93&#45;&gt;Node81 -->
<g id="edge14" class="edge">
<title>Node93&#45;&gt;Node81</title>
<path fill="none" stroke="#191970" d="M628.0619,-112.6359C629.3877,-112.4179 630.7022,-112.2055 632,-112 756.6473,-92.2577 907.287,-74.4345 960.8819,-68.2801"/>
<polygon fill="#191970" stroke="#191970" points="627.0399,-109.2596 617.7714,-114.3924 628.2177,-116.1598 627.0399,-109.2596"/>
</g>
<!-- Node95&#45;&gt;Node81 -->
<g id="edge43" class="edge">
<title>Node95&#45;&gt;Node81</title>
<path fill="none" stroke="#191970" d="M801.9735,-507.3713C874.5157,-492.2442 1038,-452.5457 1038,-402 1038,-402 1038,-402 1038,-178 1038,-136.1099 1005.9375,-94.055 989.9063,-75.6456"/>
<polygon fill="#191970" stroke="#191970" points="801.0544,-503.9869 791.9607,-509.4233 802.4598,-510.8444 801.0544,-503.9869"/>
</g>
<!-- Node95&#45;&gt;Node92 -->
<g id="edge42" class="edge">
<title>Node95&#45;&gt;Node92</title>
<path fill="none" stroke="#191970" d="M787.2006,-497.2665C794.9203,-489.2807 802.9432,-479.0582 807,-468 810.0615,-459.655 807.3776,-456.8809 807,-448 802.6636,-346.005 789.1528,-222.9227 785.1368,-187.7882"/>
<polygon fill="#191970" stroke="#191970" points="784.5128,-494.9959 779.74,-504.4549 789.3698,-500.0368 784.5128,-494.9959"/>
</g>
<!-- Node96 -->
<g id="node17" class="node">
<title>Node96</title>
<g id="a_node17"><a xlink:href="../../d8/def/k__point__set_8h.html" target="_top" xlink:title="Contains declaration and partial implementation of sirius::K_point_set class. ">
<polygon fill="#ffffff" stroke="#000000" points="737.5,-448.5 737.5,-467.5 798.5,-467.5 798.5,-448.5 737.5,-448.5"/>
<text text-anchor="middle" x="768" y="-455.5" font-family="Helvetica,sans-Serif" font-size="10.00" fill="#000000">k_point_set.h</text>
</a>
</g>
</g>
<!-- Node95&#45;&gt;Node96 -->
<g id="edge19" class="edge">
<title>Node95&#45;&gt;Node96</title>
<path fill="none" stroke="#191970" d="M768,-494.1575C768,-485.155 768,-474.9199 768,-467.6427"/>
<polygon fill="#191970" stroke="#191970" points="764.5001,-494.2455 768,-504.2455 771.5001,-494.2456 764.5001,-494.2455"/>
</g>
<!-- Node96&#45;&gt;Node81 -->
<g id="edge41" class="edge">
<title>Node96&#45;&gt;Node81</title>
<path fill="none" stroke="#191970" d="M808.5637,-447.3474C875.0719,-428.6751 1000,-388.01 1000,-346 1000,-346 1000,-346 1000,-178 1000,-139.7388 989.0887,-95.1479 983.8035,-75.7934"/>
<polygon fill="#191970" stroke="#191970" points="807.5126,-444.0066 798.8078,-450.0463 809.379,-450.7532 807.5126,-444.0066"/>
</g>
<!-- Node96&#45;&gt;Node90 -->
<g id="edge20" class="edge">
<title>Node96&#45;&gt;Node90</title>
<path fill="none" stroke="#191970" d="M775.3314,-438.6307C788.5722,-404.8473 818.5175,-333.6369 855,-280 864.3663,-266.2296 877.6626,-252.3804 886.7712,-243.5303"/>
<polygon fill="#191970" stroke="#191970" points="771.968,-437.6249 771.6323,-448.2144 778.4984,-440.1456 771.968,-437.6249"/>
</g>
<!-- Node96&#45;&gt;Node93 -->
<g id="edge40" class="edge">
<title>Node96&#45;&gt;Node93</title>
<path fill="none" stroke="#191970" d="M757.5921,-439.5944C722.5778,-377.6744 609.7733,-178.1886 583.5037,-131.7328"/>
<polygon fill="#191970" stroke="#191970" points="754.5496,-441.3247 762.5186,-448.3065 760.6429,-437.879 754.5496,-441.3247"/>
</g>
<!-- Node96&#45;&gt;Node97 -->
<g id="edge21" class="edge">
<title>Node96&#45;&gt;Node97</title>
<path fill="none" stroke="#191970" d="M727.4071,-448.3678C677.9248,-436.6262 595.9434,-417.173 555.7296,-407.6307"/>
<polygon fill="#191970" stroke="#191970" points="726.6092,-451.7756 737.1471,-450.679 728.2254,-444.9647 726.6092,-451.7756"/>
</g>
<!-- Node97&#45;&gt;Node81 -->
<g id="edge39" class="edge">
<title>Node97&#45;&gt;Node81</title>
<path fill="none" stroke="#191970" d="M517.9829,-384.4384C496.0256,-355.1034 456,-293.4729 456,-234 456,-234 456,-234 456,-178 456,-134.2612 489.0314,-129.7651 529,-112 608.106,-76.8393 883.8554,-68.1558 960.879,-66.3944"/>
<polygon fill="#191970" stroke="#191970" points="515.2844,-386.6709 524.1529,-392.4674 520.8348,-382.4056 515.2844,-386.6709"/>
</g>
<!-- Node97&#45;&gt;Node92 -->
<g id="edge36" class="edge">
<title>Node97&#45;&gt;Node92</title>
<path fill="none" stroke="#191970" d="M546.2064,-384.0753C557.3331,-370.4116 573.4763,-351.3885 589,-336 643.6414,-281.8343 660.5575,-271.6058 721,-224 737.5969,-210.9279 757.3607,-196.7059 770.2686,-187.5896"/>
<polygon fill="#191970" stroke="#191970" points="543.2199,-382.2037 539.676,-392.1883 548.6729,-386.593 543.2199,-382.2037"/>
</g>
<!-- Node97&#45;&gt;Node93 -->
<g id="edge35" class="edge">
<title>Node97&#45;&gt;Node93</title>
<path fill="none" stroke="#191970" d="M532,-382.1952C532,-359.8128 532,-322.2884 532,-290 532,-290 532,-290 532,-234 532,-193.4303 558.1452,-150.3741 571.0136,-131.6394"/>
<polygon fill="#191970" stroke="#191970" points="528.5001,-382.4116 532,-392.4116 535.5001,-382.4117 528.5001,-382.4116"/>
</g>
<!-- Node97&#45;&gt;Node98 -->
<g id="edge22" class="edge">
<title>Node97&#45;&gt;Node98</title>
<path fill="none" stroke="#191970" d="M557.0224,-386.769C573.325,-376.8456 594.101,-364.1994 608.1585,-355.6427"/>
<polygon fill="#191970" stroke="#191970" points="554.7473,-384.0563 548.0252,-392.2455 558.387,-390.0357 554.7473,-384.0563"/>
</g>
<!-- Node97&#45;&gt;Node100 -->
<g id="edge37" class="edge">
<title>Node97&#45;&gt;Node100</title>
<path fill="none" stroke="#191970" d="M513.2608,-385.4306C474.074,-350.7812 384.5033,-271.5818 353.1149,-243.8279"/>
<polygon fill="#191970" stroke="#191970" points="511.4305,-388.4842 521.2404,-392.4862 516.0673,-383.2401 511.4305,-388.4842"/>
</g>
<!-- Node97&#45;&gt;Node101 -->
<g id="edge38" class="edge">
<title>Node97&#45;&gt;Node101</title>
<path fill="none" stroke="#191970" d="M498.5895,-390.8299C432.7804,-368.8281 287.4182,-320.2294 225.6592,-299.5816"/>
<polygon fill="#191970" stroke="#191970" points="497.8497,-394.2729 508.4435,-394.1244 500.0692,-387.6341 497.8497,-394.2729"/>
</g>
<!-- Node98&#45;&gt;Node81 -->
<g id="edge34" class="edge">
<title>Node98&#45;&gt;Node81</title>
<path fill="none" stroke="#191970" d="M630.2501,-326.3862C636.754,-304.2042 646,-266.8868 646,-234 646,-234 646,-234 646,-178 646,-111.2334 888.3713,-77.0167 960.7987,-68.2823"/>
<polygon fill="#191970" stroke="#191970" points="626.8147,-325.6526 627.2462,-336.2386 633.5104,-327.6941 626.8147,-325.6526"/>
</g>
<!-- Node98&#45;&gt;Node90 -->
<g id="edge23" class="edge">
<title>Node98&#45;&gt;Node90</title>
<path fill="none" stroke="#191970" d="M656.5768,-332.6352C713.7609,-309.175 830.5462,-261.2631 877.1501,-242.1436"/>
<polygon fill="#191970" stroke="#191970" points="655.1991,-329.4172 647.2758,-336.4509 657.856,-335.8934 655.1991,-329.4172"/>
</g>
<!-- Node98&#45;&gt;Node92 -->
<g id="edge27" class="edge">
<title>Node98&#45;&gt;Node92</title>
<path fill="none" stroke="#191970" d="M640.1986,-328.9915C673.4128,-294.1166 748.3188,-215.4652 774.6401,-187.8279"/>
<polygon fill="#191970" stroke="#191970" points="637.4228,-326.831 633.0607,-336.4862 642.4918,-331.6586 637.4228,-326.831"/>
</g>
<!-- Node98&#45;&gt;Node93 -->
<g id="edge26" class="edge">
<title>Node98&#45;&gt;Node93</title>
<path fill="none" stroke="#191970" d="M619.9775,-326.4119C610.4784,-280.1557 586.9318,-165.494 579.9692,-131.5891"/>
<polygon fill="#191970" stroke="#191970" points="616.5833,-327.2835 622.0234,-336.375 623.4402,-325.8753 616.5833,-327.2835"/>
</g>
<!-- Node98&#45;&gt;Node99 -->
<g id="edge24" class="edge">
<title>Node98&#45;&gt;Node99</title>
<path fill="none" stroke="#191970" d="M659.8069,-338.7084C712.6488,-327.9479 810.9242,-307.9354 863.5567,-297.2175"/>
<polygon fill="#191970" stroke="#191970" points="658.9718,-335.3066 649.8713,-340.7317 660.3687,-342.1658 658.9718,-335.3066"/>
</g>
<!-- Node98&#45;&gt;Node100 -->
<g id="edge28" class="edge">
<title>Node98&#45;&gt;Node100</title>
<path fill="none" stroke="#191970" d="M590.4244,-332.665C531.8403,-309.3975 412.5338,-262.0134 363.638,-242.5938"/>
<polygon fill="#191970" stroke="#191970" points="589.3711,-336.0126 599.9568,-336.4509 591.9549,-329.5069 589.3711,-336.0126"/>
</g>
<!-- Node98&#45;&gt;Node101 -->
<g id="edge30" class="edge">
<title>Node98&#45;&gt;Node101</title>
<path fill="none" stroke="#191970" d="M588.3349,-341.3226C509.6616,-331.0048 321.6105,-306.3424 238.1307,-295.3942"/>
<polygon fill="#191970" stroke="#191970" points="587.8806,-344.7929 598.2508,-342.6231 588.7909,-337.8524 587.8806,-344.7929"/>
</g>
<!-- Node99&#45;&gt;Node90 -->
<g id="edge25" class="edge">
<title>Node99&#45;&gt;Node90</title>
<path fill="none" stroke="#191970" d="M898.2913,-270.1575C897.9698,-261.155 897.6043,-250.9199 897.3444,-243.6427"/>
<polygon fill="#191970" stroke="#191970" points="894.7968,-270.3769 898.6516,-280.2455 901.7924,-270.127 894.7968,-270.3769"/>
</g>
<!-- Node100&#45;&gt;Node93 -->
<g id="edge29" class="edge">
<title>Node100&#45;&gt;Node93</title>
<path fill="none" stroke="#191970" d="M371.1786,-220.1525C419.8007,-197.0776 516.1737,-151.3413 557.9297,-131.5249"/>
<polygon fill="#191970" stroke="#191970" points="369.6549,-217.0014 362.1212,-224.4509 372.6561,-223.3254 369.6549,-217.0014"/>
</g>
<!-- Node101&#45;&gt;Node100 -->
<g id="edge31" class="edge">
<title>Node101&#45;&gt;Node100</title>
<path fill="none" stroke="#191970" d="M231.5628,-276.6516C259.0888,-266.0209 296.7722,-251.4673 320.2369,-242.4051"/>
<polygon fill="#191970" stroke="#191970" points="229.9939,-273.5055 221.9264,-280.3733 232.5158,-280.0354 229.9939,-273.5055"/>
</g>
<!-- Node102 -->
<g id="node23" class="node">
<title>Node102</title>
<g id="a_node23"><a xlink:href="../../d2/d50/stress_8h.html" target="_top" xlink:title="Stress tensor calculation. ">
<polygon fill="#ffffff" stroke="#000000" points="254.5,-168.5 254.5,-187.5 297.5,-187.5 297.5,-168.5 254.5,-168.5"/>
<text text-anchor="middle" x="276" y="-175.5" font-family="Helvetica,sans-Serif" font-size="10.00" fill="#000000">stress.h</text>
</a>
</g>
</g>
<!-- Node101&#45;&gt;Node102 -->
<g id="edge32" class="edge">
<title>Node101&#45;&gt;Node102</title>
<path fill="none" stroke="#191970" d="M209.5475,-272.2111C226.4847,-248.1989 256.061,-206.2679 269.2816,-187.5249"/>
<polygon fill="#191970" stroke="#191970" points="206.6394,-270.2618 203.7355,-280.4509 212.3596,-274.2966 206.6394,-270.2618"/>
</g>
<!-- Node102&#45;&gt;Node93 -->
<g id="edge33" class="edge">
<title>Node102&#45;&gt;Node93</title>
<path fill="none" stroke="#191970" d="M307.6796,-172.1256C363.1629,-161.8373 477.7722,-140.5853 538.3976,-129.3435"/>
<polygon fill="#191970" stroke="#191970" points="306.9133,-168.708 297.7191,-173.9726 308.1896,-175.5906 306.9133,-168.708"/>
</g>
<!-- Node103&#45;&gt;Node95 -->
<g id="edge51" class="edge">
<title>Node103&#45;&gt;Node95</title>
<path fill="none" stroke="#191970" d="M442.479,-562.8718C523.0398,-550.7769 683.6507,-526.6637 744.1799,-517.5762"/>
<polygon fill="#191970" stroke="#191970" points="441.4978,-559.4798 432.1283,-564.4258 442.5372,-566.4022 441.4978,-559.4798"/>
</g>
<!-- Node103&#45;&gt;Node100 -->
<g id="edge56" class="edge">
<title>Node103&#45;&gt;Node100</title>
<path fill="none" stroke="#191970" d="M391.8512,-550.0377C381.8133,-486.4011 350.8028,-289.8062 343.5352,-243.7328"/>
<polygon fill="#191970" stroke="#191970" points="388.4555,-550.974 393.471,-560.3065 395.37,-549.8833 388.4555,-550.974"/>
</g>
<!-- Node103&#45;&gt;Node101 -->
<g id="edge57" class="edge">
<title>Node103&#45;&gt;Node101</title>
<path fill="none" stroke="#191970" d="M362.9226,-555.9545C329.2097,-539.5857 276.993,-509.4009 247,-468 207.4536,-413.412 199.1424,-328.604 197.4324,-299.8886"/>
<polygon fill="#191970" stroke="#191970" points="361.7891,-559.2899 372.3261,-560.3956 364.7785,-552.9603 361.7891,-559.2899"/>
</g>
<!-- Node103&#45;&gt;Node104 -->
<g id="edge52" class="edge">
<title>Node103&#45;&gt;Node104</title>
<path fill="none" stroke="#191970" d="M442.439,-564.9965C458.4885,-563.3471 476.5175,-561.5416 493,-560 677.6556,-542.7296 898.0312,-524.8346 990.1496,-517.4763"/>
<polygon fill="#191970" stroke="#191970" points="441.8012,-561.5437 432.2142,-566.0535 442.5211,-568.5066 441.8012,-561.5437"/>
</g>
<!-- Node105 -->
<g id="node26" class="node">
<title>Node105</title>
<g id="a_node26"><a xlink:href="../../d4/d0f/beta__projectors__gradient_8h.html" target="_top" xlink:title="Contains declaration and implementation of sirius::Beta_projectors_gradient class. ">
<polygon fill="#ffffff" stroke="#000000" points="256,-448.5 256,-467.5 362,-467.5 362,-448.5 256,-448.5"/>
<text text-anchor="middle" x="309" y="-455.5" font-family="Helvetica,sans-Serif" font-size="10.00" fill="#000000">beta_projectors_gradient.h</text>
</a>
</g>
</g>
<!-- Node103&#45;&gt;Node105 -->
<g id="edge54" class="edge">
<title>Node103&#45;&gt;Node105</title>
<path fill="none" stroke="#191970" d="M381.3407,-552.2111C362.9027,-528.1989 330.7057,-486.2679 316.3138,-467.5249"/>
<polygon fill="#191970" stroke="#191970" points="378.8014,-554.651 387.6677,-560.4509 384.3534,-550.3878 378.8014,-554.651"/>
</g>
<!-- Node104&#45;&gt;Node90 -->
<g id="edge53" class="edge">
<title>Node104&#45;&gt;Node90</title>
<path fill="none" stroke="#191970" d="M1045.6174,-495.5189C1058.0481,-473.9387 1076,-436.7566 1076,-402 1076,-402 1076,-402 1076,-346 1076,-271.5837 963.4449,-244.7615 916.8401,-236.845"/>
<polygon fill="#191970" stroke="#191970" points="1042.5113,-493.8935 1040.3789,-504.2715 1048.5177,-497.4884 1042.5113,-493.8935"/>
</g>
<!-- Node105&#45;&gt;Node100 -->
<g id="edge55" class="edge">
<title>Node105&#45;&gt;Node100</title>
<path fill="none" stroke="#191970" d="M309.8958,-438.0907C311.6588,-404.9876 316.4615,-336.6622 328,-280 330.5985,-267.2393 335.2288,-252.9492 338.4498,-243.7321"/>
<polygon fill="#191970" stroke="#191970" points="306.3915,-438.0932 309.393,-448.2539 313.383,-438.4392 306.3915,-438.0932"/>
</g>
<!-- Node106&#45;&gt;Node88 -->
<g id="edge66" class="edge">
<title>Node106&#45;&gt;Node88</title>
<path fill="none" stroke="#191970" d="M465.2177,-717.9216C465.4381,-692.0247 465.7673,-653.337 465.9186,-635.5595"/>
<polygon fill="#191970" stroke="#191970" points="461.7161,-718.1095 465.1307,-728.1389 468.7158,-718.1691 461.7161,-718.1095"/>
</g>
<!-- Node107 -->
<g id="node28" class="node">
<title>Node107</title>
<g id="a_node28"><a xlink:href="../../d3/d0e/step__function_8h.html" target="_top" xlink:title="Contains definition and partial implementation of sirius::Step_function class. ">
<polygon fill="#ffffff" stroke="#000000" points="493.5,-672.5 493.5,-691.5 560.5,-691.5 560.5,-672.5 493.5,-672.5"/>
<text text-anchor="middle" x="527" y="-679.5" font-family="Helvetica,sans-Serif" font-size="10.00" fill="#000000">step_function.h</text>
</a>
</g>
</g>
<!-- Node106&#45;&gt;Node107 -->
<g id="edge67" class="edge">
<title>Node106&#45;&gt;Node107</title>
<path fill="none" stroke="#191970" d="M487.7214,-720.9618C497.8171,-710.9475 509.1769,-699.6794 517.073,-691.8469"/>
<polygon fill="#191970" stroke="#191970" points="484.9607,-718.7705 480.3258,-728.2977 489.8904,-723.7402 484.9607,-718.7705"/>
</g>
<!-- Node107&#45;&gt;Node81 -->
<g id="edge69" class="edge">
<title>Node107&#45;&gt;Node81</title>
<path fill="none" stroke="#191970" d="M570.7446,-678.2913C706.8865,-666.1692 1114,-625.2967 1114,-570 1114,-570 1114,-570 1114,-178 1114,-119.7393 1038.4062,-85.6669 1001.1998,-72.4252"/>
<polygon fill="#191970" stroke="#191970" points="570.3218,-674.8149 560.668,-679.1799 570.9368,-681.7879 570.3218,-674.8149"/>
</g>
<!-- Node107&#45;&gt;Node88 -->
<g id="edge68" class="edge">
<title>Node107&#45;&gt;Node88</title>
<path fill="none" stroke="#191970" d="M508.8751,-665.3607C498.322,-655.6727 485.3888,-643.7995 476.5036,-635.6427"/>
<polygon fill="#191970" stroke="#191970" points="506.6411,-668.0611 516.3746,-672.2455 511.375,-662.9045 506.6411,-668.0611"/>
</g>
<!-- Node108&#45;&gt;Node86 -->
<g id="edge71" class="edge">
<title>Node108&#45;&gt;Node86</title>
<path fill="none" stroke="#191970" d="M331.8465,-842.6296C326.1753,-833.2887 319.5155,-822.3197 314.8545,-814.6427"/>
<polygon fill="#191970" stroke="#191970" points="328.8961,-844.5141 337.0777,-851.2455 334.8796,-840.8812 328.8961,-844.5141"/>
</g>
<!-- Node110 -->
<g id="node31" class="node">
<title>Node110</title>
<g id="a_node31"><a xlink:href="../../d6/dc4/real__space__prj_8cpp_source.html" target="_top" xlink:title="real_space_prj.cpp">
<polygon fill="#ffffff" stroke="#000000" points="423,-795.5 423,-814.5 503,-814.5 503,-795.5 423,-795.5"/>
<text text-anchor="middle" x="463" y="-802.5" font-family="Helvetica,sans-Serif" font-size="10.00" fill="#000000">real_space_prj.cpp</text>
</a>
</g>
</g>
<!-- Node109&#45;&gt;Node110 -->
<g id="edge74" class="edge">
<title>Node109&#45;&gt;Node110</title>
<path fill="none" stroke="#191970" d="M461.7087,-841.1575C462.0302,-832.155 462.3957,-821.9199 462.6556,-814.6427"/>
<polygon fill="#191970" stroke="#191970" points="458.2076,-841.127 461.3484,-851.2455 465.2032,-841.3769 458.2076,-841.127"/>
</g>
<!-- Node111&#45;&gt;Node81 -->
<g id="edge78" class="edge">
<title>Node111&#45;&gt;Node81</title>
<path fill="none" stroke="#191970" d="M1144.8359,-953.2428C1147.7925,-930.9031 1152,-893.4169 1152,-861 1152,-861 1152,-861 1152,-178 1152,-106.6681 1046.5836,-78.3049 1001.2875,-69.4101"/>
<polygon fill="#191970" stroke="#191970" points="1141.3291,-953.0534 1143.4328,-963.4373 1148.2637,-954.008 1141.3291,-953.0534"/>
</g>
<!-- Node111&#45;&gt;Node85 -->
<g id="edge77" class="edge">
<title>Node111&#45;&gt;Node85</title>
<path fill="none" stroke="#191970" d="M1112.3521,-970.7774C990.9762,-961.6783 533.082,-927.3515 420.2456,-918.8926"/>
<polygon fill="#191970" stroke="#191970" points="1112.1698,-974.2735 1122.4035,-971.5309 1112.6932,-967.2931 1112.1698,-974.2735"/>
</g>
</g>
</svg>
