<?xml version="1.0" encoding="UTF-8" standalone="no"?>
<!DOCTYPE svg PUBLIC "-//W3C//DTD SVG 1.1//EN"
 "http://www.w3.org/Graphics/SVG/1.1/DTD/svg11.dtd">
<!-- Generated by graphviz version 2.40.1 (20161225.0304)
 -->
<!-- Title: utils.hpp Pages: 1 -->
<svg width="464pt" height="84pt"
 viewBox="0.00 0.00 464.00 84.00" xmlns="http://www.w3.org/2000/svg" xmlns:xlink="http://www.w3.org/1999/xlink">
<g id="graph0" class="graph" transform="scale(1 1) rotate(0) translate(4 80)">
<title>utils.hpp</title>
<polygon fill="#ffffff" stroke="transparent" points="-4,4 -4,-80 460,-80 460,4 -4,4"/>
<!-- Node0 -->
<g id="node1" class="node">
<title>Node0</title>
<polygon fill="#bfbfbf" stroke="#000000" points="192.5,-56.5 192.5,-75.5 236.5,-75.5 236.5,-56.5 192.5,-56.5"/>
<text text-anchor="middle" x="214.5" y="-63.5" font-family="Helvetica,sans-Serif" font-size="10.00" fill="#000000">utils.hpp</text>
</g>
<!-- Node1 -->
<g id="node2" class="node">
<title>Node1</title>
<polygon fill="#ffffff" stroke="#bfbfbf" points="0,-.5 0,-19.5 41,-19.5 41,-.5 0,-.5"/>
<text text-anchor="middle" x="20.5" y="-7.5" font-family="Helvetica,sans-Serif" font-size="10.00" fill="#000000">cassert</text>
</g>
<!-- Node0&#45;&gt;Node1 -->
<g id="edge1" class="edge">
<title>Node0&#45;&gt;Node1</title>
<path fill="none" stroke="#191970" d="M192.4912,-60.3154C162.479,-52.4672 106.8455,-37.5775 50.7754,-20.2805"/>
<polygon fill="#191970" stroke="#191970" points="51.633,-16.882 41.0447,-17.2553 49.5548,-23.5664 51.633,-16.882"/>
</g>
<!-- Node2 -->
<g id="node3" class="node">
<title>Node2</title>
<polygon fill="#ffffff" stroke="#bfbfbf" points="59,-.5 59,-19.5 96,-19.5 96,-.5 59,-.5"/>
<text text-anchor="middle" x="77.5" y="-7.5" font-family="Helvetica,sans-Serif" font-size="10.00" fill="#000000">cmath</text>
</g>
<!-- Node0&#45;&gt;Node2 -->
<g id="edge2" class="edge">
<title>Node0&#45;&gt;Node2</title>
<path fill="none" stroke="#191970" d="M192.4886,-57.0026C168.984,-47.3949 131.6527,-32.1354 105.9368,-21.6238"/>
<polygon fill="#191970" stroke="#191970" points="106.9504,-18.2571 96.3695,-17.7131 104.3018,-24.7366 106.9504,-18.2571"/>
</g>
<!-- Node3 -->
<g id="node4" class="node">
<title>Node3</title>
<polygon fill="#ffffff" stroke="#bfbfbf" points="114,-.5 114,-19.5 149,-19.5 149,-.5 114,-.5"/>
<text text-anchor="middle" x="131.5" y="-7.5" font-family="Helvetica,sans-Serif" font-size="10.00" fill="#000000">string</text>
</g>
<!-- Node0&#45;&gt;Node3 -->
<g id="edge3" class="edge">
<title>Node0&#45;&gt;Node3</title>
<path fill="none" stroke="#191970" d="M200.0425,-56.2455C187.4268,-47.7337 168.9056,-35.2375 154.2955,-25.3801"/>
<polygon fill="#191970" stroke="#191970" points="156.0391,-22.3343 145.7918,-19.6427 152.1239,-28.1371 156.0391,-22.3343"/>
</g>
<!-- Node4 -->
<g id="node5" class="node">
<title>Node4</title>
<polygon fill="#ffffff" stroke="#bfbfbf" points="167,-.5 167,-19.5 204,-19.5 204,-.5 167,-.5"/>
<text text-anchor="middle" x="185.5" y="-7.5" font-family="Helvetica,sans-Serif" font-size="10.00" fill="#000000">vector</text>
</g>
<!-- Node0&#45;&gt;Node4 -->
<g id="edge4" class="edge">
<title>Node0&#45;&gt;Node4</title>
<path fill="none" stroke="#191970" d="M209.4486,-56.2455C205.4981,-48.617 199.8903,-37.7881 195.0942,-28.5267"/>
<polygon fill="#191970" stroke="#191970" points="198.2001,-26.9131 190.4935,-19.6427 191.9841,-30.1321 198.2001,-26.9131"/>
</g>
<!-- Node5 -->
<g id="node6" class="node">
<title>Node5</title>
<polygon fill="#ffffff" stroke="#bfbfbf" points="222.5,-.5 222.5,-19.5 264.5,-19.5 264.5,-.5 222.5,-.5"/>
<text text-anchor="middle" x="243.5" y="-7.5" font-family="Helvetica,sans-Serif" font-size="10.00" fill="#000000">fstream</text>
</g>
<!-- Node0&#45;&gt;Node5 -->
<g id="edge5" class="edge">
<title>Node0&#45;&gt;Node5</title>
<path fill="none" stroke="#191970" d="M219.5514,-56.2455C223.5019,-48.617 229.1097,-37.7881 233.9058,-28.5267"/>
<polygon fill="#191970" stroke="#191970" points="237.0159,-30.1321 238.5065,-19.6427 230.7999,-26.9131 237.0159,-30.1321"/>
</g>
<!-- Node6 -->
<g id="node7" class="node">
<title>Node6</title>
<polygon fill="#ffffff" stroke="#bfbfbf" points="283,-.5 283,-19.5 326,-19.5 326,-.5 283,-.5"/>
<text text-anchor="middle" x="304.5" y="-7.5" font-family="Helvetica,sans-Serif" font-size="10.00" fill="#000000">sstream</text>
</g>
<!-- Node0&#45;&gt;Node6 -->
<g id="edge6" class="edge">
<title>Node0&#45;&gt;Node6</title>
<path fill="none" stroke="#191970" d="M230.1768,-56.2455C243.9856,-47.6534 264.3193,-35.0014 280.2292,-25.1018"/>
<polygon fill="#191970" stroke="#191970" points="282.3613,-27.8974 289.0028,-19.6427 278.6632,-21.954 282.3613,-27.8974"/>
</g>
<!-- Node7 -->
<g id="node8" class="node">
<title>Node7</title>
<polygon fill="#ffffff" stroke="#bfbfbf" points="344.5,-.5 344.5,-19.5 394.5,-19.5 394.5,-.5 344.5,-.5"/>
<text text-anchor="middle" x="369.5" y="-7.5" font-family="Helvetica,sans-Serif" font-size="10.00" fill="#000000">sys/time.h</text>
</g>
<!-- Node0&#45;&gt;Node7 -->
<g id="edge7" class="edge">
<title>Node0&#45;&gt;Node7</title>
<path fill="none" stroke="#191970" d="M236.7077,-57.9766C262.2781,-48.7382 304.6049,-33.446 334.5918,-22.612"/>
<polygon fill="#191970" stroke="#191970" points="336.0305,-25.8137 344.2462,-19.124 333.6519,-19.2302 336.0305,-25.8137"/>
</g>
<!-- Node8 -->
<g id="node9" class="node">
<title>Node8</title>
<polygon fill="#ffffff" stroke="#bfbfbf" points="413,-.5 413,-19.5 456,-19.5 456,-.5 413,-.5"/>
<text text-anchor="middle" x="434.5" y="-7.5" font-family="Helvetica,sans-Serif" font-size="10.00" fill="#000000">unistd.h</text>
</g>
<!-- Node0&#45;&gt;Node8 -->
<g id="edge8" class="edge">
<title>Node0&#45;&gt;Node8</title>
<path fill="none" stroke="#191970" d="M236.7512,-61.1404C270.5641,-53.6371 337.0821,-38.4129 403.142,-19.9448"/>
<polygon fill="#191970" stroke="#191970" points="404.2074,-23.2809 412.8813,-17.197 402.3066,-16.5439 404.2074,-23.2809"/>
</g>
</g>
</svg>
