<?xml version="1.0" encoding="UTF-8" standalone="no"?>
<!DOCTYPE svg PUBLIC "-//W3C//DTD SVG 1.1//EN"
 "http://www.w3.org/Graphics/SVG/1.1/DTD/svg11.dtd">
<!-- Generated by graphviz version 2.40.1 (20161225.0304)
 -->
<!-- Title: utils.hpp Pages: 1 -->
<svg width="530pt" height="84pt"
 viewBox="0.00 0.00 529.50 84.00" xmlns="http://www.w3.org/2000/svg" xmlns:xlink="http://www.w3.org/1999/xlink">
<g id="graph0" class="graph" transform="scale(1 1) rotate(0) translate(4 80)">
<title>utils.hpp</title>
<polygon fill="#ffffff" stroke="transparent" points="-4,4 -4,-80 525.5,-80 525.5,4 -4,4"/>
<!-- Node0 -->
<g id="node1" class="node">
<title>Node0</title>
<polygon fill="#bfbfbf" stroke="#000000" points="216.5,-56.5 216.5,-75.5 270.5,-75.5 270.5,-56.5 216.5,-56.5"/>
<text text-anchor="middle" x="243.5" y="-63.5" font-family="Helvetica,sans-Serif" font-size="10.00" fill="#000000">utils.hpp</text>
</g>
<!-- Node1 -->
<g id="node2" class="node">
<title>Node1</title>
<polygon fill="#ffffff" stroke="#bfbfbf" points="0,-.5 0,-19.5 49,-19.5 49,-.5 0,-.5"/>
<text text-anchor="middle" x="24.5" y="-7.5" font-family="Helvetica,sans-Serif" font-size="10.00" fill="#000000">cassert</text>
</g>
<!-- Node0&#45;&gt;Node1 -->
<g id="edge1" class="edge">
<title>Node0&#45;&gt;Node1</title>
<path fill="none" stroke="#191970" d="M216.446,-59.6525C182.1579,-51.5256 121.0168,-36.7612 59.2607,-20.1254"/>
<polygon fill="#191970" stroke="#191970" points="59.9153,-16.6766 49.348,-17.4401 58.0849,-23.4331 59.9153,-16.6766"/>
</g>
<!-- Node2 -->
<g id="node3" class="node">
<title>Node2</title>
<polygon fill="#ffffff" stroke="#bfbfbf" points="67.5,-.5 67.5,-19.5 111.5,-19.5 111.5,-.5 67.5,-.5"/>
<text text-anchor="middle" x="89.5" y="-7.5" font-family="Helvetica,sans-Serif" font-size="10.00" fill="#000000">cmath</text>
</g>
<!-- Node0&#45;&gt;Node2 -->
<g id="edge2" class="edge">
<title>Node0&#45;&gt;Node2</title>
<path fill="none" stroke="#191970" d="M217.0265,-56.3733C190.4095,-46.6944 149.3709,-31.7712 121.0733,-21.4812"/>
<polygon fill="#191970" stroke="#191970" points="122.234,-18.1791 111.64,-18.0509 119.8418,-24.7577 122.234,-18.1791"/>
</g>
<!-- Node3 -->
<g id="node4" class="node">
<title>Node3</title>
<polygon fill="#ffffff" stroke="#bfbfbf" points="130,-.5 130,-19.5 171,-19.5 171,-.5 130,-.5"/>
<text text-anchor="middle" x="150.5" y="-7.5" font-family="Helvetica,sans-Serif" font-size="10.00" fill="#000000">string</text>
</g>
<!-- Node0&#45;&gt;Node3 -->
<g id="edge3" class="edge">
<title>Node0&#45;&gt;Node3</title>
<path fill="none" stroke="#191970" d="M227.3006,-56.2455C212.8982,-47.5731 191.6268,-34.7645 175.1201,-24.825"/>
<polygon fill="#191970" stroke="#191970" points="176.886,-21.8028 166.5137,-19.6427 173.275,-27.7996 176.886,-21.8028"/>
</g>
<!-- Node4 -->
<g id="node5" class="node">
<title>Node4</title>
<polygon fill="#ffffff" stroke="#bfbfbf" points="189.5,-.5 189.5,-19.5 233.5,-19.5 233.5,-.5 189.5,-.5"/>
<text text-anchor="middle" x="211.5" y="-7.5" font-family="Helvetica,sans-Serif" font-size="10.00" fill="#000000">vector</text>
</g>
<!-- Node0&#45;&gt;Node4 -->
<g id="edge4" class="edge">
<title>Node0&#45;&gt;Node4</title>
<path fill="none" stroke="#191970" d="M237.926,-56.2455C233.5669,-48.617 227.3789,-37.7881 222.0867,-28.5267"/>
<polygon fill="#191970" stroke="#191970" points="225.0104,-26.5886 217.0101,-19.6427 218.9327,-30.0616 225.0104,-26.5886"/>
</g>
<!-- Node5 -->
<g id="node6" class="node">
<title>Node5</title>
<polygon fill="#ffffff" stroke="#bfbfbf" points="251.5,-.5 251.5,-19.5 301.5,-19.5 301.5,-.5 251.5,-.5"/>
<text text-anchor="middle" x="276.5" y="-7.5" font-family="Helvetica,sans-Serif" font-size="10.00" fill="#000000">fstream</text>
</g>
<!-- Node0&#45;&gt;Node5 -->
<g id="edge5" class="edge">
<title>Node0&#45;&gt;Node5</title>
<path fill="none" stroke="#191970" d="M249.2482,-56.2455C253.7435,-48.617 260.1248,-37.7881 265.5825,-28.5267"/>
<polygon fill="#191970" stroke="#191970" points="268.7561,-30.035 270.8177,-19.6427 262.7253,-26.4811 268.7561,-30.035"/>
</g>
<!-- Node6 -->
<g id="node7" class="node">
<title>Node6</title>
<polygon fill="#ffffff" stroke="#bfbfbf" points="319.5,-.5 319.5,-19.5 371.5,-19.5 371.5,-.5 319.5,-.5"/>
<text text-anchor="middle" x="345.5" y="-7.5" font-family="Helvetica,sans-Serif" font-size="10.00" fill="#000000">sstream</text>
</g>
<!-- Node0&#45;&gt;Node6 -->
<g id="edge6" class="edge">
<title>Node0&#45;&gt;Node6</title>
<path fill="none" stroke="#191970" d="M261.267,-56.2455C277.2095,-47.4928 300.8259,-34.527 318.9989,-24.5496"/>
<polygon fill="#191970" stroke="#191970" points="320.8552,-27.5233 327.9366,-19.6427 317.4863,-21.3873 320.8552,-27.5233"/>
</g>
<!-- Node7 -->
<g id="node8" class="node">
<title>Node7</title>
<polygon fill="#ffffff" stroke="#bfbfbf" points="389.5,-.5 389.5,-19.5 451.5,-19.5 451.5,-.5 389.5,-.5"/>
<text text-anchor="middle" x="420.5" y="-7.5" font-family="Helvetica,sans-Serif" font-size="10.00" fill="#000000">sys/time.h</text>
</g>
<!-- Node0&#45;&gt;Node7 -->
<g id="edge7" class="edge">
<title>Node0&#45;&gt;Node7</title>
<path fill="none" stroke="#191970" d="M270.7683,-57.3727C300.0328,-48.1139 346.8179,-33.3118 380.3029,-22.7177"/>
<polygon fill="#191970" stroke="#191970" points="381.7553,-25.9293 390.2337,-19.5758 379.6437,-19.2553 381.7553,-25.9293"/>
</g>
<!-- Node8 -->
<g id="node9" class="node">
<title>Node8</title>
<polygon fill="#ffffff" stroke="#bfbfbf" points="469.5,-.5 469.5,-19.5 521.5,-19.5 521.5,-.5 469.5,-.5"/>
<text text-anchor="middle" x="495.5" y="-7.5" font-family="Helvetica,sans-Serif" font-size="10.00" fill="#000000">unistd.h</text>
</g>
<!-- Node0&#45;&gt;Node8 -->
<g id="edge8" class="edge">
<title>Node0&#45;&gt;Node8</title>
<path fill="none" stroke="#191970" d="M270.7024,-60.8635C310.1698,-53.2753 385.8021,-38.2251 459.2964,-20.1802"/>
<polygon fill="#191970" stroke="#191970" points="460.3143,-23.5339 469.1793,-17.732 458.631,-16.7393 460.3143,-23.5339"/>
</g>
</g>
</svg>
