<?xml version="1.0" encoding="UTF-8" standalone="no"?>
<!DOCTYPE svg PUBLIC "-//W3C//DTD SVG 1.1//EN"
 "http://www.w3.org/Graphics/SVG/1.1/DTD/svg11.dtd">
<!-- Generated by graphviz version 2.40.1 (20161225.0304)
 -->
<!-- Title: sddk::splindex_base&lt; T &gt; Pages: 1 -->
<svg width="309pt" height="154pt"
 viewBox="0.00 0.00 309.00 154.00" xmlns="http://www.w3.org/2000/svg" xmlns:xlink="http://www.w3.org/1999/xlink">
<g id="graph0" class="graph" transform="scale(1 1) rotate(0) translate(4 150)">
<title>sddk::splindex_base&lt; T &gt;</title>
<polygon fill="#ffffff" stroke="transparent" points="-4,4 -4,-150 305,-150 305,4 -4,4"/>
<!-- Node0 -->
<g id="node1" class="node">
<title>Node0</title>
<polygon fill="#bfbfbf" stroke="#000000" points="0,-66.5 0,-85.5 130,-85.5 130,-66.5 0,-66.5"/>
<text text-anchor="middle" x="65" y="-73.5" font-family="Helvetica,sans-Serif" font-size="10.00" fill="#000000">sddk::splindex_base&lt; T &gt;</text>
</g>
<!-- Node1 -->
<g id="node2" class="node">
<title>Node1</title>
<g id="a_node2"><a xlink:href="../../d2/dc9/classsddk_1_1splindex.html" target="_top" xlink:title="sddk::splindex\&lt; T \&gt;">
<polygon fill="#ffffff" stroke="#000000" points="182,-126.5 182,-145.5 285,-145.5 285,-126.5 182,-126.5"/>
<text text-anchor="middle" x="233.5" y="-133.5" font-family="Helvetica,sans-Serif" font-size="10.00" fill="#000000">sddk::splindex&lt; T &gt;</text>
</a>
</g>
</g>
<!-- Node0&#45;&gt;Node1 -->
<g id="edge1" class="edge">
<title>Node0&#45;&gt;Node1</title>
<path fill="none" stroke="#191970" d="M95.8497,-89.5648C115.6781,-98.0229 142.1075,-108.8162 166,-117 175.9048,-120.3927 186.7725,-123.6501 196.8383,-126.4803"/>
<polygon fill="#191970" stroke="#191970" points="96.9781,-86.2401 86.409,-85.5016 94.2108,-92.6698 96.9781,-86.2401"/>
</g>
<!-- Node2 -->
<g id="node3" class="node">
<title>Node2</title>
<g id="a_node3"><a xlink:href="../../d9/d84/classsddk_1_1splindex_3_01block_00_01_t_01_4.html" target="_top" xlink:title="Specialization for the block distribution. ">
<polygon fill="#ffffff" stroke="#000000" points="167.5,-88.5 167.5,-107.5 299.5,-107.5 299.5,-88.5 167.5,-88.5"/>
<text text-anchor="middle" x="233.5" y="-95.5" font-family="Helvetica,sans-Serif" font-size="10.00" fill="#000000">sddk::splindex&lt; block, T &gt;</text>
</a>
</g>
</g>
<!-- Node0&#45;&gt;Node2 -->
<g id="edge2" class="edge">
<title>Node0&#45;&gt;Node2</title>
<path fill="none" stroke="#191970" d="M140.2788,-85.8287C149.3256,-87.0099 158.5121,-88.2093 167.4144,-89.3716"/>
<polygon fill="#191970" stroke="#191970" points="140.5155,-82.33 130.1465,-84.5058 139.6092,-89.2711 140.5155,-82.33"/>
</g>
<!-- Node3 -->
<g id="node4" class="node">
<title>Node3</title>
<g id="a_node4"><a xlink:href="../../dd/d99/classsddk_1_1splindex_3_01block__cyclic_00_01_t_01_4.html" target="_top" xlink:title="Specialization for the block&#45;cyclic distribution. ">
<polygon fill="#ffffff" stroke="#000000" points="177.5,-39 177.5,-69 289.5,-69 289.5,-39 177.5,-39"/>
<text text-anchor="start" x="185.5" y="-57" font-family="Helvetica,sans-Serif" font-size="10.00" fill="#000000">sddk::splindex&lt; block</text>
<text text-anchor="middle" x="233.5" y="-46" font-family="Helvetica,sans-Serif" font-size="10.00" fill="#000000">_cyclic, T &gt;</text>
</a>
</g>
</g>
<!-- Node0&#45;&gt;Node3 -->
<g id="edge3" class="edge">
<title>Node0&#45;&gt;Node3</title>
<path fill="none" stroke="#191970" d="M140.0931,-66.1956C152.5951,-64.5633 165.3692,-62.8954 177.2968,-61.3381"/>
<polygon fill="#191970" stroke="#191970" points="139.6092,-62.7289 130.1465,-67.4942 140.5155,-69.67 139.6092,-62.7289"/>
</g>
<!-- Node4 -->
<g id="node5" class="node">
<title>Node4</title>
<g id="a_node5"><a xlink:href="../../d9/dc3/classsddk_1_1splindex_3_01chunk_00_01_t_01_4.html" target="_top" xlink:title="Specialization for the block distribution. ">
<polygon fill="#ffffff" stroke="#000000" points="166,-.5 166,-19.5 301,-19.5 301,-.5 166,-.5"/>
<text text-anchor="middle" x="233.5" y="-7.5" font-family="Helvetica,sans-Serif" font-size="10.00" fill="#000000">sddk::splindex&lt; chunk, T &gt;</text>
</a>
</g>
</g>
<!-- Node0&#45;&gt;Node4 -->
<g id="edge4" class="edge">
<title>Node0&#45;&gt;Node4</title>
<path fill="none" stroke="#191970" d="M93.1917,-61.8795C113.2058,-52.1731 140.8737,-39.3921 166,-30 176.1893,-26.1913 187.4522,-22.6135 197.8108,-19.5665"/>
<polygon fill="#191970" stroke="#191970" points="91.4669,-58.8269 84.026,-66.3691 94.5462,-65.1133 91.4669,-58.8269"/>
</g>
</g>
</svg>
