<?xml version="1.0" encoding="UTF-8" standalone="no"?>
<!DOCTYPE svg PUBLIC "-//W3C//DTD SVG 1.1//EN"
 "http://www.w3.org/Graphics/SVG/1.1/DTD/svg11.dtd">
<!-- Generated by graphviz version 2.40.1 (20161225.0304)
 -->
<!-- Title: sddk::splindex_base&lt; T &gt; Pages: 1 -->
<svg width="299pt" height="137pt"
 viewBox="0.00 0.00 299.00 137.00" xmlns="http://www.w3.org/2000/svg" xmlns:xlink="http://www.w3.org/1999/xlink">
<g id="graph0" class="graph" transform="scale(1 1) rotate(0) translate(4 133)">
<title>sddk::splindex_base&lt; T &gt;</title>
<polygon fill="#ffffff" stroke="transparent" points="-4,4 -4,-133 295,-133 295,4 -4,4"/>
<!-- Node1 -->
<g id="node1" class="node">
<title>Node1</title>
<g id="a_node1"><a xlink:title="Base class for split index.">
<polygon fill="#bfbfbf" stroke="#000000" points="0,-55 0,-74 130,-74 130,-55 0,-55"/>
<text text-anchor="middle" x="65" y="-62" font-family="Helvetica,sans-Serif" font-size="10.00" fill="#000000">sddk::splindex_base&lt; T &gt;</text>
</a>
</g>
</g>
<!-- Node2 -->
<g id="node2" class="node">
<title>Node2</title>
<g id="a_node2"><a xlink:href="../../d8/ddc/classsddk_1_1splindex_3_01splindex__t_1_1block_00_01_t_01_4.html" target="_top" xlink:title="Specialization for the block distribution.">
<polygon fill="#ffffff" stroke="#000000" points="166,-98.5 166,-128.5 291,-128.5 291,-98.5 166,-98.5"/>
<text text-anchor="start" x="174" y="-116.5" font-family="Helvetica,sans-Serif" font-size="10.00" fill="#000000">sddk::splindex&lt; splindex</text>
<text text-anchor="middle" x="228.5" y="-105.5" font-family="Helvetica,sans-Serif" font-size="10.00" fill="#000000">_t::block, T &gt;</text>
</a>
</g>
</g>
<!-- Node1&#45;&gt;Node2 -->
<g id="edge1" class="edge">
<title>Node1&#45;&gt;Node2</title>
<path fill="none" stroke="#191970" d="M106.5559,-76.9541C128.3954,-83.4992 155.3298,-91.5713 178.3256,-98.463"/>
<polygon fill="#191970" stroke="#191970" points="107.4965,-73.5822 96.9126,-74.064 105.4869,-80.2876 107.4965,-73.5822"/>
</g>
<!-- Node3 -->
<g id="node3" class="node">
<title>Node3</title>
<g id="a_node3"><a xlink:href="../../db/db5/classsddk_1_1splindex_3_01splindex__t_1_1block__cyclic_00_01_t_01_4.html" target="_top" xlink:title="Specialization for the block&#45;cyclic distribution.">
<polygon fill="#ffffff" stroke="#000000" points="166,-49.5 166,-79.5 291,-79.5 291,-49.5 166,-49.5"/>
<text text-anchor="start" x="174" y="-67.5" font-family="Helvetica,sans-Serif" font-size="10.00" fill="#000000">sddk::splindex&lt; splindex</text>
<text text-anchor="middle" x="228.5" y="-56.5" font-family="Helvetica,sans-Serif" font-size="10.00" fill="#000000">_t::block_cyclic, T &gt;</text>
</a>
</g>
</g>
<!-- Node1&#45;&gt;Node3 -->
<g id="edge2" class="edge">
<title>Node1&#45;&gt;Node3</title>
<path fill="none" stroke="#191970" d="M140.0986,-64.5C148.683,-64.5 157.3658,-64.5 165.7652,-64.5"/>
<polygon fill="#191970" stroke="#191970" points="140.0894,-61.0001 130.0893,-64.5 140.0893,-68.0001 140.0894,-61.0001"/>
</g>
<!-- Node4 -->
<g id="node4" class="node">
<title>Node4</title>
<g id="a_node4"><a xlink:href="../../da/dde/classsddk_1_1splindex_3_01splindex__t_1_1chunk_00_01_t_01_4.html" target="_top" xlink:title="Specialization for the block distribution.">
<polygon fill="#ffffff" stroke="#000000" points="166,-.5 166,-30.5 291,-30.5 291,-.5 166,-.5"/>
<text text-anchor="start" x="174" y="-18.5" font-family="Helvetica,sans-Serif" font-size="10.00" fill="#000000">sddk::splindex&lt; splindex</text>
<text text-anchor="middle" x="228.5" y="-7.5" font-family="Helvetica,sans-Serif" font-size="10.00" fill="#000000">_t::chunk, T &gt;</text>
</a>
</g>
</g>
<!-- Node1&#45;&gt;Node4 -->
<g id="edge3" class="edge">
<title>Node1&#45;&gt;Node4</title>
<path fill="none" stroke="#191970" d="M106.5559,-52.0459C128.3954,-45.5008 155.3298,-37.4287 178.3256,-30.537"/>
<polygon fill="#191970" stroke="#191970" points="105.4869,-48.7124 96.9126,-54.936 107.4965,-55.4178 105.4869,-48.7124"/>
</g>
</g>
</svg>
