<?xml version="1.0" encoding="UTF-8" standalone="no"?>
<!DOCTYPE svg PUBLIC "-//W3C//DTD SVG 1.1//EN"
 "http://www.w3.org/Graphics/SVG/1.1/DTD/svg11.dtd">
<!-- Generated by graphviz version 2.40.1 (20161225.0304)
 -->
<!-- Title: sirius::Density Pages: 1 -->
<!--zoomable 456 -->
<svg id="main" version="1.1" xmlns="http://www.w3.org/2000/svg" xmlns:xlink="http://www.w3.org/1999/xlink" xml:space="preserve" onload="init(evt)">
<style type="text/css"><![CDATA[
.edge:hover path { stroke: red; }
.edge:hover polygon { stroke: red; fill: red; }
]]></style>
<script type="text/javascript"><![CDATA[
var edges = document.getElementsByTagName('g');
if (edges && edges.length) {
  for (var i=0;i<edges.length;i++) {
    if (edges[i].id.substr(0,4)=='edge') {
      edges[i].setAttribute('class','edge');
    }
  }
}
]]></script>
        <defs>
                <circle id="rim" cx="0" cy="0" r="7"/>
                <circle id="rim2" cx="0" cy="0" r="3.5"/>
                <g id="zoomPlus">
                        <use xlink:href="#rim" fill="#404040">
                                <set attributeName="fill" to="#808080" begin="zoomplus.mouseover" end="zoomplus.mouseout"/>
                        </use>
                        <path d="M-4,0h8M0,-4v8" fill="none" stroke="white" stroke-width="1.5" pointer-events="none"/>
                </g>
                <g id="zoomMin">
                        <use xlink:href="#rim" fill="#404040">
                                <set attributeName="fill" to="#808080" begin="zoomminus.mouseover" end="zoomminus.mouseout"/>
                        </use>
                        <path d="M-4,0h8" fill="none" stroke="white" stroke-width="1.5" pointer-events="none"/>
                </g>
                <g id="dirArrow">
                        <path fill="none" stroke="white" stroke-width="1.5" d="M0,-3.0v7 M-2.5,-0.5L0,-3.0L2.5,-0.5"/>
                </g>
               <g id="resetDef">
                       <use xlink:href="#rim2" fill="#404040">
                               <set attributeName="fill" to="#808080" begin="reset.mouseover" end="reset.mouseout"/>
                       </use>
               </g>
        </defs>

<script type="text/javascript">
var viewWidth = 1173;
var viewHeight = 456;
var sectionId = 'dynsection-1';
</script>
<script xlink:href="../../svgpan.js"/>
<svg id="graph" class="graph">
<g id="viewport">
<title>sirius::Density</title>
<polygon fill="#ffffff" stroke="transparent" points="-4,4 -4,-451.5 1169,-451.5 1169,4 -4,4"/>
<!-- Node2 -->
<g id="node1" class="node">
<title>Node2</title>
<polygon fill="#bfbfbf" stroke="#000000" points="1086,-50 1086,-69 1165,-69 1165,-50 1086,-50"/>
<text text-anchor="middle" x="1125.5" y="-57" font-family="Helvetica,sans-Serif" font-size="10.00" fill="#000000">sirius::Density</text>
</g>
<!-- Node3 -->
<g id="node2" class="node">
<title>Node3</title>
<g id="a_node2"><a xlink:href="../../d3/d1f/classsirius_1_1_field4_d.html" target="_top" xlink:title="sirius::Field4D">
<polygon fill="#ffffff" stroke="#000000" points="878,-172 878,-191 958,-191 958,-172 878,-172"/>
<text text-anchor="middle" x="918" y="-179" font-family="Helvetica,sans-Serif" font-size="10.00" fill="#000000">sirius::Field4D</text>
</a>
</g>
</g>
<!-- Node3&#45;&gt;Node2 -->
<g id="edge1" class="edge">
<title>Node3&#45;&gt;Node2</title>
<path fill="none" stroke="#191970" d="M943.0226,-166.7879C986.1278,-141.4441 1073.2273,-90.2338 1109.2935,-69.0287"/>
<polygon fill="#191970" stroke="#191970" points="941.1286,-163.8413 934.2822,-171.9269 944.6766,-169.8756 941.1286,-163.8413"/>
</g>
<!-- Node4 -->
<g id="node3" class="node">
<title>Node4</title>
<g id="a_node3"><a xlink:href="../../d6/d66/classsirius_1_1_simulation__context.html" target="_top" xlink:title="Simulation context is a set of parameters and objects describing a single simulation. ">
<polygon fill="#ffffff" stroke="#000000" points="685,-251.5 685,-281.5 777,-281.5 777,-251.5 685,-251.5"/>
<text text-anchor="start" x="693" y="-269.5" font-family="Helvetica,sans-Serif" font-size="10.00" fill="#000000">sirius::Simulation</text>
<text text-anchor="middle" x="731" y="-258.5" font-family="Helvetica,sans-Serif" font-size="10.00" fill="#000000">_context</text>
</a>
</g>
</g>
<!-- Node4&#45;&gt;Node3 -->
<g id="edge2" class="edge">
<title>Node4&#45;&gt;Node3</title>
<path fill="none" stroke="#9a32cd" stroke-dasharray="5,2" d="M773.4064,-247.2244C811.9142,-229.7208 867.1088,-204.6324 896.9363,-191.0744"/>
<polygon fill="#9a32cd" stroke="#9a32cd" points="771.6567,-244.175 764.0014,-251.4994 774.5534,-250.5476 771.6567,-244.175"/>
<text text-anchor="middle" x="818" y="-239.5" font-family="Helvetica,sans-Serif" font-size="10.00" fill="#000000"> ctx_</text>
</g>
<!-- Node5 -->
<g id="node4" class="node">
<title>Node5</title>
<polygon fill="#ffffff" stroke="#bfbfbf" points="424.5,-428 424.5,-447 543.5,-447 543.5,-428 424.5,-428"/>
<text text-anchor="middle" x="484" y="-435" font-family="Helvetica,sans-Serif" font-size="10.00" fill="#000000">Simulation_parameters</text>
</g>
<!-- Node5&#45;&gt;Node4 -->
<g id="edge3" class="edge">
<title>Node5&#45;&gt;Node4</title>
<path fill="none" stroke="#191970" d="M553.8135,-442.1249C590.8227,-441.0622 635.0977,-433.7978 667,-409.5 709.1943,-377.3635 724.242,-311.2141 729.0175,-281.5145"/>
<polygon fill="#191970" stroke="#191970" points="553.5336,-438.6284 543.584,-442.2692 553.6324,-445.6277 553.5336,-438.6284"/>
</g>
<!-- Node6 -->
<g id="node5" class="node">
<title>Node6</title>
<g id="a_node5"><a xlink:href="../../d7/dab/classsddk_1_1mdarray.html" target="_top" xlink:title="sddk::mdarray\&lt; int, 2 \&gt;">
<polygon fill="#ffffff" stroke="#000000" points="424.5,-390 424.5,-409 543.5,-409 543.5,-390 424.5,-390"/>
<text text-anchor="middle" x="484" y="-397" font-family="Helvetica,sans-Serif" font-size="10.00" fill="#000000">sddk::mdarray&lt; int, 2 &gt;</text>
</a>
</g>
</g>
<!-- Node6&#45;&gt;Node4 -->
<g id="edge4" class="edge">
<title>Node6&#45;&gt;Node4</title>
<path fill="none" stroke="#9a32cd" stroke-dasharray="5,2" d="M553.6759,-397.4427C590.0435,-393.4537 633.7583,-383.822 667,-361.5 696.5524,-341.6554 716.0676,-303.1161 725.1337,-281.7276"/>
<polygon fill="#9a32cd" stroke="#9a32cd" points="553.2404,-393.9685 543.628,-398.4241 553.9209,-400.9354 553.2404,-393.9685"/>
<text text-anchor="middle" x="619" y="-397.5" font-family="Helvetica,sans-Serif" font-size="10.00" fill="#000000"> gvec_coord_</text>
</g>
<!-- Node7 -->
<g id="node6" class="node">
<title>Node7</title>
<g id="a_node6"><a xlink:href="../../d7/dab/classsddk_1_1mdarray.html" target="_top" xlink:title="sddk::mdarray\&lt; double\l_complex, 1 \&gt;">
<polygon fill="#ffffff" stroke="#000000" points="425,-340.5 425,-370.5 543,-370.5 543,-340.5 425,-340.5"/>
<text text-anchor="start" x="433" y="-358.5" font-family="Helvetica,sans-Serif" font-size="10.00" fill="#000000">sddk::mdarray&lt; double</text>
<text text-anchor="middle" x="484" y="-347.5" font-family="Helvetica,sans-Serif" font-size="10.00" fill="#000000">_complex, 1 &gt;</text>
</a>
</g>
</g>
<!-- Node7&#45;&gt;Node4 -->
<g id="edge5" class="edge">
<title>Node7&#45;&gt;Node4</title>
<path fill="none" stroke="#9a32cd" stroke-dasharray="5,2" d="M553.422,-350.0405C588.7469,-345.261 631.5868,-336.2996 667,-319.5 686.2906,-310.3488 704.6671,-294.0645 716.7389,-281.9534"/>
<polygon fill="#9a32cd" stroke="#9a32cd" points="552.6753,-346.6071 543.195,-351.3372 553.5558,-353.5515 552.6753,-346.6071"/>
<text text-anchor="middle" x="619" y="-349.5" font-family="Helvetica,sans-Serif" font-size="10.00" fill="#000000"> theta_pw_</text>
</g>
<!-- Node8 -->
<g id="node7" class="node">
<title>Node8</title>
<g id="a_node7"><a xlink:href="../../d7/dab/classsddk_1_1mdarray.html" target="_top" xlink:title="sddk::mdarray\&lt; double, 1 \&gt;">
<polygon fill="#ffffff" stroke="#000000" points="415,-302 415,-321 553,-321 553,-302 415,-302"/>
<text text-anchor="middle" x="484" y="-309" font-family="Helvetica,sans-Serif" font-size="10.00" fill="#000000">sddk::mdarray&lt; double, 1 &gt;</text>
</a>
</g>
</g>
<!-- Node8&#45;&gt;Node4 -->
<g id="edge6" class="edge">
<title>Node8&#45;&gt;Node4</title>
<path fill="none" stroke="#9a32cd" stroke-dasharray="5,2" d="M563.6105,-305.864C595.9789,-302.5563 633.5623,-297.4112 667,-289.5 675.7321,-287.434 684.9202,-284.5676 693.5238,-281.5581"/>
<polygon fill="#9a32cd" stroke="#9a32cd" points="562.9075,-302.416 553.2964,-306.8745 563.5901,-309.3826 562.9075,-302.416"/>
<text text-anchor="middle" x="619" y="-307.5" font-family="Helvetica,sans-Serif" font-size="10.00" fill="#000000"> theta_</text>
</g>
<!-- Node9 -->
<g id="node8" class="node">
<title>Node9</title>
<g id="a_node8"><a xlink:href="../../d7/dab/classsddk_1_1mdarray.html" target="_top" xlink:title="sddk::mdarray\&lt; double\l_complex, 3 \&gt;">
<polygon fill="#ffffff" stroke="#000000" points="425,-252.5 425,-282.5 543,-282.5 543,-252.5 425,-252.5"/>
<text text-anchor="start" x="433" y="-270.5" font-family="Helvetica,sans-Serif" font-size="10.00" fill="#000000">sddk::mdarray&lt; double</text>
<text text-anchor="middle" x="484" y="-259.5" font-family="Helvetica,sans-Serif" font-size="10.00" fill="#000000">_complex, 3 &gt;</text>
</a>
</g>
</g>
<!-- Node9&#45;&gt;Node4 -->
<g id="edge7" class="edge">
<title>Node9&#45;&gt;Node4</title>
<path fill="none" stroke="#9a32cd" stroke-dasharray="5,2" d="M553.3186,-267.2194C595.2937,-267.0494 647.684,-266.8373 684.668,-266.6876"/>
<polygon fill="#9a32cd" stroke="#9a32cd" points="553.1484,-263.7199 543.1627,-267.2605 553.1768,-270.7199 553.1484,-263.7199"/>
<text text-anchor="middle" x="619" y="-280.5" font-family="Helvetica,sans-Serif" font-size="10.00" fill="#000000"> sym_phase_factors_</text>
<text text-anchor="middle" x="619" y="-269.5" font-family="Helvetica,sans-Serif" font-size="10.00" fill="#000000">phase_factors_</text>
</g>
<!-- Node10 -->
<g id="node9" class="node">
<title>Node10</title>
<g id="a_node9"><a xlink:href="../../d7/dab/classsddk_1_1mdarray.html" target="_top" xlink:title="sddk::mdarray\&lt; double\l_complex, 2 \&gt;">
<polygon fill="#ffffff" stroke="#000000" points="425,-203.5 425,-233.5 543,-233.5 543,-203.5 425,-203.5"/>
<text text-anchor="start" x="433" y="-221.5" font-family="Helvetica,sans-Serif" font-size="10.00" fill="#000000">sddk::mdarray&lt; double</text>
<text text-anchor="middle" x="484" y="-210.5" font-family="Helvetica,sans-Serif" font-size="10.00" fill="#000000">_complex, 2 &gt;</text>
</a>
</g>
</g>
<!-- Node10&#45;&gt;Node4 -->
<g id="edge8" class="edge">
<title>Node10&#45;&gt;Node4</title>
<path fill="none" stroke="#9a32cd" stroke-dasharray="5,2" d="M553.0087,-230.0743C587.3536,-236.0556 629.453,-243.72 667,-251.5 672.8109,-252.7041 678.9018,-254.0379 684.9191,-255.399"/>
<polygon fill="#9a32cd" stroke="#9a32cd" points="553.5271,-226.612 543.0764,-228.3537 552.3322,-233.5093 553.5271,-226.612"/>
<text text-anchor="middle" x="619" y="-254.5" font-family="Helvetica,sans-Serif" font-size="10.00" fill="#000000"> phase_factors_t_</text>
</g>
<!-- Node11 -->
<g id="node10" class="node">
<title>Node11</title>
<g id="a_node10"><a xlink:href="../../da/d70/classsddk_1_1_communicator.html" target="_top" xlink:title="MPI communicator wrapper. ">
<polygon fill="#ffffff" stroke="#000000" points="150,-96 150,-115 258,-115 258,-96 150,-96"/>
<text text-anchor="middle" x="204" y="-103" font-family="Helvetica,sans-Serif" font-size="10.00" fill="#000000">sddk::Communicator</text>
</a>
</g>
</g>
<!-- Node11&#45;&gt;Node4 -->
<g id="edge9" class="edge">
<title>Node11&#45;&gt;Node4</title>
<path fill="none" stroke="#9a32cd" stroke-dasharray="5,2" d="M268.4113,-105.2704C354.6645,-105.7269 502.6732,-109.4046 553,-128.5 624.2902,-155.5494 690.2526,-221.4605 717.6401,-251.3354"/>
<polygon fill="#9a32cd" stroke="#9a32cd" points="268.2233,-101.7697 258.2095,-105.2299 268.1955,-108.7697 268.2233,-101.7697"/>
<text text-anchor="middle" x="484" y="-186.5" font-family="Helvetica,sans-Serif" font-size="10.00" fill="#000000"> comm_ortho_fft_</text>
<text text-anchor="start" x="431" y="-175.5" font-family="Helvetica,sans-Serif" font-size="10.00" fill="#000000">comm_ortho_fft_coarse</text>
<text text-anchor="middle" x="484" y="-164.5" font-family="Helvetica,sans-Serif" font-size="10.00" fill="#000000">_</text>
<text text-anchor="start" x="431" y="-153.5" font-family="Helvetica,sans-Serif" font-size="10.00" fill="#000000">comm_band_ortho</text>
<text text-anchor="middle" x="484" y="-142.5" font-family="Helvetica,sans-Serif" font-size="10.00" fill="#000000">_fft_coarse_</text>
<text text-anchor="middle" x="484" y="-131.5" font-family="Helvetica,sans-Serif" font-size="10.00" fill="#000000">comm_</text>
</g>
<!-- Node12 -->
<g id="node11" class="node">
<title>Node12</title>
<g id="a_node11"><a xlink:href="../../d6/dd1/classsirius_1_1_unit__cell.html" target="_top" xlink:title="Representation of a unit cell. ">
<polygon fill="#ffffff" stroke="#000000" points="442,-57 442,-76 526,-76 526,-57 442,-57"/>
<text text-anchor="middle" x="484" y="-64" font-family="Helvetica,sans-Serif" font-size="10.00" fill="#000000">sirius::Unit_cell</text>
</a>
</g>
</g>
<!-- Node11&#45;&gt;Node12 -->
<g id="edge13" class="edge">
<title>Node11&#45;&gt;Node12</title>
<path fill="none" stroke="#9a32cd" stroke-dasharray="5,2" d="M268.2779,-95.5082C272.9201,-94.8182 277.531,-94.1424 282,-93.5 337.1587,-85.5715 400.906,-77.1789 441.7957,-71.8943"/>
<polygon fill="#9a32cd" stroke="#9a32cd" points="267.4782,-92.089 258.1082,-97.0341 268.5168,-99.0115 267.4782,-92.089"/>
<text text-anchor="middle" x="339.5" y="-96.5" font-family="Helvetica,sans-Serif" font-size="10.00" fill="#000000"> comm_</text>
</g>
<!-- Node12&#45;&gt;Node2 -->
<g id="edge15" class="edge">
<title>Node12&#45;&gt;Node2</title>
<path fill="none" stroke="#9a32cd" stroke-dasharray="5,2" d="M536.1594,-65.9308C660.9593,-64.569 974.6368,-61.1462 1085.7346,-59.9339"/>
<polygon fill="#9a32cd" stroke="#9a32cd" points="536.0518,-62.4317 526.0906,-66.0407 536.1282,-69.4313 536.0518,-62.4317"/>
<text text-anchor="middle" x="818" y="-65.5" font-family="Helvetica,sans-Serif" font-size="10.00" fill="#000000"> unit_cell_</text>
</g>
<!-- Node12&#45;&gt;Node4 -->
<g id="edge10" class="edge">
<title>Node12&#45;&gt;Node4</title>
<path fill="none" stroke="#9a32cd" stroke-dasharray="5,2" d="M536.1687,-68.3666C583.043,-71.0636 647.423,-77.621 667,-93.5 716.867,-133.9473 727.8801,-217.1572 730.3115,-251.3353"/>
<polygon fill="#9a32cd" stroke="#9a32cd" points="536.3299,-64.8703 526.1578,-67.8331 535.9573,-71.8604 536.3299,-64.8703"/>
<text text-anchor="middle" x="619" y="-96.5" font-family="Helvetica,sans-Serif" font-size="10.00" fill="#000000"> unit_cell_</text>
</g>
<!-- Node13 -->
<g id="node12" class="node">
<title>Node13</title>
<g id="a_node12"><a xlink:href="../../d2/dc9/classsddk_1_1splindex.html" target="_top" xlink:title="sddk::splindex\&lt; block \&gt;">
<polygon fill="#ffffff" stroke="#000000" points="144,-16 144,-35 264,-35 264,-16 144,-16"/>
<text text-anchor="middle" x="204" y="-23" font-family="Helvetica,sans-Serif" font-size="10.00" fill="#000000">sddk::splindex&lt; block &gt;</text>
</a>
</g>
</g>
<!-- Node13&#45;&gt;Node12 -->
<g id="edge11" class="edge">
<title>Node13&#45;&gt;Node12</title>
<path fill="none" stroke="#9a32cd" stroke-dasharray="5,2" d="M274.396,-20.5887C311.2961,-19.6087 357.0142,-20.918 397,-29.5 422.5162,-34.9764 449.8974,-47.9231 466.9838,-56.9481"/>
<polygon fill="#9a32cd" stroke="#9a32cd" points="274.1141,-17.096 264.2342,-20.9217 274.3434,-24.0922 274.1141,-17.096"/>
<text text-anchor="middle" x="339.5" y="-65.5" font-family="Helvetica,sans-Serif" font-size="10.00" fill="#000000"> spl_num_paw_atoms_</text>
<text text-anchor="middle" x="339.5" y="-54.5" font-family="Helvetica,sans-Serif" font-size="10.00" fill="#000000">spl_num_atoms_</text>
<text text-anchor="start" x="282" y="-43.5" font-family="Helvetica,sans-Serif" font-size="10.00" fill="#000000">spl_num_atom_symmetry</text>
<text text-anchor="middle" x="339.5" y="-32.5" font-family="Helvetica,sans-Serif" font-size="10.00" fill="#000000">_classes_</text>
</g>
<!-- Node14 -->
<g id="node13" class="node">
<title>Node14</title>
<g id="a_node13"><a xlink:href="../../d6/dec/classsddk_1_1splindex__base.html" target="_top" xlink:title="sddk::splindex_base\l\&lt; int \&gt;">
<polygon fill="#ffffff" stroke="#000000" points="0,-10.5 0,-40.5 107,-40.5 107,-10.5 0,-10.5"/>
<text text-anchor="start" x="8" y="-28.5" font-family="Helvetica,sans-Serif" font-size="10.00" fill="#000000">sddk::splindex_base</text>
<text text-anchor="middle" x="53.5" y="-17.5" font-family="Helvetica,sans-Serif" font-size="10.00" fill="#000000">&lt; int &gt;</text>
</a>
</g>
</g>
<!-- Node14&#45;&gt;Node13 -->
<g id="edge12" class="edge">
<title>Node14&#45;&gt;Node13</title>
<path fill="none" stroke="#191970" d="M117.5245,-25.5C126.2467,-25.5 135.1747,-25.5 143.8256,-25.5"/>
<polygon fill="#191970" stroke="#191970" points="117.4089,-22.0001 107.4089,-25.5 117.4088,-29.0001 117.4089,-22.0001"/>
</g>
<!-- Node15 -->
<g id="node14" class="node">
<title>Node15</title>
<g id="a_node14"><a xlink:href="../../d7/dab/classsddk_1_1mdarray.html" target="_top" xlink:title="sddk::mdarray\&lt; double\l_complex, 4 \&gt;">
<polygon fill="#ffffff" stroke="#000000" points="859,-.5 859,-30.5 977,-30.5 977,-.5 859,-.5"/>
<text text-anchor="start" x="867" y="-18.5" font-family="Helvetica,sans-Serif" font-size="10.00" fill="#000000">sddk::mdarray&lt; double</text>
<text text-anchor="middle" x="918" y="-7.5" font-family="Helvetica,sans-Serif" font-size="10.00" fill="#000000">_complex, 4 &gt;</text>
</a>
</g>
</g>
<!-- Node15&#45;&gt;Node2 -->
<g id="edge14" class="edge">
<title>Node15&#45;&gt;Node2</title>
<path fill="none" stroke="#9a32cd" stroke-dasharray="5,2" d="M987.202,-20.1225C1012.8927,-22.9161 1042.0787,-27.3801 1068,-34.5 1081.5406,-38.2192 1096.0353,-44.5382 1107.0843,-49.8925"/>
<polygon fill="#9a32cd" stroke="#9a32cd" points="987.4761,-16.6324 977.1717,-19.096 986.7634,-23.596 987.4761,-16.6324"/>
<text text-anchor="middle" x="1031.5" y="-37.5" font-family="Helvetica,sans-Serif" font-size="10.00" fill="#000000"> density_matrix_</text>
</g>
</g>
</svg>
        <g id="navigator" transform="translate(0 0)" fill="#404254">
                <rect fill="#f2f5e9" fill-opacity="0.5" stroke="#606060" stroke-width=".5" x="0" y="0" width="60" height="60"/>
                <use id="zoomplus" xlink:href="#zoomPlus" x="17" y="9" onmousedown="handleZoom(evt,'in')"/>
                <use id="zoomminus" xlink:href="#zoomMin" x="42" y="9" onmousedown="handleZoom(evt,'out')"/>
                <use id="reset" xlink:href="#resetDef" x="30" y="36" onmousedown="handleReset()"/>
                <g id="arrowUp" xlink:href="#dirArrow" transform="translate(30 24)" onmousedown="handlePan(0,-1)">
                  <use xlink:href="#rim" fill="#404040">
                        <set attributeName="fill" to="#808080" begin="arrowUp.mouseover" end="arrowUp.mouseout"/>
                  </use>
                  <path fill="none" stroke="white" stroke-width="1.5" d="M0,-3.0v7 M-2.5,-0.5L0,-3.0L2.5,-0.5"/>
                </g>
                <g id="arrowRight" xlink:href="#dirArrow" transform="rotate(90) translate(36 -43)" onmousedown="handlePan(1,0)">
                  <use xlink:href="#rim" fill="#404040">
                        <set attributeName="fill" to="#808080" begin="arrowRight.mouseover" end="arrowRight.mouseout"/>
                  </use>
                  <path fill="none" stroke="white" stroke-width="1.5" d="M0,-3.0v7 M-2.5,-0.5L0,-3.0L2.5,-0.5"/>
                </g>
                <g id="arrowDown" xlink:href="#dirArrow" transform="rotate(180) translate(-30 -48)" onmousedown="handlePan(0,1)">
                  <use xlink:href="#rim" fill="#404040">
                        <set attributeName="fill" to="#808080" begin="arrowDown.mouseover" end="arrowDown.mouseout"/>
                  </use>
                  <path fill="none" stroke="white" stroke-width="1.5" d="M0,-3.0v7 M-2.5,-0.5L0,-3.0L2.5,-0.5"/>
                </g>
                <g id="arrowLeft" xlink:href="#dirArrow" transform="rotate(270) translate(-36 17)" onmousedown="handlePan(-1,0)">
                  <use xlink:href="#rim" fill="#404040">
                        <set attributeName="fill" to="#808080" begin="arrowLeft.mouseover" end="arrowLeft.mouseout"/>
                  </use>
                  <path fill="none" stroke="white" stroke-width="1.5" d="M0,-3.0v7 M-2.5,-0.5L0,-3.0L2.5,-0.5"/>
                </g>
        </g>
        <svg viewBox="0 0 15 15" width="100%" height="30px" preserveAspectRatio="xMaxYMin meet">
         <g id="arrow_out" transform="scale(0.3 0.3)">
          <a xlink:href="classsirius_1_1_density__coll__graph_org.svg" target="_base">
           <rect id="button" ry="5" rx="5" y="6" x="6" height="38" width="38"
                fill="#f2f5e9" fill-opacity="0.5" stroke="#606060" stroke-width="1.0"/>
           <path id="arrow"
             d="M 11.500037,31.436501 C 11.940474,20.09759 22.043105,11.32322 32.158766,21.979434 L 37.068811,17.246167 C 37.068811,17.246167 37.088388,32 37.088388,32 L 22.160133,31.978069 C 22.160133,31.978069 26.997745,27.140456 26.997745,27.140456 C 18.528582,18.264221 13.291696,25.230495 11.500037,31.436501 z"
             style="fill:#404040;"/>
          </a>
         </g>
        </svg>
</svg>
