<?xml version="1.0" encoding="UTF-8" standalone="no"?>
<!DOCTYPE svg PUBLIC "-//W3C//DTD SVG 1.1//EN"
 "http://www.w3.org/Graphics/SVG/1.1/DTD/svg11.dtd">
<!-- Generated by graphviz version 2.40.1 (20161225.0304)
 -->
<!-- Title: sirius::Density Pages: 1 -->
<!--zoomable 417 -->
<svg id="main" version="1.1" xmlns="http://www.w3.org/2000/svg" xmlns:xlink="http://www.w3.org/1999/xlink" xml:space="preserve" onload="init(evt)">
<style type="text/css"><![CDATA[
.edge:hover path { stroke: red; }
.edge:hover polygon { stroke: red; fill: red; }
]]></style>
<script type="text/javascript"><![CDATA[
var edges = document.getElementsByTagName('g');
if (edges && edges.length) {
  for (var i=0;i<edges.length;i++) {
    if (edges[i].id.substr(0,4)=='edge') {
      edges[i].setAttribute('class','edge');
    }
  }
}
]]></script>
        <defs>
                <circle id="rim" cx="0" cy="0" r="7"/>
                <circle id="rim2" cx="0" cy="0" r="3.5"/>
                <g id="zoomPlus">
                        <use xlink:href="#rim" fill="#404040">
                                <set attributeName="fill" to="#808080" begin="zoomplus.mouseover" end="zoomplus.mouseout"/>
                        </use>
                        <path d="M-4,0h8M0,-4v8" fill="none" stroke="white" stroke-width="1.5" pointer-events="none"/>
                </g>
                <g id="zoomMin">
                        <use xlink:href="#rim" fill="#404040">
                                <set attributeName="fill" to="#808080" begin="zoomminus.mouseover" end="zoomminus.mouseout"/>
                        </use>
                        <path d="M-4,0h8" fill="none" stroke="white" stroke-width="1.5" pointer-events="none"/>
                </g>
                <g id="dirArrow">
                        <path fill="none" stroke="white" stroke-width="1.5" d="M0,-3.0v7 M-2.5,-0.5L0,-3.0L2.5,-0.5"/>
                </g>
               <g id="resetDef">
                       <use xlink:href="#rim2" fill="#404040">
                               <set attributeName="fill" to="#808080" begin="reset.mouseover" end="reset.mouseout"/>
                       </use>
               </g>
        </defs>

<script type="text/javascript">
var viewWidth = 1433;
var viewHeight = 417;
var sectionId = 'dynsection-1';
</script>
<script xlink:href="../../svgpan.js"/>
<svg id="graph" class="graph">
<g id="viewport">
<title>sirius::Density</title>
<polygon fill="#ffffff" stroke="transparent" points="-4,4 -4,-413 1429,-413 1429,4 -4,4"/>
<!-- Node2 -->
<g id="node1" class="node">
<title>Node2</title>
<polygon fill="#bfbfbf" stroke="#000000" points="1362,-315.5 1362,-334.5 1425,-334.5 1425,-315.5 1362,-315.5"/>
<text text-anchor="middle" x="1393.5" y="-322.5" font-family="Helvetica,sans-Serif" font-size="10.00" fill="#000000">sirius::Density</text>
</g>
<!-- Node3 -->
<g id="node2" class="node">
<title>Node3</title>
<g id="a_node2"><a xlink:href="../../d3/d1f/classsirius_1_1_field4_d.html" target="_top" xlink:title="sirius::Field4D">
<polygon fill="#ffffff" stroke="#000000" points="1261,-273.5 1261,-292.5 1325,-292.5 1325,-273.5 1261,-273.5"/>
<text text-anchor="middle" x="1293" y="-280.5" font-family="Helvetica,sans-Serif" font-size="10.00" fill="#000000">sirius::Field4D</text>
</a>
</g>
</g>
<!-- Node3&#45;&gt;Node2 -->
<g id="edge1" class="edge">
<title>Node3&#45;&gt;Node2</title>
<path fill="none" stroke="#191970" d="M1325.0848,-296.4086C1339.8326,-302.5718 1356.9925,-309.7432 1370.4374,-315.3619"/>
<polygon fill="#191970" stroke="#191970" points="1326.3813,-293.1571 1315.805,-292.5305 1323.6821,-299.6158 1326.3813,-293.1571"/>
</g>
<!-- Node4 -->
<g id="node3" class="node">
<title>Node4</title>
<g id="a_node3"><a xlink:href="../../d6/d66/classsirius_1_1_simulation__context.html" target="_top" xlink:title="Simulation context is a set of parameters and objects describing a single simulation. ">
<polygon fill="#ffffff" stroke="#000000" points="1097,-243 1097,-273 1170,-273 1170,-243 1097,-243"/>
<text text-anchor="start" x="1105" y="-261" font-family="Helvetica,sans-Serif" font-size="10.00" fill="#000000">sirius::Simulation</text>
<text text-anchor="middle" x="1133.5" y="-250" font-family="Helvetica,sans-Serif" font-size="10.00" fill="#000000">_context</text>
</a>
</g>
</g>
<!-- Node4&#45;&gt;Node3 -->
<g id="edge2" class="edge">
<title>Node4&#45;&gt;Node3</title>
<path fill="none" stroke="#9a32cd" stroke-dasharray="5,2" d="M1180.0958,-265.3034C1206.0554,-269.3723 1237.717,-274.335 1260.8982,-277.9684"/>
<polygon fill="#9a32cd" stroke="#9a32cd" points="1180.5139,-261.8263 1170.0925,-263.7355 1179.4299,-268.7419 1180.5139,-261.8263"/>
<text text-anchor="middle" x="1215.5" y="-277" font-family="Helvetica,sans-Serif" font-size="10.00" fill="#000000"> ctx_</text>
</g>
<!-- Node5 -->
<g id="node4" class="node">
<title>Node5</title>
<g id="a_node4"><a xlink:href="../../db/d7d/classsirius_1_1_simulation__context__base.html" target="_top" xlink:title="Base class for Simulation_context. ">
<polygon fill="#ffffff" stroke="#000000" points="895,-186 895,-216 968,-216 968,-186 895,-186"/>
<text text-anchor="start" x="903" y="-204" font-family="Helvetica,sans-Serif" font-size="10.00" fill="#000000">sirius::Simulation</text>
<text text-anchor="middle" x="931.5" y="-193" font-family="Helvetica,sans-Serif" font-size="10.00" fill="#000000">_context_base</text>
</a>
</g>
</g>
<!-- Node5&#45;&gt;Node4 -->
<g id="edge3" class="edge">
<title>Node5&#45;&gt;Node4</title>
<path fill="none" stroke="#191970" d="M977.8919,-214.0908C1014.017,-224.2845 1063.4695,-238.2389 1096.8507,-247.6584"/>
<polygon fill="#191970" stroke="#191970" points="978.6554,-210.6696 968.0807,-211.3223 976.7543,-217.4065 978.6554,-210.6696"/>
</g>
<!-- Node6 -->
<g id="node5" class="node">
<title>Node6</title>
<g id="a_node5"><a xlink:href="../../d0/d04/classsirius_1_1_simulation__parameters.html" target="_top" xlink:title="Set of basic parameters of a simulation. ">
<polygon fill="#ffffff" stroke="#000000" points="467.5,-137 467.5,-167 540.5,-167 540.5,-137 467.5,-137"/>
<text text-anchor="start" x="475.5" y="-155" font-family="Helvetica,sans-Serif" font-size="10.00" fill="#000000">sirius::Simulation</text>
<text text-anchor="middle" x="504" y="-144" font-family="Helvetica,sans-Serif" font-size="10.00" fill="#000000">_parameters</text>
</a>
</g>
</g>
<!-- Node6&#45;&gt;Node5 -->
<g id="edge4" class="edge">
<title>Node6&#45;&gt;Node5</title>
<path fill="none" stroke="#191970" d="M551.0782,-152.9649C622.3035,-155.1701 761.4063,-162.3934 877,-186 882.7691,-187.1782 888.8277,-188.628 894.7232,-190.1576"/>
<polygon fill="#191970" stroke="#191970" points="550.7553,-149.4542 540.6582,-152.6635 550.5528,-156.4513 550.7553,-149.4542"/>
</g>
<!-- Node23 -->
<g id="node22" class="node">
<title>Node23</title>
<g id="a_node22"><a xlink:href="../../d6/dd1/classsirius_1_1_unit__cell.html" target="_top" xlink:title="Representation of a unit cell. ">
<polygon fill="#ffffff" stroke="#000000" points="686,-218.5 686,-237.5 753,-237.5 753,-218.5 686,-218.5"/>
<text text-anchor="middle" x="719.5" y="-225.5" font-family="Helvetica,sans-Serif" font-size="10.00" fill="#000000">sirius::Unit_cell</text>
</a>
</g>
</g>
<!-- Node6&#45;&gt;Node23 -->
<g id="edge26" class="edge">
<title>Node6&#45;&gt;Node23</title>
<path fill="none" stroke="#9a32cd" stroke-dasharray="5,2" d="M550.312,-166.4955C580.3267,-176.0962 620.1759,-189.2302 655,-202 662.8781,-204.8889 681.2166,-212.3058 696.3337,-218.4819"/>
<polygon fill="#9a32cd" stroke="#9a32cd" points="551.1222,-163.0804 540.5316,-163.3807 548.9979,-169.7503 551.1222,-163.0804"/>
<text text-anchor="middle" x="612" y="-205" font-family="Helvetica,sans-Serif" font-size="10.00" fill="#000000"> parameters_</text>
</g>
<!-- Node7 -->
<g id="node6" class="node">
<title>Node7</title>
<g id="a_node6"><a xlink:href="../../d4/d6e/structsirius_1_1_parameters__input.html" target="_top" xlink:title="sirius::Parameters\l_input">
<polygon fill="#ffffff" stroke="#000000" points="260,-115 260,-145 337,-145 337,-115 260,-115"/>
<text text-anchor="start" x="268" y="-133" font-family="Helvetica,sans-Serif" font-size="10.00" fill="#000000">sirius::Parameters</text>
<text text-anchor="middle" x="298.5" y="-122" font-family="Helvetica,sans-Serif" font-size="10.00" fill="#000000">_input</text>
</a>
</g>
</g>
<!-- Node7&#45;&gt;Node6 -->
<g id="edge5" class="edge">
<title>Node7&#45;&gt;Node6</title>
<path fill="none" stroke="#9a32cd" stroke-dasharray="5,2" d="M347.0694,-132.7281C374.18,-134.5202 408.5326,-137.237 439,-141 448.2007,-142.1364 458.0864,-143.6549 467.3025,-145.1999"/>
<polygon fill="#9a32cd" stroke="#9a32cd" points="347.2603,-129.2332 337.0568,-132.0863 346.8124,-136.2189 347.2603,-129.2332"/>
<text text-anchor="middle" x="400" y="-144" font-family="Helvetica,sans-Serif" font-size="10.00" fill="#000000"> parameters_input_</text>
</g>
<!-- Node8 -->
<g id="node7" class="node">
<title>Node8</title>
<g id="a_node7"><a xlink:href="../../da/de3/structsirius_1_1_control__input.html" target="_top" xlink:title="Parse control input section. ">
<polygon fill="#ffffff" stroke="#000000" points="257,-76.5 257,-95.5 340,-95.5 340,-76.5 257,-76.5"/>
<text text-anchor="middle" x="298.5" y="-83.5" font-family="Helvetica,sans-Serif" font-size="10.00" fill="#000000">sirius::Control_input</text>
</a>
</g>
</g>
<!-- Node8&#45;&gt;Node6 -->
<g id="edge6" class="edge">
<title>Node8&#45;&gt;Node6</title>
<path fill="none" stroke="#9a32cd" stroke-dasharray="5,2" d="M350.1356,-95.0483C377.0737,-100.5349 410.3052,-108.5178 439,-119 452.1951,-123.8201 466.1678,-130.6644 477.763,-136.8713"/>
<polygon fill="#9a32cd" stroke="#9a32cd" points="350.6317,-91.5786 340.142,-93.0677 349.2708,-98.445 350.6317,-91.5786"/>
<text text-anchor="middle" x="400" y="-122" font-family="Helvetica,sans-Serif" font-size="10.00" fill="#000000"> control_input_</text>
</g>
<!-- Node9 -->
<g id="node8" class="node">
<title>Node9</title>
<g id="a_node8"><a xlink:href="../../d2/dcd/structsirius_1_1_hubbard__input.html" target="_top" xlink:title="sirius::Hubbard_input">
<polygon fill="#ffffff" stroke="#000000" points="255,-38.5 255,-57.5 342,-57.5 342,-38.5 255,-38.5"/>
<text text-anchor="middle" x="298.5" y="-45.5" font-family="Helvetica,sans-Serif" font-size="10.00" fill="#000000">sirius::Hubbard_input</text>
</a>
</g>
</g>
<!-- Node9&#45;&gt;Node6 -->
<g id="edge7" class="edge">
<title>Node9&#45;&gt;Node6</title>
<path fill="none" stroke="#9a32cd" stroke-dasharray="5,2" d="M352.2833,-54.0548C379.667,-58.9032 412.6472,-67.5704 439,-83 462.2915,-96.6372 482.4168,-121.1194 493.8737,-136.9547"/>
<polygon fill="#9a32cd" stroke="#9a32cd" points="352.5233,-50.5473 342.0877,-52.3775 351.3869,-57.4545 352.5233,-50.5473"/>
<text text-anchor="middle" x="400" y="-86" font-family="Helvetica,sans-Serif" font-size="10.00" fill="#000000"> hubbard_input_</text>
</g>
<!-- Node10 -->
<g id="node9" class="node">
<title>Node10</title>
<g id="a_node9"><a xlink:href="../../d6/de3/structsirius_1_1_settings__input.html" target="_top" xlink:title="Settings control the internal parameters related to the numerical implementation. ...">
<polygon fill="#ffffff" stroke="#000000" points="255.5,-.5 255.5,-19.5 341.5,-19.5 341.5,-.5 255.5,-.5"/>
<text text-anchor="middle" x="298.5" y="-7.5" font-family="Helvetica,sans-Serif" font-size="10.00" fill="#000000">sirius::Settings_input</text>
</a>
</g>
</g>
<!-- Node10&#45;&gt;Node6 -->
<g id="edge8" class="edge">
<title>Node10&#45;&gt;Node6</title>
<path fill="none" stroke="#9a32cd" stroke-dasharray="5,2" d="M351.9298,-10.3637C380.5725,-13.1579 414.838,-20.9959 439,-41 454.6432,-53.9513 447.238,-65.1914 457,-83 467.6596,-102.4461 482.3657,-123.2944 492.474,-136.9228"/>
<polygon fill="#9a32cd" stroke="#9a32cd" points="351.9063,-6.8509 341.6608,-9.5492 351.3528,-13.829 351.9063,-6.8509"/>
<text text-anchor="middle" x="400" y="-44" font-family="Helvetica,sans-Serif" font-size="10.00" fill="#000000"> settings_input_</text>
</g>
<!-- Node11 -->
<g id="node10" class="node">
<title>Node11</title>
<g id="a_node10"><a xlink:href="../../d7/d51/structsirius_1_1_unit__cell__input.html" target="_top" xlink:title="Parse unit cell input section. ">
<polygon fill="#ffffff" stroke="#000000" points="255,-252.5 255,-271.5 342,-271.5 342,-252.5 255,-252.5"/>
<text text-anchor="middle" x="298.5" y="-259.5" font-family="Helvetica,sans-Serif" font-size="10.00" fill="#000000">sirius::Unit_cell_input</text>
</a>
</g>
</g>
<!-- Node11&#45;&gt;Node6 -->
<g id="edge9" class="edge">
<title>Node11&#45;&gt;Node6</title>
<path fill="none" stroke="#9a32cd" stroke-dasharray="5,2" d="M351.851,-252.3357C379.2862,-245.7636 412.4451,-235.2362 439,-219 461.261,-205.3892 481.2309,-182.3982 492.9866,-167.2089"/>
<polygon fill="#9a32cd" stroke="#9a32cd" points="350.994,-248.9412 342.0251,-254.5813 352.5536,-255.7653 350.994,-248.9412"/>
<text text-anchor="middle" x="400" y="-252" font-family="Helvetica,sans-Serif" font-size="10.00" fill="#000000"> unit_cell_input_</text>
</g>
<!-- Node12 -->
<g id="node11" class="node">
<title>Node12</title>
<g id="a_node11"><a xlink:href="../../d2/d6b/classgeometry3d_1_1vector3d.html" target="_top" xlink:title="geometry3d::vector3d\l\&lt; double \&gt;">
<polygon fill="#ffffff" stroke="#000000" points="114,-247 114,-277 203,-277 203,-247 114,-247"/>
<text text-anchor="start" x="122" y="-265" font-family="Helvetica,sans-Serif" font-size="10.00" fill="#000000">geometry3d::vector3d</text>
<text text-anchor="middle" x="158.5" y="-254" font-family="Helvetica,sans-Serif" font-size="10.00" fill="#000000">&lt; double &gt;</text>
</a>
</g>
</g>
<!-- Node12&#45;&gt;Node11 -->
<g id="edge10" class="edge">
<title>Node12&#45;&gt;Node11</title>
<path fill="none" stroke="#9a32cd" stroke-dasharray="5,2" d="M213.4582,-262C227.1505,-262 241.6485,-262 254.7206,-262"/>
<polygon fill="#9a32cd" stroke="#9a32cd" points="213.1818,-258.5001 203.1818,-262 213.1818,-265.5001 213.1818,-258.5001"/>
<text text-anchor="middle" x="228.5" y="-287" font-family="Helvetica,sans-Serif" font-size="10.00" fill="#000000"> a2_</text>
<text text-anchor="middle" x="228.5" y="-276" font-family="Helvetica,sans-Serif" font-size="10.00" fill="#000000">a1_</text>
<text text-anchor="middle" x="228.5" y="-265" font-family="Helvetica,sans-Serif" font-size="10.00" fill="#000000">a0_</text>
</g>
<!-- Node13 -->
<g id="node12" class="node">
<title>Node13</title>
<polygon fill="#ffffff" stroke="#bfbfbf" points="0,-247 0,-277 77,-277 77,-247 0,-247"/>
<text text-anchor="start" x="8" y="-265" font-family="Helvetica,sans-Serif" font-size="10.00" fill="#000000">std::array&lt; double</text>
<text text-anchor="middle" x="38.5" y="-254" font-family="Helvetica,sans-Serif" font-size="10.00" fill="#000000"> , 3 &gt;</text>
</g>
<!-- Node13&#45;&gt;Node12 -->
<g id="edge11" class="edge">
<title>Node13&#45;&gt;Node12</title>
<path fill="none" stroke="#191970" d="M87.2034,-262C95.9552,-262 105.0396,-262 113.6751,-262"/>
<polygon fill="#191970" stroke="#191970" points="87.1293,-258.5001 77.1293,-262 87.1293,-265.5001 87.1293,-258.5001"/>
</g>
<!-- Node14 -->
<g id="node13" class="node">
<title>Node14</title>
<g id="a_node13"><a xlink:href="../../d2/d11/structsirius_1_1_iterative__solver__input.html" target="_top" xlink:title="sirius::Iterative_solver\l_input">
<polygon fill="#ffffff" stroke="#000000" points="254,-203 254,-233 343,-233 343,-203 254,-203"/>
<text text-anchor="start" x="262" y="-221" font-family="Helvetica,sans-Serif" font-size="10.00" fill="#000000">sirius::Iterative_solver</text>
<text text-anchor="middle" x="298.5" y="-210" font-family="Helvetica,sans-Serif" font-size="10.00" fill="#000000">_input</text>
</a>
</g>
</g>
<!-- Node14&#45;&gt;Node6 -->
<g id="edge12" class="edge">
<title>Node14&#45;&gt;Node6</title>
<path fill="none" stroke="#9a32cd" stroke-dasharray="5,2" d="M352.9024,-206.4923C379.2427,-200.3077 411.1251,-191.9112 439,-182 450.8276,-177.7946 463.44,-172.2379 474.377,-167.0507"/>
<polygon fill="#9a32cd" stroke="#9a32cd" points="352.0565,-203.0954 343.0986,-208.7528 353.6293,-209.9164 352.0565,-203.0954"/>
<text text-anchor="middle" x="400" y="-207" font-family="Helvetica,sans-Serif" font-size="10.00" fill="#000000"> iterative_solver_input_</text>
</g>
<!-- Node15 -->
<g id="node14" class="node">
<title>Node15</title>
<g id="a_node14"><a xlink:href="../../d4/db0/structsirius_1_1_mixer__input.html" target="_top" xlink:title="Parse mixer input section. ">
<polygon fill="#ffffff" stroke="#000000" points="260,-164.5 260,-183.5 337,-183.5 337,-164.5 260,-164.5"/>
<text text-anchor="middle" x="298.5" y="-171.5" font-family="Helvetica,sans-Serif" font-size="10.00" fill="#000000">sirius::Mixer_input</text>
</a>
</g>
</g>
<!-- Node15&#45;&gt;Node6 -->
<g id="edge13" class="edge">
<title>Node15&#45;&gt;Node6</title>
<path fill="none" stroke="#9a32cd" stroke-dasharray="5,2" d="M347.1669,-168.7899C383.9742,-164.8495 433.732,-159.5226 467.2478,-155.9345"/>
<polygon fill="#9a32cd" stroke="#9a32cd" points="346.7236,-165.3173 337.153,-169.862 347.4688,-172.2775 346.7236,-165.3173"/>
<text text-anchor="middle" x="400" y="-170" font-family="Helvetica,sans-Serif" font-size="10.00" fill="#000000"> mixer_input_</text>
</g>
<!-- Node16 -->
<g id="node15" class="node">
<title>Node16</title>
<g id="a_node15"><a xlink:href="../../d7/dab/classsddk_1_1mdarray.html" target="_top" xlink:title="sddk::mdarray\&lt; int, 2 \&gt;">
<polygon fill="#ffffff" stroke="#000000" points="673,-358.5 673,-377.5 766,-377.5 766,-358.5 673,-358.5"/>
<text text-anchor="middle" x="719.5" y="-365.5" font-family="Helvetica,sans-Serif" font-size="10.00" fill="#000000">sddk::mdarray&lt; int, 2 &gt;</text>
</a>
</g>
</g>
<!-- Node16&#45;&gt;Node5 -->
<g id="edge14" class="edge">
<title>Node16&#45;&gt;Node5</title>
<path fill="none" stroke="#9a32cd" stroke-dasharray="5,2" d="M756.7904,-354.7191C790.9811,-341.1637 841.5381,-317.504 877,-285 898.7856,-265.0315 915.6706,-234.5414 924.5566,-216.3094"/>
<polygon fill="#9a32cd" stroke="#9a32cd" points="755.2391,-351.5663 747.174,-358.4368 757.7633,-358.0954 755.2391,-351.5663"/>
<text text-anchor="middle" x="830.5" y="-346" font-family="Helvetica,sans-Serif" font-size="10.00" fill="#000000"> gvec_coord_</text>
</g>
<!-- Node17 -->
<g id="node16" class="node">
<title>Node17</title>
<g id="a_node16"><a xlink:href="../../d0/d58/classsddk_1_1mdarray__base.html" target="_top" xlink:title="sddk::mdarray_base\l\&lt; int, N \&gt;">
<polygon fill="#ffffff" stroke="#000000" points="462,-375 462,-405 546,-405 546,-375 462,-375"/>
<text text-anchor="start" x="470" y="-393" font-family="Helvetica,sans-Serif" font-size="10.00" fill="#000000">sddk::mdarray_base</text>
<text text-anchor="middle" x="504" y="-382" font-family="Helvetica,sans-Serif" font-size="10.00" fill="#000000">&lt; int, N &gt;</text>
</a>
</g>
</g>
<!-- Node17&#45;&gt;Node16 -->
<g id="edge15" class="edge">
<title>Node17&#45;&gt;Node16</title>
<path fill="none" stroke="#191970" d="M556.2362,-384.6673C591.7614,-381.0406 638.3629,-376.2831 672.6806,-372.7797"/>
<polygon fill="#191970" stroke="#191970" points="555.6549,-381.2084 546.0621,-385.706 556.3659,-388.1722 555.6549,-381.2084"/>
</g>
<!-- Node26 -->
<g id="node25" class="node">
<title>Node26</title>
<g id="a_node25"><a xlink:href="../../d7/dab/classsddk_1_1mdarray.html" target="_top" xlink:title="sddk::mdarray\&lt; int, 1 \&gt;">
<polygon fill="#ffffff" stroke="#000000" points="784,-389.5 784,-408.5 877,-408.5 877,-389.5 784,-389.5"/>
<text text-anchor="middle" x="830.5" y="-396.5" font-family="Helvetica,sans-Serif" font-size="10.00" fill="#000000">sddk::mdarray&lt; int, 1 &gt;</text>
</a>
</g>
</g>
<!-- Node17&#45;&gt;Node26 -->
<g id="edge28" class="edge">
<title>Node17&#45;&gt;Node26</title>
<path fill="none" stroke="#191970" d="M556.3058,-391.6276C560.6003,-391.7557 564.8738,-391.8813 569,-392 644.1317,-394.1614 731.4123,-396.4538 783.733,-397.8045"/>
<polygon fill="#191970" stroke="#191970" points="556.4075,-388.1292 546.3066,-391.3262 556.1966,-395.126 556.4075,-388.1292"/>
</g>
<!-- Node18 -->
<g id="node17" class="node">
<title>Node18</title>
<g id="a_node17"><a xlink:href="../../d0/dc8/classsddk_1_1memory__pool.html" target="_top" xlink:title="sddk::memory_pool">
<polygon fill="#ffffff" stroke="#000000" points="678.5,-180.5 678.5,-199.5 760.5,-199.5 760.5,-180.5 678.5,-180.5"/>
<text text-anchor="middle" x="719.5" y="-187.5" font-family="Helvetica,sans-Serif" font-size="10.00" fill="#000000">sddk::memory_pool</text>
</a>
</g>
</g>
<!-- Node18&#45;&gt;Node5 -->
<g id="edge16" class="edge">
<title>Node18&#45;&gt;Node5</title>
<path fill="none" stroke="#9a32cd" stroke-dasharray="5,2" d="M770.7791,-189.3383C801.6142,-189.3479 841.6152,-190.0778 877,-193 882.8138,-193.4801 888.9513,-194.1857 894.9282,-194.9819"/>
<polygon fill="#9a32cd" stroke="#9a32cd" points="770.6855,-185.8384 760.6933,-189.3605 770.701,-192.8384 770.6855,-185.8384"/>
<text text-anchor="middle" x="830.5" y="-196" font-family="Helvetica,sans-Serif" font-size="10.00" fill="#000000"> memory_pool_</text>
</g>
<!-- Node19 -->
<g id="node18" class="node">
<title>Node19</title>
<g id="a_node18"><a xlink:href="../../d7/dab/classsddk_1_1mdarray.html" target="_top" xlink:title="sddk::mdarray\&lt; double\l_complex, 3 \&gt;">
<polygon fill="#ffffff" stroke="#000000" points="673,-93 673,-123 766,-123 766,-93 673,-93"/>
<text text-anchor="start" x="681" y="-111" font-family="Helvetica,sans-Serif" font-size="10.00" fill="#000000">sddk::mdarray&lt; double</text>
<text text-anchor="middle" x="719.5" y="-100" font-family="Helvetica,sans-Serif" font-size="10.00" fill="#000000">_complex, 3 &gt;</text>
</a>
</g>
</g>
<!-- Node19&#45;&gt;Node5 -->
<g id="edge17" class="edge">
<title>Node19&#45;&gt;Node5</title>
<path fill="none" stroke="#9a32cd" stroke-dasharray="5,2" d="M776.0895,-98.7675C807.785,-96.4383 846.8692,-98.5194 877,-116 903.6865,-131.4823 919.4388,-165.8522 926.6779,-185.8215"/>
<polygon fill="#9a32cd" stroke="#9a32cd" points="775.7266,-95.2859 766.0791,-99.6648 776.3516,-102.258 775.7266,-95.2859"/>
<text text-anchor="middle" x="830.5" y="-130" font-family="Helvetica,sans-Serif" font-size="10.00" fill="#000000"> sym_phase_factors_</text>
<text text-anchor="middle" x="830.5" y="-119" font-family="Helvetica,sans-Serif" font-size="10.00" fill="#000000">phase_factors_</text>
</g>
<!-- Node20 -->
<g id="node19" class="node">
<title>Node20</title>
<g id="a_node19"><a xlink:href="../../d0/d58/classsddk_1_1mdarray__base.html" target="_top" xlink:title="sddk::mdarray_base\l\&lt; double_complex, N \&gt;">
<polygon fill="#ffffff" stroke="#000000" points="457,-44 457,-74 551,-74 551,-44 457,-44"/>
<text text-anchor="start" x="465" y="-62" font-family="Helvetica,sans-Serif" font-size="10.00" fill="#000000">sddk::mdarray_base</text>
<text text-anchor="middle" x="504" y="-51" font-family="Helvetica,sans-Serif" font-size="10.00" fill="#000000">&lt; double_complex, N &gt;</text>
</a>
</g>
</g>
<!-- Node20&#45;&gt;Node19 -->
<g id="edge18" class="edge">
<title>Node20&#45;&gt;Node19</title>
<path fill="none" stroke="#191970" d="M561.0814,-71.9791C596.0111,-79.9213 640.139,-89.955 672.945,-97.4144"/>
<polygon fill="#191970" stroke="#191970" points="561.5532,-68.4971 551.0261,-69.6927 560.0012,-75.3229 561.5532,-68.4971"/>
</g>
<!-- Node21 -->
<g id="node20" class="node">
<title>Node21</title>
<g id="a_node20"><a xlink:href="../../d7/dab/classsddk_1_1mdarray.html" target="_top" xlink:title="sddk::mdarray\&lt; double\l_complex, 2 \&gt;">
<polygon fill="#ffffff" stroke="#000000" points="673,-44 673,-74 766,-74 766,-44 673,-44"/>
<text text-anchor="start" x="681" y="-62" font-family="Helvetica,sans-Serif" font-size="10.00" fill="#000000">sddk::mdarray&lt; double</text>
<text text-anchor="middle" x="719.5" y="-51" font-family="Helvetica,sans-Serif" font-size="10.00" fill="#000000">_complex, 2 &gt;</text>
</a>
</g>
</g>
<!-- Node20&#45;&gt;Node21 -->
<g id="edge20" class="edge">
<title>Node20&#45;&gt;Node21</title>
<path fill="none" stroke="#191970" d="M561.0814,-59C596.0111,-59 640.139,-59 672.945,-59"/>
<polygon fill="#191970" stroke="#191970" points="561.0261,-55.5001 551.0261,-59 561.0261,-62.5001 561.0261,-55.5001"/>
</g>
<!-- Node27 -->
<g id="node26" class="node">
<title>Node27</title>
<g id="a_node26"><a xlink:href="../../d7/dab/classsddk_1_1mdarray.html" target="_top" xlink:title="sddk::mdarray\&lt; double\l_complex, 4 \&gt;">
<polygon fill="#ffffff" stroke="#000000" points="986,-111 986,-141 1079,-141 1079,-111 986,-111"/>
<text text-anchor="start" x="994" y="-129" font-family="Helvetica,sans-Serif" font-size="10.00" fill="#000000">sddk::mdarray&lt; double</text>
<text text-anchor="middle" x="1032.5" y="-118" font-family="Helvetica,sans-Serif" font-size="10.00" fill="#000000">_complex, 4 &gt;</text>
</a>
</g>
</g>
<!-- Node20&#45;&gt;Node27 -->
<g id="edge30" class="edge">
<title>Node20&#45;&gt;Node27</title>
<path fill="none" stroke="#191970" d="M561.4057,-46.9326C636.0342,-33.6974 769.5277,-18.4643 877,-52 924.8051,-66.9171 976.623,-93.9935 1006.737,-110.9315"/>
<polygon fill="#191970" stroke="#191970" points="560.4838,-43.543 551.2747,-48.7816 561.7407,-50.4292 560.4838,-43.543"/>
</g>
<!-- Node21&#45;&gt;Node5 -->
<g id="edge19" class="edge">
<title>Node21&#45;&gt;Node5</title>
<path fill="none" stroke="#9a32cd" stroke-dasharray="5,2" d="M776.5846,-55.0344C808.9671,-55.6701 848.5725,-61.6275 877,-83 910.9089,-108.4936 924.4063,-160.1817 929.1843,-185.8422"/>
<polygon fill="#9a32cd" stroke="#9a32cd" points="776.3589,-51.5338 766.3479,-55.0022 776.3368,-58.5337 776.3589,-51.5338"/>
<text text-anchor="middle" x="830.5" y="-86" font-family="Helvetica,sans-Serif" font-size="10.00" fill="#000000"> phase_factors_t_</text>
</g>
<!-- Node22 -->
<g id="node21" class="node">
<title>Node22</title>
<g id="a_node21"><a xlink:href="../../da/d70/classsddk_1_1_communicator.html" target="_top" xlink:title="MPI communicator wrapper. ">
<polygon fill="#ffffff" stroke="#000000" points="461.5,-289.5 461.5,-308.5 546.5,-308.5 546.5,-289.5 461.5,-289.5"/>
<text text-anchor="middle" x="504" y="-296.5" font-family="Helvetica,sans-Serif" font-size="10.00" fill="#000000">sddk::Communicator</text>
</a>
</g>
</g>
<!-- Node22&#45;&gt;Node5 -->
<g id="edge21" class="edge">
<title>Node22&#45;&gt;Node5</title>
<path fill="none" stroke="#9a32cd" stroke-dasharray="5,2" d="M556.8642,-307.2326C586.575,-309.7709 623.8365,-309.3996 655,-298 664.7799,-294.4225 663.6931,-287.6719 673,-283 756.335,-241.1671 790.7598,-269.4589 877,-234 888.4578,-229.289 900.3217,-222.3837 910.0432,-216.1058"/>
<polygon fill="#9a32cd" stroke="#9a32cd" points="556.9883,-303.7279 546.6924,-306.2268 556.2994,-310.6939 556.9883,-303.7279"/>
<text text-anchor="middle" x="719.5" y="-341" font-family="Helvetica,sans-Serif" font-size="10.00" fill="#000000"> comm_ortho_fft_</text>
<text text-anchor="start" x="680" y="-330" font-family="Helvetica,sans-Serif" font-size="10.00" fill="#000000">comm_ortho_fft_coarse</text>
<text text-anchor="middle" x="719.5" y="-319" font-family="Helvetica,sans-Serif" font-size="10.00" fill="#000000">_</text>
<text text-anchor="start" x="680" y="-308" font-family="Helvetica,sans-Serif" font-size="10.00" fill="#000000">comm_band_ortho</text>
<text text-anchor="middle" x="719.5" y="-297" font-family="Helvetica,sans-Serif" font-size="10.00" fill="#000000">_fft_coarse_</text>
<text text-anchor="middle" x="719.5" y="-286" font-family="Helvetica,sans-Serif" font-size="10.00" fill="#000000">comm_</text>
</g>
<!-- Node22&#45;&gt;Node23 -->
<g id="edge25" class="edge">
<title>Node22&#45;&gt;Node23</title>
<path fill="none" stroke="#9a32cd" stroke-dasharray="5,2" d="M556.6241,-288.8896C592.8342,-281.5378 637.4443,-271.5862 655,-264 663.826,-260.1861 664.7152,-256.8791 673,-252 681.6109,-246.9288 691.4072,-241.7845 699.7803,-237.5663"/>
<polygon fill="#9a32cd" stroke="#9a32cd" points="555.7783,-285.4895 546.6632,-290.8901 557.1566,-292.3525 555.7783,-285.4895"/>
<text text-anchor="middle" x="612" y="-288" font-family="Helvetica,sans-Serif" font-size="10.00" fill="#000000"> comm_</text>
</g>
<!-- Node23&#45;&gt;Node2 -->
<g id="edge31" class="edge">
<title>Node23&#45;&gt;Node2</title>
<path fill="none" stroke="#9a32cd" stroke-dasharray="5,2" d="M755.8982,-242.7857C759.678,-245.4273 763.1655,-248.4833 766,-252 785.3495,-276.0065 760.4466,-299.1014 784,-319 834.302,-361.4966 865.6498,-333 931.5,-333 931.5,-333 931.5,-333 1293,-333 1316.1041,-333 1342.1019,-330.873 1361.8667,-328.8126"/>
<polygon fill="#9a32cd" stroke="#9a32cd" points="757.6762,-239.7709 747.2964,-237.6469 754.0861,-245.7802 757.6762,-239.7709"/>
<text text-anchor="middle" x="1133.5" y="-336" font-family="Helvetica,sans-Serif" font-size="10.00" fill="#000000"> unit_cell_</text>
</g>
<!-- Node23&#45;&gt;Node5 -->
<g id="edge22" class="edge">
<title>Node23&#45;&gt;Node5</title>
<path fill="none" stroke="#9a32cd" stroke-dasharray="5,2" d="M763.0726,-222.4507C801.9562,-217.4985 858.2517,-210.3288 894.8645,-205.6658"/>
<polygon fill="#9a32cd" stroke="#9a32cd" points="762.5697,-218.9863 753.092,-223.7218 763.4541,-225.9303 762.5697,-218.9863"/>
<text text-anchor="middle" x="830.5" y="-222" font-family="Helvetica,sans-Serif" font-size="10.00" fill="#000000"> unit_cell_</text>
</g>
<!-- Node24 -->
<g id="node23" class="node">
<title>Node24</title>
<g id="a_node23"><a xlink:href="../../d2/dc9/classsddk_1_1splindex.html" target="_top" xlink:title="sddk::splindex\&lt; block \&gt;">
<polygon fill="#ffffff" stroke="#000000" points="457,-224.5 457,-243.5 551,-243.5 551,-224.5 457,-224.5"/>
<text text-anchor="middle" x="504" y="-231.5" font-family="Helvetica,sans-Serif" font-size="10.00" fill="#000000">sddk::splindex&lt; block &gt;</text>
</a>
</g>
</g>
<!-- Node24&#45;&gt;Node23 -->
<g id="edge23" class="edge">
<title>Node24&#45;&gt;Node23</title>
<path fill="none" stroke="#9a32cd" stroke-dasharray="5,2" d="M551.8238,-222.5012C557.5824,-221.4724 563.4042,-220.5958 569,-220 607.0074,-215.9533 616.8505,-217.6432 655,-220 665.0234,-220.6192 675.8732,-221.7748 685.7633,-223.019"/>
<polygon fill="#9a32cd" stroke="#9a32cd" points="550.7376,-219.1467 541.5887,-224.4897 552.0727,-226.0182 550.7376,-219.1467"/>
<text text-anchor="middle" x="612" y="-256" font-family="Helvetica,sans-Serif" font-size="10.00" fill="#000000"> spl_num_paw_atoms_</text>
<text text-anchor="middle" x="612" y="-245" font-family="Helvetica,sans-Serif" font-size="10.00" fill="#000000">spl_num_atoms_</text>
<text text-anchor="start" x="569" y="-234" font-family="Helvetica,sans-Serif" font-size="10.00" fill="#000000">spl_num_atom_symmetry</text>
<text text-anchor="middle" x="612" y="-223" font-family="Helvetica,sans-Serif" font-size="10.00" fill="#000000">_classes_</text>
</g>
<!-- Node25 -->
<g id="node24" class="node">
<title>Node25</title>
<g id="a_node24"><a xlink:href="../../d6/dec/classsddk_1_1splindex__base.html" target="_top" xlink:title="sddk::splindex_base\l\&lt; int \&gt;">
<polygon fill="#ffffff" stroke="#000000" points="256.5,-291 256.5,-321 340.5,-321 340.5,-291 256.5,-291"/>
<text text-anchor="start" x="264.5" y="-309" font-family="Helvetica,sans-Serif" font-size="10.00" fill="#000000">sddk::splindex_base</text>
<text text-anchor="middle" x="298.5" y="-298" font-family="Helvetica,sans-Serif" font-size="10.00" fill="#000000">&lt; int &gt;</text>
</a>
</g>
</g>
<!-- Node25&#45;&gt;Node24 -->
<g id="edge24" class="edge">
<title>Node25&#45;&gt;Node24</title>
<path fill="none" stroke="#191970" d="M350.6904,-297.1452C377.646,-291.6365 410.7242,-283.3997 439,-272 457.6701,-264.4729 477.3998,-252.2505 490.1579,-243.7057"/>
<polygon fill="#191970" stroke="#191970" points="349.8133,-293.7508 340.6819,-299.1238 351.1709,-300.6179 349.8133,-293.7508"/>
</g>
<!-- Node26&#45;&gt;Node2 -->
<g id="edge27" class="edge">
<title>Node26&#45;&gt;Node2</title>
<path fill="none" stroke="#9a32cd" stroke-dasharray="5,2" d="M887.2321,-396.4146C927.7104,-394.79 983.4414,-393 1032.5,-393 1032.5,-393 1032.5,-393 1293,-393 1334.0798,-393 1370.8888,-353.5453 1386.0981,-334.7427"/>
<polygon fill="#9a32cd" stroke="#9a32cd" points="886.8705,-392.9265 877.0225,-396.8339 887.1577,-399.9206 886.8705,-392.9265"/>
<text text-anchor="middle" x="1133.5" y="-396" font-family="Helvetica,sans-Serif" font-size="10.00" fill="#000000"> l_by_lm_</text>
</g>
<!-- Node27&#45;&gt;Node2 -->
<g id="edge29" class="edge">
<title>Node27&#45;&gt;Node2</title>
<path fill="none" stroke="#9a32cd" stroke-dasharray="5,2" d="M1083.3659,-144.8121C1143.6208,-168.2425 1245.804,-211.6379 1325,-264 1348.3788,-279.4574 1371.9887,-302.4929 1384.4618,-315.3806"/>
<polygon fill="#9a32cd" stroke="#9a32cd" points="1084.2933,-141.4186 1073.7037,-141.0865 1081.7749,-147.9499 1084.2933,-141.4186"/>
<text text-anchor="middle" x="1215.5" y="-218" font-family="Helvetica,sans-Serif" font-size="10.00" fill="#000000"> density_matrix_</text>
</g>
</g>
</svg>
        <g id="navigator" transform="translate(0 0)" fill="#404254">
                <rect fill="#f2f5e9" fill-opacity="0.5" stroke="#606060" stroke-width=".5" x="0" y="0" width="60" height="60"/>
                <use id="zoomplus" xlink:href="#zoomPlus" x="17" y="9" onmousedown="handleZoom(evt,'in')"/>
                <use id="zoomminus" xlink:href="#zoomMin" x="42" y="9" onmousedown="handleZoom(evt,'out')"/>
                <use id="reset" xlink:href="#resetDef" x="30" y="36" onmousedown="handleReset()"/>
                <g id="arrowUp" xlink:href="#dirArrow" transform="translate(30 24)" onmousedown="handlePan(0,-1)">
                  <use xlink:href="#rim" fill="#404040">
                        <set attributeName="fill" to="#808080" begin="arrowUp.mouseover" end="arrowUp.mouseout"/>
                  </use>
                  <path fill="none" stroke="white" stroke-width="1.5" d="M0,-3.0v7 M-2.5,-0.5L0,-3.0L2.5,-0.5"/>
                </g>
                <g id="arrowRight" xlink:href="#dirArrow" transform="rotate(90) translate(36 -43)" onmousedown="handlePan(1,0)">
                  <use xlink:href="#rim" fill="#404040">
                        <set attributeName="fill" to="#808080" begin="arrowRight.mouseover" end="arrowRight.mouseout"/>
                  </use>
                  <path fill="none" stroke="white" stroke-width="1.5" d="M0,-3.0v7 M-2.5,-0.5L0,-3.0L2.5,-0.5"/>
                </g>
                <g id="arrowDown" xlink:href="#dirArrow" transform="rotate(180) translate(-30 -48)" onmousedown="handlePan(0,1)">
                  <use xlink:href="#rim" fill="#404040">
                        <set attributeName="fill" to="#808080" begin="arrowDown.mouseover" end="arrowDown.mouseout"/>
                  </use>
                  <path fill="none" stroke="white" stroke-width="1.5" d="M0,-3.0v7 M-2.5,-0.5L0,-3.0L2.5,-0.5"/>
                </g>
                <g id="arrowLeft" xlink:href="#dirArrow" transform="rotate(270) translate(-36 17)" onmousedown="handlePan(-1,0)">
                  <use xlink:href="#rim" fill="#404040">
                        <set attributeName="fill" to="#808080" begin="arrowLeft.mouseover" end="arrowLeft.mouseout"/>
                  </use>
                  <path fill="none" stroke="white" stroke-width="1.5" d="M0,-3.0v7 M-2.5,-0.5L0,-3.0L2.5,-0.5"/>
                </g>
        </g>
        <svg viewBox="0 0 15 15" width="100%" height="30px" preserveAspectRatio="xMaxYMin meet">
         <g id="arrow_out" transform="scale(0.3 0.3)">
          <a xlink:href="classsirius_1_1_density__coll__graph_org.svg" target="_base">
           <rect id="button" ry="5" rx="5" y="6" x="6" height="38" width="38"
                fill="#f2f5e9" fill-opacity="0.5" stroke="#606060" stroke-width="1.0"/>
           <path id="arrow"
             d="M 11.500037,31.436501 C 11.940474,20.09759 22.043105,11.32322 32.158766,21.979434 L 37.068811,17.246167 C 37.068811,17.246167 37.088388,32 37.088388,32 L 22.160133,31.978069 C 22.160133,31.978069 26.997745,27.140456 26.997745,27.140456 C 18.528582,18.264221 13.291696,25.230495 11.500037,31.436501 z"
             style="fill:#404040;"/>
          </a>
         </g>
        </svg>
</svg>
