<?xml version="1.0" encoding="UTF-8" standalone="no"?>
<!DOCTYPE svg PUBLIC "-//W3C//DTD SVG 1.1//EN"
 "http://www.w3.org/Graphics/SVG/1.1/DTD/svg11.dtd">
<!-- Generated by graphviz version 2.40.1 (20161225.0304)
 -->
<!-- Title: sirius::Density Pages: 1 -->
<svg width="1584pt" height="596pt"
 viewBox="0.00 0.00 1584.00 596.00" xmlns="http://www.w3.org/2000/svg" xmlns:xlink="http://www.w3.org/1999/xlink">
<g id="graph0" class="graph" transform="scale(1 1) rotate(0) translate(4 592)">
<title>sirius::Density</title>
<polygon fill="#ffffff" stroke="transparent" points="-4,4 -4,-592 1580,-592 1580,4 -4,4"/>
<!-- Node2 -->
<g id="node1" class="node">
<title>Node2</title>
<polygon fill="#bfbfbf" stroke="#000000" points="1497,-255 1497,-274 1576,-274 1576,-255 1497,-255"/>
<text text-anchor="middle" x="1536.5" y="-262" font-family="Helvetica,sans-Serif" font-size="10.00" fill="#000000">sirius::Density</text>
</g>
<!-- Node3 -->
<g id="node2" class="node">
<title>Node3</title>
<g id="a_node2"><a xlink:href="../../d3/d1f/classsirius_1_1_field4_d.html" target="_top" xlink:title="sirius::Field4D">
<polygon fill="#ffffff" stroke="#000000" points="1289,-255 1289,-274 1369,-274 1369,-255 1289,-255"/>
<text text-anchor="middle" x="1329" y="-262" font-family="Helvetica,sans-Serif" font-size="10.00" fill="#000000">sirius::Field4D</text>
</a>
</g>
</g>
<!-- Node3&#45;&gt;Node2 -->
<g id="edge1" class="edge">
<title>Node3&#45;&gt;Node2</title>
<path fill="none" stroke="#191970" d="M1379.3423,-264.5C1415.4995,-264.5 1463.5556,-264.5 1496.9671,-264.5"/>
<polygon fill="#191970" stroke="#191970" points="1379.0081,-261.0001 1369.0081,-264.5 1379.0081,-268.0001 1379.0081,-261.0001"/>
</g>
<!-- Node4 -->
<g id="node3" class="node">
<title>Node4</title>
<g id="a_node3"><a xlink:href="../../d6/d66/classsirius_1_1_simulation__context.html" target="_top" xlink:title="Simulation context is a set of parameters and objects describing a single simulation. ">
<polygon fill="#ffffff" stroke="#000000" points="1096,-181.5 1096,-211.5 1188,-211.5 1188,-181.5 1096,-181.5"/>
<text text-anchor="start" x="1104" y="-199.5" font-family="Helvetica,sans-Serif" font-size="10.00" fill="#000000">sirius::Simulation</text>
<text text-anchor="middle" x="1142" y="-188.5" font-family="Helvetica,sans-Serif" font-size="10.00" fill="#000000">_context</text>
</a>
</g>
</g>
<!-- Node4&#45;&gt;Node3 -->
<g id="edge2" class="edge">
<title>Node4&#45;&gt;Node3</title>
<path fill="none" stroke="#9a32cd" stroke-dasharray="5,2" d="M1190.6287,-215.1528C1214.4805,-224.1951 1243.6747,-235.1048 1270,-244.5 1279.7788,-247.99 1290.5204,-251.6749 1300.1275,-254.9179"/>
<polygon fill="#9a32cd" stroke="#9a32cd" points="1191.6868,-211.8107 1181.0957,-211.5305 1189.2004,-218.3543 1191.6868,-211.8107"/>
<text text-anchor="middle" x="1229" y="-240.5" font-family="Helvetica,sans-Serif" font-size="10.00" fill="#000000"> ctx_</text>
</g>
<!-- Node5 -->
<g id="node4" class="node">
<title>Node5</title>
<g id="a_node4"><a xlink:href="../../d0/d04/classsirius_1_1_simulation__parameters.html" target="_top" xlink:title="Set of basic parameters of a simulation. ">
<polygon fill="#ffffff" stroke="#000000" points="569,-387.5 569,-417.5 661,-417.5 661,-387.5 569,-387.5"/>
<text text-anchor="start" x="577" y="-405.5" font-family="Helvetica,sans-Serif" font-size="10.00" fill="#000000">sirius::Simulation</text>
<text text-anchor="middle" x="615" y="-394.5" font-family="Helvetica,sans-Serif" font-size="10.00" fill="#000000">_parameters</text>
</a>
</g>
</g>
<!-- Node5&#45;&gt;Node4 -->
<g id="edge3" class="edge">
<title>Node5&#45;&gt;Node4</title>
<path fill="none" stroke="#191970" d="M671.2568,-407.8104C766.9133,-413.6157 962.1281,-411.0249 1078,-309.5 1109.2022,-282.1612 1128.6137,-235.746 1137.0646,-211.7999"/>
<polygon fill="#191970" stroke="#191970" points="671.4145,-404.3133 661.2056,-407.1468 670.9533,-411.2981 671.4145,-404.3133"/>
</g>
<!-- Node21 -->
<g id="node20" class="node">
<title>Node21</title>
<g id="a_node20"><a xlink:href="../../d6/dd1/classsirius_1_1_unit__cell.html" target="_top" xlink:title="Representation of a unit cell. ">
<polygon fill="#ffffff" stroke="#000000" points="853,-327 853,-346 937,-346 937,-327 853,-327"/>
<text text-anchor="middle" x="895" y="-334" font-family="Helvetica,sans-Serif" font-size="10.00" fill="#000000">sirius::Unit_cell</text>
</a>
</g>
</g>
<!-- Node5&#45;&gt;Node21 -->
<g id="edge23" class="edge">
<title>Node5&#45;&gt;Node21</title>
<path fill="none" stroke="#9a32cd" stroke-dasharray="5,2" d="M668.6505,-384.431C676.7661,-381.9519 685.0734,-379.5559 693,-377.5 743.4538,-364.4136 756.923,-364.8914 808,-354.5 822.661,-351.5173 838.7023,-348.2106 852.973,-345.2538"/>
<polygon fill="#9a32cd" stroke="#9a32cd" points="667.3879,-381.1585 658.8847,-387.4788 669.4733,-387.8406 667.3879,-381.1585"/>
<text text-anchor="middle" x="750.5" y="-380.5" font-family="Helvetica,sans-Serif" font-size="10.00" fill="#000000"> parameters_</text>
</g>
<!-- Node6 -->
<g id="node5" class="node">
<title>Node6</title>
<g id="a_node5"><a xlink:href="../../d4/d6e/structsirius_1_1_parameters__input.html" target="_top" xlink:title="Parse parameters input section. ">
<polygon fill="#ffffff" stroke="#000000" points="311,-469.5 311,-499.5 408,-499.5 408,-469.5 311,-469.5"/>
<text text-anchor="start" x="319" y="-487.5" font-family="Helvetica,sans-Serif" font-size="10.00" fill="#000000">sirius::Parameters</text>
<text text-anchor="middle" x="359.5" y="-476.5" font-family="Helvetica,sans-Serif" font-size="10.00" fill="#000000">_input</text>
</a>
</g>
</g>
<!-- Node6&#45;&gt;Node5 -->
<g id="edge4" class="edge">
<title>Node6&#45;&gt;Node5</title>
<path fill="none" stroke="#9a32cd" stroke-dasharray="5,2" d="M418.205,-476.5173C453.4105,-470.6133 498.6454,-461.0355 537,-446.5 556.7725,-439.0067 577.5504,-427.057 592.6851,-417.5007"/>
<polygon fill="#9a32cd" stroke="#9a32cd" points="417.3988,-473.1023 408.0888,-478.1595 418.5205,-480.0118 417.3988,-473.1023"/>
<text text-anchor="middle" x="485.5" y="-475.5" font-family="Helvetica,sans-Serif" font-size="10.00" fill="#000000"> parameters_input_</text>
</g>
<!-- Node7 -->
<g id="node6" class="node">
<title>Node7</title>
<g id="a_node6"><a xlink:href="../../da/de3/structsirius_1_1_control__input.html" target="_top" xlink:title="Parse control input section. ">
<polygon fill="#ffffff" stroke="#000000" points="307,-431 307,-450 412,-450 412,-431 307,-431"/>
<text text-anchor="middle" x="359.5" y="-438" font-family="Helvetica,sans-Serif" font-size="10.00" fill="#000000">sirius::Control_input</text>
</a>
</g>
</g>
<!-- Node7&#45;&gt;Node5 -->
<g id="edge5" class="edge">
<title>Node7&#45;&gt;Node5</title>
<path fill="none" stroke="#9a32cd" stroke-dasharray="5,2" d="M422.3105,-433.3102C456.3287,-429.1774 499.0484,-423.6022 537,-417.5 547.3473,-415.8363 558.4255,-413.8384 568.8885,-411.8513"/>
<polygon fill="#9a32cd" stroke="#9a32cd" points="421.5574,-429.8755 412.0474,-434.5455 422.394,-436.8253 421.5574,-429.8755"/>
<text text-anchor="middle" x="485.5" y="-434.5" font-family="Helvetica,sans-Serif" font-size="10.00" fill="#000000"> control_input_</text>
</g>
<!-- Node8 -->
<g id="node7" class="node">
<title>Node8</title>
<g id="a_node7"><a xlink:href="../../d2/dcd/structsirius_1_1_hubbard__input.html" target="_top" xlink:title="sirius::Hubbard_input">
<polygon fill="#ffffff" stroke="#000000" points="304,-393 304,-412 415,-412 415,-393 304,-393"/>
<text text-anchor="middle" x="359.5" y="-400" font-family="Helvetica,sans-Serif" font-size="10.00" fill="#000000">sirius::Hubbard_input</text>
</a>
</g>
</g>
<!-- Node8&#45;&gt;Node5 -->
<g id="edge6" class="edge">
<title>Node8&#45;&gt;Node5</title>
<path fill="none" stroke="#9a32cd" stroke-dasharray="5,2" d="M425.4927,-402.5C470.4123,-402.5 528.7465,-402.5 568.7604,-402.5"/>
<polygon fill="#9a32cd" stroke="#9a32cd" points="425.2549,-399.0001 415.2548,-402.5 425.2548,-406.0001 425.2549,-399.0001"/>
<text text-anchor="middle" x="485.5" y="-405.5" font-family="Helvetica,sans-Serif" font-size="10.00" fill="#000000"> hubbard_input_</text>
</g>
<!-- Node9 -->
<g id="node8" class="node">
<title>Node9</title>
<g id="a_node8"><a xlink:href="../../d6/de3/structsirius_1_1_settings__input.html" target="_top" xlink:title="Settings control the internal parameters related to the numerical implementation. ...">
<polygon fill="#ffffff" stroke="#000000" points="305,-355 305,-374 414,-374 414,-355 305,-355"/>
<text text-anchor="middle" x="359.5" y="-362" font-family="Helvetica,sans-Serif" font-size="10.00" fill="#000000">sirius::Settings_input</text>
</a>
</g>
</g>
<!-- Node9&#45;&gt;Node5 -->
<g id="edge7" class="edge">
<title>Node9&#45;&gt;Node5</title>
<path fill="none" stroke="#9a32cd" stroke-dasharray="5,2" d="M424.1883,-371.9183C457.8919,-376.027 499.7435,-381.5096 537,-387.5 547.3473,-389.1637 558.4255,-391.1616 568.8885,-393.1487"/>
<polygon fill="#9a32cd" stroke="#9a32cd" points="424.3518,-368.4127 414.0042,-370.6883 423.5124,-375.3622 424.3518,-368.4127"/>
<text text-anchor="middle" x="485.5" y="-390.5" font-family="Helvetica,sans-Serif" font-size="10.00" fill="#000000"> settings_input_</text>
</g>
<!-- Node10 -->
<g id="node9" class="node">
<title>Node10</title>
<g id="a_node9"><a xlink:href="../../d7/d51/structsirius_1_1_unit__cell__input.html" target="_top" xlink:title="Parse unit cell input section. ">
<polygon fill="#ffffff" stroke="#000000" points="304,-317 304,-336 415,-336 415,-317 304,-317"/>
<text text-anchor="middle" x="359.5" y="-324" font-family="Helvetica,sans-Serif" font-size="10.00" fill="#000000">sirius::Unit_cell_input</text>
</a>
</g>
</g>
<!-- Node10&#45;&gt;Node5 -->
<g id="edge8" class="edge">
<title>Node10&#45;&gt;Node5</title>
<path fill="none" stroke="#9a32cd" stroke-dasharray="5,2" d="M425.4699,-332.4504C459.5174,-336.9019 501.2898,-344.5419 537,-357.5 557.2806,-364.8591 578.362,-377.3607 593.4876,-387.322"/>
<polygon fill="#9a32cd" stroke="#9a32cd" points="425.5223,-328.93 415.1667,-331.1688 424.6582,-335.8764 425.5223,-328.93"/>
<text text-anchor="middle" x="485.5" y="-360.5" font-family="Helvetica,sans-Serif" font-size="10.00" fill="#000000"> unit_cell_input_</text>
</g>
<!-- Node11 -->
<g id="node10" class="node">
<title>Node11</title>
<g id="a_node10"><a xlink:href="../../d2/d6b/classgeometry3d_1_1vector3d.html" target="_top" xlink:title="geometry3d::vector3d\l\&lt; double \&gt;">
<polygon fill="#ffffff" stroke="#000000" points="134,-311.5 134,-341.5 247,-341.5 247,-311.5 134,-311.5"/>
<text text-anchor="start" x="142" y="-329.5" font-family="Helvetica,sans-Serif" font-size="10.00" fill="#000000">geometry3d::vector3d</text>
<text text-anchor="middle" x="190.5" y="-318.5" font-family="Helvetica,sans-Serif" font-size="10.00" fill="#000000">&lt; double &gt;</text>
</a>
</g>
</g>
<!-- Node11&#45;&gt;Node10 -->
<g id="edge9" class="edge">
<title>Node11&#45;&gt;Node10</title>
<path fill="none" stroke="#9a32cd" stroke-dasharray="5,2" d="M257.6713,-326.5C272.9518,-326.5 289.0223,-326.5 303.7661,-326.5"/>
<polygon fill="#9a32cd" stroke="#9a32cd" points="257.2447,-323.0001 247.2447,-326.5 257.2447,-330.0001 257.2447,-323.0001"/>
<text text-anchor="middle" x="275" y="-351.5" font-family="Helvetica,sans-Serif" font-size="10.00" fill="#000000"> a2_</text>
<text text-anchor="middle" x="275" y="-340.5" font-family="Helvetica,sans-Serif" font-size="10.00" fill="#000000">a1_</text>
<text text-anchor="middle" x="275" y="-329.5" font-family="Helvetica,sans-Serif" font-size="10.00" fill="#000000">a0_</text>
</g>
<!-- Node12 -->
<g id="node11" class="node">
<title>Node12</title>
<polygon fill="#ffffff" stroke="#bfbfbf" points="0,-311.5 0,-341.5 97,-341.5 97,-311.5 0,-311.5"/>
<text text-anchor="start" x="8" y="-329.5" font-family="Helvetica,sans-Serif" font-size="10.00" fill="#000000">std::array&lt; double</text>
<text text-anchor="middle" x="48.5" y="-318.5" font-family="Helvetica,sans-Serif" font-size="10.00" fill="#000000"> , 3 &gt;</text>
</g>
<!-- Node12&#45;&gt;Node11 -->
<g id="edge10" class="edge">
<title>Node12&#45;&gt;Node11</title>
<path fill="none" stroke="#191970" d="M107.4305,-326.5C116.1271,-326.5 125.0725,-326.5 133.7242,-326.5"/>
<polygon fill="#191970" stroke="#191970" points="107.3684,-323.0001 97.3683,-326.5 107.3683,-330.0001 107.3684,-323.0001"/>
</g>
<!-- Node13 -->
<g id="node12" class="node">
<title>Node13</title>
<g id="a_node12"><a xlink:href="../../d2/d11/structsirius_1_1_iterative__solver__input.html" target="_top" xlink:title="Parse the parameters of iterative solver. ">
<polygon fill="#ffffff" stroke="#000000" points="303,-557.5 303,-587.5 416,-587.5 416,-557.5 303,-557.5"/>
<text text-anchor="start" x="311" y="-575.5" font-family="Helvetica,sans-Serif" font-size="10.00" fill="#000000">sirius::Iterative_solver</text>
<text text-anchor="middle" x="359.5" y="-564.5" font-family="Helvetica,sans-Serif" font-size="10.00" fill="#000000">_input</text>
</a>
</g>
</g>
<!-- Node13&#45;&gt;Node5 -->
<g id="edge11" class="edge">
<title>Node13&#45;&gt;Node5</title>
<path fill="none" stroke="#9a32cd" stroke-dasharray="5,2" d="M426.5298,-571.3574C462.1874,-567.7701 505.122,-558.4002 537,-535.5 578.7411,-505.5145 601.7455,-445.6948 610.6389,-417.659"/>
<polygon fill="#9a32cd" stroke="#9a32cd" points="425.8587,-567.9025 416.2006,-572.2581 426.4669,-574.876 425.8587,-567.9025"/>
<text text-anchor="middle" x="485.5" y="-572.5" font-family="Helvetica,sans-Serif" font-size="10.00" fill="#000000"> iterative_solver_input_</text>
</g>
<!-- Node14 -->
<g id="node13" class="node">
<title>Node14</title>
<g id="a_node13"><a xlink:href="../../d4/db0/structsirius_1_1_mixer__input.html" target="_top" xlink:title="Parse mixer input section. ">
<polygon fill="#ffffff" stroke="#000000" points="311,-519 311,-538 408,-538 408,-519 311,-519"/>
<text text-anchor="middle" x="359.5" y="-526" font-family="Helvetica,sans-Serif" font-size="10.00" fill="#000000">sirius::Mixer_input</text>
</a>
</g>
</g>
<!-- Node14&#45;&gt;Node5 -->
<g id="edge12" class="edge">
<title>Node14&#45;&gt;Node5</title>
<path fill="none" stroke="#9a32cd" stroke-dasharray="5,2" d="M418.2606,-523.8171C454.4891,-518.848 500.7828,-508.6066 537,-487.5 567.1097,-469.9527 592.3231,-436.9909 605.3862,-417.6751"/>
<polygon fill="#9a32cd" stroke="#9a32cd" points="417.8031,-520.347 408.326,-525.0835 418.6883,-527.2909 417.8031,-520.347"/>
<text text-anchor="middle" x="485.5" y="-523.5" font-family="Helvetica,sans-Serif" font-size="10.00" fill="#000000"> mixer_input_</text>
</g>
<!-- Node15 -->
<g id="node14" class="node">
<title>Node15</title>
<g id="a_node14"><a xlink:href="../../d7/dab/classsddk_1_1mdarray.html" target="_top" xlink:title="sddk::mdarray\&lt; int, 2 \&gt;">
<polygon fill="#ffffff" stroke="#000000" points="835.5,-187 835.5,-206 954.5,-206 954.5,-187 835.5,-187"/>
<text text-anchor="middle" x="895" y="-194" font-family="Helvetica,sans-Serif" font-size="10.00" fill="#000000">sddk::mdarray&lt; int, 2 &gt;</text>
</a>
</g>
</g>
<!-- Node15&#45;&gt;Node4 -->
<g id="edge13" class="edge">
<title>Node15&#45;&gt;Node4</title>
<path fill="none" stroke="#9a32cd" stroke-dasharray="5,2" d="M964.9474,-196.5C1006.9052,-196.5 1059.0905,-196.5 1095.9033,-196.5"/>
<polygon fill="#9a32cd" stroke="#9a32cd" points="964.7918,-193.0001 954.7918,-196.5 964.7918,-200.0001 964.7918,-193.0001"/>
<text text-anchor="middle" x="1030" y="-199.5" font-family="Helvetica,sans-Serif" font-size="10.00" fill="#000000"> gvec_coord_</text>
</g>
<!-- Node16 -->
<g id="node15" class="node">
<title>Node16</title>
<g id="a_node15"><a xlink:href="../../d7/dab/classsddk_1_1mdarray.html" target="_top" xlink:title="sddk::mdarray\&lt; double\l_complex, 1 \&gt;">
<polygon fill="#ffffff" stroke="#000000" points="836,-137.5 836,-167.5 954,-167.5 954,-137.5 836,-137.5"/>
<text text-anchor="start" x="844" y="-155.5" font-family="Helvetica,sans-Serif" font-size="10.00" fill="#000000">sddk::mdarray&lt; double</text>
<text text-anchor="middle" x="895" y="-144.5" font-family="Helvetica,sans-Serif" font-size="10.00" fill="#000000">_complex, 1 &gt;</text>
</a>
</g>
</g>
<!-- Node16&#45;&gt;Node4 -->
<g id="edge14" class="edge">
<title>Node16&#45;&gt;Node4</title>
<path fill="none" stroke="#9a32cd" stroke-dasharray="5,2" d="M964.0558,-162.2255C998.4122,-167.3732 1040.5076,-174.1459 1078,-181.5 1083.8234,-182.6423 1089.9216,-183.9394 1095.9428,-185.2813"/>
<polygon fill="#9a32cd" stroke="#9a32cd" points="964.5255,-158.7569 954.1197,-160.7496 963.4969,-165.681 964.5255,-158.7569"/>
<text text-anchor="middle" x="1030" y="-184.5" font-family="Helvetica,sans-Serif" font-size="10.00" fill="#000000"> theta_pw_</text>
</g>
<!-- Node17 -->
<g id="node16" class="node">
<title>Node17</title>
<g id="a_node16"><a xlink:href="../../d7/dab/classsddk_1_1mdarray.html" target="_top" xlink:title="sddk::mdarray\&lt; double, 1 \&gt;">
<polygon fill="#ffffff" stroke="#000000" points="826,-99 826,-118 964,-118 964,-99 826,-99"/>
<text text-anchor="middle" x="895" y="-106" font-family="Helvetica,sans-Serif" font-size="10.00" fill="#000000">sddk::mdarray&lt; double, 1 &gt;</text>
</a>
</g>
</g>
<!-- Node17&#45;&gt;Node4 -->
<g id="edge15" class="edge">
<title>Node17&#45;&gt;Node4</title>
<path fill="none" stroke="#9a32cd" stroke-dasharray="5,2" d="M974.1007,-119.5537C1007.1818,-125.9659 1045.4266,-135.7813 1078,-150.5 1095.3326,-158.3319 1112.7112,-171.2203 1124.976,-181.3653"/>
<polygon fill="#9a32cd" stroke="#9a32cd" points="974.4843,-116.0649 964.012,-117.6713 973.2003,-122.9461 974.4843,-116.0649"/>
<text text-anchor="middle" x="1030" y="-153.5" font-family="Helvetica,sans-Serif" font-size="10.00" fill="#000000"> theta_</text>
</g>
<!-- Node18 -->
<g id="node17" class="node">
<title>Node18</title>
<g id="a_node17"><a xlink:href="../../d7/dab/classsddk_1_1mdarray.html" target="_top" xlink:title="sddk::mdarray\&lt; double\l_complex, 3 \&gt;">
<polygon fill="#ffffff" stroke="#000000" points="836,-49.5 836,-79.5 954,-79.5 954,-49.5 836,-49.5"/>
<text text-anchor="start" x="844" y="-67.5" font-family="Helvetica,sans-Serif" font-size="10.00" fill="#000000">sddk::mdarray&lt; double</text>
<text text-anchor="middle" x="895" y="-56.5" font-family="Helvetica,sans-Serif" font-size="10.00" fill="#000000">_complex, 3 &gt;</text>
</a>
</g>
</g>
<!-- Node18&#45;&gt;Node4 -->
<g id="edge16" class="edge">
<title>Node18&#45;&gt;Node4</title>
<path fill="none" stroke="#9a32cd" stroke-dasharray="5,2" d="M964.3611,-63.583C1000.8345,-66.1578 1044.7465,-74.3648 1078,-96.5 1109.2284,-117.2872 1128.4016,-159.0608 1136.8767,-181.4743"/>
<polygon fill="#9a32cd" stroke="#9a32cd" points="964.4718,-60.0836 954.2861,-62.9992 964.0668,-67.0719 964.4718,-60.0836"/>
<text text-anchor="middle" x="1030" y="-110.5" font-family="Helvetica,sans-Serif" font-size="10.00" fill="#000000"> sym_phase_factors_</text>
<text text-anchor="middle" x="1030" y="-99.5" font-family="Helvetica,sans-Serif" font-size="10.00" fill="#000000">phase_factors_</text>
</g>
<!-- Node19 -->
<g id="node18" class="node">
<title>Node19</title>
<g id="a_node18"><a xlink:href="../../d7/dab/classsddk_1_1mdarray.html" target="_top" xlink:title="sddk::mdarray\&lt; double\l_complex, 2 \&gt;">
<polygon fill="#ffffff" stroke="#000000" points="836,-.5 836,-30.5 954,-30.5 954,-.5 836,-.5"/>
<text text-anchor="start" x="844" y="-18.5" font-family="Helvetica,sans-Serif" font-size="10.00" fill="#000000">sddk::mdarray&lt; double</text>
<text text-anchor="middle" x="895" y="-7.5" font-family="Helvetica,sans-Serif" font-size="10.00" fill="#000000">_complex, 2 &gt;</text>
</a>
</g>
</g>
<!-- Node19&#45;&gt;Node4 -->
<g id="edge17" class="edge">
<title>Node19&#45;&gt;Node4</title>
<path fill="none" stroke="#9a32cd" stroke-dasharray="5,2" d="M964.6833,-13.7943C1001.8587,-16.3184 1046.3337,-25.2406 1078,-50.5 1120.1893,-84.1533 1135.2396,-151.2494 1140.0166,-181.3141"/>
<polygon fill="#9a32cd" stroke="#9a32cd" points="964.5812,-10.2839 954.4083,-13.2438 964.2067,-17.2739 964.5812,-10.2839"/>
<text text-anchor="middle" x="1030" y="-53.5" font-family="Helvetica,sans-Serif" font-size="10.00" fill="#000000"> phase_factors_t_</text>
</g>
<!-- Node20 -->
<g id="node19" class="node">
<title>Node20</title>
<g id="a_node19"><a xlink:href="../../da/d70/classsddk_1_1_communicator.html" target="_top" xlink:title="MPI communicator wrapper. ">
<polygon fill="#ffffff" stroke="#000000" points="561,-247 561,-266 669,-266 669,-247 561,-247"/>
<text text-anchor="middle" x="615" y="-254" font-family="Helvetica,sans-Serif" font-size="10.00" fill="#000000">sddk::Communicator</text>
</a>
</g>
</g>
<!-- Node20&#45;&gt;Node4 -->
<g id="edge18" class="edge">
<title>Node20&#45;&gt;Node4</title>
<path fill="none" stroke="#9a32cd" stroke-dasharray="5,2" d="M679.1414,-252.9771C768.8386,-247.4359 936.6324,-234.8296 1078,-211.5 1083.7426,-210.5523 1089.7371,-209.3869 1095.6553,-208.1281"/>
<polygon fill="#9a32cd" stroke="#9a32cd" points="678.8936,-249.4856 669.1247,-253.5865 679.3188,-256.4727 678.8936,-249.4856"/>
<text text-anchor="middle" x="895" y="-300.5" font-family="Helvetica,sans-Serif" font-size="10.00" fill="#000000"> comm_ortho_fft_</text>
<text text-anchor="start" x="842" y="-289.5" font-family="Helvetica,sans-Serif" font-size="10.00" fill="#000000">comm_ortho_fft_coarse</text>
<text text-anchor="middle" x="895" y="-278.5" font-family="Helvetica,sans-Serif" font-size="10.00" fill="#000000">_</text>
<text text-anchor="start" x="842" y="-267.5" font-family="Helvetica,sans-Serif" font-size="10.00" fill="#000000">comm_band_ortho</text>
<text text-anchor="middle" x="895" y="-256.5" font-family="Helvetica,sans-Serif" font-size="10.00" fill="#000000">_fft_coarse_</text>
<text text-anchor="middle" x="895" y="-245.5" font-family="Helvetica,sans-Serif" font-size="10.00" fill="#000000">comm_</text>
</g>
<!-- Node20&#45;&gt;Node21 -->
<g id="edge22" class="edge">
<title>Node20&#45;&gt;Node21</title>
<path fill="none" stroke="#9a32cd" stroke-dasharray="5,2" d="M679.5979,-259.2424C727.2893,-262.3576 787.3465,-268.9051 808,-282.5 820.988,-291.0492 813.9344,-302.6919 826,-312.5 833.7749,-318.8202 843.3221,-323.5252 852.8073,-327.0099"/>
<polygon fill="#9a32cd" stroke="#9a32cd" points="679.5159,-255.7309 669.32,-258.6107 679.0864,-262.7177 679.5159,-255.7309"/>
<text text-anchor="middle" x="750.5" y="-285.5" font-family="Helvetica,sans-Serif" font-size="10.00" fill="#000000"> comm_</text>
</g>
<!-- Node21&#45;&gt;Node2 -->
<g id="edge25" class="edge">
<title>Node21&#45;&gt;Node2</title>
<path fill="none" stroke="#9a32cd" stroke-dasharray="5,2" d="M947.1338,-333.7746C1049.6213,-327.8772 1284.3088,-311.7018 1479,-278.5 1486.0896,-277.291 1493.6013,-275.6964 1500.7741,-274.0175"/>
<polygon fill="#9a32cd" stroke="#9a32cd" points="946.8352,-330.2859 937.0493,-334.3462 947.2313,-337.2746 946.8352,-330.2859"/>
<text text-anchor="middle" x="1229" y="-315.5" font-family="Helvetica,sans-Serif" font-size="10.00" fill="#000000"> unit_cell_</text>
</g>
<!-- Node21&#45;&gt;Node4 -->
<g id="edge19" class="edge">
<title>Node21&#45;&gt;Node4</title>
<path fill="none" stroke="#9a32cd" stroke-dasharray="5,2" d="M941.6194,-323.5246C949.3757,-320.4665 957.1246,-316.8112 964,-312.5 973.5852,-306.4897 972.5437,-300.7111 982,-294.5 1020.3543,-269.3082 1039.2445,-281.0702 1078,-256.5 1097.8092,-243.9414 1116.9456,-224.7797 1129.0502,-211.5039"/>
<polygon fill="#9a32cd" stroke="#9a32cd" points="940.4039,-320.2424 932.213,-326.9625 942.8068,-326.817 940.4039,-320.2424"/>
<text text-anchor="middle" x="1030" y="-297.5" font-family="Helvetica,sans-Serif" font-size="10.00" fill="#000000"> unit_cell_</text>
</g>
<!-- Node22 -->
<g id="node21" class="node">
<title>Node22</title>
<g id="a_node21"><a xlink:href="../../d2/dc9/classsddk_1_1splindex.html" target="_top" xlink:title="sddk::splindex\&lt; block \&gt;">
<polygon fill="#ffffff" stroke="#000000" points="555,-286 555,-305 675,-305 675,-286 555,-286"/>
<text text-anchor="middle" x="615" y="-293" font-family="Helvetica,sans-Serif" font-size="10.00" fill="#000000">sddk::splindex&lt; block &gt;</text>
</a>
</g>
</g>
<!-- Node22&#45;&gt;Node21 -->
<g id="edge20" class="edge">
<title>Node22&#45;&gt;Node21</title>
<path fill="none" stroke="#9a32cd" stroke-dasharray="5,2" d="M685.5365,-297.3812C722.2901,-299.2671 767.8322,-303.0253 808,-310.5 828.6126,-314.3357 851.2898,-321.2036 868.3228,-326.9178"/>
<polygon fill="#9a32cd" stroke="#9a32cd" points="685.5707,-293.879 675.415,-296.8975 685.2364,-300.871 685.5707,-293.879"/>
<text text-anchor="middle" x="750.5" y="-346.5" font-family="Helvetica,sans-Serif" font-size="10.00" fill="#000000"> spl_num_paw_atoms_</text>
<text text-anchor="middle" x="750.5" y="-335.5" font-family="Helvetica,sans-Serif" font-size="10.00" fill="#000000">spl_num_atoms_</text>
<text text-anchor="start" x="693" y="-324.5" font-family="Helvetica,sans-Serif" font-size="10.00" fill="#000000">spl_num_atom_symmetry</text>
<text text-anchor="middle" x="750.5" y="-313.5" font-family="Helvetica,sans-Serif" font-size="10.00" fill="#000000">_classes_</text>
</g>
<!-- Node23 -->
<g id="node22" class="node">
<title>Node23</title>
<g id="a_node22"><a xlink:href="../../d6/dec/classsddk_1_1splindex__base.html" target="_top" xlink:title="sddk::splindex_base\l\&lt; int \&gt;">
<polygon fill="#ffffff" stroke="#000000" points="306,-267.5 306,-297.5 413,-297.5 413,-267.5 306,-267.5"/>
<text text-anchor="start" x="314" y="-285.5" font-family="Helvetica,sans-Serif" font-size="10.00" fill="#000000">sddk::splindex_base</text>
<text text-anchor="middle" x="359.5" y="-274.5" font-family="Helvetica,sans-Serif" font-size="10.00" fill="#000000">&lt; int &gt;</text>
</a>
</g>
</g>
<!-- Node23&#45;&gt;Node22 -->
<g id="edge21" class="edge">
<title>Node23&#45;&gt;Node22</title>
<path fill="none" stroke="#191970" d="M423.3003,-285.7462C463.562,-287.7947 515.2434,-290.4243 554.7976,-292.4369"/>
<polygon fill="#191970" stroke="#191970" points="423.2261,-282.238 413.0612,-285.2252 422.8704,-289.2289 423.2261,-282.238"/>
</g>
<!-- Node24 -->
<g id="node23" class="node">
<title>Node24</title>
<g id="a_node23"><a xlink:href="../../d7/dab/classsddk_1_1mdarray.html" target="_top" xlink:title="sddk::mdarray\&lt; double\l_complex, 4 \&gt;">
<polygon fill="#ffffff" stroke="#000000" points="1270,-205.5 1270,-235.5 1388,-235.5 1388,-205.5 1270,-205.5"/>
<text text-anchor="start" x="1278" y="-223.5" font-family="Helvetica,sans-Serif" font-size="10.00" fill="#000000">sddk::mdarray&lt; double</text>
<text text-anchor="middle" x="1329" y="-212.5" font-family="Helvetica,sans-Serif" font-size="10.00" fill="#000000">_complex, 4 &gt;</text>
</a>
</g>
</g>
<!-- Node24&#45;&gt;Node2 -->
<g id="edge24" class="edge">
<title>Node24&#45;&gt;Node2</title>
<path fill="none" stroke="#9a32cd" stroke-dasharray="5,2" d="M1398.2523,-232.9272C1423.7164,-237.7494 1452.7393,-243.5426 1479,-249.5 1486.244,-251.1433 1493.9616,-253.0488 1501.3133,-254.939"/>
<polygon fill="#9a32cd" stroke="#9a32cd" points="1398.789,-229.4668 1388.3147,-231.06 1397.4964,-236.3465 1398.789,-229.4668"/>
<text text-anchor="middle" x="1442.5" y="-252.5" font-family="Helvetica,sans-Serif" font-size="10.00" fill="#000000"> density_matrix_</text>
</g>
</g>
</svg>
