<?xml version="1.0" encoding="UTF-8" standalone="no"?>
<!DOCTYPE svg PUBLIC "-//W3C//DTD SVG 1.1//EN"
 "http://www.w3.org/Graphics/SVG/1.1/DTD/svg11.dtd">
<!-- Generated by graphviz version 2.40.1 (20161225.0304)
 -->
<!-- Title: xc_functional.hpp Pages: 1 -->
<svg width="461pt" height="84pt"
 viewBox="0.00 0.00 460.50 84.00" xmlns="http://www.w3.org/2000/svg" xmlns:xlink="http://www.w3.org/1999/xlink">
<g id="graph0" class="graph" transform="scale(1 1) rotate(0) translate(4 80)">
<title>xc_functional.hpp</title>
<polygon fill="#ffffff" stroke="transparent" points="-4,4 -4,-80 456.5,-80 456.5,4 -4,4"/>
<!-- Node1 -->
<g id="node1" class="node">
<title>Node1</title>
<g id="a_node1"><a xlink:title="Contains implementation of sirius::XC_functional class.">
<polygon fill="#bfbfbf" stroke="#000000" points="203,-56.5 203,-75.5 297,-75.5 297,-56.5 203,-56.5"/>
<text text-anchor="middle" x="250" y="-63.5" font-family="Helvetica,sans-Serif" font-size="10.00" fill="#000000">xc_functional.hpp</text>
</a>
</g>
</g>
<!-- Node2 -->
<g id="node2" class="node">
<title>Node2</title>
<g id="a_node2"><a xlink:href="../../da/d68/simulation__context_8cpp.html" target="_top" xlink:title="Implementation of Simulation_context class.">
<polygon fill="#ffffff" stroke="#000000" points="0,-.5 0,-19.5 118,-19.5 118,-.5 0,-.5"/>
<text text-anchor="middle" x="59" y="-7.5" font-family="Helvetica,sans-Serif" font-size="10.00" fill="#000000">simulation_context.cpp</text>
</a>
</g>
</g>
<!-- Node1&#45;&gt;Node2 -->
<g id="edge1" class="edge">
<title>Node1&#45;&gt;Node2</title>
<path fill="none" stroke="#191970" d="M207.2163,-53.4561C172.1555,-43.1765 123.2898,-28.8494 91.4056,-19.5011"/>
<polygon fill="#191970" stroke="#191970" points="206.5851,-56.9183 217.1659,-56.3733 208.5546,-50.2011 206.5851,-56.9183"/>
</g>
<!-- Node3 -->
<g id="node3" class="node">
<title>Node3</title>
<g id="a_node3"><a xlink:href="../../d1/d97/potential_8cpp.html" target="_top" xlink:title="Generate effective potential.">
<polygon fill="#ffffff" stroke="#000000" points="136.5,-.5 136.5,-19.5 209.5,-19.5 209.5,-.5 136.5,-.5"/>
<text text-anchor="middle" x="173" y="-7.5" font-family="Helvetica,sans-Serif" font-size="10.00" fill="#000000">potential.cpp</text>
</a>
</g>
</g>
<!-- Node1&#45;&gt;Node3 -->
<g id="edge2" class="edge">
<title>Node1&#45;&gt;Node3</title>
<path fill="none" stroke="#191970" d="M228.2884,-50.2097C214.7647,-40.3743 197.8042,-28.0394 186.2587,-19.6427"/>
<polygon fill="#191970" stroke="#191970" points="226.4416,-53.1944 236.5876,-56.2455 230.5589,-47.5332 226.4416,-53.1944"/>
</g>
<!-- Node4 -->
<g id="node4" class="node">
<title>Node4</title>
<g id="a_node4"><a xlink:href="../../d6/d2b/xc_8cpp.html" target="_top" xlink:title="Generate XC potential.">
<polygon fill="#ffffff" stroke="#000000" points="227.5,-.5 227.5,-19.5 272.5,-19.5 272.5,-.5 227.5,-.5"/>
<text text-anchor="middle" x="250" y="-7.5" font-family="Helvetica,sans-Serif" font-size="10.00" fill="#000000">xc.cpp</text>
</a>
</g>
</g>
<!-- Node1&#45;&gt;Node4 -->
<g id="edge3" class="edge">
<title>Node1&#45;&gt;Node4</title>
<path fill="none" stroke="#191970" d="M250,-46.1575C250,-37.155 250,-26.9199 250,-19.6427"/>
<polygon fill="#191970" stroke="#191970" points="246.5001,-46.2455 250,-56.2455 253.5001,-46.2456 246.5001,-46.2455"/>
</g>
<!-- Node5 -->
<g id="node5" class="node">
<title>Node5</title>
<g id="a_node5"><a xlink:href="../../dc/dbb/xc__mt_8cpp.html" target="_top" xlink:title="Generate XC potential in the muffin&#45;tins.">
<polygon fill="#ffffff" stroke="#000000" points="291,-.5 291,-19.5 353,-19.5 353,-.5 291,-.5"/>
<text text-anchor="middle" x="322" y="-7.5" font-family="Helvetica,sans-Serif" font-size="10.00" fill="#000000">xc_mt.cpp</text>
</a>
</g>
</g>
<!-- Node1&#45;&gt;Node5 -->
<g id="edge4" class="edge">
<title>Node1&#45;&gt;Node5</title>
<path fill="none" stroke="#191970" d="M270.664,-49.928C283.2489,-40.1397 298.9092,-27.9595 309.6023,-19.6427"/>
<polygon fill="#191970" stroke="#191970" points="268.2862,-47.3434 262.5414,-56.2455 272.5838,-52.8688 268.2862,-47.3434"/>
</g>
<!-- Node6 -->
<g id="node6" class="node">
<title>Node6</title>
<g id="a_node6"><a xlink:href="../../d8/d64/free__atom_8hpp.html" target="_top" xlink:title="Free atom full&#45;potential solver.">
<polygon fill="#ffffff" stroke="#000000" points="371.5,-.5 371.5,-19.5 452.5,-19.5 452.5,-.5 371.5,-.5"/>
<text text-anchor="middle" x="412" y="-7.5" font-family="Helvetica,sans-Serif" font-size="10.00" fill="#000000">free_atom.hpp</text>
</a>
</g>
</g>
<!-- Node1&#45;&gt;Node6 -->
<g id="edge5" class="edge">
<title>Node1&#45;&gt;Node6</title>
<path fill="none" stroke="#191970" d="M287.4422,-53.057C317.0901,-42.8084 357.8196,-28.729 384.5146,-19.5011"/>
<polygon fill="#191970" stroke="#191970" points="286.1565,-49.7982 277.8488,-56.3733 288.4436,-56.414 286.1565,-49.7982"/>
</g>
</g>
</svg>
