<?xml version="1.0" encoding="UTF-8" standalone="no"?>
<!DOCTYPE svg PUBLIC "-//W3C//DTD SVG 1.1//EN"
 "http://www.w3.org/Graphics/SVG/1.1/DTD/svg11.dtd">
<!-- Generated by graphviz version 2.40.1 (20161225.0304)
 -->
<!-- Title: gvec.hpp Pages: 1 -->
<svg width="624pt" height="1148pt"
 viewBox="0.00 0.00 624.00 1148.00" xmlns="http://www.w3.org/2000/svg" xmlns:xlink="http://www.w3.org/1999/xlink">
<g id="graph0" class="graph" transform="scale(1 1) rotate(0) translate(4 1144)">
<title>gvec.hpp</title>
<polygon fill="#ffffff" stroke="transparent" points="-4,4 -4,-1144 620,-1144 620,4 -4,4"/>
<!-- Node29 -->
<g id="node1" class="node">
<title>Node29</title>
<polygon fill="#bfbfbf" stroke="#000000" points="397.5,-1120.5 397.5,-1139.5 454.5,-1139.5 454.5,-1120.5 397.5,-1120.5"/>
<text text-anchor="middle" x="426" y="-1127.5" font-family="Helvetica,sans-Serif" font-size="10.00" fill="#000000">gvec.hpp</text>
</g>
<!-- Node30 -->
<g id="node2" class="node">
<title>Node30</title>
<g id="a_node2"><a xlink:href="../../d8/d7a/unit__cell__symmetry_8hpp.html" target="_top" xlink:title="Contains definition and implementation of sirius::Unit_cell_symmetry class. ">
<polygon fill="#ffffff" stroke="#000000" points="494,-1008.5 494,-1027.5 616,-1027.5 616,-1008.5 494,-1008.5"/>
<text text-anchor="middle" x="555" y="-1015.5" font-family="Helvetica,sans-Serif" font-size="10.00" fill="#000000">unit_cell_symmetry.hpp</text>
</a>
</g>
</g>
<!-- Node29&#45;&gt;Node30 -->
<g id="edge1" class="edge">
<title>Node29&#45;&gt;Node30</title>
<path fill="none" stroke="#191970" d="M464.5056,-1122.4495C487.8983,-1115.9759 516.6866,-1104.347 535,-1084 549.4174,-1067.9816 553.4481,-1041.8597 554.5705,-1027.7616"/>
<polygon fill="#191970" stroke="#191970" points="463.3503,-1119.132 454.5264,-1124.9962 465.0813,-1125.9147 463.3503,-1119.132"/>
</g>
<!-- Node49 -->
<g id="node21" class="node">
<title>Node49</title>
<g id="a_node21"><a xlink:href="../../dd/d4a/fft3d_8hpp.html" target="_top" xlink:title="Contains declaration and partial implementation of sddk::FFT3D class. ">
<polygon fill="#ffffff" stroke="#000000" points="350.5,-1064.5 350.5,-1083.5 405.5,-1083.5 405.5,-1064.5 350.5,-1064.5"/>
<text text-anchor="middle" x="378" y="-1071.5" font-family="Helvetica,sans-Serif" font-size="10.00" fill="#000000">fft3d.hpp</text>
</a>
</g>
</g>
<!-- Node29&#45;&gt;Node49 -->
<g id="edge33" class="edge">
<title>Node29&#45;&gt;Node49</title>
<path fill="none" stroke="#191970" d="M411.0003,-1112.5004C402.8378,-1102.9775 393.0511,-1091.5596 386.2651,-1083.6427"/>
<polygon fill="#191970" stroke="#191970" points="408.4737,-1114.9307 417.639,-1120.2455 413.7885,-1110.3752 408.4737,-1114.9307"/>
</g>
<!-- Node50 -->
<g id="node22" class="node">
<title>Node50</title>
<g id="a_node22"><a xlink:href="../../db/d5a/sddk_8hpp.html" target="_top" xlink:title="Main include file for SDDK library. ">
<polygon fill="#ffffff" stroke="#000000" points="348.5,-1008.5 348.5,-1027.5 405.5,-1027.5 405.5,-1008.5 348.5,-1008.5"/>
<text text-anchor="middle" x="377" y="-1015.5" font-family="Helvetica,sans-Serif" font-size="10.00" fill="#000000">sddk.hpp</text>
</a>
</g>
</g>
<!-- Node29&#45;&gt;Node50 -->
<g id="edge49" class="edge">
<title>Node29&#45;&gt;Node50</title>
<path fill="none" stroke="#191970" d="M387.3834,-1118.8504C370.3241,-1111.7888 351.919,-1100.7407 342,-1084 330.3641,-1064.3615 351.2705,-1040.5306 365.4734,-1027.5542"/>
<polygon fill="#191970" stroke="#191970" points="386.6062,-1122.2983 397.1978,-1122.5604 389.0814,-1115.7505 386.6062,-1122.2983"/>
</g>
<!-- Node57 -->
<g id="node29" class="node">
<title>Node57</title>
<g id="a_node29"><a xlink:href="../../db/d11/matrix__storage_8hpp.html" target="_top" xlink:title="Contains definition and implementaiton of sddk::matrix_storage class. ">
<polygon fill="#ffffff" stroke="#000000" points="424,-1064.5 424,-1083.5 526,-1083.5 526,-1064.5 424,-1064.5"/>
<text text-anchor="middle" x="475" y="-1071.5" font-family="Helvetica,sans-Serif" font-size="10.00" fill="#000000">matrix_storage.hpp</text>
</a>
</g>
</g>
<!-- Node29&#45;&gt;Node57 -->
<g id="edge47" class="edge">
<title>Node29&#45;&gt;Node57</title>
<path fill="none" stroke="#191970" d="M441.3122,-1112.5004C449.6447,-1102.9775 459.6353,-1091.5596 466.5627,-1083.6427"/>
<polygon fill="#191970" stroke="#191970" points="438.4862,-1110.415 434.5351,-1120.2455 443.7543,-1115.0245 438.4862,-1110.415"/>
</g>
<!-- Node31 -->
<g id="node3" class="node">
<title>Node31</title>
<g id="a_node3"><a xlink:href="../../d4/d91/unit__cell_8hpp.html" target="_top" xlink:title="Contains definition and partial implementation of sirius::Unit_cell class. ">
<polygon fill="#ffffff" stroke="#000000" points="310.5,-672.5 310.5,-691.5 383.5,-691.5 383.5,-672.5 310.5,-672.5"/>
<text text-anchor="middle" x="347" y="-679.5" font-family="Helvetica,sans-Serif" font-size="10.00" fill="#000000">unit_cell.hpp</text>
</a>
</g>
</g>
<!-- Node30&#45;&gt;Node31 -->
<g id="edge2" class="edge">
<title>Node30&#45;&gt;Node31</title>
<path fill="none" stroke="#191970" d="M555.2836,-998.1957C555.5793,-975.8137 556,-938.2897 556,-906 556,-906 556,-906 556,-794 556,-716.8131 443.8837,-692.6115 383.8839,-685.1862"/>
<polygon fill="#191970" stroke="#191970" points="551.781,-998.3647 555.1433,-1008.4119 558.7804,-998.4609 551.781,-998.3647"/>
</g>
<!-- Node32 -->
<g id="node4" class="node">
<title>Node32</title>
<g id="a_node4"><a xlink:href="../../d4/df7/radial__integrals_8hpp.html" target="_top" xlink:title="Representation of various radial integrals. ">
<polygon fill="#ffffff" stroke="#000000" points="232,-560.5 232,-579.5 336,-579.5 336,-560.5 232,-560.5"/>
<text text-anchor="middle" x="284" y="-567.5" font-family="Helvetica,sans-Serif" font-size="10.00" fill="#000000">radial_integrals.hpp</text>
</a>
</g>
</g>
<!-- Node31&#45;&gt;Node32 -->
<g id="edge3" class="edge">
<title>Node31&#45;&gt;Node32</title>
<path fill="none" stroke="#191970" d="M327.3895,-665.5024C318.8305,-657.3915 309.3254,-647.0031 303,-636 292.4221,-617.5996 287.3684,-592.879 285.2707,-579.523"/>
<polygon fill="#191970" stroke="#191970" points="325.1008,-668.1516 334.8654,-672.2631 329.7961,-662.9598 325.1008,-668.1516"/>
</g>
<!-- Node48 -->
<g id="node20" class="node">
<title>Node48</title>
<g id="a_node20"><a xlink:href="../../d1/d2b/sbessel_8hpp.html" target="_top" xlink:title="Contains implementation of sirius::Spherical_Bessel_functions classe. ">
<polygon fill="#ffffff" stroke="#000000" points="312,-616.5 312,-635.5 382,-635.5 382,-616.5 312,-616.5"/>
<text text-anchor="middle" x="347" y="-623.5" font-family="Helvetica,sans-Serif" font-size="10.00" fill="#000000">sbessel.hpp</text>
</a>
</g>
</g>
<!-- Node31&#45;&gt;Node48 -->
<g id="edge31" class="edge">
<title>Node31&#45;&gt;Node48</title>
<path fill="none" stroke="#191970" d="M347,-662.1575C347,-653.155 347,-642.9199 347,-635.6427"/>
<polygon fill="#191970" stroke="#191970" points="343.5001,-662.2455 347,-672.2455 350.5001,-662.2456 343.5001,-662.2455"/>
</g>
<!-- Node33 -->
<g id="node5" class="node">
<title>Node33</title>
<g id="a_node5"><a xlink:href="../../d3/d1c/augmentation__operator_8hpp.html" target="_top" xlink:title="Contains implementation of sirius::Augmentation_operator class. ">
<polygon fill="#ffffff" stroke="#000000" points="109.5,-504.5 109.5,-523.5 248.5,-523.5 248.5,-504.5 109.5,-504.5"/>
<text text-anchor="middle" x="179" y="-511.5" font-family="Helvetica,sans-Serif" font-size="10.00" fill="#000000">augmentation_operator.hpp</text>
</a>
</g>
</g>
<!-- Node32&#45;&gt;Node33 -->
<g id="edge4" class="edge">
<title>Node32&#45;&gt;Node33</title>
<path fill="none" stroke="#191970" d="M256.7375,-555.46C237.9478,-545.4388 213.4987,-532.3993 197.08,-523.6427"/>
<polygon fill="#191970" stroke="#191970" points="255.2398,-558.6278 265.7104,-560.2455 258.5339,-552.4514 255.2398,-558.6278"/>
</g>
<!-- Node40 -->
<g id="node12" class="node">
<title>Node40</title>
<g id="a_node12"><a xlink:href="../../d1/db8/simulation__context_8hpp.html" target="_top" xlink:title="Contains definition and implementation of Simulation_context class. ">
<polygon fill="#ffffff" stroke="#000000" points="312.5,-448.5 312.5,-467.5 431.5,-467.5 431.5,-448.5 312.5,-448.5"/>
<text text-anchor="middle" x="372" y="-455.5" font-family="Helvetica,sans-Serif" font-size="10.00" fill="#000000">simulation_context.hpp</text>
</a>
</g>
</g>
<!-- Node32&#45;&gt;Node40 -->
<g id="edge30" class="edge">
<title>Node32&#45;&gt;Node40</title>
<path fill="none" stroke="#191970" d="M297.7285,-552.5274C316.5531,-528.5688 349.7246,-486.3505 364.5162,-467.5249"/>
<polygon fill="#191970" stroke="#191970" points="294.929,-550.4253 291.5028,-560.4509 300.4332,-554.7501 294.929,-550.4253"/>
</g>
<!-- Node41 -->
<g id="node13" class="node">
<title>Node41</title>
<g id="a_node13"><a xlink:href="../../db/d74/hubbard_8hpp.html" target="_top" xlink:title="Contains declaration and partial implementation of sirius::Hubbard class. ">
<polygon fill="#ffffff" stroke="#000000" points="335.5,-392.5 335.5,-411.5 408.5,-411.5 408.5,-392.5 335.5,-392.5"/>
<text text-anchor="middle" x="372" y="-399.5" font-family="Helvetica,sans-Serif" font-size="10.00" fill="#000000">hubbard.hpp</text>
</a>
</g>
</g>
<!-- Node32&#45;&gt;Node41 -->
<g id="edge29" class="edge">
<title>Node32&#45;&gt;Node41</title>
<path fill="none" stroke="#191970" d="M282.6379,-549.9003C281.8779,-524.2217 283.9351,-479.3549 304,-448 314.6787,-431.3126 333.8085,-419.1852 349.0637,-411.5856"/>
<polygon fill="#191970" stroke="#191970" points="279.1581,-550.4091 283.1308,-560.2309 286.1502,-550.0754 279.1581,-550.4091"/>
</g>
<!-- Node34 -->
<g id="node6" class="node">
<title>Node34</title>
<g id="a_node6"><a xlink:href="../../d5/d72/non__local__functor_8hpp.html" target="_top" xlink:title="Common operation for forces and stress tensor. ">
<polygon fill="#ffffff" stroke="#000000" points="28.5,-336.5 28.5,-355.5 143.5,-355.5 143.5,-336.5 28.5,-336.5"/>
<text text-anchor="middle" x="86" y="-343.5" font-family="Helvetica,sans-Serif" font-size="10.00" fill="#000000">non_local_functor.hpp</text>
</a>
</g>
</g>
<!-- Node33&#45;&gt;Node34 -->
<g id="edge5" class="edge">
<title>Node33&#45;&gt;Node34</title>
<path fill="none" stroke="#191970" d="M168.8399,-495.6463C149.1811,-460.1336 106.546,-383.1154 91.4404,-355.8279"/>
<polygon fill="#191970" stroke="#191970" points="165.8281,-497.4324 173.7335,-504.4862 171.9524,-494.0422 165.8281,-497.4324"/>
</g>
<!-- Node39 -->
<g id="node11" class="node">
<title>Node39</title>
<g id="a_node11"><a xlink:href="../../d6/d1e/force_8hpp.html" target="_top" xlink:title="Contains defintion and implementation of sirius::Force class. ">
<polygon fill="#ffffff" stroke="#000000" points="140,-280.5 140,-299.5 198,-299.5 198,-280.5 140,-280.5"/>
<text text-anchor="middle" x="169" y="-287.5" font-family="Helvetica,sans-Serif" font-size="10.00" fill="#000000">force.hpp</text>
</a>
</g>
</g>
<!-- Node33&#45;&gt;Node39 -->
<g id="edge12" class="edge">
<title>Node33&#45;&gt;Node39</title>
<path fill="none" stroke="#191970" d="M178.1124,-494.1177C176.0389,-447.6713 170.9385,-333.4223 169.4281,-299.5891"/>
<polygon fill="#191970" stroke="#191970" points="174.6277,-494.5411 178.5703,-504.375 181.6208,-494.2288 174.6277,-494.5411"/>
</g>
<!-- Node33&#45;&gt;Node40 -->
<g id="edge13" class="edge">
<title>Node33&#45;&gt;Node40</title>
<path fill="none" stroke="#191970" d="M222.2317,-501.4561C257.6596,-491.1765 307.037,-476.8494 339.2551,-467.5011"/>
<polygon fill="#191970" stroke="#191970" points="220.8064,-498.2252 212.1779,-504.3733 222.7571,-504.9479 220.8064,-498.2252"/>
</g>
<!-- Node35 -->
<g id="node7" class="node">
<title>Node35</title>
<g id="a_node7"><a xlink:href="../../d7/dd1/stress_8hpp.html" target="_top" xlink:title="Stress tensor calculation. ">
<polygon fill="#ffffff" stroke="#000000" points="56.5,-280.5 56.5,-299.5 119.5,-299.5 119.5,-280.5 56.5,-280.5"/>
<text text-anchor="middle" x="88" y="-287.5" font-family="Helvetica,sans-Serif" font-size="10.00" fill="#000000">stress.hpp</text>
</a>
</g>
</g>
<!-- Node34&#45;&gt;Node35 -->
<g id="edge6" class="edge">
<title>Node34&#45;&gt;Node35</title>
<path fill="none" stroke="#191970" d="M86.7087,-326.1575C87.0302,-317.155 87.3957,-306.9199 87.6556,-299.6427"/>
<polygon fill="#191970" stroke="#191970" points="83.2076,-326.127 86.3484,-336.2455 90.2032,-326.3769 83.2076,-326.127"/>
</g>
<!-- Node34&#45;&gt;Node39 -->
<g id="edge10" class="edge">
<title>Node34&#45;&gt;Node39</title>
<path fill="none" stroke="#191970" d="M108.988,-330.49C123.6322,-320.6096 142.1444,-308.1194 154.7082,-299.6427"/>
<polygon fill="#191970" stroke="#191970" points="106.7896,-327.7511 100.4575,-336.2455 110.7047,-333.5539 106.7896,-327.7511"/>
</g>
<!-- Node36 -->
<g id="node8" class="node">
<title>Node36</title>
<g id="a_node8"><a xlink:href="../../df/dc4/dft__ground__state_8hpp.html" target="_top" xlink:title="Contains definition and partial implementation of sirius::DFT_ground_state class. ...">
<polygon fill="#ffffff" stroke="#000000" points="108.5,-224.5 108.5,-243.5 219.5,-243.5 219.5,-224.5 108.5,-224.5"/>
<text text-anchor="middle" x="164" y="-231.5" font-family="Helvetica,sans-Serif" font-size="10.00" fill="#000000">dft_ground_state.hpp</text>
</a>
</g>
</g>
<!-- Node35&#45;&gt;Node36 -->
<g id="edge7" class="edge">
<title>Node35&#45;&gt;Node36</title>
<path fill="none" stroke="#191970" d="M109.4297,-274.2097C122.7777,-264.3743 139.5179,-252.0394 150.9135,-243.6427"/>
<polygon fill="#191970" stroke="#191970" points="107.2126,-271.4958 101.2382,-280.2455 111.365,-277.1312 107.2126,-271.4958"/>
</g>
<!-- Node37 -->
<g id="node9" class="node">
<title>Node37</title>
<g id="a_node9"><a xlink:href="../../dd/dc2/sirius_8h.html" target="_top" xlink:title="&quot;All&#45;in&#45;one&quot; include file. ">
<polygon fill="#ffffff" stroke="#000000" points="195,-56.5 195,-75.5 243,-75.5 243,-56.5 195,-56.5"/>
<text text-anchor="middle" x="219" y="-63.5" font-family="Helvetica,sans-Serif" font-size="10.00" fill="#000000">sirius.h</text>
</a>
</g>
</g>
<!-- Node36&#45;&gt;Node37 -->
<g id="edge8" class="edge">
<title>Node36&#45;&gt;Node37</title>
<path fill="none" stroke="#191970" d="M170.3097,-214.7267C182.0647,-178.8207 206.9255,-102.8822 215.7825,-75.8279"/>
<polygon fill="#191970" stroke="#191970" points="166.8997,-213.8936 167.1146,-224.4862 173.5523,-216.0716 166.8997,-213.8936"/>
</g>
<!-- Node38 -->
<g id="node10" class="node">
<title>Node38</title>
<g id="a_node10"><a xlink:href="../../d4/d53/sirius__api_8cpp.html" target="_top" xlink:title="Fortran API. ">
<polygon fill="#ffffff" stroke="#000000" points="180,-.5 180,-19.5 258,-19.5 258,-.5 180,-.5"/>
<text text-anchor="middle" x="219" y="-7.5" font-family="Helvetica,sans-Serif" font-size="10.00" fill="#000000">sirius_api.cpp</text>
</a>
</g>
</g>
<!-- Node37&#45;&gt;Node38 -->
<g id="edge9" class="edge">
<title>Node37&#45;&gt;Node38</title>
<path fill="none" stroke="#191970" d="M219,-46.1575C219,-37.155 219,-26.9199 219,-19.6427"/>
<polygon fill="#191970" stroke="#191970" points="215.5001,-46.2455 219,-56.2455 222.5001,-46.2456 215.5001,-46.2455"/>
</g>
<!-- Node39&#45;&gt;Node36 -->
<g id="edge11" class="edge">
<title>Node39&#45;&gt;Node36</title>
<path fill="none" stroke="#191970" d="M167.2283,-270.1575C166.4246,-261.155 165.5107,-250.9199 164.861,-243.6427"/>
<polygon fill="#191970" stroke="#191970" points="163.7535,-270.5965 168.1291,-280.2455 170.7258,-269.9739 163.7535,-270.5965"/>
</g>
<!-- Node40&#45;&gt;Node41 -->
<g id="edge14" class="edge">
<title>Node40&#45;&gt;Node41</title>
<path fill="none" stroke="#191970" d="M372,-438.1575C372,-429.155 372,-418.9199 372,-411.6427"/>
<polygon fill="#191970" stroke="#191970" points="368.5001,-438.2455 372,-448.2455 375.5001,-438.2456 368.5001,-438.2455"/>
</g>
<!-- Node42 -->
<g id="node14" class="node">
<title>Node42</title>
<g id="a_node14"><a xlink:href="../../de/dec/hamiltonian_8hpp.html" target="_top" xlink:title="Contains declaration and definition of sirius::Hamiltonian class. ">
<polygon fill="#ffffff" stroke="#000000" points="280.5,-168.5 280.5,-187.5 367.5,-187.5 367.5,-168.5 280.5,-168.5"/>
<text text-anchor="middle" x="324" y="-175.5" font-family="Helvetica,sans-Serif" font-size="10.00" fill="#000000">hamiltonian.hpp</text>
</a>
</g>
</g>
<!-- Node40&#45;&gt;Node42 -->
<g id="edge19" class="edge">
<title>Node40&#45;&gt;Node42</title>
<path fill="none" stroke="#191970" d="M401.2953,-443.6043C433.2782,-425.5868 480,-391.4825 480,-346 480,-346 480,-346 480,-290 480,-259.4754 482.1081,-246.05 461,-224 447.684,-210.0899 401.081,-196.3226 365.8969,-187.528"/>
<polygon fill="#191970" stroke="#191970" points="399.4426,-440.6272 392.314,-448.4652 402.7745,-446.7835 399.4426,-440.6272"/>
</g>
<!-- Node44 -->
<g id="node16" class="node">
<title>Node44</title>
<g id="a_node16"><a xlink:href="../../d3/d6a/periodic__function_8hpp.html" target="_top" xlink:title="Contains declaration and partial implementation of sirius::Periodic_function class. ">
<polygon fill="#ffffff" stroke="#000000" points="200,-392.5 200,-411.5 312,-411.5 312,-392.5 200,-392.5"/>
<text text-anchor="middle" x="256" y="-399.5" font-family="Helvetica,sans-Serif" font-size="10.00" fill="#000000">periodic_function.hpp</text>
</a>
</g>
</g>
<!-- Node40&#45;&gt;Node44 -->
<g id="edge20" class="edge">
<title>Node40&#45;&gt;Node44</title>
<path fill="none" stroke="#191970" d="M342.9463,-443.9741C321.9435,-433.8348 294.1309,-420.408 275.6809,-411.5011"/>
<polygon fill="#191970" stroke="#191970" points="341.5317,-447.1776 352.0589,-448.3733 344.575,-440.8738 341.5317,-447.1776"/>
</g>
<!-- Node41&#45;&gt;Node36 -->
<g id="edge15" class="edge">
<title>Node41&#45;&gt;Node36</title>
<path fill="none" stroke="#191970" d="M348.5819,-386.853C335.5063,-378.1664 319.0651,-366.859 305,-356 254.011,-316.6338 197.0929,-264.7496 174.2743,-243.5965"/>
<polygon fill="#191970" stroke="#191970" points="346.7486,-389.8364 357.026,-392.4104 350.5969,-383.9891 346.7486,-389.8364"/>
</g>
<!-- Node41&#45;&gt;Node42 -->
<g id="edge16" class="edge">
<title>Node41&#45;&gt;Node42</title>
<path fill="none" stroke="#191970" d="M384.5113,-383.2939C391.9331,-369.696 398.5521,-351.1041 391,-336 379.0743,-312.1486 357.3721,-322.4623 343,-300 319.8941,-263.8876 321.2945,-209.7379 323.0128,-187.7755"/>
<polygon fill="#191970" stroke="#191970" points="381.3142,-381.8187 379.1563,-392.1915 387.3117,-385.4284 381.3142,-381.8187"/>
</g>
<!-- Node43 -->
<g id="node15" class="node">
<title>Node43</title>
<g id="a_node15"><a xlink:href="../../da/d3d/band_8hpp.html" target="_top" xlink:title="Contains declaration and partial implementation of sirius::Band class. ">
<polygon fill="#ffffff" stroke="#000000" points="219,-112.5 219,-131.5 277,-131.5 277,-112.5 219,-112.5"/>
<text text-anchor="middle" x="248" y="-119.5" font-family="Helvetica,sans-Serif" font-size="10.00" fill="#000000">band.hpp</text>
</a>
</g>
</g>
<!-- Node42&#45;&gt;Node43 -->
<g id="edge17" class="edge">
<title>Node42&#45;&gt;Node43</title>
<path fill="none" stroke="#191970" d="M302.5703,-162.2097C289.2223,-152.3743 272.4821,-140.0394 261.0865,-131.6427"/>
<polygon fill="#191970" stroke="#191970" points="300.635,-165.1312 310.7618,-168.2455 304.7874,-159.4958 300.635,-165.1312"/>
</g>
<!-- Node43&#45;&gt;Node37 -->
<g id="edge18" class="edge">
<title>Node43&#45;&gt;Node37</title>
<path fill="none" stroke="#191970" d="M238.3353,-103.3372C233.5313,-94.0605 227.9277,-83.2398 223.9935,-75.6427"/>
<polygon fill="#191970" stroke="#191970" points="235.242,-104.9751 242.9486,-112.2455 241.458,-101.7561 235.242,-104.9751"/>
</g>
<!-- Node44&#45;&gt;Node34 -->
<g id="edge27" class="edge">
<title>Node44&#45;&gt;Node34</title>
<path fill="none" stroke="#191970" d="M217.114,-389.1905C185.9688,-378.9309 142.9777,-364.7691 114.8427,-355.5011"/>
<polygon fill="#191970" stroke="#191970" points="216.1829,-392.5687 226.776,-392.3733 218.3731,-385.9202 216.1829,-392.5687"/>
</g>
<!-- Node44&#45;&gt;Node39 -->
<g id="edge28" class="edge">
<title>Node44&#45;&gt;Node39</title>
<path fill="none" stroke="#191970" d="M242.4275,-384.5274C223.8168,-360.5688 191.0222,-318.3505 176.3988,-299.5249"/>
<polygon fill="#191970" stroke="#191970" points="239.6838,-386.7007 248.5824,-392.4509 245.2119,-382.4065 239.6838,-386.7007"/>
</g>
<!-- Node44&#45;&gt;Node43 -->
<g id="edge21" class="edge">
<title>Node44&#45;&gt;Node43</title>
<path fill="none" stroke="#191970" d="M253.7313,-382.2257C251.366,-359.8706 248,-322.3707 248,-290 248,-290 248,-290 248,-234 248,-196.0833 248,-150.9462 248,-131.5884"/>
<polygon fill="#191970" stroke="#191970" points="250.281,-382.8709 254.8538,-392.4281 257.239,-382.1052 250.281,-382.8709"/>
</g>
<!-- Node45 -->
<g id="node17" class="node">
<title>Node45</title>
<g id="a_node17"><a xlink:href="../../d0/d9a/density_8hpp.html" target="_top" xlink:title="Contains definition and partial implementation of sirius::Density class. ">
<polygon fill="#ffffff" stroke="#000000" points="314,-336.5 314,-355.5 382,-355.5 382,-336.5 314,-336.5"/>
<text text-anchor="middle" x="348" y="-343.5" font-family="Helvetica,sans-Serif" font-size="10.00" fill="#000000">density.hpp</text>
</a>
</g>
</g>
<!-- Node44&#45;&gt;Node45 -->
<g id="edge22" class="edge">
<title>Node44&#45;&gt;Node45</title>
<path fill="none" stroke="#191970" d="M281.0224,-386.769C297.325,-376.8456 318.101,-364.1994 332.1585,-355.6427"/>
<polygon fill="#191970" stroke="#191970" points="278.7473,-384.0563 272.0252,-392.2455 282.387,-390.0357 278.7473,-384.0563"/>
</g>
<!-- Node46 -->
<g id="node18" class="node">
<title>Node46</title>
<g id="a_node18"><a xlink:href="../../de/df2/potential_8hpp.html" target="_top" xlink:title="Contains declaration and partial implementation of sirius::Potential class. ">
<polygon fill="#ffffff" stroke="#000000" points="352,-280.5 352,-299.5 426,-299.5 426,-280.5 352,-280.5"/>
<text text-anchor="middle" x="389" y="-287.5" font-family="Helvetica,sans-Serif" font-size="10.00" fill="#000000">potential.hpp</text>
</a>
</g>
</g>
<!-- Node45&#45;&gt;Node46 -->
<g id="edge23" class="edge">
<title>Node45&#45;&gt;Node46</title>
<path fill="none" stroke="#191970" d="M361.2364,-327.9209C368.1211,-318.5176 376.2609,-307.3997 381.9402,-299.6427"/>
<polygon fill="#191970" stroke="#191970" points="358.2251,-326.1093 355.1417,-336.2455 363.8731,-330.2445 358.2251,-326.1093"/>
</g>
<!-- Node46&#45;&gt;Node42 -->
<g id="edge24" class="edge">
<title>Node46&#45;&gt;Node42</title>
<path fill="none" stroke="#191970" d="M369.0029,-273.5378C360.2617,-265.4344 350.5339,-255.042 344,-244 333.1468,-225.6588 327.7172,-200.915 325.416,-187.5395"/>
<polygon fill="#191970" stroke="#191970" points="366.8246,-276.2838 376.6331,-280.2892 371.4632,-271.0414 366.8246,-276.2838"/>
</g>
<!-- Node47 -->
<g id="node19" class="node">
<title>Node47</title>
<g id="a_node19"><a xlink:href="../../d3/d2c/local__operator_8hpp.html" target="_top" xlink:title="Contains declaration and implementation of sirius::Local_operator class. ">
<polygon fill="#ffffff" stroke="#000000" points="352.5,-224.5 352.5,-243.5 451.5,-243.5 451.5,-224.5 352.5,-224.5"/>
<text text-anchor="middle" x="402" y="-231.5" font-family="Helvetica,sans-Serif" font-size="10.00" fill="#000000">local_operator.hpp</text>
</a>
</g>
</g>
<!-- Node46&#45;&gt;Node47 -->
<g id="edge25" class="edge">
<title>Node46&#45;&gt;Node47</title>
<path fill="none" stroke="#191970" d="M393.5375,-270.4538C395.6439,-261.3803 398.0536,-250.9998 399.7615,-243.6427"/>
<polygon fill="#191970" stroke="#191970" points="390.1165,-269.7131 391.2644,-280.2455 396.9351,-271.2961 390.1165,-269.7131"/>
</g>
<!-- Node47&#45;&gt;Node42 -->
<g id="edge26" class="edge">
<title>Node47&#45;&gt;Node42</title>
<path fill="none" stroke="#191970" d="M380.0064,-218.2097C366.3071,-208.3743 349.1264,-196.0394 337.4309,-187.6427"/>
<polygon fill="#191970" stroke="#191970" points="378.2489,-221.2566 388.4134,-224.2455 382.3314,-215.5703 378.2489,-221.2566"/>
</g>
<!-- Node48&#45;&gt;Node32 -->
<g id="edge32" class="edge">
<title>Node48&#45;&gt;Node32</title>
<path fill="none" stroke="#191970" d="M328.2808,-609.3607C317.3818,-599.6727 304.0245,-587.7995 294.848,-579.6427"/>
<polygon fill="#191970" stroke="#191970" points="326.2268,-612.2178 336.0262,-616.2455 330.8774,-606.9859 326.2268,-612.2178"/>
</g>
<!-- Node49&#45;&gt;Node50 -->
<g id="edge34" class="edge">
<title>Node49&#45;&gt;Node50</title>
<path fill="none" stroke="#191970" d="M377.6457,-1054.1575C377.4849,-1045.155 377.3021,-1034.9199 377.1722,-1027.6427"/>
<polygon fill="#191970" stroke="#191970" points="374.1477,-1054.3097 377.8258,-1064.2455 381.1466,-1054.1846 374.1477,-1054.3097"/>
</g>
<!-- Node50&#45;&gt;Node37 -->
<g id="edge46" class="edge">
<title>Node50&#45;&gt;Node37</title>
<path fill="none" stroke="#191970" d="M338.1627,-1014.777C241.8995,-1005.7231 0,-976.007 0,-906 0,-906 0,-906 0,-178 0,-91.31 137.7071,-71.6794 194.7264,-67.2668"/>
<polygon fill="#191970" stroke="#191970" points="338.077,-1018.2837 348.3543,-1015.7091 338.7147,-1011.3128 338.077,-1018.2837"/>
</g>
<!-- Node51 -->
<g id="node23" class="node">
<title>Node51</title>
<g id="a_node23"><a xlink:href="../../dd/d46/input_8hpp.html" target="_top" xlink:title="Contains input parameters structures. ">
<polygon fill="#ffffff" stroke="#000000" points="348,-952.5 348,-971.5 406,-971.5 406,-952.5 348,-952.5"/>
<text text-anchor="middle" x="377" y="-959.5" font-family="Helvetica,sans-Serif" font-size="10.00" fill="#000000">input.hpp</text>
</a>
</g>
</g>
<!-- Node50&#45;&gt;Node51 -->
<g id="edge35" class="edge">
<title>Node50&#45;&gt;Node51</title>
<path fill="none" stroke="#191970" d="M377,-998.1575C377,-989.155 377,-978.9199 377,-971.6427"/>
<polygon fill="#191970" stroke="#191970" points="373.5001,-998.2455 377,-1008.2455 380.5001,-998.2456 373.5001,-998.2455"/>
</g>
<!-- Node55 -->
<g id="node27" class="node">
<title>Node55</title>
<g id="a_node27"><a xlink:href="../../de/d6d/atom_8hpp.html" target="_top" xlink:title="Contains declaration and partial implementation of sirius::Atom class. ">
<polygon fill="#ffffff" stroke="#000000" points="252,-728.5 252,-747.5 310,-747.5 310,-728.5 252,-728.5"/>
<text text-anchor="middle" x="281" y="-735.5" font-family="Helvetica,sans-Serif" font-size="10.00" fill="#000000">atom.hpp</text>
</a>
</g>
</g>
<!-- Node50&#45;&gt;Node55 -->
<g id="edge44" class="edge">
<title>Node50&#45;&gt;Node55</title>
<path fill="none" stroke="#191970" d="M338.2958,-1012.9667C282.2159,-1003.2605 185,-976.2966 185,-906 185,-906 185,-906 185,-850 185,-819.3494 186.1985,-808.2067 205,-784 218.0558,-767.1908 239.1205,-755.137 255.7657,-747.5962"/>
<polygon fill="#191970" stroke="#191970" points="337.8238,-1016.4359 348.2557,-1014.5848 338.9464,-1009.5265 337.8238,-1016.4359"/>
</g>
<!-- Node56 -->
<g id="node28" class="node">
<title>Node56</title>
<g id="a_node28"><a xlink:href="../../d4/dde/sddk__api_8cpp.html" target="_top" xlink:title="Fortran interface for the SDDK library. ">
<polygon fill="#ffffff" stroke="#000000" points="424.5,-952.5 424.5,-971.5 499.5,-971.5 499.5,-952.5 424.5,-952.5"/>
<text text-anchor="middle" x="462" y="-959.5" font-family="Helvetica,sans-Serif" font-size="10.00" fill="#000000">sddk_api.cpp</text>
</a>
</g>
</g>
<!-- Node50&#45;&gt;Node56 -->
<g id="edge45" class="edge">
<title>Node50&#45;&gt;Node56</title>
<path fill="none" stroke="#191970" d="M400.5419,-1002.49C415.539,-992.6096 434.4973,-980.1194 447.3638,-971.6427"/>
<polygon fill="#191970" stroke="#191970" points="398.2309,-999.8212 391.8059,-1008.2455 402.0821,-1005.6666 398.2309,-999.8212"/>
</g>
<!-- Node51&#45;&gt;Node37 -->
<g id="edge43" class="edge">
<title>Node51&#45;&gt;Node37</title>
<path fill="none" stroke="#191970" d="M415.8525,-949.8919C457.5894,-934.1777 518,-902.3847 518,-850 518,-850 518,-850 518,-178 518,-119.45 314.3968,-81.2643 243.2152,-69.7033"/>
<polygon fill="#191970" stroke="#191970" points="414.4372,-946.6814 406.2153,-953.3635 416.8097,-953.2672 414.4372,-946.6814"/>
</g>
<!-- Node52 -->
<g id="node24" class="node">
<title>Node52</title>
<g id="a_node24"><a xlink:href="../../de/d06/simulation__parameters_8hpp.html" target="_top" xlink:title="Contains definition and implementation of sirius::Simulation_parameters_base class. ">
<polygon fill="#ffffff" stroke="#000000" points="308.5,-896.5 308.5,-915.5 445.5,-915.5 445.5,-896.5 308.5,-896.5"/>
<text text-anchor="middle" x="377" y="-903.5" font-family="Helvetica,sans-Serif" font-size="10.00" fill="#000000">simulation_parameters.hpp</text>
</a>
</g>
</g>
<!-- Node51&#45;&gt;Node52 -->
<g id="edge36" class="edge">
<title>Node51&#45;&gt;Node52</title>
<path fill="none" stroke="#191970" d="M377,-942.1575C377,-933.155 377,-922.9199 377,-915.6427"/>
<polygon fill="#191970" stroke="#191970" points="373.5001,-942.2455 377,-952.2455 380.5001,-942.2456 373.5001,-942.2455"/>
</g>
<!-- Node52&#45;&gt;Node31 -->
<g id="edge42" class="edge">
<title>Node52&#45;&gt;Node31</title>
<path fill="none" stroke="#191970" d="M374.3766,-886.4119C368.1816,-840.1557 352.8251,-725.494 348.2843,-691.5891"/>
<polygon fill="#191970" stroke="#191970" points="370.9144,-886.9281 375.7109,-896.375 377.8524,-885.9989 370.9144,-886.9281"/>
</g>
<!-- Node52&#45;&gt;Node40 -->
<g id="edge37" class="edge">
<title>Node52&#45;&gt;Node40</title>
<path fill="none" stroke="#191970" d="M387.489,-887.4209C398.7366,-865.7168 415,-828.3882 415,-794 415,-794 415,-794 415,-570 415,-529.8014 390.5599,-486.5568 378.5308,-467.7069"/>
<polygon fill="#191970" stroke="#191970" points="384.2683,-886.0196 382.607,-896.4834 390.431,-889.3395 384.2683,-886.0196"/>
</g>
<!-- Node53 -->
<g id="node25" class="node">
<title>Node53</title>
<g id="a_node25"><a xlink:href="../../db/df7/atom__type_8hpp.html" target="_top" xlink:title="Contains declaration and implementation of sirius::Atom_type class. ">
<polygon fill="#ffffff" stroke="#000000" points="252.5,-840.5 252.5,-859.5 335.5,-859.5 335.5,-840.5 252.5,-840.5"/>
<text text-anchor="middle" x="294" y="-847.5" font-family="Helvetica,sans-Serif" font-size="10.00" fill="#000000">atom_type.hpp</text>
</a>
</g>
</g>
<!-- Node52&#45;&gt;Node53 -->
<g id="edge38" class="edge">
<title>Node52&#45;&gt;Node53</title>
<path fill="none" stroke="#191970" d="M354.012,-890.49C339.3678,-880.6096 320.8556,-868.1194 308.2918,-859.6427"/>
<polygon fill="#191970" stroke="#191970" points="352.2953,-893.5539 362.5425,-896.2455 356.2104,-887.7511 352.2953,-893.5539"/>
</g>
<!-- Node54 -->
<g id="node26" class="node">
<title>Node54</title>
<g id="a_node26"><a xlink:href="../../d6/d50/atom__symmetry__class_8hpp.html" target="_top" xlink:title="Contains declaration and partial implementation of sirius::Atom_symmetry_class class. ">
<polygon fill="#ffffff" stroke="#000000" points="213.5,-784.5 213.5,-803.5 348.5,-803.5 348.5,-784.5 213.5,-784.5"/>
<text text-anchor="middle" x="281" y="-791.5" font-family="Helvetica,sans-Serif" font-size="10.00" fill="#000000">atom_symmetry_class.hpp</text>
</a>
</g>
</g>
<!-- Node53&#45;&gt;Node54 -->
<g id="edge39" class="edge">
<title>Node53&#45;&gt;Node54</title>
<path fill="none" stroke="#191970" d="M289.4625,-830.4538C287.3561,-821.3803 284.9464,-810.9998 283.2385,-803.6427"/>
<polygon fill="#191970" stroke="#191970" points="286.0649,-831.2961 291.7356,-840.2455 292.8835,-829.7131 286.0649,-831.2961"/>
</g>
<!-- Node54&#45;&gt;Node55 -->
<g id="edge40" class="edge">
<title>Node54&#45;&gt;Node55</title>
<path fill="none" stroke="#191970" d="M281,-774.1575C281,-765.155 281,-754.9199 281,-747.6427"/>
<polygon fill="#191970" stroke="#191970" points="277.5001,-774.2455 281,-784.2455 284.5001,-774.2456 277.5001,-774.2455"/>
</g>
<!-- Node55&#45;&gt;Node31 -->
<g id="edge41" class="edge">
<title>Node55&#45;&gt;Node31</title>
<path fill="none" stroke="#191970" d="M300.2755,-721.645C311.7538,-711.9058 325.9277,-699.8795 335.6354,-691.6427"/>
<polygon fill="#191970" stroke="#191970" points="297.857,-719.1069 292.4963,-728.2455 302.3859,-724.4445 297.857,-719.1069"/>
</g>
<!-- Node57&#45;&gt;Node50 -->
<g id="edge48" class="edge">
<title>Node57&#45;&gt;Node50</title>
<path fill="none" stroke="#191970" d="M448.8314,-1059.0465C431.3942,-1049.0824 408.9889,-1036.2794 393.8747,-1027.6427"/>
<polygon fill="#191970" stroke="#191970" points="447.5108,-1062.323 457.9297,-1064.2455 450.9838,-1056.2453 447.5108,-1062.323"/>
</g>
</g>
</svg>
