<?xml version="1.0" encoding="UTF-8" standalone="no"?>
<!DOCTYPE svg PUBLIC "-//W3C//DTD SVG 1.1//EN"
 "http://www.w3.org/Graphics/SVG/1.1/DTD/svg11.dtd">
<!-- Generated by graphviz version 2.40.1 (20161225.0304)
 -->
<!-- Title: spline.h Pages: 1 -->
<svg width="1066pt" height="1092pt"
 viewBox="0.00 0.00 1066.00 1092.00" xmlns="http://www.w3.org/2000/svg" xmlns:xlink="http://www.w3.org/1999/xlink">
<g id="graph0" class="graph" transform="scale(1 1) rotate(0) translate(4 1088)">
<title>spline.h</title>
<polygon fill="#ffffff" stroke="transparent" points="-4,4 -4,-1088 1062,-1088 1062,4 -4,4"/>
<!-- Node2 -->
<g id="node1" class="node">
<title>Node2</title>
<polygon fill="#bfbfbf" stroke="#000000" points="51.5,-1064.5 51.5,-1083.5 102.5,-1083.5 102.5,-1064.5 51.5,-1064.5"/>
<text text-anchor="middle" x="77" y="-1071.5" font-family="Helvetica,sans-Serif" font-size="10.00" fill="#000000">spline.h</text>
</g>
<!-- Node3 -->
<g id="node2" class="node">
<title>Node3</title>
<g id="a_node2"><a xlink:href="../../db/d16/spheric__function_8h.html" target="_top" xlink:title="Contains declaration and implementation of sirius::Spheric_function and sirius::Spheric_function_grad...">
<polygon fill="#ffffff" stroke="#000000" points="28,-896.5 28,-915.5 126,-915.5 126,-896.5 28,-896.5"/>
<text text-anchor="middle" x="77" y="-903.5" font-family="Helvetica,sans-Serif" font-size="10.00" fill="#000000">spheric_function.h</text>
</a>
</g>
</g>
<!-- Node2&#45;&gt;Node3 -->
<g id="edge1" class="edge">
<title>Node2&#45;&gt;Node3</title>
<path fill="none" stroke="#191970" d="M77,-1054.2601C77,-1018.1669 77,-942.7656 77,-915.8279"/>
<polygon fill="#191970" stroke="#191970" points="73.5001,-1054.4862 77,-1064.4862 80.5001,-1054.4863 73.5001,-1054.4862"/>
</g>
<!-- Node10 -->
<g id="node9" class="node">
<title>Node10</title>
<g id="a_node9"><a xlink:href="../../dd/dc2/sirius_8h.html" target="_top" xlink:title="&quot;All&#45;in&#45;one&quot; include file. ">
<polygon fill="#ffffff" stroke="#000000" points="90,-56.5 90,-75.5 138,-75.5 138,-56.5 90,-56.5"/>
<text text-anchor="middle" x="114" y="-63.5" font-family="Helvetica,sans-Serif" font-size="10.00" fill="#000000">sirius.h</text>
</a>
</g>
</g>
<!-- Node2&#45;&gt;Node10 -->
<g id="edge65" class="edge">
<title>Node2&#45;&gt;Node10</title>
<path fill="none" stroke="#191970" d="M56.4539,-1057.8802C33.644,-1038.0081 0,-1001.9296 0,-962 0,-962 0,-962 0,-178 0,-127.0875 58.5729,-91.6175 91.749,-75.6105"/>
<polygon fill="#191970" stroke="#191970" points="54.3731,-1060.703 64.285,-1064.4453 58.8703,-1055.3386 54.3731,-1060.703"/>
</g>
<!-- Node28 -->
<g id="node27" class="node">
<title>Node28</title>
<g id="a_node27"><a xlink:href="../../de/d6a/radial__solver_8h.html" target="_top" xlink:title="Contains declaration and partial implementation of sirius::Radial_solver class. ">
<polygon fill="#ffffff" stroke="#000000" points="113,-1008.5 113,-1027.5 195,-1027.5 195,-1008.5 113,-1008.5"/>
<text text-anchor="middle" x="154" y="-1015.5" font-family="Helvetica,sans-Serif" font-size="10.00" fill="#000000">radial_solver.h</text>
</a>
</g>
</g>
<!-- Node2&#45;&gt;Node28 -->
<g id="edge58" class="edge">
<title>Node2&#45;&gt;Node28</title>
<path fill="none" stroke="#191970" d="M98.7116,-1058.2097C112.2353,-1048.3743 129.1958,-1036.0394 140.7413,-1027.6427"/>
<polygon fill="#191970" stroke="#191970" points="96.4411,-1055.5332 90.4124,-1064.2455 100.5584,-1061.1944 96.4411,-1055.5332"/>
</g>
<!-- Node4 -->
<g id="node3" class="node">
<title>Node4</title>
<g id="a_node3"><a xlink:href="../../de/d6d/atom_8hpp.html" target="_top" xlink:title="Contains declaration and partial implementation of sirius::Atom class. ">
<polygon fill="#ffffff" stroke="#000000" points="315,-840.5 315,-859.5 373,-859.5 373,-840.5 315,-840.5"/>
<text text-anchor="middle" x="344" y="-847.5" font-family="Helvetica,sans-Serif" font-size="10.00" fill="#000000">atom.hpp</text>
</a>
</g>
</g>
<!-- Node3&#45;&gt;Node4 -->
<g id="edge2" class="edge">
<title>Node3&#45;&gt;Node4</title>
<path fill="none" stroke="#191970" d="M132.6089,-894.3367C188.0367,-882.7114 271.0148,-865.3078 314.696,-856.1461"/>
<polygon fill="#191970" stroke="#191970" points="131.6641,-890.9586 122.5956,-896.4369 133.1011,-897.8096 131.6641,-890.9586"/>
</g>
<!-- Node26 -->
<g id="node25" class="node">
<title>Node26</title>
<g id="a_node25"><a xlink:href="../../d3/d6a/periodic__function_8hpp.html" target="_top" xlink:title="Contains declaration and partial implementation of sirius::Periodic_function class. ">
<polygon fill="#ffffff" stroke="#000000" points="134,-504.5 134,-523.5 246,-523.5 246,-504.5 134,-504.5"/>
<text text-anchor="middle" x="190" y="-511.5" font-family="Helvetica,sans-Serif" font-size="10.00" fill="#000000">periodic_function.hpp</text>
</a>
</g>
</g>
<!-- Node3&#45;&gt;Node26 -->
<g id="edge57" class="edge">
<title>Node3&#45;&gt;Node26</title>
<path fill="none" stroke="#191970" d="M82.6228,-886.4945C102.976,-815.8886 172.387,-575.1001 187.2032,-523.7021"/>
<polygon fill="#191970" stroke="#191970" points="79.2002,-885.7318 79.7933,-896.3101 85.9263,-887.6708 79.2002,-885.7318"/>
</g>
<!-- Node5 -->
<g id="node4" class="node">
<title>Node5</title>
<g id="a_node4"><a xlink:href="../../d4/d91/unit__cell_8hpp.html" target="_top" xlink:title="Contains definition and partial implementation of sirius::Unit_cell class. ">
<polygon fill="#ffffff" stroke="#000000" points="401.5,-784.5 401.5,-803.5 474.5,-803.5 474.5,-784.5 401.5,-784.5"/>
<text text-anchor="middle" x="438" y="-791.5" font-family="Helvetica,sans-Serif" font-size="10.00" fill="#000000">unit_cell.hpp</text>
</a>
</g>
</g>
<!-- Node4&#45;&gt;Node5 -->
<g id="edge3" class="edge">
<title>Node4&#45;&gt;Node5</title>
<path fill="none" stroke="#191970" d="M369.1005,-835.0465C385.826,-825.0824 407.3168,-812.2794 421.8141,-803.6427"/>
<polygon fill="#191970" stroke="#191970" points="367.1732,-832.1206 360.3736,-840.2455 370.7559,-838.1343 367.1732,-832.1206"/>
</g>
<!-- Node6 -->
<g id="node5" class="node">
<title>Node6</title>
<g id="a_node5"><a xlink:href="../../d0/d85/beta__projectors_8hpp.html" target="_top" xlink:title="Contains declaration and implementation of sirius::Beta_projectors class. ">
<polygon fill="#ffffff" stroke="#000000" points="550.5,-504.5 550.5,-523.5 655.5,-523.5 655.5,-504.5 550.5,-504.5"/>
<text text-anchor="middle" x="603" y="-511.5" font-family="Helvetica,sans-Serif" font-size="10.00" fill="#000000">beta_projectors.hpp</text>
</a>
</g>
</g>
<!-- Node5&#45;&gt;Node6 -->
<g id="edge4" class="edge">
<title>Node5&#45;&gt;Node6</title>
<path fill="none" stroke="#191970" d="M438,-774.1952C438,-751.8128 438,-714.2884 438,-682 438,-682 438,-682 438,-626 438,-567.316 510.3342,-537.2429 559.2162,-523.62"/>
<polygon fill="#191970" stroke="#191970" points="434.5001,-774.4116 438,-784.4116 441.5001,-774.4117 434.5001,-774.4116"/>
</g>
<!-- Node5&#45;&gt;Node10 -->
<g id="edge56" class="edge">
<title>Node5&#45;&gt;Node10</title>
<path fill="none" stroke="#191970" d="M391.3806,-782.7794C293.593,-757.8824 76,-694.7575 76,-626 76,-626 76,-626 76,-178 76,-138.1657 97.8226,-94.3859 108.393,-75.5166"/>
<polygon fill="#191970" stroke="#191970" points="390.7453,-786.2287 401.2974,-785.2776 392.4553,-779.4408 390.7453,-786.2287"/>
</g>
<!-- Node23 -->
<g id="node22" class="node">
<title>Node23</title>
<g id="a_node22"><a xlink:href="../../d4/df7/radial__integrals_8hpp.html" target="_top" xlink:title="Representation of various radial integrals. ">
<polygon fill="#ffffff" stroke="#000000" points="487,-672.5 487,-691.5 591,-691.5 591,-672.5 487,-672.5"/>
<text text-anchor="middle" x="539" y="-679.5" font-family="Helvetica,sans-Serif" font-size="10.00" fill="#000000">radial_integrals.hpp</text>
</a>
</g>
</g>
<!-- Node5&#45;&gt;Node23 -->
<g id="edge36" class="edge">
<title>Node5&#45;&gt;Node23</title>
<path fill="none" stroke="#191970" d="M452.6746,-776.5237C464.0489,-763.0971 480.2972,-744.1746 495,-728 506.5963,-715.2429 520.3985,-700.952 529.412,-691.7338"/>
<polygon fill="#191970" stroke="#191970" points="449.744,-774.5695 445.9692,-784.469 455.0936,-779.0842 449.744,-774.5695"/>
</g>
<!-- Node27 -->
<g id="node26" class="node">
<title>Node27</title>
<g id="a_node26"><a xlink:href="../../d1/d2b/sbessel_8hpp.html" target="_top" xlink:title="Contains implementation of sirius::Spherical_Bessel_functions classe. ">
<polygon fill="#ffffff" stroke="#000000" points="504,-728.5 504,-747.5 574,-747.5 574,-728.5 504,-728.5"/>
<text text-anchor="middle" x="539" y="-735.5" font-family="Helvetica,sans-Serif" font-size="10.00" fill="#000000">sbessel.hpp</text>
</a>
</g>
</g>
<!-- Node5&#45;&gt;Node27 -->
<g id="edge54" class="edge">
<title>Node5&#45;&gt;Node27</title>
<path fill="none" stroke="#191970" d="M464.4719,-779.3225C482.5125,-769.3198 505.8877,-756.3593 521.6087,-747.6427"/>
<polygon fill="#191970" stroke="#191970" points="462.6413,-776.3354 455.5929,-784.2455 466.0357,-782.4574 462.6413,-776.3354"/>
</g>
<!-- Node7 -->
<g id="node6" class="node">
<title>Node7</title>
<g id="a_node6"><a xlink:href="../../d9/de8/beta__projectors__gradient_8hpp.html" target="_top" xlink:title="Contains declaration and implementation of sirius::Beta_projectors_gradient class. ">
<polygon fill="#ffffff" stroke="#000000" points="466.5,-448.5 466.5,-467.5 613.5,-467.5 613.5,-448.5 466.5,-448.5"/>
<text text-anchor="middle" x="540" y="-455.5" font-family="Helvetica,sans-Serif" font-size="10.00" fill="#000000">beta_projectors_gradient.hpp</text>
</a>
</g>
</g>
<!-- Node6&#45;&gt;Node7 -->
<g id="edge5" class="edge">
<title>Node6&#45;&gt;Node7</title>
<path fill="none" stroke="#191970" d="M584.2808,-497.3607C573.3818,-487.6727 560.0245,-475.7995 550.848,-467.6427"/>
<polygon fill="#191970" stroke="#191970" points="582.2268,-500.2178 592.0262,-504.2455 586.8774,-494.9859 582.2268,-500.2178"/>
</g>
<!-- Node8 -->
<g id="node7" class="node">
<title>Node8</title>
<g id="a_node7"><a xlink:href="../../db/d74/hubbard_8hpp.html" target="_top" xlink:title="Contains declaration and partial implementation of sirius::Hubbard class. ">
<polygon fill="#ffffff" stroke="#000000" points="729.5,-392.5 729.5,-411.5 802.5,-411.5 802.5,-392.5 729.5,-392.5"/>
<text text-anchor="middle" x="766" y="-399.5" font-family="Helvetica,sans-Serif" font-size="10.00" fill="#000000">hubbard.hpp</text>
</a>
</g>
</g>
<!-- Node6&#45;&gt;Node8 -->
<g id="edge27" class="edge">
<title>Node6&#45;&gt;Node8</title>
<path fill="none" stroke="#191970" d="M644.0992,-501.0835C664.7498,-493.415 689.4654,-482.3611 709,-468 730.957,-451.858 750.2169,-425.7863 759.7173,-411.7289"/>
<polygon fill="#191970" stroke="#191970" points="642.8665,-497.8072 634.6304,-504.4718 645.225,-504.3979 642.8665,-497.8072"/>
</g>
<!-- Node14 -->
<g id="node13" class="node">
<title>Node14</title>
<g id="a_node13"><a xlink:href="../../d6/d1e/force_8hpp.html" target="_top" xlink:title="Contains defintion and implementation of sirius::Force class. ">
<polygon fill="#ffffff" stroke="#000000" points="366,-392.5 366,-411.5 424,-411.5 424,-392.5 366,-392.5"/>
<text text-anchor="middle" x="395" y="-399.5" font-family="Helvetica,sans-Serif" font-size="10.00" fill="#000000">force.hpp</text>
</a>
</g>
</g>
<!-- Node6&#45;&gt;Node14 -->
<g id="edge32" class="edge">
<title>Node6&#45;&gt;Node14</title>
<path fill="none" stroke="#191970" d="M542.2289,-501.9545C515.0894,-494.805 483.5418,-483.9397 458,-468 433.5421,-452.7368 412.0181,-425.8174 401.6181,-411.53"/>
<polygon fill="#191970" stroke="#191970" points="541.4564,-505.3692 552.0089,-504.4229 543.1695,-498.582 541.4564,-505.3692"/>
</g>
<!-- Node15 -->
<g id="node14" class="node">
<title>Node15</title>
<g id="a_node14"><a xlink:href="../../d3/d9a/k__point_8hpp.html" target="_top" xlink:title="Contains definition and partial implementation of sirius::K_point class. ">
<polygon fill="#ffffff" stroke="#000000" points="632,-448.5 632,-467.5 700,-467.5 700,-448.5 632,-448.5"/>
<text text-anchor="middle" x="666" y="-455.5" font-family="Helvetica,sans-Serif" font-size="10.00" fill="#000000">k_point.hpp</text>
</a>
</g>
</g>
<!-- Node6&#45;&gt;Node15 -->
<g id="edge15" class="edge">
<title>Node6&#45;&gt;Node15</title>
<path fill="none" stroke="#191970" d="M621.7192,-497.3607C632.6182,-487.6727 645.9755,-475.7995 655.152,-467.6427"/>
<polygon fill="#191970" stroke="#191970" points="619.1226,-494.9859 613.9738,-504.2455 623.7732,-500.2178 619.1226,-494.9859"/>
</g>
<!-- Node20 -->
<g id="node19" class="node">
<title>Node20</title>
<g id="a_node19"><a xlink:href="../../d5/d72/non__local__functor_8hpp.html" target="_top" xlink:title="Common operation for forces and stress tensor. ">
<polygon fill="#ffffff" stroke="#000000" points="256.5,-448.5 256.5,-467.5 371.5,-467.5 371.5,-448.5 256.5,-448.5"/>
<text text-anchor="middle" x="314" y="-455.5" font-family="Helvetica,sans-Serif" font-size="10.00" fill="#000000">non_local_functor.hpp</text>
</a>
</g>
</g>
<!-- Node6&#45;&gt;Node20 -->
<g id="edge28" class="edge">
<title>Node6&#45;&gt;Node20</title>
<path fill="none" stroke="#191970" d="M543.6572,-502.501C490.3673,-492.175 413.0542,-477.1939 363.1489,-467.5237"/>
<polygon fill="#191970" stroke="#191970" points="543.1643,-505.9706 553.6475,-504.4369 544.496,-499.0984 543.1643,-505.9706"/>
</g>
<!-- Node22 -->
<g id="node21" class="node">
<title>Node22</title>
<g id="a_node21"><a xlink:href="../../de/de7/non__local__operator_8hpp.html" target="_top" xlink:title="Contains declaration and implementation of sirius::Non_local_operator class. ">
<polygon fill="#ffffff" stroke="#000000" points="794,-448.5 794,-467.5 916,-467.5 916,-448.5 794,-448.5"/>
<text text-anchor="middle" x="855" y="-455.5" font-family="Helvetica,sans-Serif" font-size="10.00" fill="#000000">non_local_operator.hpp</text>
</a>
</g>
</g>
<!-- Node6&#45;&gt;Node22 -->
<g id="edge33" class="edge">
<title>Node6&#45;&gt;Node22</title>
<path fill="none" stroke="#191970" d="M655.9089,-502.2425C702.3322,-491.9262 768.9893,-477.1135 812.1435,-467.5237"/>
<polygon fill="#191970" stroke="#191970" points="655.0366,-498.8508 646.034,-504.4369 656.5552,-505.6842 655.0366,-498.8508"/>
</g>
<!-- Node7&#45;&gt;Node8 -->
<g id="edge6" class="edge">
<title>Node7&#45;&gt;Node8</title>
<path fill="none" stroke="#191970" d="M588.3894,-446.0097C630.6602,-435.5355 691.0976,-420.5599 729.4365,-411.06"/>
<polygon fill="#191970" stroke="#191970" points="587.4586,-442.6344 578.594,-448.4369 589.1423,-449.4289 587.4586,-442.6344"/>
</g>
<!-- Node7&#45;&gt;Node14 -->
<g id="edge13" class="edge">
<title>Node7&#45;&gt;Node14</title>
<path fill="none" stroke="#191970" d="M505.4435,-444.6541C479.0014,-434.4419 443.1831,-420.6086 419.6011,-411.5011"/>
<polygon fill="#191970" stroke="#191970" points="504.4842,-448.0354 515.0736,-448.3733 507.0061,-441.5055 504.4842,-448.0354"/>
</g>
<!-- Node9 -->
<g id="node8" class="node">
<title>Node9</title>
<g id="a_node8"><a xlink:href="../../df/dc4/dft__ground__state_8hpp.html" target="_top" xlink:title="Contains definition and partial implementation of sirius::DFT_ground_state class. ...">
<polygon fill="#ffffff" stroke="#000000" points="339.5,-336.5 339.5,-355.5 450.5,-355.5 450.5,-336.5 339.5,-336.5"/>
<text text-anchor="middle" x="395" y="-343.5" font-family="Helvetica,sans-Serif" font-size="10.00" fill="#000000">dft_ground_state.hpp</text>
</a>
</g>
</g>
<!-- Node8&#45;&gt;Node9 -->
<g id="edge7" class="edge">
<title>Node8&#45;&gt;Node9</title>
<path fill="none" stroke="#191970" d="M719.37,-394.9615C651.0485,-384.6488 523.9402,-365.4627 450.7679,-354.4178"/>
<polygon fill="#191970" stroke="#191970" points="719.0013,-398.4454 729.4118,-396.4772 720.0462,-391.5238 719.0013,-398.4454"/>
</g>
<!-- Node12 -->
<g id="node11" class="node">
<title>Node12</title>
<g id="a_node11"><a xlink:href="../../de/dec/hamiltonian_8hpp.html" target="_top" xlink:title="Contains declaration and definition of sirius::Hamiltonian class. ">
<polygon fill="#ffffff" stroke="#000000" points="657.5,-168.5 657.5,-187.5 744.5,-187.5 744.5,-168.5 657.5,-168.5"/>
<text text-anchor="middle" x="701" y="-175.5" font-family="Helvetica,sans-Serif" font-size="10.00" fill="#000000">hamiltonian.hpp</text>
</a>
</g>
</g>
<!-- Node8&#45;&gt;Node12 -->
<g id="edge10" class="edge">
<title>Node8&#45;&gt;Node12</title>
<path fill="none" stroke="#191970" d="M760.5754,-382.676C751.3675,-349.9638 732.0192,-281.612 715,-224 711.2633,-211.3509 706.8062,-196.7932 703.9413,-187.5011"/>
<polygon fill="#191970" stroke="#191970" points="757.2154,-383.6569 763.2914,-392.3364 763.9542,-381.7623 757.2154,-383.6569"/>
</g>
<!-- Node9&#45;&gt;Node10 -->
<g id="edge8" class="edge">
<title>Node9&#45;&gt;Node10</title>
<path fill="none" stroke="#191970" d="M378.0802,-329.1404C325.2877,-276.5358 164.6767,-116.4963 123.632,-75.5977"/>
<polygon fill="#191970" stroke="#191970" points="375.7732,-331.7826 385.3273,-336.3618 380.7141,-326.824 375.7732,-331.7826"/>
</g>
<!-- Node11 -->
<g id="node10" class="node">
<title>Node11</title>
<g id="a_node10"><a xlink:href="../../d4/d53/sirius__api_8cpp.html" target="_top" xlink:title="Fortran API. ">
<polygon fill="#ffffff" stroke="#000000" points="75,-.5 75,-19.5 153,-19.5 153,-.5 75,-.5"/>
<text text-anchor="middle" x="114" y="-7.5" font-family="Helvetica,sans-Serif" font-size="10.00" fill="#000000">sirius_api.cpp</text>
</a>
</g>
</g>
<!-- Node10&#45;&gt;Node11 -->
<g id="edge9" class="edge">
<title>Node10&#45;&gt;Node11</title>
<path fill="none" stroke="#191970" d="M114,-46.1575C114,-37.155 114,-26.9199 114,-19.6427"/>
<polygon fill="#191970" stroke="#191970" points="110.5001,-46.2455 114,-56.2455 117.5001,-46.2456 110.5001,-46.2455"/>
</g>
<!-- Node13 -->
<g id="node12" class="node">
<title>Node13</title>
<g id="a_node12"><a xlink:href="../../da/d3d/band_8hpp.html" target="_top" xlink:title="Contains declaration and partial implementation of sirius::Band class. ">
<polygon fill="#ffffff" stroke="#000000" points="325,-112.5 325,-131.5 383,-131.5 383,-112.5 325,-112.5"/>
<text text-anchor="middle" x="354" y="-119.5" font-family="Helvetica,sans-Serif" font-size="10.00" fill="#000000">band.hpp</text>
</a>
</g>
</g>
<!-- Node12&#45;&gt;Node13 -->
<g id="edge11" class="edge">
<title>Node12&#45;&gt;Node13</title>
<path fill="none" stroke="#191970" d="M647.3059,-169.3347C572.9494,-157.3348 441.2235,-136.0764 383.0259,-126.6843"/>
<polygon fill="#191970" stroke="#191970" points="646.9736,-172.8263 657.4036,-170.9643 648.089,-165.9157 646.9736,-172.8263"/>
</g>
<!-- Node13&#45;&gt;Node10 -->
<g id="edge12" class="edge">
<title>Node13&#45;&gt;Node10</title>
<path fill="none" stroke="#191970" d="M314.7527,-112.8423C264.7144,-101.1667 179.7254,-81.3359 138.2359,-71.655"/>
<polygon fill="#191970" stroke="#191970" points="314.0375,-116.2694 324.5713,-115.1333 315.6282,-109.4525 314.0375,-116.2694"/>
</g>
<!-- Node14&#45;&gt;Node9 -->
<g id="edge14" class="edge">
<title>Node14&#45;&gt;Node9</title>
<path fill="none" stroke="#191970" d="M395,-382.1575C395,-373.155 395,-362.9199 395,-355.6427"/>
<polygon fill="#191970" stroke="#191970" points="391.5001,-382.2455 395,-392.2455 398.5001,-382.2456 391.5001,-382.2455"/>
</g>
<!-- Node15&#45;&gt;Node8 -->
<g id="edge25" class="edge">
<title>Node15&#45;&gt;Node8</title>
<path fill="none" stroke="#191970" d="M692.2098,-443.3225C710.0717,-433.3198 733.2155,-420.3593 748.7809,-411.6427"/>
<polygon fill="#191970" stroke="#191970" points="690.4336,-440.3057 683.4187,-448.2455 693.8539,-446.4132 690.4336,-440.3057"/>
</g>
<!-- Node15&#45;&gt;Node12 -->
<g id="edge26" class="edge">
<title>Node15&#45;&gt;Node12</title>
<path fill="none" stroke="#191970" d="M675.6609,-439.324C686.0205,-417.5299 701,-380.1179 701,-346 701,-346 701,-346 701,-290 701,-252.0833 701,-206.9462 701,-187.5884"/>
<polygon fill="#191970" stroke="#191970" points="672.4545,-437.9123 671.1644,-448.4283 678.7308,-441.0121 672.4545,-437.9123"/>
</g>
<!-- Node16 -->
<g id="node15" class="node">
<title>Node16</title>
<g id="a_node15"><a xlink:href="../../d3/de4/k__point__set_8hpp.html" target="_top" xlink:title="Contains declaration and partial implementation of sirius::K_point_set class. ">
<polygon fill="#ffffff" stroke="#000000" points="442.5,-392.5 442.5,-411.5 529.5,-411.5 529.5,-392.5 442.5,-392.5"/>
<text text-anchor="middle" x="486" y="-399.5" font-family="Helvetica,sans-Serif" font-size="10.00" fill="#000000">k_point_set.hpp</text>
</a>
</g>
</g>
<!-- Node15&#45;&gt;Node16 -->
<g id="edge16" class="edge">
<title>Node15&#45;&gt;Node16</title>
<path fill="none" stroke="#191970" d="M625.2541,-445.3235C592.2437,-435.0536 546.4583,-420.8093 516.5393,-411.5011"/>
<polygon fill="#191970" stroke="#191970" points="624.4686,-448.7445 635.0569,-448.3733 626.5481,-442.0605 624.4686,-448.7445"/>
</g>
<!-- Node16&#45;&gt;Node9 -->
<g id="edge24" class="edge">
<title>Node16&#45;&gt;Node9</title>
<path fill="none" stroke="#191970" d="M461.2496,-386.769C445.1242,-376.8456 424.574,-364.1994 410.6693,-355.6427"/>
<polygon fill="#191970" stroke="#191970" points="459.7981,-389.9853 470.149,-392.2455 463.4668,-384.0237 459.7981,-389.9853"/>
</g>
<!-- Node16&#45;&gt;Node13 -->
<g id="edge17" class="edge">
<title>Node16&#45;&gt;Node13</title>
<path fill="none" stroke="#191970" d="M484.0149,-382.2186C481.9452,-359.8571 479,-322.3514 479,-290 479,-290 479,-290 479,-234 479,-204.8618 402.7061,-152.8926 369.3275,-131.5505"/>
<polygon fill="#191970" stroke="#191970" points="480.5551,-382.8055 484.9971,-392.4242 487.5229,-382.1349 480.5551,-382.8055"/>
</g>
<!-- Node17 -->
<g id="node16" class="node">
<title>Node17</title>
<g id="a_node16"><a xlink:href="../../d0/d9a/density_8hpp.html" target="_top" xlink:title="Contains definition and partial implementation of sirius::Density class. ">
<polygon fill="#ffffff" stroke="#000000" points="253,-336.5 253,-355.5 321,-355.5 321,-336.5 253,-336.5"/>
<text text-anchor="middle" x="287" y="-343.5" font-family="Helvetica,sans-Serif" font-size="10.00" fill="#000000">density.hpp</text>
</a>
</g>
</g>
<!-- Node16&#45;&gt;Node17 -->
<g id="edge18" class="edge">
<title>Node16&#45;&gt;Node17</title>
<path fill="none" stroke="#191970" d="M441.8938,-389.5882C405.3323,-379.2996 354.1252,-364.8895 320.7629,-355.5011"/>
<polygon fill="#191970" stroke="#191970" points="441.2164,-393.0335 451.7907,-392.3733 443.1127,-386.2952 441.2164,-393.0335"/>
</g>
<!-- Node18 -->
<g id="node17" class="node">
<title>Node18</title>
<g id="a_node17"><a xlink:href="../../de/df2/potential_8hpp.html" target="_top" xlink:title="Contains declaration and partial implementation of sirius::Potential class. ">
<polygon fill="#ffffff" stroke="#000000" points="508,-280.5 508,-299.5 582,-299.5 582,-280.5 508,-280.5"/>
<text text-anchor="middle" x="545" y="-287.5" font-family="Helvetica,sans-Serif" font-size="10.00" fill="#000000">potential.hpp</text>
</a>
</g>
</g>
<!-- Node17&#45;&gt;Node18 -->
<g id="edge19" class="edge">
<title>Node17&#45;&gt;Node18</title>
<path fill="none" stroke="#191970" d="M330.6984,-336.0667C330.7991,-336.0444 330.8996,-336.0222 331,-336 392.9657,-322.2991 465.1538,-306.8982 507.8575,-297.8457"/>
<polygon fill="#191970" stroke="#191970" points="330.0986,-332.6144 321.1009,-338.2083 331.6231,-339.4464 330.0986,-332.6144"/>
</g>
<!-- Node18&#45;&gt;Node10 -->
<g id="edge23" class="edge">
<title>Node18&#45;&gt;Node10</title>
<path fill="none" stroke="#191970" d="M497.7186,-280.4459C419.5264,-262.6835 261.5467,-218.2922 157,-132 138.0154,-116.3302 124.4693,-90.0667 118.0996,-75.8537"/>
<polygon fill="#191970" stroke="#191970" points="497.2346,-283.9237 507.756,-282.6787 498.7547,-277.0908 497.2346,-283.9237"/>
</g>
<!-- Node18&#45;&gt;Node12 -->
<g id="edge20" class="edge">
<title>Node18&#45;&gt;Node12</title>
<path fill="none" stroke="#191970" d="M546.2697,-270.0958C548.214,-255.568 553.0518,-236.3358 565,-224 589.2777,-198.9347 627.6755,-187.5273 657.4887,-182.3357"/>
<polygon fill="#191970" stroke="#191970" points="542.782,-269.7993 545.2771,-280.0961 549.7478,-270.4908 542.782,-269.7993"/>
</g>
<!-- Node19 -->
<g id="node18" class="node">
<title>Node19</title>
<g id="a_node18"><a xlink:href="../../d3/d2c/local__operator_8hpp.html" target="_top" xlink:title="Contains declaration and implementation of sirius::Local_operator class. ">
<polygon fill="#ffffff" stroke="#000000" points="573.5,-224.5 573.5,-243.5 672.5,-243.5 672.5,-224.5 573.5,-224.5"/>
<text text-anchor="middle" x="623" y="-231.5" font-family="Helvetica,sans-Serif" font-size="10.00" fill="#000000">local_operator.hpp</text>
</a>
</g>
</g>
<!-- Node18&#45;&gt;Node19 -->
<g id="edge21" class="edge">
<title>Node18&#45;&gt;Node19</title>
<path fill="none" stroke="#191970" d="M566.9936,-274.2097C580.6929,-264.3743 597.8736,-252.0394 609.5691,-243.6427"/>
<polygon fill="#191970" stroke="#191970" points="564.6686,-271.5703 558.5866,-280.2455 568.7511,-277.2566 564.6686,-271.5703"/>
</g>
<!-- Node19&#45;&gt;Node12 -->
<g id="edge22" class="edge">
<title>Node19&#45;&gt;Node12</title>
<path fill="none" stroke="#191970" d="M644.9936,-218.2097C658.6929,-208.3743 675.8736,-196.0394 687.5691,-187.6427"/>
<polygon fill="#191970" stroke="#191970" points="642.6686,-215.5703 636.5866,-224.2455 646.7511,-221.2566 642.6686,-215.5703"/>
</g>
<!-- Node20&#45;&gt;Node14 -->
<g id="edge31" class="edge">
<title>Node20&#45;&gt;Node14</title>
<path fill="none" stroke="#191970" d="M336.434,-442.49C350.7254,-432.6096 368.7916,-420.1194 381.0526,-411.6427"/>
<polygon fill="#191970" stroke="#191970" points="334.3443,-439.6797 328.1091,-448.2455 338.3251,-445.4376 334.3443,-439.6797"/>
</g>
<!-- Node21 -->
<g id="node20" class="node">
<title>Node21</title>
<g id="a_node20"><a xlink:href="../../d7/dd1/stress_8hpp.html" target="_top" xlink:title="Stress tensor calculation. ">
<polygon fill="#ffffff" stroke="#000000" points="283.5,-392.5 283.5,-411.5 346.5,-411.5 346.5,-392.5 283.5,-392.5"/>
<text text-anchor="middle" x="315" y="-399.5" font-family="Helvetica,sans-Serif" font-size="10.00" fill="#000000">stress.hpp</text>
</a>
</g>
</g>
<!-- Node20&#45;&gt;Node21 -->
<g id="edge29" class="edge">
<title>Node20&#45;&gt;Node21</title>
<path fill="none" stroke="#191970" d="M314.3543,-438.1575C314.5151,-429.155 314.6979,-418.9199 314.8278,-411.6427"/>
<polygon fill="#191970" stroke="#191970" points="310.8534,-438.1846 314.1742,-448.2455 317.8523,-438.3097 310.8534,-438.1846"/>
</g>
<!-- Node21&#45;&gt;Node9 -->
<g id="edge30" class="edge">
<title>Node21&#45;&gt;Node9</title>
<path fill="none" stroke="#191970" d="M337.1571,-386.49C351.272,-376.6096 369.1151,-364.1194 381.2248,-355.6427"/>
<polygon fill="#191970" stroke="#191970" points="335.1201,-383.6436 328.9349,-392.2455 339.1344,-389.3782 335.1201,-383.6436"/>
</g>
<!-- Node22&#45;&gt;Node8 -->
<g id="edge34" class="edge">
<title>Node22&#45;&gt;Node8</title>
<path fill="none" stroke="#191970" d="M830.7936,-442.769C815.0225,-432.8456 794.924,-420.1994 781.325,-411.6427"/>
<polygon fill="#191970" stroke="#191970" points="829.1695,-445.8823 839.4974,-448.2455 832.8974,-439.9575 829.1695,-445.8823"/>
</g>
<!-- Node22&#45;&gt;Node12 -->
<g id="edge35" class="edge">
<title>Node22&#45;&gt;Node12</title>
<path fill="none" stroke="#191970" d="M851.6456,-438.5699C848.0954,-416.2865 843,-378.6222 843,-346 843,-346 843,-346 843,-290 843,-234.4252 775.118,-202.1592 733.222,-187.5374"/>
<polygon fill="#191970" stroke="#191970" points="848.1947,-439.1544 853.2807,-448.4486 855.1007,-438.0113 848.1947,-439.1544"/>
</g>
<!-- Node23&#45;&gt;Node8 -->
<g id="edge52" class="edge">
<title>Node23&#45;&gt;Node8</title>
<path fill="none" stroke="#191970" d="M584.2552,-669.5611C650.4776,-650.0008 766,-610.1278 766,-570 766,-570 766,-570 766,-514 766,-476.0833 766,-430.9462 766,-411.5884"/>
<polygon fill="#191970" stroke="#191970" points="583.0918,-666.2544 574.4688,-672.4102 585.0485,-672.9754 583.0918,-666.2544"/>
</g>
<!-- Node24 -->
<g id="node23" class="node">
<title>Node24</title>
<g id="a_node23"><a xlink:href="../../d3/d1c/augmentation__operator_8hpp.html" target="_top" xlink:title="Contains implementation of sirius::Augmentation_operator class. ">
<polygon fill="#ffffff" stroke="#000000" points="468.5,-616.5 468.5,-635.5 607.5,-635.5 607.5,-616.5 468.5,-616.5"/>
<text text-anchor="middle" x="538" y="-623.5" font-family="Helvetica,sans-Serif" font-size="10.00" fill="#000000">augmentation_operator.hpp</text>
</a>
</g>
</g>
<!-- Node23&#45;&gt;Node24 -->
<g id="edge37" class="edge">
<title>Node23&#45;&gt;Node24</title>
<path fill="none" stroke="#191970" d="M538.6457,-662.1575C538.4849,-653.155 538.3021,-642.9199 538.1722,-635.6427"/>
<polygon fill="#191970" stroke="#191970" points="535.1477,-662.3097 538.8258,-672.2455 542.1466,-662.1846 535.1477,-662.3097"/>
</g>
<!-- Node25 -->
<g id="node24" class="node">
<title>Node25</title>
<g id="a_node24"><a xlink:href="../../d5/d5b/simulation__context_8h.html" target="_top" xlink:title="Contains definition and implementation of Simulation_context class. ">
<polygon fill="#ffffff" stroke="#000000" points="796,-560.5 796,-579.5 904,-579.5 904,-560.5 796,-560.5"/>
<text text-anchor="middle" x="850" y="-567.5" font-family="Helvetica,sans-Serif" font-size="10.00" fill="#000000">simulation_context.h</text>
</a>
</g>
</g>
<!-- Node23&#45;&gt;Node25 -->
<g id="edge53" class="edge">
<title>Node23&#45;&gt;Node25</title>
<path fill="none" stroke="#191970" d="M601.3861,-674.1327C662.0815,-665.7611 749.4759,-651.5936 780,-636 807.0711,-622.1704 831.0308,-594.6462 842.6204,-579.8894"/>
<polygon fill="#191970" stroke="#191970" points="600.5736,-670.7109 591.1364,-675.5265 601.5169,-677.647 600.5736,-670.7109"/>
</g>
<!-- Node24&#45;&gt;Node14 -->
<g id="edge39" class="edge">
<title>Node24&#45;&gt;Node14</title>
<path fill="none" stroke="#191970" d="M524.7072,-607.9896C503.6154,-579.1052 461.6343,-520.3463 430,-468 418.1936,-448.4635 406.078,-424.5944 399.6588,-411.584"/>
<polygon fill="#191970" stroke="#191970" points="522.0451,-610.2781 530.7816,-616.2719 527.6897,-606.1382 522.0451,-610.2781"/>
</g>
<!-- Node24&#45;&gt;Node20 -->
<g id="edge38" class="edge">
<title>Node24&#45;&gt;Node20</title>
<path fill="none" stroke="#191970" d="M517.038,-610.2785C471.3396,-576.0047 363.8752,-495.4064 326.8235,-467.6177"/>
<polygon fill="#191970" stroke="#191970" points="515.215,-613.2862 525.315,-616.4862 519.415,-607.6862 515.215,-613.2862"/>
</g>
<!-- Node24&#45;&gt;Node25 -->
<g id="edge40" class="edge">
<title>Node24&#45;&gt;Node25</title>
<path fill="none" stroke="#191970" d="M601.3493,-614.6296C658.9019,-604.2997 742.8386,-589.2341 796.9395,-579.5237"/>
<polygon fill="#191970" stroke="#191970" points="600.5046,-611.2252 591.2802,-616.4369 601.7413,-618.1151 600.5046,-611.2252"/>
</g>
<!-- Node25&#45;&gt;Node6 -->
<g id="edge41" class="edge">
<title>Node25&#45;&gt;Node6</title>
<path fill="none" stroke="#191970" d="M797.8545,-558.1775C752.3649,-547.8641 687.2154,-533.0934 645.0062,-523.5237"/>
<polygon fill="#191970" stroke="#191970" points="797.2934,-561.6391 807.8198,-560.4369 798.8413,-554.8123 797.2934,-561.6391"/>
</g>
<!-- Node25&#45;&gt;Node8 -->
<g id="edge42" class="edge">
<title>Node25&#45;&gt;Node8</title>
<path fill="none" stroke="#191970" d="M872.0446,-554.3386C902.8666,-530.5221 952.1743,-484.1505 925,-448 910.3233,-428.4753 845.0234,-414.5968 802.8064,-407.4757"/>
<polygon fill="#191970" stroke="#191970" points="869.8211,-551.6311 863.9203,-560.4307 874.0207,-557.2315 869.8211,-551.6311"/>
</g>
<!-- Node25&#45;&gt;Node12 -->
<g id="edge43" class="edge">
<title>Node25&#45;&gt;Node12</title>
<path fill="none" stroke="#191970" d="M906.1355,-557.7397C955.6527,-543.2301 1020,-513.6659 1020,-458 1020,-458 1020,-458 1020,-290 1020,-232.331 832.0528,-197.2052 744.6867,-183.9925"/>
<polygon fill="#191970" stroke="#191970" points="905.143,-554.3829 896.4532,-560.4442 907.0262,-561.1248 905.143,-554.3829"/>
</g>
<!-- Node25&#45;&gt;Node18 -->
<g id="edge51" class="edge">
<title>Node25&#45;&gt;Node18</title>
<path fill="none" stroke="#191970" d="M884.6659,-555.9796C899.314,-548.4723 915.4004,-537.8737 926,-524 946.956,-496.571 960.9752,-476.8348 942,-448 900.3547,-384.7155 672.4458,-321.8367 582.0047,-299.001"/>
<polygon fill="#191970" stroke="#191970" points="882.8179,-552.9844 875.3199,-560.4698 885.8493,-559.294 882.8179,-552.9844"/>
</g>
<!-- Node25&#45;&gt;Node22 -->
<g id="edge44" class="edge">
<title>Node25&#45;&gt;Node22</title>
<path fill="none" stroke="#191970" d="M850.8808,-550.2702C851.9644,-525.9985 853.7602,-485.7725 854.5748,-467.5249"/>
<polygon fill="#191970" stroke="#191970" points="847.3759,-550.3048 850.4263,-560.4509 854.3689,-550.617 847.3759,-550.3048"/>
</g>
<!-- Node25&#45;&gt;Node26 -->
<g id="edge45" class="edge">
<title>Node25&#45;&gt;Node26</title>
<path fill="none" stroke="#191970" d="M785.8716,-564.5588C656.9281,-553.6181 368.1898,-529.1191 246.1577,-518.7649"/>
<polygon fill="#191970" stroke="#191970" points="785.7293,-568.0592 795.9894,-565.4173 786.3212,-561.0843 785.7293,-568.0592"/>
</g>
<!-- Node26&#45;&gt;Node13 -->
<g id="edge46" class="edge">
<title>Node26&#45;&gt;Node13</title>
<path fill="none" stroke="#191970" d="M187.8955,-494.1561C187.1352,-486.0555 186.3727,-476.5893 186,-468 184.5229,-433.9631 185.5102,-424.4138 196,-392 232.1203,-280.3871 319.77,-164.9042 346.2787,-131.5407"/>
<polygon fill="#191970" stroke="#191970" points="184.4166,-494.5433 188.894,-504.1456 191.3819,-493.8471 184.4166,-494.5433"/>
</g>
<!-- Node26&#45;&gt;Node14 -->
<g id="edge49" class="edge">
<title>Node26&#45;&gt;Node14</title>
<path fill="none" stroke="#191970" d="M201.5806,-496.0527C212.0427,-481.1855 228.7257,-460.533 248,-448 258.0323,-441.4766 325.9043,-421.586 365.826,-410.2108"/>
<polygon fill="#191970" stroke="#191970" points="198.6117,-494.1949 195.9029,-504.4376 204.4079,-498.1198 198.6117,-494.1949"/>
</g>
<!-- Node26&#45;&gt;Node17 -->
<g id="edge47" class="edge">
<title>Node26&#45;&gt;Node17</title>
<path fill="none" stroke="#191970" d="M198.1716,-494.8484C204.0701,-481.4884 212.4681,-463.3716 221,-448 240.5509,-412.7761 267.6675,-373.334 280.1772,-355.5756"/>
<polygon fill="#191970" stroke="#191970" points="194.7967,-493.8332 194.0221,-504.3997 201.217,-496.6224 194.7967,-493.8332"/>
</g>
<!-- Node26&#45;&gt;Node18 -->
<g id="edge50" class="edge">
<title>Node26&#45;&gt;Node18</title>
<path fill="none" stroke="#191970" d="M189.5526,-494.2934C189.8765,-456.9987 196.3902,-376.2388 244,-336 283.214,-302.8571 436.2217,-293.5262 507.7544,-290.953"/>
<polygon fill="#191970" stroke="#191970" points="186.0531,-494.4001 189.6122,-504.3792 193.053,-494.3587 186.0531,-494.4001"/>
</g>
<!-- Node26&#45;&gt;Node20 -->
<g id="edge48" class="edge">
<title>Node26&#45;&gt;Node20</title>
<path fill="none" stroke="#191970" d="M220.4524,-500.2473C242.9722,-490.0771 273.0617,-476.4883 292.9618,-467.5011"/>
<polygon fill="#191970" stroke="#191970" points="218.9895,-497.0675 211.3164,-504.3733 221.8706,-503.4471 218.9895,-497.0675"/>
</g>
<!-- Node27&#45;&gt;Node23 -->
<g id="edge55" class="edge">
<title>Node27&#45;&gt;Node23</title>
<path fill="none" stroke="#191970" d="M539,-718.1575C539,-709.155 539,-698.9199 539,-691.6427"/>
<polygon fill="#191970" stroke="#191970" points="535.5001,-718.2455 539,-728.2455 542.5001,-718.2456 535.5001,-718.2455"/>
</g>
<!-- Node28&#45;&gt;Node10 -->
<g id="edge64" class="edge">
<title>Node28&#45;&gt;Node10</title>
<path fill="none" stroke="#191970" d="M152.0996,-998.2992C149.488,-973.9858 144.0542,-931.504 135,-896 103.491,-772.4453 38,-753.5091 38,-626 38,-626 38,-626 38,-178 38,-133.3528 79.864,-93.2845 101.4501,-75.5918"/>
<polygon fill="#191970" stroke="#191970" points="148.6316,-998.7919 153.1312,-1008.3838 155.5953,-998.0795 148.6316,-998.7919"/>
</g>
<!-- Node29 -->
<g id="node28" class="node">
<title>Node29</title>
<g id="a_node28"><a xlink:href="../../db/df7/atom__type_8hpp.html" target="_top" xlink:title="Contains declaration and implementation of sirius::Atom_type class. ">
<polygon fill="#ffffff" stroke="#000000" points="302.5,-952.5 302.5,-971.5 385.5,-971.5 385.5,-952.5 302.5,-952.5"/>
<text text-anchor="middle" x="344" y="-959.5" font-family="Helvetica,sans-Serif" font-size="10.00" fill="#000000">atom_type.hpp</text>
</a>
</g>
</g>
<!-- Node28&#45;&gt;Node29 -->
<g id="edge59" class="edge">
<title>Node28&#45;&gt;Node29</title>
<path fill="none" stroke="#191970" d="M196.5597,-1005.4561C231.4369,-995.1765 280.0468,-980.8494 311.764,-971.5011"/>
<polygon fill="#191970" stroke="#191970" points="195.2647,-1002.1888 186.6622,-1008.3733 197.2437,-1008.9033 195.2647,-1002.1888"/>
</g>
<!-- Node30 -->
<g id="node29" class="node">
<title>Node30</title>
<g id="a_node29"><a xlink:href="../../d6/d50/atom__symmetry__class_8hpp.html" target="_top" xlink:title="Contains declaration and partial implementation of sirius::Atom_symmetry_class class. ">
<polygon fill="#ffffff" stroke="#000000" points="276.5,-896.5 276.5,-915.5 411.5,-915.5 411.5,-896.5 276.5,-896.5"/>
<text text-anchor="middle" x="344" y="-903.5" font-family="Helvetica,sans-Serif" font-size="10.00" fill="#000000">atom_symmetry_class.hpp</text>
</a>
</g>
</g>
<!-- Node29&#45;&gt;Node30 -->
<g id="edge60" class="edge">
<title>Node29&#45;&gt;Node30</title>
<path fill="none" stroke="#191970" d="M344,-942.1575C344,-933.155 344,-922.9199 344,-915.6427"/>
<polygon fill="#191970" stroke="#191970" points="340.5001,-942.2455 344,-952.2455 347.5001,-942.2456 340.5001,-942.2455"/>
</g>
<!-- Node31 -->
<g id="node30" class="node">
<title>Node31</title>
<g id="a_node30"><a xlink:href="../../d8/d64/free__atom_8hpp.html" target="_top" xlink:title="Free atom full&#45;potential solver. ">
<polygon fill="#ffffff" stroke="#000000" points="863.5,-840.5 863.5,-859.5 944.5,-859.5 944.5,-840.5 863.5,-840.5"/>
<text text-anchor="middle" x="904" y="-847.5" font-family="Helvetica,sans-Serif" font-size="10.00" fill="#000000">free_atom.hpp</text>
</a>
</g>
</g>
<!-- Node29&#45;&gt;Node31 -->
<g id="edge62" class="edge">
<title>Node29&#45;&gt;Node31</title>
<path fill="none" stroke="#191970" d="M395.5318,-951.6936C505.9063,-929.6187 763.225,-878.155 863.2296,-858.1541"/>
<polygon fill="#191970" stroke="#191970" points="394.7529,-948.28 385.6335,-953.6733 396.1258,-955.1441 394.7529,-948.28"/>
</g>
<!-- Node30&#45;&gt;Node4 -->
<g id="edge61" class="edge">
<title>Node30&#45;&gt;Node4</title>
<path fill="none" stroke="#191970" d="M344,-886.1575C344,-877.155 344,-866.9199 344,-859.6427"/>
<polygon fill="#191970" stroke="#191970" points="340.5001,-886.2455 344,-896.2455 347.5001,-886.2456 340.5001,-886.2455"/>
</g>
<!-- Node31&#45;&gt;Node10 -->
<g id="edge63" class="edge">
<title>Node31&#45;&gt;Node10</title>
<path fill="none" stroke="#191970" d="M951.3443,-837.3479C996.6045,-822.0443 1058,-791.4367 1058,-738 1058,-738 1058,-738 1058,-178 1058,-82.4841 286.0413,-68.1293 138.2836,-66.2566"/>
<polygon fill="#191970" stroke="#191970" points="950.1124,-834.0676 941.6726,-840.4724 952.2644,-840.7287 950.1124,-834.0676"/>
</g>
</g>
</svg>
