<?xml version="1.0" encoding="UTF-8" standalone="no"?>
<!DOCTYPE svg PUBLIC "-//W3C//DTD SVG 1.1//EN"
 "http://www.w3.org/Graphics/SVG/1.1/DTD/svg11.dtd">
<!-- Generated by graphviz version 2.40.1 (20161225.0304)
 -->
<!-- Title: non_local_operator.hpp Pages: 1 -->
<svg width="1766pt" height="386pt"
 viewBox="0.00 0.00 1766.00 386.00" xmlns="http://www.w3.org/2000/svg" xmlns:xlink="http://www.w3.org/1999/xlink">
<g id="graph0" class="graph" transform="scale(1 1) rotate(0) translate(4 382)">
<title>non_local_operator.hpp</title>
<polygon fill="#ffffff" stroke="transparent" points="-4,4 -4,-382 1762,-382 1762,4 -4,4"/>
<!-- Node1 -->
<g id="node1" class="node">
<title>Node1</title>
<g id="a_node1"><a xlink:title="Contains declaration of sirius::Non_local_operator class.">
<polygon fill="#bfbfbf" stroke="#000000" points="683.5,-358.5 683.5,-377.5 805.5,-377.5 805.5,-358.5 683.5,-358.5"/>
<text text-anchor="middle" x="744.5" y="-365.5" font-family="Helvetica,sans-Serif" font-size="10.00" fill="#000000">non_local_operator.hpp</text>
</a>
</g>
</g>
<!-- Node2 -->
<g id="node2" class="node">
<title>Node2</title>
<g id="a_node2"><a xlink:href="../../d3/d3d/hamiltonian__k_8cpp.html" target="_top" xlink:title="Contains definition of sirius::Hamiltonian_k class.">
<polygon fill="#ffffff" stroke="#000000" points="0,-174 0,-193 97,-193 97,-174 0,-174"/>
<text text-anchor="middle" x="48.5" y="-181" font-family="Helvetica,sans-Serif" font-size="10.00" fill="#000000">hamiltonian_k.cpp</text>
</a>
</g>
</g>
<!-- Node1&#45;&gt;Node2 -->
<g id="edge1" class="edge">
<title>Node1&#45;&gt;Node2</title>
<path fill="none" stroke="#191970" d="M690.2911,-356.3209C608.6161,-338.4519 449.314,-302.5383 315.5,-266 227.9782,-242.1019 125.8532,-209.0967 77.1596,-193.041"/>
<polygon fill="#191970" stroke="#191970" points="689.5819,-359.7484 700.0982,-358.4614 691.0746,-352.9094 689.5819,-359.7484"/>
</g>
<!-- Node3 -->
<g id="node3" class="node">
<title>Node3</title>
<g id="a_node3"><a xlink:href="../../d2/d6d/non__local__operator_8cpp.html" target="_top" xlink:title="Contains implementation of sirius::Non_local_operator class.">
<polygon fill="#ffffff" stroke="#000000" points="742,-302.5 742,-321.5 863,-321.5 863,-302.5 742,-302.5"/>
<text text-anchor="middle" x="802.5" y="-309.5" font-family="Helvetica,sans-Serif" font-size="10.00" fill="#000000">non_local_operator.cpp</text>
</a>
</g>
</g>
<!-- Node1&#45;&gt;Node3 -->
<g id="edge2" class="edge">
<title>Node1&#45;&gt;Node3</title>
<path fill="none" stroke="#191970" d="M762.0293,-351.0751C772.0083,-341.4402 784.1476,-329.7196 792.5129,-321.6427"/>
<polygon fill="#191970" stroke="#191970" points="759.3658,-348.7817 754.6028,-358.2455 764.228,-353.8175 759.3658,-348.7817"/>
</g>
<!-- Node4 -->
<g id="node4" class="node">
<title>Node4</title>
<g id="a_node4"><a xlink:href="../../db/d74/hubbard_8hpp.html" target="_top" xlink:title="Contains declaration and partial implementation of sirius::Hubbard class.">
<polygon fill="#ffffff" stroke="#000000" points="651,-302.5 651,-321.5 724,-321.5 724,-302.5 651,-302.5"/>
<text text-anchor="middle" x="687.5" y="-309.5" font-family="Helvetica,sans-Serif" font-size="10.00" fill="#000000">hubbard.hpp</text>
</a>
</g>
</g>
<!-- Node1&#45;&gt;Node4 -->
<g id="edge3" class="edge">
<title>Node1&#45;&gt;Node4</title>
<path fill="none" stroke="#191970" d="M727.2729,-351.0751C717.4659,-341.4402 705.536,-329.7196 697.3149,-321.6427"/>
<polygon fill="#191970" stroke="#191970" points="724.9851,-353.734 734.5714,-358.2455 729.8909,-348.7406 724.9851,-353.734"/>
</g>
<!-- Node31 -->
<g id="node31" class="node">
<title>Node31</title>
<g id="a_node31"><a xlink:href="../../d3/dab/k__point_8cpp.html" target="_top" xlink:title="Contains partial implementation of sirius::K_point class.">
<polygon fill="#ffffff" stroke="#000000" points="881.5,-302.5 881.5,-321.5 949.5,-321.5 949.5,-302.5 881.5,-302.5"/>
<text text-anchor="middle" x="915.5" y="-309.5" font-family="Helvetica,sans-Serif" font-size="10.00" fill="#000000">k_point.cpp</text>
</a>
</g>
</g>
<!-- Node1&#45;&gt;Node31 -->
<g id="edge33" class="edge">
<title>Node1&#45;&gt;Node31</title>
<path fill="none" stroke="#191970" d="M783.6148,-355.1905C814.9432,-344.9309 858.1871,-330.7691 886.4876,-321.5011"/>
<polygon fill="#191970" stroke="#191970" points="782.31,-351.9348 773.8959,-358.3733 784.4886,-358.5872 782.31,-351.9348"/>
</g>
<!-- Node5 -->
<g id="node5" class="node">
<title>Node5</title>
<g id="a_node5"><a xlink:href="../../df/dc4/dft__ground__state_8hpp.html" target="_top" xlink:title="Contains definition and partial implementation of sirius::DFT_ground_state class.">
<polygon fill="#ffffff" stroke="#000000" points="1337,-112.5 1337,-131.5 1448,-131.5 1448,-112.5 1337,-112.5"/>
<text text-anchor="middle" x="1392.5" y="-119.5" font-family="Helvetica,sans-Serif" font-size="10.00" fill="#000000">dft_ground_state.hpp</text>
</a>
</g>
</g>
<!-- Node4&#45;&gt;Node5 -->
<g id="edge4" class="edge">
<title>Node4&#45;&gt;Node5</title>
<path fill="none" stroke="#191970" d="M733.9862,-302.1681C934.478,-272.9313 1444.1716,-336.2748 1565.5,-199 1574.6243,-188.6765 1573.8979,-178.9226 1565.5,-168 1557.7097,-157.8676 1488.4983,-141.7632 1440.0182,-131.5455"/>
<polygon fill="#191970" stroke="#191970" points="733.4315,-298.7123 724.0999,-303.7294 734.5235,-305.6266 733.4315,-298.7123"/>
</g>
<!-- Node9 -->
<g id="node9" class="node">
<title>Node9</title>
<g id="a_node9"><a xlink:href="../../dd/d5b/apply__hubbard__potential_8cpp_source.html" target="_top" xlink:title=" ">
<polygon fill="#ffffff" stroke="#000000" points="1613,-241 1613,-260 1758,-260 1758,-241 1613,-241"/>
<text text-anchor="middle" x="1685.5" y="-248" font-family="Helvetica,sans-Serif" font-size="10.00" fill="#000000">apply_hubbard_potential.cpp</text>
</a>
</g>
</g>
<!-- Node4&#45;&gt;Node9 -->
<g id="edge8" class="edge">
<title>Node4&#45;&gt;Node9</title>
<path fill="none" stroke="#191970" d="M734.0212,-302.1851C1116.8823,-253.8797 1219.2727,-307.4821 1598.5,-266 1611.6159,-264.5653 1625.7378,-262.3453 1638.7097,-260.0295"/>
<polygon fill="#191970" stroke="#191970" points="733.5354,-298.7186 724.0592,-303.4569 734.422,-305.6622 733.5354,-298.7186"/>
</g>
<!-- Node10 -->
<g id="node10" class="node">
<title>Node10</title>
<g id="a_node10"><a xlink:href="../../d7/d2d/hubbard_8cpp_source.html" target="_top" xlink:title=" ">
<polygon fill="#ffffff" stroke="#000000" points="324.5,-241 324.5,-260 396.5,-260 396.5,-241 324.5,-241"/>
<text text-anchor="middle" x="360.5" y="-248" font-family="Helvetica,sans-Serif" font-size="10.00" fill="#000000">hubbard.cpp</text>
</a>
</g>
</g>
<!-- Node4&#45;&gt;Node10 -->
<g id="edge9" class="edge">
<title>Node4&#45;&gt;Node10</title>
<path fill="none" stroke="#191970" d="M640.5495,-306.821C584.172,-300.0346 487.0128,-286.5279 405.5,-266 399.0898,-264.3857 392.2914,-262.2666 385.9735,-260.116"/>
<polygon fill="#191970" stroke="#191970" points="640.2465,-310.3095 650.5888,-308.0101 641.07,-303.358 640.2465,-310.3095"/>
</g>
<!-- Node11 -->
<g id="node11" class="node">
<title>Node11</title>
<g id="a_node11"><a xlink:href="../../d3/d2b/hubbard__occupancies__derivatives_8cpp_source.html" target="_top" xlink:title=" ">
<polygon fill="#ffffff" stroke="#000000" points="414.5,-235.5 414.5,-265.5 528.5,-265.5 528.5,-235.5 414.5,-235.5"/>
<text text-anchor="start" x="422.5" y="-253.5" font-family="Helvetica,sans-Serif" font-size="10.00" fill="#000000">hubbard_occupancies</text>
<text text-anchor="middle" x="471.5" y="-242.5" font-family="Helvetica,sans-Serif" font-size="10.00" fill="#000000">_derivatives.cpp</text>
</a>
</g>
</g>
<!-- Node4&#45;&gt;Node11 -->
<g id="edge10" class="edge">
<title>Node4&#45;&gt;Node11</title>
<path fill="none" stroke="#191970" d="M643.9577,-299.6025C609.4409,-289.7748 561.0718,-276.0031 524.3395,-265.5446"/>
<polygon fill="#191970" stroke="#191970" points="643.1738,-303.0184 653.75,-302.3906 645.0907,-296.2859 643.1738,-303.0184"/>
</g>
<!-- Node12 -->
<g id="node12" class="node">
<title>Node12</title>
<g id="a_node12"><a xlink:href="../../d6/dfc/hubbard__occupancy_8cpp_source.html" target="_top" xlink:title=" ">
<polygon fill="#ffffff" stroke="#000000" points="547,-241 547,-260 672,-260 672,-241 547,-241"/>
<text text-anchor="middle" x="609.5" y="-248" font-family="Helvetica,sans-Serif" font-size="10.00" fill="#000000">hubbard_occupancy.cpp</text>
</a>
</g>
</g>
<!-- Node4&#45;&gt;Node12 -->
<g id="edge11" class="edge">
<title>Node4&#45;&gt;Node12</title>
<path fill="none" stroke="#191970" d="M667.3964,-296.1491C652.9035,-284.722 633.8194,-269.6749 621.6019,-260.0419"/>
<polygon fill="#191970" stroke="#191970" points="665.2927,-298.9475 675.3125,-302.3906 669.6268,-293.4506 665.2927,-298.9475"/>
</g>
<!-- Node13 -->
<g id="node13" class="node">
<title>Node13</title>
<g id="a_node13"><a xlink:href="../../d9/d0d/hubbard__potential__energy_8cpp_source.html" target="_top" xlink:title=" ">
<polygon fill="#ffffff" stroke="#000000" points="690.5,-241 690.5,-260 842.5,-260 842.5,-241 690.5,-241"/>
<text text-anchor="middle" x="766.5" y="-248" font-family="Helvetica,sans-Serif" font-size="10.00" fill="#000000">hubbard_potential_energy.cpp</text>
</a>
</g>
</g>
<!-- Node4&#45;&gt;Node13 -->
<g id="edge12" class="edge">
<title>Node4&#45;&gt;Node13</title>
<path fill="none" stroke="#191970" d="M707.8613,-296.1491C722.54,-284.722 741.8688,-269.6749 754.2429,-260.0419"/>
<polygon fill="#191970" stroke="#191970" points="705.5846,-293.4859 699.8438,-302.3906 709.8846,-299.0095 705.5846,-293.4859"/>
</g>
<!-- Node14 -->
<g id="node14" class="node">
<title>Node14</title>
<g id="a_node14"><a xlink:href="../../de/df2/potential_8hpp.html" target="_top" xlink:title="Contains declaration and partial implementation of sirius::Potential class.">
<polygon fill="#ffffff" stroke="#000000" points="860.5,-241 860.5,-260 934.5,-260 934.5,-241 860.5,-241"/>
<text text-anchor="middle" x="897.5" y="-248" font-family="Helvetica,sans-Serif" font-size="10.00" fill="#000000">potential.hpp</text>
</a>
</g>
</g>
<!-- Node4&#45;&gt;Node14 -->
<g id="edge13" class="edge">
<title>Node4&#45;&gt;Node14</title>
<path fill="none" stroke="#191970" d="M733.3043,-299.8317C766.2975,-290.9017 811.8078,-278.2449 851.5,-266 857.4591,-264.1616 863.8167,-262.0909 869.8445,-260.0758"/>
<polygon fill="#191970" stroke="#191970" points="732.2311,-296.496 723.4872,-302.4789 734.0536,-303.2546 732.2311,-296.496"/>
</g>
<!-- Node6 -->
<g id="node6" class="node">
<title>Node6</title>
<g id="a_node6"><a xlink:href="../../d9/dde/dft__ground__state_8cpp.html" target="_top" xlink:title="Contains implementation of sirius::DFT_ground_state class.">
<polygon fill="#ffffff" stroke="#000000" points="1285.5,-56.5 1285.5,-75.5 1395.5,-75.5 1395.5,-56.5 1285.5,-56.5"/>
<text text-anchor="middle" x="1340.5" y="-63.5" font-family="Helvetica,sans-Serif" font-size="10.00" fill="#000000">dft_ground_state.cpp</text>
</a>
</g>
</g>
<!-- Node5&#45;&gt;Node6 -->
<g id="edge5" class="edge">
<title>Node5&#45;&gt;Node6</title>
<path fill="none" stroke="#191970" d="M1376.5178,-104.7884C1367.6222,-95.2085 1356.8796,-83.6396 1349.4539,-75.6427"/>
<polygon fill="#191970" stroke="#191970" points="1374.073,-107.2992 1383.4423,-112.2455 1379.2025,-102.536 1374.073,-107.2992"/>
</g>
<!-- Node7 -->
<g id="node7" class="node">
<title>Node7</title>
<g id="a_node7"><a xlink:href="../../d2/d92/sirius_8hpp.html" target="_top" xlink:title="&quot;All&#45;in&#45;one&quot; include file.">
<polygon fill="#ffffff" stroke="#000000" points="1414,-56.5 1414,-75.5 1473,-75.5 1473,-56.5 1414,-56.5"/>
<text text-anchor="middle" x="1443.5" y="-63.5" font-family="Helvetica,sans-Serif" font-size="10.00" fill="#000000">sirius.hpp</text>
</a>
</g>
</g>
<!-- Node5&#45;&gt;Node7 -->
<g id="edge6" class="edge">
<title>Node5&#45;&gt;Node7</title>
<path fill="none" stroke="#191970" d="M1408.1749,-104.7884C1416.8994,-95.2085 1427.4354,-83.6396 1434.7183,-75.6427"/>
<polygon fill="#191970" stroke="#191970" points="1405.5291,-102.4954 1401.3835,-112.2455 1410.7046,-107.2088 1405.5291,-102.4954"/>
</g>
<!-- Node8 -->
<g id="node8" class="node">
<title>Node8</title>
<g id="a_node8"><a xlink:href="../../d4/d53/sirius__api_8cpp.html" target="_top" xlink:title="Fortran API.">
<polygon fill="#ffffff" stroke="#000000" points="1404.5,-.5 1404.5,-19.5 1482.5,-19.5 1482.5,-.5 1404.5,-.5"/>
<text text-anchor="middle" x="1443.5" y="-7.5" font-family="Helvetica,sans-Serif" font-size="10.00" fill="#000000">sirius_api.cpp</text>
</a>
</g>
</g>
<!-- Node7&#45;&gt;Node8 -->
<g id="edge7" class="edge">
<title>Node7&#45;&gt;Node8</title>
<path fill="none" stroke="#191970" d="M1443.5,-46.1575C1443.5,-37.155 1443.5,-26.9199 1443.5,-19.6427"/>
<polygon fill="#191970" stroke="#191970" points="1440.0001,-46.2455 1443.5,-56.2455 1447.0001,-46.2456 1440.0001,-46.2455"/>
</g>
<!-- Node14&#45;&gt;Node2 -->
<g id="edge24" class="edge">
<title>Node14&#45;&gt;Node2</title>
<path fill="none" stroke="#191970" d="M863.3725,-237.8472C859.4108,-236.7237 855.3946,-235.7354 851.5,-235 525.3217,-173.414 433.3658,-250.8566 105.5,-199 96.6875,-197.6062 87.2816,-195.3696 78.7035,-193.024"/>
<polygon fill="#191970" stroke="#191970" points="862.4189,-241.216 873.0074,-240.8513 864.5026,-234.5333 862.4189,-241.216"/>
</g>
<!-- Node15 -->
<g id="node15" class="node">
<title>Node15</title>
<g id="a_node15"><a xlink:href="../../df/dd7/diag__pseudo__potential_8cpp.html" target="_top" xlink:title="Diagonalization of pseudopotential Hamiltonian.">
<polygon fill="#ffffff" stroke="#000000" points="1181.5,-174 1181.5,-193 1317.5,-193 1317.5,-174 1181.5,-174"/>
<text text-anchor="middle" x="1249.5" y="-181" font-family="Helvetica,sans-Serif" font-size="10.00" fill="#000000">diag_pseudo_potential.cpp</text>
</a>
</g>
</g>
<!-- Node14&#45;&gt;Node15 -->
<g id="edge14" class="edge">
<title>Node14&#45;&gt;Node15</title>
<path fill="none" stroke="#191970" d="M945.0108,-241.804C999.8592,-231.7182 1092.7657,-214.4905 1172.5,-199 1182.2717,-197.1016 1192.7317,-195.0255 1202.6928,-193.0274"/>
<polygon fill="#191970" stroke="#191970" points="944.0969,-238.4132 934.894,-243.6627 945.3618,-245.298 944.0969,-238.4132"/>
</g>
<!-- Node16 -->
<g id="node16" class="node">
<title>Node16</title>
<g id="a_node16"><a xlink:href="../../d4/d9e/solve_8cpp.html" target="_top" xlink:title="Contains interfaces to the sirius::Band solvers.">
<polygon fill="#ffffff" stroke="#000000" points="1336,-174 1336,-193 1395,-193 1395,-174 1336,-174"/>
<text text-anchor="middle" x="1365.5" y="-181" font-family="Helvetica,sans-Serif" font-size="10.00" fill="#000000">solve.cpp</text>
</a>
</g>
</g>
<!-- Node14&#45;&gt;Node16 -->
<g id="edge15" class="edge">
<title>Node14&#45;&gt;Node16</title>
<path fill="none" stroke="#191970" d="M944.7454,-248.8151C1024.5529,-245.0887 1190.6477,-233.5274 1326.5,-199 1332.4316,-197.4924 1338.6696,-195.3054 1344.3743,-193.0471"/>
<polygon fill="#191970" stroke="#191970" points="944.3622,-245.3286 934.5282,-249.271 944.6743,-252.3216 944.3622,-245.3286"/>
</g>
<!-- Node17 -->
<g id="node17" class="node">
<title>Node17</title>
<g id="a_node17"><a xlink:href="../../d4/de1/energy_8hpp_source.html" target="_top" xlink:title=" ">
<polygon fill="#ffffff" stroke="#000000" points="1413,-174 1413,-193 1480,-193 1480,-174 1413,-174"/>
<text text-anchor="middle" x="1446.5" y="-181" font-family="Helvetica,sans-Serif" font-size="10.00" fill="#000000">energy.hpp</text>
</a>
</g>
</g>
<!-- Node14&#45;&gt;Node17 -->
<g id="edge16" class="edge">
<title>Node14&#45;&gt;Node17</title>
<path fill="none" stroke="#191970" d="M944.8066,-249.6575C1035.2492,-247.1792 1238.4657,-237.4184 1404.5,-199 1410.8607,-197.5282 1417.5692,-195.3534 1423.7124,-193.0955"/>
<polygon fill="#191970" stroke="#191970" points="944.5103,-246.1639 934.6033,-249.919 944.6897,-253.1616 944.5103,-246.1639"/>
</g>
<!-- Node19 -->
<g id="node19" class="node">
<title>Node19</title>
<g id="a_node19"><a xlink:href="../../df/d4d/force_8cpp.html" target="_top" xlink:title="Contains implementation of sirius::Force class.">
<polygon fill="#ffffff" stroke="#000000" points="1498.5,-174 1498.5,-193 1556.5,-193 1556.5,-174 1498.5,-174"/>
<text text-anchor="middle" x="1527.5" y="-181" font-family="Helvetica,sans-Serif" font-size="10.00" fill="#000000">force.cpp</text>
</a>
</g>
</g>
<!-- Node14&#45;&gt;Node19 -->
<g id="edge19" class="edge">
<title>Node14&#45;&gt;Node19</title>
<path fill="none" stroke="#191970" d="M944.6139,-248.2289C1065.8316,-242.0937 1386.2122,-223.9518 1489.5,-199 1495.4561,-197.5611 1501.6989,-195.3398 1507.3636,-193.024"/>
<polygon fill="#191970" stroke="#191970" points="944.3448,-244.7379 934.5328,-248.7346 944.6956,-251.7291 944.3448,-244.7379"/>
</g>
<!-- Node20 -->
<g id="node20" class="node">
<title>Node20</title>
<g id="a_node20"><a xlink:href="../../d7/dd1/stress_8hpp.html" target="_top" xlink:title="Contains definition of sirius::Stress tensor class.">
<polygon fill="#ffffff" stroke="#000000" points="115,-174 115,-193 178,-193 178,-174 115,-174"/>
<text text-anchor="middle" x="146.5" y="-181" font-family="Helvetica,sans-Serif" font-size="10.00" fill="#000000">stress.hpp</text>
</a>
</g>
</g>
<!-- Node14&#45;&gt;Node20 -->
<g id="edge20" class="edge">
<title>Node14&#45;&gt;Node20</title>
<path fill="none" stroke="#191970" d="M863.3681,-237.8703C859.4073,-236.7426 855.3924,-235.7469 851.5,-235 561.2509,-179.304 476.6864,-259.9738 187.5,-199 181.0964,-197.6498 174.3682,-195.4576 168.2562,-193.1414"/>
<polygon fill="#191970" stroke="#191970" points="862.4134,-241.2388 873.0021,-240.8793 864.5003,-234.5571 862.4134,-241.2388"/>
</g>
<!-- Node22 -->
<g id="node22" class="node">
<title>Node22</title>
<g id="a_node22"><a xlink:href="../../db/d8b/hamiltonian_8cpp.html" target="_top" xlink:title="Contains definition of sirius::Hamiltonian0 class.">
<polygon fill="#ffffff" stroke="#000000" points="196,-174 196,-193 283,-193 283,-174 196,-174"/>
<text text-anchor="middle" x="239.5" y="-181" font-family="Helvetica,sans-Serif" font-size="10.00" fill="#000000">hamiltonian.cpp</text>
</a>
</g>
</g>
<!-- Node14&#45;&gt;Node22 -->
<g id="edge23" class="edge">
<title>Node14&#45;&gt;Node22</title>
<path fill="none" stroke="#191970" d="M863.3604,-237.9098C859.401,-236.7748 855.3886,-235.7667 851.5,-235 607.2428,-186.8431 537.682,-242.2024 292.5,-199 284.3804,-197.5693 275.7349,-195.3506 267.8332,-193.0348"/>
<polygon fill="#191970" stroke="#191970" points="862.4038,-241.2777 872.9928,-240.9271 864.4963,-234.5978 862.4038,-241.2777"/>
</g>
<!-- Node23 -->
<g id="node23" class="node">
<title>Node23</title>
<g id="a_node23"><a xlink:href="../../de/d63/local__operator_8cpp.html" target="_top" xlink:title="Implementation of sirius::Local_operator class.">
<polygon fill="#ffffff" stroke="#000000" points="301,-174 301,-193 400,-193 400,-174 301,-174"/>
<text text-anchor="middle" x="350.5" y="-181" font-family="Helvetica,sans-Serif" font-size="10.00" fill="#000000">local_operator.cpp</text>
</a>
</g>
</g>
<!-- Node14&#45;&gt;Node23 -->
<g id="edge25" class="edge">
<title>Node14&#45;&gt;Node23</title>
<path fill="none" stroke="#191970" d="M862.7394,-237.8005C858.9803,-236.7239 855.1834,-235.7587 851.5,-235 658.4577,-195.2373 603.7841,-232.1677 409.5,-199 400.7307,-197.5029 391.364,-195.3195 382.7361,-193.0613"/>
<polygon fill="#191970" stroke="#191970" points="861.9086,-241.2076 872.4972,-240.8453 863.9938,-234.5254 861.9086,-241.2076"/>
</g>
<!-- Node24 -->
<g id="node24" class="node">
<title>Node24</title>
<g id="a_node24"><a xlink:href="../../da/d42/adaptor_8hpp_source.html" target="_top" xlink:title=" ">
<polygon fill="#ffffff" stroke="#000000" points="418.5,-174 418.5,-193 488.5,-193 488.5,-174 418.5,-174"/>
<text text-anchor="middle" x="453.5" y="-181" font-family="Helvetica,sans-Serif" font-size="10.00" fill="#000000">adaptor.hpp</text>
</a>
</g>
</g>
<!-- Node14&#45;&gt;Node24 -->
<g id="edge26" class="edge">
<title>Node14&#45;&gt;Node24</title>
<path fill="none" stroke="#191970" d="M862.7232,-237.8771C858.9673,-236.7857 855.1754,-235.7962 851.5,-235 697.3719,-201.6135 652.5152,-232.9034 498.5,-199 491.7214,-197.5078 484.5463,-195.3261 477.9647,-193.0679"/>
<polygon fill="#191970" stroke="#191970" points="861.8878,-241.2832 872.4771,-240.9408 863.9855,-234.6049 861.8878,-241.2832"/>
</g>
<!-- Node25 -->
<g id="node25" class="node">
<title>Node25</title>
<g id="a_node25"><a xlink:href="../../d5/df1/apply__hamiltonian_8hpp_source.html" target="_top" xlink:title=" ">
<polygon fill="#ffffff" stroke="#000000" points="507,-174 507,-193 624,-193 624,-174 507,-174"/>
<text text-anchor="middle" x="565.5" y="-181" font-family="Helvetica,sans-Serif" font-size="10.00" fill="#000000">apply_hamiltonian.hpp</text>
</a>
</g>
</g>
<!-- Node14&#45;&gt;Node25 -->
<g id="edge27" class="edge">
<title>Node14&#45;&gt;Node25</title>
<path fill="none" stroke="#191970" d="M861.8189,-237.8529C858.3533,-236.8133 854.873,-235.8409 851.5,-235 756.2156,-211.2441 729.8611,-217.9208 633.5,-199 624.3513,-197.2036 614.5541,-195.0856 605.3264,-193.0019"/>
<polygon fill="#191970" stroke="#191970" points="860.8545,-241.2188 871.4447,-240.9076 862.9718,-234.5467 860.8545,-241.2188"/>
</g>
<!-- Node26 -->
<g id="node26" class="node">
<title>Node26</title>
<g id="a_node26"><a xlink:href="../../d4/db8/generate__d__operator__matrix_8cpp_source.html" target="_top" xlink:title=" ">
<polygon fill="#ffffff" stroke="#000000" points="642.5,-168.5 642.5,-198.5 752.5,-198.5 752.5,-168.5 642.5,-168.5"/>
<text text-anchor="start" x="650.5" y="-186.5" font-family="Helvetica,sans-Serif" font-size="10.00" fill="#000000">generate_d_operator</text>
<text text-anchor="middle" x="697.5" y="-175.5" font-family="Helvetica,sans-Serif" font-size="10.00" fill="#000000">_matrix.cpp</text>
</a>
</g>
</g>
<!-- Node14&#45;&gt;Node26 -->
<g id="edge28" class="edge">
<title>Node14&#45;&gt;Node26</title>
<path fill="none" stroke="#191970" d="M859.7845,-237.7838C856.9813,-236.841 854.1963,-235.9051 851.5,-235 814.8855,-222.7091 773.3556,-208.8241 742.6574,-198.5712"/>
<polygon fill="#191970" stroke="#191970" points="858.69,-241.1083 869.2841,-240.9811 860.923,-234.474 858.69,-241.1083"/>
</g>
<!-- Node27 -->
<g id="node27" class="node">
<title>Node27</title>
<g id="a_node27"><a xlink:href="../../de/dfb/generate__pw__coeffs_8cpp_source.html" target="_top" xlink:title=" ">
<polygon fill="#ffffff" stroke="#000000" points="771,-174 771,-193 896,-193 896,-174 771,-174"/>
<text text-anchor="middle" x="833.5" y="-181" font-family="Helvetica,sans-Serif" font-size="10.00" fill="#000000">generate_pw_coeffs.cpp</text>
</a>
</g>
</g>
<!-- Node14&#45;&gt;Node27 -->
<g id="edge29" class="edge">
<title>Node14&#45;&gt;Node27</title>
<path fill="none" stroke="#191970" d="M881.3362,-233.5785C869.0953,-220.7639 852.7208,-203.6218 842.6526,-193.0817"/>
<polygon fill="#191970" stroke="#191970" points="878.8921,-236.087 888.3304,-240.9005 883.9539,-231.2518 878.8921,-236.087"/>
</g>
<!-- Node28 -->
<g id="node28" class="node">
<title>Node28</title>
<g id="a_node28"><a xlink:href="../../d0/d7d/paw__potential_8cpp_source.html" target="_top" xlink:title=" ">
<polygon fill="#ffffff" stroke="#000000" points="914,-174 914,-193 1011,-193 1011,-174 914,-174"/>
<text text-anchor="middle" x="962.5" y="-181" font-family="Helvetica,sans-Serif" font-size="10.00" fill="#000000">paw_potential.cpp</text>
</a>
</g>
</g>
<!-- Node14&#45;&gt;Node28 -->
<g id="edge30" class="edge">
<title>Node14&#45;&gt;Node28</title>
<path fill="none" stroke="#191970" d="M913.9163,-233.5785C926.3485,-220.7639 942.9788,-203.6218 953.2044,-193.0817"/>
<polygon fill="#191970" stroke="#191970" points="911.264,-231.286 906.8129,-240.9005 916.2882,-236.1602 911.264,-231.286"/>
</g>
<!-- Node29 -->
<g id="node29" class="node">
<title>Node29</title>
<g id="a_node29"><a xlink:href="../../d8/dcd/poisson_8cpp_source.html" target="_top" xlink:title=" ">
<polygon fill="#ffffff" stroke="#000000" points="1029.5,-174 1029.5,-193 1099.5,-193 1099.5,-174 1029.5,-174"/>
<text text-anchor="middle" x="1064.5" y="-181" font-family="Helvetica,sans-Serif" font-size="10.00" fill="#000000">poisson.cpp</text>
</a>
</g>
</g>
<!-- Node14&#45;&gt;Node29 -->
<g id="edge31" class="edge">
<title>Node14&#45;&gt;Node29</title>
<path fill="none" stroke="#191970" d="M930.9483,-237.0806C963.4102,-224.057 1011.8672,-204.6162 1040.6174,-193.0817"/>
<polygon fill="#191970" stroke="#191970" points="929.4047,-233.9287 921.427,-240.9005 932.0112,-240.4253 929.4047,-233.9287"/>
</g>
<!-- Node30 -->
<g id="node30" class="node">
<title>Node30</title>
<g id="a_node30"><a xlink:href="../../d6/d2b/xc_8cpp.html" target="_top" xlink:title="Generate XC potential.">
<polygon fill="#ffffff" stroke="#000000" points="1118,-174 1118,-193 1163,-193 1163,-174 1118,-174"/>
<text text-anchor="middle" x="1140.5" y="-181" font-family="Helvetica,sans-Serif" font-size="10.00" fill="#000000">xc.cpp</text>
</a>
</g>
</g>
<!-- Node14&#45;&gt;Node30 -->
<g id="edge32" class="edge">
<title>Node14&#45;&gt;Node30</title>
<path fill="none" stroke="#191970" d="M944.7634,-241.9476C988.087,-233.4116 1053.6422,-218.7288 1108.5,-199 1113.147,-197.3288 1118.0146,-195.1884 1122.5112,-193.0353"/>
<polygon fill="#191970" stroke="#191970" points="943.9404,-238.5419 934.7895,-243.8814 945.2729,-245.4139 943.9404,-238.5419"/>
</g>
<!-- Node17&#45;&gt;Node5 -->
<g id="edge17" class="edge">
<title>Node17&#45;&gt;Node5</title>
<path fill="none" stroke="#191970" d="M1431.1995,-166.0744C1421.4332,-154.9517 1409.135,-140.9454 1401.0565,-131.7449"/>
<polygon fill="#191970" stroke="#191970" points="1428.8344,-168.6855 1438.0625,-173.8906 1434.0945,-164.0669 1428.8344,-168.6855"/>
</g>
<!-- Node18 -->
<g id="node18" class="node">
<title>Node18</title>
<g id="a_node18"><a xlink:href="../../d5/df5/energy_8cpp_source.html" target="_top" xlink:title=" ">
<polygon fill="#ffffff" stroke="#000000" points="1466.5,-112.5 1466.5,-131.5 1532.5,-131.5 1532.5,-112.5 1466.5,-112.5"/>
<text text-anchor="middle" x="1499.5" y="-119.5" font-family="Helvetica,sans-Serif" font-size="10.00" fill="#000000">energy.cpp</text>
</a>
</g>
</g>
<!-- Node17&#45;&gt;Node18 -->
<g id="edge18" class="edge">
<title>Node17&#45;&gt;Node18</title>
<path fill="none" stroke="#191970" d="M1461.5172,-166.0744C1471.1026,-154.9517 1483.1731,-140.9454 1491.102,-131.7449"/>
<polygon fill="#191970" stroke="#191970" points="1458.6582,-164.0306 1454.7813,-173.8906 1463.9608,-168.6003 1458.6582,-164.0306"/>
</g>
<!-- Node20&#45;&gt;Node5 -->
<g id="edge21" class="edge">
<title>Node20&#45;&gt;Node5</title>
<path fill="none" stroke="#191970" d="M177.5312,-170.5835C180.8535,-169.5585 184.2183,-168.6645 187.5,-168 300.7387,-145.0692 1114.686,-127.4809 1336.6924,-123.072"/>
<polygon fill="#191970" stroke="#191970" points="176.1178,-167.369 167.8168,-173.9526 178.4116,-173.9826 176.1178,-167.369"/>
</g>
<!-- Node21 -->
<g id="node21" class="node">
<title>Node21</title>
<g id="a_node21"><a xlink:href="../../d4/d58/stress_8cpp.html" target="_top" xlink:title="Contains implementation of sirius::Stress class.">
<polygon fill="#ffffff" stroke="#000000" points="115.5,-112.5 115.5,-131.5 177.5,-131.5 177.5,-112.5 115.5,-112.5"/>
<text text-anchor="middle" x="146.5" y="-119.5" font-family="Helvetica,sans-Serif" font-size="10.00" fill="#000000">stress.cpp</text>
</a>
</g>
</g>
<!-- Node20&#45;&gt;Node21 -->
<g id="edge22" class="edge">
<title>Node20&#45;&gt;Node21</title>
<path fill="none" stroke="#191970" d="M146.5,-163.7462C146.5,-153.0519 146.5,-140.314 146.5,-131.7449"/>
<polygon fill="#191970" stroke="#191970" points="143.0001,-163.8906 146.5,-173.8906 150.0001,-163.8907 143.0001,-163.8906"/>
</g>
</g>
</svg>
