<?xml version="1.0" encoding="UTF-8" standalone="no"?>
<!DOCTYPE svg PUBLIC "-//W3C//DTD SVG 1.1//EN"
 "http://www.w3.org/Graphics/SVG/1.1/DTD/svg11.dtd">
<!-- Generated by graphviz version 2.40.1 (20161225.0304)
 -->
<!-- Title: sbessel.hpp Pages: 1 -->
<!--zoomable 308 -->
<svg id="main" version="1.1" xmlns="http://www.w3.org/2000/svg" xmlns:xlink="http://www.w3.org/1999/xlink" xml:space="preserve" onload="init(evt)">
<style type="text/css"><![CDATA[
.edge:hover path { stroke: red; }
.edge:hover polygon { stroke: red; fill: red; }
]]></style>
<script type="text/javascript"><![CDATA[
var edges = document.getElementsByTagName('g');
if (edges && edges.length) {
  for (var i=0;i<edges.length;i++) {
    if (edges[i].id.substr(0,4)=='edge') {
      edges[i].setAttribute('class','edge');
    }
  }
}
]]></script>
        <defs>
                <circle id="rim" cx="0" cy="0" r="7"/>
                <circle id="rim2" cx="0" cy="0" r="3.5"/>
                <g id="zoomPlus">
                        <use xlink:href="#rim" fill="#404040">
                                <set attributeName="fill" to="#808080" begin="zoomplus.mouseover" end="zoomplus.mouseout"/>
                        </use>
                        <path d="M-4,0h8M0,-4v8" fill="none" stroke="white" stroke-width="1.5" pointer-events="none"/>
                </g>
                <g id="zoomMin">
                        <use xlink:href="#rim" fill="#404040">
                                <set attributeName="fill" to="#808080" begin="zoomminus.mouseover" end="zoomminus.mouseout"/>
                        </use>
                        <path d="M-4,0h8" fill="none" stroke="white" stroke-width="1.5" pointer-events="none"/>
                </g>
                <g id="dirArrow">
                        <path fill="none" stroke="white" stroke-width="1.5" d="M0,-3.0v7 M-2.5,-0.5L0,-3.0L2.5,-0.5"/>
                </g>
               <g id="resetDef">
                       <use xlink:href="#rim2" fill="#404040">
                               <set attributeName="fill" to="#808080" begin="reset.mouseover" end="reset.mouseout"/>
                       </use>
               </g>
        </defs>

<script type="text/javascript">
var viewWidth = 1157;
var viewHeight = 308;
var sectionId = 'dynsection-0';
</script>
<script xlink:href="../../svgpan.js"/>
<svg id="graph" class="graph">
<g id="viewport">
<title>sbessel.hpp</title>
<polygon fill="#ffffff" stroke="transparent" points="-4,4 -4,-304 1153,-304 1153,4 -4,4"/>
<!-- Node1 -->
<g id="node1" class="node">
<title>Node1</title>
<g id="a_node1"><a xlink:title="Contains implementation of sirius::Spherical_Bessel_functions class.">
<polygon fill="#bfbfbf" stroke="#000000" points="300,-280.5 300,-299.5 370,-299.5 370,-280.5 300,-280.5"/>
<text text-anchor="middle" x="335" y="-287.5" font-family="Helvetica,sans-Serif" font-size="10.00" fill="#000000">sbessel.hpp</text>
</a>
</g>
</g>
<!-- Node2 -->
<g id="node2" class="node">
<title>Node2</title>
<g id="a_node2"><a xlink:title=" ">
<polygon fill="#ffffff" stroke="#bfbfbf" points="0,-.5 0,-19.5 44,-19.5 44,-.5 0,-.5"/>
<text text-anchor="middle" x="22" y="-7.5" font-family="Helvetica,sans-Serif" font-size="10.00" fill="#000000">vector</text>
</a>
</g>
</g>
<!-- Node1&#45;&gt;Node2 -->
<g id="edge1" class="edge">
<title>Node1&#45;&gt;Node2</title>
<path fill="none" stroke="#191970" d="M321.0898,-280.3601C297.6949,-262.8875 253,-223.5468 253,-178 253,-178 253,-178 253,-122 253,-100.1066 116.9165,-45.8411 53.6465,-21.7943"/>
<polygon fill="#191970" stroke="#191970" points="54.7408,-18.4663 44.1493,-18.204 52.2655,-25.0141 54.7408,-18.4663"/>
</g>
<!-- Node3 -->
<g id="node3" class="node">
<title>Node3</title>
<g id="a_node3"><a xlink:href="../../d9/d05/spline_8hpp.html" target="_top" xlink:title="Contains definition and partial implementation of sirius::Spline class.">
<polygon fill="#ffffff" stroke="#000000" points="363.5,-224.5 363.5,-243.5 452.5,-243.5 452.5,-224.5 363.5,-224.5"/>
<text text-anchor="middle" x="408" y="-231.5" font-family="Helvetica,sans-Serif" font-size="10.00" fill="#000000">radial/spline.hpp</text>
</a>
</g>
</g>
<!-- Node1&#45;&gt;Node3 -->
<g id="edge2" class="edge">
<title>Node1&#45;&gt;Node3</title>
<path fill="none" stroke="#191970" d="M347.7156,-280.2455C358.602,-271.8943 374.4883,-259.7076 387.22,-249.9408"/>
<polygon fill="#191970" stroke="#191970" points="389.6261,-252.5063 395.4301,-243.6427 385.3654,-246.9523 389.6261,-252.5063"/>
</g>
<!-- Node4 -->
<g id="node4" class="node">
<title>Node4</title>
<g id="a_node4"><a xlink:href="../../d2/d4f/radial__grid_8hpp.html" target="_top" xlink:title="Contains declaraion and partial implementation of sirius::Radial_grid class.">
<polygon fill="#ffffff" stroke="#000000" points="353,-168.5 353,-187.5 463,-187.5 463,-168.5 353,-168.5"/>
<text text-anchor="middle" x="408" y="-175.5" font-family="Helvetica,sans-Serif" font-size="10.00" fill="#000000">radial/radial_grid.hpp</text>
</a>
</g>
</g>
<!-- Node1&#45;&gt;Node4 -->
<g id="edge31" class="edge">
<title>Node1&#45;&gt;Node4</title>
<path fill="none" stroke="#191970" d="M336.0132,-280.3201C337.8049,-266.7777 342.4974,-241.8369 354,-224 361.613,-212.1946 373.1621,-201.7772 383.6284,-193.8546"/>
<polygon fill="#191970" stroke="#191970" points="385.9691,-196.4829 392.0553,-187.8106 381.8893,-190.7947 385.9691,-196.4829"/>
</g>
<!-- Node3&#45;&gt;Node4 -->
<g id="edge3" class="edge">
<title>Node3&#45;&gt;Node4</title>
<path fill="none" stroke="#191970" d="M408,-224.2455C408,-216.9382 408,-206.6944 408,-197.7046"/>
<polygon fill="#191970" stroke="#191970" points="411.5001,-197.6426 408,-187.6427 404.5001,-197.6427 411.5001,-197.6426"/>
</g>
<!-- Node5 -->
<g id="node5" class="node">
<title>Node5</title>
<g id="a_node5"><a xlink:href="../../da/d3e/memory_8hpp.html" target="_top" xlink:title="Memory management functions and classes.">
<polygon fill="#ffffff" stroke="#000000" points="754,-112.5 754,-131.5 826,-131.5 826,-112.5 754,-112.5"/>
<text text-anchor="middle" x="790" y="-119.5" font-family="Helvetica,sans-Serif" font-size="10.00" fill="#000000">memory.hpp</text>
</a>
</g>
</g>
<!-- Node4&#45;&gt;Node5 -->
<g id="edge4" class="edge">
<title>Node4&#45;&gt;Node5</title>
<path fill="none" stroke="#191970" d="M463.1381,-169.9169C538.7597,-158.831 673.293,-139.1089 743.8699,-128.7625"/>
<polygon fill="#191970" stroke="#191970" points="744.4176,-132.2197 753.8042,-127.3062 743.4023,-125.2938 744.4176,-132.2197"/>
</g>
<!-- Node29 -->
<g id="node29" class="node">
<title>Node29</title>
<g id="a_node29"><a xlink:href="../../d4/d08/type__definition_8hpp.html" target="_top" xlink:title="Define some common type used in SDDK::">
<polygon fill="#ffffff" stroke="#000000" points="342.5,-112.5 342.5,-131.5 473.5,-131.5 473.5,-112.5 342.5,-112.5"/>
<text text-anchor="middle" x="408" y="-119.5" font-family="Helvetica,sans-Serif" font-size="10.00" fill="#000000">SDDK/type_definition.hpp</text>
</a>
</g>
</g>
<!-- Node4&#45;&gt;Node29 -->
<g id="edge30" class="edge">
<title>Node4&#45;&gt;Node29</title>
<path fill="none" stroke="#191970" d="M408,-168.2455C408,-160.9382 408,-150.6944 408,-141.7046"/>
<polygon fill="#191970" stroke="#191970" points="411.5001,-141.6426 408,-131.6427 404.5001,-141.6427 411.5001,-141.6426"/>
</g>
<!-- Node6 -->
<g id="node6" class="node">
<title>Node6</title>
<g id="a_node6"><a xlink:title=" ">
<polygon fill="#ffffff" stroke="#bfbfbf" points="554.5,-56.5 554.5,-75.5 583.5,-75.5 583.5,-56.5 554.5,-56.5"/>
<text text-anchor="middle" x="569" y="-63.5" font-family="Helvetica,sans-Serif" font-size="10.00" fill="#000000">list</text>
</a>
</g>
</g>
<!-- Node5&#45;&gt;Node6 -->
<g id="edge5" class="edge">
<title>Node5&#45;&gt;Node6</title>
<path fill="none" stroke="#191970" d="M753.9257,-115.44C714.0467,-107.7595 648.1509,-93.7936 593,-76 592.9033,-75.9688 592.8065,-75.9374 592.7096,-75.9058"/>
<polygon fill="#191970" stroke="#191970" points="594.1721,-72.7151 583.579,-72.5253 591.7417,-79.2797 594.1721,-72.7151"/>
</g>
<!-- Node7 -->
<g id="node7" class="node">
<title>Node7</title>
<g id="a_node7"><a xlink:title=" ">
<polygon fill="#ffffff" stroke="#bfbfbf" points="601.5,-56.5 601.5,-75.5 656.5,-75.5 656.5,-56.5 601.5,-56.5"/>
<text text-anchor="middle" x="629" y="-63.5" font-family="Helvetica,sans-Serif" font-size="10.00" fill="#000000">iostream</text>
</a>
</g>
</g>
<!-- Node5&#45;&gt;Node7 -->
<g id="edge6" class="edge">
<title>Node5&#45;&gt;Node7</title>
<path fill="none" stroke="#191970" d="M762.3231,-112.3733C735.6672,-103.1016 695.1762,-89.0178 665.8116,-78.804"/>
<polygon fill="#191970" stroke="#191970" points="666.9105,-75.4807 656.3157,-75.5011 664.6109,-82.0921 666.9105,-75.4807"/>
</g>
<!-- Node8 -->
<g id="node8" class="node">
<title>Node8</title>
<g id="a_node8"><a xlink:title=" ">
<polygon fill="#ffffff" stroke="#bfbfbf" points="675,-56.5 675,-75.5 711,-75.5 711,-56.5 675,-56.5"/>
<text text-anchor="middle" x="693" y="-63.5" font-family="Helvetica,sans-Serif" font-size="10.00" fill="#000000">map</text>
</a>
</g>
</g>
<!-- Node5&#45;&gt;Node8 -->
<g id="edge7" class="edge">
<title>Node5&#45;&gt;Node8</title>
<path fill="none" stroke="#191970" d="M773.1039,-112.2455C758.082,-103.5731 735.8957,-90.7645 718.679,-80.825"/>
<polygon fill="#191970" stroke="#191970" points="720.1128,-77.6114 709.7025,-75.6427 716.6129,-83.6737 720.1128,-77.6114"/>
</g>
<!-- Node9 -->
<g id="node9" class="node">
<title>Node9</title>
<g id="a_node9"><a xlink:title=" ">
<polygon fill="#ffffff" stroke="#bfbfbf" points="729.5,-56.5 729.5,-75.5 782.5,-75.5 782.5,-56.5 729.5,-56.5"/>
<text text-anchor="middle" x="756" y="-63.5" font-family="Helvetica,sans-Serif" font-size="10.00" fill="#000000">memory</text>
</a>
</g>
</g>
<!-- Node5&#45;&gt;Node9 -->
<g id="edge8" class="edge">
<title>Node5&#45;&gt;Node9</title>
<path fill="none" stroke="#191970" d="M784.0777,-112.2455C779.3973,-104.5367 772.7327,-93.5598 767.0711,-84.2348"/>
<polygon fill="#191970" stroke="#191970" points="770.0361,-82.3741 761.8545,-75.6427 764.0525,-86.007 770.0361,-82.3741"/>
</g>
<!-- Node10 -->
<g id="node10" class="node">
<title>Node10</title>
<g id="a_node10"><a xlink:title=" ">
<polygon fill="#ffffff" stroke="#bfbfbf" points="801,-56.5 801,-75.5 847,-75.5 847,-56.5 801,-56.5"/>
<text text-anchor="middle" x="824" y="-63.5" font-family="Helvetica,sans-Serif" font-size="10.00" fill="#000000">cstring</text>
</a>
</g>
</g>
<!-- Node5&#45;&gt;Node10 -->
<g id="edge9" class="edge">
<title>Node5&#45;&gt;Node10</title>
<path fill="none" stroke="#191970" d="M795.9223,-112.2455C800.6027,-104.5367 807.2673,-93.5598 812.9289,-84.2348"/>
<polygon fill="#191970" stroke="#191970" points="815.9475,-86.007 818.1455,-75.6427 809.9639,-82.3741 815.9475,-86.007"/>
</g>
<!-- Node11 -->
<g id="node11" class="node">
<title>Node11</title>
<g id="a_node11"><a xlink:title=" ">
<polygon fill="#ffffff" stroke="#bfbfbf" points="865.5,-56.5 865.5,-75.5 924.5,-75.5 924.5,-56.5 865.5,-56.5"/>
<text text-anchor="middle" x="895" y="-63.5" font-family="Helvetica,sans-Serif" font-size="10.00" fill="#000000">functional</text>
</a>
</g>
</g>
<!-- Node5&#45;&gt;Node11 -->
<g id="edge10" class="edge">
<title>Node5&#45;&gt;Node11</title>
<path fill="none" stroke="#191970" d="M808.2896,-112.2455C824.7762,-103.4527 849.2352,-90.4079 867.9765,-80.4125"/>
<polygon fill="#191970" stroke="#191970" points="869.7435,-83.4368 876.92,-75.6427 866.4494,-77.2604 869.7435,-83.4368"/>
</g>
<!-- Node12 -->
<g id="node12" class="node">
<title>Node12</title>
<g id="a_node12"><a xlink:title=" ">
<polygon fill="#ffffff" stroke="#bfbfbf" points="943,-56.5 943,-75.5 1001,-75.5 1001,-56.5 943,-56.5"/>
<text text-anchor="middle" x="972" y="-63.5" font-family="Helvetica,sans-Serif" font-size="10.00" fill="#000000">algorithm</text>
</a>
</g>
</g>
<!-- Node5&#45;&gt;Node12 -->
<g id="edge11" class="edge">
<title>Node5&#45;&gt;Node12</title>
<path fill="none" stroke="#191970" d="M821.2869,-112.3733C852.2344,-102.851 899.6785,-88.2528 933.0511,-77.9843"/>
<polygon fill="#191970" stroke="#191970" points="934.3941,-81.2331 942.9225,-74.9469 932.3354,-74.5426 934.3941,-81.2331"/>
</g>
<!-- Node13 -->
<g id="node13" class="node">
<title>Node13</title>
<g id="a_node13"><a xlink:title=" ">
<polygon fill="#ffffff" stroke="#bfbfbf" points="1019.5,-56.5 1019.5,-75.5 1058.5,-75.5 1058.5,-56.5 1019.5,-56.5"/>
<text text-anchor="middle" x="1039" y="-63.5" font-family="Helvetica,sans-Serif" font-size="10.00" fill="#000000">array</text>
</a>
</g>
</g>
<!-- Node5&#45;&gt;Node13 -->
<g id="edge12" class="edge">
<title>Node5&#45;&gt;Node13</title>
<path fill="none" stroke="#191970" d="M826.1522,-115.8847C868.0492,-108.482 939.2863,-94.9244 1009.5452,-75.8445"/>
<polygon fill="#191970" stroke="#191970" points="1010.7383,-79.1462 1019.4493,-73.1156 1008.8789,-72.3977 1010.7383,-79.1462"/>
</g>
<!-- Node14 -->
<g id="node14" class="node">
<title>Node14</title>
<g id="a_node14"><a xlink:title=" ">
<polygon fill="#ffffff" stroke="#bfbfbf" points="1095,-.5 1095,-19.5 1149,-19.5 1149,-.5 1095,-.5"/>
<text text-anchor="middle" x="1122" y="-7.5" font-family="Helvetica,sans-Serif" font-size="10.00" fill="#000000">complex</text>
</a>
</g>
</g>
<!-- Node5&#45;&gt;Node14 -->
<g id="edge13" class="edge">
<title>Node5&#45;&gt;Node14</title>
<path fill="none" stroke="#191970" d="M826.265,-119.8283C910.7091,-114.4024 1114.8492,-99.0159 1135,-76 1146.2509,-63.1494 1140.4039,-43.4411 1133.3228,-28.9047"/>
<polygon fill="#191970" stroke="#191970" points="1136.2471,-26.9536 1128.4182,-19.8151 1130.0867,-30.2777 1136.2471,-26.9536"/>
</g>
<!-- Node15 -->
<g id="node15" class="node">
<title>Node15</title>
<g id="a_node15"><a xlink:title=" ">
<polygon fill="#ffffff" stroke="#bfbfbf" points="1076.5,-56.5 1076.5,-75.5 1125.5,-75.5 1125.5,-56.5 1076.5,-56.5"/>
<text text-anchor="middle" x="1101" y="-63.5" font-family="Helvetica,sans-Serif" font-size="10.00" fill="#000000">cassert</text>
</a>
</g>
</g>
<!-- Node5&#45;&gt;Node15 -->
<g id="edge14" class="edge">
<title>Node5&#45;&gt;Node15</title>
<path fill="none" stroke="#191970" d="M826.2826,-117.5322C877.7678,-110.8589 975.0914,-97.0166 1066.2857,-76.1894"/>
<polygon fill="#191970" stroke="#191970" points="1067.2761,-79.5527 1076.2274,-73.8849 1065.6953,-72.7335 1067.2761,-79.5527"/>
</g>
<!-- Node16 -->
<g id="node16" class="node">
<title>Node16</title>
<g id="a_node16"><a xlink:href="../../d4/d86/acc_8hpp.html" target="_top" xlink:title="Interface to accelerators API.">
<polygon fill="#ffffff" stroke="#000000" points="465.5,-56.5 465.5,-75.5 536.5,-75.5 536.5,-56.5 465.5,-56.5"/>
<text text-anchor="middle" x="501" y="-63.5" font-family="Helvetica,sans-Serif" font-size="10.00" fill="#000000">gpu/acc.hpp</text>
</a>
</g>
</g>
<!-- Node5&#45;&gt;Node16 -->
<g id="edge15" class="edge">
<title>Node5&#45;&gt;Node16</title>
<path fill="none" stroke="#191970" d="M753.9605,-115.5819C708.2428,-107.3577 626.7238,-92.419 547.049,-76.166"/>
<polygon fill="#191970" stroke="#191970" points="547.3381,-72.6526 536.839,-74.0738 545.9328,-79.5101 547.3381,-72.6526"/>
</g>
<!-- Node16&#45;&gt;Node2 -->
<g id="edge28" class="edge">
<title>Node16&#45;&gt;Node2</title>
<path fill="none" stroke="#191970" d="M465.4726,-64.8789C390.7413,-61.9822 211.8446,-52.2164 54.0807,-19.8409"/>
<polygon fill="#191970" stroke="#191970" points="54.7046,-16.3958 44.2003,-17.7775 53.2736,-23.2479 54.7046,-16.3958"/>
</g>
<!-- Node16&#45;&gt;Node14 -->
<g id="edge27" class="edge">
<title>Node16&#45;&gt;Node14</title>
<path fill="none" stroke="#191970" d="M536.773,-57.5501C539.8832,-56.9676 542.9906,-56.4388 546,-56 769.5373,-23.4087 828.4011,-44.2165 1053,-20 1063.3798,-18.8808 1074.5977,-17.3807 1084.9107,-15.8833"/>
<polygon fill="#191970" stroke="#191970" points="1085.4826,-19.3368 1094.8575,-14.4011 1084.4508,-12.4133 1085.4826,-19.3368"/>
</g>
<!-- Node17 -->
<g id="node17" class="node">
<title>Node17</title>
<g id="a_node17"><a xlink:title=" ">
<polygon fill="#ffffff" stroke="#bfbfbf" points="958.5,-.5 958.5,-19.5 1043.5,-19.5 1043.5,-.5 958.5,-.5"/>
<text text-anchor="middle" x="1001" y="-7.5" font-family="Helvetica,sans-Serif" font-size="10.00" fill="#000000">cuda_runtime.h</text>
</a>
</g>
</g>
<!-- Node16&#45;&gt;Node17 -->
<g id="edge16" class="edge">
<title>Node16&#45;&gt;Node17</title>
<path fill="none" stroke="#191970" d="M536.782,-57.6097C539.8902,-57.0142 542.9948,-56.4661 546,-56 720.4891,-28.9354 769.1746,-44.427 948.461,-19.9301"/>
<polygon fill="#191970" stroke="#191970" points="949.0679,-23.3795 958.4912,-18.5369 948.1047,-16.4461 949.0679,-23.3795"/>
</g>
<!-- Node18 -->
<g id="node18" class="node">
<title>Node18</title>
<g id="a_node18"><a xlink:title=" ">
<polygon fill="#ffffff" stroke="#bfbfbf" points="62.5,-.5 62.5,-19.5 109.5,-19.5 109.5,-.5 62.5,-.5"/>
<text text-anchor="middle" x="86" y="-7.5" font-family="Helvetica,sans-Serif" font-size="10.00" fill="#000000">cuda.h</text>
</a>
</g>
</g>
<!-- Node16&#45;&gt;Node18 -->
<g id="edge17" class="edge">
<title>Node16&#45;&gt;Node18</title>
<path fill="none" stroke="#191970" d="M465.3776,-63.7923C399.0836,-59.237 252.241,-47.0475 119.5951,-19.7859"/>
<polygon fill="#191970" stroke="#191970" points="120.1693,-16.3304 109.6648,-17.7108 118.7374,-23.1824 120.1693,-16.3304"/>
</g>
<!-- Node19 -->
<g id="node19" class="node">
<title>Node19</title>
<g id="a_node19"><a xlink:title=" ">
<polygon fill="#ffffff" stroke="#bfbfbf" points="128,-.5 128,-19.5 198,-19.5 198,-.5 128,-.5"/>
<text text-anchor="middle" x="163" y="-7.5" font-family="Helvetica,sans-Serif" font-size="10.00" fill="#000000">cublas_v2.h</text>
</a>
</g>
</g>
<!-- Node16&#45;&gt;Node19 -->
<g id="edge18" class="edge">
<title>Node16&#45;&gt;Node19</title>
<path fill="none" stroke="#191970" d="M465.1107,-61.1901C411.3763,-53.8132 306.6318,-38.7566 207.864,-20.0648"/>
<polygon fill="#191970" stroke="#191970" points="208.4981,-16.6227 198.0191,-18.1856 207.1855,-23.4986 208.4981,-16.6227"/>
</g>
<!-- Node20 -->
<g id="node20" class="node">
<title>Node20</title>
<g id="a_node20"><a xlink:title=" ">
<polygon fill="#ffffff" stroke="#bfbfbf" points="216.5,-.5 216.5,-19.5 279.5,-19.5 279.5,-.5 216.5,-.5"/>
<text text-anchor="middle" x="248" y="-7.5" font-family="Helvetica,sans-Serif" font-size="10.00" fill="#000000">cublasXt.h</text>
</a>
</g>
</g>
<!-- Node16&#45;&gt;Node20 -->
<g id="edge19" class="edge">
<title>Node16&#45;&gt;Node20</title>
<path fill="none" stroke="#191970" d="M465.3032,-58.5454C425.0961,-50.0847 357.5503,-35.6794 289.7647,-20.1338"/>
<polygon fill="#191970" stroke="#191970" points="290.2953,-16.6645 279.7651,-17.8324 288.7253,-23.4861 290.2953,-16.6645"/>
</g>
<!-- Node21 -->
<g id="node21" class="node">
<title>Node21</title>
<g id="a_node21"><a xlink:title=" ">
<polygon fill="#ffffff" stroke="#bfbfbf" points="298,-.5 298,-19.5 400,-19.5 400,-.5 298,-.5"/>
<text text-anchor="middle" x="349" y="-7.5" font-family="Helvetica,sans-Serif" font-size="10.00" fill="#000000">cuda_profiler_api.h</text>
</a>
</g>
</g>
<!-- Node16&#45;&gt;Node21 -->
<g id="edge20" class="edge">
<title>Node16&#45;&gt;Node21</title>
<path fill="none" stroke="#191970" d="M474.8703,-56.3733C449.9232,-47.1822 412.1408,-33.2624 384.4794,-23.0713"/>
<polygon fill="#191970" stroke="#191970" points="385.3822,-19.674 374.7888,-19.5011 382.9622,-26.2424 385.3822,-19.674"/>
</g>
<!-- Node22 -->
<g id="node22" class="node">
<title>Node22</title>
<g id="a_node22"><a xlink:title=" ">
<polygon fill="#ffffff" stroke="#bfbfbf" points="418,-.5 418,-19.5 492,-19.5 492,-.5 418,-.5"/>
<text text-anchor="middle" x="455" y="-7.5" font-family="Helvetica,sans-Serif" font-size="10.00" fill="#000000">nvToolsExt.h</text>
</a>
</g>
</g>
<!-- Node16&#45;&gt;Node22 -->
<g id="edge21" class="edge">
<title>Node16&#45;&gt;Node22</title>
<path fill="none" stroke="#191970" d="M492.9874,-56.2455C486.5232,-48.3761 477.2615,-37.101 469.5017,-27.6542"/>
<polygon fill="#191970" stroke="#191970" points="471.9727,-25.1484 462.9208,-19.6427 466.5636,-29.5916 471.9727,-25.1484"/>
</g>
<!-- Node23 -->
<g id="node23" class="node">
<title>Node23</title>
<g id="a_node23"><a xlink:title=" ">
<polygon fill="#ffffff" stroke="#bfbfbf" points="510.5,-.5 510.5,-19.5 585.5,-19.5 585.5,-.5 510.5,-.5"/>
<text text-anchor="middle" x="548" y="-7.5" font-family="Helvetica,sans-Serif" font-size="10.00" fill="#000000">cuComplex.h</text>
</a>
</g>
</g>
<!-- Node16&#45;&gt;Node23 -->
<g id="edge22" class="edge">
<title>Node16&#45;&gt;Node23</title>
<path fill="none" stroke="#191970" d="M509.1868,-56.2455C515.8589,-48.2958 525.4479,-36.8706 533.4253,-27.3656"/>
<polygon fill="#191970" stroke="#191970" points="536.1592,-29.5525 539.907,-19.6427 530.7974,-25.0524 536.1592,-29.5525"/>
</g>
<!-- Node24 -->
<g id="node24" class="node">
<title>Node24</title>
<g id="a_node24"><a xlink:title=" ">
<polygon fill="#ffffff" stroke="#bfbfbf" points="604,-.5 604,-19.5 666,-19.5 666,-.5 604,-.5"/>
<text text-anchor="middle" x="635" y="-7.5" font-family="Helvetica,sans-Serif" font-size="10.00" fill="#000000">execinfo.h</text>
</a>
</g>
</g>
<!-- Node16&#45;&gt;Node24 -->
<g id="edge23" class="edge">
<title>Node16&#45;&gt;Node24</title>
<path fill="none" stroke="#191970" d="M524.0354,-56.3733C545.7388,-47.3032 578.4618,-33.6279 602.755,-23.4755"/>
<polygon fill="#191970" stroke="#191970" points="604.3881,-26.5865 612.2652,-19.5011 601.6889,-20.1278 604.3881,-26.5865"/>
</g>
<!-- Node25 -->
<g id="node25" class="node">
<title>Node25</title>
<g id="a_node25"><a xlink:title=" ">
<polygon fill="#ffffff" stroke="#bfbfbf" points="684,-.5 684,-19.5 736,-19.5 736,-.5 684,-.5"/>
<text text-anchor="middle" x="710" y="-7.5" font-family="Helvetica,sans-Serif" font-size="10.00" fill="#000000">unistd.h</text>
</a>
</g>
</g>
<!-- Node16&#45;&gt;Node25 -->
<g id="edge24" class="edge">
<title>Node16&#45;&gt;Node25</title>
<path fill="none" stroke="#191970" d="M536.7129,-56.7799C569.8626,-48.1724 620.8338,-34.8137 673.7442,-20.3116"/>
<polygon fill="#191970" stroke="#191970" points="674.9275,-23.6162 683.6425,-17.5913 673.0724,-16.8665 674.9275,-23.6162"/>
</g>
<!-- Node26 -->
<g id="node26" class="node">
<title>Node26</title>
<g id="a_node26"><a xlink:title=" ">
<polygon fill="#ffffff" stroke="#bfbfbf" points="754.5,-.5 754.5,-19.5 805.5,-19.5 805.5,-.5 754.5,-.5"/>
<text text-anchor="middle" x="780" y="-7.5" font-family="Helvetica,sans-Serif" font-size="10.00" fill="#000000">signal.h</text>
</a>
</g>
</g>
<!-- Node16&#45;&gt;Node26 -->
<g id="edge25" class="edge">
<title>Node16&#45;&gt;Node26</title>
<path fill="none" stroke="#191970" d="M536.8341,-57.9023C539.931,-57.2433 543.0187,-56.6007 546,-56 631.0118,-38.8718 655.7371,-40.2464 744.4985,-19.9233"/>
<polygon fill="#191970" stroke="#191970" points="745.5111,-23.2815 754.4622,-17.6134 743.9301,-16.4624 745.5111,-23.2815"/>
</g>
<!-- Node27 -->
<g id="node27" class="node">
<title>Node27</title>
<g id="a_node27"><a xlink:title=" ">
<polygon fill="#ffffff" stroke="#bfbfbf" points="824,-.5 824,-19.5 876,-19.5 876,-.5 824,-.5"/>
<text text-anchor="middle" x="850" y="-7.5" font-family="Helvetica,sans-Serif" font-size="10.00" fill="#000000">assert.h</text>
</a>
</g>
</g>
<!-- Node16&#45;&gt;Node27 -->
<g id="edge26" class="edge">
<title>Node16&#45;&gt;Node27</title>
<path fill="none" stroke="#191970" d="M536.8059,-57.7531C539.9089,-57.1265 543.0057,-56.532 546,-56 661.6298,-35.4538 695.1646,-44.1416 813.8922,-19.985"/>
<polygon fill="#191970" stroke="#191970" points="814.6459,-23.4033 823.7288,-17.9489 813.227,-16.5486 814.6459,-23.4033"/>
</g>
<!-- Node28 -->
<g id="node28" class="node">
<title>Node28</title>
<g id="a_node28"><a xlink:title=" ">
<polygon fill="#ffffff" stroke="#bfbfbf" points="894,-.5 894,-19.5 940,-19.5 940,-.5 894,-.5"/>
<text text-anchor="middle" x="917" y="-7.5" font-family="Helvetica,sans-Serif" font-size="10.00" fill="#000000">stdio.h</text>
</a>
</g>
</g>
<!-- Node16&#45;&gt;Node28 -->
<g id="edge29" class="edge">
<title>Node16&#45;&gt;Node28</title>
<path fill="none" stroke="#191970" d="M536.7907,-57.6642C539.897,-57.0569 542.9988,-56.4912 546,-56 692.3119,-32.0528 734.8218,-49.9399 883.7549,-19.9059"/>
<polygon fill="#191970" stroke="#191970" points="884.6305,-23.2992 893.721,-17.8574 883.2211,-16.4426 884.6305,-23.2992"/>
</g>
</g>
</svg>
        <g id="navigator" transform="translate(0 0)" fill="#404254">
                <rect fill="#f2f5e9" fill-opacity="0.5" stroke="#606060" stroke-width=".5" x="0" y="0" width="60" height="60"/>
                <use id="zoomplus" xlink:href="#zoomPlus" x="17" y="9" onmousedown="handleZoom(evt,'in')"/>
                <use id="zoomminus" xlink:href="#zoomMin" x="42" y="9" onmousedown="handleZoom(evt,'out')"/>
                <use id="reset" xlink:href="#resetDef" x="30" y="36" onmousedown="handleReset()"/>
                <g id="arrowUp" xlink:href="#dirArrow" transform="translate(30 24)" onmousedown="handlePan(0,-1)">
                  <use xlink:href="#rim" fill="#404040">
                        <set attributeName="fill" to="#808080" begin="arrowUp.mouseover" end="arrowUp.mouseout"/>
                  </use>
                  <path fill="none" stroke="white" stroke-width="1.5" d="M0,-3.0v7 M-2.5,-0.5L0,-3.0L2.5,-0.5"/>
                </g>
                <g id="arrowRight" xlink:href="#dirArrow" transform="rotate(90) translate(36 -43)" onmousedown="handlePan(1,0)">
                  <use xlink:href="#rim" fill="#404040">
                        <set attributeName="fill" to="#808080" begin="arrowRight.mouseover" end="arrowRight.mouseout"/>
                  </use>
                  <path fill="none" stroke="white" stroke-width="1.5" d="M0,-3.0v7 M-2.5,-0.5L0,-3.0L2.5,-0.5"/>
                </g>
                <g id="arrowDown" xlink:href="#dirArrow" transform="rotate(180) translate(-30 -48)" onmousedown="handlePan(0,1)">
                  <use xlink:href="#rim" fill="#404040">
                        <set attributeName="fill" to="#808080" begin="arrowDown.mouseover" end="arrowDown.mouseout"/>
                  </use>
                  <path fill="none" stroke="white" stroke-width="1.5" d="M0,-3.0v7 M-2.5,-0.5L0,-3.0L2.5,-0.5"/>
                </g>
                <g id="arrowLeft" xlink:href="#dirArrow" transform="rotate(270) translate(-36 17)" onmousedown="handlePan(-1,0)">
                  <use xlink:href="#rim" fill="#404040">
                        <set attributeName="fill" to="#808080" begin="arrowLeft.mouseover" end="arrowLeft.mouseout"/>
                  </use>
                  <path fill="none" stroke="white" stroke-width="1.5" d="M0,-3.0v7 M-2.5,-0.5L0,-3.0L2.5,-0.5"/>
                </g>
        </g>
        <svg viewBox="0 0 15 15" width="100%" height="30px" preserveAspectRatio="xMaxYMin meet">
         <g id="arrow_out" transform="scale(0.3 0.3)">
          <a xlink:href="sbessel_8hpp__incl_org.svg" target="_base">
           <rect id="button" ry="5" rx="5" y="6" x="6" height="38" width="38"
                fill="#f2f5e9" fill-opacity="0.5" stroke="#606060" stroke-width="1.0"/>
           <path id="arrow"
             d="M 11.500037,31.436501 C 11.940474,20.09759 22.043105,11.32322 32.158766,21.979434 L 37.068811,17.246167 C 37.068811,17.246167 37.088388,32 37.088388,32 L 22.160133,31.978069 C 22.160133,31.978069 26.997745,27.140456 26.997745,27.140456 C 18.528582,18.264221 13.291696,25.230495 11.500037,31.436501 z"
             style="fill:#404040;"/>
          </a>
         </g>
        </svg>
</svg>
