<?xml version="1.0" encoding="UTF-8" standalone="no"?>
<!DOCTYPE svg PUBLIC "-//W3C//DTD SVG 1.1//EN"
 "http://www.w3.org/Graphics/SVG/1.1/DTD/svg11.dtd">
<!-- Generated by graphviz version 2.40.1 (20161225.0304)
 -->
<!-- Title: sbessel.hpp Pages: 1 -->
<svg width="2355pt" height="420pt"
 viewBox="0.00 0.00 2354.50 420.00" xmlns="http://www.w3.org/2000/svg" xmlns:xlink="http://www.w3.org/1999/xlink">
<g id="graph0" class="graph" transform="scale(1 1) rotate(0) translate(4 416)">
<title>sbessel.hpp</title>
<polygon fill="#ffffff" stroke="transparent" points="-4,4 -4,-416 2350.5,-416 2350.5,4 -4,4"/>
<!-- Node0 -->
<g id="node1" class="node">
<title>Node0</title>
<polygon fill="#bfbfbf" stroke="#000000" points="234,-392.5 234,-411.5 304,-411.5 304,-392.5 234,-392.5"/>
<text text-anchor="middle" x="269" y="-399.5" font-family="Helvetica,sans-Serif" font-size="10.00" fill="#000000">sbessel.hpp</text>
</g>
<!-- Node1 -->
<g id="node2" class="node">
<title>Node1</title>
<polygon fill="#ffffff" stroke="#bfbfbf" points="155.5,-336.5 155.5,-355.5 256.5,-355.5 256.5,-336.5 155.5,-336.5"/>
<text text-anchor="middle" x="206" y="-343.5" font-family="Helvetica,sans-Serif" font-size="10.00" fill="#000000">gsl/gsl_sf_bessel.h</text>
</g>
<!-- Node0&#45;&gt;Node1 -->
<g id="edge1" class="edge">
<title>Node0&#45;&gt;Node1</title>
<path fill="none" stroke="#191970" d="M258.0262,-392.2455C248.8118,-384.0549 235.4468,-372.1749 224.5703,-362.5069"/>
<polygon fill="#191970" stroke="#191970" points="226.6474,-359.6704 216.848,-355.6427 221.9968,-364.9023 226.6474,-359.6704"/>
</g>
<!-- Node2 -->
<g id="node3" class="node">
<title>Node2</title>
<g id="a_node3"><a xlink:href="../../d4/d91/unit__cell_8hpp.html" target="_top" xlink:title="Contains definition and partial implementation of sirius::Unit_cell class. ">
<polygon fill="#ffffff" stroke="#000000" points="275,-336.5 275,-355.5 389,-355.5 389,-336.5 275,-336.5"/>
<text text-anchor="middle" x="332" y="-343.5" font-family="Helvetica,sans-Serif" font-size="10.00" fill="#000000">Unit_cell/unit_cell.hpp</text>
</a>
</g>
</g>
<!-- Node0&#45;&gt;Node2 -->
<g id="edge2" class="edge">
<title>Node0&#45;&gt;Node2</title>
<path fill="none" stroke="#191970" d="M279.9738,-392.2455C289.1882,-384.0549 302.5532,-372.1749 313.4297,-362.5069"/>
<polygon fill="#191970" stroke="#191970" points="316.0032,-364.9023 321.152,-355.6427 311.3526,-359.6704 316.0032,-364.9023"/>
</g>
<!-- Node3 -->
<g id="node4" class="node">
<title>Node3</title>
<polygon fill="#ffffff" stroke="#bfbfbf" points="378,-56.5 378,-75.5 436,-75.5 436,-56.5 378,-56.5"/>
<text text-anchor="middle" x="407" y="-63.5" font-family="Helvetica,sans-Serif" font-size="10.00" fill="#000000">algorithm</text>
</g>
<!-- Node2&#45;&gt;Node3 -->
<g id="edge3" class="edge">
<title>Node2&#45;&gt;Node3</title>
<path fill="none" stroke="#191970" d="M290.6232,-336.475C201.6248,-315.4099 0,-264.3391 0,-234 0,-234 0,-234 0,-178 0,-130.1711 40.8203,-130.3236 85,-112 199.5409,-64.494 241.9384,-98.4191 367.6331,-76.0053"/>
<polygon fill="#191970" stroke="#191970" points="368.4429,-79.4147 377.6293,-74.1364 367.1564,-72.5339 368.4429,-79.4147"/>
</g>
<!-- Node4 -->
<g id="node5" class="node">
<title>Node4</title>
<g id="a_node5"><a xlink:href="../../d2/dd4/descriptors_8h.html" target="_top" xlink:title="Descriptors for various data structures. ">
<polygon fill="#ffffff" stroke="#000000" points="168,-56.5 168,-75.5 242,-75.5 242,-56.5 168,-56.5"/>
<text text-anchor="middle" x="205" y="-63.5" font-family="Helvetica,sans-Serif" font-size="10.00" fill="#000000">descriptors.h</text>
</a>
</g>
</g>
<!-- Node2&#45;&gt;Node4 -->
<g id="edge4" class="edge">
<title>Node2&#45;&gt;Node4</title>
<path fill="none" stroke="#191970" d="M329.9053,-336.3879C323.7532,-309.0967 304.3081,-229.1576 275,-168 262.1083,-141.0987 254.9196,-136.5683 238,-112 231.6135,-102.7265 224.3343,-92.5408 218.2404,-84.1164"/>
<polygon fill="#191970" stroke="#191970" points="220.9016,-81.8247 212.1914,-75.793 215.239,-85.94 220.9016,-81.8247"/>
</g>
<!-- Node7 -->
<g id="node8" class="node">
<title>Node7</title>
<g id="a_node8"><a xlink:href="../../de/d6d/atom_8hpp.html" target="_top" xlink:title="Contains declaration and partial implementation of sirius::Atom class. ">
<polygon fill="#ffffff" stroke="#000000" points="195,-224.5 195,-243.5 253,-243.5 253,-224.5 195,-224.5"/>
<text text-anchor="middle" x="224" y="-231.5" font-family="Helvetica,sans-Serif" font-size="10.00" fill="#000000">atom.hpp</text>
</a>
</g>
</g>
<!-- Node2&#45;&gt;Node7 -->
<g id="edge7" class="edge">
<title>Node2&#45;&gt;Node7</title>
<path fill="none" stroke="#191970" d="M319.9991,-336.2266C309.1683,-327.2129 292.9891,-313.26 280,-300 264.8181,-284.5015 248.9492,-265.4925 237.9968,-251.862"/>
<polygon fill="#191970" stroke="#191970" points="240.5287,-249.4225 231.5662,-243.7725 235.0491,-253.7784 240.5287,-249.4225"/>
</g>
<!-- Node81 -->
<g id="node18" class="node">
<title>Node81</title>
<g id="a_node18"><a xlink:href="../../d1/d76/mpi__grid_8hpp.html" target="_top" xlink:title="Contains declaration and implementation of MPI_grid class. ">
<polygon fill="#ffffff" stroke="#000000" points="286,-112.5 286,-131.5 360,-131.5 360,-112.5 286,-112.5"/>
<text text-anchor="middle" x="323" y="-119.5" font-family="Helvetica,sans-Serif" font-size="10.00" fill="#000000">mpi_grid.hpp</text>
</a>
</g>
</g>
<!-- Node2&#45;&gt;Node81 -->
<g id="edge35" class="edge">
<title>Node2&#45;&gt;Node81</title>
<path fill="none" stroke="#191970" d="M331.6133,-336.375C330.2516,-302.4851 325.6611,-188.2317 323.7969,-141.8332"/>
<polygon fill="#191970" stroke="#191970" points="327.284,-141.4405 323.3853,-131.5891 320.2897,-141.7216 327.284,-141.4405"/>
</g>
<!-- Node121 -->
<g id="node26" class="node">
<title>Node121</title>
<g id="a_node26"><a xlink:href="../../d8/d7a/unit__cell__symmetry_8hpp.html" target="_top" xlink:title="Contains definition and implementation of sirius::Unit_cell_symmetry class. ">
<polygon fill="#ffffff" stroke="#000000" points="2147,-224.5 2147,-243.5 2269,-243.5 2269,-224.5 2147,-224.5"/>
<text text-anchor="middle" x="2208" y="-231.5" font-family="Helvetica,sans-Serif" font-size="10.00" fill="#000000">unit_cell_symmetry.hpp</text>
</a>
</g>
</g>
<!-- Node2&#45;&gt;Node121 -->
<g id="edge36" class="edge">
<title>Node2&#45;&gt;Node121</title>
<path fill="none" stroke="#191970" d="M389.0469,-345.0954C563.0344,-342.0674 1102.2359,-330.6901 1548,-300 1762.6074,-285.2247 2015.4464,-256.8694 2136.4481,-242.6204"/>
<polygon fill="#191970" stroke="#191970" points="2137.1674,-246.0599 2146.6879,-241.4112 2136.3464,-239.1082 2137.1674,-246.0599"/>
</g>
<!-- Node76 -->
<g id="node29" class="node">
<title>Node76</title>
<g id="a_node29"><a xlink:href="../../d1/de1/simulation__parameters_8h.html" target="_top" xlink:title="Contains definition and implementation of sirius::Simulation_parameters_base class. ">
<polygon fill="#ffffff" stroke="#000000" points="1413,-280.5 1413,-299.5 1539,-299.5 1539,-280.5 1413,-280.5"/>
<text text-anchor="middle" x="1476" y="-287.5" font-family="Helvetica,sans-Serif" font-size="10.00" fill="#000000">simulation_parameters.h</text>
</a>
</g>
</g>
<!-- Node2&#45;&gt;Node76 -->
<g id="edge41" class="edge">
<title>Node2&#45;&gt;Node76</title>
<path fill="none" stroke="#191970" d="M389.1225,-343.2038C579.2279,-333.8979 1190.4925,-303.9759 1402.6488,-293.5906"/>
<polygon fill="#191970" stroke="#191970" points="1402.9307,-297.0811 1412.7476,-293.0963 1402.5884,-290.0895 1402.9307,-297.0811"/>
</g>
<!-- Node40 -->
<g id="node34" class="node">
<title>Node40</title>
<g id="a_node34"><a xlink:href="../../d5/db8/json_8hpp_source.html" target="_top" xlink:title="utils/json.hpp">
<polygon fill="#ffffff" stroke="#ff0000" points="1311.5,-112.5 1311.5,-131.5 1386.5,-131.5 1386.5,-112.5 1311.5,-112.5"/>
<text text-anchor="middle" x="1349" y="-119.5" font-family="Helvetica,sans-Serif" font-size="10.00" fill="#000000">utils/json.hpp</text>
</a>
</g>
</g>
<!-- Node2&#45;&gt;Node40 -->
<g id="edge48" class="edge">
<title>Node2&#45;&gt;Node40</title>
<path fill="none" stroke="#191970" d="M375.3739,-336.4467C540.5248,-300.0712 1129.4031,-170.3675 1301.4663,-132.4696"/>
<polygon fill="#191970" stroke="#191970" points="1302.4692,-135.8327 1311.4822,-130.2635 1300.9634,-128.9965 1302.4692,-135.8327"/>
</g>
<!-- Node5 -->
<g id="node6" class="node">
<title>Node5</title>
<polygon fill="#ffffff" stroke="#bfbfbf" points="442,-.5 442,-19.5 486,-19.5 486,-.5 442,-.5"/>
<text text-anchor="middle" x="464" y="-7.5" font-family="Helvetica,sans-Serif" font-size="10.00" fill="#000000">vector</text>
</g>
<!-- Node4&#45;&gt;Node5 -->
<g id="edge5" class="edge">
<title>Node4&#45;&gt;Node5</title>
<path fill="none" stroke="#191970" d="M242.1561,-57.918C245.1482,-57.2686 248.1246,-56.623 251,-56 315.2505,-42.0784 390.4188,-25.8613 432.078,-16.8798"/>
<polygon fill="#191970" stroke="#191970" points="432.8824,-20.2868 441.9203,-14.758 431.4072,-13.444 432.8824,-20.2868"/>
</g>
<!-- Node6 -->
<g id="node7" class="node">
<title>Node6</title>
<polygon fill="#ffffff" stroke="#bfbfbf" points="285.5,-.5 285.5,-19.5 324.5,-19.5 324.5,-.5 285.5,-.5"/>
<text text-anchor="middle" x="305" y="-7.5" font-family="Helvetica,sans-Serif" font-size="10.00" fill="#000000">array</text>
</g>
<!-- Node4&#45;&gt;Node6 -->
<g id="edge6" class="edge">
<title>Node4&#45;&gt;Node6</title>
<path fill="none" stroke="#191970" d="M222.4187,-56.2455C238.0485,-47.4928 261.2019,-34.527 279.0185,-24.5496"/>
<polygon fill="#191970" stroke="#191970" points="280.766,-27.5825 287.7809,-19.6427 277.3457,-21.475 280.766,-27.5825"/>
</g>
<!-- Node8 -->
<g id="node9" class="node">
<title>Node8</title>
<g id="a_node9"><a xlink:href="../../d8/db4/gaunt_8hpp.html" target="_top" xlink:title="Contains definition and implementation of sirius::Gaunt class. ">
<polygon fill="#ffffff" stroke="#ff0000" points="182,-168.5 182,-187.5 266,-187.5 266,-168.5 182,-168.5"/>
<text text-anchor="middle" x="224" y="-175.5" font-family="Helvetica,sans-Serif" font-size="10.00" fill="#000000">SHT/gaunt.hpp</text>
</a>
</g>
</g>
<!-- Node7&#45;&gt;Node8 -->
<g id="edge8" class="edge">
<title>Node7&#45;&gt;Node8</title>
<path fill="none" stroke="#191970" d="M224,-224.2455C224,-216.9382 224,-206.6944 224,-197.7046"/>
<polygon fill="#191970" stroke="#191970" points="227.5001,-197.6426 224,-187.6427 220.5001,-197.6427 227.5001,-197.6426"/>
</g>
<!-- Node29 -->
<g id="node10" class="node">
<title>Node29</title>
<g id="a_node10"><a xlink:href="../../d6/d50/atom__symmetry__class_8hpp.html" target="_top" xlink:title="Contains declaration and partial implementation of sirius::Atom_symmetry_class class. ">
<polygon fill="#ffffff" stroke="#ff0000" points="94.5,-112.5 94.5,-131.5 229.5,-131.5 229.5,-112.5 94.5,-112.5"/>
<text text-anchor="middle" x="162" y="-119.5" font-family="Helvetica,sans-Serif" font-size="10.00" fill="#000000">atom_symmetry_class.hpp</text>
</a>
</g>
</g>
<!-- Node7&#45;&gt;Node29 -->
<g id="edge9" class="edge">
<title>Node7&#45;&gt;Node29</title>
<path fill="none" stroke="#191970" d="M208.475,-224.2769C196.774,-216.0835 181.3618,-203.2689 173,-188 165.2408,-173.8314 162.6655,-155.5807 161.9318,-141.8636"/>
<polygon fill="#191970" stroke="#191970" points="165.4241,-141.5061 161.6752,-131.5967 158.4262,-141.681 165.4241,-141.5061"/>
</g>
<!-- Node78 -->
<g id="node13" class="node">
<title>Node78</title>
<g id="a_node13"><a xlink:href="../../db/d5a/sddk_8hpp_source.html" target="_top" xlink:title="sddk.hpp">
<polygon fill="#ffffff" stroke="#ff0000" points="473.5,-168.5 473.5,-187.5 530.5,-187.5 530.5,-168.5 473.5,-168.5"/>
<text text-anchor="middle" x="502" y="-175.5" font-family="Helvetica,sans-Serif" font-size="10.00" fill="#000000">sddk.hpp</text>
</a>
</g>
</g>
<!-- Node7&#45;&gt;Node78 -->
<g id="edge13" class="edge">
<title>Node7&#45;&gt;Node78</title>
<path fill="none" stroke="#191970" d="M253.2254,-228.1129C303.6204,-217.9614 406.8696,-197.163 463.2145,-185.8129"/>
<polygon fill="#191970" stroke="#191970" points="464.0542,-189.2141 473.1661,-183.8083 462.6719,-182.352 464.0542,-189.2141"/>
</g>
<!-- Node112 -->
<g id="node25" class="node">
<title>Node112</title>
<g id="a_node25"><a xlink:href="../../db/d16/spheric__function_8h.html" target="_top" xlink:title="Contains declaration and implementation of sirius::Spheric_function and sirius::Spheric_function_grad...">
<polygon fill="#ffffff" stroke="#ff0000" points="28,-168.5 28,-187.5 126,-187.5 126,-168.5 28,-168.5"/>
<text text-anchor="middle" x="77" y="-175.5" font-family="Helvetica,sans-Serif" font-size="10.00" fill="#000000">spheric_function.h</text>
</a>
</g>
</g>
<!-- Node7&#45;&gt;Node112 -->
<g id="edge33" class="edge">
<title>Node7&#45;&gt;Node112</title>
<path fill="none" stroke="#191970" d="M198.7298,-224.3733C174.6034,-215.1822 138.0638,-201.2624 111.3123,-191.0713"/>
<polygon fill="#191970" stroke="#191970" points="112.5313,-187.7904 101.9404,-187.5011 110.0393,-194.3318 112.5313,-187.7904"/>
</g>
<!-- Node38 -->
<g id="node11" class="node">
<title>Node38</title>
<g id="a_node11"><a xlink:href="../../d4/d32/communicator_8hpp.html" target="_top" xlink:title="Contains declaration and implementation of Communicator class. ">
<polygon fill="#ffffff" stroke="#ff0000" points="260.5,-56.5 260.5,-75.5 359.5,-75.5 359.5,-56.5 260.5,-56.5"/>
<text text-anchor="middle" x="310" y="-63.5" font-family="Helvetica,sans-Serif" font-size="10.00" fill="#000000">communicator.hpp</text>
</a>
</g>
</g>
<!-- Node29&#45;&gt;Node38 -->
<g id="edge10" class="edge">
<title>Node29&#45;&gt;Node38</title>
<path fill="none" stroke="#191970" d="M187.4421,-112.3733C211.7326,-103.1822 248.5208,-89.2624 275.4543,-79.0713"/>
<polygon fill="#191970" stroke="#191970" points="276.7757,-82.3136 284.8899,-75.5011 274.2984,-75.7666 276.7757,-82.3136"/>
</g>
<!-- Node38&#45;&gt;Node5 -->
<g id="edge12" class="edge">
<title>Node38&#45;&gt;Node5</title>
<path fill="none" stroke="#191970" d="M336.4735,-56.3733C363.0905,-46.6944 404.1291,-31.7712 432.4267,-21.4812"/>
<polygon fill="#191970" stroke="#191970" points="433.6582,-24.7577 441.86,-18.0509 431.266,-18.1791 433.6582,-24.7577"/>
</g>
<!-- Node11 -->
<g id="node12" class="node">
<title>Node11</title>
<polygon fill="#ffffff" stroke="#bfbfbf" points="613.5,-.5 613.5,-19.5 662.5,-19.5 662.5,-.5 613.5,-.5"/>
<text text-anchor="middle" x="638" y="-7.5" font-family="Helvetica,sans-Serif" font-size="10.00" fill="#000000">cassert</text>
</g>
<!-- Node38&#45;&gt;Node11 -->
<g id="edge11" class="edge">
<title>Node38&#45;&gt;Node11</title>
<path fill="none" stroke="#191970" d="M359.8161,-57.4948C426.9636,-46.0306 544.8091,-25.9106 603.1923,-15.9428"/>
<polygon fill="#191970" stroke="#191970" points="604.1078,-19.3372 613.3761,-14.2041 602.9296,-12.4371 604.1078,-19.3372"/>
</g>
<!-- Node78&#45;&gt;Node3 -->
<g id="edge19" class="edge">
<title>Node78&#45;&gt;Node3</title>
<path fill="none" stroke="#191970" d="M489.1533,-168.2602C478.0575,-159.4862 461.9698,-145.87 450,-132 437.2021,-117.1705 425.2641,-98.2741 417.2302,-84.5042"/>
<polygon fill="#191970" stroke="#191970" points="420.1022,-82.4745 412.1137,-75.515 414.0186,-85.9372 420.1022,-82.4745"/>
</g>
<!-- Node78&#45;&gt;Node5 -->
<g id="edge17" class="edge">
<title>Node78&#45;&gt;Node5</title>
<path fill="none" stroke="#191970" d="M498.7053,-168.21C495.6649,-158.952 491.1567,-144.6342 488,-132 479.0559,-96.2027 471.3561,-53.8192 467.2264,-29.6036"/>
<polygon fill="#191970" stroke="#191970" points="470.6484,-28.847 465.5421,-19.5639 463.7449,-30.0051 470.6484,-28.847"/>
</g>
<!-- Node78&#45;&gt;Node38 -->
<g id="edge20" class="edge">
<title>Node78&#45;&gt;Node38</title>
<path fill="none" stroke="#191970" d="M485.6302,-168.4509C452.0482,-148.8615 375.169,-104.0152 335.1906,-80.6945"/>
<polygon fill="#191970" stroke="#191970" points="336.7297,-77.5404 326.3284,-75.5249 333.2026,-83.5869 336.7297,-77.5404"/>
</g>
<!-- Node13 -->
<g id="node14" class="node">
<title>Node13</title>
<polygon fill="#ffffff" stroke="#bfbfbf" points="530.5,-56.5 530.5,-75.5 571.5,-75.5 571.5,-56.5 530.5,-56.5"/>
<text text-anchor="middle" x="551" y="-63.5" font-family="Helvetica,sans-Serif" font-size="10.00" fill="#000000">string</text>
</g>
<!-- Node78&#45;&gt;Node13 -->
<g id="edge14" class="edge">
<title>Node78&#45;&gt;Node13</title>
<path fill="none" stroke="#191970" d="M506.1777,-168.4509C514.278,-149.936 532.2492,-108.8591 542.8106,-84.7187"/>
<polygon fill="#191970" stroke="#191970" points="546.0312,-86.0894 546.8329,-75.5249 539.6181,-83.2836 546.0312,-86.0894"/>
</g>
<!-- Node59 -->
<g id="node15" class="node">
<title>Node59</title>
<polygon fill="#ffffff" stroke="#bfbfbf" points="1844,-.5 1844,-19.5 1896,-19.5 1896,-.5 1844,-.5"/>
<text text-anchor="middle" x="1870" y="-7.5" font-family="Helvetica,sans-Serif" font-size="10.00" fill="#000000">sstream</text>
</g>
<!-- Node78&#45;&gt;Node59 -->
<g id="edge15" class="edge">
<title>Node78&#45;&gt;Node59</title>
<path fill="none" stroke="#191970" d="M500.0092,-168.177C495.8752,-144.6258 489.2783,-84.7693 522,-56 547.3474,-33.7144 1620.9484,-14.2507 1833.6136,-10.6098"/>
<polygon fill="#191970" stroke="#191970" points="1833.9767,-14.1042 1843.9156,-10.4343 1833.8574,-7.1053 1833.9767,-14.1042"/>
</g>
<!-- Node32 -->
<g id="node16" class="node">
<title>Node32</title>
<polygon fill="#ffffff" stroke="#bfbfbf" points="2133,-56.5 2133,-75.5 2169,-75.5 2169,-56.5 2133,-56.5"/>
<text text-anchor="middle" x="2151" y="-63.5" font-family="Helvetica,sans-Serif" font-size="10.00" fill="#000000">map</text>
</g>
<!-- Node78&#45;&gt;Node32 -->
<g id="edge16" class="edge">
<title>Node78&#45;&gt;Node32</title>
<path fill="none" stroke="#191970" d="M530.5089,-177.7113C737.22,-175.5505 2000.2394,-161.1831 2075,-132 2100.2732,-122.1345 2122.8437,-99.9616 2136.6948,-84.0371"/>
<polygon fill="#191970" stroke="#191970" points="2139.7261,-85.8679 2143.4545,-75.9508 2134.3555,-81.3783 2139.7261,-85.8679"/>
</g>
<!-- Node12 -->
<g id="node17" class="node">
<title>Node12</title>
<polygon fill="#ffffff" stroke="#bfbfbf" points="589.5,-56.5 589.5,-75.5 642.5,-75.5 642.5,-56.5 589.5,-56.5"/>
<text text-anchor="middle" x="616" y="-63.5" font-family="Helvetica,sans-Serif" font-size="10.00" fill="#000000">memory</text>
</g>
<!-- Node78&#45;&gt;Node12 -->
<g id="edge18" class="edge">
<title>Node78&#45;&gt;Node12</title>
<path fill="none" stroke="#191970" d="M511.7196,-168.4509C531.0699,-149.4401 574.6319,-106.6423 598.8837,-82.816"/>
<polygon fill="#191970" stroke="#191970" points="601.6245,-85.0298 606.305,-75.5249 596.7187,-80.0364 601.6245,-85.0298"/>
</g>
<!-- Node78&#45;&gt;Node81 -->
<g id="edge21" class="edge">
<title>Node78&#45;&gt;Node81</title>
<path fill="none" stroke="#191970" d="M473.2406,-169.0026C443.5061,-159.7002 396.836,-145.0995 363.4028,-134.64"/>
<polygon fill="#191970" stroke="#191970" points="364.0742,-131.1828 353.4853,-131.5373 361.9841,-137.8635 364.0742,-131.1828"/>
</g>
<!-- Node90 -->
<g id="node19" class="node">
<title>Node90</title>
<g id="a_node19"><a xlink:href="../../d6/dd8/gvec_8hpp.html" target="_top" xlink:title="Declaration and implementation of Gvec class. ">
<polygon fill="#ffffff" stroke="#ff0000" points="2122.5,-112.5 2122.5,-131.5 2179.5,-131.5 2179.5,-112.5 2122.5,-112.5"/>
<text text-anchor="middle" x="2151" y="-119.5" font-family="Helvetica,sans-Serif" font-size="10.00" fill="#000000">gvec.hpp</text>
</a>
</g>
</g>
<!-- Node78&#45;&gt;Node90 -->
<g id="edge23" class="edge">
<title>Node78&#45;&gt;Node90</title>
<path fill="none" stroke="#191970" d="M530.7569,-177.9617C719.7057,-177.5921 1785.7241,-173.6634 2108,-132 2109.4727,-131.8096 2110.9689,-131.5908 2112.4764,-131.3488"/>
<polygon fill="#191970" stroke="#191970" points="2113.2811,-134.759 2122.4641,-129.4748 2111.9902,-127.8791 2113.2811,-134.759"/>
</g>
<!-- Node81&#45;&gt;Node38 -->
<g id="edge22" class="edge">
<title>Node81&#45;&gt;Node38</title>
<path fill="none" stroke="#191970" d="M320.7356,-112.2455C319.0206,-104.8579 316.6088,-94.4689 314.5056,-85.4087"/>
<polygon fill="#191970" stroke="#191970" points="317.9092,-84.5922 312.2385,-75.6427 311.0905,-86.1751 317.9092,-84.5922"/>
</g>
<!-- Node90&#45;&gt;Node32 -->
<g id="edge25" class="edge">
<title>Node90&#45;&gt;Node32</title>
<path fill="none" stroke="#191970" d="M2151,-112.2455C2151,-104.9382 2151,-94.6944 2151,-85.7046"/>
<polygon fill="#191970" stroke="#191970" points="2154.5001,-85.6426 2151,-75.6427 2147.5001,-85.6427 2154.5001,-85.6426"/>
</g>
<!-- Node45 -->
<g id="node20" class="node">
<title>Node45</title>
<polygon fill="#ffffff" stroke="#bfbfbf" points="2187,-56.5 2187,-75.5 2239,-75.5 2239,-56.5 2187,-56.5"/>
<text text-anchor="middle" x="2213" y="-63.5" font-family="Helvetica,sans-Serif" font-size="10.00" fill="#000000">numeric</text>
</g>
<!-- Node90&#45;&gt;Node45 -->
<g id="edge24" class="edge">
<title>Node90&#45;&gt;Node45</title>
<path fill="none" stroke="#191970" d="M2161.7996,-112.2455C2170.8678,-104.0549 2184.0206,-92.1749 2194.7245,-82.5069"/>
<polygon fill="#191970" stroke="#191970" points="2197.2491,-84.9429 2202.3242,-75.6427 2192.5571,-79.7482 2197.2491,-84.9429"/>
</g>
<!-- Node66 -->
<g id="node21" class="node">
<title>Node66</title>
<g id="a_node21"><a xlink:href="../../d6/d99/geometry3d_8hpp.html" target="_top" xlink:title="Simple classes and functions to work with the 3D vectors and matrices of the crystal lattice...">
<polygon fill="#ffffff" stroke="#ff0000" points="2257.5,-56.5 2257.5,-75.5 2346.5,-75.5 2346.5,-56.5 2257.5,-56.5"/>
<text text-anchor="middle" x="2302" y="-63.5" font-family="Helvetica,sans-Serif" font-size="10.00" fill="#000000">geometry3d.hpp</text>
</a>
</g>
</g>
<!-- Node90&#45;&gt;Node66 -->
<g id="edge26" class="edge">
<title>Node90&#45;&gt;Node66</title>
<path fill="none" stroke="#191970" d="M2176.9578,-112.3733C2201.7407,-103.1822 2239.2746,-89.2624 2266.754,-79.0713"/>
<polygon fill="#191970" stroke="#191970" points="2268.2219,-82.26 2276.3809,-75.5011 2265.7879,-75.6968 2268.2219,-82.26"/>
</g>
<!-- Node66&#45;&gt;Node5 -->
<g id="edge28" class="edge">
<title>Node66&#45;&gt;Node5</title>
<path fill="none" stroke="#191970" d="M2257.2913,-57.1468C2254.155,-56.7026 2251.035,-56.3122 2248,-56 1521.4367,18.7414 1334.6129,-53.8458 605,-20 567.8292,-18.2757 525.2254,-15.0858 496.6648,-12.7714"/>
<polygon fill="#191970" stroke="#191970" points="496.6998,-9.2626 486.4468,-11.9321 496.1267,-16.2391 496.6998,-9.2626"/>
</g>
<!-- Node66&#45;&gt;Node6 -->
<g id="edge27" class="edge">
<title>Node66&#45;&gt;Node6</title>
<path fill="none" stroke="#191970" d="M2257.292,-57.1396C2254.1555,-56.6971 2251.0353,-56.3091 2248,-56 1846.6624,-15.1353 835.9305,-39.7188 433,-20 399.4937,-18.3603 361.1447,-15.1923 335.2273,-12.8598"/>
<polygon fill="#191970" stroke="#191970" points="335.2085,-9.3435 324.9313,-11.9181 334.5709,-16.3144 335.2085,-9.3435"/>
</g>
<!-- Node66&#45;&gt;Node59 -->
<g id="edge32" class="edge">
<title>Node66&#45;&gt;Node59</title>
<path fill="none" stroke="#191970" d="M2257.2472,-57.4915C2254.1214,-56.9652 2251.0158,-56.4623 2248,-56 2123.0145,-36.8412 1973.7862,-20.633 1906.3095,-13.6612"/>
<polygon fill="#191970" stroke="#191970" points="1906.5035,-10.1627 1896.1981,-12.6225 1905.7881,-17.1261 1906.5035,-10.1627"/>
</g>
<!-- Node15 -->
<g id="node22" class="node">
<title>Node15</title>
<polygon fill="#ffffff" stroke="#bfbfbf" points="2015,-.5 2015,-19.5 2061,-19.5 2061,-.5 2015,-.5"/>
<text text-anchor="middle" x="2038" y="-7.5" font-family="Helvetica,sans-Serif" font-size="10.00" fill="#000000">cstring</text>
</g>
<!-- Node66&#45;&gt;Node15 -->
<g id="edge29" class="edge">
<title>Node66&#45;&gt;Node15</title>
<path fill="none" stroke="#191970" d="M2257.216,-56.5004C2204.5609,-45.3311 2118.3921,-27.0529 2071.3005,-17.0637"/>
<polygon fill="#191970" stroke="#191970" points="2071.8265,-13.5975 2061.3179,-14.9462 2070.3739,-20.4452 2071.8265,-13.5975"/>
</g>
<!-- Node16 -->
<g id="node23" class="node">
<title>Node16</title>
<polygon fill="#ffffff" stroke="#bfbfbf" points="2130.5,-.5 2130.5,-19.5 2203.5,-19.5 2203.5,-.5 2130.5,-.5"/>
<text text-anchor="middle" x="2167" y="-7.5" font-family="Helvetica,sans-Serif" font-size="10.00" fill="#000000">initializer_list</text>
</g>
<!-- Node66&#45;&gt;Node16 -->
<g id="edge30" class="edge">
<title>Node66&#45;&gt;Node16</title>
<path fill="none" stroke="#191970" d="M2278.7927,-56.3733C2256.8301,-47.2629 2223.6668,-33.5062 2199.1599,-23.3404"/>
<polygon fill="#191970" stroke="#191970" points="2200.4824,-20.0999 2189.9045,-19.5011 2197.8003,-26.5657 2200.4824,-20.0999"/>
</g>
<!-- Node50 -->
<g id="node24" class="node">
<title>Node50</title>
<polygon fill="#ffffff" stroke="#bfbfbf" points="2246.5,-.5 2246.5,-19.5 2305.5,-19.5 2305.5,-.5 2246.5,-.5"/>
<text text-anchor="middle" x="2276" y="-7.5" font-family="Helvetica,sans-Serif" font-size="10.00" fill="#000000">stdexcept</text>
</g>
<!-- Node66&#45;&gt;Node50 -->
<g id="edge31" class="edge">
<title>Node66&#45;&gt;Node50</title>
<path fill="none" stroke="#191970" d="M2297.4711,-56.2455C2293.9666,-48.6973 2289.0073,-38.0158 2284.7377,-28.8197"/>
<polygon fill="#191970" stroke="#191970" points="2287.8627,-27.2389 2280.477,-19.6427 2281.5136,-30.1867 2287.8627,-27.2389"/>
</g>
<!-- Node112&#45;&gt;Node6 -->
<g id="edge34" class="edge">
<title>Node112&#45;&gt;Node6</title>
<path fill="none" stroke="#191970" d="M75.9234,-168.3129C74.8919,-154.7619 74.7594,-129.811 85,-112 105.5583,-76.244 122.3499,-74.9185 159,-56 197.0238,-36.3724 244.9737,-23.2375 275.3211,-16.1925"/>
<polygon fill="#191970" stroke="#191970" points="276.2877,-19.5626 285.2762,-13.9539 274.7519,-12.7332 276.2877,-19.5626"/>
</g>
<!-- Node121&#45;&gt;Node90 -->
<g id="edge40" class="edge">
<title>Node121&#45;&gt;Node90</title>
<path fill="none" stroke="#191970" d="M2241.4503,-224.4114C2273.8842,-213.3711 2315.6571,-193.4395 2297,-168 2284.1596,-150.4918 2228.231,-136.5935 2189.4495,-128.8297"/>
<polygon fill="#191970" stroke="#191970" points="2189.9906,-125.3694 2179.5065,-126.8971 2188.655,-132.2408 2189.9906,-125.3694"/>
</g>
<!-- Node121&#45;&gt;Node66 -->
<g id="edge38" class="edge">
<title>Node121&#45;&gt;Node66</title>
<path fill="none" stroke="#191970" d="M2209.8928,-224.2216C2212.689,-210.991 2218.6274,-186.8731 2228,-168 2244.0206,-135.7402 2270.041,-102.7872 2286.5732,-83.3751"/>
<polygon fill="#191970" stroke="#191970" points="2289.3254,-85.5435 2293.2261,-75.6928 2284.0338,-80.9609 2289.3254,-85.5435"/>
</g>
<!-- Node122 -->
<g id="node27" class="node">
<title>Node122</title>
<polygon fill="#ffffff" stroke="#bfbfbf" points="2236.5,-168.5 2236.5,-187.5 2287.5,-187.5 2287.5,-168.5 2236.5,-168.5"/>
<text text-anchor="middle" x="2262" y="-175.5" font-family="Helvetica,sans-Serif" font-size="10.00" fill="#000000">spglib.h</text>
</g>
<!-- Node121&#45;&gt;Node122 -->
<g id="edge37" class="edge">
<title>Node121&#45;&gt;Node122</title>
<path fill="none" stroke="#191970" d="M2217.4061,-224.2455C2225.1493,-216.2155 2236.312,-204.6394 2245.5318,-195.0781"/>
<polygon fill="#191970" stroke="#191970" points="2248.2798,-197.2706 2252.7017,-187.6427 2243.2409,-192.4117 2248.2798,-197.2706"/>
</g>
<!-- Node70 -->
<g id="node28" class="node">
<title>Node70</title>
<g id="a_node28"><a xlink:href="../../d2/d6f/constants_8h.html" target="_top" xlink:title="Various constants. ">
<polygon fill="#ffffff" stroke="#ff0000" points="1772,-168.5 1772,-187.5 1840,-187.5 1840,-168.5 1772,-168.5"/>
<text text-anchor="middle" x="1806" y="-175.5" font-family="Helvetica,sans-Serif" font-size="10.00" fill="#000000">constants.h</text>
</a>
</g>
</g>
<!-- Node121&#45;&gt;Node70 -->
<g id="edge39" class="edge">
<title>Node121&#45;&gt;Node70</title>
<path fill="none" stroke="#191970" d="M2146.9449,-225.4948C2065.2987,-214.1212 1922.4945,-194.2281 1850.3707,-184.181"/>
<polygon fill="#191970" stroke="#191970" points="1850.6453,-180.6855 1840.258,-182.7723 1849.6795,-187.6186 1850.6453,-180.6855"/>
</g>
<!-- Node71 -->
<g id="node30" class="node">
<title>Node71</title>
<g id="a_node30"><a xlink:href="../../d7/d69/typedefs_8h.html" target="_top" xlink:title="Contains typedefs, enums and type_wrapper class. ">
<polygon fill="#ffffff" stroke="#ff0000" points="2002.5,-112.5 2002.5,-131.5 2065.5,-131.5 2065.5,-112.5 2002.5,-112.5"/>
<text text-anchor="middle" x="2034" y="-119.5" font-family="Helvetica,sans-Serif" font-size="10.00" fill="#000000">typedefs.h</text>
</a>
</g>
</g>
<!-- Node76&#45;&gt;Node71 -->
<g id="edge42" class="edge">
<title>Node76&#45;&gt;Node71</title>
<path fill="none" stroke="#191970" d="M1514.6728,-280.4544C1582.7236,-263.429 1728.1246,-226.0288 1849,-188 1901.9255,-171.349 1962.3045,-149.2037 1999.2842,-135.2739"/>
<polygon fill="#191970" stroke="#191970" points="2000.9526,-138.3849 2009.0683,-131.5742 1998.4767,-131.8374 2000.9526,-138.3849"/>
</g>
<!-- Node77 -->
<g id="node33" class="node">
<title>Node77</title>
<g id="a_node33"><a xlink:href="../../de/ded/input_8h.html" target="_top" xlink:title="Contains input parameters structures. ">
<polygon fill="#ffffff" stroke="#000000" points="1452.5,-224.5 1452.5,-243.5 1499.5,-243.5 1499.5,-224.5 1452.5,-224.5"/>
<text text-anchor="middle" x="1476" y="-231.5" font-family="Helvetica,sans-Serif" font-size="10.00" fill="#000000">input.h</text>
</a>
</g>
</g>
<!-- Node76&#45;&gt;Node77 -->
<g id="edge45" class="edge">
<title>Node76&#45;&gt;Node77</title>
<path fill="none" stroke="#191970" d="M1476,-280.2455C1476,-272.9382 1476,-262.6944 1476,-253.7046"/>
<polygon fill="#191970" stroke="#191970" points="1479.5001,-253.6426 1476,-243.6427 1472.5001,-253.6427 1479.5001,-253.6426"/>
</g>
<!-- Node57 -->
<g id="node31" class="node">
<title>Node57</title>
<polygon fill="#ffffff" stroke="#bfbfbf" points="2012.5,-56.5 2012.5,-75.5 2057.5,-75.5 2057.5,-56.5 2012.5,-56.5"/>
<text text-anchor="middle" x="2035" y="-63.5" font-family="Helvetica,sans-Serif" font-size="10.00" fill="#000000">cstdlib</text>
</g>
<!-- Node71&#45;&gt;Node57 -->
<g id="edge43" class="edge">
<title>Node71&#45;&gt;Node57</title>
<path fill="none" stroke="#191970" d="M2034.1742,-112.2455C2034.3047,-104.9382 2034.4876,-94.6944 2034.6481,-85.7046"/>
<polygon fill="#191970" stroke="#191970" points="2038.1486,-85.7036 2034.8278,-75.6427 2031.1497,-85.5786 2038.1486,-85.7036"/>
</g>
<!-- Node48 -->
<g id="node32" class="node">
<title>Node48</title>
<polygon fill="#ffffff" stroke="#bfbfbf" points="2075.5,-56.5 2075.5,-75.5 2114.5,-75.5 2114.5,-56.5 2075.5,-56.5"/>
<text text-anchor="middle" x="2095" y="-63.5" font-family="Helvetica,sans-Serif" font-size="10.00" fill="#000000">limits</text>
</g>
<!-- Node71&#45;&gt;Node48 -->
<g id="edge44" class="edge">
<title>Node71&#45;&gt;Node48</title>
<path fill="none" stroke="#191970" d="M2044.6254,-112.2455C2053.5473,-104.0549 2066.488,-92.1749 2077.0192,-82.5069"/>
<polygon fill="#191970" stroke="#191970" points="2079.4968,-84.9837 2084.4964,-75.6427 2074.7629,-79.8271 2079.4968,-84.9837"/>
</g>
<!-- Node77&#45;&gt;Node78 -->
<g id="edge47" class="edge">
<title>Node77&#45;&gt;Node78</title>
<path fill="none" stroke="#191970" d="M1452.4061,-232.6435C1323.3443,-225.2231 702.7368,-189.5413 540.7446,-180.2276"/>
<polygon fill="#191970" stroke="#191970" points="540.9322,-176.7327 530.7478,-179.6528 540.5303,-183.7212 540.9322,-176.7327"/>
</g>
<!-- Node77&#45;&gt;Node70 -->
<g id="edge46" class="edge">
<title>Node77&#45;&gt;Node70</title>
<path fill="none" stroke="#191970" d="M1499.7328,-229.9726C1554.6673,-220.6504 1691.2674,-197.4698 1761.9968,-185.4672"/>
<polygon fill="#191970" stroke="#191970" points="1762.6633,-188.9042 1771.9368,-183.7804 1761.4921,-182.0029 1762.6633,-188.9042"/>
</g>
<!-- Node40&#45;&gt;Node3 -->
<g id="edge49" class="edge">
<title>Node40&#45;&gt;Node3</title>
<path fill="none" stroke="#191970" d="M1311.4695,-120.3299C1194.5441,-115.0372 826.4397,-97.6981 522,-76 496.8049,-74.2043 468.5431,-71.7528 446.3415,-69.7265"/>
<polygon fill="#191970" stroke="#191970" points="446.5644,-66.2323 436.2855,-68.8001 445.9222,-73.2028 446.5644,-66.2323"/>
</g>
<!-- Node40&#45;&gt;Node5 -->
<g id="edge63" class="edge">
<title>Node40&#45;&gt;Node5</title>
<path fill="none" stroke="#191970" d="M1311.3918,-121.2469C1193.8459,-118.5785 834.5718,-107.9519 723,-76 704.6523,-70.7456 702.9617,-62.4518 685,-56 620.0896,-32.6843 539.9813,-19.6862 496.2475,-13.8388"/>
<polygon fill="#191970" stroke="#191970" points="496.5673,-10.3511 486.2004,-12.5365 495.6675,-17.293 496.5673,-10.3511"/>
</g>
<!-- Node40&#45;&gt;Node6 -->
<g id="edge68" class="edge">
<title>Node40&#45;&gt;Node6</title>
<path fill="none" stroke="#191970" d="M1311.1943,-121.7137C1188.5702,-120.4218 802.999,-113.4104 685,-76 668.6519,-70.817 668.1778,-61.6923 652,-56 593.5209,-35.4236 407.8496,-18.4271 334.8692,-12.3739"/>
<polygon fill="#191970" stroke="#191970" points="334.8056,-8.857 324.5533,-11.5291 334.2343,-15.8337 334.8056,-8.857"/>
</g>
<!-- Node40&#45;&gt;Node11 -->
<g id="edge50" class="edge">
<title>Node40&#45;&gt;Node11</title>
<path fill="none" stroke="#191970" d="M1311.3084,-120.948C1199.3244,-117.5192 870.0095,-105.163 767,-76 756.3522,-72.9855 699.3987,-42.9348 664.8245,-24.4378"/>
<polygon fill="#191970" stroke="#191970" points="666.1905,-21.1989 655.7234,-19.5591 662.8834,-27.3684 666.1905,-21.1989"/>
</g>
<!-- Node40&#45;&gt;Node13 -->
<g id="edge58" class="edge">
<title>Node40&#45;&gt;Node13</title>
<path fill="none" stroke="#191970" d="M1311.3299,-121.0484C1180.1052,-117.5348 742.8103,-104.1086 581.9816,-75.6056"/>
<polygon fill="#191970" stroke="#191970" points="582.2662,-72.0984 571.7941,-73.7063 580.9832,-78.9798 582.2662,-72.0984"/>
</g>
<!-- Node40&#45;&gt;Node59 -->
<g id="edge78" class="edge">
<title>Node40&#45;&gt;Node59</title>
<path fill="none" stroke="#191970" d="M1386.7828,-120.9627C1497.4653,-117.5923 1815.4225,-105.4195 1851,-76 1864.3269,-64.9798 1868.6518,-45.2631 1869.8971,-30.2406"/>
<polygon fill="#191970" stroke="#191970" points="1873.4094,-30.0321 1870.3473,-19.8895 1866.416,-29.728 1873.4094,-30.0321"/>
</g>
<!-- Node40&#45;&gt;Node32 -->
<g id="edge61" class="edge">
<title>Node40&#45;&gt;Node32</title>
<path fill="none" stroke="#191970" d="M1386.5797,-121.2358C1518.5328,-118.3293 1960.9718,-106.6424 2122.6769,-75.5985"/>
<polygon fill="#191970" stroke="#191970" points="2123.8092,-78.9403 2132.9159,-73.5256 2122.4202,-72.0795 2123.8092,-78.9403"/>
</g>
<!-- Node40&#45;&gt;Node12 -->
<g id="edge62" class="edge">
<title>Node40&#45;&gt;Node12</title>
<path fill="none" stroke="#191970" d="M1311.28,-120.3542C1186.0699,-114.7561 784.9262,-95.7012 657,-76 655.5517,-75.777 654.0795,-75.5277 652.5959,-75.2578"/>
<polygon fill="#191970" stroke="#191970" points="653.2738,-71.824 642.7731,-73.2331 651.8606,-78.6799 653.2738,-71.824"/>
</g>
<!-- Node40&#45;&gt;Node45 -->
<g id="edge57" class="edge">
<title>Node40&#45;&gt;Node45</title>
<path fill="none" stroke="#191970" d="M1386.6732,-121.0249C1524.7064,-117.2823 2003.3275,-102.7684 2176.7741,-75.7992"/>
<polygon fill="#191970" stroke="#191970" points="2177.4629,-79.2333 2186.771,-74.1727 2176.3387,-72.3241 2177.4629,-79.2333"/>
</g>
<!-- Node40&#45;&gt;Node15 -->
<g id="edge72" class="edge">
<title>Node40&#45;&gt;Node15</title>
<path fill="none" stroke="#191970" d="M1386.7118,-120.0902C1490.4882,-114.6102 1778.7012,-97.8189 1871,-76 1897.6266,-69.7056 1966.2502,-41.0148 2006.7622,-23.599"/>
<polygon fill="#191970" stroke="#191970" points="2008.3751,-26.7151 2016.1705,-19.54 2005.6021,-20.2878 2008.3751,-26.7151"/>
</g>
<!-- Node40&#45;&gt;Node16 -->
<g id="edge54" class="edge">
<title>Node40&#45;&gt;Node16</title>
<path fill="none" stroke="#191970" d="M1386.776,-120.1177C1495.9034,-114.4885 1810.2263,-96.8739 1911,-76 1938.1123,-70.3841 1943.376,-63.6014 1970,-56 2020.9507,-41.4531 2080.2672,-28.0759 2120.3938,-19.542"/>
<polygon fill="#191970" stroke="#191970" points="2121.3569,-22.9159 2130.4183,-17.4259 2119.911,-16.0668 2121.3569,-22.9159"/>
</g>
<!-- Node40&#45;&gt;Node50 -->
<g id="edge67" class="edge">
<title>Node40&#45;&gt;Node50</title>
<path fill="none" stroke="#191970" d="M1386.8344,-120.629C1501.709,-116.2293 1845.2365,-101.2595 1954,-76 1977.3136,-70.5856 1980.9589,-62.4766 2004,-56 2015.096,-52.881 2163.3498,-28.4351 2236.1794,-16.5053"/>
<polygon fill="#191970" stroke="#191970" points="2237.0489,-19.9096 2246.3521,-14.84 2235.918,-13.0015 2237.0489,-19.9096"/>
</g>
<!-- Node40&#45;&gt;Node57 -->
<g id="edge76" class="edge">
<title>Node40&#45;&gt;Node57</title>
<path fill="none" stroke="#191970" d="M1386.8918,-120.2783C1507.1239,-114.6637 1879.104,-96.0865 1998,-76 1999.4763,-75.7506 2000.9788,-75.4678 2002.4917,-75.1594"/>
<polygon fill="#191970" stroke="#191970" points="2003.5119,-78.5154 2012.4553,-72.835 2001.9216,-71.6985 2003.5119,-78.5154"/>
</g>
<!-- Node40&#45;&gt;Node48 -->
<g id="edge64" class="edge">
<title>Node40&#45;&gt;Node48</title>
<path fill="none" stroke="#191970" d="M1386.8795,-120.9657C1512.642,-117.3192 1916.3374,-103.8558 2065.4427,-75.7605"/>
<polygon fill="#191970" stroke="#191970" points="2066.1844,-79.1817 2075.311,-73.8006 2064.8207,-72.3158 2066.1844,-79.1817"/>
</g>
<!-- Node41 -->
<g id="node35" class="node">
<title>Node41</title>
<polygon fill="#ffffff" stroke="#bfbfbf" points="775.5,-56.5 775.5,-75.5 826.5,-75.5 826.5,-56.5 775.5,-56.5"/>
<text text-anchor="middle" x="801" y="-63.5" font-family="Helvetica,sans-Serif" font-size="10.00" fill="#000000">ciso646</text>
</g>
<!-- Node40&#45;&gt;Node41 -->
<g id="edge51" class="edge">
<title>Node40&#45;&gt;Node41</title>
<path fill="none" stroke="#191970" d="M1311.3367,-121.0534C1227.575,-118.4295 1019.5231,-109.0449 836.9162,-75.8361"/>
<polygon fill="#191970" stroke="#191970" points="837.3333,-72.354 826.8638,-73.9788 836.0614,-79.2375 837.3333,-72.354"/>
</g>
<!-- Node42 -->
<g id="node36" class="node">
<title>Node42</title>
<polygon fill="#ffffff" stroke="#bfbfbf" points="844.5,-56.5 844.5,-75.5 893.5,-75.5 893.5,-56.5 844.5,-56.5"/>
<text text-anchor="middle" x="869" y="-63.5" font-family="Helvetica,sans-Serif" font-size="10.00" fill="#000000">cstddef</text>
</g>
<!-- Node40&#45;&gt;Node42 -->
<g id="edge52" class="edge">
<title>Node40&#45;&gt;Node42</title>
<path fill="none" stroke="#191970" d="M1311.3592,-120.4471C1235.8014,-116.8313 1060.2604,-105.92 904.0146,-75.858"/>
<polygon fill="#191970" stroke="#191970" points="904.2381,-72.3355 893.7521,-73.8501 902.8939,-79.2052 904.2381,-72.3355"/>
</g>
<!-- Node18 -->
<g id="node37" class="node">
<title>Node18</title>
<polygon fill="#ffffff" stroke="#bfbfbf" points="911.5,-56.5 911.5,-75.5 970.5,-75.5 970.5,-56.5 911.5,-56.5"/>
<text text-anchor="middle" x="941" y="-63.5" font-family="Helvetica,sans-Serif" font-size="10.00" fill="#000000">functional</text>
</g>
<!-- Node40&#45;&gt;Node18 -->
<g id="edge53" class="edge">
<title>Node40&#45;&gt;Node18</title>
<path fill="none" stroke="#191970" d="M1311.3037,-118.894C1245.9581,-113.1655 1107.309,-99.4934 980.6004,-75.9"/>
<polygon fill="#191970" stroke="#191970" points="981.1988,-72.4512 970.7231,-74.0358 979.9005,-79.3298 981.1988,-72.4512"/>
</g>
<!-- Node43 -->
<g id="node38" class="node">
<title>Node43</title>
<polygon fill="#ffffff" stroke="#bfbfbf" points="988.5,-56.5 988.5,-75.5 1033.5,-75.5 1033.5,-56.5 988.5,-56.5"/>
<text text-anchor="middle" x="1011" y="-63.5" font-family="Helvetica,sans-Serif" font-size="10.00" fill="#000000">iosfwd</text>
</g>
<!-- Node40&#45;&gt;Node43 -->
<g id="edge55" class="edge">
<title>Node40&#45;&gt;Node43</title>
<path fill="none" stroke="#191970" d="M1311.4404,-118.2358C1255.1932,-112.1907 1145.6697,-98.8427 1043.4728,-75.7976"/>
<polygon fill="#191970" stroke="#191970" points="1044.1369,-72.3591 1033.6077,-73.5371 1042.5733,-79.1823 1044.1369,-72.3591"/>
</g>
<!-- Node44 -->
<g id="node39" class="node">
<title>Node44</title>
<polygon fill="#ffffff" stroke="#bfbfbf" points="1052,-56.5 1052,-75.5 1100,-75.5 1100,-56.5 1052,-56.5"/>
<text text-anchor="middle" x="1076" y="-63.5" font-family="Helvetica,sans-Serif" font-size="10.00" fill="#000000">iterator</text>
</g>
<!-- Node40&#45;&gt;Node44 -->
<g id="edge56" class="edge">
<title>Node40&#45;&gt;Node44</title>
<path fill="none" stroke="#191970" d="M1311.0897,-115.8597C1263.7518,-107.9277 1180.4223,-93.0916 1110,-76 1109.8991,-75.9755 1109.7981,-75.9509 1109.6969,-75.9262"/>
<polygon fill="#191970" stroke="#191970" points="1110.6306,-72.5529 1100.0689,-73.3892 1108.8469,-79.3218 1110.6306,-72.5529"/>
</g>
<!-- Node46 -->
<g id="node40" class="node">
<title>Node46</title>
<polygon fill="#ffffff" stroke="#bfbfbf" points="1118.5,-56.5 1118.5,-75.5 1157.5,-75.5 1157.5,-56.5 1118.5,-56.5"/>
<text text-anchor="middle" x="1138" y="-63.5" font-family="Helvetica,sans-Serif" font-size="10.00" fill="#000000">utility</text>
</g>
<!-- Node40&#45;&gt;Node46 -->
<g id="edge59" class="edge">
<title>Node40&#45;&gt;Node46</title>
<path fill="none" stroke="#191970" d="M1311.4513,-113.4889C1276.496,-105.3488 1222.7801,-92.2894 1167.2375,-75.8842"/>
<polygon fill="#191970" stroke="#191970" points="1168.166,-72.5088 1157.5828,-73.0037 1166.1647,-79.2167 1168.166,-72.5088"/>
</g>
<!-- Node47 -->
<g id="node41" class="node">
<title>Node47</title>
<polygon fill="#ffffff" stroke="#bfbfbf" points="1175.5,-56.5 1175.5,-75.5 1220.5,-75.5 1220.5,-56.5 1175.5,-56.5"/>
<text text-anchor="middle" x="1198" y="-63.5" font-family="Helvetica,sans-Serif" font-size="10.00" fill="#000000">cstdint</text>
</g>
<!-- Node40&#45;&gt;Node47 -->
<g id="edge60" class="edge">
<title>Node40&#45;&gt;Node47</title>
<path fill="none" stroke="#191970" d="M1323.0422,-112.3733C1297.3581,-102.848 1257.9788,-88.2438 1230.2892,-77.9748"/>
<polygon fill="#191970" stroke="#191970" points="1231.2567,-74.6007 1220.6637,-74.4051 1228.8226,-81.1639 1231.2567,-74.6007"/>
</g>
<!-- Node17 -->
<g id="node42" class="node">
<title>Node17</title>
<polygon fill="#ffffff" stroke="#bfbfbf" points="1238.5,-56.5 1238.5,-75.5 1301.5,-75.5 1301.5,-56.5 1238.5,-56.5"/>
<text text-anchor="middle" x="1270" y="-63.5" font-family="Helvetica,sans-Serif" font-size="10.00" fill="#000000">type_traits</text>
</g>
<!-- Node40&#45;&gt;Node17 -->
<g id="edge65" class="edge">
<title>Node40&#45;&gt;Node17</title>
<path fill="none" stroke="#191970" d="M1335.2393,-112.2455C1323.3448,-103.814 1305.935,-91.4729 1292.0915,-81.6598"/>
<polygon fill="#191970" stroke="#191970" points="1293.7854,-78.5704 1283.6031,-75.6427 1289.7372,-84.2811 1293.7854,-78.5704"/>
</g>
<!-- Node49 -->
<g id="node43" class="node">
<title>Node49</title>
<polygon fill="#ffffff" stroke="#bfbfbf" points="1319.5,-56.5 1319.5,-75.5 1378.5,-75.5 1378.5,-56.5 1319.5,-56.5"/>
<text text-anchor="middle" x="1349" y="-63.5" font-family="Helvetica,sans-Serif" font-size="10.00" fill="#000000">exception</text>
</g>
<!-- Node40&#45;&gt;Node49 -->
<g id="edge66" class="edge">
<title>Node40&#45;&gt;Node49</title>
<path fill="none" stroke="#191970" d="M1349,-112.2455C1349,-104.9382 1349,-94.6944 1349,-85.7046"/>
<polygon fill="#191970" stroke="#191970" points="1352.5001,-85.6426 1349,-75.6427 1345.5001,-85.6427 1352.5001,-85.6426"/>
</g>
<!-- Node51 -->
<g id="node44" class="node">
<title>Node51</title>
<polygon fill="#ffffff" stroke="#bfbfbf" points="1397,-56.5 1397,-75.5 1465,-75.5 1465,-56.5 1397,-56.5"/>
<text text-anchor="middle" x="1431" y="-63.5" font-family="Helvetica,sans-Serif" font-size="10.00" fill="#000000">forward_list</text>
</g>
<!-- Node40&#45;&gt;Node51 -->
<g id="edge69" class="edge">
<title>Node40&#45;&gt;Node51</title>
<path fill="none" stroke="#191970" d="M1363.2833,-112.2455C1375.747,-103.7337 1394.0451,-91.2375 1408.4792,-81.3801"/>
<polygon fill="#191970" stroke="#191970" points="1410.5962,-84.1726 1416.8804,-75.6427 1406.6485,-78.392 1410.5962,-84.1726"/>
</g>
<!-- Node52 -->
<g id="node45" class="node">
<title>Node52</title>
<polygon fill="#ffffff" stroke="#bfbfbf" points="1483,-56.5 1483,-75.5 1521,-75.5 1521,-56.5 1483,-56.5"/>
<text text-anchor="middle" x="1502" y="-63.5" font-family="Helvetica,sans-Serif" font-size="10.00" fill="#000000">tuple</text>
</g>
<!-- Node40&#45;&gt;Node52 -->
<g id="edge70" class="edge">
<title>Node40&#45;&gt;Node52</title>
<path fill="none" stroke="#191970" d="M1375.3016,-112.3733C1402.5434,-102.4024 1444.9906,-86.8662 1473.1405,-76.563"/>
<polygon fill="#191970" stroke="#191970" points="1474.6222,-79.7478 1482.81,-73.0238 1472.2162,-73.1742 1474.6222,-79.7478"/>
</g>
<!-- Node53 -->
<g id="node46" class="node">
<title>Node53</title>
<polygon fill="#ffffff" stroke="#bfbfbf" points="1539,-56.5 1539,-75.5 1591,-75.5 1591,-56.5 1539,-56.5"/>
<text text-anchor="middle" x="1565" y="-63.5" font-family="Helvetica,sans-Serif" font-size="10.00" fill="#000000">valarray</text>
</g>
<!-- Node40&#45;&gt;Node53 -->
<g id="edge71" class="edge">
<title>Node40&#45;&gt;Node53</title>
<path fill="none" stroke="#191970" d="M1386.5225,-112.8058C1421.1102,-104.2547 1474.1109,-90.9606 1528.7869,-76.2775"/>
<polygon fill="#191970" stroke="#191970" points="1529.9057,-79.6009 1538.6498,-73.6184 1528.0835,-72.8422 1529.9057,-79.6009"/>
</g>
<!-- Node54 -->
<g id="node47" class="node">
<title>Node54</title>
<polygon fill="#ffffff" stroke="#bfbfbf" points="1609.5,-56.5 1609.5,-75.5 1638.5,-75.5 1638.5,-56.5 1609.5,-56.5"/>
<text text-anchor="middle" x="1624" y="-63.5" font-family="Helvetica,sans-Serif" font-size="10.00" fill="#000000">ios</text>
</g>
<!-- Node40&#45;&gt;Node54 -->
<g id="edge73" class="edge">
<title>Node40&#45;&gt;Node54</title>
<path fill="none" stroke="#191970" d="M1386.5831,-117.6589C1436.1815,-111.3553 1525.8773,-97.9597 1600,-76 1600.0974,-75.9712 1600.1949,-75.942 1600.2926,-75.9127"/>
<polygon fill="#191970" stroke="#191970" points="1601.2157,-79.2995 1609.4568,-72.6411 1598.8622,-72.707 1601.2157,-79.2995"/>
</g>
<!-- Node55 -->
<g id="node48" class="node">
<title>Node55</title>
<polygon fill="#ffffff" stroke="#bfbfbf" points="1656.5,-56.5 1656.5,-75.5 1705.5,-75.5 1705.5,-56.5 1656.5,-56.5"/>
<text text-anchor="middle" x="1681" y="-63.5" font-family="Helvetica,sans-Serif" font-size="10.00" fill="#000000">istream</text>
</g>
<!-- Node40&#45;&gt;Node55 -->
<g id="edge74" class="edge">
<title>Node40&#45;&gt;Node55</title>
<path fill="none" stroke="#191970" d="M1386.6115,-117.9469C1441.7657,-111.6268 1547.9188,-98.0359 1646.4217,-76.1315"/>
<polygon fill="#191970" stroke="#191970" points="1647.2511,-79.5324 1656.2345,-73.9156 1645.7091,-72.7044 1647.2511,-79.5324"/>
</g>
<!-- Node56 -->
<g id="node49" class="node">
<title>Node56</title>
<polygon fill="#ffffff" stroke="#bfbfbf" points="1724,-56.5 1724,-75.5 1772,-75.5 1772,-56.5 1724,-56.5"/>
<text text-anchor="middle" x="1748" y="-63.5" font-family="Helvetica,sans-Serif" font-size="10.00" fill="#000000">clocale</text>
</g>
<!-- Node40&#45;&gt;Node56 -->
<g id="edge75" class="edge">
<title>Node40&#45;&gt;Node56</title>
<path fill="none" stroke="#191970" d="M1386.7592,-119.3726C1451.7784,-114.392 1589.1195,-101.8717 1713.8665,-75.9317"/>
<polygon fill="#191970" stroke="#191970" points="1714.9126,-79.288 1723.972,-73.7946 1713.4642,-72.4394 1714.9126,-79.288"/>
</g>
<!-- Node58 -->
<g id="node50" class="node">
<title>Node58</title>
<polygon fill="#ffffff" stroke="#bfbfbf" points="1790,-56.5 1790,-75.5 1842,-75.5 1842,-56.5 1790,-56.5"/>
<text text-anchor="middle" x="1816" y="-63.5" font-family="Helvetica,sans-Serif" font-size="10.00" fill="#000000">iomanip</text>
</g>
<!-- Node40&#45;&gt;Node58 -->
<g id="edge77" class="edge">
<title>Node40&#45;&gt;Node58</title>
<path fill="none" stroke="#191970" d="M1386.5941,-120.1787C1460.3751,-116.136 1629.3503,-104.5687 1779.8587,-75.9372"/>
<polygon fill="#191970" stroke="#191970" points="1780.5904,-79.3606 1789.7445,-74.0265 1779.262,-72.4878 1780.5904,-79.3606"/>
</g>
</g>
</svg>
