<?xml version="1.0" encoding="UTF-8" standalone="no"?>
<!DOCTYPE svg PUBLIC "-//W3C//DTD SVG 1.1//EN"
 "http://www.w3.org/Graphics/SVG/1.1/DTD/svg11.dtd">
<!-- Generated by graphviz version 2.40.1 (20161225.0304)
 -->
<!-- Title: sirius::Non_local_operator&lt; T &gt; Pages: 1 -->
<svg width="325pt" height="84pt"
 viewBox="0.00 0.00 324.50 84.00" xmlns="http://www.w3.org/2000/svg" xmlns:xlink="http://www.w3.org/1999/xlink">
<g id="graph0" class="graph" transform="scale(1 1) rotate(0) translate(4 80)">
<title>sirius::Non_local_operator&lt; T &gt;</title>
<polygon fill="#ffffff" stroke="transparent" points="-4,4 -4,-80 320.5,-80 320.5,4 -4,4"/>
<!-- Node0 -->
<g id="node1" class="node">
<title>Node0</title>
<polygon fill="#bfbfbf" stroke="#000000" points="97,-56.5 97,-75.5 218,-75.5 218,-56.5 97,-56.5"/>
<text text-anchor="middle" x="157.5" y="-63.5" font-family="Helvetica,sans-Serif" font-size="10.00" fill="#000000">sirius::Non_local_operator&lt; T &gt;</text>
</g>
<!-- Node1 -->
<g id="node2" class="node">
<title>Node1</title>
<g id="a_node2"><a xlink:href="../../d4/dcb/classsirius_1_1_d__operator.html" target="_top" xlink:title="sirius::D_operator\&lt; T \&gt;">
<polygon fill="#ffffff" stroke="#000000" points="0,-.5 0,-19.5 93,-19.5 93,-.5 0,-.5"/>
<text text-anchor="middle" x="46.5" y="-7.5" font-family="Helvetica,sans-Serif" font-size="10.00" fill="#000000">sirius::D_operator&lt; T &gt;</text>
</a>
</g>
</g>
<!-- Node0&#45;&gt;Node1 -->
<g id="edge1" class="edge">
<title>Node0&#45;&gt;Node1</title>
<path fill="none" stroke="#191970" d="M129.4266,-51.8368C109.3615,-41.7139 82.9078,-28.3679 65.3326,-19.5011"/>
<polygon fill="#191970" stroke="#191970" points="127.9138,-54.9938 138.4184,-56.3733 131.0668,-48.7441 127.9138,-54.9938"/>
</g>
<!-- Node2 -->
<g id="node3" class="node">
<title>Node2</title>
<g id="a_node3"><a xlink:href="../../d1/dde/classsirius_1_1_p__operator.html" target="_top" xlink:title="sirius::P_operator\&lt; T \&gt;">
<polygon fill="#ffffff" stroke="#000000" points="111,-.5 111,-19.5 204,-19.5 204,-.5 111,-.5"/>
<text text-anchor="middle" x="157.5" y="-7.5" font-family="Helvetica,sans-Serif" font-size="10.00" fill="#000000">sirius::P_operator&lt; T &gt;</text>
</a>
</g>
</g>
<!-- Node0&#45;&gt;Node2 -->
<g id="edge2" class="edge">
<title>Node0&#45;&gt;Node2</title>
<path fill="none" stroke="#191970" d="M157.5,-46.1575C157.5,-37.155 157.5,-26.9199 157.5,-19.6427"/>
<polygon fill="#191970" stroke="#191970" points="154.0001,-46.2455 157.5,-56.2455 161.0001,-46.2456 154.0001,-46.2455"/>
</g>
<!-- Node3 -->
<g id="node4" class="node">
<title>Node3</title>
<g id="a_node4"><a xlink:href="../../d4/d66/classsirius_1_1_q__operator.html" target="_top" xlink:title="sirius::Q_operator\&lt; T \&gt;">
<polygon fill="#ffffff" stroke="#000000" points="222.5,-.5 222.5,-19.5 316.5,-19.5 316.5,-.5 222.5,-.5"/>
<text text-anchor="middle" x="269.5" y="-7.5" font-family="Helvetica,sans-Serif" font-size="10.00" fill="#000000">sirius::Q_operator&lt; T &gt;</text>
</a>
</g>
</g>
<!-- Node0&#45;&gt;Node3 -->
<g id="edge3" class="edge">
<title>Node0&#45;&gt;Node3</title>
<path fill="none" stroke="#191970" d="M185.8263,-51.8368C206.0721,-41.7139 232.7642,-28.3679 250.4978,-19.5011"/>
<polygon fill="#191970" stroke="#191970" points="184.1325,-48.7706 176.7535,-56.3733 187.263,-55.0316 184.1325,-48.7706"/>
</g>
</g>
</svg>
