<?xml version="1.0" encoding="UTF-8" standalone="no"?>
<!DOCTYPE svg PUBLIC "-//W3C//DTD SVG 1.1//EN"
 "http://www.w3.org/Graphics/SVG/1.1/DTD/svg11.dtd">
<!-- Generated by graphviz version 2.40.1 (20161225.0304)
 -->
<!-- Title: initialize.hpp Pages: 1 -->
<!--zoomable 532 -->
<svg id="main" version="1.1" xmlns="http://www.w3.org/2000/svg" xmlns:xlink="http://www.w3.org/1999/xlink" xml:space="preserve" onload="init(evt)">
<style type="text/css"><![CDATA[
.edge:hover path { stroke: red; }
.edge:hover polygon { stroke: red; fill: red; }
]]></style>
<script type="text/javascript"><![CDATA[
var edges = document.getElementsByTagName('g');
if (edges && edges.length) {
  for (var i=0;i<edges.length;i++) {
    if (edges[i].id.substr(0,4)=='edge') {
      edges[i].setAttribute('class','edge');
    }
  }
}
]]></script>
        <defs>
                <circle id="rim" cx="0" cy="0" r="7"/>
                <circle id="rim2" cx="0" cy="0" r="3.5"/>
                <g id="zoomPlus">
                        <use xlink:href="#rim" fill="#404040">
                                <set attributeName="fill" to="#808080" begin="zoomplus.mouseover" end="zoomplus.mouseout"/>
                        </use>
                        <path d="M-4,0h8M0,-4v8" fill="none" stroke="white" stroke-width="1.5" pointer-events="none"/>
                </g>
                <g id="zoomMin">
                        <use xlink:href="#rim" fill="#404040">
                                <set attributeName="fill" to="#808080" begin="zoomminus.mouseover" end="zoomminus.mouseout"/>
                        </use>
                        <path d="M-4,0h8" fill="none" stroke="white" stroke-width="1.5" pointer-events="none"/>
                </g>
                <g id="dirArrow">
                        <path fill="none" stroke="white" stroke-width="1.5" d="M0,-3.0v7 M-2.5,-0.5L0,-3.0L2.5,-0.5"/>
                </g>
               <g id="resetDef">
                       <use xlink:href="#rim2" fill="#404040">
                               <set attributeName="fill" to="#808080" begin="reset.mouseover" end="reset.mouseout"/>
                       </use>
               </g>
        </defs>

<script type="text/javascript">
var viewWidth = 375;
var viewHeight = 532;
var sectionId = 'dynsection-0';
</script>
<script xlink:href="../../svgpan.js"/>
<svg id="graph" class="graph">
<g id="viewport">
<title>initialize.hpp</title>
<polygon fill="#ffffff" stroke="transparent" points="-4,4 -4,-528 371.0289,-528 371.0289,4 -4,4"/>
<!-- Node1 -->
<g id="node1" class="node">
<title>Node1</title>
<polygon fill="#bfbfbf" stroke="#000000" points="172,-504.5 172,-523.5 244,-523.5 244,-504.5 172,-504.5"/>
<text text-anchor="middle" x="208" y="-511.5" font-family="Helvetica,sans-Serif" font-size="10.00" fill="#000000">initialize.hpp</text>
</g>
<!-- Node2 -->
<g id="node2" class="node">
<title>Node2</title>
<g id="a_node2"><a xlink:href="../../d3/d9a/k__point_8hpp.html" target="_top" xlink:title="Contains definition and partial implementation of sirius::K_point class. ">
<polygon fill="#ffffff" stroke="#000000" points="174,-448.5 174,-467.5 242,-467.5 242,-448.5 174,-448.5"/>
<text text-anchor="middle" x="208" y="-455.5" font-family="Helvetica,sans-Serif" font-size="10.00" fill="#000000">k_point.hpp</text>
</a>
</g>
</g>
<!-- Node1&#45;&gt;Node2 -->
<g id="edge1" class="edge">
<title>Node1&#45;&gt;Node2</title>
<path fill="none" stroke="#191970" d="M208,-494.1575C208,-485.155 208,-474.9199 208,-467.6427"/>
<polygon fill="#191970" stroke="#191970" points="204.5001,-494.2455 208,-504.2455 211.5001,-494.2456 204.5001,-494.2455"/>
</g>
<!-- Node3 -->
<g id="node3" class="node">
<title>Node3</title>
<g id="a_node3"><a xlink:href="../../d3/de4/k__point__set_8hpp.html" target="_top" xlink:title="Contains declaration and partial implementation of sirius::K_point_set class. ">
<polygon fill="#ffffff" stroke="#000000" points="164.5,-392.5 164.5,-411.5 251.5,-411.5 251.5,-392.5 164.5,-392.5"/>
<text text-anchor="middle" x="208" y="-399.5" font-family="Helvetica,sans-Serif" font-size="10.00" fill="#000000">k_point_set.hpp</text>
</a>
</g>
</g>
<!-- Node2&#45;&gt;Node3 -->
<g id="edge2" class="edge">
<title>Node2&#45;&gt;Node3</title>
<path fill="none" stroke="#191970" d="M208,-438.1575C208,-429.155 208,-418.9199 208,-411.6427"/>
<polygon fill="#191970" stroke="#191970" points="204.5001,-438.2455 208,-448.2455 211.5001,-438.2456 204.5001,-438.2455"/>
</g>
<!-- Node9 -->
<g id="node9" class="node">
<title>Node9</title>
<g id="a_node9"><a xlink:href="../../de/dec/hamiltonian_8hpp.html" target="_top" xlink:title="Contains declaration and definition of sirius::Hamiltonian class. ">
<polygon fill="#ffffff" stroke="#000000" points="116.5,-168.5 116.5,-187.5 203.5,-187.5 203.5,-168.5 116.5,-168.5"/>
<text text-anchor="middle" x="160" y="-175.5" font-family="Helvetica,sans-Serif" font-size="10.00" fill="#000000">hamiltonian.hpp</text>
</a>
</g>
</g>
<!-- Node2&#45;&gt;Node9 -->
<g id="edge18" class="edge">
<title>Node2&#45;&gt;Node9</title>
<path fill="none" stroke="#191970" d="M163.4905,-453.7111C102.3862,-445.0938 0,-419.6639 0,-346 0,-346 0,-346 0,-290 0,-231.8493 71.8073,-201.3464 119.2113,-187.5453"/>
<polygon fill="#191970" stroke="#191970" points="163.2828,-457.2138 173.653,-455.044 164.1931,-450.2732 163.2828,-457.2138"/>
</g>
<!-- Node12 -->
<g id="node12" class="node">
<title>Node12</title>
<g id="a_node12"><a xlink:href="../../db/d74/hubbard_8hpp.html" target="_top" xlink:title="Contains declaration and partial implementation of sirius::Hubbard class. ">
<polygon fill="#ffffff" stroke="#000000" points="269.5,-392.5 269.5,-411.5 342.5,-411.5 342.5,-392.5 269.5,-392.5"/>
<text text-anchor="middle" x="306" y="-399.5" font-family="Helvetica,sans-Serif" font-size="10.00" fill="#000000">hubbard.hpp</text>
</a>
</g>
</g>
<!-- Node2&#45;&gt;Node12 -->
<g id="edge15" class="edge">
<title>Node2&#45;&gt;Node12</title>
<path fill="none" stroke="#191970" d="M234.1686,-443.0465C251.6058,-433.0824 274.0111,-420.2794 289.1253,-411.6427"/>
<polygon fill="#191970" stroke="#191970" points="232.0162,-440.2453 225.0703,-448.2455 235.4892,-446.323 232.0162,-440.2453"/>
</g>
<!-- Node4 -->
<g id="node4" class="node">
<title>Node4</title>
<g id="a_node4"><a xlink:href="../../da/d3d/band_8hpp.html" target="_top" xlink:title="Contains declaration and partial implementation of sirius::Band class. ">
<polygon fill="#ffffff" stroke="#000000" points="167,-112.5 167,-131.5 225,-131.5 225,-112.5 167,-112.5"/>
<text text-anchor="middle" x="196" y="-119.5" font-family="Helvetica,sans-Serif" font-size="10.00" fill="#000000">band.hpp</text>
</a>
</g>
</g>
<!-- Node3&#45;&gt;Node4 -->
<g id="edge3" class="edge">
<title>Node3&#45;&gt;Node4</title>
<path fill="none" stroke="#191970" d="M211.0399,-382.1404C216.6838,-341.5353 226.9953,-246.2426 213,-168 210.6614,-154.9256 204.8602,-140.7041 200.6849,-131.5885"/>
<polygon fill="#191970" stroke="#191970" points="207.5696,-381.6841 209.596,-392.0834 214.4969,-382.6902 207.5696,-381.6841"/>
</g>
<!-- Node7 -->
<g id="node7" class="node">
<title>Node7</title>
<g id="a_node7"><a xlink:href="../../d0/d9a/density_8hpp.html" target="_top" xlink:title="Contains definition and partial implementation of sirius::Density class. ">
<polygon fill="#ffffff" stroke="#000000" points="109,-336.5 109,-355.5 177,-355.5 177,-336.5 109,-336.5"/>
<text text-anchor="middle" x="143" y="-343.5" font-family="Helvetica,sans-Serif" font-size="10.00" fill="#000000">density.hpp</text>
</a>
</g>
</g>
<!-- Node3&#45;&gt;Node7 -->
<g id="edge6" class="edge">
<title>Node3&#45;&gt;Node7</title>
<path fill="none" stroke="#191970" d="M189.0165,-385.645C177.7121,-375.9058 163.753,-363.8795 154.1924,-355.6427"/>
<polygon fill="#191970" stroke="#191970" points="186.8173,-388.3701 196.6779,-392.2455 191.3862,-383.0668 186.8173,-388.3701"/>
</g>
<!-- Node11 -->
<g id="node11" class="node">
<title>Node11</title>
<g id="a_node11"><a xlink:href="../../df/dc4/dft__ground__state_8hpp.html" target="_top" xlink:title="Contains definition and partial implementation of sirius::DFT_ground_state class. ...">
<polygon fill="#ffffff" stroke="#000000" points="243.5,-336.5 243.5,-355.5 354.5,-355.5 354.5,-336.5 243.5,-336.5"/>
<text text-anchor="middle" x="299" y="-343.5" font-family="Helvetica,sans-Serif" font-size="10.00" fill="#000000">dft_ground_state.hpp</text>
</a>
</g>
</g>
<!-- Node3&#45;&gt;Node11 -->
<g id="edge13" class="edge">
<title>Node3&#45;&gt;Node11</title>
<path fill="none" stroke="#191970" d="M232.7504,-386.769C248.8758,-376.8456 269.426,-364.1994 283.3307,-355.6427"/>
<polygon fill="#191970" stroke="#191970" points="230.5332,-384.0237 223.851,-392.2455 234.2019,-389.9853 230.5332,-384.0237"/>
</g>
<!-- Node5 -->
<g id="node5" class="node">
<title>Node5</title>
<g id="a_node5"><a xlink:href="../../dd/dc2/sirius_8h.html" target="_top" xlink:title="&quot;All&#45;in&#45;one&quot; include file. ">
<polygon fill="#ffffff" stroke="#000000" points="172,-56.5 172,-75.5 220,-75.5 220,-56.5 172,-56.5"/>
<text text-anchor="middle" x="196" y="-63.5" font-family="Helvetica,sans-Serif" font-size="10.00" fill="#000000">sirius.h</text>
</a>
</g>
</g>
<!-- Node4&#45;&gt;Node5 -->
<g id="edge4" class="edge">
<title>Node4&#45;&gt;Node5</title>
<path fill="none" stroke="#191970" d="M196,-102.1575C196,-93.155 196,-82.9199 196,-75.6427"/>
<polygon fill="#191970" stroke="#191970" points="192.5001,-102.2455 196,-112.2455 199.5001,-102.2456 192.5001,-102.2455"/>
</g>
<!-- Node6 -->
<g id="node6" class="node">
<title>Node6</title>
<g id="a_node6"><a xlink:href="../../d4/d53/sirius__api_8cpp.html" target="_top" xlink:title="Fortran API. ">
<polygon fill="#ffffff" stroke="#000000" points="157,-.5 157,-19.5 235,-19.5 235,-.5 157,-.5"/>
<text text-anchor="middle" x="196" y="-7.5" font-family="Helvetica,sans-Serif" font-size="10.00" fill="#000000">sirius_api.cpp</text>
</a>
</g>
</g>
<!-- Node5&#45;&gt;Node6 -->
<g id="edge5" class="edge">
<title>Node5&#45;&gt;Node6</title>
<path fill="none" stroke="#191970" d="M196,-46.1575C196,-37.155 196,-26.9199 196,-19.6427"/>
<polygon fill="#191970" stroke="#191970" points="192.5001,-46.2455 196,-56.2455 199.5001,-46.2456 192.5001,-46.2455"/>
</g>
<!-- Node8 -->
<g id="node8" class="node">
<title>Node8</title>
<g id="a_node8"><a xlink:href="../../de/df2/potential_8hpp.html" target="_top" xlink:title="Contains declaration and partial implementation of sirius::Potential class. ">
<polygon fill="#ffffff" stroke="#000000" points="88,-280.5 88,-299.5 162,-299.5 162,-280.5 88,-280.5"/>
<text text-anchor="middle" x="125" y="-287.5" font-family="Helvetica,sans-Serif" font-size="10.00" fill="#000000">potential.hpp</text>
</a>
</g>
</g>
<!-- Node7&#45;&gt;Node8 -->
<g id="edge7" class="edge">
<title>Node7&#45;&gt;Node8</title>
<path fill="none" stroke="#191970" d="M136.7173,-326.4538C133.8008,-317.3803 130.4642,-306.9998 128.0994,-299.6427"/>
<polygon fill="#191970" stroke="#191970" points="133.4724,-327.7963 139.8646,-336.2455 140.1366,-325.6542 133.4724,-327.7963"/>
</g>
<!-- Node8&#45;&gt;Node5 -->
<g id="edge12" class="edge">
<title>Node8&#45;&gt;Node5</title>
<path fill="none" stroke="#191970" d="M91.2272,-275.7938C78.0636,-268.3834 64.3846,-257.9111 57,-244 52.8322,-236.1488 53.8624,-232.3167 57,-224 82.7922,-155.634 153.1229,-97.6543 182.6585,-75.5596"/>
<polygon fill="#191970" stroke="#191970" points="89.6866,-278.9375 100.1745,-280.4395 92.9124,-272.725 89.6866,-278.9375"/>
</g>
<!-- Node8&#45;&gt;Node9 -->
<g id="edge8" class="edge">
<title>Node8&#45;&gt;Node9</title>
<path fill="none" stroke="#191970" d="M149.4924,-274.2969C159.3661,-266.5062 169.6677,-256.1513 175,-244 183.3103,-225.0622 173.1041,-200.9686 165.9137,-187.7594"/>
<polygon fill="#191970" stroke="#191970" points="147.41,-271.4838 141.4177,-280.2212 151.5509,-277.1277 147.41,-271.4838"/>
</g>
<!-- Node10 -->
<g id="node10" class="node">
<title>Node10</title>
<g id="a_node10"><a xlink:href="../../d3/d2c/local__operator_8hpp.html" target="_top" xlink:title="Contains declaration and implementation of sirius::Local_operator class. ">
<polygon fill="#ffffff" stroke="#000000" points="66.5,-224.5 66.5,-243.5 165.5,-243.5 165.5,-224.5 66.5,-224.5"/>
<text text-anchor="middle" x="116" y="-231.5" font-family="Helvetica,sans-Serif" font-size="10.00" fill="#000000">local_operator.hpp</text>
</a>
</g>
</g>
<!-- Node8&#45;&gt;Node10 -->
<g id="edge10" class="edge">
<title>Node8&#45;&gt;Node10</title>
<path fill="none" stroke="#191970" d="M121.811,-270.1575C120.3642,-261.155 118.7193,-250.9199 117.5497,-243.6427"/>
<polygon fill="#191970" stroke="#191970" points="118.3898,-270.9276 123.4323,-280.2455 125.3011,-269.8168 118.3898,-270.9276"/>
</g>
<!-- Node9&#45;&gt;Node4 -->
<g id="edge9" class="edge">
<title>Node9&#45;&gt;Node4</title>
<path fill="none" stroke="#191970" d="M171.8096,-159.6296C177.8144,-150.2887 184.8659,-139.3197 189.8011,-131.6427"/>
<polygon fill="#191970" stroke="#191970" points="168.7342,-157.9411 166.2707,-168.2455 174.6225,-161.7264 168.7342,-157.9411"/>
</g>
<!-- Node10&#45;&gt;Node9 -->
<g id="edge11" class="edge">
<title>Node10&#45;&gt;Node9</title>
<path fill="none" stroke="#191970" d="M129.9769,-216.2112C137.4129,-206.7472 146.266,-195.4797 152.4236,-187.6427"/>
<polygon fill="#191970" stroke="#191970" points="127.0903,-214.22 123.6642,-224.2455 132.5946,-218.5447 127.0903,-214.22"/>
</g>
<!-- Node11&#45;&gt;Node5 -->
<g id="edge14" class="edge">
<title>Node11&#45;&gt;Node5</title>
<path fill="none" stroke="#191970" d="M297.2984,-326.2124C295.5245,-303.8453 293,-266.3347 293,-234 293,-234 293,-234 293,-178 293,-129.8977 241.2423,-92.3084 213.3417,-75.5399"/>
<polygon fill="#191970" stroke="#191970" points="293.8302,-326.7424 298.1403,-336.4209 300.8065,-326.167 293.8302,-326.7424"/>
</g>
<!-- Node12&#45;&gt;Node9 -->
<g id="edge17" class="edge">
<title>Node12&#45;&gt;Node9</title>
<path fill="none" stroke="#191970" d="M334.1353,-387.1313C353.4072,-374.793 373.8424,-356.0723 364,-336 325.738,-257.9697 228.3138,-207.4679 183.3682,-187.5829"/>
<polygon fill="#191970" stroke="#191970" points="332.2456,-384.1834 325.4754,-392.333 335.8501,-390.1841 332.2456,-384.1834"/>
</g>
<!-- Node12&#45;&gt;Node11 -->
<g id="edge16" class="edge">
<title>Node12&#45;&gt;Node11</title>
<path fill="none" stroke="#191970" d="M303.5197,-382.1575C302.3944,-373.155 301.115,-362.9199 300.2053,-355.6427"/>
<polygon fill="#191970" stroke="#191970" points="300.0673,-382.7569 304.7807,-392.2455 307.0132,-381.8886 300.0673,-382.7569"/>
</g>
</g>
</svg>
        <g id="navigator" transform="translate(0 0)" fill="#404254">
                <rect fill="#f2f5e9" fill-opacity="0.5" stroke="#606060" stroke-width=".5" x="0" y="0" width="60" height="60"/>
                <use id="zoomplus" xlink:href="#zoomPlus" x="17" y="9" onmousedown="handleZoom(evt,'in')"/>
                <use id="zoomminus" xlink:href="#zoomMin" x="42" y="9" onmousedown="handleZoom(evt,'out')"/>
                <use id="reset" xlink:href="#resetDef" x="30" y="36" onmousedown="handleReset()"/>
                <g id="arrowUp" xlink:href="#dirArrow" transform="translate(30 24)" onmousedown="handlePan(0,-1)">
                  <use xlink:href="#rim" fill="#404040">
                        <set attributeName="fill" to="#808080" begin="arrowUp.mouseover" end="arrowUp.mouseout"/>
                  </use>
                  <path fill="none" stroke="white" stroke-width="1.5" d="M0,-3.0v7 M-2.5,-0.5L0,-3.0L2.5,-0.5"/>
                </g>
                <g id="arrowRight" xlink:href="#dirArrow" transform="rotate(90) translate(36 -43)" onmousedown="handlePan(1,0)">
                  <use xlink:href="#rim" fill="#404040">
                        <set attributeName="fill" to="#808080" begin="arrowRight.mouseover" end="arrowRight.mouseout"/>
                  </use>
                  <path fill="none" stroke="white" stroke-width="1.5" d="M0,-3.0v7 M-2.5,-0.5L0,-3.0L2.5,-0.5"/>
                </g>
                <g id="arrowDown" xlink:href="#dirArrow" transform="rotate(180) translate(-30 -48)" onmousedown="handlePan(0,1)">
                  <use xlink:href="#rim" fill="#404040">
                        <set attributeName="fill" to="#808080" begin="arrowDown.mouseover" end="arrowDown.mouseout"/>
                  </use>
                  <path fill="none" stroke="white" stroke-width="1.5" d="M0,-3.0v7 M-2.5,-0.5L0,-3.0L2.5,-0.5"/>
                </g>
                <g id="arrowLeft" xlink:href="#dirArrow" transform="rotate(270) translate(-36 17)" onmousedown="handlePan(-1,0)">
                  <use xlink:href="#rim" fill="#404040">
                        <set attributeName="fill" to="#808080" begin="arrowLeft.mouseover" end="arrowLeft.mouseout"/>
                  </use>
                  <path fill="none" stroke="white" stroke-width="1.5" d="M0,-3.0v7 M-2.5,-0.5L0,-3.0L2.5,-0.5"/>
                </g>
        </g>
        <svg viewBox="0 0 15 15" width="100%" height="30px" preserveAspectRatio="xMaxYMin meet">
         <g id="arrow_out" transform="scale(0.3 0.3)">
          <a xlink:href="initialize_8hpp__dep__incl_org.svg" target="_base">
           <rect id="button" ry="5" rx="5" y="6" x="6" height="38" width="38"
                fill="#f2f5e9" fill-opacity="0.5" stroke="#606060" stroke-width="1.0"/>
           <path id="arrow"
             d="M 11.500037,31.436501 C 11.940474,20.09759 22.043105,11.32322 32.158766,21.979434 L 37.068811,17.246167 C 37.068811,17.246167 37.088388,32 37.088388,32 L 22.160133,31.978069 C 22.160133,31.978069 26.997745,27.140456 26.997745,27.140456 C 18.528582,18.264221 13.291696,25.230495 11.500037,31.436501 z"
             style="fill:#404040;"/>
          </a>
         </g>
        </svg>
</svg>
