<?xml version="1.0" encoding="UTF-8" standalone="no"?>
<!DOCTYPE svg PUBLIC "-//W3C//DTD SVG 1.1//EN"
 "http://www.w3.org/Graphics/SVG/1.1/DTD/svg11.dtd">
<!-- Generated by graphviz version 2.40.1 (20161225.0304)
 -->
<!-- Title: gvec.cpp Pages: 1 -->
<svg width="1957pt" height="252pt"
 viewBox="0.00 0.00 1956.50 252.00" xmlns="http://www.w3.org/2000/svg" xmlns:xlink="http://www.w3.org/1999/xlink">
<g id="graph0" class="graph" transform="scale(1 1) rotate(0) translate(4 248)">
<title>gvec.cpp</title>
<polygon fill="#ffffff" stroke="transparent" points="-4,4 -4,-248 1952.5,-248 1952.5,4 -4,4"/>
<!-- Node1 -->
<g id="node1" class="node">
<title>Node1</title>
<g id="a_node1"><a xlink:title="Contains the implementation of Gvec class.">
<polygon fill="#bfbfbf" stroke="#000000" points="897.5,-224.5 897.5,-243.5 954.5,-243.5 954.5,-224.5 897.5,-224.5"/>
<text text-anchor="middle" x="926" y="-231.5" font-family="Helvetica,sans-Serif" font-size="10.00" fill="#000000">gvec.cpp</text>
</a>
</g>
</g>
<!-- Node2 -->
<g id="node2" class="node">
<title>Node2</title>
<g id="a_node2"><a xlink:href="../../d9/d71/lattice_8hpp.html" target="_top" xlink:title="Crystal lattice functions.">
<polygon fill="#ffffff" stroke="#000000" points="762,-168.5 762,-187.5 870,-187.5 870,-168.5 762,-168.5"/>
<text text-anchor="middle" x="816" y="-175.5" font-family="Helvetica,sans-Serif" font-size="10.00" fill="#000000">symmetry/lattice.hpp</text>
</a>
</g>
</g>
<!-- Node1&#45;&gt;Node2 -->
<g id="edge1" class="edge">
<title>Node1&#45;&gt;Node2</title>
<path fill="none" stroke="#191970" d="M906.8395,-224.2455C889.4889,-215.4125 863.7099,-202.2887 844.0417,-192.2758"/>
<polygon fill="#191970" stroke="#191970" points="845.4405,-189.0605 834.941,-187.6427 842.2647,-195.2986 845.4405,-189.0605"/>
</g>
<!-- Node15 -->
<g id="node15" class="node">
<title>Node15</title>
<g id="a_node15"><a xlink:href="../../d6/dd8/gvec_8hpp.html" target="_top" xlink:title="Declaration and implementation of Gvec class.">
<polygon fill="#ffffff" stroke="#000000" points="1038.5,-168.5 1038.5,-187.5 1095.5,-187.5 1095.5,-168.5 1038.5,-168.5"/>
<text text-anchor="middle" x="1067" y="-175.5" font-family="Helvetica,sans-Serif" font-size="10.00" fill="#000000">gvec.hpp</text>
</a>
</g>
</g>
<!-- Node1&#45;&gt;Node15 -->
<g id="edge17" class="edge">
<title>Node1&#45;&gt;Node15</title>
<path fill="none" stroke="#191970" d="M950.2388,-224.3733C973.2789,-215.2226 1008.1214,-201.3844 1033.7501,-191.2057"/>
<polygon fill="#191970" stroke="#191970" points="1035.0756,-194.4452 1043.0775,-187.5011 1032.4918,-187.9395 1035.0756,-194.4452"/>
</g>
<!-- Node3 -->
<g id="node3" class="node">
<title>Node3</title>
<g id="a_node3"><a xlink:href="../../d6/d99/geometry3d_8hpp.html" target="_top" xlink:title="Simple classes and functions to work with the 3D vectors and matrices of the crystal lattice.">
<polygon fill="#ffffff" stroke="#000000" points="644.5,-112.5 644.5,-131.5 733.5,-131.5 733.5,-112.5 644.5,-112.5"/>
<text text-anchor="middle" x="689" y="-119.5" font-family="Helvetica,sans-Serif" font-size="10.00" fill="#000000">geometry3d.hpp</text>
</a>
</g>
</g>
<!-- Node2&#45;&gt;Node3 -->
<g id="edge2" class="edge">
<title>Node2&#45;&gt;Node3</title>
<path fill="none" stroke="#191970" d="M794.1679,-168.3733C773.6897,-159.3435 742.8601,-145.7494 719.8681,-135.6111"/>
<polygon fill="#191970" stroke="#191970" points="721.1093,-132.3333 710.5472,-131.5011 718.285,-138.7383 721.1093,-132.3333"/>
</g>
<!-- Node13 -->
<g id="node13" class="node">
<title>Node13</title>
<g id="a_node13"><a xlink:href="../../dc/d72/rte_8hpp_source.html" target="_top" xlink:title=" ">
<polygon fill="#ffffff" stroke="#000000" points="782,-112.5 782,-131.5 850,-131.5 850,-112.5 782,-112.5"/>
<text text-anchor="middle" x="816" y="-119.5" font-family="Helvetica,sans-Serif" font-size="10.00" fill="#000000">utils/rte.hpp</text>
</a>
</g>
</g>
<!-- Node2&#45;&gt;Node13 -->
<g id="edge12" class="edge">
<title>Node2&#45;&gt;Node13</title>
<path fill="none" stroke="#191970" d="M816,-168.2455C816,-160.9382 816,-150.6944 816,-141.7046"/>
<polygon fill="#191970" stroke="#191970" points="819.5001,-141.6426 816,-131.6427 812.5001,-141.6427 819.5001,-141.6426"/>
</g>
<!-- Node4 -->
<g id="node4" class="node">
<title>Node4</title>
<g id="a_node4"><a xlink:title=" ">
<polygon fill="#ffffff" stroke="#bfbfbf" points="0,-.5 0,-19.5 52,-19.5 52,-.5 0,-.5"/>
<text text-anchor="middle" x="26" y="-7.5" font-family="Helvetica,sans-Serif" font-size="10.00" fill="#000000">assert.h</text>
</a>
</g>
</g>
<!-- Node3&#45;&gt;Node4 -->
<g id="edge3" class="edge">
<title>Node3&#45;&gt;Node4</title>
<path fill="none" stroke="#191970" d="M644.396,-117.043C542.4456,-105.2246 284.6393,-72.5688 62.2043,-20.1352"/>
<polygon fill="#191970" stroke="#191970" points="62.8464,-16.6904 52.3081,-17.7837 61.228,-23.5008 62.8464,-16.6904"/>
</g>
<!-- Node5 -->
<g id="node5" class="node">
<title>Node5</title>
<g id="a_node5"><a xlink:title=" ">
<polygon fill="#ffffff" stroke="#bfbfbf" points="523,-56.5 523,-75.5 567,-75.5 567,-56.5 523,-56.5"/>
<text text-anchor="middle" x="545" y="-63.5" font-family="Helvetica,sans-Serif" font-size="10.00" fill="#000000">cmath</text>
</a>
</g>
</g>
<!-- Node3&#45;&gt;Node5 -->
<g id="edge4" class="edge">
<title>Node3&#45;&gt;Node5</title>
<path fill="none" stroke="#191970" d="M664.2455,-112.3733C640.0021,-102.9453 602.9637,-88.5414 576.6045,-78.2906"/>
<polygon fill="#191970" stroke="#191970" points="577.6625,-74.9468 567.0739,-74.5843 575.1253,-81.4708 577.6625,-74.9468"/>
</g>
<!-- Node6 -->
<g id="node6" class="node">
<title>Node6</title>
<g id="a_node6"><a xlink:title=" ">
<polygon fill="#ffffff" stroke="#bfbfbf" points="1125.5,-56.5 1125.5,-75.5 1164.5,-75.5 1164.5,-56.5 1125.5,-56.5"/>
<text text-anchor="middle" x="1145" y="-63.5" font-family="Helvetica,sans-Serif" font-size="10.00" fill="#000000">array</text>
</a>
</g>
</g>
<!-- Node3&#45;&gt;Node6 -->
<g id="edge5" class="edge">
<title>Node3&#45;&gt;Node6</title>
<path fill="none" stroke="#191970" d="M733.5535,-116.5285C826.0175,-105.1733 1036.6469,-79.3065 1114.95,-69.6903"/>
<polygon fill="#191970" stroke="#191970" points="1115.5959,-73.1374 1125.0946,-68.4445 1114.7426,-66.1896 1115.5959,-73.1374"/>
</g>
<!-- Node7 -->
<g id="node7" class="node">
<title>Node7</title>
<g id="a_node7"><a xlink:title=" ">
<polygon fill="#ffffff" stroke="#bfbfbf" points="1071,-.5 1071,-19.5 1115,-19.5 1115,-.5 1071,-.5"/>
<text text-anchor="middle" x="1093" y="-7.5" font-family="Helvetica,sans-Serif" font-size="10.00" fill="#000000">vector</text>
</a>
</g>
</g>
<!-- Node3&#45;&gt;Node7 -->
<g id="edge6" class="edge">
<title>Node3&#45;&gt;Node7</title>
<path fill="none" stroke="#191970" d="M716.799,-112.3285C742.0752,-103.3835 780.3073,-89.474 813,-76 832.8603,-67.8147 836.4799,-62.3528 857,-56 942.347,-29.5774 970.3042,-41.3703 1060.8964,-19.9809"/>
<polygon fill="#191970" stroke="#191970" points="1061.8659,-23.3472 1070.755,-17.5822 1060.211,-16.5456 1061.8659,-23.3472"/>
</g>
<!-- Node8 -->
<g id="node8" class="node">
<title>Node8</title>
<g id="a_node8"><a xlink:title=" ">
<polygon fill="#ffffff" stroke="#bfbfbf" points="360.5,-56.5 360.5,-75.5 413.5,-75.5 413.5,-56.5 360.5,-56.5"/>
<text text-anchor="middle" x="387" y="-63.5" font-family="Helvetica,sans-Serif" font-size="10.00" fill="#000000">ostream</text>
</a>
</g>
</g>
<!-- Node3&#45;&gt;Node8 -->
<g id="edge7" class="edge">
<title>Node3&#45;&gt;Node8</title>
<path fill="none" stroke="#191970" d="M644.3007,-115.8032C593.0638,-108.3673 506.4156,-94.7788 423.5047,-76.1753"/>
<polygon fill="#191970" stroke="#191970" points="424.2034,-72.7449 413.6764,-73.942 422.6523,-79.5709 424.2034,-72.7449"/>
</g>
<!-- Node9 -->
<g id="node9" class="node">
<title>Node9</title>
<g id="a_node9"><a xlink:title=" ">
<polygon fill="#ffffff" stroke="#bfbfbf" points="1133,-.5 1133,-19.5 1179,-19.5 1179,-.5 1133,-.5"/>
<text text-anchor="middle" x="1156" y="-7.5" font-family="Helvetica,sans-Serif" font-size="10.00" fill="#000000">cstring</text>
</a>
</g>
</g>
<!-- Node3&#45;&gt;Node9 -->
<g id="edge8" class="edge">
<title>Node3&#45;&gt;Node9</title>
<path fill="none" stroke="#191970" d="M722.2827,-112.4191C778.154,-96.4015 888.5615,-65.049 928,-56 1011.2903,-36.8894 1036.2749,-40.9232 1122.9477,-20.0334"/>
<polygon fill="#191970" stroke="#191970" points="1123.7949,-23.4294 1132.6735,-17.6483 1122.1277,-16.6309 1123.7949,-23.4294"/>
</g>
<!-- Node10 -->
<g id="node10" class="node">
<title>Node10</title>
<g id="a_node10"><a xlink:title=" ">
<polygon fill="#ffffff" stroke="#bfbfbf" points="431.5,-56.5 431.5,-75.5 504.5,-75.5 504.5,-56.5 431.5,-56.5"/>
<text text-anchor="middle" x="468" y="-63.5" font-family="Helvetica,sans-Serif" font-size="10.00" fill="#000000">initializer_list</text>
</a>
</g>
</g>
<!-- Node3&#45;&gt;Node10 -->
<g id="edge9" class="edge">
<title>Node3&#45;&gt;Node10</title>
<path fill="none" stroke="#191970" d="M651.2599,-112.4369C613.5279,-102.8759 555.4208,-88.1519 514.7812,-77.8541"/>
<polygon fill="#191970" stroke="#191970" points="515.4019,-74.4008 504.8485,-75.3372 513.6824,-81.1863 515.4019,-74.4008"/>
</g>
<!-- Node11 -->
<g id="node11" class="node">
<title>Node11</title>
<g id="a_node11"><a xlink:title=" ">
<polygon fill="#ffffff" stroke="#bfbfbf" points="585.5,-56.5 585.5,-75.5 644.5,-75.5 644.5,-56.5 585.5,-56.5"/>
<text text-anchor="middle" x="615" y="-63.5" font-family="Helvetica,sans-Serif" font-size="10.00" fill="#000000">stdexcept</text>
</a>
</g>
</g>
<!-- Node3&#45;&gt;Node11 -->
<g id="edge10" class="edge">
<title>Node3&#45;&gt;Node11</title>
<path fill="none" stroke="#191970" d="M676.1102,-112.2455C665.0746,-103.8943 648.9708,-91.7076 636.0647,-81.9408"/>
<polygon fill="#191970" stroke="#191970" points="637.8283,-78.8862 627.7421,-75.6427 633.6041,-84.4681 637.8283,-78.8862"/>
</g>
<!-- Node12 -->
<g id="node12" class="node">
<title>Node12</title>
<g id="a_node12"><a xlink:title=" ">
<polygon fill="#ffffff" stroke="#bfbfbf" points="663,-56.5 663,-75.5 715,-75.5 715,-56.5 663,-56.5"/>
<text text-anchor="middle" x="689" y="-63.5" font-family="Helvetica,sans-Serif" font-size="10.00" fill="#000000">sstream</text>
</a>
</g>
</g>
<!-- Node3&#45;&gt;Node12 -->
<g id="edge11" class="edge">
<title>Node3&#45;&gt;Node12</title>
<path fill="none" stroke="#191970" d="M689,-112.2455C689,-104.9382 689,-94.6944 689,-85.7046"/>
<polygon fill="#191970" stroke="#191970" points="692.5001,-85.6426 689,-75.6427 685.5001,-85.6427 692.5001,-85.6426"/>
</g>
<!-- Node13&#45;&gt;Node7 -->
<g id="edge15" class="edge">
<title>Node13&#45;&gt;Node7</title>
<path fill="none" stroke="#191970" d="M829.5078,-112.3965C849.9421,-98.2585 890.3341,-71.8132 928,-56 981.9723,-33.3409 1000.9311,-37.0041 1060.7303,-20.2193"/>
<polygon fill="#191970" stroke="#191970" points="1062.0539,-23.4801 1070.69,-17.3427 1060.1114,-16.755 1062.0539,-23.4801"/>
</g>
<!-- Node13&#45;&gt;Node11 -->
<g id="edge13" class="edge">
<title>Node13&#45;&gt;Node11</title>
<path fill="none" stroke="#191970" d="M781.9031,-112.5004C746.6847,-102.6883 691.7745,-87.3899 654.6423,-77.0446"/>
<polygon fill="#191970" stroke="#191970" points="655.2442,-73.5791 644.6718,-74.2668 653.3655,-80.3223 655.2442,-73.5791"/>
</g>
<!-- Node13&#45;&gt;Node12 -->
<g id="edge14" class="edge">
<title>Node13&#45;&gt;Node12</title>
<path fill="none" stroke="#191970" d="M794.1679,-112.3733C773.6897,-103.3435 742.8601,-89.7494 719.8681,-79.6111"/>
<polygon fill="#191970" stroke="#191970" points="721.1093,-76.3333 710.5472,-75.5011 718.285,-82.7383 721.1093,-76.3333"/>
</g>
<!-- Node14 -->
<g id="node14" class="node">
<title>Node14</title>
<g id="a_node14"><a xlink:title=" ">
<polygon fill="#ffffff" stroke="#bfbfbf" points="937.5,-56.5 937.5,-75.5 992.5,-75.5 992.5,-56.5 937.5,-56.5"/>
<text text-anchor="middle" x="965" y="-63.5" font-family="Helvetica,sans-Serif" font-size="10.00" fill="#000000">iostream</text>
</a>
</g>
</g>
<!-- Node13&#45;&gt;Node14 -->
<g id="edge16" class="edge">
<title>Node13&#45;&gt;Node14</title>
<path fill="none" stroke="#191970" d="M841.614,-112.3733C866.0687,-103.1822 903.1054,-89.2624 930.2209,-79.0713"/>
<polygon fill="#191970" stroke="#191970" points="931.5909,-82.2956 939.7202,-75.5011 929.1281,-75.7431 931.5909,-82.2956"/>
</g>
<!-- Node15&#45;&gt;Node3 -->
<g id="edge52" class="edge">
<title>Node15&#45;&gt;Node3</title>
<path fill="none" stroke="#191970" d="M1038.2783,-173.7449C975.4938,-164.4435 825.1442,-142.1695 743.6833,-130.1012"/>
<polygon fill="#191970" stroke="#191970" points="744.0264,-126.6139 733.6214,-128.6106 743.0005,-133.5384 744.0264,-126.6139"/>
</g>
<!-- Node15&#45;&gt;Node4 -->
<g id="edge22" class="edge">
<title>Node15&#45;&gt;Node4</title>
<path fill="none" stroke="#191970" d="M1038.3122,-176.3854C932.1268,-169.9993 551.7567,-143.4801 246,-76 179.891,-61.4098 104.7078,-37.1439 61.5619,-22.4528"/>
<polygon fill="#191970" stroke="#191970" points="62.6766,-19.135 52.0819,-19.2031 60.4066,-25.7567 62.6766,-19.135"/>
</g>
<!-- Node15&#45;&gt;Node14 -->
<g id="edge20" class="edge">
<title>Node15&#45;&gt;Node14</title>
<path fill="none" stroke="#191970" d="M1046.1068,-168.4403C1030.6328,-160.498 1009.9062,-147.9352 996,-132 984.1934,-118.4708 975.9533,-99.6719 970.9521,-85.5965"/>
<polygon fill="#191970" stroke="#191970" points="974.215,-84.3156 967.7536,-75.9192 967.5687,-86.5124 974.215,-84.3156"/>
</g>
<!-- Node16 -->
<g id="node16" class="node">
<title>Node16</title>
<g id="a_node16"><a xlink:title=" ">
<polygon fill="#ffffff" stroke="#bfbfbf" points="897,-112.5 897,-131.5 949,-131.5 949,-112.5 897,-112.5"/>
<text text-anchor="middle" x="923" y="-119.5" font-family="Helvetica,sans-Serif" font-size="10.00" fill="#000000">numeric</text>
</a>
</g>
</g>
<!-- Node15&#45;&gt;Node16 -->
<g id="edge18" class="edge">
<title>Node15&#45;&gt;Node16</title>
<path fill="none" stroke="#191970" d="M1042.2455,-168.3733C1018.7151,-159.2226 983.1313,-145.3844 956.9574,-135.2057"/>
<polygon fill="#191970" stroke="#191970" points="958.0201,-131.8636 947.4315,-131.5011 955.4829,-138.3877 958.0201,-131.8636"/>
</g>
<!-- Node17 -->
<g id="node17" class="node">
<title>Node17</title>
<g id="a_node17"><a xlink:title=" ">
<polygon fill="#ffffff" stroke="#bfbfbf" points="1197,-.5 1197,-19.5 1233,-19.5 1233,-.5 1197,-.5"/>
<text text-anchor="middle" x="1215" y="-7.5" font-family="Helvetica,sans-Serif" font-size="10.00" fill="#000000">map</text>
</a>
</g>
</g>
<!-- Node15&#45;&gt;Node17 -->
<g id="edge19" class="edge">
<title>Node15&#45;&gt;Node17</title>
<path fill="none" stroke="#191970" d="M1069.9117,-168.1862C1077.7397,-142.3286 1099.7442,-73.1418 1116,-56 1121.3138,-50.3966 1159.9894,-33.2828 1187.3929,-21.5862"/>
<polygon fill="#191970" stroke="#191970" points="1189.058,-24.6817 1196.8962,-17.5534 1186.3235,-18.2379 1189.058,-24.6817"/>
</g>
<!-- Node18 -->
<g id="node18" class="node">
<title>Node18</title>
<g id="a_node18"><a xlink:title=" ">
<polygon fill="#ffffff" stroke="#bfbfbf" points="1005.5,-112.5 1005.5,-131.5 1068.5,-131.5 1068.5,-112.5 1005.5,-112.5"/>
<text text-anchor="middle" x="1037" y="-119.5" font-family="Helvetica,sans-Serif" font-size="10.00" fill="#000000">type_traits</text>
</a>
</g>
</g>
<!-- Node15&#45;&gt;Node18 -->
<g id="edge21" class="edge">
<title>Node15&#45;&gt;Node18</title>
<path fill="none" stroke="#191970" d="M1061.7744,-168.2455C1057.6877,-160.617 1051.8865,-149.7881 1046.925,-140.5267"/>
<polygon fill="#191970" stroke="#191970" points="1049.9732,-138.8047 1042.1657,-131.6427 1043.8028,-142.1103 1049.9732,-138.8047"/>
</g>
<!-- Node19 -->
<g id="node19" class="node">
<title>Node19</title>
<g id="a_node19"><a xlink:href="../../da/d3e/memory_8hpp.html" target="_top" xlink:title="Memory management functions and classes.">
<polygon fill="#ffffff" stroke="#000000" points="1125,-112.5 1125,-131.5 1197,-131.5 1197,-112.5 1125,-112.5"/>
<text text-anchor="middle" x="1161" y="-119.5" font-family="Helvetica,sans-Serif" font-size="10.00" fill="#000000">memory.hpp</text>
</a>
</g>
</g>
<!-- Node15&#45;&gt;Node19 -->
<g id="edge23" class="edge">
<title>Node15&#45;&gt;Node19</title>
<path fill="none" stroke="#191970" d="M1083.3736,-168.2455C1097.9308,-159.5731 1119.431,-146.7645 1136.1152,-136.825"/>
<polygon fill="#191970" stroke="#191970" points="1138.0144,-139.7676 1144.8141,-131.6427 1134.4317,-133.7539 1138.0144,-139.7676"/>
</g>
<!-- Node38 -->
<g id="node38" class="node">
<title>Node38</title>
<g id="a_node38"><a xlink:href="../../db/d5f/fft3d__grid_8hpp.html" target="_top" xlink:title="Contains declaration and implementation of sddk::FFT3D_grid class.">
<polygon fill="#ffffff" stroke="#000000" points="1215,-112.5 1215,-131.5 1293,-131.5 1293,-112.5 1215,-112.5"/>
<text text-anchor="middle" x="1254" y="-119.5" font-family="Helvetica,sans-Serif" font-size="10.00" fill="#000000">fft3d_grid.hpp</text>
</a>
</g>
</g>
<!-- Node15&#45;&gt;Node38 -->
<g id="edge49" class="edge">
<title>Node15&#45;&gt;Node38</title>
<path fill="none" stroke="#191970" d="M1095.8089,-169.3727C1126.9933,-160.0341 1177.0087,-145.0562 1212.4437,-134.4447"/>
<polygon fill="#191970" stroke="#191970" points="1213.4482,-137.7975 1222.0237,-131.5758 1211.44,-131.0917 1213.4482,-137.7975"/>
</g>
<!-- Node39 -->
<g id="node39" class="node">
<title>Node39</title>
<g id="a_node39"><a xlink:href="../../db/d1c/serializer_8hpp.html" target="_top" xlink:title="Serializer for simple data structures.">
<polygon fill="#ffffff" stroke="#000000" points="1403,-112.5 1403,-131.5 1479,-131.5 1479,-112.5 1403,-112.5"/>
<text text-anchor="middle" x="1441" y="-119.5" font-family="Helvetica,sans-Serif" font-size="10.00" fill="#000000">serializer.hpp</text>
</a>
</g>
</g>
<!-- Node15&#45;&gt;Node39 -->
<g id="edge53" class="edge">
<title>Node15&#45;&gt;Node39</title>
<path fill="none" stroke="#191970" d="M1095.8809,-174.5672C1151.26,-167.8471 1276.4104,-151.9963 1392.6518,-131.9573"/>
<polygon fill="#191970" stroke="#191970" points="1393.5383,-135.3557 1402.791,-130.1946 1392.3393,-128.4592 1393.5383,-135.3557"/>
</g>
<!-- Node45 -->
<g id="node45" class="node">
<title>Node45</title>
<g id="a_node45"><a xlink:href="../../d0/d86/splindex_8hpp.html" target="_top" xlink:title="Contains definition of sddk::splindex_base and specializations of sddk::splindex class.">
<polygon fill="#ffffff" stroke="#000000" points="1311.5,-112.5 1311.5,-131.5 1384.5,-131.5 1384.5,-112.5 1311.5,-112.5"/>
<text text-anchor="middle" x="1348" y="-119.5" font-family="Helvetica,sans-Serif" font-size="10.00" fill="#000000">splindex.hpp</text>
</a>
</g>
</g>
<!-- Node15&#45;&gt;Node45 -->
<g id="edge67" class="edge">
<title>Node15&#45;&gt;Node45</title>
<path fill="none" stroke="#191970" d="M1095.6164,-172.5969C1138.1742,-164.5186 1220.9053,-148.6497 1301.5364,-132.0636"/>
<polygon fill="#191970" stroke="#191970" points="1302.2697,-135.4861 1311.3563,-130.0378 1300.8553,-128.6305 1302.2697,-135.4861"/>
</g>
<!-- Node46 -->
<g id="node46" class="node">
<title>Node46</title>
<g id="a_node46"><a xlink:href="../../dc/ddc/profiler_8hpp.html" target="_top" xlink:title="A time&#45;based profiler.">
<polygon fill="#ffffff" stroke="#000000" points="1755.5,-112.5 1755.5,-131.5 1842.5,-131.5 1842.5,-112.5 1755.5,-112.5"/>
<text text-anchor="middle" x="1799" y="-119.5" font-family="Helvetica,sans-Serif" font-size="10.00" fill="#000000">utils/profiler.hpp</text>
</a>
</g>
</g>
<!-- Node15&#45;&gt;Node46 -->
<g id="edge73" class="edge">
<title>Node15&#45;&gt;Node46</title>
<path fill="none" stroke="#191970" d="M1095.6953,-175.8047C1205.531,-167.402 1600.323,-137.1993 1745.1994,-126.1159"/>
<polygon fill="#191970" stroke="#191970" points="1745.4874,-129.6042 1755.1913,-125.3515 1744.9534,-122.6246 1745.4874,-129.6042"/>
</g>
<!-- Node19&#45;&gt;Node6 -->
<g id="edge31" class="edge">
<title>Node19&#45;&gt;Node6</title>
<path fill="none" stroke="#191970" d="M1158.213,-112.2455C1156.1023,-104.8579 1153.134,-94.4689 1150.5453,-85.4087"/>
<polygon fill="#191970" stroke="#191970" points="1153.8677,-84.2964 1147.755,-75.6427 1147.137,-86.2195 1153.8677,-84.2964"/>
</g>
<!-- Node19&#45;&gt;Node9 -->
<g id="edge28" class="edge">
<title>Node19&#45;&gt;Node9</title>
<path fill="none" stroke="#191970" d="M1146.6263,-112.1853C1135.9295,-103.9414 1122.1591,-91.1035 1116,-76 1108.6834,-58.058 1122.3982,-39.3251 1135.7176,-26.4205"/>
<polygon fill="#191970" stroke="#191970" points="1138.2629,-28.8385 1143.3522,-19.5461 1133.5788,-23.6366 1138.2629,-28.8385"/>
</g>
<!-- Node19&#45;&gt;Node14 -->
<g id="edge25" class="edge">
<title>Node19&#45;&gt;Node14</title>
<path fill="none" stroke="#191970" d="M1127.3064,-112.3733C1092.4905,-102.4259 1038.2874,-86.9393 1002.2251,-76.6358"/>
<polygon fill="#191970" stroke="#191970" points="1003.1428,-73.2579 992.566,-73.876 1001.2197,-79.9886 1003.1428,-73.2579"/>
</g>
<!-- Node19&#45;&gt;Node17 -->
<g id="edge26" class="edge">
<title>Node19&#45;&gt;Node17</title>
<path fill="none" stroke="#191970" d="M1165.604,-112.4509C1174.5309,-93.936 1194.3358,-52.8591 1205.9749,-28.7187"/>
<polygon fill="#191970" stroke="#191970" points="1209.2173,-30.0527 1210.4076,-19.5249 1202.9119,-27.0125 1209.2173,-30.0527"/>
</g>
<!-- Node20 -->
<g id="node20" class="node">
<title>Node20</title>
<g id="a_node20"><a xlink:title=" ">
<polygon fill="#ffffff" stroke="#bfbfbf" points="1730.5,-.5 1730.5,-19.5 1759.5,-19.5 1759.5,-.5 1730.5,-.5"/>
<text text-anchor="middle" x="1745" y="-7.5" font-family="Helvetica,sans-Serif" font-size="10.00" fill="#000000">list</text>
</a>
</g>
</g>
<!-- Node19&#45;&gt;Node20 -->
<g id="edge24" class="edge">
<title>Node19&#45;&gt;Node20</title>
<path fill="none" stroke="#191970" d="M1197.2831,-113.5808C1200.2248,-113.007 1203.1576,-112.4708 1206,-112 1350.2458,-88.1057 1389.6908,-104.9871 1533,-76 1618.4531,-58.7154 1638.8698,-49.2511 1721,-20 1721.0957,-19.9659 1721.1915,-19.9317 1721.2875,-19.8973"/>
<polygon fill="#191970" stroke="#191970" points="1722.3092,-23.2549 1730.3724,-16.382 1719.7831,-16.7266 1722.3092,-23.2549"/>
</g>
<!-- Node21 -->
<g id="node21" class="node">
<title>Node21</title>
<g id="a_node21"><a xlink:title=" ">
<polygon fill="#ffffff" stroke="#bfbfbf" points="1251.5,-.5 1251.5,-19.5 1304.5,-19.5 1304.5,-.5 1251.5,-.5"/>
<text text-anchor="middle" x="1278" y="-7.5" font-family="Helvetica,sans-Serif" font-size="10.00" fill="#000000">memory</text>
</a>
</g>
</g>
<!-- Node19&#45;&gt;Node21 -->
<g id="edge27" class="edge">
<title>Node19&#45;&gt;Node21</title>
<path fill="none" stroke="#191970" d="M1170.9754,-112.4509C1190.9213,-93.3574 1235.9325,-50.2697 1260.7568,-26.5063"/>
<polygon fill="#191970" stroke="#191970" points="1263.2464,-28.9683 1268.0499,-19.5249 1258.4059,-23.9116 1263.2464,-28.9683"/>
</g>
<!-- Node22 -->
<g id="node22" class="node">
<title>Node22</title>
<g id="a_node22"><a xlink:title=" ">
<polygon fill="#ffffff" stroke="#bfbfbf" points="1322.5,-.5 1322.5,-19.5 1381.5,-19.5 1381.5,-.5 1322.5,-.5"/>
<text text-anchor="middle" x="1352" y="-7.5" font-family="Helvetica,sans-Serif" font-size="10.00" fill="#000000">functional</text>
</a>
</g>
</g>
<!-- Node19&#45;&gt;Node22 -->
<g id="edge29" class="edge">
<title>Node19&#45;&gt;Node22</title>
<path fill="none" stroke="#191970" d="M1177.2846,-112.4509C1210.6916,-92.8615 1287.1705,-48.0152 1326.9406,-24.6945"/>
<polygon fill="#191970" stroke="#191970" points="1328.9008,-27.6025 1335.7567,-19.5249 1325.3599,-21.5641 1328.9008,-27.6025"/>
</g>
<!-- Node23 -->
<g id="node23" class="node">
<title>Node23</title>
<g id="a_node23"><a xlink:title=" ">
<polygon fill="#ffffff" stroke="#bfbfbf" points="1595,-.5 1595,-19.5 1653,-19.5 1653,-.5 1595,-.5"/>
<text text-anchor="middle" x="1624" y="-7.5" font-family="Helvetica,sans-Serif" font-size="10.00" fill="#000000">algorithm</text>
</a>
</g>
</g>
<!-- Node19&#45;&gt;Node23 -->
<g id="edge30" class="edge">
<title>Node19&#45;&gt;Node23</title>
<path fill="none" stroke="#191970" d="M1197.2909,-113.6271C1200.2309,-113.0429 1203.1612,-112.4917 1206,-112 1333.1035,-89.9839 1370.6541,-113.7596 1494,-76 1533.4469,-63.9242 1575.3587,-40.4727 1600.6077,-25.0251"/>
<polygon fill="#191970" stroke="#191970" points="1602.4766,-27.9846 1609.1207,-19.7319 1598.7803,-22.04 1602.4766,-27.9846"/>
</g>
<!-- Node24 -->
<g id="node24" class="node">
<title>Node24</title>
<g id="a_node24"><a xlink:title=" ">
<polygon fill="#ffffff" stroke="#bfbfbf" points="999,-.5 999,-19.5 1053,-19.5 1053,-.5 999,-.5"/>
<text text-anchor="middle" x="1026" y="-7.5" font-family="Helvetica,sans-Serif" font-size="10.00" fill="#000000">complex</text>
</a>
</g>
</g>
<!-- Node19&#45;&gt;Node24 -->
<g id="edge32" class="edge">
<title>Node19&#45;&gt;Node24</title>
<path fill="none" stroke="#191970" d="M1149.49,-112.4509C1126.3758,-93.2747 1074.0892,-49.8962 1045.5254,-26.1988"/>
<polygon fill="#191970" stroke="#191970" points="1047.4119,-23.2162 1037.4809,-19.5249 1042.9424,-28.6036 1047.4119,-23.2162"/>
</g>
<!-- Node25 -->
<g id="node25" class="node">
<title>Node25</title>
<g id="a_node25"><a xlink:title=" ">
<polygon fill="#ffffff" stroke="#bfbfbf" points="1527.5,-.5 1527.5,-19.5 1576.5,-19.5 1576.5,-.5 1527.5,-.5"/>
<text text-anchor="middle" x="1552" y="-7.5" font-family="Helvetica,sans-Serif" font-size="10.00" fill="#000000">cassert</text>
</a>
</g>
</g>
<!-- Node19&#45;&gt;Node25 -->
<g id="edge33" class="edge">
<title>Node19&#45;&gt;Node25</title>
<path fill="none" stroke="#191970" d="M1197.2995,-113.6754C1200.2375,-113.0803 1203.165,-112.5135 1206,-112 1319.0576,-91.5217 1355.5665,-119.2815 1462,-76 1490.3815,-64.4585 1518.039,-41.9943 1535.0387,-26.5041"/>
<polygon fill="#191970" stroke="#191970" points="1537.5729,-28.9261 1542.4843,-19.5384 1532.7906,-23.8144 1537.5729,-28.9261"/>
</g>
<!-- Node26 -->
<g id="node26" class="node">
<title>Node26</title>
<g id="a_node26"><a xlink:href="../../d4/d86/acc_8hpp.html" target="_top" xlink:title="Interface to accelerators API.">
<polygon fill="#ffffff" stroke="#000000" points="733.5,-56.5 733.5,-75.5 804.5,-75.5 804.5,-56.5 733.5,-56.5"/>
<text text-anchor="middle" x="769" y="-63.5" font-family="Helvetica,sans-Serif" font-size="10.00" fill="#000000">gpu/acc.hpp</text>
</a>
</g>
</g>
<!-- Node19&#45;&gt;Node26 -->
<g id="edge34" class="edge">
<title>Node19&#45;&gt;Node26</title>
<path fill="none" stroke="#191970" d="M1124.8242,-116.832C1053.174,-106.5963 893.3542,-83.7649 814.6213,-72.5173"/>
<polygon fill="#191970" stroke="#191970" points="814.9167,-69.0241 804.5222,-71.0746 813.9267,-75.9537 814.9167,-69.0241"/>
</g>
<!-- Node26&#45;&gt;Node4 -->
<g id="edge45" class="edge">
<title>Node26&#45;&gt;Node4</title>
<path fill="none" stroke="#191970" d="M733.2347,-57.4956C730.1229,-56.9249 727.0129,-56.4137 724,-56 434.9258,-16.3071 353.8459,-67.663 62.2465,-19.8442"/>
<polygon fill="#191970" stroke="#191970" points="62.6675,-16.3662 52.2284,-18.1761 61.5177,-23.2711 62.6675,-16.3662"/>
</g>
<!-- Node26&#45;&gt;Node7 -->
<g id="edge47" class="edge">
<title>Node26&#45;&gt;Node7</title>
<path fill="none" stroke="#191970" d="M804.7384,-58.6253C809.5261,-57.7039 814.3776,-56.8041 819,-56 923.4121,-37.8364 953.9117,-44.4234 1060.8747,-19.9568"/>
<polygon fill="#191970" stroke="#191970" points="1061.8252,-23.3292 1070.7725,-17.6551 1060.2397,-16.5111 1061.8252,-23.3292"/>
</g>
<!-- Node26&#45;&gt;Node24 -->
<g id="edge46" class="edge">
<title>Node26&#45;&gt;Node24</title>
<path fill="none" stroke="#191970" d="M804.5974,-58.8874C853.9935,-48.9707 941.7535,-31.1713 988.9458,-20.1137"/>
<polygon fill="#191970" stroke="#191970" points="990.0118,-23.4575 998.9231,-17.7268 988.3831,-16.6496 990.0118,-23.4575"/>
</g>
<!-- Node27 -->
<g id="node27" class="node">
<title>Node27</title>
<g id="a_node27"><a xlink:title=" ">
<polygon fill="#ffffff" stroke="#bfbfbf" points="742.5,-.5 742.5,-19.5 827.5,-19.5 827.5,-.5 742.5,-.5"/>
<text text-anchor="middle" x="785" y="-7.5" font-family="Helvetica,sans-Serif" font-size="10.00" fill="#000000">cuda_runtime.h</text>
</a>
</g>
</g>
<!-- Node26&#45;&gt;Node27 -->
<g id="edge35" class="edge">
<title>Node26&#45;&gt;Node27</title>
<path fill="none" stroke="#191970" d="M771.787,-56.2455C773.8977,-48.8579 776.866,-38.4689 779.4547,-29.4087"/>
<polygon fill="#191970" stroke="#191970" points="782.863,-30.2195 782.245,-19.6427 776.1323,-28.2964 782.863,-30.2195"/>
</g>
<!-- Node28 -->
<g id="node28" class="node">
<title>Node28</title>
<g id="a_node28"><a xlink:title=" ">
<polygon fill="#ffffff" stroke="#bfbfbf" points="845.5,-.5 845.5,-19.5 892.5,-19.5 892.5,-.5 845.5,-.5"/>
<text text-anchor="middle" x="869" y="-7.5" font-family="Helvetica,sans-Serif" font-size="10.00" fill="#000000">cuda.h</text>
</a>
</g>
</g>
<!-- Node26&#45;&gt;Node28 -->
<g id="edge36" class="edge">
<title>Node26&#45;&gt;Node28</title>
<path fill="none" stroke="#191970" d="M786.4187,-56.2455C802.0485,-47.4928 825.2019,-34.527 843.0185,-24.5496"/>
<polygon fill="#191970" stroke="#191970" points="844.766,-27.5825 851.7809,-19.6427 841.3457,-21.475 844.766,-27.5825"/>
</g>
<!-- Node29 -->
<g id="node29" class="node">
<title>Node29</title>
<g id="a_node29"><a xlink:title=" ">
<polygon fill="#ffffff" stroke="#bfbfbf" points="911,-.5 911,-19.5 981,-19.5 981,-.5 911,-.5"/>
<text text-anchor="middle" x="946" y="-7.5" font-family="Helvetica,sans-Serif" font-size="10.00" fill="#000000">cublas_v2.h</text>
</a>
</g>
</g>
<!-- Node26&#45;&gt;Node29 -->
<g id="edge37" class="edge">
<title>Node26&#45;&gt;Node29</title>
<path fill="none" stroke="#191970" d="M799.4274,-56.3733C828.9872,-47.021 874.0226,-32.7725 906.3695,-22.5385"/>
<polygon fill="#191970" stroke="#191970" points="907.4913,-25.8546 915.9697,-19.5011 905.3797,-19.1807 907.4913,-25.8546"/>
</g>
<!-- Node30 -->
<g id="node30" class="node">
<title>Node30</title>
<g id="a_node30"><a xlink:title=" ">
<polygon fill="#ffffff" stroke="#bfbfbf" points="70.5,-.5 70.5,-19.5 133.5,-19.5 133.5,-.5 70.5,-.5"/>
<text text-anchor="middle" x="102" y="-7.5" font-family="Helvetica,sans-Serif" font-size="10.00" fill="#000000">cublasXt.h</text>
</a>
</g>
</g>
<!-- Node26&#45;&gt;Node30 -->
<g id="edge38" class="edge">
<title>Node26&#45;&gt;Node30</title>
<path fill="none" stroke="#191970" d="M733.2312,-57.5206C730.1201,-56.9445 727.0113,-56.4252 724,-56 471.0761,-20.2863 400.5737,-57.8273 143.6766,-19.8173"/>
<polygon fill="#191970" stroke="#191970" points="144.0826,-16.3391 133.6733,-18.3132 143.0418,-23.2613 144.0826,-16.3391"/>
</g>
<!-- Node31 -->
<g id="node31" class="node">
<title>Node31</title>
<g id="a_node31"><a xlink:title=" ">
<polygon fill="#ffffff" stroke="#bfbfbf" points="152,-.5 152,-19.5 254,-19.5 254,-.5 152,-.5"/>
<text text-anchor="middle" x="203" y="-7.5" font-family="Helvetica,sans-Serif" font-size="10.00" fill="#000000">cuda_profiler_api.h</text>
</a>
</g>
</g>
<!-- Node26&#45;&gt;Node31 -->
<g id="edge39" class="edge">
<title>Node26&#45;&gt;Node31</title>
<path fill="none" stroke="#191970" d="M733.2236,-57.5732C730.1142,-56.9856 727.0078,-56.4494 724,-56 524.0183,-26.1232 468.7675,-44.3082 264.1918,-20.041"/>
<polygon fill="#191970" stroke="#191970" points="264.3664,-16.5368 254.0192,-18.8142 263.5282,-23.4864 264.3664,-16.5368"/>
</g>
<!-- Node32 -->
<g id="node32" class="node">
<title>Node32</title>
<g id="a_node32"><a xlink:title=" ">
<polygon fill="#ffffff" stroke="#bfbfbf" points="272,-.5 272,-19.5 346,-19.5 346,-.5 272,-.5"/>
<text text-anchor="middle" x="309" y="-7.5" font-family="Helvetica,sans-Serif" font-size="10.00" fill="#000000">nvToolsExt.h</text>
</a>
</g>
</g>
<!-- Node26&#45;&gt;Node32 -->
<g id="edge40" class="edge">
<title>Node26&#45;&gt;Node32</title>
<path fill="none" stroke="#191970" d="M733.2138,-57.6363C730.1065,-57.0351 727.0033,-56.4784 724,-56 564.4511,-30.5858 519.5306,-44.9571 356.0027,-19.9912"/>
<polygon fill="#191970" stroke="#191970" points="356.5057,-16.5275 346.0871,-18.4518 355.4317,-23.4446 356.5057,-16.5275"/>
</g>
<!-- Node33 -->
<g id="node33" class="node">
<title>Node33</title>
<g id="a_node33"><a xlink:title=" ">
<polygon fill="#ffffff" stroke="#bfbfbf" points="364.5,-.5 364.5,-19.5 439.5,-19.5 439.5,-.5 364.5,-.5"/>
<text text-anchor="middle" x="402" y="-7.5" font-family="Helvetica,sans-Serif" font-size="10.00" fill="#000000">cuComplex.h</text>
</a>
</g>
</g>
<!-- Node26&#45;&gt;Node33 -->
<g id="edge41" class="edge">
<title>Node26&#45;&gt;Node33</title>
<path fill="none" stroke="#191970" d="M733.1958,-57.7437C730.0924,-57.1192 726.995,-56.5278 724,-56 605.806,-35.1731 572.2458,-40.5331 449.8057,-20.013"/>
<polygon fill="#191970" stroke="#191970" points="450.1045,-16.5136 439.6593,-18.2878 448.9311,-23.4146 450.1045,-16.5136"/>
</g>
<!-- Node34 -->
<g id="node34" class="node">
<title>Node34</title>
<g id="a_node34"><a xlink:title=" ">
<polygon fill="#ffffff" stroke="#bfbfbf" points="458,-.5 458,-19.5 520,-19.5 520,-.5 458,-.5"/>
<text text-anchor="middle" x="489" y="-7.5" font-family="Helvetica,sans-Serif" font-size="10.00" fill="#000000">execinfo.h</text>
</a>
</g>
</g>
<!-- Node26&#45;&gt;Node34 -->
<g id="edge42" class="edge">
<title>Node26&#45;&gt;Node34</title>
<path fill="none" stroke="#191970" d="M733.1635,-57.914C730.0671,-57.2525 726.9802,-56.606 724,-56 640.7569,-39.0725 616.8353,-38.7012 530.3912,-20.2049"/>
<polygon fill="#191970" stroke="#191970" points="530.9131,-16.737 520.3995,-18.0466 529.435,-23.5792 530.9131,-16.737"/>
</g>
<!-- Node35 -->
<g id="node35" class="node">
<title>Node35</title>
<g id="a_node35"><a xlink:title=" ">
<polygon fill="#ffffff" stroke="#bfbfbf" points="538,-.5 538,-19.5 590,-19.5 590,-.5 538,-.5"/>
<text text-anchor="middle" x="564" y="-7.5" font-family="Helvetica,sans-Serif" font-size="10.00" fill="#000000">unistd.h</text>
</a>
</g>
</g>
<!-- Node26&#45;&gt;Node35 -->
<g id="edge43" class="edge">
<title>Node26&#45;&gt;Node35</title>
<path fill="none" stroke="#191970" d="M733.4701,-56.5416C701.0664,-47.8808 651.6166,-34.578 600.018,-20.2594"/>
<polygon fill="#191970" stroke="#191970" points="600.9342,-16.8814 590.3621,-17.5749 599.0591,-23.6256 600.9342,-16.8814"/>
</g>
<!-- Node36 -->
<g id="node36" class="node">
<title>Node36</title>
<g id="a_node36"><a xlink:title=" ">
<polygon fill="#ffffff" stroke="#bfbfbf" points="608.5,-.5 608.5,-19.5 659.5,-19.5 659.5,-.5 608.5,-.5"/>
<text text-anchor="middle" x="634" y="-7.5" font-family="Helvetica,sans-Serif" font-size="10.00" fill="#000000">signal.h</text>
</a>
</g>
</g>
<!-- Node26&#45;&gt;Node36 -->
<g id="edge44" class="edge">
<title>Node26&#45;&gt;Node36</title>
<path fill="none" stroke="#191970" d="M745.7927,-56.3733C723.8301,-47.2629 690.6668,-33.5062 666.1599,-23.3404"/>
<polygon fill="#191970" stroke="#191970" points="667.4824,-20.0999 656.9045,-19.5011 664.8003,-26.5657 667.4824,-20.0999"/>
</g>
<!-- Node37 -->
<g id="node37" class="node">
<title>Node37</title>
<g id="a_node37"><a xlink:title=" ">
<polygon fill="#ffffff" stroke="#bfbfbf" points="678,-.5 678,-19.5 724,-19.5 724,-.5 678,-.5"/>
<text text-anchor="middle" x="701" y="-7.5" font-family="Helvetica,sans-Serif" font-size="10.00" fill="#000000">stdio.h</text>
</a>
</g>
</g>
<!-- Node26&#45;&gt;Node37 -->
<g id="edge48" class="edge">
<title>Node26&#45;&gt;Node37</title>
<path fill="none" stroke="#191970" d="M757.1553,-56.2455C747.112,-47.9746 732.5005,-35.9416 720.6996,-26.2232"/>
<polygon fill="#191970" stroke="#191970" points="722.6533,-23.298 712.709,-19.6427 718.2033,-28.7015 722.6533,-23.298"/>
</g>
<!-- Node38&#45;&gt;Node6 -->
<g id="edge50" class="edge">
<title>Node38&#45;&gt;Node6</title>
<path fill="none" stroke="#191970" d="M1235.0136,-112.2455C1217.8208,-103.4125 1192.2762,-90.2887 1172.7868,-80.2758"/>
<polygon fill="#191970" stroke="#191970" points="1174.263,-77.0993 1163.7688,-75.6427 1171.0641,-83.3257 1174.263,-77.0993"/>
</g>
<!-- Node38&#45;&gt;Node25 -->
<g id="edge51" class="edge">
<title>Node38&#45;&gt;Node25</title>
<path fill="none" stroke="#191970" d="M1293.0188,-113.7997C1296.0562,-113.1831 1299.0771,-112.577 1302,-112 1387.6052,-95.1008 1419.3383,-119.4642 1495,-76 1514.7865,-64.6336 1531.032,-43.774 1541.0475,-28.5393"/>
<polygon fill="#191970" stroke="#191970" points="1544.1077,-30.2472 1546.4545,-19.9155 1538.177,-26.5287 1544.1077,-30.2472"/>
</g>
<!-- Node40 -->
<g id="node40" class="node">
<title>Node40</title>
<g id="a_node40"><a xlink:title=" ">
<polygon fill="#ffffff" stroke="#bfbfbf" points="1699.5,-56.5 1699.5,-75.5 1738.5,-75.5 1738.5,-56.5 1699.5,-56.5"/>
<text text-anchor="middle" x="1719" y="-63.5" font-family="Helvetica,sans-Serif" font-size="10.00" fill="#000000">limits</text>
</a>
</g>
</g>
<!-- Node39&#45;&gt;Node40 -->
<g id="edge54" class="edge">
<title>Node39&#45;&gt;Node40</title>
<path fill="none" stroke="#191970" d="M1479.2879,-115.9963C1527.548,-108.1512 1612.914,-93.3502 1685,-76 1686.4581,-75.6491 1687.9468,-75.2743 1689.447,-74.8834"/>
<polygon fill="#191970" stroke="#191970" points="1690.6095,-78.1933 1699.3131,-72.1519 1688.7417,-71.4471 1690.6095,-78.1933"/>
</g>
<!-- Node41 -->
<g id="node41" class="node">
<title>Node41</title>
<g id="a_node41"><a xlink:href="../../d4/d32/communicator_8hpp.html" target="_top" xlink:title="Contains declaration and implementation of sddk::Communicator class.">
<polygon fill="#ffffff" stroke="#000000" points="1335,-56.5 1335,-75.5 1453,-75.5 1453,-56.5 1335,-56.5"/>
<text text-anchor="middle" x="1394" y="-63.5" font-family="Helvetica,sans-Serif" font-size="10.00" fill="#000000">mpi/communicator.hpp</text>
</a>
</g>
</g>
<!-- Node39&#45;&gt;Node41 -->
<g id="edge55" class="edge">
<title>Node39&#45;&gt;Node41</title>
<path fill="none" stroke="#191970" d="M1432.8132,-112.2455C1426.1411,-104.2958 1416.5521,-92.8706 1408.5747,-83.3656"/>
<polygon fill="#191970" stroke="#191970" points="1411.2026,-81.0524 1402.093,-75.6427 1405.8408,-85.5525 1411.2026,-81.0524"/>
</g>
<!-- Node41&#45;&gt;Node7 -->
<g id="edge58" class="edge">
<title>Node41&#45;&gt;Node7</title>
<path fill="none" stroke="#191970" d="M1334.7745,-58.4006C1281.9921,-51.0657 1202.544,-38.6476 1125.1575,-20.0203"/>
<polygon fill="#191970" stroke="#191970" points="1125.7867,-16.5711 1115.2416,-17.5961 1124.1243,-23.3709 1125.7867,-16.5711"/>
</g>
<!-- Node41&#45;&gt;Node9 -->
<g id="edge64" class="edge">
<title>Node41&#45;&gt;Node9</title>
<path fill="none" stroke="#191970" d="M1345.8568,-56.432C1306.1427,-48.273 1248.1463,-35.7494 1188.9074,-20.0854"/>
<polygon fill="#191970" stroke="#191970" points="1189.5698,-16.6397 1179.0053,-17.4403 1187.7633,-23.4026 1189.5698,-16.6397"/>
</g>
<!-- Node41&#45;&gt;Node17 -->
<g id="edge66" class="edge">
<title>Node41&#45;&gt;Node17</title>
<path fill="none" stroke="#191970" d="M1360.306,-56.4415C1331.4342,-48.1101 1288.5485,-35.4027 1243.0019,-20.2084"/>
<polygon fill="#191970" stroke="#191970" points="1243.8405,-16.7979 1233.2464,-16.929 1241.61,-23.433 1243.8405,-16.7979"/>
</g>
<!-- Node41&#45;&gt;Node21 -->
<g id="edge62" class="edge">
<title>Node41&#45;&gt;Node21</title>
<path fill="none" stroke="#191970" d="M1374.0589,-56.3733C1355.5214,-47.4241 1327.6972,-33.9917 1306.7587,-23.8835"/>
<polygon fill="#191970" stroke="#191970" points="1308.2081,-20.6967 1297.6809,-19.5011 1305.1648,-27.0006 1308.2081,-20.6967"/>
</g>
<!-- Node41&#45;&gt;Node22 -->
<g id="edge61" class="edge">
<title>Node41&#45;&gt;Node22</title>
<path fill="none" stroke="#191970" d="M1386.6842,-56.2455C1380.7821,-48.3761 1372.3258,-37.101 1365.2406,-27.6542"/>
<polygon fill="#191970" stroke="#191970" points="1368.0321,-25.5427 1359.232,-19.6427 1362.432,-29.7427 1368.0321,-25.5427"/>
</g>
<!-- Node41&#45;&gt;Node23 -->
<g id="edge63" class="edge">
<title>Node41&#45;&gt;Node23</title>
<path fill="none" stroke="#191970" d="M1434.2848,-56.4791C1470.9287,-47.7781 1526.7572,-34.4212 1584.896,-19.9993"/>
<polygon fill="#191970" stroke="#191970" points="1585.7638,-23.3901 1594.6243,-17.5814 1584.0753,-16.5968 1585.7638,-23.3901"/>
</g>
<!-- Node41&#45;&gt;Node24 -->
<g id="edge59" class="edge">
<title>Node41&#45;&gt;Node24</title>
<path fill="none" stroke="#191970" d="M1334.8214,-60.2082C1270.252,-53.3502 1163.7266,-40.4634 1063.0669,-19.9953"/>
<polygon fill="#191970" stroke="#191970" points="1063.5333,-16.5179 1053.0323,-17.9252 1062.119,-23.3735 1063.5333,-16.5179"/>
</g>
<!-- Node41&#45;&gt;Node25 -->
<g id="edge57" class="edge">
<title>Node41&#45;&gt;Node25</title>
<path fill="none" stroke="#191970" d="M1421.1612,-56.3733C1447.8381,-46.9181 1488.6349,-32.4585 1517.5722,-22.2023"/>
<polygon fill="#191970" stroke="#191970" points="1519.0142,-25.4046 1527.2704,-18.7649 1516.6757,-18.8067 1519.0142,-25.4046"/>
</g>
<!-- Node42 -->
<g id="node42" class="node">
<title>Node42</title>
<g id="a_node42"><a xlink:title=" ">
<polygon fill="#ffffff" stroke="#bfbfbf" points="1671.5,-.5 1671.5,-19.5 1712.5,-19.5 1712.5,-.5 1671.5,-.5"/>
<text text-anchor="middle" x="1692" y="-7.5" font-family="Helvetica,sans-Serif" font-size="10.00" fill="#000000">mpi.h</text>
</a>
</g>
</g>
<!-- Node41&#45;&gt;Node42 -->
<g id="edge56" class="edge">
<title>Node41&#45;&gt;Node42</title>
<path fill="none" stroke="#191970" d="M1453.0889,-58.4861C1505.5098,-51.227 1584.2448,-38.8759 1661.555,-19.788"/>
<polygon fill="#191970" stroke="#191970" points="1662.617,-23.1301 1671.4646,-17.3018 1660.9135,-16.3406 1662.617,-23.1301"/>
</g>
<!-- Node43 -->
<g id="node43" class="node">
<title>Node43</title>
<g id="a_node43"><a xlink:title=" ">
<polygon fill="#ffffff" stroke="#bfbfbf" points="1399.5,-.5 1399.5,-19.5 1448.5,-19.5 1448.5,-.5 1399.5,-.5"/>
<text text-anchor="middle" x="1424" y="-7.5" font-family="Helvetica,sans-Serif" font-size="10.00" fill="#000000">cstdarg</text>
</a>
</g>
</g>
<!-- Node41&#45;&gt;Node43 -->
<g id="edge60" class="edge">
<title>Node41&#45;&gt;Node43</title>
<path fill="none" stroke="#191970" d="M1399.2256,-56.2455C1403.3123,-48.617 1409.1135,-37.7881 1414.075,-28.5267"/>
<polygon fill="#191970" stroke="#191970" points="1417.1972,-30.1103 1418.8343,-19.6427 1411.0268,-26.8047 1417.1972,-30.1103"/>
</g>
<!-- Node44 -->
<g id="node44" class="node">
<title>Node44</title>
<g id="a_node44"><a xlink:title=" ">
<polygon fill="#ffffff" stroke="#bfbfbf" points="1466.5,-.5 1466.5,-19.5 1509.5,-19.5 1509.5,-.5 1466.5,-.5"/>
<text text-anchor="middle" x="1488" y="-7.5" font-family="Helvetica,sans-Serif" font-size="10.00" fill="#000000">cstdio</text>
</a>
</g>
</g>
<!-- Node41&#45;&gt;Node44 -->
<g id="edge65" class="edge">
<title>Node41&#45;&gt;Node44</title>
<path fill="none" stroke="#191970" d="M1410.3736,-56.2455C1424.9308,-47.5731 1446.431,-34.7645 1463.1152,-24.825"/>
<polygon fill="#191970" stroke="#191970" points="1465.0144,-27.7676 1471.8141,-19.6427 1461.4317,-21.7539 1465.0144,-27.7676"/>
</g>
<!-- Node45&#45;&gt;Node7 -->
<g id="edge69" class="edge">
<title>Node45&#45;&gt;Node7</title>
<path fill="none" stroke="#191970" d="M1326.2588,-112.4509C1280.9991,-92.5722 1176.5242,-46.6852 1124.1363,-23.6756"/>
<polygon fill="#191970" stroke="#191970" points="1125.2494,-20.3418 1114.6861,-19.5249 1122.4344,-26.7508 1125.2494,-20.3418"/>
</g>
<!-- Node45&#45;&gt;Node12 -->
<g id="edge70" class="edge">
<title>Node45&#45;&gt;Node12</title>
<path fill="none" stroke="#191970" d="M1311.4316,-113.5259C1308.2524,-112.9486 1305.076,-112.4276 1302,-112 1050.3014,-77.0095 979.4574,-118.5287 725.1348,-75.8419"/>
<polygon fill="#191970" stroke="#191970" points="725.6784,-72.3842 715.2323,-74.1531 724.5016,-79.2845 725.6784,-72.3842"/>
</g>
<!-- Node45&#45;&gt;Node23 -->
<g id="edge68" class="edge">
<title>Node45&#45;&gt;Node23</title>
<path fill="none" stroke="#191970" d="M1384.6371,-113.9297C1387.8014,-113.2648 1390.9555,-112.6132 1394,-112 1479.9675,-94.6836 1517.0099,-127.4848 1588,-76 1603.4741,-64.7776 1613.0253,-44.7951 1618.366,-29.7484"/>
<polygon fill="#191970" stroke="#191970" points="1621.816,-30.4513 1621.5352,-19.8602 1615.15,-28.3147 1621.816,-30.4513"/>
</g>
<!-- Node45&#45;&gt;Node25 -->
<g id="edge72" class="edge">
<title>Node45&#45;&gt;Node25</title>
<path fill="none" stroke="#191970" d="M1384.6488,-113.9865C1387.8105,-113.3093 1390.9609,-112.6394 1394,-112 1472.5576,-95.473 1520.2063,-138.1646 1571,-76 1582.1399,-62.3663 1574.1083,-42.5032 1565.3148,-28.1324"/>
<polygon fill="#191970" stroke="#191970" points="1568.0835,-25.9759 1559.62,-19.6025 1562.2617,-29.8627 1568.0835,-25.9759"/>
</g>
<!-- Node45&#45;&gt;Node40 -->
<g id="edge71" class="edge">
<title>Node45&#45;&gt;Node40</title>
<path fill="none" stroke="#191970" d="M1384.5999,-113.7291C1387.7722,-113.1077 1390.9384,-112.521 1394,-112 1522.472,-90.1355 1557.3981,-102.4737 1685,-76 1686.4685,-75.6953 1687.9655,-75.358 1689.4725,-74.9971"/>
<polygon fill="#191970" stroke="#191970" points="1690.597,-78.3197 1699.3612,-72.3667 1688.7975,-71.555 1690.597,-78.3197"/>
</g>
<!-- Node46&#45;&gt;Node42 -->
<g id="edge74" class="edge">
<title>Node46&#45;&gt;Node42</title>
<path fill="none" stroke="#191970" d="M1792.1798,-112.0881C1782.7575,-98.7062 1764.8871,-74.4175 1747,-56 1736.4615,-45.149 1723.5354,-34.2349 1712.8629,-25.7625"/>
<polygon fill="#191970" stroke="#191970" points="1714.915,-22.9245 1704.8755,-19.5392 1710.6127,-28.4463 1714.915,-22.9245"/>
</g>
<!-- Node47 -->
<g id="node47" class="node">
<title>Node47</title>
<g id="a_node47"><a xlink:title=" ">
<polygon fill="#ffffff" stroke="#bfbfbf" points="1907.5,-.5 1907.5,-19.5 1948.5,-19.5 1948.5,-.5 1907.5,-.5"/>
<text text-anchor="middle" x="1928" y="-7.5" font-family="Helvetica,sans-Serif" font-size="10.00" fill="#000000">string</text>
</a>
</g>
</g>
<!-- Node46&#45;&gt;Node47 -->
<g id="edge75" class="edge">
<title>Node46&#45;&gt;Node47</title>
<path fill="none" stroke="#191970" d="M1820.2712,-112.4966C1837.0793,-104.3402 1860.5354,-91.469 1878,-76 1893.5631,-62.2153 1907.4996,-42.9412 1916.6804,-28.7796"/>
<polygon fill="#191970" stroke="#191970" points="1919.8876,-30.2534 1922.238,-19.9225 1913.9582,-26.5328 1919.8876,-30.2534"/>
</g>
<!-- Node48 -->
<g id="node48" class="node">
<title>Node48</title>
<g id="a_node48"><a xlink:href="../../d7/d7e/rt__graph_8hpp_source.html" target="_top" xlink:title=" ">
<polygon fill="#ffffff" stroke="#ff0000" points="1795.5,-56.5 1795.5,-75.5 1868.5,-75.5 1868.5,-56.5 1795.5,-56.5"/>
<text text-anchor="middle" x="1832" y="-63.5" font-family="Helvetica,sans-Serif" font-size="10.00" fill="#000000">rt_graph.hpp</text>
</a>
</g>
</g>
<!-- Node46&#45;&gt;Node48 -->
<g id="edge76" class="edge">
<title>Node46&#45;&gt;Node48</title>
<path fill="none" stroke="#191970" d="M1804.7482,-112.2455C1809.2435,-104.617 1815.6248,-93.7881 1821.0825,-84.5267"/>
<polygon fill="#191970" stroke="#191970" points="1824.2561,-86.035 1826.3177,-75.6427 1818.2253,-82.4811 1824.2561,-86.035"/>
</g>
<!-- Node48&#45;&gt;Node7 -->
<g id="edge81" class="edge">
<title>Node48&#45;&gt;Node7</title>
<path fill="none" stroke="#191970" d="M1795.2308,-61.1912C1780.2859,-59.3627 1762.8381,-57.388 1747,-56 1474.0809,-32.0819 1398.463,-70.0378 1125.391,-19.8031"/>
<polygon fill="#191970" stroke="#191970" points="1125.6479,-16.2908 1115.176,-17.9 1124.3658,-23.1724 1125.6479,-16.2908"/>
</g>
<!-- Node48&#45;&gt;Node20 -->
<g id="edge79" class="edge">
<title>Node48&#45;&gt;Node20</title>
<path fill="none" stroke="#191970" d="M1816.8458,-56.2455C1803.4159,-47.601 1783.6014,-34.8469 1768.1809,-24.921"/>
<polygon fill="#191970" stroke="#191970" points="1769.9937,-21.9256 1759.6907,-19.4561 1766.205,-27.8116 1769.9937,-21.9256"/>
</g>
<!-- Node48&#45;&gt;Node47 -->
<g id="edge80" class="edge">
<title>Node48&#45;&gt;Node47</title>
<path fill="none" stroke="#191970" d="M1848.7219,-56.2455C1863.5889,-47.5731 1885.5466,-34.7645 1902.5858,-24.825"/>
<polygon fill="#191970" stroke="#191970" points="1904.5955,-27.7047 1911.4697,-19.6427 1901.0683,-21.6582 1904.5955,-27.7047"/>
</g>
<!-- Node49 -->
<g id="node49" class="node">
<title>Node49</title>
<g id="a_node49"><a xlink:title=" ">
<polygon fill="#ffffff" stroke="#bfbfbf" points="1843,-.5 1843,-19.5 1889,-19.5 1889,-.5 1843,-.5"/>
<text text-anchor="middle" x="1866" y="-7.5" font-family="Helvetica,sans-Serif" font-size="10.00" fill="#000000">atomic</text>
</a>
</g>
</g>
<!-- Node48&#45;&gt;Node49 -->
<g id="edge77" class="edge">
<title>Node48&#45;&gt;Node49</title>
<path fill="none" stroke="#191970" d="M1837.9223,-56.2455C1842.6027,-48.5367 1849.2673,-37.5598 1854.9289,-28.2348"/>
<polygon fill="#191970" stroke="#191970" points="1857.9475,-30.007 1860.1455,-19.6427 1851.9639,-26.3741 1857.9475,-30.007"/>
</g>
<!-- Node50 -->
<g id="node50" class="node">
<title>Node50</title>
<g id="a_node50"><a xlink:title=" ">
<polygon fill="#ffffff" stroke="#bfbfbf" points="1777.5,-.5 1777.5,-19.5 1824.5,-19.5 1824.5,-.5 1777.5,-.5"/>
<text text-anchor="middle" x="1801" y="-7.5" font-family="Helvetica,sans-Serif" font-size="10.00" fill="#000000">chrono</text>
</a>
</g>
</g>
<!-- Node48&#45;&gt;Node50 -->
<g id="edge78" class="edge">
<title>Node48&#45;&gt;Node50</title>
<path fill="none" stroke="#191970" d="M1826.6002,-56.2455C1822.3773,-48.617 1816.3827,-37.7881 1811.2559,-28.5267"/>
<polygon fill="#191970" stroke="#191970" points="1814.2432,-26.6965 1806.3379,-19.6427 1808.119,-30.0867 1814.2432,-26.6965"/>
</g>
</g>
</svg>
