<?xml version="1.0" encoding="UTF-8" standalone="no"?>
<!DOCTYPE svg PUBLIC "-//W3C//DTD SVG 1.1//EN"
 "http://www.w3.org/Graphics/SVG/1.1/DTD/svg11.dtd">
<!-- Generated by graphviz version 2.40.1 (20161225.0304)
 -->
<!-- Title: gvec.cpp Pages: 1 -->
<svg width="2345pt" height="252pt"
 viewBox="0.00 0.00 2345.00 252.00" xmlns="http://www.w3.org/2000/svg" xmlns:xlink="http://www.w3.org/1999/xlink">
<g id="graph0" class="graph" transform="scale(1 1) rotate(0) translate(4 248)">
<title>gvec.cpp</title>
<polygon fill="#ffffff" stroke="transparent" points="-4,4 -4,-248 2341,-248 2341,4 -4,4"/>
<!-- Node0 -->
<g id="node1" class="node">
<title>Node0</title>
<g id="a_node1"><a xlink:title="Contains the implementation of Gvec class.">
<polygon fill="#bfbfbf" stroke="#000000" points="1369,-224.5 1369,-243.5 1426,-243.5 1426,-224.5 1369,-224.5"/>
<text text-anchor="middle" x="1397.5" y="-231.5" font-family="Helvetica,sans-Serif" font-size="10.00" fill="#000000">gvec.cpp</text>
</a>
</g>
</g>
<!-- Node1 -->
<g id="node2" class="node">
<title>Node1</title>
<g id="a_node2"><a xlink:href="../../d3/d2b/find__lat__sym_8hpp.html" target="_top" xlink:title="Find the lattice symmetries.">
<polygon fill="#ffffff" stroke="#000000" points="1269.5,-168.5 1269.5,-187.5 1409.5,-187.5 1409.5,-168.5 1269.5,-168.5"/>
<text text-anchor="middle" x="1339.5" y="-175.5" font-family="Helvetica,sans-Serif" font-size="10.00" fill="#000000">Symmetry/find_lat_sym.hpp</text>
</a>
</g>
</g>
<!-- Node0&#45;&gt;Node1 -->
<g id="edge1" class="edge">
<title>Node0&#45;&gt;Node1</title>
<path fill="none" stroke="#191970" d="M1387.3972,-224.2455C1378.9972,-216.1352 1366.8506,-204.4075 1356.8916,-194.7919"/>
<polygon fill="#191970" stroke="#191970" points="1359.1122,-192.0707 1349.4871,-187.6427 1354.25,-197.1066 1359.1122,-192.0707"/>
</g>
<!-- Node12 -->
<g id="node13" class="node">
<title>Node12</title>
<g id="a_node13"><a xlink:href="../../d6/dd8/gvec_8hpp.html" target="_top" xlink:title="Declaration and implementation of Gvec class.">
<polygon fill="#ffffff" stroke="#000000" points="1516,-168.5 1516,-187.5 1573,-187.5 1573,-168.5 1516,-168.5"/>
<text text-anchor="middle" x="1544.5" y="-175.5" font-family="Helvetica,sans-Serif" font-size="10.00" fill="#000000">gvec.hpp</text>
</a>
</g>
</g>
<!-- Node0&#45;&gt;Node12 -->
<g id="edge12" class="edge">
<title>Node0&#45;&gt;Node12</title>
<path fill="none" stroke="#191970" d="M1422.7702,-224.3733C1446.8966,-215.1822 1483.4362,-201.2624 1510.1877,-191.0713"/>
<polygon fill="#191970" stroke="#191970" points="1511.4607,-194.3318 1519.5596,-187.5011 1508.9687,-187.7904 1511.4607,-194.3318"/>
</g>
<!-- Node2 -->
<g id="node3" class="node">
<title>Node2</title>
<g id="a_node3"><a xlink:href="../../d6/d99/geometry3d_8hpp.html" target="_top" xlink:title="Simple classes and functions to work with the 3D vectors and matrices of the crystal lattice.">
<polygon fill="#ffffff" stroke="#000000" points="1171,-56.5 1171,-75.5 1260,-75.5 1260,-56.5 1171,-56.5"/>
<text text-anchor="middle" x="1215.5" y="-63.5" font-family="Helvetica,sans-Serif" font-size="10.00" fill="#000000">geometry3d.hpp</text>
</a>
</g>
</g>
<!-- Node1&#45;&gt;Node2 -->
<g id="edge2" class="edge">
<title>Node1&#45;&gt;Node2</title>
<path fill="none" stroke="#191970" d="M1328.9278,-168.4509C1307.7885,-149.3574 1260.0844,-106.2697 1233.7749,-82.5063"/>
<polygon fill="#191970" stroke="#191970" points="1235.8125,-79.6304 1226.0454,-75.5249 1231.1204,-84.8251 1235.8125,-79.6304"/>
</g>
<!-- Node3 -->
<g id="node4" class="node">
<title>Node3</title>
<g id="a_node4"><a xlink:title=" ">
<polygon fill="#ffffff" stroke="#bfbfbf" points="928.5,-.5 928.5,-19.5 980.5,-19.5 980.5,-.5 928.5,-.5"/>
<text text-anchor="middle" x="954.5" y="-7.5" font-family="Helvetica,sans-Serif" font-size="10.00" fill="#000000">assert.h</text>
</a>
</g>
</g>
<!-- Node2&#45;&gt;Node3 -->
<g id="edge3" class="edge">
<title>Node2&#45;&gt;Node3</title>
<path fill="none" stroke="#191970" d="M1170.6763,-57.9374C1127.0578,-49.855 1058.7124,-36.5674 990.8249,-20.1931"/>
<polygon fill="#191970" stroke="#191970" points="991.3593,-16.721 980.815,-17.755 989.7027,-23.5221 991.3593,-16.721"/>
</g>
<!-- Node4 -->
<g id="node5" class="node">
<title>Node4</title>
<g id="a_node5"><a xlink:title=" ">
<polygon fill="#ffffff" stroke="#bfbfbf" points="998.5,-.5 998.5,-19.5 1042.5,-19.5 1042.5,-.5 998.5,-.5"/>
<text text-anchor="middle" x="1020.5" y="-7.5" font-family="Helvetica,sans-Serif" font-size="10.00" fill="#000000">cmath</text>
</a>
</g>
</g>
<!-- Node2&#45;&gt;Node4 -->
<g id="edge4" class="edge">
<title>Node2&#45;&gt;Node4</title>
<path fill="none" stroke="#191970" d="M1179.875,-56.4335C1148.6585,-47.9565 1101.8385,-35.0154 1052.6782,-20.2828"/>
<polygon fill="#191970" stroke="#191970" points="1053.4034,-16.846 1042.8188,-17.3132 1051.3845,-23.5485 1053.4034,-16.846"/>
</g>
<!-- Node5 -->
<g id="node6" class="node">
<title>Node5</title>
<g id="a_node6"><a xlink:title=" ">
<polygon fill="#ffffff" stroke="#bfbfbf" points="1365,-.5 1365,-19.5 1404,-19.5 1404,-.5 1365,-.5"/>
<text text-anchor="middle" x="1384.5" y="-7.5" font-family="Helvetica,sans-Serif" font-size="10.00" fill="#000000">array</text>
</a>
</g>
</g>
<!-- Node2&#45;&gt;Node5 -->
<g id="edge5" class="edge">
<title>Node2&#45;&gt;Node5</title>
<path fill="none" stroke="#191970" d="M1245.039,-56.4328C1271.4626,-47.8441 1311.4861,-34.7606 1355.1835,-20.0742"/>
<polygon fill="#191970" stroke="#191970" points="1356.4976,-23.3248 1364.8578,-16.8166 1354.2637,-16.6908 1356.4976,-23.3248"/>
</g>
<!-- Node6 -->
<g id="node7" class="node">
<title>Node6</title>
<g id="a_node7"><a xlink:title=" ">
<polygon fill="#ffffff" stroke="#bfbfbf" points="1639.5,-.5 1639.5,-19.5 1683.5,-19.5 1683.5,-.5 1639.5,-.5"/>
<text text-anchor="middle" x="1661.5" y="-7.5" font-family="Helvetica,sans-Serif" font-size="10.00" fill="#000000">vector</text>
</a>
</g>
</g>
<!-- Node2&#45;&gt;Node6 -->
<g id="edge6" class="edge">
<title>Node2&#45;&gt;Node6</title>
<path fill="none" stroke="#191970" d="M1260.3438,-62.1816C1348.8729,-54.4622 1544.2043,-36.4869 1629.2454,-19.8317"/>
<polygon fill="#191970" stroke="#191970" points="1630.21,-23.2064 1639.295,-17.7554 1628.7937,-16.3511 1630.21,-23.2064"/>
</g>
<!-- Node7 -->
<g id="node8" class="node">
<title>Node7</title>
<g id="a_node8"><a xlink:title=" ">
<polygon fill="#ffffff" stroke="#bfbfbf" points="1061,-.5 1061,-19.5 1114,-19.5 1114,-.5 1061,-.5"/>
<text text-anchor="middle" x="1087.5" y="-7.5" font-family="Helvetica,sans-Serif" font-size="10.00" fill="#000000">ostream</text>
</a>
</g>
</g>
<!-- Node2&#45;&gt;Node7 -->
<g id="edge7" class="edge">
<title>Node2&#45;&gt;Node7</title>
<path fill="none" stroke="#191970" d="M1193.496,-56.3733C1172.8565,-47.3435 1141.7842,-33.7494 1118.6111,-23.6111"/>
<polygon fill="#191970" stroke="#191970" points="1119.7813,-20.3028 1109.2169,-19.5011 1116.9755,-26.7159 1119.7813,-20.3028"/>
</g>
<!-- Node8 -->
<g id="node9" class="node">
<title>Node8</title>
<g id="a_node9"><a xlink:title=" ">
<polygon fill="#ffffff" stroke="#bfbfbf" points="1300.5,-.5 1300.5,-19.5 1346.5,-19.5 1346.5,-.5 1300.5,-.5"/>
<text text-anchor="middle" x="1323.5" y="-7.5" font-family="Helvetica,sans-Serif" font-size="10.00" fill="#000000">cstring</text>
</a>
</g>
</g>
<!-- Node2&#45;&gt;Node8 -->
<g id="edge8" class="edge">
<title>Node2&#45;&gt;Node8</title>
<path fill="none" stroke="#191970" d="M1234.3122,-56.2455C1251.3473,-47.4125 1276.6575,-34.2887 1295.9681,-24.2758"/>
<polygon fill="#191970" stroke="#191970" points="1297.637,-27.353 1304.9034,-19.6427 1294.4147,-21.1388 1297.637,-27.353"/>
</g>
<!-- Node9 -->
<g id="node10" class="node">
<title>Node9</title>
<g id="a_node10"><a xlink:title=" ">
<polygon fill="#ffffff" stroke="#bfbfbf" points="1132,-.5 1132,-19.5 1205,-19.5 1205,-.5 1132,-.5"/>
<text text-anchor="middle" x="1168.5" y="-7.5" font-family="Helvetica,sans-Serif" font-size="10.00" fill="#000000">initializer_list</text>
</a>
</g>
</g>
<!-- Node2&#45;&gt;Node9 -->
<g id="edge9" class="edge">
<title>Node2&#45;&gt;Node9</title>
<path fill="none" stroke="#191970" d="M1207.3132,-56.2455C1200.6411,-48.2958 1191.0521,-36.8706 1183.0747,-27.3656"/>
<polygon fill="#191970" stroke="#191970" points="1185.7026,-25.0524 1176.593,-19.6427 1180.3408,-29.5525 1185.7026,-25.0524"/>
</g>
<!-- Node10 -->
<g id="node11" class="node">
<title>Node10</title>
<g id="a_node11"><a xlink:title=" ">
<polygon fill="#ffffff" stroke="#bfbfbf" points="1223,-.5 1223,-19.5 1282,-19.5 1282,-.5 1223,-.5"/>
<text text-anchor="middle" x="1252.5" y="-7.5" font-family="Helvetica,sans-Serif" font-size="10.00" fill="#000000">stdexcept</text>
</a>
</g>
</g>
<!-- Node2&#45;&gt;Node10 -->
<g id="edge10" class="edge">
<title>Node2&#45;&gt;Node10</title>
<path fill="none" stroke="#191970" d="M1221.9449,-56.2455C1227.0382,-48.5367 1234.2908,-37.5598 1240.452,-28.2348"/>
<polygon fill="#191970" stroke="#191970" points="1243.5365,-29.9155 1246.1289,-19.6427 1237.6962,-26.0566 1243.5365,-29.9155"/>
</g>
<!-- Node11 -->
<g id="node12" class="node">
<title>Node11</title>
<g id="a_node12"><a xlink:title=" ">
<polygon fill="#ffffff" stroke="#bfbfbf" points="1823.5,-.5 1823.5,-19.5 1875.5,-19.5 1875.5,-.5 1823.5,-.5"/>
<text text-anchor="middle" x="1849.5" y="-7.5" font-family="Helvetica,sans-Serif" font-size="10.00" fill="#000000">sstream</text>
</a>
</g>
</g>
<!-- Node2&#45;&gt;Node11 -->
<g id="edge11" class="edge">
<title>Node2&#45;&gt;Node11</title>
<path fill="none" stroke="#191970" d="M1260.0233,-62.5733C1285.1257,-60.6418 1317.0623,-58.1852 1345.5,-56 1550.6862,-40.2333 1606.9759,-56.383 1813.3199,-19.8894"/>
<polygon fill="#191970" stroke="#191970" points="1814.0328,-23.3175 1823.2604,-18.1115 1812.8003,-16.4269 1814.0328,-23.3175"/>
</g>
<!-- Node12&#45;&gt;Node2 -->
<g id="edge46" class="edge">
<title>Node12&#45;&gt;Node2</title>
<path fill="none" stroke="#191970" d="M1515.8395,-170.0017C1484.9615,-161.2409 1434.4701,-146.4985 1391.5,-132 1341.3324,-115.073 1284.0608,-93.0916 1248.8407,-79.2616"/>
<polygon fill="#191970" stroke="#191970" points="1250.1027,-75.997 1239.5158,-75.5879 1247.5369,-82.5098 1250.1027,-75.997"/>
</g>
<!-- Node12&#45;&gt;Node3 -->
<g id="edge16" class="edge">
<title>Node12&#45;&gt;Node3</title>
<path fill="none" stroke="#191970" d="M1515.7595,-172.604C1475.1164,-164.7698 1398.6475,-149.2811 1334.5,-132 1206.2717,-97.4557 1057.0502,-46.2534 990.1438,-22.6987"/>
<polygon fill="#191970" stroke="#191970" points="991.0995,-19.3244 980.5047,-19.2957 988.7691,-25.9251 991.0995,-19.3244"/>
</g>
<!-- Node13 -->
<g id="node14" class="node">
<title>Node13</title>
<g id="a_node14"><a xlink:title=" ">
<polygon fill="#ffffff" stroke="#bfbfbf" points="1400.5,-112.5 1400.5,-131.5 1452.5,-131.5 1452.5,-112.5 1400.5,-112.5"/>
<text text-anchor="middle" x="1426.5" y="-119.5" font-family="Helvetica,sans-Serif" font-size="10.00" fill="#000000">numeric</text>
</a>
</g>
</g>
<!-- Node12&#45;&gt;Node13 -->
<g id="edge13" class="edge">
<title>Node12&#45;&gt;Node13</title>
<path fill="none" stroke="#191970" d="M1524.2151,-168.3733C1505.3579,-159.4241 1477.054,-145.9917 1455.7545,-135.8835"/>
<polygon fill="#191970" stroke="#191970" points="1457.0551,-132.6266 1446.5202,-131.5011 1454.0539,-138.9506 1457.0551,-132.6266"/>
</g>
<!-- Node14 -->
<g id="node15" class="node">
<title>Node14</title>
<g id="a_node15"><a xlink:title=" ">
<polygon fill="#ffffff" stroke="#bfbfbf" points="1769.5,-.5 1769.5,-19.5 1805.5,-19.5 1805.5,-.5 1769.5,-.5"/>
<text text-anchor="middle" x="1787.5" y="-7.5" font-family="Helvetica,sans-Serif" font-size="10.00" fill="#000000">map</text>
</a>
</g>
</g>
<!-- Node12&#45;&gt;Node14 -->
<g id="edge14" class="edge">
<title>Node12&#45;&gt;Node14</title>
<path fill="none" stroke="#191970" d="M1573.2251,-173.4071C1604.3806,-167.4744 1654.7166,-155.0549 1692.5,-132 1733.952,-106.7065 1764.2562,-56.2447 1778.4702,-28.8114"/>
<polygon fill="#191970" stroke="#191970" points="1781.7721,-30.0342 1783.1197,-19.5254 1775.5129,-26.9001 1781.7721,-30.0342"/>
</g>
<!-- Node15 -->
<g id="node16" class="node">
<title>Node15</title>
<g id="a_node16"><a xlink:title=" ">
<polygon fill="#ffffff" stroke="#bfbfbf" points="1806,-56.5 1806,-75.5 1861,-75.5 1861,-56.5 1806,-56.5"/>
<text text-anchor="middle" x="1833.5" y="-63.5" font-family="Helvetica,sans-Serif" font-size="10.00" fill="#000000">iostream</text>
</a>
</g>
</g>
<!-- Node12&#45;&gt;Node15 -->
<g id="edge15" class="edge">
<title>Node12&#45;&gt;Node15</title>
<path fill="none" stroke="#191970" d="M1573.0069,-175.5471C1630.1089,-170.1806 1756.0776,-155.928 1791.5,-132 1808.1426,-120.7578 1819.5724,-100.4816 1826.2585,-85.3592"/>
<polygon fill="#191970" stroke="#191970" points="1829.5863,-86.4683 1830.1352,-75.8877 1823.108,-83.8166 1829.5863,-86.4683"/>
</g>
<!-- Node16 -->
<g id="node17" class="node">
<title>Node16</title>
<g id="a_node17"><a xlink:href="../../da/d3e/memory_8hpp.html" target="_top" xlink:title="Memory management functions and classes.">
<polygon fill="#ffffff" stroke="#000000" points="1508.5,-112.5 1508.5,-131.5 1580.5,-131.5 1580.5,-112.5 1508.5,-112.5"/>
<text text-anchor="middle" x="1544.5" y="-119.5" font-family="Helvetica,sans-Serif" font-size="10.00" fill="#000000">memory.hpp</text>
</a>
</g>
</g>
<!-- Node12&#45;&gt;Node16 -->
<g id="edge17" class="edge">
<title>Node12&#45;&gt;Node16</title>
<path fill="none" stroke="#191970" d="M1544.5,-168.2455C1544.5,-160.9382 1544.5,-150.6944 1544.5,-141.7046"/>
<polygon fill="#191970" stroke="#191970" points="1548.0001,-141.6426 1544.5,-131.6427 1541.0001,-141.6427 1548.0001,-141.6426"/>
</g>
<!-- Node35 -->
<g id="node36" class="node">
<title>Node35</title>
<g id="a_node36"><a xlink:href="../../db/d5f/fft3d__grid_8hpp.html" target="_top" xlink:title="Contains declaration and implementation of sddk::FFT3D_grid class.">
<polygon fill="#ffffff" stroke="#000000" points="1354.5,-56.5 1354.5,-75.5 1432.5,-75.5 1432.5,-56.5 1354.5,-56.5"/>
<text text-anchor="middle" x="1393.5" y="-63.5" font-family="Helvetica,sans-Serif" font-size="10.00" fill="#000000">fft3d_grid.hpp</text>
</a>
</g>
</g>
<!-- Node12&#45;&gt;Node35 -->
<g id="edge43" class="edge">
<title>Node12&#45;&gt;Node35</title>
<path fill="none" stroke="#191970" d="M1532.9015,-168.3101C1517.0548,-155.1797 1487.6189,-131.1751 1461.5,-112 1446.9374,-101.3089 1430.1256,-89.928 1416.8617,-81.1612"/>
<polygon fill="#191970" stroke="#191970" points="1418.5971,-78.1136 1408.3171,-75.5501 1414.7547,-83.9648 1418.5971,-78.1136"/>
</g>
<!-- Node36 -->
<g id="node37" class="node">
<title>Node36</title>
<g id="a_node37"><a xlink:href="../../db/d1c/serializer_8hpp.html" target="_top" xlink:title="Serializer for simple data structures.">
<polygon fill="#ffffff" stroke="#000000" points="1607.5,-112.5 1607.5,-131.5 1683.5,-131.5 1683.5,-112.5 1607.5,-112.5"/>
<text text-anchor="middle" x="1645.5" y="-119.5" font-family="Helvetica,sans-Serif" font-size="10.00" fill="#000000">serializer.hpp</text>
</a>
</g>
</g>
<!-- Node12&#45;&gt;Node36 -->
<g id="edge47" class="edge">
<title>Node12&#45;&gt;Node36</title>
<path fill="none" stroke="#191970" d="M1562.0929,-168.2455C1577.879,-159.4928 1601.2639,-146.527 1619.2587,-136.5496"/>
<polygon fill="#191970" stroke="#191970" points="1621.0603,-139.5528 1628.1087,-131.6427 1617.6659,-133.4308 1621.0603,-139.5528"/>
</g>
<!-- Node40 -->
<g id="node41" class="node">
<title>Node40</title>
<g id="a_node41"><a xlink:href="../../d0/d86/splindex_8hpp.html" target="_top" xlink:title="Contains definition of sddk::splindex_base and specializations of sddk::splindex class.">
<polygon fill="#ffffff" stroke="#000000" points="1879,-56.5 1879,-75.5 1952,-75.5 1952,-56.5 1879,-56.5"/>
<text text-anchor="middle" x="1915.5" y="-63.5" font-family="Helvetica,sans-Serif" font-size="10.00" fill="#000000">splindex.hpp</text>
</a>
</g>
</g>
<!-- Node12&#45;&gt;Node40 -->
<g id="edge59" class="edge">
<title>Node12&#45;&gt;Node40</title>
<path fill="none" stroke="#191970" d="M1573.1095,-176.9399C1623.5405,-174.2493 1730.8348,-164.8149 1814.5,-132 1845.4461,-119.8624 1876.8373,-97.4106 1896.2298,-82.0964"/>
<polygon fill="#191970" stroke="#191970" points="1898.6657,-84.6283 1904.2509,-75.6251 1894.2703,-79.1803 1898.6657,-84.6283"/>
</g>
<!-- Node42 -->
<g id="node43" class="node">
<title>Node42</title>
<g id="a_node43"><a xlink:href="../../dc/ddc/profiler_8hpp.html" target="_top" xlink:title="A time&#45;based profiler.">
<polygon fill="#ffffff" stroke="#000000" points="2037,-112.5 2037,-131.5 2132,-131.5 2132,-112.5 2037,-112.5"/>
<text text-anchor="middle" x="2084.5" y="-119.5" font-family="Helvetica,sans-Serif" font-size="10.00" fill="#000000">../utils/profiler.hpp</text>
</a>
</g>
</g>
<!-- Node12&#45;&gt;Node42 -->
<g id="edge65" class="edge">
<title>Node12&#45;&gt;Node42</title>
<path fill="none" stroke="#191970" d="M1573.1515,-175.0287C1658.4484,-166.1831 1911.914,-139.8978 2026.7759,-127.9862"/>
<polygon fill="#191970" stroke="#191970" points="2027.2031,-131.4608 2036.7887,-126.9478 2026.481,-124.4981 2027.2031,-131.4608"/>
</g>
<!-- Node16&#45;&gt;Node5 -->
<g id="edge25" class="edge">
<title>Node16&#45;&gt;Node5</title>
<path fill="none" stroke="#191970" d="M1508.0945,-116.085C1453.4805,-106.8463 1355.6248,-88.7321 1345.5,-76 1333.0141,-60.2987 1348.7506,-40.2071 1363.8045,-26.338"/>
<polygon fill="#191970" stroke="#191970" points="1366.1921,-28.9004 1371.4614,-19.7088 1361.6103,-23.6082 1366.1921,-28.9004"/>
</g>
<!-- Node16&#45;&gt;Node8 -->
<g id="edge22" class="edge">
<title>Node16&#45;&gt;Node8</title>
<path fill="none" stroke="#191970" d="M1508.3297,-116.1394C1452.248,-106.733 1349.4814,-88.0975 1337.5,-76 1325.5458,-63.9299 1322.643,-44.3529 1322.3727,-29.6487"/>
<polygon fill="#191970" stroke="#191970" points="1325.8737,-29.6267 1322.5727,-19.5592 1318.8751,-29.4878 1325.8737,-29.6267"/>
</g>
<!-- Node16&#45;&gt;Node14 -->
<g id="edge20" class="edge">
<title>Node16&#45;&gt;Node14</title>
<path fill="none" stroke="#191970" d="M1580.5156,-114.8856C1624.7231,-105.7593 1696.7488,-89.4971 1720.5,-76 1742.0975,-63.7268 1761.6881,-42.7309 1774.0291,-27.7148"/>
<polygon fill="#191970" stroke="#191970" points="1776.9363,-29.6822 1780.418,-19.6757 1771.4561,-25.3269 1776.9363,-29.6822"/>
</g>
<!-- Node16&#45;&gt;Node15 -->
<g id="edge19" class="edge">
<title>Node16&#45;&gt;Node15</title>
<path fill="none" stroke="#191970" d="M1580.5177,-115.0208C1635.5017,-104.3664 1739.8701,-84.1428 1795.8269,-73.3"/>
<polygon fill="#191970" stroke="#191970" points="1796.5375,-76.7275 1805.6891,-71.389 1795.2058,-69.8553 1796.5375,-76.7275"/>
</g>
<!-- Node17 -->
<g id="node18" class="node">
<title>Node17</title>
<g id="a_node18"><a xlink:title=" ">
<polygon fill="#ffffff" stroke="#bfbfbf" points="1565,-56.5 1565,-75.5 1594,-75.5 1594,-56.5 1565,-56.5"/>
<text text-anchor="middle" x="1579.5" y="-63.5" font-family="Helvetica,sans-Serif" font-size="10.00" fill="#000000">list</text>
</a>
</g>
</g>
<!-- Node16&#45;&gt;Node17 -->
<g id="edge18" class="edge">
<title>Node16&#45;&gt;Node17</title>
<path fill="none" stroke="#191970" d="M1550.5965,-112.2455C1555.4145,-104.5367 1562.2751,-93.5598 1568.1032,-84.2348"/>
<polygon fill="#191970" stroke="#191970" points="1571.1413,-85.9777 1573.4733,-75.6427 1565.2053,-82.2677 1571.1413,-85.9777"/>
</g>
<!-- Node18 -->
<g id="node19" class="node">
<title>Node18</title>
<g id="a_node19"><a xlink:title=" ">
<polygon fill="#ffffff" stroke="#bfbfbf" points="2028,-.5 2028,-19.5 2081,-19.5 2081,-.5 2028,-.5"/>
<text text-anchor="middle" x="2054.5" y="-7.5" font-family="Helvetica,sans-Serif" font-size="10.00" fill="#000000">memory</text>
</a>
</g>
</g>
<!-- Node16&#45;&gt;Node18 -->
<g id="edge21" class="edge">
<title>Node16&#45;&gt;Node18</title>
<path fill="none" stroke="#191970" d="M1580.724,-114.7373C1586.6476,-113.7095 1592.7325,-112.7495 1598.5,-112 1651.2076,-105.151 2039.3586,-114.9718 2075.5,-76 2087.6878,-62.8577 2078.5624,-42.6433 2068.8118,-28.0485"/>
<polygon fill="#191970" stroke="#191970" points="2071.5422,-25.8513 2062.8449,-19.8008 2065.8708,-29.9544 2071.5422,-25.8513"/>
</g>
<!-- Node19 -->
<g id="node20" class="node">
<title>Node19</title>
<g id="a_node20"><a xlink:title=" ">
<polygon fill="#ffffff" stroke="#bfbfbf" points="1495,-.5 1495,-19.5 1554,-19.5 1554,-.5 1495,-.5"/>
<text text-anchor="middle" x="1524.5" y="-7.5" font-family="Helvetica,sans-Serif" font-size="10.00" fill="#000000">functional</text>
</a>
</g>
</g>
<!-- Node16&#45;&gt;Node19 -->
<g id="edge23" class="edge">
<title>Node16&#45;&gt;Node19</title>
<path fill="none" stroke="#191970" d="M1538.2417,-112.2433C1532.8644,-103.2409 1525.5157,-89.2951 1522.5,-76 1519.0132,-60.628 1519.849,-42.7288 1521.3698,-29.4518"/>
<polygon fill="#191970" stroke="#191970" points="1524.8375,-29.926 1522.7286,-19.5431 1517.9024,-28.9749 1524.8375,-29.926"/>
</g>
<!-- Node20 -->
<g id="node21" class="node">
<title>Node20</title>
<g id="a_node21"><a xlink:title=" ">
<polygon fill="#ffffff" stroke="#bfbfbf" points="1951.5,-.5 1951.5,-19.5 2009.5,-19.5 2009.5,-.5 1951.5,-.5"/>
<text text-anchor="middle" x="1980.5" y="-7.5" font-family="Helvetica,sans-Serif" font-size="10.00" fill="#000000">algorithm</text>
</a>
</g>
</g>
<!-- Node16&#45;&gt;Node20 -->
<g id="edge24" class="edge">
<title>Node16&#45;&gt;Node20</title>
<path fill="none" stroke="#191970" d="M1580.74,-114.8553C1586.6616,-113.8128 1592.7417,-112.8172 1598.5,-112 1678.7581,-100.6096 1899.2228,-127.8908 1961.5,-76 1974.7856,-64.9301 1979.116,-45.22 1980.3739,-30.2125"/>
<polygon fill="#191970" stroke="#191970" points="1983.8858,-30.0197 1980.8343,-19.8739 1976.8928,-29.7082 1983.8858,-30.0197"/>
</g>
<!-- Node21 -->
<g id="node22" class="node">
<title>Node21</title>
<g id="a_node22"><a xlink:title=" ">
<polygon fill="#ffffff" stroke="#bfbfbf" points="1422.5,-.5 1422.5,-19.5 1476.5,-19.5 1476.5,-.5 1422.5,-.5"/>
<text text-anchor="middle" x="1449.5" y="-7.5" font-family="Helvetica,sans-Serif" font-size="10.00" fill="#000000">complex</text>
</a>
</g>
</g>
<!-- Node16&#45;&gt;Node21 -->
<g id="edge26" class="edge">
<title>Node16&#45;&gt;Node21</title>
<path fill="none" stroke="#191970" d="M1536.4004,-112.4509C1520.4153,-93.6054 1484.6032,-51.3849 1464.2944,-27.4419"/>
<polygon fill="#191970" stroke="#191970" points="1466.7169,-24.887 1457.5791,-19.5249 1461.3786,-29.415 1466.7169,-24.887"/>
</g>
<!-- Node22 -->
<g id="node23" class="node">
<title>Node22</title>
<g id="a_node23"><a xlink:title=" ">
<polygon fill="#ffffff" stroke="#bfbfbf" points="1572,-.5 1572,-19.5 1621,-19.5 1621,-.5 1572,-.5"/>
<text text-anchor="middle" x="1596.5" y="-7.5" font-family="Helvetica,sans-Serif" font-size="10.00" fill="#000000">cassert</text>
</a>
</g>
</g>
<!-- Node16&#45;&gt;Node22 -->
<g id="edge27" class="edge">
<title>Node16&#45;&gt;Node22</title>
<path fill="none" stroke="#191970" d="M1544.4645,-112.0947C1544.7823,-98.7202 1546.6704,-74.4399 1555.5,-56 1560.6977,-45.1451 1569.2449,-34.9472 1577.1941,-26.9251"/>
<polygon fill="#191970" stroke="#191970" points="1579.9694,-29.1153 1584.7976,-19.6845 1575.1421,-24.046 1579.9694,-29.1153"/>
</g>
<!-- Node23 -->
<g id="node24" class="node">
<title>Node23</title>
<g id="a_node24"><a xlink:href="../../d4/d86/acc_8hpp.html" target="_top" xlink:title="Interface to accelerators API.">
<polygon fill="#ffffff" stroke="#000000" points="543.5,-56.5 543.5,-75.5 619.5,-75.5 619.5,-56.5 543.5,-56.5"/>
<text text-anchor="middle" x="581.5" y="-63.5" font-family="Helvetica,sans-Serif" font-size="10.00" fill="#000000">GPU/acc.hpp</text>
</a>
</g>
</g>
<!-- Node16&#45;&gt;Node23 -->
<g id="edge28" class="edge">
<title>Node16&#45;&gt;Node23</title>
<path fill="none" stroke="#191970" d="M1508.1933,-117.0857C1493.6925,-115.2642 1476.8278,-113.3224 1461.5,-112 1145.0344,-84.6961 763.0468,-71.4231 629.9881,-67.3819"/>
<polygon fill="#191970" stroke="#191970" points="629.8325,-63.8758 619.7319,-67.0738 629.6222,-70.8726 629.8325,-63.8758"/>
</g>
<!-- Node23&#45;&gt;Node3 -->
<g id="edge39" class="edge">
<title>Node23&#45;&gt;Node3</title>
<path fill="none" stroke="#191970" d="M619.5668,-62.6115C680.6831,-56.783 804.5649,-43.3732 918.3096,-20.0107"/>
<polygon fill="#191970" stroke="#191970" points="919.1526,-23.4103 928.2275,-17.9425 917.7236,-16.5577 919.1526,-23.4103"/>
</g>
<!-- Node23&#45;&gt;Node6 -->
<g id="edge41" class="edge">
<title>Node23&#45;&gt;Node6</title>
<path fill="none" stroke="#191970" d="M619.6023,-65.6948C781.1018,-64.1945 1410.4667,-56.2104 1629.2277,-19.6986"/>
<polygon fill="#191970" stroke="#191970" points="1630.0803,-23.1029 1639.3311,-17.9383 1628.8787,-16.2068 1630.0803,-23.1029"/>
</g>
<!-- Node23&#45;&gt;Node21 -->
<g id="edge40" class="edge">
<title>Node23&#45;&gt;Node21</title>
<path fill="none" stroke="#191970" d="M619.7374,-64.9433C758.6983,-60.9414 1237.4415,-45.7036 1412.0896,-19.642"/>
<polygon fill="#191970" stroke="#191970" points="1412.8184,-23.0708 1422.1597,-18.0717 1411.7398,-16.1544 1412.8184,-23.0708"/>
</g>
<!-- Node24 -->
<g id="node25" class="node">
<title>Node24</title>
<g id="a_node25"><a xlink:title=" ">
<polygon fill="#ffffff" stroke="#bfbfbf" points="378,-.5 378,-19.5 463,-19.5 463,-.5 378,-.5"/>
<text text-anchor="middle" x="420.5" y="-7.5" font-family="Helvetica,sans-Serif" font-size="10.00" fill="#000000">cuda_runtime.h</text>
</a>
</g>
</g>
<!-- Node23&#45;&gt;Node24 -->
<g id="edge29" class="edge">
<title>Node23&#45;&gt;Node24</title>
<path fill="none" stroke="#191970" d="M553.8231,-56.3733C527.1672,-47.1016 486.6762,-33.0178 457.3116,-22.804"/>
<polygon fill="#191970" stroke="#191970" points="458.4105,-19.4807 447.8157,-19.5011 456.1109,-26.0921 458.4105,-19.4807"/>
</g>
<!-- Node25 -->
<g id="node26" class="node">
<title>Node25</title>
<g id="a_node26"><a xlink:title=" ">
<polygon fill="#ffffff" stroke="#bfbfbf" points="481,-.5 481,-19.5 528,-19.5 528,-.5 481,-.5"/>
<text text-anchor="middle" x="504.5" y="-7.5" font-family="Helvetica,sans-Serif" font-size="10.00" fill="#000000">cuda.h</text>
</a>
</g>
</g>
<!-- Node23&#45;&gt;Node25 -->
<g id="edge30" class="edge">
<title>Node23&#45;&gt;Node25</title>
<path fill="none" stroke="#191970" d="M568.0876,-56.2455C556.4943,-47.814 539.5252,-35.4729 526.0322,-25.6598"/>
<polygon fill="#191970" stroke="#191970" points="527.9047,-22.6938 517.7587,-19.6427 523.7874,-28.355 527.9047,-22.6938"/>
</g>
<!-- Node26 -->
<g id="node27" class="node">
<title>Node26</title>
<g id="a_node27"><a xlink:title=" ">
<polygon fill="#ffffff" stroke="#bfbfbf" points="546.5,-.5 546.5,-19.5 616.5,-19.5 616.5,-.5 546.5,-.5"/>
<text text-anchor="middle" x="581.5" y="-7.5" font-family="Helvetica,sans-Serif" font-size="10.00" fill="#000000">cublas_v2.h</text>
</a>
</g>
</g>
<!-- Node23&#45;&gt;Node26 -->
<g id="edge31" class="edge">
<title>Node23&#45;&gt;Node26</title>
<path fill="none" stroke="#191970" d="M581.5,-56.2455C581.5,-48.9382 581.5,-38.6944 581.5,-29.7046"/>
<polygon fill="#191970" stroke="#191970" points="585.0001,-29.6426 581.5,-19.6427 578.0001,-29.6427 585.0001,-29.6426"/>
</g>
<!-- Node27 -->
<g id="node28" class="node">
<title>Node27</title>
<g id="a_node28"><a xlink:title=" ">
<polygon fill="#ffffff" stroke="#bfbfbf" points="635,-.5 635,-19.5 698,-19.5 698,-.5 635,-.5"/>
<text text-anchor="middle" x="666.5" y="-7.5" font-family="Helvetica,sans-Serif" font-size="10.00" fill="#000000">cublasXt.h</text>
</a>
</g>
</g>
<!-- Node23&#45;&gt;Node27 -->
<g id="edge32" class="edge">
<title>Node23&#45;&gt;Node27</title>
<path fill="none" stroke="#191970" d="M596.3059,-56.2455C609.2256,-47.7337 628.1931,-35.2375 643.1552,-25.3801"/>
<polygon fill="#191970" stroke="#191970" points="645.4387,-28.067 651.8638,-19.6427 641.5876,-22.2216 645.4387,-28.067"/>
</g>
<!-- Node28 -->
<g id="node29" class="node">
<title>Node28</title>
<g id="a_node29"><a xlink:title=" ">
<polygon fill="#ffffff" stroke="#bfbfbf" points="716.5,-.5 716.5,-19.5 818.5,-19.5 818.5,-.5 716.5,-.5"/>
<text text-anchor="middle" x="767.5" y="-7.5" font-family="Helvetica,sans-Serif" font-size="10.00" fill="#000000">cuda_profiler_api.h</text>
</a>
</g>
</g>
<!-- Node23&#45;&gt;Node28 -->
<g id="edge33" class="edge">
<title>Node23&#45;&gt;Node28</title>
<path fill="none" stroke="#191970" d="M613.4745,-56.3733C644.6713,-46.9807 692.271,-32.6496 726.2932,-22.4064"/>
<polygon fill="#191970" stroke="#191970" points="727.3763,-25.7355 735.9427,-19.5011 725.3582,-19.0327 727.3763,-25.7355"/>
</g>
<!-- Node29 -->
<g id="node30" class="node">
<title>Node29</title>
<g id="a_node30"><a xlink:title=" ">
<polygon fill="#ffffff" stroke="#bfbfbf" points="836.5,-.5 836.5,-19.5 910.5,-19.5 910.5,-.5 836.5,-.5"/>
<text text-anchor="middle" x="873.5" y="-7.5" font-family="Helvetica,sans-Serif" font-size="10.00" fill="#000000">nvToolsExt.h</text>
</a>
</g>
</g>
<!-- Node23&#45;&gt;Node29 -->
<g id="edge34" class="edge">
<title>Node23&#45;&gt;Node29</title>
<path fill="none" stroke="#191970" d="M619.9166,-59.175C666.3936,-50.8389 747.2691,-36.0813 826.2427,-20.2126"/>
<polygon fill="#191970" stroke="#191970" points="827.2523,-23.5795 836.3625,-18.1708 825.8678,-16.7178 827.2523,-23.5795"/>
</g>
<!-- Node30 -->
<g id="node31" class="node">
<title>Node30</title>
<g id="a_node31"><a xlink:title=" ">
<polygon fill="#ffffff" stroke="#bfbfbf" points="0,-.5 0,-19.5 75,-19.5 75,-.5 0,-.5"/>
<text text-anchor="middle" x="37.5" y="-7.5" font-family="Helvetica,sans-Serif" font-size="10.00" fill="#000000">cuComplex.h</text>
</a>
</g>
</g>
<!-- Node23&#45;&gt;Node30 -->
<g id="edge35" class="edge">
<title>Node23&#45;&gt;Node30</title>
<path fill="none" stroke="#191970" d="M543.2803,-63.9957C461.2524,-59.3649 262.122,-46.3633 85.1512,-19.9283"/>
<polygon fill="#191970" stroke="#191970" points="85.5496,-16.4488 75.1387,-18.4145 84.5032,-23.3702 85.5496,-16.4488"/>
</g>
<!-- Node31 -->
<g id="node32" class="node">
<title>Node31</title>
<g id="a_node32"><a xlink:title=" ">
<polygon fill="#ffffff" stroke="#bfbfbf" points="93.5,-.5 93.5,-19.5 155.5,-19.5 155.5,-.5 93.5,-.5"/>
<text text-anchor="middle" x="124.5" y="-7.5" font-family="Helvetica,sans-Serif" font-size="10.00" fill="#000000">execinfo.h</text>
</a>
</g>
</g>
<!-- Node23&#45;&gt;Node31 -->
<g id="edge36" class="edge">
<title>Node23&#45;&gt;Node31</title>
<path fill="none" stroke="#191970" d="M543.3057,-63.5212C471.2688,-58.4724 310.3085,-45.4143 165.7907,-20.0337"/>
<polygon fill="#191970" stroke="#191970" points="166.315,-16.572 155.8563,-18.2646 165.0878,-23.4636 166.315,-16.572"/>
</g>
<!-- Node32 -->
<g id="node33" class="node">
<title>Node32</title>
<g id="a_node33"><a xlink:title=" ">
<polygon fill="#ffffff" stroke="#bfbfbf" points="173.5,-.5 173.5,-19.5 225.5,-19.5 225.5,-.5 173.5,-.5"/>
<text text-anchor="middle" x="199.5" y="-7.5" font-family="Helvetica,sans-Serif" font-size="10.00" fill="#000000">unistd.h</text>
</a>
</g>
</g>
<!-- Node23&#45;&gt;Node32 -->
<g id="edge37" class="edge">
<title>Node23&#45;&gt;Node32</title>
<path fill="none" stroke="#191970" d="M543.454,-62.7957C481.0267,-57.14 352.8683,-43.8605 235.6304,-19.9908"/>
<polygon fill="#191970" stroke="#191970" points="236.2719,-16.5495 225.7704,-17.9525 234.8548,-23.4045 236.2719,-16.5495"/>
</g>
<!-- Node33 -->
<g id="node34" class="node">
<title>Node33</title>
<g id="a_node34"><a xlink:title=" ">
<polygon fill="#ffffff" stroke="#bfbfbf" points="244,-.5 244,-19.5 295,-19.5 295,-.5 244,-.5"/>
<text text-anchor="middle" x="269.5" y="-7.5" font-family="Helvetica,sans-Serif" font-size="10.00" fill="#000000">signal.h</text>
</a>
</g>
</g>
<!-- Node23&#45;&gt;Node33 -->
<g id="edge38" class="edge">
<title>Node23&#45;&gt;Node33</title>
<path fill="none" stroke="#191970" d="M543.1485,-61.0375C491.3263,-54.0248 395.9266,-40.033 304.9525,-19.8836"/>
<polygon fill="#191970" stroke="#191970" points="305.5516,-16.4311 295.0279,-17.6565 304.0189,-23.2612 305.5516,-16.4311"/>
</g>
<!-- Node34 -->
<g id="node35" class="node">
<title>Node34</title>
<g id="a_node35"><a xlink:title=" ">
<polygon fill="#ffffff" stroke="#bfbfbf" points="313.5,-.5 313.5,-19.5 359.5,-19.5 359.5,-.5 313.5,-.5"/>
<text text-anchor="middle" x="336.5" y="-7.5" font-family="Helvetica,sans-Serif" font-size="10.00" fill="#000000">stdio.h</text>
</a>
</g>
</g>
<!-- Node23&#45;&gt;Node34 -->
<g id="edge42" class="edge">
<title>Node23&#45;&gt;Node34</title>
<path fill="none" stroke="#191970" d="M543.1613,-58.8029C502.3349,-50.9 435.6629,-37.3127 369.2879,-20.0355"/>
<polygon fill="#191970" stroke="#191970" points="370.0616,-16.62 359.5001,-17.4598 368.2801,-23.3895 370.0616,-16.62"/>
</g>
<!-- Node35&#45;&gt;Node5 -->
<g id="edge44" class="edge">
<title>Node35&#45;&gt;Node5</title>
<path fill="none" stroke="#191970" d="M1391.9323,-56.2455C1390.7579,-48.9382 1389.1116,-38.6944 1387.6668,-29.7046"/>
<polygon fill="#191970" stroke="#191970" points="1391.0922,-28.9606 1386.0497,-19.6427 1384.1809,-30.0714 1391.0922,-28.9606"/>
</g>
<!-- Node35&#45;&gt;Node22 -->
<g id="edge45" class="edge">
<title>Node35&#45;&gt;Node22</title>
<path fill="none" stroke="#191970" d="M1429.4935,-56.4298C1461.7406,-47.8052 1510.5692,-34.6224 1562.0036,-20.1026"/>
<polygon fill="#191970" stroke="#191970" points="1562.9657,-23.4678 1571.6344,-17.3766 1561.0592,-16.7324 1562.9657,-23.4678"/>
</g>
<!-- Node37 -->
<g id="node38" class="node">
<title>Node37</title>
<g id="a_node38"><a xlink:href="../../d4/d32/communicator_8hpp.html" target="_top" xlink:title="Contains declaration and implementation of sddk::Communicator class.">
<polygon fill="#ffffff" stroke="#000000" points="1612,-56.5 1612,-75.5 1711,-75.5 1711,-56.5 1612,-56.5"/>
<text text-anchor="middle" x="1661.5" y="-63.5" font-family="Helvetica,sans-Serif" font-size="10.00" fill="#000000">communicator.hpp</text>
</a>
</g>
</g>
<!-- Node36&#45;&gt;Node37 -->
<g id="edge48" class="edge">
<title>Node36&#45;&gt;Node37</title>
<path fill="none" stroke="#191970" d="M1648.287,-112.2455C1650.3977,-104.8579 1653.366,-94.4689 1655.9547,-85.4087"/>
<polygon fill="#191970" stroke="#191970" points="1659.363,-86.2195 1658.745,-75.6427 1652.6323,-84.2964 1659.363,-86.2195"/>
</g>
<!-- Node37&#45;&gt;Node6 -->
<g id="edge51" class="edge">
<title>Node37&#45;&gt;Node6</title>
<path fill="none" stroke="#191970" d="M1661.5,-56.2455C1661.5,-48.9382 1661.5,-38.6944 1661.5,-29.7046"/>
<polygon fill="#191970" stroke="#191970" points="1665.0001,-29.6426 1661.5,-19.6427 1658.0001,-29.6427 1665.0001,-29.6426"/>
</g>
<!-- Node37&#45;&gt;Node8 -->
<g id="edge57" class="edge">
<title>Node37&#45;&gt;Node8</title>
<path fill="none" stroke="#191970" d="M1611.8403,-57.3487C1609.0199,-56.8851 1606.2247,-56.4326 1603.5,-56 1496.6154,-39.0311 1465.8363,-44.3588 1356.5606,-19.9617"/>
<polygon fill="#191970" stroke="#191970" points="1357.3281,-16.547 1346.802,-17.7515 1355.7818,-23.374 1357.3281,-16.547"/>
</g>
<!-- Node37&#45;&gt;Node14 -->
<g id="edge58" class="edge">
<title>Node37&#45;&gt;Node14</title>
<path fill="none" stroke="#191970" d="M1683.1602,-56.3733C1704.4622,-46.9057 1737.0541,-32.4204 1760.1361,-22.1617"/>
<polygon fill="#191970" stroke="#191970" points="1761.6688,-25.3107 1769.3855,-18.0509 1758.8258,-18.914 1761.6688,-25.3107"/>
</g>
<!-- Node37&#45;&gt;Node18 -->
<g id="edge55" class="edge">
<title>Node37&#45;&gt;Node18</title>
<path fill="none" stroke="#191970" d="M1711.242,-61.8525C1778.5982,-55.7388 1902.6522,-42.7213 2017.8205,-19.8773"/>
<polygon fill="#191970" stroke="#191970" points="2018.7538,-23.2598 2027.8663,-17.8548 2017.3722,-16.3975 2018.7538,-23.2598"/>
</g>
<!-- Node37&#45;&gt;Node19 -->
<g id="edge54" class="edge">
<title>Node37&#45;&gt;Node19</title>
<path fill="none" stroke="#191970" d="M1637.9489,-56.3733C1615.6609,-47.2629 1582.0063,-33.5062 1557.1363,-23.3404"/>
<polygon fill="#191970" stroke="#191970" points="1558.3247,-20.0451 1547.7438,-19.5011 1555.6761,-26.5247 1558.3247,-20.0451"/>
</g>
<!-- Node37&#45;&gt;Node20 -->
<g id="edge56" class="edge">
<title>Node37&#45;&gt;Node20</title>
<path fill="none" stroke="#191970" d="M1711.0031,-59.3494C1765.2547,-51.7372 1855.0248,-38.1939 1941.1665,-20.1376"/>
<polygon fill="#191970" stroke="#191970" points="1942.051,-23.5279 1951.1076,-18.0299 1940.5991,-16.6802 1942.051,-23.5279"/>
</g>
<!-- Node37&#45;&gt;Node21 -->
<g id="edge52" class="edge">
<title>Node37&#45;&gt;Node21</title>
<path fill="none" stroke="#191970" d="M1624.3738,-56.4725C1590.8131,-47.8208 1539.7935,-34.5719 1486.5738,-20.2629"/>
<polygon fill="#191970" stroke="#191970" points="1487.1809,-16.8017 1476.6146,-17.5797 1485.3598,-23.5607 1487.1809,-16.8017"/>
</g>
<!-- Node37&#45;&gt;Node22 -->
<g id="edge50" class="edge">
<title>Node37&#45;&gt;Node22</title>
<path fill="none" stroke="#191970" d="M1650.1779,-56.2455C1640.5777,-47.9746 1626.6108,-35.9416 1615.3305,-26.2232"/>
<polygon fill="#191970" stroke="#191970" points="1617.553,-23.5182 1607.6924,-19.6427 1612.984,-28.8214 1617.553,-23.5182"/>
</g>
<!-- Node38 -->
<g id="node39" class="node">
<title>Node38</title>
<g id="a_node39"><a xlink:title=" ">
<polygon fill="#ffffff" stroke="#bfbfbf" points="2099,-.5 2099,-19.5 2140,-19.5 2140,-.5 2099,-.5"/>
<text text-anchor="middle" x="2119.5" y="-7.5" font-family="Helvetica,sans-Serif" font-size="10.00" fill="#000000">mpi.h</text>
</a>
</g>
</g>
<!-- Node37&#45;&gt;Node38 -->
<g id="edge49" class="edge">
<title>Node37&#45;&gt;Node38</title>
<path fill="none" stroke="#191970" d="M1711.1963,-62.0871C1804.3719,-54.5266 2002.9875,-37.2946 2088.8546,-19.9025"/>
<polygon fill="#191970" stroke="#191970" points="2089.7081,-23.2992 2098.7527,-17.7814 2088.2412,-16.4546 2089.7081,-23.2992"/>
</g>
<!-- Node39 -->
<g id="node40" class="node">
<title>Node39</title>
<g id="a_node40"><a xlink:title=" ">
<polygon fill="#ffffff" stroke="#bfbfbf" points="1702,-.5 1702,-19.5 1751,-19.5 1751,-.5 1702,-.5"/>
<text text-anchor="middle" x="1726.5" y="-7.5" font-family="Helvetica,sans-Serif" font-size="10.00" fill="#000000">cstdarg</text>
</a>
</g>
</g>
<!-- Node37&#45;&gt;Node39 -->
<g id="edge53" class="edge">
<title>Node37&#45;&gt;Node39</title>
<path fill="none" stroke="#191970" d="M1672.8221,-56.2455C1682.4223,-47.9746 1696.3892,-35.9416 1707.6695,-26.2232"/>
<polygon fill="#191970" stroke="#191970" points="1710.016,-28.8214 1715.3076,-19.6427 1705.447,-23.5182 1710.016,-28.8214"/>
</g>
<!-- Node40&#45;&gt;Node6 -->
<g id="edge61" class="edge">
<title>Node40&#45;&gt;Node6</title>
<path fill="none" stroke="#191970" d="M1878.6748,-57.76C1875.9097,-57.1586 1873.1615,-56.5663 1870.5,-56 1791.9807,-39.292 1771.2464,-39.9985 1693.5,-20 1693.4014,-19.9746 1693.3026,-19.9491 1693.2036,-19.9235"/>
<polygon fill="#191970" stroke="#191970" points="1694.3696,-16.6155 1683.796,-17.287 1692.4805,-23.3558 1694.3696,-16.6155"/>
</g>
<!-- Node40&#45;&gt;Node11 -->
<g id="edge62" class="edge">
<title>Node40&#45;&gt;Node11</title>
<path fill="none" stroke="#191970" d="M1904.0037,-56.2455C1894.2558,-47.9746 1880.0741,-35.9416 1868.6202,-26.2232"/>
<polygon fill="#191970" stroke="#191970" points="1870.7541,-23.4437 1860.8646,-19.6427 1866.2253,-28.7813 1870.7541,-23.4437"/>
</g>
<!-- Node40&#45;&gt;Node20 -->
<g id="edge60" class="edge">
<title>Node40&#45;&gt;Node20</title>
<path fill="none" stroke="#191970" d="M1926.8221,-56.2455C1936.4223,-47.9746 1950.3892,-35.9416 1961.6695,-26.2232"/>
<polygon fill="#191970" stroke="#191970" points="1964.016,-28.8214 1969.3076,-19.6427 1959.447,-23.5182 1964.016,-28.8214"/>
</g>
<!-- Node40&#45;&gt;Node22 -->
<g id="edge64" class="edge">
<title>Node40&#45;&gt;Node22</title>
<path fill="none" stroke="#191970" d="M1878.7059,-57.6042C1875.9336,-57.0388 1873.1752,-56.4973 1870.5,-56 1767.5631,-36.8664 1737.5639,-42.8857 1631.1301,-19.8791"/>
<polygon fill="#191970" stroke="#191970" points="1631.7984,-16.4425 1621.2803,-17.7152 1630.2964,-23.2795 1631.7984,-16.4425"/>
</g>
<!-- Node41 -->
<g id="node42" class="node">
<title>Node41</title>
<g id="a_node42"><a xlink:title=" ">
<polygon fill="#ffffff" stroke="#bfbfbf" points="1894,-.5 1894,-19.5 1933,-19.5 1933,-.5 1894,-.5"/>
<text text-anchor="middle" x="1913.5" y="-7.5" font-family="Helvetica,sans-Serif" font-size="10.00" fill="#000000">limits</text>
</a>
</g>
</g>
<!-- Node40&#45;&gt;Node41 -->
<g id="edge63" class="edge">
<title>Node40&#45;&gt;Node41</title>
<path fill="none" stroke="#191970" d="M1915.1516,-56.2455C1914.8907,-48.9382 1914.5248,-38.6944 1914.2037,-29.7046"/>
<polygon fill="#191970" stroke="#191970" points="1917.6992,-29.5113 1913.8444,-19.6427 1910.7036,-29.7613 1917.6992,-29.5113"/>
</g>
<!-- Node42&#45;&gt;Node38 -->
<g id="edge66" class="edge">
<title>Node42&#45;&gt;Node38</title>
<path fill="none" stroke="#191970" d="M2090.7969,-112.1763C2096.306,-103.1288 2104.0966,-89.1545 2108.5,-76 2113.5702,-60.8535 2116.3672,-42.9376 2117.8703,-29.5967"/>
<polygon fill="#191970" stroke="#191970" points="2121.3551,-29.9221 2118.85,-19.6277 2114.3887,-29.2374 2121.3551,-29.9221"/>
</g>
<!-- Node43 -->
<g id="node44" class="node">
<title>Node43</title>
<g id="a_node44"><a xlink:title=" ">
<polygon fill="#ffffff" stroke="#bfbfbf" points="2296,-.5 2296,-19.5 2337,-19.5 2337,-.5 2296,-.5"/>
<text text-anchor="middle" x="2316.5" y="-7.5" font-family="Helvetica,sans-Serif" font-size="10.00" fill="#000000">string</text>
</a>
</g>
</g>
<!-- Node42&#45;&gt;Node43 -->
<g id="edge67" class="edge">
<title>Node42&#45;&gt;Node43</title>
<path fill="none" stroke="#191970" d="M2104.2802,-112.4509C2145.2864,-92.6548 2239.7198,-47.0663 2287.5751,-23.9638"/>
<polygon fill="#191970" stroke="#191970" points="2289.286,-27.0244 2296.7699,-19.5249 2286.2427,-20.7205 2289.286,-27.0244"/>
</g>
<!-- Node44 -->
<g id="node45" class="node">
<title>Node44</title>
<g id="a_node45"><a xlink:href="../../df/d05/timer_8hpp.html" target="_top" xlink:title="Implementation of utils::timer class.">
<polygon fill="#ffffff" stroke="#000000" points="2008.5,-56.5 2008.5,-75.5 2066.5,-75.5 2066.5,-56.5 2008.5,-56.5"/>
<text text-anchor="middle" x="2037.5" y="-63.5" font-family="Helvetica,sans-Serif" font-size="10.00" fill="#000000">timer.hpp</text>
</a>
</g>
</g>
<!-- Node42&#45;&gt;Node44 -->
<g id="edge68" class="edge">
<title>Node42&#45;&gt;Node44</title>
<path fill="none" stroke="#191970" d="M2076.3132,-112.2455C2069.6411,-104.2958 2060.0521,-92.8706 2052.0747,-83.3656"/>
<polygon fill="#191970" stroke="#191970" points="2054.7026,-81.0524 2045.593,-75.6427 2049.3408,-85.5525 2054.7026,-81.0524"/>
</g>
<!-- Node44&#45;&gt;Node6 -->
<g id="edge73" class="edge">
<title>Node44&#45;&gt;Node6</title>
<path fill="none" stroke="#191970" d="M2008.3365,-62.1671C1926.6793,-51.4264 1701.2029,-21.7056 1693.5,-20 1693.4005,-19.978 1693.301,-19.9558 1693.2012,-19.9334"/>
<polygon fill="#191970" stroke="#191970" points="1694.3073,-16.6045 1683.749,-17.4835 1692.551,-23.3806 1694.3073,-16.6045"/>
</g>
<!-- Node44&#45;&gt;Node11 -->
<g id="edge70" class="edge">
<title>Node44&#45;&gt;Node11</title>
<path fill="none" stroke="#191970" d="M2008.125,-57.25C1975.0394,-47.3947 1921.2511,-31.3727 1885.6231,-20.7601"/>
<polygon fill="#191970" stroke="#191970" points="1886.2236,-17.287 1875.6406,-17.7866 1884.2253,-23.9957 1886.2236,-17.287"/>
</g>
<!-- Node44&#45;&gt;Node14 -->
<g id="edge72" class="edge">
<title>Node44&#45;&gt;Node14</title>
<path fill="none" stroke="#191970" d="M2008.2932,-61.4269C1967.2062,-54.6821 1889.9153,-40.8559 1815.656,-20.0073"/>
<polygon fill="#191970" stroke="#191970" points="1816.2523,-16.5378 1805.6756,-17.1567 1814.3298,-23.2686 1816.2523,-16.5378"/>
</g>
<!-- Node44&#45;&gt;Node18 -->
<g id="edge74" class="edge">
<title>Node44&#45;&gt;Node18</title>
<path fill="none" stroke="#191970" d="M2040.4612,-56.2455C2042.7038,-48.8579 2045.8577,-38.4689 2048.6081,-29.4087"/>
<polygon fill="#191970" stroke="#191970" points="2052.017,-30.2282 2051.5728,-19.6427 2045.3188,-28.1948 2052.017,-30.2282"/>
</g>
<!-- Node44&#45;&gt;Node20 -->
<g id="edge76" class="edge">
<title>Node44&#45;&gt;Node20</title>
<path fill="none" stroke="#191970" d="M2027.5714,-56.2455C2019.3162,-48.1352 2007.3791,-36.4075 1997.5918,-26.7919"/>
<polygon fill="#191970" stroke="#191970" points="1999.9011,-24.1542 1990.3149,-19.6427 1994.9954,-29.1476 1999.9011,-24.1542"/>
</g>
<!-- Node44&#45;&gt;Node21 -->
<g id="edge75" class="edge">
<title>Node44&#45;&gt;Node21</title>
<path fill="none" stroke="#191970" d="M2008.3117,-61.7751C1994.1935,-59.8299 1976.9878,-57.6034 1961.5,-56 1753.7655,-34.4944 1696.2722,-55.8765 1486.9736,-19.9574"/>
<polygon fill="#191970" stroke="#191970" points="1487.343,-16.4692 1476.891,-18.2033 1486.1431,-23.3656 1487.343,-16.4692"/>
</g>
<!-- Node44&#45;&gt;Node43 -->
<g id="edge69" class="edge">
<title>Node44&#45;&gt;Node43</title>
<path fill="none" stroke="#191970" d="M2066.5408,-61.9761C2111.5585,-55.4506 2200.9987,-41.3393 2286.1344,-19.7911"/>
<polygon fill="#191970" stroke="#191970" points="2287.1419,-23.146 2295.9557,-17.2666 2285.3992,-16.3664 2287.1419,-23.146"/>
</g>
<!-- Node45 -->
<g id="node46" class="node">
<title>Node45</title>
<g id="a_node46"><a xlink:title=" ">
<polygon fill="#ffffff" stroke="#bfbfbf" points="2158,-.5 2158,-19.5 2205,-19.5 2205,-.5 2158,-.5"/>
<text text-anchor="middle" x="2181.5" y="-7.5" font-family="Helvetica,sans-Serif" font-size="10.00" fill="#000000">chrono</text>
</a>
</g>
</g>
<!-- Node44&#45;&gt;Node45 -->
<g id="edge71" class="edge">
<title>Node44&#45;&gt;Node45</title>
<path fill="none" stroke="#191970" d="M2062.2545,-56.3733C2085.9275,-47.1671 2121.8004,-33.2165 2148.0175,-23.021"/>
<polygon fill="#191970" stroke="#191970" points="2149.4956,-26.2016 2157.547,-19.315 2146.9584,-19.6775 2149.4956,-26.2016"/>
</g>
<!-- Node46 -->
<g id="node47" class="node">
<title>Node46</title>
<g id="a_node47"><a xlink:title=" ">
<polygon fill="#ffffff" stroke="#bfbfbf" points="2223.5,-.5 2223.5,-19.5 2277.5,-19.5 2277.5,-.5 2223.5,-.5"/>
<text text-anchor="middle" x="2250.5" y="-7.5" font-family="Helvetica,sans-Serif" font-size="10.00" fill="#000000">json.hpp</text>
</a>
</g>
</g>
<!-- Node44&#45;&gt;Node46 -->
<g id="edge77" class="edge">
<title>Node44&#45;&gt;Node46</title>
<path fill="none" stroke="#191970" d="M2066.6674,-58.5787C2099.8636,-50.0975 2155.9615,-35.6608 2213.4072,-20.2645"/>
<polygon fill="#191970" stroke="#191970" points="2214.6369,-23.5583 2223.3865,-17.5837 2212.8208,-16.798 2214.6369,-23.5583"/>
</g>
</g>
</svg>
