<?xml version="1.0" encoding="UTF-8" standalone="no"?>
<!DOCTYPE svg PUBLIC "-//W3C//DTD SVG 1.1//EN"
 "http://www.w3.org/Graphics/SVG/1.1/DTD/svg11.dtd">
<!-- Generated by graphviz version 2.40.1 (20161225.0304)
 -->
<!-- Title: sirius::Real_space_prj Pages: 1 -->
<svg width="1054pt" height="1031pt"
 viewBox="0.00 0.00 1054.00 1031.00" xmlns="http://www.w3.org/2000/svg" xmlns:xlink="http://www.w3.org/1999/xlink">
<g id="graph0" class="graph" transform="scale(1 1) rotate(0) translate(4 1027)">
<title>sirius::Real_space_prj</title>
<polygon fill="#ffffff" stroke="transparent" points="-4,4 -4,-1027 1050,-1027 1050,4 -4,4"/>
<!-- Node1 -->
<g id="node1" class="node">
<title>Node1</title>
<polygon fill="#bfbfbf" stroke="#000000" points="956,-665.5 956,-684.5 1046,-684.5 1046,-665.5 956,-665.5"/>
<text text-anchor="middle" x="1001" y="-672.5" font-family="Helvetica,sans-Serif" font-size="10.00" fill="#000000">sirius::Real_space_prj</text>
</g>
<!-- Node2 -->
<g id="node2" class="node">
<title>Node2</title>
<g id="a_node2"><a xlink:href="../../d5/d6b/classsirius_1_1_spline.html" target="_top" xlink:title="sirius::Spline\&lt; double \&gt;">
<polygon fill="#ffffff" stroke="#000000" points="341,-955.5 341,-974.5 435,-974.5 435,-955.5 341,-955.5"/>
<text text-anchor="middle" x="388" y="-962.5" font-family="Helvetica,sans-Serif" font-size="10.00" fill="#000000">sirius::Spline&lt; double &gt;</text>
</a>
</g>
</g>
<!-- Node2&#45;&gt;Node1 -->
<g id="edge1" class="edge">
<title>Node2&#45;&gt;Node1</title>
<path fill="none" stroke="#9a32cd" stroke-dasharray="5,2" d="M445.5487,-962.2644C499.7938,-958.0419 582.4611,-947.304 649,-920 800.1974,-857.9567 950.8955,-722.1908 990.7944,-684.7375"/>
<polygon fill="#9a32cd" stroke="#9a32cd" points="445.1457,-958.7844 435.4267,-963.0023 445.6547,-965.7659 445.1457,-958.7844"/>
<text text-anchor="middle" x="710" y="-914" font-family="Helvetica,sans-Serif" font-size="10.00" fill="#000000"> mask_spline_</text>
</g>
<!-- Node5 -->
<g id="node5" class="node">
<title>Node5</title>
<g id="a_node5"><a xlink:href="../../d0/d58/classsddk_1_1mdarray__base.html" target="_top" xlink:title="sddk::mdarray_base\l\&lt; sirius::Spline\&lt; double\l \&gt;, N \&gt;">
<polygon fill="#ffffff" stroke="#000000" points="552,-981.5 552,-1022.5 646,-1022.5 646,-981.5 552,-981.5"/>
<text text-anchor="start" x="560" y="-1010.5" font-family="Helvetica,sans-Serif" font-size="10.00" fill="#000000">sddk::mdarray_base</text>
<text text-anchor="start" x="560" y="-999.5" font-family="Helvetica,sans-Serif" font-size="10.00" fill="#000000">&lt; sirius::Spline&lt; double</text>
<text text-anchor="middle" x="599" y="-988.5" font-family="Helvetica,sans-Serif" font-size="10.00" fill="#000000"> &gt;, N &gt;</text>
</a>
</g>
</g>
<!-- Node2&#45;&gt;Node5 -->
<g id="edge5" class="edge">
<title>Node2&#45;&gt;Node5</title>
<path fill="none" stroke="#9a32cd" stroke-dasharray="5,2" d="M445.1647,-975.0241C478.5452,-980.8776 520.162,-988.1753 551.6896,-993.7039"/>
<polygon fill="#9a32cd" stroke="#9a32cd" points="445.5442,-971.5374 435.0899,-973.2575 444.3351,-978.4321 445.5442,-971.5374"/>
<text text-anchor="middle" x="492" y="-1004" font-family="Helvetica,sans-Serif" font-size="10.00" fill="#000000"> raw_ptr_device_</text>
<text text-anchor="middle" x="492" y="-993" font-family="Helvetica,sans-Serif" font-size="10.00" fill="#000000">raw_ptr_</text>
</g>
<!-- Node3 -->
<g id="node3" class="node">
<title>Node3</title>
<g id="a_node3"><a xlink:href="../../d9/dbf/classsirius_1_1_radial__grid.html" target="_top" xlink:title="sirius::Radial_grid\l\&lt; double \&gt;">
<polygon fill="#ffffff" stroke="#000000" points="138,-950 138,-980 214,-980 214,-950 138,-950"/>
<text text-anchor="start" x="146" y="-968" font-family="Helvetica,sans-Serif" font-size="10.00" fill="#000000">sirius::Radial_grid</text>
<text text-anchor="middle" x="176" y="-957" font-family="Helvetica,sans-Serif" font-size="10.00" fill="#000000">&lt; double &gt;</text>
</a>
</g>
</g>
<!-- Node3&#45;&gt;Node2 -->
<g id="edge2" class="edge">
<title>Node3&#45;&gt;Node2</title>
<path fill="none" stroke="#191970" d="M224.7885,-965C259.59,-965 306.1388,-965 340.6179,-965"/>
<polygon fill="#191970" stroke="#191970" points="224.3916,-961.5001 214.3916,-965 224.3916,-968.5001 224.3916,-961.5001"/>
</g>
<!-- Node4 -->
<g id="node4" class="node">
<title>Node4</title>
<g id="a_node4"><a xlink:href="../../d7/dab/classsddk_1_1mdarray.html" target="_top" xlink:title="sddk::mdarray\&lt; sirius\l::Spline\&lt; double \&gt;, 2 \&gt;">
<polygon fill="#ffffff" stroke="#000000" points="771,-983 771,-1013 863,-1013 863,-983 771,-983"/>
<text text-anchor="start" x="779" y="-1001" font-family="Helvetica,sans-Serif" font-size="10.00" fill="#000000">sddk::mdarray&lt; sirius</text>
<text text-anchor="middle" x="817" y="-990" font-family="Helvetica,sans-Serif" font-size="10.00" fill="#000000">::Spline&lt; double &gt;, 2 &gt;</text>
</a>
</g>
</g>
<!-- Node4&#45;&gt;Node1 -->
<g id="edge3" class="edge">
<title>Node4&#45;&gt;Node1</title>
<path fill="none" stroke="#9a32cd" stroke-dasharray="5,2" d="M873.1075,-996.1715C896.1181,-992.5481 921.2333,-984.4216 938,-967 978.5473,-924.8689 996.5442,-730.3943 1000.257,-684.6527"/>
<polygon fill="#9a32cd" stroke="#9a32cd" points="872.5188,-992.7188 863.0641,-997.4998 873.4367,-999.6584 872.5188,-992.7188"/>
<text text-anchor="middle" x="909.5" y="-997" font-family="Helvetica,sans-Serif" font-size="10.00" fill="#000000"> beta_rf_filtered_</text>
</g>
<!-- Node5&#45;&gt;Node4 -->
<g id="edge4" class="edge">
<title>Node5&#45;&gt;Node4</title>
<path fill="none" stroke="#191970" d="M656.3099,-1000.9484C692.0301,-1000.293 737.3879,-999.4608 770.7985,-998.8477"/>
<polygon fill="#191970" stroke="#191970" points="655.9684,-997.454 646.0344,-1001.137 656.0969,-1004.4528 655.9684,-997.454"/>
</g>
<!-- Node6 -->
<g id="node6" class="node">
<title>Node6</title>
<g id="a_node6"><a xlink:href="../../d2/dc9/classsddk_1_1splindex.html" target="_top" xlink:title="sddk::splindex\&lt; block \&gt;">
<polygon fill="#ffffff" stroke="#000000" points="552,-385.5 552,-404.5 646,-404.5 646,-385.5 552,-385.5"/>
<text text-anchor="middle" x="599" y="-392.5" font-family="Helvetica,sans-Serif" font-size="10.00" fill="#000000">sddk::splindex&lt; block &gt;</text>
</a>
</g>
</g>
<!-- Node6&#45;&gt;Node1 -->
<g id="edge6" class="edge">
<title>Node6&#45;&gt;Node1</title>
<path fill="none" stroke="#9a32cd" stroke-dasharray="5,2" d="M656.4479,-391.7335C686.5725,-392.248 723.2836,-396.5078 753,-411 878.195,-472.0553 972.4043,-625.0948 995.5229,-665.2348"/>
<polygon fill="#9a32cd" stroke="#9a32cd" points="656.1018,-388.2324 646.0895,-391.6971 656.0771,-395.2323 656.1018,-388.2324"/>
<text text-anchor="middle" x="817" y="-494" font-family="Helvetica,sans-Serif" font-size="10.00" fill="#000000"> spl_num_gvec_</text>
</g>
<!-- Node20 -->
<g id="node20" class="node">
<title>Node20</title>
<g id="a_node20"><a xlink:href="../../d6/dd1/classsirius_1_1_unit__cell.html" target="_top" xlink:title="Representation of a unit cell. ">
<polygon fill="#ffffff" stroke="#000000" points="783.5,-312.5 783.5,-331.5 850.5,-331.5 850.5,-312.5 783.5,-312.5"/>
<text text-anchor="middle" x="817" y="-319.5" font-family="Helvetica,sans-Serif" font-size="10.00" fill="#000000">sirius::Unit_cell</text>
</a>
</g>
</g>
<!-- Node6&#45;&gt;Node20 -->
<g id="edge24" class="edge">
<title>Node6&#45;&gt;Node20</title>
<path fill="none" stroke="#9a32cd" stroke-dasharray="5,2" d="M614.5537,-377.6269C627.2812,-364.6443 646.4769,-347.6985 667,-339 704.6435,-323.0452 752.1097,-320.2225 783.4487,-320.4519"/>
<polygon fill="#9a32cd" stroke="#9a32cd" points="611.8294,-375.4142 607.511,-385.089 616.9201,-380.2188 611.8294,-375.4142"/>
<text text-anchor="middle" x="710" y="-375" font-family="Helvetica,sans-Serif" font-size="10.00" fill="#000000"> spl_num_paw_atoms_</text>
<text text-anchor="middle" x="710" y="-364" font-family="Helvetica,sans-Serif" font-size="10.00" fill="#000000">spl_num_atoms_</text>
<text text-anchor="start" x="667" y="-353" font-family="Helvetica,sans-Serif" font-size="10.00" fill="#000000">spl_num_atom_symmetry</text>
<text text-anchor="middle" x="710" y="-342" font-family="Helvetica,sans-Serif" font-size="10.00" fill="#000000">_classes_</text>
</g>
<!-- Node29 -->
<g id="node29" class="node">
<title>Node29</title>
<g id="a_node29"><a xlink:href="../../dc/dd3/classsddk_1_1_f_f_t3_d.html" target="_top" xlink:title="Implementation of FFT3D. ">
<polygon fill="#ffffff" stroke="#000000" points="787,-561.5 787,-580.5 847,-580.5 847,-561.5 787,-561.5"/>
<text text-anchor="middle" x="817" y="-568.5" font-family="Helvetica,sans-Serif" font-size="10.00" fill="#000000">sddk::FFT3D</text>
</a>
</g>
</g>
<!-- Node6&#45;&gt;Node29 -->
<g id="edge42" class="edge">
<title>Node6&#45;&gt;Node29</title>
<path fill="none" stroke="#9a32cd" stroke-dasharray="5,2" d="M655.4985,-406.6146C697.8072,-415.5082 749.0534,-426.7817 753,-430 796.1265,-465.1674 811.3541,-535.6517 815.6034,-561.3455"/>
<polygon fill="#9a32cd" stroke="#9a32cd" points="656.0292,-403.1499 645.5243,-404.5269 654.5951,-410.0014 656.0292,-403.1499"/>
<text text-anchor="middle" x="710" y="-433" font-family="Helvetica,sans-Serif" font-size="10.00" fill="#000000"> spl_z_</text>
</g>
<!-- Node7 -->
<g id="node7" class="node">
<title>Node7</title>
<g id="a_node7"><a xlink:href="../../d6/dec/classsddk_1_1splindex__base.html" target="_top" xlink:title="sddk::splindex_base\l\&lt; int \&gt;">
<polygon fill="#ffffff" stroke="#000000" points="346,-377 346,-407 430,-407 430,-377 346,-377"/>
<text text-anchor="start" x="354" y="-395" font-family="Helvetica,sans-Serif" font-size="10.00" fill="#000000">sddk::splindex_base</text>
<text text-anchor="middle" x="388" y="-384" font-family="Helvetica,sans-Serif" font-size="10.00" fill="#000000">&lt; int &gt;</text>
</a>
</g>
</g>
<!-- Node7&#45;&gt;Node6 -->
<g id="edge7" class="edge">
<title>Node7&#45;&gt;Node6</title>
<path fill="none" stroke="#191970" d="M440.4368,-392.7455C474.5591,-393.2307 518.6944,-393.8582 551.7337,-394.328"/>
<polygon fill="#191970" stroke="#191970" points="440.2407,-389.2425 430.1919,-392.5999 440.1411,-396.2418 440.2407,-389.2425"/>
</g>
<!-- Node8 -->
<g id="node8" class="node">
<title>Node8</title>
<g id="a_node8"><a xlink:href="../../da/d70/classsddk_1_1_communicator.html" target="_top" xlink:title="MPI communicator wrapper. ">
<polygon fill="#ffffff" stroke="#000000" points="133.5,-549.5 133.5,-568.5 218.5,-568.5 218.5,-549.5 133.5,-549.5"/>
<text text-anchor="middle" x="176" y="-556.5" font-family="Helvetica,sans-Serif" font-size="10.00" fill="#000000">sddk::Communicator</text>
</a>
</g>
</g>
<!-- Node8&#45;&gt;Node1 -->
<g id="edge8" class="edge">
<title>Node8&#45;&gt;Node1</title>
<path fill="none" stroke="#9a32cd" stroke-dasharray="5,2" d="M228.5257,-563.3048C256.5983,-565.7814 291.7261,-569.1612 323,-573 562.246,-602.367 847.2258,-649.0965 955.8896,-667.3453"/>
<polygon fill="#9a32cd" stroke="#9a32cd" points="228.7884,-559.8145 218.5226,-562.434 228.1813,-566.7882 228.7884,-559.8145"/>
<text text-anchor="middle" x="599" y="-620" font-family="Helvetica,sans-Serif" font-size="10.00" fill="#000000"> comm_</text>
</g>
<!-- Node9 -->
<g id="node9" class="node">
<title>Node9</title>
<g id="a_node9"><a xlink:href="../../dc/d9b/classsddk_1_1_gvec.html" target="_top" xlink:title="A set of G&#45;vectors for FFTs and G+k basis functions. ">
<polygon fill="#ffffff" stroke="#000000" points="361,-670.5 361,-689.5 415,-689.5 415,-670.5 361,-670.5"/>
<text text-anchor="middle" x="388" y="-677.5" font-family="Helvetica,sans-Serif" font-size="10.00" fill="#000000">sddk::Gvec</text>
</a>
</g>
</g>
<!-- Node8&#45;&gt;Node9 -->
<g id="edge19" class="edge">
<title>Node8&#45;&gt;Node9</title>
<path fill="none" stroke="#9a32cd" stroke-dasharray="5,2" d="M203.7543,-573.4211C233.5324,-589.0519 282.0695,-614.9871 323,-639 340.607,-649.3296 360.3857,-661.957 373.4511,-670.446"/>
<polygon fill="#9a32cd" stroke="#9a32cd" points="205.2615,-570.2596 194.7786,-568.7237 202.0157,-576.4616 205.2615,-570.2596"/>
<text text-anchor="middle" x="286" y="-642" font-family="Helvetica,sans-Serif" font-size="10.00" fill="#000000"> comm_</text>
</g>
<!-- Node8&#45;&gt;Node20 -->
<g id="edge25" class="edge">
<title>Node8&#45;&gt;Node20</title>
<path fill="none" stroke="#9a32cd" stroke-dasharray="5,2" d="M185.0153,-540.1728C205.7672,-499.3621 261.3214,-403.5649 341,-368 494.524,-299.4739 703.0042,-310.5758 783.4373,-318.2088"/>
<polygon fill="#9a32cd" stroke="#9a32cd" points="181.7997,-538.7793 180.4957,-549.2936 188.0719,-541.8873 181.7997,-538.7793"/>
<text text-anchor="middle" x="492" y="-334" font-family="Helvetica,sans-Serif" font-size="10.00" fill="#000000"> comm_</text>
</g>
<!-- Node8&#45;&gt;Node29 -->
<g id="edge45" class="edge">
<title>Node8&#45;&gt;Node29</title>
<path fill="none" stroke="#9a32cd" stroke-dasharray="5,2" d="M229.1091,-550.0516C235.7887,-549.2053 242.5417,-548.4839 249,-548 281.797,-545.5429 290.12,-547.235 323,-548 498.9588,-552.094 709.8864,-564.38 786.9444,-569.1127"/>
<polygon fill="#9a32cd" stroke="#9a32cd" points="228.1607,-546.6485 218.7257,-551.4683 229.1071,-553.5842 228.1607,-546.6485"/>
<text text-anchor="middle" x="492" y="-558" font-family="Helvetica,sans-Serif" font-size="10.00" fill="#000000"> comm_</text>
</g>
<!-- Node36 -->
<g id="node36" class="node">
<title>Node36</title>
<g id="a_node36"><a xlink:href="../../d7/def/classsddk_1_1_gvec__partition.html" target="_top" xlink:title="Stores information about G&#45;vector partitioning between MPI ranks for the FFT transformation. ">
<polygon fill="#ffffff" stroke="#000000" points="556.5,-735.5 556.5,-754.5 641.5,-754.5 641.5,-735.5 556.5,-735.5"/>
<text text-anchor="middle" x="599" y="-742.5" font-family="Helvetica,sans-Serif" font-size="10.00" fill="#000000">sddk::Gvec_partition</text>
</a>
</g>
</g>
<!-- Node8&#45;&gt;Node36 -->
<g id="edge50" class="edge">
<title>Node8&#45;&gt;Node36</title>
<path fill="none" stroke="#9a32cd" stroke-dasharray="5,2" d="M225.6796,-570.9748C254.3182,-578.1776 290.8976,-587.889 323,-598 373.5598,-613.9244 387.5575,-615.3551 435,-639 494.7741,-668.7909 559.6694,-715.5026 586.4071,-735.4515"/>
<polygon fill="#9a32cd" stroke="#9a32cd" points="226.4512,-567.5601 215.9013,-568.5352 224.7566,-574.3519 226.4512,-567.5601"/>
<text text-anchor="middle" x="388" y="-653" font-family="Helvetica,sans-Serif" font-size="10.00" fill="#000000"> comm_ortho_fft_</text>
<text text-anchor="middle" x="388" y="-642" font-family="Helvetica,sans-Serif" font-size="10.00" fill="#000000">fft_comm_</text>
</g>
<!-- Node9&#45;&gt;Node1 -->
<g id="edge9" class="edge">
<title>Node9&#45;&gt;Node1</title>
<path fill="none" stroke="#9a32cd" stroke-dasharray="5,2" d="M425.1446,-683.9446C514.0752,-692.6633 746.0976,-711.116 938,-689 946.5706,-688.0123 955.685,-686.3522 964.2407,-684.5135"/>
<polygon fill="#9a32cd" stroke="#9a32cd" points="425.3196,-680.4447 415.0211,-682.933 424.6235,-687.41 425.3196,-680.4447"/>
<text text-anchor="middle" x="710" y="-702" font-family="Helvetica,sans-Serif" font-size="10.00" fill="#000000"> gvec_</text>
</g>
<!-- Node9&#45;&gt;Node9 -->
<g id="edge20" class="edge">
<title>Node9&#45;&gt;Node9</title>
<path fill="none" stroke="#9a32cd" stroke-dasharray="5,2" d="M369.112,-699.4C370.3734,-704.3146 376.6694,-708 388,-708 406.1289,-708 411.3693,-698.5653 403.7212,-689.7571"/>
<polygon fill="#9a32cd" stroke="#9a32cd" points="372.4839,-700.3499 372.2788,-689.7571 365.8334,-698.1658 372.4839,-700.3499"/>
<text text-anchor="middle" x="388" y="-711" font-family="Helvetica,sans-Serif" font-size="10.00" fill="#000000"> gvec_base_</text>
</g>
<!-- Node9&#45;&gt;Node36 -->
<g id="edge51" class="edge">
<title>Node9&#45;&gt;Node36</title>
<path fill="none" stroke="#9a32cd" stroke-dasharray="5,2" d="M418.2432,-693.5881C429.0816,-698.1832 441.4712,-703.1261 453,-707 487.2621,-718.5125 527.0112,-728.6555 556.3756,-735.56"/>
<polygon fill="#9a32cd" stroke="#9a32cd" points="419.363,-690.2592 408.7949,-689.5065 416.587,-696.6853 419.363,-690.2592"/>
<text text-anchor="middle" x="492" y="-731" font-family="Helvetica,sans-Serif" font-size="10.00" fill="#000000"> gvec_</text>
</g>
<!-- Node10 -->
<g id="node10" class="node">
<title>Node10</title>
<g id="a_node10"><a xlink:href="../../d7/dab/classsddk_1_1mdarray.html" target="_top" xlink:title="sddk::mdarray\&lt; int, 3 \&gt;">
<polygon fill="#ffffff" stroke="#000000" points="129.5,-721.5 129.5,-740.5 222.5,-740.5 222.5,-721.5 129.5,-721.5"/>
<text text-anchor="middle" x="176" y="-728.5" font-family="Helvetica,sans-Serif" font-size="10.00" fill="#000000">sddk::mdarray&lt; int, 3 &gt;</text>
</a>
</g>
</g>
<!-- Node10&#45;&gt;Node9 -->
<g id="edge10" class="edge">
<title>Node10&#45;&gt;Node9</title>
<path fill="none" stroke="#9a32cd" stroke-dasharray="5,2" d="M228.5369,-719.2306C256.6126,-712.8447 291.7399,-704.7013 323,-697 335.4582,-693.9308 349.2112,-690.3604 360.8461,-687.2863"/>
<polygon fill="#9a32cd" stroke="#9a32cd" points="227.5106,-715.8744 218.5325,-721.4997 229.059,-722.701 227.5106,-715.8744"/>
<text text-anchor="middle" x="286" y="-717" font-family="Helvetica,sans-Serif" font-size="10.00" fill="#000000"> gvec_index_by_xy_</text>
</g>
<!-- Node11 -->
<g id="node11" class="node">
<title>Node11</title>
<g id="a_node11"><a xlink:href="../../d0/d58/classsddk_1_1mdarray__base.html" target="_top" xlink:title="sddk::mdarray_base\l\&lt; int, N \&gt;">
<polygon fill="#ffffff" stroke="#000000" points="0,-845 0,-875 84,-875 84,-845 0,-845"/>
<text text-anchor="start" x="8" y="-863" font-family="Helvetica,sans-Serif" font-size="10.00" fill="#000000">sddk::mdarray_base</text>
<text text-anchor="middle" x="42" y="-852" font-family="Helvetica,sans-Serif" font-size="10.00" fill="#000000">&lt; int, N &gt;</text>
</a>
</g>
</g>
<!-- Node11&#45;&gt;Node10 -->
<g id="edge11" class="edge">
<title>Node11&#45;&gt;Node10</title>
<path fill="none" stroke="#191970" d="M57.8902,-836.4046C72.6139,-815.6883 95.9639,-785.5771 121,-764 131.7969,-754.6948 145.5469,-746.4448 156.5977,-740.5211"/>
<polygon fill="#191970" stroke="#191970" points="54.9842,-834.4529 52.1284,-844.6556 60.7234,-838.4606 54.9842,-834.4529"/>
</g>
<!-- Node14 -->
<g id="node14" class="node">
<title>Node14</title>
<g id="a_node14"><a xlink:href="../../d7/dab/classsddk_1_1mdarray.html" target="_top" xlink:title="sddk::mdarray\&lt; int, 1 \&gt;">
<polygon fill="#ffffff" stroke="#000000" points="129.5,-850.5 129.5,-869.5 222.5,-869.5 222.5,-850.5 129.5,-850.5"/>
<text text-anchor="middle" x="176" y="-857.5" font-family="Helvetica,sans-Serif" font-size="10.00" fill="#000000">sddk::mdarray&lt; int, 1 &gt;</text>
</a>
</g>
</g>
<!-- Node11&#45;&gt;Node14 -->
<g id="edge15" class="edge">
<title>Node11&#45;&gt;Node14</title>
<path fill="none" stroke="#191970" d="M94.0781,-860C105.7406,-860 118.0387,-860 129.4595,-860"/>
<polygon fill="#191970" stroke="#191970" points="94.0308,-856.5001 84.0308,-860 94.0307,-863.5001 94.0308,-856.5001"/>
</g>
<!-- Node31 -->
<g id="node31" class="node">
<title>Node31</title>
<g id="a_node31"><a xlink:href="../../d7/dab/classsddk_1_1mdarray.html" target="_top" xlink:title="sddk::mdarray\&lt; int, 2 \&gt;">
<polygon fill="#ffffff" stroke="#000000" points="341.5,-913.5 341.5,-932.5 434.5,-932.5 434.5,-913.5 341.5,-913.5"/>
<text text-anchor="middle" x="388" y="-920.5" font-family="Helvetica,sans-Serif" font-size="10.00" fill="#000000">sddk::mdarray&lt; int, 2 &gt;</text>
</a>
</g>
</g>
<!-- Node11&#45;&gt;Node31 -->
<g id="edge38" class="edge">
<title>Node11&#45;&gt;Node31</title>
<path fill="none" stroke="#191970" d="M94.0595,-873.0877C103.0202,-875.1777 112.2604,-877.2314 121,-879 197.6665,-894.5151 287.5498,-908.4608 341.0272,-916.3155"/>
<polygon fill="#191970" stroke="#191970" points="94.6408,-869.6285 84.1029,-870.7257 93.025,-876.4395 94.6408,-869.6285"/>
</g>
<!-- Node12 -->
<g id="node12" class="node">
<title>Node12</title>
<g id="a_node12"><a xlink:href="../../d7/dab/classsddk_1_1mdarray.html" target="_top" xlink:title="sddk::mdarray\&lt; double, 1 \&gt;">
<polygon fill="#ffffff" stroke="#000000" points="122,-679.5 122,-698.5 230,-698.5 230,-679.5 122,-679.5"/>
<text text-anchor="middle" x="176" y="-686.5" font-family="Helvetica,sans-Serif" font-size="10.00" fill="#000000">sddk::mdarray&lt; double, 1 &gt;</text>
</a>
</g>
</g>
<!-- Node12&#45;&gt;Node9 -->
<g id="edge12" class="edge">
<title>Node12&#45;&gt;Node9</title>
<path fill="none" stroke="#9a32cd" stroke-dasharray="5,2" d="M240.0943,-686.279C280.5128,-684.5631 330.6201,-682.4359 360.9103,-681.15"/>
<polygon fill="#9a32cd" stroke="#9a32cd" points="239.8876,-682.7845 230.0451,-686.7056 240.1846,-689.7782 239.8876,-682.7845"/>
<text text-anchor="middle" x="286" y="-688" font-family="Helvetica,sans-Serif" font-size="10.00" fill="#000000"> gvec_shell_len_</text>
</g>
<!-- Node13 -->
<g id="node13" class="node">
<title>Node13</title>
<g id="a_node13"><a xlink:href="../../d0/d58/classsddk_1_1mdarray__base.html" target="_top" xlink:title="sddk::mdarray_base\l\&lt; double, N \&gt;">
<polygon fill="#ffffff" stroke="#000000" points="0,-676 0,-706 84,-706 84,-676 0,-676"/>
<text text-anchor="start" x="8" y="-694" font-family="Helvetica,sans-Serif" font-size="10.00" fill="#000000">sddk::mdarray_base</text>
<text text-anchor="middle" x="42" y="-683" font-family="Helvetica,sans-Serif" font-size="10.00" fill="#000000">&lt; double, N &gt;</text>
</a>
</g>
</g>
<!-- Node13&#45;&gt;Node12 -->
<g id="edge13" class="edge">
<title>Node13&#45;&gt;Node12</title>
<path fill="none" stroke="#191970" d="M94.0931,-690.2225C103.1845,-690.0868 112.6616,-689.9453 121.8079,-689.8088"/>
<polygon fill="#191970" stroke="#191970" points="93.9774,-686.7237 84.0308,-690.3727 94.0819,-693.723 93.9774,-686.7237"/>
</g>
<!-- Node14&#45;&gt;Node9 -->
<g id="edge14" class="edge">
<title>Node14&#45;&gt;Node9</title>
<path fill="none" stroke="#9a32cd" stroke-dasharray="5,2" d="M204.2351,-845.9679C244.4489,-825.7839 314.3403,-789.8919 323,-780 337.7338,-763.1697 329.3922,-752.1208 341,-733 351.2112,-716.1797 367.0178,-699.6817 377.4368,-689.6735"/>
<polygon fill="#9a32cd" stroke="#9a32cd" points="202.559,-842.8928 195.1825,-850.4979 205.6916,-849.1528 202.559,-842.8928"/>
<text text-anchor="middle" x="286" y="-837" font-family="Helvetica,sans-Serif" font-size="10.00" fill="#000000"> gvec_shell_</text>
<text text-anchor="middle" x="286" y="-826" font-family="Helvetica,sans-Serif" font-size="10.00" fill="#000000">gvec_base_mapping_</text>
</g>
<!-- Node14&#45;&gt;Node29 -->
<g id="edge41" class="edge">
<title>Node14&#45;&gt;Node29</title>
<path fill="none" stroke="#9a32cd" stroke-dasharray="5,2" d="M232.5369,-870.4579C299.0053,-881.3957 404.1846,-894.0359 435,-871 457.6401,-854.0755 432.4566,-829.416 453,-810 461.1287,-802.3174 641.4205,-772.2249 649,-764 685.5465,-724.3414 632.1558,-685.1622 667,-644 692.9713,-613.3195 717.0492,-633.9817 753,-616 772.6797,-606.1567 793.0812,-590.751 805.4102,-580.7646"/>
<polygon fill="#9a32cd" stroke="#9a32cd" points="233.0636,-866.9974 222.6219,-868.792 231.9037,-873.9006 233.0636,-866.9974"/>
<text text-anchor="middle" x="492" y="-868" font-family="Helvetica,sans-Serif" font-size="10.00" fill="#000000"> z_offsets_</text>
<text text-anchor="start" x="464" y="-857" font-family="Helvetica,sans-Serif" font-size="10.00" fill="#000000">map_gvec_to_fft</text>
<text text-anchor="middle" x="492" y="-846" font-family="Helvetica,sans-Serif" font-size="10.00" fill="#000000">_buffer_</text>
<text text-anchor="start" x="464" y="-835" font-family="Helvetica,sans-Serif" font-size="10.00" fill="#000000">map_gvec_to_fft</text>
<text text-anchor="middle" x="492" y="-824" font-family="Helvetica,sans-Serif" font-size="10.00" fill="#000000">_buffer_x0y0_</text>
<text text-anchor="middle" x="492" y="-813" font-family="Helvetica,sans-Serif" font-size="10.00" fill="#000000">z_sizes_</text>
</g>
<!-- Node14&#45;&gt;Node36 -->
<g id="edge48" class="edge">
<title>Node14&#45;&gt;Node36</title>
<path fill="none" stroke="#9a32cd" stroke-dasharray="5,2" d="M232.946,-858.8529C260.5109,-857.2204 293.8659,-853.6439 323,-846 331.4679,-843.7783 332.9095,-841.3444 341,-838 382.3436,-820.9094 393.6564,-819.0906 435,-802 443.0905,-798.6556 444.8411,-797.1741 453,-794 491.9959,-778.8294 537.8767,-763.8949 567.6508,-754.5773"/>
<polygon fill="#9a32cd" stroke="#9a32cd" points="232.49,-855.3718 222.6858,-859.3877 232.8545,-862.3623 232.49,-855.3718"/>
<text text-anchor="middle" x="388" y="-863" font-family="Helvetica,sans-Serif" font-size="10.00" fill="#000000"> zcol_offs_</text>
<text text-anchor="middle" x="388" y="-852" font-family="Helvetica,sans-Serif" font-size="10.00" fill="#000000">idx_zcol_</text>
<text text-anchor="middle" x="388" y="-841" font-family="Helvetica,sans-Serif" font-size="10.00" fill="#000000">idx_gvec_</text>
</g>
<!-- Node15 -->
<g id="node15" class="node">
<title>Node15</title>
<g id="a_node15"><a xlink:href="../../db/dea/structsddk_1_1block__data__descriptor.html" target="_top" xlink:title="sddk::block_data_descriptor">
<polygon fill="#ffffff" stroke="#000000" points="121,-773.5 121,-792.5 231,-792.5 231,-773.5 121,-773.5"/>
<text text-anchor="middle" x="176" y="-780.5" font-family="Helvetica,sans-Serif" font-size="10.00" fill="#000000">sddk::block_data_descriptor</text>
</a>
</g>
</g>
<!-- Node15&#45;&gt;Node9 -->
<g id="edge16" class="edge">
<title>Node15&#45;&gt;Node9</title>
<path fill="none" stroke="#9a32cd" stroke-dasharray="5,2" d="M208.795,-769.5486C221.3198,-764.5229 235.7679,-758.8597 249,-754 281.5869,-742.032 292.3027,-745.2114 323,-729 343.7441,-718.0449 364.9163,-700.6941 377.2391,-689.8484"/>
<polygon fill="#9a32cd" stroke="#9a32cd" points="207.1842,-766.4244 199.2227,-773.4148 209.8057,-772.915 207.1842,-766.4244"/>
<text text-anchor="middle" x="286" y="-768" font-family="Helvetica,sans-Serif" font-size="10.00" fill="#000000"> gvec_distr_</text>
<text text-anchor="middle" x="286" y="-757" font-family="Helvetica,sans-Serif" font-size="10.00" fill="#000000">zcol_distr_</text>
</g>
<!-- Node15&#45;&gt;Node36 -->
<g id="edge49" class="edge">
<title>Node15&#45;&gt;Node36</title>
<path fill="none" stroke="#9a32cd" stroke-dasharray="5,2" d="M241.3445,-784.3918C267.0346,-783.7718 296.6339,-781.5987 323,-776 331.3964,-774.2171 332.646,-770.9721 341,-769 415.4288,-751.4297 504.7794,-746.6115 556.4123,-745.3571"/>
<polygon fill="#9a32cd" stroke="#9a32cd" points="241.2767,-780.8924 231.3373,-784.561 241.3951,-787.8914 241.2767,-780.8924"/>
<text text-anchor="middle" x="388" y="-794" font-family="Helvetica,sans-Serif" font-size="10.00" fill="#000000"> gvec_distr_fft_</text>
<text text-anchor="middle" x="388" y="-783" font-family="Helvetica,sans-Serif" font-size="10.00" fill="#000000">gvec_fft_slab_</text>
<text text-anchor="middle" x="388" y="-772" font-family="Helvetica,sans-Serif" font-size="10.00" fill="#000000">zcol_distr_fft_</text>
</g>
<!-- Node16 -->
<g id="node16" class="node">
<title>Node16</title>
<g id="a_node16"><a xlink:href="../../d7/dab/classsddk_1_1mdarray.html" target="_top" xlink:title="sddk::mdarray\&lt; uint32\l_t, 1 \&gt;">
<polygon fill="#ffffff" stroke="#000000" points="130.5,-628 130.5,-658 221.5,-658 221.5,-628 130.5,-628"/>
<text text-anchor="start" x="138.5" y="-646" font-family="Helvetica,sans-Serif" font-size="10.00" fill="#000000">sddk::mdarray&lt; uint32</text>
<text text-anchor="middle" x="176" y="-635" font-family="Helvetica,sans-Serif" font-size="10.00" fill="#000000">_t, 1 &gt;</text>
</a>
</g>
</g>
<!-- Node16&#45;&gt;Node9 -->
<g id="edge17" class="edge">
<title>Node16&#45;&gt;Node9</title>
<path fill="none" stroke="#9a32cd" stroke-dasharray="5,2" d="M231.9697,-651.6585C259.4378,-656.0299 292.9945,-661.5518 323,-667 335.4554,-669.2616 349.2079,-671.9798 360.8433,-674.3447"/>
<polygon fill="#9a32cd" stroke="#9a32cd" points="232.1848,-648.1491 221.7605,-650.042 231.09,-655.063 232.1848,-648.1491"/>
<text text-anchor="middle" x="286" y="-670" font-family="Helvetica,sans-Serif" font-size="10.00" fill="#000000"> gvec_full_index_</text>
</g>
<!-- Node17 -->
<g id="node17" class="node">
<title>Node17</title>
<g id="a_node17"><a xlink:href="../../d0/d58/classsddk_1_1mdarray__base.html" target="_top" xlink:title="sddk::mdarray_base\l\&lt; uint32_t, N \&gt;">
<polygon fill="#ffffff" stroke="#000000" points="0,-627 0,-657 84,-657 84,-627 0,-627"/>
<text text-anchor="start" x="8" y="-645" font-family="Helvetica,sans-Serif" font-size="10.00" fill="#000000">sddk::mdarray_base</text>
<text text-anchor="middle" x="42" y="-634" font-family="Helvetica,sans-Serif" font-size="10.00" fill="#000000">&lt; uint32_t, N &gt;</text>
</a>
</g>
</g>
<!-- Node17&#45;&gt;Node16 -->
<g id="edge18" class="edge">
<title>Node17&#45;&gt;Node16</title>
<path fill="none" stroke="#191970" d="M94.2962,-642.3903C106.215,-642.4792 118.7867,-642.573 130.4,-642.6597"/>
<polygon fill="#191970" stroke="#191970" points="94.0567,-638.8885 84.0308,-642.3137 94.0043,-645.8883 94.0567,-638.8885"/>
</g>
<!-- Node18 -->
<g id="node18" class="node">
<title>Node18</title>
<g id="a_node18"><a xlink:href="../../d2/d6b/classgeometry3d_1_1vector3d.html" target="_top" xlink:title="geometry3d::vector3d\l\&lt; double \&gt;">
<polygon fill="#ffffff" stroke="#000000" points="131.5,-326 131.5,-356 220.5,-356 220.5,-326 131.5,-326"/>
<text text-anchor="start" x="139.5" y="-344" font-family="Helvetica,sans-Serif" font-size="10.00" fill="#000000">geometry3d::vector3d</text>
<text text-anchor="middle" x="176" y="-333" font-family="Helvetica,sans-Serif" font-size="10.00" fill="#000000">&lt; double &gt;</text>
</a>
</g>
</g>
<!-- Node18&#45;&gt;Node9 -->
<g id="edge21" class="edge">
<title>Node18&#45;&gt;Node9</title>
<path fill="none" stroke="#9a32cd" stroke-dasharray="5,2" d="M192.9678,-364.2463C222.8638,-406.1171 285.3177,-497.7975 323,-583 334.4332,-608.8514 324.9916,-620.7032 341,-644 348.5672,-655.0125 360.569,-664.1239 370.5502,-670.4251"/>
<polygon fill="#9a32cd" stroke="#9a32cd" points="195.782,-362.1647 187.1032,-356.0877 190.0981,-366.2505 195.782,-362.1647"/>
<text text-anchor="middle" x="286" y="-586" font-family="Helvetica,sans-Serif" font-size="10.00" fill="#000000"> vk_</text>
</g>
<!-- Node26 -->
<g id="node26" class="node">
<title>Node26</title>
<g id="a_node26"><a xlink:href="../../d7/d51/structsirius_1_1_unit__cell__input.html" target="_top" xlink:title="Parse unit cell input section. ">
<polygon fill="#ffffff" stroke="#000000" points="344.5,-252.5 344.5,-271.5 431.5,-271.5 431.5,-252.5 344.5,-252.5"/>
<text text-anchor="middle" x="388" y="-259.5" font-family="Helvetica,sans-Serif" font-size="10.00" fill="#000000">sirius::Unit_cell_input</text>
</a>
</g>
</g>
<!-- Node18&#45;&gt;Node26 -->
<g id="edge32" class="edge">
<title>Node18&#45;&gt;Node26</title>
<path fill="none" stroke="#9a32cd" stroke-dasharray="5,2" d="M189.0422,-317.2319C201.4998,-297.2487 222.3131,-270.0686 249,-258 281.3358,-243.3768 322.368,-246.8663 351.4474,-252.4889"/>
<polygon fill="#9a32cd" stroke="#9a32cd" points="186.0324,-315.4456 183.9153,-325.8267 192.0441,-319.0316 186.0324,-315.4456"/>
<text text-anchor="middle" x="286" y="-283" font-family="Helvetica,sans-Serif" font-size="10.00" fill="#000000"> a2_</text>
<text text-anchor="middle" x="286" y="-272" font-family="Helvetica,sans-Serif" font-size="10.00" fill="#000000">a1_</text>
<text text-anchor="middle" x="286" y="-261" font-family="Helvetica,sans-Serif" font-size="10.00" fill="#000000">a0_</text>
</g>
<!-- Node19 -->
<g id="node19" class="node">
<title>Node19</title>
<polygon fill="#ffffff" stroke="#bfbfbf" points="3.5,-326 3.5,-356 80.5,-356 80.5,-326 3.5,-326"/>
<text text-anchor="start" x="11.5" y="-344" font-family="Helvetica,sans-Serif" font-size="10.00" fill="#000000">std::array&lt; double</text>
<text text-anchor="middle" x="42" y="-333" font-family="Helvetica,sans-Serif" font-size="10.00" fill="#000000"> , 3 &gt;</text>
</g>
<!-- Node19&#45;&gt;Node18 -->
<g id="edge22" class="edge">
<title>Node19&#45;&gt;Node18</title>
<path fill="none" stroke="#191970" d="M91.0351,-341C104.1683,-341 118.2958,-341 131.1878,-341"/>
<polygon fill="#191970" stroke="#191970" points="90.7584,-337.5001 80.7584,-341 90.7583,-344.5001 90.7584,-337.5001"/>
</g>
<!-- Node20&#45;&gt;Node1 -->
<g id="edge23" class="edge">
<title>Node20&#45;&gt;Node1</title>
<path fill="none" stroke="#9a32cd" stroke-dasharray="5,2" d="M860.3319,-329.347C886.5886,-336.0511 918.6457,-348.6438 938,-372 976.739,-418.7491 996.179,-619.1023 1000.2033,-665.418"/>
<polygon fill="#9a32cd" stroke="#9a32cd" points="861.1271,-325.9386 850.5913,-327.0558 859.5242,-332.7526 861.1271,-325.9386"/>
<text text-anchor="middle" x="909.5" y="-375" font-family="Helvetica,sans-Serif" font-size="10.00" fill="#000000"> unit_cell_</text>
</g>
<!-- Node21 -->
<g id="node21" class="node">
<title>Node21</title>
<g id="a_node21"><a xlink:href="../../d0/d04/classsirius_1_1_simulation__parameters.html" target="_top" xlink:title="Set of basic parameters of a simulation. ">
<polygon fill="#ffffff" stroke="#000000" points="562.5,-140 562.5,-170 635.5,-170 635.5,-140 562.5,-140"/>
<text text-anchor="start" x="570.5" y="-158" font-family="Helvetica,sans-Serif" font-size="10.00" fill="#000000">sirius::Simulation</text>
<text text-anchor="middle" x="599" y="-147" font-family="Helvetica,sans-Serif" font-size="10.00" fill="#000000">_parameters</text>
</a>
</g>
</g>
<!-- Node21&#45;&gt;Node20 -->
<g id="edge26" class="edge">
<title>Node21&#45;&gt;Node20</title>
<path fill="none" stroke="#9a32cd" stroke-dasharray="5,2" d="M626.7759,-176.2779C674.4491,-212.7981 770.0295,-286.018 804.3596,-312.3167"/>
<polygon fill="#9a32cd" stroke="#9a32cd" points="628.7974,-173.4175 618.7305,-170.1147 624.5405,-178.9744 628.7974,-173.4175"/>
<text text-anchor="middle" x="710" y="-275" font-family="Helvetica,sans-Serif" font-size="10.00" fill="#000000"> parameters_</text>
</g>
<!-- Node22 -->
<g id="node22" class="node">
<title>Node22</title>
<g id="a_node22"><a xlink:href="../../d4/d6e/structsirius_1_1_parameters__input.html" target="_top" xlink:title="sirius::Parameters\l_input">
<polygon fill="#ffffff" stroke="#000000" points="349.5,-203 349.5,-233 426.5,-233 426.5,-203 349.5,-203"/>
<text text-anchor="start" x="357.5" y="-221" font-family="Helvetica,sans-Serif" font-size="10.00" fill="#000000">sirius::Parameters</text>
<text text-anchor="middle" x="388" y="-210" font-family="Helvetica,sans-Serif" font-size="10.00" fill="#000000">_input</text>
</a>
</g>
</g>
<!-- Node22&#45;&gt;Node21 -->
<g id="edge27" class="edge">
<title>Node22&#45;&gt;Node21</title>
<path fill="none" stroke="#9a32cd" stroke-dasharray="5,2" d="M436.5935,-208.0159C464.505,-201.8083 500.0529,-193.0951 531,-183 542.2881,-179.3178 554.3489,-174.6156 565.1312,-170.1206"/>
<polygon fill="#9a32cd" stroke="#9a32cd" points="435.6981,-204.629 426.6785,-210.1875 437.1959,-211.4669 435.6981,-204.629"/>
<text text-anchor="middle" x="492" y="-208" font-family="Helvetica,sans-Serif" font-size="10.00" fill="#000000"> parameters_input_</text>
</g>
<!-- Node23 -->
<g id="node23" class="node">
<title>Node23</title>
<g id="a_node23"><a xlink:href="../../da/de3/structsirius_1_1_control__input.html" target="_top" xlink:title="Parse control input section. ">
<polygon fill="#ffffff" stroke="#000000" points="346.5,-164.5 346.5,-183.5 429.5,-183.5 429.5,-164.5 346.5,-164.5"/>
<text text-anchor="middle" x="388" y="-171.5" font-family="Helvetica,sans-Serif" font-size="10.00" fill="#000000">sirius::Control_input</text>
</a>
</g>
</g>
<!-- Node23&#45;&gt;Node21 -->
<g id="edge28" class="edge">
<title>Node23&#45;&gt;Node21</title>
<path fill="none" stroke="#9a32cd" stroke-dasharray="5,2" d="M440.0387,-169.314C478.0079,-165.895 528.5341,-161.3453 562.3332,-158.3017"/>
<polygon fill="#9a32cd" stroke="#9a32cd" points="439.3326,-165.8634 429.6868,-170.2462 439.9604,-172.8352 439.3326,-165.8634"/>
<text text-anchor="middle" x="492" y="-171" font-family="Helvetica,sans-Serif" font-size="10.00" fill="#000000"> control_input_</text>
</g>
<!-- Node24 -->
<g id="node24" class="node">
<title>Node24</title>
<g id="a_node24"><a xlink:href="../../d2/dcd/structsirius_1_1_hubbard__input.html" target="_top" xlink:title="sirius::Hubbard_input">
<polygon fill="#ffffff" stroke="#000000" points="344.5,-126.5 344.5,-145.5 431.5,-145.5 431.5,-126.5 344.5,-126.5"/>
<text text-anchor="middle" x="388" y="-133.5" font-family="Helvetica,sans-Serif" font-size="10.00" fill="#000000">sirius::Hubbard_input</text>
</a>
</g>
</g>
<!-- Node24&#45;&gt;Node21 -->
<g id="edge29" class="edge">
<title>Node24&#45;&gt;Node21</title>
<path fill="none" stroke="#9a32cd" stroke-dasharray="5,2" d="M441.5118,-139.6022C468.3893,-141.5421 501.4431,-144.1257 531,-147 541.1748,-147.9894 552.1875,-149.2169 562.3268,-150.4109"/>
<polygon fill="#9a32cd" stroke="#9a32cd" points="441.7568,-136.1109 431.5333,-138.891 441.2591,-143.0932 441.7568,-136.1109"/>
<text text-anchor="middle" x="492" y="-150" font-family="Helvetica,sans-Serif" font-size="10.00" fill="#000000"> hubbard_input_</text>
</g>
<!-- Node25 -->
<g id="node25" class="node">
<title>Node25</title>
<g id="a_node25"><a xlink:href="../../d6/de3/structsirius_1_1_settings__input.html" target="_top" xlink:title="Settings control the internal parameters related to the numerical implementation. ...">
<polygon fill="#ffffff" stroke="#000000" points="345,-88.5 345,-107.5 431,-107.5 431,-88.5 345,-88.5"/>
<text text-anchor="middle" x="388" y="-95.5" font-family="Helvetica,sans-Serif" font-size="10.00" fill="#000000">sirius::Settings_input</text>
</a>
</g>
</g>
<!-- Node25&#45;&gt;Node21 -->
<g id="edge30" class="edge">
<title>Node25&#45;&gt;Node21</title>
<path fill="none" stroke="#9a32cd" stroke-dasharray="5,2" d="M441.2239,-105.69C468.4192,-110.3037 501.8391,-117.0358 531,-126 543.1451,-129.7335 556.0662,-134.9163 567.3468,-139.8692"/>
<polygon fill="#9a32cd" stroke="#9a32cd" points="441.5639,-102.1989 431.1276,-104.0253 440.425,-109.1057 441.5639,-102.1989"/>
<text text-anchor="middle" x="492" y="-129" font-family="Helvetica,sans-Serif" font-size="10.00" fill="#000000"> settings_input_</text>
</g>
<!-- Node26&#45;&gt;Node21 -->
<g id="edge31" class="edge">
<title>Node26&#45;&gt;Node21</title>
<path fill="none" stroke="#9a32cd" stroke-dasharray="5,2" d="M441.7458,-252.5857C469.659,-246.1588 503.5689,-235.8615 531,-220 553.6209,-206.9199 574.5282,-184.7993 587.0276,-170.0482"/>
<polygon fill="#9a32cd" stroke="#9a32cd" points="440.7718,-249.2162 431.7564,-254.7816 442.2747,-256.053 440.7718,-249.2162"/>
<text text-anchor="middle" x="492" y="-252" font-family="Helvetica,sans-Serif" font-size="10.00" fill="#000000"> unit_cell_input_</text>
</g>
<!-- Node27 -->
<g id="node27" class="node">
<title>Node27</title>
<g id="a_node27"><a xlink:href="../../d2/d11/structsirius_1_1_iterative__solver__input.html" target="_top" xlink:title="sirius::Iterative_solver\l_input">
<polygon fill="#ffffff" stroke="#000000" points="343.5,-39 343.5,-69 432.5,-69 432.5,-39 343.5,-39"/>
<text text-anchor="start" x="351.5" y="-57" font-family="Helvetica,sans-Serif" font-size="10.00" fill="#000000">sirius::Iterative_solver</text>
<text text-anchor="middle" x="388" y="-46" font-family="Helvetica,sans-Serif" font-size="10.00" fill="#000000">_input</text>
</a>
</g>
</g>
<!-- Node27&#45;&gt;Node21 -->
<g id="edge33" class="edge">
<title>Node27&#45;&gt;Node21</title>
<path fill="none" stroke="#9a32cd" stroke-dasharray="5,2" d="M442.5113,-62.5628C470.2081,-68.4437 503.6878,-77.9811 531,-93 552.9785,-105.0859 573.5747,-125.6668 586.2177,-139.7773"/>
<polygon fill="#9a32cd" stroke="#9a32cd" points="443.0861,-59.1083 432.591,-60.5583 441.6996,-65.9697 443.0861,-59.1083"/>
<text text-anchor="middle" x="492" y="-96" font-family="Helvetica,sans-Serif" font-size="10.00" fill="#000000"> iterative_solver_input_</text>
</g>
<!-- Node28 -->
<g id="node28" class="node">
<title>Node28</title>
<g id="a_node28"><a xlink:href="../../d4/db0/structsirius_1_1_mixer__input.html" target="_top" xlink:title="Parse mixer input section. ">
<polygon fill="#ffffff" stroke="#000000" points="349.5,-.5 349.5,-19.5 426.5,-19.5 426.5,-.5 349.5,-.5"/>
<text text-anchor="middle" x="388" y="-7.5" font-family="Helvetica,sans-Serif" font-size="10.00" fill="#000000">sirius::Mixer_input</text>
</a>
</g>
</g>
<!-- Node28&#45;&gt;Node21 -->
<g id="edge34" class="edge">
<title>Node28&#45;&gt;Node21</title>
<path fill="none" stroke="#9a32cd" stroke-dasharray="5,2" d="M436.8764,-15.3035C466.4337,-20.5054 503.5755,-30.7736 531,-51 562.5977,-74.3043 583.6368,-117.0377 593.1598,-139.7958"/>
<polygon fill="#9a32cd" stroke="#9a32cd" points="437.1971,-11.8099 426.7662,-13.6667 436.0783,-18.7199 437.1971,-11.8099"/>
<text text-anchor="middle" x="492" y="-54" font-family="Helvetica,sans-Serif" font-size="10.00" fill="#000000"> mixer_input_</text>
</g>
<!-- Node29&#45;&gt;Node1 -->
<g id="edge35" class="edge">
<title>Node29&#45;&gt;Node1</title>
<path fill="none" stroke="#9a32cd" stroke-dasharray="5,2" d="M842.9763,-585.6822C881.2601,-607.3209 951.7787,-647.1793 984.0606,-665.4255"/>
<polygon fill="#9a32cd" stroke="#9a32cd" points="844.4083,-582.4713 833.9805,-580.5977 840.9639,-588.5653 844.4083,-582.4713"/>
<text text-anchor="middle" x="909.5" y="-641" font-family="Helvetica,sans-Serif" font-size="10.00" fill="#000000"> fft_</text>
</g>
<!-- Node30 -->
<g id="node30" class="node">
<title>Node30</title>
<g id="a_node30"><a xlink:href="../../dd/d26/classsddk_1_1_f_f_t3_d__grid.html" target="_top" xlink:title="Handling of FFT grids. ">
<polygon fill="#ffffff" stroke="#000000" points="560.5,-523.5 560.5,-542.5 637.5,-542.5 637.5,-523.5 560.5,-523.5"/>
<text text-anchor="middle" x="599" y="-530.5" font-family="Helvetica,sans-Serif" font-size="10.00" fill="#000000">sddk::FFT3D_grid</text>
</a>
</g>
</g>
<!-- Node30&#45;&gt;Node29 -->
<g id="edge36" class="edge">
<title>Node30&#45;&gt;Node29</title>
<path fill="none" stroke="#191970" d="M647.5935,-541.4704C690.1663,-548.8914 750.7075,-559.4444 786.7077,-565.7197"/>
<polygon fill="#191970" stroke="#191970" points="648.1753,-538.0192 637.7228,-539.7499 646.9732,-544.9152 648.1753,-538.0192"/>
</g>
<!-- Node31&#45;&gt;Node29 -->
<g id="edge37" class="edge">
<title>Node31&#45;&gt;Node29</title>
<path fill="none" stroke="#9a32cd" stroke-dasharray="5,2" d="M444.8322,-927.6559C471.8465,-927.8346 504.0463,-925.011 531,-914 595.1736,-887.784 615.5928,-872.7412 649,-812 675.2014,-764.3604 636.4838,-735.9979 667,-691 691.8154,-654.4082 718.5766,-668.7451 753,-641 776.0771,-622.3999 798.3427,-595.3493 809.5289,-580.9273"/>
<polygon fill="#9a32cd" stroke="#9a32cd" points="444.8234,-924.1551 434.7543,-927.4512 444.6811,-931.1536 444.8234,-924.1551"/>
<text text-anchor="middle" x="599" y="-908" font-family="Helvetica,sans-Serif" font-size="10.00" fill="#000000"> z_col_pos_</text>
</g>
<!-- Node31&#45;&gt;Node36 -->
<g id="edge47" class="edge">
<title>Node31&#45;&gt;Node36</title>
<path fill="none" stroke="#9a32cd" stroke-dasharray="5,2" d="M428.4128,-910.4847C436.5484,-907.9879 445.0433,-905.3971 453,-903 487.606,-892.5742 503.2515,-903.158 531,-880 552.1555,-862.3443 584.3608,-782.8118 595.2515,-754.7998"/>
<polygon fill="#9a32cd" stroke="#9a32cd" points="427.2564,-907.1785 418.7277,-913.4642 429.3148,-913.869 427.2564,-907.1785"/>
<text text-anchor="middle" x="492" y="-906" font-family="Helvetica,sans-Serif" font-size="10.00" fill="#000000"> rank_map_</text>
</g>
<!-- Node32 -->
<g id="node32" class="node">
<title>Node32</title>
<g id="a_node32"><a xlink:href="../../d7/dab/classsddk_1_1mdarray.html" target="_top" xlink:title="sddk::mdarray\&lt; double\l_complex, 1 \&gt;">
<polygon fill="#ffffff" stroke="#000000" points="552.5,-474 552.5,-504 645.5,-504 645.5,-474 552.5,-474"/>
<text text-anchor="start" x="560.5" y="-492" font-family="Helvetica,sans-Serif" font-size="10.00" fill="#000000">sddk::mdarray&lt; double</text>
<text text-anchor="middle" x="599" y="-481" font-family="Helvetica,sans-Serif" font-size="10.00" fill="#000000">_complex, 1 &gt;</text>
</a>
</g>
</g>
<!-- Node32&#45;&gt;Node29 -->
<g id="edge39" class="edge">
<title>Node32&#45;&gt;Node29</title>
<path fill="none" stroke="#9a32cd" stroke-dasharray="5,2" d="M656.025,-487.3692C686.1836,-488.5983 723.0579,-493.5311 753,-508 778.5494,-520.3462 800.1184,-546.9799 810.4531,-561.3458"/>
<polygon fill="#9a32cd" stroke="#9a32cd" points="655.7539,-483.8603 645.66,-487.0793 655.5582,-490.8576 655.7539,-483.8603"/>
<text text-anchor="middle" x="710" y="-533" font-family="Helvetica,sans-Serif" font-size="10.00" fill="#000000"> fft_buffer_aux2_</text>
<text text-anchor="middle" x="710" y="-522" font-family="Helvetica,sans-Serif" font-size="10.00" fill="#000000">fft_buffer_aux1_</text>
<text text-anchor="middle" x="710" y="-511" font-family="Helvetica,sans-Serif" font-size="10.00" fill="#000000">fft_buffer_</text>
</g>
<!-- Node33 -->
<g id="node33" class="node">
<title>Node33</title>
<g id="a_node33"><a xlink:href="../../d0/d58/classsddk_1_1mdarray__base.html" target="_top" xlink:title="sddk::mdarray_base\l\&lt; double_complex, N \&gt;">
<polygon fill="#ffffff" stroke="#000000" points="341,-475 341,-505 435,-505 435,-475 341,-475"/>
<text text-anchor="start" x="349" y="-493" font-family="Helvetica,sans-Serif" font-size="10.00" fill="#000000">sddk::mdarray_base</text>
<text text-anchor="middle" x="388" y="-482" font-family="Helvetica,sans-Serif" font-size="10.00" fill="#000000">&lt; double_complex, N &gt;</text>
</a>
</g>
</g>
<!-- Node33&#45;&gt;Node32 -->
<g id="edge40" class="edge">
<title>Node33&#45;&gt;Node32</title>
<path fill="none" stroke="#191970" d="M445.2371,-489.7287C478.8631,-489.5694 520.8274,-489.3705 552.4176,-489.2208"/>
<polygon fill="#191970" stroke="#191970" points="445.0732,-486.2294 435.0899,-489.7768 445.1064,-493.2293 445.0732,-486.2294"/>
</g>
<!-- Node34 -->
<g id="node34" class="node">
<title>Node34</title>
<g id="a_node34"><a xlink:href="../../d7/dab/classsddk_1_1mdarray.html" target="_top" xlink:title="sddk::mdarray\&lt; char, 1 \&gt;">
<polygon fill="#ffffff" stroke="#000000" points="549,-433.5 549,-452.5 649,-452.5 649,-433.5 549,-433.5"/>
<text text-anchor="middle" x="599" y="-440.5" font-family="Helvetica,sans-Serif" font-size="10.00" fill="#000000">sddk::mdarray&lt; char, 1 &gt;</text>
</a>
</g>
</g>
<!-- Node34&#45;&gt;Node29 -->
<g id="edge43" class="edge">
<title>Node34&#45;&gt;Node29</title>
<path fill="none" stroke="#9a32cd" stroke-dasharray="5,2" d="M659.281,-443.8564C689.5849,-446.8539 725.5907,-454.5552 753,-473 786.2119,-495.3496 806.208,-541.3353 813.6609,-561.3446"/>
<polygon fill="#9a32cd" stroke="#9a32cd" points="659.5016,-440.3626 649.2433,-443.0114 658.9144,-447.338 659.5016,-440.3626"/>
<text text-anchor="middle" x="710" y="-476" font-family="Helvetica,sans-Serif" font-size="10.00" fill="#000000"> cufft_work_buf_</text>
</g>
<!-- Node35 -->
<g id="node35" class="node">
<title>Node35</title>
<g id="a_node35"><a xlink:href="../../d0/d58/classsddk_1_1mdarray__base.html" target="_top" xlink:title="sddk::mdarray_base\l\&lt; char, N \&gt;">
<polygon fill="#ffffff" stroke="#000000" points="346,-426 346,-456 430,-456 430,-426 346,-426"/>
<text text-anchor="start" x="354" y="-444" font-family="Helvetica,sans-Serif" font-size="10.00" fill="#000000">sddk::mdarray_base</text>
<text text-anchor="middle" x="388" y="-433" font-family="Helvetica,sans-Serif" font-size="10.00" fill="#000000">&lt; char, N &gt;</text>
</a>
</g>
</g>
<!-- Node35&#45;&gt;Node34 -->
<g id="edge44" class="edge">
<title>Node35&#45;&gt;Node34</title>
<path fill="none" stroke="#191970" d="M440.5758,-441.4983C473.6466,-441.8118 516.0808,-442.214 548.7074,-442.5233"/>
<polygon fill="#191970" stroke="#191970" points="440.2246,-437.995 430.1919,-441.3999 440.1582,-444.9946 440.2246,-437.995"/>
</g>
<!-- Node36&#45;&gt;Node29 -->
<g id="edge46" class="edge">
<title>Node36&#45;&gt;Node29</title>
<path fill="none" stroke="#9a32cd" stroke-dasharray="5,2" d="M610.9612,-726.6329C621.8432,-709.3951 637.8605,-682.6454 649,-658 659.2462,-635.3311 648.5146,-621.648 667,-605 675.8792,-597.0034 745.6774,-583.5667 786.8621,-576.2072"/>
<polygon fill="#9a32cd" stroke="#9a32cd" points="607.9486,-724.8472 605.5075,-735.157 613.8451,-728.6198 607.9486,-724.8472"/>
<text text-anchor="middle" x="710" y="-608" font-family="Helvetica,sans-Serif" font-size="10.00" fill="#000000"> gvec_partition_</text>
</g>
</g>
</svg>
