<?xml version="1.0" encoding="UTF-8" standalone="no"?>
<!DOCTYPE svg PUBLIC "-//W3C//DTD SVG 1.1//EN"
 "http://www.w3.org/Graphics/SVG/1.1/DTD/svg11.dtd">
<!-- Generated by graphviz version 2.40.1 (20161225.0304)
 -->
<!-- Title: beta_projectors_base.h Pages: 1 -->
<svg width="948pt" height="599pt"
 viewBox="0.00 0.00 947.50 599.00" xmlns="http://www.w3.org/2000/svg" xmlns:xlink="http://www.w3.org/1999/xlink">
<g id="graph0" class="graph" transform="scale(1 1) rotate(0) translate(4 595)">
<title>beta_projectors_base.h</title>
<polygon fill="#ffffff" stroke="transparent" points="-4,4 -4,-595 943.5,-595 943.5,4 -4,4"/>
<!-- Node1 -->
<g id="node1" class="node">
<title>Node1</title>
<polygon fill="#bfbfbf" stroke="#000000" points="687.5,-571.5 687.5,-590.5 782.5,-590.5 782.5,-571.5 687.5,-571.5"/>
<text text-anchor="middle" x="735" y="-578.5" font-family="Helvetica,sans-Serif" font-size="10.00" fill="#000000">beta_projectors_base.h</text>
</g>
<!-- Node2 -->
<g id="node2" class="node">
<title>Node2</title>
<g id="a_node2"><a xlink:href="../../d2/d5f/beta__projectors_8h.html" target="_top" xlink:title="Contains declaration and implementation of sirius::Beta_projectors class. ">
<polygon fill="#ffffff" stroke="#000000" points="569,-515.5 569,-534.5 643,-534.5 643,-515.5 569,-515.5"/>
<text text-anchor="middle" x="606" y="-522.5" font-family="Helvetica,sans-Serif" font-size="10.00" fill="#000000">beta_projectors.h</text>
</a>
</g>
</g>
<!-- Node1&#45;&gt;Node2 -->
<g id="edge1" class="edge">
<title>Node1&#45;&gt;Node2</title>
<path fill="none" stroke="#191970" d="M703.6329,-567.3833C680.1716,-557.1985 648.6815,-543.5284 627.8865,-534.5011"/>
<polygon fill="#191970" stroke="#191970" points="702.2574,-570.6017 712.8241,-571.3733 705.0449,-564.1806 702.2574,-570.6017"/>
</g>
<!-- Node19 -->
<g id="node19" class="node">
<title>Node19</title>
<g id="a_node19"><a xlink:href="../../d4/d0f/beta__projectors__gradient_8h.html" target="_top" xlink:title="Contains declaration and implementation of sirius::Beta_projectors_gradient class. ">
<polygon fill="#ffffff" stroke="#000000" points="762,-459.5 762,-478.5 868,-478.5 868,-459.5 762,-459.5"/>
<text text-anchor="middle" x="815" y="-466.5" font-family="Helvetica,sans-Serif" font-size="10.00" fill="#000000">beta_projectors_gradient.h</text>
</a>
</g>
</g>
<!-- Node1&#45;&gt;Node19 -->
<g id="edge44" class="edge">
<title>Node1&#45;&gt;Node19</title>
<path fill="none" stroke="#191970" d="M747.7064,-563.2111C764.8579,-539.1989 794.8086,-497.2679 808.1965,-478.5249"/>
<polygon fill="#191970" stroke="#191970" points="744.7851,-561.2792 741.8208,-571.4509 750.4813,-565.3479 744.7851,-561.2792"/>
</g>
<!-- Node20 -->
<g id="node20" class="node">
<title>Node20</title>
<g id="a_node20"><a xlink:href="../../d0/dc2/beta__projectors__strain__deriv_8h_source.html" target="_top" xlink:title="beta_projectors_strain\l_deriv.h">
<polygon fill="#ffffff" stroke="#000000" points="848.5,-392.5 848.5,-422.5 939.5,-422.5 939.5,-392.5 848.5,-392.5"/>
<text text-anchor="start" x="856.5" y="-410.5" font-family="Helvetica,sans-Serif" font-size="10.00" fill="#000000">beta_projectors_strain</text>
<text text-anchor="middle" x="894" y="-399.5" font-family="Helvetica,sans-Serif" font-size="10.00" fill="#000000">_deriv.h</text>
</a>
</g>
</g>
<!-- Node1&#45;&gt;Node20 -->
<g id="edge45" class="edge">
<title>Node1&#45;&gt;Node20</title>
<path fill="none" stroke="#191970" d="M765.9262,-567.0527C798.6229,-550.6827 849.2293,-520.4174 877,-479 888.4402,-461.938 892.2147,-438.0569 893.4406,-422.6823"/>
<polygon fill="#191970" stroke="#191970" points="764.2659,-563.9681 756.8061,-571.4916 767.3294,-570.2622 764.2659,-563.9681"/>
</g>
<!-- Node21 -->
<g id="node21" class="node">
<title>Node21</title>
<g id="a_node21"><a xlink:href="../../d1/d7f/sirius__internal_8h.html" target="_top" xlink:title="Contains basic definitions and declarations. ">
<polygon fill="#ffffff" stroke="#000000" points="159.5,-112.5 159.5,-131.5 228.5,-131.5 228.5,-112.5 159.5,-112.5"/>
<text text-anchor="middle" x="194" y="-119.5" font-family="Helvetica,sans-Serif" font-size="10.00" fill="#000000">sirius_internal.h</text>
</a>
</g>
</g>
<!-- Node1&#45;&gt;Node21 -->
<g id="edge47" class="edge">
<title>Node1&#45;&gt;Node21</title>
<path fill="none" stroke="#191970" d="M677.1314,-578.2643C503.6797,-569.301 0,-537.3853 0,-469 0,-469 0,-469 0,-234 0,-161.2749 103.5154,-135.0351 159.3167,-126.1735"/>
<polygon fill="#191970" stroke="#191970" points="677.1756,-581.771 687.3409,-578.785 677.5322,-574.7801 677.1756,-581.771"/>
</g>
<!-- Node3 -->
<g id="node3" class="node">
<title>Node3</title>
<g id="a_node3"><a xlink:href="../../d9/d02/k__point_8h.html" target="_top" xlink:title="Contains definition and partial implementation of sirius::K_point class. ">
<polygon fill="#ffffff" stroke="#000000" points="558.5,-459.5 558.5,-478.5 605.5,-478.5 605.5,-459.5 558.5,-459.5"/>
<text text-anchor="middle" x="582" y="-466.5" font-family="Helvetica,sans-Serif" font-size="10.00" fill="#000000">k_point.h</text>
</a>
</g>
</g>
<!-- Node2&#45;&gt;Node3 -->
<g id="edge2" class="edge">
<title>Node2&#45;&gt;Node3</title>
<path fill="none" stroke="#191970" d="M597.8759,-506.0437C593.9285,-496.8331 589.3542,-486.1598 586.1326,-478.6427"/>
<polygon fill="#191970" stroke="#191970" points="594.6633,-507.4328 601.8195,-515.2455 601.0973,-504.6753 594.6633,-507.4328"/>
</g>
<!-- Node14 -->
<g id="node14" class="node">
<title>Node14</title>
<g id="a_node14"><a xlink:href="../../d6/d1e/force_8hpp.html" target="_top" xlink:title="Contains defintion and implementation of sirius::Force class. ">
<polygon fill="#ffffff" stroke="#000000" points="518,-168.5 518,-187.5 566,-187.5 566,-168.5 518,-168.5"/>
<text text-anchor="middle" x="542" y="-175.5" font-family="Helvetica,sans-Serif" font-size="10.00" fill="#000000">force.hpp</text>
</a>
</g>
</g>
<!-- Node2&#45;&gt;Node14 -->
<g id="edge42" class="edge">
<title>Node2&#45;&gt;Node14</title>
<path fill="none" stroke="#191970" d="M582.19,-509.4576C571.0896,-501.3546 558.3088,-490.6991 549,-479 493.9254,-409.783 481.8387,-386.2011 462,-300 450.9795,-252.1151 502.6043,-206.7436 528.2565,-187.5755"/>
<polygon fill="#191970" stroke="#191970" points="580.4368,-512.503 590.6336,-515.3799 584.4565,-506.7721 580.4368,-512.503"/>
</g>
<!-- Node15 -->
<g id="node15" class="node">
<title>Node15</title>
<g id="a_node15"><a xlink:href="../../d5/d72/non__local__functor_8hpp.html" target="_top" xlink:title="Common operation for forces and stress tensor. ">
<polygon fill="#ffffff" stroke="#000000" points="680,-224.5 680,-243.5 770,-243.5 770,-224.5 680,-224.5"/>
<text text-anchor="middle" x="725" y="-231.5" font-family="Helvetica,sans-Serif" font-size="10.00" fill="#000000">non_local_functor.hpp</text>
</a>
</g>
</g>
<!-- Node2&#45;&gt;Node15 -->
<g id="edge43" class="edge">
<title>Node2&#45;&gt;Node15</title>
<path fill="none" stroke="#191970" d="M613.847,-505.8112C636.9194,-449.3903 703.9854,-285.3887 721.0258,-243.7185"/>
<polygon fill="#191970" stroke="#191970" points="610.5049,-504.7371 609.9593,-515.3179 616.9841,-507.3867 610.5049,-504.7371"/>
</g>
<!-- Node18 -->
<g id="node18" class="node">
<title>Node18</title>
<g id="a_node18"><a xlink:href="../../df/dae/non__local__operator_8h.html" target="_top" xlink:title="Contains declaration and implementation of sirius::Non_local_operator class. ">
<polygon fill="#ffffff" stroke="#000000" points="73.5,-336.5 73.5,-355.5 160.5,-355.5 160.5,-336.5 73.5,-336.5"/>
<text text-anchor="middle" x="117" y="-343.5" font-family="Helvetica,sans-Serif" font-size="10.00" fill="#000000">non_local_operator.h</text>
</a>
</g>
</g>
<!-- Node2&#45;&gt;Node18 -->
<g id="edge36" class="edge">
<title>Node2&#45;&gt;Node18</title>
<path fill="none" stroke="#191970" d="M558.7715,-522.5434C453.8944,-516.7172 208.4132,-500.8928 178,-479 135.529,-448.4275 121.9109,-380.9372 118.2115,-355.74"/>
<polygon fill="#191970" stroke="#191970" points="558.591,-526.0386 568.7678,-523.092 558.9746,-519.0492 558.591,-526.0386"/>
</g>
<!-- Node2&#45;&gt;Node19 -->
<g id="edge40" class="edge">
<title>Node2&#45;&gt;Node19</title>
<path fill="none" stroke="#191970" d="M651.8311,-512.7199C690.2613,-502.4228 744.352,-487.9296 779.5405,-478.5011"/>
<polygon fill="#191970" stroke="#191970" points="650.6818,-509.4043 641.9284,-515.3733 652.4935,-516.1658 650.6818,-509.4043"/>
</g>
<!-- Node4 -->
<g id="node4" class="node">
<title>Node4</title>
<g id="a_node4"><a xlink:href="../../d8/def/k__point__set_8h.html" target="_top" xlink:title="Contains declaration and partial implementation of sirius::K_point_set class. ">
<polygon fill="#ffffff" stroke="#000000" points="551.5,-398 551.5,-417 612.5,-417 612.5,-398 551.5,-398"/>
<text text-anchor="middle" x="582" y="-405" font-family="Helvetica,sans-Serif" font-size="10.00" fill="#000000">k_point_set.h</text>
</a>
</g>
</g>
<!-- Node3&#45;&gt;Node4 -->
<g id="edge3" class="edge">
<title>Node3&#45;&gt;Node4</title>
<path fill="none" stroke="#191970" d="M582,-449.2462C582,-438.5519 582,-425.814 582,-417.2449"/>
<polygon fill="#191970" stroke="#191970" points="578.5001,-449.3906 582,-459.3906 585.5001,-449.3907 578.5001,-449.3906"/>
</g>
<!-- Node7 -->
<g id="node7" class="node">
<title>Node7</title>
<g id="a_node7"><a xlink:href="../../dd/dc2/sirius_8h.html" target="_top" xlink:title="&quot;All&#45;in&#45;one&quot; include file. ">
<polygon fill="#ffffff" stroke="#000000" points="486,-56.5 486,-75.5 526,-75.5 526,-56.5 486,-56.5"/>
<text text-anchor="middle" x="506" y="-63.5" font-family="Helvetica,sans-Serif" font-size="10.00" fill="#000000">sirius.h</text>
</a>
</g>
</g>
<!-- Node3&#45;&gt;Node7 -->
<g id="edge35" class="edge">
<title>Node3&#45;&gt;Node7</title>
<path fill="none" stroke="#191970" d="M615.124,-457.1767C706.1594,-422.5621 949.7374,-314.5637 893,-168 880.8471,-136.6067 871.7958,-127.6667 842,-112 786.3696,-82.7494 589.8309,-70.2935 526.1072,-66.9639"/>
<polygon fill="#191970" stroke="#191970" points="613.6919,-453.9754 605.5529,-460.7583 616.1453,-460.5314 613.6919,-453.9754"/>
</g>
<!-- Node12 -->
<g id="node12" class="node">
<title>Node12</title>
<g id="a_node12"><a xlink:href="../../d0/d39/_hamiltonian_8h_source.html" target="_top" xlink:title="Hamiltonian.h">
<polygon fill="#ffffff" stroke="#000000" points="167,-168.5 167,-187.5 229,-187.5 229,-168.5 167,-168.5"/>
<text text-anchor="middle" x="198" y="-175.5" font-family="Helvetica,sans-Serif" font-size="10.00" fill="#000000">Hamiltonian.h</text>
</a>
</g>
</g>
<!-- Node3&#45;&gt;Node12 -->
<g id="edge34" class="edge">
<title>Node3&#45;&gt;Node12</title>
<path fill="none" stroke="#191970" d="M552.4557,-454.8053C490.074,-423.708 342.8746,-344.2699 248,-244 230.6113,-225.6224 213.4992,-201.3187 204.5023,-187.9236"/>
<polygon fill="#191970" stroke="#191970" points="551.202,-458.0896 561.7184,-459.3769 554.3002,-451.8125 551.202,-458.0896"/>
</g>
<!-- Node17 -->
<g id="node17" class="node">
<title>Node17</title>
<g id="a_node17"><a xlink:href="../../db/d74/hubbard_8hpp_source.html" target="_top" xlink:title="hubbard.hpp">
<polygon fill="#ffffff" stroke="#000000" points="142.5,-280.5 142.5,-299.5 201.5,-299.5 201.5,-280.5 142.5,-280.5"/>
<text text-anchor="middle" x="172" y="-287.5" font-family="Helvetica,sans-Serif" font-size="10.00" fill="#000000">hubbard.hpp</text>
</a>
</g>
</g>
<!-- Node3&#45;&gt;Node17 -->
<g id="edge30" class="edge">
<title>Node3&#45;&gt;Node17</title>
<path fill="none" stroke="#191970" d="M548.3372,-467.8604C474.7003,-464.8046 302.0581,-454.4051 254,-423 207.2224,-392.4317 182.6307,-324.9388 174.809,-299.7405"/>
<polygon fill="#191970" stroke="#191970" points="548.3264,-471.3626 558.4567,-468.2596 548.6024,-464.3681 548.3264,-471.3626"/>
</g>
<!-- Node5 -->
<g id="node5" class="node">
<title>Node5</title>
<g id="a_node5"><a xlink:href="../../d9/dc2/band_8h.html" target="_top" xlink:title="Contains declaration and partial implementation of sirius::Band class. ">
<polygon fill="#ffffff" stroke="#000000" points="246.5,-112.5 246.5,-131.5 285.5,-131.5 285.5,-112.5 246.5,-112.5"/>
<text text-anchor="middle" x="266" y="-119.5" font-family="Helvetica,sans-Serif" font-size="10.00" fill="#000000">band.h</text>
</a>
</g>
</g>
<!-- Node4&#45;&gt;Node5 -->
<g id="edge4" class="edge">
<title>Node4&#45;&gt;Node5</title>
<path fill="none" stroke="#191970" d="M541.1612,-397.4982C475.5431,-379.1379 347.6647,-333.4628 285,-244 260.281,-208.71 262.6656,-153.627 264.8312,-131.5874"/>
<polygon fill="#191970" stroke="#191970" points="540.5703,-400.9646 551.1384,-400.2129 542.4082,-394.2102 540.5703,-400.9646"/>
</g>
<!-- Node4&#45;&gt;Node7 -->
<g id="edge29" class="edge">
<title>Node4&#45;&gt;Node7</title>
<path fill="none" stroke="#191970" d="M606.7687,-392.5164C664.7591,-356.5213 802.7145,-265.1247 779,-224 722.5105,-126.0383 579.5218,-83.3107 526.3374,-70.4497"/>
<polygon fill="#191970" stroke="#191970" points="604.8653,-389.5781 598.1851,-397.8016 608.5355,-395.5388 604.8653,-389.5781"/>
</g>
<!-- Node9 -->
<g id="node9" class="node">
<title>Node9</title>
<g id="a_node9"><a xlink:href="../../d2/dcb/density_8h.html" target="_top" xlink:title="Contains definition and partial implementation of sirius::Density class. ">
<polygon fill="#ffffff" stroke="#000000" points="546.5,-336.5 546.5,-355.5 593.5,-355.5 593.5,-336.5 546.5,-336.5"/>
<text text-anchor="middle" x="570" y="-343.5" font-family="Helvetica,sans-Serif" font-size="10.00" fill="#000000">density.h</text>
</a>
</g>
</g>
<!-- Node4&#45;&gt;Node9 -->
<g id="edge8" class="edge">
<title>Node4&#45;&gt;Node9</title>
<path fill="none" stroke="#191970" d="M578.1456,-387.7462C576.0589,-377.0519 573.5735,-364.314 571.9014,-355.7449"/>
<polygon fill="#191970" stroke="#191970" points="574.7746,-388.746 580.125,-397.8906 581.645,-387.4054 574.7746,-388.746"/>
</g>
<!-- Node13 -->
<g id="node13" class="node">
<title>Node13</title>
<g id="a_node13"><a xlink:href="../../d6/df1/dft__ground__state_8h.html" target="_top" xlink:title="Contains definition and partial implementation of sirius::DFT_ground_state class. ...">
<polygon fill="#ffffff" stroke="#000000" points="582.5,-224.5 582.5,-243.5 661.5,-243.5 661.5,-224.5 582.5,-224.5"/>
<text text-anchor="middle" x="622" y="-231.5" font-family="Helvetica,sans-Serif" font-size="10.00" fill="#000000">dft_ground_state.h</text>
</a>
</g>
</g>
<!-- Node4&#45;&gt;Node13 -->
<g id="edge28" class="edge">
<title>Node4&#45;&gt;Node13</title>
<path fill="none" stroke="#191970" d="M590.4739,-388.4916C594.464,-378.9072 598.9953,-367.0082 602,-356 613.1901,-315.0024 619.0346,-264.4419 621.1085,-243.6361"/>
<polygon fill="#191970" stroke="#191970" points="587.1925,-387.2625 586.4544,-397.8316 593.6224,-390.0296 587.1925,-387.2625"/>
</g>
<!-- Node6 -->
<g id="node6" class="node">
<title>Node6</title>
<g id="a_node6"><a xlink:href="../../d2/d15/add__nl__h__o__rs_8cpp_source.html" target="_top" xlink:title="add_nl_h_o_rs.cpp">
<polygon fill="#ffffff" stroke="#000000" points="226,-56.5 226,-75.5 306,-75.5 306,-56.5 226,-56.5"/>
<text text-anchor="middle" x="266" y="-63.5" font-family="Helvetica,sans-Serif" font-size="10.00" fill="#000000">add_nl_h_o_rs.cpp</text>
</a>
</g>
</g>
<!-- Node5&#45;&gt;Node6 -->
<g id="edge5" class="edge">
<title>Node5&#45;&gt;Node6</title>
<path fill="none" stroke="#191970" d="M266,-102.1575C266,-93.155 266,-82.9199 266,-75.6427"/>
<polygon fill="#191970" stroke="#191970" points="262.5001,-102.2455 266,-112.2455 269.5001,-102.2456 262.5001,-102.2455"/>
</g>
<!-- Node5&#45;&gt;Node7 -->
<g id="edge6" class="edge">
<title>Node5&#45;&gt;Node7</title>
<path fill="none" stroke="#191970" d="M295.4037,-115.1391C344.8245,-103.6076 443.2953,-80.6311 485.7494,-70.7251"/>
<polygon fill="#191970" stroke="#191970" points="294.5833,-111.7365 285.6402,-117.4173 296.174,-118.5534 294.5833,-111.7365"/>
</g>
<!-- Node8 -->
<g id="node8" class="node">
<title>Node8</title>
<g id="a_node8"><a xlink:href="../../d4/d53/sirius__api_8cpp.html" target="_top" xlink:title="Fortran API. ">
<polygon fill="#ffffff" stroke="#000000" points="305,-.5 305,-19.5 367,-19.5 367,-.5 305,-.5"/>
<text text-anchor="middle" x="336" y="-7.5" font-family="Helvetica,sans-Serif" font-size="10.00" fill="#000000">sirius_api.cpp</text>
</a>
</g>
</g>
<!-- Node7&#45;&gt;Node8 -->
<g id="edge7" class="edge">
<title>Node7&#45;&gt;Node8</title>
<path fill="none" stroke="#191970" d="M476.3314,-56.2268C445.0147,-45.9107 395.9771,-29.7571 364.939,-19.5328"/>
<polygon fill="#191970" stroke="#191970" points="475.2382,-59.5516 485.8312,-59.3562 477.4283,-52.9031 475.2382,-59.5516"/>
</g>
<!-- Node9&#45;&gt;Node7 -->
<g id="edge27" class="edge">
<title>Node9&#45;&gt;Node7</title>
<path fill="none" stroke="#191970" d="M536.051,-339.2962C512.3164,-332.953 481.497,-321.1418 462,-300 441.0383,-277.2699 440,-264.92 440,-234 440,-234 440,-234 440,-178 440,-134.8924 476.7393,-93.7639 495.396,-75.6575"/>
<polygon fill="#191970" stroke="#191970" points="535.5156,-342.7689 546.0628,-341.7654 537.1919,-335.9726 535.5156,-342.7689"/>
</g>
<!-- Node10 -->
<g id="node10" class="node">
<title>Node10</title>
<g id="a_node10"><a xlink:href="../../df/d86/potential_8h.html" target="_top" xlink:title="Contains declaration and partial implementation of sirius::Potential class. ">
<polygon fill="#ffffff" stroke="#000000" points="471.5,-280.5 471.5,-299.5 522.5,-299.5 522.5,-280.5 471.5,-280.5"/>
<text text-anchor="middle" x="497" y="-287.5" font-family="Helvetica,sans-Serif" font-size="10.00" fill="#000000">potential.h</text>
</a>
</g>
</g>
<!-- Node9&#45;&gt;Node10 -->
<g id="edge9" class="edge">
<title>Node9&#45;&gt;Node10</title>
<path fill="none" stroke="#191970" d="M549.049,-329.928C536.2893,-320.1397 520.4115,-307.9595 509.5699,-299.6427"/>
<polygon fill="#191970" stroke="#191970" points="547.2197,-332.9359 557.2844,-336.2455 551.4804,-327.3819 547.2197,-332.9359"/>
</g>
<!-- Node9&#45;&gt;Node13 -->
<g id="edge24" class="edge">
<title>Node9&#45;&gt;Node13</title>
<path fill="none" stroke="#191970" d="M578.7055,-327.2498C589.9203,-303.0946 608.9906,-262.0202 617.5777,-243.5249"/>
<polygon fill="#191970" stroke="#191970" points="575.4701,-325.9069 574.4335,-336.4509 581.8192,-328.8548 575.4701,-325.9069"/>
</g>
<!-- Node9&#45;&gt;Node14 -->
<g id="edge25" class="edge">
<title>Node9&#45;&gt;Node14</title>
<path fill="none" stroke="#191970" d="M566.71,-326.2601C560.6945,-290.1669 548.1276,-214.7656 543.638,-187.8279"/>
<polygon fill="#191970" stroke="#191970" points="563.3179,-327.1977 568.4144,-336.4862 570.2227,-326.0469 563.3179,-327.1977"/>
</g>
<!-- Node9&#45;&gt;Node15 -->
<g id="edge26" class="edge">
<title>Node9&#45;&gt;Node15</title>
<path fill="none" stroke="#191970" d="M591.6167,-330.3802C624.2403,-306.807 685.0794,-262.8459 711.8182,-243.5249"/>
<polygon fill="#191970" stroke="#191970" points="589.2707,-327.7572 583.2152,-336.4509 593.3705,-333.431 589.2707,-327.7572"/>
</g>
<!-- Node10&#45;&gt;Node7 -->
<g id="edge23" class="edge">
<title>Node10&#45;&gt;Node7</title>
<path fill="none" stroke="#191970" d="M497.7988,-270.1177C499.665,-223.6713 504.2554,-109.4223 505.6147,-75.5891"/>
<polygon fill="#191970" stroke="#191970" points="494.2911,-270.2425 497.3867,-280.375 501.2855,-270.5236 494.2911,-270.2425"/>
</g>
<!-- Node11 -->
<g id="node11" class="node">
<title>Node11</title>
<g id="a_node11"><a xlink:href="../../d3/d2c/local__operator_8hpp.html" target="_top" xlink:title="Contains declaration and implementation of sirius::Local_operator class. ">
<polygon fill="#ffffff" stroke="#000000" points="294.5,-224.5 294.5,-243.5 373.5,-243.5 373.5,-224.5 294.5,-224.5"/>
<text text-anchor="middle" x="334" y="-231.5" font-family="Helvetica,sans-Serif" font-size="10.00" fill="#000000">local_operator.hpp</text>
</a>
</g>
</g>
<!-- Node10&#45;&gt;Node11 -->
<g id="edge10" class="edge">
<title>Node10&#45;&gt;Node11</title>
<path fill="none" stroke="#191970" d="M461.5417,-277.818C431.6381,-267.5444 389.427,-253.0424 361.8904,-243.582"/>
<polygon fill="#191970" stroke="#191970" points="460.5775,-281.1875 471.1722,-281.1266 462.852,-274.5673 460.5775,-281.1875"/>
</g>
<!-- Node10&#45;&gt;Node12 -->
<g id="edge14" class="edge">
<title>Node10&#45;&gt;Node12</title>
<path fill="none" stroke="#191970" d="M461.3321,-287.0135C417.9554,-282.33 343.314,-270.8381 285,-244 253.4834,-229.495 222.5685,-202.0015 207.5002,-187.5011"/>
<polygon fill="#191970" stroke="#191970" points="461.0942,-290.5073 471.3973,-288.038 461.8031,-283.5433 461.0942,-290.5073"/>
</g>
<!-- Node10&#45;&gt;Node13 -->
<g id="edge15" class="edge">
<title>Node10&#45;&gt;Node13</title>
<path fill="none" stroke="#191970" d="M527.698,-276.2473C550.3993,-266.0771 580.7315,-252.4883 600.7921,-243.5011"/>
<polygon fill="#191970" stroke="#191970" points="526.1833,-273.0906 518.4883,-280.3733 529.0453,-279.4789 526.1833,-273.0906"/>
</g>
<!-- Node10&#45;&gt;Node14 -->
<g id="edge17" class="edge">
<title>Node10&#45;&gt;Node14</title>
<path fill="none" stroke="#191970" d="M504.664,-270.9253C514.3859,-246.7284 530.7751,-205.9376 538.173,-187.5249"/>
<polygon fill="#191970" stroke="#191970" points="501.3173,-269.867 500.8367,-280.4509 507.8126,-272.4768 501.3173,-269.867"/>
</g>
<!-- Node10&#45;&gt;Node15 -->
<g id="edge19" class="edge">
<title>Node10&#45;&gt;Node15</title>
<path fill="none" stroke="#191970" d="M532.4281,-281.2984C574.0773,-271.0687 642.9724,-254.1471 686.0786,-243.5596"/>
<polygon fill="#191970" stroke="#191970" points="531.5878,-277.9006 522.7113,-283.6849 533.2575,-284.6986 531.5878,-277.9006"/>
</g>
<!-- Node11&#45;&gt;Node5 -->
<g id="edge11" class="edge">
<title>Node11&#45;&gt;Node5</title>
<path fill="none" stroke="#191970" d="M323.0063,-215.8927C308.3967,-191.8299 283.1125,-150.1853 271.783,-131.5249"/>
<polygon fill="#191970" stroke="#191970" points="320.0208,-217.7195 328.2024,-224.4509 326.0043,-214.0866 320.0208,-217.7195"/>
</g>
<!-- Node11&#45;&gt;Node12 -->
<g id="edge12" class="edge">
<title>Node11&#45;&gt;Node12</title>
<path fill="none" stroke="#191970" d="M301.2601,-220.5189C276.4917,-210.3201 243.095,-196.5685 221.0742,-187.5011"/>
<polygon fill="#191970" stroke="#191970" points="300.0413,-223.8021 310.6208,-224.3733 302.7066,-217.3293 300.0413,-223.8021"/>
</g>
<!-- Node12&#45;&gt;Node5 -->
<g id="edge13" class="edge">
<title>Node12&#45;&gt;Node5</title>
<path fill="none" stroke="#191970" d="M217.8596,-161.645C229.6858,-151.9058 244.2892,-139.8795 254.291,-131.6427"/>
<polygon fill="#191970" stroke="#191970" points="215.339,-159.1867 209.8447,-168.2455 219.789,-164.5902 215.339,-159.1867"/>
</g>
<!-- Node13&#45;&gt;Node7 -->
<g id="edge16" class="edge">
<title>Node13&#45;&gt;Node7</title>
<path fill="none" stroke="#191970" d="M609.728,-216.1187C593.3903,-192.3267 563.5803,-148.9614 538,-112 529.2527,-99.3608 519.1134,-84.8008 512.6323,-75.5055"/>
<polygon fill="#191970" stroke="#191970" points="606.9352,-218.2347 615.4805,-224.4979 612.7061,-214.2728 606.9352,-218.2347"/>
</g>
<!-- Node14&#45;&gt;Node7 -->
<g id="edge18" class="edge">
<title>Node14&#45;&gt;Node7</title>
<path fill="none" stroke="#191970" d="M535.8688,-158.9253C528.0913,-134.7284 514.9799,-93.9376 509.0616,-75.5249"/>
<polygon fill="#191970" stroke="#191970" points="532.5384,-160.0017 538.9307,-168.4509 539.2026,-157.8596 532.5384,-160.0017"/>
</g>
<!-- Node15&#45;&gt;Node14 -->
<g id="edge20" class="edge">
<title>Node15&#45;&gt;Node14</title>
<path fill="none" stroke="#191970" d="M683.7485,-221.3766C647.4853,-210.2797 595.9589,-194.512 566.0519,-185.3601"/>
<polygon fill="#191970" stroke="#191970" points="682.9547,-224.7938 693.5412,-224.3733 685.0031,-218.1002 682.9547,-224.7938"/>
</g>
<!-- Node16 -->
<g id="node16" class="node">
<title>Node16</title>
<g id="a_node16"><a xlink:href="../../d7/dd1/stress_8hpp.html" target="_top" xlink:title="Stress tensor calculation. ">
<polygon fill="#ffffff" stroke="#000000" points="832.5,-168.5 832.5,-187.5 883.5,-187.5 883.5,-168.5 832.5,-168.5"/>
<text text-anchor="middle" x="858" y="-175.5" font-family="Helvetica,sans-Serif" font-size="10.00" fill="#000000">stress.hpp</text>
</a>
</g>
</g>
<!-- Node15&#45;&gt;Node16 -->
<g id="edge21" class="edge">
<title>Node15&#45;&gt;Node16</title>
<path fill="none" stroke="#191970" d="M757.3397,-220.3833C781.5285,-210.1985 813.995,-196.5284 835.4348,-187.5011"/>
<polygon fill="#191970" stroke="#191970" points="755.7217,-217.2669 747.8635,-224.3733 758.4381,-223.7184 755.7217,-217.2669"/>
</g>
<!-- Node16&#45;&gt;Node7 -->
<g id="edge22" class="edge">
<title>Node16&#45;&gt;Node7</title>
<path fill="none" stroke="#191970" d="M851.4541,-158.4897C845.2893,-143.2799 834.5056,-122.9598 818,-112 769.6507,-79.8959 587.4131,-69.4178 526.1973,-66.7644"/>
<polygon fill="#191970" stroke="#191970" points="848.2334,-159.8708 854.9977,-168.0252 854.795,-157.4323 848.2334,-159.8708"/>
</g>
<!-- Node17&#45;&gt;Node5 -->
<g id="edge31" class="edge">
<title>Node17&#45;&gt;Node5</title>
<path fill="none" stroke="#191970" d="M162.8149,-271.1624C151.7938,-245.5726 137.2316,-199.4195 158,-168 163.1695,-160.1793 216.7008,-139.8372 246.4033,-129.0134"/>
<polygon fill="#191970" stroke="#191970" points="159.73,-272.8329 167.0669,-280.4761 166.0977,-269.9257 159.73,-272.8329"/>
</g>
<!-- Node17&#45;&gt;Node12 -->
<g id="edge32" class="edge">
<title>Node17&#45;&gt;Node12</title>
<path fill="none" stroke="#191970" d="M171.2337,-270.0889C171.2014,-256.8285 172.0838,-239.1276 176,-224 179.4166,-210.8023 186.6839,-196.8367 191.9327,-187.8031"/>
<polygon fill="#191970" stroke="#191970" points="167.7412,-270.496 171.4443,-280.4225 174.7397,-270.3533 167.7412,-270.496"/>
</g>
<!-- Node17&#45;&gt;Node13 -->
<g id="edge33" class="edge">
<title>Node17&#45;&gt;Node13</title>
<path fill="none" stroke="#191970" d="M211.5771,-285.0749C296.8323,-274.4653 497.0043,-249.555 582.3368,-238.9359"/>
<polygon fill="#191970" stroke="#191970" points="211.017,-281.6175 201.5258,-286.3257 211.8815,-288.5639 211.017,-281.6175"/>
</g>
<!-- Node18&#45;&gt;Node5 -->
<g id="edge37" class="edge">
<title>Node18&#45;&gt;Node5</title>
<path fill="none" stroke="#191970" d="M114.1384,-325.8769C110.1907,-289.7549 107.4305,-213.4544 146,-168 149.4104,-163.9808 213.1922,-140.8235 246.3444,-128.9774"/>
<polygon fill="#191970" stroke="#191970" points="110.7028,-326.6118 115.411,-336.103 117.6492,-325.7473 110.7028,-326.6118"/>
</g>
<!-- Node18&#45;&gt;Node12 -->
<g id="edge39" class="edge">
<title>Node18&#45;&gt;Node12</title>
<path fill="none" stroke="#191970" d="M120.028,-326.2547C122.5038,-312.8485 126.6481,-294.9154 133,-280 148.632,-243.2931 176.865,-204.8871 190.3836,-187.5238"/>
<polygon fill="#191970" stroke="#191970" points="116.5482,-325.8415 118.329,-336.2856 123.4499,-327.0106 116.5482,-325.8415"/>
</g>
<!-- Node18&#45;&gt;Node17 -->
<g id="edge38" class="edge">
<title>Node18&#45;&gt;Node17</title>
<path fill="none" stroke="#191970" d="M133.6226,-329.0751C143.0855,-319.4402 154.5969,-307.7196 162.5295,-299.6427"/>
<polygon fill="#191970" stroke="#191970" points="131.0903,-326.6585 126.5803,-336.2455 136.0845,-331.5635 131.0903,-326.6585"/>
</g>
<!-- Node19&#45;&gt;Node14 -->
<g id="edge41" class="edge">
<title>Node19&#45;&gt;Node14</title>
<path fill="none" stroke="#191970" d="M818.8402,-449.496C826.6814,-403.401 839.079,-286.8965 779,-224 749.9044,-193.5399 620.3945,-182.5541 566.0887,-179.2395"/>
<polygon fill="#191970" stroke="#191970" points="815.3864,-448.9269 817.0368,-459.3923 822.273,-450.1819 815.3864,-448.9269"/>
</g>
<!-- Node20&#45;&gt;Node16 -->
<g id="edge46" class="edge">
<title>Node20&#45;&gt;Node16</title>
<path fill="none" stroke="#191970" d="M890.0687,-382.4378C882.2035,-332.2974 864.8329,-221.5598 859.5526,-187.8981"/>
<polygon fill="#191970" stroke="#191970" points="886.6305,-383.1051 891.6379,-392.4419 893.5459,-382.0203 886.6305,-383.1051"/>
</g>
<!-- Node21&#45;&gt;Node7 -->
<g id="edge48" class="edge">
<title>Node21&#45;&gt;Node7</title>
<path fill="none" stroke="#191970" d="M238.7612,-111.7258C336.7419,-92.2195 442.1982,-75.679 485.6771,-69.0547"/>
<polygon fill="#191970" stroke="#191970" points="237.8113,-108.3466 228.6954,-113.7458 239.1886,-115.2097 237.8113,-108.3466"/>
</g>
<!-- Node21&#45;&gt;Node8 -->
<g id="edge49" class="edge">
<title>Node21&#45;&gt;Node8</title>
<path fill="none" stroke="#191970" d="M196.4122,-102.1979C199.1396,-87.7228 204.9009,-68.5118 217,-56 240.4808,-31.7182 278.2151,-20.0422 304.8886,-14.5701"/>
<polygon fill="#191970" stroke="#191970" points="192.9421,-101.7353 194.8632,-112.1545 199.8589,-102.8114 192.9421,-101.7353"/>
</g>
</g>
</svg>
