<?xml version="1.0" encoding="UTF-8" standalone="no"?>
<!DOCTYPE svg PUBLIC "-//W3C//DTD SVG 1.1//EN"
 "http://www.w3.org/Graphics/SVG/1.1/DTD/svg11.dtd">
<!-- Generated by graphviz version 2.40.1 (20161225.0304)
 -->
<!-- Title: nlohmann::basic_json&lt; ObjectType, ArrayType, StringType, BooleanType, NumberIntegerType, NumberUnsignedType, NumberFloatType, AllocatorType, JSONSerializer, BinaryType &gt; Pages: 1 -->
<svg width="804pt" height="83pt"
 viewBox="0.00 0.00 804.00 83.00" xmlns="http://www.w3.org/2000/svg" xmlns:xlink="http://www.w3.org/1999/xlink">
<g id="graph0" class="graph" transform="scale(1 1) rotate(0) translate(4 79)">
<title>nlohmann::basic_json&lt; ObjectType, ArrayType, StringType, BooleanType, NumberIntegerType, NumberUnsignedType, NumberFloatType, AllocatorType, JSONSerializer, BinaryType &gt;</title>
<polygon fill="#ffffff" stroke="transparent" points="-4,4 -4,-79 800,-79 800,4 -4,4"/>
<!-- Node1 -->
<g id="node1" class="node">
<title>Node1</title>
<g id="a_node1"><a xlink:title="a class to store JSON values">
<polygon fill="#bfbfbf" stroke="#000000" points="602,-.5 602,-74.5 796,-74.5 796,-.5 602,-.5"/>
<text text-anchor="start" x="610" y="-62.5" font-family="Helvetica,sans-Serif" font-size="10.00" fill="#000000">nlohmann::basic_json</text>
<text text-anchor="start" x="610" y="-51.5" font-family="Helvetica,sans-Serif" font-size="10.00" fill="#000000">&lt; ObjectType, ArrayType,</text>
<text text-anchor="start" x="610" y="-40.5" font-family="Helvetica,sans-Serif" font-size="10.00" fill="#000000"> StringType, BooleanType,</text>
<text text-anchor="start" x="610" y="-29.5" font-family="Helvetica,sans-Serif" font-size="10.00" fill="#000000"> NumberIntegerType, NumberUnsigned</text>
<text text-anchor="start" x="610" y="-18.5" font-family="Helvetica,sans-Serif" font-size="10.00" fill="#000000">Type, NumberFloatType, AllocatorType,</text>
<text text-anchor="middle" x="699" y="-7.5" font-family="Helvetica,sans-Serif" font-size="10.00" fill="#000000"> JSONSerializer, BinaryType &gt;</text>
</a>
</g>
</g>
<!-- Node2 -->
<g id="node2" class="node">
<title>Node2</title>
<g id="a_node2"><a xlink:href="../../d1/de3/unionnlohmann_1_1basic__json_1_1json__value.html" target="_top" xlink:title="a JSON value">
<polygon fill="#ffffff" stroke="#000000" points="319,-.5 319,-74.5 525,-74.5 525,-.5 319,-.5"/>
<text text-anchor="start" x="327" y="-62.5" font-family="Helvetica,sans-Serif" font-size="10.00" fill="#000000">nlohmann::basic_json</text>
<text text-anchor="start" x="327" y="-51.5" font-family="Helvetica,sans-Serif" font-size="10.00" fill="#000000">&lt; ObjectType, ArrayType,</text>
<text text-anchor="start" x="327" y="-40.5" font-family="Helvetica,sans-Serif" font-size="10.00" fill="#000000"> StringType, BooleanType,</text>
<text text-anchor="start" x="327" y="-29.5" font-family="Helvetica,sans-Serif" font-size="10.00" fill="#000000"> NumberIntegerType, NumberUnsigned</text>
<text text-anchor="start" x="327" y="-18.5" font-family="Helvetica,sans-Serif" font-size="10.00" fill="#000000">Type, NumberFloatType, AllocatorType,</text>
<text text-anchor="middle" x="422" y="-7.5" font-family="Helvetica,sans-Serif" font-size="10.00" fill="#000000"> JSONSerializer, BinaryType &gt;::json_value</text>
</a>
</g>
</g>
<!-- Node2&#45;&gt;Node1 -->
<g id="edge1" class="edge">
<title>Node2&#45;&gt;Node1</title>
<path fill="none" stroke="#9a32cd" stroke-dasharray="5,2" d="M535.2136,-37.5C557.2827,-37.5 580.2384,-37.5 601.7357,-37.5"/>
<polygon fill="#9a32cd" stroke="#9a32cd" points="535.1446,-34.0001 525.1446,-37.5 535.1445,-41.0001 535.1446,-34.0001"/>
<text text-anchor="middle" x="563.5" y="-40.5" font-family="Helvetica,sans-Serif" font-size="10.00" fill="#000000"> m_value</text>
</g>
<!-- Node3 -->
<g id="node3" class="node">
<title>Node3</title>
<g id="a_node3"><a xlink:href="../../dd/d0d/classnlohmann_1_1byte__container__with__subtype.html" target="_top" xlink:title="an internal type for a backed binary type">
<polygon fill="#ffffff" stroke="#000000" points="104,-22.5 104,-52.5 252,-52.5 252,-22.5 104,-22.5"/>
<text text-anchor="start" x="112" y="-40.5" font-family="Helvetica,sans-Serif" font-size="10.00" fill="#000000">nlohmann::byte_container</text>
<text text-anchor="middle" x="178" y="-29.5" font-family="Helvetica,sans-Serif" font-size="10.00" fill="#000000">_with_subtype&lt; BinaryType &gt;</text>
</a>
</g>
</g>
<!-- Node3&#45;&gt;Node2 -->
<g id="edge2" class="edge">
<title>Node3&#45;&gt;Node2</title>
<path fill="none" stroke="#9a32cd" stroke-dasharray="5,2" d="M262.2131,-37.5C280.4873,-37.5 300.0164,-37.5 318.924,-37.5"/>
<polygon fill="#9a32cd" stroke="#9a32cd" points="262.2019,-34.0001 252.2018,-37.5 262.2018,-41.0001 262.2019,-34.0001"/>
<text text-anchor="middle" x="285.5" y="-40.5" font-family="Helvetica,sans-Serif" font-size="10.00" fill="#000000"> binary</text>
</g>
<!-- Node4 -->
<g id="node4" class="node">
<title>Node4</title>
<g id="a_node4"><a xlink:title=" ">
<polygon fill="#ffffff" stroke="#bfbfbf" points="0,-28 0,-47 67,-47 67,-28 0,-28"/>
<text text-anchor="middle" x="33.5" y="-35" font-family="Helvetica,sans-Serif" font-size="10.00" fill="#000000">BinaryType</text>
</a>
</g>
</g>
<!-- Node4&#45;&gt;Node3 -->
<g id="edge3" class="edge">
<title>Node4&#45;&gt;Node3</title>
<path fill="none" stroke="#191970" d="M77.0237,-37.5C85.5195,-37.5 94.6484,-37.5 103.8187,-37.5"/>
<polygon fill="#191970" stroke="#191970" points="77.0144,-34.0001 67.0144,-37.5 77.0144,-41.0001 77.0144,-34.0001"/>
</g>
</g>
</svg>
