<?xml version="1.0" encoding="UTF-8" standalone="no"?>
<!DOCTYPE svg PUBLIC "-//W3C//DTD SVG 1.1//EN"
 "http://www.w3.org/Graphics/SVG/1.1/DTD/svg11.dtd">
<!-- Generated by graphviz version 2.40.1 (20161225.0304)
 -->
<!-- Title: sirius::Crystal_symmetry Pages: 1 -->
<svg width="278pt" height="128pt"
 viewBox="0.00 0.00 277.50 128.00" xmlns="http://www.w3.org/2000/svg" xmlns:xlink="http://www.w3.org/1999/xlink">
<g id="graph0" class="graph" transform="scale(1 1) rotate(0) translate(4 124)">
<title>sirius::Crystal_symmetry</title>
<polygon fill="#ffffff" stroke="transparent" points="-4,4 -4,-124 273.5,-124 273.5,4 -4,4"/>
<!-- Node1 -->
<g id="node1" class="node">
<title>Node1</title>
<g id="a_node1"><a xlink:title="Representation of the crystal symmetry.">
<polygon fill="#bfbfbf" stroke="#000000" points="66,-.5 66,-19.5 191,-19.5 191,-.5 66,-.5"/>
<text text-anchor="middle" x="128.5" y="-7.5" font-family="Helvetica,sans-Serif" font-size="10.00" fill="#000000">sirius::Crystal_symmetry</text>
</a>
</g>
</g>
<!-- Node2 -->
<g id="node2" class="node">
<title>Node2</title>
<g id="a_node2"><a xlink:href="../../da/dfd/classgeometry3d_1_1matrix3d.html" target="_top" xlink:title=" ">
<polygon fill="#ffffff" stroke="#000000" points="0,-89.5 0,-119.5 113,-119.5 113,-89.5 0,-89.5"/>
<text text-anchor="start" x="8" y="-107.5" font-family="Helvetica,sans-Serif" font-size="10.00" fill="#000000">geometry3d::matrix3d</text>
<text text-anchor="middle" x="56.5" y="-96.5" font-family="Helvetica,sans-Serif" font-size="10.00" fill="#000000">&lt; double &gt;</text>
</a>
</g>
</g>
<!-- Node2&#45;&gt;Node1 -->
<g id="edge1" class="edge">
<title>Node2&#45;&gt;Node1</title>
<path fill="none" stroke="#9a32cd" stroke-dasharray="5,2" d="M57.9644,-79.3648C59.888,-65.8746 64.1564,-49.6711 73.5,-38 79.9955,-29.8864 89.465,-23.9015 98.7222,-19.5969"/>
<polygon fill="#9a32cd" stroke="#9a32cd" points="54.4679,-79.1452 56.8723,-89.4636 61.4273,-79.8979 54.4679,-79.1452"/>
<text text-anchor="start" x="73.5" y="-63" font-family="Helvetica,sans-Serif" font-size="10.00" fill="#000000"> inverse_lattice_vectors</text>
<text text-anchor="middle" x="126" y="-52" font-family="Helvetica,sans-Serif" font-size="10.00" fill="#000000">_</text>
<text text-anchor="middle" x="126" y="-41" font-family="Helvetica,sans-Serif" font-size="10.00" fill="#000000">lattice_vectors_</text>
</g>
<!-- Node3 -->
<g id="node3" class="node">
<title>Node3</title>
<g id="a_node3"><a xlink:href="../../d7/dab/classsddk_1_1mdarray.html" target="_top" xlink:title=" ">
<polygon fill="#ffffff" stroke="#000000" points="131.5,-95 131.5,-114 269.5,-114 269.5,-95 131.5,-95"/>
<text text-anchor="middle" x="200.5" y="-102" font-family="Helvetica,sans-Serif" font-size="10.00" fill="#000000">sddk::mdarray&lt; double, 2 &gt;</text>
</a>
</g>
</g>
<!-- Node3&#45;&gt;Node1 -->
<g id="edge2" class="edge">
<title>Node3&#45;&gt;Node1</title>
<path fill="none" stroke="#9a32cd" stroke-dasharray="5,2" d="M197.8376,-84.6163C195.0597,-70.3311 189.4928,-51.3219 178.5,-38 171.9779,-30.096 162.61,-24.0196 153.7421,-19.5797"/>
<polygon fill="#9a32cd" stroke="#9a32cd" points="194.4454,-85.5594 199.5179,-94.861 201.3531,-84.4264 194.4454,-85.5594"/>
<text text-anchor="middle" x="229" y="-57.5" font-family="Helvetica,sans-Serif" font-size="10.00" fill="#000000"> magnetization_</text>
<text text-anchor="middle" x="229" y="-46.5" font-family="Helvetica,sans-Serif" font-size="10.00" fill="#000000">positions_</text>
</g>
</g>
</svg>
