<?xml version="1.0" encoding="UTF-8" standalone="no"?>
<!DOCTYPE svg PUBLIC "-//W3C//DTD SVG 1.1//EN"
 "http://www.w3.org/Graphics/SVG/1.1/DTD/svg11.dtd">
<!-- Generated by graphviz version 2.40.1 (20161225.0304)
 -->
<!-- Title: sirius::Beta_projectors_strain_deriv Pages: 1 -->
<!--zoomable 460 -->
<svg id="main" version="1.1" xmlns="http://www.w3.org/2000/svg" xmlns:xlink="http://www.w3.org/1999/xlink" xml:space="preserve" onload="init(evt)">
<style type="text/css"><![CDATA[
.edge:hover path { stroke: red; }
.edge:hover polygon { stroke: red; fill: red; }
]]></style>
<script type="text/javascript"><![CDATA[
var edges = document.getElementsByTagName('g');
if (edges && edges.length) {
  for (var i=0;i<edges.length;i++) {
    if (edges[i].id.substr(0,4)=='edge') {
      edges[i].setAttribute('class','edge');
    }
  }
}
]]></script>
        <defs>
                <circle id="rim" cx="0" cy="0" r="7"/>
                <circle id="rim2" cx="0" cy="0" r="3.5"/>
                <g id="zoomPlus">
                        <use xlink:href="#rim" fill="#404040">
                                <set attributeName="fill" to="#808080" begin="zoomplus.mouseover" end="zoomplus.mouseout"/>
                        </use>
                        <path d="M-4,0h8M0,-4v8" fill="none" stroke="white" stroke-width="1.5" pointer-events="none"/>
                </g>
                <g id="zoomMin">
                        <use xlink:href="#rim" fill="#404040">
                                <set attributeName="fill" to="#808080" begin="zoomminus.mouseover" end="zoomminus.mouseout"/>
                        </use>
                        <path d="M-4,0h8" fill="none" stroke="white" stroke-width="1.5" pointer-events="none"/>
                </g>
                <g id="dirArrow">
                        <path fill="none" stroke="white" stroke-width="1.5" d="M0,-3.0v7 M-2.5,-0.5L0,-3.0L2.5,-0.5"/>
                </g>
               <g id="resetDef">
                       <use xlink:href="#rim2" fill="#404040">
                               <set attributeName="fill" to="#808080" begin="reset.mouseover" end="reset.mouseout"/>
                       </use>
               </g>
        </defs>

<script type="text/javascript">
var viewWidth = 1549;
var viewHeight = 460;
var sectionId = 'dynsection-1';
</script>
<script xlink:href="../../svgpan.js"/>
<svg id="graph" class="graph">
<g id="viewport">
<title>sirius::Beta_projectors_strain_deriv</title>
<polygon fill="#ffffff" stroke="transparent" points="-4,4 -4,-455.5 1545,-455.5 1545,4 -4,4"/>
<!-- Node2 -->
<g id="node1" class="node">
<title>Node2</title>
<polygon fill="#bfbfbf" stroke="#000000" points="1426,-159.5 1426,-189.5 1541,-189.5 1541,-159.5 1426,-159.5"/>
<text text-anchor="start" x="1434" y="-177.5" font-family="Helvetica,sans-Serif" font-size="10.00" fill="#000000">sirius::Beta_projectors</text>
<text text-anchor="middle" x="1483.5" y="-166.5" font-family="Helvetica,sans-Serif" font-size="10.00" fill="#000000">_strain_deriv</text>
</g>
<!-- Node3 -->
<g id="node2" class="node">
<title>Node3</title>
<g id="a_node2"><a xlink:href="../../d1/d5a/classsirius_1_1_beta__projectors__base.html" target="_top" xlink:title="Base class for beta&#45;projectors, gradient of beta&#45;projectors and strain derivatives of beta&#45;projectors...">
<polygon fill="#ffffff" stroke="#000000" points="1246,-165 1246,-184 1389,-184 1389,-165 1246,-165"/>
<text text-anchor="middle" x="1317.5" y="-172" font-family="Helvetica,sans-Serif" font-size="10.00" fill="#000000">sirius::Beta_projectors_base</text>
</a>
</g>
</g>
<!-- Node3&#45;&gt;Node2 -->
<g id="edge1" class="edge">
<title>Node3&#45;&gt;Node2</title>
<path fill="none" stroke="#191970" d="M1399.387,-174.5C1408.3076,-174.5 1417.2454,-174.5 1425.788,-174.5"/>
<polygon fill="#191970" stroke="#191970" points="1399.3446,-171.0001 1389.3445,-174.5 1399.3445,-178.0001 1399.3446,-171.0001"/>
</g>
<!-- Node4 -->
<g id="node3" class="node">
<title>Node4</title>
<g id="a_node3"><a xlink:href="../../d6/d66/classsirius_1_1_simulation__context.html" target="_top" xlink:title="Simulation context is a set of parameters and objects describing a single simulation. ">
<polygon fill="#ffffff" stroke="#000000" points="1096,-159.5 1096,-189.5 1188,-189.5 1188,-159.5 1096,-159.5"/>
<text text-anchor="start" x="1104" y="-177.5" font-family="Helvetica,sans-Serif" font-size="10.00" fill="#000000">sirius::Simulation</text>
<text text-anchor="middle" x="1142" y="-166.5" font-family="Helvetica,sans-Serif" font-size="10.00" fill="#000000">_context</text>
</a>
</g>
</g>
<!-- Node4&#45;&gt;Node3 -->
<g id="edge2" class="edge">
<title>Node4&#45;&gt;Node3</title>
<path fill="none" stroke="#9a32cd" stroke-dasharray="5,2" d="M1198.3333,-174.5C1213.4694,-174.5 1230.0423,-174.5 1245.888,-174.5"/>
<polygon fill="#9a32cd" stroke="#9a32cd" points="1198.1106,-171.0001 1188.1106,-174.5 1198.1105,-178.0001 1198.1106,-171.0001"/>
<text text-anchor="middle" x="1217" y="-177.5" font-family="Helvetica,sans-Serif" font-size="10.00" fill="#000000"> ctx_</text>
</g>
<!-- Node5 -->
<g id="node4" class="node">
<title>Node5</title>
<g id="a_node4"><a xlink:href="../../d0/d04/classsirius_1_1_simulation__parameters.html" target="_top" xlink:title="Set of basic parameters of a simulation. ">
<polygon fill="#ffffff" stroke="#000000" points="569,-219.5 569,-249.5 661,-249.5 661,-219.5 569,-219.5"/>
<text text-anchor="start" x="577" y="-237.5" font-family="Helvetica,sans-Serif" font-size="10.00" fill="#000000">sirius::Simulation</text>
<text text-anchor="middle" x="615" y="-226.5" font-family="Helvetica,sans-Serif" font-size="10.00" fill="#000000">_parameters</text>
</a>
</g>
</g>
<!-- Node5&#45;&gt;Node4 -->
<g id="edge3" class="edge">
<title>Node5&#45;&gt;Node4</title>
<path fill="none" stroke="#191970" d="M671.387,-237.5155C759.7358,-240.7121 935.4291,-240.8818 1078,-202.5 1089.711,-199.3473 1102.0384,-194.3851 1112.7137,-189.5083"/>
<polygon fill="#191970" stroke="#191970" points="671.4394,-234.015 661.311,-237.1238 671.1674,-241.0097 671.4394,-234.015"/>
</g>
<!-- Node21 -->
<g id="node20" class="node">
<title>Node21</title>
<g id="a_node20"><a xlink:href="../../d6/dd1/classsirius_1_1_unit__cell.html" target="_top" xlink:title="Representation of a unit cell. ">
<polygon fill="#ffffff" stroke="#000000" points="853,-284 853,-303 937,-303 937,-284 853,-284"/>
<text text-anchor="middle" x="895" y="-291" font-family="Helvetica,sans-Serif" font-size="10.00" fill="#000000">sirius::Unit_cell</text>
</a>
</g>
</g>
<!-- Node5&#45;&gt;Node21 -->
<g id="edge23" class="edge">
<title>Node5&#45;&gt;Node21</title>
<path fill="none" stroke="#9a32cd" stroke-dasharray="5,2" d="M671.2671,-246.3563C724.896,-257.6567 804.438,-274.4173 852.8207,-284.6122"/>
<polygon fill="#9a32cd" stroke="#9a32cd" points="671.7431,-242.8798 661.2363,-244.2427 670.2998,-249.7294 671.7431,-242.8798"/>
<text text-anchor="middle" x="750.5" y="-276.5" font-family="Helvetica,sans-Serif" font-size="10.00" fill="#000000"> parameters_</text>
</g>
<!-- Node6 -->
<g id="node5" class="node">
<title>Node6</title>
<g id="a_node5"><a xlink:href="../../d4/d6e/structsirius_1_1_parameters__input.html" target="_top" xlink:title="Parse parameters input section. ">
<polygon fill="#ffffff" stroke="#000000" points="311,-320.5 311,-350.5 408,-350.5 408,-320.5 311,-320.5"/>
<text text-anchor="start" x="319" y="-338.5" font-family="Helvetica,sans-Serif" font-size="10.00" fill="#000000">sirius::Parameters</text>
<text text-anchor="middle" x="359.5" y="-327.5" font-family="Helvetica,sans-Serif" font-size="10.00" fill="#000000">_input</text>
</a>
</g>
</g>
<!-- Node6&#45;&gt;Node5 -->
<g id="edge4" class="edge">
<title>Node6&#45;&gt;Node5</title>
<path fill="none" stroke="#9a32cd" stroke-dasharray="5,2" d="M418.3823,-329.3904C454.0265,-324.0579 499.6568,-314.2607 537,-296.5 561.6822,-284.7609 585.6091,-263.8952 600.3111,-249.6402"/>
<polygon fill="#9a32cd" stroke="#9a32cd" points="417.5461,-325.9739 408.1362,-330.8424 418.5284,-332.9046 417.5461,-325.9739"/>
<text text-anchor="middle" x="485.5" y="-328.5" font-family="Helvetica,sans-Serif" font-size="10.00" fill="#000000"> parameters_input_</text>
</g>
<!-- Node7 -->
<g id="node6" class="node">
<title>Node7</title>
<g id="a_node6"><a xlink:href="../../da/de3/structsirius_1_1_control__input.html" target="_top" xlink:title="Parse control input section. ">
<polygon fill="#ffffff" stroke="#000000" points="307,-282 307,-301 412,-301 412,-282 307,-282"/>
<text text-anchor="middle" x="359.5" y="-289" font-family="Helvetica,sans-Serif" font-size="10.00" fill="#000000">sirius::Control_input</text>
</a>
</g>
</g>
<!-- Node7&#45;&gt;Node5 -->
<g id="edge5" class="edge">
<title>Node7&#45;&gt;Node5</title>
<path fill="none" stroke="#9a32cd" stroke-dasharray="5,2" d="M422.3829,-284.0775C456.5929,-279.3279 499.4698,-272.215 537,-262.5 550.3715,-259.0387 564.6831,-254.2358 577.3494,-249.5844"/>
<polygon fill="#9a32cd" stroke="#9a32cd" points="421.4994,-280.6651 412.0598,-285.4759 422.4391,-287.6018 421.4994,-280.6651"/>
<text text-anchor="middle" x="485.5" y="-284.5" font-family="Helvetica,sans-Serif" font-size="10.00" fill="#000000"> control_input_</text>
</g>
<!-- Node8 -->
<g id="node7" class="node">
<title>Node8</title>
<g id="a_node7"><a xlink:href="../../d2/dcd/structsirius_1_1_hubbard__input.html" target="_top" xlink:title="sirius::Hubbard_input">
<polygon fill="#ffffff" stroke="#000000" points="304,-244 304,-263 415,-263 415,-244 304,-244"/>
<text text-anchor="middle" x="359.5" y="-251" font-family="Helvetica,sans-Serif" font-size="10.00" fill="#000000">sirius::Hubbard_input</text>
</a>
</g>
</g>
<!-- Node8&#45;&gt;Node5 -->
<g id="edge6" class="edge">
<title>Node8&#45;&gt;Node5</title>
<path fill="none" stroke="#9a32cd" stroke-dasharray="5,2" d="M425.4927,-248.5925C470.4123,-245.2521 528.7465,-240.9142 568.7604,-237.9386"/>
<polygon fill="#9a32cd" stroke="#9a32cd" points="424.9677,-245.1218 415.2548,-249.3538 425.4869,-252.1025 424.9677,-245.1218"/>
<text text-anchor="middle" x="485.5" y="-250.5" font-family="Helvetica,sans-Serif" font-size="10.00" fill="#000000"> hubbard_input_</text>
</g>
<!-- Node9 -->
<g id="node8" class="node">
<title>Node9</title>
<g id="a_node8"><a xlink:href="../../d6/de3/structsirius_1_1_settings__input.html" target="_top" xlink:title="Settings control the internal parameters related to the numerical implementation. ...">
<polygon fill="#ffffff" stroke="#000000" points="305,-206 305,-225 414,-225 414,-206 305,-206"/>
<text text-anchor="middle" x="359.5" y="-213" font-family="Helvetica,sans-Serif" font-size="10.00" fill="#000000">sirius::Settings_input</text>
</a>
</g>
</g>
<!-- Node9&#45;&gt;Node5 -->
<g id="edge7" class="edge">
<title>Node9&#45;&gt;Node5</title>
<path fill="none" stroke="#9a32cd" stroke-dasharray="5,2" d="M424.4929,-218.2473C458.1119,-219.8999 499.795,-222.3083 537,-225.5 547.322,-226.3855 558.3899,-227.5384 568.851,-228.722"/>
<polygon fill="#9a32cd" stroke="#9a32cd" points="424.4888,-214.7431 414.3322,-217.7586 424.1525,-221.7351 424.4888,-214.7431"/>
<text text-anchor="middle" x="485.5" y="-228.5" font-family="Helvetica,sans-Serif" font-size="10.00" fill="#000000"> settings_input_</text>
</g>
<!-- Node10 -->
<g id="node9" class="node">
<title>Node10</title>
<g id="a_node9"><a xlink:href="../../d7/d51/structsirius_1_1_unit__cell__input.html" target="_top" xlink:title="Parse unit cell input section. ">
<polygon fill="#ffffff" stroke="#000000" points="304,-168 304,-187 415,-187 415,-168 304,-168"/>
<text text-anchor="middle" x="359.5" y="-175" font-family="Helvetica,sans-Serif" font-size="10.00" fill="#000000">sirius::Unit_cell_input</text>
</a>
</g>
</g>
<!-- Node10&#45;&gt;Node5 -->
<g id="edge8" class="edge">
<title>Node10&#45;&gt;Node5</title>
<path fill="none" stroke="#9a32cd" stroke-dasharray="5,2" d="M425.5482,-183.4723C459.2773,-187.4509 500.7406,-193.7816 537,-203.5 552.2012,-207.5743 568.4587,-213.7282 582.1758,-219.482"/>
<polygon fill="#9a32cd" stroke="#9a32cd" points="425.6746,-179.9642 415.3432,-182.3119 424.8837,-186.9194 425.6746,-179.9642"/>
<text text-anchor="middle" x="485.5" y="-206.5" font-family="Helvetica,sans-Serif" font-size="10.00" fill="#000000"> unit_cell_input_</text>
</g>
<!-- Node11 -->
<g id="node10" class="node">
<title>Node11</title>
<g id="a_node10"><a xlink:href="../../d2/d6b/classgeometry3d_1_1vector3d.html" target="_top" xlink:title="geometry3d::vector3d\l\&lt; double \&gt;">
<polygon fill="#ffffff" stroke="#000000" points="134,-162.5 134,-192.5 247,-192.5 247,-162.5 134,-162.5"/>
<text text-anchor="start" x="142" y="-180.5" font-family="Helvetica,sans-Serif" font-size="10.00" fill="#000000">geometry3d::vector3d</text>
<text text-anchor="middle" x="190.5" y="-169.5" font-family="Helvetica,sans-Serif" font-size="10.00" fill="#000000">&lt; double &gt;</text>
</a>
</g>
</g>
<!-- Node11&#45;&gt;Node10 -->
<g id="edge9" class="edge">
<title>Node11&#45;&gt;Node10</title>
<path fill="none" stroke="#9a32cd" stroke-dasharray="5,2" d="M257.6713,-177.5C272.9518,-177.5 289.0223,-177.5 303.7661,-177.5"/>
<polygon fill="#9a32cd" stroke="#9a32cd" points="257.2447,-174.0001 247.2447,-177.5 257.2447,-181.0001 257.2447,-174.0001"/>
<text text-anchor="middle" x="275" y="-202.5" font-family="Helvetica,sans-Serif" font-size="10.00" fill="#000000"> a2_</text>
<text text-anchor="middle" x="275" y="-191.5" font-family="Helvetica,sans-Serif" font-size="10.00" fill="#000000">a1_</text>
<text text-anchor="middle" x="275" y="-180.5" font-family="Helvetica,sans-Serif" font-size="10.00" fill="#000000">a0_</text>
</g>
<!-- Node12 -->
<g id="node11" class="node">
<title>Node12</title>
<polygon fill="#ffffff" stroke="#bfbfbf" points="0,-162.5 0,-192.5 97,-192.5 97,-162.5 0,-162.5"/>
<text text-anchor="start" x="8" y="-180.5" font-family="Helvetica,sans-Serif" font-size="10.00" fill="#000000">std::array&lt; double</text>
<text text-anchor="middle" x="48.5" y="-169.5" font-family="Helvetica,sans-Serif" font-size="10.00" fill="#000000"> , 3 &gt;</text>
</g>
<!-- Node12&#45;&gt;Node11 -->
<g id="edge10" class="edge">
<title>Node12&#45;&gt;Node11</title>
<path fill="none" stroke="#191970" d="M107.4305,-177.5C116.1271,-177.5 125.0725,-177.5 133.7242,-177.5"/>
<polygon fill="#191970" stroke="#191970" points="107.3684,-174.0001 97.3683,-177.5 107.3683,-181.0001 107.3684,-174.0001"/>
</g>
<!-- Node13 -->
<g id="node12" class="node">
<title>Node13</title>
<g id="a_node12"><a xlink:href="../../d2/d11/structsirius_1_1_iterative__solver__input.html" target="_top" xlink:title="Parse the parameters of iterative solver. ">
<polygon fill="#ffffff" stroke="#000000" points="303,-118.5 303,-148.5 416,-148.5 416,-118.5 303,-118.5"/>
<text text-anchor="start" x="311" y="-136.5" font-family="Helvetica,sans-Serif" font-size="10.00" fill="#000000">sirius::Iterative_solver</text>
<text text-anchor="middle" x="359.5" y="-125.5" font-family="Helvetica,sans-Serif" font-size="10.00" fill="#000000">_input</text>
</a>
</g>
</g>
<!-- Node13&#45;&gt;Node5 -->
<g id="edge11" class="edge">
<title>Node13&#45;&gt;Node5</title>
<path fill="none" stroke="#9a32cd" stroke-dasharray="5,2" d="M426.0913,-139.1276C460.5084,-143.9552 502.4262,-152.9088 537,-169.5 562.5864,-181.7783 586.8407,-204.3218 601.3184,-219.3625"/>
<polygon fill="#9a32cd" stroke="#9a32cd" points="426.5042,-135.6519 416.1326,-137.8153 425.5896,-142.5919 426.5042,-135.6519"/>
<text text-anchor="middle" x="485.5" y="-172.5" font-family="Helvetica,sans-Serif" font-size="10.00" fill="#000000"> iterative_solver_input_</text>
</g>
<!-- Node14 -->
<g id="node13" class="node">
<title>Node14</title>
<g id="a_node13"><a xlink:href="../../d4/db0/structsirius_1_1_mixer__input.html" target="_top" xlink:title="Parse mixer input section. ">
<polygon fill="#ffffff" stroke="#000000" points="311,-80 311,-99 408,-99 408,-80 311,-80"/>
<text text-anchor="middle" x="359.5" y="-87" font-family="Helvetica,sans-Serif" font-size="10.00" fill="#000000">sirius::Mixer_input</text>
</a>
</g>
</g>
<!-- Node14&#45;&gt;Node5 -->
<g id="edge12" class="edge">
<title>Node14&#45;&gt;Node5</title>
<path fill="none" stroke="#9a32cd" stroke-dasharray="5,2" d="M418.3895,-90.2272C455.0715,-93.1862 501.8088,-101.7274 537,-124.5 573.3614,-148.0298 597.9033,-194.9972 608.7195,-219.2396"/>
<polygon fill="#9a32cd" stroke="#9a32cd" points="418.545,-86.7297 408.3279,-89.5334 418.0634,-93.7131 418.545,-86.7297"/>
<text text-anchor="middle" x="485.5" y="-127.5" font-family="Helvetica,sans-Serif" font-size="10.00" fill="#000000"> mixer_input_</text>
</g>
<!-- Node15 -->
<g id="node14" class="node">
<title>Node15</title>
<g id="a_node14"><a xlink:href="../../d7/dab/classsddk_1_1mdarray.html" target="_top" xlink:title="sddk::mdarray\&lt; int, 2 \&gt;">
<polygon fill="#ffffff" stroke="#000000" points="835.5,-187 835.5,-206 954.5,-206 954.5,-187 835.5,-187"/>
<text text-anchor="middle" x="895" y="-194" font-family="Helvetica,sans-Serif" font-size="10.00" fill="#000000">sddk::mdarray&lt; int, 2 &gt;</text>
</a>
</g>
</g>
<!-- Node15&#45;&gt;Node4 -->
<g id="edge13" class="edge">
<title>Node15&#45;&gt;Node4</title>
<path fill="none" stroke="#9a32cd" stroke-dasharray="5,2" d="M964.9474,-190.2699C1006.9052,-186.5327 1059.0905,-181.8847 1095.9033,-178.6058"/>
<polygon fill="#9a32cd" stroke="#9a32cd" points="964.4418,-186.8009 954.7918,-191.1744 965.0629,-193.7733 964.4418,-186.8009"/>
<text text-anchor="middle" x="1030" y="-190.5" font-family="Helvetica,sans-Serif" font-size="10.00" fill="#000000"> gvec_coord_</text>
</g>
<!-- Node16 -->
<g id="node15" class="node">
<title>Node16</title>
<g id="a_node15"><a xlink:href="../../d7/dab/classsddk_1_1mdarray.html" target="_top" xlink:title="sddk::mdarray\&lt; double\l_complex, 1 \&gt;">
<polygon fill="#ffffff" stroke="#000000" points="836,-137.5 836,-167.5 954,-167.5 954,-137.5 836,-137.5"/>
<text text-anchor="start" x="844" y="-155.5" font-family="Helvetica,sans-Serif" font-size="10.00" fill="#000000">sddk::mdarray&lt; double</text>
<text text-anchor="middle" x="895" y="-144.5" font-family="Helvetica,sans-Serif" font-size="10.00" fill="#000000">_complex, 1 &gt;</text>
</a>
</g>
</g>
<!-- Node16&#45;&gt;Node4 -->
<g id="edge14" class="edge">
<title>Node16&#45;&gt;Node4</title>
<path fill="none" stroke="#9a32cd" stroke-dasharray="5,2" d="M964.4164,-155.5857C998.6716,-157.4813 1040.5739,-160.3574 1078,-164.5 1083.8124,-165.1434 1089.9041,-165.9379 1095.9219,-166.7958"/>
<polygon fill="#9a32cd" stroke="#9a32cd" points="964.2178,-152.07 954.0444,-155.0285 963.8423,-159.06 964.2178,-152.07"/>
<text text-anchor="middle" x="1030" y="-167.5" font-family="Helvetica,sans-Serif" font-size="10.00" fill="#000000"> theta_pw_</text>
</g>
<!-- Node17 -->
<g id="node16" class="node">
<title>Node17</title>
<g id="a_node16"><a xlink:href="../../d7/dab/classsddk_1_1mdarray.html" target="_top" xlink:title="sddk::mdarray\&lt; double, 1 \&gt;">
<polygon fill="#ffffff" stroke="#000000" points="826,-99 826,-118 964,-118 964,-99 826,-99"/>
<text text-anchor="middle" x="895" y="-106" font-family="Helvetica,sans-Serif" font-size="10.00" fill="#000000">sddk::mdarray&lt; double, 1 &gt;</text>
</a>
</g>
</g>
<!-- Node17&#45;&gt;Node4 -->
<g id="edge15" class="edge">
<title>Node17&#45;&gt;Node4</title>
<path fill="none" stroke="#9a32cd" stroke-dasharray="5,2" d="M973.9882,-117.4934C1006.7313,-122.5629 1044.755,-130.2152 1078,-141.5 1091.3767,-146.0406 1105.414,-153.0025 1116.9224,-159.3633"/>
<polygon fill="#9a32cd" stroke="#9a32cd" points="974.4148,-114.0183 964.0073,-116.0018 973.3801,-120.9415 974.4148,-114.0183"/>
<text text-anchor="middle" x="1030" y="-144.5" font-family="Helvetica,sans-Serif" font-size="10.00" fill="#000000"> theta_</text>
</g>
<!-- Node18 -->
<g id="node17" class="node">
<title>Node18</title>
<g id="a_node17"><a xlink:href="../../d7/dab/classsddk_1_1mdarray.html" target="_top" xlink:title="sddk::mdarray\&lt; double\l_complex, 3 \&gt;">
<polygon fill="#ffffff" stroke="#000000" points="836,-49.5 836,-79.5 954,-79.5 954,-49.5 836,-49.5"/>
<text text-anchor="start" x="844" y="-67.5" font-family="Helvetica,sans-Serif" font-size="10.00" fill="#000000">sddk::mdarray&lt; double</text>
<text text-anchor="middle" x="895" y="-56.5" font-family="Helvetica,sans-Serif" font-size="10.00" fill="#000000">_complex, 3 &gt;</text>
</a>
</g>
</g>
<!-- Node18&#45;&gt;Node4 -->
<g id="edge16" class="edge">
<title>Node18&#45;&gt;Node4</title>
<path fill="none" stroke="#9a32cd" stroke-dasharray="5,2" d="M964.7525,-63.1693C1000.7252,-65.3413 1044.0516,-72.6115 1078,-92.5 1104.9566,-108.2924 1124.7072,-140.1882 1134.6806,-159.2105"/>
<polygon fill="#9a32cd" stroke="#9a32cd" points="964.4873,-59.6526 954.3307,-62.6679 964.1509,-66.6445 964.4873,-59.6526"/>
<text text-anchor="middle" x="1030" y="-106.5" font-family="Helvetica,sans-Serif" font-size="10.00" fill="#000000"> sym_phase_factors_</text>
<text text-anchor="middle" x="1030" y="-95.5" font-family="Helvetica,sans-Serif" font-size="10.00" fill="#000000">phase_factors_</text>
</g>
<!-- Node19 -->
<g id="node18" class="node">
<title>Node19</title>
<g id="a_node18"><a xlink:href="../../d7/dab/classsddk_1_1mdarray.html" target="_top" xlink:title="sddk::mdarray\&lt; double\l_complex, 2 \&gt;">
<polygon fill="#ffffff" stroke="#000000" points="836,-.5 836,-30.5 954,-30.5 954,-.5 836,-.5"/>
<text text-anchor="start" x="844" y="-18.5" font-family="Helvetica,sans-Serif" font-size="10.00" fill="#000000">sddk::mdarray&lt; double</text>
<text text-anchor="middle" x="895" y="-7.5" font-family="Helvetica,sans-Serif" font-size="10.00" fill="#000000">_complex, 2 &gt;</text>
</a>
</g>
</g>
<!-- Node19&#45;&gt;Node4 -->
<g id="edge17" class="edge">
<title>Node19&#45;&gt;Node4</title>
<path fill="none" stroke="#9a32cd" stroke-dasharray="5,2" d="M964.4811,-14.1453C1001.3905,-16.7164 1045.6761,-25.401 1078,-49.5 1115.1375,-77.1878 1132.4029,-132.6318 1138.837,-159.3798"/>
<polygon fill="#9a32cd" stroke="#9a32cd" points="964.4625,-10.6389 954.2825,-13.5745 964.0713,-17.628 964.4625,-10.6389"/>
<text text-anchor="middle" x="1030" y="-52.5" font-family="Helvetica,sans-Serif" font-size="10.00" fill="#000000"> phase_factors_t_</text>
</g>
<!-- Node20 -->
<g id="node19" class="node">
<title>Node20</title>
<g id="a_node19"><a xlink:href="../../da/d70/classsddk_1_1_communicator.html" target="_top" xlink:title="MPI communicator wrapper. ">
<polygon fill="#ffffff" stroke="#000000" points="561,-372 561,-391 669,-391 669,-372 561,-372"/>
<text text-anchor="middle" x="615" y="-379" font-family="Helvetica,sans-Serif" font-size="10.00" fill="#000000">sddk::Communicator</text>
</a>
</g>
</g>
<!-- Node20&#45;&gt;Node4 -->
<g id="edge18" class="edge">
<title>Node20&#45;&gt;Node4</title>
<path fill="none" stroke="#9a32cd" stroke-dasharray="5,2" d="M679.1913,-388.2992C776.8411,-394.9907 963.429,-392.9548 1078,-297.5 1112.7692,-268.5321 1130.9867,-215.7761 1138.2116,-189.7933"/>
<polygon fill="#9a32cd" stroke="#9a32cd" points="679.3956,-384.8048 669.1653,-387.5597 678.8807,-391.7859 679.3956,-384.8048"/>
<text text-anchor="middle" x="895" y="-443.5" font-family="Helvetica,sans-Serif" font-size="10.00" fill="#000000"> comm_ortho_fft_</text>
<text text-anchor="start" x="842" y="-432.5" font-family="Helvetica,sans-Serif" font-size="10.00" fill="#000000">comm_ortho_fft_coarse</text>
<text text-anchor="middle" x="895" y="-421.5" font-family="Helvetica,sans-Serif" font-size="10.00" fill="#000000">_</text>
<text text-anchor="start" x="842" y="-410.5" font-family="Helvetica,sans-Serif" font-size="10.00" fill="#000000">comm_band_ortho</text>
<text text-anchor="middle" x="895" y="-399.5" font-family="Helvetica,sans-Serif" font-size="10.00" fill="#000000">_fft_coarse_</text>
<text text-anchor="middle" x="895" y="-388.5" font-family="Helvetica,sans-Serif" font-size="10.00" fill="#000000">comm_</text>
</g>
<!-- Node20&#45;&gt;Node21 -->
<g id="edge22" class="edge">
<title>Node20&#45;&gt;Node21</title>
<path fill="none" stroke="#9a32cd" stroke-dasharray="5,2" d="M679.2921,-371.0403C730.6451,-362.4853 795.9514,-351.0802 808,-346.5 836.6003,-335.6277 866.2767,-315.2459 882.5136,-303.1725"/>
<polygon fill="#9a32cd" stroke="#9a32cd" points="678.5196,-367.6206 669.2274,-372.7105 679.6655,-374.5261 678.5196,-367.6206"/>
<text text-anchor="middle" x="750.5" y="-370.5" font-family="Helvetica,sans-Serif" font-size="10.00" fill="#000000"> comm_</text>
</g>
<!-- Node21&#45;&gt;Node4 -->
<g id="edge19" class="edge">
<title>Node21&#45;&gt;Node4</title>
<path fill="none" stroke="#9a32cd" stroke-dasharray="5,2" d="M947.0034,-289.2393C985.5259,-284.1413 1038.0433,-272.9661 1078,-248.5 1102.1911,-233.6874 1122.0557,-206.7098 1132.944,-189.7422"/>
<polygon fill="#9a32cd" stroke="#9a32cd" points="946.5283,-285.7713 937.0303,-290.4656 947.3827,-292.719 946.5283,-285.7713"/>
<text text-anchor="middle" x="1030" y="-285.5" font-family="Helvetica,sans-Serif" font-size="10.00" fill="#000000"> unit_cell_</text>
</g>
<!-- Node22 -->
<g id="node21" class="node">
<title>Node22</title>
<g id="a_node21"><a xlink:href="../../d2/dc9/classsddk_1_1splindex.html" target="_top" xlink:title="sddk::splindex\&lt; block \&gt;">
<polygon fill="#ffffff" stroke="#000000" points="555,-313 555,-332 675,-332 675,-313 555,-313"/>
<text text-anchor="middle" x="615" y="-320" font-family="Helvetica,sans-Serif" font-size="10.00" fill="#000000">sddk::splindex&lt; block &gt;</text>
</a>
</g>
</g>
<!-- Node22&#45;&gt;Node21 -->
<g id="edge20" class="edge">
<title>Node22&#45;&gt;Node21</title>
<path fill="none" stroke="#9a32cd" stroke-dasharray="5,2" d="M656.2082,-310.2423C667.9905,-307.2005 680.9151,-304.2988 693,-302.5 747.8603,-294.3341 811.9483,-292.8197 852.9762,-292.8569"/>
<polygon fill="#9a32cd" stroke="#9a32cd" points="654.9497,-306.9561 646.1979,-312.9273 656.7632,-313.7171 654.9497,-306.9561"/>
<text text-anchor="middle" x="750.5" y="-338.5" font-family="Helvetica,sans-Serif" font-size="10.00" fill="#000000"> spl_num_paw_atoms_</text>
<text text-anchor="middle" x="750.5" y="-327.5" font-family="Helvetica,sans-Serif" font-size="10.00" fill="#000000">spl_num_atoms_</text>
<text text-anchor="start" x="693" y="-316.5" font-family="Helvetica,sans-Serif" font-size="10.00" fill="#000000">spl_num_atom_symmetry</text>
<text text-anchor="middle" x="750.5" y="-305.5" font-family="Helvetica,sans-Serif" font-size="10.00" fill="#000000">_classes_</text>
</g>
<!-- Node23 -->
<g id="node22" class="node">
<title>Node23</title>
<g id="a_node22"><a xlink:href="../../d6/dec/classsddk_1_1splindex__base.html" target="_top" xlink:title="sddk::splindex_base\l\&lt; int \&gt;">
<polygon fill="#ffffff" stroke="#000000" points="306,-369.5 306,-399.5 413,-399.5 413,-369.5 306,-369.5"/>
<text text-anchor="start" x="314" y="-387.5" font-family="Helvetica,sans-Serif" font-size="10.00" fill="#000000">sddk::splindex_base</text>
<text text-anchor="middle" x="359.5" y="-376.5" font-family="Helvetica,sans-Serif" font-size="10.00" fill="#000000">&lt; int &gt;</text>
</a>
</g>
</g>
<!-- Node23&#45;&gt;Node22 -->
<g id="edge21" class="edge">
<title>Node23&#45;&gt;Node22</title>
<path fill="none" stroke="#191970" d="M423.4731,-374.7191C457.4843,-368.8998 499.8357,-360.6637 537,-350.5 555.5967,-345.4142 576.0959,-337.981 591.4108,-332.0512"/>
<polygon fill="#191970" stroke="#191970" points="422.4816,-371.3366 413.2007,-376.4469 423.6427,-378.2396 422.4816,-371.3366"/>
</g>
</g>
</svg>
        <g id="navigator" transform="translate(0 0)" fill="#404254">
                <rect fill="#f2f5e9" fill-opacity="0.5" stroke="#606060" stroke-width=".5" x="0" y="0" width="60" height="60"/>
                <use id="zoomplus" xlink:href="#zoomPlus" x="17" y="9" onmousedown="handleZoom(evt,'in')"/>
                <use id="zoomminus" xlink:href="#zoomMin" x="42" y="9" onmousedown="handleZoom(evt,'out')"/>
                <use id="reset" xlink:href="#resetDef" x="30" y="36" onmousedown="handleReset()"/>
                <g id="arrowUp" xlink:href="#dirArrow" transform="translate(30 24)" onmousedown="handlePan(0,-1)">
                  <use xlink:href="#rim" fill="#404040">
                        <set attributeName="fill" to="#808080" begin="arrowUp.mouseover" end="arrowUp.mouseout"/>
                  </use>
                  <path fill="none" stroke="white" stroke-width="1.5" d="M0,-3.0v7 M-2.5,-0.5L0,-3.0L2.5,-0.5"/>
                </g>
                <g id="arrowRight" xlink:href="#dirArrow" transform="rotate(90) translate(36 -43)" onmousedown="handlePan(1,0)">
                  <use xlink:href="#rim" fill="#404040">
                        <set attributeName="fill" to="#808080" begin="arrowRight.mouseover" end="arrowRight.mouseout"/>
                  </use>
                  <path fill="none" stroke="white" stroke-width="1.5" d="M0,-3.0v7 M-2.5,-0.5L0,-3.0L2.5,-0.5"/>
                </g>
                <g id="arrowDown" xlink:href="#dirArrow" transform="rotate(180) translate(-30 -48)" onmousedown="handlePan(0,1)">
                  <use xlink:href="#rim" fill="#404040">
                        <set attributeName="fill" to="#808080" begin="arrowDown.mouseover" end="arrowDown.mouseout"/>
                  </use>
                  <path fill="none" stroke="white" stroke-width="1.5" d="M0,-3.0v7 M-2.5,-0.5L0,-3.0L2.5,-0.5"/>
                </g>
                <g id="arrowLeft" xlink:href="#dirArrow" transform="rotate(270) translate(-36 17)" onmousedown="handlePan(-1,0)">
                  <use xlink:href="#rim" fill="#404040">
                        <set attributeName="fill" to="#808080" begin="arrowLeft.mouseover" end="arrowLeft.mouseout"/>
                  </use>
                  <path fill="none" stroke="white" stroke-width="1.5" d="M0,-3.0v7 M-2.5,-0.5L0,-3.0L2.5,-0.5"/>
                </g>
        </g>
        <svg viewBox="0 0 15 15" width="100%" height="30px" preserveAspectRatio="xMaxYMin meet">
         <g id="arrow_out" transform="scale(0.3 0.3)">
          <a xlink:href="classsirius_1_1_beta__projectors__strain__deriv__coll__graph_org.svg" target="_base">
           <rect id="button" ry="5" rx="5" y="6" x="6" height="38" width="38"
                fill="#f2f5e9" fill-opacity="0.5" stroke="#606060" stroke-width="1.0"/>
           <path id="arrow"
             d="M 11.500037,31.436501 C 11.940474,20.09759 22.043105,11.32322 32.158766,21.979434 L 37.068811,17.246167 C 37.068811,17.246167 37.088388,32 37.088388,32 L 22.160133,31.978069 C 22.160133,31.978069 26.997745,27.140456 26.997745,27.140456 C 18.528582,18.264221 13.291696,25.230495 11.500037,31.436501 z"
             style="fill:#404040;"/>
          </a>
         </g>
        </svg>
</svg>
