<?xml version="1.0" encoding="UTF-8" standalone="no"?>
<!DOCTYPE svg PUBLIC "-//W3C//DTD SVG 1.1//EN"
 "http://www.w3.org/Graphics/SVG/1.1/DTD/svg11.dtd">
<!-- Generated by graphviz version 2.40.1 (20161225.0304)
 -->
<!-- Title: sirius::Beta_projectors_strain_deriv Pages: 1 -->
<!--zoomable 643 -->
<svg id="main" version="1.1" xmlns="http://www.w3.org/2000/svg" xmlns:xlink="http://www.w3.org/1999/xlink" xml:space="preserve" onload="init(evt)">
<style type="text/css"><![CDATA[
.edge:hover path { stroke: red; }
.edge:hover polygon { stroke: red; fill: red; }
]]></style>
<script type="text/javascript"><![CDATA[
var edges = document.getElementsByTagName('g');
if (edges && edges.length) {
  for (var i=0;i<edges.length;i++) {
    if (edges[i].id.substr(0,4)=='edge') {
      edges[i].setAttribute('class','edge');
    }
  }
}
]]></script>
        <defs>
                <circle id="rim" cx="0" cy="0" r="7"/>
                <circle id="rim2" cx="0" cy="0" r="3.5"/>
                <g id="zoomPlus">
                        <use xlink:href="#rim" fill="#404040">
                                <set attributeName="fill" to="#808080" begin="zoomplus.mouseover" end="zoomplus.mouseout"/>
                        </use>
                        <path d="M-4,0h8M0,-4v8" fill="none" stroke="white" stroke-width="1.5" pointer-events="none"/>
                </g>
                <g id="zoomMin">
                        <use xlink:href="#rim" fill="#404040">
                                <set attributeName="fill" to="#808080" begin="zoomminus.mouseover" end="zoomminus.mouseout"/>
                        </use>
                        <path d="M-4,0h8" fill="none" stroke="white" stroke-width="1.5" pointer-events="none"/>
                </g>
                <g id="dirArrow">
                        <path fill="none" stroke="white" stroke-width="1.5" d="M0,-3.0v7 M-2.5,-0.5L0,-3.0L2.5,-0.5"/>
                </g>
               <g id="resetDef">
                       <use xlink:href="#rim2" fill="#404040">
                               <set attributeName="fill" to="#808080" begin="reset.mouseover" end="reset.mouseout"/>
                       </use>
               </g>
        </defs>

<script type="text/javascript">
var viewWidth = 1379;
var viewHeight = 643;
var sectionId = 'dynsection-1';
</script>
<script xlink:href="../../svgpan.js"/>
<svg id="graph" class="graph">
<g id="viewport">
<title>sirius::Beta_projectors_strain_deriv</title>
<polygon fill="#ffffff" stroke="transparent" points="-4,4 -4,-639 1375,-639 1375,4 -4,4"/>
<!-- Node2 -->
<g id="node1" class="node">
<title>Node2</title>
<polygon fill="#bfbfbf" stroke="#000000" points="1280,-230 1280,-260 1371,-260 1371,-230 1280,-230"/>
<text text-anchor="start" x="1288" y="-248" font-family="Helvetica,sans-Serif" font-size="10.00" fill="#000000">sirius::Beta_projectors</text>
<text text-anchor="middle" x="1325.5" y="-237" font-family="Helvetica,sans-Serif" font-size="10.00" fill="#000000">_strain_deriv</text>
</g>
<!-- Node3 -->
<g id="node2" class="node">
<title>Node3</title>
<g id="a_node2"><a xlink:href="../../d1/d5a/classsirius_1_1_beta__projectors__base.html" target="_top" xlink:title="sirius::Beta_projectors\l_base\&lt; 9 \&gt;">
<polygon fill="#ffffff" stroke="#000000" points="1152,-230 1152,-260 1243,-260 1243,-230 1152,-230"/>
<text text-anchor="start" x="1160" y="-248" font-family="Helvetica,sans-Serif" font-size="10.00" fill="#000000">sirius::Beta_projectors</text>
<text text-anchor="middle" x="1197.5" y="-237" font-family="Helvetica,sans-Serif" font-size="10.00" fill="#000000">_base&lt; 9 &gt;</text>
</a>
</g>
</g>
<!-- Node3&#45;&gt;Node2 -->
<g id="edge1" class="edge">
<title>Node3&#45;&gt;Node2</title>
<path fill="none" stroke="#191970" d="M1253.5726,-245C1262.3961,-245 1271.4237,-245 1279.9707,-245"/>
<polygon fill="#191970" stroke="#191970" points="1253.3494,-241.5001 1243.3494,-245 1253.3494,-248.5001 1253.3494,-241.5001"/>
</g>
<!-- Node4 -->
<g id="node3" class="node">
<title>Node4</title>
<g id="a_node3"><a xlink:href="../../d6/d66/classsirius_1_1_simulation__context.html" target="_top" xlink:title="Simulation context is a set of parameters and objects describing a single simulation. ">
<polygon fill="#ffffff" stroke="#000000" points="1027,-230 1027,-260 1100,-260 1100,-230 1027,-230"/>
<text text-anchor="start" x="1035" y="-248" font-family="Helvetica,sans-Serif" font-size="10.00" fill="#000000">sirius::Simulation</text>
<text text-anchor="middle" x="1063.5" y="-237" font-family="Helvetica,sans-Serif" font-size="10.00" fill="#000000">_context</text>
</a>
</g>
</g>
<!-- Node4&#45;&gt;Node3 -->
<g id="edge2" class="edge">
<title>Node4&#45;&gt;Node3</title>
<path fill="none" stroke="#9a32cd" stroke-dasharray="5,2" d="M1110.1635,-245C1123.6669,-245 1138.3878,-245 1151.8298,-245"/>
<polygon fill="#9a32cd" stroke="#9a32cd" points="1110.1161,-241.5001 1100.1161,-245 1110.1161,-248.5001 1110.1161,-241.5001"/>
<text text-anchor="middle" x="1126" y="-248" font-family="Helvetica,sans-Serif" font-size="10.00" fill="#000000"> ctx_</text>
</g>
<!-- Node5 -->
<g id="node4" class="node">
<title>Node5</title>
<g id="a_node4"><a xlink:href="../../db/d7d/classsirius_1_1_simulation__context__base.html" target="_top" xlink:title="Base class for Simulation_context. ">
<polygon fill="#ffffff" stroke="#000000" points="917,-230 917,-260 990,-260 990,-230 917,-230"/>
<text text-anchor="start" x="925" y="-248" font-family="Helvetica,sans-Serif" font-size="10.00" fill="#000000">sirius::Simulation</text>
<text text-anchor="middle" x="953.5" y="-237" font-family="Helvetica,sans-Serif" font-size="10.00" fill="#000000">_context_base</text>
</a>
</g>
</g>
<!-- Node5&#45;&gt;Node4 -->
<g id="edge3" class="edge">
<title>Node5&#45;&gt;Node4</title>
<path fill="none" stroke="#191970" d="M1000.2862,-245C1009.0994,-245 1018.2004,-245 1026.6565,-245"/>
<polygon fill="#191970" stroke="#191970" points="1000.1284,-241.5001 990.1284,-245 1000.1284,-248.5001 1000.1284,-241.5001"/>
</g>
<!-- Node6 -->
<g id="node5" class="node">
<title>Node6</title>
<g id="a_node5"><a xlink:href="../../d0/d04/classsirius_1_1_simulation__parameters.html" target="_top" xlink:title="Set of basic parameters of a simulation. ">
<polygon fill="#ffffff" stroke="#000000" points="503.5,-133 503.5,-163 576.5,-163 576.5,-133 503.5,-133"/>
<text text-anchor="start" x="511.5" y="-151" font-family="Helvetica,sans-Serif" font-size="10.00" fill="#000000">sirius::Simulation</text>
<text text-anchor="middle" x="540" y="-140" font-family="Helvetica,sans-Serif" font-size="10.00" fill="#000000">_parameters</text>
</a>
</g>
</g>
<!-- Node6&#45;&gt;Node5 -->
<g id="edge4" class="edge">
<title>Node6&#45;&gt;Node5</title>
<path fill="none" stroke="#191970" d="M586.8309,-148.4778C616.8502,-149.5033 656.5127,-152.2006 691,-159 773.8091,-175.3263 866.828,-209.8524 916.8779,-229.8368"/>
<polygon fill="#191970" stroke="#191970" points="586.7369,-144.9736 576.6392,-148.1808 586.5329,-151.9707 586.7369,-144.9736"/>
</g>
<!-- Node30 -->
<g id="node29" class="node">
<title>Node30</title>
<g id="a_node29"><a xlink:href="../../d6/dd1/classsirius_1_1_unit__cell.html" target="_top" xlink:title="Representation of a unit cell. ">
<polygon fill="#ffffff" stroke="#000000" points="725.5,-235.5 725.5,-254.5 792.5,-254.5 792.5,-235.5 725.5,-235.5"/>
<text text-anchor="middle" x="759" y="-242.5" font-family="Helvetica,sans-Serif" font-size="10.00" fill="#000000">sirius::Unit_cell</text>
</a>
</g>
</g>
<!-- Node6&#45;&gt;Node30 -->
<g id="edge38" class="edge">
<title>Node6&#45;&gt;Node30</title>
<path fill="none" stroke="#9a32cd" stroke-dasharray="5,2" d="M586.8183,-154.4629C617.6876,-160.0514 658.3023,-169.999 691,-187 715.2297,-199.5982 738.2842,-222.2879 750.3271,-235.2387"/>
<polygon fill="#9a32cd" stroke="#9a32cd" points="587.1973,-150.9768 576.7487,-152.7309 586.0106,-157.8754 587.1973,-150.9768"/>
<text text-anchor="middle" x="648" y="-190" font-family="Helvetica,sans-Serif" font-size="10.00" fill="#000000"> parameters_</text>
</g>
<!-- Node7 -->
<g id="node6" class="node">
<title>Node7</title>
<g id="a_node6"><a xlink:href="../../d4/d6e/structsirius_1_1_parameters__input.html" target="_top" xlink:title="sirius::Parameters\l_input">
<polygon fill="#ffffff" stroke="#000000" points="270.5,-77 270.5,-107 347.5,-107 347.5,-77 270.5,-77"/>
<text text-anchor="start" x="278.5" y="-95" font-family="Helvetica,sans-Serif" font-size="10.00" fill="#000000">sirius::Parameters</text>
<text text-anchor="middle" x="309" y="-84" font-family="Helvetica,sans-Serif" font-size="10.00" fill="#000000">_input</text>
</a>
</g>
</g>
<!-- Node7&#45;&gt;Node6 -->
<g id="edge5" class="edge">
<title>Node7&#45;&gt;Node6</title>
<path fill="none" stroke="#9a32cd" stroke-dasharray="5,2" d="M357.7094,-101.429C390.9293,-108.1366 435.8318,-117.7468 475,-128 484.2518,-130.4219 494.1563,-133.3134 503.3742,-136.135"/>
<polygon fill="#9a32cd" stroke="#9a32cd" points="358.2868,-97.9752 347.7941,-99.443 356.912,-104.8388 358.2868,-97.9752"/>
<text text-anchor="middle" x="428.5" y="-131" font-family="Helvetica,sans-Serif" font-size="10.00" fill="#000000"> parameters_input_</text>
</g>
<!-- Node8 -->
<g id="node7" class="node">
<title>Node8</title>
<g id="a_node7"><a xlink:href="../../da/de3/structsirius_1_1_control__input.html" target="_top" xlink:title="Parse control input section. ">
<polygon fill="#ffffff" stroke="#000000" points="267.5,-38.5 267.5,-57.5 350.5,-57.5 350.5,-38.5 267.5,-38.5"/>
<text text-anchor="middle" x="309" y="-45.5" font-family="Helvetica,sans-Serif" font-size="10.00" fill="#000000">sirius::Control_input</text>
</a>
</g>
</g>
<!-- Node8&#45;&gt;Node6 -->
<g id="edge6" class="edge">
<title>Node8&#45;&gt;Node6</title>
<path fill="none" stroke="#9a32cd" stroke-dasharray="5,2" d="M360.9453,-51.2944C396.2397,-55.8713 442.2767,-66.6685 475,-92 487.9034,-101.9887 481.2316,-112.6962 493,-124 496.436,-127.3003 500.4153,-130.2501 504.5754,-132.8556"/>
<polygon fill="#9a32cd" stroke="#9a32cd" points="361.1691,-47.7968 350.8305,-50.1128 360.3568,-54.7495 361.1691,-47.7968"/>
<text text-anchor="middle" x="428.5" y="-95" font-family="Helvetica,sans-Serif" font-size="10.00" fill="#000000"> control_input_</text>
</g>
<!-- Node9 -->
<g id="node8" class="node">
<title>Node9</title>
<g id="a_node8"><a xlink:href="../../d6/de3/structsirius_1_1_settings__input.html" target="_top" xlink:title="Settings control the internal parameters related to the numerical implementation. ...">
<polygon fill="#ffffff" stroke="#000000" points="266,-213.5 266,-232.5 352,-232.5 352,-213.5 266,-213.5"/>
<text text-anchor="middle" x="309" y="-220.5" font-family="Helvetica,sans-Serif" font-size="10.00" fill="#000000">sirius::Settings_input</text>
</a>
</g>
</g>
<!-- Node9&#45;&gt;Node6 -->
<g id="edge7" class="edge">
<title>Node9&#45;&gt;Node6</title>
<path fill="none" stroke="#9a32cd" stroke-dasharray="5,2" d="M362.1759,-217.0802C395.4655,-212.1754 438.7641,-203.5732 475,-189 491.2159,-182.4784 507.8564,-171.8951 520.2409,-163.1148"/>
<polygon fill="#9a32cd" stroke="#9a32cd" points="361.5995,-213.6267 352.1849,-218.4862 362.5751,-220.5584 361.5995,-213.6267"/>
<text text-anchor="middle" x="428.5" y="-216" font-family="Helvetica,sans-Serif" font-size="10.00" fill="#000000"> settings_input_</text>
</g>
<!-- Node10 -->
<g id="node9" class="node">
<title>Node10</title>
<g id="a_node9"><a xlink:href="../../d7/d51/structsirius_1_1_unit__cell__input.html" target="_top" xlink:title="Parse unit cell input section. ">
<polygon fill="#ffffff" stroke="#000000" points="265.5,-.5 265.5,-19.5 352.5,-19.5 352.5,-.5 265.5,-.5"/>
<text text-anchor="middle" x="309" y="-7.5" font-family="Helvetica,sans-Serif" font-size="10.00" fill="#000000">sirius::Unit_cell_input</text>
</a>
</g>
</g>
<!-- Node10&#45;&gt;Node6 -->
<g id="edge8" class="edge">
<title>Node10&#45;&gt;Node6</title>
<path fill="none" stroke="#9a32cd" stroke-dasharray="5,2" d="M363.1687,-5.714C399.4773,-5.9247 445.8127,-12.6454 475,-41 502.0741,-67.3017 469.973,-94.091 493,-124 495.7946,-127.6298 499.2905,-130.7573 503.1071,-133.4401"/>
<polygon fill="#9a32cd" stroke="#9a32cd" points="362.6969,-2.2189 352.7356,-5.8274 362.7731,-9.2185 362.6969,-2.2189"/>
<text text-anchor="middle" x="428.5" y="-44" font-family="Helvetica,sans-Serif" font-size="10.00" fill="#000000"> unit_cell_input_</text>
</g>
<!-- Node11 -->
<g id="node10" class="node">
<title>Node11</title>
<g id="a_node10"><a xlink:href="../../d2/d6b/classgeometry3d_1_1vector3d.html" target="_top" xlink:title="geometry3d::vector3d\l\&lt; double \&gt;">
<polygon fill="#ffffff" stroke="#000000" points="114,-180 114,-210 203,-210 203,-180 114,-180"/>
<text text-anchor="start" x="122" y="-198" font-family="Helvetica,sans-Serif" font-size="10.00" fill="#000000">geometry3d::vector3d</text>
<text text-anchor="middle" x="158.5" y="-187" font-family="Helvetica,sans-Serif" font-size="10.00" fill="#000000">&lt; double &gt;</text>
</a>
</g>
</g>
<!-- Node11&#45;&gt;Node10 -->
<g id="edge9" class="edge">
<title>Node11&#45;&gt;Node10</title>
<path fill="none" stroke="#9a32cd" stroke-dasharray="5,2" d="M166.5108,-170.0034C179.3293,-133.8613 207.815,-67.1708 254,-29 258.6722,-25.1385 264.1756,-22.0434 269.8638,-19.5676"/>
<polygon fill="#9a32cd" stroke="#9a32cd" points="163.0995,-169.162 163.1708,-179.7566 169.7219,-171.4299 163.0995,-169.162"/>
<text text-anchor="middle" x="228.5" y="-88" font-family="Helvetica,sans-Serif" font-size="10.00" fill="#000000"> a2_</text>
<text text-anchor="middle" x="228.5" y="-77" font-family="Helvetica,sans-Serif" font-size="10.00" fill="#000000">a1_</text>
<text text-anchor="middle" x="228.5" y="-66" font-family="Helvetica,sans-Serif" font-size="10.00" fill="#000000">a0_</text>
</g>
<!-- Node22 -->
<g id="node21" class="node">
<title>Node22</title>
<g id="a_node21"><a xlink:href="../../dc/d9b/classsddk_1_1_gvec.html" target="_top" xlink:title="Store list of G&#45;vectors for FFTs and G+k basis functions. ">
<polygon fill="#ffffff" stroke="#000000" points="513,-452.5 513,-471.5 567,-471.5 567,-452.5 513,-452.5"/>
<text text-anchor="middle" x="540" y="-459.5" font-family="Helvetica,sans-Serif" font-size="10.00" fill="#000000">sddk::Gvec</text>
</a>
</g>
</g>
<!-- Node11&#45;&gt;Node22 -->
<g id="edge31" class="edge">
<title>Node11&#45;&gt;Node22</title>
<path fill="none" stroke="#9a32cd" stroke-dasharray="5,2" d="M169.3033,-219.5323C184.2808,-251.0947 214.0846,-305.905 254,-340 275.2925,-358.1877 449.9659,-427.0438 515.3865,-452.4809"/>
<polygon fill="#9a32cd" stroke="#9a32cd" points="172.342,-217.7644 164.9675,-210.1574 165.9886,-220.7029 172.342,-217.7644"/>
<text text-anchor="middle" x="309" y="-393" font-family="Helvetica,sans-Serif" font-size="10.00" fill="#000000"> vk_</text>
</g>
<!-- Node12 -->
<g id="node11" class="node">
<title>Node12</title>
<polygon fill="#ffffff" stroke="#bfbfbf" points="0,-180 0,-210 77,-210 77,-180 0,-180"/>
<text text-anchor="start" x="8" y="-198" font-family="Helvetica,sans-Serif" font-size="10.00" fill="#000000">std::array&lt; double</text>
<text text-anchor="middle" x="38.5" y="-187" font-family="Helvetica,sans-Serif" font-size="10.00" fill="#000000"> , 3 &gt;</text>
</g>
<!-- Node12&#45;&gt;Node11 -->
<g id="edge10" class="edge">
<title>Node12&#45;&gt;Node11</title>
<path fill="none" stroke="#191970" d="M87.2034,-195C95.9552,-195 105.0396,-195 113.6751,-195"/>
<polygon fill="#191970" stroke="#191970" points="87.1293,-191.5001 77.1293,-195 87.1293,-198.5001 87.1293,-191.5001"/>
</g>
<!-- Node13 -->
<g id="node12" class="node">
<title>Node13</title>
<g id="a_node12"><a xlink:href="../../d2/d11/structsirius_1_1_iterative__solver__input.html" target="_top" xlink:title="sirius::Iterative_solver\l_input">
<polygon fill="#ffffff" stroke="#000000" points="264.5,-126 264.5,-156 353.5,-156 353.5,-126 264.5,-126"/>
<text text-anchor="start" x="272.5" y="-144" font-family="Helvetica,sans-Serif" font-size="10.00" fill="#000000">sirius::Iterative_solver</text>
<text text-anchor="middle" x="309" y="-133" font-family="Helvetica,sans-Serif" font-size="10.00" fill="#000000">_input</text>
</a>
</g>
</g>
<!-- Node13&#45;&gt;Node6 -->
<g id="edge11" class="edge">
<title>Node13&#45;&gt;Node6</title>
<path fill="none" stroke="#9a32cd" stroke-dasharray="5,2" d="M363.5743,-142.6538C406.649,-143.9591 465.5632,-145.7443 503.2059,-146.885"/>
<polygon fill="#9a32cd" stroke="#9a32cd" points="363.6406,-139.1543 353.5391,-142.3497 363.4285,-146.1511 363.6406,-139.1543"/>
<text text-anchor="middle" x="428.5" y="-148" font-family="Helvetica,sans-Serif" font-size="10.00" fill="#000000"> iterative_solver_input_</text>
</g>
<!-- Node14 -->
<g id="node13" class="node">
<title>Node14</title>
<g id="a_node13"><a xlink:href="../../d4/db0/structsirius_1_1_mixer__input.html" target="_top" xlink:title="Parse mixer input section. ">
<polygon fill="#ffffff" stroke="#000000" points="270.5,-175.5 270.5,-194.5 347.5,-194.5 347.5,-175.5 270.5,-175.5"/>
<text text-anchor="middle" x="309" y="-182.5" font-family="Helvetica,sans-Serif" font-size="10.00" fill="#000000">sirius::Mixer_input</text>
</a>
</g>
</g>
<!-- Node14&#45;&gt;Node6 -->
<g id="edge12" class="edge">
<title>Node14&#45;&gt;Node6</title>
<path fill="none" stroke="#9a32cd" stroke-dasharray="5,2" d="M357.9476,-178.0625C391.0416,-173.2654 435.7059,-166.5842 475,-160 484.1673,-158.4639 494.0407,-156.6985 503.2557,-155.0027"/>
<polygon fill="#9a32cd" stroke="#9a32cd" points="357.0284,-174.6588 347.6308,-179.5513 358.0282,-181.587 357.0284,-174.6588"/>
<text text-anchor="middle" x="428.5" y="-177" font-family="Helvetica,sans-Serif" font-size="10.00" fill="#000000"> mixer_input_</text>
</g>
<!-- Node15 -->
<g id="node14" class="node">
<title>Node15</title>
<g id="a_node14"><a xlink:href="../../d7/dab/classsddk_1_1mdarray.html" target="_top" xlink:title="sddk::mdarray\&lt; int, 2 \&gt;">
<polygon fill="#ffffff" stroke="#000000" points="382,-615.5 382,-634.5 475,-634.5 475,-615.5 382,-615.5"/>
<text text-anchor="middle" x="428.5" y="-622.5" font-family="Helvetica,sans-Serif" font-size="10.00" fill="#000000">sddk::mdarray&lt; int, 2 &gt;</text>
</a>
</g>
</g>
<!-- Node15&#45;&gt;Node5 -->
<g id="edge13" class="edge">
<title>Node15&#45;&gt;Node5</title>
<path fill="none" stroke="#9a32cd" stroke-dasharray="5,2" d="M485.0858,-615.3065C586.5972,-594.6767 798.4093,-536.2265 899,-395 929.8627,-351.6696 945.0876,-288.9598 950.7711,-260.3131"/>
<polygon fill="#9a32cd" stroke="#9a32cd" points="484.1552,-611.9227 475.0264,-617.2999 485.516,-618.7892 484.1552,-611.9227"/>
<text text-anchor="middle" x="648" y="-585" font-family="Helvetica,sans-Serif" font-size="10.00" fill="#000000"> gvec_coord_</text>
</g>
<!-- Node16 -->
<g id="node15" class="node">
<title>Node16</title>
<g id="a_node15"><a xlink:href="../../d0/d58/classsddk_1_1mdarray__base.html" target="_top" xlink:title="sddk::mdarray_base\l\&lt; int, N \&gt;">
<polygon fill="#ffffff" stroke="#000000" points="116.5,-578 116.5,-608 200.5,-608 200.5,-578 116.5,-578"/>
<text text-anchor="start" x="124.5" y="-596" font-family="Helvetica,sans-Serif" font-size="10.00" fill="#000000">sddk::mdarray_base</text>
<text text-anchor="middle" x="158.5" y="-585" font-family="Helvetica,sans-Serif" font-size="10.00" fill="#000000">&lt; int, N &gt;</text>
</a>
</g>
</g>
<!-- Node16&#45;&gt;Node15 -->
<g id="edge14" class="edge">
<title>Node16&#45;&gt;Node15</title>
<path fill="none" stroke="#191970" d="M210.6422,-604.9659C214.1421,-605.6807 217.6188,-606.366 221,-607 275.7318,-617.2633 339.704,-621.6924 381.993,-623.5924"/>
<polygon fill="#191970" stroke="#191970" points="211.2844,-601.5244 200.7781,-602.891 209.8434,-608.3745 211.2844,-601.5244"/>
</g>
<!-- Node23 -->
<g id="node22" class="node">
<title>Node23</title>
<g id="a_node22"><a xlink:href="../../d7/dab/classsddk_1_1mdarray.html" target="_top" xlink:title="sddk::mdarray\&lt; int, 3 \&gt;">
<polygon fill="#ffffff" stroke="#000000" points="262.5,-507.5 262.5,-526.5 355.5,-526.5 355.5,-507.5 262.5,-507.5"/>
<text text-anchor="middle" x="309" y="-514.5" font-family="Helvetica,sans-Serif" font-size="10.00" fill="#000000">sddk::mdarray&lt; int, 3 &gt;</text>
</a>
</g>
</g>
<!-- Node16&#45;&gt;Node23 -->
<g id="edge22" class="edge">
<title>Node16&#45;&gt;Node23</title>
<path fill="none" stroke="#191970" d="M189.4229,-572.3302C207.6981,-560.6837 231.5824,-546.4271 254,-536 261.5112,-532.5064 269.8535,-529.3014 277.7239,-526.5587"/>
<polygon fill="#191970" stroke="#191970" points="187.437,-569.4462 180.933,-577.8097 191.233,-575.3276 187.437,-569.4462"/>
</g>
<!-- Node26 -->
<g id="node25" class="node">
<title>Node26</title>
<g id="a_node25"><a xlink:href="../../d7/dab/classsddk_1_1mdarray.html" target="_top" xlink:title="sddk::mdarray\&lt; int, 1 \&gt;">
<polygon fill="#ffffff" stroke="#000000" points="262.5,-583.5 262.5,-602.5 355.5,-602.5 355.5,-583.5 262.5,-583.5"/>
<text text-anchor="middle" x="309" y="-590.5" font-family="Helvetica,sans-Serif" font-size="10.00" fill="#000000">sddk::mdarray&lt; int, 1 &gt;</text>
</a>
</g>
</g>
<!-- Node16&#45;&gt;Node26 -->
<g id="edge26" class="edge">
<title>Node16&#45;&gt;Node26</title>
<path fill="none" stroke="#191970" d="M210.9656,-593C227.651,-593 245.9865,-593 262.2412,-593"/>
<polygon fill="#191970" stroke="#191970" points="210.8232,-589.5001 200.8231,-593 210.8231,-596.5001 210.8232,-589.5001"/>
</g>
<!-- Node17 -->
<g id="node16" class="node">
<title>Node17</title>
<g id="a_node16"><a xlink:href="../../d7/dab/classsddk_1_1mdarray.html" target="_top" xlink:title="sddk::mdarray\&lt; char, 1 \&gt;">
<polygon fill="#ffffff" stroke="#000000" points="709,-92.5 709,-111.5 809,-111.5 809,-92.5 709,-92.5"/>
<text text-anchor="middle" x="759" y="-99.5" font-family="Helvetica,sans-Serif" font-size="10.00" fill="#000000">sddk::mdarray&lt; char, 1 &gt;</text>
</a>
</g>
</g>
<!-- Node17&#45;&gt;Node5 -->
<g id="edge15" class="edge">
<title>Node17&#45;&gt;Node5</title>
<path fill="none" stroke="#9a32cd" stroke-dasharray="5,2" d="M819.2323,-96.9761C846.0084,-97.7509 876.4925,-103.1103 899,-120 934.9781,-146.998 947.5721,-202.7761 951.6745,-229.7422"/>
<polygon fill="#9a32cd" stroke="#9a32cd" points="819.2059,-93.4758 809.176,-96.8891 819.1453,-100.4756 819.2059,-93.4758"/>
<text text-anchor="middle" x="863" y="-123" font-family="Helvetica,sans-Serif" font-size="10.00" fill="#000000"> memory_buffer_</text>
</g>
<!-- Node18 -->
<g id="node17" class="node">
<title>Node18</title>
<g id="a_node17"><a xlink:href="../../d0/d58/classsddk_1_1mdarray__base.html" target="_top" xlink:title="sddk::mdarray_base\l\&lt; char, N \&gt;">
<polygon fill="#ffffff" stroke="#000000" points="498,-84 498,-114 582,-114 582,-84 498,-84"/>
<text text-anchor="start" x="506" y="-102" font-family="Helvetica,sans-Serif" font-size="10.00" fill="#000000">sddk::mdarray_base</text>
<text text-anchor="middle" x="540" y="-91" font-family="Helvetica,sans-Serif" font-size="10.00" fill="#000000">&lt; char, N &gt;</text>
</a>
</g>
</g>
<!-- Node18&#45;&gt;Node17 -->
<g id="edge16" class="edge">
<title>Node18&#45;&gt;Node17</title>
<path fill="none" stroke="#191970" d="M592.3398,-99.717C627.6555,-100.2008 673.994,-100.8355 708.8428,-101.3129"/>
<polygon fill="#191970" stroke="#191970" points="592.2724,-96.2158 582.2254,-99.5784 592.1765,-103.2152 592.2724,-96.2158"/>
</g>
<!-- Node19 -->
<g id="node18" class="node">
<title>Node19</title>
<g id="a_node18"><a xlink:href="../../d7/dab/classsddk_1_1mdarray.html" target="_top" xlink:title="sddk::mdarray\&lt; double\l_complex, 3 \&gt;">
<polygon fill="#ffffff" stroke="#000000" points="712.5,-41 712.5,-71 805.5,-71 805.5,-41 712.5,-41"/>
<text text-anchor="start" x="720.5" y="-59" font-family="Helvetica,sans-Serif" font-size="10.00" fill="#000000">sddk::mdarray&lt; double</text>
<text text-anchor="middle" x="759" y="-48" font-family="Helvetica,sans-Serif" font-size="10.00" fill="#000000">_complex, 3 &gt;</text>
</a>
</g>
</g>
<!-- Node19&#45;&gt;Node5 -->
<g id="edge17" class="edge">
<title>Node19&#45;&gt;Node5</title>
<path fill="none" stroke="#9a32cd" stroke-dasharray="5,2" d="M815.5714,-48.4664C843.5372,-47.8551 876.108,-52.2217 899,-71 924.1476,-91.6286 944.0404,-191.2612 950.9101,-229.7666"/>
<polygon fill="#9a32cd" stroke="#9a32cd" points="815.3433,-44.9729 805.5029,-48.8994 815.6441,-51.9664 815.3433,-44.9729"/>
<text text-anchor="middle" x="863" y="-85" font-family="Helvetica,sans-Serif" font-size="10.00" fill="#000000"> sym_phase_factors_</text>
<text text-anchor="middle" x="863" y="-74" font-family="Helvetica,sans-Serif" font-size="10.00" fill="#000000">phase_factors_</text>
</g>
<!-- Node20 -->
<g id="node19" class="node">
<title>Node20</title>
<g id="a_node19"><a xlink:href="../../d0/d58/classsddk_1_1mdarray__base.html" target="_top" xlink:title="sddk::mdarray_base\l\&lt; double_complex, N \&gt;">
<polygon fill="#ffffff" stroke="#000000" points="493,-35 493,-65 587,-65 587,-35 493,-35"/>
<text text-anchor="start" x="501" y="-53" font-family="Helvetica,sans-Serif" font-size="10.00" fill="#000000">sddk::mdarray_base</text>
<text text-anchor="middle" x="540" y="-42" font-family="Helvetica,sans-Serif" font-size="10.00" fill="#000000">&lt; double_complex, N &gt;</text>
</a>
</g>
</g>
<!-- Node20&#45;&gt;Node19 -->
<g id="edge18" class="edge">
<title>Node20&#45;&gt;Node19</title>
<path fill="none" stroke="#191970" d="M597.5368,-51.5764C633.2927,-52.556 678.6722,-53.7992 712.2111,-54.7181"/>
<polygon fill="#191970" stroke="#191970" points="597.3423,-48.0698 587.2501,-51.2945 597.1505,-55.0672 597.3423,-48.0698"/>
</g>
<!-- Node21 -->
<g id="node20" class="node">
<title>Node21</title>
<g id="a_node20"><a xlink:href="../../da/d70/classsddk_1_1_communicator.html" target="_top" xlink:title="MPI communicator wrapper. ">
<polygon fill="#ffffff" stroke="#000000" points="266.5,-311.5 266.5,-330.5 351.5,-330.5 351.5,-311.5 266.5,-311.5"/>
<text text-anchor="middle" x="309" y="-318.5" font-family="Helvetica,sans-Serif" font-size="10.00" fill="#000000">sddk::Communicator</text>
</a>
</g>
</g>
<!-- Node21&#45;&gt;Node5 -->
<g id="edge19" class="edge">
<title>Node21&#45;&gt;Node5</title>
<path fill="none" stroke="#9a32cd" stroke-dasharray="5,2" d="M361.7587,-321.3627C398.5436,-321.597 448.7627,-321.8798 493,-322 534.7776,-322.1135 545.423,-326.0911 587,-322 727.6986,-308.1557 761.4217,-292.5573 899,-260 904.8254,-258.6214 910.9691,-257.0482 916.9485,-255.4513"/>
<polygon fill="#9a32cd" stroke="#9a32cd" points="361.7783,-317.8629 351.7559,-321.2981 361.733,-324.8627 361.7783,-317.8629"/>
<text text-anchor="middle" x="648" y="-323" font-family="Helvetica,sans-Serif" font-size="10.00" fill="#000000"> comm_</text>
</g>
<!-- Node21&#45;&gt;Node22 -->
<g id="edge30" class="edge">
<title>Node21&#45;&gt;Node22</title>
<path fill="none" stroke="#9a32cd" stroke-dasharray="5,2" d="M351.0974,-333.4029C361.1991,-336.298 371.9672,-339.3173 382,-342 423.1335,-352.9987 440.1355,-340.5581 475,-365 507.534,-387.8081 528.3521,-432.5509 536.3235,-452.2712"/>
<polygon fill="#9a32cd" stroke="#9a32cd" points="351.8482,-329.9767 341.2698,-330.5663 349.907,-336.7022 351.8482,-329.9767"/>
<text text-anchor="middle" x="428.5" y="-390" font-family="Helvetica,sans-Serif" font-size="10.00" fill="#000000"> comm_ortho_fft_</text>
<text text-anchor="middle" x="428.5" y="-379" font-family="Helvetica,sans-Serif" font-size="10.00" fill="#000000">comm_fft_</text>
<text text-anchor="middle" x="428.5" y="-368" font-family="Helvetica,sans-Serif" font-size="10.00" fill="#000000">comm_</text>
</g>
<!-- Node21&#45;&gt;Node30 -->
<g id="edge37" class="edge">
<title>Node21&#45;&gt;Node30</title>
<path fill="none" stroke="#9a32cd" stroke-dasharray="5,2" d="M361.5846,-318.8038C436.0213,-314.7064 575.8761,-303.3548 691,-273 707.913,-268.5405 726.1985,-260.8351 739.5437,-254.6351"/>
<polygon fill="#9a32cd" stroke="#9a32cd" points="361.3263,-315.3125 351.5248,-319.335 361.6955,-322.3027 361.3263,-315.3125"/>
<text text-anchor="middle" x="540" y="-310" font-family="Helvetica,sans-Serif" font-size="10.00" fill="#000000"> comm_</text>
</g>
<!-- Node31 -->
<g id="node30" class="node">
<title>Node31</title>
<g id="a_node30"><a xlink:href="../../d7/d14/classsddk_1_1_communicator__bundle.html" target="_top" xlink:title="A bundle of MPI communicators. ">
<polygon fill="#ffffff" stroke="#000000" points="497.5,-239 497.5,-269 582.5,-269 582.5,-239 497.5,-239"/>
<text text-anchor="start" x="505.5" y="-257" font-family="Helvetica,sans-Serif" font-size="10.00" fill="#000000">sddk::Communicator</text>
<text text-anchor="middle" x="540" y="-246" font-family="Helvetica,sans-Serif" font-size="10.00" fill="#000000">_bundle</text>
</a>
</g>
</g>
<!-- Node21&#45;&gt;Node31 -->
<g id="edge34" class="edge">
<title>Node21&#45;&gt;Node31</title>
<path fill="none" stroke="#9a32cd" stroke-dasharray="5,2" d="M336.8086,-306.7741C345.5724,-302.1744 355.2475,-296.9752 364,-292 372.1508,-287.3668 373.2218,-284.2931 382,-281 419.5193,-266.9247 464.8216,-260.1412 497.2796,-256.8996"/>
<polygon fill="#9a32cd" stroke="#9a32cd" points="334.9989,-303.7702 327.7434,-311.4909 338.2299,-309.9799 334.9989,-303.7702"/>
<text text-anchor="middle" x="428.5" y="-284" font-family="Helvetica,sans-Serif" font-size="10.00" fill="#000000"> comm_</text>
</g>
<!-- Node22&#45;&gt;Node5 -->
<g id="edge20" class="edge">
<title>Node22&#45;&gt;Node5</title>
<path fill="none" stroke="#9a32cd" stroke-dasharray="5,2" d="M577.593,-461.0183C648.553,-457.2518 803.6488,-439.6601 899,-359 929.9844,-332.7894 944.6483,-284.9269 950.3989,-260.3942"/>
<polygon fill="#9a32cd" stroke="#9a32cd" points="577.1756,-457.5338 567.3494,-461.4957 577.5016,-464.5262 577.1756,-457.5338"/>
<text text-anchor="middle" x="759" y="-456" font-family="Helvetica,sans-Serif" font-size="10.00" fill="#000000"> gvec_coarse_</text>
<text text-anchor="middle" x="759" y="-445" font-family="Helvetica,sans-Serif" font-size="10.00" fill="#000000">gvec_</text>
</g>
<!-- Node23&#45;&gt;Node22 -->
<g id="edge21" class="edge">
<title>Node23&#45;&gt;Node22</title>
<path fill="none" stroke="#9a32cd" stroke-dasharray="5,2" d="M365.915,-510.0384C398.2682,-505.3426 439.3207,-498.1335 475,-488 490.1991,-483.6832 506.7234,-477.0459 519.3075,-471.5581"/>
<polygon fill="#9a32cd" stroke="#9a32cd" points="365.1469,-506.612 355.7342,-511.4752 366.1252,-513.5433 365.1469,-506.612"/>
<text text-anchor="middle" x="428.5" y="-510" font-family="Helvetica,sans-Serif" font-size="10.00" fill="#000000"> gvec_index_by_xy_</text>
</g>
<!-- Node24 -->
<g id="node23" class="node">
<title>Node24</title>
<g id="a_node23"><a xlink:href="../../d7/dab/classsddk_1_1mdarray.html" target="_top" xlink:title="sddk::mdarray\&lt; double, 1 \&gt;">
<polygon fill="#ffffff" stroke="#000000" points="255,-469.5 255,-488.5 363,-488.5 363,-469.5 255,-469.5"/>
<text text-anchor="middle" x="309" y="-476.5" font-family="Helvetica,sans-Serif" font-size="10.00" fill="#000000">sddk::mdarray&lt; double, 1 &gt;</text>
</a>
</g>
</g>
<!-- Node24&#45;&gt;Node22 -->
<g id="edge23" class="edge">
<title>Node24&#45;&gt;Node22</title>
<path fill="none" stroke="#9a32cd" stroke-dasharray="5,2" d="M373.3263,-474.266C419.2332,-470.8876 478.6591,-466.5143 512.7367,-464.0064"/>
<polygon fill="#9a32cd" stroke="#9a32cd" points="372.8754,-470.7897 363.1592,-475.0143 373.3892,-477.7708 372.8754,-470.7897"/>
<text text-anchor="middle" x="428.5" y="-476" font-family="Helvetica,sans-Serif" font-size="10.00" fill="#000000"> gvec_shell_len_</text>
</g>
<!-- Node25 -->
<g id="node24" class="node">
<title>Node25</title>
<g id="a_node24"><a xlink:href="../../d0/d58/classsddk_1_1mdarray__base.html" target="_top" xlink:title="sddk::mdarray_base\l\&lt; double, N \&gt;">
<polygon fill="#ffffff" stroke="#000000" points="116.5,-466 116.5,-496 200.5,-496 200.5,-466 116.5,-466"/>
<text text-anchor="start" x="124.5" y="-484" font-family="Helvetica,sans-Serif" font-size="10.00" fill="#000000">sddk::mdarray_base</text>
<text text-anchor="middle" x="158.5" y="-473" font-family="Helvetica,sans-Serif" font-size="10.00" fill="#000000">&lt; double, N &gt;</text>
</a>
</g>
</g>
<!-- Node25&#45;&gt;Node24 -->
<g id="edge24" class="edge">
<title>Node25&#45;&gt;Node24</title>
<path fill="none" stroke="#191970" d="M210.9334,-480.3032C225.1549,-480.1142 240.5773,-479.9093 254.8895,-479.7191"/>
<polygon fill="#191970" stroke="#191970" points="210.7757,-476.8049 200.8231,-480.4376 210.8688,-483.8043 210.7757,-476.8049"/>
</g>
<!-- Node26&#45;&gt;Node22 -->
<g id="edge25" class="edge">
<title>Node26&#45;&gt;Node22</title>
<path fill="none" stroke="#9a32cd" stroke-dasharray="5,2" d="M365.9513,-592.2235C407.5553,-590.4408 459.3214,-585.2949 475,-571 501.6108,-546.7377 472.2715,-521.4469 493,-492 499.1293,-483.2927 508.669,-476.5293 517.5565,-471.6469"/>
<polygon fill="#9a32cd" stroke="#9a32cd" points="365.7558,-588.7283 355.8934,-592.5991 366.0171,-595.7234 365.7558,-588.7283"/>
<text text-anchor="middle" x="428.5" y="-594" font-family="Helvetica,sans-Serif" font-size="10.00" fill="#000000"> gvec_shell_</text>
</g>
<!-- Node27 -->
<g id="node26" class="node">
<title>Node27</title>
<g id="a_node26"><a xlink:href="../../db/dea/structsddk_1_1block__data__descriptor.html" target="_top" xlink:title="sddk::block_data_descriptor">
<polygon fill="#ffffff" stroke="#000000" points="254,-545.5 254,-564.5 364,-564.5 364,-545.5 254,-545.5"/>
<text text-anchor="middle" x="309" y="-552.5" font-family="Helvetica,sans-Serif" font-size="10.00" fill="#000000">sddk::block_data_descriptor</text>
</a>
</g>
</g>
<!-- Node27&#45;&gt;Node22 -->
<g id="edge27" class="edge">
<title>Node27&#45;&gt;Node22</title>
<path fill="none" stroke="#9a32cd" stroke-dasharray="5,2" d="M374.1291,-547.5313C413.3514,-541.9975 458.7535,-533.4352 475,-522 487.7153,-513.0503 482.1583,-503.1461 493,-492 500.9645,-483.8119 511.5725,-476.7983 520.6949,-471.6161"/>
<polygon fill="#9a32cd" stroke="#9a32cd" points="373.4847,-544.0867 364.0501,-548.9074 374.4317,-551.0223 373.4847,-544.0867"/>
<text text-anchor="middle" x="428.5" y="-559" font-family="Helvetica,sans-Serif" font-size="10.00" fill="#000000"> gvec_distr_</text>
<text text-anchor="middle" x="428.5" y="-548" font-family="Helvetica,sans-Serif" font-size="10.00" fill="#000000">zcol_distr_</text>
</g>
<!-- Node28 -->
<g id="node27" class="node">
<title>Node28</title>
<g id="a_node27"><a xlink:href="../../d7/dab/classsddk_1_1mdarray.html" target="_top" xlink:title="sddk::mdarray\&lt; uint32\l_t, 1 \&gt;">
<polygon fill="#ffffff" stroke="#000000" points="263.5,-420 263.5,-450 354.5,-450 354.5,-420 263.5,-420"/>
<text text-anchor="start" x="271.5" y="-438" font-family="Helvetica,sans-Serif" font-size="10.00" fill="#000000">sddk::mdarray&lt; uint32</text>
<text text-anchor="middle" x="309" y="-427" font-family="Helvetica,sans-Serif" font-size="10.00" fill="#000000">_t, 1 &gt;</text>
</a>
</g>
</g>
<!-- Node28&#45;&gt;Node22 -->
<g id="edge28" class="edge">
<title>Node28&#45;&gt;Node22</title>
<path fill="none" stroke="#9a32cd" stroke-dasharray="5,2" d="M364.6551,-439.9907C396.9249,-443.0615 438.31,-447.302 475,-452 487.4575,-453.5951 501.2104,-455.6657 512.8454,-457.5087"/>
<polygon fill="#9a32cd" stroke="#9a32cd" points="364.7998,-436.4889 354.5157,-439.0357 364.1434,-443.4581 364.7998,-436.4889"/>
<text text-anchor="middle" x="428.5" y="-455" font-family="Helvetica,sans-Serif" font-size="10.00" fill="#000000"> gvec_full_index_</text>
</g>
<!-- Node29 -->
<g id="node28" class="node">
<title>Node29</title>
<g id="a_node28"><a xlink:href="../../d0/d58/classsddk_1_1mdarray__base.html" target="_top" xlink:title="sddk::mdarray_base\l\&lt; uint32_t, N \&gt;">
<polygon fill="#ffffff" stroke="#000000" points="116.5,-417 116.5,-447 200.5,-447 200.5,-417 116.5,-417"/>
<text text-anchor="start" x="124.5" y="-435" font-family="Helvetica,sans-Serif" font-size="10.00" fill="#000000">sddk::mdarray_base</text>
<text text-anchor="middle" x="158.5" y="-424" font-family="Helvetica,sans-Serif" font-size="10.00" fill="#000000">&lt; uint32_t, N &gt;</text>
</a>
</g>
</g>
<!-- Node29&#45;&gt;Node28 -->
<g id="edge29" class="edge">
<title>Node29&#45;&gt;Node28</title>
<path fill="none" stroke="#191970" d="M211.1545,-433.0496C228.1559,-433.3885 246.8534,-433.7612 263.3088,-434.0892"/>
<polygon fill="#191970" stroke="#191970" points="210.8909,-429.5437 200.8231,-432.8437 210.7514,-436.5423 210.8909,-429.5437"/>
</g>
<!-- Node30&#45;&gt;Node5 -->
<g id="edge32" class="edge">
<title>Node30&#45;&gt;Node5</title>
<path fill="none" stroke="#9a32cd" stroke-dasharray="5,2" d="M803.0833,-245C837.3783,-245 884.409,-245 916.7017,-245"/>
<polygon fill="#9a32cd" stroke="#9a32cd" points="802.8793,-241.5001 792.8793,-245 802.8793,-248.5001 802.8793,-241.5001"/>
<text text-anchor="middle" x="863" y="-248" font-family="Helvetica,sans-Serif" font-size="10.00" fill="#000000"> unit_cell_</text>
</g>
<!-- Node31&#45;&gt;Node30 -->
<g id="edge33" class="edge">
<title>Node31&#45;&gt;Node30</title>
<path fill="none" stroke="#9a32cd" stroke-dasharray="5,2" d="M593.0342,-257.8241C622.0285,-259.2183 658.5473,-259.8415 691,-257 702.2257,-256.0171 714.3758,-254.1381 725.2578,-252.1536"/>
<polygon fill="#9a32cd" stroke="#9a32cd" points="592.8843,-254.3115 582.714,-257.2806 592.516,-261.3018 592.8843,-254.3115"/>
<text text-anchor="middle" x="648" y="-261" font-family="Helvetica,sans-Serif" font-size="10.00" fill="#000000"> comm_bundle_atoms_</text>
</g>
<!-- Node32 -->
<g id="node31" class="node">
<title>Node32</title>
<g id="a_node31"><a xlink:href="../../d2/dc9/classsddk_1_1splindex.html" target="_top" xlink:title="sddk::splindex\&lt; block \&gt;">
<polygon fill="#ffffff" stroke="#000000" points="493,-200.5 493,-219.5 587,-219.5 587,-200.5 493,-200.5"/>
<text text-anchor="middle" x="540" y="-207.5" font-family="Helvetica,sans-Serif" font-size="10.00" fill="#000000">sddk::splindex&lt; block &gt;</text>
</a>
</g>
</g>
<!-- Node32&#45;&gt;Node30 -->
<g id="edge35" class="edge">
<title>Node32&#45;&gt;Node30</title>
<path fill="none" stroke="#9a32cd" stroke-dasharray="5,2" d="M597.5096,-202.9816C626.0255,-201.1678 660.7489,-201.4864 691,-209 711.4831,-214.0875 732.585,-226.6083 745.7394,-235.4489"/>
<polygon fill="#9a32cd" stroke="#9a32cd" points="597.0187,-199.5083 587.3044,-203.737 597.5355,-206.4892 597.0187,-199.5083"/>
<text text-anchor="middle" x="648" y="-245" font-family="Helvetica,sans-Serif" font-size="10.00" fill="#000000"> spl_num_paw_atoms_</text>
<text text-anchor="middle" x="648" y="-234" font-family="Helvetica,sans-Serif" font-size="10.00" fill="#000000">spl_num_atoms_</text>
<text text-anchor="start" x="605" y="-223" font-family="Helvetica,sans-Serif" font-size="10.00" fill="#000000">spl_num_atom_symmetry</text>
<text text-anchor="middle" x="648" y="-212" font-family="Helvetica,sans-Serif" font-size="10.00" fill="#000000">_classes_</text>
</g>
<!-- Node33 -->
<g id="node32" class="node">
<title>Node33</title>
<g id="a_node32"><a xlink:href="../../d6/dec/classsddk_1_1splindex__base.html" target="_top" xlink:title="sddk::splindex_base\l\&lt; int \&gt;">
<polygon fill="#ffffff" stroke="#000000" points="267,-252 267,-282 351,-282 351,-252 267,-252"/>
<text text-anchor="start" x="275" y="-270" font-family="Helvetica,sans-Serif" font-size="10.00" fill="#000000">sddk::splindex_base</text>
<text text-anchor="middle" x="309" y="-259" font-family="Helvetica,sans-Serif" font-size="10.00" fill="#000000">&lt; int &gt;</text>
</a>
</g>
</g>
<!-- Node33&#45;&gt;Node32 -->
<g id="edge36" class="edge">
<title>Node33&#45;&gt;Node32</title>
<path fill="none" stroke="#191970" d="M361.2063,-258.219C394.1227,-252.2129 437.3694,-243.4576 475,-233 488.6093,-229.218 503.4826,-224.0358 515.5632,-219.5479"/>
<polygon fill="#191970" stroke="#191970" points="360.5627,-254.7785 351.3402,-259.9935 361.8019,-261.668 360.5627,-254.7785"/>
</g>
</g>
</svg>
        <g id="navigator" transform="translate(0 0)" fill="#404254">
                <rect fill="#f2f5e9" fill-opacity="0.5" stroke="#606060" stroke-width=".5" x="0" y="0" width="60" height="60"/>
                <use id="zoomplus" xlink:href="#zoomPlus" x="17" y="9" onmousedown="handleZoom(evt,'in')"/>
                <use id="zoomminus" xlink:href="#zoomMin" x="42" y="9" onmousedown="handleZoom(evt,'out')"/>
                <use id="reset" xlink:href="#resetDef" x="30" y="36" onmousedown="handleReset()"/>
                <g id="arrowUp" xlink:href="#dirArrow" transform="translate(30 24)" onmousedown="handlePan(0,-1)">
                  <use xlink:href="#rim" fill="#404040">
                        <set attributeName="fill" to="#808080" begin="arrowUp.mouseover" end="arrowUp.mouseout"/>
                  </use>
                  <path fill="none" stroke="white" stroke-width="1.5" d="M0,-3.0v7 M-2.5,-0.5L0,-3.0L2.5,-0.5"/>
                </g>
                <g id="arrowRight" xlink:href="#dirArrow" transform="rotate(90) translate(36 -43)" onmousedown="handlePan(1,0)">
                  <use xlink:href="#rim" fill="#404040">
                        <set attributeName="fill" to="#808080" begin="arrowRight.mouseover" end="arrowRight.mouseout"/>
                  </use>
                  <path fill="none" stroke="white" stroke-width="1.5" d="M0,-3.0v7 M-2.5,-0.5L0,-3.0L2.5,-0.5"/>
                </g>
                <g id="arrowDown" xlink:href="#dirArrow" transform="rotate(180) translate(-30 -48)" onmousedown="handlePan(0,1)">
                  <use xlink:href="#rim" fill="#404040">
                        <set attributeName="fill" to="#808080" begin="arrowDown.mouseover" end="arrowDown.mouseout"/>
                  </use>
                  <path fill="none" stroke="white" stroke-width="1.5" d="M0,-3.0v7 M-2.5,-0.5L0,-3.0L2.5,-0.5"/>
                </g>
                <g id="arrowLeft" xlink:href="#dirArrow" transform="rotate(270) translate(-36 17)" onmousedown="handlePan(-1,0)">
                  <use xlink:href="#rim" fill="#404040">
                        <set attributeName="fill" to="#808080" begin="arrowLeft.mouseover" end="arrowLeft.mouseout"/>
                  </use>
                  <path fill="none" stroke="white" stroke-width="1.5" d="M0,-3.0v7 M-2.5,-0.5L0,-3.0L2.5,-0.5"/>
                </g>
        </g>
        <svg viewBox="0 0 15 15" width="100%" height="30px" preserveAspectRatio="xMaxYMin meet">
         <g id="arrow_out" transform="scale(0.3 0.3)">
          <a xlink:href="classsirius_1_1_beta__projectors__strain__deriv__coll__graph_org.svg" target="_base">
           <rect id="button" ry="5" rx="5" y="6" x="6" height="38" width="38"
                fill="#f2f5e9" fill-opacity="0.5" stroke="#606060" stroke-width="1.0"/>
           <path id="arrow"
             d="M 11.500037,31.436501 C 11.940474,20.09759 22.043105,11.32322 32.158766,21.979434 L 37.068811,17.246167 C 37.068811,17.246167 37.088388,32 37.088388,32 L 22.160133,31.978069 C 22.160133,31.978069 26.997745,27.140456 26.997745,27.140456 C 18.528582,18.264221 13.291696,25.230495 11.500037,31.436501 z"
             style="fill:#404040;"/>
          </a>
         </g>
        </svg>
</svg>
