<?xml version="1.0" encoding="UTF-8" standalone="no"?>
<!DOCTYPE svg PUBLIC "-//W3C//DTD SVG 1.1//EN"
 "http://www.w3.org/Graphics/SVG/1.1/DTD/svg11.dtd">
<!-- Generated by graphviz version 2.40.1 (20161225.0304)
 -->
<!-- Title: typedefs.hpp Pages: 1 -->
<svg width="660pt" height="980pt"
 viewBox="0.00 0.00 659.50 980.00" xmlns="http://www.w3.org/2000/svg" xmlns:xlink="http://www.w3.org/1999/xlink">
<g id="graph0" class="graph" transform="scale(1 1) rotate(0) translate(4 976)">
<title>typedefs.hpp</title>
<polygon fill="#ffffff" stroke="transparent" points="-4,4 -4,-976 655.5,-976 655.5,4 -4,4"/>
<!-- Node5 -->
<g id="node1" class="node">
<title>Node5</title>
<polygon fill="#bfbfbf" stroke="#000000" points="313,-952.5 313,-971.5 387,-971.5 387,-952.5 313,-952.5"/>
<text text-anchor="middle" x="350" y="-959.5" font-family="Helvetica,sans-Serif" font-size="10.00" fill="#000000">typedefs.hpp</text>
</g>
<!-- Node6 -->
<g id="node2" class="node">
<title>Node6</title>
<g id="a_node2"><a xlink:href="../../de/d06/simulation__parameters_8hpp.html" target="_top" xlink:title="Contains definition and implementation of sirius::Simulation_parameters_base class. ">
<polygon fill="#ffffff" stroke="#000000" points="281.5,-896.5 281.5,-915.5 418.5,-915.5 418.5,-896.5 281.5,-896.5"/>
<text text-anchor="middle" x="350" y="-903.5" font-family="Helvetica,sans-Serif" font-size="10.00" fill="#000000">simulation_parameters.hpp</text>
</a>
</g>
</g>
<!-- Node5&#45;&gt;Node6 -->
<g id="edge1" class="edge">
<title>Node5&#45;&gt;Node6</title>
<path fill="none" stroke="#191970" d="M350,-942.1575C350,-933.155 350,-922.9199 350,-915.6427"/>
<polygon fill="#191970" stroke="#191970" points="346.5001,-942.2455 350,-952.2455 353.5001,-942.2456 346.5001,-942.2455"/>
</g>
<!-- Node28 -->
<g id="node24" class="node">
<title>Node28</title>
<g id="a_node24"><a xlink:href="../../d0/db9/sht_8hpp.html" target="_top" xlink:title="Contains declaration and particular implementation of sirius::SHT class. ">
<polygon fill="#ffffff" stroke="#000000" points="148.5,-840.5 148.5,-859.5 197.5,-859.5 197.5,-840.5 148.5,-840.5"/>
<text text-anchor="middle" x="173" y="-847.5" font-family="Helvetica,sans-Serif" font-size="10.00" fill="#000000">sht.hpp</text>
</a>
</g>
</g>
<!-- Node5&#45;&gt;Node28 -->
<g id="edge38" class="edge">
<title>Node5&#45;&gt;Node28</title>
<path fill="none" stroke="#191970" d="M324.5754,-947.1982C309.4849,-938.3169 290.0341,-926.7018 273,-916 241.9998,-896.5238 206.3592,-872.6321 187.1113,-859.6017"/>
<polygon fill="#191970" stroke="#191970" points="322.9506,-950.3028 333.3473,-952.3422 326.4916,-944.2644 322.9506,-950.3028"/>
</g>
<!-- Node30 -->
<g id="node26" class="node">
<title>Node30</title>
<g id="a_node26"><a xlink:href="../../d0/ddf/radial__solver_8hpp.html" target="_top" xlink:title="Contains declaration and partial implementation of sirius::Radial_solver class. ">
<polygon fill="#ffffff" stroke="#000000" points="465.5,-896.5 465.5,-915.5 558.5,-915.5 558.5,-896.5 465.5,-896.5"/>
<text text-anchor="middle" x="512" y="-903.5" font-family="Helvetica,sans-Serif" font-size="10.00" fill="#000000">radial_solver.hpp</text>
</a>
</g>
</g>
<!-- Node5&#45;&gt;Node30 -->
<g id="edge43" class="edge">
<title>Node5&#45;&gt;Node30</title>
<path fill="none" stroke="#191970" d="M387.4422,-949.057C417.0901,-938.8084 457.8196,-924.729 484.5146,-915.5011"/>
<polygon fill="#191970" stroke="#191970" points="386.1565,-945.7982 377.8488,-952.3733 388.4436,-952.414 386.1565,-945.7982"/>
</g>
<!-- Node7 -->
<g id="node3" class="node">
<title>Node7</title>
<g id="a_node3"><a xlink:href="../../d1/db8/simulation__context_8hpp.html" target="_top" xlink:title="Contains definition and implementation of Simulation_context class. ">
<polygon fill="#ffffff" stroke="#000000" points="278.5,-448.5 278.5,-467.5 397.5,-467.5 397.5,-448.5 278.5,-448.5"/>
<text text-anchor="middle" x="338" y="-455.5" font-family="Helvetica,sans-Serif" font-size="10.00" fill="#000000">simulation_context.hpp</text>
</a>
</g>
</g>
<!-- Node6&#45;&gt;Node7 -->
<g id="edge2" class="edge">
<title>Node6&#45;&gt;Node7</title>
<path fill="none" stroke="#191970" d="M350,-886.1952C350,-863.8128 350,-826.2884 350,-794 350,-794 350,-794 350,-570 350,-531.8663 343.0374,-486.8428 339.7193,-467.5514"/>
<polygon fill="#191970" stroke="#191970" points="346.5001,-886.4116 350,-896.4116 353.5001,-886.4117 346.5001,-886.4116"/>
</g>
<!-- Node21 -->
<g id="node17" class="node">
<title>Node21</title>
<g id="a_node17"><a xlink:href="../../db/df7/atom__type_8hpp.html" target="_top" xlink:title="Contains declaration and implementation of sirius::Atom_type class. ">
<polygon fill="#ffffff" stroke="#000000" points="404.5,-840.5 404.5,-859.5 487.5,-859.5 487.5,-840.5 404.5,-840.5"/>
<text text-anchor="middle" x="446" y="-847.5" font-family="Helvetica,sans-Serif" font-size="10.00" fill="#000000">atom_type.hpp</text>
</a>
</g>
</g>
<!-- Node6&#45;&gt;Node21 -->
<g id="edge24" class="edge">
<title>Node6&#45;&gt;Node21</title>
<path fill="none" stroke="#191970" d="M375.6346,-891.0465C392.7159,-881.0824 414.664,-868.2794 429.4697,-859.6427"/>
<polygon fill="#191970" stroke="#191970" points="373.5962,-888.1836 366.7219,-896.2455 377.1233,-894.23 373.5962,-888.1836"/>
</g>
<!-- Node24 -->
<g id="node20" class="node">
<title>Node24</title>
<g id="a_node20"><a xlink:href="../../d4/d91/unit__cell_8hpp.html" target="_top" xlink:title="Contains definition and partial implementation of sirius::Unit_cell class. ">
<polygon fill="#ffffff" stroke="#000000" points="233.5,-672.5 233.5,-691.5 306.5,-691.5 306.5,-672.5 233.5,-672.5"/>
<text text-anchor="middle" x="270" y="-679.5" font-family="Helvetica,sans-Serif" font-size="10.00" fill="#000000">unit_cell.hpp</text>
</a>
</g>
</g>
<!-- Node6&#45;&gt;Node24 -->
<g id="edge37" class="edge">
<title>Node6&#45;&gt;Node24</title>
<path fill="none" stroke="#191970" d="M343.9981,-886.6806C330.6379,-843.761 299.1365,-743.0666 293,-728 287.746,-715.1001 280.3545,-700.8404 275.3816,-691.6684"/>
<polygon fill="#191970" stroke="#191970" points="340.7342,-887.9715 347.046,-896.481 347.4184,-885.8927 340.7342,-887.9715"/>
</g>
<!-- Node8 -->
<g id="node4" class="node">
<title>Node8</title>
<g id="a_node4"><a xlink:href="../../db/d74/hubbard_8hpp.html" target="_top" xlink:title="Contains declaration and partial implementation of sirius::Hubbard class. ">
<polygon fill="#ffffff" stroke="#000000" points="411.5,-392.5 411.5,-411.5 484.5,-411.5 484.5,-392.5 411.5,-392.5"/>
<text text-anchor="middle" x="448" y="-399.5" font-family="Helvetica,sans-Serif" font-size="10.00" fill="#000000">hubbard.hpp</text>
</a>
</g>
</g>
<!-- Node7&#45;&gt;Node8 -->
<g id="edge3" class="edge">
<title>Node7&#45;&gt;Node8</title>
<path fill="none" stroke="#191970" d="M366.2914,-443.5971C386.0111,-433.558 411.78,-420.4393 429.059,-411.6427"/>
<polygon fill="#191970" stroke="#191970" points="364.4843,-440.5896 357.1605,-448.2455 367.6601,-446.8277 364.4843,-440.5896"/>
</g>
<!-- Node12 -->
<g id="node8" class="node">
<title>Node12</title>
<g id="a_node8"><a xlink:href="../../de/dec/hamiltonian_8hpp.html" target="_top" xlink:title="Contains declaration and definition of sirius::Hamiltonian class. ">
<polygon fill="#ffffff" stroke="#000000" points="160.5,-168.5 160.5,-187.5 247.5,-187.5 247.5,-168.5 160.5,-168.5"/>
<text text-anchor="middle" x="204" y="-175.5" font-family="Helvetica,sans-Serif" font-size="10.00" fill="#000000">hamiltonian.hpp</text>
</a>
</g>
</g>
<!-- Node7&#45;&gt;Node12 -->
<g id="edge10" class="edge">
<title>Node7&#45;&gt;Node12</title>
<path fill="none" stroke="#191970" d="M346.3799,-438.9369C363.9434,-395.7404 399.1033,-289.1075 350,-224 337.5183,-207.4502 286.0334,-193.9889 247.7153,-185.9976"/>
<polygon fill="#191970" stroke="#191970" points="343.1054,-437.6945 342.4514,-448.2692 349.5571,-440.4105 343.1054,-437.6945"/>
</g>
<!-- Node14 -->
<g id="node10" class="node">
<title>Node14</title>
<g id="a_node10"><a xlink:href="../../d3/d6a/periodic__function_8hpp.html" target="_top" xlink:title="Contains declaration and partial implementation of sirius::Periodic_function class. ">
<polygon fill="#ffffff" stroke="#000000" points="60,-392.5 60,-411.5 172,-411.5 172,-392.5 60,-392.5"/>
<text text-anchor="middle" x="116" y="-399.5" font-family="Helvetica,sans-Serif" font-size="10.00" fill="#000000">periodic_function.hpp</text>
</a>
</g>
</g>
<!-- Node7&#45;&gt;Node14 -->
<g id="edge11" class="edge">
<title>Node7&#45;&gt;Node14</title>
<path fill="none" stroke="#191970" d="M290.3572,-445.982C249.5097,-435.6781 191.4525,-421.0331 153.7546,-411.5237"/>
<polygon fill="#191970" stroke="#191970" points="289.5367,-449.3846 300.0891,-448.4369 291.2489,-442.5972 289.5367,-449.3846"/>
</g>
<!-- Node9 -->
<g id="node5" class="node">
<title>Node9</title>
<g id="a_node5"><a xlink:href="../../df/dc4/dft__ground__state_8hpp.html" target="_top" xlink:title="Contains definition and partial implementation of sirius::DFT_ground_state class. ...">
<polygon fill="#ffffff" stroke="#000000" points="229.5,-224.5 229.5,-243.5 340.5,-243.5 340.5,-224.5 229.5,-224.5"/>
<text text-anchor="middle" x="285" y="-231.5" font-family="Helvetica,sans-Serif" font-size="10.00" fill="#000000">dft_ground_state.hpp</text>
</a>
</g>
</g>
<!-- Node8&#45;&gt;Node9 -->
<g id="edge4" class="edge">
<title>Node8&#45;&gt;Node9</title>
<path fill="none" stroke="#191970" d="M431.4977,-384.9915C397.6607,-350.1166 321.3502,-271.4652 294.5354,-243.8279"/>
<polygon fill="#191970" stroke="#191970" points="429.2939,-387.7464 438.7694,-392.4862 434.3179,-382.8719 429.2939,-387.7464"/>
</g>
<!-- Node8&#45;&gt;Node12 -->
<g id="edge7" class="edge">
<title>Node8&#45;&gt;Node12</title>
<path fill="none" stroke="#191970" d="M451.8848,-382.4771C457.8817,-346.1433 464.8079,-267.8615 424,-224 400.5438,-198.7886 304.8555,-186.4755 247.6861,-181.2592"/>
<polygon fill="#191970" stroke="#191970" points="448.4399,-381.8591 450.1074,-392.3219 455.3285,-383.1029 448.4399,-381.8591"/>
</g>
<!-- Node10 -->
<g id="node6" class="node">
<title>Node10</title>
<g id="a_node6"><a xlink:href="../../dd/dc2/sirius_8h.html" target="_top" xlink:title="&quot;All&#45;in&#45;one&quot; include file. ">
<polygon fill="#ffffff" stroke="#000000" points="216,-56.5 216,-75.5 264,-75.5 264,-56.5 216,-56.5"/>
<text text-anchor="middle" x="240" y="-63.5" font-family="Helvetica,sans-Serif" font-size="10.00" fill="#000000">sirius.h</text>
</a>
</g>
</g>
<!-- Node9&#45;&gt;Node10 -->
<g id="edge5" class="edge">
<title>Node9&#45;&gt;Node10</title>
<path fill="none" stroke="#191970" d="M279.8375,-214.7267C270.2198,-178.8207 249.8792,-102.8822 242.6325,-75.8279"/>
<polygon fill="#191970" stroke="#191970" points="276.4834,-215.7324 282.4517,-224.4862 283.2451,-213.9212 276.4834,-215.7324"/>
</g>
<!-- Node11 -->
<g id="node7" class="node">
<title>Node11</title>
<g id="a_node7"><a xlink:href="../../d4/d53/sirius__api_8cpp.html" target="_top" xlink:title="Fortran API. ">
<polygon fill="#ffffff" stroke="#000000" points="201,-.5 201,-19.5 279,-19.5 279,-.5 201,-.5"/>
<text text-anchor="middle" x="240" y="-7.5" font-family="Helvetica,sans-Serif" font-size="10.00" fill="#000000">sirius_api.cpp</text>
</a>
</g>
</g>
<!-- Node10&#45;&gt;Node11 -->
<g id="edge6" class="edge">
<title>Node10&#45;&gt;Node11</title>
<path fill="none" stroke="#191970" d="M240,-46.1575C240,-37.155 240,-26.9199 240,-19.6427"/>
<polygon fill="#191970" stroke="#191970" points="236.5001,-46.2455 240,-56.2455 243.5001,-46.2456 236.5001,-46.2455"/>
</g>
<!-- Node13 -->
<g id="node9" class="node">
<title>Node13</title>
<g id="a_node9"><a xlink:href="../../da/d3d/band_8hpp.html" target="_top" xlink:title="Contains declaration and partial implementation of sirius::Band class. ">
<polygon fill="#ffffff" stroke="#000000" points="175,-112.5 175,-131.5 233,-131.5 233,-112.5 175,-112.5"/>
<text text-anchor="middle" x="204" y="-119.5" font-family="Helvetica,sans-Serif" font-size="10.00" fill="#000000">band.hpp</text>
</a>
</g>
</g>
<!-- Node12&#45;&gt;Node13 -->
<g id="edge8" class="edge">
<title>Node12&#45;&gt;Node13</title>
<path fill="none" stroke="#191970" d="M204,-158.1575C204,-149.155 204,-138.9199 204,-131.6427"/>
<polygon fill="#191970" stroke="#191970" points="200.5001,-158.2455 204,-168.2455 207.5001,-158.2456 200.5001,-158.2455"/>
</g>
<!-- Node13&#45;&gt;Node10 -->
<g id="edge9" class="edge">
<title>Node13&#45;&gt;Node10</title>
<path fill="none" stroke="#191970" d="M215.8096,-103.6296C221.8144,-94.2887 228.8659,-83.3197 233.8011,-75.6427"/>
<polygon fill="#191970" stroke="#191970" points="212.7342,-101.9411 210.2707,-112.2455 218.6225,-105.7264 212.7342,-101.9411"/>
</g>
<!-- Node14&#45;&gt;Node13 -->
<g id="edge12" class="edge">
<title>Node14&#45;&gt;Node13</title>
<path fill="none" stroke="#191970" d="M89.7985,-386.8818C78.2423,-379.0141 65.405,-368.4333 57,-356 39.9048,-330.7115 38,-320.5246 38,-290 38,-290 38,-290 38,-234 38,-168.8145 127.0493,-139.0341 174.7046,-127.7641"/>
<polygon fill="#191970" stroke="#191970" points="87.9896,-389.8799 98.2913,-392.3551 91.7816,-383.9959 87.9896,-389.8799"/>
</g>
<!-- Node15 -->
<g id="node11" class="node">
<title>Node15</title>
<g id="a_node11"><a xlink:href="../../d0/d9a/density_8hpp.html" target="_top" xlink:title="Contains definition and partial implementation of sirius::Density class. ">
<polygon fill="#ffffff" stroke="#000000" points="66,-336.5 66,-355.5 134,-355.5 134,-336.5 66,-336.5"/>
<text text-anchor="middle" x="100" y="-343.5" font-family="Helvetica,sans-Serif" font-size="10.00" fill="#000000">density.hpp</text>
</a>
</g>
</g>
<!-- Node14&#45;&gt;Node15 -->
<g id="edge13" class="edge">
<title>Node14&#45;&gt;Node15</title>
<path fill="none" stroke="#191970" d="M110.4154,-382.4538C107.823,-373.3803 104.8571,-362.9998 102.755,-355.6427"/>
<polygon fill="#191970" stroke="#191970" points="107.1004,-383.5919 113.213,-392.2455 113.8311,-381.6688 107.1004,-383.5919"/>
</g>
<!-- Node18 -->
<g id="node14" class="node">
<title>Node18</title>
<g id="a_node14"><a xlink:href="../../d5/d72/non__local__functor_8hpp.html" target="_top" xlink:title="Common operation for forces and stress tensor. ">
<polygon fill="#ffffff" stroke="#000000" points="228.5,-336.5 228.5,-355.5 343.5,-355.5 343.5,-336.5 228.5,-336.5"/>
<text text-anchor="middle" x="286" y="-343.5" font-family="Helvetica,sans-Serif" font-size="10.00" fill="#000000">non_local_functor.hpp</text>
</a>
</g>
</g>
<!-- Node14&#45;&gt;Node18 -->
<g id="edge18" class="edge">
<title>Node14&#45;&gt;Node18</title>
<path fill="none" stroke="#191970" d="M154.886,-389.1905C186.0312,-378.9309 229.0223,-364.7691 257.1573,-355.5011"/>
<polygon fill="#191970" stroke="#191970" points="153.6269,-385.9202 145.224,-392.3733 155.8171,-392.5687 153.6269,-385.9202"/>
</g>
<!-- Node20 -->
<g id="node16" class="node">
<title>Node20</title>
<g id="a_node16"><a xlink:href="../../d6/d1e/force_8hpp.html" target="_top" xlink:title="Contains defintion and implementation of sirius::Force class. ">
<polygon fill="#ffffff" stroke="#000000" points="178,-280.5 178,-299.5 236,-299.5 236,-280.5 178,-280.5"/>
<text text-anchor="middle" x="207" y="-287.5" font-family="Helvetica,sans-Serif" font-size="10.00" fill="#000000">force.hpp</text>
</a>
</g>
</g>
<!-- Node14&#45;&gt;Node20 -->
<g id="edge23" class="edge">
<title>Node14&#45;&gt;Node20</title>
<path fill="none" stroke="#191970" d="M130.1965,-384.5274C149.6629,-360.5688 183.9653,-318.3505 199.261,-299.5249"/>
<polygon fill="#191970" stroke="#191970" points="127.3482,-382.4827 123.7586,-392.4509 132.781,-386.8969 127.3482,-382.4827"/>
</g>
<!-- Node16 -->
<g id="node12" class="node">
<title>Node16</title>
<g id="a_node12"><a xlink:href="../../de/df2/potential_8hpp.html" target="_top" xlink:title="Contains declaration and partial implementation of sirius::Potential class. ">
<polygon fill="#ffffff" stroke="#000000" points="86,-280.5 86,-299.5 160,-299.5 160,-280.5 86,-280.5"/>
<text text-anchor="middle" x="123" y="-287.5" font-family="Helvetica,sans-Serif" font-size="10.00" fill="#000000">potential.hpp</text>
</a>
</g>
</g>
<!-- Node15&#45;&gt;Node16 -->
<g id="edge14" class="edge">
<title>Node15&#45;&gt;Node16</title>
<path fill="none" stroke="#191970" d="M107.9066,-326.7493C111.6617,-317.6064 115.9851,-307.0798 119.0396,-299.6427"/>
<polygon fill="#191970" stroke="#191970" points="104.568,-325.6656 104.0063,-336.2455 111.0431,-328.3251 104.568,-325.6656"/>
</g>
<!-- Node16&#45;&gt;Node12 -->
<g id="edge15" class="edge">
<title>Node16&#45;&gt;Node12</title>
<path fill="none" stroke="#191970" d="M147.9845,-274.912C159.3957,-266.9446 172.2796,-256.272 181,-244 193.511,-226.3936 199.7434,-201.3628 202.3799,-187.7441"/>
<polygon fill="#191970" stroke="#191970" points="146.0295,-272.0088 139.6387,-280.4592 149.9044,-277.8386 146.0295,-272.0088"/>
</g>
<!-- Node17 -->
<g id="node13" class="node">
<title>Node17</title>
<g id="a_node13"><a xlink:href="../../d3/d2c/local__operator_8hpp.html" target="_top" xlink:title="Contains declaration and implementation of sirius::Local_operator class. ">
<polygon fill="#ffffff" stroke="#000000" points="73.5,-224.5 73.5,-243.5 172.5,-243.5 172.5,-224.5 73.5,-224.5"/>
<text text-anchor="middle" x="123" y="-231.5" font-family="Helvetica,sans-Serif" font-size="10.00" fill="#000000">local_operator.hpp</text>
</a>
</g>
</g>
<!-- Node16&#45;&gt;Node17 -->
<g id="edge16" class="edge">
<title>Node16&#45;&gt;Node17</title>
<path fill="none" stroke="#191970" d="M123,-270.1575C123,-261.155 123,-250.9199 123,-243.6427"/>
<polygon fill="#191970" stroke="#191970" points="119.5001,-270.2455 123,-280.2455 126.5001,-270.2456 119.5001,-270.2455"/>
</g>
<!-- Node17&#45;&gt;Node12 -->
<g id="edge17" class="edge">
<title>Node17&#45;&gt;Node12</title>
<path fill="none" stroke="#191970" d="M145.434,-218.49C159.7254,-208.6096 177.7916,-196.1194 190.0526,-187.6427"/>
<polygon fill="#191970" stroke="#191970" points="143.3443,-215.6797 137.1091,-224.2455 147.3251,-221.4376 143.3443,-215.6797"/>
</g>
<!-- Node19 -->
<g id="node15" class="node">
<title>Node19</title>
<g id="a_node15"><a xlink:href="../../d7/dd1/stress_8hpp.html" target="_top" xlink:title="Stress tensor calculation. ">
<polygon fill="#ffffff" stroke="#000000" points="254.5,-280.5 254.5,-299.5 317.5,-299.5 317.5,-280.5 254.5,-280.5"/>
<text text-anchor="middle" x="286" y="-287.5" font-family="Helvetica,sans-Serif" font-size="10.00" fill="#000000">stress.hpp</text>
</a>
</g>
</g>
<!-- Node18&#45;&gt;Node19 -->
<g id="edge19" class="edge">
<title>Node18&#45;&gt;Node19</title>
<path fill="none" stroke="#191970" d="M286,-326.1575C286,-317.155 286,-306.9199 286,-299.6427"/>
<polygon fill="#191970" stroke="#191970" points="282.5001,-326.2455 286,-336.2455 289.5001,-326.2456 282.5001,-326.2455"/>
</g>
<!-- Node18&#45;&gt;Node20 -->
<g id="edge21" class="edge">
<title>Node18&#45;&gt;Node20</title>
<path fill="none" stroke="#191970" d="M263.7244,-330.2097C249.8495,-320.3743 232.4485,-308.0394 220.6031,-299.6427"/>
<polygon fill="#191970" stroke="#191970" points="262.0569,-333.3178 272.2393,-336.2455 266.1051,-327.6071 262.0569,-333.3178"/>
</g>
<!-- Node19&#45;&gt;Node9 -->
<g id="edge20" class="edge">
<title>Node19&#45;&gt;Node9</title>
<path fill="none" stroke="#191970" d="M285.6457,-270.1575C285.4849,-261.155 285.3021,-250.9199 285.1722,-243.6427"/>
<polygon fill="#191970" stroke="#191970" points="282.1477,-270.3097 285.8258,-280.2455 289.1466,-270.1846 282.1477,-270.3097"/>
</g>
<!-- Node20&#45;&gt;Node9 -->
<g id="edge22" class="edge">
<title>Node20&#45;&gt;Node9</title>
<path fill="none" stroke="#191970" d="M228.9936,-274.2097C242.6929,-264.3743 259.8736,-252.0394 271.5691,-243.6427"/>
<polygon fill="#191970" stroke="#191970" points="226.6686,-271.5703 220.5866,-280.2455 230.7511,-277.2566 226.6686,-271.5703"/>
</g>
<!-- Node22 -->
<g id="node18" class="node">
<title>Node22</title>
<g id="a_node18"><a xlink:href="../../d6/d50/atom__symmetry__class_8hpp.html" target="_top" xlink:title="Contains declaration and partial implementation of sirius::Atom_symmetry_class class. ">
<polygon fill="#ffffff" stroke="#000000" points="378.5,-784.5 378.5,-803.5 513.5,-803.5 513.5,-784.5 378.5,-784.5"/>
<text text-anchor="middle" x="446" y="-791.5" font-family="Helvetica,sans-Serif" font-size="10.00" fill="#000000">atom_symmetry_class.hpp</text>
</a>
</g>
</g>
<!-- Node21&#45;&gt;Node22 -->
<g id="edge25" class="edge">
<title>Node21&#45;&gt;Node22</title>
<path fill="none" stroke="#191970" d="M446,-830.1575C446,-821.155 446,-810.9199 446,-803.6427"/>
<polygon fill="#191970" stroke="#191970" points="442.5001,-830.2455 446,-840.2455 449.5001,-830.2456 442.5001,-830.2455"/>
</g>
<!-- Node23 -->
<g id="node19" class="node">
<title>Node23</title>
<g id="a_node19"><a xlink:href="../../de/d6d/atom_8hpp.html" target="_top" xlink:title="Contains declaration and partial implementation of sirius::Atom class. ">
<polygon fill="#ffffff" stroke="#000000" points="226,-728.5 226,-747.5 284,-747.5 284,-728.5 226,-728.5"/>
<text text-anchor="middle" x="255" y="-735.5" font-family="Helvetica,sans-Serif" font-size="10.00" fill="#000000">atom.hpp</text>
</a>
</g>
</g>
<!-- Node22&#45;&gt;Node23 -->
<g id="edge26" class="edge">
<title>Node22&#45;&gt;Node23</title>
<path fill="none" stroke="#191970" d="M403.3667,-781.5002C367.1293,-770.8756 316.0646,-755.9038 284.2785,-746.5843"/>
<polygon fill="#191970" stroke="#191970" points="402.5851,-784.9183 413.1659,-784.3733 404.5546,-778.2011 402.5851,-784.9183"/>
</g>
<!-- Node23&#45;&gt;Node24 -->
<g id="edge27" class="edge">
<title>Node23&#45;&gt;Node24</title>
<path fill="none" stroke="#191970" d="M260.2356,-718.4538C262.666,-709.3803 265.4465,-698.9998 267.4171,-691.6427"/>
<polygon fill="#191970" stroke="#191970" points="256.8194,-717.6805 257.6128,-728.2455 263.5811,-719.4917 256.8194,-717.6805"/>
</g>
<!-- Node25 -->
<g id="node21" class="node">
<title>Node25</title>
<g id="a_node21"><a xlink:href="../../d4/df7/radial__integrals_8hpp.html" target="_top" xlink:title="Representation of various radial integrals. ">
<polygon fill="#ffffff" stroke="#000000" points="218,-560.5 218,-579.5 322,-579.5 322,-560.5 218,-560.5"/>
<text text-anchor="middle" x="270" y="-567.5" font-family="Helvetica,sans-Serif" font-size="10.00" fill="#000000">radial_integrals.hpp</text>
</a>
</g>
</g>
<!-- Node24&#45;&gt;Node25 -->
<g id="edge28" class="edge">
<title>Node24&#45;&gt;Node25</title>
<path fill="none" stroke="#191970" d="M271.0378,-662.4487C271.4227,-654.2771 271.8114,-644.6811 272,-636 272.4333,-616.0581 271.3536,-592.7343 270.6175,-579.8386"/>
<polygon fill="#191970" stroke="#191970" points="267.5396,-662.3264 270.5343,-672.4892 274.5308,-662.6771 267.5396,-662.3264"/>
</g>
<!-- Node27 -->
<g id="node23" class="node">
<title>Node27</title>
<g id="a_node23"><a xlink:href="../../d1/d2b/sbessel_8hpp.html" target="_top" xlink:title="Contains implementation of sirius::Spherical_Bessel_functions classe. ">
<polygon fill="#ffffff" stroke="#000000" points="193,-616.5 193,-635.5 263,-635.5 263,-616.5 193,-616.5"/>
<text text-anchor="middle" x="228" y="-623.5" font-family="Helvetica,sans-Serif" font-size="10.00" fill="#000000">sbessel.hpp</text>
</a>
</g>
</g>
<!-- Node24&#45;&gt;Node27 -->
<g id="edge35" class="edge">
<title>Node24&#45;&gt;Node27</title>
<path fill="none" stroke="#191970" d="M256.6584,-664.2112C249.5604,-654.7472 241.1097,-643.4797 235.232,-635.6427"/>
<polygon fill="#191970" stroke="#191970" points="253.8841,-666.3455 262.6842,-672.2455 259.4841,-662.1455 253.8841,-666.3455"/>
</g>
<!-- Node25&#45;&gt;Node7 -->
<g id="edge34" class="edge">
<title>Node25&#45;&gt;Node7</title>
<path fill="none" stroke="#191970" d="M280.9937,-551.8927C295.6033,-527.8299 320.8875,-486.1853 332.217,-467.5249"/>
<polygon fill="#191970" stroke="#191970" points="277.9957,-550.0866 275.7976,-560.4509 283.9792,-553.7195 277.9957,-550.0866"/>
</g>
<!-- Node25&#45;&gt;Node8 -->
<g id="edge33" class="edge">
<title>Node25&#45;&gt;Node8</title>
<path fill="none" stroke="#191970" d="M295.5706,-555.0766C324.9155,-537.079 373.3193,-504.6401 407,-468 423.2494,-450.3229 436.7238,-425.3197 443.4263,-411.7244"/>
<polygon fill="#191970" stroke="#191970" points="293.5067,-552.2343 286.7556,-560.3996 297.1252,-558.2265 293.5067,-552.2343"/>
</g>
<!-- Node26 -->
<g id="node22" class="node">
<title>Node26</title>
<g id="a_node22"><a xlink:href="../../d3/d1c/augmentation__operator_8hpp.html" target="_top" xlink:title="Contains implementation of sirius::Augmentation_operator class. ">
<polygon fill="#ffffff" stroke="#000000" points="144.5,-504.5 144.5,-523.5 283.5,-523.5 283.5,-504.5 144.5,-504.5"/>
<text text-anchor="middle" x="214" y="-511.5" font-family="Helvetica,sans-Serif" font-size="10.00" fill="#000000">augmentation_operator.hpp</text>
</a>
</g>
</g>
<!-- Node25&#45;&gt;Node26 -->
<g id="edge29" class="edge">
<title>Node25&#45;&gt;Node26</title>
<path fill="none" stroke="#191970" d="M253.0751,-553.0751C243.4402,-543.4402 231.7196,-531.7196 223.6427,-523.6427"/>
<polygon fill="#191970" stroke="#191970" points="250.6996,-555.6493 260.2455,-560.2455 255.6493,-550.6996 250.6996,-555.6493"/>
</g>
<!-- Node26&#45;&gt;Node7 -->
<g id="edge32" class="edge">
<title>Node26&#45;&gt;Node7</title>
<path fill="none" stroke="#191970" d="M244.4524,-500.2473C266.9722,-490.0771 297.0617,-476.4883 316.9618,-467.5011"/>
<polygon fill="#191970" stroke="#191970" points="242.9895,-497.0675 235.3164,-504.3733 245.8706,-503.4471 242.9895,-497.0675"/>
</g>
<!-- Node26&#45;&gt;Node18 -->
<g id="edge30" class="edge">
<title>Node26&#45;&gt;Node18</title>
<path fill="none" stroke="#191970" d="M222.062,-495.1887C237.3673,-459.4762 270.1434,-382.9988 281.7881,-355.8279"/>
<polygon fill="#191970" stroke="#191970" points="218.7996,-493.916 218.0773,-504.4862 225.2336,-496.6735 218.7996,-493.916"/>
</g>
<!-- Node26&#45;&gt;Node20 -->
<g id="edge31" class="edge">
<title>Node26&#45;&gt;Node20</title>
<path fill="none" stroke="#191970" d="M213.3787,-494.1177C211.9272,-447.6713 208.3569,-333.4223 207.2997,-299.5891"/>
<polygon fill="#191970" stroke="#191970" points="209.8885,-494.4892 213.6992,-504.375 216.8851,-494.2705 209.8885,-494.4892"/>
</g>
<!-- Node27&#45;&gt;Node25 -->
<g id="edge36" class="edge">
<title>Node27&#45;&gt;Node25</title>
<path fill="none" stroke="#191970" d="M241.3416,-608.2112C248.4396,-598.7472 256.8903,-587.4797 262.768,-579.6427"/>
<polygon fill="#191970" stroke="#191970" points="238.5159,-606.1455 235.3158,-616.2455 244.1159,-610.3455 238.5159,-606.1455"/>
</g>
<!-- Node28&#45;&gt;Node10 -->
<g id="edge42" class="edge">
<title>Node28&#45;&gt;Node10</title>
<path fill="none" stroke="#191970" d="M138.3499,-843.7393C87.855,-832.3931 0,-803.2731 0,-738 0,-738 0,-738 0,-178 0,-130.7551 154.6518,-87.1896 215.6668,-71.8401"/>
<polygon fill="#191970" stroke="#191970" points="137.7039,-847.1802 148.2133,-845.8373 139.1603,-840.3333 137.7039,-847.1802"/>
</g>
<!-- Node29 -->
<g id="node25" class="node">
<title>Node29</title>
<g id="a_node25"><a xlink:href="../../d0/df9/spheric__function_8hpp.html" target="_top" xlink:title="Contains declaration and implementation of sirius::Spheric_function and sirius::Spheric_function_grad...">
<polygon fill="#ffffff" stroke="#000000" points="118.5,-784.5 118.5,-803.5 227.5,-803.5 227.5,-784.5 118.5,-784.5"/>
<text text-anchor="middle" x="173" y="-791.5" font-family="Helvetica,sans-Serif" font-size="10.00" fill="#000000">spheric_function.hpp</text>
</a>
</g>
</g>
<!-- Node28&#45;&gt;Node29 -->
<g id="edge39" class="edge">
<title>Node28&#45;&gt;Node29</title>
<path fill="none" stroke="#191970" d="M173,-830.1575C173,-821.155 173,-810.9199 173,-803.6427"/>
<polygon fill="#191970" stroke="#191970" points="169.5001,-830.2455 173,-840.2455 176.5001,-830.2456 169.5001,-830.2455"/>
</g>
<!-- Node29&#45;&gt;Node14 -->
<g id="edge41" class="edge">
<title>Node29&#45;&gt;Node14</title>
<path fill="none" stroke="#191970" d="M157.6501,-776.6687C140.7675,-755.7623 116,-718.8174 116,-682 116,-682 116,-682 116,-514 116,-476.0833 116,-430.9462 116,-411.5884"/>
<polygon fill="#191970" stroke="#191970" points="154.9869,-778.94 164.0938,-784.3544 160.3511,-774.4426 154.9869,-778.94"/>
</g>
<!-- Node29&#45;&gt;Node23 -->
<g id="edge40" class="edge">
<title>Node29&#45;&gt;Node23</title>
<path fill="none" stroke="#191970" d="M195.711,-778.49C210.1788,-768.6096 228.468,-756.1194 240.8804,-747.6427"/>
<polygon fill="#191970" stroke="#191970" points="193.5675,-775.7156 187.2833,-784.2455 197.5152,-781.4962 193.5675,-775.7156"/>
</g>
<!-- Node30&#45;&gt;Node10 -->
<g id="edge45" class="edge">
<title>Node30&#45;&gt;Node10</title>
<path fill="none" stroke="#191970" d="M520.4016,-886.88C529.2764,-864.9101 542,-827.5603 542,-794 542,-794 542,-794 542,-178 542,-118.8646 335.8669,-80.9945 264.2034,-69.6156"/>
<polygon fill="#191970" stroke="#191970" points="517.0714,-885.7706 516.4266,-896.3458 523.5255,-888.4809 517.0714,-885.7706"/>
</g>
<!-- Node30&#45;&gt;Node21 -->
<g id="edge44" class="edge">
<title>Node30&#45;&gt;Node21</title>
<path fill="none" stroke="#191970" d="M492.7245,-889.645C481.2462,-879.9058 467.0723,-867.8795 457.3646,-859.6427"/>
<polygon fill="#191970" stroke="#191970" points="490.6141,-892.4445 500.5037,-896.2455 495.143,-887.1069 490.6141,-892.4445"/>
</g>
<!-- Node31 -->
<g id="node27" class="node">
<title>Node31</title>
<g id="a_node27"><a xlink:href="../../d8/d64/free__atom_8hpp.html" target="_top" xlink:title="Free atom full&#45;potential solver. ">
<polygon fill="#ffffff" stroke="#000000" points="570.5,-840.5 570.5,-859.5 651.5,-859.5 651.5,-840.5 570.5,-840.5"/>
<text text-anchor="middle" x="611" y="-847.5" font-family="Helvetica,sans-Serif" font-size="10.00" fill="#000000">free_atom.hpp</text>
</a>
</g>
</g>
<!-- Node30&#45;&gt;Node31 -->
<g id="edge46" class="edge">
<title>Node30&#45;&gt;Node31</title>
<path fill="none" stroke="#191970" d="M538.4357,-891.0465C556.0508,-881.0824 578.6847,-868.2794 593.9531,-859.6427"/>
<polygon fill="#191970" stroke="#191970" points="536.2253,-888.2756 529.2445,-896.2455 539.6717,-894.3684 536.2253,-888.2756"/>
</g>
</g>
</svg>
