<?xml version="1.0" encoding="UTF-8" standalone="no"?>
<!DOCTYPE svg PUBLIC "-//W3C//DTD SVG 1.1//EN"
 "http://www.w3.org/Graphics/SVG/1.1/DTD/svg11.dtd">
<!-- Generated by graphviz version 2.40.1 (20161225.0304)
 -->
<!-- Title: force.hpp Pages: 1 -->
<svg width="1754pt" height="621pt"
 viewBox="0.00 0.00 1754.00 621.00" xmlns="http://www.w3.org/2000/svg" xmlns:xlink="http://www.w3.org/1999/xlink">
<g id="graph0" class="graph" transform="scale(1 1) rotate(0) translate(4 617)">
<title>force.hpp</title>
<polygon fill="#ffffff" stroke="transparent" points="-4,4 -4,-617 1750,-617 1750,4 -4,4"/>
<!-- Node0 -->
<g id="node1" class="node">
<title>Node0</title>
<polygon fill="#bfbfbf" stroke="#000000" points="1521,-593.5 1521,-612.5 1579,-612.5 1579,-593.5 1521,-593.5"/>
<text text-anchor="middle" x="1550" y="-600.5" font-family="Helvetica,sans-Serif" font-size="10.00" fill="#000000">force.hpp</text>
</g>
<!-- Node1 -->
<g id="node2" class="node">
<title>Node1</title>
<g id="a_node2"><a xlink:href="../../d3/d6a/periodic__function_8hpp.html" target="_top" xlink:title="Contains declaration and partial implementation of sirius::Periodic_function class. ">
<polygon fill="#ffffff" stroke="#000000" points="1322,-465 1322,-484 1434,-484 1434,-465 1322,-465"/>
<text text-anchor="middle" x="1378" y="-472" font-family="Helvetica,sans-Serif" font-size="10.00" fill="#000000">periodic_function.hpp</text>
</a>
</g>
</g>
<!-- Node0&#45;&gt;Node1 -->
<g id="edge1" class="edge">
<title>Node0&#45;&gt;Node1</title>
<path fill="none" stroke="#191970" d="M1520.7435,-597.8096C1481.2512,-590.2198 1413.8729,-575.0195 1397,-557 1381.1933,-540.1191 1377.6394,-512.8236 1377.2478,-494.2926"/>
<polygon fill="#191970" stroke="#191970" points="1380.7495,-494.0868 1377.3314,-484.0585 1373.7498,-494.0295 1380.7495,-494.0868"/>
</g>
<!-- Node129 -->
<g id="node37" class="node">
<title>Node129</title>
<g id="a_node37"><a xlink:href="../../d3/d1c/augmentation__operator_8hpp.html" target="_top" xlink:title="Contains implementation of sirius::Augmentation_operator class. ">
<polygon fill="#ffffff" stroke="#000000" points="1370.5,-336.5 1370.5,-366.5 1483.5,-366.5 1483.5,-336.5 1370.5,-336.5"/>
<text text-anchor="start" x="1378.5" y="-354.5" font-family="Helvetica,sans-Serif" font-size="10.00" fill="#000000">Density/augmentation</text>
<text text-anchor="middle" x="1427" y="-343.5" font-family="Helvetica,sans-Serif" font-size="10.00" fill="#000000">_operator.hpp</text>
</a>
</g>
</g>
<!-- Node0&#45;&gt;Node129 -->
<g id="edge69" class="edge">
<title>Node0&#45;&gt;Node129</title>
<path fill="none" stroke="#191970" d="M1548.2874,-593.2706C1545.4933,-578.4163 1539.314,-549.348 1530,-526 1507.0049,-468.3567 1466.7895,-407.2924 1444.0074,-374.8958"/>
<polygon fill="#191970" stroke="#191970" points="1446.7187,-372.6688 1438.0728,-366.5451 1441.0128,-376.7239 1446.7187,-372.6688"/>
</g>
<!-- Node131 -->
<g id="node46" class="node">
<title>Node131</title>
<g id="a_node46"><a xlink:href="../../d0/d85/beta__projectors_8hpp.html" target="_top" xlink:title="Contains declaration and implementation of sirius::Beta_projectors class. ">
<polygon fill="#ffffff" stroke="#000000" points="1578.5,-459.5 1578.5,-489.5 1687.5,-489.5 1687.5,-459.5 1578.5,-459.5"/>
<text text-anchor="start" x="1586.5" y="-477.5" font-family="Helvetica,sans-Serif" font-size="10.00" fill="#000000">Beta_projectors/beta</text>
<text text-anchor="middle" x="1633" y="-466.5" font-family="Helvetica,sans-Serif" font-size="10.00" fill="#000000">_projectors.hpp</text>
</a>
</g>
</g>
<!-- Node0&#45;&gt;Node131 -->
<g id="edge70" class="edge">
<title>Node0&#45;&gt;Node131</title>
<path fill="none" stroke="#191970" d="M1556.2385,-593.3416C1569.1656,-573.328 1599.2062,-526.8194 1617.6402,-498.2799"/>
<polygon fill="#191970" stroke="#191970" points="1620.6953,-500.0007 1623.1811,-489.7016 1614.8152,-496.2027 1620.6953,-500.0007"/>
</g>
<!-- Node133 -->
<g id="node49" class="node">
<title>Node133</title>
<g id="a_node49"><a xlink:href="../../d9/de8/beta__projectors__gradient_8hpp.html" target="_top" xlink:title="Contains declaration and implementation of sirius::Beta_projectors_gradient class. ">
<polygon fill="#ffffff" stroke="#000000" points="1616.5,-526.5 1616.5,-556.5 1743.5,-556.5 1743.5,-526.5 1616.5,-526.5"/>
<text text-anchor="start" x="1624.5" y="-544.5" font-family="Helvetica,sans-Serif" font-size="10.00" fill="#000000">Beta_projectors/beta</text>
<text text-anchor="middle" x="1680" y="-533.5" font-family="Helvetica,sans-Serif" font-size="10.00" fill="#000000">_projectors_gradient.hpp</text>
</a>
</g>
</g>
<!-- Node0&#45;&gt;Node133 -->
<g id="edge73" class="edge">
<title>Node0&#45;&gt;Node133</title>
<path fill="none" stroke="#191970" d="M1570.3125,-593.3906C1588.6395,-584.7205 1616.1529,-571.7046 1639.0387,-560.8779"/>
<polygon fill="#191970" stroke="#191970" points="1640.6557,-563.9849 1648.1984,-556.5446 1637.6622,-557.6572 1640.6557,-563.9849"/>
</g>
<!-- Node134 -->
<g id="node50" class="node">
<title>Node134</title>
<g id="a_node50"><a xlink:href="../../d5/d72/non__local__functor_8hpp.html" target="_top" xlink:title="Common operation for forces and stress tensor. ">
<polygon fill="#ffffff" stroke="#000000" points="1406.5,-532 1406.5,-551 1521.5,-551 1521.5,-532 1406.5,-532"/>
<text text-anchor="middle" x="1464" y="-539" font-family="Helvetica,sans-Serif" font-size="10.00" fill="#000000">non_local_functor.hpp</text>
</a>
</g>
</g>
<!-- Node0&#45;&gt;Node134 -->
<g id="edge76" class="edge">
<title>Node0&#45;&gt;Node134</title>
<path fill="none" stroke="#191970" d="M1536.5625,-593.3906C1522.9305,-583.6421 1501.6154,-568.3994 1485.6078,-556.9521"/>
<polygon fill="#191970" stroke="#191970" points="1487.5132,-554.0118 1477.3431,-551.0419 1483.4414,-559.7057 1487.5132,-554.0118"/>
</g>
<!-- Node2 -->
<g id="node3" class="node">
<title>Node2</title>
<g id="a_node3"><a xlink:href="../../d1/db8/simulation__context_8hpp.html" target="_top" xlink:title="Contains definition and implementation of Simulation_context class. ">
<polygon fill="#ffffff" stroke="#000000" points="1088.5,-403.5 1088.5,-422.5 1207.5,-422.5 1207.5,-403.5 1088.5,-403.5"/>
<text text-anchor="middle" x="1148" y="-410.5" font-family="Helvetica,sans-Serif" font-size="10.00" fill="#000000">simulation_context.hpp</text>
</a>
</g>
</g>
<!-- Node1&#45;&gt;Node2 -->
<g id="edge2" class="edge">
<title>Node1&#45;&gt;Node2</title>
<path fill="none" stroke="#191970" d="M1342.3149,-464.9581C1302.2807,-454.2533 1237.2429,-436.8628 1193.565,-425.1837"/>
<polygon fill="#191970" stroke="#191970" points="1194.3336,-421.7663 1183.7689,-422.5643 1192.5253,-428.5287 1194.3336,-421.7663"/>
</g>
<!-- Node116 -->
<g id="node38" class="node">
<title>Node116</title>
<g id="a_node38"><a xlink:href="../../d0/df9/spheric__function_8hpp.html" target="_top" xlink:title="Contains declaration and implementation of sirius::Spheric_function and sirius::Spheric_function_grad...">
<polygon fill="#ffffff" stroke="#000000" points="1457.5,-168.5 1457.5,-187.5 1566.5,-187.5 1566.5,-168.5 1457.5,-168.5"/>
<text text-anchor="middle" x="1512" y="-175.5" font-family="Helvetica,sans-Serif" font-size="10.00" fill="#000000">spheric_function.hpp</text>
</a>
</g>
</g>
<!-- Node1&#45;&gt;Node116 -->
<g id="edge57" class="edge">
<title>Node1&#45;&gt;Node116</title>
<path fill="none" stroke="#191970" d="M1402.8903,-464.9806C1441.6421,-448.3461 1512,-410.0783 1512,-351.5 1512,-351.5 1512,-351.5 1512,-290 1512,-257.7116 1512,-220.1872 1512,-197.8048"/>
<polygon fill="#191970" stroke="#191970" points="1515.5001,-197.5883 1512,-187.5884 1508.5001,-197.5884 1515.5001,-197.5883"/>
</g>
<!-- Node130 -->
<g id="node45" class="node">
<title>Node130</title>
<g id="a_node45"><a xlink:href="../../d6/ddf/smooth__periodic__function_8hpp.html" target="_top" xlink:title="Contains declaration and implementation of sirius::Smooth_periodic_function and sirius::Smooth_period...">
<polygon fill="#ffffff" stroke="#000000" points="1286,-403.5 1286,-422.5 1436,-422.5 1436,-403.5 1286,-403.5"/>
<text text-anchor="middle" x="1361" y="-410.5" font-family="Helvetica,sans-Serif" font-size="10.00" fill="#000000">smooth_periodic_function.hpp</text>
</a>
</g>
</g>
<!-- Node1&#45;&gt;Node130 -->
<g id="edge68" class="edge">
<title>Node1&#45;&gt;Node130</title>
<path fill="none" stroke="#191970" d="M1375.3438,-464.8906C1372.9625,-456.276 1369.3952,-443.3708 1366.414,-432.5858"/>
<polygon fill="#191970" stroke="#191970" points="1369.7316,-431.4509 1363.6937,-422.7449 1362.9846,-433.3159 1369.7316,-431.4509"/>
</g>
<!-- Node3 -->
<g id="node4" class="node">
<title>Node3</title>
<polygon fill="#ffffff" stroke="#bfbfbf" points="1280,-56.5 1280,-75.5 1338,-75.5 1338,-56.5 1280,-56.5"/>
<text text-anchor="middle" x="1309" y="-63.5" font-family="Helvetica,sans-Serif" font-size="10.00" fill="#000000">algorithm</text>
</g>
<!-- Node2&#45;&gt;Node3 -->
<g id="edge3" class="edge">
<title>Node2&#45;&gt;Node3</title>
<path fill="none" stroke="#191970" d="M1177.4229,-403.4363C1231.9805,-383.8299 1346.9251,-333.2405 1387,-244 1413.503,-184.9821 1356.5424,-114.5113 1326.2815,-82.8558"/>
<polygon fill="#191970" stroke="#191970" points="1328.734,-80.3579 1319.2304,-75.6747 1323.7392,-85.2623 1328.734,-80.3579"/>
</g>
<!-- Node4 -->
<g id="node5" class="node">
<title>Node4</title>
<polygon fill="#ffffff" stroke="#bfbfbf" points="1052,-342 1052,-361 1120,-361 1120,-342 1052,-342"/>
<text text-anchor="middle" x="1086" y="-349" font-family="Helvetica,sans-Serif" font-size="10.00" fill="#000000">version.hpp</text>
</g>
<!-- Node2&#45;&gt;Node4 -->
<g id="edge4" class="edge">
<title>Node2&#45;&gt;Node4</title>
<path fill="none" stroke="#191970" d="M1138.3125,-403.3906C1128.9041,-394.0581 1114.4193,-379.6902 1103.0751,-368.4374"/>
<polygon fill="#191970" stroke="#191970" points="1105.3886,-365.8024 1095.8241,-361.2449 1100.4589,-370.7722 1105.3886,-365.8024"/>
</g>
<!-- Node5 -->
<g id="node6" class="node">
<title>Node5</title>
<g id="a_node6"><a xlink:href="../../de/d06/simulation__parameters_8hpp.html" target="_top" xlink:title="Contains definition and implementation of sirius::Simulation_parameters_base class. ">
<polygon fill="#ffffff" stroke="#000000" points="1164.5,-168.5 1164.5,-187.5 1301.5,-187.5 1301.5,-168.5 1164.5,-168.5"/>
<text text-anchor="middle" x="1233" y="-175.5" font-family="Helvetica,sans-Serif" font-size="10.00" fill="#000000">simulation_parameters.hpp</text>
</a>
</g>
</g>
<!-- Node2&#45;&gt;Node5 -->
<g id="edge5" class="edge">
<title>Node2&#45;&gt;Node5</title>
<path fill="none" stroke="#191970" d="M1146.2877,-403.0948C1141.7015,-373.4871 1131.7543,-283.9965 1167,-224 1174.913,-210.5302 1188.5106,-200.0495 1201.3149,-192.5173"/>
<polygon fill="#191970" stroke="#191970" points="1203.3063,-195.4178 1210.4055,-187.5532 1199.9513,-189.2741 1203.3063,-195.4178"/>
</g>
<!-- Node66 -->
<g id="node11" class="node">
<title>Node66</title>
<g id="a_node11"><a xlink:href="../../d1/d76/mpi__grid_8hpp.html" target="_top" xlink:title="Contains declaration and implementation of sddk::MPI_grid class. ">
<polygon fill="#ffffff" stroke="#000000" points="838,-168.5 838,-187.5 912,-187.5 912,-168.5 838,-168.5"/>
<text text-anchor="middle" x="875" y="-175.5" font-family="Helvetica,sans-Serif" font-size="10.00" fill="#000000">mpi_grid.hpp</text>
</a>
</g>
</g>
<!-- Node2&#45;&gt;Node66 -->
<g id="edge10" class="edge">
<title>Node2&#45;&gt;Node66</title>
<path fill="none" stroke="#191970" d="M1101.2408,-403.4878C1074.9788,-396.5031 1042.636,-385.0224 1018,-367 953.3441,-319.7011 904.3218,-235.0283 884.5507,-197.1872"/>
<polygon fill="#191970" stroke="#191970" points="887.4319,-195.1342 879.7612,-187.8259 881.2001,-198.3226 887.4319,-195.1342"/>
</g>
<!-- Node55 -->
<g id="node15" class="node">
<title>Node55</title>
<g id="a_node15"><a xlink:href="../../d8/d7b/cuda_8hpp.html" target="_top" xlink:title="Interface to CUDA related functions. ">
<polygon fill="#ffffff" stroke="#000000" points="502,-56.5 502,-75.5 584,-75.5 584,-56.5 502,-56.5"/>
<text text-anchor="middle" x="543" y="-63.5" font-family="Helvetica,sans-Serif" font-size="10.00" fill="#000000">GPU/cuda.hpp</text>
</a>
</g>
</g>
<!-- Node2&#45;&gt;Node55 -->
<g id="edge56" class="edge">
<title>Node2&#45;&gt;Node55</title>
<path fill="none" stroke="#191970" d="M1088.2822,-406.7945C938.5413,-390.4327 559,-343.6678 559,-290 559,-290 559,-290 559,-178 559,-145.2342 552.2061,-107.6134 547.4725,-85.3778"/>
<polygon fill="#191970" stroke="#191970" points="550.8698,-84.5307 545.2924,-75.5228 544.0351,-86.0428 550.8698,-84.5307"/>
</g>
<!-- Node100 -->
<g id="node26" class="node">
<title>Node100</title>
<g id="a_node26"><a xlink:href="../../d4/df7/radial__integrals_8hpp.html" target="_top" xlink:title="Representation of various radial integrals. ">
<polygon fill="#ffffff" stroke="#000000" points="1211,-280.5 1211,-299.5 1315,-299.5 1315,-280.5 1211,-280.5"/>
<text text-anchor="middle" x="1263" y="-287.5" font-family="Helvetica,sans-Serif" font-size="10.00" fill="#000000">radial_integrals.hpp</text>
</a>
</g>
</g>
<!-- Node2&#45;&gt;Node100 -->
<g id="edge29" class="edge">
<title>Node2&#45;&gt;Node100</title>
<path fill="none" stroke="#191970" d="M1157.0239,-403.3484C1176.506,-382.511 1222.7162,-333.0862 1247.1783,-306.9224"/>
<polygon fill="#191970" stroke="#191970" points="1249.7451,-309.3018 1254.0181,-299.6068 1244.6319,-304.5211 1249.7451,-309.3018"/>
</g>
<!-- Node21 -->
<g id="node34" class="node">
<title>Node21</title>
<g id="a_node34"><a xlink:href="../../df/d93/utils_8hpp.html" target="_top" xlink:title="A collection of utility functions. ">
<polygon fill="#ffffff" stroke="#000000" points="930.5,-168.5 930.5,-187.5 1013.5,-187.5 1013.5,-168.5 930.5,-168.5"/>
<text text-anchor="middle" x="972" y="-175.5" font-family="Helvetica,sans-Serif" font-size="10.00" fill="#000000">../utils/utils.hpp</text>
</a>
</g>
</g>
<!-- Node2&#45;&gt;Node21 -->
<g id="edge43" class="edge">
<title>Node2&#45;&gt;Node21</title>
<path fill="none" stroke="#191970" d="M1107.3569,-403.4584C1085.7522,-396.537 1060.182,-385.1278 1043,-367 996.4553,-317.8931 979.735,-235.3846 974.3256,-197.7662"/>
<polygon fill="#191970" stroke="#191970" points="977.7651,-197.0768 972.9894,-187.6193 970.825,-197.9907 977.7651,-197.0768"/>
</g>
<!-- Node2&#45;&gt;Node129 -->
<g id="edge54" class="edge">
<title>Node2&#45;&gt;Node129</title>
<path fill="none" stroke="#191970" d="M1191.2876,-403.4581C1236.51,-393.4897 1308.0333,-377.7238 1360.4434,-366.1711"/>
<polygon fill="#191970" stroke="#191970" points="1361.3144,-369.5632 1370.3265,-363.9926 1359.8075,-362.7273 1361.3144,-369.5632"/>
</g>
<!-- Node6 -->
<g id="node7" class="node">
<title>Node6</title>
<g id="a_node7"><a xlink:href="../../de/df7/typedefs_8hpp.html" target="_top" xlink:title="Contains typedefs, enums and simple descriptors. ">
<polygon fill="#ffffff" stroke="#ff0000" points="1356,-56.5 1356,-75.5 1430,-75.5 1430,-56.5 1356,-56.5"/>
<text text-anchor="middle" x="1393" y="-63.5" font-family="Helvetica,sans-Serif" font-size="10.00" fill="#000000">typedefs.hpp</text>
</a>
</g>
</g>
<!-- Node5&#45;&gt;Node6 -->
<g id="edge6" class="edge">
<title>Node5&#45;&gt;Node6</title>
<path fill="none" stroke="#191970" d="M1230.0839,-168.3169C1226.5102,-154.3165 1222.3667,-128.3151 1235,-112 1241.998,-102.9624 1301.9918,-87.2478 1345.9877,-76.736"/>
<polygon fill="#191970" stroke="#191970" points="1347.0197,-80.0886 1355.945,-74.3799 1345.4078,-73.2767 1347.0197,-80.0886"/>
</g>
<!-- Node11 -->
<g id="node10" class="node">
<title>Node11</title>
<g id="a_node10"><a xlink:href="../../dd/d46/input_8hpp.html" target="_top" xlink:title="Contains input parameters structures. ">
<polygon fill="#ffffff" stroke="#ff0000" points="1244,-112.5 1244,-131.5 1302,-131.5 1302,-112.5 1244,-112.5"/>
<text text-anchor="middle" x="1273" y="-119.5" font-family="Helvetica,sans-Serif" font-size="10.00" fill="#000000">input.hpp</text>
</a>
</g>
</g>
<!-- Node5&#45;&gt;Node11 -->
<g id="edge9" class="edge">
<title>Node5&#45;&gt;Node11</title>
<path fill="none" stroke="#191970" d="M1239.9675,-168.2455C1245.5311,-160.4564 1253.478,-149.3308 1260.1829,-139.9439"/>
<polygon fill="#191970" stroke="#191970" points="1263.148,-141.8144 1266.1124,-131.6427 1257.4519,-137.7457 1263.148,-141.8144"/>
</g>
<!-- Node8 -->
<g id="node8" class="node">
<title>Node8</title>
<polygon fill="#ffffff" stroke="#bfbfbf" points="813,-.5 813,-19.5 865,-19.5 865,-.5 813,-.5"/>
<text text-anchor="middle" x="839" y="-7.5" font-family="Helvetica,sans-Serif" font-size="10.00" fill="#000000">assert.h</text>
</g>
<!-- Node6&#45;&gt;Node8 -->
<g id="edge7" class="edge">
<title>Node6&#45;&gt;Node8</title>
<path fill="none" stroke="#191970" d="M1355.9233,-57.4796C1352.9134,-56.9285 1349.9113,-56.4252 1347,-56 1141.6423,-26.0101 1083.3451,-56.1769 875.2624,-19.8919"/>
<polygon fill="#191970" stroke="#191970" points="875.697,-16.4145 865.2393,-18.1133 874.4739,-23.3068 875.697,-16.4145"/>
</g>
<!-- Node9 -->
<g id="node9" class="node">
<title>Node9</title>
<polygon fill="#ffffff" stroke="#bfbfbf" points="883,-.5 883,-19.5 937,-19.5 937,-.5 883,-.5"/>
<text text-anchor="middle" x="910" y="-7.5" font-family="Helvetica,sans-Serif" font-size="10.00" fill="#000000">complex</text>
</g>
<!-- Node6&#45;&gt;Node9 -->
<g id="edge8" class="edge">
<title>Node6&#45;&gt;Node9</title>
<path fill="none" stroke="#191970" d="M1355.909,-57.5728C1352.9023,-57.0007 1349.9048,-56.4672 1347,-56 1270.2023,-43.6483 1038.459,-21.7858 947.3566,-13.4025"/>
<polygon fill="#191970" stroke="#191970" points="947.4932,-9.9004 937.2151,-12.4716 946.8533,-16.8711 947.4932,-9.9004"/>
</g>
<!-- Node52 -->
<g id="node12" class="node">
<title>Node52</title>
<g id="a_node12"><a xlink:href="../../d4/d32/communicator_8hpp.html" target="_top" xlink:title="Contains declaration and implementation of sddk::Communicator class. ">
<polygon fill="#ffffff" stroke="#ff0000" points="640.5,-112.5 640.5,-131.5 739.5,-131.5 739.5,-112.5 640.5,-112.5"/>
<text text-anchor="middle" x="690" y="-119.5" font-family="Helvetica,sans-Serif" font-size="10.00" fill="#000000">communicator.hpp</text>
</a>
</g>
</g>
<!-- Node66&#45;&gt;Node52 -->
<g id="edge11" class="edge">
<title>Node66&#45;&gt;Node52</title>
<path fill="none" stroke="#191970" d="M843.1974,-168.3733C812.1683,-158.9807 764.8246,-144.6496 730.9853,-134.4064"/>
<polygon fill="#191970" stroke="#191970" points="731.9728,-131.0485 721.3876,-131.5011 729.9447,-137.7483 731.9728,-131.0485"/>
</g>
<!-- Node52&#45;&gt;Node9 -->
<g id="edge14" class="edge">
<title>Node52&#45;&gt;Node9</title>
<path fill="none" stroke="#191970" d="M690.9998,-112.3053C693.0299,-97.8028 698.9988,-70.6064 716,-56 768.2819,-11.0827 801.2509,-35.3266 873.0048,-19.9872"/>
<polygon fill="#191970" stroke="#191970" points="873.9687,-23.3563 882.9094,-17.6718 872.3752,-16.54 873.9687,-23.3563"/>
</g>
<!-- Node22 -->
<g id="node13" class="node">
<title>Node22</title>
<polygon fill="#ffffff" stroke="#bfbfbf" points="796.5,-56.5 796.5,-75.5 845.5,-75.5 845.5,-56.5 796.5,-56.5"/>
<text text-anchor="middle" x="821" y="-63.5" font-family="Helvetica,sans-Serif" font-size="10.00" fill="#000000">cassert</text>
</g>
<!-- Node52&#45;&gt;Node22 -->
<g id="edge12" class="edge">
<title>Node52&#45;&gt;Node22</title>
<path fill="none" stroke="#191970" d="M712.5197,-112.3733C733.7372,-103.3032 765.7276,-89.6279 789.4769,-79.4755"/>
<polygon fill="#191970" stroke="#191970" points="790.9548,-82.6502 798.7742,-75.5011 788.2033,-76.2136 790.9548,-82.6502"/>
</g>
<!-- Node19 -->
<g id="node14" class="node">
<title>Node19</title>
<polygon fill="#ffffff" stroke="#bfbfbf" points="1046,-.5 1046,-19.5 1090,-19.5 1090,-.5 1046,-.5"/>
<text text-anchor="middle" x="1068" y="-7.5" font-family="Helvetica,sans-Serif" font-size="10.00" fill="#000000">vector</text>
</g>
<!-- Node52&#45;&gt;Node19 -->
<g id="edge13" class="edge">
<title>Node52&#45;&gt;Node19</title>
<path fill="none" stroke="#191970" d="M700.7193,-112.3321C717.6899,-97.6085 752.3822,-69.8212 787,-56 831.81,-38.1096 971.6692,-20.7564 1035.5677,-13.5235"/>
<polygon fill="#191970" stroke="#191970" points="1036.313,-16.9621 1045.8617,-12.3717 1035.5345,-10.0055 1036.313,-16.9621"/>
</g>
<!-- Node52&#45;&gt;Node55 -->
<g id="edge15" class="edge">
<title>Node52&#45;&gt;Node55</title>
<path fill="none" stroke="#191970" d="M664.7298,-112.3733C640.6034,-103.1822 604.0638,-89.2624 577.3123,-79.0713"/>
<polygon fill="#191970" stroke="#191970" points="578.5313,-75.7904 567.9404,-75.5011 576.0393,-82.3318 578.5313,-75.7904"/>
</g>
<!-- Node55&#45;&gt;Node8 -->
<g id="edge23" class="edge">
<title>Node55&#45;&gt;Node8</title>
<path fill="none" stroke="#191970" d="M584.403,-60.0621C634.1325,-52.6308 720.2298,-38.815 802.9015,-20.0788"/>
<polygon fill="#191970" stroke="#191970" points="803.7386,-23.4778 812.7028,-17.8302 802.1734,-16.655 803.7386,-23.4778"/>
</g>
<!-- Node55&#45;&gt;Node9 -->
<g id="edge25" class="edge">
<title>Node55&#45;&gt;Node9</title>
<path fill="none" stroke="#191970" d="M584.0655,-62.0669C645.0872,-55.8359 763.414,-42.2707 873.0648,-19.9674"/>
<polygon fill="#191970" stroke="#191970" points="873.8811,-23.3728 882.9674,-17.924 872.4664,-16.5172 873.8811,-23.3728"/>
</g>
<!-- Node55&#45;&gt;Node19 -->
<g id="edge26" class="edge">
<title>Node55&#45;&gt;Node19</title>
<path fill="none" stroke="#191970" d="M584.1959,-61.6058C685.4583,-50.8044 944.8926,-23.1315 1035.8806,-13.4261"/>
<polygon fill="#191970" stroke="#191970" points="1036.3035,-16.9009 1045.8759,-12.3599 1035.561,-9.9404 1036.3035,-16.9009"/>
</g>
<!-- Node56 -->
<g id="node16" class="node">
<title>Node56</title>
<polygon fill="#ffffff" stroke="#bfbfbf" points="98.5,-.5 98.5,-19.5 183.5,-19.5 183.5,-.5 98.5,-.5"/>
<text text-anchor="middle" x="141" y="-7.5" font-family="Helvetica,sans-Serif" font-size="10.00" fill="#000000">cuda_runtime.h</text>
</g>
<!-- Node55&#45;&gt;Node56 -->
<g id="edge16" class="edge">
<title>Node55&#45;&gt;Node56</title>
<path fill="none" stroke="#191970" d="M501.8078,-61.4582C437.9008,-54.2247 310.7999,-39.0929 193.4156,-20.1563"/>
<polygon fill="#191970" stroke="#191970" points="193.9726,-16.701 183.5404,-18.5503 192.8489,-23.6102 193.9726,-16.701"/>
</g>
<!-- Node57 -->
<g id="node17" class="node">
<title>Node57</title>
<polygon fill="#ffffff" stroke="#bfbfbf" points="201.5,-.5 201.5,-19.5 248.5,-19.5 248.5,-.5 201.5,-.5"/>
<text text-anchor="middle" x="225" y="-7.5" font-family="Helvetica,sans-Serif" font-size="10.00" fill="#000000">cuda.h</text>
</g>
<!-- Node55&#45;&gt;Node57 -->
<g id="edge17" class="edge">
<title>Node55&#45;&gt;Node57</title>
<path fill="none" stroke="#191970" d="M501.6026,-61.0906C447.7464,-54.3153 350.6287,-40.7738 258.4556,-19.8443"/>
<polygon fill="#191970" stroke="#191970" points="259.221,-16.429 248.6905,-17.5944 257.6494,-23.2503 259.221,-16.429"/>
</g>
<!-- Node58 -->
<g id="node18" class="node">
<title>Node58</title>
<polygon fill="#ffffff" stroke="#bfbfbf" points="267,-.5 267,-19.5 337,-19.5 337,-.5 267,-.5"/>
<text text-anchor="middle" x="302" y="-7.5" font-family="Helvetica,sans-Serif" font-size="10.00" fill="#000000">cublas_v2.h</text>
</g>
<!-- Node55&#45;&gt;Node58 -->
<g id="edge18" class="edge">
<title>Node55&#45;&gt;Node58</title>
<path fill="none" stroke="#191970" d="M501.8445,-56.4369C458.815,-46.4383 391.4862,-30.7935 347.0544,-20.4691"/>
<polygon fill="#191970" stroke="#191970" points="347.6431,-17.0127 337.1104,-18.1584 346.0587,-23.831 347.6431,-17.0127"/>
</g>
<!-- Node59 -->
<g id="node19" class="node">
<title>Node59</title>
<polygon fill="#ffffff" stroke="#bfbfbf" points="355.5,-.5 355.5,-19.5 418.5,-19.5 418.5,-.5 355.5,-.5"/>
<text text-anchor="middle" x="387" y="-7.5" font-family="Helvetica,sans-Serif" font-size="10.00" fill="#000000">cublasXt.h</text>
</g>
<!-- Node55&#45;&gt;Node59 -->
<g id="edge19" class="edge">
<title>Node55&#45;&gt;Node59</title>
<path fill="none" stroke="#191970" d="M516.1826,-56.3733C490.4668,-47.1419 451.462,-33.1402 423.0401,-22.9375"/>
<polygon fill="#191970" stroke="#191970" points="424.0619,-19.5857 413.4674,-19.5011 421.6968,-26.174 424.0619,-19.5857"/>
</g>
<!-- Node60 -->
<g id="node20" class="node">
<title>Node60</title>
<polygon fill="#ffffff" stroke="#bfbfbf" points="437,-.5 437,-19.5 499,-19.5 499,-.5 437,-.5"/>
<text text-anchor="middle" x="468" y="-7.5" font-family="Helvetica,sans-Serif" font-size="10.00" fill="#000000">execinfo.h</text>
</g>
<!-- Node55&#45;&gt;Node60 -->
<g id="edge20" class="edge">
<title>Node55&#45;&gt;Node60</title>
<path fill="none" stroke="#191970" d="M529.936,-56.2455C518.6438,-47.814 502.1155,-35.4729 488.9729,-25.6598"/>
<polygon fill="#191970" stroke="#191970" points="491.0211,-22.8211 480.9143,-19.6427 486.8331,-28.4301 491.0211,-22.8211"/>
</g>
<!-- Node26 -->
<g id="node21" class="node">
<title>Node26</title>
<polygon fill="#ffffff" stroke="#bfbfbf" points="743,-.5 743,-19.5 795,-19.5 795,-.5 743,-.5"/>
<text text-anchor="middle" x="769" y="-7.5" font-family="Helvetica,sans-Serif" font-size="10.00" fill="#000000">unistd.h</text>
</g>
<!-- Node55&#45;&gt;Node26 -->
<g id="edge21" class="edge">
<title>Node55&#45;&gt;Node26</title>
<path fill="none" stroke="#191970" d="M584.109,-56.625C620.7542,-48.1506 676.0798,-35.0698 732.8039,-20.244"/>
<polygon fill="#191970" stroke="#191970" points="733.8774,-23.5808 742.6593,-17.654 732.0981,-16.8107 733.8774,-23.5808"/>
</g>
<!-- Node61 -->
<g id="node22" class="node">
<title>Node61</title>
<polygon fill="#ffffff" stroke="#bfbfbf" points="517.5,-.5 517.5,-19.5 568.5,-19.5 568.5,-.5 517.5,-.5"/>
<text text-anchor="middle" x="543" y="-7.5" font-family="Helvetica,sans-Serif" font-size="10.00" fill="#000000">signal.h</text>
</g>
<!-- Node55&#45;&gt;Node61 -->
<g id="edge22" class="edge">
<title>Node55&#45;&gt;Node61</title>
<path fill="none" stroke="#191970" d="M543,-56.2455C543,-48.9382 543,-38.6944 543,-29.7046"/>
<polygon fill="#191970" stroke="#191970" points="546.5001,-29.6426 543,-19.6427 539.5001,-29.6427 546.5001,-29.6426"/>
</g>
<!-- Node62 -->
<g id="node23" class="node">
<title>Node62</title>
<polygon fill="#ffffff" stroke="#bfbfbf" points="587,-.5 587,-19.5 661,-19.5 661,-.5 587,-.5"/>
<text text-anchor="middle" x="624" y="-7.5" font-family="Helvetica,sans-Serif" font-size="10.00" fill="#000000">nvToolsExt.h</text>
</g>
<!-- Node55&#45;&gt;Node62 -->
<g id="edge24" class="edge">
<title>Node55&#45;&gt;Node62</title>
<path fill="none" stroke="#191970" d="M557.1091,-56.2455C569.4209,-47.7337 587.4958,-35.2375 601.7538,-25.3801"/>
<polygon fill="#191970" stroke="#191970" points="603.8174,-28.2085 610.0526,-19.6427 599.8366,-22.4506 603.8174,-28.2085"/>
</g>
<!-- Node63 -->
<g id="node24" class="node">
<title>Node63</title>
<polygon fill="#ffffff" stroke="#bfbfbf" points="679,-.5 679,-19.5 725,-19.5 725,-.5 679,-.5"/>
<text text-anchor="middle" x="702" y="-7.5" font-family="Helvetica,sans-Serif" font-size="10.00" fill="#000000">stdio.h</text>
</g>
<!-- Node55&#45;&gt;Node63 -->
<g id="edge27" class="edge">
<title>Node55&#45;&gt;Node63</title>
<path fill="none" stroke="#191970" d="M570.3331,-56.3733C597.6554,-46.7503 639.6959,-31.9436 668.8936,-21.6601"/>
<polygon fill="#191970" stroke="#191970" points="670.3711,-24.8506 678.6404,-18.2273 668.0456,-18.2481 670.3711,-24.8506"/>
</g>
<!-- Node64 -->
<g id="node25" class="node">
<title>Node64</title>
<g id="a_node25"><a xlink:href="../../d6/d97/stream__id_8hpp_source.html" target="_top" xlink:title="stream_id.hpp">
<polygon fill="#ffffff" stroke="#000000" points="0,-.5 0,-19.5 80,-19.5 80,-.5 0,-.5"/>
<text text-anchor="middle" x="40" y="-7.5" font-family="Helvetica,sans-Serif" font-size="10.00" fill="#000000">stream_id.hpp</text>
</a>
</g>
</g>
<!-- Node55&#45;&gt;Node64 -->
<g id="edge28" class="edge">
<title>Node55&#45;&gt;Node64</title>
<path fill="none" stroke="#191970" d="M501.821,-63.2187C423.5483,-57.6311 247.7569,-43.6418 89.9407,-20.0118"/>
<polygon fill="#191970" stroke="#191970" points="90.464,-16.5512 80.0528,-18.5149 89.4162,-23.4724 90.464,-16.5512"/>
</g>
<!-- Node101 -->
<g id="node27" class="node">
<title>Node101</title>
<g id="a_node27"><a xlink:href="../../d4/d91/unit__cell_8hpp.html" target="_top" xlink:title="Contains definition and partial implementation of sirius::Unit_cell class. ">
<polygon fill="#ffffff" stroke="#ff0000" points="1176,-224.5 1176,-243.5 1290,-243.5 1290,-224.5 1176,-224.5"/>
<text text-anchor="middle" x="1233" y="-231.5" font-family="Helvetica,sans-Serif" font-size="10.00" fill="#000000">Unit_cell/unit_cell.hpp</text>
</a>
</g>
</g>
<!-- Node100&#45;&gt;Node101 -->
<g id="edge30" class="edge">
<title>Node100&#45;&gt;Node101</title>
<path fill="none" stroke="#191970" d="M1257.7744,-280.2455C1253.6877,-272.617 1247.8865,-261.7881 1242.925,-252.5267"/>
<polygon fill="#191970" stroke="#191970" points="1245.9732,-250.8047 1238.1657,-243.6427 1239.8028,-254.1103 1245.9732,-250.8047"/>
</g>
<!-- Node127 -->
<g id="node33" class="node">
<title>Node127</title>
<g id="a_node33"><a xlink:href="../../d1/d2b/sbessel_8hpp.html" target="_top" xlink:title="Contains implementation of sirius::Spherical_Bessel_functions classe. ">
<polygon fill="#ffffff" stroke="#ff0000" points="1308,-224.5 1308,-243.5 1378,-243.5 1378,-224.5 1308,-224.5"/>
<text text-anchor="middle" x="1343" y="-231.5" font-family="Helvetica,sans-Serif" font-size="10.00" fill="#000000">sbessel.hpp</text>
</a>
</g>
</g>
<!-- Node100&#45;&gt;Node127 -->
<g id="edge42" class="edge">
<title>Node100&#45;&gt;Node127</title>
<path fill="none" stroke="#191970" d="M1276.9349,-280.2455C1289.0947,-271.7337 1306.9464,-259.2375 1321.0285,-249.3801"/>
<polygon fill="#191970" stroke="#191970" points="1323.0395,-252.2447 1329.2248,-243.6427 1319.0253,-246.51 1323.0395,-252.2447"/>
</g>
<!-- Node101&#45;&gt;Node3 -->
<g id="edge31" class="edge">
<title>Node101&#45;&gt;Node3</title>
<path fill="none" stroke="#191970" d="M1262.8328,-224.4335C1279.8512,-217.2828 1299.7744,-205.6511 1310,-188 1328.4979,-156.0694 1321.3555,-111.0962 1314.9043,-85.6208"/>
<polygon fill="#191970" stroke="#191970" points="1318.2009,-84.409 1312.171,-75.6975 1311.4522,-86.2679 1318.2009,-84.409"/>
</g>
<!-- Node101&#45;&gt;Node5 -->
<g id="edge33" class="edge">
<title>Node101&#45;&gt;Node5</title>
<path fill="none" stroke="#191970" d="M1233,-224.2455C1233,-216.9382 1233,-206.6944 1233,-197.7046"/>
<polygon fill="#191970" stroke="#191970" points="1236.5001,-197.6426 1233,-187.6427 1229.5001,-197.6427 1236.5001,-197.6426"/>
</g>
<!-- Node101&#45;&gt;Node66 -->
<g id="edge32" class="edge">
<title>Node101&#45;&gt;Node66</title>
<path fill="none" stroke="#191970" d="M1175.8773,-226.7586C1115.3116,-218.8155 1016.6402,-205.1208 922.1303,-188.1121"/>
<polygon fill="#191970" stroke="#191970" points="922.5782,-184.6362 912.1139,-186.2939 921.328,-191.5237 922.5782,-184.6362"/>
</g>
<!-- Node27 -->
<g id="node28" class="node">
<title>Node27</title>
<g id="a_node28"><a xlink:href="../../d5/db8/json_8hpp.html" target="_top" xlink:title="N.Lohmann&#39;s JSON parser. ">
<polygon fill="#ffffff" stroke="#ff0000" points="1134,-112.5 1134,-131.5 1188,-131.5 1188,-112.5 1134,-112.5"/>
<text text-anchor="middle" x="1161" y="-119.5" font-family="Helvetica,sans-Serif" font-size="10.00" fill="#000000">json.hpp</text>
</a>
</g>
</g>
<!-- Node101&#45;&gt;Node27 -->
<g id="edge34" class="edge">
<title>Node101&#45;&gt;Node27</title>
<path fill="none" stroke="#191970" d="M1202.2809,-224.4362C1185.0926,-217.3313 1165.1368,-205.7464 1155,-188 1146.9054,-173.8289 1149.6229,-155.0995 1153.6561,-141.2136"/>
<polygon fill="#191970" stroke="#191970" points="1156.987,-142.2886 1156.8394,-131.6948 1150.3484,-140.0685 1156.987,-142.2886"/>
</g>
<!-- Node27&#45;&gt;Node3 -->
<g id="edge35" class="edge">
<title>Node27&#45;&gt;Node3</title>
<path fill="none" stroke="#191970" d="M1186.4421,-112.3733C1210.7326,-103.1822 1247.5208,-89.2624 1274.4543,-79.0713"/>
<polygon fill="#191970" stroke="#191970" points="1275.7757,-82.3136 1283.8899,-75.5011 1273.2984,-75.7666 1275.7757,-82.3136"/>
</g>
<!-- Node27&#45;&gt;Node22 -->
<g id="edge36" class="edge">
<title>Node27&#45;&gt;Node22</title>
<path fill="none" stroke="#191970" d="M1133.7511,-117.5119C1072.4244,-107.4111 923.6281,-82.9035 855.7696,-71.7268"/>
<polygon fill="#191970" stroke="#191970" points="856.0353,-68.2234 845.5994,-70.0517 854.8977,-75.1304 856.0353,-68.2234"/>
</g>
<!-- Node27&#45;&gt;Node19 -->
<g id="edge38" class="edge">
<title>Node27&#45;&gt;Node19</title>
<path fill="none" stroke="#191970" d="M1161.6777,-112.0611C1162.1114,-98.211 1160.9957,-72.9069 1149,-56 1137.1094,-39.2413 1117.0679,-27.7864 1099.8959,-20.4989"/>
<polygon fill="#191970" stroke="#191970" points="1100.7872,-17.0883 1090.2002,-16.681 1098.2225,-23.6016 1100.7872,-17.0883"/>
</g>
<!-- Node15 -->
<g id="node29" class="node">
<title>Node15</title>
<polygon fill="#ffffff" stroke="#bfbfbf" points="895.5,-56.5 895.5,-75.5 936.5,-75.5 936.5,-56.5 895.5,-56.5"/>
<text text-anchor="middle" x="916" y="-63.5" font-family="Helvetica,sans-Serif" font-size="10.00" fill="#000000">string</text>
</g>
<!-- Node27&#45;&gt;Node15 -->
<g id="edge37" class="edge">
<title>Node27&#45;&gt;Node15</title>
<path fill="none" stroke="#191970" d="M1133.8446,-115.7931C1087.7646,-105.2605 994.5794,-83.961 946.3917,-72.9467"/>
<polygon fill="#191970" stroke="#191970" points="947.076,-69.5129 936.5475,-70.6966 945.5162,-76.3369 947.076,-69.5129"/>
</g>
<!-- Node40 -->
<g id="node30" class="node">
<title>Node40</title>
<polygon fill="#ffffff" stroke="#bfbfbf" points="1205.5,-56.5 1205.5,-75.5 1244.5,-75.5 1244.5,-56.5 1205.5,-56.5"/>
<text text-anchor="middle" x="1225" y="-63.5" font-family="Helvetica,sans-Serif" font-size="10.00" fill="#000000">array</text>
</g>
<!-- Node27&#45;&gt;Node40 -->
<g id="edge39" class="edge">
<title>Node27&#45;&gt;Node40</title>
<path fill="none" stroke="#191970" d="M1172.1479,-112.2455C1181.5087,-104.0549 1195.0858,-92.1749 1206.1349,-82.5069"/>
<polygon fill="#191970" stroke="#191970" points="1208.7588,-84.8618 1213.9798,-75.6427 1204.1492,-79.5937 1208.7588,-84.8618"/>
</g>
<!-- Node16 -->
<g id="node31" class="node">
<title>Node16</title>
<polygon fill="#ffffff" stroke="#bfbfbf" points="971,-56.5 971,-75.5 1023,-75.5 1023,-56.5 971,-56.5"/>
<text text-anchor="middle" x="997" y="-63.5" font-family="Helvetica,sans-Serif" font-size="10.00" fill="#000000">sstream</text>
</g>
<!-- Node27&#45;&gt;Node16 -->
<g id="edge40" class="edge">
<title>Node27&#45;&gt;Node16</title>
<path fill="none" stroke="#191970" d="M1133.9187,-112.7527C1106.2914,-103.319 1063.271,-88.6291 1032.8358,-78.2366"/>
<polygon fill="#191970" stroke="#191970" points="1033.6318,-74.81 1023.0372,-74.8908 1031.3697,-81.4345 1033.6318,-74.81"/>
</g>
<!-- Node23 -->
<g id="node32" class="node">
<title>Node23</title>
<polygon fill="#ffffff" stroke="#bfbfbf" points="1096,-56.5 1096,-75.5 1140,-75.5 1140,-56.5 1096,-56.5"/>
<text text-anchor="middle" x="1118" y="-63.5" font-family="Helvetica,sans-Serif" font-size="10.00" fill="#000000">cmath</text>
</g>
<!-- Node27&#45;&gt;Node23 -->
<g id="edge41" class="edge">
<title>Node27&#45;&gt;Node23</title>
<path fill="none" stroke="#191970" d="M1153.51,-112.2455C1147.4674,-104.3761 1138.8097,-93.101 1131.5559,-83.6542"/>
<polygon fill="#191970" stroke="#191970" points="1134.2705,-81.4426 1125.4042,-75.6427 1128.7185,-85.7058 1134.2705,-81.4426"/>
</g>
<!-- Node21&#45;&gt;Node9 -->
<g id="edge52" class="edge">
<title>Node21&#45;&gt;Node9</title>
<path fill="none" stroke="#191970" d="M930.2911,-169.5051C884.5656,-157.6007 814.0935,-130.9313 787,-76 783.068,-68.028 781.9337,-63.3037 787,-56 792.189,-48.5193 838.7889,-32.4652 873.1025,-21.4488"/>
<polygon fill="#191970" stroke="#191970" points="874.3849,-24.7138 882.8532,-18.3468 872.2627,-18.0432 874.3849,-24.7138"/>
</g>
<!-- Node21&#45;&gt;Node22 -->
<g id="edge44" class="edge">
<title>Node21&#45;&gt;Node22</title>
<path fill="none" stroke="#191970" d="M950.3693,-168.442C932.549,-160.0761 907.0426,-146.945 887,-132 867.6704,-117.5866 848.5137,-97.6311 835.8592,-83.4455"/>
<polygon fill="#191970" stroke="#191970" points="838.4273,-81.0655 829.2076,-75.8455 833.1598,-85.6756 838.4273,-81.0655"/>
</g>
<!-- Node21&#45;&gt;Node19 -->
<g id="edge47" class="edge">
<title>Node21&#45;&gt;Node19</title>
<path fill="none" stroke="#191970" d="M999.8452,-168.4025C1016.782,-161.0917 1037.332,-149.2992 1049,-132 1069.9871,-100.8841 1071.154,-55.2621 1069.7952,-29.5322"/>
<polygon fill="#191970" stroke="#191970" points="1073.2843,-29.2536 1069.082,-19.5277 1066.302,-29.7513 1073.2843,-29.2536"/>
</g>
<!-- Node21&#45;&gt;Node26 -->
<g id="edge51" class="edge">
<title>Node21&#45;&gt;Node26</title>
<path fill="none" stroke="#191970" d="M930.294,-169.5751C927.1535,-169.0165 924.0293,-168.4844 921,-168 856.8756,-157.7461 673.9975,-180.6652 631,-132 591.9315,-87.7817 680.8725,-43.9262 733.5898,-22.882"/>
<polygon fill="#191970" stroke="#191970" points="734.9276,-26.1171 742.9727,-19.2231 732.3844,-19.5954 734.9276,-26.1171"/>
</g>
<!-- Node21&#45;&gt;Node27 -->
<g id="edge53" class="edge">
<title>Node21&#45;&gt;Node27</title>
<path fill="none" stroke="#191970" d="M1004.4903,-168.3733C1037.7272,-158.5253 1089.287,-143.2483 1124.0563,-132.9463"/>
<polygon fill="#191970" stroke="#191970" points="1125.2345,-136.2477 1133.8282,-130.0509 1123.2459,-129.5361 1125.2345,-136.2477"/>
</g>
<!-- Node21&#45;&gt;Node15 -->
<g id="edge46" class="edge">
<title>Node21&#45;&gt;Node15</title>
<path fill="none" stroke="#191970" d="M941.2809,-168.4362C924.0926,-161.3313 904.1368,-149.7464 894,-132 885.4334,-117.0025 893.3019,-98.1662 901.9174,-84.4594"/>
<polygon fill="#191970" stroke="#191970" points="905.0221,-86.1217 907.8085,-75.8999 899.2559,-82.1531 905.0221,-86.1217"/>
</g>
<!-- Node21&#45;&gt;Node16 -->
<g id="edge49" class="edge">
<title>Node21&#45;&gt;Node16</title>
<path fill="none" stroke="#191970" d="M947.2582,-168.4465C921.2194,-156.8724 885.9341,-135.9252 901,-112 914.0923,-91.2088 939.4768,-79.6063 960.8555,-73.256"/>
<polygon fill="#191970" stroke="#191970" points="961.9013,-76.5992 970.6467,-70.6184 960.0805,-69.8401 961.9013,-76.5992"/>
</g>
<!-- Node21&#45;&gt;Node23 -->
<g id="edge45" class="edge">
<title>Node21&#45;&gt;Node23</title>
<path fill="none" stroke="#191970" d="M1011.7137,-168.4723C1034.3926,-161.4227 1062.169,-149.8821 1082,-132 1096.04,-119.3398 1105.717,-99.8775 1111.4735,-85.3632"/>
<polygon fill="#191970" stroke="#191970" points="1114.8101,-86.4305 1114.9786,-75.837 1108.2407,-84.0133 1114.8101,-86.4305"/>
</g>
<!-- Node24 -->
<g id="node35" class="node">
<title>Node24</title>
<polygon fill="#ffffff" stroke="#bfbfbf" points="910,-112.5 910,-131.5 960,-131.5 960,-112.5 910,-112.5"/>
<text text-anchor="middle" x="935" y="-119.5" font-family="Helvetica,sans-Serif" font-size="10.00" fill="#000000">fstream</text>
</g>
<!-- Node21&#45;&gt;Node24 -->
<g id="edge48" class="edge">
<title>Node21&#45;&gt;Node24</title>
<path fill="none" stroke="#191970" d="M965.5551,-168.2455C960.4618,-160.5367 953.2092,-149.5598 947.048,-140.2348"/>
<polygon fill="#191970" stroke="#191970" points="949.8038,-138.0566 941.3711,-131.6427 943.9635,-141.9155 949.8038,-138.0566"/>
</g>
<!-- Node25 -->
<g id="node36" class="node">
<title>Node25</title>
<polygon fill="#ffffff" stroke="#bfbfbf" points="978,-112.5 978,-131.5 1040,-131.5 1040,-112.5 978,-112.5"/>
<text text-anchor="middle" x="1009" y="-119.5" font-family="Helvetica,sans-Serif" font-size="10.00" fill="#000000">sys/time.h</text>
</g>
<!-- Node21&#45;&gt;Node25 -->
<g id="edge50" class="edge">
<title>Node21&#45;&gt;Node25</title>
<path fill="none" stroke="#191970" d="M978.4449,-168.2455C983.5382,-160.5367 990.7908,-149.5598 996.952,-140.2348"/>
<polygon fill="#191970" stroke="#191970" points="1000.0365,-141.9155 1002.6289,-131.6427 994.1962,-138.0566 1000.0365,-141.9155"/>
</g>
<!-- Node129&#45;&gt;Node100 -->
<g id="edge55" class="edge">
<title>Node129&#45;&gt;Node100</title>
<path fill="none" stroke="#191970" d="M1386.8811,-336.4554C1359.6373,-326.239 1323.9623,-312.8609 1297.8962,-303.0861"/>
<polygon fill="#191970" stroke="#191970" points="1299.0064,-299.7645 1288.4142,-299.5303 1296.5485,-306.3188 1299.0064,-299.7645"/>
</g>
<!-- Node116&#45;&gt;Node40 -->
<g id="edge58" class="edge">
<title>Node116&#45;&gt;Node40</title>
<path fill="none" stroke="#191970" d="M1487.5305,-168.4509C1434.8448,-147.8907 1310.8651,-99.5083 1254.1912,-77.3917"/>
<polygon fill="#191970" stroke="#191970" points="1255.329,-74.0787 1244.7408,-73.7037 1252.7842,-80.5997 1255.329,-74.0787"/>
</g>
<!-- Node117 -->
<g id="node39" class="node">
<title>Node117</title>
<polygon fill="#ffffff" stroke="#bfbfbf" points="1434,-112.5 1434,-131.5 1486,-131.5 1486,-112.5 1434,-112.5"/>
<text text-anchor="middle" x="1460" y="-119.5" font-family="Helvetica,sans-Serif" font-size="10.00" fill="#000000">typeinfo</text>
</g>
<!-- Node116&#45;&gt;Node117 -->
<g id="edge59" class="edge">
<title>Node116&#45;&gt;Node117</title>
<path fill="none" stroke="#191970" d="M1502.9423,-168.2455C1495.4858,-160.2155 1484.7366,-148.6394 1475.8583,-139.0781"/>
<polygon fill="#191970" stroke="#191970" points="1478.3232,-136.589 1468.9539,-131.6427 1473.1937,-141.3522 1478.3232,-136.589"/>
</g>
<!-- Node108 -->
<g id="node40" class="node">
<title>Node108</title>
<g id="a_node40"><a xlink:href="../../d9/d05/spline_8hpp.html" target="_top" xlink:title="Contains definition and partial implementaiton of sirius::Spline class. ">
<polygon fill="#ffffff" stroke="#000000" points="1504,-112.5 1504,-131.5 1566,-131.5 1566,-112.5 1504,-112.5"/>
<text text-anchor="middle" x="1535" y="-119.5" font-family="Helvetica,sans-Serif" font-size="10.00" fill="#000000">spline.hpp</text>
</a>
</g>
</g>
<!-- Node116&#45;&gt;Node108 -->
<g id="edge60" class="edge">
<title>Node116&#45;&gt;Node108</title>
<path fill="none" stroke="#191970" d="M1516.0063,-168.2455C1519.0735,-160.7776 1523.4003,-150.2427 1527.1497,-141.1137"/>
<polygon fill="#191970" stroke="#191970" points="1530.4779,-142.2226 1531.0396,-131.6427 1524.0028,-139.5631 1530.4779,-142.2226"/>
</g>
<!-- Node118 -->
<g id="node42" class="node">
<title>Node118</title>
<g id="a_node42"><a xlink:href="../../d0/db9/sht_8hpp.html" target="_top" xlink:title="Contains declaration and particular implementation of sirius::SHT class. ">
<polygon fill="#ffffff" stroke="#ff0000" points="1584,-112.5 1584,-131.5 1656,-131.5 1656,-112.5 1584,-112.5"/>
<text text-anchor="middle" x="1620" y="-119.5" font-family="Helvetica,sans-Serif" font-size="10.00" fill="#000000">SHT/sht.hpp</text>
</a>
</g>
</g>
<!-- Node116&#45;&gt;Node118 -->
<g id="edge62" class="edge">
<title>Node116&#45;&gt;Node118</title>
<path fill="none" stroke="#191970" d="M1530.8122,-168.2455C1547.8473,-159.4125 1573.1575,-146.2887 1592.4681,-136.2758"/>
<polygon fill="#191970" stroke="#191970" points="1594.137,-139.353 1601.4034,-131.6427 1590.9147,-133.1388 1594.137,-139.353"/>
</g>
<!-- Node109 -->
<g id="node41" class="node">
<title>Node109</title>
<g id="a_node41"><a xlink:href="../../d2/d4f/radial__grid_8hpp.html" target="_top" xlink:title="Contains declaraion and partial implementation of sirius::Radial_grid class. ">
<polygon fill="#ffffff" stroke="#000000" points="1456.5,-56.5 1456.5,-75.5 1539.5,-75.5 1539.5,-56.5 1456.5,-56.5"/>
<text text-anchor="middle" x="1498" y="-63.5" font-family="Helvetica,sans-Serif" font-size="10.00" fill="#000000">radial_grid.hpp</text>
</a>
</g>
</g>
<!-- Node108&#45;&gt;Node109 -->
<g id="edge61" class="edge">
<title>Node108&#45;&gt;Node109</title>
<path fill="none" stroke="#191970" d="M1528.5551,-112.2455C1523.4618,-104.5367 1516.2092,-93.5598 1510.048,-84.2348"/>
<polygon fill="#191970" stroke="#191970" points="1512.8038,-82.0566 1504.3711,-75.6427 1506.9635,-85.9155 1512.8038,-82.0566"/>
</g>
<!-- Node118&#45;&gt;Node3 -->
<g id="edge66" class="edge">
<title>Node118&#45;&gt;Node3</title>
<path fill="none" stroke="#191970" d="M1583.6907,-113.7284C1580.7549,-113.1215 1577.8305,-112.5374 1575,-112 1477.3615,-93.4615 1449.1474,-96.84 1348.3725,-76.1277"/>
<polygon fill="#191970" stroke="#191970" points="1348.8927,-72.661 1338.3888,-74.0466 1347.4641,-79.5137 1348.8927,-72.661"/>
</g>
<!-- Node118&#45;&gt;Node6 -->
<g id="edge67" class="edge">
<title>Node118&#45;&gt;Node6</title>
<path fill="none" stroke="#191970" d="M1583.7802,-113.0647C1544.8437,-103.4592 1482.7997,-88.1532 1440.0976,-77.6188"/>
<polygon fill="#191970" stroke="#191970" points="1440.7696,-74.1797 1430.2223,-75.1826 1439.0929,-80.9759 1440.7696,-74.1797"/>
</g>
<!-- Node118&#45;&gt;Node19 -->
<g id="edge65" class="edge">
<title>Node118&#45;&gt;Node19</title>
<path fill="none" stroke="#191970" d="M1612.8821,-112.2852C1601.2295,-97.232 1576.5053,-68.6868 1548,-56 1467.4519,-20.1507 1194.5048,-12.1531 1100.2925,-10.4443"/>
<polygon fill="#191970" stroke="#191970" points="1100.2754,-6.9436 1090.2175,-10.2736 1100.1567,-13.9426 1100.2754,-6.9436"/>
</g>
<!-- Node119 -->
<g id="node43" class="node">
<title>Node119</title>
<polygon fill="#ffffff" stroke="#bfbfbf" points="1596.5,-56.5 1596.5,-75.5 1643.5,-75.5 1643.5,-56.5 1596.5,-56.5"/>
<text text-anchor="middle" x="1620" y="-63.5" font-family="Helvetica,sans-Serif" font-size="10.00" fill="#000000">math.h</text>
</g>
<!-- Node118&#45;&gt;Node119 -->
<g id="edge63" class="edge">
<title>Node118&#45;&gt;Node119</title>
<path fill="none" stroke="#191970" d="M1620,-112.2455C1620,-104.9382 1620,-94.6944 1620,-85.7046"/>
<polygon fill="#191970" stroke="#191970" points="1623.5001,-85.6426 1620,-75.6427 1616.5001,-85.6427 1623.5001,-85.6426"/>
</g>
<!-- Node120 -->
<g id="node44" class="node">
<title>Node120</title>
<polygon fill="#ffffff" stroke="#bfbfbf" points="1662,-56.5 1662,-75.5 1714,-75.5 1714,-56.5 1662,-56.5"/>
<text text-anchor="middle" x="1688" y="-63.5" font-family="Helvetica,sans-Serif" font-size="10.00" fill="#000000">stddef.h</text>
</g>
<!-- Node118&#45;&gt;Node120 -->
<g id="edge64" class="edge">
<title>Node118&#45;&gt;Node120</title>
<path fill="none" stroke="#191970" d="M1631.8447,-112.2455C1641.888,-103.9746 1656.4995,-91.9416 1668.3004,-82.2232"/>
<polygon fill="#191970" stroke="#191970" points="1670.7967,-84.7015 1676.291,-75.6427 1666.3467,-79.298 1670.7967,-84.7015"/>
</g>
<!-- Node132 -->
<g id="node47" class="node">
<title>Node132</title>
<g id="a_node47"><a xlink:href="../../db/d19/beta__projectors__base_8hpp.html" target="_top" xlink:title="Contains declaration and implementation of sirius::Beta_projectors_base class. ">
<polygon fill="#ffffff" stroke="#000000" points="1614,-403.5 1614,-422.5 1746,-422.5 1746,-403.5 1614,-403.5"/>
<text text-anchor="middle" x="1680" y="-410.5" font-family="Helvetica,sans-Serif" font-size="10.00" fill="#000000">beta_projectors_base.hpp</text>
</a>
</g>
</g>
<!-- Node131&#45;&gt;Node132 -->
<g id="edge71" class="edge">
<title>Node131&#45;&gt;Node132</title>
<path fill="none" stroke="#191970" d="M1644.618,-459.2977C1651.21,-450.672 1659.4948,-439.8312 1666.3901,-430.8087"/>
<polygon fill="#191970" stroke="#191970" points="1669.1835,-432.9176 1672.4747,-422.8469 1663.6217,-428.6671 1669.1835,-432.9176"/>
</g>
<!-- Node96 -->
<g id="node48" class="node">
<title>Node96</title>
<g id="a_node48"><a xlink:href="../../d3/de5/env_8hpp.html" target="_top" xlink:title="Get the environment variables. ">
<polygon fill="#ffffff" stroke="#ff0000" points="1643.5,-342 1643.5,-361 1716.5,-361 1716.5,-342 1643.5,-342"/>
<text text-anchor="middle" x="1680" y="-349" font-family="Helvetica,sans-Serif" font-size="10.00" fill="#000000">utils/env.hpp</text>
</a>
</g>
</g>
<!-- Node132&#45;&gt;Node96 -->
<g id="edge72" class="edge">
<title>Node132&#45;&gt;Node96</title>
<path fill="none" stroke="#191970" d="M1680,-403.3906C1680,-394.8657 1680,-382.1392 1680,-371.4235"/>
<polygon fill="#191970" stroke="#191970" points="1683.5001,-371.2448 1680,-361.2449 1676.5001,-371.2449 1683.5001,-371.2448"/>
</g>
<!-- Node133&#45;&gt;Node131 -->
<g id="edge75" class="edge">
<title>Node133&#45;&gt;Node131</title>
<path fill="none" stroke="#191970" d="M1669.335,-526.2967C1663.4459,-517.9016 1656.0056,-507.2952 1649.3938,-497.8698"/>
<polygon fill="#191970" stroke="#191970" points="1652.231,-495.8198 1643.6228,-489.6432 1646.5004,-499.8398 1652.231,-495.8198"/>
</g>
<!-- Node133&#45;&gt;Node132 -->
<g id="edge74" class="edge">
<title>Node133&#45;&gt;Node132</title>
<path fill="none" stroke="#191970" d="M1686.3642,-526.4947C1690.2965,-516.3872 1694.9673,-502.6427 1697,-490 1699.1871,-476.3969 1699.4259,-472.5625 1697,-459 1695.3557,-449.8071 1691.9995,-440.047 1688.7003,-431.8935"/>
<polygon fill="#191970" stroke="#191970" points="1691.8606,-430.3833 1684.6849,-422.5885 1685.4335,-433.1569 1691.8606,-430.3833"/>
</g>
<!-- Node134&#45;&gt;Node1 -->
<g id="edge77" class="edge">
<title>Node134&#45;&gt;Node1</title>
<path fill="none" stroke="#191970" d="M1451.6783,-531.9005C1437.7565,-521.0544 1414.8824,-503.2339 1398.31,-490.3229"/>
<polygon fill="#191970" stroke="#191970" points="1400.3385,-487.4664 1390.2988,-484.0817 1396.0364,-492.9885 1400.3385,-487.4664"/>
</g>
<!-- Node134&#45;&gt;Node129 -->
<g id="edge78" class="edge">
<title>Node134&#45;&gt;Node129</title>
<path fill="none" stroke="#191970" d="M1463.3524,-531.9746C1461.6715,-509.341 1456.4768,-450.6638 1445,-403 1442.8562,-394.0968 1439.7642,-384.5726 1436.7459,-376.1664"/>
<polygon fill="#191970" stroke="#191970" points="1439.9454,-374.729 1433.1697,-366.5841 1433.3872,-377.1767 1439.9454,-374.729"/>
</g>
<!-- Node134&#45;&gt;Node131 -->
<g id="edge79" class="edge">
<title>Node134&#45;&gt;Node131</title>
<path fill="none" stroke="#191970" d="M1488.2136,-531.9005C1513.5238,-521.8663 1553.891,-505.8627 1585.5797,-493.2997"/>
<polygon fill="#191970" stroke="#191970" points="1587.1031,-496.4609 1595.1093,-489.5218 1584.5232,-489.9536 1587.1031,-496.4609"/>
</g>
</g>
</svg>
