<?xml version="1.0" encoding="UTF-8" standalone="no"?>
<!DOCTYPE svg PUBLIC "-//W3C//DTD SVG 1.1//EN"
 "http://www.w3.org/Graphics/SVG/1.1/DTD/svg11.dtd">
<!-- Generated by graphviz version 2.40.1 (20161225.0304)
 -->
<!-- Title: cmd_args.hpp Pages: 1 -->
<svg width="312pt" height="84pt"
 viewBox="0.00 0.00 312.00 84.00" xmlns="http://www.w3.org/2000/svg" xmlns:xlink="http://www.w3.org/1999/xlink">
<g id="graph0" class="graph" transform="scale(1 1) rotate(0) translate(4 80)">
<title>cmd_args.hpp</title>
<polygon fill="#ffffff" stroke="transparent" points="-4,4 -4,-80 308,-80 308,4 -4,4"/>
<!-- Node0 -->
<g id="node1" class="node">
<title>Node0</title>
<polygon fill="#bfbfbf" stroke="#000000" points="100,-56.5 100,-75.5 180,-75.5 180,-56.5 100,-56.5"/>
<text text-anchor="middle" x="140" y="-63.5" font-family="Helvetica,sans-Serif" font-size="10.00" fill="#000000">cmd_args.hpp</text>
</g>
<!-- Node1 -->
<g id="node2" class="node">
<title>Node1</title>
<polygon fill="#ffffff" stroke="#bfbfbf" points="0,-.5 0,-19.5 44,-19.5 44,-.5 0,-.5"/>
<text text-anchor="middle" x="22" y="-7.5" font-family="Helvetica,sans-Serif" font-size="10.00" fill="#000000">vector</text>
</g>
<!-- Node0&#45;&gt;Node1 -->
<g id="edge1" class="edge">
<title>Node0&#45;&gt;Node1</title>
<path fill="none" stroke="#191970" d="M119.7151,-56.3733C100.8579,-47.4241 72.554,-33.9917 51.2545,-23.8835"/>
<polygon fill="#191970" stroke="#191970" points="52.5551,-20.6266 42.0202,-19.5011 49.5539,-26.9506 52.5551,-20.6266"/>
</g>
<!-- Node2 -->
<g id="node3" class="node">
<title>Node2</title>
<polygon fill="#ffffff" stroke="#bfbfbf" points="62.5,-.5 62.5,-19.5 103.5,-19.5 103.5,-.5 62.5,-.5"/>
<text text-anchor="middle" x="83" y="-7.5" font-family="Helvetica,sans-Serif" font-size="10.00" fill="#000000">string</text>
</g>
<!-- Node0&#45;&gt;Node2 -->
<g id="edge2" class="edge">
<title>Node0&#45;&gt;Node2</title>
<path fill="none" stroke="#191970" d="M130.0714,-56.2455C121.8162,-48.1352 109.8791,-36.4075 100.0918,-26.7919"/>
<polygon fill="#191970" stroke="#191970" points="102.4011,-24.1542 92.8149,-19.6427 97.4954,-29.1476 102.4011,-24.1542"/>
</g>
<!-- Node3 -->
<g id="node4" class="node">
<title>Node3</title>
<polygon fill="#ffffff" stroke="#bfbfbf" points="122,-.5 122,-19.5 158,-19.5 158,-.5 122,-.5"/>
<text text-anchor="middle" x="140" y="-7.5" font-family="Helvetica,sans-Serif" font-size="10.00" fill="#000000">map</text>
</g>
<!-- Node0&#45;&gt;Node3 -->
<g id="edge3" class="edge">
<title>Node0&#45;&gt;Node3</title>
<path fill="none" stroke="#191970" d="M140,-56.2455C140,-48.9382 140,-38.6944 140,-29.7046"/>
<polygon fill="#191970" stroke="#191970" points="143.5001,-29.6426 140,-19.6427 136.5001,-29.6427 143.5001,-29.6426"/>
</g>
<!-- Node4 -->
<g id="node5" class="node">
<title>Node4</title>
<polygon fill="#ffffff" stroke="#bfbfbf" points="176,-.5 176,-19.5 228,-19.5 228,-.5 176,-.5"/>
<text text-anchor="middle" x="202" y="-7.5" font-family="Helvetica,sans-Serif" font-size="10.00" fill="#000000">sstream</text>
</g>
<!-- Node0&#45;&gt;Node4 -->
<g id="edge4" class="edge">
<title>Node0&#45;&gt;Node4</title>
<path fill="none" stroke="#191970" d="M150.7996,-56.2455C159.8678,-48.0549 173.0206,-36.1749 183.7245,-26.5069"/>
<polygon fill="#191970" stroke="#191970" points="186.2491,-28.9429 191.3242,-19.6427 181.5571,-23.7482 186.2491,-28.9429"/>
</g>
<!-- Node5 -->
<g id="node6" class="node">
<title>Node5</title>
<polygon fill="#ffffff" stroke="#bfbfbf" points="246,-.5 246,-19.5 304,-19.5 304,-.5 246,-.5"/>
<text text-anchor="middle" x="275" y="-7.5" font-family="Helvetica,sans-Serif" font-size="10.00" fill="#000000">algorithm</text>
</g>
<!-- Node0&#45;&gt;Node5 -->
<g id="edge5" class="edge">
<title>Node0&#45;&gt;Node5</title>
<path fill="none" stroke="#191970" d="M163.2073,-56.3733C185.1699,-47.2629 218.3332,-33.5062 242.8401,-23.3404"/>
<polygon fill="#191970" stroke="#191970" points="244.1997,-26.5657 252.0955,-19.5011 241.5176,-20.0999 244.1997,-26.5657"/>
</g>
</g>
</svg>
