<?xml version="1.0" encoding="UTF-8" standalone="no"?>
<!DOCTYPE svg PUBLIC "-//W3C//DTD SVG 1.1//EN"
 "http://www.w3.org/Graphics/SVG/1.1/DTD/svg11.dtd">
<!-- Generated by graphviz version 2.40.1 (20161225.0304)
 -->
<!-- Title: cuda_timer.hpp Pages: 1 -->
<svg width="450pt" height="84pt"
 viewBox="0.00 0.00 450.00 84.00" xmlns="http://www.w3.org/2000/svg" xmlns:xlink="http://www.w3.org/1999/xlink">
<g id="graph0" class="graph" transform="scale(1 1) rotate(0) translate(4 80)">
<title>cuda_timer.hpp</title>
<polygon fill="#ffffff" stroke="transparent" points="-4,4 -4,-80 446,-80 446,4 -4,4"/>
<!-- Node0 -->
<g id="node1" class="node">
<title>Node0</title>
<polygon fill="#bfbfbf" stroke="#000000" points="195.5,-56.5 195.5,-75.5 280.5,-75.5 280.5,-56.5 195.5,-56.5"/>
<text text-anchor="middle" x="238" y="-63.5" font-family="Helvetica,sans-Serif" font-size="10.00" fill="#000000">cuda_timer.hpp</text>
</g>
<!-- Node1 -->
<g id="node2" class="node">
<title>Node1</title>
<polygon fill="#ffffff" stroke="#bfbfbf" points="0,-.5 0,-19.5 62,-19.5 62,-.5 0,-.5"/>
<text text-anchor="middle" x="31" y="-7.5" font-family="Helvetica,sans-Serif" font-size="10.00" fill="#000000">execinfo.h</text>
</g>
<!-- Node0&#45;&gt;Node1 -->
<g id="edge1" class="edge">
<title>Node0&#45;&gt;Node1</title>
<path fill="none" stroke="#191970" d="M202.4154,-56.3733C166.1251,-46.5556 109.8901,-31.3423 71.8141,-21.0415"/>
<polygon fill="#191970" stroke="#191970" points="72.6357,-17.638 62.0687,-18.4051 70.8077,-24.3951 72.6357,-17.638"/>
</g>
<!-- Node2 -->
<g id="node3" class="node">
<title>Node2</title>
<polygon fill="#ffffff" stroke="#bfbfbf" points="80.5,-.5 80.5,-19.5 131.5,-19.5 131.5,-.5 80.5,-.5"/>
<text text-anchor="middle" x="106" y="-7.5" font-family="Helvetica,sans-Serif" font-size="10.00" fill="#000000">signal.h</text>
</g>
<!-- Node0&#45;&gt;Node2 -->
<g id="edge2" class="edge">
<title>Node0&#45;&gt;Node2</title>
<path fill="none" stroke="#191970" d="M215.3084,-56.3733C193.9289,-47.3032 161.6943,-33.6279 137.7638,-23.4755"/>
<polygon fill="#191970" stroke="#191970" points="138.9683,-20.1846 128.3955,-19.5011 136.2344,-26.6287 138.9683,-20.1846"/>
</g>
<!-- Node3 -->
<g id="node4" class="node">
<title>Node3</title>
<polygon fill="#ffffff" stroke="#bfbfbf" points="150,-.5 150,-19.5 202,-19.5 202,-.5 150,-.5"/>
<text text-anchor="middle" x="176" y="-7.5" font-family="Helvetica,sans-Serif" font-size="10.00" fill="#000000">assert.h</text>
</g>
<!-- Node0&#45;&gt;Node3 -->
<g id="edge3" class="edge">
<title>Node0&#45;&gt;Node3</title>
<path fill="none" stroke="#191970" d="M227.2004,-56.2455C218.1322,-48.0549 204.9794,-36.1749 194.2755,-26.5069"/>
<polygon fill="#191970" stroke="#191970" points="196.4429,-23.7482 186.6758,-19.6427 191.7509,-28.9429 196.4429,-23.7482"/>
</g>
<!-- Node4 -->
<g id="node5" class="node">
<title>Node4</title>
<polygon fill="#ffffff" stroke="#bfbfbf" points="220,-.5 220,-19.5 256,-19.5 256,-.5 220,-.5"/>
<text text-anchor="middle" x="238" y="-7.5" font-family="Helvetica,sans-Serif" font-size="10.00" fill="#000000">map</text>
</g>
<!-- Node0&#45;&gt;Node4 -->
<g id="edge4" class="edge">
<title>Node0&#45;&gt;Node4</title>
<path fill="none" stroke="#191970" d="M238,-56.2455C238,-48.9382 238,-38.6944 238,-29.7046"/>
<polygon fill="#191970" stroke="#191970" points="241.5001,-29.6426 238,-19.6427 234.5001,-29.6427 241.5001,-29.6426"/>
</g>
<!-- Node5 -->
<g id="node6" class="node">
<title>Node5</title>
<polygon fill="#ffffff" stroke="#bfbfbf" points="274,-.5 274,-19.5 318,-19.5 318,-.5 274,-.5"/>
<text text-anchor="middle" x="296" y="-7.5" font-family="Helvetica,sans-Serif" font-size="10.00" fill="#000000">vector</text>
</g>
<!-- Node0&#45;&gt;Node5 -->
<g id="edge5" class="edge">
<title>Node0&#45;&gt;Node5</title>
<path fill="none" stroke="#191970" d="M248.1028,-56.2455C256.5028,-48.1352 268.6494,-36.4075 278.6084,-26.7919"/>
<polygon fill="#191970" stroke="#191970" points="281.25,-29.1066 286.0129,-19.6427 276.3878,-24.0707 281.25,-29.1066"/>
</g>
<!-- Node6 -->
<g id="node7" class="node">
<title>Node6</title>
<polygon fill="#ffffff" stroke="#bfbfbf" points="336.5,-.5 336.5,-19.5 377.5,-19.5 377.5,-.5 336.5,-.5"/>
<text text-anchor="middle" x="357" y="-7.5" font-family="Helvetica,sans-Serif" font-size="10.00" fill="#000000">string</text>
</g>
<!-- Node0&#45;&gt;Node6 -->
<g id="edge6" class="edge">
<title>Node0&#45;&gt;Node6</title>
<path fill="none" stroke="#191970" d="M258.4568,-56.3733C277.4738,-47.4241 306.0175,-33.9917 327.4976,-23.8835"/>
<polygon fill="#191970" stroke="#191970" points="329.2522,-26.926 336.8101,-19.5011 326.2716,-20.5923 329.2522,-26.926"/>
</g>
<!-- Node7 -->
<g id="node8" class="node">
<title>Node7</title>
<polygon fill="#ffffff" stroke="#bfbfbf" points="396,-.5 396,-19.5 442,-19.5 442,-.5 396,-.5"/>
<text text-anchor="middle" x="419" y="-7.5" font-family="Helvetica,sans-Serif" font-size="10.00" fill="#000000">stdio.h</text>
</g>
<!-- Node0&#45;&gt;Node7 -->
<g id="edge7" class="edge">
<title>Node0&#45;&gt;Node7</title>
<path fill="none" stroke="#191970" d="M269.1158,-56.4279C297.3226,-47.7432 340.2892,-34.4953 386.367,-20.19"/>
<polygon fill="#191970" stroke="#191970" points="387.4192,-23.5282 395.9309,-17.2195 385.3428,-16.8433 387.4192,-23.5282"/>
</g>
</g>
</svg>
