<?xml version="1.0" encoding="UTF-8" standalone="no"?>
<!DOCTYPE svg PUBLIC "-//W3C//DTD SVG 1.1//EN"
 "http://www.w3.org/Graphics/SVG/1.1/DTD/svg11.dtd">
<!-- Generated by graphviz version 2.40.1 (20161225.0304)
 -->
<!-- Title: simulation_context.h Pages: 1 -->
<!--zoomable 588 -->
<svg id="main" version="1.1" xmlns="http://www.w3.org/2000/svg" xmlns:xlink="http://www.w3.org/1999/xlink" xml:space="preserve" onload="init(evt)">
<style type="text/css"><![CDATA[
.edge:hover path { stroke: red; }
.edge:hover polygon { stroke: red; fill: red; }
]]></style>
<script type="text/javascript"><![CDATA[
var edges = document.getElementsByTagName('g');
if (edges && edges.length) {
  for (var i=0;i<edges.length;i++) {
    if (edges[i].id.substr(0,4)=='edge') {
      edges[i].setAttribute('class','edge');
    }
  }
}
]]></script>
        <defs>
                <circle id="rim" cx="0" cy="0" r="7"/>
                <circle id="rim2" cx="0" cy="0" r="3.5"/>
                <g id="zoomPlus">
                        <use xlink:href="#rim" fill="#404040">
                                <set attributeName="fill" to="#808080" begin="zoomplus.mouseover" end="zoomplus.mouseout"/>
                        </use>
                        <path d="M-4,0h8M0,-4v8" fill="none" stroke="white" stroke-width="1.5" pointer-events="none"/>
                </g>
                <g id="zoomMin">
                        <use xlink:href="#rim" fill="#404040">
                                <set attributeName="fill" to="#808080" begin="zoomminus.mouseover" end="zoomminus.mouseout"/>
                        </use>
                        <path d="M-4,0h8" fill="none" stroke="white" stroke-width="1.5" pointer-events="none"/>
                </g>
                <g id="dirArrow">
                        <path fill="none" stroke="white" stroke-width="1.5" d="M0,-3.0v7 M-2.5,-0.5L0,-3.0L2.5,-0.5"/>
                </g>
               <g id="resetDef">
                       <use xlink:href="#rim2" fill="#404040">
                               <set attributeName="fill" to="#808080" begin="reset.mouseover" end="reset.mouseout"/>
                       </use>
               </g>
        </defs>

<script type="text/javascript">
var viewWidth = 1121;
var viewHeight = 588;
var sectionId = 'dynsection-1';
</script>
<script xlink:href="../../svgpan.js"/>
<svg id="graph" class="graph">
<g id="viewport">
<title>simulation_context.h</title>
<polygon fill="#ffffff" stroke="transparent" points="-4,4 -4,-584 1117,-584 1117,4 -4,4"/>
<!-- Node129 -->
<g id="node1" class="node">
<title>Node129</title>
<polygon fill="#bfbfbf" stroke="#000000" points="465.5,-560.5 465.5,-579.5 550.5,-579.5 550.5,-560.5 465.5,-560.5"/>
<text text-anchor="middle" x="508" y="-567.5" font-family="Helvetica,sans-Serif" font-size="10.00" fill="#000000">simulation_context.h</text>
</g>
<!-- Node130 -->
<g id="node2" class="node">
<title>Node130</title>
<g id="a_node2"><a xlink:href="../../d8/d65/periodic__function_8h.html" target="_top" xlink:title="Contains declaration and partial implementation of sirius::Periodic_function class. ">
<polygon fill="#ffffff" stroke="#000000" points="335.5,-504.5 335.5,-523.5 414.5,-523.5 414.5,-504.5 335.5,-504.5"/>
<text text-anchor="middle" x="375" y="-511.5" font-family="Helvetica,sans-Serif" font-size="10.00" fill="#000000">periodic_function.h</text>
</a>
</g>
</g>
<!-- Node129&#45;&gt;Node130 -->
<g id="edge1" class="edge">
<title>Node129&#45;&gt;Node130</title>
<path fill="none" stroke="#191970" d="M475.6603,-556.3833C451.4715,-546.1985 419.005,-532.5284 397.5652,-523.5011"/>
<polygon fill="#191970" stroke="#191970" points="474.5619,-559.7184 485.1365,-560.3733 477.2783,-553.2669 474.5619,-559.7184"/>
</g>
<!-- Node137 -->
<g id="node9" class="node">
<title>Node137</title>
<g id="a_node9"><a xlink:href="../../d2/dcb/density_8h.html" target="_top" xlink:title="Contains definition and partial implementation of sirius::Density class. ">
<polygon fill="#ffffff" stroke="#000000" points="153.5,-336.5 153.5,-355.5 200.5,-355.5 200.5,-336.5 153.5,-336.5"/>
<text text-anchor="middle" x="177" y="-343.5" font-family="Helvetica,sans-Serif" font-size="10.00" fill="#000000">density.h</text>
</a>
</g>
</g>
<!-- Node129&#45;&gt;Node137 -->
<g id="edge57" class="edge">
<title>Node129&#45;&gt;Node137</title>
<path fill="none" stroke="#191970" d="M455.1141,-566.7209C388.2566,-561.5721 278.1093,-549.4299 247,-524 192.2382,-479.2356 180.1441,-385.7368 177.6263,-355.59"/>
<polygon fill="#191970" stroke="#191970" points="455.2223,-570.2385 465.4539,-567.4882 455.7403,-563.2577 455.2223,-570.2385"/>
</g>
<!-- Node138 -->
<g id="node10" class="node">
<title>Node138</title>
<g id="a_node10"><a xlink:href="../../df/d86/potential_8h.html" target="_top" xlink:title="Contains declaration and partial implementation of sirius::Potential class. ">
<polygon fill="#ffffff" stroke="#000000" points="305.5,-280.5 305.5,-299.5 356.5,-299.5 356.5,-280.5 305.5,-280.5"/>
<text text-anchor="middle" x="331" y="-287.5" font-family="Helvetica,sans-Serif" font-size="10.00" fill="#000000">potential.h</text>
</a>
</g>
</g>
<!-- Node129&#45;&gt;Node138 -->
<g id="edge56" class="edge">
<title>Node129&#45;&gt;Node138</title>
<path fill="none" stroke="#191970" d="M455.1457,-563.7553C407.529,-556.9134 342.6687,-544.1489 327,-524 272.8751,-454.399 313.3829,-334.6595 326.9813,-299.7917"/>
<polygon fill="#191970" stroke="#191970" points="454.9366,-567.2597 465.3226,-565.1663 455.898,-560.3261 454.9366,-567.2597"/>
</g>
<!-- Node140 -->
<g id="node12" class="node">
<title>Node140</title>
<g id="a_node12"><a xlink:href="../../d0/d39/_hamiltonian_8h_source.html" target="_top" xlink:title="Hamiltonian.h">
<polygon fill="#ffffff" stroke="#000000" points="849,-168.5 849,-187.5 911,-187.5 911,-168.5 849,-168.5"/>
<text text-anchor="middle" x="880" y="-175.5" font-family="Helvetica,sans-Serif" font-size="10.00" fill="#000000">Hamiltonian.h</text>
</a>
</g>
</g>
<!-- Node129&#45;&gt;Node140 -->
<g id="edge55" class="edge">
<title>Node129&#45;&gt;Node140</title>
<path fill="none" stroke="#191970" d="M560.8103,-567.703C665.0891,-562.6802 893.7618,-549.1122 968,-524 1020.9285,-506.0961 1075,-513.8746 1075,-458 1075,-458 1075,-458 1075,-346 1075,-259.31 963.0154,-207.5305 908.7729,-187.5346"/>
<polygon fill="#191970" stroke="#191970" points="560.3411,-564.2212 550.5179,-568.1904 560.6723,-571.2134 560.3411,-564.2212"/>
</g>
<!-- Node142 -->
<g id="node14" class="node">
<title>Node142</title>
<g id="a_node14"><a xlink:href="../../d6/d1e/force_8hpp.html" target="_top" xlink:title="Contains defintion and implementation of sirius::Force class. ">
<polygon fill="#ffffff" stroke="#000000" points="399,-168.5 399,-187.5 447,-187.5 447,-168.5 399,-168.5"/>
<text text-anchor="middle" x="423" y="-175.5" font-family="Helvetica,sans-Serif" font-size="10.00" fill="#000000">force.hpp</text>
</a>
</g>
</g>
<!-- Node129&#45;&gt;Node142 -->
<g id="edge58" class="edge">
<title>Node129&#45;&gt;Node142</title>
<path fill="none" stroke="#191970" d="M503.7705,-550.4945C488.4605,-479.8886 436.2487,-239.1001 425.1038,-187.7021"/>
<polygon fill="#191970" stroke="#191970" points="500.3592,-551.2789 505.8989,-560.3101 507.2002,-549.7954 500.3592,-551.2789"/>
</g>
<!-- Node143 -->
<g id="node15" class="node">
<title>Node143</title>
<g id="a_node15"><a xlink:href="../../d5/d72/non__local__functor_8hpp.html" target="_top" xlink:title="Common operation for forces and stress tensor. ">
<polygon fill="#ffffff" stroke="#000000" points="93,-224.5 93,-243.5 183,-243.5 183,-224.5 93,-224.5"/>
<text text-anchor="middle" x="138" y="-231.5" font-family="Helvetica,sans-Serif" font-size="10.00" fill="#000000">non_local_functor.hpp</text>
</a>
</g>
</g>
<!-- Node129&#45;&gt;Node143 -->
<g id="edge59" class="edge">
<title>Node129&#45;&gt;Node143</title>
<path fill="none" stroke="#191970" d="M455.1719,-568.5047C332.3583,-563.5968 38,-542.9705 38,-458 38,-458 38,-458 38,-346 38,-297.5152 90.7893,-260.3608 119.6585,-243.6672"/>
<polygon fill="#191970" stroke="#191970" points="455.3362,-572.0134 465.4617,-568.895 455.6016,-565.0184 455.3362,-572.0134"/>
</g>
<!-- Node145 -->
<g id="node17" class="node">
<title>Node145</title>
<g id="a_node17"><a xlink:href="../../db/d74/hubbard_8hpp_source.html" target="_top" xlink:title="hubbard.hpp">
<polygon fill="#ffffff" stroke="#000000" points="886.5,-280.5 886.5,-299.5 945.5,-299.5 945.5,-280.5 886.5,-280.5"/>
<text text-anchor="middle" x="916" y="-287.5" font-family="Helvetica,sans-Serif" font-size="10.00" fill="#000000">hubbard.hpp</text>
</a>
</g>
</g>
<!-- Node129&#45;&gt;Node145 -->
<g id="edge54" class="edge">
<title>Node129&#45;&gt;Node145</title>
<path fill="none" stroke="#191970" d="M561.0957,-567.0895C674.6799,-559.4099 931,-533.6942 931,-458 931,-458 931,-458 931,-402 931,-363.7448 922.2968,-318.7849 918.1491,-299.5307"/>
<polygon fill="#191970" stroke="#191970" points="560.6376,-563.6119 550.8873,-567.757 561.0944,-570.597 560.6376,-563.6119"/>
</g>
<!-- Node146 -->
<g id="node18" class="node">
<title>Node146</title>
<g id="a_node18"><a xlink:href="../../d2/d5f/beta__projectors_8h.html" target="_top" xlink:title="Contains declaration and implementation of sirius::Beta_projectors class. ">
<polygon fill="#ffffff" stroke="#000000" points="511,-504.5 511,-523.5 585,-523.5 585,-504.5 511,-504.5"/>
<text text-anchor="middle" x="548" y="-511.5" font-family="Helvetica,sans-Serif" font-size="10.00" fill="#000000">beta_projectors.h</text>
</a>
</g>
</g>
<!-- Node129&#45;&gt;Node146 -->
<g id="edge43" class="edge">
<title>Node129&#45;&gt;Node146</title>
<path fill="none" stroke="#191970" d="M520.9136,-551.9209C527.6303,-542.5176 535.5717,-531.3997 541.1124,-523.6427"/>
<polygon fill="#191970" stroke="#191970" points="517.9318,-550.0738 514.9675,-560.2455 523.628,-554.1425 517.9318,-550.0738"/>
</g>
<!-- Node147 -->
<g id="node19" class="node">
<title>Node147</title>
<g id="a_node19"><a xlink:href="../../df/dae/non__local__operator_8h.html" target="_top" xlink:title="Contains declaration and implementation of sirius::Non_local_operator class. ">
<polygon fill="#ffffff" stroke="#000000" points="959.5,-336.5 959.5,-355.5 1046.5,-355.5 1046.5,-336.5 959.5,-336.5"/>
<text text-anchor="middle" x="1003" y="-343.5" font-family="Helvetica,sans-Serif" font-size="10.00" fill="#000000">non_local_operator.h</text>
</a>
</g>
</g>
<!-- Node129&#45;&gt;Node147 -->
<g id="edge53" class="edge">
<title>Node129&#45;&gt;Node147</title>
<path fill="none" stroke="#191970" d="M560.8306,-567.6335C670.6119,-562.2618 915.6649,-547.7386 945,-524 998.8159,-480.4509 1003.2308,-386.1451 1003.1956,-355.6929"/>
<polygon fill="#191970" stroke="#191970" points="560.4605,-564.1472 550.6407,-568.1248 560.7977,-571.1391 560.4605,-564.1472"/>
</g>
<!-- Node149 -->
<g id="node21" class="node">
<title>Node149</title>
<g id="a_node21"><a xlink:href="../../d1/d7f/sirius__internal_8h.html" target="_top" xlink:title="Contains basic definitions and declarations. ">
<polygon fill="#ffffff" stroke="#000000" points="832.5,-112.5 832.5,-131.5 901.5,-131.5 901.5,-112.5 832.5,-112.5"/>
<text text-anchor="middle" x="867" y="-119.5" font-family="Helvetica,sans-Serif" font-size="10.00" fill="#000000">sirius_internal.h</text>
</a>
</g>
</g>
<!-- Node129&#45;&gt;Node149 -->
<g id="edge60" class="edge">
<title>Node129&#45;&gt;Node149</title>
<path fill="none" stroke="#191970" d="M560.6915,-568.6955C673.7035,-565.3426 935.8602,-554.4393 1019,-524 1066.9355,-506.4497 1113,-509.0473 1113,-458 1113,-458 1113,-458 1113,-234 1113,-188.1294 969.5341,-147.0012 901.724,-130.1236"/>
<polygon fill="#191970" stroke="#191970" points="560.4482,-565.201 550.5533,-568.9878 560.65,-572.1981 560.4482,-565.201"/>
</g>
<!-- Node131 -->
<g id="node3" class="node">
<title>Node131</title>
<g id="a_node3"><a xlink:href="../../d9/dc2/band_8h.html" target="_top" xlink:title="Contains declaration and partial implementation of sirius::Band class. ">
<polygon fill="#ffffff" stroke="#000000" points="775.5,-112.5 775.5,-131.5 814.5,-131.5 814.5,-112.5 775.5,-112.5"/>
<text text-anchor="middle" x="795" y="-119.5" font-family="Helvetica,sans-Serif" font-size="10.00" fill="#000000">band.h</text>
</a>
</g>
</g>
<!-- Node130&#45;&gt;Node131 -->
<g id="edge2" class="edge">
<title>Node130&#45;&gt;Node131</title>
<path fill="none" stroke="#191970" d="M424.601,-510.4512C479.1729,-505.4107 568.8471,-493.748 642,-468 690.4156,-450.9589 708.5916,-450.0858 743,-412 802.075,-346.6114 810.7311,-311.9952 806,-224 804.164,-189.8522 798.8945,-149.5511 796.3745,-131.5348"/>
<polygon fill="#191970" stroke="#191970" points="424.1533,-506.9771 414.5008,-511.3453 424.7705,-513.9498 424.1533,-506.9771"/>
</g>
<!-- Node133 -->
<g id="node5" class="node">
<title>Node133</title>
<g id="a_node5"><a xlink:href="../../dd/dc2/sirius_8h.html" target="_top" xlink:title="&quot;All&#45;in&#45;one&quot; include file. ">
<polygon fill="#ffffff" stroke="#000000" points="403,-56.5 403,-75.5 443,-75.5 443,-56.5 403,-56.5"/>
<text text-anchor="middle" x="423" y="-63.5" font-family="Helvetica,sans-Serif" font-size="10.00" fill="#000000">sirius.h</text>
</a>
</g>
</g>
<!-- Node130&#45;&gt;Node133 -->
<g id="edge42" class="edge">
<title>Node130&#45;&gt;Node133</title>
<path fill="none" stroke="#191970" d="M325.1537,-507.7101C223.1238,-491.7566 0,-439.7494 0,-290 0,-290 0,-290 0,-178 0,-93.5804 318.8188,-71.3255 402.8824,-66.9248"/>
<polygon fill="#191970" stroke="#191970" points="324.8133,-511.1982 335.2235,-509.2287 325.8572,-504.2765 324.8133,-511.1982"/>
</g>
<!-- Node135 -->
<g id="node7" class="node">
<title>Node135</title>
<g id="a_node7"><a xlink:href="../../d9/d02/k__point_8h.html" target="_top" xlink:title="Contains definition and partial implementation of sirius::K_point class. ">
<polygon fill="#ffffff" stroke="#000000" points="807.5,-448.5 807.5,-467.5 854.5,-467.5 854.5,-448.5 807.5,-448.5"/>
<text text-anchor="middle" x="831" y="-455.5" font-family="Helvetica,sans-Serif" font-size="10.00" fill="#000000">k_point.h</text>
</a>
</g>
</g>
<!-- Node130&#45;&gt;Node135 -->
<g id="edge6" class="edge">
<title>Node130&#45;&gt;Node135</title>
<path fill="none" stroke="#191970" d="M424.8109,-509.4501C519.7772,-500.6214 723.4655,-480.9023 793,-468 797.6951,-467.1288 802.6638,-465.9864 807.4054,-464.7862"/>
<polygon fill="#191970" stroke="#191970" points="424.2363,-505.9883 414.6019,-510.3962 424.8822,-512.9584 424.2363,-505.9883"/>
</g>
<!-- Node130&#45;&gt;Node137 -->
<g id="edge39" class="edge">
<title>Node130&#45;&gt;Node137</title>
<path fill="none" stroke="#191970" d="M355.9837,-497.865C315.4205,-463.4477 221.4303,-383.6985 188.5829,-355.8279"/>
<polygon fill="#191970" stroke="#191970" points="353.8978,-500.6852 363.7874,-504.4862 358.4267,-495.3476 353.8978,-500.6852"/>
</g>
<!-- Node130&#45;&gt;Node138 -->
<g id="edge38" class="edge">
<title>Node130&#45;&gt;Node138</title>
<path fill="none" stroke="#191970" d="M368.4776,-494.5582C365.9049,-486.4169 363.0749,-476.8138 361,-468 346.0629,-404.5502 335.5939,-326.6985 332.1932,-299.7348"/>
<polygon fill="#191970" stroke="#191970" points="365.2023,-495.804 371.6263,-504.2291 371.8584,-493.6368 365.2023,-495.804"/>
</g>
<!-- Node139 -->
<g id="node11" class="node">
<title>Node139</title>
<g id="a_node11"><a xlink:href="../../d3/d2c/local__operator_8hpp.html" target="_top" xlink:title="Contains declaration and implementation of sirius::Local_operator class. ">
<polygon fill="#ffffff" stroke="#000000" points="717.5,-224.5 717.5,-243.5 796.5,-243.5 796.5,-224.5 717.5,-224.5"/>
<text text-anchor="middle" x="757" y="-231.5" font-family="Helvetica,sans-Serif" font-size="10.00" fill="#000000">local_operator.hpp</text>
</a>
</g>
</g>
<!-- Node130&#45;&gt;Node139 -->
<g id="edge37" class="edge">
<title>Node130&#45;&gt;Node139</title>
<path fill="none" stroke="#191970" d="M424.5752,-505.8934C510.5167,-490.8309 681.8435,-456.0205 722,-412 766.9978,-362.6724 761.4707,-272.9728 758.2414,-243.5958"/>
<polygon fill="#191970" stroke="#191970" points="423.7889,-502.4774 414.5324,-507.6317 424.9828,-509.3748 423.7889,-502.4774"/>
</g>
<!-- Node130&#45;&gt;Node142 -->
<g id="edge40" class="edge">
<title>Node130&#45;&gt;Node142</title>
<path fill="none" stroke="#191970" d="M377.8518,-494.0377C386.9427,-430.4011 415.0277,-233.8062 421.6096,-187.7328"/>
<polygon fill="#191970" stroke="#191970" points="374.3343,-493.912 376.3848,-504.3065 381.2639,-494.902 374.3343,-493.912"/>
</g>
<!-- Node130&#45;&gt;Node143 -->
<g id="edge41" class="edge">
<title>Node130&#45;&gt;Node143</title>
<path fill="none" stroke="#191970" d="M336.8028,-500.7846C282.6186,-479.7326 185.4258,-432.9192 144,-356 123.8894,-318.6588 131.5395,-265.2003 135.8487,-243.5991"/>
<polygon fill="#191970" stroke="#191970" points="335.805,-504.1492 346.3965,-504.4171 338.2838,-497.6028 335.805,-504.1492"/>
</g>
<!-- Node132 -->
<g id="node4" class="node">
<title>Node132</title>
<g id="a_node4"><a xlink:href="../../d2/d15/add__nl__h__o__rs_8cpp_source.html" target="_top" xlink:title="add_nl_h_o_rs.cpp">
<polygon fill="#ffffff" stroke="#000000" points="755,-56.5 755,-75.5 835,-75.5 835,-56.5 755,-56.5"/>
<text text-anchor="middle" x="795" y="-63.5" font-family="Helvetica,sans-Serif" font-size="10.00" fill="#000000">add_nl_h_o_rs.cpp</text>
</a>
</g>
</g>
<!-- Node131&#45;&gt;Node132 -->
<g id="edge3" class="edge">
<title>Node131&#45;&gt;Node132</title>
<path fill="none" stroke="#191970" d="M795,-102.1575C795,-93.155 795,-82.9199 795,-75.6427"/>
<polygon fill="#191970" stroke="#191970" points="791.5001,-102.2455 795,-112.2455 798.5001,-102.2456 791.5001,-102.2455"/>
</g>
<!-- Node131&#45;&gt;Node133 -->
<g id="edge4" class="edge">
<title>Node131&#45;&gt;Node133</title>
<path fill="none" stroke="#191970" d="M765.3361,-117.5345C692.2492,-106.5321 504.969,-78.3394 443.1426,-69.0322"/>
<polygon fill="#191970" stroke="#191970" points="764.8527,-121.0011 775.2623,-119.0287 765.8948,-114.079 764.8527,-121.0011"/>
</g>
<!-- Node134 -->
<g id="node6" class="node">
<title>Node134</title>
<g id="a_node6"><a xlink:href="../../d4/d53/sirius__api_8cpp.html" target="_top" xlink:title="Fortran API. ">
<polygon fill="#ffffff" stroke="#000000" points="593,-.5 593,-19.5 655,-19.5 655,-.5 593,-.5"/>
<text text-anchor="middle" x="624" y="-7.5" font-family="Helvetica,sans-Serif" font-size="10.00" fill="#000000">sirius_api.cpp</text>
</a>
</g>
</g>
<!-- Node133&#45;&gt;Node134 -->
<g id="edge5" class="edge">
<title>Node133&#45;&gt;Node134</title>
<path fill="none" stroke="#191970" d="M452.8661,-57.6791C490.4859,-47.198 554.8124,-29.2762 592.9724,-18.6445"/>
<polygon fill="#191970" stroke="#191970" points="451.7012,-54.3703 443.0075,-60.4258 453.58,-61.1134 451.7012,-54.3703"/>
</g>
<!-- Node135&#45;&gt;Node133 -->
<g id="edge36" class="edge">
<title>Node135&#45;&gt;Node133</title>
<path fill="none" stroke="#191970" d="M820.819,-439.4046C784.7836,-374.2064 662.0216,-157.4732 598,-112 572.9011,-94.1728 483.6531,-76.6792 443.1968,-69.4583"/>
<polygon fill="#191970" stroke="#191970" points="817.7743,-441.1316 825.6633,-448.2037 823.9065,-437.7555 817.7743,-441.1316"/>
</g>
<!-- Node136 -->
<g id="node8" class="node">
<title>Node136</title>
<g id="a_node8"><a xlink:href="../../d8/def/k__point__set_8h.html" target="_top" xlink:title="Contains declaration and partial implementation of sirius::K_point_set class. ">
<polygon fill="#ffffff" stroke="#000000" points="651.5,-392.5 651.5,-411.5 712.5,-411.5 712.5,-392.5 651.5,-392.5"/>
<text text-anchor="middle" x="682" y="-399.5" font-family="Helvetica,sans-Serif" font-size="10.00" fill="#000000">k_point_set.h</text>
</a>
</g>
</g>
<!-- Node135&#45;&gt;Node136 -->
<g id="edge7" class="edge">
<title>Node135&#45;&gt;Node136</title>
<path fill="none" stroke="#191970" d="M797.8716,-445.5491C770.5819,-435.2925 732.4475,-420.9601 707.4949,-411.582"/>
<polygon fill="#191970" stroke="#191970" points="796.7984,-448.8847 807.3905,-449.1266 799.2612,-442.3322 796.7984,-448.8847"/>
</g>
<!-- Node135&#45;&gt;Node140 -->
<g id="edge35" class="edge">
<title>Node135&#45;&gt;Node140</title>
<path fill="none" stroke="#191970" d="M834.4191,-438.4621C844.0707,-383.31 871.2807,-227.8245 878.3204,-187.5977"/>
<polygon fill="#191970" stroke="#191970" points="830.963,-437.9081 832.6867,-448.3618 837.8582,-439.1148 830.963,-437.9081"/>
</g>
<!-- Node135&#45;&gt;Node145 -->
<g id="edge31" class="edge">
<title>Node135&#45;&gt;Node145</title>
<path fill="none" stroke="#191970" d="M847.3174,-440.9746C854.6363,-432.7006 862.9611,-422.3283 869,-412 891.7987,-373.007 907.5529,-320.9158 913.4382,-299.6521"/>
<polygon fill="#191970" stroke="#191970" points="844.6266,-438.7306 840.4558,-448.47 849.7898,-443.4573 844.6266,-438.7306"/>
</g>
<!-- Node136&#45;&gt;Node131 -->
<g id="edge8" class="edge">
<title>Node136&#45;&gt;Node131</title>
<path fill="none" stroke="#191970" d="M681.5686,-382.201C681.5602,-348.2591 684.7728,-277.4572 709,-224 726.8797,-184.5484 764.5266,-148.3075 783.5216,-131.6374"/>
<polygon fill="#191970" stroke="#191970" points="678.0689,-382.256 681.6693,-392.2203 685.0686,-382.1857 678.0689,-382.256"/>
</g>
<!-- Node136&#45;&gt;Node133 -->
<g id="edge30" class="edge">
<title>Node136&#45;&gt;Node133</title>
<path fill="none" stroke="#191970" d="M663.6409,-385.4899C643.2001,-365.2007 613,-328.6797 613,-290 613,-290 613,-290 613,-178 613,-99.8872 492.3481,-75.1456 443.3333,-68.3172"/>
<polygon fill="#191970" stroke="#191970" points="661.2667,-388.0622 670.914,-392.4418 666.1035,-383.002 661.2667,-388.0622"/>
</g>
<!-- Node136&#45;&gt;Node137 -->
<g id="edge9" class="edge">
<title>Node136&#45;&gt;Node137</title>
<path fill="none" stroke="#191970" d="M641.2316,-392.0985C466.9955,-362.4932 268.474,-350.5736 200.8779,-347.1261"/>
<polygon fill="#191970" stroke="#191970" points="640.6374,-395.5476 651.0865,-393.7966 641.8261,-388.6492 640.6374,-395.5476"/>
</g>
<!-- Node141 -->
<g id="node13" class="node">
<title>Node141</title>
<g id="a_node13"><a xlink:href="../../d6/df1/dft__ground__state_8h.html" target="_top" xlink:title="Contains definition and partial implementation of sirius::DFT_ground_state class. ...">
<polygon fill="#ffffff" stroke="#000000" points="277.5,-224.5 277.5,-243.5 356.5,-243.5 356.5,-224.5 277.5,-224.5"/>
<text text-anchor="middle" x="317" y="-231.5" font-family="Helvetica,sans-Serif" font-size="10.00" fill="#000000">dft_ground_state.h</text>
</a>
</g>
</g>
<!-- Node136&#45;&gt;Node141 -->
<g id="edge29" class="edge">
<title>Node136&#45;&gt;Node141</title>
<path fill="none" stroke="#191970" d="M651.9242,-388.1569C579.9861,-355.0457 399.4019,-271.9274 337.8955,-243.6177"/>
<polygon fill="#191970" stroke="#191970" points="650.7828,-391.4845 661.3302,-392.4862 653.7097,-385.1257 650.7828,-391.4845"/>
</g>
<!-- Node137&#45;&gt;Node133 -->
<g id="edge28" class="edge">
<title>Node137&#45;&gt;Node133</title>
<path fill="none" stroke="#191970" d="M155.1191,-330.1611C132.3904,-312.217 98.2023,-280.6561 84,-244 67.0658,-200.2929 64.6499,-157.6131 117,-112 159.9341,-74.5911 341.6106,-67.5943 402.7936,-66.2943"/>
<polygon fill="#191970" stroke="#191970" points="153.1364,-333.0513 163.2034,-336.3539 157.3932,-327.4943 153.1364,-333.0513"/>
</g>
<!-- Node137&#45;&gt;Node138 -->
<g id="edge10" class="edge">
<title>Node137&#45;&gt;Node138</title>
<path fill="none" stroke="#191970" d="M210.2819,-333.8975C238.8383,-323.5134 279.3921,-308.7665 305.4512,-299.2905"/>
<polygon fill="#191970" stroke="#191970" points="208.9268,-330.666 200.725,-337.3727 211.3191,-337.2445 208.9268,-330.666"/>
</g>
<!-- Node137&#45;&gt;Node141 -->
<g id="edge25" class="edge">
<title>Node137&#45;&gt;Node141</title>
<path fill="none" stroke="#191970" d="M204.4718,-331.6357C219.432,-323.2673 237.9135,-312.0146 253,-300 275.224,-282.3012 297.4841,-257.3065 308.9858,-243.7184"/>
<polygon fill="#191970" stroke="#191970" points="202.7631,-328.581 195.6739,-336.4546 206.1258,-334.7204 202.7631,-328.581"/>
</g>
<!-- Node137&#45;&gt;Node142 -->
<g id="edge26" class="edge">
<title>Node137&#45;&gt;Node142</title>
<path fill="none" stroke="#191970" d="M186.1433,-327.3351C200.2359,-300.5 229.7918,-251.256 269,-224 309.2093,-196.048 366.664,-184.802 398.8216,-180.4932"/>
<polygon fill="#191970" stroke="#191970" points="182.9308,-325.9309 181.5114,-336.4302 189.1685,-329.1076 182.9308,-325.9309"/>
</g>
<!-- Node137&#45;&gt;Node143 -->
<g id="edge27" class="edge">
<title>Node137&#45;&gt;Node143</title>
<path fill="none" stroke="#191970" d="M170.3579,-326.9253C161.9322,-302.7284 147.7283,-261.9376 141.3167,-243.5249"/>
<polygon fill="#191970" stroke="#191970" points="167.081,-328.1581 173.6749,-336.4509 173.6917,-325.8561 167.081,-328.1581"/>
</g>
<!-- Node138&#45;&gt;Node133 -->
<g id="edge24" class="edge">
<title>Node138&#45;&gt;Node133</title>
<path fill="none" stroke="#191970" d="M300.2207,-275.1875C288.1793,-267.6585 275.6737,-257.2613 269,-244 265.0042,-236.0599 265.6511,-232.2339 269,-224 297.7186,-153.3904 374.8453,-97.0831 407.767,-75.5092"/>
<polygon fill="#191970" stroke="#191970" points="298.823,-278.4217 309.2342,-280.3857 302.3201,-272.3578 298.823,-278.4217"/>
</g>
<!-- Node138&#45;&gt;Node139 -->
<g id="edge11" class="edge">
<title>Node138&#45;&gt;Node139</title>
<path fill="none" stroke="#191970" d="M366.635,-285.3156C445.5696,-274.9392 634.6806,-250.0795 717.2738,-239.2222"/>
<polygon fill="#191970" stroke="#191970" points="366.1474,-281.8495 356.6889,-286.6231 367.0598,-288.7898 366.1474,-281.8495"/>
</g>
<!-- Node138&#45;&gt;Node140 -->
<g id="edge15" class="edge">
<title>Node138&#45;&gt;Node140</title>
<path fill="none" stroke="#191970" d="M366.742,-282.7084C467.6227,-262.128 753.4003,-203.8273 848.6621,-184.3932"/>
<polygon fill="#191970" stroke="#191970" points="365.8416,-279.3199 356.7431,-284.7482 367.2409,-286.1786 365.8416,-279.3199"/>
</g>
<!-- Node138&#45;&gt;Node141 -->
<g id="edge16" class="edge">
<title>Node138&#45;&gt;Node141</title>
<path fill="none" stroke="#191970" d="M326.1135,-270.4538C323.8451,-261.3803 321.25,-250.9998 319.4107,-243.6427"/>
<polygon fill="#191970" stroke="#191970" points="322.7405,-271.393 328.5614,-280.2455 329.5315,-269.6952 322.7405,-271.393"/>
</g>
<!-- Node138&#45;&gt;Node142 -->
<g id="edge18" class="edge">
<title>Node138&#45;&gt;Node142</title>
<path fill="none" stroke="#191970" d="M345.3525,-272.5274C365.0328,-248.5688 399.7121,-206.3505 415.176,-187.5249"/>
<polygon fill="#191970" stroke="#191970" points="342.4867,-270.5021 338.8439,-280.4509 347.8958,-274.9453 342.4867,-270.5021"/>
</g>
<!-- Node138&#45;&gt;Node143 -->
<g id="edge20" class="edge">
<title>Node138&#45;&gt;Node143</title>
<path fill="none" stroke="#191970" d="M295.4084,-279.6729C259.7934,-269.339 205.4564,-253.5728 170.844,-243.5299"/>
<polygon fill="#191970" stroke="#191970" points="294.7919,-283.1383 305.3711,-282.5636 296.7425,-276.4156 294.7919,-283.1383"/>
</g>
<!-- Node139&#45;&gt;Node131 -->
<g id="edge12" class="edge">
<title>Node139&#45;&gt;Node131</title>
<path fill="none" stroke="#191970" d="M763.4718,-214.9253C771.6815,-190.7284 785.5212,-149.9376 791.7683,-131.5249"/>
<polygon fill="#191970" stroke="#191970" points="760.1385,-213.8566 760.2399,-224.4509 766.7673,-216.1057 760.1385,-213.8566"/>
</g>
<!-- Node139&#45;&gt;Node140 -->
<g id="edge13" class="edge">
<title>Node139&#45;&gt;Node140</title>
<path fill="none" stroke="#191970" d="M787.5065,-220.1109C809.8112,-209.9559 839.4799,-196.4482 859.1315,-187.5011"/>
<polygon fill="#191970" stroke="#191970" points="785.7953,-217.0442 778.1445,-224.3733 788.6959,-223.415 785.7953,-217.0442"/>
</g>
<!-- Node140&#45;&gt;Node131 -->
<g id="edge14" class="edge">
<title>Node140&#45;&gt;Node131</title>
<path fill="none" stroke="#191970" d="M856.4581,-162.49C841.461,-152.6096 822.5027,-140.1194 809.6362,-131.6427"/>
<polygon fill="#191970" stroke="#191970" points="854.9179,-165.6666 865.1941,-168.2455 858.7691,-159.8212 854.9179,-165.6666"/>
</g>
<!-- Node141&#45;&gt;Node133 -->
<g id="edge17" class="edge">
<title>Node141&#45;&gt;Node133</title>
<path fill="none" stroke="#191970" d="M328.5803,-215.6463C350.9871,-180.1336 399.582,-103.1154 416.7991,-75.8279"/>
<polygon fill="#191970" stroke="#191970" points="325.3789,-214.1613 323.0027,-224.4862 331.299,-217.8966 325.3789,-214.1613"/>
</g>
<!-- Node142&#45;&gt;Node133 -->
<g id="edge19" class="edge">
<title>Node142&#45;&gt;Node133</title>
<path fill="none" stroke="#191970" d="M423,-158.2702C423,-133.9985 423,-93.7725 423,-75.5249"/>
<polygon fill="#191970" stroke="#191970" points="419.5001,-158.4509 423,-168.4509 426.5001,-158.451 419.5001,-158.4509"/>
</g>
<!-- Node143&#45;&gt;Node142 -->
<g id="edge21" class="edge">
<title>Node143&#45;&gt;Node142</title>
<path fill="none" stroke="#191970" d="M193.1841,-223.1568C255.3078,-210.95 353.4598,-191.664 398.6963,-182.7755"/>
<polygon fill="#191970" stroke="#191970" points="192.2966,-219.7642 183.1591,-225.1266 193.6463,-226.6328 192.2966,-219.7642"/>
</g>
<!-- Node144 -->
<g id="node16" class="node">
<title>Node144</title>
<g id="a_node16"><a xlink:href="../../d7/dd1/stress_8hpp.html" target="_top" xlink:title="Stress tensor calculation. ">
<polygon fill="#ffffff" stroke="#000000" points="126.5,-112.5 126.5,-131.5 177.5,-131.5 177.5,-112.5 126.5,-112.5"/>
<text text-anchor="middle" x="152" y="-119.5" font-family="Helvetica,sans-Serif" font-size="10.00" fill="#000000">stress.hpp</text>
</a>
</g>
</g>
<!-- Node143&#45;&gt;Node144 -->
<g id="edge22" class="edge">
<title>Node143&#45;&gt;Node144</title>
<path fill="none" stroke="#191970" d="M140.4662,-214.2702C143.5002,-189.9985 148.5284,-149.7725 150.8094,-131.5249"/>
<polygon fill="#191970" stroke="#191970" points="136.9611,-214.094 139.1936,-224.4509 143.907,-214.9623 136.9611,-214.094"/>
</g>
<!-- Node144&#45;&gt;Node133 -->
<g id="edge23" class="edge">
<title>Node144&#45;&gt;Node133</title>
<path fill="none" stroke="#191970" d="M187.6656,-114.013C190.8208,-113.325 193.9668,-112.6457 197,-112 272.7808,-95.8691 363.1214,-77.8427 402.7162,-70.0022"/>
<polygon fill="#191970" stroke="#191970" points="186.6976,-110.6422 177.6834,-116.2095 188.202,-117.4786 186.6976,-110.6422"/>
</g>
<!-- Node145&#45;&gt;Node131 -->
<g id="edge32" class="edge">
<title>Node145&#45;&gt;Node131</title>
<path fill="none" stroke="#191970" d="M923.197,-270.611C931.4602,-244.7175 941.3237,-198.5688 920,-168 918.4166,-165.73 849.2553,-141.1157 814.5051,-128.8565"/>
<polygon fill="#191970" stroke="#191970" points="919.7856,-269.7689 919.8491,-280.3636 926.4064,-272.0417 919.7856,-269.7689"/>
</g>
<!-- Node145&#45;&gt;Node140 -->
<g id="edge33" class="edge">
<title>Node145&#45;&gt;Node140</title>
<path fill="none" stroke="#191970" d="M909.8688,-270.9253C902.0913,-246.7284 888.9799,-205.9376 883.0616,-187.5249"/>
<polygon fill="#191970" stroke="#191970" points="906.5384,-272.0017 912.9307,-280.4509 913.2026,-269.8596 906.5384,-272.0017"/>
</g>
<!-- Node145&#45;&gt;Node141 -->
<g id="edge34" class="edge">
<title>Node145&#45;&gt;Node141</title>
<path fill="none" stroke="#191970" d="M876.0635,-286.2664C767.0832,-276.0779 465.4776,-247.881 356.7351,-237.7148"/>
<polygon fill="#191970" stroke="#191970" points="876.0131,-289.7768 886.2955,-287.223 876.6647,-282.8072 876.0131,-289.7768"/>
</g>
<!-- Node146&#45;&gt;Node135 -->
<g id="edge44" class="edge">
<title>Node146&#45;&gt;Node135</title>
<path fill="none" stroke="#191970" d="M595.1934,-506.1741C644.6807,-497.7263 724.611,-483.3979 793,-468 797.6587,-466.9511 802.6108,-465.7281 807.3476,-464.5047"/>
<polygon fill="#191970" stroke="#191970" points="594.3836,-502.7614 585.1105,-507.8858 595.5553,-509.6627 594.3836,-502.7614"/>
</g>
<!-- Node146&#45;&gt;Node142 -->
<g id="edge51" class="edge">
<title>Node146&#45;&gt;Node142</title>
<path fill="none" stroke="#191970" d="M538.8015,-495.4092C524.611,-464.965 499,-402.2303 499,-346 499,-346 499,-346 499,-290 499,-258.7875 492.5636,-249.802 475,-224 464.962,-209.2536 449.1506,-196.1832 437.5962,-187.7796"/>
<polygon fill="#191970" stroke="#191970" points="535.649,-496.93 543.1226,-504.4398 541.9634,-493.9086 535.649,-496.93"/>
</g>
<!-- Node146&#45;&gt;Node143 -->
<g id="edge52" class="edge">
<title>Node146&#45;&gt;Node143</title>
<path fill="none" stroke="#191970" d="M525.1788,-498.4148C450.146,-447.1729 212.4329,-284.8322 152.0538,-243.5977"/>
<polygon fill="#191970" stroke="#191970" points="523.655,-501.6124 533.8869,-504.3618 527.6027,-495.8318 523.655,-501.6124"/>
</g>
<!-- Node146&#45;&gt;Node147 -->
<g id="edge45" class="edge">
<title>Node146&#45;&gt;Node147</title>
<path fill="none" stroke="#191970" d="M595.4573,-510.4099C671.5831,-504.1003 817.1876,-489.6084 864,-468 923.4716,-440.5482 976.4267,-379.3765 995.4859,-355.6582"/>
<polygon fill="#191970" stroke="#191970" points="594.8771,-506.9454 585.1943,-511.2458 595.4454,-513.9223 594.8771,-506.9454"/>
</g>
<!-- Node148 -->
<g id="node20" class="node">
<title>Node148</title>
<g id="a_node20"><a xlink:href="../../d4/d0f/beta__projectors__gradient_8h.html" target="_top" xlink:title="Contains declaration and implementation of sirius::Beta_projectors_gradient class. ">
<polygon fill="#ffffff" stroke="#000000" points="527,-392.5 527,-411.5 633,-411.5 633,-392.5 527,-392.5"/>
<text text-anchor="middle" x="580" y="-399.5" font-family="Helvetica,sans-Serif" font-size="10.00" fill="#000000">beta_projectors_gradient.h</text>
</a>
</g>
</g>
<!-- Node146&#45;&gt;Node148 -->
<g id="edge49" class="edge">
<title>Node146&#45;&gt;Node148</title>
<path fill="none" stroke="#191970" d="M553.5432,-494.5987C560.4677,-470.363 572.0414,-429.8551 577.2786,-411.5249"/>
<polygon fill="#191970" stroke="#191970" points="550.1102,-493.8742 550.7283,-504.4509 556.8409,-495.7972 550.1102,-493.8742"/>
</g>
<!-- Node147&#45;&gt;Node131 -->
<g id="edge46" class="edge">
<title>Node147&#45;&gt;Node131</title>
<path fill="none" stroke="#191970" d="M1001.3571,-325.9731C997.2824,-289.385 983.4747,-211.506 938,-168 899.6074,-131.2696 874.4529,-148.6619 824,-132 820.9658,-130.998 817.7608,-129.9163 814.6319,-128.8474"/>
<polygon fill="#191970" stroke="#191970" points="997.9106,-326.693 1002.3658,-336.3055 1004.8775,-326.0127 997.9106,-326.693"/>
</g>
<!-- Node147&#45;&gt;Node140 -->
<g id="edge48" class="edge">
<title>Node147&#45;&gt;Node140</title>
<path fill="none" stroke="#191970" d="M989.8593,-327.878C980.2269,-314.6073 966.8235,-296.1684 955,-280 930.0889,-245.9348 900.357,-205.5924 887.0479,-187.5503"/>
<polygon fill="#191970" stroke="#191970" points="987.1542,-330.1096 995.8597,-336.1483 992.8201,-325.9989 987.1542,-330.1096"/>
</g>
<!-- Node147&#45;&gt;Node145 -->
<g id="edge47" class="edge">
<title>Node147&#45;&gt;Node145</title>
<path fill="none" stroke="#191970" d="M979.3375,-330.769C963.9209,-320.8456 944.274,-308.1994 930.9806,-299.6427"/>
<polygon fill="#191970" stroke="#191970" points="977.5427,-333.7761 987.8458,-336.2455 981.3315,-327.89 977.5427,-333.7761"/>
</g>
<!-- Node148&#45;&gt;Node142 -->
<g id="edge50" class="edge">
<title>Node148&#45;&gt;Node142</title>
<path fill="none" stroke="#191970" d="M577.3069,-382.1583C571.5274,-346.4869 554.8844,-270.8826 513,-224 495.3468,-204.2402 467.2065,-191.7867 447.0923,-184.895"/>
<polygon fill="#191970" stroke="#191970" points="573.8758,-382.8792 578.8199,-392.2497 580.7984,-381.8413 573.8758,-382.8792"/>
</g>
<!-- Node149&#45;&gt;Node133 -->
<g id="edge61" class="edge">
<title>Node149&#45;&gt;Node133</title>
<path fill="none" stroke="#191970" d="M822.4212,-111.8772C671.4498,-86.2726 500.7865,-71.9308 443.1438,-67.4914"/>
<polygon fill="#191970" stroke="#191970" points="821.8874,-115.3367 832.3356,-113.5801 823.0724,-108.4377 821.8874,-115.3367"/>
</g>
<!-- Node149&#45;&gt;Node134 -->
<g id="edge62" class="edge">
<title>Node149&#45;&gt;Node134</title>
<path fill="none" stroke="#191970" d="M865.2344,-102.0945C862.844,-87.2522 857.2213,-67.6146 844,-56 816.2238,-31.5992 709.0211,-18.1175 655.2002,-12.7598"/>
<polygon fill="#191970" stroke="#191970" points="861.796,-102.8065 866.5046,-112.2975 868.7423,-101.9417 861.796,-102.8065"/>
</g>
</g>
</svg>
        <g id="navigator" transform="translate(0 0)" fill="#404254">
                <rect fill="#f2f5e9" fill-opacity="0.5" stroke="#606060" stroke-width=".5" x="0" y="0" width="60" height="60"/>
                <use id="zoomplus" xlink:href="#zoomPlus" x="17" y="9" onmousedown="handleZoom(evt,'in')"/>
                <use id="zoomminus" xlink:href="#zoomMin" x="42" y="9" onmousedown="handleZoom(evt,'out')"/>
                <use id="reset" xlink:href="#resetDef" x="30" y="36" onmousedown="handleReset()"/>
                <g id="arrowUp" xlink:href="#dirArrow" transform="translate(30 24)" onmousedown="handlePan(0,-1)">
                  <use xlink:href="#rim" fill="#404040">
                        <set attributeName="fill" to="#808080" begin="arrowUp.mouseover" end="arrowUp.mouseout"/>
                  </use>
                  <path fill="none" stroke="white" stroke-width="1.5" d="M0,-3.0v7 M-2.5,-0.5L0,-3.0L2.5,-0.5"/>
                </g>
                <g id="arrowRight" xlink:href="#dirArrow" transform="rotate(90) translate(36 -43)" onmousedown="handlePan(1,0)">
                  <use xlink:href="#rim" fill="#404040">
                        <set attributeName="fill" to="#808080" begin="arrowRight.mouseover" end="arrowRight.mouseout"/>
                  </use>
                  <path fill="none" stroke="white" stroke-width="1.5" d="M0,-3.0v7 M-2.5,-0.5L0,-3.0L2.5,-0.5"/>
                </g>
                <g id="arrowDown" xlink:href="#dirArrow" transform="rotate(180) translate(-30 -48)" onmousedown="handlePan(0,1)">
                  <use xlink:href="#rim" fill="#404040">
                        <set attributeName="fill" to="#808080" begin="arrowDown.mouseover" end="arrowDown.mouseout"/>
                  </use>
                  <path fill="none" stroke="white" stroke-width="1.5" d="M0,-3.0v7 M-2.5,-0.5L0,-3.0L2.5,-0.5"/>
                </g>
                <g id="arrowLeft" xlink:href="#dirArrow" transform="rotate(270) translate(-36 17)" onmousedown="handlePan(-1,0)">
                  <use xlink:href="#rim" fill="#404040">
                        <set attributeName="fill" to="#808080" begin="arrowLeft.mouseover" end="arrowLeft.mouseout"/>
                  </use>
                  <path fill="none" stroke="white" stroke-width="1.5" d="M0,-3.0v7 M-2.5,-0.5L0,-3.0L2.5,-0.5"/>
                </g>
        </g>
        <svg viewBox="0 0 15 15" width="100%" height="30px" preserveAspectRatio="xMaxYMin meet">
         <g id="arrow_out" transform="scale(0.3 0.3)">
          <a xlink:href="simulation__context_8h__dep__incl_org.svg" target="_base">
           <rect id="button" ry="5" rx="5" y="6" x="6" height="38" width="38"
                fill="#f2f5e9" fill-opacity="0.5" stroke="#606060" stroke-width="1.0"/>
           <path id="arrow"
             d="M 11.500037,31.436501 C 11.940474,20.09759 22.043105,11.32322 32.158766,21.979434 L 37.068811,17.246167 C 37.068811,17.246167 37.088388,32 37.088388,32 L 22.160133,31.978069 C 22.160133,31.978069 26.997745,27.140456 26.997745,27.140456 C 18.528582,18.264221 13.291696,25.230495 11.500037,31.436501 z"
             style="fill:#404040;"/>
          </a>
         </g>
        </svg>
</svg>
