<?xml version="1.0" encoding="UTF-8" standalone="no"?>
<!DOCTYPE svg PUBLIC "-//W3C//DTD SVG 1.1//EN"
 "http://www.w3.org/Graphics/SVG/1.1/DTD/svg11.dtd">
<!-- Generated by graphviz version 2.40.1 (20161225.0304)
 -->
<!-- Title: sddk::Wave_functions Pages: 1 -->
<svg width="1003pt" height="547pt"
 viewBox="0.00 0.00 1003.00 546.50" xmlns="http://www.w3.org/2000/svg" xmlns:xlink="http://www.w3.org/1999/xlink">
<g id="graph0" class="graph" transform="scale(1 1) rotate(0) translate(4 542.5)">
<title>sddk::Wave_functions</title>
<polygon fill="#ffffff" stroke="transparent" points="-4,4 -4,-542.5 999,-542.5 999,4 -4,4"/>
<!-- Node1 -->
<g id="node1" class="node">
<title>Node1</title>
<g id="a_node1"><a xlink:title="Wave&#45;functions representation.">
<polygon fill="#bfbfbf" stroke="#000000" points="881,-117 881,-136 995,-136 995,-117 881,-117"/>
<text text-anchor="middle" x="938" y="-124" font-family="Helvetica,sans-Serif" font-size="10.00" fill="#000000">sddk::Wave_functions</text>
</a>
</g>
</g>
<!-- Node2 -->
<g id="node2" class="node">
<title>Node2</title>
<g id="a_node2"><a xlink:href="../../db/dea/structsddk_1_1block__data__descriptor.html" target="_top" xlink:title=" ">
<polygon fill="#ffffff" stroke="#000000" points="134,-219 134,-238 275,-238 275,-219 134,-219"/>
<text text-anchor="middle" x="204.5" y="-226" font-family="Helvetica,sans-Serif" font-size="10.00" fill="#000000">sddk::block_data_descriptor</text>
</a>
</g>
</g>
<!-- Node2&#45;&gt;Node1 -->
<g id="edge1" class="edge">
<title>Node2&#45;&gt;Node1</title>
<path fill="none" stroke="#9a32cd" stroke-dasharray="5,2" d="M285.2541,-217.6603C369.554,-206.3074 505.5839,-187.8828 623,-171.5 713.1392,-158.9231 817.7206,-143.8967 880.8233,-134.7825"/>
<polygon fill="#9a32cd" stroke="#9a32cd" points="284.6784,-214.2061 275.2348,-219.0091 285.6124,-221.1436 284.6784,-214.2061"/>
<text text-anchor="middle" x="584.5" y="-184.5" font-family="Helvetica,sans-Serif" font-size="10.00" fill="#000000"> mt_coeffs_distr_</text>
</g>
<!-- Node4 -->
<g id="node4" class="node">
<title>Node4</title>
<g id="a_node4"><a xlink:href="../../d7/def/classsddk_1_1_gvec__partition.html" target="_top" xlink:title="Stores information about G&#45;vector partitioning between MPI ranks for the FFT transformation.">
<polygon fill="#ffffff" stroke="#000000" points="649.5,-226 649.5,-245 757.5,-245 757.5,-226 649.5,-226"/>
<text text-anchor="middle" x="703.5" y="-233" font-family="Helvetica,sans-Serif" font-size="10.00" fill="#000000">sddk::Gvec_partition</text>
</a>
</g>
</g>
<!-- Node2&#45;&gt;Node4 -->
<g id="edge6" class="edge">
<title>Node2&#45;&gt;Node4</title>
<path fill="none" stroke="#9a32cd" stroke-dasharray="5,2" d="M285.4941,-229.6362C387.9097,-231.0729 561.4411,-233.5072 649.2077,-234.7384"/>
<polygon fill="#9a32cd" stroke="#9a32cd" points="285.2483,-226.1325 275.2002,-229.4918 285.1501,-233.1318 285.2483,-226.1325"/>
<text text-anchor="middle" x="468.5" y="-257.5" font-family="Helvetica,sans-Serif" font-size="10.00" fill="#000000"> gvec_distr_fft_</text>
<text text-anchor="middle" x="468.5" y="-246.5" font-family="Helvetica,sans-Serif" font-size="10.00" fill="#000000">gvec_fft_slab_</text>
<text text-anchor="middle" x="468.5" y="-235.5" font-family="Helvetica,sans-Serif" font-size="10.00" fill="#000000">zcol_distr_fft_</text>
</g>
<!-- Node7 -->
<g id="node7" class="node">
<title>Node7</title>
<g id="a_node7"><a xlink:href="../../dc/d9b/classsddk_1_1_gvec.html" target="_top" xlink:title="A set of G&#45;vectors for FFTs and G+k basis functions.">
<polygon fill="#ffffff" stroke="#000000" points="435,-331 435,-350 502,-350 502,-331 435,-331"/>
<text text-anchor="middle" x="468.5" y="-338" font-family="Helvetica,sans-Serif" font-size="10.00" fill="#000000">sddk::Gvec</text>
</a>
</g>
</g>
<!-- Node2&#45;&gt;Node7 -->
<g id="edge12" class="edge">
<title>Node2&#45;&gt;Node7</title>
<path fill="none" stroke="#9a32cd" stroke-dasharray="5,2" d="M263.1816,-240.2767C300.9234,-249.1708 350.3309,-263.3272 391,-283.5 417.0348,-296.4139 443.4816,-318.1055 457.7529,-330.6768"/>
<polygon fill="#9a32cd" stroke="#9a32cd" points="263.8877,-236.8478 253.3577,-238.0179 262.319,-243.6698 263.8877,-236.8478"/>
<text text-anchor="middle" x="342" y="-297.5" font-family="Helvetica,sans-Serif" font-size="10.00" fill="#000000"> gvec_distr_</text>
<text text-anchor="middle" x="342" y="-286.5" font-family="Helvetica,sans-Serif" font-size="10.00" fill="#000000">zcol_distr_</text>
</g>
<!-- Node3 -->
<g id="node3" class="node">
<title>Node3</title>
<g id="a_node3"><a xlink:href="../../da/d70/classsddk_1_1_communicator.html" target="_top" xlink:title="MPI communicator wrapper.">
<polygon fill="#ffffff" stroke="#000000" points="150.5,-96 150.5,-115 258.5,-115 258.5,-96 150.5,-96"/>
<text text-anchor="middle" x="204.5" y="-103" font-family="Helvetica,sans-Serif" font-size="10.00" fill="#000000">sddk::Communicator</text>
</a>
</g>
</g>
<!-- Node3&#45;&gt;Node1 -->
<g id="edge2" class="edge">
<title>Node3&#45;&gt;Node1</title>
<path fill="none" stroke="#9a32cd" stroke-dasharray="5,2" d="M242.1821,-92.9176C257.7272,-88.3499 276.0425,-83.7585 293,-81.5 336.1743,-75.7497 347.4447,-81.341 391,-81.5 451.8901,-81.7222 467.2052,-79.0866 528,-82.5 654.3351,-89.5933 801.6634,-107.8663 880.7731,-118.5"/>
<polygon fill="#9a32cd" stroke="#9a32cd" points="240.9571,-89.6318 232.4088,-95.8911 242.9946,-96.3287 240.9571,-89.6318"/>
<text text-anchor="middle" x="584.5" y="-92.5" font-family="Helvetica,sans-Serif" font-size="10.00" fill="#000000"> comm_</text>
</g>
<!-- Node3&#45;&gt;Node4 -->
<g id="edge7" class="edge">
<title>Node3&#45;&gt;Node4</title>
<path fill="none" stroke="#9a32cd" stroke-dasharray="5,2" d="M264.5878,-94.4806C351.2058,-81.9696 512.8278,-71.5764 623,-142.5 657.8337,-164.9243 686.1021,-206.7698 697.7514,-225.7234"/>
<polygon fill="#9a32cd" stroke="#9a32cd" points="264.029,-91.0252 254.6598,-95.9718 265.0687,-97.9476 264.029,-91.0252"/>
<text text-anchor="middle" x="468.5" y="-115.5" font-family="Helvetica,sans-Serif" font-size="10.00" fill="#000000"> comm_ortho_fft_</text>
<text text-anchor="middle" x="468.5" y="-104.5" font-family="Helvetica,sans-Serif" font-size="10.00" fill="#000000">fft_comm_</text>
</g>
<!-- Node3&#45;&gt;Node7 -->
<g id="edge14" class="edge">
<title>Node3&#45;&gt;Node7</title>
<path fill="none" stroke="#9a32cd" stroke-dasharray="5,2" d="M235.0483,-119.5138C275.6736,-139.5354 347.4109,-179.9129 391,-233.5 404.0736,-249.5722 397.7727,-259.0879 409,-276.5 422.8119,-297.9206 444.1202,-318.7892 457.1376,-330.6052"/>
<polygon fill="#9a32cd" stroke="#9a32cd" points="236.4346,-116.2964 225.9081,-115.0946 233.3876,-122.5985 236.4346,-116.2964"/>
<text text-anchor="middle" x="342" y="-236.5" font-family="Helvetica,sans-Serif" font-size="10.00" fill="#000000"> comm_</text>
</g>
<!-- Node4&#45;&gt;Node1 -->
<g id="edge3" class="edge">
<title>Node4&#45;&gt;Node1</title>
<path fill="none" stroke="#9a32cd" stroke-dasharray="5,2" d="M767.737,-233.0879C798.1301,-229.6933 834.021,-222.2843 863,-206.5 894.7657,-189.1979 920.6923,-153.5112 931.9494,-136.2603"/>
<polygon fill="#9a32cd" stroke="#9a32cd" points="767.2624,-229.6178 757.6585,-234.0915 767.9561,-236.5833 767.2624,-229.6178"/>
<text text-anchor="middle" x="823.5" y="-232.5" font-family="Helvetica,sans-Serif" font-size="10.00" fill="#000000"> gkvecp_</text>
</g>
<!-- Node5 -->
<g id="node5" class="node">
<title>Node5</title>
<g id="a_node5"><a xlink:href="../../d7/dab/classsddk_1_1mdarray.html" target="_top" xlink:title=" ">
<polygon fill="#ffffff" stroke="#000000" points="409,-146 409,-165 528,-165 528,-146 409,-146"/>
<text text-anchor="middle" x="468.5" y="-153" font-family="Helvetica,sans-Serif" font-size="10.00" fill="#000000">sddk::mdarray&lt; int, 2 &gt;</text>
</a>
</g>
</g>
<!-- Node5&#45;&gt;Node4 -->
<g id="edge4" class="edge">
<title>Node5&#45;&gt;Node4</title>
<path fill="none" stroke="#9a32cd" stroke-dasharray="5,2" d="M538.4124,-147.4658C565.715,-146.9336 596.7111,-149.657 623,-160.5 656.5508,-174.3382 684.6424,-208.9485 696.8972,-225.8746"/>
<polygon fill="#9a32cd" stroke="#9a32cd" points="538.0205,-143.9771 528.1468,-147.819 538.2613,-150.973 538.0205,-143.9771"/>
<text text-anchor="middle" x="584.5" y="-163.5" font-family="Helvetica,sans-Serif" font-size="10.00" fill="#000000"> rank_map_</text>
</g>
<!-- Node6 -->
<g id="node6" class="node">
<title>Node6</title>
<g id="a_node6"><a xlink:href="../../d7/dab/classsddk_1_1mdarray.html" target="_top" xlink:title=" ">
<polygon fill="#ffffff" stroke="#000000" points="145,-509 145,-528 264,-528 264,-509 145,-509"/>
<text text-anchor="middle" x="204.5" y="-516" font-family="Helvetica,sans-Serif" font-size="10.00" fill="#000000">sddk::mdarray&lt; int, 1 &gt;</text>
</a>
</g>
</g>
<!-- Node6&#45;&gt;Node4 -->
<g id="edge5" class="edge">
<title>Node6&#45;&gt;Node4</title>
<path fill="none" stroke="#9a32cd" stroke-dasharray="5,2" d="M274.7532,-528.391C310.6224,-530.7309 354.3139,-529.3104 391,-515.5 543.371,-458.1403 667.8788,-287.517 697.0364,-245.1191"/>
<polygon fill="#9a32cd" stroke="#9a32cd" points="274.6119,-524.87 264.3739,-527.5964 274.0776,-531.8496 274.6119,-524.87"/>
<text text-anchor="middle" x="468.5" y="-530.5" font-family="Helvetica,sans-Serif" font-size="10.00" fill="#000000"> zcol_offs_</text>
<text text-anchor="middle" x="468.5" y="-519.5" font-family="Helvetica,sans-Serif" font-size="10.00" fill="#000000">idx_zcol_</text>
<text text-anchor="middle" x="468.5" y="-508.5" font-family="Helvetica,sans-Serif" font-size="10.00" fill="#000000">idx_gvec_</text>
</g>
<!-- Node6&#45;&gt;Node7 -->
<g id="edge11" class="edge">
<title>Node6&#45;&gt;Node7</title>
<path fill="none" stroke="#9a32cd" stroke-dasharray="5,2" d="M246.9343,-506.0963C261.5,-501.9498 277.9285,-497.3952 293,-493.5 336.3157,-482.305 354.8989,-496.9252 391,-470.5 434.4653,-438.6844 458.0151,-374.4609 465.6732,-350.1345"/>
<polygon fill="#9a32cd" stroke="#9a32cd" points="245.8368,-502.7699 237.1875,-508.8888 247.7648,-509.4992 245.8368,-502.7699"/>
<text text-anchor="middle" x="342" y="-507.5" font-family="Helvetica,sans-Serif" font-size="10.00" fill="#000000"> gvec_shell_</text>
<text text-anchor="middle" x="342" y="-496.5" font-family="Helvetica,sans-Serif" font-size="10.00" fill="#000000">gvec_base_mapping_</text>
</g>
<!-- Node7&#45;&gt;Node4 -->
<g id="edge8" class="edge">
<title>Node7&#45;&gt;Node4</title>
<path fill="none" stroke="#9a32cd" stroke-dasharray="5,2" d="M499.0944,-326.8301C547.4301,-305.2334 640.259,-263.7566 682.1096,-245.0574"/>
<polygon fill="#9a32cd" stroke="#9a32cd" points="497.4714,-323.7218 489.7692,-330.9968 500.3271,-330.1128 497.4714,-323.7218"/>
<text text-anchor="middle" x="584.5" y="-306.5" font-family="Helvetica,sans-Serif" font-size="10.00" fill="#000000"> gvec_</text>
</g>
<!-- Node7&#45;&gt;Node7 -->
<g id="edge15" class="edge">
<title>Node7&#45;&gt;Node7</title>
<path fill="none" stroke="#9a32cd" stroke-dasharray="5,2" d="M447.0196,-359.9C448.4541,-364.8146 455.6143,-368.5 468.5,-368.5 489.1172,-368.5 495.0768,-359.0653 486.379,-350.2571"/>
<polygon fill="#9a32cd" stroke="#9a32cd" points="450.401,-360.8496 450.621,-350.2571 443.8434,-358.4004 450.401,-360.8496"/>
<text text-anchor="middle" x="468.5" y="-371.5" font-family="Helvetica,sans-Serif" font-size="10.00" fill="#000000"> gvec_base_</text>
</g>
<!-- Node8 -->
<g id="node8" class="node">
<title>Node8</title>
<g id="a_node8"><a xlink:href="../../d7/dab/classsddk_1_1mdarray.html" target="_top" xlink:title=" ">
<polygon fill="#ffffff" stroke="#000000" points="145,-457 145,-476 264,-476 264,-457 145,-457"/>
<text text-anchor="middle" x="204.5" y="-464" font-family="Helvetica,sans-Serif" font-size="10.00" fill="#000000">sddk::mdarray&lt; int, 3 &gt;</text>
</a>
</g>
</g>
<!-- Node8&#45;&gt;Node7 -->
<g id="edge9" class="edge">
<title>Node8&#45;&gt;Node7</title>
<path fill="none" stroke="#9a32cd" stroke-dasharray="5,2" d="M274.5463,-458.7202C318.8717,-452.8525 371.388,-443.8736 391,-432.5 426.2286,-412.0699 452.7553,-369.384 463.3968,-350.2014"/>
<polygon fill="#9a32cd" stroke="#9a32cd" points="273.8269,-455.2839 264.3567,-460.0344 274.7223,-462.2264 273.8269,-455.2839"/>
<text text-anchor="middle" x="342" y="-458.5" font-family="Helvetica,sans-Serif" font-size="10.00" fill="#000000"> gvec_index_by_xy_</text>
</g>
<!-- Node9 -->
<g id="node9" class="node">
<title>Node9</title>
<g id="a_node9"><a xlink:href="../../d7/dab/classsddk_1_1mdarray.html" target="_top" xlink:title=" ">
<polygon fill="#ffffff" stroke="#000000" points="135.5,-419 135.5,-438 273.5,-438 273.5,-419 135.5,-419"/>
<text text-anchor="middle" x="204.5" y="-426" font-family="Helvetica,sans-Serif" font-size="10.00" fill="#000000">sddk::mdarray&lt; double, 1 &gt;</text>
</a>
</g>
</g>
<!-- Node9&#45;&gt;Node7 -->
<g id="edge10" class="edge">
<title>Node9&#45;&gt;Node7</title>
<path fill="none" stroke="#9a32cd" stroke-dasharray="5,2" d="M284.0471,-420.2931C317.9108,-414.9964 357.29,-406.3894 391,-392.5 416.7675,-381.8832 442.8947,-362.0591 457.2663,-350.1926"/>
<polygon fill="#9a32cd" stroke="#9a32cd" points="283.1012,-416.8954 273.7272,-421.8328 284.1342,-423.8188 283.1012,-416.8954"/>
<text text-anchor="middle" x="342" y="-420.5" font-family="Helvetica,sans-Serif" font-size="10.00" fill="#000000"> gvec_shell_len_</text>
</g>
<!-- Node10 -->
<g id="node10" class="node">
<title>Node10</title>
<g id="a_node10"><a xlink:href="../../d7/dab/classsddk_1_1mdarray.html" target="_top" xlink:title=" ">
<polygon fill="#ffffff" stroke="#000000" points="146.5,-369.5 146.5,-399.5 262.5,-399.5 262.5,-369.5 146.5,-369.5"/>
<text text-anchor="start" x="154.5" y="-387.5" font-family="Helvetica,sans-Serif" font-size="10.00" fill="#000000">sddk::mdarray&lt; uint32</text>
<text text-anchor="middle" x="204.5" y="-376.5" font-family="Helvetica,sans-Serif" font-size="10.00" fill="#000000">_t, 1 &gt;</text>
</a>
</g>
</g>
<!-- Node10&#45;&gt;Node7 -->
<g id="edge13" class="edge">
<title>Node10&#45;&gt;Node7</title>
<path fill="none" stroke="#9a32cd" stroke-dasharray="5,2" d="M273.1132,-379.6882C308.5482,-376.4695 352.3466,-371.348 391,-363.5 407.7802,-360.093 426.1679,-354.7098 440.82,-350.0076"/>
<polygon fill="#9a32cd" stroke="#9a32cd" points="272.5327,-376.2256 262.877,-380.5866 273.1447,-383.1988 272.5327,-376.2256"/>
<text text-anchor="middle" x="342" y="-380.5" font-family="Helvetica,sans-Serif" font-size="10.00" fill="#000000"> gvec_full_index_</text>
</g>
<!-- Node11 -->
<g id="node11" class="node">
<title>Node11</title>
<g id="a_node11"><a xlink:href="../../d7/dab/classsddk_1_1mdarray.html" target="_top" xlink:title=" ">
<polygon fill="#ffffff" stroke="#000000" points="135.5,-331 135.5,-350 273.5,-350 273.5,-331 135.5,-331"/>
<text text-anchor="middle" x="204.5" y="-338" font-family="Helvetica,sans-Serif" font-size="10.00" fill="#000000">sddk::mdarray&lt; double, 2 &gt;</text>
</a>
</g>
</g>
<!-- Node11&#45;&gt;Node7 -->
<g id="edge16" class="edge">
<title>Node11&#45;&gt;Node7</title>
<path fill="none" stroke="#9a32cd" stroke-dasharray="5,2" d="M283.7615,-340.5C334.2299,-340.5 397.0081,-340.5 434.8569,-340.5"/>
<polygon fill="#9a32cd" stroke="#9a32cd" points="283.5181,-337.0001 273.5181,-340.5 283.518,-344.0001 283.5181,-337.0001"/>
<text text-anchor="middle" x="342" y="-354.5" font-family="Helvetica,sans-Serif" font-size="10.00" fill="#000000"> gkvec_cart_</text>
<text text-anchor="middle" x="342" y="-343.5" font-family="Helvetica,sans-Serif" font-size="10.00" fill="#000000">gvec_cart_</text>
</g>
<!-- Node12 -->
<g id="node12" class="node">
<title>Node12</title>
<g id="a_node12"><a xlink:href="../../d2/d6b/classgeometry3d_1_1vector3d.html" target="_top" xlink:title=" ">
<polygon fill="#ffffff" stroke="#000000" points="148,-281.5 148,-311.5 261,-311.5 261,-281.5 148,-281.5"/>
<text text-anchor="start" x="156" y="-299.5" font-family="Helvetica,sans-Serif" font-size="10.00" fill="#000000">geometry3d::vector3d</text>
<text text-anchor="middle" x="204.5" y="-288.5" font-family="Helvetica,sans-Serif" font-size="10.00" fill="#000000">&lt; double &gt;</text>
</a>
</g>
</g>
<!-- Node12&#45;&gt;Node7 -->
<g id="edge17" class="edge">
<title>Node12&#45;&gt;Node7</title>
<path fill="none" stroke="#9a32cd" stroke-dasharray="5,2" d="M271.569,-306.3168C307.1145,-311.674 351.4841,-318.606 391,-325.5 405.4457,-328.0202 421.3548,-331.0541 434.9803,-333.7321"/>
<polygon fill="#9a32cd" stroke="#9a32cd" points="271.7225,-302.8007 261.3138,-304.7779 270.6836,-309.7232 271.7225,-302.8007"/>
<text text-anchor="middle" x="342" y="-328.5" font-family="Helvetica,sans-Serif" font-size="10.00" fill="#000000"> vk_</text>
</g>
<!-- Node13 -->
<g id="node13" class="node">
<title>Node13</title>
<g id="a_node13"><a xlink:title=" ">
<polygon fill="#ffffff" stroke="#bfbfbf" points="0,-281.5 0,-311.5 97,-311.5 97,-281.5 0,-281.5"/>
<text text-anchor="start" x="8" y="-299.5" font-family="Helvetica,sans-Serif" font-size="10.00" fill="#000000">std::array&lt; double</text>
<text text-anchor="middle" x="48.5" y="-288.5" font-family="Helvetica,sans-Serif" font-size="10.00" fill="#000000"> , 3 &gt;</text>
</a>
</g>
</g>
<!-- Node13&#45;&gt;Node12 -->
<g id="edge18" class="edge">
<title>Node13&#45;&gt;Node12</title>
<path fill="none" stroke="#191970" d="M107.03,-296.5C120.3849,-296.5 134.5533,-296.5 147.8288,-296.5"/>
<polygon fill="#191970" stroke="#191970" points="107.0043,-293.0001 97.0042,-296.5 107.0042,-300.0001 107.0043,-293.0001"/>
</g>
<!-- Node14 -->
<g id="node14" class="node">
<title>Node14</title>
<g id="a_node14"><a xlink:href="../../d2/dc9/classsddk_1_1splindex.html" target="_top" xlink:title=" ">
<polygon fill="#ffffff" stroke="#000000" points="641,-.5 641,-30.5 766,-30.5 766,-.5 641,-.5"/>
<text text-anchor="start" x="649" y="-18.5" font-family="Helvetica,sans-Serif" font-size="10.00" fill="#000000">sddk::splindex&lt; splindex</text>
<text text-anchor="middle" x="703.5" y="-7.5" font-family="Helvetica,sans-Serif" font-size="10.00" fill="#000000">_t::block &gt;</text>
</a>
</g>
</g>
<!-- Node14&#45;&gt;Node1 -->
<g id="edge19" class="edge">
<title>Node14&#45;&gt;Node1</title>
<path fill="none" stroke="#9a32cd" stroke-dasharray="5,2" d="M776.5841,-12.7347C805.0413,-14.5067 836.9921,-20.2004 863,-34.5 898.393,-53.9598 923.5541,-97.5505 933.4042,-116.9147"/>
<polygon fill="#9a32cd" stroke="#9a32cd" points="776.4286,-9.2237 766.2754,-12.2507 776.1002,-16.216 776.4286,-9.2237"/>
<text text-anchor="middle" x="823.5" y="-37.5" font-family="Helvetica,sans-Serif" font-size="10.00" fill="#000000"> spl_num_atoms_</text>
</g>
<!-- Node15 -->
<g id="node15" class="node">
<title>Node15</title>
<g id="a_node15"><a xlink:href="../../d6/dec/classsddk_1_1splindex__base.html" target="_top" xlink:title=" ">
<polygon fill="#ffffff" stroke="#000000" points="415,-.5 415,-30.5 522,-30.5 522,-.5 415,-.5"/>
<text text-anchor="start" x="423" y="-18.5" font-family="Helvetica,sans-Serif" font-size="10.00" fill="#000000">sddk::splindex_base</text>
<text text-anchor="middle" x="468.5" y="-7.5" font-family="Helvetica,sans-Serif" font-size="10.00" fill="#000000">&lt; int &gt;</text>
</a>
</g>
</g>
<!-- Node15&#45;&gt;Node14 -->
<g id="edge20" class="edge">
<title>Node15&#45;&gt;Node14</title>
<path fill="none" stroke="#191970" d="M532.3386,-15.5C566.1009,-15.5 607.3911,-15.5 640.9577,-15.5"/>
<polygon fill="#191970" stroke="#191970" points="532.1192,-12.0001 522.1192,-15.5 532.1192,-19.0001 532.1192,-12.0001"/>
</g>
</g>
</svg>
