<?xml version="1.0" encoding="UTF-8" standalone="no"?>
<!DOCTYPE svg PUBLIC "-//W3C//DTD SVG 1.1//EN"
 "http://www.w3.org/Graphics/SVG/1.1/DTD/svg11.dtd">
<!-- Generated by graphviz version 2.40.1 (20161225.0304)
 -->
<!-- Title: sddk::nlohmann::detail::is_compatible_type&lt; BasicJsonType, CompatibleType &gt; Pages: 1 -->
<svg width="409pt" height="72pt"
 viewBox="0.00 0.00 409.00 72.00" xmlns="http://www.w3.org/2000/svg" xmlns:xlink="http://www.w3.org/1999/xlink">
<g id="graph0" class="graph" transform="scale(1 1) rotate(0) translate(4 68)">
<title>sddk::nlohmann::detail::is_compatible_type&lt; BasicJsonType, CompatibleType &gt;</title>
<polygon fill="#ffffff" stroke="transparent" points="-4,4 -4,-68 405,-68 405,4 -4,4"/>
<!-- Node3 -->
<g id="node1" class="node">
<title>Node3</title>
<polygon fill="#bfbfbf" stroke="#000000" points="266,-11.5 266,-52.5 401,-52.5 401,-11.5 266,-11.5"/>
<text text-anchor="start" x="274" y="-40.5" font-family="Helvetica,sans-Serif" font-size="10.00" fill="#000000">sddk::nlohmann::detail</text>
<text text-anchor="start" x="274" y="-29.5" font-family="Helvetica,sans-Serif" font-size="10.00" fill="#000000">::is_compatible_type&lt;</text>
<text text-anchor="middle" x="333.5" y="-18.5" font-family="Helvetica,sans-Serif" font-size="10.00" fill="#000000"> BasicJsonType, CompatibleType &gt;</text>
</g>
<!-- Node4 -->
<g id="node2" class="node">
<title>Node4</title>
<g id="a_node2"><a xlink:href="../../d9/d8e/structsddk_1_1nlohmann_1_1detail_1_1conjunction.html" target="_top" xlink:title="sddk::nlohmann::detail\l::conjunction\&lt; is_complete\l_type\&lt; CompatibleType \&gt;,\l is_compatible_complete_type\l\&lt; BasicJsonType, CompatibleType \&gt; \&gt;">
<polygon fill="#ffffff" stroke="#000000" points="84,-.5 84,-63.5 230,-63.5 230,-.5 84,-.5"/>
<text text-anchor="start" x="92" y="-51.5" font-family="Helvetica,sans-Serif" font-size="10.00" fill="#000000">sddk::nlohmann::detail</text>
<text text-anchor="start" x="92" y="-40.5" font-family="Helvetica,sans-Serif" font-size="10.00" fill="#000000">::conjunction&lt; is_complete</text>
<text text-anchor="start" x="92" y="-29.5" font-family="Helvetica,sans-Serif" font-size="10.00" fill="#000000">_type&lt; CompatibleType &gt;,</text>
<text text-anchor="start" x="92" y="-18.5" font-family="Helvetica,sans-Serif" font-size="10.00" fill="#000000"> is_compatible_complete_type</text>
<text text-anchor="middle" x="157" y="-7.5" font-family="Helvetica,sans-Serif" font-size="10.00" fill="#000000">&lt; BasicJsonType, CompatibleType &gt; &gt;</text>
</a>
</g>
</g>
<!-- Node4&#45;&gt;Node3 -->
<g id="edge1" class="edge">
<title>Node4&#45;&gt;Node3</title>
<path fill="none" stroke="#191970" d="M240.1353,-32C248.7575,-32 257.4451,-32 265.8672,-32"/>
<polygon fill="#191970" stroke="#191970" points="240.0634,-28.5001 230.0634,-32 240.0633,-35.5001 240.0634,-28.5001"/>
</g>
<!-- Node5 -->
<g id="node3" class="node">
<title>Node5</title>
<polygon fill="#ffffff" stroke="#bfbfbf" points="0,-22.5 0,-41.5 48,-41.5 48,-22.5 0,-22.5"/>
<text text-anchor="middle" x="24" y="-29.5" font-family="Helvetica,sans-Serif" font-size="10.00" fill="#000000">true_type</text>
</g>
<!-- Node5&#45;&gt;Node4 -->
<g id="edge2" class="edge">
<title>Node5&#45;&gt;Node4</title>
<path fill="none" stroke="#191970" d="M58.3164,-32C66.2272,-32 74.9387,-32 83.8107,-32"/>
<polygon fill="#191970" stroke="#191970" points="58.0853,-28.5001 48.0853,-32 58.0853,-35.5001 58.0853,-28.5001"/>
</g>
</g>
</svg>
