<?xml version="1.0" encoding="UTF-8" standalone="no"?>
<!DOCTYPE svg PUBLIC "-//W3C//DTD SVG 1.1//EN"
 "http://www.w3.org/Graphics/SVG/1.1/DTD/svg11.dtd">
<!-- Generated by graphviz version 2.40.1 (20161225.0304)
 -->
<!-- Title: sirius::D_operator Pages: 1 -->
<!--zoomable 502 -->
<svg id="main" version="1.1" xmlns="http://www.w3.org/2000/svg" xmlns:xlink="http://www.w3.org/1999/xlink" xml:space="preserve" onload="init(evt)">
<style type="text/css"><![CDATA[
.edge:hover path { stroke: red; }
.edge:hover polygon { stroke: red; fill: red; }
]]></style>
<script type="text/javascript"><![CDATA[
var edges = document.getElementsByTagName('g');
if (edges && edges.length) {
  for (var i=0;i<edges.length;i++) {
    if (edges[i].id.substr(0,4)=='edge') {
      edges[i].setAttribute('class','edge');
    }
  }
}
]]></script>
        <defs>
                <circle id="rim" cx="0" cy="0" r="7"/>
                <circle id="rim2" cx="0" cy="0" r="3.5"/>
                <g id="zoomPlus">
                        <use xlink:href="#rim" fill="#404040">
                                <set attributeName="fill" to="#808080" begin="zoomplus.mouseover" end="zoomplus.mouseout"/>
                        </use>
                        <path d="M-4,0h8M0,-4v8" fill="none" stroke="white" stroke-width="1.5" pointer-events="none"/>
                </g>
                <g id="zoomMin">
                        <use xlink:href="#rim" fill="#404040">
                                <set attributeName="fill" to="#808080" begin="zoomminus.mouseover" end="zoomminus.mouseout"/>
                        </use>
                        <path d="M-4,0h8" fill="none" stroke="white" stroke-width="1.5" pointer-events="none"/>
                </g>
                <g id="dirArrow">
                        <path fill="none" stroke="white" stroke-width="1.5" d="M0,-3.0v7 M-2.5,-0.5L0,-3.0L2.5,-0.5"/>
                </g>
               <g id="resetDef">
                       <use xlink:href="#rim2" fill="#404040">
                               <set attributeName="fill" to="#808080" begin="reset.mouseover" end="reset.mouseout"/>
                       </use>
               </g>
        </defs>

<script type="text/javascript">
var viewWidth = 1644;
var viewHeight = 502;
var sectionId = 'dynsection-1';
</script>
<script xlink:href="../../svgpan.js"/>
<svg id="graph" class="graph">
<g id="viewport">
<title>sirius::D_operator</title>
<polygon fill="#ffffff" stroke="transparent" points="-4,4 -4,-497.9083 1640,-497.9083 1640,4 -4,4"/>
<!-- Node2 -->
<g id="node1" class="node">
<title>Node2</title>
<g id="a_node1"><a xlink:title=" ">
<polygon fill="#bfbfbf" stroke="#000000" points="1541,-142.4083 1541,-161.4083 1636,-161.4083 1636,-142.4083 1541,-142.4083"/>
<text text-anchor="middle" x="1588.5" y="-149.4083" font-family="Helvetica,sans-Serif" font-size="10.00" fill="#000000">sirius::D_operator</text>
</a>
</g>
</g>
<!-- Node3 -->
<g id="node2" class="node">
<title>Node3</title>
<g id="a_node2"><a xlink:href="../../da/d46/classsirius_1_1_non__local__operator.html" target="_top" xlink:title="Non&#45;local part of the Hamiltonian and S&#45;operator in the pseudopotential method.">
<polygon fill="#ffffff" stroke="#000000" points="1371,-142.4083 1371,-161.4083 1504,-161.4083 1504,-142.4083 1371,-142.4083"/>
<text text-anchor="middle" x="1437.5" y="-149.4083" font-family="Helvetica,sans-Serif" font-size="10.00" fill="#000000">sirius::Non_local_operator</text>
</a>
</g>
</g>
<!-- Node3&#45;&gt;Node2 -->
<g id="edge1" class="edge">
<title>Node3&#45;&gt;Node2</title>
<path fill="none" stroke="#191970" d="M1514.3246,-151.9083C1523.3331,-151.9083 1532.3165,-151.9083 1540.7615,-151.9083"/>
<polygon fill="#191970" stroke="#191970" points="1514.1704,-148.4084 1504.1703,-151.9083 1514.1703,-155.4084 1514.1704,-148.4084"/>
</g>
<!-- Node4 -->
<g id="node3" class="node">
<title>Node4</title>
<g id="a_node3"><a xlink:href="../../d6/d66/classsirius_1_1_simulation__context.html" target="_top" xlink:title="Simulation context is a set of parameters and objects describing a single simulation.">
<polygon fill="#ffffff" stroke="#000000" points="1124,-180.9083 1124,-210.9083 1216,-210.9083 1216,-180.9083 1124,-180.9083"/>
<text text-anchor="start" x="1132" y="-198.9083" font-family="Helvetica,sans-Serif" font-size="10.00" fill="#000000">sirius::Simulation</text>
<text text-anchor="middle" x="1170" y="-187.9083" font-family="Helvetica,sans-Serif" font-size="10.00" fill="#000000">_context</text>
</a>
</g>
</g>
<!-- Node4&#45;&gt;Node3 -->
<g id="edge2" class="edge">
<title>Node4&#45;&gt;Node3</title>
<path fill="none" stroke="#9a32cd" stroke-dasharray="5,2" d="M1226.1814,-187.2808C1262.409,-181.6495 1310.5199,-174.044 1353,-166.9083 1363.2855,-165.1806 1374.2641,-163.2762 1384.7876,-161.4209"/>
<polygon fill="#9a32cd" stroke="#9a32cd" points="1225.6383,-183.8231 1216.293,-188.8148 1226.7114,-190.7404 1225.6383,-183.8231"/>
<text text-anchor="middle" x="1305" y="-184.9083" font-family="Helvetica,sans-Serif" font-size="10.00" fill="#000000"> ctx_</text>
</g>
<!-- Node5 -->
<g id="node4" class="node">
<title>Node5</title>
<g id="a_node4"><a xlink:href="../../d0/d04/classsirius_1_1_simulation__parameters.html" target="_top" xlink:title="Set of basic parameters of a simulation.">
<polygon fill="#ffffff" stroke="#000000" points="571.5,-262.9083 571.5,-292.9083 663.5,-292.9083 663.5,-262.9083 571.5,-262.9083"/>
<text text-anchor="start" x="579.5" y="-280.9083" font-family="Helvetica,sans-Serif" font-size="10.00" fill="#000000">sirius::Simulation</text>
<text text-anchor="middle" x="617.5" y="-269.9083" font-family="Helvetica,sans-Serif" font-size="10.00" fill="#000000">_parameters</text>
</a>
</g>
</g>
<!-- Node5&#45;&gt;Node4 -->
<g id="edge3" class="edge">
<title>Node5&#45;&gt;Node4</title>
<path fill="none" stroke="#191970" d="M673.6671,-281.8103C762.8595,-286.1766 941.287,-287.395 1083,-240.9083 1105.2979,-233.5938 1128.8371,-221.0888 1145.7997,-211.1148"/>
<polygon fill="#191970" stroke="#191970" points="673.669,-278.3057 663.5001,-281.2796 673.3041,-285.2962 673.669,-278.3057"/>
</g>
<!-- Node21 -->
<g id="node20" class="node">
<title>Node21</title>
<g id="a_node20"><a xlink:href="../../d6/dd1/classsirius_1_1_unit__cell.html" target="_top" xlink:title="Representation of a unit cell.">
<polygon fill="#ffffff" stroke="#000000" points="858,-327.4083 858,-346.4083 942,-346.4083 942,-327.4083 858,-327.4083"/>
<text text-anchor="middle" x="900" y="-334.4083" font-family="Helvetica,sans-Serif" font-size="10.00" fill="#000000">sirius::Unit_cell</text>
</a>
</g>
</g>
<!-- Node5&#45;&gt;Node21 -->
<g id="edge21" class="edge">
<title>Node5&#45;&gt;Node21</title>
<path fill="none" stroke="#9a32cd" stroke-dasharray="5,2" d="M673.3123,-289.5647C727.52,-300.886 808.6194,-317.8235 857.6973,-328.0734"/>
<polygon fill="#9a32cd" stroke="#9a32cd" points="674.0216,-286.1374 663.5172,-287.519 672.5905,-292.9895 674.0216,-286.1374"/>
<text text-anchor="middle" x="755.5" y="-319.9083" font-family="Helvetica,sans-Serif" font-size="10.00" fill="#000000"> parameters_</text>
</g>
<!-- Node6 -->
<g id="node5" class="node">
<title>Node6</title>
<g id="a_node5"><a xlink:href="../../d4/d6e/structsirius_1_1_parameters__input.html" target="_top" xlink:title="Parse parameters input section.">
<polygon fill="#ffffff" stroke="#000000" points="311,-363.9083 311,-393.9083 408,-393.9083 408,-363.9083 311,-363.9083"/>
<text text-anchor="start" x="319" y="-381.9083" font-family="Helvetica,sans-Serif" font-size="10.00" fill="#000000">sirius::Parameters</text>
<text text-anchor="middle" x="359.5" y="-370.9083" font-family="Helvetica,sans-Serif" font-size="10.00" fill="#000000">_input</text>
</a>
</g>
</g>
<!-- Node6&#45;&gt;Node5 -->
<g id="edge4" class="edge">
<title>Node6&#45;&gt;Node5</title>
<path fill="none" stroke="#9a32cd" stroke-dasharray="5,2" d="M418.2859,-372.5941C453.8948,-367.1867 499.522,-357.3826 537,-339.9083 562.2609,-328.1303 587.0045,-307.2737 602.2469,-293.0314"/>
<polygon fill="#9a32cd" stroke="#9a32cd" points="417.4491,-369.1785 408.0511,-374.0701 418.4483,-376.1068 417.4491,-369.1785"/>
<text text-anchor="middle" x="485.5" y="-371.9083" font-family="Helvetica,sans-Serif" font-size="10.00" fill="#000000"> parameters_input_</text>
</g>
<!-- Node7 -->
<g id="node6" class="node">
<title>Node7</title>
<g id="a_node6"><a xlink:href="../../da/de3/structsirius_1_1_control__input.html" target="_top" xlink:title="Parse control input section.">
<polygon fill="#ffffff" stroke="#000000" points="307,-325.4083 307,-344.4083 412,-344.4083 412,-325.4083 307,-325.4083"/>
<text text-anchor="middle" x="359.5" y="-332.4083" font-family="Helvetica,sans-Serif" font-size="10.00" fill="#000000">sirius::Control_input</text>
</a>
</g>
</g>
<!-- Node7&#45;&gt;Node5 -->
<g id="edge5" class="edge">
<title>Node7&#45;&gt;Node5</title>
<path fill="none" stroke="#9a32cd" stroke-dasharray="5,2" d="M422.345,-327.3377C456.5438,-322.5445 499.4221,-315.4372 537,-305.9083 550.7693,-302.4167 565.5319,-297.6063 578.6066,-292.9572"/>
<polygon fill="#9a32cd" stroke="#9a32cd" points="421.4582,-323.9264 412.0257,-328.7511 422.4081,-330.8617 421.4582,-323.9264"/>
<text text-anchor="middle" x="485.5" y="-327.9083" font-family="Helvetica,sans-Serif" font-size="10.00" fill="#000000"> control_input_</text>
</g>
<!-- Node8 -->
<g id="node7" class="node">
<title>Node8</title>
<g id="a_node7"><a xlink:href="../../d2/dcd/structsirius_1_1_hubbard__input.html" target="_top" xlink:title=" ">
<polygon fill="#ffffff" stroke="#000000" points="304,-287.4083 304,-306.4083 415,-306.4083 415,-287.4083 304,-287.4083"/>
<text text-anchor="middle" x="359.5" y="-294.4083" font-family="Helvetica,sans-Serif" font-size="10.00" fill="#000000">sirius::Hubbard_input</text>
</a>
</g>
</g>
<!-- Node8&#45;&gt;Node5 -->
<g id="edge6" class="edge">
<title>Node8&#45;&gt;Node5</title>
<path fill="none" stroke="#9a32cd" stroke-dasharray="5,2" d="M425.2774,-292.0642C470.9755,-288.6989 530.7357,-284.2979 571.4114,-281.3024"/>
<polygon fill="#9a32cd" stroke="#9a32cd" points="424.8804,-288.5839 415.1645,-292.809 425.3946,-295.565 424.8804,-288.5839"/>
<text text-anchor="middle" x="485.5" y="-293.9083" font-family="Helvetica,sans-Serif" font-size="10.00" fill="#000000"> hubbard_input_</text>
</g>
<!-- Node9 -->
<g id="node8" class="node">
<title>Node9</title>
<g id="a_node8"><a xlink:href="../../d6/de3/structsirius_1_1_settings__input.html" target="_top" xlink:title="Settings control the internal parameters related to the numerical implementation.">
<polygon fill="#ffffff" stroke="#000000" points="305,-249.4083 305,-268.4083 414,-268.4083 414,-249.4083 305,-249.4083"/>
<text text-anchor="middle" x="359.5" y="-256.4083" font-family="Helvetica,sans-Serif" font-size="10.00" fill="#000000">sirius::Settings_input</text>
</a>
</g>
</g>
<!-- Node9&#45;&gt;Node5 -->
<g id="edge7" class="edge">
<title>Node9&#45;&gt;Node5</title>
<path fill="none" stroke="#9a32cd" stroke-dasharray="5,2" d="M424.4882,-261.7105C458.106,-263.3776 499.7894,-265.7824 537,-268.9083 548.0706,-269.8383 559.9746,-271.0514 571.1433,-272.2843"/>
<polygon fill="#9a32cd" stroke="#9a32cd" points="424.486,-258.2064 414.3279,-261.2168 424.1463,-265.1981 424.486,-258.2064"/>
<text text-anchor="middle" x="485.5" y="-271.9083" font-family="Helvetica,sans-Serif" font-size="10.00" fill="#000000"> settings_input_</text>
</g>
<!-- Node10 -->
<g id="node9" class="node">
<title>Node10</title>
<g id="a_node9"><a xlink:href="../../d7/d51/structsirius_1_1_unit__cell__input.html" target="_top" xlink:title="Parse unit cell input section.">
<polygon fill="#ffffff" stroke="#000000" points="304,-211.4083 304,-230.4083 415,-230.4083 415,-211.4083 304,-211.4083"/>
<text text-anchor="middle" x="359.5" y="-218.4083" font-family="Helvetica,sans-Serif" font-size="10.00" fill="#000000">sirius::Unit_cell_input</text>
</a>
</g>
</g>
<!-- Node10&#45;&gt;Node5 -->
<g id="edge8" class="edge">
<title>Node10&#45;&gt;Node5</title>
<path fill="none" stroke="#9a32cd" stroke-dasharray="5,2" d="M425.505,-227.0438C459.2228,-231.0648 500.6891,-237.3841 537,-246.9083 552.5002,-250.9739 569.1063,-257.0566 583.1861,-262.7599"/>
<polygon fill="#9a32cd" stroke="#9a32cd" points="425.6387,-223.5361 415.3039,-225.8686 424.8376,-230.4901 425.6387,-223.5361"/>
<text text-anchor="middle" x="485.5" y="-249.9083" font-family="Helvetica,sans-Serif" font-size="10.00" fill="#000000"> unit_cell_input_</text>
</g>
<!-- Node11 -->
<g id="node10" class="node">
<title>Node11</title>
<g id="a_node10"><a xlink:href="../../d2/d6b/classgeometry3d_1_1vector3d.html" target="_top" xlink:title=" ">
<polygon fill="#ffffff" stroke="#000000" points="134,-205.9083 134,-235.9083 247,-235.9083 247,-205.9083 134,-205.9083"/>
<text text-anchor="start" x="142" y="-223.9083" font-family="Helvetica,sans-Serif" font-size="10.00" fill="#000000">geometry3d::vector3d</text>
<text text-anchor="middle" x="190.5" y="-212.9083" font-family="Helvetica,sans-Serif" font-size="10.00" fill="#000000">&lt; double &gt;</text>
</a>
</g>
</g>
<!-- Node11&#45;&gt;Node10 -->
<g id="edge9" class="edge">
<title>Node11&#45;&gt;Node10</title>
<path fill="none" stroke="#9a32cd" stroke-dasharray="5,2" d="M257.6713,-220.9083C272.9518,-220.9083 289.0223,-220.9083 303.7661,-220.9083"/>
<polygon fill="#9a32cd" stroke="#9a32cd" points="257.2447,-217.4084 247.2447,-220.9083 257.2447,-224.4084 257.2447,-217.4084"/>
<text text-anchor="middle" x="275" y="-245.9083" font-family="Helvetica,sans-Serif" font-size="10.00" fill="#000000"> a2_</text>
<text text-anchor="middle" x="275" y="-234.9083" font-family="Helvetica,sans-Serif" font-size="10.00" fill="#000000">a1_</text>
<text text-anchor="middle" x="275" y="-223.9083" font-family="Helvetica,sans-Serif" font-size="10.00" fill="#000000">a0_</text>
</g>
<!-- Node12 -->
<g id="node11" class="node">
<title>Node12</title>
<g id="a_node11"><a xlink:title=" ">
<polygon fill="#ffffff" stroke="#bfbfbf" points="0,-205.9083 0,-235.9083 97,-235.9083 97,-205.9083 0,-205.9083"/>
<text text-anchor="start" x="8" y="-223.9083" font-family="Helvetica,sans-Serif" font-size="10.00" fill="#000000">std::array&lt; double</text>
<text text-anchor="middle" x="48.5" y="-212.9083" font-family="Helvetica,sans-Serif" font-size="10.00" fill="#000000"> , 3 &gt;</text>
</a>
</g>
</g>
<!-- Node12&#45;&gt;Node11 -->
<g id="edge10" class="edge">
<title>Node12&#45;&gt;Node11</title>
<path fill="none" stroke="#191970" d="M107.4305,-220.9083C116.1271,-220.9083 125.0725,-220.9083 133.7242,-220.9083"/>
<polygon fill="#191970" stroke="#191970" points="107.3684,-217.4084 97.3683,-220.9083 107.3683,-224.4084 107.3684,-217.4084"/>
</g>
<!-- Node13 -->
<g id="node12" class="node">
<title>Node13</title>
<g id="a_node12"><a xlink:href="../../d2/d11/structsirius_1_1_iterative__solver__input.html" target="_top" xlink:title="Parse the parameters of iterative solver.">
<polygon fill="#ffffff" stroke="#000000" points="303,-161.9083 303,-191.9083 416,-191.9083 416,-161.9083 303,-161.9083"/>
<text text-anchor="start" x="311" y="-179.9083" font-family="Helvetica,sans-Serif" font-size="10.00" fill="#000000">sirius::Iterative_solver</text>
<text text-anchor="middle" x="359.5" y="-168.9083" font-family="Helvetica,sans-Serif" font-size="10.00" fill="#000000">_input</text>
</a>
</g>
</g>
<!-- Node13&#45;&gt;Node5 -->
<g id="edge11" class="edge">
<title>Node13&#45;&gt;Node5</title>
<path fill="none" stroke="#9a32cd" stroke-dasharray="5,2" d="M425.9866,-182.7563C460.3751,-187.6441 502.2989,-196.585 537,-212.9083 563.1695,-225.2184 588.2623,-247.7537 603.282,-262.7839"/>
<polygon fill="#9a32cd" stroke="#9a32cd" points="426.4134,-179.2823 416.0374,-181.4241 425.4844,-186.2204 426.4134,-179.2823"/>
<text text-anchor="middle" x="485.5" y="-215.9083" font-family="Helvetica,sans-Serif" font-size="10.00" fill="#000000"> iterative_solver_input_</text>
</g>
<!-- Node14 -->
<g id="node13" class="node">
<title>Node14</title>
<g id="a_node13"><a xlink:href="../../d4/db0/structsirius_1_1_mixer__input.html" target="_top" xlink:title="Parse mixer input section.">
<polygon fill="#ffffff" stroke="#000000" points="311,-123.4083 311,-142.4083 408,-142.4083 408,-123.4083 311,-123.4083"/>
<text text-anchor="middle" x="359.5" y="-130.4083" font-family="Helvetica,sans-Serif" font-size="10.00" fill="#000000">sirius::Mixer_input</text>
</a>
</g>
</g>
<!-- Node14&#45;&gt;Node5 -->
<g id="edge12" class="edge">
<title>Node14&#45;&gt;Node5</title>
<path fill="none" stroke="#9a32cd" stroke-dasharray="5,2" d="M418.2549,-134.2553C454.8841,-137.5341 501.613,-146.3565 537,-168.9083 573.7017,-192.298 599.3977,-238.8056 610.8278,-262.8036"/>
<polygon fill="#9a32cd" stroke="#9a32cd" points="418.4514,-130.7601 408.2092,-133.4708 417.9063,-137.7389 418.4514,-130.7601"/>
<text text-anchor="middle" x="485.5" y="-171.9083" font-family="Helvetica,sans-Serif" font-size="10.00" fill="#000000"> mixer_input_</text>
</g>
<!-- Node15 -->
<g id="node14" class="node">
<title>Node15</title>
<g id="a_node14"><a xlink:href="../../d7/dab/classsddk_1_1mdarray.html" target="_top" xlink:title=" ">
<polygon fill="#ffffff" stroke="#000000" points="840.5,-230.4083 840.5,-249.4083 959.5,-249.4083 959.5,-230.4083 840.5,-230.4083"/>
<text text-anchor="middle" x="900" y="-237.4083" font-family="Helvetica,sans-Serif" font-size="10.00" fill="#000000">sddk::mdarray&lt; int, 2 &gt;</text>
</a>
</g>
</g>
<!-- Node15&#45;&gt;Node4 -->
<g id="edge13" class="edge">
<title>Node15&#45;&gt;Node4</title>
<path fill="none" stroke="#9a32cd" stroke-dasharray="5,2" d="M969.6718,-229.095C1003.8406,-223.7338 1045.5944,-217.0965 1083,-210.9083 1096.3069,-208.7069 1110.7456,-206.2465 1123.9656,-203.9653"/>
<polygon fill="#9a32cd" stroke="#9a32cd" points="969.1241,-225.638 959.7863,-230.6436 970.2076,-232.5536 969.1241,-225.638"/>
<text text-anchor="middle" x="1035" y="-228.9083" font-family="Helvetica,sans-Serif" font-size="10.00" fill="#000000"> gvec_coord_</text>
</g>
<!-- Node16 -->
<g id="node15" class="node">
<title>Node16</title>
<g id="a_node15"><a xlink:href="../../d7/dab/classsddk_1_1mdarray.html" target="_top" xlink:title=" ">
<polygon fill="#ffffff" stroke="#000000" points="841,-180.9083 841,-210.9083 959,-210.9083 959,-180.9083 841,-180.9083"/>
<text text-anchor="start" x="849" y="-198.9083" font-family="Helvetica,sans-Serif" font-size="10.00" fill="#000000">sddk::mdarray&lt; double</text>
<text text-anchor="middle" x="900" y="-187.9083" font-family="Helvetica,sans-Serif" font-size="10.00" fill="#000000">_complex, 1 &gt;</text>
</a>
</g>
</g>
<!-- Node16&#45;&gt;Node4 -->
<g id="edge14" class="edge">
<title>Node16&#45;&gt;Node4</title>
<path fill="none" stroke="#9a32cd" stroke-dasharray="5,2" d="M969.3708,-195.9083C1017.912,-195.9083 1081.4132,-195.9083 1123.8478,-195.9083"/>
<polygon fill="#9a32cd" stroke="#9a32cd" points="969.2527,-192.4084 959.2526,-195.9083 969.2526,-199.4084 969.2527,-192.4084"/>
<text text-anchor="middle" x="1035" y="-198.9083" font-family="Helvetica,sans-Serif" font-size="10.00" fill="#000000"> theta_pw_</text>
</g>
<!-- Node17 -->
<g id="node16" class="node">
<title>Node17</title>
<g id="a_node16"><a xlink:href="../../d7/dab/classsddk_1_1mdarray.html" target="_top" xlink:title=" ">
<polygon fill="#ffffff" stroke="#000000" points="831,-142.4083 831,-161.4083 969,-161.4083 969,-142.4083 831,-142.4083"/>
<text text-anchor="middle" x="900" y="-149.4083" font-family="Helvetica,sans-Serif" font-size="10.00" fill="#000000">sddk::mdarray&lt; double, 1 &gt;</text>
</a>
</g>
</g>
<!-- Node17&#45;&gt;Node4 -->
<g id="edge15" class="edge">
<title>Node17&#45;&gt;Node4</title>
<path fill="none" stroke="#9a32cd" stroke-dasharray="5,2" d="M971.6968,-163.0395C1005.4815,-168.3437 1046.3301,-174.8419 1083,-180.9083 1096.3069,-183.1097 1110.7456,-185.5701 1123.9656,-187.8513"/>
<polygon fill="#9a32cd" stroke="#9a32cd" points="971.8725,-159.5244 961.4511,-161.4335 970.7884,-166.4399 971.8725,-159.5244"/>
<text text-anchor="middle" x="1035" y="-183.9083" font-family="Helvetica,sans-Serif" font-size="10.00" fill="#000000"> theta_</text>
</g>
<!-- Node18 -->
<g id="node17" class="node">
<title>Node18</title>
<g id="a_node17"><a xlink:href="../../d7/dab/classsddk_1_1mdarray.html" target="_top" xlink:title=" ">
<polygon fill="#ffffff" stroke="#000000" points="841,-92.9083 841,-122.9083 959,-122.9083 959,-92.9083 841,-92.9083"/>
<text text-anchor="start" x="849" y="-110.9083" font-family="Helvetica,sans-Serif" font-size="10.00" fill="#000000">sddk::mdarray&lt; double</text>
<text text-anchor="middle" x="900" y="-99.9083" font-family="Helvetica,sans-Serif" font-size="10.00" fill="#000000">_complex, 3 &gt;</text>
</a>
</g>
</g>
<!-- Node18&#45;&gt;Node4 -->
<g id="edge16" class="edge">
<title>Node18&#45;&gt;Node4</title>
<path fill="none" stroke="#9a32cd" stroke-dasharray="5,2" d="M969.4454,-105.7803C1006.1424,-107.8847 1050.2382,-115.8586 1083,-138.9083 1096.3458,-148.2978 1088.5511,-160.3586 1101,-170.9083 1107.6098,-176.5097 1115.5765,-180.8993 1123.713,-184.3256"/>
<polygon fill="#9a32cd" stroke="#9a32cd" points="969.4508,-102.2772 959.3067,-105.3347 969.1434,-109.2705 969.4508,-102.2772"/>
<text text-anchor="middle" x="1035" y="-152.9083" font-family="Helvetica,sans-Serif" font-size="10.00" fill="#000000"> sym_phase_factors_</text>
<text text-anchor="middle" x="1035" y="-141.9083" font-family="Helvetica,sans-Serif" font-size="10.00" fill="#000000">phase_factors_</text>
</g>
<!-- Node19 -->
<g id="node18" class="node">
<title>Node19</title>
<g id="a_node18"><a xlink:href="../../d7/dab/classsddk_1_1mdarray.html" target="_top" xlink:title=" ">
<polygon fill="#ffffff" stroke="#000000" points="841,-43.9083 841,-73.9083 959,-73.9083 959,-43.9083 841,-43.9083"/>
<text text-anchor="start" x="849" y="-61.9083" font-family="Helvetica,sans-Serif" font-size="10.00" fill="#000000">sddk::mdarray&lt; double</text>
<text text-anchor="middle" x="900" y="-50.9083" font-family="Helvetica,sans-Serif" font-size="10.00" fill="#000000">_complex, 2 &gt;</text>
</a>
</g>
</g>
<!-- Node19&#45;&gt;Node4 -->
<g id="edge17" class="edge">
<title>Node19&#45;&gt;Node4</title>
<path fill="none" stroke="#9a32cd" stroke-dasharray="5,2" d="M969.4578,-54.4632C1007.6662,-55.8512 1053.2227,-64.3875 1083,-92.9083 1108.6936,-117.5176 1077.4073,-144.2782 1101,-170.9083 1107.0833,-177.7748 1115.2028,-182.7565 1123.7319,-186.3703"/>
<polygon fill="#9a32cd" stroke="#9a32cd" points="969.4782,-50.9629 959.4072,-54.2532 969.3319,-57.9614 969.4782,-50.9629"/>
<text text-anchor="middle" x="1035" y="-95.9083" font-family="Helvetica,sans-Serif" font-size="10.00" fill="#000000"> phase_factors_t_</text>
</g>
<!-- Node20 -->
<g id="node19" class="node">
<title>Node20</title>
<g id="a_node19"><a xlink:href="../../da/d70/classsddk_1_1_communicator.html" target="_top" xlink:title="MPI communicator wrapper.">
<polygon fill="#ffffff" stroke="#000000" points="563.5,-415.4083 563.5,-434.4083 671.5,-434.4083 671.5,-415.4083 563.5,-415.4083"/>
<text text-anchor="middle" x="617.5" y="-422.4083" font-family="Helvetica,sans-Serif" font-size="10.00" fill="#000000">sddk::Communicator</text>
</a>
</g>
</g>
<!-- Node20&#45;&gt;Node4 -->
<g id="edge18" class="edge">
<title>Node20&#45;&gt;Node4</title>
<path fill="none" stroke="#9a32cd" stroke-dasharray="5,2" d="M681.7236,-430.9799C779.0801,-436.6472 965.1301,-433.2041 1083,-340.9083 1127.8416,-305.796 1154.6825,-240.6302 1165.0534,-211.125"/>
<polygon fill="#9a32cd" stroke="#9a32cd" points="681.9287,-427.486 671.7276,-430.3475 681.4866,-434.472 681.9287,-427.486"/>
<text text-anchor="middle" x="900" y="-485.9083" font-family="Helvetica,sans-Serif" font-size="10.00" fill="#000000"> comm_ortho_fft_</text>
<text text-anchor="start" x="847" y="-474.9083" font-family="Helvetica,sans-Serif" font-size="10.00" fill="#000000">comm_ortho_fft_coarse</text>
<text text-anchor="middle" x="900" y="-463.9083" font-family="Helvetica,sans-Serif" font-size="10.00" fill="#000000">_</text>
<text text-anchor="start" x="847" y="-452.9083" font-family="Helvetica,sans-Serif" font-size="10.00" fill="#000000">comm_band_ortho</text>
<text text-anchor="middle" x="900" y="-441.9083" font-family="Helvetica,sans-Serif" font-size="10.00" fill="#000000">_fft_coarse_</text>
<text text-anchor="middle" x="900" y="-430.9083" font-family="Helvetica,sans-Serif" font-size="10.00" fill="#000000">comm_</text>
</g>
<!-- Node20&#45;&gt;Node21 -->
<g id="edge20" class="edge">
<title>Node20&#45;&gt;Node21</title>
<path fill="none" stroke="#9a32cd" stroke-dasharray="5,2" d="M681.8167,-414.6032C733.9554,-406.0478 800.7318,-394.5563 813,-389.9083 841.6125,-379.0681 871.2846,-358.6751 887.5174,-346.591"/>
<polygon fill="#9a32cd" stroke="#9a32cd" points="681.2411,-411.1507 671.9367,-416.2181 682.3704,-418.0591 681.2411,-411.1507"/>
<text text-anchor="middle" x="755.5" y="-413.9083" font-family="Helvetica,sans-Serif" font-size="10.00" fill="#000000"> comm_</text>
</g>
<!-- Node21&#45;&gt;Node4 -->
<g id="edge19" class="edge">
<title>Node21&#45;&gt;Node4</title>
<path fill="none" stroke="#9a32cd" stroke-dasharray="5,2" d="M952.2097,-332.3262C990.6145,-327.0677 1042.8912,-315.8325 1083,-291.9083 1117.5776,-271.2834 1146.3355,-232.5661 1160.5069,-211.1411"/>
<polygon fill="#9a32cd" stroke="#9a32cd" points="951.7402,-328.8577 942.2648,-333.5976 952.628,-335.8012 951.7402,-328.8577"/>
<text text-anchor="middle" x="1035" y="-328.9083" font-family="Helvetica,sans-Serif" font-size="10.00" fill="#000000"> unit_cell_</text>
</g>
<!-- Node22 -->
<g id="node21" class="node">
<title>Node22</title>
<g id="a_node21"><a xlink:href="../../d2/dc9/classsddk_1_1splindex.html" target="_top" xlink:title=" ">
<polygon fill="#ffffff" stroke="#000000" points="555,-354.9083 555,-384.9083 680,-384.9083 680,-354.9083 555,-354.9083"/>
<text text-anchor="start" x="563" y="-372.9083" font-family="Helvetica,sans-Serif" font-size="10.00" fill="#000000">sddk::splindex&lt; splindex</text>
<text text-anchor="middle" x="617.5" y="-361.9083" font-family="Helvetica,sans-Serif" font-size="10.00" fill="#000000">_t::block &gt;</text>
</a>
</g>
</g>
<!-- Node22&#45;&gt;Node21 -->
<g id="edge22" class="edge">
<title>Node22&#45;&gt;Node21</title>
<path fill="none" stroke="#9a32cd" stroke-dasharray="5,2" d="M670.5776,-352.091C679.6384,-349.6256 689.0235,-347.4227 698,-345.9083 752.6918,-336.6813 816.8193,-335.4156 857.9021,-335.7987"/>
<polygon fill="#9a32cd" stroke="#9a32cd" points="669.5641,-348.7404 660.9078,-354.8493 671.4843,-355.4719 669.5641,-348.7404"/>
<text text-anchor="middle" x="755.5" y="-381.9083" font-family="Helvetica,sans-Serif" font-size="10.00" fill="#000000"> spl_num_paw_atoms_</text>
<text text-anchor="middle" x="755.5" y="-370.9083" font-family="Helvetica,sans-Serif" font-size="10.00" fill="#000000">spl_num_atoms_</text>
<text text-anchor="start" x="698" y="-359.9083" font-family="Helvetica,sans-Serif" font-size="10.00" fill="#000000">spl_num_atom_symmetry</text>
<text text-anchor="middle" x="755.5" y="-348.9083" font-family="Helvetica,sans-Serif" font-size="10.00" fill="#000000">_classes_</text>
</g>
<!-- Node23 -->
<g id="node22" class="node">
<title>Node23</title>
<g id="a_node22"><a xlink:href="../../d6/dec/classsddk_1_1splindex__base.html" target="_top" xlink:title=" ">
<polygon fill="#ffffff" stroke="#000000" points="306,-412.9083 306,-442.9083 413,-442.9083 413,-412.9083 306,-412.9083"/>
<text text-anchor="start" x="314" y="-430.9083" font-family="Helvetica,sans-Serif" font-size="10.00" fill="#000000">sddk::splindex_base</text>
<text text-anchor="middle" x="359.5" y="-419.9083" font-family="Helvetica,sans-Serif" font-size="10.00" fill="#000000">&lt; int &gt;</text>
</a>
</g>
</g>
<!-- Node23&#45;&gt;Node22 -->
<g id="edge23" class="edge">
<title>Node23&#45;&gt;Node22</title>
<path fill="none" stroke="#191970" d="M423.2579,-417.2958C457.2086,-411.2426 499.5707,-403.0481 537,-393.9083 547.7672,-391.2791 559.2362,-388.0957 570.0413,-384.919"/>
<polygon fill="#191970" stroke="#191970" points="422.2462,-413.9201 413.0063,-419.1043 423.4624,-420.8137 422.2462,-413.9201"/>
</g>
<!-- Node24 -->
<g id="node23" class="node">
<title>Node24</title>
<g id="a_node23"><a xlink:href="../../dd/d26/classsddk_1_1_f_f_t3_d__grid.html" target="_top" xlink:title="Handling of FFT grids.">
<polygon fill="#ffffff" stroke="#000000" points="851.5,-5.4083 851.5,-24.4083 948.5,-24.4083 948.5,-5.4083 851.5,-5.4083"/>
<text text-anchor="middle" x="900" y="-12.4083" font-family="Helvetica,sans-Serif" font-size="10.00" fill="#000000">sddk::FFT3D_grid</text>
</a>
</g>
</g>
<!-- Node24&#45;&gt;Node4 -->
<g id="edge24" class="edge">
<title>Node24&#45;&gt;Node4</title>
<path fill="none" stroke="#9a32cd" stroke-dasharray="5,2" d="M949.0115,-3.7038C990.2937,2.5859 1048.0538,3.4933 1083,-29.9083 1128.6695,-73.5593 1061.518,-121.5902 1101,-170.9083 1106.8924,-178.2687 1115.1438,-183.4628 1123.8979,-187.128"/>
<polygon fill="#9a32cd" stroke="#9a32cd" points="948.1779,-.2946 938.8949,-5.4012 949.3363,-7.1981 948.1779,-.2946"/>
<text text-anchor="middle" x="1035" y="-43.9083" font-family="Helvetica,sans-Serif" font-size="10.00" fill="#000000"> fft_grid_</text>
<text text-anchor="middle" x="1035" y="-32.9083" font-family="Helvetica,sans-Serif" font-size="10.00" fill="#000000">fft_coarse_grid_</text>
</g>
<!-- Node25 -->
<g id="node24" class="node">
<title>Node25</title>
<g id="a_node24"><a xlink:title=" ">
<polygon fill="#ffffff" stroke="#bfbfbf" points="569,-5.4083 569,-24.4083 666,-24.4083 666,-5.4083 569,-5.4083"/>
<text text-anchor="middle" x="617.5" y="-12.4083" font-family="Helvetica,sans-Serif" font-size="10.00" fill="#000000">std::array&lt; int, 3 &gt;</text>
</a>
</g>
</g>
<!-- Node25&#45;&gt;Node24 -->
<g id="edge25" class="edge">
<title>Node25&#45;&gt;Node24</title>
<path fill="none" stroke="#191970" d="M676.0992,-14.9083C727.8736,-14.9083 802.5035,-14.9083 851.1248,-14.9083"/>
<polygon fill="#191970" stroke="#191970" points="676.0635,-11.4084 666.0635,-14.9083 676.0634,-18.4084 676.0635,-11.4084"/>
</g>
<!-- Node26 -->
<g id="node25" class="node">
<title>Node26</title>
<g id="a_node25"><a xlink:href="../../d7/dab/classsddk_1_1mdarray.html" target="_top" xlink:title=" ">
<polygon fill="#ffffff" stroke="#000000" points="1110.5,-142.4083 1110.5,-161.4083 1229.5,-161.4083 1229.5,-142.4083 1110.5,-142.4083"/>
<text text-anchor="middle" x="1170" y="-149.4083" font-family="Helvetica,sans-Serif" font-size="10.00" fill="#000000">sddk::mdarray&lt; int, 1 &gt;</text>
</a>
</g>
</g>
<!-- Node26&#45;&gt;Node3 -->
<g id="edge26" class="edge">
<title>Node26&#45;&gt;Node3</title>
<path fill="none" stroke="#9a32cd" stroke-dasharray="5,2" d="M1239.7618,-151.9083C1280.2592,-151.9083 1330.9961,-151.9083 1370.9359,-151.9083"/>
<polygon fill="#9a32cd" stroke="#9a32cd" points="1239.6993,-148.4084 1229.6993,-151.9083 1239.6992,-155.4084 1239.6993,-148.4084"/>
<text text-anchor="middle" x="1305" y="-154.9083" font-family="Helvetica,sans-Serif" font-size="10.00" fill="#000000"> packed_mtrx_offset_</text>
</g>
<!-- Node27 -->
<g id="node26" class="node">
<title>Node27</title>
<g id="a_node26"><a xlink:href="../../d7/dab/classsddk_1_1mdarray.html" target="_top" xlink:title=" ">
<polygon fill="#ffffff" stroke="#000000" points="1101,-104.4083 1101,-123.4083 1239,-123.4083 1239,-104.4083 1101,-104.4083"/>
<text text-anchor="middle" x="1170" y="-111.4083" font-family="Helvetica,sans-Serif" font-size="10.00" fill="#000000">sddk::mdarray&lt; double, 3 &gt;</text>
</a>
</g>
</g>
<!-- Node27&#45;&gt;Node3 -->
<g id="edge27" class="edge">
<title>Node27&#45;&gt;Node3</title>
<path fill="none" stroke="#9a32cd" stroke-dasharray="5,2" d="M1249.4536,-123.0052C1281.6476,-126.9227 1319.1472,-131.7796 1353,-136.9083 1363.7539,-138.5375 1375.2458,-140.4573 1386.1803,-142.3694"/>
<polygon fill="#9a32cd" stroke="#9a32cd" points="1249.5462,-119.4911 1239.1988,-121.7672 1248.7072,-126.4406 1249.5462,-119.4911"/>
<text text-anchor="middle" x="1305" y="-139.9083" font-family="Helvetica,sans-Serif" font-size="10.00" fill="#000000"> op_</text>
</g>
</g>
</svg>
        <g id="navigator" transform="translate(0 0)" fill="#404254">
                <rect fill="#f2f5e9" fill-opacity="0.5" stroke="#606060" stroke-width=".5" x="0" y="0" width="60" height="60"/>
                <use id="zoomplus" xlink:href="#zoomPlus" x="17" y="9" onmousedown="handleZoom(evt,'in')"/>
                <use id="zoomminus" xlink:href="#zoomMin" x="42" y="9" onmousedown="handleZoom(evt,'out')"/>
                <use id="reset" xlink:href="#resetDef" x="30" y="36" onmousedown="handleReset()"/>
                <g id="arrowUp" xlink:href="#dirArrow" transform="translate(30 24)" onmousedown="handlePan(0,-1)">
                  <use xlink:href="#rim" fill="#404040">
                        <set attributeName="fill" to="#808080" begin="arrowUp.mouseover" end="arrowUp.mouseout"/>
                  </use>
                  <path fill="none" stroke="white" stroke-width="1.5" d="M0,-3.0v7 M-2.5,-0.5L0,-3.0L2.5,-0.5"/>
                </g>
                <g id="arrowRight" xlink:href="#dirArrow" transform="rotate(90) translate(36 -43)" onmousedown="handlePan(1,0)">
                  <use xlink:href="#rim" fill="#404040">
                        <set attributeName="fill" to="#808080" begin="arrowRight.mouseover" end="arrowRight.mouseout"/>
                  </use>
                  <path fill="none" stroke="white" stroke-width="1.5" d="M0,-3.0v7 M-2.5,-0.5L0,-3.0L2.5,-0.5"/>
                </g>
                <g id="arrowDown" xlink:href="#dirArrow" transform="rotate(180) translate(-30 -48)" onmousedown="handlePan(0,1)">
                  <use xlink:href="#rim" fill="#404040">
                        <set attributeName="fill" to="#808080" begin="arrowDown.mouseover" end="arrowDown.mouseout"/>
                  </use>
                  <path fill="none" stroke="white" stroke-width="1.5" d="M0,-3.0v7 M-2.5,-0.5L0,-3.0L2.5,-0.5"/>
                </g>
                <g id="arrowLeft" xlink:href="#dirArrow" transform="rotate(270) translate(-36 17)" onmousedown="handlePan(-1,0)">
                  <use xlink:href="#rim" fill="#404040">
                        <set attributeName="fill" to="#808080" begin="arrowLeft.mouseover" end="arrowLeft.mouseout"/>
                  </use>
                  <path fill="none" stroke="white" stroke-width="1.5" d="M0,-3.0v7 M-2.5,-0.5L0,-3.0L2.5,-0.5"/>
                </g>
        </g>
        <svg viewBox="0 0 15 15" width="100%" height="30px" preserveAspectRatio="xMaxYMin meet">
         <g id="arrow_out" transform="scale(0.3 0.3)">
          <a xlink:href="classsirius_1_1_d__operator__coll__graph_org.svg" target="_base">
           <rect id="button" ry="5" rx="5" y="6" x="6" height="38" width="38"
                fill="#f2f5e9" fill-opacity="0.5" stroke="#606060" stroke-width="1.0"/>
           <path id="arrow"
             d="M 11.500037,31.436501 C 11.940474,20.09759 22.043105,11.32322 32.158766,21.979434 L 37.068811,17.246167 C 37.068811,17.246167 37.088388,32 37.088388,32 L 22.160133,31.978069 C 22.160133,31.978069 26.997745,27.140456 26.997745,27.140456 C 18.528582,18.264221 13.291696,25.230495 11.500037,31.436501 z"
             style="fill:#404040;"/>
          </a>
         </g>
        </svg>
</svg>
