<?xml version="1.0" encoding="UTF-8" standalone="no"?>
<!DOCTYPE svg PUBLIC "-//W3C//DTD SVG 1.1//EN"
 "http://www.w3.org/Graphics/SVG/1.1/DTD/svg11.dtd">
<!-- Generated by graphviz version 2.49.3 (20211023.0002)
 -->
<!-- Title: sirius::D_operator&lt; T &gt; Pages: 1 -->
<!--zoomable 321 -->
<svg id="main" version="1.1" xmlns="http://www.w3.org/2000/svg" xmlns:xlink="http://www.w3.org/1999/xlink" xml:space="preserve" onload="init(evt)">
<style type="text/css"><![CDATA[
.edge:hover path { stroke: red; }
.edge:hover polygon { stroke: red; fill: red; }
]]></style>
<script type="text/javascript"><![CDATA[
var edges = document.getElementsByTagName('g');
if (edges && edges.length) {
  for (var i=0;i<edges.length;i++) {
    if (edges[i].id.substr(0,4)=='edge') {
      edges[i].setAttribute('class','edge');
    }
  }
}
]]></script>
        <defs>
                <circle id="rim" cx="0" cy="0" r="7"/>
                <circle id="rim2" cx="0" cy="0" r="3.5"/>
                <g id="zoomPlus">
                        <use xlink:href="#rim" fill="#404040">
                                <set attributeName="fill" to="#808080" begin="zoomplus.mouseover" end="zoomplus.mouseout"/>
                        </use>
                        <path d="M-4,0h8M0,-4v8" fill="none" stroke="white" stroke-width="1.5" pointer-events="none"/>
                </g>
                <g id="zoomMin">
                        <use xlink:href="#rim" fill="#404040">
                                <set attributeName="fill" to="#808080" begin="zoomminus.mouseover" end="zoomminus.mouseout"/>
                        </use>
                        <path d="M-4,0h8" fill="none" stroke="white" stroke-width="1.5" pointer-events="none"/>
                </g>
                <g id="dirArrow">
                        <path fill="none" stroke="white" stroke-width="1.5" d="M0,-3.0v7 M-2.5,-0.5L0,-3.0L2.5,-0.5"/>
                </g>
               <g id="resetDef">
                       <use xlink:href="#rim2" fill="#404040">
                               <set attributeName="fill" to="#808080" begin="reset.mouseover" end="reset.mouseout"/>
                       </use>
               </g>
        </defs>

<script type="text/javascript">
var viewWidth = 2079;
var viewHeight = 321;
var sectionId = 'dynsection-1';
</script>
<script xlink:href="../../svgpan.js"/>
<svg id="graph" class="graph">
<g id="viewport">
<title>sirius::D_operator&lt; T &gt;</title>
<polygon fill="white" stroke="transparent" points="-4,4 -4,-317 2075,-317 2075,4 -4,4"/>
<!-- Node1 -->
<g id="node1" class="node">
<title>Node1</title>
<g id="a_node1"><a xlink:title=" ">
<polygon fill="#bfbfbf" stroke="black" points="1953,-45.5 1953,-64.5 2071,-64.5 2071,-45.5 1953,-45.5"/>
<text text-anchor="middle" x="2012" y="-52.5" font-family="Helvetica,sans-Serif" font-size="10.00">sirius::D_operator&lt; T &gt;</text>
</a>
</g>
</g>
<!-- Node2 -->
<g id="node2" class="node">
<title>Node2</title>
<g id="a_node2"><a xlink:href="../../da/d46/classsirius_1_1_non__local__operator.html" target="_top" xlink:title="Non&#45;local part of the Hamiltonian and S&#45;operator in the pseudopotential method.">
<polygon fill="white" stroke="black" points="1760,-45.5 1760,-64.5 1916,-64.5 1916,-45.5 1760,-45.5"/>
<text text-anchor="middle" x="1838" y="-52.5" font-family="Helvetica,sans-Serif" font-size="10.00">sirius::Non_local_operator&lt; T &gt;</text>
</a>
</g>
</g>
<!-- Node2&#45;&gt;Node1 -->
<g id="edge1" class="edge">
<title>Node2&#45;&gt;Node1</title>
<path fill="none" stroke="midnightblue" d="M1926.34,-55C1935.33,-55 1944.31,-55 1952.87,-55"/>
<polygon fill="midnightblue" stroke="midnightblue" points="1926.2,-51.5 1916.2,-55 1926.2,-58.5 1926.2,-51.5"/>
</g>
<!-- Node3 -->
<g id="node3" class="node">
<title>Node3</title>
<g id="a_node3"><a xlink:href="../../d6/d66/classsirius_1_1_simulation__context.html" target="_top" xlink:title="Simulation context is a set of parameters and objects describing a single simulation.">
<polygon fill="white" stroke="black" points="1610,-40 1610,-70 1702,-70 1702,-40 1610,-40"/>
<text text-anchor="start" x="1618" y="-58" font-family="Helvetica,sans-Serif" font-size="10.00">sirius::Simulation</text>
<text text-anchor="middle" x="1656" y="-47" font-family="Helvetica,sans-Serif" font-size="10.00">_context</text>
</a>
</g>
</g>
<!-- Node3&#45;&gt;Node2 -->
<g id="edge2" class="edge">
<title>Node3&#45;&gt;Node2</title>
<path fill="none" stroke="#9a32cd" stroke-dasharray="5,2" d="M1712.49,-55C1727.42,-55 1743.84,-55 1759.73,-55"/>
<polygon fill="#9a32cd" stroke="#9a32cd" points="1712.42,-51.5 1702.42,-55 1712.42,-58.5 1712.42,-51.5"/>
<text text-anchor="middle" x="1731" y="-58" font-family="Helvetica,sans-Serif" font-size="10.00"> ctx_</text>
</g>
<!-- Node4 -->
<g id="node4" class="node">
<title>Node4</title>
<g id="a_node4"><a xlink:href="../../d0/d04/classsirius_1_1_simulation__parameters.html" target="_top" xlink:title="Set of basic parameters of a simulation.">
<polygon fill="white" stroke="black" points="1390,-132 1390,-162 1482,-162 1482,-132 1390,-132"/>
<text text-anchor="start" x="1398" y="-150" font-family="Helvetica,sans-Serif" font-size="10.00">sirius::Simulation</text>
<text text-anchor="middle" x="1436" y="-139" font-family="Helvetica,sans-Serif" font-size="10.00">_parameters</text>
</a>
</g>
</g>
<!-- Node4&#45;&gt;Node3 -->
<g id="edge3" class="edge">
<title>Node4&#45;&gt;Node3</title>
<path fill="none" stroke="midnightblue" d="M1492.26,-152.24C1523.27,-152.75 1561.7,-149.19 1592,-133 1618.41,-118.89 1637.77,-88.53 1647.63,-70.13"/>
<polygon fill="midnightblue" stroke="midnightblue" points="1492.15,-148.73 1482.05,-151.92 1491.93,-155.73 1492.15,-148.73"/>
</g>
<!-- Node5 -->
<g id="node5" class="node">
<title>Node5</title>
<g id="a_node5"><a xlink:href="../../d3/d40/classsirius_1_1_config.html" target="_top" xlink:title=" ">
<polygon fill="white" stroke="black" points="1238.5,-137.5 1238.5,-156.5 1312.5,-156.5 1312.5,-137.5 1238.5,-137.5"/>
<text text-anchor="middle" x="1275.5" y="-144.5" font-family="Helvetica,sans-Serif" font-size="10.00">sirius::Config</text>
</a>
</g>
</g>
<!-- Node5&#45;&gt;Node4 -->
<g id="edge4" class="edge">
<title>Node5&#45;&gt;Node4</title>
<path fill="none" stroke="#9a32cd" stroke-dasharray="5,2" d="M1322.87,-147C1343.95,-147 1368.79,-147 1389.73,-147"/>
<polygon fill="#9a32cd" stroke="#9a32cd" points="1322.86,-143.5 1312.86,-147 1322.86,-150.5 1322.86,-143.5"/>
<text text-anchor="middle" x="1353" y="-150" font-family="Helvetica,sans-Serif" font-size="10.00"> cfg_</text>
</g>
<!-- Node6 -->
<g id="node6" class="node">
<title>Node6</title>
<g id="a_node6"><a xlink:href="../../db/da5/classsirius_1_1config__t.html" target="_top" xlink:title=" ">
<polygon fill="white" stroke="black" points="1110,-137.5 1110,-156.5 1190,-156.5 1190,-137.5 1110,-137.5"/>
<text text-anchor="middle" x="1150" y="-144.5" font-family="Helvetica,sans-Serif" font-size="10.00">sirius::config_t</text>
</a>
</g>
</g>
<!-- Node6&#45;&gt;Node5 -->
<g id="edge5" class="edge">
<title>Node6&#45;&gt;Node5</title>
<path fill="none" stroke="midnightblue" d="M1200.45,-147C1213.06,-147 1226.38,-147 1238.2,-147"/>
<polygon fill="midnightblue" stroke="midnightblue" points="1200.08,-143.5 1190.08,-147 1200.08,-150.5 1200.08,-143.5"/>
</g>
<!-- Node7 -->
<g id="node7" class="node">
<title>Node7</title>
<g id="a_node7"><a xlink:href="../../dc/d5b/classsirius_1_1config__t_1_1mixer__t.html" target="_top" xlink:title="Parameters of the mixer.">
<polygon fill="white" stroke="black" points="866,-293.5 866,-312.5 985,-312.5 985,-293.5 866,-293.5"/>
<text text-anchor="middle" x="925.5" y="-300.5" font-family="Helvetica,sans-Serif" font-size="10.00">sirius::config_t::mixer_t</text>
</a>
</g>
</g>
<!-- Node7&#45;&gt;Node6 -->
<g id="edge6" class="edge">
<title>Node7&#45;&gt;Node6</title>
<path fill="none" stroke="#9a32cd" stroke-dasharray="5,2" d="M995.39,-299.14C1027.63,-294.25 1064.82,-283.83 1092,-262 1126.92,-233.95 1142.14,-179.05 1147.07,-156.76"/>
<polygon fill="#9a32cd" stroke="#9a32cd" points="994.55,-295.72 985.11,-300.54 995.49,-302.66 994.55,-295.72"/>
<text text-anchor="middle" x="1054" y="-298" font-family="Helvetica,sans-Serif" font-size="10.00"> mixer_</text>
</g>
<!-- Node8 -->
<g id="node8" class="node">
<title>Node8</title>
<g id="a_node8"><a xlink:href="../../d9/dcc/classnlohmann_1_1basic__json.html" target="_top" xlink:title="a class to store JSON values">
<polygon fill="white" stroke="black" points="601,-110 601,-184 793,-184 793,-110 601,-110"/>
<text text-anchor="start" x="609" y="-172" font-family="Helvetica,sans-Serif" font-size="10.00">nlohmann::basic_json</text>
<text text-anchor="start" x="609" y="-161" font-family="Helvetica,sans-Serif" font-size="10.00">&lt; ObjectType, ArrayType,</text>
<text text-anchor="start" x="609" y="-150" font-family="Helvetica,sans-Serif" font-size="10.00"> StringType, BooleanType,</text>
<text text-anchor="start" x="609" y="-139" font-family="Helvetica,sans-Serif" font-size="10.00"> NumberIntegerType, NumberUnsigned</text>
<text text-anchor="start" x="609" y="-128" font-family="Helvetica,sans-Serif" font-size="10.00">Type, NumberFloatType, AllocatorType,</text>
<text text-anchor="middle" x="697" y="-117" font-family="Helvetica,sans-Serif" font-size="10.00"> JSONSerializer, BinaryType &gt;</text>
</a>
</g>
</g>
<!-- Node8&#45;&gt;Node7 -->
<g id="edge7" class="edge">
<title>Node8&#45;&gt;Node7</title>
<path fill="none" stroke="#9a32cd" stroke-dasharray="5,2" d="M736.46,-191.89C765.37,-222.66 807.66,-261.79 853,-284 860.73,-287.78 869.31,-290.89 877.77,-293.41"/>
<polygon fill="#9a32cd" stroke="#9a32cd" points="738.76,-189.22 729.4,-184.26 733.62,-193.98 738.76,-189.22"/>
<text text-anchor="middle" x="823" y="-276" font-family="Helvetica,sans-Serif" font-size="10.00"> dict_</text>
</g>
<!-- Node12 -->
<g id="node12" class="node">
<title>Node12</title>
<g id="a_node12"><a xlink:href="../../d0/d41/classsirius_1_1config__t_1_1settings__t.html" target="_top" xlink:title="Settings control the internal parameters related to the numerical implementation.">
<polygon fill="white" stroke="black" points="861,-255.5 861,-274.5 990,-274.5 990,-255.5 861,-255.5"/>
<text text-anchor="middle" x="925.5" y="-262.5" font-family="Helvetica,sans-Serif" font-size="10.00">sirius::config_t::settings_t</text>
</a>
</g>
</g>
<!-- Node8&#45;&gt;Node12 -->
<g id="edge12" class="edge">
<title>Node8&#45;&gt;Node12</title>
<path fill="none" stroke="#9a32cd" stroke-dasharray="5,2" d="M755.94,-190.07C784.09,-209.37 819.09,-231.1 853,-246 861.47,-249.72 870.83,-252.85 879.91,-255.43"/>
<polygon fill="#9a32cd" stroke="#9a32cd" points="757.65,-186.99 747.44,-184.17 753.66,-192.74 757.65,-186.99"/>
<text text-anchor="middle" x="823" y="-240" font-family="Helvetica,sans-Serif" font-size="10.00"> dict_</text>
</g>
<!-- Node13 -->
<g id="node13" class="node">
<title>Node13</title>
<g id="a_node13"><a xlink:href="../../d9/d67/classsirius_1_1config__t_1_1unit__cell__t.html" target="_top" xlink:title="Unit cell representation.">
<polygon fill="white" stroke="black" points="874.5,-206 874.5,-236 976.5,-236 976.5,-206 874.5,-206"/>
<text text-anchor="start" x="882.5" y="-224" font-family="Helvetica,sans-Serif" font-size="10.00">sirius::config_t::unit</text>
<text text-anchor="middle" x="925.5" y="-213" font-family="Helvetica,sans-Serif" font-size="10.00">_cell_t</text>
</a>
</g>
</g>
<!-- Node8&#45;&gt;Node13 -->
<g id="edge14" class="edge">
<title>Node8&#45;&gt;Node13</title>
<path fill="none" stroke="#9a32cd" stroke-dasharray="5,2" d="M802.81,-181.24C829.36,-189.92 856.54,-198.8 878.45,-205.95"/>
<polygon fill="#9a32cd" stroke="#9a32cd" points="803.66,-177.84 793.07,-178.06 801.49,-184.49 803.66,-177.84"/>
<text text-anchor="middle" x="823" y="-193" font-family="Helvetica,sans-Serif" font-size="10.00"> dict_</text>
</g>
<!-- Node14 -->
<g id="node14" class="node">
<title>Node14</title>
<g id="a_node14"><a xlink:href="../../dc/d09/classsirius_1_1config__t_1_1iterative__solver__t.html" target="_top" xlink:title="Parameters of the iterative solver.">
<polygon fill="white" stroke="black" points="865,-157 865,-187 986,-187 986,-157 865,-157"/>
<text text-anchor="start" x="873" y="-175" font-family="Helvetica,sans-Serif" font-size="10.00">sirius::config_t::iterative</text>
<text text-anchor="middle" x="925.5" y="-164" font-family="Helvetica,sans-Serif" font-size="10.00">_solver_t</text>
</a>
</g>
</g>
<!-- Node8&#45;&gt;Node14 -->
<g id="edge16" class="edge">
<title>Node8&#45;&gt;Node14</title>
<path fill="none" stroke="#9a32cd" stroke-dasharray="5,2" d="M803.11,-158.6C824.31,-160.94 845.89,-163.32 864.87,-165.42"/>
<polygon fill="#9a32cd" stroke="#9a32cd" points="803.4,-155.11 793.07,-157.49 802.63,-162.07 803.4,-155.11"/>
<text text-anchor="middle" x="823" y="-164" font-family="Helvetica,sans-Serif" font-size="10.00"> dict_</text>
</g>
<!-- Node15 -->
<g id="node15" class="node">
<title>Node15</title>
<g id="a_node15"><a xlink:href="../../d1/d31/classsirius_1_1config__t_1_1control__t.html" target="_top" xlink:title="Control parameters.">
<polygon fill="white" stroke="black" points="863.5,-118.5 863.5,-137.5 987.5,-137.5 987.5,-118.5 863.5,-118.5"/>
<text text-anchor="middle" x="925.5" y="-125.5" font-family="Helvetica,sans-Serif" font-size="10.00">sirius::config_t::control_t</text>
</a>
</g>
</g>
<!-- Node8&#45;&gt;Node15 -->
<g id="edge18" class="edge">
<title>Node8&#45;&gt;Node15</title>
<path fill="none" stroke="#9a32cd" stroke-dasharray="5,2" d="M803.31,-136.66C805.9,-136.43 808.46,-136.21 811,-136 827.93,-134.58 846.29,-133.21 863.22,-132.02"/>
<polygon fill="#9a32cd" stroke="#9a32cd" points="802.89,-133.18 793.24,-137.55 803.51,-140.15 802.89,-133.18"/>
<text text-anchor="middle" x="823" y="-139" font-family="Helvetica,sans-Serif" font-size="10.00"> dict_</text>
</g>
<!-- Node16 -->
<g id="node16" class="node">
<title>Node16</title>
<g id="a_node16"><a xlink:href="../../db/dc8/classsirius_1_1config__t_1_1parameters__t.html" target="_top" xlink:title="Parameters of the simulation.">
<polygon fill="white" stroke="black" points="853,-80.5 853,-99.5 998,-99.5 998,-80.5 853,-80.5"/>
<text text-anchor="middle" x="925.5" y="-87.5" font-family="Helvetica,sans-Serif" font-size="10.00">sirius::config_t::parameters_t</text>
</a>
</g>
</g>
<!-- Node8&#45;&gt;Node16 -->
<g id="edge20" class="edge">
<title>Node8&#45;&gt;Node16</title>
<path fill="none" stroke="#9a32cd" stroke-dasharray="5,2" d="M803.16,-120.54C833.02,-113.02 863.64,-105.32 886.64,-99.53"/>
<polygon fill="#9a32cd" stroke="#9a32cd" points="801.92,-117.24 793.07,-123.07 803.62,-124.03 801.92,-117.24"/>
<text text-anchor="middle" x="823" y="-121" font-family="Helvetica,sans-Serif" font-size="10.00"> dict_</text>
</g>
<!-- Node17 -->
<g id="node17" class="node">
<title>Node17</title>
<g id="a_node17"><a xlink:href="../../d2/d6f/classsirius_1_1config__t_1_1nlcg__t.html" target="_top" xlink:title="Non&#45;linear conjugate gradient minimisation.">
<polygon fill="white" stroke="black" points="869,-42.5 869,-61.5 982,-61.5 982,-42.5 869,-42.5"/>
<text text-anchor="middle" x="925.5" y="-49.5" font-family="Helvetica,sans-Serif" font-size="10.00">sirius::config_t::nlcg_t</text>
</a>
</g>
</g>
<!-- Node8&#45;&gt;Node17 -->
<g id="edge22" class="edge">
<title>Node8&#45;&gt;Node17</title>
<path fill="none" stroke="#9a32cd" stroke-dasharray="5,2" d="M775.36,-105.37C799.76,-93.25 827.11,-80.68 853,-71 862.5,-67.45 872.95,-64.28 882.85,-61.59"/>
<polygon fill="#9a32cd" stroke="#9a32cd" points="773.53,-102.37 766.16,-109.98 776.67,-108.63 773.53,-102.37"/>
<text text-anchor="middle" x="823" y="-90" font-family="Helvetica,sans-Serif" font-size="10.00"> dict_</text>
</g>
<!-- Node18 -->
<g id="node18" class="node">
<title>Node18</title>
<g id="a_node18"><a xlink:href="../../d6/d65/classsirius_1_1config__t_1_1hubbard__t.html" target="_top" xlink:title="Hubbard U correction.">
<polygon fill="white" stroke="black" points="860,-4.5 860,-23.5 991,-23.5 991,-4.5 860,-4.5"/>
<text text-anchor="middle" x="925.5" y="-11.5" font-family="Helvetica,sans-Serif" font-size="10.00">sirius::config_t::hubbard_t</text>
</a>
</g>
</g>
<!-- Node8&#45;&gt;Node18 -->
<g id="edge24" class="edge">
<title>Node8&#45;&gt;Node18</title>
<path fill="none" stroke="#9a32cd" stroke-dasharray="5,2" d="M747.23,-103.33C776.26,-79.56 814.73,-51.34 853,-33 860.88,-29.23 869.61,-26.12 878.2,-23.58"/>
<polygon fill="#9a32cd" stroke="#9a32cd" points="744.76,-100.83 739.3,-109.9 749.23,-106.22 744.76,-100.83"/>
<text text-anchor="middle" x="823" y="-59" font-family="Helvetica,sans-Serif" font-size="10.00"> dict_</text>
</g>
<!-- Node9 -->
<g id="node9" class="node">
<title>Node9</title>
<g id="a_node9"><a xlink:href="../../d1/de3/unionnlohmann_1_1basic__json_1_1json__value.html" target="_top" xlink:title="a JSON value">
<polygon fill="white" stroke="black" points="319,-110 319,-184 524,-184 524,-110 319,-110"/>
<text text-anchor="start" x="327" y="-172" font-family="Helvetica,sans-Serif" font-size="10.00">nlohmann::basic_json</text>
<text text-anchor="start" x="327" y="-161" font-family="Helvetica,sans-Serif" font-size="10.00">&lt; ObjectType, ArrayType,</text>
<text text-anchor="start" x="327" y="-150" font-family="Helvetica,sans-Serif" font-size="10.00"> StringType, BooleanType,</text>
<text text-anchor="start" x="327" y="-139" font-family="Helvetica,sans-Serif" font-size="10.00"> NumberIntegerType, NumberUnsigned</text>
<text text-anchor="start" x="327" y="-128" font-family="Helvetica,sans-Serif" font-size="10.00">Type, NumberFloatType, AllocatorType,</text>
<text text-anchor="middle" x="421.5" y="-117" font-family="Helvetica,sans-Serif" font-size="10.00"> JSONSerializer, BinaryType &gt;::json_value</text>
</a>
</g>
</g>
<!-- Node9&#45;&gt;Node8 -->
<g id="edge8" class="edge">
<title>Node9&#45;&gt;Node8</title>
<path fill="none" stroke="#9a32cd" stroke-dasharray="5,2" d="M534.41,-147C556.47,-147 579.42,-147 600.86,-147"/>
<polygon fill="#9a32cd" stroke="#9a32cd" points="534.34,-143.5 524.34,-147 534.34,-150.5 534.34,-143.5"/>
<text text-anchor="middle" x="562.5" y="-150" font-family="Helvetica,sans-Serif" font-size="10.00"> m_value</text>
</g>
<!-- Node10 -->
<g id="node10" class="node">
<title>Node10</title>
<g id="a_node10"><a xlink:href="../../dd/d0d/classnlohmann_1_1byte__container__with__subtype.html" target="_top" xlink:title="an internal type for a backed binary type">
<polygon fill="white" stroke="black" points="104,-132 104,-162 252,-162 252,-132 104,-132"/>
<text text-anchor="start" x="112" y="-150" font-family="Helvetica,sans-Serif" font-size="10.00">nlohmann::byte_container</text>
<text text-anchor="middle" x="178" y="-139" font-family="Helvetica,sans-Serif" font-size="10.00">_with_subtype&lt; BinaryType &gt;</text>
</a>
</g>
</g>
<!-- Node10&#45;&gt;Node9 -->
<g id="edge9" class="edge">
<title>Node10&#45;&gt;Node9</title>
<path fill="none" stroke="#9a32cd" stroke-dasharray="5,2" d="M262.35,-147C280.5,-147 299.9,-147 318.68,-147"/>
<polygon fill="#9a32cd" stroke="#9a32cd" points="262.11,-143.5 252.11,-147 262.11,-150.5 262.11,-143.5"/>
<text text-anchor="middle" x="285.5" y="-150" font-family="Helvetica,sans-Serif" font-size="10.00"> binary</text>
</g>
<!-- Node11 -->
<g id="node11" class="node">
<title>Node11</title>
<g id="a_node11"><a xlink:title=" ">
<polygon fill="white" stroke="#bfbfbf" points="0,-137.5 0,-156.5 67,-156.5 67,-137.5 0,-137.5"/>
<text text-anchor="middle" x="33.5" y="-144.5" font-family="Helvetica,sans-Serif" font-size="10.00">BinaryType</text>
</a>
</g>
</g>
<!-- Node11&#45;&gt;Node10 -->
<g id="edge10" class="edge">
<title>Node11&#45;&gt;Node10</title>
<path fill="none" stroke="midnightblue" d="M77.42,-147C85.79,-147 94.79,-147 103.82,-147"/>
<polygon fill="midnightblue" stroke="midnightblue" points="77.19,-143.5 67.19,-147 77.19,-150.5 77.19,-143.5"/>
</g>
<!-- Node12&#45;&gt;Node6 -->
<g id="edge11" class="edge">
<title>Node12&#45;&gt;Node6</title>
<path fill="none" stroke="#9a32cd" stroke-dasharray="5,2" d="M998.36,-253.22C1029.09,-245.77 1064.2,-233.85 1092,-215 1115.2,-199.27 1134.22,-171.53 1143.28,-156.82"/>
<polygon fill="#9a32cd" stroke="#9a32cd" points="997.51,-249.83 988.56,-255.49 999.09,-256.65 997.51,-249.83"/>
<text text-anchor="middle" x="1054" y="-250" font-family="Helvetica,sans-Serif" font-size="10.00"> settings_</text>
</g>
<!-- Node13&#45;&gt;Node6 -->
<g id="edge13" class="edge">
<title>Node13&#45;&gt;Node6</title>
<path fill="none" stroke="#9a32cd" stroke-dasharray="5,2" d="M986.64,-207.8C1018.47,-200.03 1057.91,-189.15 1092,-176 1106.09,-170.57 1121.3,-162.72 1132.46,-156.56"/>
<polygon fill="#9a32cd" stroke="#9a32cd" points="985.5,-204.47 976.6,-210.21 987.14,-211.28 985.5,-204.47"/>
<text text-anchor="middle" x="1054" y="-203" font-family="Helvetica,sans-Serif" font-size="10.00"> unit_cell_</text>
</g>
<!-- Node14&#45;&gt;Node6 -->
<g id="edge15" class="edge">
<title>Node14&#45;&gt;Node6</title>
<path fill="none" stroke="#9a32cd" stroke-dasharray="5,2" d="M996.47,-164.14C1033.91,-159.93 1078.61,-154.91 1109.91,-151.39"/>
<polygon fill="#9a32cd" stroke="#9a32cd" points="995.67,-160.71 986.13,-165.3 996.45,-167.66 995.67,-160.71"/>
<text text-anchor="middle" x="1054" y="-164" font-family="Helvetica,sans-Serif" font-size="10.00"> iterative_solver_</text>
</g>
<!-- Node15&#45;&gt;Node6 -->
<g id="edge17" class="edge">
<title>Node15&#45;&gt;Node6</title>
<path fill="none" stroke="#9a32cd" stroke-dasharray="5,2" d="M997.73,-129.22C1027.01,-130.3 1061.21,-132.3 1092,-136 1097.8,-136.7 1103.9,-137.64 1109.87,-138.69"/>
<polygon fill="#9a32cd" stroke="#9a32cd" points="997.7,-125.72 987.59,-128.88 997.46,-132.72 997.7,-125.72"/>
<text text-anchor="middle" x="1054" y="-139" font-family="Helvetica,sans-Serif" font-size="10.00"> control_</text>
</g>
<!-- Node16&#45;&gt;Node6 -->
<g id="edge19" class="edge">
<title>Node16&#45;&gt;Node6</title>
<path fill="none" stroke="#9a32cd" stroke-dasharray="5,2" d="M1008.54,-96.45C1035.62,-100.14 1065.56,-105.92 1092,-115 1107.67,-120.38 1124.01,-130.03 1135.15,-137.33"/>
<polygon fill="#9a32cd" stroke="#9a32cd" points="1008.68,-92.94 998.32,-95.14 1007.79,-99.88 1008.68,-92.94"/>
<text text-anchor="middle" x="1054" y="-118" font-family="Helvetica,sans-Serif" font-size="10.00"> parameters_</text>
</g>
<!-- Node17&#45;&gt;Node6 -->
<g id="edge21" class="edge">
<title>Node17&#45;&gt;Node6</title>
<path fill="none" stroke="#9a32cd" stroke-dasharray="5,2" d="M992.26,-53.9C1024.09,-57.24 1061.85,-64.93 1092,-82 1115.77,-95.46 1134.55,-122.63 1143.42,-137.22"/>
<polygon fill="#9a32cd" stroke="#9a32cd" points="992.43,-50.4 982.15,-52.96 991.78,-57.37 992.43,-50.4"/>
<text text-anchor="middle" x="1054" y="-85" font-family="Helvetica,sans-Serif" font-size="10.00"> nlcg_</text>
</g>
<!-- Node18&#45;&gt;Node6 -->
<g id="edge23" class="edge">
<title>Node18&#45;&gt;Node6</title>
<path fill="none" stroke="#9a32cd" stroke-dasharray="5,2" d="M1001.47,-12.78C1031.94,-15.63 1066.01,-23.43 1092,-42 1125.58,-66 1141.4,-116.14 1146.78,-137.27"/>
<polygon fill="#9a32cd" stroke="#9a32cd" points="1001.53,-9.27 991.29,-11.99 1000.99,-16.25 1001.53,-9.27"/>
<text text-anchor="middle" x="1054" y="-45" font-family="Helvetica,sans-Serif" font-size="10.00"> hubbard_</text>
</g>
<!-- Node19 -->
<g id="node19" class="node">
<title>Node19</title>
<g id="a_node19"><a xlink:href="../../da/d70/classsddk_1_1_communicator.html" target="_top" xlink:title="MPI communicator wrapper.">
<polygon fill="white" stroke="black" points="1382,-45.5 1382,-64.5 1490,-64.5 1490,-45.5 1382,-45.5"/>
<text text-anchor="middle" x="1436" y="-52.5" font-family="Helvetica,sans-Serif" font-size="10.00">sddk::Communicator</text>
</a>
</g>
</g>
<!-- Node19&#45;&gt;Node3 -->
<g id="edge25" class="edge">
<title>Node19&#45;&gt;Node3</title>
<path fill="none" stroke="#9a32cd" stroke-dasharray="5,2" d="M1500.2,-55C1535.29,-55 1578.13,-55 1609.83,-55"/>
<polygon fill="#9a32cd" stroke="#9a32cd" points="1500.05,-51.5 1490.05,-55 1500.05,-58.5 1500.05,-51.5"/>
<text text-anchor="middle" x="1550" y="-124" font-family="Helvetica,sans-Serif" font-size="10.00"> comm_</text>
<text text-anchor="middle" x="1550" y="-113" font-family="Helvetica,sans-Serif" font-size="10.00">comm_band_</text>
<text text-anchor="start" x="1508" y="-102" font-family="Helvetica,sans-Serif" font-size="10.00">comm_band_ortho</text>
<text text-anchor="middle" x="1550" y="-91" font-family="Helvetica,sans-Serif" font-size="10.00">_fft_coarse_</text>
<text text-anchor="middle" x="1550" y="-80" font-family="Helvetica,sans-Serif" font-size="10.00">comm_k_</text>
<text text-anchor="start" x="1508" y="-69" font-family="Helvetica,sans-Serif" font-size="10.00">comm_ortho_fft</text>
<text text-anchor="middle" x="1550" y="-58" font-family="Helvetica,sans-Serif" font-size="10.00">_coarse_</text>
</g>
<!-- Node20 -->
<g id="node20" class="node">
<title>Node20</title>
<g id="a_node20"><a xlink:href="../../dd/d26/classsddk_1_1_f_f_t3_d__grid.html" target="_top" xlink:title="Handling of FFT grids.">
<polygon fill="white" stroke="black" points="1387.5,-0.5 1387.5,-19.5 1484.5,-19.5 1484.5,-0.5 1387.5,-0.5"/>
<text text-anchor="middle" x="1436" y="-7.5" font-family="Helvetica,sans-Serif" font-size="10.00">sddk::FFT3D_grid</text>
</a>
</g>
</g>
<!-- Node20&#45;&gt;Node3 -->
<g id="edge26" class="edge">
<title>Node20&#45;&gt;Node3</title>
<path fill="none" stroke="#9a32cd" stroke-dasharray="5,2" d="M1494.88,-13.38C1524.32,-16.02 1560.45,-20.72 1592,-29 1602.41,-31.73 1613.39,-35.81 1623.2,-39.93"/>
<polygon fill="#9a32cd" stroke="#9a32cd" points="1495.03,-9.88 1484.77,-12.52 1494.44,-16.85 1495.03,-9.88"/>
<text text-anchor="middle" x="1550" y="-43" font-family="Helvetica,sans-Serif" font-size="10.00"> fft_coarse_grid_</text>
<text text-anchor="middle" x="1550" y="-32" font-family="Helvetica,sans-Serif" font-size="10.00">fft_grid_</text>
</g>
<!-- Node21 -->
<g id="node21" class="node">
<title>Node21</title>
<g id="a_node21"><a xlink:title=" ">
<polygon fill="white" stroke="#bfbfbf" points="1227,-0.5 1227,-19.5 1324,-19.5 1324,-0.5 1227,-0.5"/>
<text text-anchor="middle" x="1275.5" y="-7.5" font-family="Helvetica,sans-Serif" font-size="10.00">std::array&lt; int, 3 &gt;</text>
</a>
</g>
</g>
<!-- Node21&#45;&gt;Node20 -->
<g id="edge27" class="edge">
<title>Node21&#45;&gt;Node20</title>
<path fill="none" stroke="midnightblue" d="M1334.16,-10C1351.68,-10 1370.71,-10 1387.48,-10"/>
<polygon fill="midnightblue" stroke="midnightblue" points="1334.06,-6.5 1324.06,-10 1334.06,-13.5 1334.06,-6.5"/>
</g>
</g>
</svg>
        <g id="navigator" transform="translate(0 0)" fill="#404254">
                <rect fill="#f2f5e9" fill-opacity="0.5" stroke="#606060" stroke-width=".5" x="0" y="0" width="60" height="60"/>
                <use id="zoomplus" xlink:href="#zoomPlus" x="17" y="9" onmousedown="handleZoom(evt,'in')"/>
                <use id="zoomminus" xlink:href="#zoomMin" x="42" y="9" onmousedown="handleZoom(evt,'out')"/>
                <use id="reset" xlink:href="#resetDef" x="30" y="36" onmousedown="handleReset()"/>
                <g id="arrowUp" xlink:href="#dirArrow" transform="translate(30 24)" onmousedown="handlePan(0,-1)">
                  <use xlink:href="#rim" fill="#404040">
                        <set attributeName="fill" to="#808080" begin="arrowUp.mouseover" end="arrowUp.mouseout"/>
                  </use>
                  <path fill="none" stroke="white" stroke-width="1.5" d="M0,-3.0v7 M-2.5,-0.5L0,-3.0L2.5,-0.5"/>
                </g>
                <g id="arrowRight" xlink:href="#dirArrow" transform="rotate(90) translate(36 -43)" onmousedown="handlePan(1,0)">
                  <use xlink:href="#rim" fill="#404040">
                        <set attributeName="fill" to="#808080" begin="arrowRight.mouseover" end="arrowRight.mouseout"/>
                  </use>
                  <path fill="none" stroke="white" stroke-width="1.5" d="M0,-3.0v7 M-2.5,-0.5L0,-3.0L2.5,-0.5"/>
                </g>
                <g id="arrowDown" xlink:href="#dirArrow" transform="rotate(180) translate(-30 -48)" onmousedown="handlePan(0,1)">
                  <use xlink:href="#rim" fill="#404040">
                        <set attributeName="fill" to="#808080" begin="arrowDown.mouseover" end="arrowDown.mouseout"/>
                  </use>
                  <path fill="none" stroke="white" stroke-width="1.5" d="M0,-3.0v7 M-2.5,-0.5L0,-3.0L2.5,-0.5"/>
                </g>
                <g id="arrowLeft" xlink:href="#dirArrow" transform="rotate(270) translate(-36 17)" onmousedown="handlePan(-1,0)">
                  <use xlink:href="#rim" fill="#404040">
                        <set attributeName="fill" to="#808080" begin="arrowLeft.mouseover" end="arrowLeft.mouseout"/>
                  </use>
                  <path fill="none" stroke="white" stroke-width="1.5" d="M0,-3.0v7 M-2.5,-0.5L0,-3.0L2.5,-0.5"/>
                </g>
        </g>
        <svg viewBox="0 0 15 15" width="100%" height="30px" preserveAspectRatio="xMaxYMin meet">
         <g id="arrow_out" transform="scale(0.3 0.3)">
          <a xlink:href="classsirius_1_1_d__operator__coll__graph_org.svg" target="_base">
           <rect id="button" ry="5" rx="5" y="6" x="6" height="38" width="38"
                fill="#f2f5e9" fill-opacity="0.5" stroke="#606060" stroke-width="1.0"/>
           <path id="arrow"
             d="M 11.500037,31.436501 C 11.940474,20.09759 22.043105,11.32322 32.158766,21.979434 L 37.068811,17.246167 C 37.068811,17.246167 37.088388,32 37.088388,32 L 22.160133,31.978069 C 22.160133,31.978069 26.997745,27.140456 26.997745,27.140456 C 18.528582,18.264221 13.291696,25.230495 11.500037,31.436501 z"
             style="fill:#404040;"/>
          </a>
         </g>
        </svg>
</svg>
