<?xml version="1.0" encoding="UTF-8" standalone="no"?>
<!DOCTYPE svg PUBLIC "-//W3C//DTD SVG 1.1//EN"
 "http://www.w3.org/Graphics/SVG/1.1/DTD/svg11.dtd">
<!-- Generated by graphviz version 2.40.1 (20161225.0304)
 -->
<!-- Title: nlohmann::detail::internal_iterator&lt; BasicJsonType &gt; Pages: 1 -->
<svg width="120pt" height="117pt"
 viewBox="0.00 0.00 120.00 117.00" xmlns="http://www.w3.org/2000/svg" xmlns:xlink="http://www.w3.org/1999/xlink">
<g id="graph0" class="graph" transform="scale(1 1) rotate(0) translate(4 113)">
<title>nlohmann::detail::internal_iterator&lt; BasicJsonType &gt;</title>
<polygon fill="#ffffff" stroke="transparent" points="-4,4 -4,-113 116,-113 116,4 -4,4"/>
<!-- Node1 -->
<g id="node1" class="node">
<title>Node1</title>
<polygon fill="#bfbfbf" stroke="#000000" points="0,-.5 0,-30.5 108,-30.5 108,-.5 0,-.5"/>
<text text-anchor="start" x="8" y="-18.5" font-family="Helvetica,sans-Serif" font-size="10.00" fill="#000000">nlohmann::detail::internal</text>
<text text-anchor="middle" x="54" y="-7.5" font-family="Helvetica,sans-Serif" font-size="10.00" fill="#000000">_iterator&lt; BasicJsonType &gt;</text>
</g>
<!-- Node2 -->
<g id="node2" class="node">
<title>Node2</title>
<g id="a_node2"><a xlink:href="../../d2/d2c/classnlohmann_1_1detail_1_1primitive__iterator__t.html" target="_top" xlink:title="an iterator for primitive JSON types ">
<polygon fill="#ffffff" stroke="#000000" points="2,-78.5 2,-108.5 106,-108.5 106,-78.5 2,-78.5"/>
<text text-anchor="start" x="10" y="-96.5" font-family="Helvetica,sans-Serif" font-size="10.00" fill="#000000">nlohmann::detail::primitive</text>
<text text-anchor="middle" x="54" y="-85.5" font-family="Helvetica,sans-Serif" font-size="10.00" fill="#000000">_iterator_t</text>
</a>
</g>
</g>
<!-- Node2&#45;&gt;Node1 -->
<g id="edge1" class="edge">
<title>Node2&#45;&gt;Node1</title>
<path fill="none" stroke="#9a32cd" stroke-dasharray="5,2" d="M54,-68.2875C54,-55.9187 54,-41.4264 54,-30.7592"/>
<polygon fill="#9a32cd" stroke="#9a32cd" points="50.5001,-68.4608 54,-78.4608 57.5001,-68.4608 50.5001,-68.4608"/>
<text text-anchor="middle" x="83" y="-52" font-family="Helvetica,sans-Serif" font-size="10.00" fill="#000000"> primitive_iterator</text>
</g>
</g>
</svg>
