<?xml version="1.0" encoding="UTF-8" standalone="no"?>
<!DOCTYPE svg PUBLIC "-//W3C//DTD SVG 1.1//EN"
 "http://www.w3.org/Graphics/SVG/1.1/DTD/svg11.dtd">
<!-- Generated by graphviz version 2.40.1 (20161225.0304)
 -->
<!-- Title: dmatrix.cpp Pages: 1 -->
<!--zoomable 364 -->
<svg id="main" version="1.1" xmlns="http://www.w3.org/2000/svg" xmlns:xlink="http://www.w3.org/1999/xlink" xml:space="preserve" onload="init(evt)">
<style type="text/css"><![CDATA[
.edge:hover path { stroke: red; }
.edge:hover polygon { stroke: red; fill: red; }
]]></style>
<script type="text/javascript"><![CDATA[
var edges = document.getElementsByTagName('g');
if (edges && edges.length) {
  for (var i=0;i<edges.length;i++) {
    if (edges[i].id.substr(0,4)=='edge') {
      edges[i].setAttribute('class','edge');
    }
  }
}
]]></script>
        <defs>
                <circle id="rim" cx="0" cy="0" r="7"/>
                <circle id="rim2" cx="0" cy="0" r="3.5"/>
                <g id="zoomPlus">
                        <use xlink:href="#rim" fill="#404040">
                                <set attributeName="fill" to="#808080" begin="zoomplus.mouseover" end="zoomplus.mouseout"/>
                        </use>
                        <path d="M-4,0h8M0,-4v8" fill="none" stroke="white" stroke-width="1.5" pointer-events="none"/>
                </g>
                <g id="zoomMin">
                        <use xlink:href="#rim" fill="#404040">
                                <set attributeName="fill" to="#808080" begin="zoomminus.mouseover" end="zoomminus.mouseout"/>
                        </use>
                        <path d="M-4,0h8" fill="none" stroke="white" stroke-width="1.5" pointer-events="none"/>
                </g>
                <g id="dirArrow">
                        <path fill="none" stroke="white" stroke-width="1.5" d="M0,-3.0v7 M-2.5,-0.5L0,-3.0L2.5,-0.5"/>
                </g>
               <g id="resetDef">
                       <use xlink:href="#rim2" fill="#404040">
                               <set attributeName="fill" to="#808080" begin="reset.mouseover" end="reset.mouseout"/>
                       </use>
               </g>
        </defs>

<script type="text/javascript">
var viewWidth = 2023;
var viewHeight = 364;
var sectionId = 'dynsection-0';
</script>
<script xlink:href="../../svgpan.js"/>
<svg id="graph" class="graph">
<g id="viewport">
<title>dmatrix.cpp</title>
<polygon fill="#ffffff" stroke="transparent" points="-4,4 -4,-360 2018.5,-360 2018.5,4 -4,4"/>
<!-- Node0 -->
<g id="node1" class="node">
<title>Node0</title>
<g id="a_node1"><a xlink:title="Definitions.">
<polygon fill="#bfbfbf" stroke="#000000" points="917,-336.5 917,-355.5 985,-355.5 985,-336.5 917,-336.5"/>
<text text-anchor="middle" x="951" y="-343.5" font-family="Helvetica,sans-Serif" font-size="10.00" fill="#000000">dmatrix.cpp</text>
</a>
</g>
</g>
<!-- Node1 -->
<g id="node2" class="node">
<title>Node1</title>
<g id="a_node2"><a xlink:href="../../d3/d9b/dmatrix_8hpp.html" target="_top" xlink:title="Contains definition and implementaiton of sddk::dmatrix class.">
<polygon fill="#ffffff" stroke="#000000" points="916.5,-280.5 916.5,-299.5 985.5,-299.5 985.5,-280.5 916.5,-280.5"/>
<text text-anchor="middle" x="951" y="-287.5" font-family="Helvetica,sans-Serif" font-size="10.00" fill="#000000">dmatrix.hpp</text>
</a>
</g>
</g>
<!-- Node0&#45;&gt;Node1 -->
<g id="edge1" class="edge">
<title>Node0&#45;&gt;Node1</title>
<path fill="none" stroke="#191970" d="M951,-336.2455C951,-328.9382 951,-318.6944 951,-309.7046"/>
<polygon fill="#191970" stroke="#191970" points="954.5001,-309.6426 951,-299.6427 947.5001,-309.6427 954.5001,-309.6426"/>
</g>
<!-- Node2 -->
<g id="node3" class="node">
<title>Node2</title>
<g id="a_node3"><a xlink:href="../../d4/dd8/blacs__grid_8hpp.html" target="_top" xlink:title="Contains declaration and implementation of sddk::BLACS_grid class.">
<polygon fill="#ffffff" stroke="#000000" points="675,-224.5 675,-243.5 757,-243.5 757,-224.5 675,-224.5"/>
<text text-anchor="middle" x="716" y="-231.5" font-family="Helvetica,sans-Serif" font-size="10.00" fill="#000000">blacs_grid.hpp</text>
</a>
</g>
</g>
<!-- Node1&#45;&gt;Node2 -->
<g id="edge2" class="edge">
<title>Node1&#45;&gt;Node2</title>
<path fill="none" stroke="#191970" d="M916.3249,-281.737C876.5614,-272.2614 811.0495,-256.6501 765.8276,-245.8738"/>
<polygon fill="#191970" stroke="#191970" points="766.4742,-242.43 755.9352,-243.5165 764.8515,-249.2393 766.4742,-242.43"/>
</g>
<!-- Node26 -->
<g id="node27" class="node">
<title>Node26</title>
<g id="a_node27"><a xlink:href="../../d0/d86/splindex_8hpp.html" target="_top" xlink:title="Contains definition of sddk::splindex_base and specializations of sddk::splindex class.">
<polygon fill="#ffffff" stroke="#000000" points="1183.5,-112.5 1183.5,-131.5 1256.5,-131.5 1256.5,-112.5 1183.5,-112.5"/>
<text text-anchor="middle" x="1220" y="-119.5" font-family="Helvetica,sans-Serif" font-size="10.00" fill="#000000">splindex.hpp</text>
</a>
</g>
</g>
<!-- Node1&#45;&gt;Node26 -->
<g id="edge32" class="edge">
<title>Node1&#45;&gt;Node26</title>
<path fill="none" stroke="#191970" d="M966.2333,-280.4862C1010.8859,-252.5991 1141.7134,-170.8927 1195.982,-137.0001"/>
<polygon fill="#191970" stroke="#191970" points="1197.9726,-139.8835 1204.6003,-131.6177 1194.2645,-133.9462 1197.9726,-139.8835"/>
</g>
<!-- Node28 -->
<g id="node29" class="node">
<title>Node28</title>
<g id="a_node29"><a xlink:href="../../d4/d83/hdf5__tree_8hpp.html" target="_top" xlink:title="Contains definition and implementation of sddk::HDF5_tree class.">
<polygon fill="#ffffff" stroke="#000000" points="912,-168.5 912,-187.5 990,-187.5 990,-168.5 912,-168.5"/>
<text text-anchor="middle" x="951" y="-175.5" font-family="Helvetica,sans-Serif" font-size="10.00" fill="#000000">hdf5_tree.hpp</text>
</a>
</g>
</g>
<!-- Node1&#45;&gt;Node28 -->
<g id="edge38" class="edge">
<title>Node1&#45;&gt;Node28</title>
<path fill="none" stroke="#191970" d="M951,-280.4509C951,-262.184 951,-221.9553 951,-197.6976"/>
<polygon fill="#191970" stroke="#191970" points="954.5001,-197.5249 951,-187.5249 947.5001,-197.5249 954.5001,-197.5249"/>
</g>
<!-- Node3 -->
<g id="node4" class="node">
<title>Node3</title>
<g id="a_node4"><a xlink:title=" ">
<polygon fill="#ffffff" stroke="#bfbfbf" points="657.5,-56.5 657.5,-75.5 710.5,-75.5 710.5,-56.5 657.5,-56.5"/>
<text text-anchor="middle" x="684" y="-63.5" font-family="Helvetica,sans-Serif" font-size="10.00" fill="#000000">memory</text>
</a>
</g>
</g>
<!-- Node2&#45;&gt;Node3 -->
<g id="edge3" class="edge">
<title>Node2&#45;&gt;Node3</title>
<path fill="none" stroke="#191970" d="M712.5668,-224.2428C709.4285,-215.0081 704.8541,-200.7059 702,-188 693.9793,-152.294 688.6447,-109.8799 685.9849,-85.6339"/>
<polygon fill="#191970" stroke="#191970" points="689.4541,-85.1569 684.9225,-75.5801 682.4929,-85.8926 689.4541,-85.1569"/>
</g>
<!-- Node4 -->
<g id="node5" class="node">
<title>Node4</title>
<g id="a_node5"><a xlink:href="../../d1/d76/mpi__grid_8hpp.html" target="_top" xlink:title="Contains declaration and implementation of sddk::MPI_grid class.">
<polygon fill="#ffffff" stroke="#000000" points="711,-168.5 711,-187.5 785,-187.5 785,-168.5 711,-168.5"/>
<text text-anchor="middle" x="748" y="-175.5" font-family="Helvetica,sans-Serif" font-size="10.00" fill="#000000">mpi_grid.hpp</text>
</a>
</g>
</g>
<!-- Node2&#45;&gt;Node4 -->
<g id="edge4" class="edge">
<title>Node2&#45;&gt;Node4</title>
<path fill="none" stroke="#191970" d="M721.574,-224.2455C725.9331,-216.617 732.1211,-205.7881 737.4133,-196.5267"/>
<polygon fill="#191970" stroke="#191970" points="740.5673,-198.0616 742.4899,-187.6427 734.4896,-194.5886 740.5673,-198.0616"/>
</g>
<!-- Node23 -->
<g id="node24" class="node">
<title>Node23</title>
<g id="a_node24"><a xlink:href="../../d2/dfd/linalg__base_8hpp.html" target="_top" xlink:title="Basic interface to linear algebra functions.">
<polygon fill="#ffffff" stroke="#000000" points="58.5,-168.5 58.5,-187.5 145.5,-187.5 145.5,-168.5 58.5,-168.5"/>
<text text-anchor="middle" x="102" y="-175.5" font-family="Helvetica,sans-Serif" font-size="10.00" fill="#000000">linalg_base.hpp</text>
</a>
</g>
</g>
<!-- Node2&#45;&gt;Node23 -->
<g id="edge27" class="edge">
<title>Node2&#45;&gt;Node23</title>
<path fill="none" stroke="#191970" d="M674.7603,-230.2387C566.8579,-220.3975 276.2349,-193.8911 155.6111,-182.8896"/>
<polygon fill="#191970" stroke="#191970" points="155.7827,-179.3908 145.5061,-181.968 155.1468,-186.3619 155.7827,-179.3908"/>
</g>
<!-- Node5 -->
<g id="node6" class="node">
<title>Node5</title>
<g id="a_node6"><a xlink:href="../../d4/d32/communicator_8hpp.html" target="_top" xlink:title="Contains declaration and implementation of sddk::Communicator class.">
<polygon fill="#ffffff" stroke="#000000" points="749.5,-112.5 749.5,-131.5 848.5,-131.5 848.5,-112.5 749.5,-112.5"/>
<text text-anchor="middle" x="799" y="-119.5" font-family="Helvetica,sans-Serif" font-size="10.00" fill="#000000">communicator.hpp</text>
</a>
</g>
</g>
<!-- Node4&#45;&gt;Node5 -->
<g id="edge5" class="edge">
<title>Node4&#45;&gt;Node5</title>
<path fill="none" stroke="#191970" d="M756.8835,-168.2455C764.1966,-160.2155 774.7391,-148.6394 783.4467,-139.0781"/>
<polygon fill="#191970" stroke="#191970" points="786.0727,-141.3928 790.2183,-131.6427 780.8972,-136.6795 786.0727,-141.3928"/>
</g>
<!-- Node15 -->
<g id="node16" class="node">
<title>Node15</title>
<g id="a_node16"><a xlink:href="../../df/d93/utils_8hpp.html" target="_top" xlink:title="A collection of utility functions.">
<polygon fill="#ffffff" stroke="#000000" points="381,-112.5 381,-131.5 455,-131.5 455,-112.5 381,-112.5"/>
<text text-anchor="middle" x="418" y="-119.5" font-family="Helvetica,sans-Serif" font-size="10.00" fill="#000000">utils/utils.hpp</text>
</a>
</g>
</g>
<!-- Node4&#45;&gt;Node15 -->
<g id="edge16" class="edge">
<title>Node4&#45;&gt;Node15</title>
<path fill="none" stroke="#191970" d="M710.7863,-171.6849C650.4657,-161.4487 531.436,-141.2497 465.2323,-130.0152"/>
<polygon fill="#191970" stroke="#191970" points="465.5224,-126.5144 455.0777,-128.292 464.3512,-133.4158 465.5224,-126.5144"/>
</g>
<!-- Node5&#45;&gt;Node3 -->
<g id="edge12" class="edge">
<title>Node5&#45;&gt;Node3</title>
<path fill="none" stroke="#191970" d="M779.2308,-112.3733C760.8531,-103.4241 733.2688,-89.9917 712.5107,-79.8835"/>
<polygon fill="#191970" stroke="#191970" points="714.0343,-76.7325 703.5112,-75.5011 710.9696,-83.026 714.0343,-76.7325"/>
</g>
<!-- Node6 -->
<g id="node7" class="node">
<title>Node6</title>
<g id="a_node7"><a xlink:title=" ">
<polygon fill="#ffffff" stroke="#bfbfbf" points="728.5,-56.5 728.5,-75.5 769.5,-75.5 769.5,-56.5 728.5,-56.5"/>
<text text-anchor="middle" x="749" y="-63.5" font-family="Helvetica,sans-Serif" font-size="10.00" fill="#000000">mpi.h</text>
</a>
</g>
</g>
<!-- Node5&#45;&gt;Node6 -->
<g id="edge6" class="edge">
<title>Node5&#45;&gt;Node6</title>
<path fill="none" stroke="#191970" d="M790.2907,-112.2455C783.1927,-104.2958 772.9916,-92.8706 764.505,-83.3656"/>
<polygon fill="#191970" stroke="#191970" points="766.8805,-80.771 757.6095,-75.6427 761.6589,-85.4331 766.8805,-80.771"/>
</g>
<!-- Node7 -->
<g id="node8" class="node">
<title>Node7</title>
<g id="a_node8"><a xlink:title=" ">
<polygon fill="#ffffff" stroke="#bfbfbf" points="1014.5,-56.5 1014.5,-75.5 1063.5,-75.5 1063.5,-56.5 1014.5,-56.5"/>
<text text-anchor="middle" x="1039" y="-63.5" font-family="Helvetica,sans-Serif" font-size="10.00" fill="#000000">cassert</text>
</a>
</g>
</g>
<!-- Node5&#45;&gt;Node7 -->
<g id="edge7" class="edge">
<title>Node5&#45;&gt;Node7</title>
<path fill="none" stroke="#191970" d="M845.8457,-112.4647C885.528,-104.1796 944.1329,-91.4574 1004.1388,-76.0987"/>
<polygon fill="#191970" stroke="#191970" points="1005.3625,-79.3977 1014.1704,-73.5095 1003.613,-72.6198 1005.3625,-79.3977"/>
</g>
<!-- Node8 -->
<g id="node9" class="node">
<title>Node8</title>
<g id="a_node9"><a xlink:title=" ">
<polygon fill="#ffffff" stroke="#bfbfbf" points="909,-.5 909,-19.5 953,-19.5 953,-.5 909,-.5"/>
<text text-anchor="middle" x="931" y="-7.5" font-family="Helvetica,sans-Serif" font-size="10.00" fill="#000000">vector</text>
</a>
</g>
</g>
<!-- Node5&#45;&gt;Node8 -->
<g id="edge8" class="edge">
<title>Node5&#45;&gt;Node8</title>
<path fill="none" stroke="#191970" d="M799.0615,-112.2274C799.6669,-98.1155 802.7952,-71.9767 817,-56 838.0635,-32.3091 873.0624,-20.624 898.7346,-14.9883"/>
<polygon fill="#191970" stroke="#191970" points="899.6326,-18.3781 908.7537,-12.9878 898.262,-11.5136 899.6326,-18.3781"/>
</g>
<!-- Node9 -->
<g id="node10" class="node">
<title>Node9</title>
<g id="a_node10"><a xlink:title=" ">
<polygon fill="#ffffff" stroke="#bfbfbf" points="535,-.5 535,-19.5 589,-19.5 589,-.5 535,-.5"/>
<text text-anchor="middle" x="562" y="-7.5" font-family="Helvetica,sans-Serif" font-size="10.00" fill="#000000">complex</text>
</a>
</g>
</g>
<!-- Node5&#45;&gt;Node9 -->
<g id="edge9" class="edge">
<title>Node5&#45;&gt;Node9</title>
<path fill="none" stroke="#191970" d="M749.4893,-114.2242C689.3296,-104.3608 594.2869,-87.2806 582,-76 569.2089,-64.2565 564.4917,-44.636 562.8057,-29.8328"/>
<polygon fill="#191970" stroke="#191970" points="566.2801,-29.3642 562.0236,-19.6619 559.3007,-29.9009 566.2801,-29.3642"/>
</g>
<!-- Node10 -->
<g id="node11" class="node">
<title>Node10</title>
<g id="a_node11"><a xlink:title=" ">
<polygon fill="#ffffff" stroke="#bfbfbf" points="590.5,-56.5 590.5,-75.5 639.5,-75.5 639.5,-56.5 590.5,-56.5"/>
<text text-anchor="middle" x="615" y="-63.5" font-family="Helvetica,sans-Serif" font-size="10.00" fill="#000000">cstdarg</text>
</a>
</g>
</g>
<!-- Node5&#45;&gt;Node10 -->
<g id="edge10" class="edge">
<title>Node5&#45;&gt;Node10</title>
<path fill="none" stroke="#191970" d="M767.3693,-112.3733C734.5918,-102.3975 683.5103,-86.851 649.6571,-76.5478"/>
<polygon fill="#191970" stroke="#191970" points="650.3292,-73.0939 639.7434,-73.5306 648.291,-79.7906 650.3292,-73.0939"/>
</g>
<!-- Node11 -->
<g id="node12" class="node">
<title>Node11</title>
<g id="a_node12"><a xlink:title=" ">
<polygon fill="#ffffff" stroke="#bfbfbf" points="1081.5,-56.5 1081.5,-75.5 1140.5,-75.5 1140.5,-56.5 1081.5,-56.5"/>
<text text-anchor="middle" x="1111" y="-63.5" font-family="Helvetica,sans-Serif" font-size="10.00" fill="#000000">functional</text>
</a>
</g>
</g>
<!-- Node5&#45;&gt;Node11 -->
<g id="edge11" class="edge">
<title>Node5&#45;&gt;Node11</title>
<path fill="none" stroke="#191970" d="M848.7567,-115.038C901.7588,-107.3115 988.2864,-93.8113 1071.3438,-76.2264"/>
<polygon fill="#191970" stroke="#191970" points="1072.1451,-79.6343 1081.1909,-74.1186 1070.6798,-72.7894 1072.1451,-79.6343"/>
</g>
<!-- Node12 -->
<g id="node13" class="node">
<title>Node12</title>
<g id="a_node13"><a xlink:title=" ">
<polygon fill="#ffffff" stroke="#bfbfbf" points="1197,-56.5 1197,-75.5 1255,-75.5 1255,-56.5 1197,-56.5"/>
<text text-anchor="middle" x="1226" y="-63.5" font-family="Helvetica,sans-Serif" font-size="10.00" fill="#000000">algorithm</text>
</a>
</g>
</g>
<!-- Node5&#45;&gt;Node12 -->
<g id="edge13" class="edge">
<title>Node5&#45;&gt;Node12</title>
<path fill="none" stroke="#191970" d="M848.6991,-115.4949C916.7116,-106.591 1042.6013,-90.1032 1150,-76 1161.9403,-74.432 1174.9356,-72.7231 1186.7479,-71.1687"/>
<polygon fill="#191970" stroke="#191970" points="1187.3099,-74.625 1196.7677,-69.8499 1186.3965,-67.6848 1187.3099,-74.625"/>
</g>
<!-- Node13 -->
<g id="node14" class="node">
<title>Node13</title>
<g id="a_node14"><a xlink:title=" ">
<polygon fill="#ffffff" stroke="#bfbfbf" points="826,-56.5 826,-75.5 872,-75.5 872,-56.5 826,-56.5"/>
<text text-anchor="middle" x="849" y="-63.5" font-family="Helvetica,sans-Serif" font-size="10.00" fill="#000000">cstring</text>
</a>
</g>
</g>
<!-- Node5&#45;&gt;Node13 -->
<g id="edge14" class="edge">
<title>Node5&#45;&gt;Node13</title>
<path fill="none" stroke="#191970" d="M807.7093,-112.2455C814.8073,-104.2958 825.0084,-92.8706 833.495,-83.3656"/>
<polygon fill="#191970" stroke="#191970" points="836.3411,-85.4331 840.3905,-75.6427 831.1195,-80.771 836.3411,-85.4331"/>
</g>
<!-- Node14 -->
<g id="node15" class="node">
<title>Node14</title>
<g id="a_node15"><a xlink:title=" ">
<polygon fill="#ffffff" stroke="#bfbfbf" points="890,-56.5 890,-75.5 926,-75.5 926,-56.5 890,-56.5"/>
<text text-anchor="middle" x="908" y="-63.5" font-family="Helvetica,sans-Serif" font-size="10.00" fill="#000000">map</text>
</a>
</g>
</g>
<!-- Node5&#45;&gt;Node14 -->
<g id="edge15" class="edge">
<title>Node5&#45;&gt;Node14</title>
<path fill="none" stroke="#191970" d="M817.9864,-112.2455C835.3889,-103.3048 861.3481,-89.968 880.9235,-79.9109"/>
<polygon fill="#191970" stroke="#191970" points="882.6597,-82.9538 889.955,-75.2708 879.4608,-76.7275 882.6597,-82.9538"/>
</g>
<!-- Node15&#45;&gt;Node7 -->
<g id="edge17" class="edge">
<title>Node15&#45;&gt;Node7</title>
<path fill="none" stroke="#191970" d="M455.0112,-120.109C563.5426,-114.4089 880.5726,-96.6127 1004.2945,-75.6937"/>
<polygon fill="#191970" stroke="#191970" points="1005.0284,-79.1182 1014.2616,-73.9222 1003.8034,-72.2262 1005.0284,-79.1182"/>
</g>
<!-- Node15&#45;&gt;Node8 -->
<g id="edge20" class="edge">
<title>Node15&#45;&gt;Node8</title>
<path fill="none" stroke="#191970" d="M423.1172,-112.3093C431.6325,-97.2893 450.2512,-68.7886 475,-56 549.5703,-17.4669 767.5688,-29.2066 851,-20 866.7853,-18.2581 884.2929,-16.0959 898.8953,-14.2282"/>
<polygon fill="#191970" stroke="#191970" points="899.479,-17.682 908.9486,-12.9304 898.5827,-10.7396 899.479,-17.682"/>
</g>
<!-- Node15&#45;&gt;Node9 -->
<g id="edge25" class="edge">
<title>Node15&#45;&gt;Node9</title>
<path fill="none" stroke="#191970" d="M380.8252,-118.8415C305.6881,-112.0807 141.4617,-95.2478 125,-76 119.2226,-69.2447 119.0527,-62.6062 125,-56 151.5588,-26.4988 423.7926,-14.5616 524.6662,-11.129"/>
<polygon fill="#191970" stroke="#191970" points="524.8348,-14.6254 534.7134,-10.7961 524.6029,-7.6293 524.8348,-14.6254"/>
</g>
<!-- Node16 -->
<g id="node17" class="node">
<title>Node16</title>
<g id="a_node17"><a xlink:title=" ">
<polygon fill="#ffffff" stroke="#bfbfbf" points="134,-56.5 134,-75.5 178,-75.5 178,-56.5 134,-56.5"/>
<text text-anchor="middle" x="156" y="-63.5" font-family="Helvetica,sans-Serif" font-size="10.00" fill="#000000">cmath</text>
</a>
</g>
</g>
<!-- Node15&#45;&gt;Node16 -->
<g id="edge18" class="edge">
<title>Node15&#45;&gt;Node16</title>
<path fill="none" stroke="#191970" d="M380.8945,-115.9718C336.9807,-108.5396 261.5158,-94.8343 188.1297,-76.0774"/>
<polygon fill="#191970" stroke="#191970" points="188.8189,-72.6405 178.2607,-73.5205 187.0632,-79.4167 188.8189,-72.6405"/>
</g>
<!-- Node17 -->
<g id="node18" class="node">
<title>Node17</title>
<g id="a_node18"><a xlink:title=" ">
<polygon fill="#ffffff" stroke="#bfbfbf" points="196.5,-56.5 196.5,-75.5 237.5,-75.5 237.5,-56.5 196.5,-56.5"/>
<text text-anchor="middle" x="217" y="-63.5" font-family="Helvetica,sans-Serif" font-size="10.00" fill="#000000">string</text>
</a>
</g>
</g>
<!-- Node15&#45;&gt;Node17 -->
<g id="edge19" class="edge">
<title>Node15&#45;&gt;Node17</title>
<path fill="none" stroke="#191970" d="M380.7953,-112.6664C348.0719,-104.3071 298.9555,-91.3984 247.281,-75.9582"/>
<polygon fill="#191970" stroke="#191970" points="248.1903,-72.5768 237.6059,-73.0462 246.1728,-79.2798 248.1903,-72.5768"/>
</g>
<!-- Node18 -->
<g id="node19" class="node">
<title>Node18</title>
<g id="a_node19"><a xlink:title=" ">
<polygon fill="#ffffff" stroke="#bfbfbf" points="484,-56.5 484,-75.5 534,-75.5 534,-56.5 484,-56.5"/>
<text text-anchor="middle" x="509" y="-63.5" font-family="Helvetica,sans-Serif" font-size="10.00" fill="#000000">fstream</text>
</a>
</g>
</g>
<!-- Node15&#45;&gt;Node18 -->
<g id="edge21" class="edge">
<title>Node15&#45;&gt;Node18</title>
<path fill="none" stroke="#191970" d="M433.851,-112.2455C447.8132,-103.6534 468.3728,-91.0014 484.4596,-81.1018"/>
<polygon fill="#191970" stroke="#191970" points="486.6484,-83.8645 493.3307,-75.6427 482.9797,-77.9029 486.6484,-83.8645"/>
</g>
<!-- Node19 -->
<g id="node20" class="node">
<title>Node19</title>
<g id="a_node20"><a xlink:title=" ">
<polygon fill="#ffffff" stroke="#bfbfbf" points="944,-56.5 944,-75.5 996,-75.5 996,-56.5 944,-56.5"/>
<text text-anchor="middle" x="970" y="-63.5" font-family="Helvetica,sans-Serif" font-size="10.00" fill="#000000">sstream</text>
</a>
</g>
</g>
<!-- Node15&#45;&gt;Node19 -->
<g id="edge22" class="edge">
<title>Node15&#45;&gt;Node19</title>
<path fill="none" stroke="#191970" d="M455.3146,-121.1004C539.3416,-118.5584 749.789,-109.3048 933.8976,-75.8932"/>
<polygon fill="#191970" stroke="#191970" points="934.5541,-79.3313 943.754,-74.0765 933.2852,-72.4472 934.5541,-79.3313"/>
</g>
<!-- Node20 -->
<g id="node21" class="node">
<title>Node20</title>
<g id="a_node21"><a xlink:title=" ">
<polygon fill="#ffffff" stroke="#bfbfbf" points="256,-56.5 256,-75.5 318,-75.5 318,-56.5 256,-56.5"/>
<text text-anchor="middle" x="287" y="-63.5" font-family="Helvetica,sans-Serif" font-size="10.00" fill="#000000">sys/time.h</text>
</a>
</g>
</g>
<!-- Node15&#45;&gt;Node20 -->
<g id="edge23" class="edge">
<title>Node15&#45;&gt;Node20</title>
<path fill="none" stroke="#191970" d="M395.4803,-112.3733C374.2628,-103.3032 342.2724,-89.6279 318.5231,-79.4755"/>
<polygon fill="#191970" stroke="#191970" points="319.7967,-76.2136 309.2258,-75.5011 317.0452,-82.6502 319.7967,-76.2136"/>
</g>
<!-- Node21 -->
<g id="node22" class="node">
<title>Node21</title>
<g id="a_node22"><a xlink:title=" ">
<polygon fill="#ffffff" stroke="#bfbfbf" points="790,-.5 790,-19.5 842,-19.5 842,-.5 790,-.5"/>
<text text-anchor="middle" x="816" y="-7.5" font-family="Helvetica,sans-Serif" font-size="10.00" fill="#000000">unistd.h</text>
</a>
</g>
</g>
<!-- Node15&#45;&gt;Node21 -->
<g id="edge24" class="edge">
<title>Node15&#45;&gt;Node21</title>
<path fill="none" stroke="#191970" d="M418.5044,-112.1077C419.8318,-97.3471 424.6373,-69.8181 442,-56 468.1621,-35.179 691.0565,-18.2765 779.7808,-12.3125"/>
<polygon fill="#191970" stroke="#191970" points="780.1673,-15.7947 789.9135,-11.6399 779.7036,-8.81 780.1673,-15.7947"/>
</g>
<!-- Node22 -->
<g id="node23" class="node">
<title>Node22</title>
<g id="a_node23"><a xlink:title=" ">
<polygon fill="#ffffff" stroke="#bfbfbf" points="336,-56.5 336,-75.5 390,-75.5 390,-56.5 336,-56.5"/>
<text text-anchor="middle" x="363" y="-63.5" font-family="Helvetica,sans-Serif" font-size="10.00" fill="#000000">json.hpp</text>
</a>
</g>
</g>
<!-- Node15&#45;&gt;Node22 -->
<g id="edge26" class="edge">
<title>Node15&#45;&gt;Node22</title>
<path fill="none" stroke="#191970" d="M408.4197,-112.2455C400.4542,-104.1352 388.9359,-92.4075 379.4921,-82.7919"/>
<polygon fill="#191970" stroke="#191970" points="381.9747,-80.3247 372.4705,-75.6427 376.9805,-85.2297 381.9747,-80.3247"/>
</g>
<!-- Node24 -->
<g id="node25" class="node">
<title>Node24</title>
<g id="a_node25"><a xlink:href="../../dd/df1/blas__lapack_8h.html" target="_top" xlink:title="Interface to some BLAS/LAPACK functions.">
<polygon fill="#ffffff" stroke="#000000" points="0,-56.5 0,-75.5 78,-75.5 78,-56.5 0,-56.5"/>
<text text-anchor="middle" x="39" y="-63.5" font-family="Helvetica,sans-Serif" font-size="10.00" fill="#000000">blas_lapack.h</text>
</a>
</g>
</g>
<!-- Node23&#45;&gt;Node24 -->
<g id="edge28" class="edge">
<title>Node23&#45;&gt;Node24</title>
<path fill="none" stroke="#191970" d="M89.8654,-168.2631C79.948,-159.6942 66.2617,-146.3714 58,-132 49.736,-117.6247 44.8437,-99.3918 42.0986,-85.7342"/>
<polygon fill="#191970" stroke="#191970" points="45.4781,-84.7498 40.2707,-75.523 38.5876,-85.9833 45.4781,-84.7498"/>
</g>
<!-- Node25 -->
<g id="node26" class="node">
<title>Node25</title>
<g id="a_node26"><a xlink:href="../../d3/ddb/scalapack_8h.html" target="_top" xlink:title="Interface to some ScaLAPACK functions.">
<polygon fill="#ffffff" stroke="#000000" points="67.5,-112.5 67.5,-131.5 136.5,-131.5 136.5,-112.5 67.5,-112.5"/>
<text text-anchor="middle" x="102" y="-119.5" font-family="Helvetica,sans-Serif" font-size="10.00" fill="#000000">scalapack.h</text>
</a>
</g>
</g>
<!-- Node23&#45;&gt;Node25 -->
<g id="edge30" class="edge">
<title>Node23&#45;&gt;Node25</title>
<path fill="none" stroke="#191970" d="M102,-168.2455C102,-160.9382 102,-150.6944 102,-141.7046"/>
<polygon fill="#191970" stroke="#191970" points="105.5001,-141.6426 102,-131.6427 98.5001,-141.6427 105.5001,-141.6426"/>
</g>
<!-- Node24&#45;&gt;Node9 -->
<g id="edge29" class="edge">
<title>Node24&#45;&gt;Node9</title>
<path fill="none" stroke="#191970" d="M78.0091,-58.2327C82.7129,-57.4166 87.458,-56.6495 92,-56 252.3972,-33.0653 445.2456,-18.127 524.8526,-12.507"/>
<polygon fill="#191970" stroke="#191970" points="525.1455,-15.9952 534.8771,-11.8065 524.6574,-9.0122 525.1455,-15.9952"/>
</g>
<!-- Node25&#45;&gt;Node24 -->
<g id="edge31" class="edge">
<title>Node25&#45;&gt;Node24</title>
<path fill="none" stroke="#191970" d="M91.0262,-112.2455C81.8118,-104.0549 68.4468,-92.1749 57.5703,-82.5069"/>
<polygon fill="#191970" stroke="#191970" points="59.6474,-79.6704 49.848,-75.6427 54.9968,-84.9023 59.6474,-79.6704"/>
</g>
<!-- Node26&#45;&gt;Node7 -->
<g id="edge37" class="edge">
<title>Node26&#45;&gt;Node7</title>
<path fill="none" stroke="#191970" d="M1188.885,-112.3733C1156.7336,-102.4259 1106.6787,-86.9393 1073.3763,-76.6358"/>
<polygon fill="#191970" stroke="#191970" points="1074.205,-73.2285 1063.6173,-73.6164 1072.136,-79.9158 1074.205,-73.2285"/>
</g>
<!-- Node26&#45;&gt;Node8 -->
<g id="edge34" class="edge">
<title>Node26&#45;&gt;Node8</title>
<path fill="none" stroke="#191970" d="M1256.9146,-119.8294C1313.8858,-115.6227 1419.0772,-104.1595 1442,-76 1447.6116,-69.1064 1447.997,-62.5611 1442,-56 1433.876,-47.1118 1074.6897,-20.4048 963.4738,-12.3347"/>
<polygon fill="#191970" stroke="#191970" points="963.4371,-8.823 953.2105,-11.5919 962.9317,-15.8047 963.4371,-8.823"/>
</g>
<!-- Node26&#45;&gt;Node12 -->
<g id="edge33" class="edge">
<title>Node26&#45;&gt;Node12</title>
<path fill="none" stroke="#191970" d="M1221.0451,-112.2455C1221.828,-104.9382 1222.9256,-94.6944 1223.8888,-85.7046"/>
<polygon fill="#191970" stroke="#191970" points="1227.3815,-85.9587 1224.9669,-75.6427 1220.4214,-85.2129 1227.3815,-85.9587"/>
</g>
<!-- Node26&#45;&gt;Node19 -->
<g id="edge35" class="edge">
<title>Node26&#45;&gt;Node19</title>
<path fill="none" stroke="#191970" d="M1183.4993,-114.8393C1140.7817,-106.3008 1067.9921,-91.2585 1006,-76 1005.9016,-75.9758 1005.803,-75.9515 1005.7043,-75.9271"/>
<polygon fill="#191970" stroke="#191970" points="1006.8563,-72.6098 996.2988,-73.4988 1005.1063,-79.3876 1006.8563,-72.6098"/>
</g>
<!-- Node27 -->
<g id="node28" class="node">
<title>Node27</title>
<g id="a_node28"><a xlink:title=" ">
<polygon fill="#ffffff" stroke="#bfbfbf" points="1583.5,-56.5 1583.5,-75.5 1622.5,-75.5 1622.5,-56.5 1583.5,-56.5"/>
<text text-anchor="middle" x="1603" y="-63.5" font-family="Helvetica,sans-Serif" font-size="10.00" fill="#000000">limits</text>
</a>
</g>
</g>
<!-- Node26&#45;&gt;Node27 -->
<g id="edge36" class="edge">
<title>Node26&#45;&gt;Node27</title>
<path fill="none" stroke="#191970" d="M1256.619,-119.699C1319.6538,-115.2102 1452.7108,-103.4205 1573.4105,-75.7118"/>
<polygon fill="#191970" stroke="#191970" points="1574.2475,-79.1106 1583.1878,-73.4255 1572.6535,-72.2945 1574.2475,-79.1106"/>
</g>
<!-- Node28&#45;&gt;Node18 -->
<g id="edge39" class="edge">
<title>Node28&#45;&gt;Node18</title>
<path fill="none" stroke="#191970" d="M911.7408,-170.1529C869.4259,-161.5198 800.1796,-146.8844 741,-132 670.5857,-114.29 589.1294,-90.2939 543.8892,-76.6507"/>
<polygon fill="#191970" stroke="#191970" points="544.8516,-73.2853 534.2665,-73.7401 542.8249,-79.9855 544.8516,-73.2853"/>
</g>
<!-- Node29 -->
<g id="node30" class="node">
<title>Node29</title>
<g id="a_node30"><a xlink:title=" ">
<polygon fill="#ffffff" stroke="#bfbfbf" points="929,-112.5 929,-131.5 973,-131.5 973,-112.5 929,-112.5"/>
<text text-anchor="middle" x="951" y="-119.5" font-family="Helvetica,sans-Serif" font-size="10.00" fill="#000000">hdf5.h</text>
</a>
</g>
</g>
<!-- Node28&#45;&gt;Node29 -->
<g id="edge40" class="edge">
<title>Node28&#45;&gt;Node29</title>
<path fill="none" stroke="#191970" d="M951,-168.2455C951,-160.9382 951,-150.6944 951,-141.7046"/>
<polygon fill="#191970" stroke="#191970" points="954.5001,-141.6426 951,-131.6427 947.5001,-141.6427 954.5001,-141.6426"/>
</g>
<!-- Node30 -->
<g id="node31" class="node">
<title>Node30</title>
<g id="a_node31"><a xlink:href="../../da/d3e/memory_8hpp.html" target="_top" xlink:title="Memory management functions and classes.">
<polygon fill="#ffffff" stroke="#000000" points="1081,-112.5 1081,-131.5 1153,-131.5 1153,-112.5 1081,-112.5"/>
<text text-anchor="middle" x="1117" y="-119.5" font-family="Helvetica,sans-Serif" font-size="10.00" fill="#000000">memory.hpp</text>
</a>
</g>
</g>
<!-- Node28&#45;&gt;Node30 -->
<g id="edge41" class="edge">
<title>Node28&#45;&gt;Node30</title>
<path fill="none" stroke="#191970" d="M979.5364,-168.3733C1007.0202,-159.1016 1048.7686,-145.0178 1079.0452,-134.804"/>
<polygon fill="#191970" stroke="#191970" points="1080.4794,-138.0141 1088.836,-131.5011 1078.2418,-131.3813 1080.4794,-138.0141"/>
</g>
<!-- Node30&#45;&gt;Node3 -->
<g id="edge45" class="edge">
<title>Node30&#45;&gt;Node3</title>
<path fill="none" stroke="#191970" d="M1080.8545,-119.7027C1012.3842,-114.9449 859.0038,-102.3473 720.5663,-75.8271"/>
<polygon fill="#191970" stroke="#191970" points="721.1104,-72.3674 710.626,-73.8935 719.7737,-79.2386 721.1104,-72.3674"/>
</g>
<!-- Node30&#45;&gt;Node7 -->
<g id="edge51" class="edge">
<title>Node30&#45;&gt;Node7</title>
<path fill="none" stroke="#191970" d="M1103.4134,-112.2455C1091.6695,-103.814 1074.4801,-91.4729 1060.8118,-81.6598"/>
<polygon fill="#191970" stroke="#191970" points="1062.5954,-78.6316 1052.4309,-75.6427 1058.5129,-84.3179 1062.5954,-78.6316"/>
</g>
<!-- Node30&#45;&gt;Node9 -->
<g id="edge50" class="edge">
<title>Node30&#45;&gt;Node9</title>
<path fill="none" stroke="#191970" d="M1128.1382,-112.4793C1142.9815,-98.6812 1165.6567,-72.9294 1150,-56 1131.2536,-35.7298 726.6063,-16.959 599.7107,-11.5531"/>
<polygon fill="#191970" stroke="#191970" points="599.4784,-8.0402 589.3395,-11.1148 599.1828,-15.034 599.4784,-8.0402"/>
</g>
<!-- Node30&#45;&gt;Node11 -->
<g id="edge47" class="edge">
<title>Node30&#45;&gt;Node11</title>
<path fill="none" stroke="#191970" d="M1115.9549,-112.2455C1115.172,-104.9382 1114.0744,-94.6944 1113.1112,-85.7046"/>
<polygon fill="#191970" stroke="#191970" points="1116.5786,-85.2129 1112.0331,-75.6427 1109.6185,-85.9587 1116.5786,-85.2129"/>
</g>
<!-- Node30&#45;&gt;Node12 -->
<g id="edge48" class="edge">
<title>Node30&#45;&gt;Node12</title>
<path fill="none" stroke="#191970" d="M1135.9864,-112.2455C1153.1792,-103.4125 1178.7238,-90.2887 1198.2132,-80.2758"/>
<polygon fill="#191970" stroke="#191970" points="1199.9359,-83.3257 1207.2312,-75.6427 1196.737,-77.0993 1199.9359,-83.3257"/>
</g>
<!-- Node30&#45;&gt;Node13 -->
<g id="edge46" class="edge">
<title>Node30&#45;&gt;Node13</title>
<path fill="none" stroke="#191970" d="M1080.7414,-116.2126C1036.0848,-108.8047 957.7723,-94.9058 882.0348,-76.0633"/>
<polygon fill="#191970" stroke="#191970" points="882.886,-72.6684 872.3339,-73.6186 881.1754,-79.4562 882.886,-72.6684"/>
</g>
<!-- Node30&#45;&gt;Node14 -->
<g id="edge44" class="edge">
<title>Node30&#45;&gt;Node14</title>
<path fill="none" stroke="#191970" d="M1080.769,-114.0488C1045.8307,-106.1157 991.3262,-93.0444 935.8442,-76.0363"/>
<polygon fill="#191970" stroke="#191970" points="936.797,-72.6674 926.2089,-73.0452 934.7216,-79.3526 936.797,-72.6674"/>
</g>
<!-- Node31 -->
<g id="node32" class="node">
<title>Node31</title>
<g id="a_node32"><a xlink:title=" ">
<polygon fill="#ffffff" stroke="#bfbfbf" points="1330.5,-56.5 1330.5,-75.5 1359.5,-75.5 1359.5,-56.5 1330.5,-56.5"/>
<text text-anchor="middle" x="1345" y="-63.5" font-family="Helvetica,sans-Serif" font-size="10.00" fill="#000000">list</text>
</a>
</g>
</g>
<!-- Node30&#45;&gt;Node31 -->
<g id="edge42" class="edge">
<title>Node30&#45;&gt;Node31</title>
<path fill="none" stroke="#191970" d="M1153.0589,-114.7674C1199.2927,-105.3578 1277.7997,-88.8909 1320.319,-76.0697"/>
<polygon fill="#191970" stroke="#191970" points="1321.5904,-79.3384 1330.0642,-72.9787 1319.474,-72.666 1321.5904,-79.3384"/>
</g>
<!-- Node32 -->
<g id="node33" class="node">
<title>Node32</title>
<g id="a_node33"><a xlink:title=" ">
<polygon fill="#ffffff" stroke="#bfbfbf" points="1377.5,-56.5 1377.5,-75.5 1432.5,-75.5 1432.5,-56.5 1377.5,-56.5"/>
<text text-anchor="middle" x="1405" y="-63.5" font-family="Helvetica,sans-Serif" font-size="10.00" fill="#000000">iostream</text>
</a>
</g>
</g>
<!-- Node30&#45;&gt;Node32 -->
<g id="edge43" class="edge">
<title>Node30&#45;&gt;Node32</title>
<path fill="none" stroke="#191970" d="M1153.2314,-115.5738C1212.1905,-105.091 1325.8613,-84.7677 1367.3016,-76.1487"/>
<polygon fill="#191970" stroke="#191970" points="1368.1294,-79.5505 1377.1555,-74.0024 1366.6396,-72.7109 1368.1294,-79.5505"/>
</g>
<!-- Node33 -->
<g id="node34" class="node">
<title>Node33</title>
<g id="a_node34"><a xlink:title=" ">
<polygon fill="#ffffff" stroke="#bfbfbf" points="1273.5,-56.5 1273.5,-75.5 1312.5,-75.5 1312.5,-56.5 1273.5,-56.5"/>
<text text-anchor="middle" x="1293" y="-63.5" font-family="Helvetica,sans-Serif" font-size="10.00" fill="#000000">array</text>
</a>
</g>
</g>
<!-- Node30&#45;&gt;Node33 -->
<g id="edge49" class="edge">
<title>Node30&#45;&gt;Node33</title>
<path fill="none" stroke="#191970" d="M1148.3405,-112.4788C1176.1786,-103.9586 1218.195,-90.9458 1263.6276,-76.0586"/>
<polygon fill="#191970" stroke="#191970" points="1264.9645,-79.3035 1273.3704,-72.8544 1262.7775,-72.6539 1264.9645,-79.3035"/>
</g>
<!-- Node34 -->
<g id="node35" class="node">
<title>Node34</title>
<g id="a_node35"><a xlink:href="../../d4/d86/acc_8hpp.html" target="_top" xlink:title="Interface to accelerators API.">
<polygon fill="#ffffff" stroke="#000000" points="1489,-56.5 1489,-75.5 1565,-75.5 1565,-56.5 1489,-56.5"/>
<text text-anchor="middle" x="1527" y="-63.5" font-family="Helvetica,sans-Serif" font-size="10.00" fill="#000000">GPU/acc.hpp</text>
</a>
</g>
</g>
<!-- Node30&#45;&gt;Node34 -->
<g id="edge52" class="edge">
<title>Node30&#45;&gt;Node34</title>
<path fill="none" stroke="#191970" d="M1153.1622,-115.5307C1160.3871,-114.3044 1167.9281,-113.0713 1175,-112 1283.3855,-95.5814 1411.0858,-79.7717 1478.9381,-71.6508"/>
<polygon fill="#191970" stroke="#191970" points="1479.3888,-75.1219 1488.9037,-70.4619 1478.5595,-68.1712 1479.3888,-75.1219"/>
</g>
<!-- Node34&#45;&gt;Node8 -->
<g id="edge65" class="edge">
<title>Node34&#45;&gt;Node8</title>
<path fill="none" stroke="#191970" d="M1488.7388,-58.1671C1484.1215,-57.3625 1479.4624,-56.616 1475,-56 1375.011,-42.1975 1064.8414,-19.5206 963.4402,-12.2903"/>
<polygon fill="#191970" stroke="#191970" points="963.4308,-8.7808 953.2077,-11.5626 962.9342,-15.7632 963.4308,-8.7808"/>
</g>
<!-- Node34&#45;&gt;Node9 -->
<g id="edge64" class="edge">
<title>Node34&#45;&gt;Node9</title>
<path fill="none" stroke="#191970" d="M1488.9718,-60.9923C1474.3131,-59.2022 1457.3977,-57.3068 1442,-56 1357.248,-48.8071 755.6456,-19.397 599.1395,-11.7985"/>
<polygon fill="#191970" stroke="#191970" points="599.2259,-8.2987 589.068,-11.3098 598.8865,-15.2905 599.2259,-8.2987"/>
</g>
<!-- Node34&#45;&gt;Node21 -->
<g id="edge61" class="edge">
<title>Node34&#45;&gt;Node21</title>
<path fill="none" stroke="#191970" d="M1488.9617,-61.1071C1474.3017,-59.3311 1457.3881,-57.4153 1442,-56 1201.595,-33.889 1140.3897,-42.277 900,-20 884.3493,-18.5496 867.1034,-16.5642 852.3314,-14.7446"/>
<polygon fill="#191970" stroke="#191970" points="852.4282,-11.2294 842.0706,-13.4589 851.5578,-18.1751 852.4282,-11.2294"/>
</g>
<!-- Node35 -->
<g id="node36" class="node">
<title>Node35</title>
<g id="a_node36"><a xlink:title=" ">
<polygon fill="#ffffff" stroke="#bfbfbf" points="1238.5,-.5 1238.5,-19.5 1323.5,-19.5 1323.5,-.5 1238.5,-.5"/>
<text text-anchor="middle" x="1281" y="-7.5" font-family="Helvetica,sans-Serif" font-size="10.00" fill="#000000">cuda_runtime.h</text>
</a>
</g>
</g>
<!-- Node34&#45;&gt;Node35 -->
<g id="edge53" class="edge">
<title>Node34&#45;&gt;Node35</title>
<path fill="none" stroke="#191970" d="M1488.8324,-57.3114C1446.9645,-47.7805 1379.5287,-32.4293 1332.8816,-21.8104"/>
<polygon fill="#191970" stroke="#191970" points="1333.4949,-18.3606 1322.9674,-19.5536 1331.9411,-25.186 1333.4949,-18.3606"/>
</g>
<!-- Node36 -->
<g id="node37" class="node">
<title>Node36</title>
<g id="a_node37"><a xlink:title=" ">
<polygon fill="#ffffff" stroke="#bfbfbf" points="1341.5,-.5 1341.5,-19.5 1388.5,-19.5 1388.5,-.5 1341.5,-.5"/>
<text text-anchor="middle" x="1365" y="-7.5" font-family="Helvetica,sans-Serif" font-size="10.00" fill="#000000">cuda.h</text>
</a>
</g>
</g>
<!-- Node34&#45;&gt;Node36 -->
<g id="edge54" class="edge">
<title>Node34&#45;&gt;Node36</title>
<path fill="none" stroke="#191970" d="M1499.1512,-56.3733C1471.1105,-46.6802 1427.8547,-31.7275 1398.0828,-21.436"/>
<polygon fill="#191970" stroke="#191970" points="1399.1394,-18.0981 1388.5447,-18.1389 1396.8524,-24.714 1399.1394,-18.0981"/>
</g>
<!-- Node37 -->
<g id="node38" class="node">
<title>Node37</title>
<g id="a_node38"><a xlink:title=" ">
<polygon fill="#ffffff" stroke="#bfbfbf" points="1407,-.5 1407,-19.5 1477,-19.5 1477,-.5 1407,-.5"/>
<text text-anchor="middle" x="1442" y="-7.5" font-family="Helvetica,sans-Serif" font-size="10.00" fill="#000000">cublas_v2.h</text>
</a>
</g>
</g>
<!-- Node34&#45;&gt;Node37 -->
<g id="edge55" class="edge">
<title>Node34&#45;&gt;Node37</title>
<path fill="none" stroke="#191970" d="M1512.1941,-56.2455C1499.2744,-47.7337 1480.3069,-35.2375 1465.3448,-25.3801"/>
<polygon fill="#191970" stroke="#191970" points="1466.9124,-22.2216 1456.6362,-19.6427 1463.0613,-28.067 1466.9124,-22.2216"/>
</g>
<!-- Node38 -->
<g id="node39" class="node">
<title>Node38</title>
<g id="a_node39"><a xlink:title=" ">
<polygon fill="#ffffff" stroke="#bfbfbf" points="1495.5,-.5 1495.5,-19.5 1558.5,-19.5 1558.5,-.5 1495.5,-.5"/>
<text text-anchor="middle" x="1527" y="-7.5" font-family="Helvetica,sans-Serif" font-size="10.00" fill="#000000">cublasXt.h</text>
</a>
</g>
</g>
<!-- Node34&#45;&gt;Node38 -->
<g id="edge56" class="edge">
<title>Node34&#45;&gt;Node38</title>
<path fill="none" stroke="#191970" d="M1527,-56.2455C1527,-48.9382 1527,-38.6944 1527,-29.7046"/>
<polygon fill="#191970" stroke="#191970" points="1530.5001,-29.6426 1527,-19.6427 1523.5001,-29.6427 1530.5001,-29.6426"/>
</g>
<!-- Node39 -->
<g id="node40" class="node">
<title>Node39</title>
<g id="a_node40"><a xlink:title=" ">
<polygon fill="#ffffff" stroke="#bfbfbf" points="1577,-.5 1577,-19.5 1679,-19.5 1679,-.5 1577,-.5"/>
<text text-anchor="middle" x="1628" y="-7.5" font-family="Helvetica,sans-Serif" font-size="10.00" fill="#000000">cuda_profiler_api.h</text>
</a>
</g>
</g>
<!-- Node34&#45;&gt;Node39 -->
<g id="edge57" class="edge">
<title>Node34&#45;&gt;Node39</title>
<path fill="none" stroke="#191970" d="M1544.5929,-56.2455C1560.379,-47.4928 1583.7639,-34.527 1601.7587,-24.5496"/>
<polygon fill="#191970" stroke="#191970" points="1603.5603,-27.5528 1610.6087,-19.6427 1600.1659,-21.4308 1603.5603,-27.5528"/>
</g>
<!-- Node40 -->
<g id="node41" class="node">
<title>Node40</title>
<g id="a_node41"><a xlink:title=" ">
<polygon fill="#ffffff" stroke="#bfbfbf" points="1697,-.5 1697,-19.5 1771,-19.5 1771,-.5 1697,-.5"/>
<text text-anchor="middle" x="1734" y="-7.5" font-family="Helvetica,sans-Serif" font-size="10.00" fill="#000000">nvToolsExt.h</text>
</a>
</g>
</g>
<!-- Node34&#45;&gt;Node40 -->
<g id="edge58" class="edge">
<title>Node34&#45;&gt;Node40</title>
<path fill="none" stroke="#191970" d="M1562.5846,-56.3733C1597.6016,-46.9001 1651.1881,-32.4032 1689.1125,-22.1435"/>
<polygon fill="#191970" stroke="#191970" points="1690.1408,-25.4912 1698.8798,-19.5011 1688.3127,-18.7341 1690.1408,-25.4912"/>
</g>
<!-- Node41 -->
<g id="node42" class="node">
<title>Node41</title>
<g id="a_node42"><a xlink:title=" ">
<polygon fill="#ffffff" stroke="#bfbfbf" points="1789.5,-.5 1789.5,-19.5 1864.5,-19.5 1864.5,-.5 1789.5,-.5"/>
<text text-anchor="middle" x="1827" y="-7.5" font-family="Helvetica,sans-Serif" font-size="10.00" fill="#000000">cuComplex.h</text>
</a>
</g>
</g>
<!-- Node34&#45;&gt;Node41 -->
<g id="edge59" class="edge">
<title>Node34&#45;&gt;Node41</title>
<path fill="none" stroke="#191970" d="M1565.2303,-57.9219C1568.5321,-57.2587 1571.8233,-56.6097 1575,-56 1662.7422,-39.1603 1687.5153,-37.7116 1779.3108,-20.0768"/>
<polygon fill="#191970" stroke="#191970" points="1780.1606,-23.4774 1789.3141,-18.1423 1778.8315,-16.6047 1780.1606,-23.4774"/>
</g>
<!-- Node42 -->
<g id="node43" class="node">
<title>Node42</title>
<g id="a_node43"><a xlink:title=" ">
<polygon fill="#ffffff" stroke="#bfbfbf" points="1883,-.5 1883,-19.5 1945,-19.5 1945,-.5 1883,-.5"/>
<text text-anchor="middle" x="1914" y="-7.5" font-family="Helvetica,sans-Serif" font-size="10.00" fill="#000000">execinfo.h</text>
</a>
</g>
</g>
<!-- Node34&#45;&gt;Node42 -->
<g id="edge60" class="edge">
<title>Node34&#45;&gt;Node42</title>
<path fill="none" stroke="#191970" d="M1565.197,-57.7348C1568.506,-57.1122 1571.808,-56.5237 1575,-56 1703.8582,-34.8597 1740.591,-43.8121 1872.5496,-20.0788"/>
<polygon fill="#191970" stroke="#191970" points="1873.4307,-23.4758 1882.6383,-18.2346 1872.1719,-16.5899 1873.4307,-23.4758"/>
</g>
<!-- Node43 -->
<g id="node44" class="node">
<title>Node43</title>
<g id="a_node44"><a xlink:title=" ">
<polygon fill="#ffffff" stroke="#bfbfbf" points="1963.5,-.5 1963.5,-19.5 2014.5,-19.5 2014.5,-.5 1963.5,-.5"/>
<text text-anchor="middle" x="1989" y="-7.5" font-family="Helvetica,sans-Serif" font-size="10.00" fill="#000000">signal.h</text>
</a>
</g>
</g>
<!-- Node34&#45;&gt;Node43 -->
<g id="edge62" class="edge">
<title>Node34&#45;&gt;Node43</title>
<path fill="none" stroke="#191970" d="M1565.1833,-57.6475C1568.4953,-57.0439 1571.8017,-56.4835 1575,-56 1739.1155,-31.1881 1785.9571,-50.6034 1953.2525,-19.8138"/>
<polygon fill="#191970" stroke="#191970" points="1953.9486,-23.2444 1963.1333,-17.9632 1952.6599,-16.364 1953.9486,-23.2444"/>
</g>
<!-- Node44 -->
<g id="node45" class="node">
<title>Node44</title>
<g id="a_node45"><a xlink:title=" ">
<polygon fill="#ffffff" stroke="#bfbfbf" points="1104,-.5 1104,-19.5 1156,-19.5 1156,-.5 1104,-.5"/>
<text text-anchor="middle" x="1130" y="-7.5" font-family="Helvetica,sans-Serif" font-size="10.00" fill="#000000">assert.h</text>
</a>
</g>
</g>
<!-- Node34&#45;&gt;Node44 -->
<g id="edge63" class="edge">
<title>Node34&#45;&gt;Node44</title>
<path fill="none" stroke="#191970" d="M1488.7188,-58.3037C1484.1051,-57.4752 1479.4522,-56.6856 1475,-56 1341.1254,-35.3833 1302.8064,-46.5861 1166.2644,-19.9809"/>
<polygon fill="#191970" stroke="#191970" points="1166.7505,-16.5093 1156.2609,-17.999 1165.39,-23.3758 1166.7505,-16.5093"/>
</g>
<!-- Node45 -->
<g id="node46" class="node">
<title>Node45</title>
<g id="a_node46"><a xlink:title=" ">
<polygon fill="#ffffff" stroke="#bfbfbf" points="1174,-.5 1174,-19.5 1220,-19.5 1220,-.5 1174,-.5"/>
<text text-anchor="middle" x="1197" y="-7.5" font-family="Helvetica,sans-Serif" font-size="10.00" fill="#000000">stdio.h</text>
</a>
</g>
</g>
<!-- Node34&#45;&gt;Node45 -->
<g id="edge66" class="edge">
<title>Node34&#45;&gt;Node45</title>
<path fill="none" stroke="#191970" d="M1488.9796,-58.4879C1484.2772,-57.618 1479.5319,-56.7683 1475,-56 1369.6693,-38.1424 1339.1763,-43.6699 1230.39,-19.7797"/>
<polygon fill="#191970" stroke="#191970" points="1230.844,-16.2951 1220.3219,-17.5348 1229.3205,-23.1273 1230.844,-16.2951"/>
</g>
</g>
</svg>
        <g id="navigator" transform="translate(0 0)" fill="#404254">
                <rect fill="#f2f5e9" fill-opacity="0.5" stroke="#606060" stroke-width=".5" x="0" y="0" width="60" height="60"/>
                <use id="zoomplus" xlink:href="#zoomPlus" x="17" y="9" onmousedown="handleZoom(evt,'in')"/>
                <use id="zoomminus" xlink:href="#zoomMin" x="42" y="9" onmousedown="handleZoom(evt,'out')"/>
                <use id="reset" xlink:href="#resetDef" x="30" y="36" onmousedown="handleReset()"/>
                <g id="arrowUp" xlink:href="#dirArrow" transform="translate(30 24)" onmousedown="handlePan(0,-1)">
                  <use xlink:href="#rim" fill="#404040">
                        <set attributeName="fill" to="#808080" begin="arrowUp.mouseover" end="arrowUp.mouseout"/>
                  </use>
                  <path fill="none" stroke="white" stroke-width="1.5" d="M0,-3.0v7 M-2.5,-0.5L0,-3.0L2.5,-0.5"/>
                </g>
                <g id="arrowRight" xlink:href="#dirArrow" transform="rotate(90) translate(36 -43)" onmousedown="handlePan(1,0)">
                  <use xlink:href="#rim" fill="#404040">
                        <set attributeName="fill" to="#808080" begin="arrowRight.mouseover" end="arrowRight.mouseout"/>
                  </use>
                  <path fill="none" stroke="white" stroke-width="1.5" d="M0,-3.0v7 M-2.5,-0.5L0,-3.0L2.5,-0.5"/>
                </g>
                <g id="arrowDown" xlink:href="#dirArrow" transform="rotate(180) translate(-30 -48)" onmousedown="handlePan(0,1)">
                  <use xlink:href="#rim" fill="#404040">
                        <set attributeName="fill" to="#808080" begin="arrowDown.mouseover" end="arrowDown.mouseout"/>
                  </use>
                  <path fill="none" stroke="white" stroke-width="1.5" d="M0,-3.0v7 M-2.5,-0.5L0,-3.0L2.5,-0.5"/>
                </g>
                <g id="arrowLeft" xlink:href="#dirArrow" transform="rotate(270) translate(-36 17)" onmousedown="handlePan(-1,0)">
                  <use xlink:href="#rim" fill="#404040">
                        <set attributeName="fill" to="#808080" begin="arrowLeft.mouseover" end="arrowLeft.mouseout"/>
                  </use>
                  <path fill="none" stroke="white" stroke-width="1.5" d="M0,-3.0v7 M-2.5,-0.5L0,-3.0L2.5,-0.5"/>
                </g>
        </g>
        <svg viewBox="0 0 15 15" width="100%" height="30px" preserveAspectRatio="xMaxYMin meet">
         <g id="arrow_out" transform="scale(0.3 0.3)">
          <a xlink:href="dmatrix_8cpp__incl_org.svg" target="_base">
           <rect id="button" ry="5" rx="5" y="6" x="6" height="38" width="38"
                fill="#f2f5e9" fill-opacity="0.5" stroke="#606060" stroke-width="1.0"/>
           <path id="arrow"
             d="M 11.500037,31.436501 C 11.940474,20.09759 22.043105,11.32322 32.158766,21.979434 L 37.068811,17.246167 C 37.068811,17.246167 37.088388,32 37.088388,32 L 22.160133,31.978069 C 22.160133,31.978069 26.997745,27.140456 26.997745,27.140456 C 18.528582,18.264221 13.291696,25.230495 11.500037,31.436501 z"
             style="fill:#404040;"/>
          </a>
         </g>
        </svg>
</svg>
