<?xml version="1.0" encoding="UTF-8" standalone="no"?>
<!DOCTYPE svg PUBLIC "-//W3C//DTD SVG 1.1//EN"
 "http://www.w3.org/Graphics/SVG/1.1/DTD/svg11.dtd">
<!-- Generated by graphviz version 2.40.1 (20161225.0304)
 -->
<!-- Title: nlohmann::detail::merge_and_renumber&lt; index_sequence&lt; I1... &gt;, index_sequence&lt; I2... &gt; &gt; Pages: 1 -->
<svg width="177pt" height="139pt"
 viewBox="0.00 0.00 177.00 139.00" xmlns="http://www.w3.org/2000/svg" xmlns:xlink="http://www.w3.org/1999/xlink">
<g id="graph0" class="graph" transform="scale(1 1) rotate(0) translate(4 135)">
<title>nlohmann::detail::merge_and_renumber&lt; index_sequence&lt; I1... &gt;, index_sequence&lt; I2... &gt; &gt;</title>
<polygon fill="#ffffff" stroke="transparent" points="-4,4 -4,-135 173,-135 173,4 -4,4"/>
<!-- Node2 -->
<g id="node1" class="node">
<title>Node2</title>
<polygon fill="#bfbfbf" stroke="#000000" points="0,-.5 0,-52.5 169,-52.5 169,-.5 0,-.5"/>
<text text-anchor="start" x="8" y="-40.5" font-family="Helvetica,sans-Serif" font-size="10.00" fill="#000000">nlohmann::detail::merge</text>
<text text-anchor="start" x="8" y="-29.5" font-family="Helvetica,sans-Serif" font-size="10.00" fill="#000000">_and_renumber&lt; index_sequence</text>
<text text-anchor="start" x="8" y="-18.5" font-family="Helvetica,sans-Serif" font-size="10.00" fill="#000000">&lt; I1... &gt;, index_sequence&lt;</text>
<text text-anchor="middle" x="84.5" y="-7.5" font-family="Helvetica,sans-Serif" font-size="10.00" fill="#000000"> I2... &gt; &gt;</text>
</g>
<!-- Node3 -->
<g id="node2" class="node">
<title>Node3</title>
<g id="a_node2"><a xlink:href="../../d4/d69/structnlohmann_1_1detail_1_1index__sequence.html" target="_top" xlink:title="nlohmann::detail::index\l_sequence\&lt; I1...,(sizeof...\l(I1)+I2)... \&gt;">
<polygon fill="#ffffff" stroke="#000000" points="19,-89.5 19,-130.5 150,-130.5 150,-89.5 19,-89.5"/>
<text text-anchor="start" x="27" y="-118.5" font-family="Helvetica,sans-Serif" font-size="10.00" fill="#000000">nlohmann::detail::index</text>
<text text-anchor="start" x="27" y="-107.5" font-family="Helvetica,sans-Serif" font-size="10.00" fill="#000000">_sequence&lt; I1...,(sizeof...</text>
<text text-anchor="middle" x="84.5" y="-96.5" font-family="Helvetica,sans-Serif" font-size="10.00" fill="#000000">(I1)+I2)... &gt;</text>
</a>
</g>
</g>
<!-- Node3&#45;&gt;Node2 -->
<g id="edge1" class="edge">
<title>Node3&#45;&gt;Node2</title>
<path fill="none" stroke="#191970" d="M84.5,-79.1618C84.5,-70.4305 84.5,-61.0145 84.5,-52.5925"/>
<polygon fill="#191970" stroke="#191970" points="81.0001,-79.3595 84.5,-89.3595 88.0001,-79.3596 81.0001,-79.3595"/>
</g>
</g>
</svg>
