<?xml version="1.0" encoding="UTF-8" standalone="no"?>
<!DOCTYPE svg PUBLIC "-//W3C//DTD SVG 1.1//EN"
 "http://www.w3.org/Graphics/SVG/1.1/DTD/svg11.dtd">
<!-- Generated by graphviz version 2.40.1 (20161225.0304)
 -->
<!-- Title: wf_trans.hpp Pages: 1 -->
<svg width="1790pt" height="397pt"
 viewBox="0.00 0.00 1790.47 397.00" xmlns="http://www.w3.org/2000/svg" xmlns:xlink="http://www.w3.org/1999/xlink">
<g id="graph0" class="graph" transform="scale(1 1) rotate(0) translate(4 393)">
<title>wf_trans.hpp</title>
<polygon fill="#ffffff" stroke="transparent" points="-4,4 -4,-393 1786.4689,-393 1786.4689,4 -4,4"/>
<!-- Node1 -->
<g id="node1" class="node">
<title>Node1</title>
<g id="a_node1"><a xlink:title="Wave&#45;function linear transformation.">
<polygon fill="#bfbfbf" stroke="#000000" points="1078.4689,-369.5 1078.4689,-388.5 1152.4689,-388.5 1152.4689,-369.5 1078.4689,-369.5"/>
<text text-anchor="middle" x="1115.4689" y="-376.5" font-family="Helvetica,sans-Serif" font-size="10.00" fill="#000000">wf_trans.hpp</text>
</a>
</g>
</g>
<!-- Node2 -->
<g id="node2" class="node">
<title>Node2</title>
<g id="a_node2"><a xlink:href="../../d6/dae/band_8cpp.html" target="_top" xlink:title="Contains implementation of sirius::Band class.">
<polygon fill="#ffffff" stroke="#000000" points="718.4689,-308 718.4689,-327 776.4689,-327 776.4689,-308 718.4689,-308"/>
<text text-anchor="middle" x="747.4689" y="-315" font-family="Helvetica,sans-Serif" font-size="10.00" fill="#000000">band.cpp</text>
</a>
</g>
</g>
<!-- Node1&#45;&gt;Node2 -->
<g id="edge1" class="edge">
<title>Node1&#45;&gt;Node2</title>
<path fill="none" stroke="#191970" d="M1067.944,-376.098C1003.1484,-371.3041 883.886,-359.4867 785.4689,-333 779.8272,-331.4817 773.9009,-329.3457 768.4511,-327.1436"/>
<polygon fill="#191970" stroke="#191970" points="1068.0219,-379.6125 1078.2461,-376.8347 1068.5212,-372.6303 1068.0219,-379.6125"/>
</g>
<!-- Node3 -->
<g id="node3" class="node">
<title>Node3</title>
<g id="a_node3"><a xlink:href="../../dd/df3/diag__full__potential_8cpp.html" target="_top" xlink:title="Diagonalization of full&#45;potential Hamiltonian.">
<polygon fill="#ffffff" stroke="#000000" points="794.4689,-308 794.4689,-327 910.4689,-327 910.4689,-308 794.4689,-308"/>
<text text-anchor="middle" x="852.4689" y="-315" font-family="Helvetica,sans-Serif" font-size="10.00" fill="#000000">diag_full_potential.cpp</text>
</a>
</g>
</g>
<!-- Node1&#45;&gt;Node3 -->
<g id="edge2" class="edge">
<title>Node1&#45;&gt;Node3</title>
<path fill="none" stroke="#191970" d="M1068.4611,-368.0077C1018.6093,-356.3503 940.6573,-338.122 893.2932,-327.0464"/>
<polygon fill="#191970" stroke="#191970" points="1067.8109,-371.45 1078.3452,-370.319 1069.4048,-364.6339 1067.8109,-371.45"/>
</g>
<!-- Node4 -->
<g id="node4" class="node">
<title>Node4</title>
<g id="a_node4"><a xlink:href="../../d7/d97/residuals_8cpp.html" target="_top" xlink:title="Compute residuals from the eigen&#45;vectors and basis functions.">
<polygon fill="#ffffff" stroke="#000000" points="928.9689,-308 928.9689,-327 1003.9689,-327 1003.9689,-308 928.9689,-308"/>
<text text-anchor="middle" x="966.4689" y="-315" font-family="Helvetica,sans-Serif" font-size="10.00" fill="#000000">residuals.cpp</text>
</a>
</g>
</g>
<!-- Node1&#45;&gt;Node4 -->
<g id="edge3" class="edge">
<title>Node1&#45;&gt;Node4</title>
<path fill="none" stroke="#191970" d="M1082.7507,-365.4955C1054.5557,-353.858 1014.5611,-337.3501 989.5866,-327.0419"/>
<polygon fill="#191970" stroke="#191970" points="1081.6087,-368.8105 1092.1876,-369.3906 1084.2794,-362.34 1081.6087,-368.8105"/>
</g>
<!-- Node5 -->
<g id="node5" class="node">
<title>Node5</title>
<g id="a_node5"><a xlink:href="../../db/d74/hubbard_8hpp.html" target="_top" xlink:title="Contains declaration and partial implementation of sirius::Hubbard class.">
<polygon fill="#ffffff" stroke="#000000" points="1021.9689,-308 1021.9689,-327 1094.9689,-327 1094.9689,-308 1021.9689,-308"/>
<text text-anchor="middle" x="1058.4689" y="-315" font-family="Helvetica,sans-Serif" font-size="10.00" fill="#000000">hubbard.hpp</text>
</a>
</g>
</g>
<!-- Node1&#45;&gt;Node5 -->
<g id="edge4" class="edge">
<title>Node1&#45;&gt;Node5</title>
<path fill="none" stroke="#191970" d="M1099.6208,-361.9007C1089.2644,-350.7268 1076.1116,-336.5356 1067.5007,-327.2449"/>
<polygon fill="#191970" stroke="#191970" points="1097.1979,-364.4355 1106.5626,-369.3906 1102.332,-359.6771 1097.1979,-364.4355"/>
</g>
<!-- Node35 -->
<g id="node35" class="node">
<title>Node35</title>
<g id="a_node35"><a xlink:href="../../d2/d7e/generate__spinor__wave__functions_8cpp_source.html" target="_top" xlink:title=" ">
<polygon fill="#ffffff" stroke="#000000" points="1113.4689,-302.5 1113.4689,-332.5 1231.4689,-332.5 1231.4689,-302.5 1113.4689,-302.5"/>
<text text-anchor="start" x="1121.4689" y="-320.5" font-family="Helvetica,sans-Serif" font-size="10.00" fill="#000000">generate_spinor_wave</text>
<text text-anchor="middle" x="1172.4689" y="-309.5" font-family="Helvetica,sans-Serif" font-size="10.00" fill="#000000">_functions.cpp</text>
</a>
</g>
</g>
<!-- Node1&#45;&gt;Node35 -->
<g id="edge38" class="edge">
<title>Node1&#45;&gt;Node35</title>
<path fill="none" stroke="#191970" d="M1131.2886,-361.9314C1139.8332,-352.7122 1150.2879,-341.4321 1158.5251,-332.5446"/>
<polygon fill="#191970" stroke="#191970" points="1128.6058,-359.6771 1124.3751,-369.3906 1133.7398,-364.4355 1128.6058,-359.6771"/>
</g>
<!-- Node36 -->
<g id="node36" class="node">
<title>Node36</title>
<g id="a_node36"><a xlink:href="../../d3/dab/k__point_8cpp.html" target="_top" xlink:title="Contains partial implementation of sirius::K_point class.">
<polygon fill="#ffffff" stroke="#000000" points="1249.4689,-308 1249.4689,-327 1317.4689,-327 1317.4689,-308 1249.4689,-308"/>
<text text-anchor="middle" x="1283.4689" y="-315" font-family="Helvetica,sans-Serif" font-size="10.00" fill="#000000">k_point.cpp</text>
</a>
</g>
</g>
<!-- Node1&#45;&gt;Node36 -->
<g id="edge39" class="edge">
<title>Node1&#45;&gt;Node36</title>
<path fill="none" stroke="#191970" d="M1151.1166,-365.9504C1182.9651,-354.2916 1228.8752,-337.4852 1257.4032,-327.0419"/>
<polygon fill="#191970" stroke="#191970" points="1149.9063,-362.6662 1141.7189,-369.3906 1152.3126,-369.2396 1149.9063,-362.6662"/>
</g>
<!-- Node37 -->
<g id="node37" class="node">
<title>Node37</title>
<g id="a_node37"><a xlink:href="../../dc/da9/wf__ortho_8cpp.html" target="_top" xlink:title="Definitions.">
<polygon fill="#ffffff" stroke="#000000" points="1335.4689,-308 1335.4689,-327 1409.4689,-327 1409.4689,-308 1335.4689,-308"/>
<text text-anchor="middle" x="1372.4689" y="-315" font-family="Helvetica,sans-Serif" font-size="10.00" fill="#000000">wf_ortho.cpp</text>
</a>
</g>
</g>
<!-- Node1&#45;&gt;Node37 -->
<g id="edge40" class="edge">
<title>Node1&#45;&gt;Node37</title>
<path fill="none" stroke="#191970" d="M1162.6438,-370.2647C1205.6469,-361.9362 1270.7683,-348.4054 1326.4689,-333 1332.8043,-331.2478 1339.5495,-329.1244 1345.8666,-327.0187"/>
<polygon fill="#191970" stroke="#191970" points="1161.9045,-366.8426 1152.744,-372.1657 1163.2246,-373.717 1161.9045,-366.8426"/>
</g>
<!-- Node38 -->
<g id="node38" class="node">
<title>Node38</title>
<g id="a_node38"><a xlink:href="../../d6/de1/wf__trans_8cpp.html" target="_top" xlink:title="Definitions.">
<polygon fill="#ffffff" stroke="#000000" points="1427.9689,-308 1427.9689,-327 1500.9689,-327 1500.9689,-308 1427.9689,-308"/>
<text text-anchor="middle" x="1464.4689" y="-315" font-family="Helvetica,sans-Serif" font-size="10.00" fill="#000000">wf_trans.cpp</text>
</a>
</g>
</g>
<!-- Node1&#45;&gt;Node38 -->
<g id="edge41" class="edge">
<title>Node1&#45;&gt;Node38</title>
<path fill="none" stroke="#191970" d="M1163.0303,-374.3748C1223.1217,-367.94 1329.4448,-354.5816 1418.4689,-333 1425.0209,-331.4116 1431.9701,-329.3023 1438.4284,-327.1528"/>
<polygon fill="#191970" stroke="#191970" points="1162.2991,-370.9323 1152.7201,-375.4593 1163.0314,-377.8939 1162.2991,-370.9323"/>
</g>
<!-- Node6 -->
<g id="node6" class="node">
<title>Node6</title>
<g id="a_node6"><a xlink:href="../../df/dc4/dft__ground__state_8hpp.html" target="_top" xlink:title="Contains definition and partial implementation of sirius::DFT_ground_state class.">
<polygon fill="#ffffff" stroke="#000000" points="68.9689,-112.5 68.9689,-131.5 179.9689,-131.5 179.9689,-112.5 68.9689,-112.5"/>
<text text-anchor="middle" x="124.4689" y="-119.5" font-family="Helvetica,sans-Serif" font-size="10.00" fill="#000000">dft_ground_state.hpp</text>
</a>
</g>
</g>
<!-- Node5&#45;&gt;Node6 -->
<g id="edge5" class="edge">
<title>Node5&#45;&gt;Node6</title>
<path fill="none" stroke="#191970" d="M1023.6918,-304.8786C1019.9359,-303.7869 1016.1441,-302.7969 1012.4689,-302 792.8478,-254.3809 157.0632,-365.8003 6.4689,-199 -2.764,-188.7735 -1.3055,-179.3748 6.4689,-168 15.9912,-154.0677 56.5189,-140.3048 87.4461,-131.5173"/>
<polygon fill="#191970" stroke="#191970" points="1022.8562,-308.2847 1033.4455,-307.9427 1024.9542,-301.6065 1022.8562,-308.2847"/>
</g>
<!-- Node10 -->
<g id="node10" class="node">
<title>Node10</title>
<g id="a_node10"><a xlink:href="../../dd/d5b/apply__hubbard__potential_8cpp_source.html" target="_top" xlink:title=" ">
<polygon fill="#ffffff" stroke="#000000" points="922.9689,-241 922.9689,-260 1067.9689,-260 1067.9689,-241 922.9689,-241"/>
<text text-anchor="middle" x="995.4689" y="-248" font-family="Helvetica,sans-Serif" font-size="10.00" fill="#000000">apply_hubbard_potential.cpp</text>
</a>
</g>
</g>
<!-- Node5&#45;&gt;Node10 -->
<g id="edge9" class="edge">
<title>Node5&#45;&gt;Node10</title>
<path fill="none" stroke="#191970" d="M1042.5576,-300.5785C1030.508,-287.7639 1014.3894,-270.6218 1004.4785,-260.0817"/>
<polygon fill="#191970" stroke="#191970" points="1040.0424,-303.0129 1049.4425,-307.9005 1045.142,-298.2177 1040.0424,-303.0129"/>
</g>
<!-- Node11 -->
<g id="node11" class="node">
<title>Node11</title>
<g id="a_node11"><a xlink:href="../../d7/d2d/hubbard_8cpp_source.html" target="_top" xlink:title=" ">
<polygon fill="#ffffff" stroke="#000000" points="1086.4689,-241 1086.4689,-260 1158.4689,-260 1158.4689,-241 1086.4689,-241"/>
<text text-anchor="middle" x="1122.4689" y="-248" font-family="Helvetica,sans-Serif" font-size="10.00" fill="#000000">hubbard.cpp</text>
</a>
</g>
</g>
<!-- Node5&#45;&gt;Node11 -->
<g id="edge10" class="edge">
<title>Node5&#45;&gt;Node11</title>
<path fill="none" stroke="#191970" d="M1074.6327,-300.5785C1086.8735,-287.7639 1103.248,-270.6218 1113.3162,-260.0817"/>
<polygon fill="#191970" stroke="#191970" points="1072.015,-298.2518 1067.6385,-307.9005 1077.0768,-303.087 1072.015,-298.2518"/>
</g>
<!-- Node12 -->
<g id="node12" class="node">
<title>Node12</title>
<g id="a_node12"><a xlink:href="../../d3/d2b/hubbard__occupancies__derivatives_8cpp_source.html" target="_top" xlink:title=" ">
<polygon fill="#ffffff" stroke="#000000" points="1176.4689,-235.5 1176.4689,-265.5 1290.4689,-265.5 1290.4689,-235.5 1176.4689,-235.5"/>
<text text-anchor="start" x="1184.4689" y="-253.5" font-family="Helvetica,sans-Serif" font-size="10.00" fill="#000000">hubbard_occupancies</text>
<text text-anchor="middle" x="1233.4689" y="-242.5" font-family="Helvetica,sans-Serif" font-size="10.00" fill="#000000">_derivatives.cpp</text>
</a>
</g>
</g>
<!-- Node5&#45;&gt;Node12 -->
<g id="edge11" class="edge">
<title>Node5&#45;&gt;Node12</title>
<path fill="none" stroke="#191970" d="M1092.9065,-304.3153C1122.0479,-293.1583 1163.806,-277.1709 1194.2329,-265.5218"/>
<polygon fill="#191970" stroke="#191970" points="1091.6296,-301.0564 1083.5421,-307.9005 1094.1325,-307.5936 1091.6296,-301.0564"/>
</g>
<!-- Node13 -->
<g id="node13" class="node">
<title>Node13</title>
<g id="a_node13"><a xlink:href="../../d9/d0d/hubbard__potential__energy_8cpp_source.html" target="_top" xlink:title=" ">
<polygon fill="#ffffff" stroke="#000000" points="1308.4689,-241 1308.4689,-260 1460.4689,-260 1460.4689,-241 1308.4689,-241"/>
<text text-anchor="middle" x="1384.4689" y="-248" font-family="Helvetica,sans-Serif" font-size="10.00" fill="#000000">hubbard_potential_energy.cpp</text>
</a>
</g>
</g>
<!-- Node5&#45;&gt;Node13 -->
<g id="edge12" class="edge">
<title>Node5&#45;&gt;Node13</title>
<path fill="none" stroke="#191970" d="M1094.1665,-304.9178C1097.6286,-303.8649 1101.1037,-302.8717 1104.4689,-302 1107.2351,-301.2835 1252.2282,-274.7076 1332.4413,-260.0214"/>
<polygon fill="#191970" stroke="#191970" points="1093.0058,-301.6143 1084.5456,-307.992 1095.1365,-308.2821 1093.0058,-301.6143"/>
</g>
<!-- Node14 -->
<g id="node14" class="node">
<title>Node14</title>
<g id="a_node14"><a xlink:href="../../de/df2/potential_8hpp.html" target="_top" xlink:title="Contains declaration and partial implementation of sirius::Potential class.">
<polygon fill="#ffffff" stroke="#000000" points="830.4689,-241 830.4689,-260 904.4689,-260 904.4689,-241 830.4689,-241"/>
<text text-anchor="middle" x="867.4689" y="-248" font-family="Helvetica,sans-Serif" font-size="10.00" fill="#000000">potential.hpp</text>
</a>
</g>
</g>
<!-- Node5&#45;&gt;Node14 -->
<g id="edge13" class="edge">
<title>Node5&#45;&gt;Node14</title>
<path fill="none" stroke="#191970" d="M1021.6446,-304.5826C984.5236,-291.5611 928.0909,-271.7653 894.7837,-260.0817"/>
<polygon fill="#191970" stroke="#191970" points="1020.5084,-307.8931 1031.1032,-307.9005 1022.8255,-301.2877 1020.5084,-307.8931"/>
</g>
<!-- Node7 -->
<g id="node7" class="node">
<title>Node7</title>
<g id="a_node7"><a xlink:href="../../d9/dde/dft__ground__state_8cpp.html" target="_top" xlink:title="Contains implementation of sirius::DFT_ground_state class.">
<polygon fill="#ffffff" stroke="#000000" points="18.4689,-56.5 18.4689,-75.5 128.4689,-75.5 128.4689,-56.5 18.4689,-56.5"/>
<text text-anchor="middle" x="73.4689" y="-63.5" font-family="Helvetica,sans-Serif" font-size="10.00" fill="#000000">dft_ground_state.cpp</text>
</a>
</g>
</g>
<!-- Node6&#45;&gt;Node7 -->
<g id="edge6" class="edge">
<title>Node6&#45;&gt;Node7</title>
<path fill="none" stroke="#191970" d="M108.794,-104.7884C100.0695,-95.2085 89.5335,-83.6396 82.2506,-75.6427"/>
<polygon fill="#191970" stroke="#191970" points="106.2643,-107.2088 115.5853,-112.2455 111.4397,-102.4954 106.2643,-107.2088"/>
</g>
<!-- Node8 -->
<g id="node8" class="node">
<title>Node8</title>
<g id="a_node8"><a xlink:href="../../d2/d92/sirius_8hpp.html" target="_top" xlink:title="&quot;All&#45;in&#45;one&quot; include file.">
<polygon fill="#ffffff" stroke="#000000" points="146.9689,-56.5 146.9689,-75.5 205.9689,-75.5 205.9689,-56.5 146.9689,-56.5"/>
<text text-anchor="middle" x="176.4689" y="-63.5" font-family="Helvetica,sans-Serif" font-size="10.00" fill="#000000">sirius.hpp</text>
</a>
</g>
</g>
<!-- Node6&#45;&gt;Node8 -->
<g id="edge7" class="edge">
<title>Node6&#45;&gt;Node8</title>
<path fill="none" stroke="#191970" d="M140.4511,-104.7884C149.3467,-95.2085 160.0892,-83.6396 167.515,-75.6427"/>
<polygon fill="#191970" stroke="#191970" points="137.7663,-102.536 133.5266,-112.2455 142.8959,-107.2992 137.7663,-102.536"/>
</g>
<!-- Node9 -->
<g id="node9" class="node">
<title>Node9</title>
<g id="a_node9"><a xlink:href="../../d4/d53/sirius__api_8cpp.html" target="_top" xlink:title="Fortran API.">
<polygon fill="#ffffff" stroke="#000000" points="137.4689,-.5 137.4689,-19.5 215.4689,-19.5 215.4689,-.5 137.4689,-.5"/>
<text text-anchor="middle" x="176.4689" y="-7.5" font-family="Helvetica,sans-Serif" font-size="10.00" fill="#000000">sirius_api.cpp</text>
</a>
</g>
</g>
<!-- Node8&#45;&gt;Node9 -->
<g id="edge8" class="edge">
<title>Node8&#45;&gt;Node9</title>
<path fill="none" stroke="#191970" d="M176.4689,-46.1575C176.4689,-37.155 176.4689,-26.9199 176.4689,-19.6427"/>
<polygon fill="#191970" stroke="#191970" points="172.969,-46.2455 176.4689,-56.2455 179.969,-46.2456 172.969,-46.2455"/>
</g>
<!-- Node15 -->
<g id="node15" class="node">
<title>Node15</title>
<g id="a_node15"><a xlink:href="../../df/dd7/diag__pseudo__potential_8cpp.html" target="_top" xlink:title="Diagonalization of pseudopotential Hamiltonian.">
<polygon fill="#ffffff" stroke="#000000" points="1646.4689,-174 1646.4689,-193 1782.4689,-193 1782.4689,-174 1646.4689,-174"/>
<text text-anchor="middle" x="1714.4689" y="-181" font-family="Helvetica,sans-Serif" font-size="10.00" fill="#000000">diag_pseudo_potential.cpp</text>
</a>
</g>
</g>
<!-- Node14&#45;&gt;Node15 -->
<g id="edge14" class="edge">
<title>Node14&#45;&gt;Node15</title>
<path fill="none" stroke="#191970" d="M901.5977,-237.8542C905.5591,-236.7294 909.5749,-235.7389 913.4689,-235 1227.8159,-175.3536 1314.754,-236.8019 1632.4689,-199 1644.6976,-197.545 1657.8457,-195.3474 1669.9546,-193.0608"/>
<polygon fill="#191970" stroke="#191970" points="900.467,-234.5405 891.963,-240.8598 902.5516,-241.2229 900.467,-234.5405"/>
</g>
<!-- Node16 -->
<g id="node16" class="node">
<title>Node16</title>
<g id="a_node16"><a xlink:href="../../d4/d9e/solve_8cpp.html" target="_top" xlink:title="Contains interfaces to the sirius::Band solvers.">
<polygon fill="#ffffff" stroke="#000000" points="15.9689,-174 15.9689,-193 74.9689,-193 74.9689,-174 15.9689,-174"/>
<text text-anchor="middle" x="45.4689" y="-181" font-family="Helvetica,sans-Serif" font-size="10.00" fill="#000000">solve.cpp</text>
</a>
</g>
</g>
<!-- Node14&#45;&gt;Node16 -->
<g id="edge15" class="edge">
<title>Node14&#45;&gt;Node16</title>
<path fill="none" stroke="#191970" d="M820.297,-249.3839C673.3085,-245.5945 224.9583,-231.5985 83.4689,-199 77.4979,-197.6243 71.2502,-195.4237 65.5855,-193.1076"/>
<polygon fill="#191970" stroke="#191970" points="820.2654,-252.8841 830.351,-249.6392 820.4431,-245.8864 820.2654,-252.8841"/>
</g>
<!-- Node17 -->
<g id="node17" class="node">
<title>Node17</title>
<g id="a_node17"><a xlink:href="../../d4/de1/energy_8hpp.html" target="_top" xlink:title="Total energy terms.">
<polygon fill="#ffffff" stroke="#000000" points="1522.9689,-174 1522.9689,-193 1589.9689,-193 1589.9689,-174 1522.9689,-174"/>
<text text-anchor="middle" x="1556.4689" y="-181" font-family="Helvetica,sans-Serif" font-size="10.00" fill="#000000">energy.hpp</text>
</a>
</g>
</g>
<!-- Node14&#45;&gt;Node17 -->
<g id="edge16" class="edge">
<title>Node14&#45;&gt;Node17</title>
<path fill="none" stroke="#191970" d="M901.6051,-237.8927C905.5652,-236.7609 909.5786,-235.7581 913.4689,-235 1175.6823,-183.8998 1251.8054,-252.8453 1513.4689,-199 1520.1533,-197.6245 1527.1994,-195.4239 1533.6097,-193.1078"/>
<polygon fill="#191970" stroke="#191970" points="900.4708,-234.5802 891.972,-240.9064 902.5609,-241.2609 900.4708,-234.5802"/>
</g>
<!-- Node20 -->
<g id="node20" class="node">
<title>Node20</title>
<g id="a_node20"><a xlink:href="../../dd/d59/check__xc__potential_8cpp.html" target="_top" xlink:title="Check XC potential by doing numerical functional derivative.">
<polygon fill="#ffffff" stroke="#000000" points="1558.4689,-112.5 1558.4689,-131.5 1678.4689,-131.5 1678.4689,-112.5 1558.4689,-112.5"/>
<text text-anchor="middle" x="1618.4689" y="-119.5" font-family="Helvetica,sans-Serif" font-size="10.00" fill="#000000">check_xc_potential.cpp</text>
</a>
</g>
</g>
<!-- Node14&#45;&gt;Node20 -->
<g id="edge30" class="edge">
<title>Node14&#45;&gt;Node20</title>
<path fill="none" stroke="#191970" d="M901.5995,-237.8635C905.5606,-236.737 909.5758,-235.7435 913.4689,-235 988.4408,-220.681 1540.6336,-247.6235 1599.4689,-199 1619.5285,-182.422 1620.325,-148.3529 1619.3678,-131.6554"/>
<polygon fill="#191970" stroke="#191970" points="900.4679,-234.5502 891.9652,-240.8711 902.5539,-241.2321 900.4679,-234.5502"/>
</g>
<!-- Node21 -->
<g id="node21" class="node">
<title>Node21</title>
<g id="a_node21"><a xlink:href="../../df/d4d/force_8cpp.html" target="_top" xlink:title="Contains implementation of sirius::Force class.">
<polygon fill="#ffffff" stroke="#000000" points="174.4689,-174 174.4689,-193 232.4689,-193 232.4689,-174 174.4689,-174"/>
<text text-anchor="middle" x="203.4689" y="-181" font-family="Helvetica,sans-Serif" font-size="10.00" fill="#000000">force.cpp</text>
</a>
</g>
</g>
<!-- Node14&#45;&gt;Node21 -->
<g id="edge21" class="edge">
<title>Node14&#45;&gt;Node21</title>
<path fill="none" stroke="#191970" d="M820.2769,-248.4812C694.1675,-242.7897 351.4614,-225.2986 241.4689,-199 235.5094,-197.5751 229.2655,-195.3583 223.6008,-193.0425"/>
<polygon fill="#191970" stroke="#191970" points="820.2428,-251.9831 830.3891,-248.9332 820.5554,-244.9901 820.2428,-251.9831"/>
</g>
<!-- Node22 -->
<g id="node22" class="node">
<title>Node22</title>
<g id="a_node22"><a xlink:href="../../d7/dd1/stress_8hpp.html" target="_top" xlink:title="Contains definition of sirius::Stress tensor class.">
<polygon fill="#ffffff" stroke="#000000" points="92.9689,-174 92.9689,-193 155.9689,-193 155.9689,-174 92.9689,-174"/>
<text text-anchor="middle" x="124.4689" y="-181" font-family="Helvetica,sans-Serif" font-size="10.00" fill="#000000">stress.hpp</text>
</a>
</g>
</g>
<!-- Node14&#45;&gt;Node22 -->
<g id="edge22" class="edge">
<title>Node14&#45;&gt;Node22</title>
<path fill="none" stroke="#191970" d="M820.2836,-248.8092C683.8972,-243.642 290.9253,-226.7037 165.4689,-199 159.0785,-197.5888 152.3546,-195.3766 146.2425,-193.0607"/>
<polygon fill="#191970" stroke="#191970" points="820.2871,-252.3117 830.4113,-249.1891 820.5496,-245.3167 820.2871,-252.3117"/>
</g>
<!-- Node23 -->
<g id="node23" class="node">
<title>Node23</title>
<g id="a_node23"><a xlink:href="../../db/d8b/hamiltonian_8cpp.html" target="_top" xlink:title="Contains definition of sirius::Hamiltonian0 class.">
<polygon fill="#ffffff" stroke="#000000" points="250.9689,-174 250.9689,-193 337.9689,-193 337.9689,-174 250.9689,-174"/>
<text text-anchor="middle" x="294.4689" y="-181" font-family="Helvetica,sans-Serif" font-size="10.00" fill="#000000">hamiltonian.cpp</text>
</a>
</g>
</g>
<!-- Node14&#45;&gt;Node23 -->
<g id="edge25" class="edge">
<title>Node14&#45;&gt;Node23</title>
<path fill="none" stroke="#191970" d="M820.0434,-248.8443C727.9606,-244.9634 518.8642,-232.8904 346.4689,-199 338.7044,-197.4736 330.4368,-195.2801 322.8321,-193.0216"/>
<polygon fill="#191970" stroke="#191970" points="820.0252,-252.3463 830.1597,-249.2572 820.3108,-245.3522 820.0252,-252.3463"/>
</g>
<!-- Node24 -->
<g id="node24" class="node">
<title>Node24</title>
<g id="a_node24"><a xlink:href="../../d3/d3d/hamiltonian__k_8cpp.html" target="_top" xlink:title="Contains definition of sirius::Hamiltonian_k class.">
<polygon fill="#ffffff" stroke="#000000" points="355.9689,-174 355.9689,-193 452.9689,-193 452.9689,-174 355.9689,-174"/>
<text text-anchor="middle" x="404.4689" y="-181" font-family="Helvetica,sans-Serif" font-size="10.00" fill="#000000">hamiltonian_k.cpp</text>
</a>
</g>
</g>
<!-- Node14&#45;&gt;Node24 -->
<g id="edge26" class="edge">
<title>Node14&#45;&gt;Node24</title>
<path fill="none" stroke="#191970" d="M820.0284,-246.6432C743.8924,-239.9703 589.9335,-224.4854 461.4689,-199 453.321,-197.3836 444.6227,-195.2383 436.5381,-193.0607"/>
<polygon fill="#191970" stroke="#191970" points="819.98,-250.152 830.2443,-247.5264 820.583,-243.178 819.98,-250.152"/>
</g>
<!-- Node25 -->
<g id="node25" class="node">
<title>Node25</title>
<g id="a_node25"><a xlink:href="../../de/d63/local__operator_8cpp.html" target="_top" xlink:title="Implementation of sirius::Local_operator class.">
<polygon fill="#ffffff" stroke="#000000" points="470.9689,-174 470.9689,-193 569.9689,-193 569.9689,-174 470.9689,-174"/>
<text text-anchor="middle" x="520.4689" y="-181" font-family="Helvetica,sans-Serif" font-size="10.00" fill="#000000">local_operator.cpp</text>
</a>
</g>
</g>
<!-- Node14&#45;&gt;Node25 -->
<g id="edge27" class="edge">
<title>Node14&#45;&gt;Node25</title>
<path fill="none" stroke="#191970" d="M820.2724,-243.2489C763.0374,-234.1822 663.7557,-217.5765 579.4689,-199 571.5052,-197.2448 562.9945,-195.1432 554.9863,-193.0624"/>
<polygon fill="#191970" stroke="#191970" points="820.0343,-246.7545 830.457,-244.8529 821.1233,-239.8397 820.0343,-246.7545"/>
</g>
<!-- Node26 -->
<g id="node26" class="node">
<title>Node26</title>
<g id="a_node26"><a xlink:href="../../da/d42/adaptor_8hpp_source.html" target="_top" xlink:title=" ">
<polygon fill="#ffffff" stroke="#000000" points="588.4689,-174 588.4689,-193 658.4689,-193 658.4689,-174 588.4689,-174"/>
<text text-anchor="middle" x="623.4689" y="-181" font-family="Helvetica,sans-Serif" font-size="10.00" fill="#000000">adaptor.hpp</text>
</a>
</g>
</g>
<!-- Node14&#45;&gt;Node26 -->
<g id="edge28" class="edge">
<title>Node14&#45;&gt;Node26</title>
<path fill="none" stroke="#191970" d="M820.4244,-239.6056C779.691,-229.883 719.3296,-214.7792 667.4689,-199 661.5802,-197.2083 655.3099,-195.1143 649.4037,-193.0555"/>
<polygon fill="#191970" stroke="#191970" points="819.8024,-243.0551 830.3404,-241.9586 821.4187,-236.2442 819.8024,-243.0551"/>
</g>
<!-- Node27 -->
<g id="node27" class="node">
<title>Node27</title>
<g id="a_node27"><a xlink:href="../../d5/df1/apply__hamiltonian_8hpp_source.html" target="_top" xlink:title=" ">
<polygon fill="#ffffff" stroke="#000000" points="676.9689,-174 676.9689,-193 793.9689,-193 793.9689,-174 676.9689,-174"/>
<text text-anchor="middle" x="735.4689" y="-181" font-family="Helvetica,sans-Serif" font-size="10.00" fill="#000000">apply_hamiltonian.hpp</text>
</a>
</g>
</g>
<!-- Node14&#45;&gt;Node27 -->
<g id="edge29" class="edge">
<title>Node14&#45;&gt;Node27</title>
<path fill="none" stroke="#191970" d="M839.3544,-236.2298C813.7285,-223.2227 776.5811,-204.3676 754.3462,-193.0817"/>
<polygon fill="#191970" stroke="#191970" points="838.0552,-239.4954 848.5565,-240.9005 841.2235,-233.2534 838.0552,-239.4954"/>
</g>
<!-- Node28 -->
<g id="node28" class="node">
<title>Node28</title>
<g id="a_node28"><a xlink:href="../../d4/db8/generate__d__operator__matrix_8cpp_source.html" target="_top" xlink:title=" ">
<polygon fill="#ffffff" stroke="#000000" points="812.4689,-168.5 812.4689,-198.5 922.4689,-198.5 922.4689,-168.5 812.4689,-168.5"/>
<text text-anchor="start" x="820.4689" y="-186.5" font-family="Helvetica,sans-Serif" font-size="10.00" fill="#000000">generate_d_operator</text>
<text text-anchor="middle" x="867.4689" y="-175.5" font-family="Helvetica,sans-Serif" font-size="10.00" fill="#000000">_matrix.cpp</text>
</a>
</g>
</g>
<!-- Node14&#45;&gt;Node28 -->
<g id="edge31" class="edge">
<title>Node14&#45;&gt;Node28</title>
<path fill="none" stroke="#191970" d="M867.4689,-230.7758C867.4689,-220.4641 867.4689,-208.0437 867.4689,-198.5218"/>
<polygon fill="#191970" stroke="#191970" points="863.969,-230.9005 867.4689,-240.9005 870.969,-230.9006 863.969,-230.9005"/>
</g>
<!-- Node29 -->
<g id="node29" class="node">
<title>Node29</title>
<g id="a_node29"><a xlink:href="../../de/dfb/generate__pw__coeffs_8cpp_source.html" target="_top" xlink:title=" ">
<polygon fill="#ffffff" stroke="#000000" points="940.9689,-174 940.9689,-193 1065.9689,-193 1065.9689,-174 940.9689,-174"/>
<text text-anchor="middle" x="1003.4689" y="-181" font-family="Helvetica,sans-Serif" font-size="10.00" fill="#000000">generate_pw_coeffs.cpp</text>
</a>
</g>
</g>
<!-- Node14&#45;&gt;Node29 -->
<g id="edge32" class="edge">
<title>Node14&#45;&gt;Node29</title>
<path fill="none" stroke="#191970" d="M896.0871,-236.4013C922.5002,-223.389 961.0099,-204.4173 984.0195,-193.0817"/>
<polygon fill="#191970" stroke="#191970" points="894.3781,-233.3415 886.9544,-240.9005 897.4716,-239.6209 894.3781,-233.3415"/>
</g>
<!-- Node30 -->
<g id="node30" class="node">
<title>Node30</title>
<g id="a_node30"><a xlink:href="../../d0/d7d/paw__potential_8cpp_source.html" target="_top" xlink:title=" ">
<polygon fill="#ffffff" stroke="#000000" points="1083.9689,-174 1083.9689,-193 1180.9689,-193 1180.9689,-174 1083.9689,-174"/>
<text text-anchor="middle" x="1132.4689" y="-181" font-family="Helvetica,sans-Serif" font-size="10.00" fill="#000000">paw_potential.cpp</text>
</a>
</g>
</g>
<!-- Node14&#45;&gt;Node30 -->
<g id="edge33" class="edge">
<title>Node14&#45;&gt;Node30</title>
<path fill="none" stroke="#191970" d="M904.3179,-237.7056C907.4013,-236.7503 910.481,-235.8349 913.4689,-235 984.086,-215.2663 1003.2577,-216.4689 1074.4689,-199 1081.9597,-197.1624 1089.9661,-195.0921 1097.5643,-193.077"/>
<polygon fill="#191970" stroke="#191970" points="903.0121,-234.449 894.5647,-240.8437 905.1562,-241.1125 903.0121,-234.449"/>
</g>
<!-- Node31 -->
<g id="node31" class="node">
<title>Node31</title>
<g id="a_node31"><a xlink:href="../../d8/dcd/poisson_8cpp_source.html" target="_top" xlink:title=" ">
<polygon fill="#ffffff" stroke="#000000" points="1199.4689,-174 1199.4689,-193 1269.4689,-193 1269.4689,-174 1199.4689,-174"/>
<text text-anchor="middle" x="1234.4689" y="-181" font-family="Helvetica,sans-Serif" font-size="10.00" fill="#000000">poisson.cpp</text>
</a>
</g>
</g>
<!-- Node14&#45;&gt;Node31 -->
<g id="edge34" class="edge">
<title>Node14&#45;&gt;Node31</title>
<path fill="none" stroke="#191970" d="M902.8606,-237.808C906.4178,-236.7638 909.9974,-235.8031 913.4689,-235 1033.9912,-207.1165 1069.0408,-227.2876 1189.4689,-199 1196.065,-197.4506 1203.0524,-195.3035 1209.5038,-193.1006"/>
<polygon fill="#191970" stroke="#191970" points="901.4906,-234.5699 893.0027,-240.9109 903.5922,-241.247 901.4906,-234.5699"/>
</g>
<!-- Node32 -->
<g id="node32" class="node">
<title>Node32</title>
<g id="a_node32"><a xlink:href="../../d1/d97/potential_8cpp.html" target="_top" xlink:title="Generate effective potential.">
<polygon fill="#ffffff" stroke="#000000" points="1287.9689,-174 1287.9689,-193 1360.9689,-193 1360.9689,-174 1287.9689,-174"/>
<text text-anchor="middle" x="1324.4689" y="-181" font-family="Helvetica,sans-Serif" font-size="10.00" fill="#000000">potential.cpp</text>
</a>
</g>
</g>
<!-- Node14&#45;&gt;Node32 -->
<g id="edge35" class="edge">
<title>Node14&#45;&gt;Node32</title>
<path fill="none" stroke="#191970" d="M902.243,-237.8646C905.9994,-236.7757 909.7921,-235.7901 913.4689,-235 1072.8404,-200.7545 1119.0973,-233.2455 1278.4689,-199 1285.3898,-197.5128 1292.7215,-195.3328 1299.4493,-193.0747"/>
<polygon fill="#191970" stroke="#191970" points="900.9819,-234.592 892.4884,-240.9253 903.0776,-241.2709 900.9819,-234.592"/>
</g>
<!-- Node33 -->
<g id="node33" class="node">
<title>Node33</title>
<g id="a_node33"><a xlink:href="../../d6/d2b/xc_8cpp.html" target="_top" xlink:title="Generate XC potential.">
<polygon fill="#ffffff" stroke="#000000" points="1378.9689,-174 1378.9689,-193 1423.9689,-193 1423.9689,-174 1378.9689,-174"/>
<text text-anchor="middle" x="1401.4689" y="-181" font-family="Helvetica,sans-Serif" font-size="10.00" fill="#000000">xc.cpp</text>
</a>
</g>
</g>
<!-- Node14&#45;&gt;Node33 -->
<g id="edge36" class="edge">
<title>Node14&#45;&gt;Node33</title>
<path fill="none" stroke="#191970" d="M901.6198,-237.966C905.5771,-236.8207 909.5859,-235.7948 913.4689,-235 1112.6368,-194.2334 1173.2643,-252.2311 1369.4689,-199 1374.5924,-197.61 1379.8849,-195.4046 1384.6546,-193.0886"/>
<polygon fill="#191970" stroke="#191970" points="900.4787,-234.6557 891.9897,-240.9951 902.5791,-241.3332 900.4787,-234.6557"/>
</g>
<!-- Node34 -->
<g id="node34" class="node">
<title>Node34</title>
<g id="a_node34"><a xlink:href="../../dc/dbb/xc__mt_8cpp.html" target="_top" xlink:title="Generate XC potential in the muffin&#45;tins.">
<polygon fill="#ffffff" stroke="#000000" points="1442.4689,-174 1442.4689,-193 1504.4689,-193 1504.4689,-174 1442.4689,-174"/>
<text text-anchor="middle" x="1473.4689" y="-181" font-family="Helvetica,sans-Serif" font-size="10.00" fill="#000000">xc_mt.cpp</text>
</a>
</g>
</g>
<!-- Node14&#45;&gt;Node34 -->
<g id="edge37" class="edge">
<title>Node14&#45;&gt;Node34</title>
<path fill="none" stroke="#191970" d="M901.6122,-237.9284C905.5709,-236.79 909.5821,-235.776 913.4689,-235 1140.6494,-189.6422 1207.3581,-249.4209 1433.4689,-199 1439.7203,-197.606 1446.2857,-195.3993 1452.2486,-193.0834"/>
<polygon fill="#191970" stroke="#191970" points="900.4746,-234.6171 891.9805,-240.9497 902.5697,-241.2962 900.4746,-234.6171"/>
</g>
<!-- Node17&#45;&gt;Node6 -->
<g id="edge17" class="edge">
<title>Node17&#45;&gt;Node6</title>
<path fill="none" stroke="#191970" d="M1524.5498,-170.7629C1520.859,-169.6595 1517.1123,-168.6989 1513.4689,-168 1381.2172,-142.629 423.2873,-126.5253 180.3564,-122.8202"/>
<polygon fill="#191970" stroke="#191970" points="1523.4859,-174.0975 1534.0795,-173.9353 1525.6969,-167.4558 1523.4859,-174.0975"/>
</g>
<!-- Node18 -->
<g id="node18" class="node">
<title>Node18</title>
<g id="a_node18"><a xlink:href="../../d5/df5/energy_8cpp.html" target="_top" xlink:title="Total energy terms.">
<polygon fill="#ffffff" stroke="#000000" points="1474.4689,-112.5 1474.4689,-131.5 1540.4689,-131.5 1540.4689,-112.5 1474.4689,-112.5"/>
<text text-anchor="middle" x="1507.4689" y="-119.5" font-family="Helvetica,sans-Serif" font-size="10.00" fill="#000000">energy.cpp</text>
</a>
</g>
</g>
<!-- Node17&#45;&gt;Node18 -->
<g id="edge18" class="edge">
<title>Node17&#45;&gt;Node18</title>
<path fill="none" stroke="#191970" d="M1542.3238,-165.7465C1533.5046,-154.6775 1522.4917,-140.8552 1515.2331,-131.7449"/>
<polygon fill="#191970" stroke="#191970" points="1539.8438,-168.2505 1548.8126,-173.8906 1545.3185,-163.8885 1539.8438,-168.2505"/>
</g>
<!-- Node19 -->
<g id="node19" class="node">
<title>Node19</title>
<g id="a_node19"><a xlink:href="../../d4/d58/stress_8cpp.html" target="_top" xlink:title="Contains implementation of sirius::Stress class.">
<polygon fill="#ffffff" stroke="#000000" points="796.4689,-112.5 796.4689,-131.5 858.4689,-131.5 858.4689,-112.5 796.4689,-112.5"/>
<text text-anchor="middle" x="827.4689" y="-119.5" font-family="Helvetica,sans-Serif" font-size="10.00" fill="#000000">stress.cpp</text>
</a>
</g>
</g>
<!-- Node17&#45;&gt;Node19 -->
<g id="edge19" class="edge">
<title>Node17&#45;&gt;Node19</title>
<path fill="none" stroke="#191970" d="M1523.9554,-170.7134C1520.4542,-169.6579 1516.913,-168.7214 1513.4689,-168 1385.6864,-141.2365 975.3945,-126.6242 858.6987,-122.9384"/>
<polygon fill="#191970" stroke="#191970" points="1523.0097,-174.0873 1533.6033,-173.9232 1525.2196,-167.4453 1523.0097,-174.0873"/>
</g>
<!-- Node17&#45;&gt;Node20 -->
<g id="edge20" class="edge">
<title>Node17&#45;&gt;Node20</title>
<path fill="none" stroke="#191970" d="M1573.3799,-166.7253C1584.6937,-155.5028 1599.1876,-141.1258 1608.6448,-131.7449"/>
<polygon fill="#191970" stroke="#191970" points="1570.7912,-164.3633 1566.1564,-173.8906 1575.7209,-169.3331 1570.7912,-164.3633"/>
</g>
<!-- Node22&#45;&gt;Node6 -->
<g id="edge23" class="edge">
<title>Node22&#45;&gt;Node6</title>
<path fill="none" stroke="#191970" d="M124.4689,-163.7462C124.4689,-153.0519 124.4689,-140.314 124.4689,-131.7449"/>
<polygon fill="#191970" stroke="#191970" points="120.969,-163.8906 124.4689,-173.8906 127.969,-163.8907 120.969,-163.8906"/>
</g>
<!-- Node22&#45;&gt;Node19 -->
<g id="edge24" class="edge">
<title>Node22&#45;&gt;Node19</title>
<path fill="none" stroke="#191970" d="M155.7485,-170.6176C158.9928,-169.6012 162.2723,-168.6994 165.4689,-168 288.1431,-141.1586 681.9428,-126.6741 796.1492,-122.9655"/>
<polygon fill="#191970" stroke="#191970" points="154.5354,-167.3338 146.2389,-173.923 156.8337,-173.9457 154.5354,-167.3338"/>
</g>
</g>
</svg>
