<?xml version="1.0" encoding="UTF-8" standalone="no"?>
<!DOCTYPE svg PUBLIC "-//W3C//DTD SVG 1.1//EN"
 "http://www.w3.org/Graphics/SVG/1.1/DTD/svg11.dtd">
<!-- Generated by graphviz version 2.40.1 (20161225.0304)
 -->
<!-- Title: simulation_parameters.hpp Pages: 1 -->
<svg width="2085pt" height="196pt"
 viewBox="0.00 0.00 2084.50 196.00" xmlns="http://www.w3.org/2000/svg" xmlns:xlink="http://www.w3.org/1999/xlink">
<g id="graph0" class="graph" transform="scale(1 1) rotate(0) translate(4 192)">
<title>simulation_parameters.hpp</title>
<polygon fill="#ffffff" stroke="transparent" points="-4,4 -4,-192 2080.5,-192 2080.5,4 -4,4"/>
<!-- Node0 -->
<g id="node1" class="node">
<title>Node0</title>
<g id="a_node1"><a xlink:title="Contains definition and implementation of sirius::Simulation_parameters_base class.">
<polygon fill="#bfbfbf" stroke="#000000" points="626,-168.5 626,-187.5 763,-187.5 763,-168.5 626,-168.5"/>
<text text-anchor="middle" x="694.5" y="-175.5" font-family="Helvetica,sans-Serif" font-size="10.00" fill="#000000">simulation_parameters.hpp</text>
</a>
</g>
</g>
<!-- Node1 -->
<g id="node2" class="node">
<title>Node1</title>
<g id="a_node2"><a xlink:title=" ">
<polygon fill="#ffffff" stroke="#bfbfbf" points="391,-112.5 391,-131.5 432,-131.5 432,-112.5 391,-112.5"/>
<text text-anchor="middle" x="411.5" y="-119.5" font-family="Helvetica,sans-Serif" font-size="10.00" fill="#000000">mpi.h</text>
</a>
</g>
</g>
<!-- Node0&#45;&gt;Node1 -->
<g id="edge1" class="edge">
<title>Node0&#45;&gt;Node1</title>
<path fill="none" stroke="#191970" d="M634.2839,-168.4756C583.8551,-160.1066 510.1227,-146.9539 446.5,-132 445.0389,-131.6566 443.5477,-131.2908 442.0445,-130.9098"/>
<polygon fill="#191970" stroke="#191970" points="442.7087,-127.4642 432.143,-128.2494 440.8922,-134.2244 442.7087,-127.4642"/>
</g>
<!-- Node2 -->
<g id="node3" class="node">
<title>Node2</title>
<g id="a_node3"><a xlink:href="../../de/df7/typedefs_8hpp.html" target="_top" xlink:title="Contains typedefs, enums and simple descriptors.">
<polygon fill="#ffffff" stroke="#000000" points="118.5,-56.5 118.5,-75.5 192.5,-75.5 192.5,-56.5 118.5,-56.5"/>
<text text-anchor="middle" x="155.5" y="-63.5" font-family="Helvetica,sans-Serif" font-size="10.00" fill="#000000">typedefs.hpp</text>
</a>
</g>
</g>
<!-- Node0&#45;&gt;Node2 -->
<g id="edge2" class="edge">
<title>Node0&#45;&gt;Node2</title>
<path fill="none" stroke="#191970" d="M628.3425,-168.4777C585.1763,-161.1436 528.0413,-149.2973 479.5,-132 461.1505,-125.4613 459.0411,-117.9735 440.5,-112 341.2504,-80.024 309.0341,-94.5034 202.4713,-76.0472"/>
<polygon fill="#191970" stroke="#191970" points="203.0758,-72.5998 192.6157,-74.2839 201.843,-79.4904 203.0758,-72.5998"/>
</g>
<!-- Node9 -->
<g id="node10" class="node">
<title>Node9</title>
<g id="a_node10"><a xlink:href="../../dd/d46/input_8hpp.html" target="_top" xlink:title="Contains input parameters structures.">
<polygon fill="#ffffff" stroke="#000000" points="488.5,-112.5 488.5,-131.5 546.5,-131.5 546.5,-112.5 488.5,-112.5"/>
<text text-anchor="middle" x="517.5" y="-119.5" font-family="Helvetica,sans-Serif" font-size="10.00" fill="#000000">input.hpp</text>
</a>
</g>
</g>
<!-- Node0&#45;&gt;Node9 -->
<g id="edge9" class="edge">
<title>Node0&#45;&gt;Node9</title>
<path fill="none" stroke="#191970" d="M664.0726,-168.3733C634.2441,-158.936 588.6573,-144.5131 556.2515,-134.2604"/>
<polygon fill="#191970" stroke="#191970" points="557.2397,-130.9021 546.6497,-131.2225 555.1281,-137.576 557.2397,-130.9021"/>
</g>
<!-- Node20 -->
<g id="node21" class="node">
<title>Node20</title>
<g id="a_node21"><a xlink:href="../../d2/de7/cmd__args_8hpp.html" target="_top" xlink:title="Contains definition and implementation of cmd_args class.">
<polygon fill="#ffffff" stroke="#000000" points="644.5,-112.5 644.5,-131.5 744.5,-131.5 744.5,-112.5 644.5,-112.5"/>
<text text-anchor="middle" x="694.5" y="-119.5" font-family="Helvetica,sans-Serif" font-size="10.00" fill="#000000">utils/cmd_args.hpp</text>
</a>
</g>
</g>
<!-- Node0&#45;&gt;Node20 -->
<g id="edge24" class="edge">
<title>Node0&#45;&gt;Node20</title>
<path fill="none" stroke="#191970" d="M694.5,-168.2455C694.5,-160.9382 694.5,-150.6944 694.5,-141.7046"/>
<polygon fill="#191970" stroke="#191970" points="698.0001,-141.6426 694.5,-131.6427 691.0001,-141.6427 698.0001,-141.6426"/>
</g>
<!-- Node25 -->
<g id="node26" class="node">
<title>Node25</title>
<g id="a_node26"><a xlink:href="../../df/d93/utils_8hpp.html" target="_top" xlink:title="A collection of utility functions.">
<polygon fill="#ffffff" stroke="#000000" points="1017.5,-56.5 1017.5,-75.5 1091.5,-75.5 1091.5,-56.5 1017.5,-56.5"/>
<text text-anchor="middle" x="1054.5" y="-63.5" font-family="Helvetica,sans-Serif" font-size="10.00" fill="#000000">utils/utils.hpp</text>
</a>
</g>
</g>
<!-- Node0&#45;&gt;Node25 -->
<g id="edge31" class="edge">
<title>Node0&#45;&gt;Node25</title>
<path fill="none" stroke="#191970" d="M763.1653,-174.1098C817.7934,-169.1303 895.2856,-157.7926 958.5,-132 987.9507,-119.9836 1017.4463,-97.8234 1035.8174,-82.5173"/>
<polygon fill="#191970" stroke="#191970" points="1038.5567,-84.7811 1043.8934,-75.6285 1034.0138,-79.4555 1038.5567,-84.7811"/>
</g>
<!-- Node31 -->
<g id="node32" class="node">
<title>Node31</title>
<g id="a_node32"><a xlink:href="../../da/d3e/memory_8hpp.html" target="_top" xlink:title="Memory management functions and classes.">
<polygon fill="#ffffff" stroke="#000000" points="877.5,-112.5 877.5,-131.5 949.5,-131.5 949.5,-112.5 877.5,-112.5"/>
<text text-anchor="middle" x="913.5" y="-119.5" font-family="Helvetica,sans-Serif" font-size="10.00" fill="#000000">memory.hpp</text>
</a>
</g>
</g>
<!-- Node0&#45;&gt;Node31 -->
<g id="edge42" class="edge">
<title>Node0&#45;&gt;Node31</title>
<path fill="none" stroke="#191970" d="M732.1474,-168.3733C769.6903,-158.7733 827.4086,-144.0142 867.6124,-133.7338"/>
<polygon fill="#191970" stroke="#191970" points="868.6123,-137.0908 877.4334,-131.2225 866.878,-130.309 868.6123,-137.0908"/>
</g>
<!-- Node45 -->
<g id="node46" class="node">
<title>Node45</title>
<g id="a_node46"><a xlink:title=" ">
<polygon fill="#ffffff" stroke="#bfbfbf" points="1006,-112.5 1006,-131.5 1137,-131.5 1137,-112.5 1006,-112.5"/>
<text text-anchor="middle" x="1071.5" y="-119.5" font-family="Helvetica,sans-Serif" font-size="10.00" fill="#000000">runtime_options_json.hpp</text>
</a>
</g>
</g>
<!-- Node0&#45;&gt;Node45 -->
<g id="edge68" class="edge">
<title>Node0&#45;&gt;Node45</title>
<path fill="none" stroke="#191970" d="M758.8802,-168.4369C825.0275,-158.6113 927.8825,-143.3331 997.3817,-133.0096"/>
<polygon fill="#191970" stroke="#191970" points="998.0081,-136.4551 1007.3853,-131.5237 996.9795,-129.531 998.0081,-136.4551"/>
</g>
<!-- Node3 -->
<g id="node4" class="node">
<title>Node3</title>
<g id="a_node4"><a xlink:title=" ">
<polygon fill="#ffffff" stroke="#bfbfbf" points="0,-.5 0,-19.5 45,-19.5 45,-.5 0,-.5"/>
<text text-anchor="middle" x="22.5" y="-7.5" font-family="Helvetica,sans-Serif" font-size="10.00" fill="#000000">cstdlib</text>
</a>
</g>
</g>
<!-- Node2&#45;&gt;Node3 -->
<g id="edge3" class="edge">
<title>Node2&#45;&gt;Node3</title>
<path fill="none" stroke="#191970" d="M132.6365,-56.3733C111.095,-47.3032 78.6162,-33.6279 54.5044,-23.4755"/>
<polygon fill="#191970" stroke="#191970" points="55.6397,-20.156 45.0652,-19.5011 52.9233,-26.6075 55.6397,-20.156"/>
</g>
<!-- Node4 -->
<g id="node5" class="node">
<title>Node4</title>
<g id="a_node5"><a xlink:title=" ">
<polygon fill="#ffffff" stroke="#bfbfbf" points="177.5,-.5 177.5,-19.5 229.5,-19.5 229.5,-.5 177.5,-.5"/>
<text text-anchor="middle" x="203.5" y="-7.5" font-family="Helvetica,sans-Serif" font-size="10.00" fill="#000000">assert.h</text>
</a>
</g>
</g>
<!-- Node2&#45;&gt;Node4 -->
<g id="edge4" class="edge">
<title>Node2&#45;&gt;Node4</title>
<path fill="none" stroke="#191970" d="M163.861,-56.2455C170.675,-48.2958 180.4681,-36.8706 188.6152,-27.3656"/>
<polygon fill="#191970" stroke="#191970" points="191.3843,-29.513 195.2349,-19.6427 186.0695,-24.9575 191.3843,-29.513"/>
</g>
<!-- Node5 -->
<g id="node6" class="node">
<title>Node5</title>
<g id="a_node6"><a xlink:title=" ">
<polygon fill="#ffffff" stroke="#bfbfbf" points="745.5,-.5 745.5,-19.5 799.5,-19.5 799.5,-.5 745.5,-.5"/>
<text text-anchor="middle" x="772.5" y="-7.5" font-family="Helvetica,sans-Serif" font-size="10.00" fill="#000000">complex</text>
</a>
</g>
</g>
<!-- Node2&#45;&gt;Node5 -->
<g id="edge5" class="edge">
<title>Node2&#45;&gt;Node5</title>
<path fill="none" stroke="#191970" d="M192.5726,-57.4513C195.5834,-56.9065 198.5869,-56.4124 201.5,-56 434.2369,-23.054 499.797,-59.0876 735.2243,-19.9006"/>
<polygon fill="#191970" stroke="#191970" points="735.8373,-23.3467 745.1131,-18.2273 734.6693,-16.4448 735.8373,-23.3467"/>
</g>
<!-- Node6 -->
<g id="node7" class="node">
<title>Node6</title>
<g id="a_node7"><a xlink:title=" ">
<polygon fill="#ffffff" stroke="#bfbfbf" points="551.5,-.5 551.5,-19.5 595.5,-19.5 595.5,-.5 551.5,-.5"/>
<text text-anchor="middle" x="573.5" y="-7.5" font-family="Helvetica,sans-Serif" font-size="10.00" fill="#000000">vector</text>
</a>
</g>
</g>
<!-- Node2&#45;&gt;Node6 -->
<g id="edge6" class="edge">
<title>Node2&#45;&gt;Node6</title>
<path fill="none" stroke="#191970" d="M192.5911,-57.5737C195.5978,-57.0015 198.5953,-56.4676 201.5,-56 348.7279,-32.2976 391.5751,-50.7321 541.2804,-19.8744"/>
<polygon fill="#191970" stroke="#191970" points="542.2314,-23.2511 551.2981,-17.7696 540.792,-16.4007 542.2314,-23.2511"/>
</g>
<!-- Node7 -->
<g id="node8" class="node">
<title>Node7</title>
<g id="a_node8"><a xlink:title=" ">
<polygon fill="#ffffff" stroke="#bfbfbf" points="120,-.5 120,-19.5 159,-19.5 159,-.5 120,-.5"/>
<text text-anchor="middle" x="139.5" y="-7.5" font-family="Helvetica,sans-Serif" font-size="10.00" fill="#000000">array</text>
</a>
</g>
</g>
<!-- Node2&#45;&gt;Node7 -->
<g id="edge7" class="edge">
<title>Node2&#45;&gt;Node7</title>
<path fill="none" stroke="#191970" d="M152.713,-56.2455C150.6023,-48.8579 147.634,-38.4689 145.0453,-29.4087"/>
<polygon fill="#191970" stroke="#191970" points="148.3677,-28.2964 142.255,-19.6427 141.637,-30.2195 148.3677,-28.2964"/>
</g>
<!-- Node8 -->
<g id="node9" class="node">
<title>Node8</title>
<g id="a_node9"><a xlink:title=" ">
<polygon fill="#ffffff" stroke="#bfbfbf" points="63,-.5 63,-19.5 102,-19.5 102,-.5 63,-.5"/>
<text text-anchor="middle" x="82.5" y="-7.5" font-family="Helvetica,sans-Serif" font-size="10.00" fill="#000000">limits</text>
</a>
</g>
</g>
<!-- Node2&#45;&gt;Node8 -->
<g id="edge8" class="edge">
<title>Node2&#45;&gt;Node8</title>
<path fill="none" stroke="#191970" d="M142.7844,-56.2455C131.898,-47.8943 116.0117,-35.7076 103.28,-25.9408"/>
<polygon fill="#191970" stroke="#191970" points="105.1346,-22.9523 95.0699,-19.6427 100.8739,-28.5063 105.1346,-22.9523"/>
</g>
<!-- Node10 -->
<g id="node11" class="node">
<title>Node10</title>
<g id="a_node11"><a xlink:title=" ">
<polygon fill="#ffffff" stroke="#bfbfbf" points="538,-56.5 538,-75.5 567,-75.5 567,-56.5 538,-56.5"/>
<text text-anchor="middle" x="552.5" y="-63.5" font-family="Helvetica,sans-Serif" font-size="10.00" fill="#000000">list</text>
</a>
</g>
</g>
<!-- Node9&#45;&gt;Node10 -->
<g id="edge10" class="edge">
<title>Node9&#45;&gt;Node10</title>
<path fill="none" stroke="#191970" d="M523.5965,-112.2455C528.4145,-104.5367 535.2751,-93.5598 541.1032,-84.2348"/>
<polygon fill="#191970" stroke="#191970" points="544.1413,-85.9777 546.4733,-75.6427 538.2053,-82.2677 544.1413,-85.9777"/>
</g>
<!-- Node11 -->
<g id="node12" class="node">
<title>Node11</title>
<g id="a_node12"><a xlink:href="../../d3/dad/constants_8hpp.html" target="_top" xlink:title="Various constants.">
<polygon fill="#ffffff" stroke="#000000" points="348,-56.5 348,-75.5 427,-75.5 427,-56.5 348,-56.5"/>
<text text-anchor="middle" x="387.5" y="-63.5" font-family="Helvetica,sans-Serif" font-size="10.00" fill="#000000">constants.hpp</text>
</a>
</g>
</g>
<!-- Node9&#45;&gt;Node11 -->
<g id="edge11" class="edge">
<title>Node9&#45;&gt;Node11</title>
<path fill="none" stroke="#191970" d="M495.1522,-112.3733C474.0967,-103.3032 442.3505,-89.6279 418.7825,-79.4755"/>
<polygon fill="#191970" stroke="#191970" points="420.125,-76.243 409.5562,-75.5011 417.3556,-82.6719 420.125,-76.243"/>
</g>
<!-- Node12 -->
<g id="node13" class="node">
<title>Node12</title>
<g id="a_node13"><a xlink:href="../../d6/d99/geometry3d_8hpp.html" target="_top" xlink:title="Simple classes and functions to work with the 3D vectors and matrices of the crystal lattice.">
<polygon fill="#ffffff" stroke="#000000" points="211,-56.5 211,-75.5 330,-75.5 330,-56.5 211,-56.5"/>
<text text-anchor="middle" x="270.5" y="-63.5" font-family="Helvetica,sans-Serif" font-size="10.00" fill="#000000">SDDK/geometry3d.hpp</text>
</a>
</g>
</g>
<!-- Node9&#45;&gt;Node12 -->
<g id="edge13" class="edge">
<title>Node9&#45;&gt;Node12</title>
<path fill="none" stroke="#191970" d="M488.3619,-115.1958C483.7261,-114.1213 478.9826,-113.0266 474.5,-112 423.007,-100.207 364.147,-86.9595 322.9289,-77.7206"/>
<polygon fill="#191970" stroke="#191970" points="323.6305,-74.2911 313.1072,-75.5201 322.1,-81.1217 323.6305,-74.2911"/>
</g>
<!-- Node19 -->
<g id="node20" class="node">
<title>Node19</title>
<g id="a_node20"><a xlink:title=" ">
<polygon fill="#ffffff" stroke="#bfbfbf" points="445,-56.5 445,-75.5 520,-75.5 520,-56.5 445,-56.5"/>
<text text-anchor="middle" x="482.5" y="-63.5" font-family="Helvetica,sans-Serif" font-size="10.00" fill="#000000">utils/json.hpp</text>
</a>
</g>
</g>
<!-- Node9&#45;&gt;Node19 -->
<g id="edge23" class="edge">
<title>Node9&#45;&gt;Node19</title>
<path fill="none" stroke="#191970" d="M511.4035,-112.2455C506.5855,-104.5367 499.7249,-93.5598 493.8968,-84.2348"/>
<polygon fill="#191970" stroke="#191970" points="496.7947,-82.2677 488.5267,-75.6427 490.8587,-85.9777 496.7947,-82.2677"/>
</g>
<!-- Node11&#45;&gt;Node5 -->
<g id="edge12" class="edge">
<title>Node11&#45;&gt;Node5</title>
<path fill="none" stroke="#191970" d="M427.0022,-57.4884C429.8728,-56.9566 432.7278,-56.4537 435.5,-56 565.2163,-34.7715 602.5132,-45.546 735.3255,-19.9698"/>
<polygon fill="#191970" stroke="#191970" points="736.3385,-23.3379 745.4788,-17.9803 734.9924,-16.4686 736.3385,-23.3379"/>
</g>
<!-- Node12&#45;&gt;Node4 -->
<g id="edge14" class="edge">
<title>Node12&#45;&gt;Node4</title>
<path fill="none" stroke="#191970" d="M258.8295,-56.2455C248.9339,-47.9746 234.5373,-35.9416 222.9099,-26.2232"/>
<polygon fill="#191970" stroke="#191970" points="224.9542,-23.3703 215.0368,-19.6427 220.465,-28.7413 224.9542,-23.3703"/>
</g>
<!-- Node12&#45;&gt;Node6 -->
<g id="edge17" class="edge">
<title>Node12&#45;&gt;Node6</title>
<path fill="none" stroke="#191970" d="M330.07,-56.9567C393.2049,-47.2017 489.781,-31.7528 541.2824,-19.9777"/>
<polygon fill="#191970" stroke="#191970" points="542.3434,-23.3229 551.2592,-17.5994 540.7202,-16.5137 542.3434,-23.3229"/>
</g>
<!-- Node12&#45;&gt;Node7 -->
<g id="edge16" class="edge">
<title>Node12&#45;&gt;Node7</title>
<path fill="none" stroke="#191970" d="M247.9803,-56.3733C225.9912,-46.9734 192.4316,-32.6272 168.4659,-22.3824"/>
<polygon fill="#191970" stroke="#191970" points="169.7327,-19.1176 159.1618,-18.4051 166.9812,-25.5541 169.7327,-19.1176"/>
</g>
<!-- Node13 -->
<g id="node14" class="node">
<title>Node13</title>
<g id="a_node14"><a xlink:title=" ">
<polygon fill="#ffffff" stroke="#bfbfbf" points="613.5,-.5 613.5,-19.5 657.5,-19.5 657.5,-.5 613.5,-.5"/>
<text text-anchor="middle" x="635.5" y="-7.5" font-family="Helvetica,sans-Serif" font-size="10.00" fill="#000000">cmath</text>
</a>
</g>
</g>
<!-- Node12&#45;&gt;Node13 -->
<g id="edge15" class="edge">
<title>Node12&#45;&gt;Node13</title>
<path fill="none" stroke="#191970" d="M330.1985,-57.1812C333.0044,-56.7792 335.7825,-56.3837 338.5,-56 453.3983,-39.7771 486.3723,-46.0464 603.223,-19.9668"/>
<polygon fill="#191970" stroke="#191970" points="604.3004,-23.3115 613.2804,-17.6894 602.7544,-16.4844 604.3004,-23.3115"/>
</g>
<!-- Node14 -->
<g id="node15" class="node">
<title>Node14</title>
<g id="a_node15"><a xlink:title=" ">
<polygon fill="#ffffff" stroke="#bfbfbf" points="248,-.5 248,-19.5 301,-19.5 301,-.5 248,-.5"/>
<text text-anchor="middle" x="274.5" y="-7.5" font-family="Helvetica,sans-Serif" font-size="10.00" fill="#000000">ostream</text>
</a>
</g>
</g>
<!-- Node12&#45;&gt;Node14 -->
<g id="edge18" class="edge">
<title>Node12&#45;&gt;Node14</title>
<path fill="none" stroke="#191970" d="M271.1967,-56.2455C271.7187,-48.9382 272.4504,-38.6944 273.0925,-29.7046"/>
<polygon fill="#191970" stroke="#191970" points="276.5898,-29.8667 273.8112,-19.6427 269.6076,-29.3679 276.5898,-29.8667"/>
</g>
<!-- Node15 -->
<g id="node16" class="node">
<title>Node15</title>
<g id="a_node16"><a xlink:title=" ">
<polygon fill="#ffffff" stroke="#bfbfbf" points="487.5,-.5 487.5,-19.5 533.5,-19.5 533.5,-.5 487.5,-.5"/>
<text text-anchor="middle" x="510.5" y="-7.5" font-family="Helvetica,sans-Serif" font-size="10.00" fill="#000000">cstring</text>
</a>
</g>
</g>
<!-- Node12&#45;&gt;Node15 -->
<g id="edge19" class="edge">
<title>Node12&#45;&gt;Node15</title>
<path fill="none" stroke="#191970" d="M318.4323,-56.4204C360.5458,-47.7491 423.3725,-34.1936 477.5,-20 477.6013,-19.9734 477.7028,-19.9467 477.8045,-19.92"/>
<polygon fill="#191970" stroke="#191970" points="478.7941,-23.2776 487.4841,-17.2168 476.9112,-16.5356 478.7941,-23.2776"/>
</g>
<!-- Node16 -->
<g id="node17" class="node">
<title>Node16</title>
<g id="a_node17"><a xlink:title=" ">
<polygon fill="#ffffff" stroke="#bfbfbf" points="319,-.5 319,-19.5 392,-19.5 392,-.5 319,-.5"/>
<text text-anchor="middle" x="355.5" y="-7.5" font-family="Helvetica,sans-Serif" font-size="10.00" fill="#000000">initializer_list</text>
</a>
</g>
</g>
<!-- Node12&#45;&gt;Node16 -->
<g id="edge20" class="edge">
<title>Node12&#45;&gt;Node16</title>
<path fill="none" stroke="#191970" d="M285.3059,-56.2455C298.2256,-47.7337 317.1931,-35.2375 332.1552,-25.3801"/>
<polygon fill="#191970" stroke="#191970" points="334.4387,-28.067 340.8638,-19.6427 330.5876,-22.2216 334.4387,-28.067"/>
</g>
<!-- Node17 -->
<g id="node18" class="node">
<title>Node17</title>
<g id="a_node18"><a xlink:title=" ">
<polygon fill="#ffffff" stroke="#bfbfbf" points="410,-.5 410,-19.5 469,-19.5 469,-.5 410,-.5"/>
<text text-anchor="middle" x="439.5" y="-7.5" font-family="Helvetica,sans-Serif" font-size="10.00" fill="#000000">stdexcept</text>
</a>
</g>
</g>
<!-- Node12&#45;&gt;Node17 -->
<g id="edge21" class="edge">
<title>Node12&#45;&gt;Node17</title>
<path fill="none" stroke="#191970" d="M299.5521,-56.3733C327.6543,-47.0613 370.4054,-32.8953 401.2607,-22.671"/>
<polygon fill="#191970" stroke="#191970" points="402.4355,-25.969 410.827,-19.5011 400.2336,-19.3243 402.4355,-25.969"/>
</g>
<!-- Node18 -->
<g id="node19" class="node">
<title>Node18</title>
<g id="a_node19"><a xlink:title=" ">
<polygon fill="#ffffff" stroke="#bfbfbf" points="675.5,-.5 675.5,-19.5 727.5,-19.5 727.5,-.5 675.5,-.5"/>
<text text-anchor="middle" x="701.5" y="-7.5" font-family="Helvetica,sans-Serif" font-size="10.00" fill="#000000">sstream</text>
</a>
</g>
</g>
<!-- Node12&#45;&gt;Node18 -->
<g id="edge22" class="edge">
<title>Node12&#45;&gt;Node18</title>
<path fill="none" stroke="#191970" d="M330.187,-57.096C332.996,-56.7168 335.7779,-56.3494 338.5,-56 480.6925,-37.7477 520.8031,-47.7696 665.1267,-19.9925"/>
<polygon fill="#191970" stroke="#191970" points="666.0988,-23.3689 675.2427,-18.0172 664.7572,-16.4986 666.0988,-23.3689"/>
</g>
<!-- Node20&#45;&gt;Node6 -->
<g id="edge25" class="edge">
<title>Node20&#45;&gt;Node6</title>
<path fill="none" stroke="#191970" d="M684.1836,-112.4509C663.5558,-93.3574 617.0057,-50.2697 591.3328,-26.5063"/>
<polygon fill="#191970" stroke="#191970" points="593.5065,-23.7492 583.7903,-19.5249 588.7515,-28.8864 593.5065,-23.7492"/>
</g>
<!-- Node20&#45;&gt;Node18 -->
<g id="edge28" class="edge">
<title>Node20&#45;&gt;Node18</title>
<path fill="none" stroke="#191970" d="M682.4457,-112.1183C668.6807,-99.5543 649.0861,-76.9689 657.5,-56 662.1633,-44.3782 671.3188,-34.0324 680.0762,-26.1099"/>
<polygon fill="#191970" stroke="#191970" points="682.4727,-28.6675 687.8664,-19.5484 677.9632,-23.3136 682.4727,-28.6675"/>
</g>
<!-- Node21 -->
<g id="node22" class="node">
<title>Node21</title>
<g id="a_node22"><a xlink:title=" ">
<polygon fill="#ffffff" stroke="#bfbfbf" points="818,-.5 818,-19.5 859,-19.5 859,-.5 818,-.5"/>
<text text-anchor="middle" x="838.5" y="-7.5" font-family="Helvetica,sans-Serif" font-size="10.00" fill="#000000">string</text>
</a>
</g>
</g>
<!-- Node20&#45;&gt;Node21 -->
<g id="edge26" class="edge">
<title>Node20&#45;&gt;Node21</title>
<path fill="none" stroke="#191970" d="M690.4007,-112.3939C685.177,-98.4894 678.2044,-72.6063 690.5,-56 721.3433,-14.3434 752.6421,-34.171 808.0103,-19.8095"/>
<polygon fill="#191970" stroke="#191970" points="809.2343,-23.0989 817.8659,-16.9552 807.287,-16.3752 809.2343,-23.0989"/>
</g>
<!-- Node22 -->
<g id="node23" class="node">
<title>Node22</title>
<g id="a_node23"><a xlink:title=" ">
<polygon fill="#ffffff" stroke="#bfbfbf" points="699.5,-56.5 699.5,-75.5 735.5,-75.5 735.5,-56.5 699.5,-56.5"/>
<text text-anchor="middle" x="717.5" y="-63.5" font-family="Helvetica,sans-Serif" font-size="10.00" fill="#000000">map</text>
</a>
</g>
</g>
<!-- Node20&#45;&gt;Node22 -->
<g id="edge27" class="edge">
<title>Node20&#45;&gt;Node22</title>
<path fill="none" stroke="#191970" d="M698.5063,-112.2455C701.5735,-104.7776 705.9003,-94.2427 709.6497,-85.1137"/>
<polygon fill="#191970" stroke="#191970" points="712.9779,-86.2226 713.5396,-75.6427 706.5028,-83.5631 712.9779,-86.2226"/>
</g>
<!-- Node23 -->
<g id="node24" class="node">
<title>Node23</title>
<g id="a_node24"><a xlink:title=" ">
<polygon fill="#ffffff" stroke="#bfbfbf" points="753.5,-56.5 753.5,-75.5 811.5,-75.5 811.5,-56.5 753.5,-56.5"/>
<text text-anchor="middle" x="782.5" y="-63.5" font-family="Helvetica,sans-Serif" font-size="10.00" fill="#000000">algorithm</text>
</a>
</g>
</g>
<!-- Node20&#45;&gt;Node23 -->
<g id="edge29" class="edge">
<title>Node20&#45;&gt;Node23</title>
<path fill="none" stroke="#191970" d="M709.8284,-112.2455C723.3303,-103.6534 743.2122,-91.0014 758.7686,-81.1018"/>
<polygon fill="#191970" stroke="#191970" points="760.7897,-83.9643 767.3472,-75.6427 757.0315,-78.0587 760.7897,-83.9643"/>
</g>
<!-- Node24 -->
<g id="node25" class="node">
<title>Node24</title>
<g id="a_node25"><a xlink:title=" ">
<polygon fill="#ffffff" stroke="#bfbfbf" points="830,-56.5 830,-75.5 885,-75.5 885,-56.5 830,-56.5"/>
<text text-anchor="middle" x="857.5" y="-63.5" font-family="Helvetica,sans-Serif" font-size="10.00" fill="#000000">iostream</text>
</a>
</g>
</g>
<!-- Node20&#45;&gt;Node24 -->
<g id="edge30" class="edge">
<title>Node20&#45;&gt;Node24</title>
<path fill="none" stroke="#191970" d="M722.5207,-112.3733C749.5078,-103.1016 790.5017,-89.0178 820.2311,-78.804"/>
<polygon fill="#191970" stroke="#191970" points="821.5248,-82.0605 829.8449,-75.5011 819.2503,-75.4403 821.5248,-82.0605"/>
</g>
<!-- Node25&#45;&gt;Node5 -->
<g id="edge40" class="edge">
<title>Node25&#45;&gt;Node5</title>
<path fill="none" stroke="#191970" d="M1017.462,-58.6878C1012.7639,-57.7749 1008.0205,-56.8604 1003.5,-56 920.0514,-40.1163 896.0882,-39.814 809.5623,-20.0946"/>
<polygon fill="#191970" stroke="#191970" points="810.0915,-16.625 799.5612,-17.7932 808.5216,-23.4467 810.0915,-16.625"/>
</g>
<!-- Node25&#45;&gt;Node6 -->
<g id="edge35" class="edge">
<title>Node25&#45;&gt;Node6</title>
<path fill="none" stroke="#191970" d="M1017.2712,-61.7121C1001.3321,-59.9034 982.5081,-57.8035 965.5,-56 808.4469,-39.3465 764.1461,-52.3779 605.7968,-19.8869"/>
<polygon fill="#191970" stroke="#191970" points="606.202,-16.3963 595.6986,-17.7855 604.7758,-23.2495 606.202,-16.3963"/>
</g>
<!-- Node25&#45;&gt;Node13 -->
<g id="edge33" class="edge">
<title>Node25&#45;&gt;Node13</title>
<path fill="none" stroke="#191970" d="M1017.4907,-61.809C931.3212,-52.0266 721.0856,-28.0113 667.8558,-19.5663"/>
<polygon fill="#191970" stroke="#191970" points="668.1723,-16.0669 657.7095,-17.7345 666.9286,-22.9556 668.1723,-16.0669"/>
</g>
<!-- Node25&#45;&gt;Node18 -->
<g id="edge37" class="edge">
<title>Node25&#45;&gt;Node18</title>
<path fill="none" stroke="#191970" d="M1017.4443,-61.2782C949.2013,-52.4822 805.1733,-33.4287 737.8933,-20.0196"/>
<polygon fill="#191970" stroke="#191970" points="738.2804,-16.5254 727.7776,-17.9185 736.8568,-23.3791 738.2804,-16.5254"/>
</g>
<!-- Node25&#45;&gt;Node21 -->
<g id="edge34" class="edge">
<title>Node25&#45;&gt;Node21</title>
<path fill="none" stroke="#191970" d="M1017.2145,-57.6958C981.5586,-49.5518 926.1022,-36.3592 869.0108,-19.9768"/>
<polygon fill="#191970" stroke="#191970" points="869.6684,-16.5235 859.0894,-17.1019 867.7202,-23.2469 869.6684,-16.5235"/>
</g>
<!-- Node26 -->
<g id="node27" class="node">
<title>Node26</title>
<g id="a_node27"><a xlink:title=" ">
<polygon fill="#ffffff" stroke="#bfbfbf" points="1098,-.5 1098,-19.5 1147,-19.5 1147,-.5 1098,-.5"/>
<text text-anchor="middle" x="1122.5" y="-7.5" font-family="Helvetica,sans-Serif" font-size="10.00" fill="#000000">cassert</text>
</a>
</g>
</g>
<!-- Node25&#45;&gt;Node26 -->
<g id="edge32" class="edge">
<title>Node25&#45;&gt;Node26</title>
<path fill="none" stroke="#191970" d="M1066.3447,-56.2455C1076.388,-47.9746 1090.9995,-35.9416 1102.8004,-26.2232"/>
<polygon fill="#191970" stroke="#191970" points="1105.2967,-28.7015 1110.791,-19.6427 1100.8467,-23.298 1105.2967,-28.7015"/>
</g>
<!-- Node27 -->
<g id="node28" class="node">
<title>Node27</title>
<g id="a_node28"><a xlink:title=" ">
<polygon fill="#ffffff" stroke="#bfbfbf" points="877.5,-.5 877.5,-19.5 927.5,-19.5 927.5,-.5 877.5,-.5"/>
<text text-anchor="middle" x="902.5" y="-7.5" font-family="Helvetica,sans-Serif" font-size="10.00" fill="#000000">fstream</text>
</a>
</g>
</g>
<!-- Node25&#45;&gt;Node27 -->
<g id="edge36" class="edge">
<title>Node25&#45;&gt;Node27</title>
<path fill="none" stroke="#191970" d="M1028.3703,-56.3733C1003.1964,-47.0987 964.9528,-33.0089 937.2275,-22.7943"/>
<polygon fill="#191970" stroke="#191970" points="938.1259,-19.3954 927.5325,-19.2225 935.706,-25.9638 938.1259,-19.3954"/>
</g>
<!-- Node28 -->
<g id="node29" class="node">
<title>Node28</title>
<g id="a_node29"><a xlink:title=" ">
<polygon fill="#ffffff" stroke="#bfbfbf" points="945.5,-.5 945.5,-19.5 1007.5,-19.5 1007.5,-.5 945.5,-.5"/>
<text text-anchor="middle" x="976.5" y="-7.5" font-family="Helvetica,sans-Serif" font-size="10.00" fill="#000000">sys/time.h</text>
</a>
</g>
</g>
<!-- Node25&#45;&gt;Node28 -->
<g id="edge38" class="edge">
<title>Node25&#45;&gt;Node28</title>
<path fill="none" stroke="#191970" d="M1040.9134,-56.2455C1029.1695,-47.814 1011.9801,-35.4729 998.3118,-25.6598"/>
<polygon fill="#191970" stroke="#191970" points="1000.0954,-22.6316 989.9309,-19.6427 996.0129,-28.3179 1000.0954,-22.6316"/>
</g>
<!-- Node29 -->
<g id="node30" class="node">
<title>Node29</title>
<g id="a_node30"><a xlink:title=" ">
<polygon fill="#ffffff" stroke="#bfbfbf" points="1165.5,-.5 1165.5,-19.5 1217.5,-19.5 1217.5,-.5 1165.5,-.5"/>
<text text-anchor="middle" x="1191.5" y="-7.5" font-family="Helvetica,sans-Serif" font-size="10.00" fill="#000000">unistd.h</text>
</a>
</g>
</g>
<!-- Node25&#45;&gt;Node29 -->
<g id="edge39" class="edge">
<title>Node25&#45;&gt;Node29</title>
<path fill="none" stroke="#191970" d="M1078.0511,-56.3733C1100.3391,-47.2629 1133.9937,-33.5062 1158.8637,-23.3404"/>
<polygon fill="#191970" stroke="#191970" points="1160.3239,-26.5247 1168.2562,-19.5011 1157.6753,-20.0451 1160.3239,-26.5247"/>
</g>
<!-- Node30 -->
<g id="node31" class="node">
<title>Node30</title>
<g id="a_node31"><a xlink:title=" ">
<polygon fill="#ffffff" stroke="#bfbfbf" points="1025.5,-.5 1025.5,-19.5 1079.5,-19.5 1079.5,-.5 1025.5,-.5"/>
<text text-anchor="middle" x="1052.5" y="-7.5" font-family="Helvetica,sans-Serif" font-size="10.00" fill="#000000">json.hpp</text>
</a>
</g>
</g>
<!-- Node25&#45;&gt;Node30 -->
<g id="edge41" class="edge">
<title>Node25&#45;&gt;Node30</title>
<path fill="none" stroke="#191970" d="M1054.1516,-56.2455C1053.8907,-48.9382 1053.5248,-38.6944 1053.2037,-29.7046"/>
<polygon fill="#191970" stroke="#191970" points="1056.6992,-29.5113 1052.8444,-19.6427 1049.7036,-29.7613 1056.6992,-29.5113"/>
</g>
<!-- Node31&#45;&gt;Node5 -->
<g id="edge51" class="edge">
<title>Node31&#45;&gt;Node5</title>
<path fill="none" stroke="#191970" d="M930.6006,-112.3557C951.2662,-99.477 981.4065,-75.9666 965.5,-56 922.81,-2.4133 881.5935,-34.5281 809.4928,-19.9287"/>
<polygon fill="#191970" stroke="#191970" points="810.1198,-16.4819 799.5916,-17.6678 808.5614,-23.3062 810.1198,-16.4819"/>
</g>
<!-- Node31&#45;&gt;Node7 -->
<g id="edge50" class="edge">
<title>Node31&#45;&gt;Node7</title>
<path fill="none" stroke="#191970" d="M913.7638,-112.4926C913.598,-97.7236 910.8618,-69.5607 893.5,-56 831.9848,-7.9526 284.6795,-33.5146 169.3196,-19.2073"/>
<polygon fill="#191970" stroke="#191970" points="169.6856,-15.7222 159.266,-17.6412 168.6081,-22.6388 169.6856,-15.7222"/>
</g>
<!-- Node31&#45;&gt;Node10 -->
<g id="edge43" class="edge">
<title>Node31&#45;&gt;Node10</title>
<path fill="none" stroke="#191970" d="M877.2331,-116.3741C803.8612,-104.9923 639.5001,-79.4959 577.1358,-69.8216"/>
<polygon fill="#191970" stroke="#191970" points="577.4657,-66.331 567.0473,-68.2567 576.3926,-73.2483 577.4657,-66.331"/>
</g>
<!-- Node31&#45;&gt;Node15 -->
<g id="edge47" class="edge">
<title>Node31&#45;&gt;Node15</title>
<path fill="none" stroke="#191970" d="M920.223,-112.1244C929.0085,-97.8843 941.6976,-71.5871 927.5,-56 871.6144,5.355 643.1364,-33.9966 543.8177,-19.6265"/>
<polygon fill="#191970" stroke="#191970" points="544.2216,-16.1446 533.7719,-17.8922 543.0306,-23.0425 544.2216,-16.1446"/>
</g>
<!-- Node31&#45;&gt;Node22 -->
<g id="edge45" class="edge">
<title>Node31&#45;&gt;Node22</title>
<path fill="none" stroke="#191970" d="M877.2926,-113.1385C844.9687,-105.0081 796.1743,-92.1981 745.5336,-76.1436"/>
<polygon fill="#191970" stroke="#191970" points="746.3144,-72.7185 735.7233,-72.9994 744.178,-79.3845 746.3144,-72.7185"/>
</g>
<!-- Node31&#45;&gt;Node23 -->
<g id="edge49" class="edge">
<title>Node31&#45;&gt;Node23</title>
<path fill="none" stroke="#191970" d="M890.9803,-112.3733C869.7628,-103.3032 837.7724,-89.6279 814.0231,-79.4755"/>
<polygon fill="#191970" stroke="#191970" points="815.2967,-76.2136 804.7258,-75.5011 812.5452,-82.6502 815.2967,-76.2136"/>
</g>
<!-- Node31&#45;&gt;Node24 -->
<g id="edge44" class="edge">
<title>Node31&#45;&gt;Node24</title>
<path fill="none" stroke="#191970" d="M903.7455,-112.2455C895.6352,-104.1352 883.9075,-92.4075 874.2919,-82.7919"/>
<polygon fill="#191970" stroke="#191970" points="876.6887,-80.2389 867.1427,-75.6427 871.7389,-85.1887 876.6887,-80.2389"/>
</g>
<!-- Node31&#45;&gt;Node26 -->
<g id="edge52" class="edge">
<title>Node31&#45;&gt;Node26</title>
<path fill="none" stroke="#191970" d="M949.7201,-117.2936C997.6837,-110.3724 1078.7525,-96.0627 1100.5,-76 1113.3751,-64.1223 1118.723,-44.5197 1120.9401,-29.7572"/>
<polygon fill="#191970" stroke="#191970" points="1124.4405,-29.9524 1122.0981,-19.6197 1117.4857,-29.1579 1124.4405,-29.9524"/>
</g>
<!-- Node32 -->
<g id="node33" class="node">
<title>Node32</title>
<g id="a_node33"><a xlink:title=" ">
<polygon fill="#ffffff" stroke="#bfbfbf" points="1148,-56.5 1148,-75.5 1201,-75.5 1201,-56.5 1148,-56.5"/>
<text text-anchor="middle" x="1174.5" y="-63.5" font-family="Helvetica,sans-Serif" font-size="10.00" fill="#000000">memory</text>
</a>
</g>
</g>
<!-- Node31&#45;&gt;Node32 -->
<g id="edge46" class="edge">
<title>Node31&#45;&gt;Node32</title>
<path fill="none" stroke="#191970" d="M949.7842,-114.7964C993.4621,-106.0366 1068.9934,-90.6063 1133.5,-76 1134.9292,-75.6764 1136.3853,-75.3423 1137.8554,-75.0014"/>
<polygon fill="#191970" stroke="#191970" points="1138.6984,-78.3986 1147.6237,-72.69 1137.0865,-71.5867 1138.6984,-78.3986"/>
</g>
<!-- Node33 -->
<g id="node34" class="node">
<title>Node33</title>
<g id="a_node34"><a xlink:title=" ">
<polygon fill="#ffffff" stroke="#bfbfbf" points="1219,-56.5 1219,-75.5 1278,-75.5 1278,-56.5 1219,-56.5"/>
<text text-anchor="middle" x="1248.5" y="-63.5" font-family="Helvetica,sans-Serif" font-size="10.00" fill="#000000">functional</text>
</a>
</g>
</g>
<!-- Node31&#45;&gt;Node33 -->
<g id="edge48" class="edge">
<title>Node31&#45;&gt;Node33</title>
<path fill="none" stroke="#191970" d="M949.8357,-117.6068C1004.221,-110.7629 1110.1668,-96.3955 1208.865,-76.1923"/>
<polygon fill="#191970" stroke="#191970" points="1209.6167,-79.611 1218.6985,-74.1547 1208.1964,-72.7566 1209.6167,-79.611"/>
</g>
<!-- Node34 -->
<g id="node35" class="node">
<title>Node34</title>
<g id="a_node35"><a xlink:href="../../d4/d86/acc_8hpp.html" target="_top" xlink:title="Interface to accelerators API.">
<polygon fill="#ffffff" stroke="#000000" points="1401.5,-56.5 1401.5,-75.5 1477.5,-75.5 1477.5,-56.5 1401.5,-56.5"/>
<text text-anchor="middle" x="1439.5" y="-63.5" font-family="Helvetica,sans-Serif" font-size="10.00" fill="#000000">GPU/acc.hpp</text>
</a>
</g>
</g>
<!-- Node31&#45;&gt;Node34 -->
<g id="edge53" class="edge">
<title>Node31&#45;&gt;Node34</title>
<path fill="none" stroke="#191970" d="M949.8468,-117.4897C964.3531,-115.7239 981.2111,-113.7147 996.5,-112 1139.7186,-95.9377 1309.2132,-78.881 1390.8083,-70.7918"/>
<polygon fill="#191970" stroke="#191970" points="1391.6502,-74.2257 1401.2567,-69.7574 1390.9605,-67.2597 1391.6502,-74.2257"/>
</g>
<!-- Node34&#45;&gt;Node4 -->
<g id="edge64" class="edge">
<title>Node34&#45;&gt;Node4</title>
<path fill="none" stroke="#191970" d="M1401.4144,-63.1618C1370.6821,-60.9518 1326.3269,-57.943 1287.5,-56 1057.7281,-44.5019 484.8526,-55.9862 239.7219,-19.7677"/>
<polygon fill="#191970" stroke="#191970" points="240.134,-16.2901 229.719,-18.2339 239.073,-23.2092 240.134,-16.2901"/>
</g>
<!-- Node34&#45;&gt;Node5 -->
<g id="edge65" class="edge">
<title>Node34&#45;&gt;Node5</title>
<path fill="none" stroke="#191970" d="M1401.16,-63.4156C1276.3326,-54.9753 885.6589,-28.3467 809.9875,-19.5877"/>
<polygon fill="#191970" stroke="#191970" points="810.2708,-16.0941 799.8896,-18.2111 809.3252,-23.0299 810.2708,-16.0941"/>
</g>
<!-- Node34&#45;&gt;Node6 -->
<g id="edge66" class="edge">
<title>Node34&#45;&gt;Node6</title>
<path fill="none" stroke="#191970" d="M1401.4038,-63.3556C1370.6655,-61.2552 1326.3075,-58.2992 1287.5,-56 987.3148,-38.2151 905.1948,-74.3331 605.5135,-19.7252"/>
<polygon fill="#191970" stroke="#191970" points="606.1418,-16.2821 595.6734,-17.914 604.8746,-23.1664 606.1418,-16.2821"/>
</g>
<!-- Node34&#45;&gt;Node29 -->
<g id="edge62" class="edge">
<title>Node34&#45;&gt;Node29</title>
<path fill="none" stroke="#191970" d="M1401.4356,-58.4255C1358.886,-49.7996 1288.0097,-34.9558 1227.5,-20 1227.4016,-19.9757 1227.3031,-19.9513 1227.2044,-19.9268"/>
<polygon fill="#191970" stroke="#191970" points="1228.3583,-16.6102 1217.8003,-17.4929 1226.6043,-23.3869 1228.3583,-16.6102"/>
</g>
<!-- Node35 -->
<g id="node36" class="node">
<title>Node35</title>
<g id="a_node36"><a xlink:title=" ">
<polygon fill="#ffffff" stroke="#bfbfbf" points="1236,-.5 1236,-19.5 1321,-19.5 1321,-.5 1236,-.5"/>
<text text-anchor="middle" x="1278.5" y="-7.5" font-family="Helvetica,sans-Serif" font-size="10.00" fill="#000000">cuda_runtime.h</text>
</a>
</g>
</g>
<!-- Node34&#45;&gt;Node35 -->
<g id="edge54" class="edge">
<title>Node34&#45;&gt;Node35</title>
<path fill="none" stroke="#191970" d="M1411.8231,-56.3733C1385.1672,-47.1016 1344.6762,-33.0178 1315.3116,-22.804"/>
<polygon fill="#191970" stroke="#191970" points="1316.4105,-19.4807 1305.8157,-19.5011 1314.1109,-26.0921 1316.4105,-19.4807"/>
</g>
<!-- Node36 -->
<g id="node37" class="node">
<title>Node36</title>
<g id="a_node37"><a xlink:title=" ">
<polygon fill="#ffffff" stroke="#bfbfbf" points="1339,-.5 1339,-19.5 1386,-19.5 1386,-.5 1339,-.5"/>
<text text-anchor="middle" x="1362.5" y="-7.5" font-family="Helvetica,sans-Serif" font-size="10.00" fill="#000000">cuda.h</text>
</a>
</g>
</g>
<!-- Node34&#45;&gt;Node36 -->
<g id="edge55" class="edge">
<title>Node34&#45;&gt;Node36</title>
<path fill="none" stroke="#191970" d="M1426.0876,-56.2455C1414.4943,-47.814 1397.5252,-35.4729 1384.0322,-25.6598"/>
<polygon fill="#191970" stroke="#191970" points="1385.9047,-22.6938 1375.7587,-19.6427 1381.7874,-28.355 1385.9047,-22.6938"/>
</g>
<!-- Node37 -->
<g id="node38" class="node">
<title>Node37</title>
<g id="a_node38"><a xlink:title=" ">
<polygon fill="#ffffff" stroke="#bfbfbf" points="1404.5,-.5 1404.5,-19.5 1474.5,-19.5 1474.5,-.5 1404.5,-.5"/>
<text text-anchor="middle" x="1439.5" y="-7.5" font-family="Helvetica,sans-Serif" font-size="10.00" fill="#000000">cublas_v2.h</text>
</a>
</g>
</g>
<!-- Node34&#45;&gt;Node37 -->
<g id="edge56" class="edge">
<title>Node34&#45;&gt;Node37</title>
<path fill="none" stroke="#191970" d="M1439.5,-56.2455C1439.5,-48.9382 1439.5,-38.6944 1439.5,-29.7046"/>
<polygon fill="#191970" stroke="#191970" points="1443.0001,-29.6426 1439.5,-19.6427 1436.0001,-29.6427 1443.0001,-29.6426"/>
</g>
<!-- Node38 -->
<g id="node39" class="node">
<title>Node38</title>
<g id="a_node39"><a xlink:title=" ">
<polygon fill="#ffffff" stroke="#bfbfbf" points="1493,-.5 1493,-19.5 1556,-19.5 1556,-.5 1493,-.5"/>
<text text-anchor="middle" x="1524.5" y="-7.5" font-family="Helvetica,sans-Serif" font-size="10.00" fill="#000000">cublasXt.h</text>
</a>
</g>
</g>
<!-- Node34&#45;&gt;Node38 -->
<g id="edge57" class="edge">
<title>Node34&#45;&gt;Node38</title>
<path fill="none" stroke="#191970" d="M1454.3059,-56.2455C1467.2256,-47.7337 1486.1931,-35.2375 1501.1552,-25.3801"/>
<polygon fill="#191970" stroke="#191970" points="1503.4387,-28.067 1509.8638,-19.6427 1499.5876,-22.2216 1503.4387,-28.067"/>
</g>
<!-- Node39 -->
<g id="node40" class="node">
<title>Node39</title>
<g id="a_node40"><a xlink:title=" ">
<polygon fill="#ffffff" stroke="#bfbfbf" points="1574.5,-.5 1574.5,-19.5 1676.5,-19.5 1676.5,-.5 1574.5,-.5"/>
<text text-anchor="middle" x="1625.5" y="-7.5" font-family="Helvetica,sans-Serif" font-size="10.00" fill="#000000">cuda_profiler_api.h</text>
</a>
</g>
</g>
<!-- Node34&#45;&gt;Node39 -->
<g id="edge58" class="edge">
<title>Node34&#45;&gt;Node39</title>
<path fill="none" stroke="#191970" d="M1471.4745,-56.3733C1502.6713,-46.9807 1550.271,-32.6496 1584.2932,-22.4064"/>
<polygon fill="#191970" stroke="#191970" points="1585.3763,-25.7355 1593.9427,-19.5011 1583.3582,-19.0327 1585.3763,-25.7355"/>
</g>
<!-- Node40 -->
<g id="node41" class="node">
<title>Node40</title>
<g id="a_node41"><a xlink:title=" ">
<polygon fill="#ffffff" stroke="#bfbfbf" points="1694.5,-.5 1694.5,-19.5 1768.5,-19.5 1768.5,-.5 1694.5,-.5"/>
<text text-anchor="middle" x="1731.5" y="-7.5" font-family="Helvetica,sans-Serif" font-size="10.00" fill="#000000">nvToolsExt.h</text>
</a>
</g>
</g>
<!-- Node34&#45;&gt;Node40 -->
<g id="edge59" class="edge">
<title>Node34&#45;&gt;Node40</title>
<path fill="none" stroke="#191970" d="M1477.9166,-59.175C1524.3936,-50.8389 1605.2691,-36.0813 1684.2427,-20.2126"/>
<polygon fill="#191970" stroke="#191970" points="1685.2523,-23.5795 1694.3625,-18.1708 1683.8678,-16.7178 1685.2523,-23.5795"/>
</g>
<!-- Node41 -->
<g id="node42" class="node">
<title>Node41</title>
<g id="a_node42"><a xlink:title=" ">
<polygon fill="#ffffff" stroke="#bfbfbf" points="1787,-.5 1787,-19.5 1862,-19.5 1862,-.5 1787,-.5"/>
<text text-anchor="middle" x="1824.5" y="-7.5" font-family="Helvetica,sans-Serif" font-size="10.00" fill="#000000">cuComplex.h</text>
</a>
</g>
</g>
<!-- Node34&#45;&gt;Node41 -->
<g id="edge60" class="edge">
<title>Node34&#45;&gt;Node41</title>
<path fill="none" stroke="#191970" d="M1477.6594,-61.7446C1538.6437,-54.7397 1662.0283,-39.7327 1776.824,-20.0075"/>
<polygon fill="#191970" stroke="#191970" points="1777.583,-23.4282 1786.8378,-18.2708 1776.3868,-16.5311 1777.583,-23.4282"/>
</g>
<!-- Node42 -->
<g id="node43" class="node">
<title>Node42</title>
<g id="a_node43"><a xlink:title=" ">
<polygon fill="#ffffff" stroke="#bfbfbf" points="1880.5,-.5 1880.5,-19.5 1942.5,-19.5 1942.5,-.5 1880.5,-.5"/>
<text text-anchor="middle" x="1911.5" y="-7.5" font-family="Helvetica,sans-Serif" font-size="10.00" fill="#000000">execinfo.h</text>
</a>
</g>
</g>
<!-- Node34&#45;&gt;Node42 -->
<g id="edge61" class="edge">
<title>Node34&#45;&gt;Node42</title>
<path fill="none" stroke="#191970" d="M1477.5989,-63.7278C1551.5535,-58.9332 1719.8064,-46.1504 1870.2624,-20.0167"/>
<polygon fill="#191970" stroke="#191970" points="1870.9045,-23.4576 1880.1457,-18.276 1869.6902,-16.5637 1870.9045,-23.4576"/>
</g>
<!-- Node43 -->
<g id="node44" class="node">
<title>Node43</title>
<g id="a_node44"><a xlink:title=" ">
<polygon fill="#ffffff" stroke="#bfbfbf" points="1961,-.5 1961,-19.5 2012,-19.5 2012,-.5 1961,-.5"/>
<text text-anchor="middle" x="1986.5" y="-7.5" font-family="Helvetica,sans-Serif" font-size="10.00" fill="#000000">signal.h</text>
</a>
</g>
</g>
<!-- Node34&#45;&gt;Node43 -->
<g id="edge63" class="edge">
<title>Node34&#45;&gt;Node43</title>
<path fill="none" stroke="#191970" d="M1477.7309,-65.0262C1561.7493,-62.3606 1768.7958,-52.9175 1950.6263,-19.8288"/>
<polygon fill="#191970" stroke="#191970" points="1951.439,-23.2379 1960.6361,-17.9783 1950.1665,-16.3545 1951.439,-23.2379"/>
</g>
<!-- Node44 -->
<g id="node45" class="node">
<title>Node44</title>
<g id="a_node45"><a xlink:title=" ">
<polygon fill="#ffffff" stroke="#bfbfbf" points="2030.5,-.5 2030.5,-19.5 2076.5,-19.5 2076.5,-.5 2030.5,-.5"/>
<text text-anchor="middle" x="2053.5" y="-7.5" font-family="Helvetica,sans-Serif" font-size="10.00" fill="#000000">stdio.h</text>
</a>
</g>
</g>
<!-- Node34&#45;&gt;Node44 -->
<g id="edge67" class="edge">
<title>Node34&#45;&gt;Node44</title>
<path fill="none" stroke="#191970" d="M1477.7937,-64.0958C1586.8136,-58.5019 1898.3058,-41.2772 2020.0814,-19.8189"/>
<polygon fill="#191970" stroke="#191970" points="2021.0437,-23.2001 2030.236,-17.932 2019.7648,-16.3179 2021.0437,-23.2001"/>
</g>
</g>
</svg>
