<?xml version="1.0" encoding="UTF-8" standalone="no"?>
<!DOCTYPE svg PUBLIC "-//W3C//DTD SVG 1.1//EN"
 "http://www.w3.org/Graphics/SVG/1.1/DTD/svg11.dtd">
<!-- Generated by graphviz version 2.40.1 (20161225.0304)
 -->
<!-- Title: simulation_parameters.hpp Pages: 1 -->
<svg width="1692pt" height="196pt"
 viewBox="0.00 0.00 1691.50 196.00" xmlns="http://www.w3.org/2000/svg" xmlns:xlink="http://www.w3.org/1999/xlink">
<g id="graph0" class="graph" transform="scale(1 1) rotate(0) translate(4 192)">
<title>simulation_parameters.hpp</title>
<polygon fill="#ffffff" stroke="transparent" points="-4,4 -4,-192 1687.5,-192 1687.5,4 -4,4"/>
<!-- Node1 -->
<g id="node1" class="node">
<title>Node1</title>
<g id="a_node1"><a xlink:title="Contains definition and implementation of sirius::Simulation_parameters class.">
<polygon fill="#bfbfbf" stroke="#000000" points="484,-168.5 484,-187.5 621,-187.5 621,-168.5 484,-168.5"/>
<text text-anchor="middle" x="552.5" y="-175.5" font-family="Helvetica,sans-Serif" font-size="10.00" fill="#000000">simulation_parameters.hpp</text>
</a>
</g>
</g>
<!-- Node2 -->
<g id="node2" class="node">
<title>Node2</title>
<g id="a_node2"><a xlink:title=" ">
<polygon fill="#ffffff" stroke="#bfbfbf" points="135,-112.5 135,-131.5 176,-131.5 176,-112.5 135,-112.5"/>
<text text-anchor="middle" x="155.5" y="-119.5" font-family="Helvetica,sans-Serif" font-size="10.00" fill="#000000">mpi.h</text>
</a>
</g>
</g>
<!-- Node1&#45;&gt;Node2 -->
<g id="edge1" class="edge">
<title>Node1&#45;&gt;Node2</title>
<path fill="none" stroke="#191970" d="M483.8235,-173.4531C411.7356,-167.7684 295.121,-155.9935 185.8752,-131.6649"/>
<polygon fill="#191970" stroke="#191970" points="186.5317,-128.225 176.0053,-129.4277 184.9841,-135.0518 186.5317,-128.225"/>
</g>
<!-- Node3 -->
<g id="node3" class="node">
<title>Node3</title>
<g id="a_node3"><a xlink:href="../../de/df7/typedefs_8hpp.html" target="_top" xlink:title="Contains typedefs, enums and simple descriptors.">
<polygon fill="#ffffff" stroke="#000000" points="194.5,-112.5 194.5,-131.5 268.5,-131.5 268.5,-112.5 194.5,-112.5"/>
<text text-anchor="middle" x="231.5" y="-119.5" font-family="Helvetica,sans-Serif" font-size="10.00" fill="#000000">typedefs.hpp</text>
</a>
</g>
</g>
<!-- Node1&#45;&gt;Node3 -->
<g id="edge2" class="edge">
<title>Node1&#45;&gt;Node3</title>
<path fill="none" stroke="#191970" d="M497.6829,-168.4369C436.026,-157.6805 336.9119,-140.3896 278.6072,-130.2181"/>
<polygon fill="#191970" stroke="#191970" points="279.0161,-126.7366 268.5634,-128.4659 277.8131,-133.6325 279.0161,-126.7366"/>
</g>
<!-- Node12 -->
<g id="node12" class="node">
<title>Node12</title>
<g id="a_node12"><a xlink:href="../../d2/de7/cmd__args_8hpp.html" target="_top" xlink:title="Contains definition and implementation of cmd_args class.">
<polygon fill="#ffffff" stroke="#000000" points="388.5,-112.5 388.5,-131.5 488.5,-131.5 488.5,-112.5 388.5,-112.5"/>
<text text-anchor="middle" x="438.5" y="-119.5" font-family="Helvetica,sans-Serif" font-size="10.00" fill="#000000">utils/cmd_args.hpp</text>
</a>
</g>
</g>
<!-- Node1&#45;&gt;Node12 -->
<g id="edge11" class="edge">
<title>Node1&#45;&gt;Node12</title>
<path fill="none" stroke="#191970" d="M532.9027,-168.3733C514.7669,-159.4644 487.5865,-146.1127 467.0413,-136.0203"/>
<polygon fill="#191970" stroke="#191970" points="468.3603,-132.7688 457.8416,-131.5011 465.2739,-139.0517 468.3603,-132.7688"/>
</g>
<!-- Node16 -->
<g id="node16" class="node">
<title>Node16</title>
<g id="a_node16"><a xlink:href="../../df/d93/utils_8hpp.html" target="_top" xlink:title="A collection of utility functions.">
<polygon fill="#ffffff" stroke="#000000" points="1098.5,-112.5 1098.5,-131.5 1172.5,-131.5 1172.5,-112.5 1098.5,-112.5"/>
<text text-anchor="middle" x="1135.5" y="-119.5" font-family="Helvetica,sans-Serif" font-size="10.00" fill="#000000">utils/utils.hpp</text>
</a>
</g>
</g>
<!-- Node1&#45;&gt;Node16 -->
<g id="edge18" class="edge">
<title>Node1&#45;&gt;Node16</title>
<path fill="none" stroke="#191970" d="M621.0919,-171.4114C740.9858,-159.895 985.6706,-136.3918 1088.4152,-126.5227"/>
<polygon fill="#191970" stroke="#191970" points="1088.8684,-129.9954 1098.4879,-125.5552 1088.1991,-123.0275 1088.8684,-129.9954"/>
</g>
<!-- Node24 -->
<g id="node24" class="node">
<title>Node24</title>
<g id="a_node24"><a xlink:href="../../da/d3e/memory_8hpp.html" target="_top" xlink:title="Memory management functions and classes.">
<polygon fill="#ffffff" stroke="#000000" points="752.5,-112.5 752.5,-131.5 824.5,-131.5 824.5,-112.5 752.5,-112.5"/>
<text text-anchor="middle" x="788.5" y="-119.5" font-family="Helvetica,sans-Serif" font-size="10.00" fill="#000000">memory.hpp</text>
</a>
</g>
</g>
<!-- Node1&#45;&gt;Node24 -->
<g id="edge31" class="edge">
<title>Node1&#45;&gt;Node24</title>
<path fill="none" stroke="#191970" d="M592.8017,-168.4369C634.3278,-158.5832 698.9643,-143.2458 742.4746,-132.9213"/>
<polygon fill="#191970" stroke="#191970" points="743.3151,-136.3191 752.2369,-130.6048 741.6989,-129.5082 743.3151,-136.3191"/>
</g>
<!-- Node40 -->
<g id="node40" class="node">
<title>Node40</title>
<g id="a_node40"><a xlink:href="../../d5/df3/smearing_8hpp.html" target="_top" xlink:title="Smearing functions used in finding the band occupancies.">
<polygon fill="#ffffff" stroke="#000000" points="507,-112.5 507,-131.5 598,-131.5 598,-112.5 507,-112.5"/>
<text text-anchor="middle" x="552.5" y="-119.5" font-family="Helvetica,sans-Serif" font-size="10.00" fill="#000000">dft/smearing.hpp</text>
</a>
</g>
</g>
<!-- Node1&#45;&gt;Node40 -->
<g id="edge57" class="edge">
<title>Node1&#45;&gt;Node40</title>
<path fill="none" stroke="#191970" d="M552.5,-168.2455C552.5,-160.9382 552.5,-150.6944 552.5,-141.7046"/>
<polygon fill="#191970" stroke="#191970" points="556.0001,-141.6426 552.5,-131.6427 549.0001,-141.6427 556.0001,-141.6426"/>
</g>
<!-- Node42 -->
<g id="node42" class="node">
<title>Node42</title>
<g id="a_node42"><a xlink:href="../../d8/dfd/config_8hpp_source.html" target="_top" xlink:title=" ">
<polygon fill="#ffffff" stroke="#000000" points="1190.5,-112.5 1190.5,-131.5 1288.5,-131.5 1288.5,-112.5 1190.5,-112.5"/>
<text text-anchor="middle" x="1239.5" y="-119.5" font-family="Helvetica,sans-Serif" font-size="10.00" fill="#000000">context/config.hpp</text>
</a>
</g>
</g>
<!-- Node1&#45;&gt;Node42 -->
<g id="edge64" class="edge">
<title>Node1&#45;&gt;Node42</title>
<path fill="none" stroke="#191970" d="M621.1242,-175.1799C735.1566,-170.0098 971.0199,-157.2644 1180.2451,-132.0498"/>
<polygon fill="#191970" stroke="#191970" points="1180.6837,-135.5223 1190.1875,-130.8396 1179.8379,-128.5736 1180.6837,-135.5223"/>
</g>
<!-- Node4 -->
<g id="node4" class="node">
<title>Node4</title>
<g id="a_node4"><a xlink:title=" ">
<polygon fill="#ffffff" stroke="#bfbfbf" points="0,-56.5 0,-75.5 45,-75.5 45,-56.5 0,-56.5"/>
<text text-anchor="middle" x="22.5" y="-63.5" font-family="Helvetica,sans-Serif" font-size="10.00" fill="#000000">cstdlib</text>
</a>
</g>
</g>
<!-- Node3&#45;&gt;Node4 -->
<g id="edge3" class="edge">
<title>Node3&#45;&gt;Node4</title>
<path fill="none" stroke="#191970" d="M195.5849,-112.4243C160.7835,-103.1386 106.5146,-88.6401 59.5,-76 58.0542,-75.6113 56.5767,-75.2136 55.0843,-74.8117"/>
<polygon fill="#191970" stroke="#191970" points="55.7621,-71.3695 45.1956,-72.1441 53.9389,-78.1279 55.7621,-71.3695"/>
</g>
<!-- Node5 -->
<g id="node5" class="node">
<title>Node5</title>
<g id="a_node5"><a xlink:title=" ">
<polygon fill="#ffffff" stroke="#bfbfbf" points="307.5,-.5 307.5,-19.5 359.5,-19.5 359.5,-.5 307.5,-.5"/>
<text text-anchor="middle" x="333.5" y="-7.5" font-family="Helvetica,sans-Serif" font-size="10.00" fill="#000000">assert.h</text>
</a>
</g>
</g>
<!-- Node3&#45;&gt;Node5 -->
<g id="edge4" class="edge">
<title>Node3&#45;&gt;Node5</title>
<path fill="none" stroke="#191970" d="M195.7338,-112.4981C156.6604,-101.7602 98.7517,-84.6541 92.5,-76 87.2948,-68.7946 86.8344,-62.8493 92.5,-56 118.0479,-25.1145 236.2822,-14.7794 297.1173,-11.4714"/>
<polygon fill="#191970" stroke="#191970" points="297.6121,-14.9509 307.4219,-10.9487 297.2574,-7.9599 297.6121,-14.9509"/>
</g>
<!-- Node6 -->
<g id="node6" class="node">
<title>Node6</title>
<g id="a_node6"><a xlink:title=" ">
<polygon fill="#ffffff" stroke="#bfbfbf" points="700.5,-.5 700.5,-19.5 754.5,-19.5 754.5,-.5 700.5,-.5"/>
<text text-anchor="middle" x="727.5" y="-7.5" font-family="Helvetica,sans-Serif" font-size="10.00" fill="#000000">complex</text>
</a>
</g>
</g>
<!-- Node3&#45;&gt;Node6 -->
<g id="edge5" class="edge">
<title>Node3&#45;&gt;Node6</title>
<path fill="none" stroke="#191970" d="M226.7535,-112.0432C220.6943,-97.7018 212.5588,-71.2799 226.5,-56 242.1302,-38.869 576.6982,-18.4995 690.2111,-12.0578"/>
<polygon fill="#191970" stroke="#191970" points="690.7009,-15.5358 700.488,-11.4785 690.3069,-8.5469 690.7009,-15.5358"/>
</g>
<!-- Node7 -->
<g id="node7" class="node">
<title>Node7</title>
<g id="a_node7"><a xlink:title=" ">
<polygon fill="#ffffff" stroke="#bfbfbf" points="459.5,-.5 459.5,-19.5 503.5,-19.5 503.5,-.5 459.5,-.5"/>
<text text-anchor="middle" x="481.5" y="-7.5" font-family="Helvetica,sans-Serif" font-size="10.00" fill="#000000">vector</text>
</a>
</g>
</g>
<!-- Node3&#45;&gt;Node7 -->
<g id="edge6" class="edge">
<title>Node3&#45;&gt;Node7</title>
<path fill="none" stroke="#191970" d="M218.813,-112.3393C202.5645,-98.8198 178.227,-73.906 193.5,-56 209.9476,-36.7168 376.8385,-19.4586 448.7834,-12.8534"/>
<polygon fill="#191970" stroke="#191970" points="449.4356,-16.3088 459.0794,-11.9216 448.8046,-9.3373 449.4356,-16.3088"/>
</g>
<!-- Node8 -->
<g id="node8" class="node">
<title>Node8</title>
<g id="a_node8"><a xlink:title=" ">
<polygon fill="#ffffff" stroke="#bfbfbf" points="236,-56.5 236,-75.5 275,-75.5 275,-56.5 236,-56.5"/>
<text text-anchor="middle" x="255.5" y="-63.5" font-family="Helvetica,sans-Serif" font-size="10.00" fill="#000000">array</text>
</a>
</g>
</g>
<!-- Node3&#45;&gt;Node8 -->
<g id="edge7" class="edge">
<title>Node3&#45;&gt;Node8</title>
<path fill="none" stroke="#191970" d="M235.6805,-112.2455C238.881,-104.7776 243.396,-94.2427 247.3084,-85.1137"/>
<polygon fill="#191970" stroke="#191970" points="250.6452,-86.2129 251.3674,-75.6427 244.2112,-83.4554 250.6452,-86.2129"/>
</g>
<!-- Node9 -->
<g id="node9" class="node">
<title>Node9</title>
<g id="a_node9"><a xlink:title=" ">
<polygon fill="#ffffff" stroke="#bfbfbf" points="102,-56.5 102,-75.5 141,-75.5 141,-56.5 102,-56.5"/>
<text text-anchor="middle" x="121.5" y="-63.5" font-family="Helvetica,sans-Serif" font-size="10.00" fill="#000000">limits</text>
</a>
</g>
</g>
<!-- Node3&#45;&gt;Node9 -->
<g id="edge8" class="edge">
<title>Node3&#45;&gt;Node9</title>
<path fill="none" stroke="#191970" d="M212.3395,-112.2455C194.9889,-103.4125 169.2099,-90.2887 149.5417,-80.2758"/>
<polygon fill="#191970" stroke="#191970" points="150.9405,-77.0605 140.441,-75.6427 147.7647,-83.2986 150.9405,-77.0605"/>
</g>
<!-- Node10 -->
<g id="node10" class="node">
<title>Node10</title>
<g id="a_node10"><a xlink:title=" ">
<polygon fill="#ffffff" stroke="#bfbfbf" points="331.5,-56.5 331.5,-75.5 367.5,-75.5 367.5,-56.5 331.5,-56.5"/>
<text text-anchor="middle" x="349.5" y="-63.5" font-family="Helvetica,sans-Serif" font-size="10.00" fill="#000000">map</text>
</a>
</g>
</g>
<!-- Node3&#45;&gt;Node10 -->
<g id="edge9" class="edge">
<title>Node3&#45;&gt;Node10</title>
<path fill="none" stroke="#191970" d="M251.7849,-112.3733C271.2135,-103.1529 300.67,-89.1735 322.1621,-78.9739"/>
<polygon fill="#191970" stroke="#191970" points="323.878,-82.0338 331.4117,-74.5843 320.8768,-75.7098 323.878,-82.0338"/>
</g>
<!-- Node11 -->
<g id="node11" class="node">
<title>Node11</title>
<g id="a_node11"><a xlink:title=" ">
<polygon fill="#ffffff" stroke="#bfbfbf" points="385.5,-56.5 385.5,-75.5 443.5,-75.5 443.5,-56.5 385.5,-56.5"/>
<text text-anchor="middle" x="414.5" y="-63.5" font-family="Helvetica,sans-Serif" font-size="10.00" fill="#000000">algorithm</text>
</a>
</g>
</g>
<!-- Node3&#45;&gt;Node11 -->
<g id="edge10" class="edge">
<title>Node3&#45;&gt;Node11</title>
<path fill="none" stroke="#191970" d="M262.9588,-112.3733C294.0763,-102.851 341.7811,-88.2528 375.3371,-77.9843"/>
<polygon fill="#191970" stroke="#191970" points="376.7246,-81.22 385.2628,-74.9469 374.6763,-74.5263 376.7246,-81.22"/>
</g>
<!-- Node12&#45;&gt;Node7 -->
<g id="edge12" class="edge">
<title>Node12&#45;&gt;Node7</title>
<path fill="none" stroke="#191970" d="M388.1102,-112.5966C347.694,-102.7303 300.9899,-84.6153 322.5,-56 337.7412,-35.7243 407.575,-21.5375 449.4586,-14.684"/>
<polygon fill="#191970" stroke="#191970" points="450.1254,-18.1221 459.4545,-13.1003 449.03,-11.2083 450.1254,-18.1221"/>
</g>
<!-- Node12&#45;&gt;Node10 -->
<g id="edge14" class="edge">
<title>Node12&#45;&gt;Node10</title>
<path fill="none" stroke="#191970" d="M422.9974,-112.2455C409.342,-103.6534 389.2343,-91.0014 373.5011,-81.1018"/>
<polygon fill="#191970" stroke="#191970" points="375.1529,-78.006 364.825,-75.6427 371.4249,-83.9307 375.1529,-78.006"/>
</g>
<!-- Node12&#45;&gt;Node11 -->
<g id="edge16" class="edge">
<title>Node12&#45;&gt;Node11</title>
<path fill="none" stroke="#191970" d="M434.3195,-112.2455C431.119,-104.7776 426.604,-94.2427 422.6916,-85.1137"/>
<polygon fill="#191970" stroke="#191970" points="425.7888,-83.4554 418.6326,-75.6427 419.3548,-86.2129 425.7888,-83.4554"/>
</g>
<!-- Node13 -->
<g id="node13" class="node">
<title>Node13</title>
<g id="a_node13"><a xlink:title=" ">
<polygon fill="#ffffff" stroke="#bfbfbf" points="532,-56.5 532,-75.5 573,-75.5 573,-56.5 532,-56.5"/>
<text text-anchor="middle" x="552.5" y="-63.5" font-family="Helvetica,sans-Serif" font-size="10.00" fill="#000000">string</text>
</a>
</g>
</g>
<!-- Node12&#45;&gt;Node13 -->
<g id="edge13" class="edge">
<title>Node12&#45;&gt;Node13</title>
<path fill="none" stroke="#191970" d="M458.0973,-112.3733C476.2331,-103.4644 503.4135,-90.1127 523.9587,-80.0203"/>
<polygon fill="#191970" stroke="#191970" points="525.7261,-83.0517 533.1584,-75.5011 522.6397,-76.7688 525.7261,-83.0517"/>
</g>
<!-- Node14 -->
<g id="node14" class="node">
<title>Node14</title>
<g id="a_node14"><a xlink:title=" ">
<polygon fill="#ffffff" stroke="#bfbfbf" points="461.5,-56.5 461.5,-75.5 513.5,-75.5 513.5,-56.5 461.5,-56.5"/>
<text text-anchor="middle" x="487.5" y="-63.5" font-family="Helvetica,sans-Serif" font-size="10.00" fill="#000000">sstream</text>
</a>
</g>
</g>
<!-- Node12&#45;&gt;Node14 -->
<g id="edge15" class="edge">
<title>Node12&#45;&gt;Node14</title>
<path fill="none" stroke="#191970" d="M447.0351,-112.2455C453.9912,-104.2958 463.9883,-92.8706 472.3051,-83.3656"/>
<polygon fill="#191970" stroke="#191970" points="475.1116,-85.4732 479.0627,-75.6427 469.8436,-80.8637 475.1116,-85.4732"/>
</g>
<!-- Node15 -->
<g id="node15" class="node">
<title>Node15</title>
<g id="a_node15"><a xlink:title=" ">
<polygon fill="#ffffff" stroke="#bfbfbf" points="966,-56.5 966,-75.5 1021,-75.5 1021,-56.5 966,-56.5"/>
<text text-anchor="middle" x="993.5" y="-63.5" font-family="Helvetica,sans-Serif" font-size="10.00" fill="#000000">iostream</text>
</a>
</g>
</g>
<!-- Node12&#45;&gt;Node15 -->
<g id="edge17" class="edge">
<title>Node12&#45;&gt;Node15</title>
<path fill="none" stroke="#191970" d="M488.6701,-113.2067C491.6541,-112.7739 494.6143,-112.3673 497.5,-112 683.791,-88.2888 731.8191,-96.4155 918.5,-76 930.6197,-74.6746 943.8095,-72.9958 955.7005,-71.3941"/>
<polygon fill="#191970" stroke="#191970" points="956.3236,-74.8415 965.7563,-70.0172 955.3739,-67.9063 956.3236,-74.8415"/>
</g>
<!-- Node16&#45;&gt;Node6 -->
<g id="edge28" class="edge">
<title>Node16&#45;&gt;Node6</title>
<path fill="none" stroke="#191970" d="M1138.1539,-112.3918C1141.4814,-98.0023 1145.1236,-70.9514 1130.5,-56 1075.2149,.5243 859.9574,-32.4973 764.4578,-19.6381"/>
<polygon fill="#191970" stroke="#191970" points="764.9371,-16.1703 754.5091,-18.0432 763.829,-23.0821 764.9371,-16.1703"/>
</g>
<!-- Node16&#45;&gt;Node7 -->
<g id="edge23" class="edge">
<title>Node16&#45;&gt;Node7</title>
<path fill="none" stroke="#191970" d="M1133.0601,-112.3483C1128.7145,-97.3817 1118.0932,-68.953 1097.5,-56 1072.6065,-40.3422 638.0113,-17.7396 514.1821,-11.5934"/>
<polygon fill="#191970" stroke="#191970" points="513.9997,-8.0802 503.8392,-11.0825 513.6543,-15.0717 513.9997,-8.0802"/>
</g>
<!-- Node16&#45;&gt;Node13 -->
<g id="edge21" class="edge">
<title>Node16&#45;&gt;Node13</title>
<path fill="none" stroke="#191970" d="M1098.2563,-120.1199C993.8194,-114.6615 698.7661,-97.9178 583.1973,-75.8552"/>
<polygon fill="#191970" stroke="#191970" points="583.7289,-72.392 573.2339,-73.8432 582.3432,-79.2535 583.7289,-72.392"/>
</g>
<!-- Node16&#45;&gt;Node14 -->
<g id="edge25" class="edge">
<title>Node16&#45;&gt;Node14</title>
<path fill="none" stroke="#191970" d="M1098.492,-120.2126C986.661,-114.6595 652.5216,-96.9148 523.741,-75.8361"/>
<polygon fill="#191970" stroke="#191970" points="524.1872,-72.3615 513.7387,-74.1164 523.0011,-79.2603 524.1872,-72.3615"/>
</g>
<!-- Node16&#45;&gt;Node15 -->
<g id="edge22" class="edge">
<title>Node16&#45;&gt;Node15</title>
<path fill="none" stroke="#191970" d="M1111.0893,-112.3733C1087.8858,-103.2226 1052.7962,-89.3844 1026.9858,-79.2057"/>
<polygon fill="#191970" stroke="#191970" points="1028.1789,-75.9139 1017.5921,-75.5011 1025.6108,-82.4258 1028.1789,-75.9139"/>
</g>
<!-- Node17 -->
<g id="node17" class="node">
<title>Node17</title>
<g id="a_node17"><a xlink:title=" ">
<polygon fill="#ffffff" stroke="#bfbfbf" points="1039,-56.5 1039,-75.5 1088,-75.5 1088,-56.5 1039,-56.5"/>
<text text-anchor="middle" x="1063.5" y="-63.5" font-family="Helvetica,sans-Serif" font-size="10.00" fill="#000000">cassert</text>
</a>
</g>
</g>
<!-- Node16&#45;&gt;Node17 -->
<g id="edge19" class="edge">
<title>Node16&#45;&gt;Node17</title>
<path fill="none" stroke="#191970" d="M1122.9586,-112.2455C1112.2213,-103.8943 1096.5527,-91.7076 1083.9953,-81.9408"/>
<polygon fill="#191970" stroke="#191970" points="1085.9401,-79.0194 1075.8977,-75.6427 1081.6425,-84.5449 1085.9401,-79.0194"/>
</g>
<!-- Node18 -->
<g id="node18" class="node">
<title>Node18</title>
<g id="a_node18"><a xlink:title=" ">
<polygon fill="#ffffff" stroke="#bfbfbf" points="1528.5,-56.5 1528.5,-75.5 1572.5,-75.5 1572.5,-56.5 1528.5,-56.5"/>
<text text-anchor="middle" x="1550.5" y="-63.5" font-family="Helvetica,sans-Serif" font-size="10.00" fill="#000000">cmath</text>
</a>
</g>
</g>
<!-- Node16&#45;&gt;Node18 -->
<g id="edge20" class="edge">
<title>Node16&#45;&gt;Node18</title>
<path fill="none" stroke="#191970" d="M1172.5925,-113.5818C1175.5988,-113.0078 1178.5958,-112.4713 1181.5,-112 1328.4402,-88.1549 1368.2974,-104.0143 1514.5,-76 1515.7542,-75.7597 1517.0285,-75.4972 1518.3122,-75.2173"/>
<polygon fill="#191970" stroke="#191970" points="1519.2804,-78.5838 1528.1654,-72.8126 1517.6207,-71.7834 1519.2804,-78.5838"/>
</g>
<!-- Node19 -->
<g id="node19" class="node">
<title>Node19</title>
<g id="a_node19"><a xlink:title=" ">
<polygon fill="#ffffff" stroke="#bfbfbf" points="1590.5,-56.5 1590.5,-75.5 1640.5,-75.5 1640.5,-56.5 1590.5,-56.5"/>
<text text-anchor="middle" x="1615.5" y="-63.5" font-family="Helvetica,sans-Serif" font-size="10.00" fill="#000000">fstream</text>
</a>
</g>
</g>
<!-- Node16&#45;&gt;Node19 -->
<g id="edge24" class="edge">
<title>Node16&#45;&gt;Node19</title>
<path fill="none" stroke="#191970" d="M1172.5833,-113.5241C1175.5917,-112.963 1178.5917,-112.4452 1181.5,-112 1354.7531,-85.4769 1404.362,-108.4801 1580.5298,-75.8432"/>
<polygon fill="#191970" stroke="#191970" points="1581.2058,-79.2775 1590.3837,-73.9845 1579.9083,-72.3987 1581.2058,-79.2775"/>
</g>
<!-- Node20 -->
<g id="node20" class="node">
<title>Node20</title>
<g id="a_node20"><a xlink:title=" ">
<polygon fill="#ffffff" stroke="#bfbfbf" points="1272.5,-56.5 1272.5,-75.5 1334.5,-75.5 1334.5,-56.5 1272.5,-56.5"/>
<text text-anchor="middle" x="1303.5" y="-63.5" font-family="Helvetica,sans-Serif" font-size="10.00" fill="#000000">sys/time.h</text>
</a>
</g>
</g>
<!-- Node16&#45;&gt;Node20 -->
<g id="edge26" class="edge">
<title>Node16&#45;&gt;Node20</title>
<path fill="none" stroke="#191970" d="M1164.3802,-112.3733C1192.3161,-103.0613 1234.8142,-88.8953 1265.4869,-78.671"/>
<polygon fill="#191970" stroke="#191970" points="1266.6166,-81.9839 1274.9966,-75.5011 1264.403,-75.3431 1266.6166,-81.9839"/>
</g>
<!-- Node21 -->
<g id="node21" class="node">
<title>Node21</title>
<g id="a_node21"><a xlink:title=" ">
<polygon fill="#ffffff" stroke="#bfbfbf" points="1631.5,-.5 1631.5,-19.5 1683.5,-19.5 1683.5,-.5 1631.5,-.5"/>
<text text-anchor="middle" x="1657.5" y="-7.5" font-family="Helvetica,sans-Serif" font-size="10.00" fill="#000000">unistd.h</text>
</a>
</g>
</g>
<!-- Node16&#45;&gt;Node21 -->
<g id="edge27" class="edge">
<title>Node16&#45;&gt;Node21</title>
<path fill="none" stroke="#191970" d="M1172.5987,-113.6195C1175.6036,-113.0371 1178.5987,-112.4883 1181.5,-112 1313.9273,-89.7115 1353.2857,-115.9359 1481.5,-76 1499.7218,-70.3243 1501.9445,-63.4869 1519.5,-56 1538.1058,-48.0652 1587.4598,-32.0496 1621.7967,-21.1729"/>
<polygon fill="#191970" stroke="#191970" points="1623,-24.4634 1631.4822,-18.1148 1620.8924,-17.7882 1623,-24.4634"/>
</g>
<!-- Node22 -->
<g id="node22" class="node">
<title>Node22</title>
<g id="a_node22"><a xlink:title=" ">
<polygon fill="#ffffff" stroke="#bfbfbf" points="1353,-56.5 1353,-75.5 1400,-75.5 1400,-56.5 1353,-56.5"/>
<text text-anchor="middle" x="1376.5" y="-63.5" font-family="Helvetica,sans-Serif" font-size="10.00" fill="#000000">chrono</text>
</a>
</g>
</g>
<!-- Node16&#45;&gt;Node22 -->
<g id="edge29" class="edge">
<title>Node16&#45;&gt;Node22</title>
<path fill="none" stroke="#191970" d="M1172.7139,-113.8474C1223.3147,-102.7523 1310.5056,-83.5966 1342.7904,-75.9042"/>
<polygon fill="#191970" stroke="#191970" points="1343.9058,-79.2337 1352.7687,-73.4285 1342.2201,-72.4396 1343.9058,-79.2337"/>
</g>
<!-- Node23 -->
<g id="node23" class="node">
<title>Node23</title>
<g id="a_node23"><a xlink:title=" ">
<polygon fill="#ffffff" stroke="#bfbfbf" points="1418.5,-56.5 1418.5,-75.5 1472.5,-75.5 1472.5,-56.5 1418.5,-56.5"/>
<text text-anchor="middle" x="1445.5" y="-63.5" font-family="Helvetica,sans-Serif" font-size="10.00" fill="#000000">json.hpp</text>
</a>
</g>
</g>
<!-- Node16&#45;&gt;Node23 -->
<g id="edge30" class="edge">
<title>Node16&#45;&gt;Node23</title>
<path fill="none" stroke="#191970" d="M1172.6199,-113.7388C1175.6201,-113.1296 1178.6082,-112.5422 1181.5,-112 1279.1809,-93.6865 1307.4922,-97.4954 1408.4538,-76.0275"/>
<polygon fill="#191970" stroke="#191970" points="1409.419,-79.3999 1418.4559,-73.8695 1407.9426,-72.5574 1409.419,-79.3999"/>
</g>
<!-- Node24&#45;&gt;Node6 -->
<g id="edge40" class="edge">
<title>Node24&#45;&gt;Node6</title>
<path fill="none" stroke="#191970" d="M824.7557,-117.2429C872.3119,-109.5079 946.6025,-91.3776 918.5,-56 876.4009,-3.0024 835.6847,-34.4721 764.3851,-19.9111"/>
<polygon fill="#191970" stroke="#191970" points="765.1237,-16.4896 754.5937,-17.6596 763.555,-23.3116 765.1237,-16.4896"/>
</g>
<!-- Node24&#45;&gt;Node8 -->
<g id="edge39" class="edge">
<title>Node24&#45;&gt;Node8</title>
<path fill="none" stroke="#191970" d="M752.4749,-119.059C674.1314,-112.5284 482.4462,-95.8182 322.5,-76 310.2576,-74.4831 296.7996,-72.5305 285.1772,-70.7538"/>
<polygon fill="#191970" stroke="#191970" points="285.5261,-67.2661 275.1073,-69.1892 284.4513,-74.1831 285.5261,-67.2661"/>
</g>
<!-- Node24&#45;&gt;Node10 -->
<g id="edge34" class="edge">
<title>Node24&#45;&gt;Node10</title>
<path fill="none" stroke="#191970" d="M752.4526,-120.9171C681.8191,-118.1679 520.3482,-108.7912 377.4345,-75.7101"/>
<polygon fill="#191970" stroke="#191970" points="378.1506,-72.283 367.614,-73.392 376.5424,-79.0958 378.1506,-72.283"/>
</g>
<!-- Node24&#45;&gt;Node11 -->
<g id="edge38" class="edge">
<title>Node24&#45;&gt;Node11</title>
<path fill="none" stroke="#191970" d="M752.4584,-118.516C692.4335,-112.4001 568.0706,-98.397 453.8371,-76.0796"/>
<polygon fill="#191970" stroke="#191970" points="454.3659,-72.6164 443.8765,-74.107 453.006,-79.4831 454.3659,-72.6164"/>
</g>
<!-- Node24&#45;&gt;Node15 -->
<g id="edge33" class="edge">
<title>Node24&#45;&gt;Node15</title>
<path fill="none" stroke="#191970" d="M823.7408,-112.3733C860.5739,-102.3115 918.1533,-86.5825 955.8586,-76.2825"/>
<polygon fill="#191970" stroke="#191970" points="957.2084,-79.5421 965.9326,-73.5306 955.3637,-72.7895 957.2084,-79.5421"/>
</g>
<!-- Node24&#45;&gt;Node17 -->
<g id="edge41" class="edge">
<title>Node24&#45;&gt;Node17</title>
<path fill="none" stroke="#191970" d="M824.8392,-116.3322C870.4581,-108.9463 951.2618,-94.9707 1028.7859,-76.2485"/>
<polygon fill="#191970" stroke="#191970" points="1029.8301,-79.5964 1038.712,-73.8204 1028.1667,-72.7969 1029.8301,-79.5964"/>
</g>
<!-- Node25 -->
<g id="node25" class="node">
<title>Node25</title>
<g id="a_node25"><a xlink:title=" ">
<polygon fill="#ffffff" stroke="#bfbfbf" points="745,-56.5 745,-75.5 774,-75.5 774,-56.5 745,-56.5"/>
<text text-anchor="middle" x="759.5" y="-63.5" font-family="Helvetica,sans-Serif" font-size="10.00" fill="#000000">list</text>
</a>
</g>
</g>
<!-- Node24&#45;&gt;Node25 -->
<g id="edge32" class="edge">
<title>Node24&#45;&gt;Node25</title>
<path fill="none" stroke="#191970" d="M783.4486,-112.2455C779.4981,-104.617 773.8903,-93.7881 769.0942,-84.5267"/>
<polygon fill="#191970" stroke="#191970" points="772.2001,-82.9131 764.4935,-75.6427 765.9841,-86.1321 772.2001,-82.9131"/>
</g>
<!-- Node26 -->
<g id="node26" class="node">
<title>Node26</title>
<g id="a_node26"><a xlink:title=" ">
<polygon fill="#ffffff" stroke="#bfbfbf" points="792,-56.5 792,-75.5 845,-75.5 845,-56.5 792,-56.5"/>
<text text-anchor="middle" x="818.5" y="-63.5" font-family="Helvetica,sans-Serif" font-size="10.00" fill="#000000">memory</text>
</a>
</g>
</g>
<!-- Node24&#45;&gt;Node26 -->
<g id="edge35" class="edge">
<title>Node24&#45;&gt;Node26</title>
<path fill="none" stroke="#191970" d="M793.7256,-112.2455C797.8123,-104.617 803.6135,-93.7881 808.575,-84.5267"/>
<polygon fill="#191970" stroke="#191970" points="811.6972,-86.1103 813.3343,-75.6427 805.5268,-82.8047 811.6972,-86.1103"/>
</g>
<!-- Node27 -->
<g id="node27" class="node">
<title>Node27</title>
<g id="a_node27"><a xlink:title=" ">
<polygon fill="#ffffff" stroke="#bfbfbf" points="863.5,-56.5 863.5,-75.5 909.5,-75.5 909.5,-56.5 863.5,-56.5"/>
<text text-anchor="middle" x="886.5" y="-63.5" font-family="Helvetica,sans-Serif" font-size="10.00" fill="#000000">cstring</text>
</a>
</g>
</g>
<!-- Node24&#45;&gt;Node27 -->
<g id="edge36" class="edge">
<title>Node24&#45;&gt;Node27</title>
<path fill="none" stroke="#191970" d="M805.5703,-112.2455C820.747,-103.5731 843.1621,-90.7645 860.5563,-80.825"/>
<polygon fill="#191970" stroke="#191970" points="862.6794,-83.643 869.6253,-75.6427 859.2064,-77.5653 862.6794,-83.643"/>
</g>
<!-- Node28 -->
<g id="node28" class="node">
<title>Node28</title>
<g id="a_node28"><a xlink:title=" ">
<polygon fill="#ffffff" stroke="#bfbfbf" points="668,-56.5 668,-75.5 727,-75.5 727,-56.5 668,-56.5"/>
<text text-anchor="middle" x="697.5" y="-63.5" font-family="Helvetica,sans-Serif" font-size="10.00" fill="#000000">functional</text>
</a>
</g>
</g>
<!-- Node24&#45;&gt;Node28 -->
<g id="edge37" class="edge">
<title>Node24&#45;&gt;Node28</title>
<path fill="none" stroke="#191970" d="M772.649,-112.2455C758.6868,-103.6534 738.1272,-91.0014 722.0404,-81.1018"/>
<polygon fill="#191970" stroke="#191970" points="723.5203,-77.9029 713.1693,-75.6427 719.8516,-83.8645 723.5203,-77.9029"/>
</g>
<!-- Node29 -->
<g id="node29" class="node">
<title>Node29</title>
<g id="a_node29"><a xlink:href="../../d4/d86/acc_8hpp.html" target="_top" xlink:title="Interface to accelerators API.">
<polygon fill="#ffffff" stroke="#000000" points="1183,-56.5 1183,-75.5 1254,-75.5 1254,-56.5 1183,-56.5"/>
<text text-anchor="middle" x="1218.5" y="-63.5" font-family="Helvetica,sans-Serif" font-size="10.00" fill="#000000">gpu/acc.hpp</text>
</a>
</g>
</g>
<!-- Node24&#45;&gt;Node29 -->
<g id="edge42" class="edge">
<title>Node24&#45;&gt;Node29</title>
<path fill="none" stroke="#191970" d="M824.791,-117.2737C902.9092,-107.1002 1086.8572,-83.1442 1172.7812,-71.9541"/>
<polygon fill="#191970" stroke="#191970" points="1173.2959,-75.4167 1182.7602,-70.6545 1172.3919,-68.4753 1173.2959,-75.4167"/>
</g>
<!-- Node29&#45;&gt;Node5 -->
<g id="edge53" class="edge">
<title>Node29&#45;&gt;Node5</title>
<path fill="none" stroke="#191970" d="M1182.7811,-62.7944C1158.6986,-60.6956 1126.2037,-57.9843 1097.5,-56 810.1854,-36.1378 737.7865,-40.2652 450.5,-20 423.3419,-18.0843 392.6787,-15.4459 369.5582,-13.3602"/>
<polygon fill="#191970" stroke="#191970" points="369.7818,-9.8662 359.5057,-12.4454 369.1474,-16.8374 369.7818,-9.8662"/>
</g>
<!-- Node29&#45;&gt;Node6 -->
<g id="edge54" class="edge">
<title>Node29&#45;&gt;Node6</title>
<path fill="none" stroke="#191970" d="M1182.8022,-58.3699C1178.008,-57.4892 1173.1439,-56.6688 1168.5,-56 992.8669,-30.7072 943.0858,-51.535 764.4942,-19.8718"/>
<polygon fill="#191970" stroke="#191970" points="764.9666,-16.4006 754.5041,-18.0702 763.7242,-23.2895 764.9666,-16.4006"/>
</g>
<!-- Node29&#45;&gt;Node7 -->
<g id="edge55" class="edge">
<title>Node29&#45;&gt;Node7</title>
<path fill="none" stroke="#191970" d="M1182.9967,-61.6186C1166.975,-59.7308 1147.8016,-57.5955 1130.5,-56 894.1243,-34.2025 608.4831,-17.1937 513.7495,-11.8004"/>
<polygon fill="#191970" stroke="#191970" points="513.8429,-8.3002 503.6609,-11.229 513.4469,-15.289 513.8429,-8.3002"/>
</g>
<!-- Node29&#45;&gt;Node21 -->
<g id="edge51" class="edge">
<title>Node29&#45;&gt;Node21</title>
<path fill="none" stroke="#191970" d="M1254.2876,-57.6451C1257.3946,-57.042 1260.4973,-56.4824 1263.5,-56 1418.5784,-31.0838 1463.184,-49.362 1621.1732,-19.9548"/>
<polygon fill="#191970" stroke="#191970" points="1622.0752,-23.3462 1631.2479,-18.0442 1620.7708,-16.4688 1622.0752,-23.3462"/>
</g>
<!-- Node30 -->
<g id="node30" class="node">
<title>Node30</title>
<g id="a_node30"><a xlink:title=" ">
<polygon fill="#ffffff" stroke="#bfbfbf" points="1293,-.5 1293,-19.5 1378,-19.5 1378,-.5 1293,-.5"/>
<text text-anchor="middle" x="1335.5" y="-7.5" font-family="Helvetica,sans-Serif" font-size="10.00" fill="#000000">cuda_runtime.h</text>
</a>
</g>
</g>
<!-- Node29&#45;&gt;Node30 -->
<g id="edge43" class="edge">
<title>Node29&#45;&gt;Node30</title>
<path fill="none" stroke="#191970" d="M1238.613,-56.3733C1257.3103,-47.4241 1285.3744,-33.9917 1306.4934,-23.8835"/>
<polygon fill="#191970" stroke="#191970" points="1308.1405,-26.9755 1315.6494,-19.5011 1305.1183,-20.6614 1308.1405,-26.9755"/>
</g>
<!-- Node31 -->
<g id="node31" class="node">
<title>Node31</title>
<g id="a_node31"><a xlink:title=" ">
<polygon fill="#ffffff" stroke="#bfbfbf" points="1396,-.5 1396,-19.5 1443,-19.5 1443,-.5 1396,-.5"/>
<text text-anchor="middle" x="1419.5" y="-7.5" font-family="Helvetica,sans-Serif" font-size="10.00" fill="#000000">cuda.h</text>
</a>
</g>
</g>
<!-- Node29&#45;&gt;Node31 -->
<g id="edge44" class="edge">
<title>Node29&#45;&gt;Node31</title>
<path fill="none" stroke="#191970" d="M1254.2156,-56.6907C1286.4196,-48.2054 1335.3058,-35.0997 1385.9536,-20.3886"/>
<polygon fill="#191970" stroke="#191970" points="1387.1454,-23.6869 1395.7641,-17.5251 1385.184,-16.9673 1387.1454,-23.6869"/>
</g>
<!-- Node32 -->
<g id="node32" class="node">
<title>Node32</title>
<g id="a_node32"><a xlink:title=" ">
<polygon fill="#ffffff" stroke="#bfbfbf" points="1461.5,-.5 1461.5,-19.5 1531.5,-19.5 1531.5,-.5 1461.5,-.5"/>
<text text-anchor="middle" x="1496.5" y="-7.5" font-family="Helvetica,sans-Serif" font-size="10.00" fill="#000000">cublas_v2.h</text>
</a>
</g>
</g>
<!-- Node29&#45;&gt;Node32 -->
<g id="edge45" class="edge">
<title>Node29&#45;&gt;Node32</title>
<path fill="none" stroke="#191970" d="M1254.3403,-57.9323C1257.4358,-57.2668 1260.5216,-56.6145 1263.5,-56 1344.1389,-39.3642 1367.1101,-37.5926 1451.4307,-20.167"/>
<polygon fill="#191970" stroke="#191970" points="1452.3823,-23.544 1461.4599,-18.0807 1450.9566,-16.6907 1452.3823,-23.544"/>
</g>
<!-- Node33 -->
<g id="node33" class="node">
<title>Node33</title>
<g id="a_node33"><a xlink:title=" ">
<polygon fill="#ffffff" stroke="#bfbfbf" points="1550,-.5 1550,-19.5 1613,-19.5 1613,-.5 1550,-.5"/>
<text text-anchor="middle" x="1581.5" y="-7.5" font-family="Helvetica,sans-Serif" font-size="10.00" fill="#000000">cublasXt.h</text>
</a>
</g>
</g>
<!-- Node29&#45;&gt;Node33 -->
<g id="edge46" class="edge">
<title>Node29&#45;&gt;Node33</title>
<path fill="none" stroke="#191970" d="M1254.3037,-57.7407C1257.4072,-57.1168 1260.5047,-56.5264 1263.5,-56 1382.5489,-35.0795 1416.6688,-42.3297 1539.6039,-19.981"/>
<polygon fill="#191970" stroke="#191970" points="1540.5928,-23.3576 1549.7905,-18.099 1539.321,-16.4741 1540.5928,-23.3576"/>
</g>
<!-- Node34 -->
<g id="node34" class="node">
<title>Node34</title>
<g id="a_node34"><a xlink:title=" ">
<polygon fill="#ffffff" stroke="#bfbfbf" points="772.5,-.5 772.5,-19.5 874.5,-19.5 874.5,-.5 772.5,-.5"/>
<text text-anchor="middle" x="823.5" y="-7.5" font-family="Helvetica,sans-Serif" font-size="10.00" fill="#000000">cuda_profiler_api.h</text>
</a>
</g>
</g>
<!-- Node29&#45;&gt;Node34 -->
<g id="edge47" class="edge">
<title>Node29&#45;&gt;Node34</title>
<path fill="none" stroke="#191970" d="M1182.7773,-58.5318C1177.9872,-57.6253 1173.1307,-56.7545 1168.5,-56 1045.6882,-35.9887 1011.5448,-38.3596 884.6512,-20.1164"/>
<polygon fill="#191970" stroke="#191970" points="884.9409,-16.6218 874.5416,-18.6478 883.9346,-23.5491 884.9409,-16.6218"/>
</g>
<!-- Node35 -->
<g id="node35" class="node">
<title>Node35</title>
<g id="a_node35"><a xlink:title=" ">
<polygon fill="#ffffff" stroke="#bfbfbf" points="892.5,-.5 892.5,-19.5 966.5,-19.5 966.5,-.5 892.5,-.5"/>
<text text-anchor="middle" x="929.5" y="-7.5" font-family="Helvetica,sans-Serif" font-size="10.00" fill="#000000">nvToolsExt.h</text>
</a>
</g>
</g>
<!-- Node29&#45;&gt;Node35 -->
<g id="edge48" class="edge">
<title>Node29&#45;&gt;Node35</title>
<path fill="none" stroke="#191970" d="M1182.731,-58.7918C1177.9482,-57.8439 1173.1062,-56.8924 1168.5,-56 1083.2646,-39.4863 1061.6327,-37.0352 976.5,-20 976.4003,-19.9801 976.3005,-19.9601 976.2006,-19.94"/>
<polygon fill="#191970" stroke="#191970" points="977.1809,-16.568 966.6831,-17.9984 975.7816,-23.4268 977.1809,-16.568"/>
</g>
<!-- Node36 -->
<g id="node36" class="node">
<title>Node36</title>
<g id="a_node36"><a xlink:title=" ">
<polygon fill="#ffffff" stroke="#bfbfbf" points="985,-.5 985,-19.5 1060,-19.5 1060,-.5 985,-.5"/>
<text text-anchor="middle" x="1022.5" y="-7.5" font-family="Helvetica,sans-Serif" font-size="10.00" fill="#000000">cuComplex.h</text>
</a>
</g>
</g>
<!-- Node29&#45;&gt;Node36 -->
<g id="edge49" class="edge">
<title>Node29&#45;&gt;Node36</title>
<path fill="none" stroke="#191970" d="M1184.8064,-56.3733C1151.7913,-46.9404 1101.3427,-32.5265 1065.4614,-22.2747"/>
<polygon fill="#191970" stroke="#191970" points="1066.3307,-18.8831 1055.7539,-19.5011 1064.4076,-25.6137 1066.3307,-18.8831"/>
</g>
<!-- Node37 -->
<g id="node37" class="node">
<title>Node37</title>
<g id="a_node37"><a xlink:title=" ">
<polygon fill="#ffffff" stroke="#bfbfbf" points="1078.5,-.5 1078.5,-19.5 1140.5,-19.5 1140.5,-.5 1078.5,-.5"/>
<text text-anchor="middle" x="1109.5" y="-7.5" font-family="Helvetica,sans-Serif" font-size="10.00" fill="#000000">execinfo.h</text>
</a>
</g>
</g>
<!-- Node29&#45;&gt;Node37 -->
<g id="edge50" class="edge">
<title>Node29&#45;&gt;Node37</title>
<path fill="none" stroke="#191970" d="M1199.5136,-56.2455C1182.3208,-47.4125 1156.7762,-34.2887 1137.2868,-24.2758"/>
<polygon fill="#191970" stroke="#191970" points="1138.763,-21.0993 1128.2688,-19.6427 1135.5641,-27.3257 1138.763,-21.0993"/>
</g>
<!-- Node38 -->
<g id="node38" class="node">
<title>Node38</title>
<g id="a_node38"><a xlink:title=" ">
<polygon fill="#ffffff" stroke="#bfbfbf" points="1159,-.5 1159,-19.5 1210,-19.5 1210,-.5 1159,-.5"/>
<text text-anchor="middle" x="1184.5" y="-7.5" font-family="Helvetica,sans-Serif" font-size="10.00" fill="#000000">signal.h</text>
</a>
</g>
</g>
<!-- Node29&#45;&gt;Node38 -->
<g id="edge52" class="edge">
<title>Node29&#45;&gt;Node38</title>
<path fill="none" stroke="#191970" d="M1212.5777,-56.2455C1207.8973,-48.5367 1201.2327,-37.5598 1195.5711,-28.2348"/>
<polygon fill="#191970" stroke="#191970" points="1198.5361,-26.3741 1190.3545,-19.6427 1192.5525,-30.007 1198.5361,-26.3741"/>
</g>
<!-- Node39 -->
<g id="node39" class="node">
<title>Node39</title>
<g id="a_node39"><a xlink:title=" ">
<polygon fill="#ffffff" stroke="#bfbfbf" points="1228.5,-.5 1228.5,-19.5 1274.5,-19.5 1274.5,-.5 1228.5,-.5"/>
<text text-anchor="middle" x="1251.5" y="-7.5" font-family="Helvetica,sans-Serif" font-size="10.00" fill="#000000">stdio.h</text>
</a>
</g>
</g>
<!-- Node29&#45;&gt;Node39 -->
<g id="edge56" class="edge">
<title>Node29&#45;&gt;Node39</title>
<path fill="none" stroke="#191970" d="M1224.2482,-56.2455C1228.7435,-48.617 1235.1248,-37.7881 1240.5825,-28.5267"/>
<polygon fill="#191970" stroke="#191970" points="1243.7561,-30.035 1245.8177,-19.6427 1237.7253,-26.4811 1243.7561,-30.035"/>
</g>
<!-- Node40&#45;&gt;Node10 -->
<g id="edge61" class="edge">
<title>Node40&#45;&gt;Node10</title>
<path fill="none" stroke="#191970" d="M511.275,-112.4492C477.499,-104.351 428.3177,-91.9379 377.2662,-76.0347"/>
<polygon fill="#191970" stroke="#191970" points="378.3049,-72.6924 367.7152,-73.0248 376.2008,-79.3687 378.3049,-72.6924"/>
</g>
<!-- Node40&#45;&gt;Node11 -->
<g id="edge63" class="edge">
<title>Node40&#45;&gt;Node11</title>
<path fill="none" stroke="#191970" d="M528.777,-112.3733C506.3263,-103.2629 472.4261,-89.5062 447.3745,-79.3404"/>
<polygon fill="#191970" stroke="#191970" points="448.4957,-76.0182 437.9135,-75.5011 445.8635,-82.5045 448.4957,-76.0182"/>
</g>
<!-- Node40&#45;&gt;Node13 -->
<g id="edge59" class="edge">
<title>Node40&#45;&gt;Node13</title>
<path fill="none" stroke="#191970" d="M552.5,-112.2455C552.5,-104.9382 552.5,-94.6944 552.5,-85.7046"/>
<polygon fill="#191970" stroke="#191970" points="556.0001,-85.6426 552.5,-75.6427 549.0001,-85.6427 556.0001,-85.6426"/>
</g>
<!-- Node40&#45;&gt;Node14 -->
<g id="edge62" class="edge">
<title>Node40&#45;&gt;Node14</title>
<path fill="none" stroke="#191970" d="M541.1779,-112.2455C531.5777,-103.9746 517.6108,-91.9416 506.3305,-82.2232"/>
<polygon fill="#191970" stroke="#191970" points="508.553,-79.5182 498.6924,-75.6427 503.984,-84.8214 508.553,-79.5182"/>
</g>
<!-- Node40&#45;&gt;Node28 -->
<g id="edge58" class="edge">
<title>Node40&#45;&gt;Node28</title>
<path fill="none" stroke="#191970" d="M577.4264,-112.3733C601.1202,-103.2226 636.9511,-89.3844 663.3068,-79.2057"/>
<polygon fill="#191970" stroke="#191970" points="664.8314,-82.3689 672.8989,-75.5011 662.3094,-75.8389 664.8314,-82.3689"/>
</g>
<!-- Node41 -->
<g id="node41" class="node">
<title>Node41</title>
<g id="a_node41"><a xlink:title=" ">
<polygon fill="#ffffff" stroke="#bfbfbf" points="591,-56.5 591,-75.5 650,-75.5 650,-56.5 591,-56.5"/>
<text text-anchor="middle" x="620.5" y="-63.5" font-family="Helvetica,sans-Serif" font-size="10.00" fill="#000000">stdexcept</text>
</a>
</g>
</g>
<!-- Node40&#45;&gt;Node41 -->
<g id="edge60" class="edge">
<title>Node40&#45;&gt;Node41</title>
<path fill="none" stroke="#191970" d="M564.3447,-112.2455C574.388,-103.9746 588.9995,-91.9416 600.8004,-82.2232"/>
<polygon fill="#191970" stroke="#191970" points="603.2967,-84.7015 608.791,-75.6427 598.8467,-79.298 603.2967,-84.7015"/>
</g>
</g>
</svg>
