<?xml version="1.0" encoding="UTF-8" standalone="no"?>
<!DOCTYPE svg PUBLIC "-//W3C//DTD SVG 1.1//EN"
 "http://www.w3.org/Graphics/SVG/1.1/DTD/svg11.dtd">
<!-- Generated by graphviz version 2.40.1 (20161225.0304)
 -->
<!-- Title: sirius::Matching_coefficients Pages: 1 -->
<!--zoomable 329 -->
<svg id="main" version="1.1" xmlns="http://www.w3.org/2000/svg" xmlns:xlink="http://www.w3.org/1999/xlink" xml:space="preserve" onload="init(evt)">
<style type="text/css"><![CDATA[
.edge:hover path { stroke: red; }
.edge:hover polygon { stroke: red; fill: red; }
]]></style>
<script type="text/javascript"><![CDATA[
var edges = document.getElementsByTagName('g');
if (edges && edges.length) {
  for (var i=0;i<edges.length;i++) {
    if (edges[i].id.substr(0,4)=='edge') {
      edges[i].setAttribute('class','edge');
    }
  }
}
]]></script>
        <defs>
                <circle id="rim" cx="0" cy="0" r="7"/>
                <circle id="rim2" cx="0" cy="0" r="3.5"/>
                <g id="zoomPlus">
                        <use xlink:href="#rim" fill="#404040">
                                <set attributeName="fill" to="#808080" begin="zoomplus.mouseover" end="zoomplus.mouseout"/>
                        </use>
                        <path d="M-4,0h8M0,-4v8" fill="none" stroke="white" stroke-width="1.5" pointer-events="none"/>
                </g>
                <g id="zoomMin">
                        <use xlink:href="#rim" fill="#404040">
                                <set attributeName="fill" to="#808080" begin="zoomminus.mouseover" end="zoomminus.mouseout"/>
                        </use>
                        <path d="M-4,0h8" fill="none" stroke="white" stroke-width="1.5" pointer-events="none"/>
                </g>
                <g id="dirArrow">
                        <path fill="none" stroke="white" stroke-width="1.5" d="M0,-3.0v7 M-2.5,-0.5L0,-3.0L2.5,-0.5"/>
                </g>
               <g id="resetDef">
                       <use xlink:href="#rim2" fill="#404040">
                               <set attributeName="fill" to="#808080" begin="reset.mouseover" end="reset.mouseout"/>
                       </use>
               </g>
        </defs>

<script type="text/javascript">
var viewWidth = 928;
var viewHeight = 329;
var sectionId = 'dynsection-0';
</script>
<script xlink:href="../../svgpan.js"/>
<svg id="graph" class="graph">
<g id="viewport">
<title>sirius::Matching_coefficients</title>
<polygon fill="#ffffff" stroke="transparent" points="-4,4 -4,-324.5 924,-324.5 924,4 -4,4"/>
<!-- Node1 -->
<g id="node1" class="node">
<title>Node1</title>
<polygon fill="#bfbfbf" stroke="#000000" points="810,-223.5 810,-242.5 920,-242.5 920,-223.5 810,-223.5"/>
<text text-anchor="middle" x="865" y="-230.5" font-family="Helvetica,sans-Serif" font-size="10.00" fill="#000000">sirius::Matching_coefficients</text>
</g>
<!-- Node2 -->
<g id="node2" class="node">
<title>Node2</title>
<g id="a_node2"><a xlink:href="../../d6/dd1/classsirius_1_1_unit__cell.html" target="_top" xlink:title="Representation of a unit cell. ">
<polygon fill="#ffffff" stroke="#000000" points="673,-223.5 673,-242.5 740,-242.5 740,-223.5 673,-223.5"/>
<text text-anchor="middle" x="706.5" y="-230.5" font-family="Helvetica,sans-Serif" font-size="10.00" fill="#000000">sirius::Unit_cell</text>
</a>
</g>
</g>
<!-- Node2&#45;&gt;Node1 -->
<g id="edge1" class="edge">
<title>Node2&#45;&gt;Node1</title>
<path fill="none" stroke="#9a32cd" stroke-dasharray="5,2" d="M750.2775,-233C768.7248,-233 790.403,-233 809.9189,-233"/>
<polygon fill="#9a32cd" stroke="#9a32cd" points="750.1138,-229.5001 740.1138,-233 750.1137,-236.5001 750.1138,-229.5001"/>
<text text-anchor="middle" x="775" y="-236" font-family="Helvetica,sans-Serif" font-size="10.00" fill="#000000"> unit_cell_</text>
</g>
<!-- Node3 -->
<g id="node3" class="node">
<title>Node3</title>
<g id="a_node3"><a xlink:href="../../d2/dc9/classsddk_1_1splindex.html" target="_top" xlink:title="sddk::splindex\&lt; block \&gt;">
<polygon fill="#ffffff" stroke="#000000" points="457,-278.5 457,-297.5 551,-297.5 551,-278.5 457,-278.5"/>
<text text-anchor="middle" x="504" y="-285.5" font-family="Helvetica,sans-Serif" font-size="10.00" fill="#000000">sddk::splindex&lt; block &gt;</text>
</a>
</g>
</g>
<!-- Node3&#45;&gt;Node2 -->
<g id="edge2" class="edge">
<title>Node3&#45;&gt;Node2</title>
<path fill="none" stroke="#9a32cd" stroke-dasharray="5,2" d="M548.8554,-275.8245C578.8934,-267.6701 619.319,-256.694 655,-247 660.8119,-245.421 666.9925,-243.7413 672.98,-242.1138"/>
<polygon fill="#9a32cd" stroke="#9a32cd" points="547.8225,-272.4781 539.0887,-278.4758 549.6564,-279.2336 547.8225,-272.4781"/>
<text text-anchor="middle" x="612" y="-306" font-family="Helvetica,sans-Serif" font-size="10.00" fill="#000000"> spl_num_paw_atoms_</text>
<text text-anchor="middle" x="612" y="-295" font-family="Helvetica,sans-Serif" font-size="10.00" fill="#000000">spl_num_atoms_</text>
<text text-anchor="start" x="569" y="-284" font-family="Helvetica,sans-Serif" font-size="10.00" fill="#000000">spl_num_atom_symmetry</text>
<text text-anchor="middle" x="612" y="-273" font-family="Helvetica,sans-Serif" font-size="10.00" fill="#000000">_classes_</text>
</g>
<!-- Node4 -->
<g id="node4" class="node">
<title>Node4</title>
<g id="a_node4"><a xlink:href="../../d6/dec/classsddk_1_1splindex__base.html" target="_top" xlink:title="sddk::splindex_base\l\&lt; int \&gt;">
<polygon fill="#ffffff" stroke="#000000" points="256.5,-290 256.5,-320 340.5,-320 340.5,-290 256.5,-290"/>
<text text-anchor="start" x="264.5" y="-308" font-family="Helvetica,sans-Serif" font-size="10.00" fill="#000000">sddk::splindex_base</text>
<text text-anchor="middle" x="298.5" y="-297" font-family="Helvetica,sans-Serif" font-size="10.00" fill="#000000">&lt; int &gt;</text>
</a>
</g>
</g>
<!-- Node4&#45;&gt;Node3 -->
<g id="edge3" class="edge">
<title>Node4&#45;&gt;Node3</title>
<path fill="none" stroke="#191970" d="M350.8562,-300.6688C383.5553,-297.9638 425.3045,-294.5101 456.9508,-291.8921"/>
<polygon fill="#191970" stroke="#191970" points="350.2593,-297.2062 340.5819,-301.5188 350.8364,-304.1823 350.2593,-297.2062"/>
</g>
<!-- Node5 -->
<g id="node5" class="node">
<title>Node5</title>
<g id="a_node5"><a xlink:href="../../da/d70/classsddk_1_1_communicator.html" target="_top" xlink:title="MPI communicator wrapper. ">
<polygon fill="#ffffff" stroke="#000000" points="461.5,-223.5 461.5,-242.5 546.5,-242.5 546.5,-223.5 461.5,-223.5"/>
<text text-anchor="middle" x="504" y="-230.5" font-family="Helvetica,sans-Serif" font-size="10.00" fill="#000000">sddk::Communicator</text>
</a>
</g>
</g>
<!-- Node5&#45;&gt;Node2 -->
<g id="edge4" class="edge">
<title>Node5&#45;&gt;Node2</title>
<path fill="none" stroke="#9a32cd" stroke-dasharray="5,2" d="M556.981,-233C593.682,-233 641.4291,-233 672.9761,-233"/>
<polygon fill="#9a32cd" stroke="#9a32cd" points="556.9451,-229.5001 546.945,-233 556.945,-236.5001 556.9451,-229.5001"/>
<text text-anchor="middle" x="612" y="-236" font-family="Helvetica,sans-Serif" font-size="10.00" fill="#000000"> comm_</text>
</g>
<!-- Node6 -->
<g id="node6" class="node">
<title>Node6</title>
<g id="a_node6"><a xlink:href="../../d0/d04/classsirius_1_1_simulation__parameters.html" target="_top" xlink:title="Set of basic parameters of a simulation. ">
<polygon fill="#ffffff" stroke="#000000" points="467.5,-140 467.5,-170 540.5,-170 540.5,-140 467.5,-140"/>
<text text-anchor="start" x="475.5" y="-158" font-family="Helvetica,sans-Serif" font-size="10.00" fill="#000000">sirius::Simulation</text>
<text text-anchor="middle" x="504" y="-147" font-family="Helvetica,sans-Serif" font-size="10.00" fill="#000000">_parameters</text>
</a>
</g>
</g>
<!-- Node6&#45;&gt;Node2 -->
<g id="edge5" class="edge">
<title>Node6&#45;&gt;Node2</title>
<path fill="none" stroke="#9a32cd" stroke-dasharray="5,2" d="M550.1312,-172.7691C590.9328,-188.4852 648.9115,-210.8178 681.5919,-223.4058"/>
<polygon fill="#9a32cd" stroke="#9a32cd" points="551.261,-169.4536 540.6712,-169.1252 548.7448,-175.9858 551.261,-169.4536"/>
<text text-anchor="middle" x="612" y="-215" font-family="Helvetica,sans-Serif" font-size="10.00" fill="#000000"> parameters_</text>
</g>
<!-- Node7 -->
<g id="node7" class="node">
<title>Node7</title>
<g id="a_node7"><a xlink:href="../../d4/d6e/structsirius_1_1_parameters__input.html" target="_top" xlink:title="sirius::Parameters\l_input">
<polygon fill="#ffffff" stroke="#000000" points="260,-241 260,-271 337,-271 337,-241 260,-241"/>
<text text-anchor="start" x="268" y="-259" font-family="Helvetica,sans-Serif" font-size="10.00" fill="#000000">sirius::Parameters</text>
<text text-anchor="middle" x="298.5" y="-248" font-family="Helvetica,sans-Serif" font-size="10.00" fill="#000000">_input</text>
</a>
</g>
</g>
<!-- Node7&#45;&gt;Node6 -->
<g id="edge6" class="edge">
<title>Node7&#45;&gt;Node6</title>
<path fill="none" stroke="#9a32cd" stroke-dasharray="5,2" d="M347.0603,-247.6091C375.1822,-241.3714 410.5352,-231.0972 439,-215 459.7203,-203.2824 479.1781,-183.7585 491.3063,-170.1769"/>
<polygon fill="#9a32cd" stroke="#9a32cd" points="346.1111,-244.2324 337.0529,-249.7279 347.5611,-251.0806 346.1111,-244.2324"/>
<text text-anchor="middle" x="400" y="-247" font-family="Helvetica,sans-Serif" font-size="10.00" fill="#000000"> parameters_input_</text>
</g>
<!-- Node8 -->
<g id="node8" class="node">
<title>Node8</title>
<g id="a_node8"><a xlink:href="../../da/de3/structsirius_1_1_control__input.html" target="_top" xlink:title="Parse control input section. ">
<polygon fill="#ffffff" stroke="#000000" points="257,-202.5 257,-221.5 340,-221.5 340,-202.5 257,-202.5"/>
<text text-anchor="middle" x="298.5" y="-209.5" font-family="Helvetica,sans-Serif" font-size="10.00" fill="#000000">sirius::Control_input</text>
</a>
</g>
</g>
<!-- Node8&#45;&gt;Node6 -->
<g id="edge7" class="edge">
<title>Node8&#45;&gt;Node6</title>
<path fill="none" stroke="#9a32cd" stroke-dasharray="5,2" d="M350.1498,-203.3209C376.9602,-198.2275 410.0716,-191.013 439,-182 449.6165,-178.6923 460.8985,-174.3245 471.0316,-170.0682"/>
<polygon fill="#9a32cd" stroke="#9a32cd" points="349.3973,-199.9007 340.2048,-205.1684 350.6759,-206.7829 349.3973,-199.9007"/>
<text text-anchor="middle" x="400" y="-203" font-family="Helvetica,sans-Serif" font-size="10.00" fill="#000000"> control_input_</text>
</g>
<!-- Node9 -->
<g id="node9" class="node">
<title>Node9</title>
<g id="a_node9"><a xlink:href="../../d2/dcd/structsirius_1_1_hubbard__input.html" target="_top" xlink:title="sirius::Hubbard_input">
<polygon fill="#ffffff" stroke="#000000" points="255,-164.5 255,-183.5 342,-183.5 342,-164.5 255,-164.5"/>
<text text-anchor="middle" x="298.5" y="-171.5" font-family="Helvetica,sans-Serif" font-size="10.00" fill="#000000">sirius::Hubbard_input</text>
</a>
</g>
</g>
<!-- Node9&#45;&gt;Node6 -->
<g id="edge8" class="edge">
<title>Node9&#45;&gt;Node6</title>
<path fill="none" stroke="#9a32cd" stroke-dasharray="5,2" d="M352.4724,-169.0099C388.6823,-165.662 435.4162,-161.3411 467.3496,-158.3886"/>
<polygon fill="#9a32cd" stroke="#9a32cd" points="351.7165,-165.5647 342.0813,-169.9706 352.3611,-172.535 351.7165,-165.5647"/>
<text text-anchor="middle" x="400" y="-170" font-family="Helvetica,sans-Serif" font-size="10.00" fill="#000000"> hubbard_input_</text>
</g>
<!-- Node10 -->
<g id="node10" class="node">
<title>Node10</title>
<g id="a_node10"><a xlink:href="../../d6/de3/structsirius_1_1_settings__input.html" target="_top" xlink:title="Settings control the internal parameters related to the numerical implementation. ...">
<polygon fill="#ffffff" stroke="#000000" points="255.5,-126.5 255.5,-145.5 341.5,-145.5 341.5,-126.5 255.5,-126.5"/>
<text text-anchor="middle" x="298.5" y="-133.5" font-family="Helvetica,sans-Serif" font-size="10.00" fill="#000000">sirius::Settings_input</text>
</a>
</g>
</g>
<!-- Node10&#45;&gt;Node6 -->
<g id="edge9" class="edge">
<title>Node10&#45;&gt;Node6</title>
<path fill="none" stroke="#9a32cd" stroke-dasharray="5,2" d="M351.7489,-138.9527C378.0464,-140.624 410.2289,-142.9876 439,-146 448.1777,-146.9609 458.0549,-148.2148 467.2703,-149.48"/>
<polygon fill="#9a32cd" stroke="#9a32cd" points="351.8067,-135.4496 341.6092,-138.3238 351.3734,-142.4362 351.8067,-135.4496"/>
<text text-anchor="middle" x="400" y="-149" font-family="Helvetica,sans-Serif" font-size="10.00" fill="#000000"> settings_input_</text>
</g>
<!-- Node11 -->
<g id="node11" class="node">
<title>Node11</title>
<g id="a_node11"><a xlink:href="../../d7/d51/structsirius_1_1_unit__cell__input.html" target="_top" xlink:title="Parse unit cell input section. ">
<polygon fill="#ffffff" stroke="#000000" points="255,-88.5 255,-107.5 342,-107.5 342,-88.5 255,-88.5"/>
<text text-anchor="middle" x="298.5" y="-95.5" font-family="Helvetica,sans-Serif" font-size="10.00" fill="#000000">sirius::Unit_cell_input</text>
</a>
</g>
</g>
<!-- Node11&#45;&gt;Node6 -->
<g id="edge10" class="edge">
<title>Node11&#45;&gt;Node6</title>
<path fill="none" stroke="#9a32cd" stroke-dasharray="5,2" d="M352.4959,-104.6079C378.9722,-108.6973 411.0895,-114.9362 439,-124 451.7235,-128.1319 465.1663,-134.2254 476.5044,-139.9189"/>
<polygon fill="#9a32cd" stroke="#9a32cd" points="352.6788,-101.0968 342.2734,-103.0914 351.6516,-108.021 352.6788,-101.0968"/>
<text text-anchor="middle" x="400" y="-127" font-family="Helvetica,sans-Serif" font-size="10.00" fill="#000000"> unit_cell_input_</text>
</g>
<!-- Node12 -->
<g id="node12" class="node">
<title>Node12</title>
<g id="a_node12"><a xlink:href="../../d2/d6b/classgeometry3d_1_1vector3d.html" target="_top" xlink:title="geometry3d::vector3d\l\&lt; double \&gt;">
<polygon fill="#ffffff" stroke="#000000" points="114,-83 114,-113 203,-113 203,-83 114,-83"/>
<text text-anchor="start" x="122" y="-101" font-family="Helvetica,sans-Serif" font-size="10.00" fill="#000000">geometry3d::vector3d</text>
<text text-anchor="middle" x="158.5" y="-90" font-family="Helvetica,sans-Serif" font-size="10.00" fill="#000000">&lt; double &gt;</text>
</a>
</g>
</g>
<!-- Node12&#45;&gt;Node11 -->
<g id="edge11" class="edge">
<title>Node12&#45;&gt;Node11</title>
<path fill="none" stroke="#9a32cd" stroke-dasharray="5,2" d="M213.4582,-98C227.1505,-98 241.6485,-98 254.7206,-98"/>
<polygon fill="#9a32cd" stroke="#9a32cd" points="213.1818,-94.5001 203.1818,-98 213.1818,-101.5001 213.1818,-94.5001"/>
<text text-anchor="middle" x="228.5" y="-123" font-family="Helvetica,sans-Serif" font-size="10.00" fill="#000000"> a2_</text>
<text text-anchor="middle" x="228.5" y="-112" font-family="Helvetica,sans-Serif" font-size="10.00" fill="#000000">a1_</text>
<text text-anchor="middle" x="228.5" y="-101" font-family="Helvetica,sans-Serif" font-size="10.00" fill="#000000">a0_</text>
</g>
<!-- Node13 -->
<g id="node13" class="node">
<title>Node13</title>
<polygon fill="#ffffff" stroke="#bfbfbf" points="0,-83 0,-113 77,-113 77,-83 0,-83"/>
<text text-anchor="start" x="8" y="-101" font-family="Helvetica,sans-Serif" font-size="10.00" fill="#000000">std::array&lt; double</text>
<text text-anchor="middle" x="38.5" y="-90" font-family="Helvetica,sans-Serif" font-size="10.00" fill="#000000"> , 3 &gt;</text>
</g>
<!-- Node13&#45;&gt;Node12 -->
<g id="edge12" class="edge">
<title>Node13&#45;&gt;Node12</title>
<path fill="none" stroke="#191970" d="M87.2034,-98C95.9552,-98 105.0396,-98 113.6751,-98"/>
<polygon fill="#191970" stroke="#191970" points="87.1293,-94.5001 77.1293,-98 87.1293,-101.5001 87.1293,-94.5001"/>
</g>
<!-- Node14 -->
<g id="node14" class="node">
<title>Node14</title>
<g id="a_node14"><a xlink:href="../../d2/d11/structsirius_1_1_iterative__solver__input.html" target="_top" xlink:title="sirius::Iterative_solver\l_input">
<polygon fill="#ffffff" stroke="#000000" points="254,-39 254,-69 343,-69 343,-39 254,-39"/>
<text text-anchor="start" x="262" y="-57" font-family="Helvetica,sans-Serif" font-size="10.00" fill="#000000">sirius::Iterative_solver</text>
<text text-anchor="middle" x="298.5" y="-46" font-family="Helvetica,sans-Serif" font-size="10.00" fill="#000000">_input</text>
</a>
</g>
</g>
<!-- Node14&#45;&gt;Node6 -->
<g id="edge13" class="edge">
<title>Node14&#45;&gt;Node6</title>
<path fill="none" stroke="#9a32cd" stroke-dasharray="5,2" d="M353.2548,-61.5918C380.3389,-67.0023 412.7599,-76.0604 439,-91 460.8823,-103.4586 480.6569,-125.1297 492.5007,-139.7637"/>
<polygon fill="#9a32cd" stroke="#9a32cd" points="353.6347,-58.1019 343.1599,-59.6921 352.3401,-64.9812 353.6347,-58.1019"/>
<text text-anchor="middle" x="400" y="-94" font-family="Helvetica,sans-Serif" font-size="10.00" fill="#000000"> iterative_solver_input_</text>
</g>
<!-- Node15 -->
<g id="node15" class="node">
<title>Node15</title>
<g id="a_node15"><a xlink:href="../../d4/db0/structsirius_1_1_mixer__input.html" target="_top" xlink:title="Parse mixer input section. ">
<polygon fill="#ffffff" stroke="#000000" points="260,-.5 260,-19.5 337,-19.5 337,-.5 260,-.5"/>
<text text-anchor="middle" x="298.5" y="-7.5" font-family="Helvetica,sans-Serif" font-size="10.00" fill="#000000">sirius::Mixer_input</text>
</a>
</g>
</g>
<!-- Node15&#45;&gt;Node6 -->
<g id="edge14" class="edge">
<title>Node15&#45;&gt;Node6</title>
<path fill="none" stroke="#9a32cd" stroke-dasharray="5,2" d="M347.0247,-14.0558C376.0939,-18.5557 412.4384,-28.0365 439,-48 470.7963,-71.8979 490.3489,-116.3064 498.9145,-139.6899"/>
<polygon fill="#9a32cd" stroke="#9a32cd" points="347.4627,-10.5831 337.074,-12.6629 346.4922,-17.5155 347.4627,-10.5831"/>
<text text-anchor="middle" x="400" y="-51" font-family="Helvetica,sans-Serif" font-size="10.00" fill="#000000"> mixer_input_</text>
</g>
</g>
</svg>
        <g id="navigator" transform="translate(0 0)" fill="#404254">
                <rect fill="#f2f5e9" fill-opacity="0.5" stroke="#606060" stroke-width=".5" x="0" y="0" width="60" height="60"/>
                <use id="zoomplus" xlink:href="#zoomPlus" x="17" y="9" onmousedown="handleZoom(evt,'in')"/>
                <use id="zoomminus" xlink:href="#zoomMin" x="42" y="9" onmousedown="handleZoom(evt,'out')"/>
                <use id="reset" xlink:href="#resetDef" x="30" y="36" onmousedown="handleReset()"/>
                <g id="arrowUp" xlink:href="#dirArrow" transform="translate(30 24)" onmousedown="handlePan(0,-1)">
                  <use xlink:href="#rim" fill="#404040">
                        <set attributeName="fill" to="#808080" begin="arrowUp.mouseover" end="arrowUp.mouseout"/>
                  </use>
                  <path fill="none" stroke="white" stroke-width="1.5" d="M0,-3.0v7 M-2.5,-0.5L0,-3.0L2.5,-0.5"/>
                </g>
                <g id="arrowRight" xlink:href="#dirArrow" transform="rotate(90) translate(36 -43)" onmousedown="handlePan(1,0)">
                  <use xlink:href="#rim" fill="#404040">
                        <set attributeName="fill" to="#808080" begin="arrowRight.mouseover" end="arrowRight.mouseout"/>
                  </use>
                  <path fill="none" stroke="white" stroke-width="1.5" d="M0,-3.0v7 M-2.5,-0.5L0,-3.0L2.5,-0.5"/>
                </g>
                <g id="arrowDown" xlink:href="#dirArrow" transform="rotate(180) translate(-30 -48)" onmousedown="handlePan(0,1)">
                  <use xlink:href="#rim" fill="#404040">
                        <set attributeName="fill" to="#808080" begin="arrowDown.mouseover" end="arrowDown.mouseout"/>
                  </use>
                  <path fill="none" stroke="white" stroke-width="1.5" d="M0,-3.0v7 M-2.5,-0.5L0,-3.0L2.5,-0.5"/>
                </g>
                <g id="arrowLeft" xlink:href="#dirArrow" transform="rotate(270) translate(-36 17)" onmousedown="handlePan(-1,0)">
                  <use xlink:href="#rim" fill="#404040">
                        <set attributeName="fill" to="#808080" begin="arrowLeft.mouseover" end="arrowLeft.mouseout"/>
                  </use>
                  <path fill="none" stroke="white" stroke-width="1.5" d="M0,-3.0v7 M-2.5,-0.5L0,-3.0L2.5,-0.5"/>
                </g>
        </g>
        <svg viewBox="0 0 15 15" width="100%" height="30px" preserveAspectRatio="xMaxYMin meet">
         <g id="arrow_out" transform="scale(0.3 0.3)">
          <a xlink:href="classsirius_1_1_matching__coefficients__coll__graph_org.svg" target="_base">
           <rect id="button" ry="5" rx="5" y="6" x="6" height="38" width="38"
                fill="#f2f5e9" fill-opacity="0.5" stroke="#606060" stroke-width="1.0"/>
           <path id="arrow"
             d="M 11.500037,31.436501 C 11.940474,20.09759 22.043105,11.32322 32.158766,21.979434 L 37.068811,17.246167 C 37.068811,17.246167 37.088388,32 37.088388,32 L 22.160133,31.978069 C 22.160133,31.978069 26.997745,27.140456 26.997745,27.140456 C 18.528582,18.264221 13.291696,25.230495 11.500037,31.436501 z"
             style="fill:#404040;"/>
          </a>
         </g>
        </svg>
</svg>
