<?xml version="1.0" encoding="UTF-8" standalone="no"?>
<!DOCTYPE svg PUBLIC "-//W3C//DTD SVG 1.1//EN"
 "http://www.w3.org/Graphics/SVG/1.1/DTD/svg11.dtd">
<!-- Generated by graphviz version 2.40.1 (20161225.0304)
 -->
<!-- Title: constants.hpp Pages: 1 -->
<!--zoomable 980 -->
<svg id="main" version="1.1" xmlns="http://www.w3.org/2000/svg" xmlns:xlink="http://www.w3.org/1999/xlink" xml:space="preserve" onload="init(evt)">
<style type="text/css"><![CDATA[
.edge:hover path { stroke: red; }
.edge:hover polygon { stroke: red; fill: red; }
]]></style>
<script type="text/javascript"><![CDATA[
var edges = document.getElementsByTagName('g');
if (edges && edges.length) {
  for (var i=0;i<edges.length;i++) {
    if (edges[i].id.substr(0,4)=='edge') {
      edges[i].setAttribute('class','edge');
    }
  }
}
]]></script>
        <defs>
                <circle id="rim" cx="0" cy="0" r="7"/>
                <circle id="rim2" cx="0" cy="0" r="3.5"/>
                <g id="zoomPlus">
                        <use xlink:href="#rim" fill="#404040">
                                <set attributeName="fill" to="#808080" begin="zoomplus.mouseover" end="zoomplus.mouseout"/>
                        </use>
                        <path d="M-4,0h8M0,-4v8" fill="none" stroke="white" stroke-width="1.5" pointer-events="none"/>
                </g>
                <g id="zoomMin">
                        <use xlink:href="#rim" fill="#404040">
                                <set attributeName="fill" to="#808080" begin="zoomminus.mouseover" end="zoomminus.mouseout"/>
                        </use>
                        <path d="M-4,0h8" fill="none" stroke="white" stroke-width="1.5" pointer-events="none"/>
                </g>
                <g id="dirArrow">
                        <path fill="none" stroke="white" stroke-width="1.5" d="M0,-3.0v7 M-2.5,-0.5L0,-3.0L2.5,-0.5"/>
                </g>
               <g id="resetDef">
                       <use xlink:href="#rim2" fill="#404040">
                               <set attributeName="fill" to="#808080" begin="reset.mouseover" end="reset.mouseout"/>
                       </use>
               </g>
        </defs>

<script type="text/javascript">
var viewWidth = 639;
var viewHeight = 980;
var sectionId = 'dynsection-1';
</script>
<script xlink:href="../../svgpan.js"/>
<svg id="graph" class="graph">
<g id="viewport">
<title>constants.hpp</title>
<polygon fill="#ffffff" stroke="transparent" points="-4,4 -4,-976 634.5,-976 634.5,4 -4,4"/>
<!-- Node2 -->
<g id="node1" class="node">
<title>Node2</title>
<polygon fill="#bfbfbf" stroke="#000000" points="392.5,-952.5 392.5,-971.5 471.5,-971.5 471.5,-952.5 392.5,-952.5"/>
<text text-anchor="middle" x="432" y="-959.5" font-family="Helvetica,sans-Serif" font-size="10.00" fill="#000000">constants.hpp</text>
</g>
<!-- Node3 -->
<g id="node2" class="node">
<title>Node3</title>
<g id="a_node2"><a xlink:href="../../dd/d46/input_8hpp.html" target="_top" xlink:title="Contains input parameters structures. ">
<polygon fill="#ffffff" stroke="#000000" points="160,-896.5 160,-915.5 218,-915.5 218,-896.5 160,-896.5"/>
<text text-anchor="middle" x="189" y="-903.5" font-family="Helvetica,sans-Serif" font-size="10.00" fill="#000000">input.hpp</text>
</a>
</g>
</g>
<!-- Node2&#45;&gt;Node3 -->
<g id="edge1" class="edge">
<title>Node2&#45;&gt;Node3</title>
<path fill="none" stroke="#191970" d="M382.585,-950.6122C333.2075,-939.233 258.95,-922.1202 218.252,-912.7412"/>
<polygon fill="#191970" stroke="#191970" points="381.8864,-954.0429 392.417,-952.878 383.4584,-947.2216 381.8864,-954.0429"/>
</g>
<!-- Node25 -->
<g id="node24" class="node">
<title>Node25</title>
<g id="a_node24"><a xlink:href="../../d8/d7a/unit__cell__symmetry_8hpp.html" target="_top" xlink:title="Contains definition and implementation of sirius::Unit_cell_symmetry class. ">
<polygon fill="#ffffff" stroke="#000000" points="371,-728.5 371,-747.5 493,-747.5 493,-728.5 371,-728.5"/>
<text text-anchor="middle" x="432" y="-735.5" font-family="Helvetica,sans-Serif" font-size="10.00" fill="#000000">unit_cell_symmetry.hpp</text>
</a>
</g>
</g>
<!-- Node2&#45;&gt;Node25 -->
<g id="edge38" class="edge">
<title>Node2&#45;&gt;Node25</title>
<path fill="none" stroke="#191970" d="M432,-942.1177C432,-895.6713 432,-781.4223 432,-747.5891"/>
<polygon fill="#191970" stroke="#191970" points="428.5001,-942.375 432,-952.375 435.5001,-942.375 428.5001,-942.375"/>
</g>
<!-- Node26 -->
<g id="node25" class="node">
<title>Node26</title>
<g id="a_node25"><a xlink:href="../../d0/ddf/radial__solver_8hpp.html" target="_top" xlink:title="Contains declaration and partial implementation of sirius::Radial_solver class. ">
<polygon fill="#ffffff" stroke="#000000" points="467.5,-840.5 467.5,-859.5 560.5,-859.5 560.5,-840.5 467.5,-840.5"/>
<text text-anchor="middle" x="514" y="-847.5" font-family="Helvetica,sans-Serif" font-size="10.00" fill="#000000">radial_solver.hpp</text>
</a>
</g>
</g>
<!-- Node2&#45;&gt;Node26 -->
<g id="edge40" class="edge">
<title>Node2&#45;&gt;Node26</title>
<path fill="none" stroke="#191970" d="M445.024,-944.2111C462.6044,-920.1989 493.3039,-878.2679 507.0264,-859.5249"/>
<polygon fill="#191970" stroke="#191970" points="442.0747,-942.3147 438.9913,-952.4509 447.7227,-946.4499 442.0747,-942.3147"/>
</g>
<!-- Node4 -->
<g id="node3" class="node">
<title>Node4</title>
<g id="a_node3"><a xlink:href="../../de/d06/simulation__parameters_8hpp.html" target="_top" xlink:title="Contains definition and implementation of sirius::Simulation_parameters_base class. ">
<polygon fill="#ffffff" stroke="#000000" points="120.5,-840.5 120.5,-859.5 257.5,-859.5 257.5,-840.5 120.5,-840.5"/>
<text text-anchor="middle" x="189" y="-847.5" font-family="Helvetica,sans-Serif" font-size="10.00" fill="#000000">simulation_parameters.hpp</text>
</a>
</g>
</g>
<!-- Node3&#45;&gt;Node4 -->
<g id="edge2" class="edge">
<title>Node3&#45;&gt;Node4</title>
<path fill="none" stroke="#191970" d="M189,-886.1575C189,-877.155 189,-866.9199 189,-859.6427"/>
<polygon fill="#191970" stroke="#191970" points="185.5001,-886.2455 189,-896.2455 192.5001,-886.2456 185.5001,-886.2455"/>
</g>
<!-- Node8 -->
<g id="node7" class="node">
<title>Node8</title>
<g id="a_node7"><a xlink:href="../../dd/dc2/sirius_8h.html" target="_top" xlink:title="&quot;All&#45;in&#45;one&quot; include file. ">
<polygon fill="#ffffff" stroke="#000000" points="281,-56.5 281,-75.5 329,-75.5 329,-56.5 281,-56.5"/>
<text text-anchor="middle" x="305" y="-63.5" font-family="Helvetica,sans-Serif" font-size="10.00" fill="#000000">sirius.h</text>
</a>
</g>
</g>
<!-- Node3&#45;&gt;Node8 -->
<g id="edge37" class="edge">
<title>Node3&#45;&gt;Node8</title>
<path fill="none" stroke="#191970" d="M149.6965,-900.5435C94.3178,-890.3915 0,-862.9762 0,-794 0,-794 0,-794 0,-178 0,-118.2773 208.6732,-80.7261 280.8122,-69.5289"/>
<polygon fill="#191970" stroke="#191970" points="149.434,-904.0497 159.8829,-902.2978 150.6221,-897.1513 149.434,-904.0497"/>
</g>
<!-- Node5 -->
<g id="node4" class="node">
<title>Node5</title>
<g id="a_node4"><a xlink:href="../../d1/db8/simulation__context_8hpp.html" target="_top" xlink:title="Contains definition and implementation of Simulation_context class. ">
<polygon fill="#ffffff" stroke="#000000" points="153.5,-448.5 153.5,-467.5 272.5,-467.5 272.5,-448.5 153.5,-448.5"/>
<text text-anchor="middle" x="213" y="-455.5" font-family="Helvetica,sans-Serif" font-size="10.00" fill="#000000">simulation_context.hpp</text>
</a>
</g>
</g>
<!-- Node4&#45;&gt;Node5 -->
<g id="edge3" class="edge">
<title>Node4&#45;&gt;Node5</title>
<path fill="none" stroke="#191970" d="M178.511,-831.4209C167.2634,-809.7168 151,-772.3882 151,-738 151,-738 151,-738 151,-570 151,-527.5504 185.5127,-486.0981 203.0386,-467.7848"/>
<polygon fill="#191970" stroke="#191970" points="175.569,-833.3395 183.393,-840.4834 181.7317,-830.0196 175.569,-833.3395"/>
</g>
<!-- Node19 -->
<g id="node18" class="node">
<title>Node19</title>
<g id="a_node18"><a xlink:href="../../db/df7/atom__type_8hpp.html" target="_top" xlink:title="Contains declaration and implementation of sirius::Atom_type class. ">
<polygon fill="#ffffff" stroke="#000000" points="243.5,-784.5 243.5,-803.5 326.5,-803.5 326.5,-784.5 243.5,-784.5"/>
<text text-anchor="middle" x="285" y="-791.5" font-family="Helvetica,sans-Serif" font-size="10.00" fill="#000000">atom_type.hpp</text>
</a>
</g>
</g>
<!-- Node4&#45;&gt;Node19 -->
<g id="edge25" class="edge">
<title>Node4&#45;&gt;Node19</title>
<path fill="none" stroke="#191970" d="M214.6346,-835.0465C231.7159,-825.0824 253.664,-812.2794 268.4697,-803.6427"/>
<polygon fill="#191970" stroke="#191970" points="212.5962,-832.1836 205.7219,-840.2455 216.1233,-838.23 212.5962,-832.1836"/>
</g>
<!-- Node22 -->
<g id="node21" class="node">
<title>Node22</title>
<g id="a_node21"><a xlink:href="../../d4/d91/unit__cell_8hpp.html" target="_top" xlink:title="Contains definition and partial implementation of sirius::Unit_cell class. ">
<polygon fill="#ffffff" stroke="#000000" points="234.5,-616.5 234.5,-635.5 307.5,-635.5 307.5,-616.5 234.5,-616.5"/>
<text text-anchor="middle" x="271" y="-623.5" font-family="Helvetica,sans-Serif" font-size="10.00" fill="#000000">unit_cell.hpp</text>
</a>
</g>
</g>
<!-- Node4&#45;&gt;Node22 -->
<g id="edge36" class="edge">
<title>Node4&#45;&gt;Node22</title>
<path fill="none" stroke="#191970" d="M189.7369,-829.9394C191.1777,-805.264 195.4335,-762.4179 208,-728 217.9862,-700.649 226.6798,-696.7608 242,-672 249.749,-659.476 258.8227,-645.1341 264.7291,-635.8405"/>
<polygon fill="#191970" stroke="#191970" points="186.2284,-830.033 189.2423,-840.1901 193.2202,-830.3704 186.2284,-830.033"/>
</g>
<!-- Node6 -->
<g id="node5" class="node">
<title>Node6</title>
<g id="a_node5"><a xlink:href="../../db/d74/hubbard_8hpp.html" target="_top" xlink:title="Contains declaration and partial implementation of sirius::Hubbard class. ">
<polygon fill="#ffffff" stroke="#000000" points="79.5,-392.5 79.5,-411.5 152.5,-411.5 152.5,-392.5 79.5,-392.5"/>
<text text-anchor="middle" x="116" y="-399.5" font-family="Helvetica,sans-Serif" font-size="10.00" fill="#000000">hubbard.hpp</text>
</a>
</g>
</g>
<!-- Node5&#45;&gt;Node6 -->
<g id="edge4" class="edge">
<title>Node5&#45;&gt;Node6</title>
<path fill="none" stroke="#191970" d="M187.0984,-443.0465C169.8391,-433.0824 147.6624,-420.2794 132.7025,-411.6427"/>
<polygon fill="#191970" stroke="#191970" points="185.6936,-446.2768 196.1039,-448.2455 189.1935,-440.2146 185.6936,-446.2768"/>
</g>
<!-- Node10 -->
<g id="node9" class="node">
<title>Node10</title>
<g id="a_node9"><a xlink:href="../../de/dec/hamiltonian_8hpp.html" target="_top" xlink:title="Contains declaration and definition of sirius::Hamiltonian class. ">
<polygon fill="#ffffff" stroke="#000000" points="70.5,-168.5 70.5,-187.5 157.5,-187.5 157.5,-168.5 70.5,-168.5"/>
<text text-anchor="middle" x="114" y="-175.5" font-family="Helvetica,sans-Serif" font-size="10.00" fill="#000000">hamiltonian.hpp</text>
</a>
</g>
</g>
<!-- Node5&#45;&gt;Node10 -->
<g id="edge11" class="edge">
<title>Node5&#45;&gt;Node10</title>
<path fill="none" stroke="#191970" d="M143.4066,-447.4529C118.0053,-440.7508 90.5087,-429.8171 70,-412 45.3905,-390.6203 38,-378.5993 38,-346 38,-346 38,-346 38,-290 38,-245.3528 79.864,-205.2845 101.4501,-187.5918"/>
<polygon fill="#191970" stroke="#191970" points="142.8441,-450.9187 153.3902,-449.9044 144.5134,-444.1206 142.8441,-450.9187"/>
</g>
<!-- Node12 -->
<g id="node11" class="node">
<title>Node12</title>
<g id="a_node11"><a xlink:href="../../d3/d6a/periodic__function_8hpp.html" target="_top" xlink:title="Contains declaration and partial implementation of sirius::Periodic_function class. ">
<polygon fill="#ffffff" stroke="#000000" points="174,-392.5 174,-411.5 286,-411.5 286,-392.5 174,-392.5"/>
<text text-anchor="middle" x="230" y="-399.5" font-family="Helvetica,sans-Serif" font-size="10.00" fill="#000000">periodic_function.hpp</text>
</a>
</g>
</g>
<!-- Node5&#45;&gt;Node12 -->
<g id="edge12" class="edge">
<title>Node5&#45;&gt;Node12</title>
<path fill="none" stroke="#191970" d="M218.9337,-438.4538C221.6881,-429.3803 224.8393,-418.9998 227.0728,-411.6427"/>
<polygon fill="#191970" stroke="#191970" points="215.517,-437.66 215.9612,-448.2455 222.2151,-439.6934 215.517,-437.66"/>
</g>
<!-- Node7 -->
<g id="node6" class="node">
<title>Node7</title>
<g id="a_node6"><a xlink:href="../../df/dc4/dft__ground__state_8hpp.html" target="_top" xlink:title="Contains definition and partial implementation of sirius::DFT_ground_state class. ...">
<polygon fill="#ffffff" stroke="#000000" points="298.5,-224.5 298.5,-243.5 409.5,-243.5 409.5,-224.5 298.5,-224.5"/>
<text text-anchor="middle" x="354" y="-231.5" font-family="Helvetica,sans-Serif" font-size="10.00" fill="#000000">dft_ground_state.hpp</text>
</a>
</g>
</g>
<!-- Node6&#45;&gt;Node7 -->
<g id="edge5" class="edge">
<title>Node6&#45;&gt;Node7</title>
<path fill="none" stroke="#191970" d="M148.1447,-388.416C166.553,-380.0763 189.7465,-368.5978 209,-356 264.0587,-319.9743 321.5891,-265.7759 344.1241,-243.7879"/>
<polygon fill="#191970" stroke="#191970" points="146.7171,-385.2203 139.0007,-392.4804 149.5603,-391.6169 146.7171,-385.2203"/>
</g>
<!-- Node6&#45;&gt;Node10 -->
<g id="edge8" class="edge">
<title>Node6&#45;&gt;Node10</title>
<path fill="none" stroke="#191970" d="M115.8225,-382.1177C115.4078,-335.6713 114.3877,-221.4223 114.0856,-187.5891"/>
<polygon fill="#191970" stroke="#191970" points="112.3248,-382.4067 115.9141,-392.375 119.3245,-382.3441 112.3248,-382.4067"/>
</g>
<!-- Node7&#45;&gt;Node8 -->
<g id="edge6" class="edge">
<title>Node7&#45;&gt;Node8</title>
<path fill="none" stroke="#191970" d="M348.3786,-214.7267C337.906,-178.8207 315.7573,-102.8822 307.8665,-75.8279"/>
<polygon fill="#191970" stroke="#191970" points="345.0651,-215.8663 351.2252,-224.4862 351.7851,-213.9062 345.0651,-215.8663"/>
</g>
<!-- Node9 -->
<g id="node8" class="node">
<title>Node9</title>
<g id="a_node8"><a xlink:href="../../d4/d53/sirius__api_8cpp.html" target="_top" xlink:title="Fortran API. ">
<polygon fill="#ffffff" stroke="#000000" points="266,-.5 266,-19.5 344,-19.5 344,-.5 266,-.5"/>
<text text-anchor="middle" x="305" y="-7.5" font-family="Helvetica,sans-Serif" font-size="10.00" fill="#000000">sirius_api.cpp</text>
</a>
</g>
</g>
<!-- Node8&#45;&gt;Node9 -->
<g id="edge7" class="edge">
<title>Node8&#45;&gt;Node9</title>
<path fill="none" stroke="#191970" d="M305,-46.1575C305,-37.155 305,-26.9199 305,-19.6427"/>
<polygon fill="#191970" stroke="#191970" points="301.5001,-46.2455 305,-56.2455 308.5001,-46.2456 301.5001,-46.2455"/>
</g>
<!-- Node11 -->
<g id="node10" class="node">
<title>Node11</title>
<g id="a_node10"><a xlink:href="../../da/d3d/band_8hpp.html" target="_top" xlink:title="Contains declaration and partial implementation of sirius::Band class. ">
<polygon fill="#ffffff" stroke="#000000" points="241,-112.5 241,-131.5 299,-131.5 299,-112.5 241,-112.5"/>
<text text-anchor="middle" x="270" y="-119.5" font-family="Helvetica,sans-Serif" font-size="10.00" fill="#000000">band.hpp</text>
</a>
</g>
</g>
<!-- Node10&#45;&gt;Node11 -->
<g id="edge9" class="edge">
<title>Node10&#45;&gt;Node11</title>
<path fill="none" stroke="#191970" d="M150.4284,-164.9231C178.9461,-154.686 217.9381,-140.6889 243.5326,-131.5011"/>
<polygon fill="#191970" stroke="#191970" points="149.0468,-161.7004 140.8174,-168.3733 151.4119,-168.2887 149.0468,-161.7004"/>
</g>
<!-- Node11&#45;&gt;Node8 -->
<g id="edge10" class="edge">
<title>Node11&#45;&gt;Node8</title>
<path fill="none" stroke="#191970" d="M281.4815,-103.6296C287.3196,-94.2887 294.1752,-83.3197 298.9733,-75.6427"/>
<polygon fill="#191970" stroke="#191970" points="278.4286,-101.9105 276.0965,-112.2455 284.3646,-105.6206 278.4286,-101.9105"/>
</g>
<!-- Node12&#45;&gt;Node11 -->
<g id="edge13" class="edge">
<title>Node12&#45;&gt;Node11</title>
<path fill="none" stroke="#191970" d="M232.7911,-382.4621C240.67,-327.31 262.8822,-171.8245 268.6289,-131.5977"/>
<polygon fill="#191970" stroke="#191970" points="229.3264,-381.9673 231.3769,-392.3618 236.256,-382.9573 229.3264,-381.9673"/>
</g>
<!-- Node13 -->
<g id="node12" class="node">
<title>Node13</title>
<g id="a_node12"><a xlink:href="../../d0/d9a/density_8hpp.html" target="_top" xlink:title="Contains definition and partial implementation of sirius::Density class. ">
<polygon fill="#ffffff" stroke="#000000" points="132,-336.5 132,-355.5 200,-355.5 200,-336.5 132,-336.5"/>
<text text-anchor="middle" x="166" y="-343.5" font-family="Helvetica,sans-Serif" font-size="10.00" fill="#000000">density.hpp</text>
</a>
</g>
</g>
<!-- Node12&#45;&gt;Node13 -->
<g id="edge14" class="edge">
<title>Node12&#45;&gt;Node13</title>
<path fill="none" stroke="#191970" d="M211.3086,-385.645C200.1781,-375.9058 186.4337,-363.8795 177.0202,-355.6427"/>
<polygon fill="#191970" stroke="#191970" points="209.0215,-388.2945 218.8521,-392.2455 213.631,-383.0264 209.0215,-388.2945"/>
</g>
<!-- Node16 -->
<g id="node15" class="node">
<title>Node16</title>
<g id="a_node15"><a xlink:href="../../d5/d72/non__local__functor_8hpp.html" target="_top" xlink:title="Common operation for forces and stress tensor. ">
<polygon fill="#ffffff" stroke="#000000" points="296.5,-336.5 296.5,-355.5 411.5,-355.5 411.5,-336.5 296.5,-336.5"/>
<text text-anchor="middle" x="354" y="-343.5" font-family="Helvetica,sans-Serif" font-size="10.00" fill="#000000">non_local_functor.hpp</text>
</a>
</g>
</g>
<!-- Node12&#45;&gt;Node16 -->
<g id="edge19" class="edge">
<title>Node12&#45;&gt;Node16</title>
<path fill="none" stroke="#191970" d="M260.4524,-388.2473C282.9722,-378.0771 313.0617,-364.4883 332.9618,-355.5011"/>
<polygon fill="#191970" stroke="#191970" points="258.9895,-385.0675 251.3164,-392.3733 261.8706,-391.4471 258.9895,-385.0675"/>
</g>
<!-- Node18 -->
<g id="node17" class="node">
<title>Node18</title>
<g id="a_node17"><a xlink:href="../../d6/d1e/force_8hpp.html" target="_top" xlink:title="Contains defintion and implementation of sirius::Force class. ">
<polygon fill="#ffffff" stroke="#000000" points="408,-280.5 408,-299.5 466,-299.5 466,-280.5 408,-280.5"/>
<text text-anchor="middle" x="437" y="-287.5" font-family="Helvetica,sans-Serif" font-size="10.00" fill="#000000">force.hpp</text>
</a>
</g>
</g>
<!-- Node12&#45;&gt;Node18 -->
<g id="edge24" class="edge">
<title>Node12&#45;&gt;Node18</title>
<path fill="none" stroke="#191970" d="M296.1302,-393.3238C343.7067,-385.7653 402.4538,-373.2925 420,-356 435.3379,-340.8838 437.4596,-313.9024 437.4046,-299.5669"/>
<polygon fill="#191970" stroke="#191970" points="295.5151,-389.8772 286.1662,-394.862 296.5832,-396.7952 295.5151,-389.8772"/>
</g>
<!-- Node14 -->
<g id="node13" class="node">
<title>Node14</title>
<g id="a_node13"><a xlink:href="../../de/df2/potential_8hpp.html" target="_top" xlink:title="Contains declaration and partial implementation of sirius::Potential class. ">
<polygon fill="#ffffff" stroke="#000000" points="128,-280.5 128,-299.5 202,-299.5 202,-280.5 128,-280.5"/>
<text text-anchor="middle" x="165" y="-287.5" font-family="Helvetica,sans-Serif" font-size="10.00" fill="#000000">potential.hpp</text>
</a>
</g>
</g>
<!-- Node13&#45;&gt;Node14 -->
<g id="edge15" class="edge">
<title>Node13&#45;&gt;Node14</title>
<path fill="none" stroke="#191970" d="M165.6457,-326.1575C165.4849,-317.155 165.3021,-306.9199 165.1722,-299.6427"/>
<polygon fill="#191970" stroke="#191970" points="162.1477,-326.3097 165.8258,-336.2455 169.1466,-326.1846 162.1477,-326.3097"/>
</g>
<!-- Node14&#45;&gt;Node10 -->
<g id="edge16" class="edge">
<title>Node14&#45;&gt;Node10</title>
<path fill="none" stroke="#191970" d="M150.6364,-272.2884C144.5222,-264.0697 137.7266,-253.9352 133,-244 123.9845,-225.0495 118.3849,-200.9606 115.7655,-187.7557"/>
<polygon fill="#191970" stroke="#191970" points="147.9875,-274.5845 156.8732,-280.3546 153.5252,-270.3027 147.9875,-274.5845"/>
</g>
<!-- Node15 -->
<g id="node14" class="node">
<title>Node15</title>
<g id="a_node14"><a xlink:href="../../d3/d2c/local__operator_8hpp.html" target="_top" xlink:title="Contains declaration and implementation of sirius::Local_operator class. ">
<polygon fill="#ffffff" stroke="#000000" points="142.5,-224.5 142.5,-243.5 241.5,-243.5 241.5,-224.5 142.5,-224.5"/>
<text text-anchor="middle" x="192" y="-231.5" font-family="Helvetica,sans-Serif" font-size="10.00" fill="#000000">local_operator.hpp</text>
</a>
</g>
</g>
<!-- Node14&#45;&gt;Node15 -->
<g id="edge17" class="edge">
<title>Node14&#45;&gt;Node15</title>
<path fill="none" stroke="#191970" d="M174.1396,-271.0437C178.5805,-261.8331 183.7265,-251.1598 187.3509,-243.6427"/>
<polygon fill="#191970" stroke="#191970" points="170.8934,-269.7178 169.703,-280.2455 177.1988,-272.7579 170.8934,-269.7178"/>
</g>
<!-- Node15&#45;&gt;Node10 -->
<g id="edge18" class="edge">
<title>Node15&#45;&gt;Node10</title>
<path fill="none" stroke="#191970" d="M170.0064,-218.2097C156.3071,-208.3743 139.1264,-196.0394 127.4309,-187.6427"/>
<polygon fill="#191970" stroke="#191970" points="168.2489,-221.2566 178.4134,-224.2455 172.3314,-215.5703 168.2489,-221.2566"/>
</g>
<!-- Node17 -->
<g id="node16" class="node">
<title>Node17</title>
<g id="a_node16"><a xlink:href="../../d7/dd1/stress_8hpp.html" target="_top" xlink:title="Stress tensor calculation. ">
<polygon fill="#ffffff" stroke="#000000" points="322.5,-280.5 322.5,-299.5 385.5,-299.5 385.5,-280.5 322.5,-280.5"/>
<text text-anchor="middle" x="354" y="-287.5" font-family="Helvetica,sans-Serif" font-size="10.00" fill="#000000">stress.hpp</text>
</a>
</g>
</g>
<!-- Node16&#45;&gt;Node17 -->
<g id="edge20" class="edge">
<title>Node16&#45;&gt;Node17</title>
<path fill="none" stroke="#191970" d="M354,-326.1575C354,-317.155 354,-306.9199 354,-299.6427"/>
<polygon fill="#191970" stroke="#191970" points="350.5001,-326.2455 354,-336.2455 357.5001,-326.2456 350.5001,-326.2455"/>
</g>
<!-- Node16&#45;&gt;Node18 -->
<g id="edge22" class="edge">
<title>Node16&#45;&gt;Node18</title>
<path fill="none" stroke="#191970" d="M376.988,-330.49C391.6322,-320.6096 410.1444,-308.1194 422.7082,-299.6427"/>
<polygon fill="#191970" stroke="#191970" points="374.7896,-327.7511 368.4575,-336.2455 378.7047,-333.5539 374.7896,-327.7511"/>
</g>
<!-- Node17&#45;&gt;Node7 -->
<g id="edge21" class="edge">
<title>Node17&#45;&gt;Node7</title>
<path fill="none" stroke="#191970" d="M354,-270.1575C354,-261.155 354,-250.9199 354,-243.6427"/>
<polygon fill="#191970" stroke="#191970" points="350.5001,-270.2455 354,-280.2455 357.5001,-270.2456 350.5001,-270.2455"/>
</g>
<!-- Node18&#45;&gt;Node7 -->
<g id="edge23" class="edge">
<title>Node18&#45;&gt;Node7</title>
<path fill="none" stroke="#191970" d="M414.012,-274.49C399.3678,-264.6096 380.8556,-252.1194 368.2918,-243.6427"/>
<polygon fill="#191970" stroke="#191970" points="412.2953,-277.5539 422.5425,-280.2455 416.2104,-271.7511 412.2953,-277.5539"/>
</g>
<!-- Node20 -->
<g id="node19" class="node">
<title>Node20</title>
<g id="a_node19"><a xlink:href="../../d6/d50/atom__symmetry__class_8hpp.html" target="_top" xlink:title="Contains declaration and partial implementation of sirius::Atom_symmetry_class class. ">
<polygon fill="#ffffff" stroke="#000000" points="217.5,-728.5 217.5,-747.5 352.5,-747.5 352.5,-728.5 217.5,-728.5"/>
<text text-anchor="middle" x="285" y="-735.5" font-family="Helvetica,sans-Serif" font-size="10.00" fill="#000000">atom_symmetry_class.hpp</text>
</a>
</g>
</g>
<!-- Node19&#45;&gt;Node20 -->
<g id="edge26" class="edge">
<title>Node19&#45;&gt;Node20</title>
<path fill="none" stroke="#191970" d="M285,-774.1575C285,-765.155 285,-754.9199 285,-747.6427"/>
<polygon fill="#191970" stroke="#191970" points="281.5001,-774.2455 285,-784.2455 288.5001,-774.2456 281.5001,-774.2455"/>
</g>
<!-- Node21 -->
<g id="node20" class="node">
<title>Node21</title>
<g id="a_node20"><a xlink:href="../../de/d6d/atom_8hpp.html" target="_top" xlink:title="Contains declaration and partial implementation of sirius::Atom class. ">
<polygon fill="#ffffff" stroke="#000000" points="251,-672.5 251,-691.5 309,-691.5 309,-672.5 251,-672.5"/>
<text text-anchor="middle" x="280" y="-679.5" font-family="Helvetica,sans-Serif" font-size="10.00" fill="#000000">atom.hpp</text>
</a>
</g>
</g>
<!-- Node20&#45;&gt;Node21 -->
<g id="edge27" class="edge">
<title>Node20&#45;&gt;Node21</title>
<path fill="none" stroke="#191970" d="M283.2283,-718.1575C282.4246,-709.155 281.5107,-698.9199 280.861,-691.6427"/>
<polygon fill="#191970" stroke="#191970" points="279.7535,-718.5965 284.1291,-728.2455 286.7258,-717.9739 279.7535,-718.5965"/>
</g>
<!-- Node21&#45;&gt;Node22 -->
<g id="edge28" class="edge">
<title>Node21&#45;&gt;Node22</title>
<path fill="none" stroke="#191970" d="M276.811,-662.1575C275.3642,-653.155 273.7193,-642.9199 272.5497,-635.6427"/>
<polygon fill="#191970" stroke="#191970" points="273.3898,-662.9276 278.4323,-672.2455 280.3011,-661.8168 273.3898,-662.9276"/>
</g>
<!-- Node23 -->
<g id="node22" class="node">
<title>Node23</title>
<g id="a_node22"><a xlink:href="../../d4/df7/radial__integrals_8hpp.html" target="_top" xlink:title="Representation of various radial integrals. ">
<polygon fill="#ffffff" stroke="#000000" points="187,-560.5 187,-579.5 291,-579.5 291,-560.5 187,-560.5"/>
<text text-anchor="middle" x="239" y="-567.5" font-family="Helvetica,sans-Serif" font-size="10.00" fill="#000000">radial_integrals.hpp</text>
</a>
</g>
</g>
<!-- Node22&#45;&gt;Node23 -->
<g id="edge29" class="edge">
<title>Node22&#45;&gt;Node23</title>
<path fill="none" stroke="#191970" d="M260.3355,-607.3372C255.0346,-598.0605 248.8513,-587.2398 244.5101,-579.6427"/>
<polygon fill="#191970" stroke="#191970" points="257.4257,-609.2996 265.426,-616.2455 263.5034,-605.8266 257.4257,-609.2996"/>
</g>
<!-- Node23&#45;&gt;Node5 -->
<g id="edge35" class="edge">
<title>Node23&#45;&gt;Node5</title>
<path fill="none" stroke="#191970" d="M234.4961,-550.5987C228.87,-526.363 219.4664,-485.8551 215.2111,-467.5249"/>
<polygon fill="#191970" stroke="#191970" points="231.1125,-551.5014 236.7833,-560.4509 237.9312,-549.9185 231.1125,-551.5014"/>
</g>
<!-- Node23&#45;&gt;Node6 -->
<g id="edge34" class="edge">
<title>Node23&#45;&gt;Node6</title>
<path fill="none" stroke="#191970" d="M220.1265,-553.5282C199.306,-534.5702 165.8609,-501.6926 144,-468 132.0763,-449.6229 123.3133,-425.319 119.0009,-411.9237"/>
<polygon fill="#191970" stroke="#191970" points="217.9112,-556.2428 227.6938,-560.3114 222.5836,-551.0304 217.9112,-556.2428"/>
</g>
<!-- Node24 -->
<g id="node23" class="node">
<title>Node24</title>
<g id="a_node23"><a xlink:href="../../d3/d1c/augmentation__operator_8hpp.html" target="_top" xlink:title="Contains implementation of sirius::Augmentation_operator class. ">
<polygon fill="#ffffff" stroke="#000000" points="256.5,-504.5 256.5,-523.5 395.5,-523.5 395.5,-504.5 256.5,-504.5"/>
<text text-anchor="middle" x="326" y="-511.5" font-family="Helvetica,sans-Serif" font-size="10.00" fill="#000000">augmentation_operator.hpp</text>
</a>
</g>
</g>
<!-- Node23&#45;&gt;Node24 -->
<g id="edge30" class="edge">
<title>Node23&#45;&gt;Node24</title>
<path fill="none" stroke="#191970" d="M262.6625,-554.769C278.0791,-544.8456 297.726,-532.1994 311.0194,-523.6427"/>
<polygon fill="#191970" stroke="#191970" points="260.6685,-551.89 254.1542,-560.2455 264.4573,-557.7761 260.6685,-551.89"/>
</g>
<!-- Node24&#45;&gt;Node5 -->
<g id="edge33" class="edge">
<title>Node24&#45;&gt;Node5</title>
<path fill="none" stroke="#191970" d="M297.4208,-499.8368C276.9942,-489.7139 250.0638,-476.3679 232.1719,-467.5011"/>
<polygon fill="#191970" stroke="#191970" points="296.0604,-503.0688 306.5746,-504.3733 299.1687,-496.7968 296.0604,-503.0688"/>
</g>
<!-- Node24&#45;&gt;Node16 -->
<g id="edge31" class="edge">
<title>Node24&#45;&gt;Node16</title>
<path fill="none" stroke="#191970" d="M329.29,-494.2601C335.3055,-458.1669 347.8724,-382.7656 352.362,-355.8279"/>
<polygon fill="#191970" stroke="#191970" points="325.7773,-494.0469 327.5856,-504.4862 332.6821,-495.1977 325.7773,-494.0469"/>
</g>
<!-- Node24&#45;&gt;Node18 -->
<g id="edge32" class="edge">
<title>Node24&#45;&gt;Node18</title>
<path fill="none" stroke="#191970" d="M343.9062,-497.1272C370.9242,-470.2953 420.9749,-414.8831 440,-356 446.2066,-336.7903 442.4612,-312.7986 439.5141,-299.6798"/>
<polygon fill="#191970" stroke="#191970" points="341.3522,-494.729 336.6304,-504.2135 346.2362,-499.7436 341.3522,-494.729"/>
</g>
<!-- Node25&#45;&gt;Node22 -->
<g id="edge39" class="edge">
<title>Node25&#45;&gt;Node22</title>
<path fill="none" stroke="#191970" d="M409.9793,-722.6813C376.2008,-699.1832 312.5846,-654.9284 284.692,-635.5249"/>
<polygon fill="#191970" stroke="#191970" points="408.0654,-725.6134 418.2732,-728.4509 412.0629,-719.8671 408.0654,-725.6134"/>
</g>
<!-- Node26&#45;&gt;Node8 -->
<g id="edge42" class="edge">
<title>Node26&#45;&gt;Node8</title>
<path fill="none" stroke="#191970" d="M515.9851,-830.2186C518.0548,-807.8571 521,-770.3514 521,-738 521,-738 521,-738 521,-178 521,-92.4612 385.8476,-72.1684 329.3581,-67.4225"/>
<polygon fill="#191970" stroke="#191970" points="512.4771,-830.1349 515.0029,-840.4242 519.4449,-830.8055 512.4771,-830.1349"/>
</g>
<!-- Node26&#45;&gt;Node19 -->
<g id="edge41" class="edge">
<title>Node26&#45;&gt;Node19</title>
<path fill="none" stroke="#191970" d="M465.122,-838.0473C422.9728,-827.7401 362.9138,-813.0532 323.945,-803.5237"/>
<polygon fill="#191970" stroke="#191970" points="464.3485,-841.4612 474.8937,-840.4369 466.0113,-834.6616 464.3485,-841.4612"/>
</g>
<!-- Node27 -->
<g id="node26" class="node">
<title>Node27</title>
<g id="a_node26"><a xlink:href="../../d8/d64/free__atom_8hpp.html" target="_top" xlink:title="Free atom full&#45;potential solver. ">
<polygon fill="#ffffff" stroke="#000000" points="549.5,-784.5 549.5,-803.5 630.5,-803.5 630.5,-784.5 549.5,-784.5"/>
<text text-anchor="middle" x="590" y="-791.5" font-family="Helvetica,sans-Serif" font-size="10.00" fill="#000000">free_atom.hpp</text>
</a>
</g>
</g>
<!-- Node26&#45;&gt;Node27 -->
<g id="edge43" class="edge">
<title>Node26&#45;&gt;Node27</title>
<path fill="none" stroke="#191970" d="M535.4297,-834.2097C548.7777,-824.3743 565.5179,-812.0394 576.9135,-803.6427"/>
<polygon fill="#191970" stroke="#191970" points="533.2126,-831.4958 527.2382,-840.2455 537.365,-837.1312 533.2126,-831.4958"/>
</g>
</g>
</svg>
        <g id="navigator" transform="translate(0 0)" fill="#404254">
                <rect fill="#f2f5e9" fill-opacity="0.5" stroke="#606060" stroke-width=".5" x="0" y="0" width="60" height="60"/>
                <use id="zoomplus" xlink:href="#zoomPlus" x="17" y="9" onmousedown="handleZoom(evt,'in')"/>
                <use id="zoomminus" xlink:href="#zoomMin" x="42" y="9" onmousedown="handleZoom(evt,'out')"/>
                <use id="reset" xlink:href="#resetDef" x="30" y="36" onmousedown="handleReset()"/>
                <g id="arrowUp" xlink:href="#dirArrow" transform="translate(30 24)" onmousedown="handlePan(0,-1)">
                  <use xlink:href="#rim" fill="#404040">
                        <set attributeName="fill" to="#808080" begin="arrowUp.mouseover" end="arrowUp.mouseout"/>
                  </use>
                  <path fill="none" stroke="white" stroke-width="1.5" d="M0,-3.0v7 M-2.5,-0.5L0,-3.0L2.5,-0.5"/>
                </g>
                <g id="arrowRight" xlink:href="#dirArrow" transform="rotate(90) translate(36 -43)" onmousedown="handlePan(1,0)">
                  <use xlink:href="#rim" fill="#404040">
                        <set attributeName="fill" to="#808080" begin="arrowRight.mouseover" end="arrowRight.mouseout"/>
                  </use>
                  <path fill="none" stroke="white" stroke-width="1.5" d="M0,-3.0v7 M-2.5,-0.5L0,-3.0L2.5,-0.5"/>
                </g>
                <g id="arrowDown" xlink:href="#dirArrow" transform="rotate(180) translate(-30 -48)" onmousedown="handlePan(0,1)">
                  <use xlink:href="#rim" fill="#404040">
                        <set attributeName="fill" to="#808080" begin="arrowDown.mouseover" end="arrowDown.mouseout"/>
                  </use>
                  <path fill="none" stroke="white" stroke-width="1.5" d="M0,-3.0v7 M-2.5,-0.5L0,-3.0L2.5,-0.5"/>
                </g>
                <g id="arrowLeft" xlink:href="#dirArrow" transform="rotate(270) translate(-36 17)" onmousedown="handlePan(-1,0)">
                  <use xlink:href="#rim" fill="#404040">
                        <set attributeName="fill" to="#808080" begin="arrowLeft.mouseover" end="arrowLeft.mouseout"/>
                  </use>
                  <path fill="none" stroke="white" stroke-width="1.5" d="M0,-3.0v7 M-2.5,-0.5L0,-3.0L2.5,-0.5"/>
                </g>
        </g>
        <svg viewBox="0 0 15 15" width="100%" height="30px" preserveAspectRatio="xMaxYMin meet">
         <g id="arrow_out" transform="scale(0.3 0.3)">
          <a xlink:href="constants_8hpp__dep__incl_org.svg" target="_base">
           <rect id="button" ry="5" rx="5" y="6" x="6" height="38" width="38"
                fill="#f2f5e9" fill-opacity="0.5" stroke="#606060" stroke-width="1.0"/>
           <path id="arrow"
             d="M 11.500037,31.436501 C 11.940474,20.09759 22.043105,11.32322 32.158766,21.979434 L 37.068811,17.246167 C 37.068811,17.246167 37.088388,32 37.088388,32 L 22.160133,31.978069 C 22.160133,31.978069 26.997745,27.140456 26.997745,27.140456 C 18.528582,18.264221 13.291696,25.230495 11.500037,31.436501 z"
             style="fill:#404040;"/>
          </a>
         </g>
        </svg>
</svg>
