<?xml version="1.0" encoding="UTF-8" standalone="no"?>
<!DOCTYPE svg PUBLIC "-//W3C//DTD SVG 1.1//EN"
 "http://www.w3.org/Graphics/SVG/1.1/DTD/svg11.dtd">
<!-- Generated by graphviz version 2.40.1 (20161225.0304)
 -->
<!-- Title: potential.hpp Pages: 1 -->
<svg width="2338pt" height="677pt"
 viewBox="0.00 0.00 2337.50 677.00" xmlns="http://www.w3.org/2000/svg" xmlns:xlink="http://www.w3.org/1999/xlink">
<g id="graph0" class="graph" transform="scale(1 1) rotate(0) translate(4 673)">
<title>potential.hpp</title>
<polygon fill="#ffffff" stroke="transparent" points="-4,4 -4,-673 2333.5,-673 2333.5,4 -4,4"/>
<!-- Node0 -->
<g id="node1" class="node">
<title>Node0</title>
<polygon fill="#bfbfbf" stroke="#000000" points="1504.5,-649.5 1504.5,-668.5 1578.5,-668.5 1578.5,-649.5 1504.5,-649.5"/>
<text text-anchor="middle" x="1541.5" y="-656.5" font-family="Helvetica,sans-Serif" font-size="10.00" fill="#000000">potential.hpp</text>
</g>
<!-- Node1 -->
<g id="node2" class="node">
<title>Node1</title>
<g id="a_node2"><a xlink:href="../../d8/d65/periodic__function_8h.html" target="_top" xlink:title="Contains declaration and partial implementation of sirius::Periodic_function class. ">
<polygon fill="#ffffff" stroke="#000000" points="654.5,-521 654.5,-540 754.5,-540 754.5,-521 654.5,-521"/>
<text text-anchor="middle" x="704.5" y="-528" font-family="Helvetica,sans-Serif" font-size="10.00" fill="#000000">periodic_function.h</text>
</a>
</g>
</g>
<!-- Node0&#45;&gt;Node1 -->
<g id="edge1" class="edge">
<title>Node0&#45;&gt;Node1</title>
<path fill="none" stroke="#191970" d="M1504.3169,-658.5793C1358.9668,-656.6924 833.9806,-647.526 768.5,-613 742.1463,-599.1045 723.2523,-569.0474 713.1018,-549.3074"/>
<polygon fill="#191970" stroke="#191970" points="716.1248,-547.5211 708.5975,-540.0653 709.8324,-550.5879 716.1248,-547.5211"/>
</g>
<!-- Node2 -->
<g id="node3" class="node">
<title>Node2</title>
<g id="a_node3"><a xlink:href="../../d5/d5b/simulation__context_8h.html" target="_top" xlink:title="Contains definition and implementation of Simulation_context class. ">
<polygon fill="#ffffff" stroke="#000000" points="831.5,-459.5 831.5,-478.5 939.5,-478.5 939.5,-459.5 831.5,-459.5"/>
<text text-anchor="middle" x="885.5" y="-466.5" font-family="Helvetica,sans-Serif" font-size="10.00" fill="#000000">simulation_context.h</text>
</a>
</g>
</g>
<!-- Node0&#45;&gt;Node2 -->
<g id="edge46" class="edge">
<title>Node0&#45;&gt;Node2</title>
<path fill="none" stroke="#191970" d="M1504.4773,-656.1415C1361.1073,-644.7039 848.0724,-600.2239 801.5,-546 792.523,-535.5482 794.4768,-526.8534 801.5,-515 810.3436,-500.0742 825.9332,-489.6736 841.3002,-482.589"/>
<polygon fill="#191970" stroke="#191970" points="842.9211,-485.7041 850.7773,-478.5956 840.2029,-479.2534 842.9211,-485.7041"/>
</g>
<!-- Node115 -->
<g id="node19" class="node">
<title>Node115</title>
<g id="a_node19"><a xlink:href="../../db/d16/spheric__function_8h.html" target="_top" xlink:title="Contains declaration and implementation of sirius::Spheric_function and sirius::Spheric_function_grad...">
<polygon fill="#ffffff" stroke="#000000" points="533.5,-459.5 533.5,-478.5 631.5,-478.5 631.5,-459.5 533.5,-459.5"/>
<text text-anchor="middle" x="582.5" y="-466.5" font-family="Helvetica,sans-Serif" font-size="10.00" fill="#000000">spheric_function.h</text>
</a>
</g>
</g>
<!-- Node0&#45;&gt;Node115 -->
<g id="edge45" class="edge">
<title>Node0&#45;&gt;Node115</title>
<path fill="none" stroke="#191970" d="M1504.3036,-658.19C1355.0765,-654.7636 804.3514,-640.3623 731.5,-613 667.1316,-588.8238 615.8226,-520.4782 593.9533,-487.3945"/>
<polygon fill="#191970" stroke="#191970" points="596.7122,-485.2144 588.3533,-478.7044 590.8281,-489.0062 596.7122,-485.2144"/>
</g>
<!-- Node132 -->
<g id="node33" class="node">
<title>Node132</title>
<g id="a_node33"><a xlink:href="../../d0/d9a/density_8hpp.html" target="_top" xlink:title="Contains definition and partial implementation of sirius::Density class. ">
<polygon fill="#ffffff" stroke="#000000" points="1364.5,-588 1364.5,-607 1468.5,-607 1468.5,-588 1364.5,-588"/>
<text text-anchor="middle" x="1416.5" y="-595" font-family="Helvetica,sans-Serif" font-size="10.00" fill="#000000">Density/density.hpp</text>
</a>
</g>
</g>
<!-- Node0&#45;&gt;Node132 -->
<g id="edge47" class="edge">
<title>Node0&#45;&gt;Node132</title>
<path fill="none" stroke="#191970" d="M1521.9688,-649.3906C1501.3292,-639.2359 1468.5724,-623.1196 1445.0398,-611.5416"/>
<polygon fill="#191970" stroke="#191970" points="1446.412,-608.3161 1435.8941,-607.0419 1443.3218,-614.5971 1446.412,-608.3161"/>
</g>
<!-- Node156 -->
<g id="node46" class="node">
<title>Node156</title>
<g id="a_node46"><a xlink:href="../../d9/d3d/generate__d__operator__matrix_8hpp.html" target="_top" xlink:title="Contains implementation of sirius::Potential::generate_D_operator_matrix method. ">
<polygon fill="#ffffff" stroke="#000000" points="1486.5,-582.5 1486.5,-612.5 1596.5,-612.5 1596.5,-582.5 1486.5,-582.5"/>
<text text-anchor="start" x="1494.5" y="-600.5" font-family="Helvetica,sans-Serif" font-size="10.00" fill="#000000">generate_d_operator</text>
<text text-anchor="middle" x="1541.5" y="-589.5" font-family="Helvetica,sans-Serif" font-size="10.00" fill="#000000">_matrix.hpp</text>
</a>
</g>
</g>
<!-- Node0&#45;&gt;Node156 -->
<g id="edge62" class="edge">
<title>Node0&#45;&gt;Node156</title>
<path fill="none" stroke="#191970" d="M1541.5,-649.3906C1541.5,-642.2234 1541.5,-632.0862 1541.5,-622.671"/>
<polygon fill="#191970" stroke="#191970" points="1545.0001,-622.5446 1541.5,-612.5446 1538.0001,-622.5446 1545.0001,-622.5446"/>
</g>
<!-- Node157 -->
<g id="node47" class="node">
<title>Node157</title>
<g id="a_node47"><a xlink:href="../../de/d98/generate__pw__coefs_8hpp_source.html" target="_top" xlink:title="generate_pw_coefs.hpp">
<polygon fill="#ffffff" stroke="#000000" points="1615,-588 1615,-607 1738,-607 1738,-588 1615,-588"/>
<text text-anchor="middle" x="1676.5" y="-595" font-family="Helvetica,sans-Serif" font-size="10.00" fill="#000000">generate_pw_coefs.hpp</text>
</a>
</g>
</g>
<!-- Node0&#45;&gt;Node157 -->
<g id="edge63" class="edge">
<title>Node0&#45;&gt;Node157</title>
<path fill="none" stroke="#191970" d="M1562.5938,-649.3906C1585.0827,-639.1457 1620.8918,-622.8326 1646.3524,-611.2339"/>
<polygon fill="#191970" stroke="#191970" points="1647.9052,-614.3727 1655.5544,-607.0419 1645.0032,-608.0025 1647.9052,-614.3727"/>
</g>
<!-- Node158 -->
<g id="node48" class="node">
<title>Node158</title>
<g id="a_node48"><a xlink:href="../../d3/d59/xc_8hpp_source.html" target="_top" xlink:title="xc.hpp">
<polygon fill="#ffffff" stroke="#000000" points="1756.5,-588 1756.5,-607 1802.5,-607 1802.5,-588 1756.5,-588"/>
<text text-anchor="middle" x="1779.5" y="-595" font-family="Helvetica,sans-Serif" font-size="10.00" fill="#000000">xc.hpp</text>
</a>
</g>
</g>
<!-- Node0&#45;&gt;Node158 -->
<g id="edge64" class="edge">
<title>Node0&#45;&gt;Node158</title>
<path fill="none" stroke="#191970" d="M1578.6818,-653.3649C1620.4947,-646.419 1690.059,-633.0211 1747.5,-613 1749.103,-612.4413 1750.7308,-611.8237 1752.3597,-611.1664"/>
<polygon fill="#191970" stroke="#191970" points="1753.81,-614.3521 1761.5342,-607.1003 1750.9737,-607.9524 1753.81,-614.3521"/>
</g>
<!-- Node159 -->
<g id="node49" class="node">
<title>Node159</title>
<g id="a_node49"><a xlink:href="../../df/d0f/poisson_8hpp_source.html" target="_top" xlink:title="poisson.hpp">
<polygon fill="#ffffff" stroke="#000000" points="1820.5,-588 1820.5,-607 1890.5,-607 1890.5,-588 1820.5,-588"/>
<text text-anchor="middle" x="1855.5" y="-595" font-family="Helvetica,sans-Serif" font-size="10.00" fill="#000000">poisson.hpp</text>
</a>
</g>
</g>
<!-- Node0&#45;&gt;Node159 -->
<g id="edge65" class="edge">
<title>Node0&#45;&gt;Node159</title>
<path fill="none" stroke="#191970" d="M1578.604,-654.708C1631.0399,-648.1856 1729.57,-634.2455 1811.5,-613 1814.6359,-612.1868 1817.866,-611.2493 1821.0844,-610.2463"/>
<polygon fill="#191970" stroke="#191970" points="1822.2036,-613.5627 1830.5983,-607.0989 1820.005,-606.9169 1822.2036,-613.5627"/>
</g>
<!-- Node160 -->
<g id="node50" class="node">
<title>Node160</title>
<g id="a_node50"><a xlink:href="../../d6/d77/paw__potential_8hpp_source.html" target="_top" xlink:title="paw_potential.hpp">
<polygon fill="#ffffff" stroke="#000000" points="1908.5,-588 1908.5,-607 2006.5,-607 2006.5,-588 1908.5,-588"/>
<text text-anchor="middle" x="1957.5" y="-595" font-family="Helvetica,sans-Serif" font-size="10.00" fill="#000000">paw_potential.hpp</text>
</a>
</g>
</g>
<!-- Node0&#45;&gt;Node160 -->
<g id="edge66" class="edge">
<title>Node0&#45;&gt;Node160</title>
<path fill="none" stroke="#191970" d="M1578.6105,-655.8764C1643.9139,-650.0149 1783.4516,-635.8562 1899.5,-613 1904.5477,-612.0058 1909.805,-610.8188 1915.0036,-609.5503"/>
<polygon fill="#191970" stroke="#191970" points="1916.0314,-612.9003 1924.8576,-607.0396 1914.303,-606.117 1916.0314,-612.9003"/>
</g>
<!-- Node1&#45;&gt;Node2 -->
<g id="edge2" class="edge">
<title>Node1&#45;&gt;Node2</title>
<path fill="none" stroke="#191970" d="M732.7813,-520.8906C763.73,-510.3749 813.4942,-493.466 847.757,-481.8243"/>
<polygon fill="#191970" stroke="#191970" points="849.075,-485.073 857.4173,-478.5419 846.8229,-478.4452 849.075,-485.073"/>
</g>
<!-- Node1&#45;&gt;Node115 -->
<g id="edge26" class="edge">
<title>Node1&#45;&gt;Node115</title>
<path fill="none" stroke="#191970" d="M685.4375,-520.8906C665.3828,-510.7811 633.6066,-494.7628 610.6616,-483.1962"/>
<polygon fill="#191970" stroke="#191970" points="611.9337,-479.918 601.4286,-478.5419 608.7827,-486.1687 611.9337,-479.918"/>
</g>
<!-- Node131 -->
<g id="node32" class="node">
<title>Node131</title>
<g id="a_node32"><a xlink:href="../../d8/d1b/smooth__periodic__function_8h.html" target="_top" xlink:title="Contains declaration and implementation of sirius::Smooth_periodic_function and sirius::Smooth_period...">
<polygon fill="#ffffff" stroke="#000000" points="650,-459.5 650,-478.5 789,-478.5 789,-459.5 650,-459.5"/>
<text text-anchor="middle" x="719.5" y="-466.5" font-family="Helvetica,sans-Serif" font-size="10.00" fill="#000000">smooth_periodic_function.h</text>
</a>
</g>
</g>
<!-- Node1&#45;&gt;Node131 -->
<g id="edge44" class="edge">
<title>Node1&#45;&gt;Node131</title>
<path fill="none" stroke="#191970" d="M706.8438,-520.8906C708.9449,-512.276 712.0925,-499.3708 714.723,-488.5858"/>
<polygon fill="#191970" stroke="#191970" points="718.1539,-489.2894 717.1232,-478.7449 711.3532,-487.6307 718.1539,-489.2894"/>
</g>
<!-- Node3 -->
<g id="node4" class="node">
<title>Node3</title>
<polygon fill="#ffffff" stroke="#bfbfbf" points="738.5,-168.5 738.5,-187.5 796.5,-187.5 796.5,-168.5 738.5,-168.5"/>
<text text-anchor="middle" x="767.5" y="-175.5" font-family="Helvetica,sans-Serif" font-size="10.00" fill="#000000">algorithm</text>
</g>
<!-- Node2&#45;&gt;Node3 -->
<g id="edge3" class="edge">
<title>Node2&#45;&gt;Node3</title>
<path fill="none" stroke="#191970" d="M850.0246,-459.3628C829.117,-452.1863 803.3497,-440.5523 785.5,-423 758.4279,-396.379 748.5,-383.9681 748.5,-346 748.5,-346 748.5,-346 748.5,-290 748.5,-257.2688 756.4852,-219.9052 762.1022,-197.6716"/>
<polygon fill="#191970" stroke="#191970" points="765.5415,-198.3545 764.6965,-187.7934 758.7711,-196.5763 765.5415,-198.3545"/>
</g>
<!-- Node4 -->
<g id="node5" class="node">
<title>Node4</title>
<g id="a_node5"><a xlink:href="../../df/dfc/version_8h_source.html" target="_top" xlink:title="version.h">
<polygon fill="#ffffff" stroke="#000000" points="1023,-398 1023,-417 1080,-417 1080,-398 1023,-398"/>
<text text-anchor="middle" x="1051.5" y="-405" font-family="Helvetica,sans-Serif" font-size="10.00" fill="#000000">version.h</text>
</a>
</g>
</g>
<!-- Node2&#45;&gt;Node4 -->
<g id="edge4" class="edge">
<title>Node2&#45;&gt;Node4</title>
<path fill="none" stroke="#191970" d="M911.4375,-459.3906C939.5778,-448.9652 984.6793,-432.2559 1016.0726,-420.6252"/>
<polygon fill="#191970" stroke="#191970" points="1017.5834,-423.798 1025.7446,-417.0419 1015.1515,-417.234 1017.5834,-423.798"/>
</g>
<!-- Node5 -->
<g id="node6" class="node">
<title>Node5</title>
<g id="a_node6"><a xlink:href="../../d1/de1/simulation__parameters_8h.html" target="_top" xlink:title="Contains definition and implementation of sirius::Simulation_parameters_base class. ">
<polygon fill="#ffffff" stroke="#000000" points="814.5,-168.5 814.5,-187.5 940.5,-187.5 940.5,-168.5 814.5,-168.5"/>
<text text-anchor="middle" x="877.5" y="-175.5" font-family="Helvetica,sans-Serif" font-size="10.00" fill="#000000">simulation_parameters.h</text>
</a>
</g>
</g>
<!-- Node2&#45;&gt;Node5 -->
<g id="edge5" class="edge">
<title>Node2&#45;&gt;Node5</title>
<path fill="none" stroke="#191970" d="M857.4979,-459.4646C840.0465,-452.125 818.5107,-440.2777 805.5,-423 784.2961,-394.8421 786.5,-381.2487 786.5,-346 786.5,-346 786.5,-346 786.5,-290 786.5,-258.6328 792.2163,-248.7395 811.5,-224 821.4495,-211.2356 835.9141,-200.602 848.7679,-192.7854"/>
<polygon fill="#191970" stroke="#191970" points="850.8417,-195.6297 857.7552,-187.6014 847.3441,-189.5662 850.8417,-195.6297"/>
</g>
<!-- Node64 -->
<g id="node9" class="node">
<title>Node64</title>
<g id="a_node9"><a xlink:href="../../d1/d76/mpi__grid_8hpp.html" target="_top" xlink:title="Contains declaration and implementation of MPI_grid class. ">
<polygon fill="#ffffff" stroke="#000000" points="958.5,-168.5 958.5,-187.5 1032.5,-187.5 1032.5,-168.5 958.5,-168.5"/>
<text text-anchor="middle" x="995.5" y="-175.5" font-family="Helvetica,sans-Serif" font-size="10.00" fill="#000000">mpi_grid.hpp</text>
</a>
</g>
</g>
<!-- Node2&#45;&gt;Node64 -->
<g id="edge8" class="edge">
<title>Node2&#45;&gt;Node64</title>
<path fill="none" stroke="#191970" d="M903.4991,-459.499C934.4582,-441.7065 994.5,-400.2117 994.5,-346 994.5,-346 994.5,-346 994.5,-290 994.5,-257.7103 994.9207,-220.1863 995.2164,-197.8043"/>
<polygon fill="#191970" stroke="#191970" points="998.719,-197.6353 995.3567,-187.5881 991.7196,-197.5391 998.719,-197.6353"/>
</g>
<!-- Node31 -->
<g id="node12" class="node">
<title>Node31</title>
<g id="a_node12"><a xlink:href="../../d8/d7b/cuda_8hpp.html" target="_top" xlink:title="Interface to CUDA related functions. ">
<polygon fill="#ffffff" stroke="#ff0000" points="866.5,-56.5 866.5,-75.5 948.5,-75.5 948.5,-56.5 866.5,-56.5"/>
<text text-anchor="middle" x="907.5" y="-63.5" font-family="Helvetica,sans-Serif" font-size="10.00" fill="#000000">GPU/cuda.hpp</text>
</a>
</g>
</g>
<!-- Node2&#45;&gt;Node31 -->
<g id="edge25" class="edge">
<title>Node2&#45;&gt;Node31</title>
<path fill="none" stroke="#191970" d="M833.4779,-459.4333C807.8364,-452.6547 777.7309,-441.3856 755.5,-423 724.9548,-397.7383 710.5,-385.6379 710.5,-346 710.5,-346 710.5,-346 710.5,-178 710.5,-111.0093 797.6555,-83.5849 856.025,-72.73"/>
<polygon fill="#191970" stroke="#191970" points="856.9554,-76.1204 866.2023,-70.949 855.7487,-69.2252 856.9554,-76.1204"/>
</g>
<!-- Node95 -->
<g id="node13" class="node">
<title>Node95</title>
<g id="a_node13"><a xlink:href="../../de/d58/radial__integrals_8h.html" target="_top" xlink:title="Representation of various radial integrals. ">
<polygon fill="#ffffff" stroke="#000000" points="849,-336.5 849,-355.5 942,-355.5 942,-336.5 849,-336.5"/>
<text text-anchor="middle" x="895.5" y="-343.5" font-family="Helvetica,sans-Serif" font-size="10.00" fill="#000000">radial_integrals.h</text>
</a>
</g>
</g>
<!-- Node2&#45;&gt;Node95 -->
<g id="edge13" class="edge">
<title>Node2&#45;&gt;Node95</title>
<path fill="none" stroke="#191970" d="M902.2373,-459.2988C914.2584,-451.2823 929.523,-438.6887 936.5,-423 942.0985,-410.411 941.405,-404.8751 936.5,-392 932.2725,-380.9034 924.0029,-370.7814 915.9912,-362.8751"/>
<polygon fill="#191970" stroke="#191970" points="917.9607,-359.9323 908.2248,-355.7534 913.2297,-365.0916 917.9607,-359.9323"/>
</g>
<!-- Node23 -->
<g id="node16" class="node">
<title>Node23</title>
<g id="a_node16"><a xlink:href="../../df/d93/utils_8hpp.html" target="_top" xlink:title="A collection of utility functions. ">
<polygon fill="#ffffff" stroke="#ff0000" points="1102,-280.5 1102,-299.5 1185,-299.5 1185,-280.5 1102,-280.5"/>
<text text-anchor="middle" x="1143.5" y="-287.5" font-family="Helvetica,sans-Serif" font-size="10.00" fill="#000000">../utils/utils.hpp</text>
</a>
</g>
</g>
<!-- Node2&#45;&gt;Node23 -->
<g id="edge20" class="edge">
<title>Node2&#45;&gt;Node23</title>
<path fill="none" stroke="#191970" d="M939.6702,-464.9897C1025.9143,-458.0491 1186.4991,-442.6371 1203.5,-423 1234.1338,-387.616 1189.296,-334.029 1161.9693,-306.9453"/>
<polygon fill="#191970" stroke="#191970" points="1164.1125,-304.1505 1154.4782,-299.7425 1159.2608,-309.1965 1164.1125,-304.1505"/>
</g>
<!-- Node128 -->
<g id="node17" class="node">
<title>Node128</title>
<g id="a_node17"><a xlink:href="../../d5/dc0/memory__pool_8hpp.html" target="_top" xlink:title="Contains implementation of simple memory pool object. ">
<polygon fill="#ffffff" stroke="#ff0000" points="1098,-398 1098,-417 1195,-417 1195,-398 1098,-398"/>
<text text-anchor="middle" x="1146.5" y="-405" font-family="Helvetica,sans-Serif" font-size="10.00" fill="#000000">memory_pool.hpp</text>
</a>
</g>
</g>
<!-- Node2&#45;&gt;Node128 -->
<g id="edge22" class="edge">
<title>Node2&#45;&gt;Node128</title>
<path fill="none" stroke="#191970" d="M929.9677,-459.4371C971.1728,-450.4543 1034.1203,-436.4223 1088.5,-423 1092.8291,-421.9315 1097.3311,-420.7872 1101.8272,-419.6224"/>
<polygon fill="#191970" stroke="#191970" points="1102.8069,-422.9839 1111.5914,-417.0608 1101.0306,-416.213 1102.8069,-422.9839"/>
</g>
<!-- Node130 -->
<g id="node18" class="node">
<title>Node130</title>
<g id="a_node18"><a xlink:href="../../d3/d1c/augmentation__operator_8hpp.html" target="_top" xlink:title="Contains implementation of sirius::Augmentation_operator class. ">
<polygon fill="#ffffff" stroke="#000000" points="815,-392.5 815,-422.5 928,-422.5 928,-392.5 815,-392.5"/>
<text text-anchor="start" x="823" y="-410.5" font-family="Helvetica,sans-Serif" font-size="10.00" fill="#000000">Density/augmentation</text>
<text text-anchor="middle" x="871.5" y="-399.5" font-family="Helvetica,sans-Serif" font-size="10.00" fill="#000000">_operator.hpp</text>
</a>
</g>
</g>
<!-- Node2&#45;&gt;Node130 -->
<g id="edge23" class="edge">
<title>Node2&#45;&gt;Node130</title>
<path fill="none" stroke="#191970" d="M883.3125,-459.3906C881.6634,-452.1463 879.3236,-441.8679 877.1609,-432.3676"/>
<polygon fill="#191970" stroke="#191970" points="880.5572,-431.5182 874.9248,-422.5446 873.7318,-433.072 880.5572,-431.5182"/>
</g>
<!-- Node6 -->
<g id="node7" class="node">
<title>Node6</title>
<g id="a_node7"><a xlink:href="../../d7/d69/typedefs_8h.html" target="_top" xlink:title="Contains typedefs, enums and type_wrapper class. ">
<polygon fill="#ffffff" stroke="#ff0000" points="619,-112.5 619,-131.5 682,-131.5 682,-112.5 619,-112.5"/>
<text text-anchor="middle" x="650.5" y="-119.5" font-family="Helvetica,sans-Serif" font-size="10.00" fill="#000000">typedefs.h</text>
</a>
</g>
</g>
<!-- Node5&#45;&gt;Node6 -->
<g id="edge6" class="edge">
<title>Node5&#45;&gt;Node6</title>
<path fill="none" stroke="#191970" d="M838.7352,-168.4369C797.9081,-158.365 733.8563,-142.5637 692.0197,-132.2427"/>
<polygon fill="#191970" stroke="#191970" points="692.6969,-128.8049 682.1497,-129.8078 691.0203,-135.6012 692.6969,-128.8049"/>
</g>
<!-- Node13 -->
<g id="node8" class="node">
<title>Node13</title>
<g id="a_node8"><a xlink:href="../../de/ded/input_8h.html" target="_top" xlink:title="Contains input parameters structures. ">
<polygon fill="#ffffff" stroke="#ff0000" points="854,-112.5 854,-131.5 901,-131.5 901,-112.5 854,-112.5"/>
<text text-anchor="middle" x="877.5" y="-119.5" font-family="Helvetica,sans-Serif" font-size="10.00" fill="#000000">input.h</text>
</a>
</g>
</g>
<!-- Node5&#45;&gt;Node13 -->
<g id="edge7" class="edge">
<title>Node5&#45;&gt;Node13</title>
<path fill="none" stroke="#191970" d="M877.5,-168.2455C877.5,-160.9382 877.5,-150.6944 877.5,-141.7046"/>
<polygon fill="#191970" stroke="#191970" points="881.0001,-141.6426 877.5,-131.6427 874.0001,-141.6427 881.0001,-141.6426"/>
</g>
<!-- Node30 -->
<g id="node10" class="node">
<title>Node30</title>
<g id="a_node10"><a xlink:href="../../d4/d32/communicator_8hpp.html" target="_top" xlink:title="Contains declaration and implementation of Communicator class. ">
<polygon fill="#ffffff" stroke="#ff0000" points="927,-112.5 927,-131.5 1026,-131.5 1026,-112.5 927,-112.5"/>
<text text-anchor="middle" x="976.5" y="-119.5" font-family="Helvetica,sans-Serif" font-size="10.00" fill="#000000">communicator.hpp</text>
</a>
</g>
</g>
<!-- Node64&#45;&gt;Node30 -->
<g id="edge9" class="edge">
<title>Node64&#45;&gt;Node30</title>
<path fill="none" stroke="#191970" d="M992.1905,-168.2455C989.6567,-160.7776 986.0823,-150.2427 982.985,-141.1137"/>
<polygon fill="#191970" stroke="#191970" points="986.2991,-139.9879 979.7716,-131.6427 979.6702,-142.237 986.2991,-139.9879"/>
</g>
<!-- Node21 -->
<g id="node11" class="node">
<title>Node21</title>
<polygon fill="#ffffff" stroke="#bfbfbf" points="919.5,-.5 919.5,-19.5 963.5,-19.5 963.5,-.5 919.5,-.5"/>
<text text-anchor="middle" x="941.5" y="-7.5" font-family="Helvetica,sans-Serif" font-size="10.00" fill="#000000">vector</text>
</g>
<!-- Node30&#45;&gt;Node21 -->
<g id="edge10" class="edge">
<title>Node30&#45;&gt;Node21</title>
<path fill="none" stroke="#191970" d="M973.8336,-112.1097C970.3007,-99.158 963.7801,-75.7739 957.5,-56 954.6927,-47.1606 951.3537,-37.4511 948.454,-29.2399"/>
<polygon fill="#191970" stroke="#191970" points="951.7488,-28.0588 945.0892,-19.8187 945.1566,-30.4133 951.7488,-28.0588"/>
</g>
<!-- Node30&#45;&gt;Node31 -->
<g id="edge11" class="edge">
<title>Node30&#45;&gt;Node31</title>
<path fill="none" stroke="#191970" d="M964.4811,-112.2455C954.2902,-103.9746 939.4638,-91.9416 927.4893,-82.2232"/>
<polygon fill="#191970" stroke="#191970" points="929.3514,-79.2268 919.3812,-75.6427 924.9402,-84.662 929.3514,-79.2268"/>
</g>
<!-- Node31&#45;&gt;Node21 -->
<g id="edge12" class="edge">
<title>Node31&#45;&gt;Node21</title>
<path fill="none" stroke="#191970" d="M913.4223,-56.2455C918.1027,-48.5367 924.7673,-37.5598 930.4289,-28.2348"/>
<polygon fill="#191970" stroke="#191970" points="933.4475,-30.007 935.6455,-19.6427 927.4639,-26.3741 933.4475,-30.007"/>
</g>
<!-- Node96 -->
<g id="node14" class="node">
<title>Node96</title>
<g id="a_node14"><a xlink:href="../../d4/d91/unit__cell_8hpp.html" target="_top" xlink:title="Contains definition and partial implementation of sirius::Unit_cell class. ">
<polygon fill="#ffffff" stroke="#ff0000" points="820.5,-224.5 820.5,-243.5 934.5,-243.5 934.5,-224.5 820.5,-224.5"/>
<text text-anchor="middle" x="877.5" y="-231.5" font-family="Helvetica,sans-Serif" font-size="10.00" fill="#000000">Unit_cell/unit_cell.hpp</text>
</a>
</g>
</g>
<!-- Node95&#45;&gt;Node96 -->
<g id="edge14" class="edge">
<title>Node95&#45;&gt;Node96</title>
<path fill="none" stroke="#191970" d="M891.8157,-336.2936C888.5,-327.0947 883.8056,-312.8168 881.5,-300 878.7648,-284.7954 877.8,-267.3372 877.5,-254.1968"/>
<polygon fill="#191970" stroke="#191970" points="880.9967,-253.8842 877.3798,-243.9259 873.9972,-253.9662 880.9967,-253.8842"/>
</g>
<!-- Node126 -->
<g id="node15" class="node">
<title>Node126</title>
<g id="a_node15"><a xlink:href="../../d1/d2b/sbessel_8hpp.html" target="_top" xlink:title="Contains implementation of sirius::Spherical_Bessel_functions classe. ">
<polygon fill="#ffffff" stroke="#ff0000" points="890.5,-280.5 890.5,-299.5 960.5,-299.5 960.5,-280.5 890.5,-280.5"/>
<text text-anchor="middle" x="925.5" y="-287.5" font-family="Helvetica,sans-Serif" font-size="10.00" fill="#000000">sbessel.hpp</text>
</a>
</g>
</g>
<!-- Node95&#45;&gt;Node126 -->
<g id="edge18" class="edge">
<title>Node95&#45;&gt;Node126</title>
<path fill="none" stroke="#191970" d="M900.7256,-336.2455C904.8123,-328.617 910.6135,-317.7881 915.575,-308.5267"/>
<polygon fill="#191970" stroke="#191970" points="918.6972,-310.1103 920.3343,-299.6427 912.5268,-306.8047 918.6972,-310.1103"/>
</g>
<!-- Node96&#45;&gt;Node3 -->
<g id="edge15" class="edge">
<title>Node96&#45;&gt;Node3</title>
<path fill="none" stroke="#191970" d="M858.3395,-224.2455C840.9889,-215.4125 815.2099,-202.2887 795.5417,-192.2758"/>
<polygon fill="#191970" stroke="#191970" points="796.9405,-189.0605 786.441,-187.6427 793.7647,-195.2986 796.9405,-189.0605"/>
</g>
<!-- Node96&#45;&gt;Node5 -->
<g id="edge17" class="edge">
<title>Node96&#45;&gt;Node5</title>
<path fill="none" stroke="#191970" d="M877.5,-224.2455C877.5,-216.9382 877.5,-206.6944 877.5,-197.7046"/>
<polygon fill="#191970" stroke="#191970" points="881.0001,-197.6426 877.5,-187.6427 874.0001,-197.6427 881.0001,-197.6426"/>
</g>
<!-- Node96&#45;&gt;Node64 -->
<g id="edge16" class="edge">
<title>Node96&#45;&gt;Node64</title>
<path fill="none" stroke="#191970" d="M897.7849,-224.3733C916.6421,-215.4241 944.946,-201.9917 966.2455,-191.8835"/>
<polygon fill="#191970" stroke="#191970" points="967.9461,-194.9506 975.4798,-187.5011 964.9449,-188.6266 967.9461,-194.9506"/>
</g>
<!-- Node126&#45;&gt;Node96 -->
<g id="edge19" class="edge">
<title>Node126&#45;&gt;Node96</title>
<path fill="none" stroke="#191970" d="M917.139,-280.2455C910.325,-272.2958 900.5319,-260.8706 892.3848,-251.3656"/>
<polygon fill="#191970" stroke="#191970" points="894.9305,-248.9575 885.7651,-243.6427 889.6157,-253.513 894.9305,-248.9575"/>
</g>
<!-- Node23&#45;&gt;Node21 -->
<g id="edge21" class="edge">
<title>Node23&#45;&gt;Node21</title>
<path fill="none" stroke="#191970" d="M1129.7595,-280.3205C1106.6498,-262.7865 1062.5,-223.3537 1062.5,-178 1062.5,-178 1062.5,-178 1062.5,-122 1062.5,-73.1254 1008.6746,-39.6239 972.8228,-22.7303"/>
<polygon fill="#191970" stroke="#191970" points="974.2469,-19.5331 963.6933,-18.6001 971.3616,-25.9108 974.2469,-19.5331"/>
</g>
<!-- Node130&#45;&gt;Node95 -->
<g id="edge24" class="edge">
<title>Node130&#45;&gt;Node95</title>
<path fill="none" stroke="#191970" d="M877.4326,-392.2977C880.6252,-384.1166 884.5954,-373.943 888.0004,-365.2179"/>
<polygon fill="#191970" stroke="#191970" points="891.2823,-366.4351 891.6573,-355.8469 884.7613,-363.8903 891.2823,-366.4351"/>
</g>
<!-- Node53 -->
<g id="node20" class="node">
<title>Node53</title>
<polygon fill="#ffffff" stroke="#bfbfbf" points="422,-398 422,-417 461,-417 461,-398 422,-398"/>
<text text-anchor="middle" x="441.5" y="-405" font-family="Helvetica,sans-Serif" font-size="10.00" fill="#000000">array</text>
</g>
<!-- Node115&#45;&gt;Node53 -->
<g id="edge27" class="edge">
<title>Node115&#45;&gt;Node53</title>
<path fill="none" stroke="#191970" d="M559.8937,-459.4497C538.1948,-450.2431 504.5271,-435.8541 475.5,-423 473.9096,-422.2957 472.2793,-421.5689 470.6351,-420.8321"/>
<polygon fill="#191970" stroke="#191970" points="471.7979,-417.5168 461.2439,-416.5884 468.9154,-423.8958 471.7979,-417.5168"/>
</g>
<!-- Node116 -->
<g id="node21" class="node">
<title>Node116</title>
<polygon fill="#ffffff" stroke="#bfbfbf" points="517.5,-398 517.5,-417 569.5,-417 569.5,-398 517.5,-398"/>
<text text-anchor="middle" x="543.5" y="-405" font-family="Helvetica,sans-Serif" font-size="10.00" fill="#000000">typeinfo</text>
</g>
<!-- Node115&#45;&gt;Node116 -->
<g id="edge28" class="edge">
<title>Node115&#45;&gt;Node116</title>
<path fill="none" stroke="#191970" d="M576.4063,-459.3906C570.7157,-450.417 562.0728,-436.7879 555.0726,-425.7491"/>
<polygon fill="#191970" stroke="#191970" points="557.9909,-423.8155 549.6797,-417.2449 552.0793,-427.5644 557.9909,-423.8155"/>
</g>
<!-- Node106 -->
<g id="node22" class="node">
<title>Node106</title>
<g id="a_node22"><a xlink:href="../../dc/da1/radial__grid_8h.html" target="_top" xlink:title="Contains declaraion and partial implementation of sirius::Radial_grid class. ">
<polygon fill="#ffffff" stroke="#000000" points="586.5,-336.5 586.5,-355.5 658.5,-355.5 658.5,-336.5 586.5,-336.5"/>
<text text-anchor="middle" x="622.5" y="-343.5" font-family="Helvetica,sans-Serif" font-size="10.00" fill="#000000">radial_grid.h</text>
</a>
</g>
</g>
<!-- Node115&#45;&gt;Node106 -->
<g id="edge29" class="edge">
<title>Node115&#45;&gt;Node106</title>
<path fill="none" stroke="#191970" d="M585.6387,-459.3484C592.2107,-439.1397 607.5268,-392.0427 616.2064,-365.3528"/>
<polygon fill="#191970" stroke="#191970" points="619.6116,-366.199 619.3758,-355.6068 612.9547,-364.0341 619.6116,-366.199"/>
</g>
<!-- Node108 -->
<g id="node23" class="node">
<title>Node108</title>
<g id="a_node23"><a xlink:href="../../dd/d09/spline_8h.html" target="_top" xlink:title="Contains definition and partial implementaiton of sirius::Spline class. ">
<polygon fill="#ffffff" stroke="#000000" points="626,-398 626,-417 677,-417 677,-398 626,-398"/>
<text text-anchor="middle" x="651.5" y="-405" font-family="Helvetica,sans-Serif" font-size="10.00" fill="#000000">spline.h</text>
</a>
</g>
</g>
<!-- Node115&#45;&gt;Node108 -->
<g id="edge30" class="edge">
<title>Node115&#45;&gt;Node108</title>
<path fill="none" stroke="#191970" d="M593.2813,-459.3906C603.8526,-449.9683 620.1825,-435.4134 632.8603,-424.1137"/>
<polygon fill="#191970" stroke="#191970" points="635.4304,-426.5114 640.5667,-417.2449 630.7728,-421.2858 635.4304,-426.5114"/>
</g>
<!-- Node117 -->
<g id="node24" class="node">
<title>Node117</title>
<g id="a_node24"><a xlink:href="../../d0/db9/sht_8hpp.html" target="_top" xlink:title="Contains declaration and particular implementation of sirius::SHT class. ">
<polygon fill="#ffffff" stroke="#000000" points="412.5,-224.5 412.5,-243.5 484.5,-243.5 484.5,-224.5 412.5,-224.5"/>
<text text-anchor="middle" x="448.5" y="-231.5" font-family="Helvetica,sans-Serif" font-size="10.00" fill="#000000">SHT/sht.hpp</text>
</a>
</g>
</g>
<!-- Node115&#45;&gt;Node117 -->
<g id="edge32" class="edge">
<title>Node115&#45;&gt;Node117</title>
<path fill="none" stroke="#191970" d="M558.3468,-459.3583C542.1156,-451.7329 521.4086,-439.5978 508.5,-423 467.8946,-370.7899 454.443,-290.495 450.2583,-253.6763"/>
<polygon fill="#191970" stroke="#191970" points="453.7397,-253.3154 449.2373,-243.7248 446.7763,-254.0299 453.7397,-253.3154"/>
</g>
<!-- Node108&#45;&gt;Node106 -->
<g id="edge31" class="edge">
<title>Node108&#45;&gt;Node106</title>
<path fill="none" stroke="#191970" d="M646.9688,-397.8906C642.8219,-389.0965 636.5668,-375.8312 631.419,-364.9145"/>
<polygon fill="#191970" stroke="#191970" points="634.5259,-363.2969 627.0951,-355.7449 628.1945,-366.2825 634.5259,-363.2969"/>
</g>
<!-- Node117&#45;&gt;Node3 -->
<g id="edge39" class="edge">
<title>Node117&#45;&gt;Node3</title>
<path fill="none" stroke="#191970" d="M484.7828,-227.6306C545.1413,-217.0348 665.6918,-195.8723 728.0721,-184.9215"/>
<polygon fill="#191970" stroke="#191970" points="729.0473,-188.3039 738.2915,-183.1275 727.8369,-181.4094 729.0473,-188.3039"/>
</g>
<!-- Node117&#45;&gt;Node6 -->
<g id="edge40" class="edge">
<title>Node117&#45;&gt;Node6</title>
<path fill="none" stroke="#191970" d="M484.7852,-231.1869C537.8945,-226.2308 632.7573,-213.913 653.5,-188 663.7815,-175.1557 661.5997,-155.9848 657.6933,-141.6093"/>
<polygon fill="#191970" stroke="#191970" points="660.918,-140.2009 654.5477,-131.7352 654.2482,-142.3258 660.918,-140.2009"/>
</g>
<!-- Node117&#45;&gt;Node21 -->
<g id="edge38" class="edge">
<title>Node117&#45;&gt;Node21</title>
<path fill="none" stroke="#191970" d="M446.0499,-224.2816C440.9344,-201.4755 431.8324,-144.0377 460.5,-112 520.8526,-44.5525 811.2458,-18.8575 909.1745,-12.0229"/>
<polygon fill="#191970" stroke="#191970" points="909.6138,-15.5012 919.3541,-11.3326 909.1401,-8.5173 909.6138,-15.5012"/>
</g>
<!-- Node118 -->
<g id="node25" class="node">
<title>Node118</title>
<polygon fill="#ffffff" stroke="#bfbfbf" points="470,-112.5 470,-131.5 517,-131.5 517,-112.5 470,-112.5"/>
<text text-anchor="middle" x="493.5" y="-119.5" font-family="Helvetica,sans-Serif" font-size="10.00" fill="#000000">math.h</text>
</g>
<!-- Node117&#45;&gt;Node118 -->
<g id="edge33" class="edge">
<title>Node117&#45;&gt;Node118</title>
<path fill="none" stroke="#191970" d="M450.5274,-224.3615C453.4436,-211.2894 459.3785,-187.3505 467.5,-168 471.4806,-158.5157 476.962,-148.515 481.8658,-140.2698"/>
<polygon fill="#191970" stroke="#191970" points="484.9808,-141.8858 487.2328,-131.533 479.0162,-138.2218 484.9808,-141.8858"/>
</g>
<!-- Node119 -->
<g id="node26" class="node">
<title>Node119</title>
<polygon fill="#ffffff" stroke="#bfbfbf" points="592.5,-168.5 592.5,-187.5 644.5,-187.5 644.5,-168.5 592.5,-168.5"/>
<text text-anchor="middle" x="618.5" y="-175.5" font-family="Helvetica,sans-Serif" font-size="10.00" fill="#000000">stddef.h</text>
</g>
<!-- Node117&#45;&gt;Node119 -->
<g id="edge34" class="edge">
<title>Node117&#45;&gt;Node119</title>
<path fill="none" stroke="#191970" d="M477.724,-224.3733C506.8491,-214.7791 551.6164,-200.0323 582.8223,-189.7527"/>
<polygon fill="#191970" stroke="#191970" points="584.0377,-193.0374 592.4406,-186.5843 581.8475,-186.3888 584.0377,-193.0374"/>
</g>
<!-- Node120 -->
<g id="node27" class="node">
<title>Node120</title>
<polygon fill="#ffffff" stroke="#bfbfbf" points="0,-168.5 0,-187.5 109,-187.5 109,-168.5 0,-168.5"/>
<text text-anchor="middle" x="54.5" y="-175.5" font-family="Helvetica,sans-Serif" font-size="10.00" fill="#000000">gsl/gsl_sf_coupling.h</text>
</g>
<!-- Node117&#45;&gt;Node120 -->
<g id="edge35" class="edge">
<title>Node117&#45;&gt;Node120</title>
<path fill="none" stroke="#191970" d="M412.2226,-229.1919C353.0692,-221.301 231.8947,-204.9253 119.2955,-188.2476"/>
<polygon fill="#191970" stroke="#191970" points="119.5315,-184.7443 109.1258,-186.7369 118.503,-191.6684 119.5315,-184.7443"/>
</g>
<!-- Node121 -->
<g id="node28" class="node">
<title>Node121</title>
<polygon fill="#ffffff" stroke="#bfbfbf" points="127,-168.5 127,-187.5 238,-187.5 238,-168.5 127,-168.5"/>
<text text-anchor="middle" x="182.5" y="-175.5" font-family="Helvetica,sans-Serif" font-size="10.00" fill="#000000">gsl/gsl_sf_legendre.h</text>
</g>
<!-- Node117&#45;&gt;Node121 -->
<g id="edge36" class="edge">
<title>Node117&#45;&gt;Node121</title>
<path fill="none" stroke="#191970" d="M412.3492,-226.3893C367.377,-216.9215 290.1373,-200.6605 237.7309,-189.6276"/>
<polygon fill="#191970" stroke="#191970" points="238.4296,-186.198 227.923,-187.5627 236.9875,-193.0479 238.4296,-186.198"/>
</g>
<!-- Node111 -->
<g id="node29" class="node">
<title>Node111</title>
<polygon fill="#ffffff" stroke="#bfbfbf" points="256,-168.5 256,-187.5 305,-187.5 305,-168.5 256,-168.5"/>
<text text-anchor="middle" x="280.5" y="-175.5" font-family="Helvetica,sans-Serif" font-size="10.00" fill="#000000">string.h</text>
</g>
<!-- Node117&#45;&gt;Node111 -->
<g id="edge37" class="edge">
<title>Node117&#45;&gt;Node111</title>
<path fill="none" stroke="#191970" d="M419.6198,-224.3733C390.4988,-214.6663 345.5537,-199.6846 314.6751,-189.3917"/>
<polygon fill="#191970" stroke="#191970" points="315.7755,-186.0692 305.1818,-186.2273 313.5618,-192.71 315.7755,-186.0692"/>
</g>
<!-- Node86 -->
<g id="node30" class="node">
<title>Node86</title>
<g id="a_node30"><a xlink:href="../../d6/dc7/linalg_8hpp.html" target="_top" xlink:title="Linear algebra interface. ">
<polygon fill="#ffffff" stroke="#ff0000" points="323,-168.5 323,-187.5 382,-187.5 382,-168.5 323,-168.5"/>
<text text-anchor="middle" x="352.5" y="-175.5" font-family="Helvetica,sans-Serif" font-size="10.00" fill="#000000">linalg.hpp</text>
</a>
</g>
</g>
<!-- Node117&#45;&gt;Node86 -->
<g id="edge41" class="edge">
<title>Node117&#45;&gt;Node86</title>
<path fill="none" stroke="#191970" d="M431.7781,-224.2455C416.9111,-215.5731 394.9534,-202.7645 377.9142,-192.825"/>
<polygon fill="#191970" stroke="#191970" points="379.4317,-189.6582 369.0303,-187.6427 375.9045,-195.7047 379.4317,-189.6582"/>
</g>
<!-- Node122 -->
<g id="node31" class="node">
<title>Node122</title>
<g id="a_node31"><a xlink:href="../../da/de7/lebedev__grids_8hpp_source.html" target="_top" xlink:title="lebedev_grids.hpp">
<polygon fill="#ffffff" stroke="#ff0000" points="476.5,-168.5 476.5,-187.5 574.5,-187.5 574.5,-168.5 476.5,-168.5"/>
<text text-anchor="middle" x="525.5" y="-175.5" font-family="Helvetica,sans-Serif" font-size="10.00" fill="#000000">lebedev_grids.hpp</text>
</a>
</g>
</g>
<!-- Node117&#45;&gt;Node122 -->
<g id="edge42" class="edge">
<title>Node117&#45;&gt;Node122</title>
<path fill="none" stroke="#191970" d="M461.9124,-224.2455C473.5057,-215.814 490.4748,-203.4729 503.9678,-193.6598"/>
<polygon fill="#191970" stroke="#191970" points="506.2126,-196.355 512.2413,-187.6427 502.0953,-190.6938 506.2126,-196.355"/>
</g>
<!-- Node122&#45;&gt;Node118 -->
<g id="edge43" class="edge">
<title>Node122&#45;&gt;Node118</title>
<path fill="none" stroke="#191970" d="M519.926,-168.2455C515.5669,-160.617 509.3789,-149.7881 504.0867,-140.5267"/>
<polygon fill="#191970" stroke="#191970" points="507.0104,-138.5886 499.0101,-131.6427 500.9327,-142.0616 507.0104,-138.5886"/>
</g>
<!-- Node132&#45;&gt;Node1 -->
<g id="edge48" class="edge">
<title>Node132&#45;&gt;Node1</title>
<path fill="none" stroke="#191970" d="M1364.1225,-594.442C1257.8102,-587.9423 1009.1701,-571.2514 801.5,-546 789.5966,-544.5526 776.9146,-542.731 764.7795,-540.85"/>
<polygon fill="#191970" stroke="#191970" points="765.1679,-537.368 754.7439,-539.2628 764.0743,-544.2821 765.1679,-537.368"/>
</g>
<!-- Node132&#45;&gt;Node2 -->
<g id="edge50" class="edge">
<title>Node132&#45;&gt;Node2</title>
<path fill="none" stroke="#191970" d="M1451.1816,-587.9443C1459.7413,-585.7918 1468.917,-583.6568 1477.5,-582 1598.8983,-558.5656 1832.565,-604.7255 1747.5,-515 1720.1341,-486.1348 1145.1917,-473.5076 949.8158,-470.0393"/>
<polygon fill="#191970" stroke="#191970" points="949.7581,-466.5379 939.6982,-469.8619 949.6353,-473.5368 949.7581,-466.5379"/>
</g>
<!-- Node133 -->
<g id="node34" class="node">
<title>Node133</title>
<g id="a_node34"><a xlink:href="../../d3/de4/k__point__set_8hpp.html" target="_top" xlink:title="Contains declaration and partial implementation of sirius::K_point_set class. ">
<polygon fill="#ffffff" stroke="#ff0000" points="1794.5,-521 1794.5,-540 1918.5,-540 1918.5,-521 1794.5,-521"/>
<text text-anchor="middle" x="1856.5" y="-528" font-family="Helvetica,sans-Serif" font-size="10.00" fill="#000000">K_point/k_point_set.hpp</text>
</a>
</g>
</g>
<!-- Node132&#45;&gt;Node133 -->
<g id="edge49" class="edge">
<title>Node132&#45;&gt;Node133</title>
<path fill="none" stroke="#191970" d="M1450.8444,-587.9379C1459.4958,-585.7603 1468.7979,-583.6154 1477.5,-582 1610.8359,-557.2483 1646.6123,-567.5686 1780.5,-546 1787.7207,-544.8368 1795.2983,-543.4695 1802.7565,-542.037"/>
<polygon fill="#191970" stroke="#191970" points="1803.6733,-545.4238 1812.8079,-540.0563 1802.3199,-538.5558 1803.6733,-545.4238"/>
</g>
<!-- Node145 -->
<g id="node35" class="node">
<title>Node145</title>
<g id="a_node35"><a xlink:href="../../d2/d69/mixer_8h.html" target="_top" xlink:title="Contains definition and implementation of sirius::Mixer, sirius::Linear_mixer, sirius::Broyden1 and s...">
<polygon fill="#ffffff" stroke="#000000" points="1937,-521 1937,-540 1986,-540 1986,-521 1937,-521"/>
<text text-anchor="middle" x="1961.5" y="-528" font-family="Helvetica,sans-Serif" font-size="10.00" fill="#000000">mixer.h</text>
</a>
</g>
</g>
<!-- Node132&#45;&gt;Node145 -->
<g id="edge51" class="edge">
<title>Node132&#45;&gt;Node145</title>
<path fill="none" stroke="#191970" d="M1449.8446,-587.9448C1458.7649,-585.6865 1468.4451,-583.5015 1477.5,-582 1675.436,-549.177 1733.2875,-596.3738 1927.5,-546 1929.6939,-545.431 1931.9222,-544.7286 1934.1347,-543.9398"/>
<polygon fill="#191970" stroke="#191970" points="1935.6486,-547.102 1943.5774,-540.0745 1932.9968,-540.6237 1935.6486,-547.102"/>
</g>
<!-- Node146 -->
<g id="node36" class="node">
<title>Node146</title>
<g id="a_node36"><a xlink:href="../../db/da2/field4d_8hpp.html" target="_top" xlink:title="Base class for Density and Potential. ">
<polygon fill="#ffffff" stroke="#000000" points="2004,-521 2004,-540 2069,-540 2069,-521 2004,-521"/>
<text text-anchor="middle" x="2036.5" y="-528" font-family="Helvetica,sans-Serif" font-size="10.00" fill="#000000">field4d.hpp</text>
</a>
</g>
</g>
<!-- Node132&#45;&gt;Node146 -->
<g id="edge52" class="edge">
<title>Node132&#45;&gt;Node146</title>
<path fill="none" stroke="#191970" d="M1449.5159,-587.9614C1458.5239,-585.6747 1468.3295,-583.4715 1477.5,-582 1705.3625,-545.4359 1770.0562,-595.3291 1995.5,-546 1998.6966,-545.3006 2001.976,-544.3988 2005.2204,-543.3824"/>
<polygon fill="#191970" stroke="#191970" points="2006.4334,-546.6662 2014.73,-540.0769 2004.1351,-540.0542 2006.4334,-546.6662"/>
</g>
<!-- Node147 -->
<g id="node37" class="node">
<title>Node147</title>
<g id="a_node37"><a xlink:href="../../de/d63/initial__density_8hpp_source.html" target="_top" xlink:title="initial_density.hpp">
<polygon fill="#ffffff" stroke="#000000" points="2087.5,-521 2087.5,-540 2183.5,-540 2183.5,-521 2087.5,-521"/>
<text text-anchor="middle" x="2135.5" y="-528" font-family="Helvetica,sans-Serif" font-size="10.00" fill="#000000">initial_density.hpp</text>
</a>
</g>
</g>
<!-- Node132&#45;&gt;Node147 -->
<g id="edge53" class="edge">
<title>Node132&#45;&gt;Node147</title>
<path fill="none" stroke="#191970" d="M1449.189,-587.9834C1458.2838,-585.6677 1468.2146,-583.4445 1477.5,-582 1741.9095,-540.8665 1814.4427,-589.3369 2078.5,-546 2083.9394,-545.1073 2089.6074,-543.9062 2095.1683,-542.5655"/>
<polygon fill="#191970" stroke="#191970" points="2096.1775,-545.9199 2104.9896,-540.038 2094.4329,-539.1407 2096.1775,-545.9199"/>
</g>
<!-- Node148 -->
<g id="node38" class="node">
<title>Node148</title>
<g id="a_node38"><a xlink:href="../../df/d37/add__k__point__contribution__rg_8hpp_source.html" target="_top" xlink:title="add_k_point_contribution\l_rg.hpp">
<polygon fill="#ffffff" stroke="#000000" points="2201.5,-515.5 2201.5,-545.5 2329.5,-545.5 2329.5,-515.5 2201.5,-515.5"/>
<text text-anchor="start" x="2209.5" y="-533.5" font-family="Helvetica,sans-Serif" font-size="10.00" fill="#000000">add_k_point_contribution</text>
<text text-anchor="middle" x="2265.5" y="-522.5" font-family="Helvetica,sans-Serif" font-size="10.00" fill="#000000">_rg.hpp</text>
</a>
</g>
</g>
<!-- Node132&#45;&gt;Node148 -->
<g id="edge54" class="edge">
<title>Node132&#45;&gt;Node148</title>
<path fill="none" stroke="#191970" d="M1449.18,-587.9249C1458.2748,-585.609 1468.2079,-583.4003 1477.5,-582 1788.7481,-535.0964 1875.145,-586.0545 2190.7463,-546.0862"/>
<polygon fill="#191970" stroke="#191970" points="2191.6381,-549.5003 2201.1091,-544.7518 2190.744,-542.5577 2191.6381,-549.5003"/>
</g>
<!-- Node149 -->
<g id="node39" class="node">
<title>Node149</title>
<g id="a_node39"><a xlink:href="../../d4/d81/add__k__point__contribution__dm_8hpp_source.html" target="_top" xlink:title="add_k_point_contribution\l_dm.hpp">
<polygon fill="#ffffff" stroke="#000000" points="810.5,-515.5 810.5,-545.5 938.5,-545.5 938.5,-515.5 810.5,-515.5"/>
<text text-anchor="start" x="818.5" y="-533.5" font-family="Helvetica,sans-Serif" font-size="10.00" fill="#000000">add_k_point_contribution</text>
<text text-anchor="middle" x="874.5" y="-522.5" font-family="Helvetica,sans-Serif" font-size="10.00" fill="#000000">_dm.hpp</text>
</a>
</g>
</g>
<!-- Node132&#45;&gt;Node149 -->
<g id="edge55" class="edge">
<title>Node132&#45;&gt;Node149</title>
<path fill="none" stroke="#191970" d="M1364.2201,-593.475C1279.2143,-586.555 1105.596,-570.8609 948.827,-546.1155"/>
<polygon fill="#191970" stroke="#191970" points="948.9529,-542.5914 938.5264,-544.4724 947.8502,-549.504 948.9529,-542.5914"/>
</g>
<!-- Node150 -->
<g id="node40" class="node">
<title>Node150</title>
<g id="a_node40"><a xlink:href="../../dc/df3/generate__valence_8hpp_source.html" target="_top" xlink:title="generate_valence.hpp">
<polygon fill="#ffffff" stroke="#000000" points="957,-521 957,-540 1072,-540 1072,-521 957,-521"/>
<text text-anchor="middle" x="1014.5" y="-528" font-family="Helvetica,sans-Serif" font-size="10.00" fill="#000000">generate_valence.hpp</text>
</a>
</g>
</g>
<!-- Node132&#45;&gt;Node150 -->
<g id="edge56" class="edge">
<title>Node132&#45;&gt;Node150</title>
<path fill="none" stroke="#191970" d="M1364.356,-590.7151C1298.2892,-581.8363 1181.0341,-565.1362 1081.5,-546 1075.6414,-544.8736 1069.5173,-543.5965 1063.4545,-542.2702"/>
<polygon fill="#191970" stroke="#191970" points="1063.8901,-538.7811 1053.3667,-540.01 1062.3595,-545.6118 1063.8901,-538.7811"/>
</g>
<!-- Node151 -->
<g id="node41" class="node">
<title>Node151</title>
<g id="a_node41"><a xlink:href="../../dd/d8d/generate__rho__aug_8hpp_source.html" target="_top" xlink:title="generate_rho_aug.hpp">
<polygon fill="#ffffff" stroke="#000000" points="1090.5,-521 1090.5,-540 1208.5,-540 1208.5,-521 1090.5,-521"/>
<text text-anchor="middle" x="1149.5" y="-528" font-family="Helvetica,sans-Serif" font-size="10.00" fill="#000000">generate_rho_aug.hpp</text>
</a>
</g>
</g>
<!-- Node132&#45;&gt;Node151 -->
<g id="edge57" class="edge">
<title>Node132&#45;&gt;Node151</title>
<path fill="none" stroke="#191970" d="M1378.529,-587.9717C1331.018,-576.0495 1249.6083,-555.6208 1197.7345,-542.6038"/>
<polygon fill="#191970" stroke="#191970" points="1198.3235,-539.1431 1187.7723,-540.1039 1196.6197,-545.9326 1198.3235,-539.1431"/>
</g>
<!-- Node152 -->
<g id="node42" class="node">
<title>Node152</title>
<g id="a_node42"><a xlink:href="../../df/dbc/symmetrize__density__matrix_8hpp_source.html" target="_top" xlink:title="symmetrize_density\l_matrix.hpp">
<polygon fill="#ffffff" stroke="#000000" points="1227,-515.5 1227,-545.5 1332,-545.5 1332,-515.5 1227,-515.5"/>
<text text-anchor="start" x="1235" y="-533.5" font-family="Helvetica,sans-Serif" font-size="10.00" fill="#000000">symmetrize_density</text>
<text text-anchor="middle" x="1279.5" y="-522.5" font-family="Helvetica,sans-Serif" font-size="10.00" fill="#000000">_matrix.hpp</text>
</a>
</g>
</g>
<!-- Node132&#45;&gt;Node152 -->
<g id="edge58" class="edge">
<title>Node132&#45;&gt;Node152</title>
<path fill="none" stroke="#191970" d="M1396.8712,-587.9005C1376.7073,-578.0393 1344.7546,-562.4128 1319.2762,-549.9526"/>
<polygon fill="#191970" stroke="#191970" points="1320.7371,-546.7709 1310.2161,-545.5218 1317.6618,-553.0592 1320.7371,-546.7709"/>
</g>
<!-- Node153 -->
<g id="node43" class="node">
<title>Node153</title>
<g id="a_node43"><a xlink:href="../../d1/d4d/generate__valence__mt_8hpp_source.html" target="_top" xlink:title="generate_valence_mt.hpp">
<polygon fill="#ffffff" stroke="#000000" points="1350.5,-521 1350.5,-540 1482.5,-540 1482.5,-521 1350.5,-521"/>
<text text-anchor="middle" x="1416.5" y="-528" font-family="Helvetica,sans-Serif" font-size="10.00" fill="#000000">generate_valence_mt.hpp</text>
</a>
</g>
</g>
<!-- Node132&#45;&gt;Node153 -->
<g id="edge59" class="edge">
<title>Node132&#45;&gt;Node153</title>
<path fill="none" stroke="#191970" d="M1416.5,-587.9005C1416.5,-578.149 1416.5,-562.7597 1416.5,-550.3695"/>
<polygon fill="#191970" stroke="#191970" points="1420.0001,-550.0816 1416.5,-540.0817 1413.0001,-550.0817 1420.0001,-550.0816"/>
</g>
<!-- Node154 -->
<g id="node44" class="node">
<title>Node154</title>
<g id="a_node44"><a xlink:href="../../d7/d47/check__density__continuity__at__mt_8hpp_source.html" target="_top" xlink:title="check_density_continuity\l_at_mt.hpp">
<polygon fill="#ffffff" stroke="#000000" points="1500.5,-515.5 1500.5,-545.5 1628.5,-545.5 1628.5,-515.5 1500.5,-515.5"/>
<text text-anchor="start" x="1508.5" y="-533.5" font-family="Helvetica,sans-Serif" font-size="10.00" fill="#000000">check_density_continuity</text>
<text text-anchor="middle" x="1564.5" y="-522.5" font-family="Helvetica,sans-Serif" font-size="10.00" fill="#000000">_at_mt.hpp</text>
</a>
</g>
</g>
<!-- Node132&#45;&gt;Node154 -->
<g id="edge60" class="edge">
<title>Node132&#45;&gt;Node154</title>
<path fill="none" stroke="#191970" d="M1437.7048,-587.9005C1459.5833,-577.9961 1494.3091,-562.2756 1521.8919,-549.7888"/>
<polygon fill="#191970" stroke="#191970" points="1523.6511,-552.8344 1531.3176,-545.5218 1520.7641,-546.4574 1523.6511,-552.8344"/>
</g>
<!-- Node155 -->
<g id="node45" class="node">
<title>Node155</title>
<g id="a_node45"><a xlink:href="../../d4/d2c/paw__density_8hpp_source.html" target="_top" xlink:title="paw_density.hpp">
<polygon fill="#ffffff" stroke="#000000" points="1646.5,-521 1646.5,-540 1738.5,-540 1738.5,-521 1646.5,-521"/>
<text text-anchor="middle" x="1692.5" y="-528" font-family="Helvetica,sans-Serif" font-size="10.00" fill="#000000">paw_density.hpp</text>
</a>
</g>
</g>
<!-- Node132&#45;&gt;Node155 -->
<g id="edge61" class="edge">
<title>Node132&#45;&gt;Node155</title>
<path fill="none" stroke="#191970" d="M1453.2324,-587.9923C1461.2222,-585.973 1469.6365,-583.8833 1477.5,-582 1548.3842,-565.0231 1566.8412,-563.892 1637.5,-546 1641.5572,-544.9727 1645.7708,-543.863 1649.9791,-542.726"/>
<polygon fill="#191970" stroke="#191970" points="1650.9988,-546.0756 1659.7129,-540.0494 1649.1428,-539.3261 1650.9988,-546.0756"/>
</g>
</g>
</svg>
