<?xml version="1.0" encoding="UTF-8" standalone="no"?>
<!DOCTYPE svg PUBLIC "-//W3C//DTD SVG 1.1//EN"
 "http://www.w3.org/Graphics/SVG/1.1/DTD/svg11.dtd">
<!-- Generated by graphviz version 2.40.1 (20161225.0304)
 -->
<!-- Title: sirius::Radial_integrals_rho_pseudo Pages: 1 -->
<!--zoomable 224 -->
<svg id="main" version="1.1" xmlns="http://www.w3.org/2000/svg" xmlns:xlink="http://www.w3.org/1999/xlink" xml:space="preserve" onload="init(evt)">
<style type="text/css"><![CDATA[
.edge:hover path { stroke: red; }
.edge:hover polygon { stroke: red; fill: red; }
]]></style>
<script type="text/javascript"><![CDATA[
var edges = document.getElementsByTagName('g');
if (edges && edges.length) {
  for (var i=0;i<edges.length;i++) {
    if (edges[i].id.substr(0,4)=='edge') {
      edges[i].setAttribute('class','edge');
    }
  }
}
]]></script>
        <defs>
                <circle id="rim" cx="0" cy="0" r="7"/>
                <circle id="rim2" cx="0" cy="0" r="3.5"/>
                <g id="zoomPlus">
                        <use xlink:href="#rim" fill="#404040">
                                <set attributeName="fill" to="#808080" begin="zoomplus.mouseover" end="zoomplus.mouseout"/>
                        </use>
                        <path d="M-4,0h8M0,-4v8" fill="none" stroke="white" stroke-width="1.5" pointer-events="none"/>
                </g>
                <g id="zoomMin">
                        <use xlink:href="#rim" fill="#404040">
                                <set attributeName="fill" to="#808080" begin="zoomminus.mouseover" end="zoomminus.mouseout"/>
                        </use>
                        <path d="M-4,0h8" fill="none" stroke="white" stroke-width="1.5" pointer-events="none"/>
                </g>
                <g id="dirArrow">
                        <path fill="none" stroke="white" stroke-width="1.5" d="M0,-3.0v7 M-2.5,-0.5L0,-3.0L2.5,-0.5"/>
                </g>
               <g id="resetDef">
                       <use xlink:href="#rim2" fill="#404040">
                               <set attributeName="fill" to="#808080" begin="reset.mouseover" end="reset.mouseout"/>
                       </use>
               </g>
        </defs>

<script type="text/javascript">
var viewWidth = 895;
var viewHeight = 224;
var sectionId = 'dynsection-1';
</script>
<script xlink:href="../../svgpan.js"/>
<svg id="graph" class="graph">
<g id="viewport">
<title>sirius::Radial_integrals_rho_pseudo</title>
<polygon fill="#ffffff" stroke="transparent" points="-4,4 -4,-219.5 891,-219.5 891,4 -4,4"/>
<!-- Node2 -->
<g id="node1" class="node">
<title>Node2</title>
<polygon fill="#bfbfbf" stroke="#000000" points="770,-67.5 770,-97.5 887,-97.5 887,-67.5 770,-67.5"/>
<text text-anchor="start" x="778" y="-85.5" font-family="Helvetica,sans-Serif" font-size="10.00" fill="#000000">sirius::Radial_integrals</text>
<text text-anchor="middle" x="828.5" y="-74.5" font-family="Helvetica,sans-Serif" font-size="10.00" fill="#000000">_rho_pseudo</text>
</g>
<!-- Node3 -->
<g id="node2" class="node">
<title>Node3</title>
<g id="a_node2"><a xlink:href="../../d6/d2c/classsirius_1_1_radial__integrals__base.html" target="_top" xlink:title="sirius::Radial_integrals\l_base\&lt; 1 \&gt;">
<polygon fill="#ffffff" stroke="#000000" points="616,-67.5 616,-97.5 733,-97.5 733,-67.5 616,-67.5"/>
<text text-anchor="start" x="624" y="-85.5" font-family="Helvetica,sans-Serif" font-size="10.00" fill="#000000">sirius::Radial_integrals</text>
<text text-anchor="middle" x="674.5" y="-74.5" font-family="Helvetica,sans-Serif" font-size="10.00" fill="#000000">_base&lt; 1 &gt;</text>
</a>
</g>
</g>
<!-- Node3&#45;&gt;Node2 -->
<g id="edge1" class="edge">
<title>Node3&#45;&gt;Node2</title>
<path fill="none" stroke="#191970" d="M743.394,-82.5C752.1913,-82.5 761.1314,-82.5 769.748,-82.5"/>
<polygon fill="#191970" stroke="#191970" points="743.1601,-79.0001 733.1601,-82.5 743.1601,-86.0001 743.1601,-79.0001"/>
</g>
<!-- Node4 -->
<g id="node3" class="node">
<title>Node4</title>
<g id="a_node3"><a xlink:href="../../d2/dc9/classsddk_1_1splindex.html" target="_top" xlink:title="sddk::splindex\&lt; block \&gt;">
<polygon fill="#ffffff" stroke="#000000" points="144,-103 144,-122 264,-122 264,-103 144,-103"/>
<text text-anchor="middle" x="204" y="-110" font-family="Helvetica,sans-Serif" font-size="10.00" fill="#000000">sddk::splindex&lt; block &gt;</text>
</a>
</g>
</g>
<!-- Node4&#45;&gt;Node3 -->
<g id="edge2" class="edge">
<title>Node4&#45;&gt;Node3</title>
<path fill="none" stroke="#9a32cd" stroke-dasharray="5,2" d="M274.2161,-108.0229C367.1221,-102.099 529.2259,-91.763 615.8987,-86.2365"/>
<polygon fill="#9a32cd" stroke="#9a32cd" points="273.824,-104.5407 264.0671,-108.67 274.2695,-111.5265 273.824,-104.5407"/>
<text text-anchor="middle" x="474.5" y="-101.5" font-family="Helvetica,sans-Serif" font-size="10.00" fill="#000000"> spl_q_</text>
</g>
<!-- Node9 -->
<g id="node8" class="node">
<title>Node9</title>
<g id="a_node8"><a xlink:href="../../d6/dd1/classsirius_1_1_unit__cell.html" target="_top" xlink:title="Representation of a unit cell. ">
<polygon fill="#ffffff" stroke="#000000" points="432.5,-135 432.5,-154 516.5,-154 516.5,-135 432.5,-135"/>
<text text-anchor="middle" x="474.5" y="-142" font-family="Helvetica,sans-Serif" font-size="10.00" fill="#000000">sirius::Unit_cell</text>
</a>
</g>
</g>
<!-- Node4&#45;&gt;Node9 -->
<g id="edge9" class="edge">
<title>Node4&#45;&gt;Node9</title>
<path fill="none" stroke="#9a32cd" stroke-dasharray="5,2" d="M274.1526,-120.799C324.257,-126.7263 390.0137,-134.5053 432.2715,-139.5044"/>
<polygon fill="#9a32cd" stroke="#9a32cd" points="274.3747,-117.301 264.0327,-119.6018 273.5523,-124.2525 274.3747,-117.301"/>
<text text-anchor="middle" x="339.5" y="-170.5" font-family="Helvetica,sans-Serif" font-size="10.00" fill="#000000"> spl_num_paw_atoms_</text>
<text text-anchor="middle" x="339.5" y="-159.5" font-family="Helvetica,sans-Serif" font-size="10.00" fill="#000000">spl_num_atoms_</text>
<text text-anchor="start" x="282" y="-148.5" font-family="Helvetica,sans-Serif" font-size="10.00" fill="#000000">spl_num_atom_symmetry</text>
<text text-anchor="middle" x="339.5" y="-137.5" font-family="Helvetica,sans-Serif" font-size="10.00" fill="#000000">_classes_</text>
</g>
<!-- Node5 -->
<g id="node4" class="node">
<title>Node5</title>
<g id="a_node4"><a xlink:href="../../d6/dec/classsddk_1_1splindex__base.html" target="_top" xlink:title="sddk::splindex_base\l\&lt; int \&gt;">
<polygon fill="#ffffff" stroke="#000000" points="0,-97.5 0,-127.5 107,-127.5 107,-97.5 0,-97.5"/>
<text text-anchor="start" x="8" y="-115.5" font-family="Helvetica,sans-Serif" font-size="10.00" fill="#000000">sddk::splindex_base</text>
<text text-anchor="middle" x="53.5" y="-104.5" font-family="Helvetica,sans-Serif" font-size="10.00" fill="#000000">&lt; int &gt;</text>
</a>
</g>
</g>
<!-- Node5&#45;&gt;Node4 -->
<g id="edge3" class="edge">
<title>Node5&#45;&gt;Node4</title>
<path fill="none" stroke="#191970" d="M117.5245,-112.5C126.2467,-112.5 135.1747,-112.5 143.8256,-112.5"/>
<polygon fill="#191970" stroke="#191970" points="117.4089,-109.0001 107.4089,-112.5 117.4088,-116.0001 117.4089,-109.0001"/>
</g>
<!-- Node6 -->
<g id="node5" class="node">
<title>Node6</title>
<g id="a_node5"><a xlink:href="../../d7/dab/classsddk_1_1mdarray.html" target="_top" xlink:title="sddk::mdarray\&lt; sirius\l::Spline\&lt; double \&gt;, N \&gt;">
<polygon fill="#ffffff" stroke="#000000" points="415,-.5 415,-30.5 534,-30.5 534,-.5 415,-.5"/>
<text text-anchor="start" x="423" y="-18.5" font-family="Helvetica,sans-Serif" font-size="10.00" fill="#000000">sddk::mdarray&lt; sirius</text>
<text text-anchor="middle" x="474.5" y="-7.5" font-family="Helvetica,sans-Serif" font-size="10.00" fill="#000000">::Spline&lt; double &gt;, N &gt;</text>
</a>
</g>
</g>
<!-- Node6&#45;&gt;Node3 -->
<g id="edge4" class="edge">
<title>Node6&#45;&gt;Node3</title>
<path fill="none" stroke="#9a32cd" stroke-dasharray="5,2" d="M544.5112,-21.2189C562.3231,-24.0343 581.176,-28.2344 598,-34.5 619.0114,-42.325 640.4192,-56.3853 655.2244,-67.2733"/>
<polygon fill="#9a32cd" stroke="#9a32cd" points="544.5667,-17.6903 534.1674,-19.7161 543.5602,-24.6175 544.5667,-17.6903"/>
<text text-anchor="middle" x="575" y="-37.5" font-family="Helvetica,sans-Serif" font-size="10.00" fill="#000000"> values_</text>
</g>
<!-- Node7 -->
<g id="node6" class="node">
<title>Node7</title>
<g id="a_node6"><a xlink:href="../../d5/d6b/classsirius_1_1_spline.html" target="_top" xlink:title="sirius::Spline\&lt; double \&gt;">
<polygon fill="#ffffff" stroke="#000000" points="144,-9 144,-28 264,-28 264,-9 144,-9"/>
<text text-anchor="middle" x="204" y="-16" font-family="Helvetica,sans-Serif" font-size="10.00" fill="#000000">sirius::Spline&lt; double &gt;</text>
</a>
</g>
</g>
<!-- Node7&#45;&gt;Node6 -->
<g id="edge5" class="edge">
<title>Node7&#45;&gt;Node6</title>
<path fill="none" stroke="#9a32cd" stroke-dasharray="5,2" d="M274.234,-15.6724C276.8555,-15.607 279.4511,-15.549 282,-15.5 326.4406,-14.6457 376.6628,-14.6791 414.6641,-14.9083"/>
<polygon fill="#9a32cd" stroke="#9a32cd" points="273.9354,-12.1793 264.0374,-15.9581 274.1316,-19.1766 273.9354,-12.1793"/>
<text text-anchor="middle" x="339.5" y="-29.5" font-family="Helvetica,sans-Serif" font-size="10.00" fill="#000000"> raw_ptr_device_</text>
<text text-anchor="middle" x="339.5" y="-18.5" font-family="Helvetica,sans-Serif" font-size="10.00" fill="#000000">raw_ptr_</text>
</g>
<!-- Node8 -->
<g id="node7" class="node">
<title>Node8</title>
<g id="a_node7"><a xlink:href="../../d9/dbf/classsirius_1_1_radial__grid.html" target="_top" xlink:title="sirius::Radial_grid\l\&lt; double \&gt;">
<polygon fill="#ffffff" stroke="#000000" points="5.5,-37.5 5.5,-67.5 101.5,-67.5 101.5,-37.5 5.5,-37.5"/>
<text text-anchor="start" x="13.5" y="-55.5" font-family="Helvetica,sans-Serif" font-size="10.00" fill="#000000">sirius::Radial_grid</text>
<text text-anchor="middle" x="53.5" y="-44.5" font-family="Helvetica,sans-Serif" font-size="10.00" fill="#000000">&lt; double &gt;</text>
</a>
</g>
</g>
<!-- Node8&#45;&gt;Node3 -->
<g id="edge7" class="edge">
<title>Node8&#45;&gt;Node3</title>
<path fill="none" stroke="#9a32cd" stroke-dasharray="5,2" d="M112.0143,-55.3268C230.3608,-61.044 496.9475,-73.9226 615.6083,-79.655"/>
<polygon fill="#9a32cd" stroke="#9a32cd" points="111.8694,-51.8158 101.7121,-54.8291 111.5315,-58.8076 111.8694,-51.8158"/>
<text text-anchor="middle" x="339.5" y="-72.5" font-family="Helvetica,sans-Serif" font-size="10.00" fill="#000000"> grid_q_</text>
</g>
<!-- Node8&#45;&gt;Node7 -->
<g id="edge6" class="edge">
<title>Node8&#45;&gt;Node7</title>
<path fill="none" stroke="#191970" d="M111.6818,-39.3559C128.2737,-35.6076 146.0342,-31.5953 161.5013,-28.101"/>
<polygon fill="#191970" stroke="#191970" points="110.5158,-36.0311 101.5329,-41.6487 112.0584,-42.859 110.5158,-36.0311"/>
</g>
<!-- Node9&#45;&gt;Node3 -->
<g id="edge8" class="edge">
<title>Node9&#45;&gt;Node3</title>
<path fill="none" stroke="#9a32cd" stroke-dasharray="5,2" d="M526.5958,-136.9422C548.9205,-132.9415 575.0797,-127.2258 598,-119.5 615.0559,-113.7509 633.2295,-105.0783 647.5818,-97.5743"/>
<polygon fill="#9a32cd" stroke="#9a32cd" points="525.8931,-133.5117 516.6337,-138.6608 527.0831,-140.4098 525.8931,-133.5117"/>
<text text-anchor="middle" x="575" y="-133.5" font-family="Helvetica,sans-Serif" font-size="10.00" fill="#000000"> unit_cell_</text>
</g>
<!-- Node10 -->
<g id="node9" class="node">
<title>Node10</title>
<g id="a_node9"><a xlink:href="../../da/d70/classsddk_1_1_communicator.html" target="_top" xlink:title="MPI communicator wrapper. ">
<polygon fill="#ffffff" stroke="#000000" points="150,-196 150,-215 258,-215 258,-196 150,-196"/>
<text text-anchor="middle" x="204" y="-203" font-family="Helvetica,sans-Serif" font-size="10.00" fill="#000000">sddk::Communicator</text>
</a>
</g>
</g>
<!-- Node10&#45;&gt;Node9 -->
<g id="edge10" class="edge">
<title>Node10&#45;&gt;Node9</title>
<path fill="none" stroke="#9a32cd" stroke-dasharray="5,2" d="M268.6504,-203.2329C306.6614,-200.5658 355.2916,-194.8212 397,-182.5 419.5629,-175.8346 443.5998,-163.0524 458.8165,-154.163"/>
<polygon fill="#9a32cd" stroke="#9a32cd" points="267.979,-199.7688 258.2255,-203.9064 268.4304,-206.7543 267.979,-199.7688"/>
<text text-anchor="middle" x="339.5" y="-204.5" font-family="Helvetica,sans-Serif" font-size="10.00" fill="#000000"> comm_</text>
</g>
</g>
</svg>
        <g id="navigator" transform="translate(0 0)" fill="#404254">
                <rect fill="#f2f5e9" fill-opacity="0.5" stroke="#606060" stroke-width=".5" x="0" y="0" width="60" height="60"/>
                <use id="zoomplus" xlink:href="#zoomPlus" x="17" y="9" onmousedown="handleZoom(evt,'in')"/>
                <use id="zoomminus" xlink:href="#zoomMin" x="42" y="9" onmousedown="handleZoom(evt,'out')"/>
                <use id="reset" xlink:href="#resetDef" x="30" y="36" onmousedown="handleReset()"/>
                <g id="arrowUp" xlink:href="#dirArrow" transform="translate(30 24)" onmousedown="handlePan(0,-1)">
                  <use xlink:href="#rim" fill="#404040">
                        <set attributeName="fill" to="#808080" begin="arrowUp.mouseover" end="arrowUp.mouseout"/>
                  </use>
                  <path fill="none" stroke="white" stroke-width="1.5" d="M0,-3.0v7 M-2.5,-0.5L0,-3.0L2.5,-0.5"/>
                </g>
                <g id="arrowRight" xlink:href="#dirArrow" transform="rotate(90) translate(36 -43)" onmousedown="handlePan(1,0)">
                  <use xlink:href="#rim" fill="#404040">
                        <set attributeName="fill" to="#808080" begin="arrowRight.mouseover" end="arrowRight.mouseout"/>
                  </use>
                  <path fill="none" stroke="white" stroke-width="1.5" d="M0,-3.0v7 M-2.5,-0.5L0,-3.0L2.5,-0.5"/>
                </g>
                <g id="arrowDown" xlink:href="#dirArrow" transform="rotate(180) translate(-30 -48)" onmousedown="handlePan(0,1)">
                  <use xlink:href="#rim" fill="#404040">
                        <set attributeName="fill" to="#808080" begin="arrowDown.mouseover" end="arrowDown.mouseout"/>
                  </use>
                  <path fill="none" stroke="white" stroke-width="1.5" d="M0,-3.0v7 M-2.5,-0.5L0,-3.0L2.5,-0.5"/>
                </g>
                <g id="arrowLeft" xlink:href="#dirArrow" transform="rotate(270) translate(-36 17)" onmousedown="handlePan(-1,0)">
                  <use xlink:href="#rim" fill="#404040">
                        <set attributeName="fill" to="#808080" begin="arrowLeft.mouseover" end="arrowLeft.mouseout"/>
                  </use>
                  <path fill="none" stroke="white" stroke-width="1.5" d="M0,-3.0v7 M-2.5,-0.5L0,-3.0L2.5,-0.5"/>
                </g>
        </g>
        <svg viewBox="0 0 15 15" width="100%" height="30px" preserveAspectRatio="xMaxYMin meet">
         <g id="arrow_out" transform="scale(0.3 0.3)">
          <a xlink:href="classsirius_1_1_radial__integrals__rho__pseudo__coll__graph_org.svg" target="_base">
           <rect id="button" ry="5" rx="5" y="6" x="6" height="38" width="38"
                fill="#f2f5e9" fill-opacity="0.5" stroke="#606060" stroke-width="1.0"/>
           <path id="arrow"
             d="M 11.500037,31.436501 C 11.940474,20.09759 22.043105,11.32322 32.158766,21.979434 L 37.068811,17.246167 C 37.068811,17.246167 37.088388,32 37.088388,32 L 22.160133,31.978069 C 22.160133,31.978069 26.997745,27.140456 26.997745,27.140456 C 18.528582,18.264221 13.291696,25.230495 11.500037,31.436501 z"
             style="fill:#404040;"/>
          </a>
         </g>
        </svg>
</svg>
