<?xml version="1.0" encoding="UTF-8" standalone="no"?>
<!DOCTYPE svg PUBLIC "-//W3C//DTD SVG 1.1//EN"
 "http://www.w3.org/Graphics/SVG/1.1/DTD/svg11.dtd">
<!-- Generated by graphviz version 2.40.1 (20161225.0304)
 -->
<!-- Title: beta_projectors_gradient.hpp Pages: 1 -->
<svg width="1917pt" height="386pt"
 viewBox="0.00 0.00 1916.50 386.00" xmlns="http://www.w3.org/2000/svg" xmlns:xlink="http://www.w3.org/1999/xlink">
<g id="graph0" class="graph" transform="scale(1 1) rotate(0) translate(4 382)">
<title>beta_projectors_gradient.hpp</title>
<polygon fill="#ffffff" stroke="transparent" points="-4,4 -4,-382 1912.5,-382 1912.5,4 -4,4"/>
<!-- Node116 -->
<g id="node1" class="node">
<title>Node116</title>
<g id="a_node1"><a xlink:title="Contains declaration and implementation of sirius::Beta_projectors_gradient class.">
<polygon fill="#bfbfbf" stroke="#000000" points="790,-358.5 790,-377.5 937,-377.5 937,-358.5 790,-358.5"/>
<text text-anchor="middle" x="863.5" y="-365.5" font-family="Helvetica,sans-Serif" font-size="10.00" fill="#000000">beta_projectors_gradient.hpp</text>
</a>
</g>
</g>
<!-- Node117 -->
<g id="node2" class="node">
<title>Node117</title>
<g id="a_node2"><a xlink:href="../../db/d74/hubbard_8hpp.html" target="_top" xlink:title="Contains declaration and partial implementation of sirius::Hubbard class.">
<polygon fill="#ffffff" stroke="#000000" points="491,-302.5 491,-321.5 564,-321.5 564,-302.5 491,-302.5"/>
<text text-anchor="middle" x="527.5" y="-309.5" font-family="Helvetica,sans-Serif" font-size="10.00" fill="#000000">hubbard.hpp</text>
</a>
</g>
</g>
<!-- Node116&#45;&gt;Node117 -->
<g id="edge1" class="edge">
<title>Node116&#45;&gt;Node117</title>
<path fill="none" stroke="#191970" d="M796.1089,-356.7681C726.3758,-345.146 620.0308,-327.4218 564.3769,-318.1461"/>
<polygon fill="#191970" stroke="#191970" points="795.682,-360.2452 806.1213,-358.4369 796.8328,-353.3404 795.682,-360.2452"/>
</g>
<!-- Node132 -->
<g id="node17" class="node">
<title>Node132</title>
<g id="a_node17"><a xlink:href="../../df/d4d/force_8cpp.html" target="_top" xlink:title="Contains implementation of sirius::Force class.">
<polygon fill="#ffffff" stroke="#000000" points="1850.5,-174 1850.5,-193 1908.5,-193 1908.5,-174 1850.5,-174"/>
<text text-anchor="middle" x="1879.5" y="-181" font-family="Helvetica,sans-Serif" font-size="10.00" fill="#000000">force.cpp</text>
</a>
</g>
</g>
<!-- Node116&#45;&gt;Node132 -->
<g id="edge27" class="edge">
<title>Node116&#45;&gt;Node132</title>
<path fill="none" stroke="#191970" d="M947.2767,-359.7015C1118.0563,-341.4424 1517.6725,-291.8385 1841.5,-199 1847.1162,-197.3899 1853.0333,-195.2209 1858.4824,-193.0164"/>
<polygon fill="#191970" stroke="#191970" points="946.6743,-356.2456 937.0995,-360.7813 947.413,-363.2066 946.6743,-356.2456"/>
</g>
<!-- Node118 -->
<g id="node3" class="node">
<title>Node118</title>
<g id="a_node3"><a xlink:href="../../df/dc4/dft__ground__state_8hpp.html" target="_top" xlink:title="Contains definition and partial implementation of sirius::DFT_ground_state class.">
<polygon fill="#ffffff" stroke="#000000" points="670,-112.5 670,-131.5 781,-131.5 781,-112.5 670,-112.5"/>
<text text-anchor="middle" x="725.5" y="-119.5" font-family="Helvetica,sans-Serif" font-size="10.00" fill="#000000">dft_ground_state.hpp</text>
</a>
</g>
</g>
<!-- Node117&#45;&gt;Node118 -->
<g id="edge2" class="edge">
<title>Node117&#45;&gt;Node118</title>
<path fill="none" stroke="#191970" d="M574.1762,-304.2163C616.4259,-296.2423 674.4278,-282.6719 690.5,-266 727.4623,-227.6586 727.5335,-157.1718 726.2065,-131.5933"/>
<polygon fill="#191970" stroke="#191970" points="573.281,-300.8221 564.079,-306.0731 574.5472,-307.7067 573.281,-300.8221"/>
</g>
<!-- Node122 -->
<g id="node7" class="node">
<title>Node122</title>
<g id="a_node7"><a xlink:href="../../dd/d5b/apply__hubbard__potential_8cpp_source.html" target="_top" xlink:title=" ">
<polygon fill="#ffffff" stroke="#000000" points="0,-241 0,-260 145,-260 145,-241 0,-241"/>
<text text-anchor="middle" x="72.5" y="-248" font-family="Helvetica,sans-Serif" font-size="10.00" fill="#000000">apply_hubbard_potential.cpp</text>
</a>
</g>
</g>
<!-- Node117&#45;&gt;Node122 -->
<g id="edge6" class="edge">
<title>Node117&#45;&gt;Node122</title>
<path fill="none" stroke="#191970" d="M480.4928,-307.1808C409.6338,-299.6955 271.3143,-284.2242 154.5,-266 143.3343,-264.258 131.3602,-262.1386 120.107,-260.0335"/>
<polygon fill="#191970" stroke="#191970" points="480.5491,-310.7059 490.86,-308.2697 481.2804,-303.7442 480.5491,-310.7059"/>
</g>
<!-- Node123 -->
<g id="node8" class="node">
<title>Node123</title>
<g id="a_node8"><a xlink:href="../../d7/d2d/hubbard_8cpp_source.html" target="_top" xlink:title=" ">
<polygon fill="#ffffff" stroke="#000000" points="163.5,-241 163.5,-260 235.5,-260 235.5,-241 163.5,-241"/>
<text text-anchor="middle" x="199.5" y="-248" font-family="Helvetica,sans-Serif" font-size="10.00" fill="#000000">hubbard.cpp</text>
</a>
</g>
</g>
<!-- Node117&#45;&gt;Node123 -->
<g id="edge7" class="edge">
<title>Node117&#45;&gt;Node123</title>
<path fill="none" stroke="#191970" d="M480.8529,-306.8937C424.3462,-300.142 326.5274,-286.633 244.5,-266 238.0893,-264.3875 231.2908,-262.2691 224.9729,-260.1185"/>
<polygon fill="#191970" stroke="#191970" points="480.5698,-310.3844 490.9101,-308.0759 481.3871,-303.4323 480.5698,-310.3844"/>
</g>
<!-- Node124 -->
<g id="node9" class="node">
<title>Node124</title>
<g id="a_node9"><a xlink:href="../../d3/d2b/hubbard__occupancies__derivatives_8cpp_source.html" target="_top" xlink:title=" ">
<polygon fill="#ffffff" stroke="#000000" points="253.5,-235.5 253.5,-265.5 367.5,-265.5 367.5,-235.5 253.5,-235.5"/>
<text text-anchor="start" x="261.5" y="-253.5" font-family="Helvetica,sans-Serif" font-size="10.00" fill="#000000">hubbard_occupancies</text>
<text text-anchor="middle" x="310.5" y="-242.5" font-family="Helvetica,sans-Serif" font-size="10.00" fill="#000000">_derivatives.cpp</text>
</a>
</g>
</g>
<!-- Node117&#45;&gt;Node124 -->
<g id="edge8" class="edge">
<title>Node117&#45;&gt;Node124</title>
<path fill="none" stroke="#191970" d="M483.7561,-299.6025C449.0795,-289.7748 400.4865,-276.0031 363.5842,-265.5446"/>
<polygon fill="#191970" stroke="#191970" points="483.0183,-303.0312 493.5938,-302.3906 484.927,-296.2965 483.0183,-303.0312"/>
</g>
<!-- Node125 -->
<g id="node10" class="node">
<title>Node125</title>
<g id="a_node10"><a xlink:href="../../d6/dfc/hubbard__occupancy_8cpp_source.html" target="_top" xlink:title=" ">
<polygon fill="#ffffff" stroke="#000000" points="386,-241 386,-260 511,-260 511,-241 386,-241"/>
<text text-anchor="middle" x="448.5" y="-248" font-family="Helvetica,sans-Serif" font-size="10.00" fill="#000000">hubbard_occupancy.cpp</text>
</a>
</g>
</g>
<!-- Node117&#45;&gt;Node125 -->
<g id="edge9" class="edge">
<title>Node117&#45;&gt;Node125</title>
<path fill="none" stroke="#191970" d="M507.1387,-296.1491C492.46,-284.722 473.1312,-269.6749 460.7571,-260.0419"/>
<polygon fill="#191970" stroke="#191970" points="505.1154,-299.0095 515.1563,-302.3906 509.4154,-293.4859 505.1154,-299.0095"/>
</g>
<!-- Node126 -->
<g id="node11" class="node">
<title>Node126</title>
<g id="a_node11"><a xlink:href="../../d9/d0d/hubbard__potential__energy_8cpp_source.html" target="_top" xlink:title=" ">
<polygon fill="#ffffff" stroke="#000000" points="529.5,-241 529.5,-260 681.5,-260 681.5,-241 529.5,-241"/>
<text text-anchor="middle" x="605.5" y="-248" font-family="Helvetica,sans-Serif" font-size="10.00" fill="#000000">hubbard_potential_energy.cpp</text>
</a>
</g>
</g>
<!-- Node117&#45;&gt;Node126 -->
<g id="edge10" class="edge">
<title>Node117&#45;&gt;Node126</title>
<path fill="none" stroke="#191970" d="M547.6036,-296.1491C562.0965,-284.722 581.1806,-269.6749 593.3981,-260.0419"/>
<polygon fill="#191970" stroke="#191970" points="545.3732,-293.4506 539.6875,-302.3906 549.7073,-298.9475 545.3732,-293.4506"/>
</g>
<!-- Node127 -->
<g id="node12" class="node">
<title>Node127</title>
<g id="a_node12"><a xlink:href="../../de/df2/potential_8hpp.html" target="_top" xlink:title="Contains declaration and partial implementation of sirius::Potential class.">
<polygon fill="#ffffff" stroke="#000000" points="1175.5,-241 1175.5,-260 1249.5,-260 1249.5,-241 1175.5,-241"/>
<text text-anchor="middle" x="1212.5" y="-248" font-family="Helvetica,sans-Serif" font-size="10.00" fill="#000000">potential.hpp</text>
</a>
</g>
</g>
<!-- Node117&#45;&gt;Node127 -->
<g id="edge11" class="edge">
<title>Node117&#45;&gt;Node127</title>
<path fill="none" stroke="#191970" d="M574.6448,-307.7673C703.4771,-296.2006 1059.5512,-264.2319 1175.4893,-253.8229"/>
<polygon fill="#191970" stroke="#191970" points="573.9755,-304.3132 564.3286,-308.6935 574.6015,-311.2852 573.9755,-304.3132"/>
</g>
<!-- Node119 -->
<g id="node4" class="node">
<title>Node119</title>
<g id="a_node4"><a xlink:href="../../d9/dde/dft__ground__state_8cpp.html" target="_top" xlink:title="Contains implementation of sirius::DFT_ground_state class.">
<polygon fill="#ffffff" stroke="#000000" points="622.5,-56.5 622.5,-75.5 732.5,-75.5 732.5,-56.5 622.5,-56.5"/>
<text text-anchor="middle" x="677.5" y="-63.5" font-family="Helvetica,sans-Serif" font-size="10.00" fill="#000000">dft_ground_state.cpp</text>
</a>
</g>
</g>
<!-- Node118&#45;&gt;Node119 -->
<g id="edge3" class="edge">
<title>Node118&#45;&gt;Node119</title>
<path fill="none" stroke="#191970" d="M710.5003,-104.5004C702.3378,-94.9775 692.5511,-83.5596 685.7651,-75.6427"/>
<polygon fill="#191970" stroke="#191970" points="707.9737,-106.9307 717.139,-112.2455 713.2885,-102.3752 707.9737,-106.9307"/>
</g>
<!-- Node120 -->
<g id="node5" class="node">
<title>Node120</title>
<g id="a_node5"><a xlink:href="../../dd/dc2/sirius_8h.html" target="_top" xlink:title="&quot;All&#45;in&#45;one&quot; include file.">
<polygon fill="#ffffff" stroke="#000000" points="750.5,-56.5 750.5,-75.5 798.5,-75.5 798.5,-56.5 750.5,-56.5"/>
<text text-anchor="middle" x="774.5" y="-63.5" font-family="Helvetica,sans-Serif" font-size="10.00" fill="#000000">sirius.h</text>
</a>
</g>
</g>
<!-- Node118&#45;&gt;Node120 -->
<g id="edge4" class="edge">
<title>Node118&#45;&gt;Node120</title>
<path fill="none" stroke="#191970" d="M740.8122,-104.5004C749.1447,-94.9775 759.1353,-83.5596 766.0627,-75.6427"/>
<polygon fill="#191970" stroke="#191970" points="737.9862,-102.415 734.0351,-112.2455 743.2543,-107.0245 737.9862,-102.415"/>
</g>
<!-- Node121 -->
<g id="node6" class="node">
<title>Node121</title>
<g id="a_node6"><a xlink:href="../../d4/d53/sirius__api_8cpp.html" target="_top" xlink:title="Fortran API.">
<polygon fill="#ffffff" stroke="#000000" points="735.5,-.5 735.5,-19.5 813.5,-19.5 813.5,-.5 735.5,-.5"/>
<text text-anchor="middle" x="774.5" y="-7.5" font-family="Helvetica,sans-Serif" font-size="10.00" fill="#000000">sirius_api.cpp</text>
</a>
</g>
</g>
<!-- Node120&#45;&gt;Node121 -->
<g id="edge5" class="edge">
<title>Node120&#45;&gt;Node121</title>
<path fill="none" stroke="#191970" d="M774.5,-46.1575C774.5,-37.155 774.5,-26.9199 774.5,-19.6427"/>
<polygon fill="#191970" stroke="#191970" points="771.0001,-46.2455 774.5,-56.2455 778.0001,-46.2456 771.0001,-46.2455"/>
</g>
<!-- Node128 -->
<g id="node13" class="node">
<title>Node128</title>
<g id="a_node13"><a xlink:href="../../df/dd7/diag__pseudo__potential_8cpp.html" target="_top" xlink:title="Diagonalization of pseudopotential Hamiltonian.">
<polygon fill="#ffffff" stroke="#000000" points="1696.5,-174 1696.5,-193 1832.5,-193 1832.5,-174 1696.5,-174"/>
<text text-anchor="middle" x="1764.5" y="-181" font-family="Helvetica,sans-Serif" font-size="10.00" fill="#000000">diag_pseudo_potential.cpp</text>
</a>
</g>
</g>
<!-- Node127&#45;&gt;Node128 -->
<g id="edge12" class="edge">
<title>Node127&#45;&gt;Node128</title>
<path fill="none" stroke="#191970" d="M1259.7814,-246.8033C1345.3979,-239.7918 1531.6873,-223.0784 1687.5,-199 1698.281,-197.334 1709.8434,-195.1955 1720.646,-193.0426"/>
<polygon fill="#191970" stroke="#191970" points="1259.2872,-243.3318 1249.6033,-247.6298 1259.8538,-250.3088 1259.2872,-243.3318"/>
</g>
<!-- Node129 -->
<g id="node14" class="node">
<title>Node129</title>
<g id="a_node14"><a xlink:href="../../d4/d9e/solve_8cpp.html" target="_top" xlink:title="Contains interfaces to the sirius::Band solvers.">
<polygon fill="#ffffff" stroke="#000000" points="738,-174 738,-193 797,-193 797,-174 738,-174"/>
<text text-anchor="middle" x="767.5" y="-181" font-family="Helvetica,sans-Serif" font-size="10.00" fill="#000000">solve.cpp</text>
</a>
</g>
</g>
<!-- Node127&#45;&gt;Node129 -->
<g id="edge13" class="edge">
<title>Node127&#45;&gt;Node129</title>
<path fill="none" stroke="#191970" d="M1165.1172,-248.5166C1088.419,-244.4176 932.8168,-232.4032 805.5,-199 799.711,-197.4812 793.6297,-195.2903 788.0712,-193.0318"/>
<polygon fill="#191970" stroke="#191970" points="1165.2387,-252.0273 1175.4048,-249.0438 1165.5971,-245.0365 1165.2387,-252.0273"/>
</g>
<!-- Node130 -->
<g id="node15" class="node">
<title>Node130</title>
<g id="a_node15"><a xlink:href="../../d7/dd1/stress_8hpp.html" target="_top" xlink:title="Contains definition of sirius::Stress tensor class.">
<polygon fill="#ffffff" stroke="#000000" points="815,-174 815,-193 878,-193 878,-174 815,-174"/>
<text text-anchor="middle" x="846.5" y="-181" font-family="Helvetica,sans-Serif" font-size="10.00" fill="#000000">stress.hpp</text>
</a>
</g>
</g>
<!-- Node127&#45;&gt;Node130 -->
<g id="edge14" class="edge">
<title>Node127&#45;&gt;Node130</title>
<path fill="none" stroke="#191970" d="M1165.109,-246.2103C1101.0677,-239.6925 983.7178,-225.1936 886.5,-199 880.6033,-197.4112 874.3801,-195.25 868.6447,-193.046"/>
<polygon fill="#191970" stroke="#191970" points="1164.9985,-249.7165 1175.2963,-247.2253 1165.6926,-242.751 1164.9985,-249.7165"/>
</g>
<!-- Node127&#45;&gt;Node132 -->
<g id="edge17" class="edge">
<title>Node127&#45;&gt;Node132</title>
<path fill="none" stroke="#191970" d="M1259.9179,-248.4924C1386.6312,-242.8291 1730.9787,-225.4023 1841.5,-199 1847.4597,-197.5763 1853.7037,-195.3599 1859.3684,-193.0441"/>
<polygon fill="#191970" stroke="#191970" points="1259.5927,-245.0033 1249.7573,-248.9421 1259.9023,-251.9964 1259.5927,-245.0033"/>
</g>
<!-- Node133 -->
<g id="node18" class="node">
<title>Node133</title>
<g id="a_node18"><a xlink:href="../../db/d8b/hamiltonian_8cpp.html" target="_top" xlink:title="Contains definition of sirius::Hamiltonian0 class.">
<polygon fill="#ffffff" stroke="#000000" points="896,-174 896,-193 983,-193 983,-174 896,-174"/>
<text text-anchor="middle" x="939.5" y="-181" font-family="Helvetica,sans-Serif" font-size="10.00" fill="#000000">hamiltonian.cpp</text>
</a>
</g>
</g>
<!-- Node127&#45;&gt;Node133 -->
<g id="edge18" class="edge">
<title>Node127&#45;&gt;Node133</title>
<path fill="none" stroke="#191970" d="M1165.3816,-239.5857C1121.7643,-229.3941 1055.1452,-213.604 997.5,-199 990.1244,-197.1314 982.2389,-195.0682 974.7342,-193.0732"/>
<polygon fill="#191970" stroke="#191970" points="1164.6068,-242.9988 1175.1405,-241.8622 1166.1971,-236.1819 1164.6068,-242.9988"/>
</g>
<!-- Node134 -->
<g id="node19" class="node">
<title>Node134</title>
<g id="a_node19"><a xlink:href="../../d3/d3d/hamiltonian__k_8cpp.html" target="_top" xlink:title="Contains definition of sirius::Hamiltonian_k class.">
<polygon fill="#ffffff" stroke="#000000" points="1002,-112.5 1002,-131.5 1099,-131.5 1099,-112.5 1002,-112.5"/>
<text text-anchor="middle" x="1050.5" y="-119.5" font-family="Helvetica,sans-Serif" font-size="10.00" fill="#000000">hamiltonian_k.cpp</text>
</a>
</g>
</g>
<!-- Node127&#45;&gt;Node134 -->
<g id="edge19" class="edge">
<title>Node127&#45;&gt;Node134</title>
<path fill="none" stroke="#191970" d="M1165.4475,-243.6941C1117.1347,-235.6294 1046.7736,-220.5175 1030.5,-199 1015.0038,-178.5104 1032.5834,-147.147 1043.3558,-131.5271"/>
<polygon fill="#191970" stroke="#191970" points="1164.9634,-247.1612 1175.3949,-245.3078 1166.0844,-240.2515 1164.9634,-247.1612"/>
</g>
<!-- Node135 -->
<g id="node20" class="node">
<title>Node135</title>
<g id="a_node20"><a xlink:href="../../de/d63/local__operator_8cpp.html" target="_top" xlink:title="Implementation of sirius::Local_operator class.">
<polygon fill="#ffffff" stroke="#000000" points="1040,-174 1040,-193 1139,-193 1139,-174 1040,-174"/>
<text text-anchor="middle" x="1089.5" y="-181" font-family="Helvetica,sans-Serif" font-size="10.00" fill="#000000">local_operator.cpp</text>
</a>
</g>
</g>
<!-- Node127&#45;&gt;Node135 -->
<g id="edge20" class="edge">
<title>Node127&#45;&gt;Node135</title>
<path fill="none" stroke="#191970" d="M1185.9862,-236.0575C1162.119,-223.0567 1127.7178,-204.3179 1107.0902,-193.0817"/>
<polygon fill="#191970" stroke="#191970" points="1184.4212,-239.1906 1194.8771,-240.9005 1187.7697,-233.0434 1184.4212,-239.1906"/>
</g>
<!-- Node136 -->
<g id="node21" class="node">
<title>Node136</title>
<g id="a_node21"><a xlink:href="../../d4/db8/generate__d__operator__matrix_8cpp_source.html" target="_top" xlink:title=" ">
<polygon fill="#ffffff" stroke="#000000" points="1157.5,-168.5 1157.5,-198.5 1267.5,-198.5 1267.5,-168.5 1157.5,-168.5"/>
<text text-anchor="start" x="1165.5" y="-186.5" font-family="Helvetica,sans-Serif" font-size="10.00" fill="#000000">generate_d_operator</text>
<text text-anchor="middle" x="1212.5" y="-175.5" font-family="Helvetica,sans-Serif" font-size="10.00" fill="#000000">_matrix.cpp</text>
</a>
</g>
</g>
<!-- Node127&#45;&gt;Node136 -->
<g id="edge22" class="edge">
<title>Node127&#45;&gt;Node136</title>
<path fill="none" stroke="#191970" d="M1212.5,-230.7758C1212.5,-220.4641 1212.5,-208.0437 1212.5,-198.5218"/>
<polygon fill="#191970" stroke="#191970" points="1209.0001,-230.9005 1212.5,-240.9005 1216.0001,-230.9006 1209.0001,-230.9005"/>
</g>
<!-- Node137 -->
<g id="node22" class="node">
<title>Node137</title>
<g id="a_node22"><a xlink:href="../../de/dfb/generate__pw__coeffs_8cpp_source.html" target="_top" xlink:title=" ">
<polygon fill="#ffffff" stroke="#000000" points="1286,-174 1286,-193 1411,-193 1411,-174 1286,-174"/>
<text text-anchor="middle" x="1348.5" y="-181" font-family="Helvetica,sans-Serif" font-size="10.00" fill="#000000">generate_pw_coeffs.cpp</text>
</a>
</g>
</g>
<!-- Node127&#45;&gt;Node137 -->
<g id="edge23" class="edge">
<title>Node127&#45;&gt;Node137</title>
<path fill="none" stroke="#191970" d="M1241.1182,-236.4013C1267.5314,-223.389 1306.041,-204.4173 1329.0507,-193.0817"/>
<polygon fill="#191970" stroke="#191970" points="1239.4092,-233.3415 1231.9855,-240.9005 1242.5028,-239.6209 1239.4092,-233.3415"/>
</g>
<!-- Node138 -->
<g id="node23" class="node">
<title>Node138</title>
<g id="a_node23"><a xlink:href="../../d0/d7d/paw__potential_8cpp_source.html" target="_top" xlink:title=" ">
<polygon fill="#ffffff" stroke="#000000" points="1429,-174 1429,-193 1526,-193 1526,-174 1429,-174"/>
<text text-anchor="middle" x="1477.5" y="-181" font-family="Helvetica,sans-Serif" font-size="10.00" fill="#000000">paw_potential.cpp</text>
</a>
</g>
</g>
<!-- Node127&#45;&gt;Node138 -->
<g id="edge24" class="edge">
<title>Node127&#45;&gt;Node138</title>
<path fill="none" stroke="#191970" d="M1259.4851,-239.1903C1301.6931,-228.9535 1365.3314,-213.3288 1420.5,-199 1427.7459,-197.1181 1435.4942,-195.049 1442.8693,-193.0527"/>
<polygon fill="#191970" stroke="#191970" points="1258.6576,-235.7894 1249.7625,-241.545 1260.3054,-242.5928 1258.6576,-235.7894"/>
</g>
<!-- Node139 -->
<g id="node24" class="node">
<title>Node139</title>
<g id="a_node24"><a xlink:href="../../d8/dcd/poisson_8cpp_source.html" target="_top" xlink:title=" ">
<polygon fill="#ffffff" stroke="#000000" points="1544.5,-174 1544.5,-193 1614.5,-193 1614.5,-174 1544.5,-174"/>
<text text-anchor="middle" x="1579.5" y="-181" font-family="Helvetica,sans-Serif" font-size="10.00" fill="#000000">poisson.cpp</text>
</a>
</g>
</g>
<!-- Node127&#45;&gt;Node139 -->
<g id="edge25" class="edge">
<title>Node127&#45;&gt;Node139</title>
<path fill="none" stroke="#191970" d="M1259.8515,-245.6627C1323.285,-238.5688 1439.0426,-223.4658 1535.5,-199 1541.7803,-197.407 1548.4323,-195.296 1554.6104,-193.1463"/>
<polygon fill="#191970" stroke="#191970" points="1259.3136,-242.2007 1249.7563,-246.7732 1260.0791,-249.1587 1259.3136,-242.2007"/>
</g>
<!-- Node140 -->
<g id="node25" class="node">
<title>Node140</title>
<g id="a_node25"><a xlink:href="../../d6/d2b/xc_8cpp.html" target="_top" xlink:title="Generate XC potential.">
<polygon fill="#ffffff" stroke="#000000" points="1633,-174 1633,-193 1678,-193 1678,-174 1633,-174"/>
<text text-anchor="middle" x="1655.5" y="-181" font-family="Helvetica,sans-Serif" font-size="10.00" fill="#000000">xc.cpp</text>
</a>
</g>
</g>
<!-- Node127&#45;&gt;Node140 -->
<g id="edge26" class="edge">
<title>Node127&#45;&gt;Node140</title>
<path fill="none" stroke="#191970" d="M1259.673,-246.5348C1352.6106,-238.4039 1556.2075,-218.9244 1623.5,-199 1628.4719,-197.5279 1633.6263,-195.353 1638.3082,-193.0951"/>
<polygon fill="#191970" stroke="#191970" points="1259.3603,-243.0487 1249.7006,-247.4008 1259.9659,-250.0225 1259.3603,-243.0487"/>
</g>
<!-- Node130&#45;&gt;Node118 -->
<g id="edge15" class="edge">
<title>Node130&#45;&gt;Node118</title>
<path fill="none" stroke="#191970" d="M818.417,-169.2264C795.6211,-157.6401 764.1119,-141.6251 744.2735,-131.5419"/>
<polygon fill="#191970" stroke="#191970" points="817.0933,-172.4797 827.5938,-173.8906 820.265,-166.2395 817.0933,-172.4797"/>
</g>
<!-- Node131 -->
<g id="node16" class="node">
<title>Node131</title>
<g id="a_node16"><a xlink:href="../../d4/d58/stress_8cpp.html" target="_top" xlink:title="Contains implementation of sirius::Stress class.">
<polygon fill="#ffffff" stroke="#000000" points="815.5,-112.5 815.5,-131.5 877.5,-131.5 877.5,-112.5 815.5,-112.5"/>
<text text-anchor="middle" x="846.5" y="-119.5" font-family="Helvetica,sans-Serif" font-size="10.00" fill="#000000">stress.cpp</text>
</a>
</g>
</g>
<!-- Node130&#45;&gt;Node131 -->
<g id="edge16" class="edge">
<title>Node130&#45;&gt;Node131</title>
<path fill="none" stroke="#191970" d="M846.5,-163.7462C846.5,-153.0519 846.5,-140.314 846.5,-131.7449"/>
<polygon fill="#191970" stroke="#191970" points="843.0001,-163.8906 846.5,-173.8906 850.0001,-163.8907 843.0001,-163.8906"/>
</g>
<!-- Node135&#45;&gt;Node134 -->
<g id="edge21" class="edge">
<title>Node135&#45;&gt;Node134</title>
<path fill="none" stroke="#191970" d="M1078.0327,-165.4169C1071.0491,-154.4043 1062.3998,-140.765 1056.6797,-131.7449"/>
<polygon fill="#191970" stroke="#191970" points="1075.095,-167.3199 1083.4063,-173.8906 1081.0066,-163.5711 1075.095,-167.3199"/>
</g>
</g>
</svg>
