<?xml version="1.0" encoding="UTF-8" standalone="no"?>
<!DOCTYPE svg PUBLIC "-//W3C//DTD SVG 1.1//EN"
 "http://www.w3.org/Graphics/SVG/1.1/DTD/svg11.dtd">
<!-- Generated by graphviz version 2.40.1 (20161225.0304)
 -->
<!-- Title: cuda_common.hpp Pages: 1 -->
<svg width="1123pt" height="140pt"
 viewBox="0.00 0.00 1123.00 140.00" xmlns="http://www.w3.org/2000/svg" xmlns:xlink="http://www.w3.org/1999/xlink">
<g id="graph0" class="graph" transform="scale(1 1) rotate(0) translate(4 136)">
<title>cuda_common.hpp</title>
<polygon fill="#ffffff" stroke="transparent" points="-4,4 -4,-136 1119,-136 1119,4 -4,4"/>
<!-- Node0 -->
<g id="node1" class="node">
<title>Node0</title>
<g id="a_node1"><a xlink:title="Common functions used by CUDA kernels.">
<polygon fill="#bfbfbf" stroke="#000000" points="241,-112.5 241,-131.5 343,-131.5 343,-112.5 241,-112.5"/>
<text text-anchor="middle" x="292" y="-119.5" font-family="Helvetica,sans-Serif" font-size="10.00" fill="#000000">cuda_common.hpp</text>
</a>
</g>
</g>
<!-- Node1 -->
<g id="node2" class="node">
<title>Node1</title>
<g id="a_node2"><a xlink:title=" ">
<polygon fill="#ffffff" stroke="#bfbfbf" points="0,-.5 0,-19.5 46,-19.5 46,-.5 0,-.5"/>
<text text-anchor="middle" x="23" y="-7.5" font-family="Helvetica,sans-Serif" font-size="10.00" fill="#000000">stdio.h</text>
</a>
</g>
</g>
<!-- Node0&#45;&gt;Node1 -->
<g id="edge1" class="edge">
<title>Node0&#45;&gt;Node1</title>
<path fill="none" stroke="#191970" d="M269.0652,-112.4509C221.1221,-92.4895 110.1923,-46.3031 55.1593,-23.3897"/>
<polygon fill="#191970" stroke="#191970" points="56.4539,-20.1375 45.8767,-19.5249 53.7632,-26.5998 56.4539,-20.1375"/>
</g>
<!-- Node2 -->
<g id="node3" class="node">
<title>Node2</title>
<g id="a_node3"><a xlink:href="../../d4/d86/acc_8hpp.html" target="_top" xlink:title="Interface to accelerators API.">
<polygon fill="#ffffff" stroke="#000000" points="534,-56.5 534,-75.5 586,-75.5 586,-56.5 534,-56.5"/>
<text text-anchor="middle" x="560" y="-63.5" font-family="Helvetica,sans-Serif" font-size="10.00" fill="#000000">acc.hpp</text>
</a>
</g>
</g>
<!-- Node0&#45;&gt;Node2 -->
<g id="edge2" class="edge">
<title>Node0&#45;&gt;Node2</title>
<path fill="none" stroke="#191970" d="M337.7663,-112.4369C390.4143,-101.4358 475.7741,-83.5994 523.9395,-73.535"/>
<polygon fill="#191970" stroke="#191970" points="524.8409,-76.9224 533.9135,-71.4509 523.409,-70.0704 524.8409,-76.9224"/>
</g>
<!-- Node2&#45;&gt;Node1 -->
<g id="edge16" class="edge">
<title>Node2&#45;&gt;Node1</title>
<path fill="none" stroke="#191970" d="M533.9709,-65.5689C460.2322,-63.941 243.6698,-56.3481 56.2992,-19.884"/>
<polygon fill="#191970" stroke="#191970" points="56.7599,-16.4074 46.2706,-17.8988 55.4006,-23.2741 56.7599,-16.4074"/>
</g>
<!-- Node3 -->
<g id="node4" class="node">
<title>Node3</title>
<g id="a_node4"><a xlink:title=" ">
<polygon fill="#ffffff" stroke="#bfbfbf" points="64.5,-.5 64.5,-19.5 149.5,-19.5 149.5,-.5 64.5,-.5"/>
<text text-anchor="middle" x="107" y="-7.5" font-family="Helvetica,sans-Serif" font-size="10.00" fill="#000000">cuda_runtime.h</text>
</a>
</g>
</g>
<!-- Node2&#45;&gt;Node3 -->
<g id="edge3" class="edge">
<title>Node2&#45;&gt;Node3</title>
<path fill="none" stroke="#191970" d="M533.5632,-63.7101C470.5739,-58.0979 306.5115,-42.5617 159.6283,-20.1579"/>
<polygon fill="#191970" stroke="#191970" points="159.9484,-16.666 149.5321,-18.6027 158.8827,-23.5844 159.9484,-16.666"/>
</g>
<!-- Node4 -->
<g id="node5" class="node">
<title>Node4</title>
<g id="a_node5"><a xlink:title=" ">
<polygon fill="#ffffff" stroke="#bfbfbf" points="167.5,-.5 167.5,-19.5 214.5,-19.5 214.5,-.5 167.5,-.5"/>
<text text-anchor="middle" x="191" y="-7.5" font-family="Helvetica,sans-Serif" font-size="10.00" fill="#000000">cuda.h</text>
</a>
</g>
</g>
<!-- Node2&#45;&gt;Node4 -->
<g id="edge4" class="edge">
<title>Node2&#45;&gt;Node4</title>
<path fill="none" stroke="#191970" d="M533.6119,-63.8189C478.1065,-58.9274 345.1479,-45.6154 224.4519,-19.7896"/>
<polygon fill="#191970" stroke="#191970" points="225.1902,-16.3684 214.6749,-17.6638 223.7029,-23.2086 225.1902,-16.3684"/>
</g>
<!-- Node5 -->
<g id="node6" class="node">
<title>Node5</title>
<g id="a_node6"><a xlink:title=" ">
<polygon fill="#ffffff" stroke="#bfbfbf" points="233,-.5 233,-19.5 303,-19.5 303,-.5 233,-.5"/>
<text text-anchor="middle" x="268" y="-7.5" font-family="Helvetica,sans-Serif" font-size="10.00" fill="#000000">cublas_v2.h</text>
</a>
</g>
</g>
<!-- Node2&#45;&gt;Node5 -->
<g id="edge5" class="edge">
<title>Node2&#45;&gt;Node5</title>
<path fill="none" stroke="#191970" d="M533.8681,-61.5081C490.2619,-53.9361 399.6792,-37.8827 313.0343,-20.153"/>
<polygon fill="#191970" stroke="#191970" points="313.5372,-16.6832 303.037,-18.096 312.1264,-23.5396 313.5372,-16.6832"/>
</g>
<!-- Node6 -->
<g id="node7" class="node">
<title>Node6</title>
<g id="a_node7"><a xlink:title=" ">
<polygon fill="#ffffff" stroke="#bfbfbf" points="321.5,-.5 321.5,-19.5 384.5,-19.5 384.5,-.5 321.5,-.5"/>
<text text-anchor="middle" x="353" y="-7.5" font-family="Helvetica,sans-Serif" font-size="10.00" fill="#000000">cublasXt.h</text>
</a>
</g>
</g>
<!-- Node2&#45;&gt;Node6 -->
<g id="edge6" class="edge">
<title>Node2&#45;&gt;Node6</title>
<path fill="none" stroke="#191970" d="M533.7833,-58.9076C498.7075,-49.4184 436.1186,-32.4862 394.5768,-21.2478"/>
<polygon fill="#191970" stroke="#191970" points="395.3247,-17.8244 384.7577,-18.5914 393.4966,-24.5815 395.3247,-17.8244"/>
</g>
<!-- Node7 -->
<g id="node8" class="node">
<title>Node7</title>
<g id="a_node8"><a xlink:title=" ">
<polygon fill="#ffffff" stroke="#bfbfbf" points="403,-.5 403,-19.5 505,-19.5 505,-.5 403,-.5"/>
<text text-anchor="middle" x="454" y="-7.5" font-family="Helvetica,sans-Serif" font-size="10.00" fill="#000000">cuda_profiler_api.h</text>
</a>
</g>
</g>
<!-- Node2&#45;&gt;Node7 -->
<g id="edge7" class="edge">
<title>Node2&#45;&gt;Node7</title>
<path fill="none" stroke="#191970" d="M541.5362,-56.2455C524.8926,-47.4527 500.2007,-34.4079 481.2808,-24.4125"/>
<polygon fill="#191970" stroke="#191970" points="482.7291,-21.2193 472.2522,-19.6427 479.4592,-27.4086 482.7291,-21.2193"/>
</g>
<!-- Node8 -->
<g id="node9" class="node">
<title>Node8</title>
<g id="a_node9"><a xlink:title=" ">
<polygon fill="#ffffff" stroke="#bfbfbf" points="523,-.5 523,-19.5 597,-19.5 597,-.5 523,-.5"/>
<text text-anchor="middle" x="560" y="-7.5" font-family="Helvetica,sans-Serif" font-size="10.00" fill="#000000">nvToolsExt.h</text>
</a>
</g>
</g>
<!-- Node2&#45;&gt;Node8 -->
<g id="edge8" class="edge">
<title>Node2&#45;&gt;Node8</title>
<path fill="none" stroke="#191970" d="M560,-56.2455C560,-48.9382 560,-38.6944 560,-29.7046"/>
<polygon fill="#191970" stroke="#191970" points="563.5001,-29.6426 560,-19.6427 556.5001,-29.6427 563.5001,-29.6426"/>
</g>
<!-- Node9 -->
<g id="node10" class="node">
<title>Node9</title>
<g id="a_node10"><a xlink:title=" ">
<polygon fill="#ffffff" stroke="#bfbfbf" points="615.5,-.5 615.5,-19.5 690.5,-19.5 690.5,-.5 615.5,-.5"/>
<text text-anchor="middle" x="653" y="-7.5" font-family="Helvetica,sans-Serif" font-size="10.00" fill="#000000">cuComplex.h</text>
</a>
</g>
</g>
<!-- Node2&#45;&gt;Node9 -->
<g id="edge9" class="edge">
<title>Node2&#45;&gt;Node9</title>
<path fill="none" stroke="#191970" d="M576.1994,-56.2455C590.6018,-47.5731 611.8732,-34.7645 628.3799,-24.825"/>
<polygon fill="#191970" stroke="#191970" points="630.225,-27.7996 636.9863,-19.6427 626.614,-21.8028 630.225,-27.7996"/>
</g>
<!-- Node10 -->
<g id="node11" class="node">
<title>Node10</title>
<g id="a_node11"><a xlink:title=" ">
<polygon fill="#ffffff" stroke="#bfbfbf" points="709,-.5 709,-19.5 771,-19.5 771,-.5 709,-.5"/>
<text text-anchor="middle" x="740" y="-7.5" font-family="Helvetica,sans-Serif" font-size="10.00" fill="#000000">execinfo.h</text>
</a>
</g>
</g>
<!-- Node2&#45;&gt;Node10 -->
<g id="edge10" class="edge">
<title>Node2&#45;&gt;Node10</title>
<path fill="none" stroke="#191970" d="M586.1735,-57.8571C615.9031,-48.6079 664.7762,-33.403 699.4494,-22.6158"/>
<polygon fill="#191970" stroke="#191970" points="700.7614,-25.8731 709.2702,-19.5604 698.6819,-19.1891 700.7614,-25.8731"/>
</g>
<!-- Node11 -->
<g id="node12" class="node">
<title>Node11</title>
<g id="a_node12"><a xlink:title=" ">
<polygon fill="#ffffff" stroke="#bfbfbf" points="789,-.5 789,-19.5 841,-19.5 841,-.5 789,-.5"/>
<text text-anchor="middle" x="815" y="-7.5" font-family="Helvetica,sans-Serif" font-size="10.00" fill="#000000">unistd.h</text>
</a>
</g>
</g>
<!-- Node2&#45;&gt;Node11 -->
<g id="edge11" class="edge">
<title>Node2&#45;&gt;Node11</title>
<path fill="none" stroke="#191970" d="M586.215,-61.1538C625.8143,-53.6968 703.4404,-38.5495 778.5792,-20.2266"/>
<polygon fill="#191970" stroke="#191970" points="779.8077,-23.5288 788.6812,-17.7399 778.1345,-16.7317 779.8077,-23.5288"/>
</g>
<!-- Node12 -->
<g id="node13" class="node">
<title>Node12</title>
<g id="a_node13"><a xlink:title=" ">
<polygon fill="#ffffff" stroke="#bfbfbf" points="859.5,-.5 859.5,-19.5 910.5,-19.5 910.5,-.5 859.5,-.5"/>
<text text-anchor="middle" x="885" y="-7.5" font-family="Helvetica,sans-Serif" font-size="10.00" fill="#000000">signal.h</text>
</a>
</g>
</g>
<!-- Node2&#45;&gt;Node12 -->
<g id="edge12" class="edge">
<title>Node2&#45;&gt;Node12</title>
<path fill="none" stroke="#191970" d="M586.1945,-62.9247C635.6934,-56.8834 746.4793,-42.2667 849.5307,-19.8699"/>
<polygon fill="#191970" stroke="#191970" points="850.4644,-23.2482 859.4769,-17.6782 848.958,-16.4122 850.4644,-23.2482"/>
</g>
<!-- Node13 -->
<g id="node14" class="node">
<title>Node13</title>
<g id="a_node14"><a xlink:title=" ">
<polygon fill="#ffffff" stroke="#bfbfbf" points="929,-.5 929,-19.5 981,-19.5 981,-.5 929,-.5"/>
<text text-anchor="middle" x="955" y="-7.5" font-family="Helvetica,sans-Serif" font-size="10.00" fill="#000000">assert.h</text>
</a>
</g>
</g>
<!-- Node2&#45;&gt;Node13 -->
<g id="edge13" class="edge">
<title>Node2&#45;&gt;Node13</title>
<path fill="none" stroke="#191970" d="M586.4232,-64.0012C644.7504,-59.2973 788.9897,-46.0636 918.6316,-20.0271"/>
<polygon fill="#191970" stroke="#191970" points="919.6341,-23.3947 928.7324,-17.966 918.2345,-16.5361 919.6341,-23.3947"/>
</g>
<!-- Node14 -->
<g id="node15" class="node">
<title>Node14</title>
<g id="a_node15"><a xlink:title=" ">
<polygon fill="#ffffff" stroke="#bfbfbf" points="999,-.5 999,-19.5 1053,-19.5 1053,-.5 999,-.5"/>
<text text-anchor="middle" x="1026" y="-7.5" font-family="Helvetica,sans-Serif" font-size="10.00" fill="#000000">complex</text>
</a>
</g>
</g>
<!-- Node2&#45;&gt;Node14 -->
<g id="edge14" class="edge">
<title>Node2&#45;&gt;Node14</title>
<path fill="none" stroke="#191970" d="M586.3981,-64.689C652.6405,-61.08 831.2922,-49.3737 989.1023,-19.8924"/>
<polygon fill="#191970" stroke="#191970" points="989.8137,-23.3199 998.986,-18.0171 988.5088,-16.4426 989.8137,-23.3199"/>
</g>
<!-- Node15 -->
<g id="node16" class="node">
<title>Node15</title>
<g id="a_node16"><a xlink:title=" ">
<polygon fill="#ffffff" stroke="#bfbfbf" points="1071,-.5 1071,-19.5 1115,-19.5 1115,-.5 1071,-.5"/>
<text text-anchor="middle" x="1093" y="-7.5" font-family="Helvetica,sans-Serif" font-size="10.00" fill="#000000">vector</text>
</a>
</g>
</g>
<!-- Node2&#45;&gt;Node15 -->
<g id="edge15" class="edge">
<title>Node2&#45;&gt;Node15</title>
<path fill="none" stroke="#191970" d="M586.1589,-65.6288C659.7598,-64.1598 874.8397,-56.9493 1060.8502,-19.8289"/>
<polygon fill="#191970" stroke="#191970" points="1061.7023,-23.2274 1070.8059,-17.8075 1060.3094,-16.3674 1061.7023,-23.2274"/>
</g>
</g>
</svg>
