<?xml version="1.0" encoding="UTF-8" standalone="no"?>
<!DOCTYPE svg PUBLIC "-//W3C//DTD SVG 1.1//EN"
 "http://www.w3.org/Graphics/SVG/1.1/DTD/svg11.dtd">
<!-- Generated by graphviz version 2.40.1 (20161225.0304)
 -->
<!-- Title: sirius::Smooth_periodic_function&lt; T &gt; Pages: 1 -->
<svg width="279pt" height="263pt"
 viewBox="0.00 0.00 278.50 263.00" xmlns="http://www.w3.org/2000/svg" xmlns:xlink="http://www.w3.org/1999/xlink">
<g id="graph0" class="graph" transform="scale(1 1) rotate(0) translate(4 259)">
<title>sirius::Smooth_periodic_function&lt; T &gt;</title>
<polygon fill="#ffffff" stroke="transparent" points="-4,4 -4,-259 274.5,-259 274.5,4 -4,4"/>
<!-- Node2 -->
<g id="node1" class="node">
<title>Node2</title>
<polygon fill="#bfbfbf" stroke="#000000" points="65.5,-.5 65.5,-30.5 185.5,-30.5 185.5,-.5 65.5,-.5"/>
<text text-anchor="start" x="73.5" y="-18.5" font-family="Helvetica,sans-Serif" font-size="10.00" fill="#000000">sirius::Smooth_periodic</text>
<text text-anchor="middle" x="125.5" y="-7.5" font-family="Helvetica,sans-Serif" font-size="10.00" fill="#000000">_function&lt; T &gt;</text>
</g>
<!-- Node3 -->
<g id="node2" class="node">
<title>Node3</title>
<g id="a_node2"><a xlink:href="classsddk_1_1mdarray.html" target="_top" xlink:title="sddk::mdarray\&lt; double\l_complex, 1 \&gt;">
<polygon fill="#ffffff" stroke="#000000" points=".5,-78.5 .5,-108.5 118.5,-108.5 118.5,-78.5 .5,-78.5"/>
<text text-anchor="start" x="8.5" y="-96.5" font-family="Helvetica,sans-Serif" font-size="10.00" fill="#000000">sddk::mdarray&lt; double</text>
<text text-anchor="middle" x="59.5" y="-85.5" font-family="Helvetica,sans-Serif" font-size="10.00" fill="#000000">_complex, 1 &gt;</text>
</a>
</g>
</g>
<!-- Node3&#45;&gt;Node2 -->
<g id="edge1" class="edge">
<title>Node3&#45;&gt;Node2</title>
<path fill="none" stroke="#9a32cd" stroke-dasharray="5,2" d="M78.9517,-70.5116C89.8013,-57.6894 103.0152,-42.0729 112.5884,-30.7592"/>
<polygon fill="#9a32cd" stroke="#9a32cd" points="76.0131,-68.5661 72.2255,-78.4608 81.3568,-73.0877 76.0131,-68.5661"/>
<text text-anchor="middle" x="123.5" y="-52" font-family="Helvetica,sans-Serif" font-size="10.00" fill="#000000"> f_pw_local_</text>
</g>
<!-- Node4 -->
<g id="node3" class="node">
<title>Node4</title>
<g id="a_node3"><a xlink:href="classsddk_1_1mdarray__base.html" target="_top" xlink:title="sddk::mdarray_base\l\&lt; double_complex, N \&gt;">
<polygon fill="#ffffff" stroke="#000000" points="0,-146.5 0,-176.5 119,-176.5 119,-146.5 0,-146.5"/>
<text text-anchor="start" x="8" y="-164.5" font-family="Helvetica,sans-Serif" font-size="10.00" fill="#000000">sddk::mdarray_base</text>
<text text-anchor="middle" x="59.5" y="-153.5" font-family="Helvetica,sans-Serif" font-size="10.00" fill="#000000">&lt; double_complex, N &gt;</text>
</a>
</g>
</g>
<!-- Node4&#45;&gt;Node3 -->
<g id="edge2" class="edge">
<title>Node4&#45;&gt;Node3</title>
<path fill="none" stroke="#191970" d="M59.5,-136.1174C59.5,-126.8378 59.5,-116.6413 59.5,-108.5492"/>
<polygon fill="#191970" stroke="#191970" points="56.0001,-136.4086 59.5,-146.4086 63.0001,-136.4086 56.0001,-136.4086"/>
</g>
<!-- Node5 -->
<g id="node4" class="node">
<title>Node5</title>
<g id="a_node4"><a xlink:href="classsddk_1_1mdarray.html" target="_top" xlink:title="sddk::mdarray\&lt; T, 1 \&gt;">
<polygon fill="#ffffff" stroke="#000000" points="136.5,-84 136.5,-103 250.5,-103 250.5,-84 136.5,-84"/>
<text text-anchor="middle" x="193.5" y="-91" font-family="Helvetica,sans-Serif" font-size="10.00" fill="#000000">sddk::mdarray&lt; T, 1 &gt;</text>
</a>
</g>
</g>
<!-- Node5&#45;&gt;Node2 -->
<g id="edge3" class="edge">
<title>Node5&#45;&gt;Node2</title>
<path fill="none" stroke="#9a32cd" stroke-dasharray="5,2" d="M178.7567,-76.0428C171.7552,-67.8019 163.2432,-57.8543 155.5,-49 150.2578,-43.0055 144.4304,-36.4697 139.3163,-30.7755"/>
<polygon fill="#9a32cd" stroke="#9a32cd" points="176.2757,-78.5288 185.4108,-83.8954 181.6162,-74.0034 176.2757,-78.5288"/>
<text text-anchor="middle" x="177.5" y="-52" font-family="Helvetica,sans-Serif" font-size="10.00" fill="#000000"> f_rg_</text>
</g>
<!-- Node6 -->
<g id="node5" class="node">
<title>Node6</title>
<g id="a_node5"><a xlink:href="classsddk_1_1mdarray__base.html" target="_top" xlink:title="Base class of multidimensional array. ">
<polygon fill="#ffffff" stroke="#000000" points="140,-146.5 140,-176.5 247,-176.5 247,-146.5 140,-146.5"/>
<text text-anchor="start" x="148" y="-164.5" font-family="Helvetica,sans-Serif" font-size="10.00" fill="#000000">sddk::mdarray_base</text>
<text text-anchor="middle" x="193.5" y="-153.5" font-family="Helvetica,sans-Serif" font-size="10.00" fill="#000000">&lt; T, N &gt;</text>
</a>
</g>
</g>
<!-- Node6&#45;&gt;Node5 -->
<g id="edge4" class="edge">
<title>Node6&#45;&gt;Node5</title>
<path fill="none" stroke="#191970" d="M193.5,-136.0669C193.5,-124.6483 193.5,-111.8507 193.5,-103.297"/>
<polygon fill="#191970" stroke="#191970" points="190.0001,-136.4086 193.5,-146.4086 197.0001,-136.4086 190.0001,-136.4086"/>
</g>
<!-- Node7 -->
<g id="node6" class="node">
<title>Node7</title>
<polygon fill="#ffffff" stroke="#bfbfbf" points="179,-235.5 179,-254.5 208,-254.5 208,-235.5 179,-235.5"/>
<text text-anchor="middle" x="193.5" y="-242.5" font-family="Helvetica,sans-Serif" font-size="10.00" fill="#000000">T</text>
</g>
<!-- Node7&#45;&gt;Node6 -->
<g id="edge5" class="edge">
<title>Node7&#45;&gt;Node6</title>
<path fill="none" stroke="#9a32cd" stroke-dasharray="5,2" d="M193.5,-225.2427C193.5,-210.345 193.5,-190.2186 193.5,-176.597"/>
<polygon fill="#9a32cd" stroke="#9a32cd" points="190.0001,-225.4215 193.5,-235.4215 197.0001,-225.4215 190.0001,-225.4215"/>
<text text-anchor="middle" x="232" y="-209" font-family="Helvetica,sans-Serif" font-size="10.00" fill="#000000"> raw_ptr_device_</text>
<text text-anchor="middle" x="232" y="-198" font-family="Helvetica,sans-Serif" font-size="10.00" fill="#000000">raw_ptr_</text>
</g>
</g>
</svg>
