<?xml version="1.0" encoding="UTF-8" standalone="no"?>
<!DOCTYPE svg PUBLIC "-//W3C//DTD SVG 1.1//EN"
 "http://www.w3.org/Graphics/SVG/1.1/DTD/svg11.dtd">
<!-- Generated by graphviz version 2.40.1 (20161225.0304)
 -->
<!-- Title: sirius::Atom Pages: 1 -->
<svg width="1445pt" height="923pt"
 viewBox="0.00 0.00 1445.00 922.50" xmlns="http://www.w3.org/2000/svg" xmlns:xlink="http://www.w3.org/1999/xlink">
<g id="graph0" class="graph" transform="scale(1 1) rotate(0) translate(4 918.5)">
<title>sirius::Atom</title>
<polygon fill="#ffffff" stroke="transparent" points="-4,4 -4,-918.5 1441,-918.5 1441,4 -4,4"/>
<!-- Node1 -->
<g id="node1" class="node">
<title>Node1</title>
<polygon fill="#bfbfbf" stroke="#000000" points="1368,-621 1368,-640 1437,-640 1437,-621 1368,-621"/>
<text text-anchor="middle" x="1402.5" y="-628" font-family="Helvetica,sans-Serif" font-size="10.00" fill="#000000">sirius::Atom</text>
</g>
<!-- Node2 -->
<g id="node2" class="node">
<title>Node2</title>
<g id="a_node2"><a xlink:href="classsddk_1_1mdarray.html" target="_top" xlink:title="sddk::mdarray\&lt; double\l_complex, 4 \&gt;">
<polygon fill="#ffffff" stroke="#000000" points="772.5,-576.5 772.5,-606.5 890.5,-606.5 890.5,-576.5 772.5,-576.5"/>
<text text-anchor="start" x="780.5" y="-594.5" font-family="Helvetica,sans-Serif" font-size="10.00" fill="#000000">sddk::mdarray&lt; double</text>
<text text-anchor="middle" x="831.5" y="-583.5" font-family="Helvetica,sans-Serif" font-size="10.00" fill="#000000">_complex, 4 &gt;</text>
</a>
</g>
</g>
<!-- Node2&#45;&gt;Node1 -->
<g id="edge1" class="edge">
<title>Node2&#45;&gt;Node1</title>
<path fill="none" stroke="#9a32cd" stroke-dasharray="5,2" d="M889.5778,-573.6844C926.9812,-563.1591 976.8753,-550.8709 1022,-545.5 1161.8027,-528.8601 1325.6155,-595.3733 1382.1303,-620.9008"/>
<polygon fill="#9a32cd" stroke="#9a32cd" points="888.5173,-570.3473 879.8621,-576.4577 890.4387,-577.0784 888.5173,-570.3473"/>
<text text-anchor="start" x="1022" y="-570.5" font-family="Helvetica,sans-Serif" font-size="10.00" fill="#000000"> uj_correction_matrix</text>
<text text-anchor="middle" x="1068.5" y="-559.5" font-family="Helvetica,sans-Serif" font-size="10.00" fill="#000000">_</text>
<text text-anchor="middle" x="1068.5" y="-548.5" font-family="Helvetica,sans-Serif" font-size="10.00" fill="#000000">occupation_matrix_</text>
</g>
<!-- Node3 -->
<g id="node3" class="node">
<title>Node3</title>
<g id="a_node3"><a xlink:href="classsddk_1_1mdarray__base.html" target="_top" xlink:title="sddk::mdarray_base\l\&lt; double_complex, N \&gt;">
<polygon fill="#ffffff" stroke="#000000" points="312.5,-510.5 312.5,-540.5 431.5,-540.5 431.5,-510.5 312.5,-510.5"/>
<text text-anchor="start" x="320.5" y="-528.5" font-family="Helvetica,sans-Serif" font-size="10.00" fill="#000000">sddk::mdarray_base</text>
<text text-anchor="middle" x="372" y="-517.5" font-family="Helvetica,sans-Serif" font-size="10.00" fill="#000000">&lt; double_complex, N &gt;</text>
</a>
</g>
</g>
<!-- Node3&#45;&gt;Node2 -->
<g id="edge2" class="edge">
<title>Node3&#45;&gt;Node2</title>
<path fill="none" stroke="#191970" d="M441.6388,-520.202C544.4636,-513.0332 727.4564,-503.0234 752,-520.5 771.922,-534.6857 752.4185,-555.4996 770,-572.5 771.446,-573.8982 772.9928,-575.1938 774.6189,-576.3942"/>
<polygon fill="#191970" stroke="#191970" points="441.3709,-516.7121 431.6422,-520.9076 441.8638,-523.6947 441.3709,-516.7121"/>
</g>
<!-- Node13 -->
<g id="node13" class="node">
<title>Node13</title>
<g id="a_node13"><a xlink:href="classsddk_1_1mdarray.html" target="_top" xlink:title="sddk::mdarray\&lt; double\l_complex \&gt;">
<polygon fill="#ffffff" stroke="#000000" points="624.5,-435.5 624.5,-465.5 742.5,-465.5 742.5,-435.5 624.5,-435.5"/>
<text text-anchor="start" x="632.5" y="-453.5" font-family="Helvetica,sans-Serif" font-size="10.00" fill="#000000">sddk::mdarray&lt; double</text>
<text text-anchor="middle" x="683.5" y="-442.5" font-family="Helvetica,sans-Serif" font-size="10.00" fill="#000000">_complex &gt;</text>
</a>
</g>
</g>
<!-- Node3&#45;&gt;Node13 -->
<g id="edge14" class="edge">
<title>Node3&#45;&gt;Node13</title>
<path fill="none" stroke="#191970" d="M441.7104,-510.1803C447.5568,-508.9245 453.3789,-507.684 459,-506.5 520.2393,-493.601 536.4663,-494.3843 597,-478.5 611.1989,-474.7742 626.4971,-470.0601 640.222,-465.5676"/>
<polygon fill="#191970" stroke="#191970" points="440.9169,-506.7709 431.8796,-512.3007 442.3928,-513.6135 440.9169,-506.7709"/>
</g>
<!-- Node4 -->
<g id="node4" class="node">
<title>Node4</title>
<g id="a_node4"><a xlink:href="classsirius_1_1_atom__type.html" target="_top" xlink:title="sirius::Atom_type">
<polygon fill="#ffffff" stroke="#000000" points="911,-389 911,-408 1004,-408 1004,-389 911,-389"/>
<text text-anchor="middle" x="957.5" y="-396" font-family="Helvetica,sans-Serif" font-size="10.00" fill="#000000">sirius::Atom_type</text>
</a>
</g>
</g>
<!-- Node4&#45;&gt;Node1 -->
<g id="edge3" class="edge">
<title>Node4&#45;&gt;Node1</title>
<path fill="none" stroke="#9a32cd" stroke-dasharray="5,2" d="M1014.2113,-405.1321C1096.7032,-417.4098 1250.7507,-450.5716 1350,-534.5 1378.285,-558.4187 1393.9409,-601.5994 1399.7959,-620.8197"/>
<polygon fill="#9a32cd" stroke="#9a32cd" points="1014.6683,-401.6619 1004.2719,-403.7026 1013.6718,-408.5906 1014.6683,-401.6619"/>
<text text-anchor="middle" x="1192" y="-474.5" font-family="Helvetica,sans-Serif" font-size="10.00" fill="#000000"> type_</text>
</g>
<!-- Node25 -->
<g id="node25" class="node">
<title>Node25</title>
<g id="a_node25"><a xlink:href="classsirius_1_1_atom__symmetry__class.html" target="_top" xlink:title="Data and methods specific to the symmetry class of the atom. ">
<polygon fill="#ffffff" stroke="#000000" points="1133,-615.5 1133,-645.5 1251,-645.5 1251,-615.5 1133,-615.5"/>
<text text-anchor="start" x="1141" y="-633.5" font-family="Helvetica,sans-Serif" font-size="10.00" fill="#000000">sirius::Atom_symmetry</text>
<text text-anchor="middle" x="1192" y="-622.5" font-family="Helvetica,sans-Serif" font-size="10.00" fill="#000000">_class</text>
</a>
</g>
</g>
<!-- Node4&#45;&gt;Node25 -->
<g id="edge33" class="edge">
<title>Node4&#45;&gt;Node25</title>
<path fill="none" stroke="#9a32cd" stroke-dasharray="5,2" d="M958.5136,-418.4408C961.548,-456.2572 973.6611,-538.5355 1022,-582.5 1053.4991,-611.1486 1074.0584,-593.8071 1115,-605.5 1125.5414,-608.5106 1136.8074,-612.0075 1147.3778,-615.4148"/>
<polygon fill="#9a32cd" stroke="#9a32cd" points="961.99,-417.9691 957.8333,-408.2238 955.0055,-418.4342 961.99,-417.9691"/>
<text text-anchor="middle" x="1068.5" y="-608.5" font-family="Helvetica,sans-Serif" font-size="10.00" fill="#000000"> atom_type_</text>
</g>
<!-- Node5 -->
<g id="node5" class="node">
<title>Node5</title>
<g id="a_node5"><a xlink:href="structpseudopotential__descriptor.html" target="_top" xlink:title="pseudopotential_descriptor">
<polygon fill="#ffffff" stroke="#000000" points="615,-583 615,-602 752,-602 752,-583 615,-583"/>
<text text-anchor="middle" x="683.5" y="-590" font-family="Helvetica,sans-Serif" font-size="10.00" fill="#000000">pseudopotential_descriptor</text>
</a>
</g>
</g>
<!-- Node5&#45;&gt;Node4 -->
<g id="edge4" class="edge">
<title>Node5&#45;&gt;Node4</title>
<path fill="none" stroke="#9a32cd" stroke-dasharray="5,2" d="M723.8183,-579.6569C733.1897,-576.3201 743.0416,-572.5226 752,-568.5 760.3486,-564.7512 761.3664,-561.5356 770,-558.5 822.318,-540.105 848.9425,-571.1822 893,-537.5 936.7489,-504.0538 951.9193,-433.8149 956.1239,-408.1519"/>
<polygon fill="#9a32cd" stroke="#9a32cd" points="722.5887,-576.3787 714.2839,-582.9575 724.8786,-582.9936 722.5887,-576.3787"/>
<text text-anchor="middle" x="831.5" y="-561.5" font-family="Helvetica,sans-Serif" font-size="10.00" fill="#000000"> pp_desc_</text>
</g>
<!-- Node6 -->
<g id="node6" class="node">
<title>Node6</title>
<g id="a_node6"><a xlink:href="classsddk_1_1mdarray.html" target="_top" xlink:title="sddk::mdarray\&lt; double, 2 \&gt;">
<polygon fill="#ffffff" stroke="#000000" points="303,-751 303,-770 441,-770 441,-751 303,-751"/>
<text text-anchor="middle" x="372" y="-758" font-family="Helvetica,sans-Serif" font-size="10.00" fill="#000000">sddk::mdarray&lt; double, 2 &gt;</text>
</a>
</g>
</g>
<!-- Node6&#45;&gt;Node1 -->
<g id="edge36" class="edge">
<title>Node6&#45;&gt;Node1</title>
<path fill="none" stroke="#9a32cd" stroke-dasharray="5,2" d="M401.6529,-774.2948C456.1922,-798.365 576.6357,-845.5 683.5,-845.5 683.5,-845.5 683.5,-845.5 1192,-845.5 1308.7519,-845.5 1382.0894,-681.6247 1398.8286,-640.0157"/>
<polygon fill="#9a32cd" stroke="#9a32cd" points="402.8114,-770.9787 392.2543,-770.0854 399.9501,-777.3672 402.8114,-770.9787"/>
<text text-anchor="middle" x="957.5" y="-859.5" font-family="Helvetica,sans-Serif" font-size="10.00" fill="#000000"> beff_</text>
<text text-anchor="middle" x="957.5" y="-848.5" font-family="Helvetica,sans-Serif" font-size="10.00" fill="#000000">veff_</text>
</g>
<!-- Node6&#45;&gt;Node5 -->
<g id="edge5" class="edge">
<title>Node6&#45;&gt;Node5</title>
<path fill="none" stroke="#9a32cd" stroke-dasharray="5,2" d="M393.4919,-745.0111C410.7964,-732.8268 435.9499,-715.7528 459,-702.5 531.0556,-661.0713 620.9337,-620.0707 661.6497,-602.0401"/>
<polygon fill="#9a32cd" stroke="#9a32cd" points="391.3383,-742.2477 385.2109,-750.8909 395.3909,-747.9553 391.3383,-742.2477"/>
<text text-anchor="middle" x="528" y="-738.5" font-family="Helvetica,sans-Serif" font-size="10.00" fill="#000000"> all_elec_wfc</text>
<text text-anchor="middle" x="528" y="-727.5" font-family="Helvetica,sans-Serif" font-size="10.00" fill="#000000">beta_radial_functions</text>
<text text-anchor="middle" x="528" y="-716.5" font-family="Helvetica,sans-Serif" font-size="10.00" fill="#000000">d_mtrx_ion</text>
<text text-anchor="middle" x="528" y="-705.5" font-family="Helvetica,sans-Serif" font-size="10.00" fill="#000000">pseudo_wfc</text>
</g>
<!-- Node6&#45;&gt;Node25 -->
<g id="edge34" class="edge">
<title>Node6&#45;&gt;Node25</title>
<path fill="none" stroke="#9a32cd" stroke-dasharray="5,2" d="M451.18,-756.8434C494.3403,-754.5307 548.6659,-751.1013 597,-746.5 729.0383,-733.9303 762.7876,-733.7357 893,-708.5 981.8755,-691.2755 1083.502,-662.8667 1142.4511,-645.5029"/>
<polygon fill="#9a32cd" stroke="#9a32cd" points="450.8259,-753.3571 441.0238,-757.3782 451.1941,-760.3474 450.8259,-753.3571"/>
<text text-anchor="start" x="781" y="-753.5" font-family="Helvetica,sans-Serif" font-size="10.00" fill="#000000"> o1_radial_integrals</text>
<text text-anchor="middle" x="831.5" y="-742.5" font-family="Helvetica,sans-Serif" font-size="10.00" fill="#000000">_</text>
<text text-anchor="middle" x="831.5" y="-731.5" font-family="Helvetica,sans-Serif" font-size="10.00" fill="#000000">h_spherical_integrals_</text>
</g>
<!-- Node7 -->
<g id="node7" class="node">
<title>Node7</title>
<g id="a_node7"><a xlink:href="classsddk_1_1mdarray__base.html" target="_top" xlink:title="sddk::mdarray_base\l\&lt; double, N \&gt;">
<polygon fill="#ffffff" stroke="#000000" points="137,-745.5 137,-775.5 244,-775.5 244,-745.5 137,-745.5"/>
<text text-anchor="start" x="145" y="-763.5" font-family="Helvetica,sans-Serif" font-size="10.00" fill="#000000">sddk::mdarray_base</text>
<text text-anchor="middle" x="190.5" y="-752.5" font-family="Helvetica,sans-Serif" font-size="10.00" fill="#000000">&lt; double, N &gt;</text>
</a>
</g>
</g>
<!-- Node7&#45;&gt;Node6 -->
<g id="edge6" class="edge">
<title>Node7&#45;&gt;Node6</title>
<path fill="none" stroke="#191970" d="M254.5326,-760.5C270.1405,-760.5 286.9059,-760.5 302.7444,-760.5"/>
<polygon fill="#191970" stroke="#191970" points="254.4646,-757.0001 244.4646,-760.5 254.4645,-764.0001 254.4646,-757.0001"/>
</g>
<!-- Node8 -->
<g id="node8" class="node">
<title>Node8</title>
<g id="a_node8"><a xlink:href="classsddk_1_1mdarray.html" target="_top" xlink:title="sddk::mdarray\&lt; double, 3 \&gt;">
<polygon fill="#ffffff" stroke="#000000" points="303,-621 303,-640 441,-640 441,-621 303,-621"/>
<text text-anchor="middle" x="372" y="-628" font-family="Helvetica,sans-Serif" font-size="10.00" fill="#000000">sddk::mdarray&lt; double, 3 &gt;</text>
</a>
</g>
</g>
<!-- Node7&#45;&gt;Node8 -->
<g id="edge8" class="edge">
<title>Node7&#45;&gt;Node8</title>
<path fill="none" stroke="#191970" d="M219.9589,-739.3999C259.8969,-710.7942 329.5685,-660.8917 358.6516,-640.0609"/>
<polygon fill="#191970" stroke="#191970" points="217.7673,-736.6645 211.6756,-745.3329 221.8434,-742.3553 217.7673,-736.6645"/>
</g>
<!-- Node26 -->
<g id="node26" class="node">
<title>Node26</title>
<g id="a_node26"><a xlink:href="classsddk_1_1mdarray.html" target="_top" xlink:title="sddk::mdarray\&lt; double, 4 \&gt;">
<polygon fill="#ffffff" stroke="#000000" points="459,-877 459,-896 597,-896 597,-877 459,-877"/>
<text text-anchor="middle" x="528" y="-884" font-family="Helvetica,sans-Serif" font-size="10.00" fill="#000000">sddk::mdarray&lt; double, 4 &gt;</text>
</a>
</g>
</g>
<!-- Node7&#45;&gt;Node26 -->
<g id="edge39" class="edge">
<title>Node7&#45;&gt;Node26</title>
<path fill="none" stroke="#191970" d="M240.3323,-779.1041C313.3492,-806.3637 446.7684,-856.1736 502.4889,-876.9759"/>
<polygon fill="#191970" stroke="#191970" points="241.4677,-775.792 230.8752,-775.5734 239.0194,-782.3499 241.4677,-775.792"/>
</g>
<!-- Node8&#45;&gt;Node1 -->
<g id="edge37" class="edge">
<title>Node8&#45;&gt;Node1</title>
<path fill="none" stroke="#9a32cd" stroke-dasharray="5,2" d="M386.259,-648.0609C402.0505,-666.2348 429.2402,-693.9577 459,-708.5 585.1853,-770.1612 630.1117,-752.006 770,-764.5 1013.4473,-786.2432 1300.3604,-674.049 1380.6632,-640.0368"/>
<polygon fill="#9a32cd" stroke="#9a32cd" points="388.5854,-645.3908 379.4611,-640.0058 383.2358,-649.9055 388.5854,-645.3908"/>
<text text-anchor="start" x="916.5" y="-788.5" font-family="Helvetica,sans-Serif" font-size="10.00" fill="#000000"> h_radial_integrals</text>
<text text-anchor="middle" x="957.5" y="-777.5" font-family="Helvetica,sans-Serif" font-size="10.00" fill="#000000">_</text>
<text text-anchor="middle" x="957.5" y="-766.5" font-family="Helvetica,sans-Serif" font-size="10.00" fill="#000000">d_mtrx_</text>
</g>
<!-- Node8&#45;&gt;Node4 -->
<g id="edge28" class="edge">
<title>Node8&#45;&gt;Node4</title>
<path fill="none" stroke="#9a32cd" stroke-dasharray="5,2" d="M399.2701,-616.0824C416.1924,-607.452 438.5399,-596.619 459,-588.5 647.0093,-513.8937 715.1813,-547.9058 893,-451.5 914.9151,-439.6186 936.4981,-419.7778 948.3024,-408.0365"/>
<polygon fill="#9a32cd" stroke="#9a32cd" points="397.27,-613.1759 389.9887,-620.8721 400.4802,-619.3964 397.27,-613.1759"/>
<text text-anchor="middle" x="683.5" y="-554.5" font-family="Helvetica,sans-Serif" font-size="10.00" fill="#000000"> rf_coef_</text>
<text text-anchor="middle" x="683.5" y="-543.5" font-family="Helvetica,sans-Serif" font-size="10.00" fill="#000000">vrf_coef_</text>
</g>
<!-- Node8&#45;&gt;Node5 -->
<g id="edge7" class="edge">
<title>Node8&#45;&gt;Node5</title>
<path fill="none" stroke="#9a32cd" stroke-dasharray="5,2" d="M409.0659,-617.8832C424.3509,-613.1981 442.3522,-608.3377 459,-605.5 510.7635,-596.6768 570.1049,-593.5364 614.7728,-592.5429"/>
<polygon fill="#9a32cd" stroke="#9a32cd" points="407.9398,-614.5683 399.4552,-620.9136 410.0449,-621.2443 407.9398,-614.5683"/>
<text text-anchor="middle" x="528" y="-608.5" font-family="Helvetica,sans-Serif" font-size="10.00" fill="#000000"> q_radial_functions_l</text>
</g>
<!-- Node8&#45;&gt;Node25 -->
<g id="edge35" class="edge">
<title>Node8&#45;&gt;Node25</title>
<path fill="none" stroke="#9a32cd" stroke-dasharray="5,2" d="M451.2166,-630.5C615.0306,-630.5 987.8222,-630.5 1132.7874,-630.5"/>
<polygon fill="#9a32cd" stroke="#9a32cd" points="451.2061,-627.0001 441.206,-630.5 451.206,-634.0001 451.2061,-627.0001"/>
<text text-anchor="start" x="779" y="-699.5" font-family="Helvetica,sans-Serif" font-size="10.00" fill="#000000"> o_radial_integrals</text>
<text text-anchor="middle" x="831.5" y="-688.5" font-family="Helvetica,sans-Serif" font-size="10.00" fill="#000000">_</text>
<text text-anchor="start" x="779" y="-677.5" font-family="Helvetica,sans-Serif" font-size="10.00" fill="#000000">aw_surface_derivatives</text>
<text text-anchor="middle" x="831.5" y="-666.5" font-family="Helvetica,sans-Serif" font-size="10.00" fill="#000000">_</text>
<text text-anchor="start" x="779" y="-655.5" font-family="Helvetica,sans-Serif" font-size="10.00" fill="#000000">so_radial_integrals</text>
<text text-anchor="middle" x="831.5" y="-644.5" font-family="Helvetica,sans-Serif" font-size="10.00" fill="#000000">_</text>
<text text-anchor="middle" x="831.5" y="-633.5" font-family="Helvetica,sans-Serif" font-size="10.00" fill="#000000">radial_functions_</text>
</g>
<!-- Node9 -->
<g id="node9" class="node">
<title>Node9</title>
<g id="a_node9"><a xlink:href="classsddk_1_1mdarray.html" target="_top" xlink:title="sddk::mdarray\&lt; int, 2 \&gt;">
<polygon fill="#ffffff" stroke="#000000" points="312.5,-163 312.5,-182 431.5,-182 431.5,-163 312.5,-163"/>
<text text-anchor="middle" x="372" y="-170" font-family="Helvetica,sans-Serif" font-size="10.00" fill="#000000">sddk::mdarray&lt; int, 2 &gt;</text>
</a>
</g>
</g>
<!-- Node9&#45;&gt;Node4 -->
<g id="edge9" class="edge">
<title>Node9&#45;&gt;Node4</title>
<path fill="none" stroke="#9a32cd" stroke-dasharray="5,2" d="M442.101,-169.2536C486.6475,-168.221 545.4298,-168.7623 597,-175.5 733.0897,-193.2801 790.7068,-171.9978 893,-263.5 932.6879,-299.0012 950.1738,-364.2138 955.5657,-388.788"/>
<polygon fill="#9a32cd" stroke="#9a32cd" points="441.8645,-165.7585 431.9604,-169.5213 442.0494,-172.756 441.8645,-165.7585"/>
<text text-anchor="middle" x="683.5" y="-194.5" font-family="Helvetica,sans-Serif" font-size="10.00" fill="#000000"> idx_radial_integrals_</text>
</g>
<!-- Node14 -->
<g id="node14" class="node">
<title>Node14</title>
<g id="a_node14"><a xlink:href="classsirius_1_1radial__functions__index.html" target="_top" xlink:title="sirius::radial_functions\l_index">
<polygon fill="#ffffff" stroke="#000000" points="626,-284.5 626,-314.5 741,-314.5 741,-284.5 626,-284.5"/>
<text text-anchor="start" x="634" y="-302.5" font-family="Helvetica,sans-Serif" font-size="10.00" fill="#000000">sirius::radial_functions</text>
<text text-anchor="middle" x="683.5" y="-291.5" font-family="Helvetica,sans-Serif" font-size="10.00" fill="#000000">_index</text>
</a>
</g>
</g>
<!-- Node9&#45;&gt;Node14 -->
<g id="edge17" class="edge">
<title>Node9&#45;&gt;Node14</title>
<path fill="none" stroke="#9a32cd" stroke-dasharray="5,2" d="M406.6779,-186.4116C418.5073,-192.3076 431.2065,-200.0326 441,-209.5 452.4547,-220.5733 445.8317,-231.5321 459,-240.5 510.2777,-275.4211 539.578,-238.0138 597,-261.5 606.1338,-265.2358 606.2823,-269.8757 615,-274.5 621.822,-278.1188 629.2822,-281.4324 636.6891,-284.3809"/>
<polygon fill="#9a32cd" stroke="#9a32cd" points="407.9889,-183.1606 397.4496,-182.0769 405.0128,-189.4964 407.9889,-183.1606"/>
<text text-anchor="middle" x="528" y="-264.5" font-family="Helvetica,sans-Serif" font-size="10.00" fill="#000000"> index_by_l_order_</text>
</g>
<!-- Node24 -->
<g id="node24" class="node">
<title>Node24</title>
<g id="a_node24"><a xlink:href="classsirius_1_1basis__functions__index.html" target="_top" xlink:title="sirius::basis_functions\l_index">
<polygon fill="#ffffff" stroke="#000000" points="626.5,-235.5 626.5,-265.5 740.5,-265.5 740.5,-235.5 626.5,-235.5"/>
<text text-anchor="start" x="634.5" y="-253.5" font-family="Helvetica,sans-Serif" font-size="10.00" fill="#000000">sirius::basis_functions</text>
<text text-anchor="middle" x="683.5" y="-242.5" font-family="Helvetica,sans-Serif" font-size="10.00" fill="#000000">_index</text>
</a>
</g>
</g>
<!-- Node9&#45;&gt;Node24 -->
<g id="edge30" class="edge">
<title>Node9&#45;&gt;Node24</title>
<path fill="none" stroke="#9a32cd" stroke-dasharray="5,2" d="M441.9027,-177.0282C487.2461,-181.6408 546.9764,-190.9123 597,-209.5 605.7885,-212.7656 606.6868,-216.165 615,-220.5 625.0152,-225.7226 636.1345,-230.8602 646.4508,-235.3675"/>
<polygon fill="#9a32cd" stroke="#9a32cd" points="442.1622,-173.5371 431.872,-176.0596 441.4893,-180.5047 442.1622,-173.5371"/>
<text text-anchor="middle" x="528" y="-212.5" font-family="Helvetica,sans-Serif" font-size="10.00" fill="#000000"> index_by_lm_order_</text>
</g>
<!-- Node10 -->
<g id="node10" class="node">
<title>Node10</title>
<g id="a_node10"><a xlink:href="classsddk_1_1mdarray__base.html" target="_top" xlink:title="sddk::mdarray_base\l\&lt; int, N \&gt;">
<polygon fill="#ffffff" stroke="#000000" points="137,-.5 137,-30.5 244,-30.5 244,-.5 137,-.5"/>
<text text-anchor="start" x="145" y="-18.5" font-family="Helvetica,sans-Serif" font-size="10.00" fill="#000000">sddk::mdarray_base</text>
<text text-anchor="middle" x="190.5" y="-7.5" font-family="Helvetica,sans-Serif" font-size="10.00" fill="#000000">&lt; int, N &gt;</text>
</a>
</g>
</g>
<!-- Node10&#45;&gt;Node9 -->
<g id="edge10" class="edge">
<title>Node10&#45;&gt;Node9</title>
<path fill="none" stroke="#191970" d="M254.2248,-4.2952C265.5475,-5.4171 276.4396,-8.9398 285,-16.5 329.7101,-55.9858 264.9486,-103.563 303,-149.5 307.833,-155.3346 314.1908,-159.6976 321.0932,-162.9584"/>
<polygon fill="#191970" stroke="#191970" points="254.346,-.7973 244.2115,-3.8861 254.0602,-7.7915 254.346,-.7973"/>
</g>
<!-- Node15 -->
<g id="node15" class="node">
<title>Node15</title>
<g id="a_node15"><a xlink:href="classsddk_1_1mdarray.html" target="_top" xlink:title="sddk::mdarray\&lt; int, 1 \&gt;">
<polygon fill="#ffffff" stroke="#000000" points="312.5,-219 312.5,-238 431.5,-238 431.5,-219 312.5,-219"/>
<text text-anchor="middle" x="372" y="-226" font-family="Helvetica,sans-Serif" font-size="10.00" fill="#000000">sddk::mdarray&lt; int, 1 &gt;</text>
</a>
</g>
</g>
<!-- Node10&#45;&gt;Node15 -->
<g id="edge19" class="edge">
<title>Node10&#45;&gt;Node15</title>
<path fill="none" stroke="#191970" d="M244.1454,-36.7425C245.1367,-37.6263 246.0904,-38.545 247,-39.5 296.6534,-91.632 255.7563,-137.1746 303,-191.5 313.8821,-204.0133 330.0629,-213.003 344.0206,-218.9856"/>
<polygon fill="#191970" stroke="#191970" points="246.0284,-33.7814 235.9128,-30.6309 241.8559,-39.4019 246.0284,-33.7814"/>
</g>
<!-- Node11 -->
<g id="node11" class="node">
<title>Node11</title>
<g id="a_node11"><a xlink:href="classsirius_1_1_spline.html" target="_top" xlink:title="sirius::Spline\&lt; double \&gt;">
<polygon fill="#ffffff" stroke="#000000" points="623.5,-81 623.5,-100 743.5,-100 743.5,-81 623.5,-81"/>
<text text-anchor="middle" x="683.5" y="-88" font-family="Helvetica,sans-Serif" font-size="10.00" fill="#000000">sirius::Spline&lt; double &gt;</text>
</a>
</g>
</g>
<!-- Node11&#45;&gt;Node4 -->
<g id="edge11" class="edge">
<title>Node11&#45;&gt;Node4</title>
<path fill="none" stroke="#9a32cd" stroke-dasharray="5,2" d="M753.6288,-88.9874C806.3496,-89.3784 872.8192,-93.6273 893,-111.5 936.1059,-149.6758 953.3177,-343.2837 956.8071,-388.8749"/>
<polygon fill="#9a32cd" stroke="#9a32cd" points="753.6333,-85.4875 743.6227,-88.9572 753.6121,-92.4874 753.6333,-85.4875"/>
<text text-anchor="middle" x="831.5" y="-114.5" font-family="Helvetica,sans-Serif" font-size="10.00" fill="#000000"> free_atom_density_spline_</text>
</g>
<!-- Node12 -->
<g id="node12" class="node">
<title>Node12</title>
<g id="a_node12"><a xlink:href="classsirius_1_1_radial__grid.html" target="_top" xlink:title="sirius::Radial_grid\l\&lt; double \&gt;">
<polygon fill="#ffffff" stroke="#000000" points="324,-110.5 324,-140.5 420,-140.5 420,-110.5 324,-110.5"/>
<text text-anchor="start" x="332" y="-128.5" font-family="Helvetica,sans-Serif" font-size="10.00" fill="#000000">sirius::Radial_grid</text>
<text text-anchor="middle" x="372" y="-117.5" font-family="Helvetica,sans-Serif" font-size="10.00" fill="#000000">&lt; double &gt;</text>
</a>
</g>
</g>
<!-- Node12&#45;&gt;Node4 -->
<g id="edge15" class="edge">
<title>Node12&#45;&gt;Node4</title>
<path fill="none" stroke="#9a32cd" stroke-dasharray="5,2" d="M430.5128,-124.1109C553.0361,-122.544 830.4286,-126.4579 893,-191.5 921.6409,-221.2718 948.5857,-352.1703 955.687,-388.8916"/>
<polygon fill="#9a32cd" stroke="#9a32cd" points="430.1517,-120.6157 420.2035,-124.2605 430.2533,-127.6149 430.1517,-120.6157"/>
<text text-anchor="start" x="633" y="-165.5" font-family="Helvetica,sans-Serif" font-size="10.00" fill="#000000"> free_atom_radial_grid</text>
<text text-anchor="middle" x="683.5" y="-154.5" font-family="Helvetica,sans-Serif" font-size="10.00" fill="#000000">_</text>
<text text-anchor="middle" x="683.5" y="-143.5" font-family="Helvetica,sans-Serif" font-size="10.00" fill="#000000">radial_grid_</text>
</g>
<!-- Node12&#45;&gt;Node11 -->
<g id="edge12" class="edge">
<title>Node12&#45;&gt;Node11</title>
<path fill="none" stroke="#9a32cd" stroke-dasharray="5,2" d="M430.1387,-115.5972C439.7639,-114.1151 449.6511,-112.6881 459,-111.5 514.5319,-104.4425 578.0743,-98.717 623.3505,-95.0375"/>
<polygon fill="#9a32cd" stroke="#9a32cd" points="429.5718,-112.1432 420.2368,-117.1539 430.659,-119.0583 429.5718,-112.1432"/>
<text text-anchor="middle" x="528" y="-114.5" font-family="Helvetica,sans-Serif" font-size="10.00" fill="#000000"> radial_grid_</text>
</g>
<!-- Node13&#45;&gt;Node4 -->
<g id="edge13" class="edge">
<title>Node13&#45;&gt;Node4</title>
<path fill="none" stroke="#9a32cd" stroke-dasharray="5,2" d="M752.6774,-439.2423C793.5914,-432.3452 846.3656,-423.0335 893,-413.5 901.1099,-411.8421 909.7601,-409.9302 918.005,-408.0384"/>
<polygon fill="#9a32cd" stroke="#9a32cd" points="752.092,-435.7915 742.809,-440.8979 753.2503,-442.695 752.092,-435.7915"/>
<text text-anchor="middle" x="831.5" y="-439.5" font-family="Helvetica,sans-Serif" font-size="10.00" fill="#000000"> p_mtrx_</text>
</g>
<!-- Node14&#45;&gt;Node4 -->
<g id="edge16" class="edge">
<title>Node14&#45;&gt;Node4</title>
<path fill="none" stroke="#9a32cd" stroke-dasharray="5,2" d="M734.8497,-318.0534C793.0236,-339.0724 885.6023,-372.5224 930.8481,-388.8703"/>
<polygon fill="#9a32cd" stroke="#9a32cd" points="735.709,-314.6424 725.1147,-314.536 733.3303,-321.2259 735.709,-314.6424"/>
<text text-anchor="middle" x="831.5" y="-378.5" font-family="Helvetica,sans-Serif" font-size="10.00" fill="#000000"> indexr_</text>
</g>
<!-- Node15&#45;&gt;Node14 -->
<g id="edge18" class="edge">
<title>Node15&#45;&gt;Node14</title>
<path fill="none" stroke="#9a32cd" stroke-dasharray="5,2" d="M394.687,-243.5505C411.6659,-254.0365 435.8533,-267.3745 459,-274.5 513.9094,-291.4035 579.4943,-297.1476 625.5541,-298.9689"/>
<polygon fill="#9a32cd" stroke="#9a32cd" points="396.3685,-240.4725 386.0483,-238.076 392.6215,-246.3852 396.3685,-240.4725"/>
<text text-anchor="middle" x="528" y="-300.5" font-family="Helvetica,sans-Serif" font-size="10.00" fill="#000000"> index_by_idxlo_</text>
</g>
<!-- Node15&#45;&gt;Node24 -->
<g id="edge31" class="edge">
<title>Node15&#45;&gt;Node24</title>
<path fill="none" stroke="#9a32cd" stroke-dasharray="5,2" d="M442.0651,-224.621C486.5976,-223.1888 545.3778,-223.207 597,-229.5 607.738,-230.809 619.0711,-232.9723 629.871,-235.4248"/>
<polygon fill="#9a32cd" stroke="#9a32cd" points="441.7979,-221.1281 431.928,-224.9798 442.0455,-228.1238 441.7979,-221.1281"/>
<text text-anchor="middle" x="528" y="-232.5" font-family="Helvetica,sans-Serif" font-size="10.00" fill="#000000"> index_by_idxrf_</text>
</g>
<!-- Node16 -->
<g id="node16" class="node">
<title>Node16</title>
<g id="a_node16"><a xlink:href="classsirius_1_1_simulation__parameters.html" target="_top" xlink:title="Set of basic parameters of a simulation. ">
<polygon fill="#ffffff" stroke="#000000" points="637.5,-383.5 637.5,-413.5 729.5,-413.5 729.5,-383.5 637.5,-383.5"/>
<text text-anchor="start" x="645.5" y="-401.5" font-family="Helvetica,sans-Serif" font-size="10.00" fill="#000000">sirius::Simulation</text>
<text text-anchor="middle" x="683.5" y="-390.5" font-family="Helvetica,sans-Serif" font-size="10.00" fill="#000000">_parameters</text>
</a>
</g>
</g>
<!-- Node16&#45;&gt;Node4 -->
<g id="edge20" class="edge">
<title>Node16&#45;&gt;Node4</title>
<path fill="none" stroke="#9a32cd" stroke-dasharray="5,2" d="M739.7574,-398.5C790.203,-398.5 863.3574,-398.5 910.6811,-398.5"/>
<polygon fill="#9a32cd" stroke="#9a32cd" points="739.6706,-395.0001 729.6705,-398.5 739.6705,-402.0001 739.6706,-395.0001"/>
<text text-anchor="middle" x="831.5" y="-401.5" font-family="Helvetica,sans-Serif" font-size="10.00" fill="#000000"> parameters_</text>
</g>
<!-- Node17 -->
<g id="node17" class="node">
<title>Node17</title>
<g id="a_node17"><a xlink:href="structsirius_1_1_parameters__input.html" target="_top" xlink:title="sirius::Parameters\l_input">
<polygon fill="#ffffff" stroke="#000000" points="323.5,-335.5 323.5,-365.5 420.5,-365.5 420.5,-335.5 323.5,-335.5"/>
<text text-anchor="start" x="331.5" y="-353.5" font-family="Helvetica,sans-Serif" font-size="10.00" fill="#000000">sirius::Parameters</text>
<text text-anchor="middle" x="372" y="-342.5" font-family="Helvetica,sans-Serif" font-size="10.00" fill="#000000">_input</text>
</a>
</g>
</g>
<!-- Node17&#45;&gt;Node16 -->
<g id="edge21" class="edge">
<title>Node17&#45;&gt;Node16</title>
<path fill="none" stroke="#9a32cd" stroke-dasharray="5,2" d="M430.8212,-357.6698C476.2986,-363.4389 540.7741,-372.1094 597,-381.5 610.1331,-383.6934 624.33,-386.3594 637.3509,-388.9234"/>
<polygon fill="#9a32cd" stroke="#9a32cd" points="431.1999,-354.19 420.8406,-356.4116 430.3243,-361.135 431.1999,-354.19"/>
<text text-anchor="middle" x="528" y="-384.5" font-family="Helvetica,sans-Serif" font-size="10.00" fill="#000000"> parameters_input_</text>
</g>
<!-- Node18 -->
<g id="node18" class="node">
<title>Node18</title>
<g id="a_node18"><a xlink:href="structsirius_1_1_control__input.html" target="_top" xlink:title="Parse control input section. ">
<polygon fill="#ffffff" stroke="#000000" points="319.5,-297 319.5,-316 424.5,-316 424.5,-297 319.5,-297"/>
<text text-anchor="middle" x="372" y="-304" font-family="Helvetica,sans-Serif" font-size="10.00" fill="#000000">sirius::Control_input</text>
</a>
</g>
</g>
<!-- Node18&#45;&gt;Node16 -->
<g id="edge22" class="edge">
<title>Node18&#45;&gt;Node16</title>
<path fill="none" stroke="#9a32cd" stroke-dasharray="5,2" d="M434.8998,-311.9698C480.9131,-317.3936 544.2456,-327.8543 597,-347.5 620.8523,-356.3826 645.6327,-371.7215 662.5245,-383.2635"/>
<polygon fill="#9a32cd" stroke="#9a32cd" points="435.0991,-308.4702 424.7691,-310.8239 434.3123,-315.4258 435.0991,-308.4702"/>
<text text-anchor="middle" x="528" y="-350.5" font-family="Helvetica,sans-Serif" font-size="10.00" fill="#000000"> control_input_</text>
</g>
<!-- Node19 -->
<g id="node19" class="node">
<title>Node19</title>
<g id="a_node19"><a xlink:href="structsirius_1_1_unit__cell__input.html" target="_top" xlink:title="Parse unit cell input section. ">
<polygon fill="#ffffff" stroke="#000000" points="316.5,-385 316.5,-404 427.5,-404 427.5,-385 316.5,-385"/>
<text text-anchor="middle" x="372" y="-392" font-family="Helvetica,sans-Serif" font-size="10.00" fill="#000000">sirius::Unit_cell_input</text>
</a>
</g>
</g>
<!-- Node19&#45;&gt;Node16 -->
<g id="edge23" class="edge">
<title>Node19&#45;&gt;Node16</title>
<path fill="none" stroke="#9a32cd" stroke-dasharray="5,2" d="M437.8038,-395.345C497.7095,-396.1142 584.6253,-397.2303 637.4167,-397.9082"/>
<polygon fill="#9a32cd" stroke="#9a32cd" points="437.7341,-391.8439 427.69,-395.2151 437.6442,-398.8433 437.7341,-391.8439"/>
<text text-anchor="middle" x="528" y="-400.5" font-family="Helvetica,sans-Serif" font-size="10.00" fill="#000000"> unit_cell_input_</text>
</g>
<!-- Node20 -->
<g id="node20" class="node">
<title>Node20</title>
<g id="a_node20"><a xlink:href="classgeometry3d_1_1vector3d.html" target="_top" xlink:title="geometry3d::vector3d\l\&lt; double \&gt;">
<polygon fill="#ffffff" stroke="#000000" points="134,-49.5 134,-79.5 247,-79.5 247,-49.5 134,-49.5"/>
<text text-anchor="start" x="142" y="-67.5" font-family="Helvetica,sans-Serif" font-size="10.00" fill="#000000">geometry3d::vector3d</text>
<text text-anchor="middle" x="190.5" y="-56.5" font-family="Helvetica,sans-Serif" font-size="10.00" fill="#000000">&lt; double &gt;</text>
</a>
</g>
</g>
<!-- Node20&#45;&gt;Node1 -->
<g id="edge40" class="edge">
<title>Node20&#45;&gt;Node1</title>
<path fill="none" stroke="#9a32cd" stroke-dasharray="5,2" d="M257.595,-57.9437C291.8011,-55.1402 334.0803,-52.5 372,-52.5 372,-52.5 372,-52.5 1192,-52.5 1318.2848,-52.5 1390.8917,-545.799 1401.2202,-620.95"/>
<polygon fill="#9a32cd" stroke="#9a32cd" points="256.9226,-54.4879 247.2522,-58.8163 257.5111,-61.4631 256.9226,-54.4879"/>
<text text-anchor="middle" x="831.5" y="-66.5" font-family="Helvetica,sans-Serif" font-size="10.00" fill="#000000"> vector_field_</text>
<text text-anchor="middle" x="831.5" y="-55.5" font-family="Helvetica,sans-Serif" font-size="10.00" fill="#000000">position_</text>
</g>
<!-- Node20&#45;&gt;Node19 -->
<g id="edge24" class="edge">
<title>Node20&#45;&gt;Node19</title>
<path fill="none" stroke="#9a32cd" stroke-dasharray="5,2" d="M192.1727,-89.9368C197.4381,-148.8549 218.7712,-295.6545 303,-374.5 307.6437,-378.8469 313.1757,-382.2557 319.0577,-384.9275"/>
<polygon fill="#9a32cd" stroke="#9a32cd" points="195.6381,-89.3668 191.3423,-79.6819 188.6609,-89.9318 195.6381,-89.3668"/>
<text text-anchor="middle" x="275" y="-380.5" font-family="Helvetica,sans-Serif" font-size="10.00" fill="#000000"> a2_</text>
<text text-anchor="middle" x="275" y="-369.5" font-family="Helvetica,sans-Serif" font-size="10.00" fill="#000000">a1_</text>
<text text-anchor="middle" x="275" y="-358.5" font-family="Helvetica,sans-Serif" font-size="10.00" fill="#000000">a0_</text>
</g>
<!-- Node21 -->
<g id="node21" class="node">
<title>Node21</title>
<polygon fill="#ffffff" stroke="#bfbfbf" points="0,-49.5 0,-79.5 97,-79.5 97,-49.5 0,-49.5"/>
<text text-anchor="start" x="8" y="-67.5" font-family="Helvetica,sans-Serif" font-size="10.00" fill="#000000">std::array&lt; double</text>
<text text-anchor="middle" x="48.5" y="-56.5" font-family="Helvetica,sans-Serif" font-size="10.00" fill="#000000"> , 3 &gt;</text>
</g>
<!-- Node21&#45;&gt;Node20 -->
<g id="edge25" class="edge">
<title>Node21&#45;&gt;Node20</title>
<path fill="none" stroke="#191970" d="M107.4305,-64.5C116.1271,-64.5 125.0725,-64.5 133.7242,-64.5"/>
<polygon fill="#191970" stroke="#191970" points="107.3684,-61.0001 97.3683,-64.5 107.3683,-68.0001 107.3684,-61.0001"/>
</g>
<!-- Node22 -->
<g id="node22" class="node">
<title>Node22</title>
<g id="a_node22"><a xlink:href="structsirius_1_1_iterative__solver__input.html" target="_top" xlink:title="sirius::Iterative_solver\l_input">
<polygon fill="#ffffff" stroke="#000000" points="315.5,-461.5 315.5,-491.5 428.5,-491.5 428.5,-461.5 315.5,-461.5"/>
<text text-anchor="start" x="323.5" y="-479.5" font-family="Helvetica,sans-Serif" font-size="10.00" fill="#000000">sirius::Iterative_solver</text>
<text text-anchor="middle" x="372" y="-468.5" font-family="Helvetica,sans-Serif" font-size="10.00" fill="#000000">_input</text>
</a>
</g>
</g>
<!-- Node22&#45;&gt;Node16 -->
<g id="edge26" class="edge">
<title>Node22&#45;&gt;Node16</title>
<path fill="none" stroke="#9a32cd" stroke-dasharray="5,2" d="M438.6034,-467.2484C499.6263,-458.495 582.6112,-445.7883 597,-439.5 606.2868,-435.4414 606.196,-430.5205 615,-425.5 622.773,-421.0675 631.4167,-417.0403 639.8739,-413.5281"/>
<polygon fill="#9a32cd" stroke="#9a32cd" points="438.0368,-463.7937 428.6318,-468.6717 439.0261,-470.7234 438.0368,-463.7937"/>
<text text-anchor="middle" x="528" y="-466.5" font-family="Helvetica,sans-Serif" font-size="10.00" fill="#000000"> iterative_solver_input_</text>
</g>
<!-- Node23 -->
<g id="node23" class="node">
<title>Node23</title>
<g id="a_node23"><a xlink:href="structsirius_1_1_mixer__input.html" target="_top" xlink:title="sirius::Mixer_input">
<polygon fill="#ffffff" stroke="#000000" points="323.5,-423 323.5,-442 420.5,-442 420.5,-423 323.5,-423"/>
<text text-anchor="middle" x="372" y="-430" font-family="Helvetica,sans-Serif" font-size="10.00" fill="#000000">sirius::Mixer_input</text>
</a>
</g>
</g>
<!-- Node23&#45;&gt;Node16 -->
<g id="edge27" class="edge">
<title>Node23&#45;&gt;Node16</title>
<path fill="none" stroke="#9a32cd" stroke-dasharray="5,2" d="M430.7517,-427.4096C476.1921,-423.3144 540.6517,-417.1606 597,-410.5 610.099,-408.9516 624.285,-407.0698 637.3063,-405.2599"/>
<polygon fill="#9a32cd" stroke="#9a32cd" points="430.4276,-423.9246 420.7798,-428.3028 431.0522,-430.8967 430.4276,-423.9246"/>
<text text-anchor="middle" x="528" y="-427.5" font-family="Helvetica,sans-Serif" font-size="10.00" fill="#000000"> mixer_input_</text>
</g>
<!-- Node24&#45;&gt;Node4 -->
<g id="edge29" class="edge">
<title>Node24&#45;&gt;Node4</title>
<path fill="none" stroke="#9a32cd" stroke-dasharray="5,2" d="M750.7941,-261.5392C794.2552,-271.0808 850.4261,-288.1277 893,-317.5 921.1134,-336.8958 943.0253,-372.1192 952.455,-388.9921"/>
<polygon fill="#9a32cd" stroke="#9a32cd" points="751.3893,-258.0877 740.8816,-259.4438 749.9415,-264.9364 751.3893,-258.0877"/>
<text text-anchor="middle" x="831.5" y="-320.5" font-family="Helvetica,sans-Serif" font-size="10.00" fill="#000000"> indexb_</text>
</g>
<!-- Node25&#45;&gt;Node1 -->
<g id="edge32" class="edge">
<title>Node25&#45;&gt;Node1</title>
<path fill="none" stroke="#9a32cd" stroke-dasharray="5,2" d="M1261.5416,-630.5C1297.1493,-630.5 1338.943,-630.5 1367.7264,-630.5"/>
<polygon fill="#9a32cd" stroke="#9a32cd" points="1261.1962,-627.0001 1251.1962,-630.5 1261.1961,-634.0001 1261.1962,-627.0001"/>
<text text-anchor="middle" x="1309.5" y="-633.5" font-family="Helvetica,sans-Serif" font-size="10.00" fill="#000000"> symmetry_class_</text>
</g>
<!-- Node26&#45;&gt;Node1 -->
<g id="edge38" class="edge">
<title>Node26&#45;&gt;Node1</title>
<path fill="none" stroke="#9a32cd" stroke-dasharray="5,2" d="M607.225,-893.3697C668.4255,-898.0868 755.2644,-903.5 831.5,-903.5 831.5,-903.5 831.5,-903.5 1192,-903.5 1264.8943,-903.5 1299.6612,-912.2218 1350,-859.5 1381.1953,-826.8279 1397.7112,-679.2575 1401.5962,-640.076"/>
<polygon fill="#9a32cd" stroke="#9a32cd" points="607.4911,-889.8799 597.2486,-892.5894 606.9452,-896.8586 607.4911,-889.8799"/>
<text text-anchor="middle" x="957.5" y="-906.5" font-family="Helvetica,sans-Serif" font-size="10.00" fill="#000000"> b_radial_integrals_</text>
</g>
</g>
</svg>
