<?xml version="1.0" encoding="UTF-8" standalone="no"?>
<!DOCTYPE svg PUBLIC "-//W3C//DTD SVG 1.1//EN"
 "http://www.w3.org/Graphics/SVG/1.1/DTD/svg11.dtd">
<!-- Generated by graphviz version 2.40.1 (20161225.0304)
 -->
<!-- Title: sddk::mdarray&lt; T, N &gt; Pages: 1 -->
<svg width="264pt" height="151pt"
 viewBox="0.00 0.00 264.00 151.00" xmlns="http://www.w3.org/2000/svg" xmlns:xlink="http://www.w3.org/1999/xlink">
<g id="graph0" class="graph" transform="scale(1 1) rotate(0) translate(4 147)">
<title>sddk::mdarray&lt; T, N &gt;</title>
<polygon fill="#ffffff" stroke="transparent" points="-4,4 -4,-147 260,-147 260,4 -4,4"/>
<!-- Node0 -->
<g id="node1" class="node">
<title>Node0</title>
<polygon fill="#bfbfbf" stroke="#000000" points="79.5,-56.5 79.5,-75.5 195.5,-75.5 195.5,-56.5 79.5,-56.5"/>
<text text-anchor="middle" x="137.5" y="-63.5" font-family="Helvetica,sans-Serif" font-size="10.00" fill="#000000">sddk::mdarray&lt; T, N &gt;</text>
</g>
<!-- Node2 -->
<g id="node3" class="node">
<title>Node2</title>
<g id="a_node3"><a xlink:href="classsddk_1_1dmatrix.html" target="_top" xlink:title="dmatrix\&lt; double_complex \&gt;">
<polygon fill="#ffffff" stroke="#000000" points="0,-.5 0,-19.5 139,-19.5 139,-.5 0,-.5"/>
<text text-anchor="middle" x="69.5" y="-7.5" font-family="Helvetica,sans-Serif" font-size="10.00" fill="#000000">dmatrix&lt; double_complex &gt;</text>
</a>
</g>
</g>
<!-- Node0&#45;&gt;Node2 -->
<g id="edge2" class="edge">
<title>Node0&#45;&gt;Node2</title>
<path fill="none" stroke="#191970" d="M117.6404,-49.645C105.8142,-39.9058 91.2108,-27.8795 81.209,-19.6427"/>
<polygon fill="#191970" stroke="#191970" points="115.711,-52.5902 125.6553,-56.2455 120.161,-47.1867 115.711,-52.5902"/>
</g>
<!-- Node3 -->
<g id="node4" class="node">
<title>Node3</title>
<g id="a_node4"><a xlink:href="classsddk_1_1dmatrix.html" target="_top" xlink:title="Distributed matrix. ">
<polygon fill="#ffffff" stroke="#000000" points="157,-.5 157,-19.5 256,-19.5 256,-.5 157,-.5"/>
<text text-anchor="middle" x="206.5" y="-7.5" font-family="Helvetica,sans-Serif" font-size="10.00" fill="#000000">sddk::dmatrix&lt; T &gt;</text>
</a>
</g>
</g>
<!-- Node0&#45;&gt;Node3 -->
<g id="edge3" class="edge">
<title>Node0&#45;&gt;Node3</title>
<path fill="none" stroke="#191970" d="M157.303,-49.928C169.3636,-40.1397 184.3714,-27.9595 194.6188,-19.6427"/>
<polygon fill="#191970" stroke="#191970" points="155.0779,-47.2262 149.5189,-56.2455 159.4891,-52.6614 155.0779,-47.2262"/>
</g>
<!-- Node1 -->
<g id="node2" class="node">
<title>Node1</title>
<g id="a_node2"><a xlink:href="classsddk_1_1mdarray__base.html" target="_top" xlink:title="Base class of multidimensional array. ">
<polygon fill="#ffffff" stroke="#000000" points="84,-112.5 84,-142.5 191,-142.5 191,-112.5 84,-112.5"/>
<text text-anchor="start" x="92" y="-130.5" font-family="Helvetica,sans-Serif" font-size="10.00" fill="#000000">sddk::mdarray_base</text>
<text text-anchor="middle" x="137.5" y="-119.5" font-family="Helvetica,sans-Serif" font-size="10.00" fill="#000000">&lt; T, N &gt;</text>
</a>
</g>
</g>
<!-- Node1&#45;&gt;Node0 -->
<g id="edge1" class="edge">
<title>Node1&#45;&gt;Node0</title>
<path fill="none" stroke="#191970" d="M137.5,-102.2849C137.5,-92.9858 137.5,-82.9883 137.5,-75.8469"/>
<polygon fill="#191970" stroke="#191970" points="134.0001,-102.2977 137.5,-112.2977 141.0001,-102.2978 134.0001,-102.2977"/>
</g>
</g>
</svg>
