<?xml version="1.0" encoding="UTF-8" standalone="no"?>
<!DOCTYPE svg PUBLIC "-//W3C//DTD SVG 1.1//EN"
 "http://www.w3.org/Graphics/SVG/1.1/DTD/svg11.dtd">
<!-- Generated by graphviz version 2.40.1 (20161225.0304)
 -->
<!-- Title: sddk::Gvec_partition Pages: 1 -->
<!--zoomable 287 -->
<svg id="main" version="1.1" xmlns="http://www.w3.org/2000/svg" xmlns:xlink="http://www.w3.org/1999/xlink" xml:space="preserve" onload="init(evt)">
<style type="text/css"><![CDATA[
.edge:hover path { stroke: red; }
.edge:hover polygon { stroke: red; fill: red; }
]]></style>
<script type="text/javascript"><![CDATA[
var edges = document.getElementsByTagName('g');
if (edges && edges.length) {
  for (var i=0;i<edges.length;i++) {
    if (edges[i].id.substr(0,4)=='edge') {
      edges[i].setAttribute('class','edge');
    }
  }
}
]]></script>
        <defs>
                <circle id="rim" cx="0" cy="0" r="7"/>
                <circle id="rim2" cx="0" cy="0" r="3.5"/>
                <g id="zoomPlus">
                        <use xlink:href="#rim" fill="#404040">
                                <set attributeName="fill" to="#808080" begin="zoomplus.mouseover" end="zoomplus.mouseout"/>
                        </use>
                        <path d="M-4,0h8M0,-4v8" fill="none" stroke="white" stroke-width="1.5" pointer-events="none"/>
                </g>
                <g id="zoomMin">
                        <use xlink:href="#rim" fill="#404040">
                                <set attributeName="fill" to="#808080" begin="zoomminus.mouseover" end="zoomminus.mouseout"/>
                        </use>
                        <path d="M-4,0h8" fill="none" stroke="white" stroke-width="1.5" pointer-events="none"/>
                </g>
                <g id="dirArrow">
                        <path fill="none" stroke="white" stroke-width="1.5" d="M0,-3.0v7 M-2.5,-0.5L0,-3.0L2.5,-0.5"/>
                </g>
               <g id="resetDef">
                       <use xlink:href="#rim2" fill="#404040">
                               <set attributeName="fill" to="#808080" begin="reset.mouseover" end="reset.mouseout"/>
                       </use>
               </g>
        </defs>

<script type="text/javascript">
var viewWidth = 662;
var viewHeight = 287;
var sectionId = 'dynsection-0';
</script>
<script xlink:href="svgpan.js"/>
<svg id="graph" class="graph">
<g id="viewport">
<title>sddk::Gvec_partition</title>
<polygon fill="#ffffff" stroke="transparent" points="-4,4 -4,-283.0354 658,-283.0354 658,4 -4,4"/>
<!-- Node1 -->
<g id="node1" class="node">
<title>Node1</title>
<polygon fill="#bfbfbf" stroke="#000000" points="546,-196.5354 546,-215.5354 654,-215.5354 654,-196.5354 546,-196.5354"/>
<text text-anchor="middle" x="600" y="-203.5354" font-family="Helvetica,sans-Serif" font-size="10.00" fill="#000000">sddk::Gvec_partition</text>
</g>
<!-- Node2 -->
<g id="node2" class="node">
<title>Node2</title>
<g id="a_node2"><a xlink:href="classsddk_1_1mdarray.html" target="_top" xlink:title="sddk::mdarray\&lt; int, 1 \&gt;">
<polygon fill="#ffffff" stroke="#000000" points="155,-247.5354 155,-266.5354 274,-266.5354 274,-247.5354 155,-247.5354"/>
<text text-anchor="middle" x="214.5" y="-254.5354" font-family="Helvetica,sans-Serif" font-size="10.00" fill="#000000">sddk::mdarray&lt; int, 1 &gt;</text>
</a>
</g>
</g>
<!-- Node2&#45;&gt;Node1 -->
<g id="edge1" class="edge">
<title>Node2&#45;&gt;Node1</title>
<path fill="none" stroke="#9a32cd" stroke-dasharray="5,2" d="M272.1627,-268.2438C282.397,-269.8223 292.9839,-271.1926 303,-272.0354 343.302,-275.4267 353.9905,-277.9511 394,-272.0354 433.5013,-266.1948 441.9443,-258.128 480,-246.0354 511.6029,-235.9933 547.6741,-223.8811 571.9473,-215.6347"/>
<polygon fill="#9a32cd" stroke="#9a32cd" points="272.5116,-264.7547 262.0801,-266.6077 271.3904,-271.6643 272.5116,-264.7547"/>
<text text-anchor="middle" x="446" y="-271.0354" font-family="Helvetica,sans-Serif" font-size="10.00" fill="#000000"> zcol_offs_</text>
</g>
<!-- Node6 -->
<g id="node6" class="node">
<title>Node6</title>
<g id="a_node6"><a xlink:href="classsddk_1_1_gvec.html" target="_top" xlink:title="Store list of G&#45;vectors for FFTs and G+k basis functions. ">
<polygon fill="#ffffff" stroke="#000000" points="412.5,-143.5354 412.5,-162.5354 479.5,-162.5354 479.5,-143.5354 412.5,-143.5354"/>
<text text-anchor="middle" x="446" y="-150.5354" font-family="Helvetica,sans-Serif" font-size="10.00" fill="#000000">sddk::Gvec</text>
</a>
</g>
</g>
<!-- Node2&#45;&gt;Node6 -->
<g id="edge10" class="edge">
<title>Node2&#45;&gt;Node6</title>
<path fill="none" stroke="#9a32cd" stroke-dasharray="5,2" d="M284.3783,-250.6247C319.3151,-244.9453 361.0544,-234.2345 394,-214.0354 415.1174,-201.0882 432.0083,-176.6547 440.3408,-162.9675"/>
<polygon fill="#9a32cd" stroke="#9a32cd" points="283.607,-247.2016 274.246,-252.1637 284.6583,-254.1222 283.607,-247.2016"/>
<text text-anchor="middle" x="348.5" y="-260.0354" font-family="Helvetica,sans-Serif" font-size="10.00" fill="#000000"> gvec_shell_</text>
<text text-anchor="middle" x="348.5" y="-249.0354" font-family="Helvetica,sans-Serif" font-size="10.00" fill="#000000">gvec_full_index_</text>
</g>
<!-- Node3 -->
<g id="node3" class="node">
<title>Node3</title>
<g id="a_node3"><a xlink:href="classsddk_1_1mdarray__base.html" target="_top" xlink:title="sddk::mdarray_base\l\&lt; int, N \&gt;">
<polygon fill="#ffffff" stroke="#000000" points="0,-195.0354 0,-225.0354 107,-225.0354 107,-195.0354 0,-195.0354"/>
<text text-anchor="start" x="8" y="-213.0354" font-family="Helvetica,sans-Serif" font-size="10.00" fill="#000000">sddk::mdarray_base</text>
<text text-anchor="middle" x="53.5" y="-202.0354" font-family="Helvetica,sans-Serif" font-size="10.00" fill="#000000">&lt; int, N &gt;</text>
</a>
</g>
</g>
<!-- Node3&#45;&gt;Node2 -->
<g id="edge2" class="edge">
<title>Node3&#45;&gt;Node2</title>
<path fill="none" stroke="#191970" d="M114.523,-227.8496C137.3868,-234.5241 162.4807,-241.8497 181.8086,-247.492"/>
<polygon fill="#191970" stroke="#191970" points="115.4642,-224.4783 104.8841,-225.0357 113.5026,-231.1979 115.4642,-224.4783"/>
</g>
<!-- Node7 -->
<g id="node7" class="node">
<title>Node7</title>
<g id="a_node7"><a xlink:href="classsddk_1_1mdarray.html" target="_top" xlink:title="sddk::mdarray\&lt; int, 3 \&gt;">
<polygon fill="#ffffff" stroke="#000000" points="155,-153.5354 155,-172.5354 274,-172.5354 274,-153.5354 155,-153.5354"/>
<text text-anchor="middle" x="214.5" y="-160.5354" font-family="Helvetica,sans-Serif" font-size="10.00" fill="#000000">sddk::mdarray&lt; int, 3 &gt;</text>
</a>
</g>
</g>
<!-- Node3&#45;&gt;Node7 -->
<g id="edge7" class="edge">
<title>Node3&#45;&gt;Node7</title>
<path fill="none" stroke="#191970" d="M114.523,-192.2213C137.3868,-185.5467 162.4807,-178.2212 181.8086,-172.5789"/>
<polygon fill="#191970" stroke="#191970" points="113.5026,-188.873 104.8841,-195.0351 115.4642,-195.5925 113.5026,-188.873"/>
</g>
<!-- Node4 -->
<g id="node4" class="node">
<title>Node4</title>
<g id="a_node4"><a xlink:href="structsddk_1_1block__data__descriptor.html" target="_top" xlink:title="sddk::block_data_descriptor">
<polygon fill="#ffffff" stroke="#000000" points="144,-203.5354 144,-222.5354 285,-222.5354 285,-203.5354 144,-203.5354"/>
<text text-anchor="middle" x="214.5" y="-210.5354" font-family="Helvetica,sans-Serif" font-size="10.00" fill="#000000">sddk::block_data_descriptor</text>
</a>
</g>
</g>
<!-- Node4&#45;&gt;Node1 -->
<g id="edge3" class="edge">
<title>Node4&#45;&gt;Node1</title>
<path fill="none" stroke="#9a32cd" stroke-dasharray="5,2" d="M295.5279,-211.7276C326.3564,-211.2179 361.8028,-210.6171 394,-210.0354 445.5013,-209.105 504.2433,-207.9557 545.7849,-207.1281"/>
<polygon fill="#9a32cd" stroke="#9a32cd" points="295.2024,-208.2324 285.2615,-211.8969 295.3178,-215.2315 295.2024,-208.2324"/>
<text text-anchor="middle" x="446" y="-234.0354" font-family="Helvetica,sans-Serif" font-size="10.00" fill="#000000"> gvec_distr_fft_</text>
<text text-anchor="middle" x="446" y="-223.0354" font-family="Helvetica,sans-Serif" font-size="10.00" fill="#000000">gvec_fft_slab_</text>
<text text-anchor="middle" x="446" y="-212.0354" font-family="Helvetica,sans-Serif" font-size="10.00" fill="#000000">zcol_distr_fft_</text>
</g>
<!-- Node4&#45;&gt;Node6 -->
<g id="edge11" class="edge">
<title>Node4&#45;&gt;Node6</title>
<path fill="none" stroke="#9a32cd" stroke-dasharray="5,2" d="M256.9558,-200.7142C271.5232,-196.5739 287.9472,-192.0023 303,-188.0354 340.3202,-178.2003 383.3662,-167.7905 412.399,-160.9058"/>
<polygon fill="#9a32cd" stroke="#9a32cd" points="255.8611,-197.3868 247.207,-203.4988 257.7838,-204.1176 255.8611,-197.3868"/>
<text text-anchor="middle" x="348.5" y="-202.0354" font-family="Helvetica,sans-Serif" font-size="10.00" fill="#000000"> gvec_distr_</text>
<text text-anchor="middle" x="348.5" y="-191.0354" font-family="Helvetica,sans-Serif" font-size="10.00" fill="#000000">zcol_distr_</text>
</g>
<!-- Node5 -->
<g id="node5" class="node">
<title>Node5</title>
<g id="a_node5"><a xlink:href="classsddk_1_1_communicator.html" target="_top" xlink:title="MPI communicator wrapper. ">
<polygon fill="#ffffff" stroke="#000000" points="160.5,-7.5354 160.5,-26.5354 268.5,-26.5354 268.5,-7.5354 160.5,-7.5354"/>
<text text-anchor="middle" x="214.5" y="-14.5354" font-family="Helvetica,sans-Serif" font-size="10.00" fill="#000000">sddk::Communicator</text>
</a>
</g>
</g>
<!-- Node5&#45;&gt;Node1 -->
<g id="edge4" class="edge">
<title>Node5&#45;&gt;Node1</title>
<path fill="none" stroke="#9a32cd" stroke-dasharray="5,2" d="M262.8699,-5.6119C300.063,.8235 352.0172,4.6214 394,-12.0354 492.6342,-51.1688 571.4775,-162.3759 593.7079,-196.1727"/>
<polygon fill="#9a32cd" stroke="#9a32cd" points="261.9851,-2.2163 252.7916,-7.4822 263.2623,-9.0988 261.9851,-2.2163"/>
<text text-anchor="middle" x="446" y="-67.0354" font-family="Helvetica,sans-Serif" font-size="10.00" fill="#000000"> fft_comm_</text>
</g>
<!-- Node5&#45;&gt;Node6 -->
<g id="edge12" class="edge">
<title>Node5&#45;&gt;Node6</title>
<path fill="none" stroke="#9a32cd" stroke-dasharray="5,2" d="M278.7782,-13.4182C315.7577,-14.5278 361.2341,-21.6754 394,-46.0354 427.15,-70.6811 440.2414,-122.1255 444.3826,-143.4531"/>
<polygon fill="#9a32cd" stroke="#9a32cd" points="278.6455,-9.9157 268.5911,-13.2561 278.5341,-16.9149 278.6455,-9.9157"/>
<text text-anchor="middle" x="348.5" y="-71.0354" font-family="Helvetica,sans-Serif" font-size="10.00" fill="#000000"> comm_ortho_fft_</text>
<text text-anchor="middle" x="348.5" y="-60.0354" font-family="Helvetica,sans-Serif" font-size="10.00" fill="#000000">comm_fft_</text>
<text text-anchor="middle" x="348.5" y="-49.0354" font-family="Helvetica,sans-Serif" font-size="10.00" fill="#000000">comm_</text>
</g>
<!-- Node6&#45;&gt;Node1 -->
<g id="edge5" class="edge">
<title>Node6&#45;&gt;Node1</title>
<path fill="none" stroke="#9a32cd" stroke-dasharray="5,2" d="M483.5377,-165.9542C510.9578,-175.391 547.5274,-187.9767 572.3192,-196.5089"/>
<polygon fill="#9a32cd" stroke="#9a32cd" points="484.4829,-162.5781 473.8882,-162.6333 482.2049,-169.1971 484.4829,-162.5781"/>
<text text-anchor="middle" x="513" y="-184.0354" font-family="Helvetica,sans-Serif" font-size="10.00" fill="#000000"> gvec_</text>
</g>
<!-- Node7&#45;&gt;Node6 -->
<g id="edge6" class="edge">
<title>Node7&#45;&gt;Node6</title>
<path fill="none" stroke="#9a32cd" stroke-dasharray="5,2" d="M284.7702,-155.2796C290.9298,-154.7846 297.0725,-154.3568 303,-154.0354 340.4338,-152.0057 383.4593,-152.0225 412.4563,-152.3777"/>
<polygon fill="#9a32cd" stroke="#9a32cd" points="284.0866,-151.8254 274.4232,-156.1691 284.6862,-158.7996 284.0866,-151.8254"/>
<text text-anchor="middle" x="348.5" y="-157.0354" font-family="Helvetica,sans-Serif" font-size="10.00" fill="#000000"> gvec_index_by_xy_</text>
</g>
<!-- Node8 -->
<g id="node8" class="node">
<title>Node8</title>
<g id="a_node8"><a xlink:href="classsddk_1_1mdarray.html" target="_top" xlink:title="sddk::mdarray\&lt; double, 1 \&gt;">
<polygon fill="#ffffff" stroke="#000000" points="145.5,-112.5354 145.5,-131.5354 283.5,-131.5354 283.5,-112.5354 145.5,-112.5354"/>
<text text-anchor="middle" x="214.5" y="-119.5354" font-family="Helvetica,sans-Serif" font-size="10.00" fill="#000000">sddk::mdarray&lt; double, 1 &gt;</text>
</a>
</g>
</g>
<!-- Node8&#45;&gt;Node6 -->
<g id="edge8" class="edge">
<title>Node8&#45;&gt;Node6</title>
<path fill="none" stroke="#9a32cd" stroke-dasharray="5,2" d="M293.6172,-124.9692C325.0682,-127.09 361.4465,-130.7431 394,-137.0354 402.2537,-138.6308 411.0535,-141.0507 419.022,-143.529"/>
<polygon fill="#9a32cd" stroke="#9a32cd" points="293.7916,-121.4733 283.59,-124.333 293.3483,-128.4592 293.7916,-121.4733"/>
<text text-anchor="middle" x="348.5" y="-140.0354" font-family="Helvetica,sans-Serif" font-size="10.00" fill="#000000"> gvec_shell_len_</text>
</g>
<!-- Node9 -->
<g id="node9" class="node">
<title>Node9</title>
<g id="a_node9"><a xlink:href="classsddk_1_1mdarray__base.html" target="_top" xlink:title="sddk::mdarray_base\l\&lt; double, N \&gt;">
<polygon fill="#ffffff" stroke="#000000" points="0,-109.0354 0,-139.0354 107,-139.0354 107,-109.0354 0,-109.0354"/>
<text text-anchor="start" x="8" y="-127.0354" font-family="Helvetica,sans-Serif" font-size="10.00" fill="#000000">sddk::mdarray_base</text>
<text text-anchor="middle" x="53.5" y="-116.0354" font-family="Helvetica,sans-Serif" font-size="10.00" fill="#000000">&lt; double, N &gt;</text>
</a>
</g>
</g>
<!-- Node9&#45;&gt;Node8 -->
<g id="edge9" class="edge">
<title>Node9&#45;&gt;Node8</title>
<path fill="none" stroke="#191970" d="M117.3493,-123.2423C126.5563,-123.1279 136.0671,-123.0097 145.3712,-122.8942"/>
<polygon fill="#191970" stroke="#191970" points="117.0664,-119.7454 107.1107,-123.3694 117.1534,-126.7449 117.0664,-119.7454"/>
</g>
<!-- Node10 -->
<g id="node10" class="node">
<title>Node10</title>
<g id="a_node10"><a xlink:href="classgeometry3d_1_1vector3d.html" target="_top" xlink:title="geometry3d::vector3d\l\&lt; double \&gt;">
<polygon fill="#ffffff" stroke="#000000" points="158,-61.0354 158,-91.0354 271,-91.0354 271,-61.0354 158,-61.0354"/>
<text text-anchor="start" x="166" y="-79.0354" font-family="Helvetica,sans-Serif" font-size="10.00" fill="#000000">geometry3d::vector3d</text>
<text text-anchor="middle" x="214.5" y="-68.0354" font-family="Helvetica,sans-Serif" font-size="10.00" fill="#000000">&lt; double &gt;</text>
</a>
</g>
</g>
<!-- Node10&#45;&gt;Node6 -->
<g id="edge13" class="edge">
<title>Node10&#45;&gt;Node6</title>
<path fill="none" stroke="#9a32cd" stroke-dasharray="5,2" d="M281.4112,-80.6645C316.2776,-85.0355 358.8558,-93.5301 394,-110.0354 411.3896,-118.2024 427.8396,-133.5526 437.4172,-143.5309"/>
<polygon fill="#9a32cd" stroke="#9a32cd" points="281.6645,-77.1704 271.326,-79.4869 280.8526,-84.1232 281.6645,-77.1704"/>
<text text-anchor="middle" x="348.5" y="-113.0354" font-family="Helvetica,sans-Serif" font-size="10.00" fill="#000000"> vk_</text>
</g>
<!-- Node11 -->
<g id="node11" class="node">
<title>Node11</title>
<polygon fill="#ffffff" stroke="#bfbfbf" points="5,-60.0354 5,-90.0354 102,-90.0354 102,-60.0354 5,-60.0354"/>
<text text-anchor="start" x="13" y="-78.0354" font-family="Helvetica,sans-Serif" font-size="10.00" fill="#000000">std::array&lt; double</text>
<text text-anchor="middle" x="53.5" y="-67.0354" font-family="Helvetica,sans-Serif" font-size="10.00" fill="#000000"> , 3 &gt;</text>
</g>
<!-- Node11&#45;&gt;Node10 -->
<g id="edge14" class="edge">
<title>Node11&#45;&gt;Node10</title>
<path fill="none" stroke="#191970" d="M112.3056,-75.4007C127.1257,-75.4927 143.0059,-75.5914 157.7242,-75.6828"/>
<polygon fill="#191970" stroke="#191970" points="112.2638,-71.9004 102.2422,-75.3382 112.2203,-78.9003 112.2638,-71.9004"/>
</g>
</g>
</svg>
        <g id="navigator" transform="translate(0 0)" fill="#404254">
                <rect fill="#f2f5e9" fill-opacity="0.5" stroke="#606060" stroke-width=".5" x="0" y="0" width="60" height="60"/>
                <use id="zoomplus" xlink:href="#zoomPlus" x="17" y="9" onmousedown="handleZoom(evt,'in')"/>
                <use id="zoomminus" xlink:href="#zoomMin" x="42" y="9" onmousedown="handleZoom(evt,'out')"/>
                <use id="reset" xlink:href="#resetDef" x="30" y="36" onmousedown="handleReset()"/>
                <g id="arrowUp" xlink:href="#dirArrow" transform="translate(30 24)" onmousedown="handlePan(0,-1)">
                  <use xlink:href="#rim" fill="#404040">
                        <set attributeName="fill" to="#808080" begin="arrowUp.mouseover" end="arrowUp.mouseout"/>
                  </use>
                  <path fill="none" stroke="white" stroke-width="1.5" d="M0,-3.0v7 M-2.5,-0.5L0,-3.0L2.5,-0.5"/>
                </g>
                <g id="arrowRight" xlink:href="#dirArrow" transform="rotate(90) translate(36 -43)" onmousedown="handlePan(1,0)">
                  <use xlink:href="#rim" fill="#404040">
                        <set attributeName="fill" to="#808080" begin="arrowRight.mouseover" end="arrowRight.mouseout"/>
                  </use>
                  <path fill="none" stroke="white" stroke-width="1.5" d="M0,-3.0v7 M-2.5,-0.5L0,-3.0L2.5,-0.5"/>
                </g>
                <g id="arrowDown" xlink:href="#dirArrow" transform="rotate(180) translate(-30 -48)" onmousedown="handlePan(0,1)">
                  <use xlink:href="#rim" fill="#404040">
                        <set attributeName="fill" to="#808080" begin="arrowDown.mouseover" end="arrowDown.mouseout"/>
                  </use>
                  <path fill="none" stroke="white" stroke-width="1.5" d="M0,-3.0v7 M-2.5,-0.5L0,-3.0L2.5,-0.5"/>
                </g>
                <g id="arrowLeft" xlink:href="#dirArrow" transform="rotate(270) translate(-36 17)" onmousedown="handlePan(-1,0)">
                  <use xlink:href="#rim" fill="#404040">
                        <set attributeName="fill" to="#808080" begin="arrowLeft.mouseover" end="arrowLeft.mouseout"/>
                  </use>
                  <path fill="none" stroke="white" stroke-width="1.5" d="M0,-3.0v7 M-2.5,-0.5L0,-3.0L2.5,-0.5"/>
                </g>
        </g>
        <svg viewBox="0 0 15 15" width="100%" height="30px" preserveAspectRatio="xMaxYMin meet">
         <g id="arrow_out" transform="scale(0.3 0.3)">
          <a xlink:href="classsddk_1_1_gvec__partition__coll__graph_org.svg" target="_base">
           <rect id="button" ry="5" rx="5" y="6" x="6" height="38" width="38"
                fill="#f2f5e9" fill-opacity="0.5" stroke="#606060" stroke-width="1.0"/>
           <path id="arrow"
             d="M 11.500037,31.436501 C 11.940474,20.09759 22.043105,11.32322 32.158766,21.979434 L 37.068811,17.246167 C 37.068811,17.246167 37.088388,32 37.088388,32 L 22.160133,31.978069 C 22.160133,31.978069 26.997745,27.140456 26.997745,27.140456 C 18.528582,18.264221 13.291696,25.230495 11.500037,31.436501 z"
             style="fill:#404040;"/>
          </a>
         </g>
        </svg>
</svg>
