<?xml version="1.0" encoding="UTF-8" standalone="no"?>
<!DOCTYPE svg PUBLIC "-//W3C//DTD SVG 1.1//EN"
 "http://www.w3.org/Graphics/SVG/1.1/DTD/svg11.dtd">
<!-- Generated by graphviz version 2.40.1 (20161225.0304)
 -->
<!-- Title: sirius::radial_functions_index Pages: 1 -->
<svg width="264pt" height="174pt"
 viewBox="0.00 0.00 264.00 174.00" xmlns="http://www.w3.org/2000/svg" xmlns:xlink="http://www.w3.org/1999/xlink">
<g id="graph0" class="graph" transform="scale(1 1) rotate(0) translate(4 170)">
<title>sirius::radial_functions_index</title>
<polygon fill="#ffffff" stroke="transparent" points="-4,4 -4,-170 260,-170 260,4 -4,4"/>
<!-- Node1 -->
<g id="node1" class="node">
<title>Node1</title>
<polygon fill="#bfbfbf" stroke="#000000" points="70,-.5 70,-30.5 185,-30.5 185,-.5 70,-.5"/>
<text text-anchor="start" x="78" y="-18.5" font-family="Helvetica,sans-Serif" font-size="10.00" fill="#000000">sirius::radial_functions</text>
<text text-anchor="middle" x="127.5" y="-7.5" font-family="Helvetica,sans-Serif" font-size="10.00" fill="#000000">_index</text>
</g>
<!-- Node2 -->
<g id="node2" class="node">
<title>Node2</title>
<g id="a_node2"><a xlink:href="classsddk_1_1mdarray.html" target="_top" xlink:title="sddk::mdarray\&lt; int, 2 \&gt;">
<polygon fill="#ffffff" stroke="#000000" points="0,-78.5 0,-97.5 119,-97.5 119,-78.5 0,-78.5"/>
<text text-anchor="middle" x="59.5" y="-85.5" font-family="Helvetica,sans-Serif" font-size="10.00" fill="#000000">sddk::mdarray&lt; int, 2 &gt;</text>
</a>
</g>
</g>
<!-- Node2&#45;&gt;Node1 -->
<g id="edge1" class="edge">
<title>Node2&#45;&gt;Node1</title>
<path fill="none" stroke="#9a32cd" stroke-dasharray="5,2" d="M68.0679,-69.0943C71.6523,-62.3344 76.2206,-54.9293 81.5,-49 87.5442,-42.2118 95.185,-35.9761 102.4943,-30.7724"/>
<polygon fill="#9a32cd" stroke="#9a32cd" points="64.8186,-67.7706 63.552,-78.2895 71.1018,-70.8564 64.8186,-67.7706"/>
<text text-anchor="middle" x="124.5" y="-52" font-family="Helvetica,sans-Serif" font-size="10.00" fill="#000000"> index_by_l_order_</text>
</g>
<!-- Node3 -->
<g id="node3" class="node">
<title>Node3</title>
<g id="a_node3"><a xlink:href="classsddk_1_1mdarray__base.html" target="_top" xlink:title="sddk::mdarray_base\l\&lt; int, N \&gt;">
<polygon fill="#ffffff" stroke="#000000" points="74,-135.5 74,-165.5 181,-165.5 181,-135.5 74,-135.5"/>
<text text-anchor="start" x="82" y="-153.5" font-family="Helvetica,sans-Serif" font-size="10.00" fill="#000000">sddk::mdarray_base</text>
<text text-anchor="middle" x="127.5" y="-142.5" font-family="Helvetica,sans-Serif" font-size="10.00" fill="#000000">&lt; int, N &gt;</text>
</a>
</g>
</g>
<!-- Node3&#45;&gt;Node2 -->
<g id="edge2" class="edge">
<title>Node3&#45;&gt;Node2</title>
<path fill="none" stroke="#191970" d="M103.4701,-128.4137C92.0543,-117.9213 78.9936,-105.9169 70.0923,-97.7356"/>
<polygon fill="#191970" stroke="#191970" points="101.308,-131.1803 111.0391,-135.3705 106.045,-126.0265 101.308,-131.1803"/>
</g>
<!-- Node4 -->
<g id="node4" class="node">
<title>Node4</title>
<g id="a_node4"><a xlink:href="classsddk_1_1mdarray.html" target="_top" xlink:title="sddk::mdarray\&lt; int, 1 \&gt;">
<polygon fill="#ffffff" stroke="#000000" points="137,-78.5 137,-97.5 256,-97.5 256,-78.5 137,-78.5"/>
<text text-anchor="middle" x="196.5" y="-85.5" font-family="Helvetica,sans-Serif" font-size="10.00" fill="#000000">sddk::mdarray&lt; int, 1 &gt;</text>
</a>
</g>
</g>
<!-- Node3&#45;&gt;Node4 -->
<g id="edge4" class="edge">
<title>Node3&#45;&gt;Node4</title>
<path fill="none" stroke="#191970" d="M151.8833,-128.4137C163.4669,-117.9213 176.7197,-105.9169 185.7519,-97.7356"/>
<polygon fill="#191970" stroke="#191970" points="149.2649,-126.0631 144.203,-135.3705 153.9642,-131.2512 149.2649,-126.0631"/>
</g>
<!-- Node4&#45;&gt;Node1 -->
<g id="edge3" class="edge">
<title>Node4&#45;&gt;Node1</title>
<path fill="none" stroke="#9a32cd" stroke-dasharray="5,2" d="M184.2158,-69.6571C179.3389,-62.8864 173.4723,-55.3279 167.5,-49 161.407,-42.5442 154.1172,-36.1219 147.4397,-30.6534"/>
<polygon fill="#9a32cd" stroke="#9a32cd" points="181.5845,-72.0034 190.1696,-78.212 187.33,-68.0048 181.5845,-72.0034"/>
<text text-anchor="middle" x="213" y="-52" font-family="Helvetica,sans-Serif" font-size="10.00" fill="#000000"> index_by_idxlo_</text>
</g>
</g>
</svg>
