<?xml version="1.0" encoding="UTF-8" standalone="no"?>
<!DOCTYPE svg PUBLIC "-//W3C//DTD SVG 1.1//EN"
 "http://www.w3.org/Graphics/SVG/1.1/DTD/svg11.dtd">
<!-- Generated by graphviz version 2.40.1 (20161225.0304)
 -->
<!-- Title: sddk::linalg_base Pages: 1 -->
<svg width="236pt" height="84pt"
 viewBox="0.00 0.00 236.00 84.00" xmlns="http://www.w3.org/2000/svg" xmlns:xlink="http://www.w3.org/1999/xlink">
<g id="graph0" class="graph" transform="scale(1 1) rotate(0) translate(4 80)">
<title>sddk::linalg_base</title>
<polygon fill="#ffffff" stroke="transparent" points="-4,4 -4,-80 232,-80 232,4 -4,4"/>
<!-- Node0 -->
<g id="node1" class="node">
<title>Node0</title>
<polygon fill="#bfbfbf" stroke="#000000" points="66.5,-56.5 66.5,-75.5 160.5,-75.5 160.5,-56.5 66.5,-56.5"/>
<text text-anchor="middle" x="113.5" y="-63.5" font-family="Helvetica,sans-Serif" font-size="10.00" fill="#000000">sddk::linalg_base</text>
</g>
<!-- Node1 -->
<g id="node2" class="node">
<title>Node1</title>
<g id="a_node2"><a xlink:href="classsddk_1_1linalg_3_01_c_p_u_01_4.html" target="_top" xlink:title="sddk::linalg\&lt; CPU \&gt;">
<polygon fill="#ffffff" stroke="#000000" points="0,-.5 0,-19.5 105,-19.5 105,-.5 0,-.5"/>
<text text-anchor="middle" x="52.5" y="-7.5" font-family="Helvetica,sans-Serif" font-size="10.00" fill="#000000">sddk::linalg&lt; CPU &gt;</text>
</a>
</g>
</g>
<!-- Node0&#45;&gt;Node1 -->
<g id="edge1" class="edge">
<title>Node0&#45;&gt;Node1</title>
<path fill="none" stroke="#191970" d="M95.3751,-49.3607C84.822,-39.6727 71.8888,-27.7995 63.0036,-19.6427"/>
<polygon fill="#191970" stroke="#191970" points="93.1411,-52.0611 102.8746,-56.2455 97.875,-46.9045 93.1411,-52.0611"/>
</g>
<!-- Node2 -->
<g id="node3" class="node">
<title>Node2</title>
<g id="a_node3"><a xlink:href="classsddk_1_1linalg_3_01_g_p_u_01_4.html" target="_top" xlink:title="sddk::linalg\&lt; GPU \&gt;">
<polygon fill="#ffffff" stroke="#000000" points="123,-.5 123,-19.5 228,-19.5 228,-.5 123,-.5"/>
<text text-anchor="middle" x="175.5" y="-7.5" font-family="Helvetica,sans-Serif" font-size="10.00" fill="#000000">sddk::linalg&lt; GPU &gt;</text>
</a>
</g>
</g>
<!-- Node0&#45;&gt;Node2 -->
<g id="edge2" class="edge">
<title>Node0&#45;&gt;Node2</title>
<path fill="none" stroke="#191970" d="M131.9221,-49.3607C142.6481,-39.6727 155.7934,-27.7995 164.8242,-19.6427"/>
<polygon fill="#191970" stroke="#191970" points="129.3746,-46.9453 124.2996,-56.2455 134.0666,-52.14 129.3746,-46.9453"/>
</g>
</g>
</svg>
