<?xml version="1.0" encoding="UTF-8" standalone="no"?>
<!DOCTYPE svg PUBLIC "-//W3C//DTD SVG 1.1//EN"
 "http://www.w3.org/Graphics/SVG/1.1/DTD/svg11.dtd">
<!-- Generated by graphviz version 2.40.1 (20161225.0304)
 -->
<!-- Title: fft3d.hpp Pages: 1 -->
<svg width="617pt" height="196pt"
 viewBox="0.00 0.00 617.00 196.00" xmlns="http://www.w3.org/2000/svg" xmlns:xlink="http://www.w3.org/1999/xlink">
<g id="graph0" class="graph" transform="scale(1 1) rotate(0) translate(4 192)">
<title>fft3d.hpp</title>
<polygon fill="#ffffff" stroke="transparent" points="-4,4 -4,-192 613,-192 613,4 -4,4"/>
<!-- Node0 -->
<g id="node1" class="node">
<title>Node0</title>
<polygon fill="#bfbfbf" stroke="#000000" points="306.5,-168.5 306.5,-187.5 361.5,-187.5 361.5,-168.5 306.5,-168.5"/>
<text text-anchor="middle" x="334" y="-175.5" font-family="Helvetica,sans-Serif" font-size="10.00" fill="#000000">fft3d.hpp</text>
</g>
<!-- Node1 -->
<g id="node2" class="node">
<title>Node1</title>
<polygon fill="#ffffff" stroke="#bfbfbf" points="241,-112.5 241,-131.5 287,-131.5 287,-112.5 241,-112.5"/>
<text text-anchor="middle" x="264" y="-119.5" font-family="Helvetica,sans-Serif" font-size="10.00" fill="#000000">fftw3.h</text>
</g>
<!-- Node0&#45;&gt;Node1 -->
<g id="edge1" class="edge">
<title>Node0&#45;&gt;Node1</title>
<path fill="none" stroke="#191970" d="M321.8069,-168.2455C311.3679,-159.8943 296.1345,-147.7076 283.926,-137.9408"/>
<polygon fill="#191970" stroke="#191970" points="286.0485,-135.1566 276.0533,-131.6427 281.6756,-140.6227 286.0485,-135.1566"/>
</g>
<!-- Node2 -->
<g id="node3" class="node">
<title>Node2</title>
<g id="a_node3"><a xlink:href="geometry3d_8hpp.html" target="_top" xlink:title="Simple classes and functions to work with the 3D vectors and matrices of the crystal lattice...">
<polygon fill="#ffffff" stroke="#000000" points="234.5,-56.5 234.5,-75.5 323.5,-75.5 323.5,-56.5 234.5,-56.5"/>
<text text-anchor="middle" x="279" y="-63.5" font-family="Helvetica,sans-Serif" font-size="10.00" fill="#000000">geometry3d.hpp</text>
</a>
</g>
</g>
<!-- Node0&#45;&gt;Node2 -->
<g id="edge2" class="edge">
<title>Node0&#45;&gt;Node2</title>
<path fill="none" stroke="#191970" d="M329.3107,-168.4509C320.2186,-149.936 300.0469,-108.8591 288.1922,-84.7187"/>
<polygon fill="#191970" stroke="#191970" points="291.227,-82.9582 283.6774,-75.5249 284.9437,-86.0438 291.227,-82.9582"/>
</g>
<!-- Node12 -->
<g id="node13" class="node">
<title>Node12</title>
<g id="a_node13"><a xlink:href="fft3d__grid_8hpp.html" target="_top" xlink:title="Contains declaration and implementation of FFT3D_grid class. ">
<polygon fill="#ffffff" stroke="#000000" points="342,-56.5 342,-75.5 420,-75.5 420,-56.5 342,-56.5"/>
<text text-anchor="middle" x="381" y="-63.5" font-family="Helvetica,sans-Serif" font-size="10.00" fill="#000000">fft3d_grid.hpp</text>
</a>
</g>
</g>
<!-- Node0&#45;&gt;Node12 -->
<g id="edge12" class="edge">
<title>Node0&#45;&gt;Node12</title>
<path fill="none" stroke="#191970" d="M338.0072,-168.4509C345.7422,-150.0186 362.8608,-109.2254 373.0087,-85.043"/>
<polygon fill="#191970" stroke="#191970" points="376.3607,-86.1002 377.0029,-75.5249 369.906,-83.3915 376.3607,-86.1002"/>
</g>
<!-- Node13 -->
<g id="node14" class="node">
<title>Node13</title>
<g id="a_node14"><a xlink:href="gvec_8hpp.html" target="_top" xlink:title="Declaration and implementation of Gvec class. ">
<polygon fill="#ffffff" stroke="#000000" points="381.5,-112.5 381.5,-131.5 438.5,-131.5 438.5,-112.5 381.5,-112.5"/>
<text text-anchor="middle" x="410" y="-119.5" font-family="Helvetica,sans-Serif" font-size="10.00" fill="#000000">gvec.hpp</text>
</a>
</g>
</g>
<!-- Node0&#45;&gt;Node13 -->
<g id="edge13" class="edge">
<title>Node0&#45;&gt;Node13</title>
<path fill="none" stroke="#191970" d="M347.2382,-168.2455C358.681,-159.814 375.4296,-147.4729 388.7475,-137.6598"/>
<polygon fill="#191970" stroke="#191970" points="390.9391,-140.3924 396.9135,-131.6427 386.7867,-134.757 390.9391,-140.3924"/>
</g>
<!-- Node3 -->
<g id="node4" class="node">
<title>Node3</title>
<polygon fill="#ffffff" stroke="#bfbfbf" points="0,-.5 0,-19.5 52,-19.5 52,-.5 0,-.5"/>
<text text-anchor="middle" x="26" y="-7.5" font-family="Helvetica,sans-Serif" font-size="10.00" fill="#000000">assert.h</text>
</g>
<!-- Node2&#45;&gt;Node3 -->
<g id="edge3" class="edge">
<title>Node2&#45;&gt;Node3</title>
<path fill="none" stroke="#191970" d="M234.1162,-57.4879C192.0529,-49.2965 127.2218,-36.125 62.3137,-20.2074"/>
<polygon fill="#191970" stroke="#191970" points="62.868,-16.7391 52.3201,-17.7346 61.1866,-23.5342 62.868,-16.7391"/>
</g>
<!-- Node4 -->
<g id="node5" class="node">
<title>Node4</title>
<polygon fill="#ffffff" stroke="#bfbfbf" points="70,-.5 70,-19.5 114,-19.5 114,-.5 70,-.5"/>
<text text-anchor="middle" x="92" y="-7.5" font-family="Helvetica,sans-Serif" font-size="10.00" fill="#000000">cmath</text>
</g>
<!-- Node2&#45;&gt;Node4 -->
<g id="edge4" class="edge">
<title>Node2&#45;&gt;Node4</title>
<path fill="none" stroke="#191970" d="M245.7561,-56.4614C216.162,-47.9116 171.4556,-34.8539 124.1416,-20.3048"/>
<polygon fill="#191970" stroke="#191970" points="124.9171,-16.8814 114.3297,-17.2776 122.8534,-23.5702 124.9171,-16.8814"/>
</g>
<!-- Node5 -->
<g id="node6" class="node">
<title>Node5</title>
<polygon fill="#ffffff" stroke="#bfbfbf" points="132.5,-.5 132.5,-19.5 171.5,-19.5 171.5,-.5 132.5,-.5"/>
<text text-anchor="middle" x="152" y="-7.5" font-family="Helvetica,sans-Serif" font-size="10.00" fill="#000000">array</text>
</g>
<!-- Node2&#45;&gt;Node5 -->
<g id="edge5" class="edge">
<title>Node2&#45;&gt;Node5</title>
<path fill="none" stroke="#191970" d="M257.1679,-56.3733C236.1933,-47.1246 204.3593,-33.0876 181.21,-22.88"/>
<polygon fill="#191970" stroke="#191970" points="182.4397,-19.5971 171.8776,-18.7649 179.6154,-26.0021 182.4397,-19.5971"/>
</g>
<!-- Node6 -->
<g id="node7" class="node">
<title>Node6</title>
<polygon fill="#ffffff" stroke="#bfbfbf" points="190,-.5 190,-19.5 234,-19.5 234,-.5 190,-.5"/>
<text text-anchor="middle" x="212" y="-7.5" font-family="Helvetica,sans-Serif" font-size="10.00" fill="#000000">vector</text>
</g>
<!-- Node2&#45;&gt;Node6 -->
<g id="edge6" class="edge">
<title>Node2&#45;&gt;Node6</title>
<path fill="none" stroke="#191970" d="M267.3295,-56.2455C257.4339,-47.9746 243.0373,-35.9416 231.4099,-26.2232"/>
<polygon fill="#191970" stroke="#191970" points="233.4542,-23.3703 223.5368,-19.6427 228.965,-28.7413 233.4542,-23.3703"/>
</g>
<!-- Node7 -->
<g id="node8" class="node">
<title>Node7</title>
<polygon fill="#ffffff" stroke="#bfbfbf" points="252.5,-.5 252.5,-19.5 305.5,-19.5 305.5,-.5 252.5,-.5"/>
<text text-anchor="middle" x="279" y="-7.5" font-family="Helvetica,sans-Serif" font-size="10.00" fill="#000000">ostream</text>
</g>
<!-- Node2&#45;&gt;Node7 -->
<g id="edge7" class="edge">
<title>Node2&#45;&gt;Node7</title>
<path fill="none" stroke="#191970" d="M279,-56.2455C279,-48.9382 279,-38.6944 279,-29.7046"/>
<polygon fill="#191970" stroke="#191970" points="282.5001,-29.6426 279,-19.6427 275.5001,-29.6427 282.5001,-29.6426"/>
</g>
<!-- Node8 -->
<g id="node9" class="node">
<title>Node8</title>
<polygon fill="#ffffff" stroke="#bfbfbf" points="324,-.5 324,-19.5 370,-19.5 370,-.5 324,-.5"/>
<text text-anchor="middle" x="347" y="-7.5" font-family="Helvetica,sans-Serif" font-size="10.00" fill="#000000">cstring</text>
</g>
<!-- Node2&#45;&gt;Node8 -->
<g id="edge8" class="edge">
<title>Node2&#45;&gt;Node8</title>
<path fill="none" stroke="#191970" d="M290.8447,-56.2455C300.888,-47.9746 315.4995,-35.9416 327.3004,-26.2232"/>
<polygon fill="#191970" stroke="#191970" points="329.7967,-28.7015 335.291,-19.6427 325.3467,-23.298 329.7967,-28.7015"/>
</g>
<!-- Node9 -->
<g id="node10" class="node">
<title>Node9</title>
<polygon fill="#ffffff" stroke="#bfbfbf" points="388.5,-.5 388.5,-19.5 461.5,-19.5 461.5,-.5 388.5,-.5"/>
<text text-anchor="middle" x="425" y="-7.5" font-family="Helvetica,sans-Serif" font-size="10.00" fill="#000000">initializer_list</text>
</g>
<!-- Node2&#45;&gt;Node9 -->
<g id="edge9" class="edge">
<title>Node2&#45;&gt;Node9</title>
<path fill="none" stroke="#191970" d="M304.0983,-56.3733C327.9555,-47.2226 364.0335,-33.3844 390.571,-23.2057"/>
<polygon fill="#191970" stroke="#191970" points="392.1459,-26.3503 400.2292,-19.5011 389.639,-19.8145 392.1459,-26.3503"/>
</g>
<!-- Node10 -->
<g id="node11" class="node">
<title>Node10</title>
<polygon fill="#ffffff" stroke="#bfbfbf" points="479.5,-.5 479.5,-19.5 538.5,-19.5 538.5,-.5 479.5,-.5"/>
<text text-anchor="middle" x="509" y="-7.5" font-family="Helvetica,sans-Serif" font-size="10.00" fill="#000000">stdexcept</text>
</g>
<!-- Node2&#45;&gt;Node10 -->
<g id="edge10" class="edge">
<title>Node2&#45;&gt;Node10</title>
<path fill="none" stroke="#191970" d="M319.8898,-56.4806C356.676,-47.8546 412.4575,-34.6223 469.2772,-20.4007"/>
<polygon fill="#191970" stroke="#191970" points="470.2986,-23.753 479.1454,-17.9233 468.5941,-16.9637 470.2986,-23.753"/>
</g>
<!-- Node11 -->
<g id="node12" class="node">
<title>Node11</title>
<polygon fill="#ffffff" stroke="#bfbfbf" points="557,-.5 557,-19.5 609,-19.5 609,-.5 557,-.5"/>
<text text-anchor="middle" x="583" y="-7.5" font-family="Helvetica,sans-Serif" font-size="10.00" fill="#000000">sstream</text>
</g>
<!-- Node2&#45;&gt;Node11 -->
<g id="edge11" class="edge">
<title>Node2&#45;&gt;Node11</title>
<path fill="none" stroke="#191970" d="M323.7783,-57.6464C326.8981,-57.0833 329.9953,-56.5297 333,-56 425.2463,-39.737 451.751,-41.2192 546.6802,-20.1111"/>
<polygon fill="#191970" stroke="#191970" points="547.7206,-23.4646 556.7084,-17.8547 546.184,-16.6353 547.7206,-23.4646"/>
</g>
<!-- Node13&#45;&gt;Node2 -->
<g id="edge17" class="edge">
<title>Node13&#45;&gt;Node2</title>
<path fill="none" stroke="#191970" d="M387.4803,-112.3733C366.2628,-103.3032 334.2724,-89.6279 310.5231,-79.4755"/>
<polygon fill="#191970" stroke="#191970" points="311.7967,-76.2136 301.2258,-75.5011 309.0452,-82.6502 311.7967,-76.2136"/>
</g>
<!-- Node13&#45;&gt;Node12 -->
<g id="edge16" class="edge">
<title>Node13&#45;&gt;Node12</title>
<path fill="none" stroke="#191970" d="M404.9486,-112.2455C400.9981,-104.617 395.3903,-93.7881 390.5942,-84.5267"/>
<polygon fill="#191970" stroke="#191970" points="393.7001,-82.9131 385.9935,-75.6427 387.4841,-86.1321 393.7001,-82.9131"/>
</g>
<!-- Node14 -->
<g id="node15" class="node">
<title>Node14</title>
<polygon fill="#ffffff" stroke="#bfbfbf" points="438,-56.5 438,-75.5 490,-75.5 490,-56.5 438,-56.5"/>
<text text-anchor="middle" x="464" y="-63.5" font-family="Helvetica,sans-Serif" font-size="10.00" fill="#000000">numeric</text>
</g>
<!-- Node13&#45;&gt;Node14 -->
<g id="edge14" class="edge">
<title>Node13&#45;&gt;Node14</title>
<path fill="none" stroke="#191970" d="M419.4061,-112.2455C427.1493,-104.2155 438.312,-92.6394 447.5318,-83.0781"/>
<polygon fill="#191970" stroke="#191970" points="450.2798,-85.2706 454.7017,-75.6427 445.2409,-80.4117 450.2798,-85.2706"/>
</g>
<!-- Node15 -->
<g id="node16" class="node">
<title>Node15</title>
<polygon fill="#ffffff" stroke="#bfbfbf" points="508,-56.5 508,-75.5 544,-75.5 544,-56.5 508,-56.5"/>
<text text-anchor="middle" x="526" y="-63.5" font-family="Helvetica,sans-Serif" font-size="10.00" fill="#000000">map</text>
</g>
<!-- Node13&#45;&gt;Node15 -->
<g id="edge15" class="edge">
<title>Node13&#45;&gt;Node15</title>
<path fill="none" stroke="#191970" d="M429.9411,-112.3733C448.928,-103.2072 477.6573,-89.3378 498.7518,-79.1543"/>
<polygon fill="#191970" stroke="#191970" points="500.3602,-82.2644 507.8441,-74.7649 497.317,-75.9605 500.3602,-82.2644"/>
</g>
</g>
</svg>
