<?xml version="1.0" encoding="UTF-8" standalone="no"?>
<!DOCTYPE svg PUBLIC "-//W3C//DTD SVG 1.1//EN"
 "http://www.w3.org/Graphics/SVG/1.1/DTD/svg11.dtd">
<!-- Generated by graphviz version 2.40.1 (20161225.0304)
 -->
<!-- Title: sirius::Density::paw_density_data_t Pages: 1 -->
<svg width="1615pt" height="820pt"
 viewBox="0.00 0.00 1615.00 820.00" xmlns="http://www.w3.org/2000/svg" xmlns:xlink="http://www.w3.org/1999/xlink">
<g id="graph0" class="graph" transform="scale(1 1) rotate(0) translate(4 816)">
<title>sirius::Density::paw_density_data_t</title>
<polygon fill="#ffffff" stroke="transparent" points="-4,4 -4,-816 1611,-816 1611,4 -4,4"/>
<!-- Node1 -->
<g id="node1" class="node">
<title>Node1</title>
<polygon fill="#bfbfbf" stroke="#000000" points="1504,-81 1504,-111 1607,-111 1607,-81 1504,-81"/>
<text text-anchor="start" x="1512" y="-99" font-family="Helvetica,sans-Serif" font-size="10.00" fill="#000000">sirius::Density::paw</text>
<text text-anchor="middle" x="1555.5" y="-88" font-family="Helvetica,sans-Serif" font-size="10.00" fill="#000000">_density_data_t</text>
</g>
<!-- Node2 -->
<g id="node2" class="node">
<title>Node2</title>
<g id="a_node2"><a xlink:href="classsirius_1_1_atom.html" target="_top" xlink:title="Data and methods specific to the actual atom in the unit cell. ">
<polygon fill="#ffffff" stroke="#000000" points="1368,-319.5 1368,-338.5 1437,-338.5 1437,-319.5 1368,-319.5"/>
<text text-anchor="middle" x="1402.5" y="-326.5" font-family="Helvetica,sans-Serif" font-size="10.00" fill="#000000">sirius::Atom</text>
</a>
</g>
</g>
<!-- Node2&#45;&gt;Node1 -->
<g id="edge1" class="edge">
<title>Node2&#45;&gt;Node1</title>
<path fill="none" stroke="#9a32cd" stroke-dasharray="5,2" d="M1414.3827,-310.9042C1443.5758,-266.4467 1518.4042,-152.4923 1545.5078,-111.2168"/>
<polygon fill="#9a32cd" stroke="#9a32cd" points="1411.4428,-309.0048 1408.8794,-319.2849 1417.294,-312.8471 1411.4428,-309.0048"/>
<text text-anchor="middle" x="1470.5" y="-250" font-family="Helvetica,sans-Serif" font-size="10.00" fill="#000000"> atom_</text>
</g>
<!-- Node3 -->
<g id="node3" class="node">
<title>Node3</title>
<g id="a_node3"><a xlink:href="classsddk_1_1mdarray.html" target="_top" xlink:title="sddk::mdarray\&lt; double\l_complex, 4 \&gt;">
<polygon fill="#ffffff" stroke="#000000" points="772.5,-686 772.5,-716 890.5,-716 890.5,-686 772.5,-686"/>
<text text-anchor="start" x="780.5" y="-704" font-family="Helvetica,sans-Serif" font-size="10.00" fill="#000000">sddk::mdarray&lt; double</text>
<text text-anchor="middle" x="831.5" y="-693" font-family="Helvetica,sans-Serif" font-size="10.00" fill="#000000">_complex, 4 &gt;</text>
</a>
</g>
</g>
<!-- Node3&#45;&gt;Node2 -->
<g id="edge2" class="edge">
<title>Node3&#45;&gt;Node2</title>
<path fill="none" stroke="#9a32cd" stroke-dasharray="5,2" d="M881.4078,-681.7721C885.3781,-679.9227 889.2858,-677.9907 893,-676 1104.2928,-562.7553 1335.9091,-382.0169 1390.5118,-338.6018"/>
<polygon fill="#9a32cd" stroke="#9a32cd" points="879.7995,-678.657 872.0921,-685.9266 882.6507,-685.0501 879.7995,-678.657"/>
<text text-anchor="start" x="1022" y="-623" font-family="Helvetica,sans-Serif" font-size="10.00" fill="#000000"> uj_correction_matrix</text>
<text text-anchor="middle" x="1068.5" y="-612" font-family="Helvetica,sans-Serif" font-size="10.00" fill="#000000">_</text>
<text text-anchor="middle" x="1068.5" y="-601" font-family="Helvetica,sans-Serif" font-size="10.00" fill="#000000">occupation_matrix_</text>
</g>
<!-- Node4 -->
<g id="node4" class="node">
<title>Node4</title>
<g id="a_node4"><a xlink:href="classsddk_1_1mdarray__base.html" target="_top" xlink:title="sddk::mdarray_base\l\&lt; double_complex, N \&gt;">
<polygon fill="#ffffff" stroke="#000000" points="312.5,-649 312.5,-679 431.5,-679 431.5,-649 312.5,-649"/>
<text text-anchor="start" x="320.5" y="-667" font-family="Helvetica,sans-Serif" font-size="10.00" fill="#000000">sddk::mdarray_base</text>
<text text-anchor="middle" x="372" y="-656" font-family="Helvetica,sans-Serif" font-size="10.00" fill="#000000">&lt; double_complex, N &gt;</text>
</a>
</g>
</g>
<!-- Node4&#45;&gt;Node3 -->
<g id="edge3" class="edge">
<title>Node4&#45;&gt;Node3</title>
<path fill="none" stroke="#191970" d="M442.0676,-677.4637C447.7859,-678.3863 453.4841,-679.2469 459,-680 568.9039,-695.005 698.4576,-699.3322 772.1912,-700.5528"/>
<polygon fill="#191970" stroke="#191970" points="442.2281,-673.9421 431.788,-675.7459 441.0743,-680.8463 442.2281,-673.9421"/>
</g>
<!-- Node14 -->
<g id="node14" class="node">
<title>Node14</title>
<g id="a_node14"><a xlink:href="classsddk_1_1mdarray.html" target="_top" xlink:title="sddk::mdarray\&lt; double\l_complex \&gt;">
<polygon fill="#ffffff" stroke="#000000" points="624.5,-654 624.5,-684 742.5,-684 742.5,-654 624.5,-654"/>
<text text-anchor="start" x="632.5" y="-672" font-family="Helvetica,sans-Serif" font-size="10.00" fill="#000000">sddk::mdarray&lt; double</text>
<text text-anchor="middle" x="683.5" y="-661" font-family="Helvetica,sans-Serif" font-size="10.00" fill="#000000">_complex &gt;</text>
</a>
</g>
</g>
<!-- Node4&#45;&gt;Node14 -->
<g id="edge15" class="edge">
<title>Node4&#45;&gt;Node14</title>
<path fill="none" stroke="#191970" d="M442.032,-665.1241C496.902,-666.0048 572.3862,-667.2165 624.2747,-668.0494"/>
<polygon fill="#191970" stroke="#191970" points="441.7467,-661.6192 431.6918,-664.9581 441.6343,-668.6183 441.7467,-661.6192"/>
</g>
<!-- Node5 -->
<g id="node5" class="node">
<title>Node5</title>
<g id="a_node5"><a xlink:href="classsirius_1_1_atom__type.html" target="_top" xlink:title="sirius::Atom_type">
<polygon fill="#ffffff" stroke="#000000" points="911,-409.5 911,-428.5 1004,-428.5 1004,-409.5 911,-409.5"/>
<text text-anchor="middle" x="957.5" y="-416.5" font-family="Helvetica,sans-Serif" font-size="10.00" fill="#000000">sirius::Atom_type</text>
</a>
</g>
</g>
<!-- Node5&#45;&gt;Node2 -->
<g id="edge4" class="edge">
<title>Node5&#45;&gt;Node2</title>
<path fill="none" stroke="#9a32cd" stroke-dasharray="5,2" d="M1014.134,-407.5459C1107.6462,-388.6334 1291.5839,-351.4325 1367.9728,-335.983"/>
<polygon fill="#9a32cd" stroke="#9a32cd" points="1013.3894,-404.1256 1004.2817,-409.5385 1014.7771,-410.9867 1013.3894,-404.1256"/>
<text text-anchor="middle" x="1192" y="-386" font-family="Helvetica,sans-Serif" font-size="10.00" fill="#000000"> type_</text>
</g>
<!-- Node26 -->
<g id="node26" class="node">
<title>Node26</title>
<g id="a_node26"><a xlink:href="classsirius_1_1_atom__symmetry__class.html" target="_top" xlink:title="Data and methods specific to the symmetry class of the atom. ">
<polygon fill="#ffffff" stroke="#000000" points="1133,-184 1133,-214 1251,-214 1251,-184 1133,-184"/>
<text text-anchor="start" x="1141" y="-202" font-family="Helvetica,sans-Serif" font-size="10.00" fill="#000000">sirius::Atom_symmetry</text>
<text text-anchor="middle" x="1192" y="-191" font-family="Helvetica,sans-Serif" font-size="10.00" fill="#000000">_class</text>
</a>
</g>
</g>
<!-- Node5&#45;&gt;Node26 -->
<g id="edge34" class="edge">
<title>Node5&#45;&gt;Node26</title>
<path fill="none" stroke="#9a32cd" stroke-dasharray="5,2" d="M975.2729,-402.3261C1019.4097,-360.9184 1133.5008,-253.882 1175.8573,-214.1445"/>
<polygon fill="#9a32cd" stroke="#9a32cd" points="972.777,-399.8684 967.8787,-409.263 977.5664,-404.9735 972.777,-399.8684"/>
<text text-anchor="middle" x="1068.5" y="-357" font-family="Helvetica,sans-Serif" font-size="10.00" fill="#000000"> atom_type_</text>
</g>
<!-- Node6 -->
<g id="node6" class="node">
<title>Node6</title>
<g id="a_node6"><a xlink:href="structpseudopotential__descriptor.html" target="_top" xlink:title="pseudopotential_descriptor">
<polygon fill="#ffffff" stroke="#000000" points="615,-241.5 615,-260.5 752,-260.5 752,-241.5 615,-241.5"/>
<text text-anchor="middle" x="683.5" y="-248.5" font-family="Helvetica,sans-Serif" font-size="10.00" fill="#000000">pseudopotential_descriptor</text>
</a>
</g>
</g>
<!-- Node6&#45;&gt;Node5 -->
<g id="edge5" class="edge">
<title>Node6&#45;&gt;Node5</title>
<path fill="none" stroke="#9a32cd" stroke-dasharray="5,2" d="M725.3038,-263.3781C739.432,-267.3529 755.3397,-271.6021 770,-275 824.178,-287.5571 848.1592,-265.1025 893,-298 931.9632,-326.5854 949.6908,-385.9209 955.361,-409.2642"/>
<polygon fill="#9a32cd" stroke="#9a32cd" points="725.9504,-259.923 715.374,-260.5483 724.0319,-266.655 725.9504,-259.923"/>
<text text-anchor="middle" x="831.5" y="-301" font-family="Helvetica,sans-Serif" font-size="10.00" fill="#000000"> pp_desc_</text>
</g>
<!-- Node7 -->
<g id="node7" class="node">
<title>Node7</title>
<g id="a_node7"><a xlink:href="classsddk_1_1mdarray.html" target="_top" xlink:title="sddk::mdarray\&lt; double, 2 \&gt;">
<polygon fill="#ffffff" stroke="#000000" points="303,-61.5 303,-80.5 441,-80.5 441,-61.5 303,-61.5"/>
<text text-anchor="middle" x="372" y="-68.5" font-family="Helvetica,sans-Serif" font-size="10.00" fill="#000000">sddk::mdarray&lt; double, 2 &gt;</text>
</a>
</g>
</g>
<!-- Node7&#45;&gt;Node1 -->
<g id="edge42" class="edge">
<title>Node7&#45;&gt;Node1</title>
<path fill="none" stroke="#9a32cd" stroke-dasharray="5,2" d="M405.1526,-57.7249C421.2154,-51.6714 440.9033,-44.8007 459,-40 556.9608,-14.0127 582.1508,0 683.5,0 683.5,0 683.5,0 1402.5,0 1462.3944,0 1518.0835,-53.439 1542.5018,-80.5759"/>
<polygon fill="#9a32cd" stroke="#9a32cd" points="403.7502,-54.5141 395.6664,-61.3627 406.2567,-61.05 403.7502,-54.5141"/>
<text text-anchor="middle" x="1068.5" y="-14" font-family="Helvetica,sans-Serif" font-size="10.00" fill="#000000"> ae_density_</text>
<text text-anchor="middle" x="1068.5" y="-3" font-family="Helvetica,sans-Serif" font-size="10.00" fill="#000000">ps_density_</text>
</g>
<!-- Node7&#45;&gt;Node2 -->
<g id="edge37" class="edge">
<title>Node7&#45;&gt;Node2</title>
<path fill="none" stroke="#9a32cd" stroke-dasharray="5,2" d="M441.6149,-60.0541C574.9072,-41.5357 874.3072,-11.7631 1115,-74 1230.3521,-103.827 1270.3872,-114.3571 1350,-203 1381.9864,-238.6144 1396.1818,-296.4749 1400.7472,-319.3002"/>
<polygon fill="#9a32cd" stroke="#9a32cd" points="440.9519,-56.6129 431.5394,-61.4767 441.9306,-63.5441 440.9519,-56.6129"/>
<text text-anchor="middle" x="957.5" y="-66" font-family="Helvetica,sans-Serif" font-size="10.00" fill="#000000"> beff_</text>
<text text-anchor="middle" x="957.5" y="-55" font-family="Helvetica,sans-Serif" font-size="10.00" fill="#000000">veff_</text>
</g>
<!-- Node7&#45;&gt;Node6 -->
<g id="edge6" class="edge">
<title>Node7&#45;&gt;Node6</title>
<path fill="none" stroke="#9a32cd" stroke-dasharray="5,2" d="M408.032,-84.2114C453.8472,-101.8017 534.502,-135.4569 597,-176 627.6818,-195.9036 658.9445,-225.9409 674.1029,-241.2625"/>
<polygon fill="#9a32cd" stroke="#9a32cd" points="409.1217,-80.8814 398.5306,-80.6024 406.6361,-87.4252 409.1217,-80.8814"/>
<text text-anchor="middle" x="528" y="-212" font-family="Helvetica,sans-Serif" font-size="10.00" fill="#000000"> all_elec_wfc</text>
<text text-anchor="middle" x="528" y="-201" font-family="Helvetica,sans-Serif" font-size="10.00" fill="#000000">beta_radial_functions</text>
<text text-anchor="middle" x="528" y="-190" font-family="Helvetica,sans-Serif" font-size="10.00" fill="#000000">d_mtrx_ion</text>
<text text-anchor="middle" x="528" y="-179" font-family="Helvetica,sans-Serif" font-size="10.00" fill="#000000">pseudo_wfc</text>
</g>
<!-- Node7&#45;&gt;Node26 -->
<g id="edge35" class="edge">
<title>Node7&#45;&gt;Node26</title>
<path fill="none" stroke="#9a32cd" stroke-dasharray="5,2" d="M451.2887,-78.7104C553.6452,-89.0939 737.1343,-109.1663 893,-134 992.333,-149.8265 1017.0848,-154.9749 1115,-178 1122.6884,-179.8079 1130.7704,-181.8519 1138.6895,-183.9371"/>
<polygon fill="#9a32cd" stroke="#9a32cd" points="451.6384,-75.228 441.3373,-77.7055 450.9351,-82.1926 451.6384,-75.228"/>
<text text-anchor="start" x="781" y="-159" font-family="Helvetica,sans-Serif" font-size="10.00" fill="#000000"> o1_radial_integrals</text>
<text text-anchor="middle" x="831.5" y="-148" font-family="Helvetica,sans-Serif" font-size="10.00" fill="#000000">_</text>
<text text-anchor="middle" x="831.5" y="-137" font-family="Helvetica,sans-Serif" font-size="10.00" fill="#000000">h_spherical_integrals_</text>
</g>
<!-- Node8 -->
<g id="node8" class="node">
<title>Node8</title>
<g id="a_node8"><a xlink:href="classsddk_1_1mdarray__base.html" target="_top" xlink:title="sddk::mdarray_base\l\&lt; double, N \&gt;">
<polygon fill="#ffffff" stroke="#000000" points="137,-198 137,-228 244,-228 244,-198 137,-198"/>
<text text-anchor="start" x="145" y="-216" font-family="Helvetica,sans-Serif" font-size="10.00" fill="#000000">sddk::mdarray_base</text>
<text text-anchor="middle" x="190.5" y="-205" font-family="Helvetica,sans-Serif" font-size="10.00" fill="#000000">&lt; double, N &gt;</text>
</a>
</g>
</g>
<!-- Node8&#45;&gt;Node7 -->
<g id="edge7" class="edge">
<title>Node8&#45;&gt;Node7</title>
<path fill="none" stroke="#191970" d="M217.9461,-191.527C258.0033,-160.1875 330.8486,-103.1956 359.7297,-80.5999"/>
<polygon fill="#191970" stroke="#191970" points="215.643,-188.885 209.9237,-197.8035 219.9563,-194.3982 215.643,-188.885"/>
</g>
<!-- Node9 -->
<g id="node9" class="node">
<title>Node9</title>
<g id="a_node9"><a xlink:href="classsddk_1_1mdarray.html" target="_top" xlink:title="sddk::mdarray\&lt; double, 3 \&gt;">
<polygon fill="#ffffff" stroke="#000000" points="303,-203.5 303,-222.5 441,-222.5 441,-203.5 303,-203.5"/>
<text text-anchor="middle" x="372" y="-210.5" font-family="Helvetica,sans-Serif" font-size="10.00" fill="#000000">sddk::mdarray&lt; double, 3 &gt;</text>
</a>
</g>
</g>
<!-- Node8&#45;&gt;Node9 -->
<g id="edge9" class="edge">
<title>Node8&#45;&gt;Node9</title>
<path fill="none" stroke="#191970" d="M254.5326,-213C270.1405,-213 286.9059,-213 302.7444,-213"/>
<polygon fill="#191970" stroke="#191970" points="254.4646,-209.5001 244.4646,-213 254.4645,-216.5001 254.4646,-209.5001"/>
</g>
<!-- Node27 -->
<g id="node27" class="node">
<title>Node27</title>
<g id="a_node27"><a xlink:href="classsddk_1_1mdarray.html" target="_top" xlink:title="sddk::mdarray\&lt; double, 4 \&gt;">
<polygon fill="#ffffff" stroke="#000000" points="459,-735.5 459,-754.5 597,-754.5 597,-735.5 459,-735.5"/>
<text text-anchor="middle" x="528" y="-742.5" font-family="Helvetica,sans-Serif" font-size="10.00" fill="#000000">sddk::mdarray&lt; double, 4 &gt;</text>
</a>
</g>
</g>
<!-- Node8&#45;&gt;Node27 -->
<g id="edge40" class="edge">
<title>Node8&#45;&gt;Node27</title>
<path fill="none" stroke="#191970" d="M193.0347,-238.2731C202.4506,-327.1503 238.2535,-623.4818 303,-689 343.4617,-729.9439 408.9262,-742.6193 458.8355,-745.8318"/>
<polygon fill="#191970" stroke="#191970" points="196.5097,-237.851 191.994,-228.2667 189.5473,-238.5751 196.5097,-237.851"/>
</g>
<!-- Node9&#45;&gt;Node1 -->
<g id="edge43" class="edge">
<title>Node9&#45;&gt;Node1</title>
<path fill="none" stroke="#9a32cd" stroke-dasharray="5,2" d="M404.3966,-199.6897C420.5639,-193.504 440.5604,-186.5314 459,-182 648.1571,-135.5162 700.1364,-148.2905 893,-121 971.0103,-109.9614 989.7126,-96 1068.5,-96 1068.5,-96 1068.5,-96 1402.5,-96 1436.2344,-96 1474.1526,-96 1503.8012,-96"/>
<polygon fill="#9a32cd" stroke="#9a32cd" points="402.9138,-196.5113 394.8732,-203.4105 405.4613,-203.0313 402.9138,-196.5113"/>
<text text-anchor="middle" x="1068.5" y="-112" font-family="Helvetica,sans-Serif" font-size="10.00" fill="#000000"> ps_magnetization_</text>
<text text-anchor="middle" x="1068.5" y="-101" font-family="Helvetica,sans-Serif" font-size="10.00" fill="#000000">ae_magnetization_</text>
</g>
<!-- Node9&#45;&gt;Node2 -->
<g id="edge38" class="edge">
<title>Node9&#45;&gt;Node2</title>
<path fill="none" stroke="#9a32cd" stroke-dasharray="5,2" d="M451.5477,-210.3424C546.8476,-208.303 700.1544,-208.9914 752,-232 762.3411,-236.5893 759.7313,-245.2509 770,-250 839.8139,-282.2881 1038.7132,-268.1604 1115,-278 1206.7536,-289.8345 1313.7979,-310.7145 1367.7013,-321.7286"/>
<polygon fill="#9a32cd" stroke="#9a32cd" points="451.2863,-206.8474 441.369,-210.5752 451.4465,-213.8455 451.2863,-206.8474"/>
<text text-anchor="start" x="916.5" y="-299" font-family="Helvetica,sans-Serif" font-size="10.00" fill="#000000"> h_radial_integrals</text>
<text text-anchor="middle" x="957.5" y="-288" font-family="Helvetica,sans-Serif" font-size="10.00" fill="#000000">_</text>
<text text-anchor="middle" x="957.5" y="-277" font-family="Helvetica,sans-Serif" font-size="10.00" fill="#000000">d_mtrx_</text>
</g>
<!-- Node9&#45;&gt;Node5 -->
<g id="edge29" class="edge">
<title>Node9&#45;&gt;Node5</title>
<path fill="none" stroke="#9a32cd" stroke-dasharray="5,2" d="M397.2314,-227.524C414.2266,-236.7871 437.4003,-248.4311 459,-256 647.2114,-321.9524 717.5271,-275.2239 893,-370 913.5397,-381.0938 934.5623,-398.4035 946.8053,-409.2031"/>
<polygon fill="#9a32cd" stroke="#9a32cd" points="398.9165,-224.4563 388.4744,-222.6638 395.5195,-230.5769 398.9165,-224.4563"/>
<text text-anchor="middle" x="683.5" y="-328" font-family="Helvetica,sans-Serif" font-size="10.00" fill="#000000"> rf_coef_</text>
<text text-anchor="middle" x="683.5" y="-317" font-family="Helvetica,sans-Serif" font-size="10.00" fill="#000000">vrf_coef_</text>
</g>
<!-- Node9&#45;&gt;Node6 -->
<g id="edge8" class="edge">
<title>Node9&#45;&gt;Node6</title>
<path fill="none" stroke="#9a32cd" stroke-dasharray="5,2" d="M451.3579,-223.0541C453.9353,-223.3741 456.488,-223.6901 459,-224 511.2081,-230.4399 570.2709,-237.5357 614.708,-242.8363"/>
<polygon fill="#9a32cd" stroke="#9a32cd" points="451.6833,-219.5677 441.3272,-221.8041 450.8176,-226.5139 451.6833,-219.5677"/>
<text text-anchor="middle" x="528" y="-244" font-family="Helvetica,sans-Serif" font-size="10.00" fill="#000000"> q_radial_functions_l</text>
</g>
<!-- Node9&#45;&gt;Node26 -->
<g id="edge36" class="edge">
<title>Node9&#45;&gt;Node26</title>
<path fill="none" stroke="#9a32cd" stroke-dasharray="5,2" d="M451.3476,-202.8578C453.928,-202.5631 456.4841,-202.2763 459,-202 651.1639,-180.898 699.8627,-164.6185 893,-173 976.4207,-176.6202 1072.5648,-185.8961 1132.815,-192.3284"/>
<polygon fill="#9a32cd" stroke="#9a32cd" points="450.8349,-199.3938 441.3078,-204.029 451.646,-206.3467 450.8349,-199.3938"/>
<text text-anchor="start" x="779" y="-242" font-family="Helvetica,sans-Serif" font-size="10.00" fill="#000000"> o_radial_integrals</text>
<text text-anchor="middle" x="831.5" y="-231" font-family="Helvetica,sans-Serif" font-size="10.00" fill="#000000">_</text>
<text text-anchor="start" x="779" y="-220" font-family="Helvetica,sans-Serif" font-size="10.00" fill="#000000">aw_surface_derivatives</text>
<text text-anchor="middle" x="831.5" y="-209" font-family="Helvetica,sans-Serif" font-size="10.00" fill="#000000">_</text>
<text text-anchor="start" x="779" y="-198" font-family="Helvetica,sans-Serif" font-size="10.00" fill="#000000">so_radial_integrals</text>
<text text-anchor="middle" x="831.5" y="-187" font-family="Helvetica,sans-Serif" font-size="10.00" fill="#000000">_</text>
<text text-anchor="middle" x="831.5" y="-176" font-family="Helvetica,sans-Serif" font-size="10.00" fill="#000000">radial_functions_</text>
</g>
<!-- Node10 -->
<g id="node10" class="node">
<title>Node10</title>
<g id="a_node10"><a xlink:href="classsddk_1_1mdarray.html" target="_top" xlink:title="sddk::mdarray\&lt; int, 2 \&gt;">
<polygon fill="#ffffff" stroke="#000000" points="312.5,-560.5 312.5,-579.5 431.5,-579.5 431.5,-560.5 312.5,-560.5"/>
<text text-anchor="middle" x="372" y="-567.5" font-family="Helvetica,sans-Serif" font-size="10.00" fill="#000000">sddk::mdarray&lt; int, 2 &gt;</text>
</a>
</g>
</g>
<!-- Node10&#45;&gt;Node5 -->
<g id="edge10" class="edge">
<title>Node10&#45;&gt;Node5</title>
<path fill="none" stroke="#9a32cd" stroke-dasharray="5,2" d="M429.8414,-558.5518C439.57,-556.6681 449.5679,-554.7581 459,-553 555.2921,-535.0515 804.7866,-518.576 893,-476 916.6867,-464.5677 938.2905,-441.9134 949.4797,-428.8709"/>
<polygon fill="#9a32cd" stroke="#9a32cd" points="428.9836,-555.153 419.8357,-560.4978 430.32,-562.0243 428.9836,-555.153"/>
<text text-anchor="middle" x="683.5" y="-535" font-family="Helvetica,sans-Serif" font-size="10.00" fill="#000000"> idx_radial_integrals_</text>
</g>
<!-- Node15 -->
<g id="node15" class="node">
<title>Node15</title>
<g id="a_node15"><a xlink:href="classsirius_1_1radial__functions__index.html" target="_top" xlink:title="sirius::radial_functions\l_index">
<polygon fill="#ffffff" stroke="#000000" points="626,-556 626,-586 741,-586 741,-556 626,-556"/>
<text text-anchor="start" x="634" y="-574" font-family="Helvetica,sans-Serif" font-size="10.00" fill="#000000">sirius::radial_functions</text>
<text text-anchor="middle" x="683.5" y="-563" font-family="Helvetica,sans-Serif" font-size="10.00" fill="#000000">_index</text>
</a>
</g>
</g>
<!-- Node10&#45;&gt;Node15 -->
<g id="edge18" class="edge">
<title>Node10&#45;&gt;Node15</title>
<path fill="none" stroke="#9a32cd" stroke-dasharray="5,2" d="M442.0977,-561.2415C447.8092,-560.7416 453.4977,-560.3152 459,-560 520.233,-556.4924 535.7893,-556.1236 597,-560 606.367,-560.5932 616.2705,-561.5443 625.9012,-562.6451"/>
<polygon fill="#9a32cd" stroke="#9a32cd" points="441.4533,-557.7867 431.8271,-562.2123 442.1121,-564.7556 441.4533,-557.7867"/>
<text text-anchor="middle" x="528" y="-563" font-family="Helvetica,sans-Serif" font-size="10.00" fill="#000000"> index_by_l_order_</text>
</g>
<!-- Node25 -->
<g id="node25" class="node">
<title>Node25</title>
<g id="a_node25"><a xlink:href="classsirius_1_1basis__functions__index.html" target="_top" xlink:title="sirius::basis_functions\l_index">
<polygon fill="#ffffff" stroke="#000000" points="626.5,-605 626.5,-635 740.5,-635 740.5,-605 626.5,-605"/>
<text text-anchor="start" x="634.5" y="-623" font-family="Helvetica,sans-Serif" font-size="10.00" fill="#000000">sirius::basis_functions</text>
<text text-anchor="middle" x="683.5" y="-612" font-family="Helvetica,sans-Serif" font-size="10.00" fill="#000000">_index</text>
</a>
</g>
</g>
<!-- Node10&#45;&gt;Node25 -->
<g id="edge31" class="edge">
<title>Node10&#45;&gt;Node25</title>
<path fill="none" stroke="#9a32cd" stroke-dasharray="5,2" d="M399.9767,-583.8885C416.6846,-591.5082 438.5677,-600.3321 459,-605 514.7893,-617.7454 580.2471,-620.8156 626.0371,-621.1102"/>
<polygon fill="#9a32cd" stroke="#9a32cd" points="401.3277,-580.6564 390.7875,-579.5819 398.3571,-586.9948 401.3277,-580.6564"/>
<text text-anchor="middle" x="528" y="-623" font-family="Helvetica,sans-Serif" font-size="10.00" fill="#000000"> index_by_lm_order_</text>
</g>
<!-- Node11 -->
<g id="node11" class="node">
<title>Node11</title>
<g id="a_node11"><a xlink:href="classsddk_1_1mdarray__base.html" target="_top" xlink:title="sddk::mdarray_base\l\&lt; int, N \&gt;">
<polygon fill="#ffffff" stroke="#000000" points="137,-744 137,-774 244,-774 244,-744 137,-744"/>
<text text-anchor="start" x="145" y="-762" font-family="Helvetica,sans-Serif" font-size="10.00" fill="#000000">sddk::mdarray_base</text>
<text text-anchor="middle" x="190.5" y="-751" font-family="Helvetica,sans-Serif" font-size="10.00" fill="#000000">&lt; int, N &gt;</text>
</a>
</g>
</g>
<!-- Node11&#45;&gt;Node10 -->
<g id="edge11" class="edge">
<title>Node11&#45;&gt;Node10</title>
<path fill="none" stroke="#191970" d="M253.781,-747.6079C265.6692,-742.7559 276.8933,-735.8439 285,-726 320.6813,-682.6726 269.2206,-645.826 303,-601 310.5083,-591.0363 321.9461,-584.1985 333.363,-579.5387"/>
<polygon fill="#191970" stroke="#191970" points="252.375,-744.3941 244.1515,-751.0741 254.7459,-750.9804 252.375,-744.3941"/>
</g>
<!-- Node16 -->
<g id="node16" class="node">
<title>Node16</title>
<g id="a_node16"><a xlink:href="classsddk_1_1mdarray.html" target="_top" xlink:title="sddk::mdarray\&lt; int, 1 \&gt;">
<polygon fill="#ffffff" stroke="#000000" points="312.5,-610.5 312.5,-629.5 431.5,-629.5 431.5,-610.5 312.5,-610.5"/>
<text text-anchor="middle" x="372" y="-617.5" font-family="Helvetica,sans-Serif" font-size="10.00" fill="#000000">sddk::mdarray&lt; int, 1 &gt;</text>
</a>
</g>
</g>
<!-- Node11&#45;&gt;Node16 -->
<g id="edge20" class="edge">
<title>Node11&#45;&gt;Node16</title>
<path fill="none" stroke="#191970" d="M254.4681,-764.8403C265.7703,-762.934 276.5925,-758.7892 285,-751 321.6619,-717.0341 269.8685,-677.4177 303,-640 306.8033,-635.7046 311.4677,-632.3071 316.5609,-629.6236"/>
<polygon fill="#191970" stroke="#191970" points="254.0031,-761.3705 244.4609,-765.9747 254.7916,-768.3259 254.0031,-761.3705"/>
</g>
<!-- Node12 -->
<g id="node12" class="node">
<title>Node12</title>
<g id="a_node12"><a xlink:href="classsirius_1_1_spline.html" target="_top" xlink:title="sirius::Spline\&lt; double \&gt;">
<polygon fill="#ffffff" stroke="#000000" points="623.5,-470.5 623.5,-489.5 743.5,-489.5 743.5,-470.5 623.5,-470.5"/>
<text text-anchor="middle" x="683.5" y="-477.5" font-family="Helvetica,sans-Serif" font-size="10.00" fill="#000000">sirius::Spline&lt; double &gt;</text>
</a>
</g>
</g>
<!-- Node12&#45;&gt;Node5 -->
<g id="edge12" class="edge">
<title>Node12&#45;&gt;Node5</title>
<path fill="none" stroke="#9a32cd" stroke-dasharray="5,2" d="M736.3198,-468.2408C788.1926,-456.6925 866.3573,-439.2909 914.5369,-428.5648"/>
<polygon fill="#9a32cd" stroke="#9a32cd" points="735.3129,-464.8792 726.3125,-470.4688 736.8341,-471.712 735.3129,-464.8792"/>
<text text-anchor="middle" x="831.5" y="-464" font-family="Helvetica,sans-Serif" font-size="10.00" fill="#000000"> free_atom_density_spline_</text>
</g>
<!-- Node13 -->
<g id="node13" class="node">
<title>Node13</title>
<g id="a_node13"><a xlink:href="classsirius_1_1_radial__grid.html" target="_top" xlink:title="sirius::Radial_grid\l\&lt; double \&gt;">
<polygon fill="#ffffff" stroke="#000000" points="324,-495 324,-525 420,-525 420,-495 324,-495"/>
<text text-anchor="start" x="332" y="-513" font-family="Helvetica,sans-Serif" font-size="10.00" fill="#000000">sirius::Radial_grid</text>
<text text-anchor="middle" x="372" y="-502" font-family="Helvetica,sans-Serif" font-size="10.00" fill="#000000">&lt; double &gt;</text>
</a>
</g>
</g>
<!-- Node13&#45;&gt;Node5 -->
<g id="edge16" class="edge">
<title>Node13&#45;&gt;Node5</title>
<path fill="none" stroke="#9a32cd" stroke-dasharray="5,2" d="M430.101,-492.8517C439.7307,-490.1397 449.6293,-487.4311 459,-485 519.9432,-469.1893 544.5895,-487.8883 597,-453 608.3972,-445.4132 602.8972,-434.4015 615,-428 664.9512,-401.5793 829.4196,-409.4193 910.9035,-415.2178"/>
<polygon fill="#9a32cd" stroke="#9a32cd" points="428.8582,-489.5662 420.1965,-495.6674 430.7725,-496.2994 428.8582,-489.5662"/>
<text text-anchor="start" x="633" y="-453" font-family="Helvetica,sans-Serif" font-size="10.00" fill="#000000"> free_atom_radial_grid</text>
<text text-anchor="middle" x="683.5" y="-442" font-family="Helvetica,sans-Serif" font-size="10.00" fill="#000000">_</text>
<text text-anchor="middle" x="683.5" y="-431" font-family="Helvetica,sans-Serif" font-size="10.00" fill="#000000">radial_grid_</text>
</g>
<!-- Node13&#45;&gt;Node12 -->
<g id="edge13" class="edge">
<title>Node13&#45;&gt;Node12</title>
<path fill="none" stroke="#9a32cd" stroke-dasharray="5,2" d="M430.5115,-503.8676C440.0321,-502.8926 449.789,-501.9072 459,-501 514.709,-495.5131 578.2307,-489.6035 623.4541,-485.4555"/>
<polygon fill="#9a32cd" stroke="#9a32cd" points="429.8996,-500.412 420.3104,-504.9172 430.6162,-507.3752 429.8996,-500.412"/>
<text text-anchor="middle" x="528" y="-504" font-family="Helvetica,sans-Serif" font-size="10.00" fill="#000000"> radial_grid_</text>
</g>
<!-- Node14&#45;&gt;Node5 -->
<g id="edge14" class="edge">
<title>Node14&#45;&gt;Node5</title>
<path fill="none" stroke="#9a32cd" stroke-dasharray="5,2" d="M752.6438,-663.9396C805.5339,-658.6759 872.7298,-648.5212 893,-630 914.8135,-610.0687 902.5431,-594.312 911,-566 926.5518,-513.9356 946.6786,-452.0086 954.3458,-428.5985"/>
<polygon fill="#9a32cd" stroke="#9a32cd" points="752.2343,-660.4627 742.6123,-664.8973 752.8997,-667.431 752.2343,-660.4627"/>
<text text-anchor="middle" x="831.5" y="-664" font-family="Helvetica,sans-Serif" font-size="10.00" fill="#000000"> p_mtrx_</text>
</g>
<!-- Node15&#45;&gt;Node5 -->
<g id="edge17" class="edge">
<title>Node15&#45;&gt;Node5</title>
<path fill="none" stroke="#9a32cd" stroke-dasharray="5,2" d="M751.1349,-575.9426C795.243,-575.7953 852.0155,-568.8883 893,-540 932.4986,-512.1591 949.9124,-452.3874 955.4299,-428.8315"/>
<polygon fill="#9a32cd" stroke="#9a32cd" points="751.0996,-572.4423 741.0715,-575.8611 751.0429,-579.442 751.0996,-572.4423"/>
<text text-anchor="middle" x="831.5" y="-578" font-family="Helvetica,sans-Serif" font-size="10.00" fill="#000000"> indexr_</text>
</g>
<!-- Node16&#45;&gt;Node15 -->
<g id="edge19" class="edge">
<title>Node16&#45;&gt;Node15</title>
<path fill="none" stroke="#9a32cd" stroke-dasharray="5,2" d="M408.7491,-607.3444C424.1139,-602.4928 442.2579,-597.3284 459,-594 515.1044,-582.8461 580.2347,-576.9337 625.8475,-573.9121"/>
<polygon fill="#9a32cd" stroke="#9a32cd" points="407.5348,-604.0586 399.0963,-610.4651 409.6881,-610.7192 407.5348,-604.0586"/>
<text text-anchor="middle" x="528" y="-597" font-family="Helvetica,sans-Serif" font-size="10.00" fill="#000000"> index_by_idxlo_</text>
</g>
<!-- Node16&#45;&gt;Node25 -->
<g id="edge32" class="edge">
<title>Node16&#45;&gt;Node25</title>
<path fill="none" stroke="#9a32cd" stroke-dasharray="5,2" d="M417.1885,-631.7977C430.554,-634.7619 445.2815,-637.5194 459,-639 519.9792,-645.5811 536.0247,-645.6178 597,-639 606.4771,-637.9714 616.4373,-636.3266 626.0909,-634.4244"/>
<polygon fill="#9a32cd" stroke="#9a32cd" points="417.8036,-628.3477 407.2726,-629.5084 416.2289,-635.1683 417.8036,-628.3477"/>
<text text-anchor="middle" x="528" y="-646" font-family="Helvetica,sans-Serif" font-size="10.00" fill="#000000"> index_by_idxrf_</text>
</g>
<!-- Node17 -->
<g id="node17" class="node">
<title>Node17</title>
<g id="a_node17"><a xlink:href="classsirius_1_1_simulation__parameters.html" target="_top" xlink:title="Set of basic parameters of a simulation. ">
<polygon fill="#ffffff" stroke="#000000" points="637.5,-352 637.5,-382 729.5,-382 729.5,-352 637.5,-352"/>
<text text-anchor="start" x="645.5" y="-370" font-family="Helvetica,sans-Serif" font-size="10.00" fill="#000000">sirius::Simulation</text>
<text text-anchor="middle" x="683.5" y="-359" font-family="Helvetica,sans-Serif" font-size="10.00" fill="#000000">_parameters</text>
</a>
</g>
</g>
<!-- Node17&#45;&gt;Node5 -->
<g id="edge21" class="edge">
<title>Node17&#45;&gt;Node5</title>
<path fill="none" stroke="#9a32cd" stroke-dasharray="5,2" d="M740.0408,-370.5702C782.6011,-374.149 842.1068,-381.0606 893,-394 908.0147,-397.8174 924.2754,-404.1356 936.7137,-409.465"/>
<polygon fill="#9a32cd" stroke="#9a32cd" points="740.1219,-367.0655 729.8732,-369.7514 739.5599,-374.0429 740.1219,-367.0655"/>
<text text-anchor="middle" x="831.5" y="-397" font-family="Helvetica,sans-Serif" font-size="10.00" fill="#000000"> parameters_</text>
</g>
<!-- Node18 -->
<g id="node18" class="node">
<title>Node18</title>
<g id="a_node18"><a xlink:href="structsirius_1_1_parameters__input.html" target="_top" xlink:title="sirius::Parameters\l_input">
<polygon fill="#ffffff" stroke="#000000" points="323.5,-407 323.5,-437 420.5,-437 420.5,-407 323.5,-407"/>
<text text-anchor="start" x="331.5" y="-425" font-family="Helvetica,sans-Serif" font-size="10.00" fill="#000000">sirius::Parameters</text>
<text text-anchor="middle" x="372" y="-414" font-family="Helvetica,sans-Serif" font-size="10.00" fill="#000000">_input</text>
</a>
</g>
</g>
<!-- Node18&#45;&gt;Node17 -->
<g id="edge22" class="edge">
<title>Node18&#45;&gt;Node17</title>
<path fill="none" stroke="#9a32cd" stroke-dasharray="5,2" d="M430.663,-412.4849C491.7962,-402.5479 580.9172,-387.9943 597,-385 610.1195,-382.5574 624.3121,-379.6961 637.3331,-376.9828"/>
<polygon fill="#9a32cd" stroke="#9a32cd" points="430.0399,-409.0401 420.7308,-414.0987 431.1627,-415.9495 430.0399,-409.0401"/>
<text text-anchor="middle" x="528" y="-411" font-family="Helvetica,sans-Serif" font-size="10.00" fill="#000000"> parameters_input_</text>
</g>
<!-- Node19 -->
<g id="node19" class="node">
<title>Node19</title>
<g id="a_node19"><a xlink:href="structsirius_1_1_control__input.html" target="_top" xlink:title="Parse control input section. ">
<polygon fill="#ffffff" stroke="#000000" points="319.5,-281.5 319.5,-300.5 424.5,-300.5 424.5,-281.5 319.5,-281.5"/>
<text text-anchor="middle" x="372" y="-288.5" font-family="Helvetica,sans-Serif" font-size="10.00" fill="#000000">sirius::Control_input</text>
</a>
</g>
</g>
<!-- Node19&#45;&gt;Node17 -->
<g id="edge23" class="edge">
<title>Node19&#45;&gt;Node17</title>
<path fill="none" stroke="#9a32cd" stroke-dasharray="5,2" d="M434.9557,-294.8964C480.7372,-299.006 543.7588,-307.3273 597,-324 618.6056,-330.7659 641.479,-342.3538 658.2747,-351.7965"/>
<polygon fill="#9a32cd" stroke="#9a32cd" points="435.1377,-291.3993 424.8759,-294.0345 434.5413,-298.3739 435.1377,-291.3993"/>
<text text-anchor="middle" x="528" y="-327" font-family="Helvetica,sans-Serif" font-size="10.00" fill="#000000"> control_input_</text>
</g>
<!-- Node20 -->
<g id="node20" class="node">
<title>Node20</title>
<g id="a_node20"><a xlink:href="structsirius_1_1_unit__cell__input.html" target="_top" xlink:title="Parse unit cell input section. ">
<polygon fill="#ffffff" stroke="#000000" points="316.5,-456.5 316.5,-475.5 427.5,-475.5 427.5,-456.5 316.5,-456.5"/>
<text text-anchor="middle" x="372" y="-463.5" font-family="Helvetica,sans-Serif" font-size="10.00" fill="#000000">sirius::Unit_cell_input</text>
</a>
</g>
</g>
<!-- Node20&#45;&gt;Node17 -->
<g id="edge24" class="edge">
<title>Node20&#45;&gt;Node17</title>
<path fill="none" stroke="#9a32cd" stroke-dasharray="5,2" d="M413.2406,-453.6777C427.6382,-449.6282 443.9578,-445.3189 459,-442 519.719,-428.6031 543.1981,-450.1709 597,-419 607.9314,-412.6668 604.9345,-404.6348 615,-397 622.6545,-391.194 631.6073,-386.2378 640.4684,-382.1254"/>
<polygon fill="#9a32cd" stroke="#9a32cd" points="412.2745,-450.3136 403.6195,-456.4244 414.1962,-457.0447 412.2745,-450.3136"/>
<text text-anchor="middle" x="528" y="-445" font-family="Helvetica,sans-Serif" font-size="10.00" fill="#000000"> unit_cell_input_</text>
</g>
<!-- Node21 -->
<g id="node21" class="node">
<title>Node21</title>
<g id="a_node21"><a xlink:href="classgeometry3d_1_1vector3d.html" target="_top" xlink:title="geometry3d::vector3d\l\&lt; double \&gt;">
<polygon fill="#ffffff" stroke="#000000" points="134,-683 134,-713 247,-713 247,-683 134,-683"/>
<text text-anchor="start" x="142" y="-701" font-family="Helvetica,sans-Serif" font-size="10.00" fill="#000000">geometry3d::vector3d</text>
<text text-anchor="middle" x="190.5" y="-690" font-family="Helvetica,sans-Serif" font-size="10.00" fill="#000000">&lt; double &gt;</text>
</a>
</g>
</g>
<!-- Node21&#45;&gt;Node2 -->
<g id="edge41" class="edge">
<title>Node21&#45;&gt;Node2</title>
<path fill="none" stroke="#9a32cd" stroke-dasharray="5,2" d="M222.4734,-718.7003C265.6154,-745.8296 340.6677,-790 372,-790 372,-790 372,-790 1192,-790 1275.5839,-790 1307.9273,-760.223 1350,-688 1386.1451,-625.9525 1399.5504,-389.6637 1402.0504,-338.7178"/>
<polygon fill="#9a32cd" stroke="#9a32cd" points="224.0994,-715.5872 213.7789,-713.1919 220.3531,-721.5004 224.0994,-715.5872"/>
<text text-anchor="middle" x="831.5" y="-804" font-family="Helvetica,sans-Serif" font-size="10.00" fill="#000000"> vector_field_</text>
<text text-anchor="middle" x="831.5" y="-793" font-family="Helvetica,sans-Serif" font-size="10.00" fill="#000000">position_</text>
</g>
<!-- Node21&#45;&gt;Node20 -->
<g id="edge25" class="edge">
<title>Node21&#45;&gt;Node20</title>
<path fill="none" stroke="#9a32cd" stroke-dasharray="5,2" d="M196.5872,-673.2508C208.8511,-628.6872 240.8233,-534.9502 303,-485 307.8432,-481.1092 313.4267,-478.0134 319.2765,-475.5505"/>
<polygon fill="#9a32cd" stroke="#9a32cd" points="193.1893,-672.4098 194.0122,-682.9727 199.956,-674.2021 193.1893,-672.4098"/>
<text text-anchor="middle" x="275" y="-548" font-family="Helvetica,sans-Serif" font-size="10.00" fill="#000000"> a2_</text>
<text text-anchor="middle" x="275" y="-537" font-family="Helvetica,sans-Serif" font-size="10.00" fill="#000000">a1_</text>
<text text-anchor="middle" x="275" y="-526" font-family="Helvetica,sans-Serif" font-size="10.00" fill="#000000">a0_</text>
</g>
<!-- Node22 -->
<g id="node22" class="node">
<title>Node22</title>
<polygon fill="#ffffff" stroke="#bfbfbf" points="0,-683 0,-713 97,-713 97,-683 0,-683"/>
<text text-anchor="start" x="8" y="-701" font-family="Helvetica,sans-Serif" font-size="10.00" fill="#000000">std::array&lt; double</text>
<text text-anchor="middle" x="48.5" y="-690" font-family="Helvetica,sans-Serif" font-size="10.00" fill="#000000"> , 3 &gt;</text>
</g>
<!-- Node22&#45;&gt;Node21 -->
<g id="edge26" class="edge">
<title>Node22&#45;&gt;Node21</title>
<path fill="none" stroke="#191970" d="M107.4305,-698C116.1271,-698 125.0725,-698 133.7242,-698"/>
<polygon fill="#191970" stroke="#191970" points="107.3684,-694.5001 97.3683,-698 107.3683,-701.5001 107.3684,-694.5001"/>
</g>
<!-- Node23 -->
<g id="node23" class="node">
<title>Node23</title>
<g id="a_node23"><a xlink:href="structsirius_1_1_iterative__solver__input.html" target="_top" xlink:title="sirius::Iterative_solver\l_input">
<polygon fill="#ffffff" stroke="#000000" points="315.5,-358 315.5,-388 428.5,-388 428.5,-358 315.5,-358"/>
<text text-anchor="start" x="323.5" y="-376" font-family="Helvetica,sans-Serif" font-size="10.00" fill="#000000">sirius::Iterative_solver</text>
<text text-anchor="middle" x="372" y="-365" font-family="Helvetica,sans-Serif" font-size="10.00" fill="#000000">_input</text>
</a>
</g>
</g>
<!-- Node23&#45;&gt;Node17 -->
<g id="edge27" class="edge">
<title>Node23&#45;&gt;Node17</title>
<path fill="none" stroke="#9a32cd" stroke-dasharray="5,2" d="M438.8762,-371.7119C498.6843,-370.5599 584.771,-368.9017 637.2627,-367.8906"/>
<polygon fill="#9a32cd" stroke="#9a32cd" points="438.7024,-368.2145 428.7717,-371.9065 438.8373,-375.2132 438.7024,-368.2145"/>
<text text-anchor="middle" x="528" y="-375" font-family="Helvetica,sans-Serif" font-size="10.00" fill="#000000"> iterative_solver_input_</text>
</g>
<!-- Node24 -->
<g id="node24" class="node">
<title>Node24</title>
<g id="a_node24"><a xlink:href="structsirius_1_1_mixer__input.html" target="_top" xlink:title="sirius::Mixer_input">
<polygon fill="#ffffff" stroke="#000000" points="323.5,-319.5 323.5,-338.5 420.5,-338.5 420.5,-319.5 323.5,-319.5"/>
<text text-anchor="middle" x="372" y="-326.5" font-family="Helvetica,sans-Serif" font-size="10.00" fill="#000000">sirius::Mixer_input</text>
</a>
</g>
</g>
<!-- Node24&#45;&gt;Node17 -->
<g id="edge28" class="edge">
<title>Node24&#45;&gt;Node17</title>
<path fill="none" stroke="#9a32cd" stroke-dasharray="5,2" d="M430.7564,-334.9027C476.1993,-339.6193 540.66,-346.6391 597,-354 610.1005,-355.7116 624.287,-357.7613 637.3082,-359.7215"/>
<polygon fill="#9a32cd" stroke="#9a32cd" points="431.0906,-331.4187 420.7839,-333.873 430.3715,-338.3817 431.0906,-331.4187"/>
<text text-anchor="middle" x="528" y="-357" font-family="Helvetica,sans-Serif" font-size="10.00" fill="#000000"> mixer_input_</text>
</g>
<!-- Node25&#45;&gt;Node5 -->
<g id="edge30" class="edge">
<title>Node25&#45;&gt;Node5</title>
<path fill="none" stroke="#9a32cd" stroke-dasharray="5,2" d="M750.63,-616.9852C803.4317,-613.319 871.5461,-605.3095 893,-588 919.3966,-566.7026 947.1674,-461.0311 955.2013,-428.5287"/>
<polygon fill="#9a32cd" stroke="#9a32cd" points="750.3777,-613.4942 740.6283,-617.6413 750.836,-620.4792 750.3777,-613.4942"/>
<text text-anchor="middle" x="831.5" y="-618" font-family="Helvetica,sans-Serif" font-size="10.00" fill="#000000"> indexb_</text>
</g>
<!-- Node26&#45;&gt;Node2 -->
<g id="edge33" class="edge">
<title>Node26&#45;&gt;Node2</title>
<path fill="none" stroke="#9a32cd" stroke-dasharray="5,2" d="M1261.1062,-204.5314C1290.8247,-209.7649 1324.5114,-219.8103 1350,-239 1378.0356,-260.1073 1393.7294,-300.909 1399.6867,-319.4343"/>
<polygon fill="#9a32cd" stroke="#9a32cd" points="1261.6269,-201.0702 1251.1974,-202.9347 1260.5133,-207.9811 1261.6269,-201.0702"/>
<text text-anchor="middle" x="1309.5" y="-242" font-family="Helvetica,sans-Serif" font-size="10.00" fill="#000000"> symmetry_class_</text>
</g>
<!-- Node27&#45;&gt;Node2 -->
<g id="edge39" class="edge">
<title>Node27&#45;&gt;Node2</title>
<path fill="none" stroke="#9a32cd" stroke-dasharray="5,2" d="M607.3628,-747.4267C668.5905,-749.0911 755.4012,-751 831.5,-751 831.5,-751 831.5,-751 1192,-751 1382.7635,-751 1400.6527,-401.4218 1402.3274,-338.6069"/>
<polygon fill="#9a32cd" stroke="#9a32cd" points="607.0932,-743.918 597.0004,-747.1407 606.9,-750.9154 607.0932,-743.918"/>
<text text-anchor="middle" x="957.5" y="-754" font-family="Helvetica,sans-Serif" font-size="10.00" fill="#000000"> b_radial_integrals_</text>
</g>
</g>
</svg>
