<?xml version="1.0" encoding="UTF-8" standalone="no"?>
<!DOCTYPE svg PUBLIC "-//W3C//DTD SVG 1.1//EN"
 "http://www.w3.org/Graphics/SVG/1.1/DTD/svg11.dtd">
<!-- Generated by graphviz version 2.40.1 (20161225.0304)
 -->
<!-- Title: nlohmann::detail::is_compatible_array_type&lt; BasicJsonType, CompatibleArrayType &gt; Pages: 1 -->
<svg width="488pt" height="61pt"
 viewBox="0.00 0.00 488.00 61.00" xmlns="http://www.w3.org/2000/svg" xmlns:xlink="http://www.w3.org/1999/xlink">
<g id="graph0" class="graph" transform="scale(1 1) rotate(0) translate(4 57)">
<title>nlohmann::detail::is_compatible_array_type&lt; BasicJsonType, CompatibleArrayType &gt;</title>
<polygon fill="#ffffff" stroke="transparent" points="-4,4 -4,-57 484,-57 484,4 -4,4"/>
<!-- Node0 -->
<g id="node1" class="node">
<title>Node0</title>
<polygon fill="#bfbfbf" stroke="#000000" points="307,-.5 307,-52.5 480,-52.5 480,-.5 307,-.5"/>
<text text-anchor="start" x="315" y="-40.5" font-family="Helvetica,sans-Serif" font-size="10.00" fill="#000000">nlohmann::detail::is</text>
<text text-anchor="start" x="315" y="-29.5" font-family="Helvetica,sans-Serif" font-size="10.00" fill="#000000">_compatible_array_type</text>
<text text-anchor="start" x="315" y="-18.5" font-family="Helvetica,sans-Serif" font-size="10.00" fill="#000000">&lt; BasicJsonType, CompatibleArray</text>
<text text-anchor="middle" x="393.5" y="-7.5" font-family="Helvetica,sans-Serif" font-size="10.00" fill="#000000">Type &gt;</text>
</g>
<!-- Node1 -->
<g id="node2" class="node">
<title>Node1</title>
<g id="a_node2"><a xlink:href="../../dc/d4b/structnlohmann_1_1detail_1_1is__compatible__array__type__impl.html" target="_top" xlink:title="nlohmann::detail::is\l_compatible_array_type\l_impl\&lt; BasicJsonType, Compatible\lArrayType \&gt;">
<polygon fill="#ffffff" stroke="#000000" points="98,-.5 98,-52.5 271,-52.5 271,-.5 98,-.5"/>
<text text-anchor="start" x="106" y="-40.5" font-family="Helvetica,sans-Serif" font-size="10.00" fill="#000000">nlohmann::detail::is</text>
<text text-anchor="start" x="106" y="-29.5" font-family="Helvetica,sans-Serif" font-size="10.00" fill="#000000">_compatible_array_type</text>
<text text-anchor="start" x="106" y="-18.5" font-family="Helvetica,sans-Serif" font-size="10.00" fill="#000000">_impl&lt; BasicJsonType, Compatible</text>
<text text-anchor="middle" x="184.5" y="-7.5" font-family="Helvetica,sans-Serif" font-size="10.00" fill="#000000">ArrayType &gt;</text>
</a>
</g>
</g>
<!-- Node1&#45;&gt;Node0 -->
<g id="edge1" class="edge">
<title>Node1&#45;&gt;Node0</title>
<path fill="none" stroke="#191970" d="M281.0268,-26.5C289.5937,-26.5 298.2324,-26.5 306.711,-26.5"/>
<polygon fill="#191970" stroke="#191970" points="281.017,-23.0001 271.017,-26.5 281.0169,-30.0001 281.017,-23.0001"/>
</g>
<!-- Node2 -->
<g id="node3" class="node">
<title>Node2</title>
<polygon fill="#ffffff" stroke="#bfbfbf" points="0,-17 0,-36 62,-36 62,-17 0,-17"/>
<text text-anchor="middle" x="31" y="-24" font-family="Helvetica,sans-Serif" font-size="10.00" fill="#000000">false_type</text>
</g>
<!-- Node2&#45;&gt;Node1 -->
<g id="edge2" class="edge">
<title>Node2&#45;&gt;Node1</title>
<path fill="none" stroke="#191970" d="M72.2201,-26.5C80.271,-26.5 88.9912,-26.5 97.8913,-26.5"/>
<polygon fill="#191970" stroke="#191970" points="72.063,-23.0001 62.063,-26.5 72.063,-30.0001 72.063,-23.0001"/>
</g>
</g>
</svg>
