<?xml version="1.0" encoding="UTF-8" standalone="no"?>
<!DOCTYPE svg PUBLIC "-//W3C//DTD SVG 1.1//EN"
 "http://www.w3.org/Graphics/SVG/1.1/DTD/svg11.dtd">
<!-- Generated by graphviz version 2.40.1 (20161225.0304)
 -->
<!-- Title: input.hpp Pages: 1 -->
<svg width="2411pt" height="140pt"
 viewBox="0.00 0.00 2410.50 140.00" xmlns="http://www.w3.org/2000/svg" xmlns:xlink="http://www.w3.org/1999/xlink">
<g id="graph0" class="graph" transform="scale(1 1) rotate(0) translate(4 136)">
<title>input.hpp</title>
<polygon fill="#ffffff" stroke="transparent" points="-4,4 -4,-136 2406.5,-136 2406.5,4 -4,4"/>
<!-- Node1 -->
<g id="node1" class="node">
<title>Node1</title>
<g id="a_node1"><a xlink:title="Contains input parameters structures.">
<polygon fill="#bfbfbf" stroke="#000000" points="1141,-112.5 1141,-131.5 1199,-131.5 1199,-112.5 1141,-112.5"/>
<text text-anchor="middle" x="1170" y="-119.5" font-family="Helvetica,sans-Serif" font-size="10.00" fill="#000000">input.hpp</text>
</a>
</g>
</g>
<!-- Node2 -->
<g id="node2" class="node">
<title>Node2</title>
<g id="a_node2"><a xlink:title=" ">
<polygon fill="#ffffff" stroke="#bfbfbf" points="14.5,-56.5 14.5,-75.5 43.5,-75.5 43.5,-56.5 14.5,-56.5"/>
<text text-anchor="middle" x="29" y="-63.5" font-family="Helvetica,sans-Serif" font-size="10.00" fill="#000000">list</text>
</a>
</g>
</g>
<!-- Node1&#45;&gt;Node2 -->
<g id="edge1" class="edge">
<title>Node1&#45;&gt;Node2</title>
<path fill="none" stroke="#191970" d="M1140.8462,-121.4409C979.86,-118.2705 201.7706,-101.8405 54.0617,-75.4669"/>
<polygon fill="#191970" stroke="#191970" points="54.3198,-71.9479 43.823,-73.3855 52.9252,-78.8076 54.3198,-71.9479"/>
</g>
<!-- Node3 -->
<g id="node3" class="node">
<title>Node3</title>
<g id="a_node3"><a xlink:href="../../d3/dad/constants_8hpp.html" target="_top" xlink:title="Various constants.">
<polygon fill="#ffffff" stroke="#000000" points="61.5,-56.5 61.5,-75.5 140.5,-75.5 140.5,-56.5 61.5,-56.5"/>
<text text-anchor="middle" x="101" y="-63.5" font-family="Helvetica,sans-Serif" font-size="10.00" fill="#000000">constants.hpp</text>
</a>
</g>
</g>
<!-- Node1&#45;&gt;Node3 -->
<g id="edge2" class="edge">
<title>Node1&#45;&gt;Node3</title>
<path fill="none" stroke="#191970" d="M1140.5782,-121.2151C995.2929,-117.2557 353.4674,-98.764 155,-76 153.6946,-75.8503 152.3733,-75.6877 151.0415,-75.5141"/>
<polygon fill="#191970" stroke="#191970" points="151.1209,-71.9882 140.7182,-73.9969 150.103,-78.9138 151.1209,-71.9882"/>
</g>
<!-- Node5 -->
<g id="node5" class="node">
<title>Node5</title>
<g id="a_node5"><a xlink:href="../../d6/d99/geometry3d_8hpp.html" target="_top" xlink:title="Simple classes and functions to work with the 3D vectors and matrices of the crystal lattice.">
<polygon fill="#ffffff" stroke="#000000" points="273.5,-56.5 273.5,-75.5 392.5,-75.5 392.5,-56.5 273.5,-56.5"/>
<text text-anchor="middle" x="333" y="-63.5" font-family="Helvetica,sans-Serif" font-size="10.00" fill="#000000">SDDK/geometry3d.hpp</text>
</a>
</g>
</g>
<!-- Node1&#45;&gt;Node5 -->
<g id="edge4" class="edge">
<title>Node1&#45;&gt;Node5</title>
<path fill="none" stroke="#191970" d="M1140.8327,-121.0207C1039.3434,-117.4473 692.2896,-103.8375 407,-76 405.6936,-75.8725 404.3748,-75.7395 403.0466,-75.6015"/>
<polygon fill="#191970" stroke="#191970" points="403.0549,-72.0811 392.7301,-74.4582 402.2837,-79.0385 403.0549,-72.0811"/>
</g>
<!-- Node7 -->
<g id="node7" class="node">
<title>Node7</title>
<g id="a_node7"><a xlink:title=" ">
<polygon fill="#ffffff" stroke="#bfbfbf" points="72,-.5 72,-19.5 116,-19.5 116,-.5 72,-.5"/>
<text text-anchor="middle" x="94" y="-7.5" font-family="Helvetica,sans-Serif" font-size="10.00" fill="#000000">cmath</text>
</a>
</g>
</g>
<!-- Node1&#45;&gt;Node7 -->
<g id="edge40" class="edge">
<title>Node1&#45;&gt;Node7</title>
<path fill="none" stroke="#191970" d="M1140.9869,-121.5038C989.2862,-118.7918 290.7782,-104.8184 199,-76 165.8955,-65.6052 132.8611,-42.1435 112.9269,-26.1854"/>
<polygon fill="#191970" stroke="#191970" points="114.9297,-23.3012 104.9801,-19.6604 110.4877,-28.7112 114.9297,-23.3012"/>
</g>
<!-- Node8 -->
<g id="node8" class="node">
<title>Node8</title>
<g id="a_node8"><a xlink:title=" ">
<polygon fill="#ffffff" stroke="#bfbfbf" points="134.5,-.5 134.5,-19.5 173.5,-19.5 173.5,-.5 134.5,-.5"/>
<text text-anchor="middle" x="154" y="-7.5" font-family="Helvetica,sans-Serif" font-size="10.00" fill="#000000">array</text>
</a>
</g>
</g>
<!-- Node1&#45;&gt;Node8 -->
<g id="edge28" class="edge">
<title>Node1&#45;&gt;Node8</title>
<path fill="none" stroke="#191970" d="M1140.6382,-121.6089C991.7832,-119.4849 324.214,-108.2194 238,-76 210.779,-65.8271 185.4118,-43.3823 169.8267,-27.4988"/>
<polygon fill="#191970" stroke="#191970" points="172.0316,-24.7374 162.6104,-19.8906 166.9527,-29.5547 172.0316,-24.7374"/>
</g>
<!-- Node9 -->
<g id="node9" class="node">
<title>Node9</title>
<g id="a_node9"><a xlink:title=" ">
<polygon fill="#ffffff" stroke="#bfbfbf" points="192,-.5 192,-19.5 236,-19.5 236,-.5 192,-.5"/>
<text text-anchor="middle" x="214" y="-7.5" font-family="Helvetica,sans-Serif" font-size="10.00" fill="#000000">vector</text>
</a>
</g>
</g>
<!-- Node1&#45;&gt;Node9 -->
<g id="edge27" class="edge">
<title>Node1&#45;&gt;Node9</title>
<path fill="none" stroke="#191970" d="M1140.7845,-121.2091C989.8228,-117.0352 303.6324,-96.9665 264,-76 244.8209,-65.8538 230.8764,-44.7286 222.6611,-29.0979"/>
<polygon fill="#191970" stroke="#191970" points="225.6407,-27.2249 218.0923,-19.7903 219.3569,-30.3094 225.6407,-27.2249"/>
</g>
<!-- Node10 -->
<g id="node10" class="node">
<title>Node10</title>
<g id="a_node10"><a xlink:title=" ">
<polygon fill="#ffffff" stroke="#bfbfbf" points="394.5,-.5 394.5,-19.5 447.5,-19.5 447.5,-.5 394.5,-.5"/>
<text text-anchor="middle" x="421" y="-7.5" font-family="Helvetica,sans-Serif" font-size="10.00" fill="#000000">ostream</text>
</a>
</g>
</g>
<!-- Node1&#45;&gt;Node10 -->
<g id="edge47" class="edge">
<title>Node1&#45;&gt;Node10</title>
<path fill="none" stroke="#191970" d="M1140.8803,-120.9453C1020.9536,-116.4699 568.7627,-98.2557 509,-76 480.7011,-65.4615 453.7872,-42.7612 437.3441,-26.9439"/>
<polygon fill="#191970" stroke="#191970" points="439.7189,-24.3698 430.1529,-19.8154 434.7909,-29.3412 439.7189,-24.3698"/>
</g>
<!-- Node11 -->
<g id="node11" class="node">
<title>Node11</title>
<g id="a_node11"><a xlink:title=" ">
<polygon fill="#ffffff" stroke="#bfbfbf" points="466,-.5 466,-19.5 512,-19.5 512,-.5 466,-.5"/>
<text text-anchor="middle" x="489" y="-7.5" font-family="Helvetica,sans-Serif" font-size="10.00" fill="#000000">cstring</text>
</a>
</g>
</g>
<!-- Node1&#45;&gt;Node11 -->
<g id="edge42" class="edge">
<title>Node1&#45;&gt;Node11</title>
<path fill="none" stroke="#191970" d="M1140.9584,-121.3759C1023.4625,-118.6525 587.07,-106.5474 534,-76 515.8583,-65.5575 503.466,-44.4854 496.35,-28.9482"/>
<polygon fill="#191970" stroke="#191970" points="499.5561,-27.5434 492.4283,-19.7046 493.112,-30.2774 499.5561,-27.5434"/>
</g>
<!-- Node12 -->
<g id="node12" class="node">
<title>Node12</title>
<g id="a_node12"><a xlink:title=" ">
<polygon fill="#ffffff" stroke="#bfbfbf" points="530.5,-.5 530.5,-19.5 603.5,-19.5 603.5,-.5 530.5,-.5"/>
<text text-anchor="middle" x="567" y="-7.5" font-family="Helvetica,sans-Serif" font-size="10.00" fill="#000000">initializer_list</text>
</a>
</g>
</g>
<!-- Node1&#45;&gt;Node12 -->
<g id="edge20" class="edge">
<title>Node1&#45;&gt;Node12</title>
<path fill="none" stroke="#191970" d="M1140.896,-120.9536C1020.2286,-116.477 564.5846,-98.1527 544,-76 531.6878,-62.7499 541.5118,-42.5532 551.8677,-27.992"/>
<polygon fill="#191970" stroke="#191970" points="554.8712,-29.8276 558.1912,-19.7664 549.3216,-25.5613 554.8712,-29.8276"/>
</g>
<!-- Node13 -->
<g id="node13" class="node">
<title>Node13</title>
<g id="a_node13"><a xlink:title=" ">
<polygon fill="#ffffff" stroke="#bfbfbf" points="621.5,-.5 621.5,-19.5 680.5,-19.5 680.5,-.5 621.5,-.5"/>
<text text-anchor="middle" x="651" y="-7.5" font-family="Helvetica,sans-Serif" font-size="10.00" fill="#000000">stdexcept</text>
</a>
</g>
</g>
<!-- Node1&#45;&gt;Node13 -->
<g id="edge36" class="edge">
<title>Node1&#45;&gt;Node13</title>
<path fill="none" stroke="#191970" d="M1140.6008,-120.9028C1020.8429,-116.2938 575.1651,-97.7297 555,-76 532.9299,-52.2174 576.2156,-32.3246 611.6153,-20.7853"/>
<polygon fill="#191970" stroke="#191970" points="612.8252,-24.0743 621.3298,-17.7559 610.7412,-17.3917 612.8252,-24.0743"/>
</g>
<!-- Node15 -->
<g id="node15" class="node">
<title>Node15</title>
<g id="a_node15"><a xlink:title=" ">
<polygon fill="#ffffff" stroke="#bfbfbf" points="563.5,-56.5 563.5,-75.5 638.5,-75.5 638.5,-56.5 563.5,-56.5"/>
<text text-anchor="middle" x="601" y="-63.5" font-family="Helvetica,sans-Serif" font-size="10.00" fill="#000000">utils/json.hpp</text>
</a>
</g>
</g>
<!-- Node1&#45;&gt;Node15 -->
<g id="edge14" class="edge">
<title>Node1&#45;&gt;Node15</title>
<path fill="none" stroke="#191970" d="M1140.9939,-120.6853C1063.0404,-116.8893 842.406,-104.4166 648.7143,-75.9297"/>
<polygon fill="#191970" stroke="#191970" points="649.043,-72.4401 638.6365,-74.4293 648.012,-79.3638 649.043,-72.4401"/>
</g>
<!-- Node16 -->
<g id="node16" class="node">
<title>Node16</title>
<g id="a_node16"><a xlink:title=" ">
<polygon fill="#ffffff" stroke="#bfbfbf" points="657,-56.5 657,-75.5 715,-75.5 715,-56.5 657,-56.5"/>
<text text-anchor="middle" x="686" y="-63.5" font-family="Helvetica,sans-Serif" font-size="10.00" fill="#000000">algorithm</text>
</a>
</g>
</g>
<!-- Node1&#45;&gt;Node16 -->
<g id="edge15" class="edge">
<title>Node1&#45;&gt;Node16</title>
<path fill="none" stroke="#191970" d="M1140.8978,-120.4862C1071.0084,-116.534 888.1035,-104.3118 725.4726,-75.8158"/>
<polygon fill="#191970" stroke="#191970" points="725.7437,-72.3092 715.2854,-74.0045 724.5182,-79.2011 725.7437,-72.3092"/>
</g>
<!-- Node17 -->
<g id="node17" class="node">
<title>Node17</title>
<g id="a_node17"><a xlink:title=" ">
<polygon fill="#ffffff" stroke="#bfbfbf" points="733.5,-56.5 733.5,-75.5 782.5,-75.5 782.5,-56.5 733.5,-56.5"/>
<text text-anchor="middle" x="758" y="-63.5" font-family="Helvetica,sans-Serif" font-size="10.00" fill="#000000">cassert</text>
</a>
</g>
</g>
<!-- Node1&#45;&gt;Node17 -->
<g id="edge16" class="edge">
<title>Node1&#45;&gt;Node17</title>
<path fill="none" stroke="#191970" d="M1140.8077,-120.0958C1078.5552,-115.6849 928.1023,-103.1621 792.8842,-75.873"/>
<polygon fill="#191970" stroke="#191970" points="793.2624,-72.3777 782.763,-73.7964 791.8554,-79.2349 793.2624,-72.3777"/>
</g>
<!-- Node18 -->
<g id="node18" class="node">
<title>Node18</title>
<g id="a_node18"><a xlink:title=" ">
<polygon fill="#ffffff" stroke="#bfbfbf" points="800.5,-56.5 800.5,-75.5 851.5,-75.5 851.5,-56.5 800.5,-56.5"/>
<text text-anchor="middle" x="826" y="-63.5" font-family="Helvetica,sans-Serif" font-size="10.00" fill="#000000">ciso646</text>
</a>
</g>
</g>
<!-- Node1&#45;&gt;Node18 -->
<g id="edge17" class="edge">
<title>Node1&#45;&gt;Node18</title>
<path fill="none" stroke="#191970" d="M1140.8027,-118.9408C1087.3172,-113.0612 969.9251,-98.8811 861.3239,-75.8192"/>
<polygon fill="#191970" stroke="#191970" points="862.0296,-72.391 851.5168,-73.7068 860.5556,-79.2341 862.0296,-72.391"/>
</g>
<!-- Node19 -->
<g id="node19" class="node">
<title>Node19</title>
<g id="a_node19"><a xlink:title=" ">
<polygon fill="#ffffff" stroke="#bfbfbf" points="869.5,-56.5 869.5,-75.5 918.5,-75.5 918.5,-56.5 869.5,-56.5"/>
<text text-anchor="middle" x="894" y="-63.5" font-family="Helvetica,sans-Serif" font-size="10.00" fill="#000000">cstddef</text>
</a>
</g>
</g>
<!-- Node1&#45;&gt;Node19 -->
<g id="edge18" class="edge">
<title>Node1&#45;&gt;Node19</title>
<path fill="none" stroke="#191970" d="M1140.7466,-117.3933C1096.7896,-110.2654 1010.9393,-95.5482 928.5712,-75.9522"/>
<polygon fill="#191970" stroke="#191970" points="929.3479,-72.5393 918.8065,-73.6018 927.7097,-79.3449 929.3479,-72.5393"/>
</g>
<!-- Node20 -->
<g id="node20" class="node">
<title>Node20</title>
<g id="a_node20"><a xlink:title=" ">
<polygon fill="#ffffff" stroke="#bfbfbf" points="936.5,-56.5 936.5,-75.5 995.5,-75.5 995.5,-56.5 936.5,-56.5"/>
<text text-anchor="middle" x="966" y="-63.5" font-family="Helvetica,sans-Serif" font-size="10.00" fill="#000000">functional</text>
</a>
</g>
</g>
<!-- Node1&#45;&gt;Node20 -->
<g id="edge19" class="edge">
<title>Node1&#45;&gt;Node20</title>
<path fill="none" stroke="#191970" d="M1140.7718,-113.9766C1105.1982,-104.2113 1044.9835,-87.6817 1005.3558,-76.8036"/>
<polygon fill="#191970" stroke="#191970" points="1006.0748,-73.3715 995.505,-74.0994 1004.2217,-80.1218 1006.0748,-73.3715"/>
</g>
<!-- Node21 -->
<g id="node21" class="node">
<title>Node21</title>
<g id="a_node21"><a xlink:title=" ">
<polygon fill="#ffffff" stroke="#bfbfbf" points="1013.5,-56.5 1013.5,-75.5 1058.5,-75.5 1058.5,-56.5 1013.5,-56.5"/>
<text text-anchor="middle" x="1036" y="-63.5" font-family="Helvetica,sans-Serif" font-size="10.00" fill="#000000">iosfwd</text>
</a>
</g>
</g>
<!-- Node1&#45;&gt;Node21 -->
<g id="edge21" class="edge">
<title>Node1&#45;&gt;Node21</title>
<path fill="none" stroke="#191970" d="M1146.9646,-112.3733C1125.2612,-103.3032 1092.5382,-89.6279 1068.245,-79.4755"/>
<polygon fill="#191970" stroke="#191970" points="1069.3111,-76.1278 1058.7348,-75.5011 1066.6119,-82.5865 1069.3111,-76.1278"/>
</g>
<!-- Node22 -->
<g id="node22" class="node">
<title>Node22</title>
<g id="a_node22"><a xlink:title=" ">
<polygon fill="#ffffff" stroke="#bfbfbf" points="1077,-56.5 1077,-75.5 1125,-75.5 1125,-56.5 1077,-56.5"/>
<text text-anchor="middle" x="1101" y="-63.5" font-family="Helvetica,sans-Serif" font-size="10.00" fill="#000000">iterator</text>
</a>
</g>
</g>
<!-- Node1&#45;&gt;Node22 -->
<g id="edge22" class="edge">
<title>Node1&#45;&gt;Node22</title>
<path fill="none" stroke="#191970" d="M1157.9811,-112.2455C1147.7902,-103.9746 1132.9638,-91.9416 1120.9893,-82.2232"/>
<polygon fill="#191970" stroke="#191970" points="1122.8514,-79.2268 1112.8812,-75.6427 1118.4402,-84.662 1122.8514,-79.2268"/>
</g>
<!-- Node23 -->
<g id="node23" class="node">
<title>Node23</title>
<g id="a_node23"><a xlink:title=" ">
<polygon fill="#ffffff" stroke="#bfbfbf" points="1143.5,-56.5 1143.5,-75.5 1196.5,-75.5 1196.5,-56.5 1143.5,-56.5"/>
<text text-anchor="middle" x="1170" y="-63.5" font-family="Helvetica,sans-Serif" font-size="10.00" fill="#000000">memory</text>
</a>
</g>
</g>
<!-- Node1&#45;&gt;Node23 -->
<g id="edge23" class="edge">
<title>Node1&#45;&gt;Node23</title>
<path fill="none" stroke="#191970" d="M1170,-112.2455C1170,-104.9382 1170,-94.6944 1170,-85.7046"/>
<polygon fill="#191970" stroke="#191970" points="1173.5001,-85.6426 1170,-75.6427 1166.5001,-85.6427 1173.5001,-85.6426"/>
</g>
<!-- Node24 -->
<g id="node24" class="node">
<title>Node24</title>
<g id="a_node24"><a xlink:title=" ">
<polygon fill="#ffffff" stroke="#bfbfbf" points="1215,-56.5 1215,-75.5 1267,-75.5 1267,-56.5 1215,-56.5"/>
<text text-anchor="middle" x="1241" y="-63.5" font-family="Helvetica,sans-Serif" font-size="10.00" fill="#000000">numeric</text>
</a>
</g>
</g>
<!-- Node1&#45;&gt;Node24 -->
<g id="edge24" class="edge">
<title>Node1&#45;&gt;Node24</title>
<path fill="none" stroke="#191970" d="M1182.3673,-112.2455C1192.9554,-103.8943 1208.4064,-91.7076 1220.7893,-81.9408"/>
<polygon fill="#191970" stroke="#191970" points="1223.0903,-84.5837 1228.7745,-75.6427 1218.7553,-79.0875 1223.0903,-84.5837"/>
</g>
<!-- Node25 -->
<g id="node25" class="node">
<title>Node25</title>
<g id="a_node25"><a xlink:title=" ">
<polygon fill="#ffffff" stroke="#bfbfbf" points="1285.5,-56.5 1285.5,-75.5 1326.5,-75.5 1326.5,-56.5 1285.5,-56.5"/>
<text text-anchor="middle" x="1306" y="-63.5" font-family="Helvetica,sans-Serif" font-size="10.00" fill="#000000">string</text>
</a>
</g>
</g>
<!-- Node1&#45;&gt;Node25 -->
<g id="edge25" class="edge">
<title>Node1&#45;&gt;Node25</title>
<path fill="none" stroke="#191970" d="M1193.3792,-112.3733C1216.1749,-102.9868 1250.9486,-88.6682 1275.8217,-78.4263"/>
<polygon fill="#191970" stroke="#191970" points="1277.2383,-81.6282 1285.1525,-74.5843 1274.573,-75.1555 1277.2383,-81.6282"/>
</g>
<!-- Node26 -->
<g id="node26" class="node">
<title>Node26</title>
<g id="a_node26"><a xlink:title=" ">
<polygon fill="#ffffff" stroke="#bfbfbf" points="1344.5,-56.5 1344.5,-75.5 1383.5,-75.5 1383.5,-56.5 1344.5,-56.5"/>
<text text-anchor="middle" x="1364" y="-63.5" font-family="Helvetica,sans-Serif" font-size="10.00" fill="#000000">utility</text>
</a>
</g>
</g>
<!-- Node1&#45;&gt;Node26 -->
<g id="edge26" class="edge">
<title>Node1&#45;&gt;Node26</title>
<path fill="none" stroke="#191970" d="M1199.2759,-114.5759C1230.6372,-106.4733 1282.0526,-92.7606 1334.6492,-76.2839"/>
<polygon fill="#191970" stroke="#191970" points="1335.9996,-79.5278 1344.4793,-73.1759 1333.8894,-72.8534 1335.9996,-79.5278"/>
</g>
<!-- Node27 -->
<g id="node27" class="node">
<title>Node27</title>
<g id="a_node27"><a xlink:title=" ">
<polygon fill="#ffffff" stroke="#bfbfbf" points="1402,-56.5 1402,-75.5 1470,-75.5 1470,-56.5 1402,-56.5"/>
<text text-anchor="middle" x="1436" y="-63.5" font-family="Helvetica,sans-Serif" font-size="10.00" fill="#000000">forward_list</text>
</a>
</g>
</g>
<!-- Node1&#45;&gt;Node27 -->
<g id="edge29" class="edge">
<title>Node1&#45;&gt;Node27</title>
<path fill="none" stroke="#191970" d="M1199.2716,-116.2052C1240.1076,-108.0683 1316.738,-92.6081 1391.6707,-76.2543"/>
<polygon fill="#191970" stroke="#191970" points="1392.7304,-79.6052 1401.75,-74.0467 1391.2327,-72.7673 1392.7304,-79.6052"/>
</g>
<!-- Node28 -->
<g id="node28" class="node">
<title>Node28</title>
<g id="a_node28"><a xlink:title=" ">
<polygon fill="#ffffff" stroke="#bfbfbf" points="1488,-56.5 1488,-75.5 1524,-75.5 1524,-56.5 1488,-56.5"/>
<text text-anchor="middle" x="1506" y="-63.5" font-family="Helvetica,sans-Serif" font-size="10.00" fill="#000000">map</text>
</a>
</g>
</g>
<!-- Node1&#45;&gt;Node28 -->
<g id="edge30" class="edge">
<title>Node1&#45;&gt;Node28</title>
<path fill="none" stroke="#191970" d="M1199.3689,-119.6667C1253.078,-114.9662 1370.7264,-102.6644 1477.862,-75.8521"/>
<polygon fill="#191970" stroke="#191970" points="1479.0398,-79.1637 1487.8629,-73.2983 1477.3078,-72.3814 1479.0398,-79.1637"/>
</g>
<!-- Node29 -->
<g id="node29" class="node">
<title>Node29</title>
<g id="a_node29"><a xlink:title=" ">
<polygon fill="#ffffff" stroke="#bfbfbf" points="1542,-56.5 1542,-75.5 1580,-75.5 1580,-56.5 1542,-56.5"/>
<text text-anchor="middle" x="1561" y="-63.5" font-family="Helvetica,sans-Serif" font-size="10.00" fill="#000000">tuple</text>
</a>
</g>
</g>
<!-- Node1&#45;&gt;Node29 -->
<g id="edge31" class="edge">
<title>Node1&#45;&gt;Node29</title>
<path fill="none" stroke="#191970" d="M1199.0871,-120.4591C1259.6002,-116.7994 1403.423,-105.7377 1531.8796,-75.8209"/>
<polygon fill="#191970" stroke="#191970" points="1532.9658,-79.1603 1541.8862,-73.4441 1531.3481,-72.3498 1532.9658,-79.1603"/>
</g>
<!-- Node30 -->
<g id="node30" class="node">
<title>Node30</title>
<g id="a_node30"><a xlink:title=" ">
<polygon fill="#ffffff" stroke="#bfbfbf" points="1598.5,-56.5 1598.5,-75.5 1661.5,-75.5 1661.5,-56.5 1598.5,-56.5"/>
<text text-anchor="middle" x="1630" y="-63.5" font-family="Helvetica,sans-Serif" font-size="10.00" fill="#000000">type_traits</text>
</a>
</g>
</g>
<!-- Node1&#45;&gt;Node30 -->
<g id="edge32" class="edge">
<title>Node1&#45;&gt;Node30</title>
<path fill="none" stroke="#191970" d="M1199.139,-120.1099C1266.1082,-115.4878 1436.2548,-102.1599 1588.3135,-75.9099"/>
<polygon fill="#191970" stroke="#191970" points="1589.0548,-79.3335 1598.3019,-74.1622 1587.8483,-72.4382 1589.0548,-79.3335"/>
</g>
<!-- Node31 -->
<g id="node31" class="node">
<title>Node31</title>
<g id="a_node31"><a xlink:title=" ">
<polygon fill="#ffffff" stroke="#bfbfbf" points="1679.5,-56.5 1679.5,-75.5 1766.5,-75.5 1766.5,-56.5 1679.5,-56.5"/>
<text text-anchor="middle" x="1723" y="-63.5" font-family="Helvetica,sans-Serif" font-size="10.00" fill="#000000">unordered_map</text>
</a>
</g>
</g>
<!-- Node1&#45;&gt;Node31 -->
<g id="edge33" class="edge">
<title>Node1&#45;&gt;Node31</title>
<path fill="none" stroke="#191970" d="M1199.2001,-120.3273C1275.0812,-115.7666 1484.868,-101.794 1669.2112,-76.1431"/>
<polygon fill="#191970" stroke="#191970" points="1669.9446,-79.5745 1679.3595,-74.7154 1668.9694,-72.6428 1669.9446,-79.5745"/>
</g>
<!-- Node32 -->
<g id="node32" class="node">
<title>Node32</title>
<g id="a_node32"><a xlink:title=" ">
<polygon fill="#ffffff" stroke="#bfbfbf" points="1785,-56.5 1785,-75.5 1837,-75.5 1837,-56.5 1785,-56.5"/>
<text text-anchor="middle" x="1811" y="-63.5" font-family="Helvetica,sans-Serif" font-size="10.00" fill="#000000">valarray</text>
</a>
</g>
</g>
<!-- Node1&#45;&gt;Node32 -->
<g id="edge34" class="edge">
<title>Node1&#45;&gt;Node32</title>
<path fill="none" stroke="#191970" d="M1199.3319,-120.5628C1301.8187,-115.4216 1644.3232,-97.2035 1774.6485,-75.855"/>
<polygon fill="#191970" stroke="#191970" points="1775.4997,-79.2601 1784.7608,-74.1139 1774.3119,-72.3616 1775.4997,-79.2601"/>
</g>
<!-- Node33 -->
<g id="node33" class="node">
<title>Node33</title>
<g id="a_node33"><a xlink:title=" ">
<polygon fill="#ffffff" stroke="#bfbfbf" points="1855.5,-56.5 1855.5,-75.5 1914.5,-75.5 1914.5,-56.5 1855.5,-56.5"/>
<text text-anchor="middle" x="1885" y="-63.5" font-family="Helvetica,sans-Serif" font-size="10.00" fill="#000000">exception</text>
</a>
</g>
</g>
<!-- Node1&#45;&gt;Node33 -->
<g id="edge35" class="edge">
<title>Node1&#45;&gt;Node33</title>
<path fill="none" stroke="#191970" d="M1199.1487,-120.7288C1309.1125,-115.8253 1699.4916,-97.4158 1845.2434,-75.7742"/>
<polygon fill="#191970" stroke="#191970" points="1845.9634,-79.2044 1855.3075,-74.2105 1844.8887,-72.2874 1845.9634,-79.2044"/>
</g>
<!-- Node34 -->
<g id="node34" class="node">
<title>Node34</title>
<g id="a_node34"><a xlink:title=" ">
<polygon fill="#ffffff" stroke="#bfbfbf" points="1932.5,-56.5 1932.5,-75.5 1977.5,-75.5 1977.5,-56.5 1932.5,-56.5"/>
<text text-anchor="middle" x="1955" y="-63.5" font-family="Helvetica,sans-Serif" font-size="10.00" fill="#000000">cstdlib</text>
</a>
</g>
</g>
<!-- Node1&#45;&gt;Node34 -->
<g id="edge37" class="edge">
<title>Node1&#45;&gt;Node34</title>
<path fill="none" stroke="#191970" d="M1199.2046,-121.1979C1317.4285,-117.8032 1761.4575,-103.5893 1922.3044,-75.834"/>
<polygon fill="#191970" stroke="#191970" points="1923.2691,-79.2162 1932.4831,-73.9862 1922.0188,-72.3288 1923.2691,-79.2162"/>
</g>
<!-- Node35 -->
<g id="node35" class="node">
<title>Node35</title>
<g id="a_node35"><a xlink:title=" ">
<polygon fill="#ffffff" stroke="#bfbfbf" points="1995.5,-56.5 1995.5,-75.5 2034.5,-75.5 2034.5,-56.5 1995.5,-56.5"/>
<text text-anchor="middle" x="2015" y="-63.5" font-family="Helvetica,sans-Serif" font-size="10.00" fill="#000000">limits</text>
</a>
</g>
</g>
<!-- Node1&#45;&gt;Node35 -->
<g id="edge38" class="edge">
<title>Node1&#45;&gt;Node35</title>
<path fill="none" stroke="#191970" d="M1199.0606,-121.4782C1323.4205,-119.0774 1811.9613,-107.897 1985.3346,-75.7656"/>
<polygon fill="#191970" stroke="#191970" points="1986.1693,-79.1689 1995.315,-73.8204 1984.8301,-72.2982 1986.1693,-79.1689"/>
</g>
<!-- Node36 -->
<g id="node36" class="node">
<title>Node36</title>
<g id="a_node36"><a xlink:title=" ">
<polygon fill="#ffffff" stroke="#bfbfbf" points="2052.5,-56.5 2052.5,-75.5 2097.5,-75.5 2097.5,-56.5 2052.5,-56.5"/>
<text text-anchor="middle" x="2075" y="-63.5" font-family="Helvetica,sans-Serif" font-size="10.00" fill="#000000">cstdint</text>
</a>
</g>
</g>
<!-- Node1&#45;&gt;Node36 -->
<g id="edge39" class="edge">
<title>Node1&#45;&gt;Node36</title>
<path fill="none" stroke="#191970" d="M1199.265,-121.4782C1329.3957,-119.0048 1856.9082,-107.3218 2042.5901,-75.7705"/>
<polygon fill="#191970" stroke="#191970" points="2043.2555,-79.2072 2052.4873,-74.0088 2042.0287,-72.3155 2043.2555,-79.2072"/>
</g>
<!-- Node37 -->
<g id="node37" class="node">
<title>Node37</title>
<g id="a_node37"><a xlink:title=" ">
<polygon fill="#ffffff" stroke="#bfbfbf" points="2115.5,-56.5 2115.5,-75.5 2158.5,-75.5 2158.5,-56.5 2115.5,-56.5"/>
<text text-anchor="middle" x="2137" y="-63.5" font-family="Helvetica,sans-Serif" font-size="10.00" fill="#000000">cstdio</text>
</a>
</g>
</g>
<!-- Node1&#45;&gt;Node37 -->
<g id="edge41" class="edge">
<title>Node1&#45;&gt;Node37</title>
<path fill="none" stroke="#191970" d="M1199.0457,-121.6383C1334.6053,-119.7904 1906.493,-110.1879 2105.2049,-75.836"/>
<polygon fill="#191970" stroke="#191970" points="2106.0107,-79.2471 2115.2272,-74.0216 2104.7636,-72.359 2106.0107,-79.2471"/>
</g>
<!-- Node38 -->
<g id="node38" class="node">
<title>Node38</title>
<g id="a_node38"><a xlink:title=" ">
<polygon fill="#ffffff" stroke="#bfbfbf" points="2176.5,-56.5 2176.5,-75.5 2225.5,-75.5 2225.5,-56.5 2176.5,-56.5"/>
<text text-anchor="middle" x="2201" y="-63.5" font-family="Helvetica,sans-Serif" font-size="10.00" fill="#000000">istream</text>
</a>
</g>
</g>
<!-- Node1&#45;&gt;Node38 -->
<g id="edge43" class="edge">
<title>Node1&#45;&gt;Node38</title>
<path fill="none" stroke="#191970" d="M1199.4666,-121.6268C1341.212,-119.6837 1954.4092,-109.558 2166.213,-75.8798"/>
<polygon fill="#191970" stroke="#191970" points="2167.0008,-79.297 2176.2924,-74.2061 2165.8541,-72.3915 2167.0008,-79.297"/>
</g>
<!-- Node39 -->
<g id="node39" class="node">
<title>Node39</title>
<g id="a_node39"><a xlink:title=" ">
<polygon fill="#ffffff" stroke="#bfbfbf" points="2244,-56.5 2244,-75.5 2292,-75.5 2292,-56.5 2244,-56.5"/>
<text text-anchor="middle" x="2268" y="-63.5" font-family="Helvetica,sans-Serif" font-size="10.00" fill="#000000">clocale</text>
</a>
</g>
</g>
<!-- Node1&#45;&gt;Node39 -->
<g id="edge44" class="edge">
<title>Node1&#45;&gt;Node39</title>
<path fill="none" stroke="#191970" d="M1199.4359,-121.7257C1346.9485,-120.2018 2007.2825,-111.5738 2233.5345,-75.7908"/>
<polygon fill="#191970" stroke="#191970" points="2234.3583,-79.2023 2243.6555,-74.1216 2233.2192,-72.2956 2234.3583,-79.2023"/>
</g>
<!-- Node40 -->
<g id="node40" class="node">
<title>Node40</title>
<g id="a_node40"><a xlink:title=" ">
<polygon fill="#ffffff" stroke="#bfbfbf" points="2310.5,-56.5 2310.5,-75.5 2355.5,-75.5 2355.5,-56.5 2310.5,-56.5"/>
<text text-anchor="middle" x="2333" y="-63.5" font-family="Helvetica,sans-Serif" font-size="10.00" fill="#000000">cctype</text>
</a>
</g>
</g>
<!-- Node1&#45;&gt;Node40 -->
<g id="edge45" class="edge">
<title>Node1&#45;&gt;Node40</title>
<path fill="none" stroke="#191970" d="M1199.1979,-121.8469C1351.8092,-120.8922 2059.5792,-114.5181 2300.3714,-75.5489"/>
<polygon fill="#191970" stroke="#191970" points="2301.176,-78.9627 2310.4552,-73.8494 2300.0126,-72.0601 2301.176,-78.9627"/>
</g>
<!-- Node41 -->
<g id="node41" class="node">
<title>Node41</title>
<g id="a_node41"><a xlink:title=" ">
<polygon fill="#ffffff" stroke="#bfbfbf" points="2373.5,-56.5 2373.5,-75.5 2402.5,-75.5 2402.5,-56.5 2373.5,-56.5"/>
<text text-anchor="middle" x="2388" y="-63.5" font-family="Helvetica,sans-Serif" font-size="10.00" fill="#000000">ios</text>
</a>
</g>
</g>
<!-- Node1&#45;&gt;Node41 -->
<g id="edge46" class="edge">
<title>Node1&#45;&gt;Node41</title>
<path fill="none" stroke="#191970" d="M1199.1752,-121.5232C1367.0434,-118.6963 2207.5007,-103.3821 2363.1722,-75.4262"/>
<polygon fill="#191970" stroke="#191970" points="2364.0764,-78.8141 2373.1784,-73.3916 2362.6815,-71.9544 2364.0764,-78.8141"/>
</g>
<!-- Node4 -->
<g id="node4" class="node">
<title>Node4</title>
<g id="a_node4"><a xlink:title=" ">
<polygon fill="#ffffff" stroke="#bfbfbf" points="0,-.5 0,-19.5 54,-19.5 54,-.5 0,-.5"/>
<text text-anchor="middle" x="27" y="-7.5" font-family="Helvetica,sans-Serif" font-size="10.00" fill="#000000">complex</text>
</a>
</g>
</g>
<!-- Node3&#45;&gt;Node4 -->
<g id="edge3" class="edge">
<title>Node3&#45;&gt;Node4</title>
<path fill="none" stroke="#191970" d="M88.1102,-56.2455C77.0746,-47.8943 60.9708,-35.7076 48.0647,-25.9408"/>
<polygon fill="#191970" stroke="#191970" points="49.8283,-22.8862 39.7421,-19.6427 45.6041,-28.4681 49.8283,-22.8862"/>
</g>
<!-- Node6 -->
<g id="node6" class="node">
<title>Node6</title>
<g id="a_node6"><a xlink:title=" ">
<polygon fill="#ffffff" stroke="#bfbfbf" points="254,-.5 254,-19.5 306,-19.5 306,-.5 254,-.5"/>
<text text-anchor="middle" x="280" y="-7.5" font-family="Helvetica,sans-Serif" font-size="10.00" fill="#000000">assert.h</text>
</a>
</g>
</g>
<!-- Node5&#45;&gt;Node6 -->
<g id="edge5" class="edge">
<title>Node5&#45;&gt;Node6</title>
<path fill="none" stroke="#191970" d="M323.7681,-56.2455C316.1683,-48.2155 305.2123,-36.6394 296.1632,-27.0781"/>
<polygon fill="#191970" stroke="#191970" points="298.542,-24.4998 289.1261,-19.6427 293.4579,-29.3115 298.542,-24.4998"/>
</g>
<!-- Node5&#45;&gt;Node7 -->
<g id="edge6" class="edge">
<title>Node5&#45;&gt;Node7</title>
<path fill="none" stroke="#191970" d="M283.5097,-56.4253C243.3978,-48.3562 185.2498,-35.963 126.1517,-20.1381"/>
<polygon fill="#191970" stroke="#191970" points="126.8431,-16.6993 116.2758,-17.4634 125.0131,-23.4559 126.8431,-16.6993"/>
</g>
<!-- Node5&#45;&gt;Node8 -->
<g id="edge7" class="edge">
<title>Node5&#45;&gt;Node8</title>
<path fill="none" stroke="#191970" d="M300.7124,-56.4494C272.2287,-47.9464 229.3767,-34.9668 183.21,-19.9922"/>
<polygon fill="#191970" stroke="#191970" points="184.2169,-16.6393 173.6246,-16.8696 182.0487,-23.295 184.2169,-16.6393"/>
</g>
<!-- Node5&#45;&gt;Node9 -->
<g id="edge8" class="edge">
<title>Node5&#45;&gt;Node9</title>
<path fill="none" stroke="#191970" d="M312.5432,-56.3733C293.5262,-47.4241 264.9825,-33.9917 243.5024,-23.8835"/>
<polygon fill="#191970" stroke="#191970" points="244.7284,-20.5923 234.1899,-19.5011 241.7478,-26.926 244.7284,-20.5923"/>
</g>
<!-- Node5&#45;&gt;Node10 -->
<g id="edge9" class="edge">
<title>Node5&#45;&gt;Node10</title>
<path fill="none" stroke="#191970" d="M348.3284,-56.2455C361.8303,-47.6534 381.7122,-35.0014 397.2686,-25.1018"/>
<polygon fill="#191970" stroke="#191970" points="399.2897,-27.9643 405.8472,-19.6427 395.5315,-22.0587 399.2897,-27.9643"/>
</g>
<!-- Node5&#45;&gt;Node11 -->
<g id="edge10" class="edge">
<title>Node5&#45;&gt;Node11</title>
<path fill="none" stroke="#191970" d="M359.8174,-56.3733C386.4683,-46.8062 427.3923,-32.1156 456.0173,-21.8399"/>
<polygon fill="#191970" stroke="#191970" points="457.3565,-25.078 465.5859,-18.4051 454.9914,-18.4896 457.3565,-25.078"/>
</g>
<!-- Node5&#45;&gt;Node12 -->
<g id="edge11" class="edge">
<title>Node5&#45;&gt;Node12</title>
<path fill="none" stroke="#191970" d="M372.9602,-56.4369C413.8059,-46.6618 477.2022,-31.4901 520.3285,-21.1692"/>
<polygon fill="#191970" stroke="#191970" points="521.377,-24.5172 530.2878,-18.7858 519.7477,-17.7095 521.377,-24.5172"/>
</g>
<!-- Node5&#45;&gt;Node13 -->
<g id="edge12" class="edge">
<title>Node5&#45;&gt;Node13</title>
<path fill="none" stroke="#191970" d="M392.5708,-57.8799C447.242,-50.0506 530.6497,-37.1594 611.3651,-20.215"/>
<polygon fill="#191970" stroke="#191970" points="612.1379,-23.629 621.193,-18.1286 610.6842,-16.7816 612.1379,-23.629"/>
</g>
<!-- Node14 -->
<g id="node14" class="node">
<title>Node14</title>
<g id="a_node14"><a xlink:title=" ">
<polygon fill="#ffffff" stroke="#bfbfbf" points="324,-.5 324,-19.5 376,-19.5 376,-.5 324,-.5"/>
<text text-anchor="middle" x="350" y="-7.5" font-family="Helvetica,sans-Serif" font-size="10.00" fill="#000000">sstream</text>
</a>
</g>
</g>
<!-- Node5&#45;&gt;Node14 -->
<g id="edge13" class="edge">
<title>Node5&#45;&gt;Node14</title>
<path fill="none" stroke="#191970" d="M335.9612,-56.2455C338.2038,-48.8579 341.3577,-38.4689 344.1081,-29.4087"/>
<polygon fill="#191970" stroke="#191970" points="347.517,-30.2282 347.0728,-19.6427 340.8188,-28.1948 347.517,-30.2282"/>
</g>
</g>
</svg>
