<?xml version="1.0" encoding="UTF-8" standalone="no"?>
<!DOCTYPE svg PUBLIC "-//W3C//DTD SVG 1.1//EN"
 "http://www.w3.org/Graphics/SVG/1.1/DTD/svg11.dtd">
<!-- Generated by graphviz version 2.40.1 (20161225.0304)
 -->
<!-- Title: hamiltonian.hpp Pages: 1 -->
<svg width="855pt" height="252pt"
 viewBox="0.00 0.00 854.50 252.00" xmlns="http://www.w3.org/2000/svg" xmlns:xlink="http://www.w3.org/1999/xlink">
<g id="graph0" class="graph" transform="scale(1 1) rotate(0) translate(4 248)">
<title>hamiltonian.hpp</title>
<polygon fill="#ffffff" stroke="transparent" points="-4,4 -4,-248 850.5,-248 850.5,4 -4,4"/>
<!-- Node29 -->
<g id="node1" class="node">
<title>Node29</title>
<g id="a_node1"><a xlink:title="Contains declaration and definition of sirius::Hamiltonian class.">
<polygon fill="#bfbfbf" stroke="#000000" points="572.5,-224.5 572.5,-243.5 659.5,-243.5 659.5,-224.5 572.5,-224.5"/>
<text text-anchor="middle" x="616" y="-231.5" font-family="Helvetica,sans-Serif" font-size="10.00" fill="#000000">hamiltonian.hpp</text>
</a>
</g>
</g>
<!-- Node30 -->
<g id="node2" class="node">
<title>Node30</title>
<g id="a_node2"><a xlink:href="../../da/d3d/band_8hpp.html" target="_top" xlink:title="Contains declaration and partial implementation of sirius::Band class.">
<polygon fill="#ffffff" stroke="#000000" points="289,-168.5 289,-187.5 347,-187.5 347,-168.5 289,-168.5"/>
<text text-anchor="middle" x="318" y="-175.5" font-family="Helvetica,sans-Serif" font-size="10.00" fill="#000000">band.hpp</text>
</a>
</g>
</g>
<!-- Node29&#45;&gt;Node30 -->
<g id="edge1" class="edge">
<title>Node29&#45;&gt;Node30</title>
<path fill="none" stroke="#191970" d="M562.2102,-223.8918C499.2337,-212.0573 397.209,-192.8849 347.335,-183.5126"/>
<polygon fill="#191970" stroke="#191970" points="561.8747,-227.39 572.3491,-225.7971 563.1676,-220.5104 561.8747,-227.39"/>
</g>
<!-- Node39 -->
<g id="node11" class="node">
<title>Node39</title>
<g id="a_node11"><a xlink:href="../../d6/d1e/force_8hpp.html" target="_top" xlink:title="Contains defintion of sirius::Force class.">
<polygon fill="#ffffff" stroke="#000000" points="530,-168.5 530,-187.5 588,-187.5 588,-168.5 530,-168.5"/>
<text text-anchor="middle" x="559" y="-175.5" font-family="Helvetica,sans-Serif" font-size="10.00" fill="#000000">force.hpp</text>
</a>
</g>
</g>
<!-- Node29&#45;&gt;Node39 -->
<g id="edge11" class="edge">
<title>Node29&#45;&gt;Node39</title>
<path fill="none" stroke="#191970" d="M598.7729,-217.0751C588.9659,-207.4402 577.036,-195.7196 568.8149,-187.6427"/>
<polygon fill="#191970" stroke="#191970" points="596.4851,-219.734 606.0714,-224.2455 601.3909,-214.7406 596.4851,-219.734"/>
</g>
<!-- Node40 -->
<g id="node12" class="node">
<title>Node40</title>
<g id="a_node12"><a xlink:href="../../df/d4d/force_8cpp.html" target="_top" xlink:title="Contains implementation of sirius::Force class.">
<polygon fill="#ffffff" stroke="#000000" points="610,-112.5 610,-131.5 668,-131.5 668,-112.5 610,-112.5"/>
<text text-anchor="middle" x="639" y="-119.5" font-family="Helvetica,sans-Serif" font-size="10.00" fill="#000000">force.cpp</text>
</a>
</g>
</g>
<!-- Node29&#45;&gt;Node40 -->
<g id="edge14" class="edge">
<title>Node29&#45;&gt;Node40</title>
<path fill="none" stroke="#191970" d="M619.9842,-214.5987C624.9612,-190.363 633.2798,-149.8551 637.044,-131.5249"/>
<polygon fill="#191970" stroke="#191970" points="616.5442,-213.9513 617.961,-224.4509 623.4011,-215.3594 616.5442,-213.9513"/>
</g>
<!-- Node41 -->
<g id="node13" class="node">
<title>Node41</title>
<g id="a_node13"><a xlink:href="../../db/d8b/hamiltonian_8cpp.html" target="_top" xlink:title="Contains definition of sirius::Hamiltonian0 class.">
<polygon fill="#ffffff" stroke="#000000" points="644.5,-168.5 644.5,-187.5 731.5,-187.5 731.5,-168.5 644.5,-168.5"/>
<text text-anchor="middle" x="688" y="-175.5" font-family="Helvetica,sans-Serif" font-size="10.00" fill="#000000">hamiltonian.cpp</text>
</a>
</g>
</g>
<!-- Node29&#45;&gt;Node41 -->
<g id="edge15" class="edge">
<title>Node29&#45;&gt;Node41</title>
<path fill="none" stroke="#191970" d="M636.664,-217.928C649.2489,-208.1397 664.9092,-195.9595 675.6023,-187.6427"/>
<polygon fill="#191970" stroke="#191970" points="634.2862,-215.3434 628.5414,-224.2455 638.5838,-220.8688 634.2862,-215.3434"/>
</g>
<!-- Node42 -->
<g id="node14" class="node">
<title>Node42</title>
<g id="a_node14"><a xlink:href="../../d3/d3d/hamiltonian__k_8cpp.html" target="_top" xlink:title="Contains definition of sirius::Hamiltonian_k class.">
<polygon fill="#ffffff" stroke="#000000" points="749.5,-168.5 749.5,-187.5 846.5,-187.5 846.5,-168.5 749.5,-168.5"/>
<text text-anchor="middle" x="798" y="-175.5" font-family="Helvetica,sans-Serif" font-size="10.00" fill="#000000">hamiltonian_k.cpp</text>
</a>
</g>
</g>
<!-- Node29&#45;&gt;Node42 -->
<g id="edge16" class="edge">
<title>Node29&#45;&gt;Node42</title>
<path fill="none" stroke="#191970" d="M657.1986,-221.3235C690.5758,-211.0536 736.8699,-196.8093 767.1214,-187.5011"/>
<polygon fill="#191970" stroke="#191970" points="655.8154,-218.0871 647.2869,-224.3733 657.874,-224.7776 655.8154,-218.0871"/>
</g>
<!-- Node31 -->
<g id="node3" class="node">
<title>Node31</title>
<g id="a_node3"><a xlink:href="../../d6/dae/band_8cpp.html" target="_top" xlink:title="Contains implementation of sirius::Band class.">
<polygon fill="#ffffff" stroke="#000000" points="232,-112.5 232,-131.5 290,-131.5 290,-112.5 232,-112.5"/>
<text text-anchor="middle" x="261" y="-119.5" font-family="Helvetica,sans-Serif" font-size="10.00" fill="#000000">band.cpp</text>
</a>
</g>
</g>
<!-- Node30&#45;&gt;Node31 -->
<g id="edge2" class="edge">
<title>Node30&#45;&gt;Node31</title>
<path fill="none" stroke="#191970" d="M300.7729,-161.0751C290.9659,-151.4402 279.036,-139.7196 270.8149,-131.6427"/>
<polygon fill="#191970" stroke="#191970" points="298.4851,-163.734 308.0714,-168.2455 303.3909,-158.7406 298.4851,-163.734"/>
</g>
<!-- Node32 -->
<g id="node4" class="node">
<title>Node32</title>
<g id="a_node4"><a xlink:href="../../dd/df3/diag__full__potential_8cpp.html" target="_top" xlink:title="Diagonalization of full&#45;potential Hamiltonian.">
<polygon fill="#ffffff" stroke="#000000" points="346,-112.5 346,-131.5 462,-131.5 462,-112.5 346,-112.5"/>
<text text-anchor="middle" x="404" y="-119.5" font-family="Helvetica,sans-Serif" font-size="10.00" fill="#000000">diag_full_potential.cpp</text>
</a>
</g>
</g>
<!-- Node30&#45;&gt;Node32 -->
<g id="edge3" class="edge">
<title>Node30&#45;&gt;Node32</title>
<path fill="none" stroke="#191970" d="M341.3905,-162.769C356.6299,-152.8456 376.0509,-140.1994 389.1916,-131.6427"/>
<polygon fill="#191970" stroke="#191970" points="339.4502,-159.8558 332.9801,-168.2455 343.2699,-165.7218 339.4502,-159.8558"/>
</g>
<!-- Node33 -->
<g id="node5" class="node">
<title>Node33</title>
<g id="a_node5"><a xlink:href="../../df/dd7/diag__pseudo__potential_8cpp.html" target="_top" xlink:title="Diagonalization of pseudopotential Hamiltonian.">
<polygon fill="#ffffff" stroke="#000000" points="0,-112.5 0,-131.5 136,-131.5 136,-112.5 0,-112.5"/>
<text text-anchor="middle" x="68" y="-119.5" font-family="Helvetica,sans-Serif" font-size="10.00" fill="#000000">diag_pseudo_potential.cpp</text>
</a>
</g>
</g>
<!-- Node30&#45;&gt;Node33 -->
<g id="edge4" class="edge">
<title>Node30&#45;&gt;Node33</title>
<path fill="none" stroke="#191970" d="M279.0077,-169.2657C233.3474,-159.0378 157.9666,-142.1525 110.7468,-131.5753"/>
<polygon fill="#191970" stroke="#191970" points="278.3093,-172.6959 288.8325,-171.4665 279.8394,-165.8652 278.3093,-172.6959"/>
</g>
<!-- Node34 -->
<g id="node6" class="node">
<title>Node34</title>
<g id="a_node6"><a xlink:href="../../d4/d9e/solve_8cpp.html" target="_top" xlink:title="Contains interfaces to the sirius::Band solvers.">
<polygon fill="#ffffff" stroke="#000000" points="154.5,-112.5 154.5,-131.5 213.5,-131.5 213.5,-112.5 154.5,-112.5"/>
<text text-anchor="middle" x="184" y="-119.5" font-family="Helvetica,sans-Serif" font-size="10.00" fill="#000000">solve.cpp</text>
</a>
</g>
</g>
<!-- Node30&#45;&gt;Node34 -->
<g id="edge5" class="edge">
<title>Node30&#45;&gt;Node34</title>
<path fill="none" stroke="#191970" d="M285.4172,-164.3833C261.0464,-154.1985 228.3358,-140.5284 206.7348,-131.5011"/>
<polygon fill="#191970" stroke="#191970" points="284.3883,-167.7466 294.9646,-168.3733 287.0875,-161.2879 284.3883,-167.7466"/>
</g>
<!-- Node35 -->
<g id="node7" class="node">
<title>Node35</title>
<g id="a_node7"><a xlink:href="../../df/dc4/dft__ground__state_8hpp.html" target="_top" xlink:title="Contains definition and partial implementation of sirius::DFT_ground_state class.">
<polygon fill="#ffffff" stroke="#000000" points="480.5,-112.5 480.5,-131.5 591.5,-131.5 591.5,-112.5 480.5,-112.5"/>
<text text-anchor="middle" x="536" y="-119.5" font-family="Helvetica,sans-Serif" font-size="10.00" fill="#000000">dft_ground_state.hpp</text>
</a>
</g>
</g>
<!-- Node30&#45;&gt;Node35 -->
<g id="edge6" class="edge">
<title>Node30&#45;&gt;Node35</title>
<path fill="none" stroke="#191970" d="M357.105,-167.9547C397.2353,-157.646 459.2258,-141.7218 498.689,-131.5845"/>
<polygon fill="#191970" stroke="#191970" points="356.2152,-164.5695 347.4004,-170.4476 357.9568,-171.3494 356.2152,-164.5695"/>
</g>
<!-- Node37 -->
<g id="node9" class="node">
<title>Node37</title>
<g id="a_node9"><a xlink:href="../../dd/dc2/sirius_8h.html" target="_top" xlink:title="&quot;All&#45;in&#45;one&quot; include file.">
<polygon fill="#ffffff" stroke="#000000" points="355,-56.5 355,-75.5 403,-75.5 403,-56.5 355,-56.5"/>
<text text-anchor="middle" x="379" y="-63.5" font-family="Helvetica,sans-Serif" font-size="10.00" fill="#000000">sirius.h</text>
</a>
</g>
</g>
<!-- Node30&#45;&gt;Node37 -->
<g id="edge10" class="edge">
<title>Node30&#45;&gt;Node37</title>
<path fill="none" stroke="#191970" d="M321.2983,-157.8641C324.1073,-144.2858 328.9943,-126.3076 337,-112 345.0264,-97.6553 358.3281,-84.1282 367.811,-75.5048"/>
<polygon fill="#191970" stroke="#191970" points="317.79,-157.5867 319.4046,-168.0577 324.6722,-158.8652 317.79,-157.5867"/>
</g>
<!-- Node36 -->
<g id="node8" class="node">
<title>Node36</title>
<g id="a_node8"><a xlink:href="../../d9/dde/dft__ground__state_8cpp.html" target="_top" xlink:title="Contains implementation of sirius::DFT_ground_state class.">
<polygon fill="#ffffff" stroke="#000000" points="481,-56.5 481,-75.5 591,-75.5 591,-56.5 481,-56.5"/>
<text text-anchor="middle" x="536" y="-63.5" font-family="Helvetica,sans-Serif" font-size="10.00" fill="#000000">dft_ground_state.cpp</text>
</a>
</g>
</g>
<!-- Node35&#45;&gt;Node36 -->
<g id="edge7" class="edge">
<title>Node35&#45;&gt;Node36</title>
<path fill="none" stroke="#191970" d="M536,-102.1575C536,-93.155 536,-82.9199 536,-75.6427"/>
<polygon fill="#191970" stroke="#191970" points="532.5001,-102.2455 536,-112.2455 539.5001,-102.2456 532.5001,-102.2455"/>
</g>
<!-- Node35&#45;&gt;Node37 -->
<g id="edge8" class="edge">
<title>Node35&#45;&gt;Node37</title>
<path fill="none" stroke="#191970" d="M499.4178,-108.9516C469.7387,-98.3654 428.7478,-83.7444 403.0666,-74.5843"/>
<polygon fill="#191970" stroke="#191970" points="498.4161,-112.3102 509.0107,-112.3733 500.7678,-105.7171 498.4161,-112.3102"/>
</g>
<!-- Node38 -->
<g id="node10" class="node">
<title>Node38</title>
<g id="a_node10"><a xlink:href="../../d4/d53/sirius__api_8cpp.html" target="_top" xlink:title="Fortran API.">
<polygon fill="#ffffff" stroke="#000000" points="340,-.5 340,-19.5 418,-19.5 418,-.5 340,-.5"/>
<text text-anchor="middle" x="379" y="-7.5" font-family="Helvetica,sans-Serif" font-size="10.00" fill="#000000">sirius_api.cpp</text>
</a>
</g>
</g>
<!-- Node37&#45;&gt;Node38 -->
<g id="edge9" class="edge">
<title>Node37&#45;&gt;Node38</title>
<path fill="none" stroke="#191970" d="M379,-46.1575C379,-37.155 379,-26.9199 379,-19.6427"/>
<polygon fill="#191970" stroke="#191970" points="375.5001,-46.2455 379,-56.2455 382.5001,-46.2456 375.5001,-46.2455"/>
</g>
<!-- Node39&#45;&gt;Node35 -->
<g id="edge12" class="edge">
<title>Node39&#45;&gt;Node35</title>
<path fill="none" stroke="#191970" d="M551.0934,-158.7493C547.3383,-149.6064 543.0149,-139.0798 539.9604,-131.6427"/>
<polygon fill="#191970" stroke="#191970" points="547.9569,-160.3251 554.9937,-168.2455 554.432,-157.6656 547.9569,-160.3251"/>
</g>
<!-- Node39&#45;&gt;Node40 -->
<g id="edge13" class="edge">
<title>Node39&#45;&gt;Node40</title>
<path fill="none" stroke="#191970" d="M581.1571,-162.49C595.272,-152.6096 613.1151,-140.1194 625.2248,-131.6427"/>
<polygon fill="#191970" stroke="#191970" points="579.1201,-159.6436 572.9349,-168.2455 583.1344,-165.3782 579.1201,-159.6436"/>
</g>
</g>
</svg>
