<?xml version="1.0" encoding="UTF-8" standalone="no"?>
<!DOCTYPE svg PUBLIC "-//W3C//DTD SVG 1.1//EN"
 "http://www.w3.org/Graphics/SVG/1.1/DTD/svg11.dtd">
<!-- Generated by graphviz version 2.40.1 (20161225.0304)
 -->
<!-- Title: nlohmann::detail::make_index_sequence&lt; N &gt; Pages: 1 -->
<svg width="341pt" height="61pt"
 viewBox="0.00 0.00 341.00 61.00" xmlns="http://www.w3.org/2000/svg" xmlns:xlink="http://www.w3.org/1999/xlink">
<g id="graph0" class="graph" transform="scale(1 1) rotate(0) translate(4 57)">
<title>nlohmann::detail::make_index_sequence&lt; N &gt;</title>
<polygon fill="#ffffff" stroke="transparent" points="-4,4 -4,-57 337,-57 337,4 -4,4"/>
<!-- Node0 -->
<g id="node1" class="node">
<title>Node0</title>
<polygon fill="#bfbfbf" stroke="#000000" points="213,-11.5 213,-41.5 333,-41.5 333,-11.5 213,-11.5"/>
<text text-anchor="start" x="221" y="-29.5" font-family="Helvetica,sans-Serif" font-size="10.00" fill="#000000">nlohmann::detail::make</text>
<text text-anchor="middle" x="273" y="-18.5" font-family="Helvetica,sans-Serif" font-size="10.00" fill="#000000">_index_sequence&lt; N &gt;</text>
</g>
<!-- Node1 -->
<g id="node2" class="node">
<title>Node1</title>
<g id="a_node2"><a xlink:href="../../da/de9/structnlohmann_1_1detail_1_1merge__and__renumber.html" target="_top" xlink:title="nlohmann::detail::merge\l_and_renumber\&lt; make_index\l_sequence\&lt; N/2 \&gt;::type, make\l_index_sequence\&lt; N &#45; N/2 \&gt;::type \&gt;">
<polygon fill="#ffffff" stroke="#000000" points="0,-.5 0,-52.5 177,-52.5 177,-.5 0,-.5"/>
<text text-anchor="start" x="8" y="-40.5" font-family="Helvetica,sans-Serif" font-size="10.00" fill="#000000">nlohmann::detail::merge</text>
<text text-anchor="start" x="8" y="-29.5" font-family="Helvetica,sans-Serif" font-size="10.00" fill="#000000">_and_renumber&lt; make_index</text>
<text text-anchor="start" x="8" y="-18.5" font-family="Helvetica,sans-Serif" font-size="10.00" fill="#000000">_sequence&lt; N/2 &gt;::type, make</text>
<text text-anchor="middle" x="88.5" y="-7.5" font-family="Helvetica,sans-Serif" font-size="10.00" fill="#000000">_index_sequence&lt; N &#45; N/2 &gt;::type &gt;</text>
</a>
</g>
</g>
<!-- Node1&#45;&gt;Node0 -->
<g id="edge1" class="edge">
<title>Node1&#45;&gt;Node0</title>
<path fill="none" stroke="#191970" d="M187.4417,-26.5C196.119,-26.5 204.717,-26.5 212.9263,-26.5"/>
<polygon fill="#191970" stroke="#191970" points="187.2374,-23.0001 177.2373,-26.5 187.2373,-30.0001 187.2374,-23.0001"/>
</g>
</g>
</svg>
