<?xml version="1.0" encoding="UTF-8" standalone="no"?>
<!DOCTYPE svg PUBLIC "-//W3C//DTD SVG 1.1//EN"
 "http://www.w3.org/Graphics/SVG/1.1/DTD/svg11.dtd">
<!-- Generated by graphviz version 2.40.1 (20161225.0304)
 -->
<!-- Title: augmentation_operator.hpp Pages: 1 -->
<svg width="466pt" height="532pt"
 viewBox="0.00 0.00 466.03 532.00" xmlns="http://www.w3.org/2000/svg" xmlns:xlink="http://www.w3.org/1999/xlink">
<g id="graph0" class="graph" transform="scale(1 1) rotate(0) translate(4 528)">
<title>augmentation_operator.hpp</title>
<polygon fill="#ffffff" stroke="transparent" points="-4,4 -4,-528 462.027,-528 462.027,4 -4,4"/>
<!-- Node117 -->
<g id="node1" class="node">
<title>Node117</title>
<polygon fill="#bfbfbf" stroke="#000000" points="74,-504.5 74,-523.5 213,-523.5 213,-504.5 74,-504.5"/>
<text text-anchor="middle" x="143.5" y="-511.5" font-family="Helvetica,sans-Serif" font-size="10.00" fill="#000000">augmentation_operator.hpp</text>
</g>
<!-- Node118 -->
<g id="node2" class="node">
<title>Node118</title>
<g id="a_node2"><a xlink:href="../../d5/d72/non__local__functor_8hpp.html" target="_top" xlink:title="Common operation for forces and stress tensor. ">
<polygon fill="#ffffff" stroke="#000000" points="0,-336.5 0,-355.5 115,-355.5 115,-336.5 0,-336.5"/>
<text text-anchor="middle" x="57.5" y="-343.5" font-family="Helvetica,sans-Serif" font-size="10.00" fill="#000000">non_local_functor.hpp</text>
</a>
</g>
</g>
<!-- Node117&#45;&gt;Node118 -->
<g id="edge1" class="edge">
<title>Node117&#45;&gt;Node118</title>
<path fill="none" stroke="#191970" d="M133.8704,-495.1887C115.589,-459.4762 76.4399,-382.9988 62.5309,-355.8279"/>
<polygon fill="#191970" stroke="#191970" points="130.9576,-497.1796 138.6299,-504.4862 137.1886,-493.9899 130.9576,-497.1796"/>
</g>
<!-- Node123 -->
<g id="node7" class="node">
<title>Node123</title>
<g id="a_node7"><a xlink:href="../../d6/d1e/force_8hpp.html" target="_top" xlink:title="Contains defintion and implementation of sirius::Force class. ">
<polygon fill="#ffffff" stroke="#000000" points="111.5,-280.5 111.5,-299.5 169.5,-299.5 169.5,-280.5 111.5,-280.5"/>
<text text-anchor="middle" x="140.5" y="-287.5" font-family="Helvetica,sans-Serif" font-size="10.00" fill="#000000">force.hpp</text>
</a>
</g>
</g>
<!-- Node117&#45;&gt;Node123 -->
<g id="edge8" class="edge">
<title>Node117&#45;&gt;Node123</title>
<path fill="none" stroke="#191970" d="M143.2337,-494.1177C142.6117,-447.6713 141.0815,-333.4223 140.6284,-299.5891"/>
<polygon fill="#191970" stroke="#191970" points="139.7374,-494.4228 143.3711,-504.375 146.7368,-494.329 139.7374,-494.4228"/>
</g>
<!-- Node124 -->
<g id="node8" class="node">
<title>Node124</title>
<g id="a_node8"><a xlink:href="../../d1/db8/simulation__context_8hpp.html" target="_top" xlink:title="Contains definition and implementation of Simulation_context class. ">
<polygon fill="#ffffff" stroke="#000000" points="212,-448.5 212,-467.5 331,-467.5 331,-448.5 212,-448.5"/>
<text text-anchor="middle" x="271.5" y="-455.5" font-family="Helvetica,sans-Serif" font-size="10.00" fill="#000000">simulation_context.hpp</text>
</a>
</g>
</g>
<!-- Node117&#45;&gt;Node124 -->
<g id="edge9" class="edge">
<title>Node117&#45;&gt;Node124</title>
<path fill="none" stroke="#191970" d="M174.9348,-500.2473C198.1809,-490.0771 229.2411,-476.4883 249.7831,-467.5011"/>
<polygon fill="#191970" stroke="#191970" points="173.2627,-497.1585 165.504,-504.3733 176.0685,-503.5716 173.2627,-497.1585"/>
</g>
<!-- Node119 -->
<g id="node3" class="node">
<title>Node119</title>
<g id="a_node3"><a xlink:href="../../d7/dd1/stress_8hpp.html" target="_top" xlink:title="Stress tensor calculation. ">
<polygon fill="#ffffff" stroke="#000000" points="28,-280.5 28,-299.5 91,-299.5 91,-280.5 28,-280.5"/>
<text text-anchor="middle" x="59.5" y="-287.5" font-family="Helvetica,sans-Serif" font-size="10.00" fill="#000000">stress.hpp</text>
</a>
</g>
</g>
<!-- Node118&#45;&gt;Node119 -->
<g id="edge2" class="edge">
<title>Node118&#45;&gt;Node119</title>
<path fill="none" stroke="#191970" d="M58.2087,-326.1575C58.5302,-317.155 58.8957,-306.9199 59.1556,-299.6427"/>
<polygon fill="#191970" stroke="#191970" points="54.7076,-326.127 57.8484,-336.2455 61.7032,-326.3769 54.7076,-326.127"/>
</g>
<!-- Node118&#45;&gt;Node123 -->
<g id="edge6" class="edge">
<title>Node118&#45;&gt;Node123</title>
<path fill="none" stroke="#191970" d="M80.488,-330.49C95.1322,-320.6096 113.6444,-308.1194 126.2082,-299.6427"/>
<polygon fill="#191970" stroke="#191970" points="78.2896,-327.7511 71.9575,-336.2455 82.2047,-333.5539 78.2896,-327.7511"/>
</g>
<!-- Node120 -->
<g id="node4" class="node">
<title>Node120</title>
<g id="a_node4"><a xlink:href="../../df/dc4/dft__ground__state_8hpp.html" target="_top" xlink:title="Contains definition and partial implementation of sirius::DFT_ground_state class. ...">
<polygon fill="#ffffff" stroke="#000000" points="83,-224.5 83,-243.5 194,-243.5 194,-224.5 83,-224.5"/>
<text text-anchor="middle" x="138.5" y="-231.5" font-family="Helvetica,sans-Serif" font-size="10.00" fill="#000000">dft_ground_state.hpp</text>
</a>
</g>
</g>
<!-- Node119&#45;&gt;Node120 -->
<g id="edge3" class="edge">
<title>Node119&#45;&gt;Node120</title>
<path fill="none" stroke="#191970" d="M81.7756,-274.2097C95.6505,-264.3743 113.0515,-252.0394 124.8969,-243.6427"/>
<polygon fill="#191970" stroke="#191970" points="79.3949,-271.6071 73.2607,-280.2455 83.4431,-277.3178 79.3949,-271.6071"/>
</g>
<!-- Node121 -->
<g id="node5" class="node">
<title>Node121</title>
<g id="a_node5"><a xlink:href="../../dd/dc2/sirius_8h.html" target="_top" xlink:title="&quot;All&#45;in&#45;one&quot; include file. ">
<polygon fill="#ffffff" stroke="#000000" points="156.5,-56.5 156.5,-75.5 204.5,-75.5 204.5,-56.5 156.5,-56.5"/>
<text text-anchor="middle" x="180.5" y="-63.5" font-family="Helvetica,sans-Serif" font-size="10.00" fill="#000000">sirius.h</text>
</a>
</g>
</g>
<!-- Node120&#45;&gt;Node121 -->
<g id="edge4" class="edge">
<title>Node120&#45;&gt;Node121</title>
<path fill="none" stroke="#191970" d="M143.3183,-214.7267C152.2948,-178.8207 171.2795,-102.8822 178.043,-75.8279"/>
<polygon fill="#191970" stroke="#191970" points="139.9084,-213.9359 140.8784,-224.4862 146.6994,-215.6337 139.9084,-213.9359"/>
</g>
<!-- Node122 -->
<g id="node6" class="node">
<title>Node122</title>
<g id="a_node6"><a xlink:href="../../d4/d53/sirius__api_8cpp.html" target="_top" xlink:title="Fortran API. ">
<polygon fill="#ffffff" stroke="#000000" points="141.5,-.5 141.5,-19.5 219.5,-19.5 219.5,-.5 141.5,-.5"/>
<text text-anchor="middle" x="180.5" y="-7.5" font-family="Helvetica,sans-Serif" font-size="10.00" fill="#000000">sirius_api.cpp</text>
</a>
</g>
</g>
<!-- Node121&#45;&gt;Node122 -->
<g id="edge5" class="edge">
<title>Node121&#45;&gt;Node122</title>
<path fill="none" stroke="#191970" d="M180.5,-46.1575C180.5,-37.155 180.5,-26.9199 180.5,-19.6427"/>
<polygon fill="#191970" stroke="#191970" points="177.0001,-46.2455 180.5,-56.2455 184.0001,-46.2456 177.0001,-46.2455"/>
</g>
<!-- Node123&#45;&gt;Node120 -->
<g id="edge7" class="edge">
<title>Node123&#45;&gt;Node120</title>
<path fill="none" stroke="#191970" d="M139.7913,-270.1575C139.4698,-261.155 139.1043,-250.9199 138.8444,-243.6427"/>
<polygon fill="#191970" stroke="#191970" points="136.2968,-270.3769 140.1516,-280.2455 143.2924,-270.127 136.2968,-270.3769"/>
</g>
<!-- Node125 -->
<g id="node9" class="node">
<title>Node125</title>
<g id="a_node9"><a xlink:href="../../db/d74/hubbard_8hpp.html" target="_top" xlink:title="Contains declaration and partial implementation of sirius::Hubbard class. ">
<polygon fill="#ffffff" stroke="#000000" points="251,-280.5 251,-299.5 324,-299.5 324,-280.5 251,-280.5"/>
<text text-anchor="middle" x="287.5" y="-287.5" font-family="Helvetica,sans-Serif" font-size="10.00" fill="#000000">hubbard.hpp</text>
</a>
</g>
</g>
<!-- Node124&#45;&gt;Node125 -->
<g id="edge10" class="edge">
<title>Node124&#45;&gt;Node125</title>
<path fill="none" stroke="#191970" d="M282.2553,-439.2736C286.3211,-431.1643 290.4575,-421.3921 292.5,-412 301.4192,-370.9859 293.5505,-320.4344 289.5271,-299.6335"/>
<polygon fill="#191970" stroke="#191970" points="279.1091,-437.7349 277.4765,-448.2032 285.2809,-441.0378 279.1091,-437.7349"/>
</g>
<!-- Node126 -->
<g id="node10" class="node">
<title>Node126</title>
<g id="a_node10"><a xlink:href="../../de/dec/hamiltonian_8hpp.html" target="_top" xlink:title="Contains declaration and definition of sirius::Hamiltonian class. ">
<polygon fill="#ffffff" stroke="#000000" points="258,-168.5 258,-187.5 345,-187.5 345,-168.5 258,-168.5"/>
<text text-anchor="middle" x="301.5" y="-175.5" font-family="Helvetica,sans-Serif" font-size="10.00" fill="#000000">hamiltonian.hpp</text>
</a>
</g>
</g>
<!-- Node124&#45;&gt;Node126 -->
<g id="edge15" class="edge">
<title>Node124&#45;&gt;Node126</title>
<path fill="none" stroke="#191970" d="M338.1167,-446.0719C391.4889,-432.2282 457.5,-403.4863 457.5,-346 457.5,-346 457.5,-346 457.5,-290 457.5,-259.4754 459.6081,-246.05 438.5,-224 425.184,-210.0899 378.581,-196.3226 343.3969,-187.528"/>
<polygon fill="#191970" stroke="#191970" points="337.1888,-442.6958 328.3168,-448.487 338.8638,-449.4924 337.1888,-442.6958"/>
</g>
<!-- Node128 -->
<g id="node12" class="node">
<title>Node128</title>
<g id="a_node12"><a xlink:href="../../d3/d6a/periodic__function_8hpp.html" target="_top" xlink:title="Contains declaration and partial implementation of sirius::Periodic_function class. ">
<polygon fill="#ffffff" stroke="#000000" points="171.5,-392.5 171.5,-411.5 283.5,-411.5 283.5,-392.5 171.5,-392.5"/>
<text text-anchor="middle" x="227.5" y="-399.5" font-family="Helvetica,sans-Serif" font-size="10.00" fill="#000000">periodic_function.hpp</text>
</a>
</g>
</g>
<!-- Node124&#45;&gt;Node128 -->
<g id="edge16" class="edge">
<title>Node124&#45;&gt;Node128</title>
<path fill="none" stroke="#191970" d="M257.5231,-440.2112C250.0871,-430.7472 241.234,-419.4797 235.0764,-411.6427"/>
<polygon fill="#191970" stroke="#191970" points="254.9054,-442.5447 263.8358,-448.2455 260.4097,-438.22 254.9054,-442.5447"/>
</g>
<!-- Node125&#45;&gt;Node120 -->
<g id="edge11" class="edge">
<title>Node125&#45;&gt;Node120</title>
<path fill="none" stroke="#191970" d="M252.3488,-276.7888C225.1432,-266.5639 188.1191,-252.6488 163.7798,-243.5011"/>
<polygon fill="#191970" stroke="#191970" points="251.2939,-280.1313 261.886,-280.3733 253.7566,-273.5788 251.2939,-280.1313"/>
</g>
<!-- Node125&#45;&gt;Node126 -->
<g id="edge12" class="edge">
<title>Node125&#45;&gt;Node126</title>
<path fill="none" stroke="#191970" d="M285.9682,-269.8354C285.347,-256.7081 285.2304,-239.2525 287.5,-224 289.4167,-211.1193 294.1962,-196.8554 297.6376,-187.6772"/>
<polygon fill="#191970" stroke="#191970" points="282.4916,-270.326 286.5968,-280.0932 289.4785,-269.8978 282.4916,-270.326"/>
</g>
<!-- Node127 -->
<g id="node11" class="node">
<title>Node127</title>
<g id="a_node11"><a xlink:href="../../da/d3d/band_8hpp.html" target="_top" xlink:title="Contains declaration and partial implementation of sirius::Band class. ">
<polygon fill="#ffffff" stroke="#000000" points="193.5,-112.5 193.5,-131.5 251.5,-131.5 251.5,-112.5 193.5,-112.5"/>
<text text-anchor="middle" x="222.5" y="-119.5" font-family="Helvetica,sans-Serif" font-size="10.00" fill="#000000">band.hpp</text>
</a>
</g>
</g>
<!-- Node126&#45;&gt;Node127 -->
<g id="edge13" class="edge">
<title>Node126&#45;&gt;Node127</title>
<path fill="none" stroke="#191970" d="M279.2244,-162.2097C265.3495,-152.3743 247.9485,-140.0394 236.1031,-131.6427"/>
<polygon fill="#191970" stroke="#191970" points="277.5569,-165.3178 287.7393,-168.2455 281.6051,-159.6071 277.5569,-165.3178"/>
</g>
<!-- Node127&#45;&gt;Node121 -->
<g id="edge14" class="edge">
<title>Node127&#45;&gt;Node121</title>
<path fill="none" stroke="#191970" d="M209.1584,-104.2112C202.0604,-94.7472 193.6097,-83.4797 187.732,-75.6427"/>
<polygon fill="#191970" stroke="#191970" points="206.3841,-106.3455 215.1842,-112.2455 211.9841,-102.1455 206.3841,-106.3455"/>
</g>
<!-- Node128&#45;&gt;Node118 -->
<g id="edge23" class="edge">
<title>Node128&#45;&gt;Node118</title>
<path fill="none" stroke="#191970" d="M188.614,-389.1905C157.4688,-378.9309 114.4777,-364.7691 86.3427,-355.5011"/>
<polygon fill="#191970" stroke="#191970" points="187.6829,-392.5687 198.276,-392.3733 189.8731,-385.9202 187.6829,-392.5687"/>
</g>
<!-- Node128&#45;&gt;Node123 -->
<g id="edge24" class="edge">
<title>Node128&#45;&gt;Node123</title>
<path fill="none" stroke="#191970" d="M213.9275,-384.5274C195.3168,-360.5688 162.5222,-318.3505 147.8988,-299.5249"/>
<polygon fill="#191970" stroke="#191970" points="211.1838,-386.7007 220.0824,-392.4509 216.7119,-382.4065 211.1838,-386.7007"/>
</g>
<!-- Node128&#45;&gt;Node127 -->
<g id="edge17" class="edge">
<title>Node128&#45;&gt;Node127</title>
<path fill="none" stroke="#191970" d="M226.082,-382.2071C224.6037,-359.8354 222.5,-322.3206 222.5,-290 222.5,-290 222.5,-290 222.5,-234 222.5,-196.0833 222.5,-150.9462 222.5,-131.5884"/>
<polygon fill="#191970" stroke="#191970" points="222.6063,-382.6815 226.7836,-392.4181 229.5898,-382.2016 222.6063,-382.6815"/>
</g>
<!-- Node129 -->
<g id="node13" class="node">
<title>Node129</title>
<g id="a_node13"><a xlink:href="../../d0/d9a/density_8hpp.html" target="_top" xlink:title="Contains definition and partial implementation of sirius::Density class. ">
<polygon fill="#ffffff" stroke="#000000" points="342.5,-336.5 342.5,-355.5 410.5,-355.5 410.5,-336.5 342.5,-336.5"/>
<text text-anchor="middle" x="376.5" y="-343.5" font-family="Helvetica,sans-Serif" font-size="10.00" fill="#000000">density.hpp</text>
</a>
</g>
</g>
<!-- Node128&#45;&gt;Node129 -->
<g id="edge18" class="edge">
<title>Node128&#45;&gt;Node129</title>
<path fill="none" stroke="#191970" d="M262.6512,-388.7888C289.8568,-378.5639 326.8809,-364.6488 351.2202,-355.5011"/>
<polygon fill="#191970" stroke="#191970" points="261.2434,-385.5788 253.114,-392.3733 263.7061,-392.1313 261.2434,-385.5788"/>
</g>
<!-- Node130 -->
<g id="node14" class="node">
<title>Node130</title>
<g id="a_node14"><a xlink:href="../../de/df2/potential_8hpp.html" target="_top" xlink:title="Contains declaration and partial implementation of sirius::Potential class. ">
<polygon fill="#ffffff" stroke="#000000" points="342.5,-280.5 342.5,-299.5 416.5,-299.5 416.5,-280.5 342.5,-280.5"/>
<text text-anchor="middle" x="379.5" y="-287.5" font-family="Helvetica,sans-Serif" font-size="10.00" fill="#000000">potential.hpp</text>
</a>
</g>
</g>
<!-- Node129&#45;&gt;Node130 -->
<g id="edge19" class="edge">
<title>Node129&#45;&gt;Node130</title>
<path fill="none" stroke="#191970" d="M377.563,-326.1575C378.0453,-317.155 378.5936,-306.9199 378.9834,-299.6427"/>
<polygon fill="#191970" stroke="#191970" points="374.0626,-326.0726 377.0226,-336.2455 381.0526,-326.4471 374.0626,-326.0726"/>
</g>
<!-- Node130&#45;&gt;Node126 -->
<g id="edge20" class="edge">
<title>Node130&#45;&gt;Node126</title>
<path fill="none" stroke="#191970" d="M354.0572,-274.9056C342.654,-266.9907 329.9088,-256.3639 321.5,-244 309.5148,-226.3777 304.5273,-201.3531 302.6007,-187.7397"/>
<polygon fill="#191970" stroke="#191970" points="352.1449,-277.8371 362.4217,-280.4135 355.9946,-271.9907 352.1449,-277.8371"/>
</g>
<!-- Node131 -->
<g id="node15" class="node">
<title>Node131</title>
<g id="a_node15"><a xlink:href="../../d3/d2c/local__operator_8hpp.html" target="_top" xlink:title="Contains declaration and implementation of sirius::Local_operator class. ">
<polygon fill="#ffffff" stroke="#000000" points="330,-224.5 330,-243.5 429,-243.5 429,-224.5 330,-224.5"/>
<text text-anchor="middle" x="379.5" y="-231.5" font-family="Helvetica,sans-Serif" font-size="10.00" fill="#000000">local_operator.hpp</text>
</a>
</g>
</g>
<!-- Node130&#45;&gt;Node131 -->
<g id="edge21" class="edge">
<title>Node130&#45;&gt;Node131</title>
<path fill="none" stroke="#191970" d="M379.5,-270.1575C379.5,-261.155 379.5,-250.9199 379.5,-243.6427"/>
<polygon fill="#191970" stroke="#191970" points="376.0001,-270.2455 379.5,-280.2455 383.0001,-270.2456 376.0001,-270.2455"/>
</g>
<!-- Node131&#45;&gt;Node126 -->
<g id="edge22" class="edge">
<title>Node131&#45;&gt;Node126</title>
<path fill="none" stroke="#191970" d="M357.5064,-218.2097C343.8071,-208.3743 326.6264,-196.0394 314.9309,-187.6427"/>
<polygon fill="#191970" stroke="#191970" points="355.7489,-221.2566 365.9134,-224.2455 359.8314,-215.5703 355.7489,-221.2566"/>
</g>
</g>
</svg>
