<?xml version="1.0" encoding="UTF-8" standalone="no"?>
<!DOCTYPE svg PUBLIC "-//W3C//DTD SVG 1.1//EN"
 "http://www.w3.org/Graphics/SVG/1.1/DTD/svg11.dtd">
<!-- Generated by graphviz version 2.49.3 (20211023.0002)
 -->
<!-- Title: energy.hpp Pages: 1 -->
<svg width="421pt" height="196pt"
 viewBox="0.00 0.00 421.00 196.00" xmlns="http://www.w3.org/2000/svg" xmlns:xlink="http://www.w3.org/1999/xlink">
<g id="graph0" class="graph" transform="scale(1 1) rotate(0) translate(4 192)">
<title>energy.hpp</title>
<polygon fill="white" stroke="transparent" points="-4,4 -4,-192 417,-192 417,4 -4,4"/>
<!-- Node1 -->
<g id="node1" class="node">
<title>Node1</title>
<g id="a_node1"><a xlink:title="Total energy terms.">
<polygon fill="#bfbfbf" stroke="black" points="214,-168.5 214,-187.5 280,-187.5 280,-168.5 214,-168.5"/>
<text text-anchor="middle" x="247" y="-175.5" font-family="Helvetica,sans-Serif" font-size="10.00">energy.hpp</text>
</a>
</g>
</g>
<!-- Node2 -->
<g id="node2" class="node">
<title>Node2</title>
<g id="a_node2"><a xlink:href="../../dd/d59/check__xc__potential_8cpp.html" target="_top" xlink:title="Check XC potential by doing numerical functional derivative.">
<polygon fill="white" stroke="black" points="0,-112.5 0,-131.5 120,-131.5 120,-112.5 0,-112.5"/>
<text text-anchor="middle" x="60" y="-119.5" font-family="Helvetica,sans-Serif" font-size="10.00">check_xc_potential.cpp</text>
</a>
</g>
</g>
<!-- Node1&#45;&gt;Node2 -->
<g id="edge1" class="edge">
<title>Node1&#45;&gt;Node2</title>
<path fill="none" stroke="midnightblue" d="M207.41,-165.57C172.13,-155.38 121.31,-140.7 89.49,-131.52"/>
<polygon fill="midnightblue" stroke="midnightblue" points="206.79,-169.03 217.37,-168.44 208.73,-162.31 206.79,-169.03"/>
</g>
<!-- Node3 -->
<g id="node3" class="node">
<title>Node3</title>
<g id="a_node3"><a xlink:href="../../df/dc4/dft__ground__state_8hpp.html" target="_top" xlink:title="Contains definition and partial implementation of sirius::DFT_ground_state class.">
<polygon fill="white" stroke="black" points="138.5,-112.5 138.5,-131.5 249.5,-131.5 249.5,-112.5 138.5,-112.5"/>
<text text-anchor="middle" x="194" y="-119.5" font-family="Helvetica,sans-Serif" font-size="10.00">dft_ground_state.hpp</text>
</a>
</g>
</g>
<!-- Node1&#45;&gt;Node3 -->
<g id="edge2" class="edge">
<title>Node1&#45;&gt;Node3</title>
<path fill="none" stroke="midnightblue" d="M231.02,-160.72C221.68,-151.2 210.25,-139.56 202.59,-131.75"/>
<polygon fill="midnightblue" stroke="midnightblue" points="228.75,-163.4 238.25,-168.08 233.74,-158.49 228.75,-163.4"/>
</g>
<!-- Node7 -->
<g id="node7" class="node">
<title>Node7</title>
<g id="a_node7"><a xlink:href="../../d5/df5/energy_8cpp.html" target="_top" xlink:title="Total energy terms.">
<polygon fill="white" stroke="black" points="267.5,-112.5 267.5,-131.5 332.5,-131.5 332.5,-112.5 267.5,-112.5"/>
<text text-anchor="middle" x="300" y="-119.5" font-family="Helvetica,sans-Serif" font-size="10.00">energy.cpp</text>
</a>
</g>
</g>
<!-- Node1&#45;&gt;Node7 -->
<g id="edge6" class="edge">
<title>Node1&#45;&gt;Node7</title>
<path fill="none" stroke="midnightblue" d="M262.98,-160.72C272.32,-151.2 283.75,-139.56 291.41,-131.75"/>
<polygon fill="midnightblue" stroke="midnightblue" points="260.26,-158.49 255.75,-168.08 265.25,-163.4 260.26,-158.49"/>
</g>
<!-- Node8 -->
<g id="node8" class="node">
<title>Node8</title>
<g id="a_node8"><a xlink:href="../../d4/d58/stress_8cpp.html" target="_top" xlink:title="Contains implementation of sirius::Stress class.">
<polygon fill="white" stroke="black" points="351,-112.5 351,-131.5 413,-131.5 413,-112.5 351,-112.5"/>
<text text-anchor="middle" x="382" y="-119.5" font-family="Helvetica,sans-Serif" font-size="10.00">stress.cpp</text>
</a>
</g>
</g>
<!-- Node1&#45;&gt;Node8 -->
<g id="edge7" class="edge">
<title>Node1&#45;&gt;Node8</title>
<path fill="none" stroke="midnightblue" d="M277.91,-164.64C303.24,-154.5 338.43,-140.43 360.71,-131.52"/>
<polygon fill="midnightblue" stroke="midnightblue" points="276.38,-161.48 268.39,-168.44 278.98,-167.98 276.38,-161.48"/>
</g>
<!-- Node4 -->
<g id="node4" class="node">
<title>Node4</title>
<g id="a_node4"><a xlink:href="../../d9/dde/dft__ground__state_8cpp.html" target="_top" xlink:title="Contains implementation of sirius::DFT_ground_state class.">
<polygon fill="white" stroke="black" points="88,-56.5 88,-75.5 198,-75.5 198,-56.5 88,-56.5"/>
<text text-anchor="middle" x="143" y="-63.5" font-family="Helvetica,sans-Serif" font-size="10.00">dft_ground_state.cpp</text>
</a>
</g>
</g>
<!-- Node3&#45;&gt;Node4 -->
<g id="edge3" class="edge">
<title>Node3&#45;&gt;Node4</title>
<path fill="none" stroke="midnightblue" d="M178.62,-104.72C169.63,-95.2 158.64,-83.56 151.26,-75.75"/>
<polygon fill="midnightblue" stroke="midnightblue" points="176.17,-107.22 185.58,-112.08 181.26,-102.41 176.17,-107.22"/>
</g>
<!-- Node5 -->
<g id="node5" class="node">
<title>Node5</title>
<g id="a_node5"><a xlink:href="../../d2/d92/sirius_8hpp.html" target="_top" xlink:title="&quot;All&#45;in&#45;one&quot; include file.">
<polygon fill="white" stroke="black" points="216.5,-56.5 216.5,-75.5 275.5,-75.5 275.5,-56.5 216.5,-56.5"/>
<text text-anchor="middle" x="246" y="-63.5" font-family="Helvetica,sans-Serif" font-size="10.00">sirius.hpp</text>
</a>
</g>
</g>
<!-- Node3&#45;&gt;Node5 -->
<g id="edge4" class="edge">
<title>Node3&#45;&gt;Node5</title>
<path fill="none" stroke="midnightblue" d="M209.68,-104.72C218.84,-95.2 230.05,-83.56 237.57,-75.75"/>
<polygon fill="midnightblue" stroke="midnightblue" points="207,-102.45 202.59,-112.08 212.04,-107.31 207,-102.45"/>
</g>
<!-- Node6 -->
<g id="node6" class="node">
<title>Node6</title>
<g id="a_node6"><a xlink:href="../../d4/d53/sirius__api_8cpp.html" target="_top" xlink:title="Fortran API.">
<polygon fill="white" stroke="black" points="207,-0.5 207,-19.5 285,-19.5 285,-0.5 207,-0.5"/>
<text text-anchor="middle" x="246" y="-7.5" font-family="Helvetica,sans-Serif" font-size="10.00">sirius_api.cpp</text>
</a>
</g>
</g>
<!-- Node5&#45;&gt;Node6 -->
<g id="edge5" class="edge">
<title>Node5&#45;&gt;Node6</title>
<path fill="none" stroke="midnightblue" d="M246,-45.8C246,-36.91 246,-26.78 246,-19.75"/>
<polygon fill="midnightblue" stroke="midnightblue" points="242.5,-46.08 246,-56.08 249.5,-46.08 242.5,-46.08"/>
</g>
</g>
</svg>
