<?xml version="1.0" encoding="UTF-8" standalone="no"?>
<!DOCTYPE svg PUBLIC "-//W3C//DTD SVG 1.1//EN"
 "http://www.w3.org/Graphics/SVG/1.1/DTD/svg11.dtd">
<!-- Generated by graphviz version 2.40.1 (20161225.0304)
 -->
<!-- Title: set_subspace_mtrx.hpp Pages: 1 -->
<svg width="131pt" height="196pt"
 viewBox="0.00 0.00 131.00 196.00" xmlns="http://www.w3.org/2000/svg" xmlns:xlink="http://www.w3.org/1999/xlink">
<g id="graph0" class="graph" transform="scale(1 1) rotate(0) translate(4 192)">
<title>set_subspace_mtrx.hpp</title>
<polygon fill="#ffffff" stroke="transparent" points="-4,4 -4,-192 127,-192 127,4 -4,4"/>
<!-- Node1 -->
<g id="node1" class="node">
<title>Node1</title>
<polygon fill="#bfbfbf" stroke="#000000" points="0,-168.5 0,-187.5 123,-187.5 123,-168.5 0,-168.5"/>
<text text-anchor="middle" x="61.5" y="-175.5" font-family="Helvetica,sans-Serif" font-size="10.00" fill="#000000">set_subspace_mtrx.hpp</text>
</g>
<!-- Node2 -->
<g id="node2" class="node">
<title>Node2</title>
<g id="a_node2"><a xlink:href="../../da/d3d/band_8hpp.html" target="_top" xlink:title="Contains declaration and partial implementation of sirius::Band class. ">
<polygon fill="#ffffff" stroke="#000000" points="32.5,-112.5 32.5,-131.5 90.5,-131.5 90.5,-112.5 32.5,-112.5"/>
<text text-anchor="middle" x="61.5" y="-119.5" font-family="Helvetica,sans-Serif" font-size="10.00" fill="#000000">band.hpp</text>
</a>
</g>
</g>
<!-- Node1&#45;&gt;Node2 -->
<g id="edge1" class="edge">
<title>Node1&#45;&gt;Node2</title>
<path fill="none" stroke="#191970" d="M61.5,-158.1575C61.5,-149.155 61.5,-138.9199 61.5,-131.6427"/>
<polygon fill="#191970" stroke="#191970" points="58.0001,-158.2455 61.5,-168.2455 65.0001,-158.2456 58.0001,-158.2455"/>
</g>
<!-- Node3 -->
<g id="node3" class="node">
<title>Node3</title>
<g id="a_node3"><a xlink:href="../../dd/dc2/sirius_8h.html" target="_top" xlink:title="&quot;All&#45;in&#45;one&quot; include file. ">
<polygon fill="#ffffff" stroke="#000000" points="37.5,-56.5 37.5,-75.5 85.5,-75.5 85.5,-56.5 37.5,-56.5"/>
<text text-anchor="middle" x="61.5" y="-63.5" font-family="Helvetica,sans-Serif" font-size="10.00" fill="#000000">sirius.h</text>
</a>
</g>
</g>
<!-- Node2&#45;&gt;Node3 -->
<g id="edge2" class="edge">
<title>Node2&#45;&gt;Node3</title>
<path fill="none" stroke="#191970" d="M61.5,-102.1575C61.5,-93.155 61.5,-82.9199 61.5,-75.6427"/>
<polygon fill="#191970" stroke="#191970" points="58.0001,-102.2455 61.5,-112.2455 65.0001,-102.2456 58.0001,-102.2455"/>
</g>
<!-- Node4 -->
<g id="node4" class="node">
<title>Node4</title>
<g id="a_node4"><a xlink:href="../../d4/d53/sirius__api_8cpp.html" target="_top" xlink:title="Fortran API. ">
<polygon fill="#ffffff" stroke="#000000" points="22.5,-.5 22.5,-19.5 100.5,-19.5 100.5,-.5 22.5,-.5"/>
<text text-anchor="middle" x="61.5" y="-7.5" font-family="Helvetica,sans-Serif" font-size="10.00" fill="#000000">sirius_api.cpp</text>
</a>
</g>
</g>
<!-- Node3&#45;&gt;Node4 -->
<g id="edge3" class="edge">
<title>Node3&#45;&gt;Node4</title>
<path fill="none" stroke="#191970" d="M61.5,-46.1575C61.5,-37.155 61.5,-26.9199 61.5,-19.6427"/>
<polygon fill="#191970" stroke="#191970" points="58.0001,-46.2455 61.5,-56.2455 65.0001,-46.2456 58.0001,-46.2455"/>
</g>
</g>
</svg>
