<?xml version="1.0" encoding="UTF-8" standalone="no"?>
<!DOCTYPE svg PUBLIC "-//W3C//DTD SVG 1.1//EN"
 "http://www.w3.org/Graphics/SVG/1.1/DTD/svg11.dtd">
<!-- Generated by graphviz version 2.40.1 (20161225.0304)
 -->
<!-- Title: create_beta_gk.cu Pages: 1 -->
<!--zoomable 196 -->
<svg id="main" version="1.1" xmlns="http://www.w3.org/2000/svg" xmlns:xlink="http://www.w3.org/1999/xlink" xml:space="preserve" onload="init(evt)">
<style type="text/css"><![CDATA[
.edge:hover path { stroke: red; }
.edge:hover polygon { stroke: red; fill: red; }
]]></style>
<script type="text/javascript"><![CDATA[
var edges = document.getElementsByTagName('g');
if (edges && edges.length) {
  for (var i=0;i<edges.length;i++) {
    if (edges[i].id.substr(0,4)=='edge') {
      edges[i].setAttribute('class','edge');
    }
  }
}
]]></script>
        <defs>
                <circle id="rim" cx="0" cy="0" r="7"/>
                <circle id="rim2" cx="0" cy="0" r="3.5"/>
                <g id="zoomPlus">
                        <use xlink:href="#rim" fill="#404040">
                                <set attributeName="fill" to="#808080" begin="zoomplus.mouseover" end="zoomplus.mouseout"/>
                        </use>
                        <path d="M-4,0h8M0,-4v8" fill="none" stroke="white" stroke-width="1.5" pointer-events="none"/>
                </g>
                <g id="zoomMin">
                        <use xlink:href="#rim" fill="#404040">
                                <set attributeName="fill" to="#808080" begin="zoomminus.mouseover" end="zoomminus.mouseout"/>
                        </use>
                        <path d="M-4,0h8" fill="none" stroke="white" stroke-width="1.5" pointer-events="none"/>
                </g>
                <g id="dirArrow">
                        <path fill="none" stroke="white" stroke-width="1.5" d="M0,-3.0v7 M-2.5,-0.5L0,-3.0L2.5,-0.5"/>
                </g>
               <g id="resetDef">
                       <use xlink:href="#rim2" fill="#404040">
                               <set attributeName="fill" to="#808080" begin="reset.mouseover" end="reset.mouseout"/>
                       </use>
               </g>
        </defs>

<script type="text/javascript">
var viewWidth = 1237;
var viewHeight = 196;
var sectionId = 'dynsection-0';
</script>
<script xlink:href="../../svgpan.js"/>
<svg id="graph" class="graph">
<g id="viewport">
<title>create_beta_gk.cu</title>
<polygon fill="#ffffff" stroke="transparent" points="-4,4 -4,-192 1233,-192 1233,4 -4,4"/>
<!-- Node0 -->
<g id="node1" class="node">
<title>Node0</title>
<g id="a_node1"><a xlink:title="CUDA kernel for the generation of beta(G+k) projectors.">
<polygon fill="#bfbfbf" stroke="#000000" points="511,-168.5 511,-187.5 610,-187.5 610,-168.5 511,-168.5"/>
<text text-anchor="middle" x="560.5" y="-175.5" font-family="Helvetica,sans-Serif" font-size="10.00" fill="#000000">create_beta_gk.cu</text>
</a>
</g>
</g>
<!-- Node1 -->
<g id="node2" class="node">
<title>Node1</title>
<g id="a_node2"><a xlink:href="../../d2/dc4/cuda__common_8hpp.html" target="_top" xlink:title="Common functions used by CUDA kernels.">
<polygon fill="#ffffff" stroke="#000000" points="300,-112.5 300,-131.5 465,-131.5 465,-112.5 300,-112.5"/>
<text text-anchor="middle" x="382.5" y="-119.5" font-family="Helvetica,sans-Serif" font-size="10.00" fill="#000000">../SDDK/GPU/cuda_common.hpp</text>
</a>
</g>
</g>
<!-- Node0&#45;&gt;Node1 -->
<g id="edge1" class="edge">
<title>Node0&#45;&gt;Node1</title>
<path fill="none" stroke="#191970" d="M529.9007,-168.3733C500.1739,-159.021 454.8841,-144.7725 422.3544,-134.5385"/>
<polygon fill="#191970" stroke="#191970" points="423.2895,-131.1636 412.7,-131.5011 421.1887,-137.8409 423.2895,-131.1636"/>
</g>
<!-- Node17 -->
<g id="node18" class="node">
<title>Node17</title>
<g id="a_node18"><a xlink:href="../../dc/d86/acc__runtime_8hpp.html" target="_top" xlink:title="Uniform interface to the runtime API of CUDA and ROCm.">
<polygon fill="#ffffff" stroke="#000000" points="483.5,-112.5 483.5,-131.5 637.5,-131.5 637.5,-112.5 483.5,-112.5"/>
<text text-anchor="middle" x="560.5" y="-119.5" font-family="Helvetica,sans-Serif" font-size="10.00" fill="#000000">../SDDK/GPU/acc_runtime.hpp</text>
</a>
</g>
</g>
<!-- Node0&#45;&gt;Node17 -->
<g id="edge18" class="edge">
<title>Node0&#45;&gt;Node17</title>
<path fill="none" stroke="#191970" d="M560.5,-168.2455C560.5,-160.9382 560.5,-150.6944 560.5,-141.7046"/>
<polygon fill="#191970" stroke="#191970" points="564.0001,-141.6426 560.5,-131.6427 557.0001,-141.6427 564.0001,-141.6426"/>
</g>
<!-- Node18 -->
<g id="node19" class="node">
<title>Node18</title>
<g id="a_node19"><a xlink:href="../../de/d2f/cuda__timer_8hpp.html" target="_top" xlink:title="Timer for CUDA kernels.">
<polygon fill="#ffffff" stroke="#000000" points="918,-56.5 918,-75.5 1067,-75.5 1067,-56.5 918,-56.5"/>
<text text-anchor="middle" x="992.5" y="-63.5" font-family="Helvetica,sans-Serif" font-size="10.00" fill="#000000">../SDDK/GPU/cuda_timer.hpp</text>
</a>
</g>
</g>
<!-- Node0&#45;&gt;Node18 -->
<g id="edge21" class="edge">
<title>Node0&#45;&gt;Node18</title>
<path fill="none" stroke="#191970" d="M597.3321,-168.4509C675.8406,-148.0969 859.5207,-100.4761 945.9632,-78.0651"/>
<polygon fill="#191970" stroke="#191970" points="946.9596,-81.4226 955.7611,-75.5249 945.2028,-74.6466 946.9596,-81.4226"/>
</g>
<!-- Node2 -->
<g id="node3" class="node">
<title>Node2</title>
<g id="a_node3"><a xlink:title=" ">
<polygon fill="#ffffff" stroke="#bfbfbf" points="103.5,-.5 103.5,-19.5 149.5,-19.5 149.5,-.5 103.5,-.5"/>
<text text-anchor="middle" x="126.5" y="-7.5" font-family="Helvetica,sans-Serif" font-size="10.00" fill="#000000">stdio.h</text>
</a>
</g>
</g>
<!-- Node1&#45;&gt;Node2 -->
<g id="edge2" class="edge">
<title>Node1&#45;&gt;Node2</title>
<path fill="none" stroke="#191970" d="M360.6736,-112.4509C315.2364,-92.5722 210.3518,-46.6852 157.7584,-23.6756"/>
<polygon fill="#191970" stroke="#191970" points="158.8356,-20.3266 148.2712,-19.5249 156.0299,-26.7397 158.8356,-20.3266"/>
</g>
<!-- Node3 -->
<g id="node4" class="node">
<title>Node3</title>
<g id="a_node4"><a xlink:href="../../d4/d86/acc_8hpp.html" target="_top" xlink:title="Interface to accelerators API.">
<polygon fill="#ffffff" stroke="#000000" points="534.5,-56.5 534.5,-75.5 586.5,-75.5 586.5,-56.5 534.5,-56.5"/>
<text text-anchor="middle" x="560.5" y="-63.5" font-family="Helvetica,sans-Serif" font-size="10.00" fill="#000000">acc.hpp</text>
</a>
</g>
</g>
<!-- Node1&#45;&gt;Node3 -->
<g id="edge3" class="edge">
<title>Node1&#45;&gt;Node3</title>
<path fill="none" stroke="#191970" d="M413.0993,-112.3733C444.0873,-102.6242 491.9867,-87.5547 524.7147,-77.2583"/>
<polygon fill="#191970" stroke="#191970" points="525.8604,-80.5671 534.349,-74.2273 523.7596,-73.8897 525.8604,-80.5671"/>
</g>
<!-- Node3&#45;&gt;Node2 -->
<g id="edge17" class="edge">
<title>Node3&#45;&gt;Node2</title>
<path fill="none" stroke="#191970" d="M534.3599,-64.7214C471.3365,-61.2779 306.0109,-50.0954 159.8284,-19.9435"/>
<polygon fill="#191970" stroke="#191970" points="160.2895,-16.4641 149.7837,-17.8349 158.8513,-23.3147 160.2895,-16.4641"/>
</g>
<!-- Node4 -->
<g id="node5" class="node">
<title>Node4</title>
<g id="a_node5"><a xlink:title=" ">
<polygon fill="#ffffff" stroke="#bfbfbf" points="0,-.5 0,-19.5 85,-19.5 85,-.5 0,-.5"/>
<text text-anchor="middle" x="42.5" y="-7.5" font-family="Helvetica,sans-Serif" font-size="10.00" fill="#000000">cuda_runtime.h</text>
</a>
</g>
</g>
<!-- Node3&#45;&gt;Node4 -->
<g id="edge4" class="edge">
<title>Node3&#45;&gt;Node4</title>
<path fill="none" stroke="#191970" d="M534.3792,-64.2648C464.7731,-59.4624 268.8903,-44.7837 95.1081,-19.9615"/>
<polygon fill="#191970" stroke="#191970" points="95.4109,-16.469 85.0134,-18.5044 94.4108,-23.3972 95.4109,-16.469"/>
</g>
<!-- Node5 -->
<g id="node6" class="node">
<title>Node5</title>
<g id="a_node6"><a xlink:title=" ">
<polygon fill="#ffffff" stroke="#bfbfbf" points="168,-.5 168,-19.5 215,-19.5 215,-.5 168,-.5"/>
<text text-anchor="middle" x="191.5" y="-7.5" font-family="Helvetica,sans-Serif" font-size="10.00" fill="#000000">cuda.h</text>
</a>
</g>
</g>
<!-- Node3&#45;&gt;Node5 -->
<g id="edge5" class="edge">
<title>Node3&#45;&gt;Node5</title>
<path fill="none" stroke="#191970" d="M534.1119,-63.8189C478.6065,-58.9274 345.6479,-45.6154 224.9519,-19.7896"/>
<polygon fill="#191970" stroke="#191970" points="225.6902,-16.3684 215.1749,-17.6638 224.2029,-23.2086 225.6902,-16.3684"/>
</g>
<!-- Node6 -->
<g id="node7" class="node">
<title>Node6</title>
<g id="a_node7"><a xlink:title=" ">
<polygon fill="#ffffff" stroke="#bfbfbf" points="233.5,-.5 233.5,-19.5 303.5,-19.5 303.5,-.5 233.5,-.5"/>
<text text-anchor="middle" x="268.5" y="-7.5" font-family="Helvetica,sans-Serif" font-size="10.00" fill="#000000">cublas_v2.h</text>
</a>
</g>
</g>
<!-- Node3&#45;&gt;Node6 -->
<g id="edge6" class="edge">
<title>Node3&#45;&gt;Node6</title>
<path fill="none" stroke="#191970" d="M534.3681,-61.5081C490.7619,-53.9361 400.1792,-37.8827 313.5343,-20.153"/>
<polygon fill="#191970" stroke="#191970" points="314.0372,-16.6832 303.537,-18.096 312.6264,-23.5396 314.0372,-16.6832"/>
</g>
<!-- Node7 -->
<g id="node8" class="node">
<title>Node7</title>
<g id="a_node8"><a xlink:title=" ">
<polygon fill="#ffffff" stroke="#bfbfbf" points="322,-.5 322,-19.5 385,-19.5 385,-.5 322,-.5"/>
<text text-anchor="middle" x="353.5" y="-7.5" font-family="Helvetica,sans-Serif" font-size="10.00" fill="#000000">cublasXt.h</text>
</a>
</g>
</g>
<!-- Node3&#45;&gt;Node7 -->
<g id="edge7" class="edge">
<title>Node3&#45;&gt;Node7</title>
<path fill="none" stroke="#191970" d="M534.2833,-58.9076C499.2075,-49.4184 436.6186,-32.4862 395.0768,-21.2478"/>
<polygon fill="#191970" stroke="#191970" points="395.8247,-17.8244 385.2577,-18.5914 393.9966,-24.5815 395.8247,-17.8244"/>
</g>
<!-- Node8 -->
<g id="node9" class="node">
<title>Node8</title>
<g id="a_node9"><a xlink:title=" ">
<polygon fill="#ffffff" stroke="#bfbfbf" points="403.5,-.5 403.5,-19.5 505.5,-19.5 505.5,-.5 403.5,-.5"/>
<text text-anchor="middle" x="454.5" y="-7.5" font-family="Helvetica,sans-Serif" font-size="10.00" fill="#000000">cuda_profiler_api.h</text>
</a>
</g>
</g>
<!-- Node3&#45;&gt;Node8 -->
<g id="edge8" class="edge">
<title>Node3&#45;&gt;Node8</title>
<path fill="none" stroke="#191970" d="M542.0362,-56.2455C525.3926,-47.4527 500.7007,-34.4079 481.7808,-24.4125"/>
<polygon fill="#191970" stroke="#191970" points="483.2291,-21.2193 472.7522,-19.6427 479.9592,-27.4086 483.2291,-21.2193"/>
</g>
<!-- Node9 -->
<g id="node10" class="node">
<title>Node9</title>
<g id="a_node10"><a xlink:title=" ">
<polygon fill="#ffffff" stroke="#bfbfbf" points="523.5,-.5 523.5,-19.5 597.5,-19.5 597.5,-.5 523.5,-.5"/>
<text text-anchor="middle" x="560.5" y="-7.5" font-family="Helvetica,sans-Serif" font-size="10.00" fill="#000000">nvToolsExt.h</text>
</a>
</g>
</g>
<!-- Node3&#45;&gt;Node9 -->
<g id="edge9" class="edge">
<title>Node3&#45;&gt;Node9</title>
<path fill="none" stroke="#191970" d="M560.5,-56.2455C560.5,-48.9382 560.5,-38.6944 560.5,-29.7046"/>
<polygon fill="#191970" stroke="#191970" points="564.0001,-29.6426 560.5,-19.6427 557.0001,-29.6427 564.0001,-29.6426"/>
</g>
<!-- Node10 -->
<g id="node11" class="node">
<title>Node10</title>
<g id="a_node11"><a xlink:title=" ">
<polygon fill="#ffffff" stroke="#bfbfbf" points="616,-.5 616,-19.5 691,-19.5 691,-.5 616,-.5"/>
<text text-anchor="middle" x="653.5" y="-7.5" font-family="Helvetica,sans-Serif" font-size="10.00" fill="#000000">cuComplex.h</text>
</a>
</g>
</g>
<!-- Node3&#45;&gt;Node10 -->
<g id="edge10" class="edge">
<title>Node3&#45;&gt;Node10</title>
<path fill="none" stroke="#191970" d="M576.6994,-56.2455C591.1018,-47.5731 612.3732,-34.7645 628.8799,-24.825"/>
<polygon fill="#191970" stroke="#191970" points="630.725,-27.7996 637.4863,-19.6427 627.114,-21.8028 630.725,-27.7996"/>
</g>
<!-- Node11 -->
<g id="node12" class="node">
<title>Node11</title>
<g id="a_node12"><a xlink:title=" ">
<polygon fill="#ffffff" stroke="#bfbfbf" points="851.5,-.5 851.5,-19.5 913.5,-19.5 913.5,-.5 851.5,-.5"/>
<text text-anchor="middle" x="882.5" y="-7.5" font-family="Helvetica,sans-Serif" font-size="10.00" fill="#000000">execinfo.h</text>
</a>
</g>
</g>
<!-- Node3&#45;&gt;Node11 -->
<g id="edge11" class="edge">
<title>Node3&#45;&gt;Node11</title>
<path fill="none" stroke="#191970" d="M586.6818,-62.4726C635.0412,-55.7985 741.8019,-40.3236 841.2099,-20.1407"/>
<polygon fill="#191970" stroke="#191970" points="842.0211,-23.5473 851.1137,-18.109 840.6143,-16.6901 842.0211,-23.5473"/>
</g>
<!-- Node12 -->
<g id="node13" class="node">
<title>Node12</title>
<g id="a_node13"><a xlink:title=" ">
<polygon fill="#ffffff" stroke="#bfbfbf" points="709.5,-.5 709.5,-19.5 761.5,-19.5 761.5,-.5 709.5,-.5"/>
<text text-anchor="middle" x="735.5" y="-7.5" font-family="Helvetica,sans-Serif" font-size="10.00" fill="#000000">unistd.h</text>
</a>
</g>
</g>
<!-- Node3&#45;&gt;Node12 -->
<g id="edge12" class="edge">
<title>Node3&#45;&gt;Node12</title>
<path fill="none" stroke="#191970" d="M586.6993,-57.6162C616.6838,-48.0212 665.9688,-32.25 699.5344,-21.509"/>
<polygon fill="#191970" stroke="#191970" points="700.9503,-24.7308 709.4078,-18.3495 698.8168,-18.0638 700.9503,-24.7308"/>
</g>
<!-- Node13 -->
<g id="node14" class="node">
<title>Node13</title>
<g id="a_node14"><a xlink:title=" ">
<polygon fill="#ffffff" stroke="#bfbfbf" points="932,-.5 932,-19.5 983,-19.5 983,-.5 932,-.5"/>
<text text-anchor="middle" x="957.5" y="-7.5" font-family="Helvetica,sans-Serif" font-size="10.00" fill="#000000">signal.h</text>
</a>
</g>
</g>
<!-- Node3&#45;&gt;Node13 -->
<g id="edge13" class="edge">
<title>Node3&#45;&gt;Node13</title>
<path fill="none" stroke="#191970" d="M586.6206,-64.0508C645.0326,-59.4016 790.7231,-46.1939 922.1576,-19.779"/>
<polygon fill="#191970" stroke="#191970" points="922.8986,-23.2 931.9967,-17.771 921.4988,-16.3414 922.8986,-23.2"/>
</g>
<!-- Node14 -->
<g id="node15" class="node">
<title>Node14</title>
<g id="a_node15"><a xlink:title=" ">
<polygon fill="#ffffff" stroke="#bfbfbf" points="1001.5,-.5 1001.5,-19.5 1053.5,-19.5 1053.5,-.5 1001.5,-.5"/>
<text text-anchor="middle" x="1027.5" y="-7.5" font-family="Helvetica,sans-Serif" font-size="10.00" fill="#000000">assert.h</text>
</a>
</g>
</g>
<!-- Node3&#45;&gt;Node14 -->
<g id="edge14" class="edge">
<title>Node3&#45;&gt;Node14</title>
<path fill="none" stroke="#191970" d="M586.5385,-64.7923C652.7162,-61.3932 832.768,-50.0829 991.3154,-19.9444"/>
<polygon fill="#191970" stroke="#191970" points="992.0898,-23.3596 1001.2445,-18.0265 990.7621,-16.4866 992.0898,-23.3596"/>
</g>
<!-- Node15 -->
<g id="node16" class="node">
<title>Node15</title>
<g id="a_node16"><a xlink:title=" ">
<polygon fill="#ffffff" stroke="#bfbfbf" points="779.5,-.5 779.5,-19.5 833.5,-19.5 833.5,-.5 779.5,-.5"/>
<text text-anchor="middle" x="806.5" y="-7.5" font-family="Helvetica,sans-Serif" font-size="10.00" fill="#000000">complex</text>
</a>
</g>
</g>
<!-- Node3&#45;&gt;Node15 -->
<g id="edge15" class="edge">
<title>Node3&#45;&gt;Node15</title>
<path fill="none" stroke="#191970" d="M586.7993,-60.7263C624.8842,-52.9845 697.8164,-37.7669 769.3369,-20.1914"/>
<polygon fill="#191970" stroke="#191970" points="770.5497,-23.4969 779.4156,-17.6963 768.8675,-16.702 770.5497,-23.4969"/>
</g>
<!-- Node16 -->
<g id="node17" class="node">
<title>Node16</title>
<g id="a_node17"><a xlink:title=" ">
<polygon fill="#ffffff" stroke="#bfbfbf" points="1071.5,-.5 1071.5,-19.5 1115.5,-19.5 1115.5,-.5 1071.5,-.5"/>
<text text-anchor="middle" x="1093.5" y="-7.5" font-family="Helvetica,sans-Serif" font-size="10.00" fill="#000000">vector</text>
</a>
</g>
</g>
<!-- Node3&#45;&gt;Node16 -->
<g id="edge16" class="edge">
<title>Node3&#45;&gt;Node16</title>
<path fill="none" stroke="#191970" d="M586.6589,-65.6288C660.2598,-64.1598 875.3397,-56.9493 1061.3502,-19.8289"/>
<polygon fill="#191970" stroke="#191970" points="1062.2023,-23.2274 1071.3059,-17.8075 1060.8094,-16.3674 1062.2023,-23.2274"/>
</g>
<!-- Node17&#45;&gt;Node3 -->
<g id="edge19" class="edge">
<title>Node17&#45;&gt;Node3</title>
<path fill="none" stroke="#191970" d="M560.5,-112.2455C560.5,-104.9382 560.5,-94.6944 560.5,-85.7046"/>
<polygon fill="#191970" stroke="#191970" points="564.0001,-85.6426 560.5,-75.6427 557.0001,-85.6427 564.0001,-85.6426"/>
</g>
<!-- Node17&#45;&gt;Node4 -->
<g id="edge20" class="edge">
<title>Node17&#45;&gt;Node4</title>
<path fill="none" stroke="#191970" d="M516.3356,-112.4509C421.1511,-91.8705 197.0373,-43.4135 94.8863,-21.3268"/>
<polygon fill="#191970" stroke="#191970" points="95.6103,-17.9025 85.0965,-19.21 94.1309,-24.7444 95.6103,-17.9025"/>
</g>
<!-- Node18&#45;&gt;Node2 -->
<g id="edge28" class="edge">
<title>Node18&#45;&gt;Node2</title>
<path fill="none" stroke="#191970" d="M917.7077,-64.246C745.0574,-59.8222 321.7759,-46.7353 160.0225,-19.7928"/>
<polygon fill="#191970" stroke="#191970" points="160.2049,-16.2718 149.7517,-17.9981 158.9999,-23.1673 160.2049,-16.2718"/>
</g>
<!-- Node18&#45;&gt;Node11 -->
<g id="edge22" class="edge">
<title>Node18&#45;&gt;Node11</title>
<path fill="none" stroke="#191970" d="M973.3395,-56.2455C955.9889,-47.4125 930.2099,-34.2887 910.5417,-24.2758"/>
<polygon fill="#191970" stroke="#191970" points="911.9405,-21.0605 901.441,-19.6427 908.7647,-27.2986 911.9405,-21.0605"/>
</g>
<!-- Node18&#45;&gt;Node13 -->
<g id="edge23" class="edge">
<title>Node18&#45;&gt;Node13</title>
<path fill="none" stroke="#191970" d="M986.4035,-56.2455C981.5855,-48.5367 974.7249,-37.5598 968.8968,-28.2348"/>
<polygon fill="#191970" stroke="#191970" points="971.7947,-26.2677 963.5267,-19.6427 965.8587,-29.9777 971.7947,-26.2677"/>
</g>
<!-- Node18&#45;&gt;Node14 -->
<g id="edge24" class="edge">
<title>Node18&#45;&gt;Node14</title>
<path fill="none" stroke="#191970" d="M998.5965,-56.2455C1003.4145,-48.5367 1010.2751,-37.5598 1016.1032,-28.2348"/>
<polygon fill="#191970" stroke="#191970" points="1019.1413,-29.9777 1021.4733,-19.6427 1013.2053,-26.2677 1019.1413,-29.9777"/>
</g>
<!-- Node18&#45;&gt;Node16 -->
<g id="edge26" class="edge">
<title>Node18&#45;&gt;Node16</title>
<path fill="none" stroke="#191970" d="M1010.0929,-56.2455C1025.879,-47.4928 1049.2639,-34.527 1067.2587,-24.5496"/>
<polygon fill="#191970" stroke="#191970" points="1069.0603,-27.5528 1076.1087,-19.6427 1065.6659,-21.4308 1069.0603,-27.5528"/>
</g>
<!-- Node19 -->
<g id="node20" class="node">
<title>Node19</title>
<g id="a_node20"><a xlink:title=" ">
<polygon fill="#ffffff" stroke="#bfbfbf" points="1133.5,-.5 1133.5,-19.5 1169.5,-19.5 1169.5,-.5 1133.5,-.5"/>
<text text-anchor="middle" x="1151.5" y="-7.5" font-family="Helvetica,sans-Serif" font-size="10.00" fill="#000000">map</text>
</a>
</g>
</g>
<!-- Node18&#45;&gt;Node19 -->
<g id="edge25" class="edge">
<title>Node18&#45;&gt;Node19</title>
<path fill="none" stroke="#191970" d="M1020.3672,-56.4641C1045.1873,-47.9325 1082.7197,-34.9378 1123.6064,-20.28"/>
<polygon fill="#191970" stroke="#191970" points="1124.9908,-23.5017 1133.2177,-16.8257 1122.6232,-16.9142 1124.9908,-23.5017"/>
</g>
<!-- Node20 -->
<g id="node21" class="node">
<title>Node20</title>
<g id="a_node21"><a xlink:title=" ">
<polygon fill="#ffffff" stroke="#bfbfbf" points="1188,-.5 1188,-19.5 1229,-19.5 1229,-.5 1188,-.5"/>
<text text-anchor="middle" x="1208.5" y="-7.5" font-family="Helvetica,sans-Serif" font-size="10.00" fill="#000000">string</text>
</a>
</g>
</g>
<!-- Node18&#45;&gt;Node20 -->
<g id="edge27" class="edge">
<title>Node18&#45;&gt;Node20</title>
<path fill="none" stroke="#191970" d="M1035.2326,-56.4475C1070.9535,-48.2352 1123.4165,-35.6486 1178.0495,-19.9609"/>
<polygon fill="#191970" stroke="#191970" points="1179.2807,-23.2482 1187.9106,-17.1019 1177.3315,-16.525 1179.2807,-23.2482"/>
</g>
</g>
</svg>
        <g id="navigator" transform="translate(0 0)" fill="#404254">
                <rect fill="#f2f5e9" fill-opacity="0.5" stroke="#606060" stroke-width=".5" x="0" y="0" width="60" height="60"/>
                <use id="zoomplus" xlink:href="#zoomPlus" x="17" y="9" onmousedown="handleZoom(evt,'in')"/>
                <use id="zoomminus" xlink:href="#zoomMin" x="42" y="9" onmousedown="handleZoom(evt,'out')"/>
                <use id="reset" xlink:href="#resetDef" x="30" y="36" onmousedown="handleReset()"/>
                <g id="arrowUp" xlink:href="#dirArrow" transform="translate(30 24)" onmousedown="handlePan(0,-1)">
                  <use xlink:href="#rim" fill="#404040">
                        <set attributeName="fill" to="#808080" begin="arrowUp.mouseover" end="arrowUp.mouseout"/>
                  </use>
                  <path fill="none" stroke="white" stroke-width="1.5" d="M0,-3.0v7 M-2.5,-0.5L0,-3.0L2.5,-0.5"/>
                </g>
                <g id="arrowRight" xlink:href="#dirArrow" transform="rotate(90) translate(36 -43)" onmousedown="handlePan(1,0)">
                  <use xlink:href="#rim" fill="#404040">
                        <set attributeName="fill" to="#808080" begin="arrowRight.mouseover" end="arrowRight.mouseout"/>
                  </use>
                  <path fill="none" stroke="white" stroke-width="1.5" d="M0,-3.0v7 M-2.5,-0.5L0,-3.0L2.5,-0.5"/>
                </g>
                <g id="arrowDown" xlink:href="#dirArrow" transform="rotate(180) translate(-30 -48)" onmousedown="handlePan(0,1)">
                  <use xlink:href="#rim" fill="#404040">
                        <set attributeName="fill" to="#808080" begin="arrowDown.mouseover" end="arrowDown.mouseout"/>
                  </use>
                  <path fill="none" stroke="white" stroke-width="1.5" d="M0,-3.0v7 M-2.5,-0.5L0,-3.0L2.5,-0.5"/>
                </g>
                <g id="arrowLeft" xlink:href="#dirArrow" transform="rotate(270) translate(-36 17)" onmousedown="handlePan(-1,0)">
                  <use xlink:href="#rim" fill="#404040">
                        <set attributeName="fill" to="#808080" begin="arrowLeft.mouseover" end="arrowLeft.mouseout"/>
                  </use>
                  <path fill="none" stroke="white" stroke-width="1.5" d="M0,-3.0v7 M-2.5,-0.5L0,-3.0L2.5,-0.5"/>
                </g>
        </g>
        <svg viewBox="0 0 15 15" width="100%" height="30px" preserveAspectRatio="xMaxYMin meet">
         <g id="arrow_out" transform="scale(0.3 0.3)">
          <a xlink:href="create__beta__gk_8cu__incl_org.svg" target="_base">
           <rect id="button" ry="5" rx="5" y="6" x="6" height="38" width="38"
                fill="#f2f5e9" fill-opacity="0.5" stroke="#606060" stroke-width="1.0"/>
           <path id="arrow"
             d="M 11.500037,31.436501 C 11.940474,20.09759 22.043105,11.32322 32.158766,21.979434 L 37.068811,17.246167 C 37.068811,17.246167 37.088388,32 37.088388,32 L 22.160133,31.978069 C 22.160133,31.978069 26.997745,27.140456 26.997745,27.140456 C 18.528582,18.264221 13.291696,25.230495 11.500037,31.436501 z"
             style="fill:#404040;"/>
          </a>
         </g>
        </svg>
</svg>
