<?xml version="1.0" encoding="UTF-8" standalone="no"?>
<!DOCTYPE svg PUBLIC "-//W3C//DTD SVG 1.1//EN"
 "http://www.w3.org/Graphics/SVG/1.1/DTD/svg11.dtd">
<!-- Generated by graphviz version 2.40.1 (20161225.0304)
 -->
<!-- Title: band.hpp Pages: 1 -->
<!--zoomable 252 -->
<svg id="main" version="1.1" xmlns="http://www.w3.org/2000/svg" xmlns:xlink="http://www.w3.org/1999/xlink" xml:space="preserve" onload="init(evt)">
<style type="text/css"><![CDATA[
.edge:hover path { stroke: red; }
.edge:hover polygon { stroke: red; fill: red; }
]]></style>
<script type="text/javascript"><![CDATA[
var edges = document.getElementsByTagName('g');
if (edges && edges.length) {
  for (var i=0;i<edges.length;i++) {
    if (edges[i].id.substr(0,4)=='edge') {
      edges[i].setAttribute('class','edge');
    }
  }
}
]]></script>
        <defs>
                <circle id="rim" cx="0" cy="0" r="7"/>
                <circle id="rim2" cx="0" cy="0" r="3.5"/>
                <g id="zoomPlus">
                        <use xlink:href="#rim" fill="#404040">
                                <set attributeName="fill" to="#808080" begin="zoomplus.mouseover" end="zoomplus.mouseout"/>
                        </use>
                        <path d="M-4,0h8M0,-4v8" fill="none" stroke="white" stroke-width="1.5" pointer-events="none"/>
                </g>
                <g id="zoomMin">
                        <use xlink:href="#rim" fill="#404040">
                                <set attributeName="fill" to="#808080" begin="zoomminus.mouseover" end="zoomminus.mouseout"/>
                        </use>
                        <path d="M-4,0h8" fill="none" stroke="white" stroke-width="1.5" pointer-events="none"/>
                </g>
                <g id="dirArrow">
                        <path fill="none" stroke="white" stroke-width="1.5" d="M0,-3.0v7 M-2.5,-0.5L0,-3.0L2.5,-0.5"/>
                </g>
               <g id="resetDef">
                       <use xlink:href="#rim2" fill="#404040">
                               <set attributeName="fill" to="#808080" begin="reset.mouseover" end="reset.mouseout"/>
                       </use>
               </g>
        </defs>

<script type="text/javascript">
var viewWidth = 1312;
var viewHeight = 252;
var sectionId = 'dynsection-0';
</script>
<script xlink:href="../../svgpan.js"/>
<svg id="graph" class="graph">
<g id="viewport">
<title>band.hpp</title>
<polygon fill="#ffffff" stroke="transparent" points="-4,4 -4,-248 1307.5512,-248 1307.5512,4 -4,4"/>
<!-- Node1 -->
<g id="node1" class="node">
<title>Node1</title>
<g id="a_node1"><a xlink:title="Contains declaration and partial implementation of sirius::Band class.">
<polygon fill="#bfbfbf" stroke="#000000" points="884.5,-224.5 884.5,-243.5 942.5,-243.5 942.5,-224.5 884.5,-224.5"/>
<text text-anchor="middle" x="913.5" y="-231.5" font-family="Helvetica,sans-Serif" font-size="10.00" fill="#000000">band.hpp</text>
</a>
</g>
</g>
<!-- Node2 -->
<g id="node2" class="node">
<title>Node2</title>
<g id="a_node2"><a xlink:href="../../da/d3e/memory_8hpp.html" target="_top" xlink:title="Memory management functions and classes.">
<polygon fill="#ffffff" stroke="#000000" points="732,-112.5 732,-131.5 835,-131.5 835,-112.5 732,-112.5"/>
<text text-anchor="middle" x="783.5" y="-119.5" font-family="Helvetica,sans-Serif" font-size="10.00" fill="#000000">SDDK/memory.hpp</text>
</a>
</g>
</g>
<!-- Node1&#45;&gt;Node2 -->
<g id="edge1" class="edge">
<title>Node1&#45;&gt;Node2</title>
<path fill="none" stroke="#191970" d="M902.4163,-224.4509C880.1582,-205.2747 829.8081,-161.8962 802.3022,-138.1988"/>
<polygon fill="#191970" stroke="#191970" points="804.4163,-135.4004 794.5557,-131.5249 799.8473,-140.7036 804.4163,-135.4004"/>
</g>
<!-- Node27 -->
<g id="node27" class="node">
<title>Node27</title>
<g id="a_node27"><a xlink:href="../../d4/d08/type__definition_8hpp.html" target="_top" xlink:title="Define some common type used in SDDK::">
<polygon fill="#ffffff" stroke="#000000" points="853,-112.5 853,-131.5 984,-131.5 984,-112.5 853,-112.5"/>
<text text-anchor="middle" x="918.5" y="-119.5" font-family="Helvetica,sans-Serif" font-size="10.00" fill="#000000">SDDK/type_definition.hpp</text>
</a>
</g>
</g>
<!-- Node1&#45;&gt;Node27 -->
<g id="edge27" class="edge">
<title>Node1&#45;&gt;Node27</title>
<path fill="none" stroke="#191970" d="M913.9263,-224.4509C914.7418,-206.184 916.5377,-165.9553 917.6206,-141.6976"/>
<polygon fill="#191970" stroke="#191970" points="921.1252,-141.6711 918.0748,-131.5249 914.1322,-141.3588 921.1252,-141.6711"/>
</g>
<!-- Node28 -->
<g id="node28" class="node">
<title>Node28</title>
<g id="a_node28"><a xlink:href="../../de/dec/hamiltonian_8hpp.html" target="_top" xlink:title="Contains declaration and definition of sirius::Hamiltonian class.">
<polygon fill="#ffffff" stroke="#000000" points="942,-168.5 942,-187.5 1083,-187.5 1083,-168.5 942,-168.5"/>
<text text-anchor="middle" x="1012.5" y="-175.5" font-family="Helvetica,sans-Serif" font-size="10.00" fill="#000000">hamiltonian/hamiltonian.hpp</text>
</a>
</g>
</g>
<!-- Node1&#45;&gt;Node28 -->
<g id="edge28" class="edge">
<title>Node1&#45;&gt;Node28</title>
<path fill="none" stroke="#191970" d="M930.7445,-224.2455C946.0761,-215.5731 968.7199,-202.7645 986.2916,-192.825"/>
<polygon fill="#191970" stroke="#191970" points="988.4724,-195.6126 995.4531,-187.6427 985.0259,-189.5198 988.4724,-195.6126"/>
</g>
<!-- Node3 -->
<g id="node3" class="node">
<title>Node3</title>
<g id="a_node3"><a xlink:title=" ">
<polygon fill="#ffffff" stroke="#bfbfbf" points="614,-56.5 614,-75.5 643,-75.5 643,-56.5 614,-56.5"/>
<text text-anchor="middle" x="628.5" y="-63.5" font-family="Helvetica,sans-Serif" font-size="10.00" fill="#000000">list</text>
</a>
</g>
</g>
<!-- Node2&#45;&gt;Node3 -->
<g id="edge2" class="edge">
<title>Node2&#45;&gt;Node3</title>
<path fill="none" stroke="#191970" d="M754.1716,-112.4797C729.2132,-104.2247 692.2512,-91.6406 652.3945,-76.1786"/>
<polygon fill="#191970" stroke="#191970" points="653.6201,-72.8998 643.0323,-72.5137 651.0684,-79.4182 653.6201,-72.8998"/>
</g>
<!-- Node4 -->
<g id="node4" class="node">
<title>Node4</title>
<g id="a_node4"><a xlink:title=" ">
<polygon fill="#ffffff" stroke="#bfbfbf" points="661,-56.5 661,-75.5 716,-75.5 716,-56.5 661,-56.5"/>
<text text-anchor="middle" x="688.5" y="-63.5" font-family="Helvetica,sans-Serif" font-size="10.00" fill="#000000">iostream</text>
</a>
</g>
</g>
<!-- Node2&#45;&gt;Node4 -->
<g id="edge3" class="edge">
<title>Node2&#45;&gt;Node4</title>
<path fill="none" stroke="#191970" d="M766.9523,-112.2455C752.2401,-103.5731 730.5112,-90.7645 713.6495,-80.825"/>
<polygon fill="#191970" stroke="#191970" points="715.2502,-77.7057 704.8581,-75.6427 711.6954,-83.736 715.2502,-77.7057"/>
</g>
<!-- Node5 -->
<g id="node5" class="node">
<title>Node5</title>
<g id="a_node5"><a xlink:title=" ">
<polygon fill="#ffffff" stroke="#bfbfbf" points="965.5,-56.5 965.5,-75.5 1001.5,-75.5 1001.5,-56.5 965.5,-56.5"/>
<text text-anchor="middle" x="983.5" y="-63.5" font-family="Helvetica,sans-Serif" font-size="10.00" fill="#000000">map</text>
</a>
</g>
</g>
<!-- Node2&#45;&gt;Node5 -->
<g id="edge4" class="edge">
<title>Node2&#45;&gt;Node5</title>
<path fill="none" stroke="#191970" d="M822.6982,-112.4877C857.7308,-103.7563 910.3496,-90.0743 955.5,-76 955.6016,-75.9683 955.7035,-75.9365 955.8054,-75.9045"/>
<polygon fill="#191970" stroke="#191970" points="957.1185,-79.1562 965.4984,-72.6733 954.9047,-72.5155 957.1185,-79.1562"/>
</g>
<!-- Node6 -->
<g id="node6" class="node">
<title>Node6</title>
<g id="a_node6"><a xlink:title=" ">
<polygon fill="#ffffff" stroke="#bfbfbf" points="837,-56.5 837,-75.5 890,-75.5 890,-56.5 837,-56.5"/>
<text text-anchor="middle" x="863.5" y="-63.5" font-family="Helvetica,sans-Serif" font-size="10.00" fill="#000000">memory</text>
</a>
</g>
</g>
<!-- Node2&#45;&gt;Node6 -->
<g id="edge5" class="edge">
<title>Node2&#45;&gt;Node6</title>
<path fill="none" stroke="#191970" d="M797.4349,-112.2455C809.5947,-103.7337 827.4464,-91.2375 841.5285,-81.3801"/>
<polygon fill="#191970" stroke="#191970" points="843.5395,-84.2447 849.7248,-75.6427 839.5253,-78.51 843.5395,-84.2447"/>
</g>
<!-- Node7 -->
<g id="node7" class="node">
<title>Node7</title>
<g id="a_node7"><a xlink:title=" ">
<polygon fill="#ffffff" stroke="#bfbfbf" points="734.5,-56.5 734.5,-75.5 780.5,-75.5 780.5,-56.5 734.5,-56.5"/>
<text text-anchor="middle" x="757.5" y="-63.5" font-family="Helvetica,sans-Serif" font-size="10.00" fill="#000000">cstring</text>
</a>
</g>
</g>
<!-- Node2&#45;&gt;Node7 -->
<g id="edge6" class="edge">
<title>Node2&#45;&gt;Node7</title>
<path fill="none" stroke="#191970" d="M778.9711,-112.2455C775.4666,-104.6973 770.5073,-94.0158 766.2377,-84.8197"/>
<polygon fill="#191970" stroke="#191970" points="769.3627,-83.2389 761.977,-75.6427 763.0136,-86.1867 769.3627,-83.2389"/>
</g>
<!-- Node8 -->
<g id="node8" class="node">
<title>Node8</title>
<g id="a_node8"><a xlink:title=" ">
<polygon fill="#ffffff" stroke="#bfbfbf" points="381,-56.5 381,-75.5 440,-75.5 440,-56.5 381,-56.5"/>
<text text-anchor="middle" x="410.5" y="-63.5" font-family="Helvetica,sans-Serif" font-size="10.00" fill="#000000">functional</text>
</a>
</g>
</g>
<!-- Node2&#45;&gt;Node8 -->
<g id="edge7" class="edge">
<title>Node2&#45;&gt;Node8</title>
<path fill="none" stroke="#191970" d="M731.8131,-116.8641C667.7953,-110.0688 555.2648,-96.7076 450.4126,-76.2098"/>
<polygon fill="#191970" stroke="#191970" points="450.7811,-72.7148 440.2914,-74.2038 449.4202,-79.5812 450.7811,-72.7148"/>
</g>
<!-- Node9 -->
<g id="node9" class="node">
<title>Node9</title>
<g id="a_node9"><a xlink:title=" ">
<polygon fill="#ffffff" stroke="#bfbfbf" points="1019.5,-56.5 1019.5,-75.5 1077.5,-75.5 1077.5,-56.5 1019.5,-56.5"/>
<text text-anchor="middle" x="1048.5" y="-63.5" font-family="Helvetica,sans-Serif" font-size="10.00" fill="#000000">algorithm</text>
</a>
</g>
</g>
<!-- Node2&#45;&gt;Node9 -->
<g id="edge8" class="edge">
<title>Node2&#45;&gt;Node9</title>
<path fill="none" stroke="#191970" d="M835.0705,-112.4242C878.9467,-104.0795 943.8586,-91.2705 1009.4006,-76.1606"/>
<polygon fill="#191970" stroke="#191970" points="1010.5477,-79.4874 1019.4965,-73.8157 1008.9639,-72.6689 1010.5477,-79.4874"/>
</g>
<!-- Node10 -->
<g id="node10" class="node">
<title>Node10</title>
<g id="a_node10"><a xlink:title=" ">
<polygon fill="#ffffff" stroke="#bfbfbf" points="908,-56.5 908,-75.5 947,-75.5 947,-56.5 908,-56.5"/>
<text text-anchor="middle" x="927.5" y="-63.5" font-family="Helvetica,sans-Serif" font-size="10.00" fill="#000000">array</text>
</a>
</g>
</g>
<!-- Node2&#45;&gt;Node10 -->
<g id="edge9" class="edge">
<title>Node2&#45;&gt;Node10</title>
<path fill="none" stroke="#191970" d="M808.2545,-112.3733C833.2109,-102.668 871.7261,-87.6898 898.193,-77.3972"/>
<polygon fill="#191970" stroke="#191970" points="899.642,-80.5891 907.6934,-73.7026 897.1048,-74.0651 899.642,-80.5891"/>
</g>
<!-- Node11 -->
<g id="node11" class="node">
<title>Node11</title>
<g id="a_node11"><a xlink:title=" ">
<polygon fill="#ffffff" stroke="#bfbfbf" points="1229.5,-.5 1229.5,-19.5 1283.5,-19.5 1283.5,-.5 1229.5,-.5"/>
<text text-anchor="middle" x="1256.5" y="-7.5" font-family="Helvetica,sans-Serif" font-size="10.00" fill="#000000">complex</text>
</a>
</g>
</g>
<!-- Node2&#45;&gt;Node11 -->
<g id="edge10" class="edge">
<title>Node2&#45;&gt;Node11</title>
<path fill="none" stroke="#191970" d="M786.8411,-112.3908C792.5798,-97.4825 805.8294,-69.132 827.5,-56 835.8624,-50.9325 1116.1299,-23.5153 1219.0665,-13.5896"/>
<polygon fill="#191970" stroke="#191970" points="1219.6905,-17.0458 1229.3089,-12.6032 1219.0194,-10.078 1219.6905,-17.0458"/>
</g>
<!-- Node12 -->
<g id="node12" class="node">
<title>Node12</title>
<g id="a_node12"><a xlink:title=" ">
<polygon fill="#ffffff" stroke="#bfbfbf" points="547,-56.5 547,-75.5 596,-75.5 596,-56.5 547,-56.5"/>
<text text-anchor="middle" x="571.5" y="-63.5" font-family="Helvetica,sans-Serif" font-size="10.00" fill="#000000">cassert</text>
</a>
</g>
</g>
<!-- Node2&#45;&gt;Node12 -->
<g id="edge11" class="edge">
<title>Node2&#45;&gt;Node12</title>
<path fill="none" stroke="#191970" d="M744.2628,-112.4285C710.0408,-103.9664 658.8334,-91.0313 606.178,-76.4002"/>
<polygon fill="#191970" stroke="#191970" points="606.906,-72.9696 596.333,-73.6491 605.0221,-79.7113 606.906,-72.9696"/>
</g>
<!-- Node13 -->
<g id="node13" class="node">
<title>Node13</title>
<g id="a_node13"><a xlink:href="../../d4/d86/acc_8hpp.html" target="_top" xlink:title="Interface to accelerators API.">
<polygon fill="#ffffff" stroke="#000000" points="458,-56.5 458,-75.5 529,-75.5 529,-56.5 458,-56.5"/>
<text text-anchor="middle" x="493.5" y="-63.5" font-family="Helvetica,sans-Serif" font-size="10.00" fill="#000000">gpu/acc.hpp</text>
</a>
</g>
</g>
<!-- Node2&#45;&gt;Node13 -->
<g id="edge12" class="edge">
<title>Node2&#45;&gt;Node13</title>
<path fill="none" stroke="#191970" d="M731.5545,-112.8878C683.9278,-104.3976 611.195,-91.0928 539.1714,-76.2934"/>
<polygon fill="#191970" stroke="#191970" points="539.5172,-72.791 529.0159,-74.1955 538.1011,-79.6462 539.5172,-72.791"/>
</g>
<!-- Node13&#45;&gt;Node11 -->
<g id="edge24" class="edge">
<title>Node13&#45;&gt;Node11</title>
<path fill="none" stroke="#191970" d="M529.4289,-57.3292C532.1506,-56.8274 534.8631,-56.3754 537.5,-56 804.6151,-17.9744 874.4263,-39.894 1143.5,-20 1168.6498,-18.1405 1196.9113,-15.6394 1218.8796,-13.6037"/>
<polygon fill="#191970" stroke="#191970" points="1219.4865,-17.0623 1229.1173,-12.6466 1218.8349,-10.0927 1219.4865,-17.0623"/>
</g>
<!-- Node14 -->
<g id="node14" class="node">
<title>Node14</title>
<g id="a_node14"><a xlink:title=" ">
<polygon fill="#ffffff" stroke="#bfbfbf" points="672,-.5 672,-19.5 757,-19.5 757,-.5 672,-.5"/>
<text text-anchor="middle" x="714.5" y="-7.5" font-family="Helvetica,sans-Serif" font-size="10.00" fill="#000000">cuda_runtime.h</text>
</a>
</g>
</g>
<!-- Node13&#45;&gt;Node14 -->
<g id="edge13" class="edge">
<title>Node13&#45;&gt;Node14</title>
<path fill="none" stroke="#191970" d="M529.0075,-57.0026C566.4307,-47.5198 625.5824,-32.5311 667.0005,-22.0361"/>
<polygon fill="#191970" stroke="#191970" points="668.0278,-25.3865 676.8617,-19.5373 666.3083,-18.6009 668.0278,-25.3865"/>
</g>
<!-- Node15 -->
<g id="node15" class="node">
<title>Node15</title>
<g id="a_node15"><a xlink:title=" ">
<polygon fill="#ffffff" stroke="#bfbfbf" points="775,-.5 775,-19.5 822,-19.5 822,-.5 775,-.5"/>
<text text-anchor="middle" x="798.5" y="-7.5" font-family="Helvetica,sans-Serif" font-size="10.00" fill="#000000">cuda.h</text>
</a>
</g>
</g>
<!-- Node13&#45;&gt;Node15 -->
<g id="edge14" class="edge">
<title>Node13&#45;&gt;Node15</title>
<path fill="none" stroke="#191970" d="M529.4771,-57.6174C532.1876,-57.049 534.8845,-56.5031 537.5,-56 635.0936,-37.2268 663.7309,-42.5608 764.8001,-19.8877"/>
<polygon fill="#191970" stroke="#191970" points="765.8404,-23.2404 774.8118,-17.6043 764.2839,-16.4156 765.8404,-23.2404"/>
</g>
<!-- Node16 -->
<g id="node16" class="node">
<title>Node16</title>
<g id="a_node16"><a xlink:title=" ">
<polygon fill="#ffffff" stroke="#bfbfbf" points="840.5,-.5 840.5,-19.5 910.5,-19.5 910.5,-.5 840.5,-.5"/>
<text text-anchor="middle" x="875.5" y="-7.5" font-family="Helvetica,sans-Serif" font-size="10.00" fill="#000000">cublas_v2.h</text>
</a>
</g>
</g>
<!-- Node13&#45;&gt;Node16 -->
<g id="edge15" class="edge">
<title>Node13&#45;&gt;Node16</title>
<path fill="none" stroke="#191970" d="M529.4585,-57.5159C532.1733,-56.971 534.8762,-56.4581 537.5,-56 663.5906,-33.9836 699.4613,-41.8445 830.1946,-19.8893"/>
<polygon fill="#191970" stroke="#191970" points="830.9215,-23.3159 840.1905,-18.1841 829.7443,-16.4156 830.9215,-23.3159"/>
</g>
<!-- Node17 -->
<g id="node17" class="node">
<title>Node17</title>
<g id="a_node17"><a xlink:title=" ">
<polygon fill="#ffffff" stroke="#bfbfbf" points="0,-.5 0,-19.5 63,-19.5 63,-.5 0,-.5"/>
<text text-anchor="middle" x="31.5" y="-7.5" font-family="Helvetica,sans-Serif" font-size="10.00" fill="#000000">cublasXt.h</text>
</a>
</g>
</g>
<!-- Node13&#45;&gt;Node17 -->
<g id="edge16" class="edge">
<title>Node13&#45;&gt;Node17</title>
<path fill="none" stroke="#191970" d="M457.7147,-57.6304C454.6073,-57.0305 451.5037,-56.4757 448.5,-56 285.9295,-30.2544 239.821,-47.267 73.2879,-19.8956"/>
<polygon fill="#191970" stroke="#191970" points="73.631,-16.4044 63.1905,-18.2063 72.4759,-23.3085 73.631,-16.4044"/>
</g>
<!-- Node18 -->
<g id="node18" class="node">
<title>Node18</title>
<g id="a_node18"><a xlink:title=" ">
<polygon fill="#ffffff" stroke="#bfbfbf" points="81.5,-.5 81.5,-19.5 183.5,-19.5 183.5,-.5 81.5,-.5"/>
<text text-anchor="middle" x="132.5" y="-7.5" font-family="Helvetica,sans-Serif" font-size="10.00" fill="#000000">cuda_profiler_api.h</text>
</a>
</g>
</g>
<!-- Node13&#45;&gt;Node18 -->
<g id="edge17" class="edge">
<title>Node13&#45;&gt;Node18</title>
<path fill="none" stroke="#191970" d="M457.6903,-57.7748C454.5881,-57.1435 451.4925,-56.542 448.5,-56 338.6442,-36.1016 307.7961,-37.3549 193.7379,-20.1512"/>
<polygon fill="#191970" stroke="#191970" points="193.962,-16.645 183.5489,-18.5989 192.9077,-23.5651 193.962,-16.645"/>
</g>
<!-- Node19 -->
<g id="node19" class="node">
<title>Node19</title>
<g id="a_node19"><a xlink:title=" ">
<polygon fill="#ffffff" stroke="#bfbfbf" points="201.5,-.5 201.5,-19.5 275.5,-19.5 275.5,-.5 201.5,-.5"/>
<text text-anchor="middle" x="238.5" y="-7.5" font-family="Helvetica,sans-Serif" font-size="10.00" fill="#000000">nvToolsExt.h</text>
</a>
</g>
</g>
<!-- Node13&#45;&gt;Node19 -->
<g id="edge18" class="edge">
<title>Node13&#45;&gt;Node19</title>
<path fill="none" stroke="#191970" d="M457.6408,-58.021C454.5494,-57.3363 451.4697,-56.6552 448.5,-56 392.4896,-43.6422 328.0481,-29.5442 285.4827,-20.2489"/>
<polygon fill="#191970" stroke="#191970" points="286.1993,-16.8229 275.6829,-18.1092 284.7061,-23.6618 286.1993,-16.8229"/>
</g>
<!-- Node20 -->
<g id="node20" class="node">
<title>Node20</title>
<g id="a_node20"><a xlink:title=" ">
<polygon fill="#ffffff" stroke="#bfbfbf" points="294,-.5 294,-19.5 369,-19.5 369,-.5 294,-.5"/>
<text text-anchor="middle" x="331.5" y="-7.5" font-family="Helvetica,sans-Serif" font-size="10.00" fill="#000000">cuComplex.h</text>
</a>
</g>
</g>
<!-- Node13&#45;&gt;Node20 -->
<g id="edge19" class="edge">
<title>Node13&#45;&gt;Node20</title>
<path fill="none" stroke="#191970" d="M465.6512,-56.3733C438.8297,-47.1016 398.0873,-33.0178 368.5402,-22.804"/>
<polygon fill="#191970" stroke="#191970" points="369.5802,-19.4603 358.9854,-19.5011 367.2931,-26.0762 369.5802,-19.4603"/>
</g>
<!-- Node21 -->
<g id="node21" class="node">
<title>Node21</title>
<g id="a_node21"><a xlink:title=" ">
<polygon fill="#ffffff" stroke="#bfbfbf" points="387.5,-.5 387.5,-19.5 449.5,-19.5 449.5,-.5 387.5,-.5"/>
<text text-anchor="middle" x="418.5" y="-7.5" font-family="Helvetica,sans-Serif" font-size="10.00" fill="#000000">execinfo.h</text>
</a>
</g>
</g>
<!-- Node13&#45;&gt;Node21 -->
<g id="edge20" class="edge">
<title>Node13&#45;&gt;Node21</title>
<path fill="none" stroke="#191970" d="M480.436,-56.2455C469.1438,-47.814 452.6155,-35.4729 439.4729,-25.6598"/>
<polygon fill="#191970" stroke="#191970" points="441.5211,-22.8211 431.4143,-19.6427 437.3331,-28.4301 441.5211,-22.8211"/>
</g>
<!-- Node22 -->
<g id="node22" class="node">
<title>Node22</title>
<g id="a_node22"><a xlink:title=" ">
<polygon fill="#ffffff" stroke="#bfbfbf" points="467.5,-.5 467.5,-19.5 519.5,-19.5 519.5,-.5 467.5,-.5"/>
<text text-anchor="middle" x="493.5" y="-7.5" font-family="Helvetica,sans-Serif" font-size="10.00" fill="#000000">unistd.h</text>
</a>
</g>
</g>
<!-- Node13&#45;&gt;Node22 -->
<g id="edge21" class="edge">
<title>Node13&#45;&gt;Node22</title>
<path fill="none" stroke="#191970" d="M493.5,-56.2455C493.5,-48.9382 493.5,-38.6944 493.5,-29.7046"/>
<polygon fill="#191970" stroke="#191970" points="497.0001,-29.6426 493.5,-19.6427 490.0001,-29.6427 497.0001,-29.6426"/>
</g>
<!-- Node23 -->
<g id="node23" class="node">
<title>Node23</title>
<g id="a_node23"><a xlink:title=" ">
<polygon fill="#ffffff" stroke="#bfbfbf" points="538,-.5 538,-19.5 589,-19.5 589,-.5 538,-.5"/>
<text text-anchor="middle" x="563.5" y="-7.5" font-family="Helvetica,sans-Serif" font-size="10.00" fill="#000000">signal.h</text>
</a>
</g>
</g>
<!-- Node13&#45;&gt;Node23 -->
<g id="edge22" class="edge">
<title>Node13&#45;&gt;Node23</title>
<path fill="none" stroke="#191970" d="M505.6931,-56.2455C516.1321,-47.8943 531.3655,-35.7076 543.574,-25.9408"/>
<polygon fill="#191970" stroke="#191970" points="545.8244,-28.6227 551.4467,-19.6427 541.4515,-23.1566 545.8244,-28.6227"/>
</g>
<!-- Node24 -->
<g id="node24" class="node">
<title>Node24</title>
<g id="a_node24"><a xlink:title=" ">
<polygon fill="#ffffff" stroke="#bfbfbf" points="959.5,-.5 959.5,-19.5 1011.5,-19.5 1011.5,-.5 959.5,-.5"/>
<text text-anchor="middle" x="985.5" y="-7.5" font-family="Helvetica,sans-Serif" font-size="10.00" fill="#000000">assert.h</text>
</a>
</g>
</g>
<!-- Node13&#45;&gt;Node24 -->
<g id="edge23" class="edge">
<title>Node13&#45;&gt;Node24</title>
<path fill="none" stroke="#191970" d="M529.4445,-57.432C532.1625,-56.9065 534.87,-56.421 537.5,-56 705.8865,-29.047 750.2409,-40.7814 919.5,-20 929.1299,-18.8176 939.5199,-17.3392 949.1428,-15.8847"/>
<polygon fill="#191970" stroke="#191970" points="949.8622,-19.3152 959.2114,-14.3309 948.7946,-12.397 949.8622,-19.3152"/>
</g>
<!-- Node25 -->
<g id="node25" class="node">
<title>Node25</title>
<g id="a_node25"><a xlink:title=" ">
<polygon fill="#ffffff" stroke="#bfbfbf" points="1090.5,-.5 1090.5,-19.5 1134.5,-19.5 1134.5,-.5 1090.5,-.5"/>
<text text-anchor="middle" x="1112.5" y="-7.5" font-family="Helvetica,sans-Serif" font-size="10.00" fill="#000000">vector</text>
</a>
</g>
</g>
<!-- Node13&#45;&gt;Node25 -->
<g id="edge25" class="edge">
<title>Node13&#45;&gt;Node25</title>
<path fill="none" stroke="#191970" d="M529.4354,-57.374C532.1556,-56.8619 534.866,-56.3952 537.5,-56 750.379,-24.058 806.1351,-39.6333 1020.5,-20 1040.2417,-18.1919 1062.3259,-15.8036 1079.9082,-13.8145"/>
<polygon fill="#191970" stroke="#191970" points="1080.675,-17.2497 1090.2126,-12.6363 1079.8797,-10.295 1080.675,-17.2497"/>
</g>
<!-- Node26 -->
<g id="node26" class="node">
<title>Node26</title>
<g id="a_node26"><a xlink:title=" ">
<polygon fill="#ffffff" stroke="#bfbfbf" points="607.5,-.5 607.5,-19.5 653.5,-19.5 653.5,-.5 607.5,-.5"/>
<text text-anchor="middle" x="630.5" y="-7.5" font-family="Helvetica,sans-Serif" font-size="10.00" fill="#000000">stdio.h</text>
</a>
</g>
</g>
<!-- Node13&#45;&gt;Node26 -->
<g id="edge26" class="edge">
<title>Node13&#45;&gt;Node26</title>
<path fill="none" stroke="#191970" d="M517.0511,-56.3733C539.3391,-47.2629 572.9937,-33.5062 597.8637,-23.3404"/>
<polygon fill="#191970" stroke="#191970" points="599.3239,-26.5247 607.2562,-19.5011 596.6753,-20.0451 599.3239,-26.5247"/>
</g>
<!-- Node28&#45;&gt;Node2 -->
<g id="edge31" class="edge">
<title>Node28&#45;&gt;Node2</title>
<path fill="none" stroke="#191970" d="M973.3937,-168.4369C934.3668,-158.8932 874.3035,-144.2052 832.2038,-133.9101"/>
<polygon fill="#191970" stroke="#191970" points="832.9902,-130.4993 822.445,-131.5237 831.3274,-137.299 832.9902,-130.4993"/>
</g>
<!-- Node28&#45;&gt;Node6 -->
<g id="edge29" class="edge">
<title>Node28&#45;&gt;Node6</title>
<path fill="none" stroke="#191970" d="M1012.1893,-168.1285C1011.2147,-153.8934 1007.3666,-127.6025 992.5,-112 985.8283,-104.9981 935.5295,-88.3154 899.7537,-77.0857"/>
<polygon fill="#191970" stroke="#191970" points="900.685,-73.7099 890.0965,-74.0755 898.6019,-80.3928 900.685,-73.7099"/>
</g>
<!-- Node28&#45;&gt;Node11 -->
<g id="edge30" class="edge">
<title>Node28&#45;&gt;Node11</title>
<path fill="none" stroke="#191970" d="M1058.2765,-168.4992C1131.9613,-152.1637 1271.4731,-116.5709 1299.5,-76 1311.1497,-59.1362 1294.4205,-39.3967 1278.5483,-25.9286"/>
<polygon fill="#191970" stroke="#191970" points="1280.4844,-22.9963 1270.4811,-19.5059 1276.1244,-28.4727 1280.4844,-22.9963"/>
</g>
<!-- Node28&#45;&gt;Node27 -->
<g id="edge32" class="edge">
<title>Node28&#45;&gt;Node27</title>
<path fill="none" stroke="#191970" d="M996.1264,-168.2455C981.5692,-159.5731 960.069,-146.7645 943.3848,-136.825"/>
<polygon fill="#191970" stroke="#191970" points="945.0683,-133.7539 934.6859,-131.6427 941.4856,-139.7676 945.0683,-133.7539"/>
</g>
<!-- Node29 -->
<g id="node29" class="node">
<title>Node29</title>
<g id="a_node29"><a xlink:href="../../de/df7/typedefs_8hpp.html" target="_top" xlink:title="Contains typedefs, enums and simple descriptors.">
<polygon fill="#ffffff" stroke="#000000" points="1068.5,-112.5 1068.5,-131.5 1142.5,-131.5 1142.5,-112.5 1068.5,-112.5"/>
<text text-anchor="middle" x="1105.5" y="-119.5" font-family="Helvetica,sans-Serif" font-size="10.00" fill="#000000">typedefs.hpp</text>
</a>
</g>
</g>
<!-- Node28&#45;&gt;Node29 -->
<g id="edge33" class="edge">
<title>Node28&#45;&gt;Node29</title>
<path fill="none" stroke="#191970" d="M1028.6994,-168.2455C1043.1018,-159.5731 1064.3732,-146.7645 1080.8799,-136.825"/>
<polygon fill="#191970" stroke="#191970" points="1082.725,-139.7996 1089.4863,-131.6427 1079.114,-133.8028 1082.725,-139.7996"/>
</g>
<!-- Node29&#45;&gt;Node5 -->
<g id="edge40" class="edge">
<title>Node29&#45;&gt;Node5</title>
<path fill="none" stroke="#191970" d="M1084.5275,-112.3733C1064.2311,-103.0569 1033.3498,-88.8819 1011.0732,-78.6565"/>
<polygon fill="#191970" stroke="#191970" points="1012.3594,-75.3959 1001.811,-74.4051 1009.4392,-81.7577 1012.3594,-75.3959"/>
</g>
<!-- Node29&#45;&gt;Node9 -->
<g id="edge41" class="edge">
<title>Node29&#45;&gt;Node9</title>
<path fill="none" stroke="#191970" d="M1095.5714,-112.2455C1087.3162,-104.1352 1075.3791,-92.4075 1065.5918,-82.7919"/>
<polygon fill="#191970" stroke="#191970" points="1067.9011,-80.1542 1058.3149,-75.6427 1062.9954,-85.1476 1067.9011,-80.1542"/>
</g>
<!-- Node29&#45;&gt;Node10 -->
<g id="edge38" class="edge">
<title>Node29&#45;&gt;Node10</title>
<path fill="none" stroke="#191970" d="M1073.4326,-112.43C1045.1421,-103.9141 1002.5781,-90.9257 956.6607,-75.9805"/>
<polygon fill="#191970" stroke="#191970" points="957.7188,-72.6442 947.1262,-72.8646 955.5443,-79.2979 957.7188,-72.6442"/>
</g>
<!-- Node29&#45;&gt;Node11 -->
<g id="edge36" class="edge">
<title>Node29&#45;&gt;Node11</title>
<path fill="none" stroke="#191970" d="M1142.5477,-117.7304C1189.4993,-111.469 1266.3999,-98.0811 1283.5,-76 1294.6736,-61.5717 1284.0277,-41.8768 1272.9852,-27.764"/>
<polygon fill="#191970" stroke="#191970" points="1275.3783,-25.1734 1266.2499,-19.7952 1270.032,-29.692 1275.3783,-25.1734"/>
</g>
<!-- Node29&#45;&gt;Node24 -->
<g id="edge35" class="edge">
<title>Node29&#45;&gt;Node24</title>
<path fill="none" stroke="#191970" d="M1105.1776,-112.2998C1104.2179,-98.2781 1100.5203,-72.2504 1086.5,-56 1069.7668,-36.6053 1043.1745,-24.9488 1021.476,-18.224"/>
<polygon fill="#191970" stroke="#191970" points="1022.1709,-14.7822 1011.5935,-15.3888 1020.2406,-21.5108 1022.1709,-14.7822"/>
</g>
<!-- Node29&#45;&gt;Node25 -->
<g id="edge37" class="edge">
<title>Node29&#45;&gt;Node25</title>
<path fill="none" stroke="#191970" d="M1109.3624,-112.3228C1112.8038,-103.1446 1117.5833,-88.8807 1119.5,-76 1121.8054,-60.5071 1119.6887,-42.858 1117.1961,-29.7111"/>
<polygon fill="#191970" stroke="#191970" points="1120.6074,-28.9254 1115.1028,-19.8728 1113.7607,-30.3823 1120.6074,-28.9254"/>
</g>
<!-- Node30 -->
<g id="node30" class="node">
<title>Node30</title>
<g id="a_node30"><a xlink:title=" ">
<polygon fill="#ffffff" stroke="#bfbfbf" points="1172,-56.5 1172,-75.5 1217,-75.5 1217,-56.5 1172,-56.5"/>
<text text-anchor="middle" x="1194.5" y="-63.5" font-family="Helvetica,sans-Serif" font-size="10.00" fill="#000000">cstdlib</text>
</a>
</g>
</g>
<!-- Node29&#45;&gt;Node30 -->
<g id="edge34" class="edge">
<title>Node29&#45;&gt;Node30</title>
<path fill="none" stroke="#191970" d="M1121.0026,-112.2455C1134.658,-103.6534 1154.7657,-91.0014 1170.4989,-81.1018"/>
<polygon fill="#191970" stroke="#191970" points="1172.5751,-83.9307 1179.175,-75.6427 1168.8471,-78.006 1172.5751,-83.9307"/>
</g>
<!-- Node31 -->
<g id="node31" class="node">
<title>Node31</title>
<g id="a_node31"><a xlink:title=" ">
<polygon fill="#ffffff" stroke="#bfbfbf" points="1235,-56.5 1235,-75.5 1274,-75.5 1274,-56.5 1235,-56.5"/>
<text text-anchor="middle" x="1254.5" y="-63.5" font-family="Helvetica,sans-Serif" font-size="10.00" fill="#000000">limits</text>
</a>
</g>
</g>
<!-- Node29&#45;&gt;Node31 -->
<g id="edge39" class="edge">
<title>Node29&#45;&gt;Node31</title>
<path fill="none" stroke="#191970" d="M1131.114,-112.3733C1157.3472,-102.5138 1198.0591,-87.2127 1225.4709,-76.9103"/>
<polygon fill="#191970" stroke="#191970" points="1226.7874,-80.1546 1234.9168,-73.3601 1224.3247,-73.6021 1226.7874,-80.1546"/>
</g>
</g>
</svg>
        <g id="navigator" transform="translate(0 0)" fill="#404254">
                <rect fill="#f2f5e9" fill-opacity="0.5" stroke="#606060" stroke-width=".5" x="0" y="0" width="60" height="60"/>
                <use id="zoomplus" xlink:href="#zoomPlus" x="17" y="9" onmousedown="handleZoom(evt,'in')"/>
                <use id="zoomminus" xlink:href="#zoomMin" x="42" y="9" onmousedown="handleZoom(evt,'out')"/>
                <use id="reset" xlink:href="#resetDef" x="30" y="36" onmousedown="handleReset()"/>
                <g id="arrowUp" xlink:href="#dirArrow" transform="translate(30 24)" onmousedown="handlePan(0,-1)">
                  <use xlink:href="#rim" fill="#404040">
                        <set attributeName="fill" to="#808080" begin="arrowUp.mouseover" end="arrowUp.mouseout"/>
                  </use>
                  <path fill="none" stroke="white" stroke-width="1.5" d="M0,-3.0v7 M-2.5,-0.5L0,-3.0L2.5,-0.5"/>
                </g>
                <g id="arrowRight" xlink:href="#dirArrow" transform="rotate(90) translate(36 -43)" onmousedown="handlePan(1,0)">
                  <use xlink:href="#rim" fill="#404040">
                        <set attributeName="fill" to="#808080" begin="arrowRight.mouseover" end="arrowRight.mouseout"/>
                  </use>
                  <path fill="none" stroke="white" stroke-width="1.5" d="M0,-3.0v7 M-2.5,-0.5L0,-3.0L2.5,-0.5"/>
                </g>
                <g id="arrowDown" xlink:href="#dirArrow" transform="rotate(180) translate(-30 -48)" onmousedown="handlePan(0,1)">
                  <use xlink:href="#rim" fill="#404040">
                        <set attributeName="fill" to="#808080" begin="arrowDown.mouseover" end="arrowDown.mouseout"/>
                  </use>
                  <path fill="none" stroke="white" stroke-width="1.5" d="M0,-3.0v7 M-2.5,-0.5L0,-3.0L2.5,-0.5"/>
                </g>
                <g id="arrowLeft" xlink:href="#dirArrow" transform="rotate(270) translate(-36 17)" onmousedown="handlePan(-1,0)">
                  <use xlink:href="#rim" fill="#404040">
                        <set attributeName="fill" to="#808080" begin="arrowLeft.mouseover" end="arrowLeft.mouseout"/>
                  </use>
                  <path fill="none" stroke="white" stroke-width="1.5" d="M0,-3.0v7 M-2.5,-0.5L0,-3.0L2.5,-0.5"/>
                </g>
        </g>
        <svg viewBox="0 0 15 15" width="100%" height="30px" preserveAspectRatio="xMaxYMin meet">
         <g id="arrow_out" transform="scale(0.3 0.3)">
          <a xlink:href="band_8hpp__incl_org.svg" target="_base">
           <rect id="button" ry="5" rx="5" y="6" x="6" height="38" width="38"
                fill="#f2f5e9" fill-opacity="0.5" stroke="#606060" stroke-width="1.0"/>
           <path id="arrow"
             d="M 11.500037,31.436501 C 11.940474,20.09759 22.043105,11.32322 32.158766,21.979434 L 37.068811,17.246167 C 37.068811,17.246167 37.088388,32 37.088388,32 L 22.160133,31.978069 C 22.160133,31.978069 26.997745,27.140456 26.997745,27.140456 C 18.528582,18.264221 13.291696,25.230495 11.500037,31.436501 z"
             style="fill:#404040;"/>
          </a>
         </g>
        </svg>
</svg>
