<?xml version="1.0" encoding="UTF-8" standalone="no"?>
<!DOCTYPE svg PUBLIC "-//W3C//DTD SVG 1.1//EN"
 "http://www.w3.org/Graphics/SVG/1.1/DTD/svg11.dtd">
<!-- Generated by graphviz version 2.40.1 (20161225.0304)
 -->
<!-- Title: band.hpp Pages: 1 -->
<svg width="2416pt" height="330pt"
 viewBox="0.00 0.00 2415.50 330.00" xmlns="http://www.w3.org/2000/svg" xmlns:xlink="http://www.w3.org/1999/xlink">
<g id="graph0" class="graph" transform="scale(1 1) rotate(0) translate(4 326)">
<title>band.hpp</title>
<polygon fill="#ffffff" stroke="transparent" points="-4,4 -4,-326 2411.5,-326 2411.5,4 -4,4"/>
<!-- Node0 -->
<g id="node1" class="node">
<title>Node0</title>
<polygon fill="#bfbfbf" stroke="#000000" points="1622,-302.5 1622,-321.5 1680,-321.5 1680,-302.5 1622,-302.5"/>
<text text-anchor="middle" x="1651" y="-309.5" font-family="Helvetica,sans-Serif" font-size="10.00" fill="#000000">band.hpp</text>
</g>
<!-- Node1 -->
<g id="node2" class="node">
<title>Node1</title>
<g id="a_node2"><a xlink:href="../../d3/d6a/periodic__function_8hpp.html" target="_top" xlink:title="Contains declaration and partial implementation of sirius::Periodic_function class. ">
<polygon fill="#ffffff" stroke="#000000" points="194,-190.5 194,-209.5 306,-209.5 306,-190.5 194,-190.5"/>
<text text-anchor="middle" x="250" y="-197.5" font-family="Helvetica,sans-Serif" font-size="10.00" fill="#000000">periodic_function.hpp</text>
</a>
</g>
</g>
<!-- Node0&#45;&gt;Node1 -->
<g id="edge1" class="edge">
<title>Node0&#45;&gt;Node1</title>
<path fill="none" stroke="#191970" d="M1621.7381,-309.6607C1449.4617,-295.8884 566.4101,-225.2947 316.1693,-205.2898"/>
<polygon fill="#191970" stroke="#191970" points="316.3787,-201.7954 306.1316,-204.4873 315.8208,-208.7732 316.3787,-201.7954"/>
</g>
<!-- Node131 -->
<g id="node21" class="node">
<title>Node131</title>
<g id="a_node21"><a xlink:href="../../d3/de4/k__point__set_8hpp.html" target="_top" xlink:title="Contains declaration and partial implementation of sirius::K_point_set class. ">
<polygon fill="#ffffff" stroke="#000000" points="1078,-190.5 1078,-209.5 1202,-209.5 1202,-190.5 1078,-190.5"/>
<text text-anchor="middle" x="1140" y="-197.5" font-family="Helvetica,sans-Serif" font-size="10.00" fill="#000000">K_point/k_point_set.hpp</text>
</a>
</g>
</g>
<!-- Node0&#45;&gt;Node131 -->
<g id="edge24" class="edge">
<title>Node0&#45;&gt;Node131</title>
<path fill="none" stroke="#191970" d="M1621.5877,-309.7892C1564.2475,-305.0491 1433.78,-292.1493 1327,-266 1271.2168,-252.3393 1208.7298,-228.4572 1171.9623,-213.4754"/>
<polygon fill="#191970" stroke="#191970" points="1172.8806,-210.0686 1162.3009,-209.5016 1170.2178,-216.5424 1172.8806,-210.0686"/>
</g>
<!-- Node143 -->
<g id="node37" class="node">
<title>Node143</title>
<g id="a_node37"><a xlink:href="../../de/dec/hamiltonian_8hpp.html" target="_top" xlink:title="Contains declaration and definition of sirius::Hamiltonian class. ">
<polygon fill="#ffffff" stroke="#000000" points="1336.5,-246.5 1336.5,-265.5 1479.5,-265.5 1479.5,-246.5 1336.5,-246.5"/>
<text text-anchor="middle" x="1408" y="-253.5" font-family="Helvetica,sans-Serif" font-size="10.00" fill="#000000">Hamiltonian/hamiltonian.hpp</text>
</a>
</g>
</g>
<!-- Node0&#45;&gt;Node143 -->
<g id="edge45" class="edge">
<title>Node0&#45;&gt;Node143</title>
<path fill="none" stroke="#191970" d="M1621.6885,-305.2451C1581.536,-295.9918 1508.7974,-279.229 1459.4592,-267.8589"/>
<polygon fill="#191970" stroke="#191970" points="1460.1441,-264.4251 1449.6135,-265.5899 1458.5721,-271.2463 1460.1441,-264.4251"/>
</g>
<!-- Node174 -->
<g id="node45" class="node">
<title>Node174</title>
<g id="a_node45"><a xlink:href="../../dc/d95/residuals_8hpp.html" target="_top" xlink:title="Compute wave&#45;function residuals. ">
<polygon fill="#ffffff" stroke="#000000" points="1498,-246.5 1498,-265.5 1574,-265.5 1574,-246.5 1498,-246.5"/>
<text text-anchor="middle" x="1536" y="-253.5" font-family="Helvetica,sans-Serif" font-size="10.00" fill="#000000">residuals.hpp</text>
</a>
</g>
</g>
<!-- Node0&#45;&gt;Node174 -->
<g id="edge64" class="edge">
<title>Node0&#45;&gt;Node174</title>
<path fill="none" stroke="#191970" d="M1631.2308,-302.3733C1612.8531,-293.4241 1585.2688,-279.9917 1564.5107,-269.8835"/>
<polygon fill="#191970" stroke="#191970" points="1566.0343,-266.7325 1555.5112,-265.5011 1562.9696,-273.026 1566.0343,-266.7325"/>
</g>
<!-- Node175 -->
<g id="node46" class="node">
<title>Node175</title>
<g id="a_node46"><a xlink:href="../../d8/de1/diag__full__potential_8hpp.html" target="_top" xlink:title="Diagonalization of full&#45;potential Hamiltonian. ">
<polygon fill="#ffffff" stroke="#000000" points="1592.5,-246.5 1592.5,-265.5 1709.5,-265.5 1709.5,-246.5 1592.5,-246.5"/>
<text text-anchor="middle" x="1651" y="-253.5" font-family="Helvetica,sans-Serif" font-size="10.00" fill="#000000">diag_full_potential.hpp</text>
</a>
</g>
</g>
<!-- Node0&#45;&gt;Node175 -->
<g id="edge65" class="edge">
<title>Node0&#45;&gt;Node175</title>
<path fill="none" stroke="#191970" d="M1651,-302.2455C1651,-294.9382 1651,-284.6944 1651,-275.7046"/>
<polygon fill="#191970" stroke="#191970" points="1654.5001,-275.6426 1651,-265.6427 1647.5001,-275.6427 1654.5001,-275.6426"/>
</g>
<!-- Node176 -->
<g id="node47" class="node">
<title>Node176</title>
<g id="a_node47"><a xlink:href="../../d6/d3c/diag__pseudo__potential_8hpp.html" target="_top" xlink:title="Diagonalization of pseudopotential Hamiltonian. ">
<polygon fill="#ffffff" stroke="#000000" points="1727.5,-246.5 1727.5,-265.5 1864.5,-265.5 1864.5,-246.5 1727.5,-246.5"/>
<text text-anchor="middle" x="1796" y="-253.5" font-family="Helvetica,sans-Serif" font-size="10.00" fill="#000000">diag_pseudo_potential.hpp</text>
</a>
</g>
</g>
<!-- Node0&#45;&gt;Node176 -->
<g id="edge66" class="edge">
<title>Node0&#45;&gt;Node176</title>
<path fill="none" stroke="#191970" d="M1675.9264,-302.3733C1699.6202,-293.2226 1735.4511,-279.3844 1761.8068,-269.2057"/>
<polygon fill="#191970" stroke="#191970" points="1763.3314,-272.3689 1771.3989,-265.5011 1760.8094,-265.8389 1763.3314,-272.3689"/>
</g>
<!-- Node177 -->
<g id="node48" class="node">
<title>Node177</title>
<g id="a_node48"><a xlink:href="../../d2/d80/initialize__subspace_8hpp.html" target="_top" xlink:title="Initialize subspace for iterative diagonalization. ">
<polygon fill="#ffffff" stroke="#000000" points="1883,-246.5 1883,-265.5 2003,-265.5 2003,-246.5 1883,-246.5"/>
<text text-anchor="middle" x="1943" y="-253.5" font-family="Helvetica,sans-Serif" font-size="10.00" fill="#000000">initialize_subspace.hpp</text>
</a>
</g>
</g>
<!-- Node0&#45;&gt;Node177 -->
<g id="edge67" class="edge">
<title>Node0&#45;&gt;Node177</title>
<path fill="none" stroke="#191970" d="M1680.0656,-306.4258C1727.2087,-297.3846 1821.2941,-279.3409 1883.1887,-267.4707"/>
<polygon fill="#191970" stroke="#191970" points="1884.0511,-270.8691 1893.2128,-265.5482 1882.7326,-263.9944 1884.0511,-270.8691"/>
</g>
<!-- Node178 -->
<g id="node49" class="node">
<title>Node178</title>
<g id="a_node49"><a xlink:href="../../d0/da3/solve_8hpp.html" target="_top" xlink:title="Contains interfaces to the sirius::Band solvers. ">
<polygon fill="#ffffff" stroke="#000000" points="2021.5,-246.5 2021.5,-265.5 2080.5,-265.5 2080.5,-246.5 2021.5,-246.5"/>
<text text-anchor="middle" x="2051" y="-253.5" font-family="Helvetica,sans-Serif" font-size="10.00" fill="#000000">solve.hpp</text>
</a>
</g>
</g>
<!-- Node0&#45;&gt;Node178 -->
<g id="edge68" class="edge">
<title>Node0&#45;&gt;Node178</title>
<path fill="none" stroke="#191970" d="M1680.2055,-309.5199C1740.3073,-304.1515 1882.2944,-290.1062 2011.2267,-265.9369"/>
<polygon fill="#191970" stroke="#191970" points="2012.1046,-269.3328 2021.2753,-264.0273 2010.7976,-262.4559 2012.1046,-269.3328"/>
</g>
<!-- Node179 -->
<g id="node50" class="node">
<title>Node179</title>
<g id="a_node50"><a xlink:href="../../db/d74/set__subspace__mtrx_8hpp.html" target="_top" xlink:title="Set the subspace Hamiltonian and overlap matrices. ">
<polygon fill="#ffffff" stroke="#000000" points="2098.5,-246.5 2098.5,-265.5 2221.5,-265.5 2221.5,-246.5 2098.5,-246.5"/>
<text text-anchor="middle" x="2160" y="-253.5" font-family="Helvetica,sans-Serif" font-size="10.00" fill="#000000">set_subspace_mtrx.hpp</text>
</a>
</g>
</g>
<!-- Node0&#45;&gt;Node179 -->
<g id="edge69" class="edge">
<title>Node0&#45;&gt;Node179</title>
<path fill="none" stroke="#191970" d="M1680.0662,-309.3345C1749.0445,-302.9277 1928.2517,-285.8074 2088.1626,-266.1947"/>
<polygon fill="#191970" stroke="#191970" points="2088.6838,-269.657 2098.1803,-264.9596 2087.8271,-262.7096 2088.6838,-269.657"/>
</g>
<!-- Node2 -->
<g id="node3" class="node">
<title>Node2</title>
<g id="a_node3"><a xlink:href="../../d1/db8/simulation__context_8hpp.html" target="_top" xlink:title="Contains definition and implementation of Simulation_context class. ">
<polygon fill="#ffffff" stroke="#000000" points="773.5,-129 773.5,-148 892.5,-148 892.5,-129 773.5,-129"/>
<text text-anchor="middle" x="833" y="-136" font-family="Helvetica,sans-Serif" font-size="10.00" fill="#000000">simulation_context.hpp</text>
</a>
</g>
</g>
<!-- Node1&#45;&gt;Node2 -->
<g id="edge2" class="edge">
<title>Node1&#45;&gt;Node2</title>
<path fill="none" stroke="#191970" d="M306.1651,-194.0752C413.234,-182.7806 646.2725,-158.1977 763.1775,-145.8655"/>
<polygon fill="#191970" stroke="#191970" points="763.8608,-149.3129 773.4384,-144.7831 763.1264,-142.3516 763.8608,-149.3129"/>
</g>
<!-- Node116 -->
<g id="node15" class="node">
<title>Node116</title>
<g id="a_node15"><a xlink:href="../../d0/df9/spheric__function_8hpp.html" target="_top" xlink:title="Contains declaration and implementation of sirius::Spheric_function and sirius::Spheric_function_grad...">
<polygon fill="#ffffff" stroke="#000000" points="168.5,-129 168.5,-148 277.5,-148 277.5,-129 168.5,-129"/>
<text text-anchor="middle" x="223" y="-136" font-family="Helvetica,sans-Serif" font-size="10.00" fill="#000000">spheric_function.hpp</text>
</a>
</g>
</g>
<!-- Node1&#45;&gt;Node116 -->
<g id="edge16" class="edge">
<title>Node1&#45;&gt;Node116</title>
<path fill="none" stroke="#191970" d="M245.7813,-190.3906C241.9204,-181.5965 236.0966,-168.3312 231.3039,-157.4145"/>
<polygon fill="#191970" stroke="#191970" points="234.5029,-155.9943 227.2782,-148.2449 228.0934,-158.8083 234.5029,-155.9943"/>
</g>
<!-- Node130 -->
<g id="node20" class="node">
<title>Node130</title>
<g id="a_node20"><a xlink:href="../../d6/ddf/smooth__periodic__function_8hpp.html" target="_top" xlink:title="Contains declaration and implementation of sirius::Smooth_periodic_function and sirius::Smooth_period...">
<polygon fill="#ffffff" stroke="#000000" points="0,-129 0,-148 150,-148 150,-129 0,-129"/>
<text text-anchor="middle" x="75" y="-136" font-family="Helvetica,sans-Serif" font-size="10.00" fill="#000000">smooth_periodic_function.hpp</text>
</a>
</g>
</g>
<!-- Node1&#45;&gt;Node130 -->
<g id="edge23" class="edge">
<title>Node1&#45;&gt;Node130</title>
<path fill="none" stroke="#191970" d="M222.6563,-190.3906C192.8618,-179.92 145.0315,-163.1111 111.9192,-151.4745"/>
<polygon fill="#191970" stroke="#191970" points="112.7466,-148.0554 102.1517,-148.0419 110.4257,-154.6595 112.7466,-148.0554"/>
</g>
<!-- Node3 -->
<g id="node4" class="node">
<title>Node3</title>
<polygon fill="#ffffff" stroke="#bfbfbf" points="589,-.5 589,-19.5 647,-19.5 647,-.5 589,-.5"/>
<text text-anchor="middle" x="618" y="-7.5" font-family="Helvetica,sans-Serif" font-size="10.00" fill="#000000">algorithm</text>
</g>
<!-- Node2&#45;&gt;Node3 -->
<g id="edge3" class="edge">
<title>Node2&#45;&gt;Node3</title>
<path fill="none" stroke="#191970" d="M773.1096,-129.8065C739.8841,-122.6395 699.2856,-109.7869 669,-87 648.864,-71.8497 634.2306,-46.2822 625.9324,-28.7972"/>
<polygon fill="#191970" stroke="#191970" points="629.0789,-27.2603 621.7848,-19.5761 622.695,-30.1318 629.0789,-27.2603"/>
</g>
<!-- Node4 -->
<g id="node5" class="node">
<title>Node4</title>
<polygon fill="#ffffff" stroke="#bfbfbf" points="678,-62 678,-81 746,-81 746,-62 678,-62"/>
<text text-anchor="middle" x="712" y="-69" font-family="Helvetica,sans-Serif" font-size="10.00" fill="#000000">version.hpp</text>
</g>
<!-- Node2&#45;&gt;Node4 -->
<g id="edge4" class="edge">
<title>Node2&#45;&gt;Node4</title>
<path fill="none" stroke="#191970" d="M815.6637,-128.9005C795.447,-117.7062 761.8128,-99.0823 738.3576,-86.0947"/>
<polygon fill="#191970" stroke="#191970" points="739.7481,-82.8639 729.3042,-81.0817 736.3571,-88.9878 739.7481,-82.8639"/>
</g>
<!-- Node5 -->
<g id="node6" class="node">
<title>Node5</title>
<g id="a_node6"><a xlink:href="../../de/d06/simulation__parameters_8hpp.html" target="_top" xlink:title="Contains definition and implementation of sirius::Simulation_parameters_base class. ">
<polygon fill="#ffffff" stroke="#ff0000" points="764.5,-62 764.5,-81 901.5,-81 901.5,-62 764.5,-62"/>
<text text-anchor="middle" x="833" y="-69" font-family="Helvetica,sans-Serif" font-size="10.00" fill="#000000">simulation_parameters.hpp</text>
</a>
</g>
</g>
<!-- Node2&#45;&gt;Node5 -->
<g id="edge5" class="edge">
<title>Node2&#45;&gt;Node5</title>
<path fill="none" stroke="#191970" d="M833,-128.9005C833,-119.149 833,-103.7597 833,-91.3695"/>
<polygon fill="#191970" stroke="#191970" points="836.5001,-91.0816 833,-81.0817 829.5001,-91.0817 836.5001,-91.0816"/>
</g>
<!-- Node66 -->
<g id="node7" class="node">
<title>Node66</title>
<g id="a_node7"><a xlink:href="../../d1/d76/mpi__grid_8hpp.html" target="_top" xlink:title="Contains declaration and implementation of sddk::MPI_grid class. ">
<polygon fill="#ffffff" stroke="#ff0000" points="920,-62 920,-81 994,-81 994,-62 920,-62"/>
<text text-anchor="middle" x="957" y="-69" font-family="Helvetica,sans-Serif" font-size="10.00" fill="#000000">mpi_grid.hpp</text>
</a>
</g>
</g>
<!-- Node2&#45;&gt;Node66 -->
<g id="edge6" class="edge">
<title>Node2&#45;&gt;Node66</title>
<path fill="none" stroke="#191970" d="M850.7662,-128.9005C871.5762,-117.6564 906.2588,-98.9166 930.3087,-85.9219"/>
<polygon fill="#191970" stroke="#191970" points="932.1327,-88.9147 939.2668,-81.0817 928.8051,-82.7561 932.1327,-88.9147"/>
</g>
<!-- Node100 -->
<g id="node8" class="node">
<title>Node100</title>
<g id="a_node8"><a xlink:href="../../d4/df7/radial__integrals_8hpp.html" target="_top" xlink:title="Representation of various radial integrals. ">
<polygon fill="#ffffff" stroke="#ff0000" points="1093,-.5 1093,-19.5 1197,-19.5 1197,-.5 1093,-.5"/>
<text text-anchor="middle" x="1145" y="-7.5" font-family="Helvetica,sans-Serif" font-size="10.00" fill="#000000">radial_integrals.hpp</text>
</a>
</g>
</g>
<!-- Node2&#45;&gt;Node100 -->
<g id="edge7" class="edge">
<title>Node2&#45;&gt;Node100</title>
<path fill="none" stroke="#191970" d="M872.6128,-128.9379C907.5821,-119.9266 959.602,-105.1193 1003,-87 1046.2461,-68.944 1093.5402,-41.6504 1121.1699,-24.8731"/>
<polygon fill="#191970" stroke="#191970" points="1123.0535,-27.8238 1129.7519,-19.6151 1119.3965,-21.855 1123.0535,-27.8238"/>
</g>
<!-- Node21 -->
<g id="node9" class="node">
<title>Node21</title>
<g id="a_node9"><a xlink:href="../../df/d93/utils_8hpp.html" target="_top" xlink:title="A collection of utility functions. ">
<polygon fill="#ffffff" stroke="#ff0000" points="448.5,-62 448.5,-81 531.5,-81 531.5,-62 448.5,-62"/>
<text text-anchor="middle" x="490" y="-69" font-family="Helvetica,sans-Serif" font-size="10.00" fill="#000000">../utils/utils.hpp</text>
</a>
</g>
</g>
<!-- Node2&#45;&gt;Node21 -->
<g id="edge8" class="edge">
<title>Node2&#45;&gt;Node21</title>
<path fill="none" stroke="#191970" d="M773.2875,-130.1235C713.9647,-121.2974 620.6021,-106.0429 541,-87 537.1117,-86.0698 533.0832,-85.0121 529.0727,-83.8965"/>
<polygon fill="#191970" stroke="#191970" points="529.8096,-80.4661 519.2305,-81.0435 527.8607,-87.1893 529.8096,-80.4661"/>
</g>
<!-- Node129 -->
<g id="node12" class="node">
<title>Node129</title>
<g id="a_node12"><a xlink:href="../../d3/d1c/augmentation__operator_8hpp.html" target="_top" xlink:title="Contains implementation of sirius::Augmentation_operator class. ">
<polygon fill="#ffffff" stroke="#000000" points="1088.5,-56.5 1088.5,-86.5 1201.5,-86.5 1201.5,-56.5 1088.5,-56.5"/>
<text text-anchor="start" x="1096.5" y="-74.5" font-family="Helvetica,sans-Serif" font-size="10.00" fill="#000000">Density/augmentation</text>
<text text-anchor="middle" x="1145" y="-63.5" font-family="Helvetica,sans-Serif" font-size="10.00" fill="#000000">_operator.hpp</text>
</a>
</g>
</g>
<!-- Node2&#45;&gt;Node129 -->
<g id="edge11" class="edge">
<title>Node2&#45;&gt;Node129</title>
<path fill="none" stroke="#191970" d="M877.3707,-128.9717C929.8817,-117.6953 1017.8294,-98.8091 1078.4933,-85.7819"/>
<polygon fill="#191970" stroke="#191970" points="1079.3181,-89.1846 1088.3603,-83.663 1077.8483,-82.3407 1079.3181,-89.1846"/>
</g>
<!-- Node55 -->
<g id="node13" class="node">
<title>Node55</title>
<g id="a_node13"><a xlink:href="../../d8/d7b/cuda_8hpp.html" target="_top" xlink:title="Interface to CUDA related functions. ">
<polygon fill="#ffffff" stroke="#ff0000" points="348,-62 348,-81 430,-81 430,-62 348,-62"/>
<text text-anchor="middle" x="389" y="-69" font-family="Helvetica,sans-Serif" font-size="10.00" fill="#000000">GPU/cuda.hpp</text>
</a>
</g>
</g>
<!-- Node2&#45;&gt;Node55 -->
<g id="edge13" class="edge">
<title>Node2&#45;&gt;Node55</title>
<path fill="none" stroke="#191970" d="M773.3822,-133.8972C695.7374,-127.1772 556.0938,-112.6059 439,-87 434.9049,-86.1045 430.6623,-85.0285 426.4583,-83.8661"/>
<polygon fill="#191970" stroke="#191970" points="427.3871,-80.4912 416.8066,-81.0415 425.4209,-87.2094 427.3871,-80.4912"/>
</g>
<!-- Node23 -->
<g id="node10" class="node">
<title>Node23</title>
<polygon fill="#ffffff" stroke="#bfbfbf" points="511,-.5 511,-19.5 555,-19.5 555,-.5 511,-.5"/>
<text text-anchor="middle" x="533" y="-7.5" font-family="Helvetica,sans-Serif" font-size="10.00" fill="#000000">cmath</text>
</g>
<!-- Node21&#45;&gt;Node23 -->
<g id="edge9" class="edge">
<title>Node21&#45;&gt;Node23</title>
<path fill="none" stroke="#191970" d="M496.7188,-61.8906C502.993,-52.917 512.5223,-39.2879 520.2404,-28.2491"/>
<polygon fill="#191970" stroke="#191970" points="523.3247,-29.9459 526.1865,-19.7449 517.5879,-25.9348 523.3247,-29.9459"/>
</g>
<!-- Node19 -->
<g id="node11" class="node">
<title>Node19</title>
<polygon fill="#ffffff" stroke="#bfbfbf" points="449,-.5 449,-19.5 493,-19.5 493,-.5 449,-.5"/>
<text text-anchor="middle" x="471" y="-7.5" font-family="Helvetica,sans-Serif" font-size="10.00" fill="#000000">vector</text>
</g>
<!-- Node21&#45;&gt;Node19 -->
<g id="edge10" class="edge">
<title>Node21&#45;&gt;Node19</title>
<path fill="none" stroke="#191970" d="M487.0313,-61.8906C484.3698,-53.276 480.3829,-40.3708 477.0509,-29.5858"/>
<polygon fill="#191970" stroke="#191970" points="480.3065,-28.2661 474.0106,-19.7449 473.6184,-30.3324 480.3065,-28.2661"/>
</g>
<!-- Node129&#45;&gt;Node100 -->
<g id="edge12" class="edge">
<title>Node129&#45;&gt;Node100</title>
<path fill="none" stroke="#191970" d="M1145,-56.2977C1145,-48.3834 1145,-38.6043 1145,-30.0759"/>
<polygon fill="#191970" stroke="#191970" points="1148.5001,-29.8469 1145,-19.8469 1141.5001,-29.847 1148.5001,-29.8469"/>
</g>
<!-- Node55&#45;&gt;Node19 -->
<g id="edge15" class="edge">
<title>Node55&#45;&gt;Node19</title>
<path fill="none" stroke="#191970" d="M401.8125,-61.8906C414.6901,-52.2324 434.7584,-37.1812 449.972,-25.771"/>
<polygon fill="#191970" stroke="#191970" points="452.3775,-28.3419 458.2775,-19.5419 448.1774,-22.7419 452.3775,-28.3419"/>
</g>
<!-- Node8 -->
<g id="node14" class="node">
<title>Node8</title>
<polygon fill="#ffffff" stroke="#bfbfbf" points="379,-.5 379,-19.5 431,-19.5 431,-.5 379,-.5"/>
<text text-anchor="middle" x="405" y="-7.5" font-family="Helvetica,sans-Serif" font-size="10.00" fill="#000000">assert.h</text>
</g>
<!-- Node55&#45;&gt;Node8 -->
<g id="edge14" class="edge">
<title>Node55&#45;&gt;Node8</title>
<path fill="none" stroke="#191970" d="M391.5,-61.8906C393.7412,-53.276 397.0986,-40.3708 399.9045,-29.5858"/>
<polygon fill="#191970" stroke="#191970" points="403.3341,-30.304 402.4648,-19.7449 396.5596,-28.5414 403.3341,-30.304"/>
</g>
<!-- Node40 -->
<g id="node16" class="node">
<title>Node40</title>
<polygon fill="#ffffff" stroke="#bfbfbf" points="94.5,-.5 94.5,-19.5 133.5,-19.5 133.5,-.5 94.5,-.5"/>
<text text-anchor="middle" x="114" y="-7.5" font-family="Helvetica,sans-Serif" font-size="10.00" fill="#000000">array</text>
</g>
<!-- Node116&#45;&gt;Node40 -->
<g id="edge17" class="edge">
<title>Node116&#45;&gt;Node40</title>
<path fill="none" stroke="#191970" d="M209.0555,-128.9901C195.6871,-119.4229 175.4588,-103.7256 161,-87 145.3931,-68.9463 131.714,-45.1047 123.1969,-28.7613"/>
<polygon fill="#191970" stroke="#191970" points="126.2332,-27.0099 118.5898,-19.673 119.9895,-30.175 126.2332,-27.0099"/>
</g>
<!-- Node117 -->
<g id="node17" class="node">
<title>Node117</title>
<polygon fill="#ffffff" stroke="#bfbfbf" points="170,-62 170,-81 222,-81 222,-62 170,-62"/>
<text text-anchor="middle" x="196" y="-69" font-family="Helvetica,sans-Serif" font-size="10.00" fill="#000000">typeinfo</text>
</g>
<!-- Node116&#45;&gt;Node117 -->
<g id="edge18" class="edge">
<title>Node116&#45;&gt;Node117</title>
<path fill="none" stroke="#191970" d="M219.1316,-128.9005C215.1216,-118.95 208.7461,-103.1292 203.703,-90.6147"/>
<polygon fill="#191970" stroke="#191970" points="206.8454,-89.0486 199.8613,-81.0817 200.3528,-91.6651 206.8454,-89.0486"/>
</g>
<!-- Node108 -->
<g id="node18" class="node">
<title>Node108</title>
<g id="a_node18"><a xlink:href="../../d9/d05/spline_8hpp.html" target="_top" xlink:title="Contains definition and partial implementaiton of sirius::Spline class. ">
<polygon fill="#ffffff" stroke="#ff0000" points="52,-62 52,-81 114,-81 114,-62 52,-62"/>
<text text-anchor="middle" x="83" y="-69" font-family="Helvetica,sans-Serif" font-size="10.00" fill="#000000">spline.hpp</text>
</a>
</g>
</g>
<!-- Node116&#45;&gt;Node108 -->
<g id="edge19" class="edge">
<title>Node116&#45;&gt;Node108</title>
<path fill="none" stroke="#191970" d="M202.9414,-128.9005C179.1344,-117.5072 139.2461,-98.4178 112.0604,-85.4075"/>
<polygon fill="#191970" stroke="#191970" points="113.5526,-82.2415 103.0214,-81.0817 110.5307,-88.5556 113.5526,-82.2415"/>
</g>
<!-- Node118 -->
<g id="node19" class="node">
<title>Node118</title>
<g id="a_node19"><a xlink:href="../../d0/db9/sht_8hpp.html" target="_top" xlink:title="Contains declaration and particular implementation of sirius::SHT class. ">
<polygon fill="#ffffff" stroke="#ff0000" points="550,-62 550,-81 622,-81 622,-62 550,-62"/>
<text text-anchor="middle" x="586" y="-69" font-family="Helvetica,sans-Serif" font-size="10.00" fill="#000000">SHT/sht.hpp</text>
</a>
</g>
</g>
<!-- Node116&#45;&gt;Node118 -->
<g id="edge20" class="edge">
<title>Node116&#45;&gt;Node118</title>
<path fill="none" stroke="#191970" d="M277.6761,-132.3835C341.2952,-124.6313 449.2174,-109.5078 540,-87 543.3741,-86.1635 546.8552,-85.1941 550.3212,-84.1563"/>
<polygon fill="#191970" stroke="#191970" points="551.473,-87.4629 559.9477,-81.1045 549.3576,-80.7902 551.473,-87.4629"/>
</g>
<!-- Node118&#45;&gt;Node3 -->
<g id="edge22" class="edge">
<title>Node118&#45;&gt;Node3</title>
<path fill="none" stroke="#191970" d="M591,-61.8906C595.5758,-53.0965 602.4781,-39.8312 608.1583,-28.9145"/>
<polygon fill="#191970" stroke="#191970" points="611.4185,-30.2314 612.9295,-19.7449 605.2088,-27.0003 611.4185,-30.2314"/>
</g>
<!-- Node118&#45;&gt;Node19 -->
<g id="edge21" class="edge">
<title>Node118&#45;&gt;Node19</title>
<path fill="none" stroke="#191970" d="M568.0313,-61.8906C549.2116,-51.8262 519.4415,-35.9057 497.8359,-24.3514"/>
<polygon fill="#191970" stroke="#191970" points="499.3114,-21.1714 488.8426,-19.5419 496.0102,-27.3442 499.3114,-21.1714"/>
</g>
<!-- Node132 -->
<g id="node22" class="node">
<title>Node132</title>
<g id="a_node22"><a xlink:href="../../d3/d9a/k__point_8hpp.html" target="_top" xlink:title="Contains definition and partial implementation of sirius::K_point class. ">
<polygon fill="#ffffff" stroke="#000000" points="1534,-129 1534,-148 1602,-148 1602,-129 1534,-129"/>
<text text-anchor="middle" x="1568" y="-136" font-family="Helvetica,sans-Serif" font-size="10.00" fill="#000000">k_point.hpp</text>
</a>
</g>
</g>
<!-- Node131&#45;&gt;Node132 -->
<g id="edge25" class="edge">
<title>Node131&#45;&gt;Node132</title>
<path fill="none" stroke="#191970" d="M1202.2349,-191.0574C1289.6999,-178.4894 1446.851,-155.9081 1523.5089,-144.893"/>
<polygon fill="#191970" stroke="#191970" points="1524.3753,-148.3045 1533.7758,-143.4177 1523.3796,-141.3757 1524.3753,-148.3045"/>
</g>
<!-- Node82 -->
<g id="node32" class="node">
<title>Node82</title>
<g id="a_node32"><a xlink:href="../../d6/d99/geometry3d_8hpp.html" target="_top" xlink:title="Simple classes and functions to work with the 3D vectors and matrices of the crystal lattice...">
<polygon fill="#ffffff" stroke="#ff0000" points="240.5,-62 240.5,-81 329.5,-81 329.5,-62 240.5,-62"/>
<text text-anchor="middle" x="285" y="-69" font-family="Helvetica,sans-Serif" font-size="10.00" fill="#000000">geometry3d.hpp</text>
</a>
</g>
</g>
<!-- Node131&#45;&gt;Node82 -->
<g id="edge35" class="edge">
<title>Node131&#45;&gt;Node82</title>
<path fill="none" stroke="#191970" d="M1077.707,-193.0478C1003.0564,-184.5619 874.2321,-169.4271 764,-154 740.328,-150.6871 362.3373,-92.1682 339,-87 334.5957,-86.0246 330.0202,-84.8958 325.4793,-83.7007"/>
<polygon fill="#191970" stroke="#191970" points="326.2426,-80.2809 315.6731,-81.0127 324.3921,-87.0319 326.2426,-80.2809"/>
</g>
<!-- Node142 -->
<g id="node36" class="node">
<title>Node142</title>
<g id="a_node36"><a xlink:href="../../d5/df3/smearing_8hpp.html" target="_top" xlink:title="Smearing functions used in finding the band occupancies. ">
<polygon fill="#ffffff" stroke="#000000" points="1048.5,-129 1048.5,-148 1125.5,-148 1125.5,-129 1048.5,-129"/>
<text text-anchor="middle" x="1087" y="-136" font-family="Helvetica,sans-Serif" font-size="10.00" fill="#000000">smearing.hpp</text>
</a>
</g>
</g>
<!-- Node131&#45;&gt;Node142 -->
<g id="edge43" class="edge">
<title>Node131&#45;&gt;Node142</title>
<path fill="none" stroke="#191970" d="M1131.7188,-190.3906C1123.8307,-181.2376 1111.7686,-167.2409 1102.1588,-156.09"/>
<polygon fill="#191970" stroke="#191970" points="1104.5775,-153.5352 1095.398,-148.2449 1099.2749,-158.1049 1104.5775,-153.5352"/>
</g>
<!-- Node133 -->
<g id="node23" class="node">
<title>Node133</title>
<g id="a_node23"><a xlink:href="../../db/d47/matching__coefficients_8hpp.html" target="_top" xlink:title="Contains definition and partial implementation of sirius::Matching_coefficients class. ">
<polygon fill="#ffffff" stroke="#000000" points="1382,-62 1382,-81 1514,-81 1514,-62 1382,-62"/>
<text text-anchor="middle" x="1448" y="-69" font-family="Helvetica,sans-Serif" font-size="10.00" fill="#000000">matching_coefficients.hpp</text>
</a>
</g>
</g>
<!-- Node132&#45;&gt;Node133 -->
<g id="edge26" class="edge">
<title>Node132&#45;&gt;Node133</title>
<path fill="none" stroke="#191970" d="M1550.8069,-128.9005C1530.7573,-117.7062 1497.4012,-99.0823 1474.1398,-86.0947"/>
<polygon fill="#191970" stroke="#191970" points="1475.5987,-82.9007 1465.1612,-81.0817 1472.1862,-89.0126 1475.5987,-82.9007"/>
</g>
<!-- Node134 -->
<g id="node24" class="node">
<title>Node134</title>
<g id="a_node24"><a xlink:href="../../d0/d85/beta__projectors_8hpp.html" target="_top" xlink:title="Contains declaration and implementation of sirius::Beta_projectors class. ">
<polygon fill="#ffffff" stroke="#ff0000" points="2298.5,-56.5 2298.5,-86.5 2407.5,-86.5 2407.5,-56.5 2298.5,-56.5"/>
<text text-anchor="start" x="2306.5" y="-74.5" font-family="Helvetica,sans-Serif" font-size="10.00" fill="#000000">Beta_projectors/beta</text>
<text text-anchor="middle" x="2353" y="-63.5" font-family="Helvetica,sans-Serif" font-size="10.00" fill="#000000">_projectors.hpp</text>
</a>
</g>
</g>
<!-- Node132&#45;&gt;Node134 -->
<g id="edge27" class="edge">
<title>Node132&#45;&gt;Node134</title>
<path fill="none" stroke="#191970" d="M1593.3423,-128.9653C1600.5651,-126.6196 1608.5084,-124.3856 1616,-123 1907.235,-69.133 1990.757,-129.0611 2288.102,-86.9203"/>
<polygon fill="#191970" stroke="#191970" points="2288.9203,-90.3385 2298.3171,-85.4446 2287.9194,-83.4104 2288.9203,-90.3385"/>
</g>
<!-- Node89 -->
<g id="node25" class="node">
<title>Node89</title>
<g id="a_node25"><a xlink:href="../../d7/de9/wave__functions_8hpp.html" target="_top" xlink:title="Contains declaration and implementation of Wave_functions class. ">
<polygon fill="#ffffff" stroke="#ff0000" points="1258.5,-62 1258.5,-81 1363.5,-81 1363.5,-62 1258.5,-62"/>
<text text-anchor="middle" x="1311" y="-69" font-family="Helvetica,sans-Serif" font-size="10.00" fill="#000000">wave_functions.hpp</text>
</a>
</g>
</g>
<!-- Node132&#45;&gt;Node89 -->
<g id="edge28" class="edge">
<title>Node132&#45;&gt;Node89</title>
<path fill="none" stroke="#191970" d="M1533.8724,-129.6029C1488.5578,-117.7894 1408.3476,-96.8786 1357.5191,-83.6275"/>
<polygon fill="#191970" stroke="#191970" points="1358.3237,-80.2204 1347.7642,-81.0844 1356.5578,-86.994 1358.3237,-80.2204"/>
</g>
<!-- Node136 -->
<g id="node26" class="node">
<title>Node136</title>
<g id="a_node26"><a xlink:href="../../d4/dd6/initialize_8hpp.html" target="_top" xlink:title="Initialize sirius::K_point class. ">
<polygon fill="#ffffff" stroke="#000000" points="1532,-62 1532,-81 1604,-81 1604,-62 1532,-62"/>
<text text-anchor="middle" x="1568" y="-69" font-family="Helvetica,sans-Serif" font-size="10.00" fill="#000000">initialize.hpp</text>
</a>
</g>
</g>
<!-- Node132&#45;&gt;Node136 -->
<g id="edge29" class="edge">
<title>Node132&#45;&gt;Node136</title>
<path fill="none" stroke="#191970" d="M1568,-128.9005C1568,-119.149 1568,-103.7597 1568,-91.3695"/>
<polygon fill="#191970" stroke="#191970" points="1571.5001,-91.0816 1568,-81.0817 1564.5001,-91.0817 1571.5001,-91.0816"/>
</g>
<!-- Node137 -->
<g id="node27" class="node">
<title>Node137</title>
<g id="a_node27"><a xlink:href="../../d6/dcb/generate__fv__states_8hpp.html" target="_top" xlink:title="Contains implementation of sirius::K_point::generate_fv_states method. ">
<polygon fill="#ffffff" stroke="#000000" points="1622.5,-62 1622.5,-81 1743.5,-81 1743.5,-62 1622.5,-62"/>
<text text-anchor="middle" x="1683" y="-69" font-family="Helvetica,sans-Serif" font-size="10.00" fill="#000000">generate_fv_states.hpp</text>
</a>
</g>
</g>
<!-- Node132&#45;&gt;Node137 -->
<g id="edge30" class="edge">
<title>Node132&#45;&gt;Node137</title>
<path fill="none" stroke="#191970" d="M1584.4767,-128.9005C1603.6055,-117.7559 1635.3733,-99.2477 1657.6516,-86.2682"/>
<polygon fill="#191970" stroke="#191970" points="1659.6753,-89.1399 1666.5539,-81.0817 1656.1514,-83.0916 1659.6753,-89.1399"/>
</g>
<!-- Node138 -->
<g id="node28" class="node">
<title>Node138</title>
<g id="a_node28"><a xlink:href="../../d1/dfa/generate__spinor__wave__functions_8hpp.html" target="_top" xlink:title="Generate LAPW spinor wave functions from first&#45;variational states. ">
<polygon fill="#ffffff" stroke="#000000" points="1762,-56.5 1762,-86.5 1880,-86.5 1880,-56.5 1762,-56.5"/>
<text text-anchor="start" x="1770" y="-74.5" font-family="Helvetica,sans-Serif" font-size="10.00" fill="#000000">generate_spinor_wave</text>
<text text-anchor="middle" x="1821" y="-63.5" font-family="Helvetica,sans-Serif" font-size="10.00" fill="#000000">_functions.hpp</text>
</a>
</g>
</g>
<!-- Node132&#45;&gt;Node138 -->
<g id="edge31" class="edge">
<title>Node132&#45;&gt;Node138</title>
<path fill="none" stroke="#191970" d="M1596.5863,-128.9264C1602.9526,-126.8901 1609.6866,-124.8102 1616,-123 1661.0387,-110.0861 1712.1453,-97.2432 1752.0636,-87.6127"/>
<polygon fill="#191970" stroke="#191970" points="1753.0548,-90.9743 1761.9607,-85.2354 1751.4198,-84.1679 1753.0548,-90.9743"/>
</g>
<!-- Node139 -->
<g id="node29" class="node">
<title>Node139</title>
<g id="a_node29"><a xlink:href="../../d6/d78/generate__gklo__basis_8hpp.html" target="_top" xlink:title="Generate LAPW basis of G+k augmented plane waves and local orbitals. ">
<polygon fill="#ffffff" stroke="#000000" points="1898,-62 1898,-81 2026,-81 2026,-62 1898,-62"/>
<text text-anchor="middle" x="1962" y="-69" font-family="Helvetica,sans-Serif" font-size="10.00" fill="#000000">generate_gklo_basis.hpp</text>
</a>
</g>
</g>
<!-- Node132&#45;&gt;Node139 -->
<g id="edge32" class="edge">
<title>Node132&#45;&gt;Node139</title>
<path fill="none" stroke="#191970" d="M1594.6722,-128.9407C1601.5528,-126.737 1608.995,-124.5792 1616,-123 1735.3876,-96.0858 1768.3839,-107.7253 1889,-87 1895.6918,-85.8502 1902.703,-84.5215 1909.6224,-83.1355"/>
<polygon fill="#191970" stroke="#191970" points="1910.5546,-86.5172 1919.6466,-81.0779 1909.147,-79.6602 1910.5546,-86.5172"/>
</g>
<!-- Node140 -->
<g id="node30" class="node">
<title>Node140</title>
<g id="a_node30"><a xlink:href="../../d7/d13/generate__atomic__wave__functions_8hpp.html" target="_top" xlink:title="Generation of initial guess atomic wave&#45;functions. ">
<polygon fill="#ffffff" stroke="#000000" points="2044,-56.5 2044,-86.5 2164,-86.5 2164,-56.5 2044,-56.5"/>
<text text-anchor="start" x="2052" y="-74.5" font-family="Helvetica,sans-Serif" font-size="10.00" fill="#000000">generate_atomic_wave</text>
<text text-anchor="middle" x="2104" y="-63.5" font-family="Helvetica,sans-Serif" font-size="10.00" fill="#000000">_functions.hpp</text>
</a>
</g>
</g>
<!-- Node132&#45;&gt;Node140 -->
<g id="edge33" class="edge">
<title>Node132&#45;&gt;Node140</title>
<path fill="none" stroke="#191970" d="M1593.872,-128.9616C1600.9605,-126.6749 1608.7035,-124.4717 1616,-123 1795.998,-86.6948 1848.4486,-114.5315 2033.8021,-87.0376"/>
<polygon fill="#191970" stroke="#191970" points="2034.519,-90.4689 2043.8806,-85.5079 2033.4686,-83.5482 2034.519,-90.4689"/>
</g>
<!-- Node141 -->
<g id="node31" class="node">
<title>Node141</title>
<g id="a_node31"><a xlink:href="../../d4/d32/test__fv__states_8hpp.html" target="_top" xlink:title="Test orthonormalisation of first&#45;variational states. ">
<polygon fill="#ffffff" stroke="#000000" points="2182,-62 2182,-81 2280,-81 2280,-62 2182,-62"/>
<text text-anchor="middle" x="2231" y="-69" font-family="Helvetica,sans-Serif" font-size="10.00" fill="#000000">test_fv_states.hpp</text>
</a>
</g>
</g>
<!-- Node132&#45;&gt;Node141 -->
<g id="edge34" class="edge">
<title>Node132&#45;&gt;Node141</title>
<path fill="none" stroke="#191970" d="M1593.6018,-128.9388C1600.7579,-126.623 1608.6023,-124.4108 1616,-123 1859.6804,-76.5284 1928.2097,-127.2179 2173,-87 2178.5281,-86.0918 2184.2918,-84.8816 2189.9482,-83.5364"/>
<polygon fill="#191970" stroke="#191970" points="2191.106,-86.8537 2199.9402,-81.0051 2189.3869,-80.0681 2191.106,-86.8537"/>
</g>
<!-- Node82&#45;&gt;Node23 -->
<g id="edge37" class="edge">
<title>Node82&#45;&gt;Node23</title>
<path fill="none" stroke="#191970" d="M316.8914,-61.9906C324.1367,-59.9294 331.8149,-57.8228 339,-56 407.8223,-38.5407 428.6228,-39.3047 500.6973,-20.1659"/>
<polygon fill="#191970" stroke="#191970" points="501.9793,-23.4454 510.7244,-17.4642 500.1581,-16.6864 501.9793,-23.4454"/>
</g>
<!-- Node82&#45;&gt;Node19 -->
<g id="edge39" class="edge">
<title>Node82&#45;&gt;Node19</title>
<path fill="none" stroke="#191970" d="M314.0625,-61.8906C348.005,-50.6677 403.9709,-32.1628 439.0911,-20.5505"/>
<polygon fill="#191970" stroke="#191970" points="440.4453,-23.7892 448.841,-17.3268 438.2477,-17.1431 440.4453,-23.7892"/>
</g>
<!-- Node82&#45;&gt;Node8 -->
<g id="edge36" class="edge">
<title>Node82&#45;&gt;Node8</title>
<path fill="none" stroke="#191970" d="M303.75,-61.8906C323.476,-51.7811 354.7312,-35.7628 377.3,-24.1962"/>
<polygon fill="#191970" stroke="#191970" points="379.0787,-27.2176 386.3817,-19.5419 375.886,-20.9881 379.0787,-27.2176"/>
</g>
<!-- Node82&#45;&gt;Node40 -->
<g id="edge38" class="edge">
<title>Node82&#45;&gt;Node40</title>
<path fill="none" stroke="#191970" d="M258.2813,-61.8906C227.0896,-50.6726 175.6683,-32.1789 143.3777,-20.5657"/>
<polygon fill="#191970" stroke="#191970" points="144.2103,-17.1457 133.6159,-17.0548 141.8413,-23.7326 144.2103,-17.1457"/>
</g>
<!-- Node49 -->
<g id="node33" class="node">
<title>Node49</title>
<polygon fill="#ffffff" stroke="#bfbfbf" points="307.5,-.5 307.5,-19.5 360.5,-19.5 360.5,-.5 307.5,-.5"/>
<text text-anchor="middle" x="334" y="-7.5" font-family="Helvetica,sans-Serif" font-size="10.00" fill="#000000">ostream</text>
</g>
<!-- Node82&#45;&gt;Node49 -->
<g id="edge40" class="edge">
<title>Node82&#45;&gt;Node49</title>
<path fill="none" stroke="#191970" d="M292.6563,-61.8906C299.9489,-52.7376 311.1007,-38.7409 319.9852,-27.59"/>
<polygon fill="#191970" stroke="#191970" points="322.7417,-29.747 326.2358,-19.7449 317.267,-25.3849 322.7417,-29.747"/>
</g>
<!-- Node44 -->
<g id="node34" class="node">
<title>Node44</title>
<polygon fill="#ffffff" stroke="#bfbfbf" points="152,-.5 152,-19.5 198,-19.5 198,-.5 152,-.5"/>
<text text-anchor="middle" x="175" y="-7.5" font-family="Helvetica,sans-Serif" font-size="10.00" fill="#000000">cstring</text>
</g>
<!-- Node82&#45;&gt;Node44 -->
<g id="edge41" class="edge">
<title>Node82&#45;&gt;Node44</title>
<path fill="none" stroke="#191970" d="M267.8125,-61.8906C249.8918,-51.8713 221.5905,-36.0483 200.9477,-24.5071"/>
<polygon fill="#191970" stroke="#191970" points="202.5033,-21.367 192.0668,-19.5419 199.0872,-27.4769 202.5033,-21.367"/>
</g>
<!-- Node31 -->
<g id="node35" class="node">
<title>Node31</title>
<polygon fill="#ffffff" stroke="#bfbfbf" points="216.5,-.5 216.5,-19.5 289.5,-19.5 289.5,-.5 216.5,-.5"/>
<text text-anchor="middle" x="253" y="-7.5" font-family="Helvetica,sans-Serif" font-size="10.00" fill="#000000">initializer_list</text>
</g>
<!-- Node82&#45;&gt;Node31 -->
<g id="edge42" class="edge">
<title>Node82&#45;&gt;Node31</title>
<path fill="none" stroke="#191970" d="M280,-61.8906C275.4242,-53.0965 268.5219,-39.8312 262.8417,-28.9145"/>
<polygon fill="#191970" stroke="#191970" points="265.7912,-27.0003 258.0705,-19.7449 259.5815,-30.2314 265.7912,-27.0003"/>
</g>
<!-- Node142&#45;&gt;Node23 -->
<g id="edge44" class="edge">
<title>Node142&#45;&gt;Node23</title>
<path fill="none" stroke="#191970" d="M1080.7554,-128.9622C1068.3876,-110.9967 1038.8485,-72.4689 1003,-56 917.2738,-16.6171 673.3186,-33.8433 580,-20 575.1983,-19.2877 570.1513,-18.3826 565.2185,-17.4091"/>
<polygon fill="#191970" stroke="#191970" points="565.8729,-13.9703 555.3689,-15.3547 564.4436,-20.8229 565.8729,-13.9703"/>
</g>
<!-- Node143&#45;&gt;Node2 -->
<g id="edge47" class="edge">
<title>Node143&#45;&gt;Node2</title>
<path fill="none" stroke="#191970" d="M1336.3244,-249.6218C1267.3112,-242.6953 1160.2555,-229.8823 1069,-210 996.9045,-194.2922 914.9139,-167.3261 869.031,-151.381"/>
<polygon fill="#191970" stroke="#191970" points="870.1273,-148.0566 859.5324,-148.0579 867.8156,-154.6639 870.1273,-148.0566"/>
</g>
<!-- Node143&#45;&gt;Node117 -->
<g id="edge46" class="edge">
<title>Node143&#45;&gt;Node117</title>
<path fill="none" stroke="#191970" d="M1336.3024,-249.5524C1189.9769,-235.9128 846.643,-201.4488 561,-154 413.364,-129.4759 373.589,-132.4556 231,-87 229.1005,-86.3945 227.1656,-85.718 225.2295,-84.9955"/>
<polygon fill="#191970" stroke="#191970" points="226.2815,-81.6449 215.6999,-81.1154 223.6417,-88.1281 226.2815,-81.6449"/>
</g>
<!-- Node143&#45;&gt;Node132 -->
<g id="edge57" class="edge">
<title>Node143&#45;&gt;Node132</title>
<path fill="none" stroke="#191970" d="M1405.6951,-246.3141C1402.971,-232.3102 1400.2723,-206.3045 1413,-190 1426.8335,-172.2789 1482.9943,-156.7528 1523.7416,-147.5011"/>
<polygon fill="#191970" stroke="#191970" points="1524.728,-150.8675 1533.7338,-145.2867 1523.2134,-144.0333 1524.728,-150.8675"/>
</g>
<!-- Node144 -->
<g id="node38" class="node">
<title>Node144</title>
<g id="a_node38"><a xlink:href="../../db/d74/hubbard_8hpp.html" target="_top" xlink:title="Contains declaration and partial implementation of sirius::Hubbard class. ">
<polygon fill="#ffffff" stroke="#ff0000" points="1247,-190.5 1247,-209.5 1361,-209.5 1361,-190.5 1247,-190.5"/>
<text text-anchor="middle" x="1304" y="-197.5" font-family="Helvetica,sans-Serif" font-size="10.00" fill="#000000">Hubbard/hubbard.hpp</text>
</a>
</g>
</g>
<!-- Node143&#45;&gt;Node144 -->
<g id="edge48" class="edge">
<title>Node143&#45;&gt;Node144</title>
<path fill="none" stroke="#191970" d="M1389.8846,-246.2455C1373.555,-237.4527 1349.329,-224.4079 1330.7661,-214.4125"/>
<polygon fill="#191970" stroke="#191970" points="1332.3719,-211.3021 1321.9078,-209.6427 1329.0532,-217.4654 1332.3719,-211.3021"/>
</g>
<!-- Node145 -->
<g id="node39" class="node">
<title>Node145</title>
<g id="a_node39"><a xlink:href="../../de/de7/non__local__operator_8hpp.html" target="_top" xlink:title="Contains declaration and implementation of sirius::Non_local_operator class. ">
<polygon fill="#ffffff" stroke="#000000" points="1658.5,-123.5 1658.5,-153.5 1773.5,-153.5 1773.5,-123.5 1658.5,-123.5"/>
<text text-anchor="start" x="1666.5" y="-141.5" font-family="Helvetica,sans-Serif" font-size="10.00" fill="#000000">Hamiltonian/non_local</text>
<text text-anchor="middle" x="1716" y="-130.5" font-family="Helvetica,sans-Serif" font-size="10.00" fill="#000000">_operator.hpp</text>
</a>
</g>
</g>
<!-- Node143&#45;&gt;Node145 -->
<g id="edge60" class="edge">
<title>Node143&#45;&gt;Node145</title>
<path fill="none" stroke="#191970" d="M1410.76,-246.1199C1415.4237,-231.3751 1426.3332,-203.8665 1446,-190 1519.0997,-138.4593 1556.2689,-171.4141 1644,-154 1645.4501,-153.7122 1646.9161,-153.4187 1648.3937,-153.1207"/>
<polygon fill="#191970" stroke="#191970" points="1649.1704,-156.5344 1658.2653,-151.1 1647.7665,-149.6766 1649.1704,-156.5344"/>
</g>
<!-- Node154 -->
<g id="node40" class="node">
<title>Node154</title>
<g id="a_node40"><a xlink:href="../../de/df2/potential_8hpp.html" target="_top" xlink:title="Contains declaration and partial implementation of sirius::Potential class. ">
<polygon fill="#ffffff" stroke="#ff0000" points="1794.5,-129 1794.5,-148 1909.5,-148 1909.5,-129 1794.5,-129"/>
<text text-anchor="middle" x="1852" y="-136" font-family="Helvetica,sans-Serif" font-size="10.00" fill="#000000">Potential/potential.hpp</text>
</a>
</g>
</g>
<!-- Node143&#45;&gt;Node154 -->
<g id="edge56" class="edge">
<title>Node143&#45;&gt;Node154</title>
<path fill="none" stroke="#191970" d="M1479.9134,-246.9209C1579.6841,-234.2605 1748.66,-212.5581 1755,-210 1786.4618,-197.3059 1816.9869,-172.0037 1835.1376,-155.1604"/>
<polygon fill="#191970" stroke="#191970" points="1837.7337,-157.5215 1842.5653,-148.0925 1832.9082,-152.4505 1837.7337,-157.5215"/>
</g>
<!-- Node170 -->
<g id="node41" class="node">
<title>Node170</title>
<g id="a_node41"><a xlink:href="../../d3/d2c/local__operator_8hpp.html" target="_top" xlink:title="Contains declaration and implementation of sirius::Local_operator class. ">
<polygon fill="#ffffff" stroke="#000000" points="1803.5,-190.5 1803.5,-209.5 1902.5,-209.5 1902.5,-190.5 1803.5,-190.5"/>
<text text-anchor="middle" x="1853" y="-197.5" font-family="Helvetica,sans-Serif" font-size="10.00" fill="#000000">local_operator.hpp</text>
</a>
</g>
</g>
<!-- Node143&#45;&gt;Node170 -->
<g id="edge58" class="edge">
<title>Node143&#45;&gt;Node170</title>
<path fill="none" stroke="#191970" d="M1479.552,-247.153C1482.7449,-246.7625 1485.9056,-246.3767 1489,-246 1622.3059,-229.7729 1655.9723,-228.3685 1789,-210 1790.4622,-209.7981 1791.9426,-209.5906 1793.4356,-209.3787"/>
<polygon fill="#191970" stroke="#191970" points="1794.02,-212.8306 1803.4114,-207.9264 1793.0115,-205.9036 1794.02,-212.8306"/>
</g>
<!-- Node171 -->
<g id="node42" class="node">
<title>Node171</title>
<g id="a_node42"><a xlink:href="../../d7/d4c/apply_8hpp.html" target="_top" xlink:title="Contains implementation of various sirius::Hamiltonian apply() functions. ">
<polygon fill="#ffffff" stroke="#000000" points="1455,-190.5 1455,-209.5 1515,-209.5 1515,-190.5 1455,-190.5"/>
<text text-anchor="middle" x="1485" y="-197.5" font-family="Helvetica,sans-Serif" font-size="10.00" fill="#000000">apply.hpp</text>
</a>
</g>
</g>
<!-- Node143&#45;&gt;Node171 -->
<g id="edge61" class="edge">
<title>Node143&#45;&gt;Node171</title>
<path fill="none" stroke="#191970" d="M1421.4124,-246.2455C1433.0057,-237.814 1449.9748,-225.4729 1463.4678,-215.6598"/>
<polygon fill="#191970" stroke="#191970" points="1465.7126,-218.355 1471.7413,-209.6427 1461.5953,-212.6938 1465.7126,-218.355"/>
</g>
<!-- Node172 -->
<g id="node43" class="node">
<title>Node172</title>
<g id="a_node43"><a xlink:href="../../d2/dc1/set__lapw__h__o_8hpp.html" target="_top" xlink:title="Contains functions of LAPW Hamiltonian and overlap setup. ">
<polygon fill="#ffffff" stroke="#000000" points="1533,-190.5 1533,-209.5 1631,-209.5 1631,-190.5 1533,-190.5"/>
<text text-anchor="middle" x="1582" y="-197.5" font-family="Helvetica,sans-Serif" font-size="10.00" fill="#000000">set_lapw_h_o.hpp</text>
</a>
</g>
</g>
<!-- Node143&#45;&gt;Node172 -->
<g id="edge62" class="edge">
<title>Node143&#45;&gt;Node172</title>
<path fill="none" stroke="#191970" d="M1437.9117,-246.3733C1466.8452,-237.0613 1510.8611,-222.8953 1542.6293,-212.671"/>
<polygon fill="#191970" stroke="#191970" points="1544.0318,-215.8965 1552.4787,-209.5011 1541.8872,-209.2331 1544.0318,-215.8965"/>
</g>
<!-- Node173 -->
<g id="node44" class="node">
<title>Node173</title>
<g id="a_node44"><a xlink:href="../../d5/d93/get__h__o__diag_8hpp.html" target="_top" xlink:title="Get diagonal values of Hamiltonian and overlap matrices. ">
<polygon fill="#ffffff" stroke="#000000" points="1649.5,-190.5 1649.5,-209.5 1746.5,-209.5 1746.5,-190.5 1649.5,-190.5"/>
<text text-anchor="middle" x="1698" y="-197.5" font-family="Helvetica,sans-Serif" font-size="10.00" fill="#000000">get_h_o_diag.hpp</text>
</a>
</g>
</g>
<!-- Node143&#45;&gt;Node173 -->
<g id="edge63" class="edge">
<title>Node143&#45;&gt;Node173</title>
<path fill="none" stroke="#191970" d="M1457.5233,-246.4369C1507.8278,-236.7229 1585.7315,-221.6794 1639.1545,-211.3633"/>
<polygon fill="#191970" stroke="#191970" points="1640.0097,-214.7629 1649.1647,-209.4303 1638.6825,-207.8898 1640.0097,-214.7629"/>
</g>
<!-- Node144&#45;&gt;Node2 -->
<g id="edge49" class="edge">
<title>Node144&#45;&gt;Node2</title>
<path fill="none" stroke="#191970" d="M1246.717,-192.5204C1160.1427,-181.2161 996.1846,-159.8075 902.7715,-147.6103"/>
<polygon fill="#191970" stroke="#191970" points="903.2175,-144.1389 892.8485,-146.3146 902.3112,-151.08 903.2175,-144.1389"/>
</g>
<!-- Node144&#45;&gt;Node100 -->
<g id="edge55" class="edge">
<title>Node144&#45;&gt;Node100</title>
<path fill="none" stroke="#191970" d="M1299.3495,-190.3804C1287.194,-165.9039 1252.457,-100.0817 1210,-56 1198.5013,-44.0613 1183.5155,-33.2154 1170.8312,-25.0574"/>
<polygon fill="#191970" stroke="#191970" points="1172.4243,-21.9264 1162.0846,-19.615 1168.7261,-27.8698 1172.4243,-21.9264"/>
</g>
<!-- Node144&#45;&gt;Node132 -->
<g id="edge50" class="edge">
<title>Node144&#45;&gt;Node132</title>
<path fill="none" stroke="#191970" d="M1344.9603,-190.4581C1393.4675,-179.1581 1473.9545,-160.4083 1523.8251,-148.7908"/>
<polygon fill="#191970" stroke="#191970" points="1524.7308,-152.1736 1533.6759,-146.4959 1523.1426,-145.3561 1524.7308,-152.1736"/>
</g>
<!-- Node144&#45;&gt;Node134 -->
<g id="edge54" class="edge">
<title>Node144&#45;&gt;Node134</title>
<path fill="none" stroke="#191970" d="M1361.2018,-195.0747C1437.3204,-187.8995 1567.3819,-173.2965 1611,-154 1630.9325,-145.1819 1628.681,-130.8867 1649,-123 1778.9418,-72.5641 2132.4559,-106.3273 2288.3382,-86.7993"/>
<polygon fill="#191970" stroke="#191970" points="2288.8823,-90.2576 2298.3156,-85.4345 2287.9335,-83.3222 2288.8823,-90.2576"/>
</g>
<!-- Node144&#45;&gt;Node89 -->
<g id="edge51" class="edge">
<title>Node144&#45;&gt;Node89</title>
<path fill="none" stroke="#191970" d="M1304.5261,-190.3416C1305.6663,-169.4114 1308.385,-119.504 1309.9118,-91.4762"/>
<polygon fill="#191970" stroke="#191970" points="1313.4185,-91.4461 1310.4678,-81.2705 1306.4289,-91.0652 1313.4185,-91.4461"/>
</g>
<!-- Node144&#45;&gt;Node145 -->
<g id="edge52" class="edge">
<title>Node144&#45;&gt;Node145</title>
<path fill="none" stroke="#191970" d="M1361.0578,-193.6509C1428.7734,-185.7996 1544.988,-171.3285 1644,-154 1645.4563,-153.7451 1646.9279,-153.4817 1648.4105,-153.2109"/>
<polygon fill="#191970" stroke="#191970" points="1649.1369,-156.6356 1658.3085,-151.3316 1647.8312,-149.7584 1649.1369,-156.6356"/>
</g>
<!-- Node145&#45;&gt;Node134 -->
<g id="edge53" class="edge">
<title>Node145&#45;&gt;Node134</title>
<path fill="none" stroke="#191970" d="M1773.5575,-125.0544C1777.7555,-124.2893 1781.9354,-123.5922 1786,-123 2004.5369,-91.1595 2065.7579,-120.6077 2288.2752,-86.9232"/>
<polygon fill="#191970" stroke="#191970" points="2288.9562,-90.3596 2298.3071,-85.3786 2287.891,-83.4412 2288.9562,-90.3596"/>
</g>
<!-- Node170&#45;&gt;Node154 -->
<g id="edge59" class="edge">
<title>Node170&#45;&gt;Node154</title>
<path fill="none" stroke="#191970" d="M1852.8438,-190.3906C1852.7051,-181.8657 1852.4982,-169.1392 1852.324,-158.4235"/>
<polygon fill="#191970" stroke="#191970" points="1855.8207,-158.1866 1852.1585,-148.2449 1848.8216,-158.3005 1855.8207,-158.1866"/>
</g>
</g>
</svg>
