<?xml version="1.0" encoding="UTF-8" standalone="no"?>
<!DOCTYPE svg PUBLIC "-//W3C//DTD SVG 1.1//EN"
 "http://www.w3.org/Graphics/SVG/1.1/DTD/svg11.dtd">
<!-- Generated by graphviz version 2.40.1 (20161225.0304)
 -->
<!-- Title: periodic_function.hpp Pages: 1 -->
<!--zoomable 375 -->
<svg id="main" version="1.1" xmlns="http://www.w3.org/2000/svg" xmlns:xlink="http://www.w3.org/1999/xlink" xml:space="preserve" onload="init(evt)">
<style type="text/css"><![CDATA[
.edge:hover path { stroke: red; }
.edge:hover polygon { stroke: red; fill: red; }
]]></style>
<script type="text/javascript"><![CDATA[
var edges = document.getElementsByTagName('g');
if (edges && edges.length) {
  for (var i=0;i<edges.length;i++) {
    if (edges[i].id.substr(0,4)=='edge') {
      edges[i].setAttribute('class','edge');
    }
  }
}
]]></script>
        <defs>
                <circle id="rim" cx="0" cy="0" r="7"/>
                <circle id="rim2" cx="0" cy="0" r="3.5"/>
                <g id="zoomPlus">
                        <use xlink:href="#rim" fill="#404040">
                                <set attributeName="fill" to="#808080" begin="zoomplus.mouseover" end="zoomplus.mouseout"/>
                        </use>
                        <path d="M-4,0h8M0,-4v8" fill="none" stroke="white" stroke-width="1.5" pointer-events="none"/>
                </g>
                <g id="zoomMin">
                        <use xlink:href="#rim" fill="#404040">
                                <set attributeName="fill" to="#808080" begin="zoomminus.mouseover" end="zoomminus.mouseout"/>
                        </use>
                        <path d="M-4,0h8" fill="none" stroke="white" stroke-width="1.5" pointer-events="none"/>
                </g>
                <g id="dirArrow">
                        <path fill="none" stroke="white" stroke-width="1.5" d="M0,-3.0v7 M-2.5,-0.5L0,-3.0L2.5,-0.5"/>
                </g>
               <g id="resetDef">
                       <use xlink:href="#rim2" fill="#404040">
                               <set attributeName="fill" to="#808080" begin="reset.mouseover" end="reset.mouseout"/>
                       </use>
               </g>
        </defs>

<script type="text/javascript">
var viewWidth = 1734;
var viewHeight = 375;
var sectionId = 'dynsection-1';
</script>
<script xlink:href="../../svgpan.js"/>
<svg id="graph" class="graph">
<g id="viewport">
<title>periodic_function.hpp</title>
<polygon fill="#ffffff" stroke="transparent" points="-4,4 -4,-371 1729.5,-371 1729.5,4 -4,4"/>
<!-- Node1 -->
<g id="node1" class="node">
<title>Node1</title>
<g id="a_node1"><a xlink:title="Contains declaration and partial implementation of sirius::Periodic_function class.">
<polygon fill="#bfbfbf" stroke="#000000" points="1147.5,-347.5 1147.5,-366.5 1259.5,-366.5 1259.5,-347.5 1147.5,-347.5"/>
<text text-anchor="middle" x="1203.5" y="-354.5" font-family="Helvetica,sans-Serif" font-size="10.00" fill="#000000">periodic_function.hpp</text>
</a>
</g>
</g>
<!-- Node2 -->
<g id="node2" class="node">
<title>Node2</title>
<g id="a_node2"><a xlink:href="../../d0/d9a/density_8hpp.html" target="_top" xlink:title="Contains definition and partial implementation of sirius::Density class.">
<polygon fill="#ffffff" stroke="#000000" points="1025.5,-291.5 1025.5,-310.5 1093.5,-310.5 1093.5,-291.5 1025.5,-291.5"/>
<text text-anchor="middle" x="1059.5" y="-298.5" font-family="Helvetica,sans-Serif" font-size="10.00" fill="#000000">density.hpp</text>
</a>
</g>
</g>
<!-- Node1&#45;&gt;Node2 -->
<g id="edge1" class="edge">
<title>Node1&#45;&gt;Node2</title>
<path fill="none" stroke="#191970" d="M1169.1818,-343.6541C1142.922,-333.4419 1107.3508,-319.6086 1083.9315,-310.5011"/>
<polygon fill="#191970" stroke="#191970" points="1168.1569,-347.0108 1178.7455,-347.3733 1170.694,-340.4867 1168.1569,-347.0108"/>
</g>
<!-- Node26 -->
<g id="node26" class="node">
<title>Node26</title>
<g id="a_node26"><a xlink:href="../../dd/de4/field4d_8cpp.html" target="_top" xlink:title="Implementation of sirius::Field4D class.">
<polygon fill="#ffffff" stroke="#000000" points="1119,-291.5 1119,-310.5 1184,-310.5 1184,-291.5 1119,-291.5"/>
<text text-anchor="middle" x="1151.5" y="-298.5" font-family="Helvetica,sans-Serif" font-size="10.00" fill="#000000">field4d.cpp</text>
</a>
</g>
</g>
<!-- Node1&#45;&gt;Node26 -->
<g id="edge30" class="edge">
<title>Node1&#45;&gt;Node26</title>
<path fill="none" stroke="#191970" d="M1187.5178,-339.7884C1178.6222,-330.2085 1167.8796,-318.6396 1160.4539,-310.6427"/>
<polygon fill="#191970" stroke="#191970" points="1185.073,-342.2992 1194.4423,-347.2455 1190.2025,-337.536 1185.073,-342.2992"/>
</g>
<!-- Node27 -->
<g id="node27" class="node">
<title>Node27</title>
<g id="a_node27"><a xlink:href="../../d5/d72/non__local__functor_8hpp.html" target="_top" xlink:title="Common operation for forces and stress tensor.">
<polygon fill="#ffffff" stroke="#000000" points="1497,-235.5 1497,-254.5 1612,-254.5 1612,-235.5 1497,-235.5"/>
<text text-anchor="middle" x="1554.5" y="-242.5" font-family="Helvetica,sans-Serif" font-size="10.00" fill="#000000">non_local_functor.hpp</text>
</a>
</g>
</g>
<!-- Node1&#45;&gt;Node27 -->
<g id="edge31" class="edge">
<title>Node1&#45;&gt;Node27</title>
<path fill="none" stroke="#191970" d="M1243.3412,-344.2871C1314.4117,-321.6094 1461.5115,-274.6716 1524.6497,-254.5249"/>
<polygon fill="#191970" stroke="#191970" points="1241.8888,-341.0766 1233.4261,-347.4509 1244.0168,-347.7454 1241.8888,-341.0766"/>
</g>
<!-- Node29 -->
<g id="node29" class="node">
<title>Node29</title>
<g id="a_node29"><a xlink:href="../../d0/d07/mixer__functions_8hpp.html" target="_top" xlink:title="Contains declarations of functions required for mixing.">
<polygon fill="#ffffff" stroke="#000000" points="1202.5,-291.5 1202.5,-310.5 1308.5,-310.5 1308.5,-291.5 1202.5,-291.5"/>
<text text-anchor="middle" x="1255.5" y="-298.5" font-family="Helvetica,sans-Serif" font-size="10.00" fill="#000000">mixer_functions.hpp</text>
</a>
</g>
</g>
<!-- Node1&#45;&gt;Node29 -->
<g id="edge35" class="edge">
<title>Node1&#45;&gt;Node29</title>
<path fill="none" stroke="#191970" d="M1219.4822,-339.7884C1228.3778,-330.2085 1239.1204,-318.6396 1246.5461,-310.6427"/>
<polygon fill="#191970" stroke="#191970" points="1216.7975,-337.536 1212.5577,-347.2455 1221.927,-342.2992 1216.7975,-337.536"/>
</g>
<!-- Node3 -->
<g id="node3" class="node">
<title>Node3</title>
<g id="a_node3"><a xlink:href="../../d9/d86/density_8cpp.html" target="_top" xlink:title="Contains implementation of sirius::Density class.">
<polygon fill="#ffffff" stroke="#000000" points="1126,-235.5 1126,-254.5 1193,-254.5 1193,-235.5 1126,-235.5"/>
<text text-anchor="middle" x="1159.5" y="-242.5" font-family="Helvetica,sans-Serif" font-size="10.00" fill="#000000">density.cpp</text>
</a>
</g>
</g>
<!-- Node2&#45;&gt;Node3 -->
<g id="edge2" class="edge">
<title>Node2&#45;&gt;Node3</title>
<path fill="none" stroke="#191970" d="M1085.7098,-286.3225C1103.5717,-276.3198 1126.7155,-263.3593 1142.2809,-254.6427"/>
<polygon fill="#191970" stroke="#191970" points="1083.9336,-283.3057 1076.9187,-291.2455 1087.3539,-289.4132 1083.9336,-283.3057"/>
</g>
<!-- Node4 -->
<g id="node4" class="node">
<title>Node4</title>
<g id="a_node4"><a xlink:href="../../d4/de1/energy_8hpp_source.html" target="_top" xlink:title=" ">
<polygon fill="#ffffff" stroke="#000000" points="135,-174 135,-193 202,-193 202,-174 135,-174"/>
<text text-anchor="middle" x="168.5" y="-181" font-family="Helvetica,sans-Serif" font-size="10.00" fill="#000000">energy.hpp</text>
</a>
</g>
</g>
<!-- Node2&#45;&gt;Node4 -->
<g id="edge3" class="edge">
<title>Node2&#45;&gt;Node4</title>
<path fill="none" stroke="#191970" d="M1015.4017,-299.2101C888.7387,-293.3213 513.5751,-270.6336 211.5,-199 205.0141,-197.4619 198.1549,-195.2644 191.8657,-193.0058"/>
<polygon fill="#191970" stroke="#191970" points="1015.3394,-302.7107 1025.4878,-299.6676 1015.6567,-295.7179 1015.3394,-302.7107"/>
</g>
<!-- Node10 -->
<g id="node10" class="node">
<title>Node10</title>
<g id="a_node10"><a xlink:href="../../df/d4d/force_8cpp.html" target="_top" xlink:title="Contains implementation of sirius::Force class.">
<polygon fill="#ffffff" stroke="#000000" points="1497.5,-174 1497.5,-193 1555.5,-193 1555.5,-174 1497.5,-174"/>
<text text-anchor="middle" x="1526.5" y="-181" font-family="Helvetica,sans-Serif" font-size="10.00" fill="#000000">force.cpp</text>
</a>
</g>
</g>
<!-- Node2&#45;&gt;Node10 -->
<g id="edge9" class="edge">
<title>Node2&#45;&gt;Node10</title>
<path fill="none" stroke="#191970" d="M1070.147,-282.5201C1080.203,-266.9595 1096.8115,-245.5945 1117.5,-235 1264.9534,-159.4895 1327.6645,-238.7024 1488.5,-199 1494.3105,-197.5657 1500.3992,-195.4038 1505.9579,-193.1462"/>
<polygon fill="#191970" stroke="#191970" points="1067.0002,-280.9563 1064.7546,-291.3105 1072.967,-284.6166 1067.0002,-280.9563"/>
</g>
<!-- Node11 -->
<g id="node11" class="node">
<title>Node11</title>
<g id="a_node11"><a xlink:href="../../da/d42/adaptor_8hpp_source.html" target="_top" xlink:title=" ">
<polygon fill="#ffffff" stroke="#000000" points="1409.5,-174 1409.5,-193 1479.5,-193 1479.5,-174 1409.5,-174"/>
<text text-anchor="middle" x="1444.5" y="-181" font-family="Helvetica,sans-Serif" font-size="10.00" fill="#000000">adaptor.hpp</text>
</a>
</g>
</g>
<!-- Node2&#45;&gt;Node11 -->
<g id="edge10" class="edge">
<title>Node2&#45;&gt;Node11</title>
<path fill="none" stroke="#191970" d="M1061.2195,-281.1592C1063.6438,-266.0609 1069.4769,-246.0541 1083.5,-235 1139.1784,-191.1099 1331.4039,-214.8791 1400.5,-199 1407.1303,-197.4763 1414.1468,-195.2837 1420.5822,-193.0252"/>
<polygon fill="#191970" stroke="#191970" points="1057.7457,-280.7327 1059.9884,-291.0874 1064.6925,-281.5942 1057.7457,-280.7327"/>
</g>
<!-- Node12 -->
<g id="node12" class="node">
<title>Node12</title>
<g id="a_node12"><a xlink:href="../../d5/df1/apply__hamiltonian_8hpp_source.html" target="_top" xlink:title=" ">
<polygon fill="#ffffff" stroke="#000000" points="0,-174 0,-193 117,-193 117,-174 0,-174"/>
<text text-anchor="middle" x="58.5" y="-181" font-family="Helvetica,sans-Serif" font-size="10.00" fill="#000000">apply_hamiltonian.hpp</text>
</a>
</g>
</g>
<!-- Node2&#45;&gt;Node12 -->
<g id="edge11" class="edge">
<title>Node2&#45;&gt;Node12</title>
<path fill="none" stroke="#191970" d="M1015.1157,-300.0693C907.6171,-297.3537 624.9441,-287.4511 391.5,-255 282.2726,-239.8163 155.4582,-208.8082 94.6524,-193.0908"/>
<polygon fill="#191970" stroke="#191970" points="1015.1811,-303.5718 1025.2637,-300.3172 1015.3522,-296.5739 1015.1811,-303.5718"/>
</g>
<!-- Node13 -->
<g id="node13" class="node">
<title>Node13</title>
<g id="a_node13"><a xlink:href="../../de/df2/potential_8hpp.html" target="_top" xlink:title="Contains declaration and partial implementation of sirius::Potential class.">
<polygon fill="#ffffff" stroke="#000000" points="826.5,-235.5 826.5,-254.5 900.5,-254.5 900.5,-235.5 826.5,-235.5"/>
<text text-anchor="middle" x="863.5" y="-242.5" font-family="Helvetica,sans-Serif" font-size="10.00" fill="#000000">potential.hpp</text>
</a>
</g>
</g>
<!-- Node2&#45;&gt;Node13 -->
<g id="edge12" class="edge">
<title>Node2&#45;&gt;Node13</title>
<path fill="none" stroke="#191970" d="M1016.0587,-288.5882C980.0484,-278.2996 929.6132,-263.8895 896.7539,-254.5011"/>
<polygon fill="#191970" stroke="#191970" points="1015.2296,-291.9913 1025.8064,-291.3733 1017.1527,-285.2606 1015.2296,-291.9913"/>
</g>
<!-- Node5 -->
<g id="node5" class="node">
<title>Node5</title>
<g id="a_node5"><a xlink:href="../../df/dc4/dft__ground__state_8hpp.html" target="_top" xlink:title="Contains definition and partial implementation of sirius::DFT_ground_state class.">
<polygon fill="#ffffff" stroke="#000000" points="350,-112.5 350,-131.5 461,-131.5 461,-112.5 350,-112.5"/>
<text text-anchor="middle" x="405.5" y="-119.5" font-family="Helvetica,sans-Serif" font-size="10.00" fill="#000000">dft_ground_state.hpp</text>
</a>
</g>
</g>
<!-- Node4&#45;&gt;Node5 -->
<g id="edge4" class="edge">
<title>Node4&#45;&gt;Node5</title>
<path fill="none" stroke="#191970" d="M203.4893,-170.5184C206.1882,-169.6304 208.8809,-168.7798 211.5,-168 261.2626,-153.1832 319.3143,-139.937 358.8566,-131.5078"/>
<polygon fill="#191970" stroke="#191970" points="202.131,-167.2841 193.8079,-173.8397 204.4025,-173.9053 202.131,-167.2841"/>
</g>
<!-- Node9 -->
<g id="node9" class="node">
<title>Node9</title>
<g id="a_node9"><a xlink:href="../../d5/df5/energy_8cpp_source.html" target="_top" xlink:title=" ">
<polygon fill="#ffffff" stroke="#000000" points="135.5,-112.5 135.5,-131.5 201.5,-131.5 201.5,-112.5 135.5,-112.5"/>
<text text-anchor="middle" x="168.5" y="-119.5" font-family="Helvetica,sans-Serif" font-size="10.00" fill="#000000">energy.cpp</text>
</a>
</g>
</g>
<!-- Node4&#45;&gt;Node9 -->
<g id="edge8" class="edge">
<title>Node4&#45;&gt;Node9</title>
<path fill="none" stroke="#191970" d="M168.5,-163.7462C168.5,-153.0519 168.5,-140.314 168.5,-131.7449"/>
<polygon fill="#191970" stroke="#191970" points="165.0001,-163.8906 168.5,-173.8906 172.0001,-163.8907 165.0001,-163.8906"/>
</g>
<!-- Node6 -->
<g id="node6" class="node">
<title>Node6</title>
<g id="a_node6"><a xlink:href="../../d9/dde/dft__ground__state_8cpp.html" target="_top" xlink:title="Contains implementation of sirius::DFT_ground_state class.">
<polygon fill="#ffffff" stroke="#000000" points="298.5,-56.5 298.5,-75.5 408.5,-75.5 408.5,-56.5 298.5,-56.5"/>
<text text-anchor="middle" x="353.5" y="-63.5" font-family="Helvetica,sans-Serif" font-size="10.00" fill="#000000">dft_ground_state.cpp</text>
</a>
</g>
</g>
<!-- Node5&#45;&gt;Node6 -->
<g id="edge5" class="edge">
<title>Node5&#45;&gt;Node6</title>
<path fill="none" stroke="#191970" d="M389.5178,-104.7884C380.6222,-95.2085 369.8796,-83.6396 362.4539,-75.6427"/>
<polygon fill="#191970" stroke="#191970" points="387.073,-107.2992 396.4423,-112.2455 392.2025,-102.536 387.073,-107.2992"/>
</g>
<!-- Node7 -->
<g id="node7" class="node">
<title>Node7</title>
<g id="a_node7"><a xlink:href="../../d2/d92/sirius_8hpp.html" target="_top" xlink:title="&quot;All&#45;in&#45;one&quot; include file.">
<polygon fill="#ffffff" stroke="#000000" points="427,-56.5 427,-75.5 486,-75.5 486,-56.5 427,-56.5"/>
<text text-anchor="middle" x="456.5" y="-63.5" font-family="Helvetica,sans-Serif" font-size="10.00" fill="#000000">sirius.hpp</text>
</a>
</g>
</g>
<!-- Node5&#45;&gt;Node7 -->
<g id="edge6" class="edge">
<title>Node5&#45;&gt;Node7</title>
<path fill="none" stroke="#191970" d="M421.1749,-104.7884C429.8994,-95.2085 440.4354,-83.6396 447.7183,-75.6427"/>
<polygon fill="#191970" stroke="#191970" points="418.5291,-102.4954 414.3835,-112.2455 423.7046,-107.2088 418.5291,-102.4954"/>
</g>
<!-- Node8 -->
<g id="node8" class="node">
<title>Node8</title>
<g id="a_node8"><a xlink:href="../../d4/d53/sirius__api_8cpp.html" target="_top" xlink:title="Fortran API.">
<polygon fill="#ffffff" stroke="#000000" points="417.5,-.5 417.5,-19.5 495.5,-19.5 495.5,-.5 417.5,-.5"/>
<text text-anchor="middle" x="456.5" y="-7.5" font-family="Helvetica,sans-Serif" font-size="10.00" fill="#000000">sirius_api.cpp</text>
</a>
</g>
</g>
<!-- Node7&#45;&gt;Node8 -->
<g id="edge7" class="edge">
<title>Node7&#45;&gt;Node8</title>
<path fill="none" stroke="#191970" d="M456.5,-46.1575C456.5,-37.155 456.5,-26.9199 456.5,-19.6427"/>
<polygon fill="#191970" stroke="#191970" points="453.0001,-46.2455 456.5,-56.2455 460.0001,-46.2456 453.0001,-46.2455"/>
</g>
<!-- Node13&#45;&gt;Node4 -->
<g id="edge15" class="edge">
<title>Node13&#45;&gt;Node4</title>
<path fill="none" stroke="#191970" d="M816.0647,-242.4098C675.9639,-234.6536 270.1342,-211.3872 211.5,-199 204.8229,-197.5894 197.7792,-195.3773 191.3688,-193.0614"/>
<polygon fill="#191970" stroke="#191970" points="816.2847,-245.9272 826.4625,-242.9839 816.6707,-238.9378 816.2847,-245.9272"/>
</g>
<!-- Node13&#45;&gt;Node10 -->
<g id="edge16" class="edge">
<title>Node13&#45;&gt;Node10</title>
<path fill="none" stroke="#191970" d="M910.8712,-242.3713C1046.9468,-234.7 1432.8169,-212.0602 1488.5,-199 1494.4656,-197.6008 1500.7115,-195.3925 1506.3761,-193.0765"/>
<polygon fill="#191970" stroke="#191970" points="910.5427,-238.8842 900.7549,-242.94 910.9356,-245.8731 910.5427,-238.8842"/>
</g>
<!-- Node13&#45;&gt;Node11 -->
<g id="edge23" class="edge">
<title>Node13&#45;&gt;Node11</title>
<path fill="none" stroke="#191970" d="M910.8176,-242.4866C1023.9502,-236.2291 1307.5815,-219.0066 1400.5,-199 1407.1508,-197.568 1414.1743,-195.4069 1420.6098,-193.1494"/>
<polygon fill="#191970" stroke="#191970" points="910.5247,-238.9973 900.7316,-243.0403 910.9085,-245.9868 910.5247,-238.9973"/>
</g>
<!-- Node13&#45;&gt;Node12 -->
<g id="edge24" class="edge">
<title>Node13&#45;&gt;Node12</title>
<path fill="none" stroke="#191970" d="M816.4478,-243.0856C675.7672,-237.2004 259.808,-218.5844 125.5,-199 115.4579,-197.5357 104.698,-195.335 94.804,-193.0483"/>
<polygon fill="#191970" stroke="#191970" points="816.3466,-246.5843 826.4835,-243.5033 816.6378,-239.5903 816.3466,-246.5843"/>
</g>
<!-- Node14 -->
<g id="node14" class="node">
<title>Node14</title>
<g id="a_node14"><a xlink:href="../../df/dd7/diag__pseudo__potential_8cpp.html" target="_top" xlink:title="Diagonalization of pseudopotential Hamiltonian.">
<polygon fill="#ffffff" stroke="#000000" points="220.5,-174 220.5,-193 356.5,-193 356.5,-174 220.5,-174"/>
<text text-anchor="middle" x="288.5" y="-181" font-family="Helvetica,sans-Serif" font-size="10.00" fill="#000000">diag_pseudo_potential.cpp</text>
</a>
</g>
</g>
<!-- Node13&#45;&gt;Node14 -->
<g id="edge13" class="edge">
<title>Node13&#45;&gt;Node14</title>
<path fill="none" stroke="#191970" d="M816.4795,-242.3323C727.897,-236.9358 530.3638,-223.1375 365.5,-199 354.4363,-197.3802 342.56,-195.2077 331.5269,-193.0029"/>
<polygon fill="#191970" stroke="#191970" points="816.2881,-245.8271 826.4802,-242.9339 816.7085,-238.8397 816.2881,-245.8271"/>
</g>
<!-- Node15 -->
<g id="node15" class="node">
<title>Node15</title>
<g id="a_node15"><a xlink:href="../../d4/d9e/solve_8cpp.html" target="_top" xlink:title="Contains interfaces to the sirius::Band solvers.">
<polygon fill="#ffffff" stroke="#000000" points="375,-174 375,-193 434,-193 434,-174 375,-174"/>
<text text-anchor="middle" x="404.5" y="-181" font-family="Helvetica,sans-Serif" font-size="10.00" fill="#000000">solve.cpp</text>
</a>
</g>
</g>
<!-- Node13&#45;&gt;Node15 -->
<g id="edge14" class="edge">
<title>Node13&#45;&gt;Node15</title>
<path fill="none" stroke="#191970" d="M816.3366,-241.5089C721.8232,-234.2403 512.3157,-216.6829 442.5,-199 436.6983,-197.5305 430.6126,-195.3566 425.054,-193.0987"/>
<polygon fill="#191970" stroke="#191970" points="816.2301,-245.0109 826.4675,-242.2824 816.763,-238.0312 816.2301,-245.0109"/>
</g>
<!-- Node16 -->
<g id="node16" class="node">
<title>Node16</title>
<g id="a_node16"><a xlink:href="../../d7/dd1/stress_8hpp.html" target="_top" xlink:title="Contains definition of sirius::Stress tensor class.">
<polygon fill="#ffffff" stroke="#000000" points="452,-174 452,-193 515,-193 515,-174 452,-174"/>
<text text-anchor="middle" x="483.5" y="-181" font-family="Helvetica,sans-Serif" font-size="10.00" fill="#000000">stress.hpp</text>
</a>
</g>
</g>
<!-- Node13&#45;&gt;Node16 -->
<g id="edge17" class="edge">
<title>Node13&#45;&gt;Node16</title>
<path fill="none" stroke="#191970" d="M816.3495,-242.1352C750.083,-237.3195 626.0265,-225.4067 523.5,-199 517.586,-197.4768 511.3566,-195.3391 505.6207,-193.1368"/>
<polygon fill="#191970" stroke="#191970" points="816.2553,-245.6371 826.4765,-242.8483 816.7471,-238.6544 816.2553,-245.6371"/>
</g>
<!-- Node18 -->
<g id="node18" class="node">
<title>Node18</title>
<g id="a_node18"><a xlink:href="../../db/d8b/hamiltonian_8cpp.html" target="_top" xlink:title="Contains definition of sirius::Hamiltonian0 class.">
<polygon fill="#ffffff" stroke="#000000" points="533,-174 533,-193 620,-193 620,-174 533,-174"/>
<text text-anchor="middle" x="576.5" y="-181" font-family="Helvetica,sans-Serif" font-size="10.00" fill="#000000">hamiltonian.cpp</text>
</a>
</g>
</g>
<!-- Node13&#45;&gt;Node18 -->
<g id="edge20" class="edge">
<title>Node13&#45;&gt;Node18</title>
<path fill="none" stroke="#191970" d="M816.1919,-237.1218C768.5252,-228.8605 692.9961,-214.8856 628.5,-199 621.3654,-197.2427 613.751,-195.1174 606.6116,-193.0113"/>
<polygon fill="#191970" stroke="#191970" points="815.7706,-240.6006 826.2192,-238.8465 816.9573,-233.7019 815.7706,-240.6006"/>
</g>
<!-- Node19 -->
<g id="node19" class="node">
<title>Node19</title>
<g id="a_node19"><a xlink:href="../../d3/d3d/hamiltonian__k_8cpp.html" target="_top" xlink:title="Contains definition of sirius::Hamiltonian_k class.">
<polygon fill="#ffffff" stroke="#000000" points="638,-174 638,-193 735,-193 735,-174 638,-174"/>
<text text-anchor="middle" x="686.5" y="-181" font-family="Helvetica,sans-Serif" font-size="10.00" fill="#000000">hamiltonian_k.cpp</text>
</a>
</g>
</g>
<!-- Node13&#45;&gt;Node19 -->
<g id="edge21" class="edge">
<title>Node13&#45;&gt;Node19</title>
<path fill="none" stroke="#191970" d="M826.3756,-232.1009C792.8053,-220.4366 744.1479,-203.5302 713.962,-193.0419"/>
<polygon fill="#191970" stroke="#191970" points="825.2489,-235.4146 835.8438,-235.3906 827.5465,-228.8023 825.2489,-235.4146"/>
</g>
<!-- Node20 -->
<g id="node20" class="node">
<title>Node20</title>
<g id="a_node20"><a xlink:href="../../de/d63/local__operator_8cpp.html" target="_top" xlink:title="Implementation of sirius::Local_operator class.">
<polygon fill="#ffffff" stroke="#000000" points="753,-174 753,-193 852,-193 852,-174 753,-174"/>
<text text-anchor="middle" x="802.5" y="-181" font-family="Helvetica,sans-Serif" font-size="10.00" fill="#000000">local_operator.cpp</text>
</a>
</g>
</g>
<!-- Node13&#45;&gt;Node20 -->
<g id="edge22" class="edge">
<title>Node13&#45;&gt;Node20</title>
<path fill="none" stroke="#191970" d="M846.8617,-228.2253C835.7304,-217.0028 821.4703,-202.6258 812.1656,-193.2449"/>
<polygon fill="#191970" stroke="#191970" points="844.4416,-230.7555 853.9688,-235.3906 849.4115,-225.826 844.4416,-230.7555"/>
</g>
<!-- Node21 -->
<g id="node21" class="node">
<title>Node21</title>
<g id="a_node21"><a xlink:href="../../d4/db8/generate__d__operator__matrix_8cpp_source.html" target="_top" xlink:title=" ">
<polygon fill="#ffffff" stroke="#000000" points="870.5,-168.5 870.5,-198.5 980.5,-198.5 980.5,-168.5 870.5,-168.5"/>
<text text-anchor="start" x="878.5" y="-186.5" font-family="Helvetica,sans-Serif" font-size="10.00" fill="#000000">generate_d_operator</text>
<text text-anchor="middle" x="925.5" y="-175.5" font-family="Helvetica,sans-Serif" font-size="10.00" fill="#000000">_matrix.cpp</text>
</a>
</g>
</g>
<!-- Node13&#45;&gt;Node21 -->
<g id="edge25" class="edge">
<title>Node13&#45;&gt;Node21</title>
<path fill="none" stroke="#191970" d="M880.4264,-228.2101C889.7716,-218.9403 901.2829,-207.5218 910.3331,-198.5446"/>
<polygon fill="#191970" stroke="#191970" points="877.8223,-225.8633 873.1875,-235.3906 882.752,-230.8331 877.8223,-225.8633"/>
</g>
<!-- Node22 -->
<g id="node22" class="node">
<title>Node22</title>
<g id="a_node22"><a xlink:href="../../de/dfb/generate__pw__coeffs_8cpp_source.html" target="_top" xlink:title=" ">
<polygon fill="#ffffff" stroke="#000000" points="999,-174 999,-193 1124,-193 1124,-174 999,-174"/>
<text text-anchor="middle" x="1061.5" y="-181" font-family="Helvetica,sans-Serif" font-size="10.00" fill="#000000">generate_pw_coeffs.cpp</text>
</a>
</g>
</g>
<!-- Node13&#45;&gt;Node22 -->
<g id="edge26" class="edge">
<title>Node13&#45;&gt;Node22</title>
<path fill="none" stroke="#191970" d="M904.0657,-232.4001C941.6463,-220.7273 996.7227,-203.6202 1030.7797,-193.0419"/>
<polygon fill="#191970" stroke="#191970" points="902.9492,-229.0818 894.4375,-235.3906 905.0257,-235.7668 902.9492,-229.0818"/>
</g>
<!-- Node23 -->
<g id="node23" class="node">
<title>Node23</title>
<g id="a_node23"><a xlink:href="../../d0/d7d/paw__potential_8cpp_source.html" target="_top" xlink:title=" ">
<polygon fill="#ffffff" stroke="#000000" points="1142,-174 1142,-193 1239,-193 1239,-174 1142,-174"/>
<text text-anchor="middle" x="1190.5" y="-181" font-family="Helvetica,sans-Serif" font-size="10.00" fill="#000000">paw_potential.cpp</text>
</a>
</g>
</g>
<!-- Node13&#45;&gt;Node23 -->
<g id="edge27" class="edge">
<title>Node13&#45;&gt;Node23</title>
<path fill="none" stroke="#191970" d="M910.8331,-238.3541C964.9531,-230.4276 1056.07,-216.0816 1133.5,-199 1141.3112,-197.2768 1149.6541,-195.1647 1157.4794,-193.0607"/>
<polygon fill="#191970" stroke="#191970" points="910.2364,-234.904 900.8437,-239.8057 911.2431,-241.8312 910.2364,-234.904"/>
</g>
<!-- Node24 -->
<g id="node24" class="node">
<title>Node24</title>
<g id="a_node24"><a xlink:href="../../d8/dcd/poisson_8cpp_source.html" target="_top" xlink:title=" ">
<polygon fill="#ffffff" stroke="#000000" points="1257.5,-174 1257.5,-193 1327.5,-193 1327.5,-174 1257.5,-174"/>
<text text-anchor="middle" x="1292.5" y="-181" font-family="Helvetica,sans-Serif" font-size="10.00" fill="#000000">poisson.cpp</text>
</a>
</g>
</g>
<!-- Node13&#45;&gt;Node24 -->
<g id="edge28" class="edge">
<title>Node13&#45;&gt;Node24</title>
<path fill="none" stroke="#191970" d="M910.8682,-242.6942C984.0959,-238.3811 1128.8353,-226.8682 1248.5,-199 1254.9681,-197.4937 1261.807,-195.362 1268.1155,-193.1602"/>
<polygon fill="#191970" stroke="#191970" points="910.3793,-239.2163 900.5945,-243.2794 910.7774,-246.205 910.3793,-239.2163"/>
</g>
<!-- Node25 -->
<g id="node25" class="node">
<title>Node25</title>
<g id="a_node25"><a xlink:href="../../d6/d2b/xc_8cpp.html" target="_top" xlink:title="Generate XC potential.">
<polygon fill="#ffffff" stroke="#000000" points="1346,-174 1346,-193 1391,-193 1391,-174 1346,-174"/>
<text text-anchor="middle" x="1368.5" y="-181" font-family="Helvetica,sans-Serif" font-size="10.00" fill="#000000">xc.cpp</text>
</a>
</g>
</g>
<!-- Node13&#45;&gt;Node25 -->
<g id="edge29" class="edge">
<title>Node13&#45;&gt;Node25</title>
<path fill="none" stroke="#191970" d="M910.6487,-242.5337C1013.9234,-236.7882 1257.214,-221.2856 1336.5,-199 1341.6107,-197.5635 1346.899,-195.3429 1351.6688,-193.0271"/>
<polygon fill="#191970" stroke="#191970" points="910.3087,-239.047 900.516,-243.091 910.6932,-246.0365 910.3087,-239.047"/>
</g>
<!-- Node16&#45;&gt;Node5 -->
<g id="edge18" class="edge">
<title>Node16&#45;&gt;Node5</title>
<path fill="none" stroke="#191970" d="M463.3964,-167.6491C448.9035,-156.222 429.8194,-141.1749 417.6019,-131.5419"/>
<polygon fill="#191970" stroke="#191970" points="461.2927,-170.4475 471.3125,-173.8906 465.6268,-164.9506 461.2927,-170.4475"/>
</g>
<!-- Node17 -->
<g id="node17" class="node">
<title>Node17</title>
<g id="a_node17"><a xlink:href="../../d4/d58/stress_8cpp.html" target="_top" xlink:title="Contains implementation of sirius::Stress class.">
<polygon fill="#ffffff" stroke="#000000" points="530.5,-112.5 530.5,-131.5 592.5,-131.5 592.5,-112.5 530.5,-112.5"/>
<text text-anchor="middle" x="561.5" y="-119.5" font-family="Helvetica,sans-Serif" font-size="10.00" fill="#000000">stress.cpp</text>
</a>
</g>
</g>
<!-- Node16&#45;&gt;Node17 -->
<g id="edge19" class="edge">
<title>Node16&#45;&gt;Node17</title>
<path fill="none" stroke="#191970" d="M503.6036,-167.6491C518.0965,-156.222 537.1806,-141.1749 549.3981,-131.5419"/>
<polygon fill="#191970" stroke="#191970" points="501.3732,-164.9506 495.6875,-173.8906 505.7073,-170.4475 501.3732,-164.9506"/>
</g>
<!-- Node27&#45;&gt;Node10 -->
<g id="edge32" class="edge">
<title>Node27&#45;&gt;Node10</title>
<path fill="none" stroke="#191970" d="M1545.9648,-226.253C1541.0056,-215.3606 1534.9613,-202.0846 1530.9367,-193.2449"/>
<polygon fill="#191970" stroke="#191970" points="1542.7959,-227.7398 1550.125,-235.3906 1549.1667,-224.8392 1542.7959,-227.7398"/>
</g>
<!-- Node27&#45;&gt;Node17 -->
<g id="edge34" class="edge">
<title>Node27&#45;&gt;Node17</title>
<path fill="none" stroke="#191970" d="M1564.3656,-226.2784C1572.0312,-208.8484 1579.133,-183.3195 1564.5,-168 1530.11,-131.9966 758.0257,-123.6169 592.5451,-122.232"/>
<polygon fill="#191970" stroke="#191970" points="1561.1267,-224.9377 1559.9471,-235.4667 1567.4352,-227.9714 1561.1267,-224.9377"/>
</g>
<!-- Node28 -->
<g id="node28" class="node">
<title>Node28</title>
<g id="a_node28"><a xlink:href="../../d4/d79/non__local__functor_8cpp.html" target="_top" xlink:title="Common operation for forces and stress tensor.">
<polygon fill="#ffffff" stroke="#000000" points="1611.5,-174 1611.5,-193 1725.5,-193 1725.5,-174 1611.5,-174"/>
<text text-anchor="middle" x="1668.5" y="-181" font-family="Helvetica,sans-Serif" font-size="10.00" fill="#000000">non_local_functor.cpp</text>
</a>
</g>
</g>
<!-- Node27&#45;&gt;Node28 -->
<g id="edge33" class="edge">
<title>Node27&#45;&gt;Node28</title>
<path fill="none" stroke="#191970" d="M1581.2465,-230.571C1602.7003,-218.9972 1632.2053,-203.0801 1650.8126,-193.0419"/>
<polygon fill="#191970" stroke="#191970" points="1579.4517,-227.5623 1572.3125,-235.3906 1582.7753,-233.723 1579.4517,-227.5623"/>
</g>
<!-- Node29&#45;&gt;Node3 -->
<g id="edge36" class="edge">
<title>Node29&#45;&gt;Node3</title>
<path fill="none" stroke="#191970" d="M1229.8654,-286.0465C1212.7841,-276.0824 1190.836,-263.2794 1176.0303,-254.6427"/>
<polygon fill="#191970" stroke="#191970" points="1228.3767,-289.23 1238.7781,-291.2455 1231.9038,-283.1836 1228.3767,-289.23"/>
</g>
<!-- Node30 -->
<g id="node30" class="node">
<title>Node30</title>
<g id="a_node30"><a xlink:href="../../d3/de6/mixer__functions_8cpp.html" target="_top" xlink:title="Contains implemenations of functions required for mixing.">
<polygon fill="#ffffff" stroke="#000000" points="1211,-235.5 1211,-254.5 1316,-254.5 1316,-235.5 1211,-235.5"/>
<text text-anchor="middle" x="1263.5" y="-242.5" font-family="Helvetica,sans-Serif" font-size="10.00" fill="#000000">mixer_functions.cpp</text>
</a>
</g>
</g>
<!-- Node29&#45;&gt;Node30 -->
<g id="edge37" class="edge">
<title>Node29&#45;&gt;Node30</title>
<path fill="none" stroke="#191970" d="M1258.3346,-281.1575C1259.6207,-272.155 1261.0829,-261.9199 1262.1225,-254.6427"/>
<polygon fill="#191970" stroke="#191970" points="1254.843,-280.851 1256.8935,-291.2455 1261.7726,-281.8411 1254.843,-280.851"/>
</g>
</g>
</svg>
        <g id="navigator" transform="translate(0 0)" fill="#404254">
                <rect fill="#f2f5e9" fill-opacity="0.5" stroke="#606060" stroke-width=".5" x="0" y="0" width="60" height="60"/>
                <use id="zoomplus" xlink:href="#zoomPlus" x="17" y="9" onmousedown="handleZoom(evt,'in')"/>
                <use id="zoomminus" xlink:href="#zoomMin" x="42" y="9" onmousedown="handleZoom(evt,'out')"/>
                <use id="reset" xlink:href="#resetDef" x="30" y="36" onmousedown="handleReset()"/>
                <g id="arrowUp" xlink:href="#dirArrow" transform="translate(30 24)" onmousedown="handlePan(0,-1)">
                  <use xlink:href="#rim" fill="#404040">
                        <set attributeName="fill" to="#808080" begin="arrowUp.mouseover" end="arrowUp.mouseout"/>
                  </use>
                  <path fill="none" stroke="white" stroke-width="1.5" d="M0,-3.0v7 M-2.5,-0.5L0,-3.0L2.5,-0.5"/>
                </g>
                <g id="arrowRight" xlink:href="#dirArrow" transform="rotate(90) translate(36 -43)" onmousedown="handlePan(1,0)">
                  <use xlink:href="#rim" fill="#404040">
                        <set attributeName="fill" to="#808080" begin="arrowRight.mouseover" end="arrowRight.mouseout"/>
                  </use>
                  <path fill="none" stroke="white" stroke-width="1.5" d="M0,-3.0v7 M-2.5,-0.5L0,-3.0L2.5,-0.5"/>
                </g>
                <g id="arrowDown" xlink:href="#dirArrow" transform="rotate(180) translate(-30 -48)" onmousedown="handlePan(0,1)">
                  <use xlink:href="#rim" fill="#404040">
                        <set attributeName="fill" to="#808080" begin="arrowDown.mouseover" end="arrowDown.mouseout"/>
                  </use>
                  <path fill="none" stroke="white" stroke-width="1.5" d="M0,-3.0v7 M-2.5,-0.5L0,-3.0L2.5,-0.5"/>
                </g>
                <g id="arrowLeft" xlink:href="#dirArrow" transform="rotate(270) translate(-36 17)" onmousedown="handlePan(-1,0)">
                  <use xlink:href="#rim" fill="#404040">
                        <set attributeName="fill" to="#808080" begin="arrowLeft.mouseover" end="arrowLeft.mouseout"/>
                  </use>
                  <path fill="none" stroke="white" stroke-width="1.5" d="M0,-3.0v7 M-2.5,-0.5L0,-3.0L2.5,-0.5"/>
                </g>
        </g>
        <svg viewBox="0 0 15 15" width="100%" height="30px" preserveAspectRatio="xMaxYMin meet">
         <g id="arrow_out" transform="scale(0.3 0.3)">
          <a xlink:href="periodic__function_8hpp__dep__incl_org.svg" target="_base">
           <rect id="button" ry="5" rx="5" y="6" x="6" height="38" width="38"
                fill="#f2f5e9" fill-opacity="0.5" stroke="#606060" stroke-width="1.0"/>
           <path id="arrow"
             d="M 11.500037,31.436501 C 11.940474,20.09759 22.043105,11.32322 32.158766,21.979434 L 37.068811,17.246167 C 37.068811,17.246167 37.088388,32 37.088388,32 L 22.160133,31.978069 C 22.160133,31.978069 26.997745,27.140456 26.997745,27.140456 C 18.528582,18.264221 13.291696,25.230495 11.500037,31.436501 z"
             style="fill:#404040;"/>
          </a>
         </g>
        </svg>
</svg>
