<?xml version="1.0" encoding="UTF-8" standalone="no"?>
<!DOCTYPE svg PUBLIC "-//W3C//DTD SVG 1.1//EN"
 "http://www.w3.org/Graphics/SVG/1.1/DTD/svg11.dtd">
<!-- Generated by graphviz version 2.40.1 (20161225.0304)
 -->
<!-- Title: sirius::Free_atom Pages: 1 -->
<svg width="496pt" height="320pt"
 viewBox="0.00 0.00 496.00 320.00" xmlns="http://www.w3.org/2000/svg" xmlns:xlink="http://www.w3.org/1999/xlink">
<g id="graph0" class="graph" transform="scale(1 1) rotate(0) translate(4 316)">
<title>sirius::Free_atom</title>
<polygon fill="#ffffff" stroke="transparent" points="-4,4 -4,-316 492,-316 492,4 -4,4"/>
<!-- Node2 -->
<g id="node1" class="node">
<title>Node2</title>
<polygon fill="#bfbfbf" stroke="#000000" points="173,-.5 173,-19.5 267,-19.5 267,-.5 173,-.5"/>
<text text-anchor="middle" x="220" y="-7.5" font-family="Helvetica,sans-Serif" font-size="10.00" fill="#000000">sirius::Free_atom</text>
</g>
<!-- Node3 -->
<g id="node2" class="node">
<title>Node3</title>
<g id="a_node2"><a xlink:href="../../d1/dc9/classsirius_1_1_atom__type__base.html" target="_top" xlink:title="Base class for sirius::Atom_type and sirius::Free_atom classes. ">
<polygon fill="#ffffff" stroke="#000000" points="22,-145.5 22,-164.5 142,-164.5 142,-145.5 22,-145.5"/>
<text text-anchor="middle" x="82" y="-152.5" font-family="Helvetica,sans-Serif" font-size="10.00" fill="#000000">sirius::Atom_type_base</text>
</a>
</g>
</g>
<!-- Node3&#45;&gt;Node2 -->
<g id="edge1" class="edge">
<title>Node3&#45;&gt;Node2</title>
<path fill="none" stroke="#191970" d="M98.0444,-138.1418C127.1089,-107.603 187.6,-44.0434 210.7311,-19.739"/>
<polygon fill="#191970" stroke="#191970" points="95.4133,-135.8294 91.0546,-145.4861 100.484,-140.6553 95.4133,-135.8294"/>
</g>
<!-- Node4 -->
<g id="node3" class="node">
<title>Node4</title>
<g id="a_node3"><a xlink:href="../../d5/d6b/classsirius_1_1_spline.html" target="_top" xlink:title="sirius::Spline\&lt; double \&gt;">
<polygon fill="#ffffff" stroke="#000000" points="160,-219 160,-238 280,-238 280,-219 160,-219"/>
<text text-anchor="middle" x="220" y="-226" font-family="Helvetica,sans-Serif" font-size="10.00" fill="#000000">sirius::Spline&lt; double &gt;</text>
</a>
</g>
</g>
<!-- Node4&#45;&gt;Node2 -->
<g id="edge5" class="edge">
<title>Node4&#45;&gt;Node2</title>
<path fill="none" stroke="#9a32cd" stroke-dasharray="5,2" d="M220,-208.7727C220,-163.3501 220,-52.7343 220,-19.5589"/>
<polygon fill="#9a32cd" stroke="#9a32cd" points="216.5001,-208.8294 220,-218.8294 223.5001,-208.8294 216.5001,-208.8294"/>
<text text-anchor="start" x="220" y="-158" font-family="Helvetica,sans-Serif" font-size="10.00" fill="#000000"> free_atom_electronic</text>
<text text-anchor="middle" x="268.5" y="-147" font-family="Helvetica,sans-Serif" font-size="10.00" fill="#000000">_potential_</text>
</g>
<!-- Node4&#45;&gt;Node3 -->
<g id="edge2" class="edge">
<title>Node4&#45;&gt;Node3</title>
<path fill="none" stroke="#9a32cd" stroke-dasharray="5,2" d="M165.1299,-216.6821C128.2014,-208.4694 85.7462,-198.41 83,-195 76.2029,-186.56 77.3185,-173.5527 79.2271,-164.6786"/>
<polygon fill="#9a32cd" stroke="#9a32cd" points="164.8418,-220.2028 175.3614,-218.9425 166.3519,-213.3676 164.8418,-220.2028"/>
<text text-anchor="middle" x="144.5" y="-187" font-family="Helvetica,sans-Serif" font-size="10.00" fill="#000000"> free_atom_density_spline_</text>
</g>
<!-- Node5 -->
<g id="node4" class="node">
<title>Node5</title>
<g id="a_node4"><a xlink:href="../../d9/dbf/classsirius_1_1_radial__grid.html" target="_top" xlink:title="sirius::Radial_grid\l\&lt; double \&gt;">
<polygon fill="#ffffff" stroke="#000000" points="0,-281.5 0,-311.5 96,-311.5 96,-281.5 0,-281.5"/>
<text text-anchor="start" x="8" y="-299.5" font-family="Helvetica,sans-Serif" font-size="10.00" fill="#000000">sirius::Radial_grid</text>
<text text-anchor="middle" x="48" y="-288.5" font-family="Helvetica,sans-Serif" font-size="10.00" fill="#000000">&lt; double &gt;</text>
</a>
</g>
</g>
<!-- Node5&#45;&gt;Node3 -->
<g id="edge4" class="edge">
<title>Node5&#45;&gt;Node3</title>
<path fill="none" stroke="#9a32cd" stroke-dasharray="5,2" d="M43.0065,-271.2064C40.6688,-254.377 39.4668,-231.9621 45,-213 50.487,-194.1962 64.1286,-175.6816 73.2249,-164.8027"/>
<polygon fill="#9a32cd" stroke="#9a32cd" points="39.5977,-272.0526 44.6473,-281.3666 46.5082,-270.9365 39.5977,-272.0526"/>
<text text-anchor="middle" x="98" y="-226" font-family="Helvetica,sans-Serif" font-size="10.00" fill="#000000"> free_atom_radial_grid_</text>
</g>
<!-- Node5&#45;&gt;Node4 -->
<g id="edge3" class="edge">
<title>Node5&#45;&gt;Node4</title>
<path fill="none" stroke="#191970" d="M95.5074,-277.718C128.0245,-264.8624 169.7922,-248.3496 195.7271,-238.0963"/>
<polygon fill="#191970" stroke="#191970" points="94.1852,-274.4771 86.1724,-281.4086 96.7588,-280.9868 94.1852,-274.4771"/>
</g>
<!-- Node6 -->
<g id="node5" class="node">
<title>Node6</title>
<g id="a_node5"><a xlink:href="../../d7/dab/classsddk_1_1mdarray.html" target="_top" xlink:title="sddk::mdarray\&lt; double, 2 \&gt;">
<polygon fill="#ffffff" stroke="#000000" points="335,-145.5 335,-164.5 473,-164.5 473,-145.5 335,-145.5"/>
<text text-anchor="middle" x="404" y="-152.5" font-family="Helvetica,sans-Serif" font-size="10.00" fill="#000000">sddk::mdarray&lt; double, 2 &gt;</text>
</a>
</g>
</g>
<!-- Node6&#45;&gt;Node2 -->
<g id="edge6" class="edge">
<title>Node6&#45;&gt;Node2</title>
<path fill="none" stroke="#9a32cd" stroke-dasharray="5,2" d="M384.071,-139.2951C345.9222,-109.2322 263.5937,-44.3537 232.3585,-19.739"/>
<polygon fill="#9a32cd" stroke="#9a32cd" points="381.9066,-142.0456 391.9272,-145.4861 386.2393,-136.5476 381.9066,-142.0456"/>
<text text-anchor="start" x="365" y="-118" font-family="Helvetica,sans-Serif" font-size="10.00" fill="#000000"> free_atom_wave_functions</text>
<text text-anchor="middle" x="426.5" y="-107" font-family="Helvetica,sans-Serif" font-size="10.00" fill="#000000">_</text>
<text text-anchor="start" x="365" y="-96" font-family="Helvetica,sans-Serif" font-size="10.00" fill="#000000">free_atom_orbital</text>
<text text-anchor="middle" x="426.5" y="-85" font-family="Helvetica,sans-Serif" font-size="10.00" fill="#000000">_density_</text>
<text text-anchor="start" x="365" y="-74" font-family="Helvetica,sans-Serif" font-size="10.00" fill="#000000">free_atom_wave_functions</text>
<text text-anchor="middle" x="426.5" y="-63" font-family="Helvetica,sans-Serif" font-size="10.00" fill="#000000">_x_</text>
<text text-anchor="start" x="365" y="-52" font-family="Helvetica,sans-Serif" font-size="10.00" fill="#000000">free_atom_wave_functions</text>
<text text-anchor="middle" x="426.5" y="-41" font-family="Helvetica,sans-Serif" font-size="10.00" fill="#000000">_x_deriv_</text>
</g>
<!-- Node7 -->
<g id="node6" class="node">
<title>Node7</title>
<g id="a_node6"><a xlink:href="../../d0/d58/classsddk_1_1mdarray__base.html" target="_top" xlink:title="sddk::mdarray_base\l\&lt; double, N \&gt;">
<polygon fill="#ffffff" stroke="#000000" points="350.5,-213.5 350.5,-243.5 457.5,-243.5 457.5,-213.5 350.5,-213.5"/>
<text text-anchor="start" x="358.5" y="-231.5" font-family="Helvetica,sans-Serif" font-size="10.00" fill="#000000">sddk::mdarray_base</text>
<text text-anchor="middle" x="404" y="-220.5" font-family="Helvetica,sans-Serif" font-size="10.00" fill="#000000">&lt; double, N &gt;</text>
</a>
</g>
</g>
<!-- Node7&#45;&gt;Node6 -->
<g id="edge7" class="edge">
<title>Node7&#45;&gt;Node6</title>
<path fill="none" stroke="#191970" d="M404,-203.2259C404,-189.913 404,-174.3666 404,-164.6018"/>
<polygon fill="#191970" stroke="#191970" points="400.5001,-203.2707 404,-213.2708 407.5001,-203.2708 400.5001,-203.2707"/>
</g>
</g>
</svg>
