<?xml version="1.0" encoding="UTF-8" standalone="no"?>
<!DOCTYPE svg PUBLIC "-//W3C//DTD SVG 1.1//EN"
 "http://www.w3.org/Graphics/SVG/1.1/DTD/svg11.dtd">
<!-- Generated by graphviz version 2.40.1 (20161225.0304)
 -->
<!-- Title: sbessel.h Pages: 1 -->
<!--zoomable 823 -->
<svg id="main" version="1.1" xmlns="http://www.w3.org/2000/svg" xmlns:xlink="http://www.w3.org/1999/xlink" xml:space="preserve" onload="init(evt)">
<style type="text/css"><![CDATA[
.edge:hover path { stroke: red; }
.edge:hover polygon { stroke: red; fill: red; }
]]></style>
<script type="text/javascript"><![CDATA[
var edges = document.getElementsByTagName('g');
if (edges && edges.length) {
  for (var i=0;i<edges.length;i++) {
    if (edges[i].id.substr(0,4)=='edge') {
      edges[i].setAttribute('class','edge');
    }
  }
}
]]></script>
        <defs>
                <circle id="rim" cx="0" cy="0" r="7"/>
                <circle id="rim2" cx="0" cy="0" r="3.5"/>
                <g id="zoomPlus">
                        <use xlink:href="#rim" fill="#404040">
                                <set attributeName="fill" to="#808080" begin="zoomplus.mouseover" end="zoomplus.mouseout"/>
                        </use>
                        <path d="M-4,0h8M0,-4v8" fill="none" stroke="white" stroke-width="1.5" pointer-events="none"/>
                </g>
                <g id="zoomMin">
                        <use xlink:href="#rim" fill="#404040">
                                <set attributeName="fill" to="#808080" begin="zoomminus.mouseover" end="zoomminus.mouseout"/>
                        </use>
                        <path d="M-4,0h8" fill="none" stroke="white" stroke-width="1.5" pointer-events="none"/>
                </g>
                <g id="dirArrow">
                        <path fill="none" stroke="white" stroke-width="1.5" d="M0,-3.0v7 M-2.5,-0.5L0,-3.0L2.5,-0.5"/>
                </g>
               <g id="resetDef">
                       <use xlink:href="#rim2" fill="#404040">
                               <set attributeName="fill" to="#808080" begin="reset.mouseover" end="reset.mouseout"/>
                       </use>
               </g>
        </defs>

<script type="text/javascript">
var viewWidth = 1196;
var viewHeight = 823;
var sectionId = 'dynsection-1';
</script>
<script xlink:href="../../svgpan.js"/>
<svg id="graph" class="graph">
<g id="viewport">
<title>sbessel.h</title>
<polygon fill="#ffffff" stroke="transparent" points="-4,4 -4,-819 1192,-819 1192,4 -4,4"/>
<!-- Node124 -->
<g id="node1" class="node">
<title>Node124</title>
<polygon fill="#bfbfbf" stroke="#000000" points="703,-795.5 703,-814.5 751,-814.5 751,-795.5 703,-795.5"/>
<text text-anchor="middle" x="727" y="-802.5" font-family="Helvetica,sans-Serif" font-size="10.00" fill="#000000">sbessel.h</text>
</g>
<!-- Node125 -->
<g id="node2" class="node">
<title>Node125</title>
<g id="a_node2"><a xlink:href="../../de/d58/radial__integrals_8h.html" target="_top" xlink:title="Representation of various radial integrals. ">
<polygon fill="#ffffff" stroke="#000000" points="690,-739.5 690,-758.5 764,-758.5 764,-739.5 690,-739.5"/>
<text text-anchor="middle" x="727" y="-746.5" font-family="Helvetica,sans-Serif" font-size="10.00" fill="#000000">radial_integrals.h</text>
</a>
</g>
</g>
<!-- Node124&#45;&gt;Node125 -->
<g id="edge1" class="edge">
<title>Node124&#45;&gt;Node125</title>
<path fill="none" stroke="#191970" d="M727,-785.1575C727,-776.155 727,-765.9199 727,-758.6427"/>
<polygon fill="#191970" stroke="#191970" points="723.5001,-785.2455 727,-795.2455 730.5001,-785.2456 723.5001,-785.2455"/>
</g>
<!-- Node126 -->
<g id="node3" class="node">
<title>Node126</title>
<g id="a_node3"><a xlink:href="../../da/d12/augmentation__operator_8h.html" target="_top" xlink:title="Contains implementation of sirius::Augmentation_operator class. ">
<polygon fill="#ffffff" stroke="#000000" points="988,-616.5 988,-635.5 1088,-635.5 1088,-616.5 988,-616.5"/>
<text text-anchor="middle" x="1038" y="-623.5" font-family="Helvetica,sans-Serif" font-size="10.00" fill="#000000">augmentation_operator.h</text>
</a>
</g>
</g>
<!-- Node125&#45;&gt;Node126 -->
<g id="edge2" class="edge">
<title>Node125&#45;&gt;Node126</title>
<path fill="none" stroke="#191970" d="M760.6335,-735.698C823.7312,-710.743 958.4639,-657.4564 1013.6561,-635.628"/>
<polygon fill="#191970" stroke="#191970" points="759.1568,-732.5182 751.1449,-739.4507 761.7312,-739.0276 759.1568,-732.5182"/>
</g>
<!-- Node143 -->
<g id="node20" class="node">
<title>Node143</title>
<g id="a_node20"><a xlink:href="../../db/d74/hubbard_8hpp_source.html" target="_top" xlink:title="hubbard.hpp">
<polygon fill="#ffffff" stroke="#000000" points="151.5,-392.5 151.5,-411.5 210.5,-411.5 210.5,-392.5 151.5,-392.5"/>
<text text-anchor="middle" x="181" y="-399.5" font-family="Helvetica,sans-Serif" font-size="10.00" fill="#000000">hubbard.hpp</text>
</a>
</g>
</g>
<!-- Node125&#45;&gt;Node143 -->
<g id="edge66" class="edge">
<title>Node125&#45;&gt;Node143</title>
<path fill="none" stroke="#191970" d="M679.477,-744.8495C531.8449,-731.3254 91,-685.9242 91,-626 91,-626 91,-626 91,-514 91,-483.4754 91.8173,-472.5182 110,-448 122.2484,-431.4838 142.3342,-419.2749 158.0222,-411.6017"/>
<polygon fill="#191970" stroke="#191970" points="679.3141,-748.349 689.5897,-745.7679 679.9473,-741.3777 679.3141,-748.349"/>
</g>
<!-- Node146 -->
<g id="node23" class="node">
<title>Node146</title>
<g id="a_node23"><a xlink:href="../../de/df0/simulation__context__base_8h.html" target="_top" xlink:title="Contains definition and implementation of Simulation_context_base class. ">
<polygon fill="#ffffff" stroke="#000000" points="687.5,-672.5 687.5,-702.5 766.5,-702.5 766.5,-672.5 687.5,-672.5"/>
<text text-anchor="start" x="695.5" y="-690.5" font-family="Helvetica,sans-Serif" font-size="10.00" fill="#000000">simulation_context</text>
<text text-anchor="middle" x="727" y="-679.5" font-family="Helvetica,sans-Serif" font-size="10.00" fill="#000000">_base.h</text>
</a>
</g>
</g>
<!-- Node125&#45;&gt;Node146 -->
<g id="edge61" class="edge">
<title>Node125&#45;&gt;Node146</title>
<path fill="none" stroke="#191970" d="M727,-729.3693C727,-720.681 727,-710.6241 727,-702.5446"/>
<polygon fill="#191970" stroke="#191970" points="723.5001,-729.3906 727,-739.3906 730.5001,-729.3907 723.5001,-729.3906"/>
</g>
<!-- Node127 -->
<g id="node4" class="node">
<title>Node127</title>
<g id="a_node4"><a xlink:href="../../d5/d5b/simulation__context_8h.html" target="_top" xlink:title="Contains definition and implementation of Simulation_parameters and Simulation_context classes...">
<polygon fill="#ffffff" stroke="#000000" points="653.5,-560.5 653.5,-579.5 738.5,-579.5 738.5,-560.5 653.5,-560.5"/>
<text text-anchor="middle" x="696" y="-567.5" font-family="Helvetica,sans-Serif" font-size="10.00" fill="#000000">simulation_context.h</text>
</a>
</g>
</g>
<!-- Node126&#45;&gt;Node127 -->
<g id="edge3" class="edge">
<title>Node126&#45;&gt;Node127</title>
<path fill="none" stroke="#191970" d="M977.6844,-616.1238C909.1067,-604.8947 798.8852,-586.8467 738.6641,-576.9859"/>
<polygon fill="#191970" stroke="#191970" points="977.4698,-619.6352 987.904,-617.7971 978.601,-612.7272 977.4698,-619.6352"/>
</g>
<!-- Node130 -->
<g id="node7" class="node">
<title>Node130</title>
<g id="a_node7"><a xlink:href="../../d6/d1e/force_8hpp.html" target="_top" xlink:title="Contains defintion and implementation of sirius::Force class. ">
<polygon fill="#ffffff" stroke="#000000" points="826,-168.5 826,-187.5 874,-187.5 874,-168.5 826,-168.5"/>
<text text-anchor="middle" x="850" y="-175.5" font-family="Helvetica,sans-Serif" font-size="10.00" fill="#000000">force.hpp</text>
</a>
</g>
</g>
<!-- Node126&#45;&gt;Node130 -->
<g id="edge59" class="edge">
<title>Node126&#45;&gt;Node130</title>
<path fill="none" stroke="#191970" d="M1083.6318,-613.15C1127.7612,-597.6033 1188,-566.725 1188,-514 1188,-514 1188,-514 1188,-290 1188,-223.7772 951.2563,-189.9524 874.0372,-180.681"/>
<polygon fill="#191970" stroke="#191970" points="1082.289,-609.909 1073.9287,-616.4171 1084.5228,-616.543 1082.289,-609.909"/>
</g>
<!-- Node139 -->
<g id="node16" class="node">
<title>Node139</title>
<g id="a_node16"><a xlink:href="../../d5/d72/non__local__functor_8hpp.html" target="_top" xlink:title="Common operation for forces and stress tensor. ">
<polygon fill="#ffffff" stroke="#000000" points="680,-224.5 680,-243.5 770,-243.5 770,-224.5 680,-224.5"/>
<text text-anchor="middle" x="725" y="-231.5" font-family="Helvetica,sans-Serif" font-size="10.00" fill="#000000">non_local_functor.hpp</text>
</a>
</g>
</g>
<!-- Node126&#45;&gt;Node139 -->
<g id="edge60" class="edge">
<title>Node126&#45;&gt;Node139</title>
<path fill="none" stroke="#191970" d="M1020.5671,-609.3533C985.9826,-574.4405 912,-489.5266 912,-402 912,-402 912,-402 912,-346 912,-280.1535 825.6107,-252.0758 770.2675,-240.8445"/>
<polygon fill="#191970" stroke="#191970" points="1018.1175,-611.8533 1027.6889,-616.3962 1023.0396,-606.876 1018.1175,-611.8533"/>
</g>
<!-- Node128 -->
<g id="node5" class="node">
<title>Node128</title>
<g id="a_node5"><a xlink:href="../../d2/d5f/beta__projectors_8h.html" target="_top" xlink:title="Contains declaration and implementation of sirius::Beta_projectors class. ">
<polygon fill="#ffffff" stroke="#000000" points="813,-504.5 813,-523.5 887,-523.5 887,-504.5 813,-504.5"/>
<text text-anchor="middle" x="850" y="-511.5" font-family="Helvetica,sans-Serif" font-size="10.00" fill="#000000">beta_projectors.h</text>
</a>
</g>
</g>
<!-- Node127&#45;&gt;Node128 -->
<g id="edge4" class="edge">
<title>Node127&#45;&gt;Node128</title>
<path fill="none" stroke="#191970" d="M731.9614,-556.9231C760.1134,-546.686 798.6055,-532.6889 823.8719,-523.5011"/>
<polygon fill="#191970" stroke="#191970" points="730.6754,-553.6665 722.4735,-560.3733 733.0676,-560.245 730.6754,-553.6665"/>
</g>
<!-- Node127&#45;&gt;Node130 -->
<g id="edge56" class="edge">
<title>Node127&#45;&gt;Node130</title>
<path fill="none" stroke="#191970" d="M748.6253,-565.914C860.5346,-554.0612 1112,-509.2632 1112,-346 1112,-346 1112,-346 1112,-290 1112,-238.5534 939.0391,-196.77 874.1787,-182.9099"/>
<polygon fill="#191970" stroke="#191970" points="748.1619,-562.4429 738.5643,-566.9304 748.8655,-569.4075 748.1619,-562.4429"/>
</g>
<!-- Node136 -->
<g id="node13" class="node">
<title>Node136</title>
<g id="a_node13"><a xlink:href="../../d2/dcb/density_8h.html" target="_top" xlink:title="Contains definition and partial implementation of sirius::Density class. ">
<polygon fill="#ffffff" stroke="#000000" points="598.5,-336.5 598.5,-355.5 645.5,-355.5 645.5,-336.5 598.5,-336.5"/>
<text text-anchor="middle" x="622" y="-343.5" font-family="Helvetica,sans-Serif" font-size="10.00" fill="#000000">density.h</text>
</a>
</g>
</g>
<!-- Node127&#45;&gt;Node136 -->
<g id="edge52" class="edge">
<title>Node127&#45;&gt;Node136</title>
<path fill="none" stroke="#191970" d="M689.6256,-550.7044C674.4082,-504.6409 636.3922,-389.5657 625.1678,-355.5891"/>
<polygon fill="#191970" stroke="#191970" points="686.3601,-551.9776 692.8203,-560.375 693.0068,-549.7818 686.3601,-551.9776"/>
</g>
<!-- Node137 -->
<g id="node14" class="node">
<title>Node137</title>
<g id="a_node14"><a xlink:href="../../df/d86/potential_8h.html" target="_top" xlink:title="Contains declaration and partial implementation of sirius::Potential class. ">
<polygon fill="#ffffff" stroke="#000000" points="414.5,-280.5 414.5,-299.5 465.5,-299.5 465.5,-280.5 414.5,-280.5"/>
<text text-anchor="middle" x="440" y="-287.5" font-family="Helvetica,sans-Serif" font-size="10.00" fill="#000000">potential.h</text>
</a>
</g>
</g>
<!-- Node127&#45;&gt;Node137 -->
<g id="edge53" class="edge">
<title>Node127&#45;&gt;Node137</title>
<path fill="none" stroke="#191970" d="M642.9077,-565.2593C586.7503,-559.1329 503.2361,-546.4841 481,-524 417.7764,-460.0712 432.499,-335.334 438.2628,-299.7112"/>
<polygon fill="#191970" stroke="#191970" points="642.7425,-568.7611 653.0542,-566.3282 643.476,-561.7997 642.7425,-568.7611"/>
</g>
<!-- Node127&#45;&gt;Node139 -->
<g id="edge57" class="edge">
<title>Node127&#45;&gt;Node139</title>
<path fill="none" stroke="#191970" d="M716.2792,-553.823C738.7929,-533.8958 772,-497.7639 772,-458 772,-458 772,-458 772,-402 772,-339.6097 741.5665,-268.8451 729.6784,-243.5827"/>
<polygon fill="#191970" stroke="#191970" points="713.8921,-551.2588 708.5499,-560.4082 718.4317,-556.5872 713.8921,-551.2588"/>
</g>
<!-- Node141 -->
<g id="node18" class="node">
<title>Node141</title>
<g id="a_node18"><a xlink:href="../../de/dec/hamiltonian_8hpp.html" target="_top" xlink:title="Contains declaration and definition of sirius::Hamiltonian class. ">
<polygon fill="#ffffff" stroke="#000000" points="117.5,-168.5 117.5,-187.5 186.5,-187.5 186.5,-168.5 117.5,-168.5"/>
<text text-anchor="middle" x="152" y="-175.5" font-family="Helvetica,sans-Serif" font-size="10.00" fill="#000000">hamiltonian.hpp</text>
</a>
</g>
</g>
<!-- Node127&#45;&gt;Node141 -->
<g id="edge58" class="edge">
<title>Node127&#45;&gt;Node141</title>
<path fill="none" stroke="#191970" d="M643.0121,-567.0576C480.4896,-557.3335 0,-523.0812 0,-458 0,-458 0,-458 0,-346 0,-267.7278 91.848,-209.6282 132.7491,-187.6361"/>
<polygon fill="#191970" stroke="#191970" points="643.0598,-570.5664 653.2489,-567.6627 643.4729,-563.5786 643.0598,-570.5664"/>
</g>
<!-- Node127&#45;&gt;Node143 -->
<g id="edge54" class="edge">
<title>Node127&#45;&gt;Node143</title>
<path fill="none" stroke="#191970" d="M643.0067,-567.9984C550.4305,-563.8083 363.526,-552.0686 305,-524 290.7039,-517.1437 216.4212,-439.4407 190.1874,-411.7375"/>
<polygon fill="#191970" stroke="#191970" points="643.1332,-571.5073 653.2772,-568.4497 643.4405,-564.514 643.1332,-571.5073"/>
</g>
<!-- Node144 -->
<g id="node21" class="node">
<title>Node144</title>
<g id="a_node21"><a xlink:href="../../de/de7/non__local__operator_8hpp.html" target="_top" xlink:title="Contains declaration and implementation of sirius::Non_local_operator class. ">
<polygon fill="#ffffff" stroke="#000000" points="119.5,-448.5 119.5,-467.5 214.5,-467.5 214.5,-448.5 119.5,-448.5"/>
<text text-anchor="middle" x="167" y="-455.5" font-family="Helvetica,sans-Serif" font-size="10.00" fill="#000000">non_local_operator.hpp</text>
</a>
</g>
</g>
<!-- Node127&#45;&gt;Node144 -->
<g id="edge55" class="edge">
<title>Node127&#45;&gt;Node144</title>
<path fill="none" stroke="#191970" d="M643.1621,-566.8915C528.7585,-559.8606 265.4594,-541.9463 229,-524 203.0468,-511.2251 182.372,-482.7184 172.7954,-467.6939"/>
<polygon fill="#191970" stroke="#191970" points="643.2353,-570.4024 653.4299,-567.5179 643.6616,-563.4154 643.2353,-570.4024"/>
</g>
<!-- Node145 -->
<g id="node22" class="node">
<title>Node145</title>
<g id="a_node22"><a xlink:href="../../d8/d65/periodic__function_8h.html" target="_top" xlink:title="Contains declaration and partial implementation of sirius::Periodic_function class. ">
<polygon fill="#ffffff" stroke="#000000" points="490.5,-504.5 490.5,-523.5 569.5,-523.5 569.5,-504.5 490.5,-504.5"/>
<text text-anchor="middle" x="530" y="-511.5" font-family="Helvetica,sans-Serif" font-size="10.00" fill="#000000">periodic_function.h</text>
</a>
</g>
</g>
<!-- Node127&#45;&gt;Node145 -->
<g id="edge43" class="edge">
<title>Node127&#45;&gt;Node145</title>
<path fill="none" stroke="#191970" d="M657.6333,-557.057C627.2534,-546.8084 585.5181,-532.729 558.164,-523.5011"/>
<polygon fill="#191970" stroke="#191970" points="656.8694,-560.4931 667.4636,-560.3733 659.107,-553.8603 656.8694,-560.4931"/>
</g>
<!-- Node129 -->
<g id="node6" class="node">
<title>Node129</title>
<g id="a_node6"><a xlink:href="../../d4/d0f/beta__projectors__gradient_8h.html" target="_top" xlink:title="Contains declaration and implementation of sirius::Beta_projectors_gradient class. ">
<polygon fill="#ffffff" stroke="#000000" points="978,-336.5 978,-355.5 1084,-355.5 1084,-336.5 978,-336.5"/>
<text text-anchor="middle" x="1031" y="-343.5" font-family="Helvetica,sans-Serif" font-size="10.00" fill="#000000">beta_projectors_gradient.h</text>
</a>
</g>
</g>
<!-- Node128&#45;&gt;Node129 -->
<g id="edge5" class="edge">
<title>Node128&#45;&gt;Node129</title>
<path fill="none" stroke="#191970" d="M896.7383,-503.0484C919.0813,-495.9692 945.0233,-484.8483 964,-468 1000.5016,-435.5924 1021.1146,-378.3685 1028.1866,-355.6691"/>
<polygon fill="#191970" stroke="#191970" points="895.6693,-499.7148 887.0898,-505.9311 897.6733,-506.4219 895.6693,-499.7148"/>
</g>
<!-- Node128&#45;&gt;Node130 -->
<g id="edge41" class="edge">
<title>Node128&#45;&gt;Node130</title>
<path fill="none" stroke="#191970" d="M877.0285,-499.1058C906.6447,-480.5731 950,-445.9394 950,-402 950,-402 950,-402 950,-290 950,-241.5152 897.2107,-204.3608 868.3415,-187.6672"/>
<polygon fill="#191970" stroke="#191970" points="875.1055,-496.1781 868.3415,-504.3328 878.7145,-502.176 875.1055,-496.1781"/>
</g>
<!-- Node133 -->
<g id="node10" class="node">
<title>Node133</title>
<g id="a_node10"><a xlink:href="../../d9/d02/k__point_8h.html" target="_top" xlink:title="Contains definition and partial implementation of sirius::K_point class. ">
<polygon fill="#ffffff" stroke="#000000" points="506.5,-448.5 506.5,-467.5 553.5,-467.5 553.5,-448.5 506.5,-448.5"/>
<text text-anchor="middle" x="530" y="-455.5" font-family="Helvetica,sans-Serif" font-size="10.00" fill="#000000">k_point.h</text>
</a>
</g>
</g>
<!-- Node128&#45;&gt;Node133 -->
<g id="edge9" class="edge">
<title>Node128&#45;&gt;Node133</title>
<path fill="none" stroke="#191970" d="M802.7511,-505.7314C733.257,-493.57 606.0572,-471.31 553.5892,-462.1281"/>
<polygon fill="#191970" stroke="#191970" points="802.5257,-509.2451 812.9793,-507.5214 803.7324,-502.3499 802.5257,-509.2451"/>
</g>
<!-- Node128&#45;&gt;Node139 -->
<g id="edge42" class="edge">
<title>Node128&#45;&gt;Node139</title>
<path fill="none" stroke="#191970" d="M856.7212,-494.7316C863.8211,-472.6263 874,-435.1535 874,-402 874,-402 874,-402 874,-346 874,-289.368 804.3722,-257.8249 760.3109,-243.5337"/>
<polygon fill="#191970" stroke="#191970" points="853.3862,-493.6688 853.5413,-504.2625 860.0264,-495.8843 853.3862,-493.6688"/>
</g>
<!-- Node128&#45;&gt;Node144 -->
<g id="edge38" class="edge">
<title>Node128&#45;&gt;Node144</title>
<path fill="none" stroke="#191970" d="M802.7824,-510.1286C677.9801,-499.8959 340.3648,-472.2144 214.8485,-461.9232"/>
<polygon fill="#191970" stroke="#191970" points="802.5413,-513.6205 812.7939,-510.9494 803.1134,-506.6439 802.5413,-513.6205"/>
</g>
<!-- Node129&#45;&gt;Node130 -->
<g id="edge6" class="edge">
<title>Node129&#45;&gt;Node130</title>
<path fill="none" stroke="#191970" d="M1025.0177,-326.6713C1015.8894,-300.1365 996.0815,-252.4832 964,-224 938.1454,-201.0453 899.3615,-188.7218 874.3655,-182.7667"/>
<polygon fill="#191970" stroke="#191970" points="1021.7438,-327.9202 1028.1866,-336.3309 1028.395,-325.7381 1021.7438,-327.9202"/>
</g>
<!-- Node131 -->
<g id="node8" class="node">
<title>Node131</title>
<g id="a_node8"><a xlink:href="../../dd/dc2/sirius_8h.html" target="_top" xlink:title="&quot;All&#45;in&#45;one&quot; include file. ">
<polygon fill="#ffffff" stroke="#000000" points="575,-56.5 575,-75.5 615,-75.5 615,-56.5 575,-56.5"/>
<text text-anchor="middle" x="595" y="-63.5" font-family="Helvetica,sans-Serif" font-size="10.00" fill="#000000">sirius.h</text>
</a>
</g>
</g>
<!-- Node130&#45;&gt;Node131 -->
<g id="edge7" class="edge">
<title>Node130&#45;&gt;Node131</title>
<path fill="none" stroke="#191970" d="M843.684,-158.342C837.8406,-143.3456 827.662,-123.3868 812,-112 780.4621,-89.0708 663.04,-73.6339 615.3386,-68.1831"/>
<polygon fill="#191970" stroke="#191970" points="840.5388,-159.9434 847.1891,-168.1911 847.1336,-157.5964 840.5388,-159.9434"/>
</g>
<!-- Node132 -->
<g id="node9" class="node">
<title>Node132</title>
<g id="a_node9"><a xlink:href="../../d4/d53/sirius__api_8cpp.html" target="_top" xlink:title="Fortran API. ">
<polygon fill="#ffffff" stroke="#000000" points="564,-.5 564,-19.5 626,-19.5 626,-.5 564,-.5"/>
<text text-anchor="middle" x="595" y="-7.5" font-family="Helvetica,sans-Serif" font-size="10.00" fill="#000000">sirius_api.cpp</text>
</a>
</g>
</g>
<!-- Node131&#45;&gt;Node132 -->
<g id="edge8" class="edge">
<title>Node131&#45;&gt;Node132</title>
<path fill="none" stroke="#191970" d="M595,-46.1575C595,-37.155 595,-26.9199 595,-19.6427"/>
<polygon fill="#191970" stroke="#191970" points="591.5001,-46.2455 595,-56.2455 598.5001,-46.2456 591.5001,-46.2455"/>
</g>
<!-- Node133&#45;&gt;Node131 -->
<g id="edge37" class="edge">
<title>Node133&#45;&gt;Node131</title>
<path fill="none" stroke="#191970" d="M563.2803,-447.8021C635.0609,-423.5121 798,-355.0438 798,-234 798,-234 798,-234 798,-178 798,-95.0825 666.553,-73.0879 615.2066,-67.6593"/>
<polygon fill="#191970" stroke="#191970" points="562.182,-444.4788 553.7832,-450.9371 564.3764,-451.126 562.182,-444.4788"/>
</g>
<!-- Node134 -->
<g id="node11" class="node">
<title>Node134</title>
<g id="a_node11"><a xlink:href="../../d8/def/k__point__set_8h.html" target="_top" xlink:title="Contains declaration and partial implementation of sirius::K_point_set class. ">
<polygon fill="#ffffff" stroke="#000000" points="499.5,-392.5 499.5,-411.5 560.5,-411.5 560.5,-392.5 499.5,-392.5"/>
<text text-anchor="middle" x="530" y="-399.5" font-family="Helvetica,sans-Serif" font-size="10.00" fill="#000000">k_point_set.h</text>
</a>
</g>
</g>
<!-- Node133&#45;&gt;Node134 -->
<g id="edge10" class="edge">
<title>Node133&#45;&gt;Node134</title>
<path fill="none" stroke="#191970" d="M530,-438.1575C530,-429.155 530,-418.9199 530,-411.6427"/>
<polygon fill="#191970" stroke="#191970" points="526.5001,-438.2455 530,-448.2455 533.5001,-438.2456 526.5001,-438.2455"/>
</g>
<!-- Node133&#45;&gt;Node141 -->
<g id="edge36" class="edge">
<title>Node133&#45;&gt;Node141</title>
<path fill="none" stroke="#191970" d="M496.3306,-447.462C425.1218,-423.422 258.6185,-357.6501 171,-244 157.8957,-227.0023 153.826,-201.2782 152.5646,-187.5026"/>
<polygon fill="#191970" stroke="#191970" points="495.5313,-450.8842 506.1247,-450.7068 497.7328,-444.2394 495.5313,-450.8842"/>
</g>
<!-- Node133&#45;&gt;Node143 -->
<g id="edge33" class="edge">
<title>Node133&#45;&gt;Node143</title>
<path fill="none" stroke="#191970" d="M496.0875,-452.5585C427.8494,-441.6091 274.9854,-417.0807 210.5445,-406.7407"/>
<polygon fill="#191970" stroke="#191970" points="495.858,-456.0663 506.2862,-454.1949 496.967,-449.1547 495.858,-456.0663"/>
</g>
<!-- Node134&#45;&gt;Node131 -->
<g id="edge32" class="edge">
<title>Node134&#45;&gt;Node131</title>
<path fill="none" stroke="#191970" d="M533.7855,-382.4321C546.0145,-319.2175 584.1857,-121.9018 593.1172,-75.7328"/>
<polygon fill="#191970" stroke="#191970" points="530.3383,-381.8238 531.8752,-392.3065 537.2109,-383.1533 530.3383,-381.8238"/>
</g>
<!-- Node135 -->
<g id="node12" class="node">
<title>Node135</title>
<g id="a_node12"><a xlink:href="../../da/d3d/band_8hpp.html" target="_top" xlink:title="Contains declaration and partial implementation of sirius::Band class. ">
<polygon fill="#ffffff" stroke="#000000" points="295,-112.5 295,-131.5 343,-131.5 343,-112.5 295,-112.5"/>
<text text-anchor="middle" x="319" y="-119.5" font-family="Helvetica,sans-Serif" font-size="10.00" fill="#000000">band.hpp</text>
</a>
</g>
</g>
<!-- Node134&#45;&gt;Node135 -->
<g id="edge11" class="edge">
<title>Node134&#45;&gt;Node135</title>
<path fill="none" stroke="#191970" d="M489.4292,-393.4047C440.2864,-380.3365 364,-350.3336 364,-290 364,-290 364,-290 364,-234 364,-193.5564 338.4231,-150.4362 325.8345,-131.6623"/>
<polygon fill="#191970" stroke="#191970" points="488.6126,-396.8084 499.1657,-395.8689 490.3301,-390.0223 488.6126,-396.8084"/>
</g>
<!-- Node134&#45;&gt;Node136 -->
<g id="edge13" class="edge">
<title>Node134&#45;&gt;Node136</title>
<path fill="none" stroke="#191970" d="M555.0224,-386.769C571.325,-376.8456 592.101,-364.1994 606.1585,-355.6427"/>
<polygon fill="#191970" stroke="#191970" points="552.7473,-384.0563 546.0252,-392.2455 556.387,-390.0357 552.7473,-384.0563"/>
</g>
<!-- Node138 -->
<g id="node15" class="node">
<title>Node138</title>
<g id="a_node15"><a xlink:href="../../d6/df1/dft__ground__state_8h.html" target="_top" xlink:title="Contains definition and partial implementation of sirius::DFT_ground_state class. ...">
<polygon fill="#ffffff" stroke="#000000" points="468.5,-224.5 468.5,-243.5 547.5,-243.5 547.5,-224.5 468.5,-224.5"/>
<text text-anchor="middle" x="508" y="-231.5" font-family="Helvetica,sans-Serif" font-size="10.00" fill="#000000">dft_ground_state.h</text>
</a>
</g>
</g>
<!-- Node134&#45;&gt;Node138 -->
<g id="edge31" class="edge">
<title>Node134&#45;&gt;Node138</title>
<path fill="none" stroke="#191970" d="M527.415,-382.2601C522.6885,-346.1669 512.8145,-270.7656 509.287,-243.8279"/>
<polygon fill="#191970" stroke="#191970" points="523.9853,-383.0254 528.7542,-392.4862 530.926,-382.1164 523.9853,-383.0254"/>
</g>
<!-- Node135&#45;&gt;Node131 -->
<g id="edge12" class="edge">
<title>Node135&#45;&gt;Node131</title>
<path fill="none" stroke="#191970" d="M353.1553,-115.0699C411.2795,-103.2766 527.6878,-79.6575 574.6561,-70.1278"/>
<polygon fill="#191970" stroke="#191970" points="352.1147,-111.7097 343.0104,-117.1283 353.5067,-118.5699 352.1147,-111.7097"/>
</g>
<!-- Node136&#45;&gt;Node130 -->
<g id="edge28" class="edge">
<title>Node136&#45;&gt;Node130</title>
<path fill="none" stroke="#191970" d="M624.3969,-326.2157C628.7503,-299.1067 640.5251,-250.7398 671,-224 694.0328,-203.7902 782.3377,-188.131 825.6952,-181.482"/>
<polygon fill="#191970" stroke="#191970" points="620.8904,-326.0151 622.9526,-336.4073 627.8212,-326.9973 620.8904,-326.0151"/>
</g>
<!-- Node136&#45;&gt;Node131 -->
<g id="edge30" class="edge">
<title>Node136&#45;&gt;Node131</title>
<path fill="none" stroke="#191970" d="M620.0825,-326.1153C614.7352,-270.6613 599.7964,-115.7405 595.9255,-75.5977"/>
<polygon fill="#191970" stroke="#191970" points="616.6268,-326.7439 621.0706,-336.3618 623.5945,-326.072 616.6268,-326.7439"/>
</g>
<!-- Node136&#45;&gt;Node137 -->
<g id="edge14" class="edge">
<title>Node136&#45;&gt;Node137</title>
<path fill="none" stroke="#191970" d="M588.3052,-335.6324C552.7933,-324.7056 497.6495,-307.7383 465.558,-297.864"/>
<polygon fill="#191970" stroke="#191970" points="587.6196,-339.0833 598.2067,-338.679 589.6782,-332.3928 587.6196,-339.0833"/>
</g>
<!-- Node136&#45;&gt;Node138 -->
<g id="edge27" class="edge">
<title>Node136&#45;&gt;Node138</title>
<path fill="none" stroke="#191970" d="M604.8528,-329.1536C580.5847,-305.3113 537.0248,-262.5156 517.695,-243.5249"/>
<polygon fill="#191970" stroke="#191970" points="602.6941,-331.9394 612.2804,-336.4509 607.5999,-326.946 602.6941,-331.9394"/>
</g>
<!-- Node136&#45;&gt;Node139 -->
<g id="edge29" class="edge">
<title>Node136&#45;&gt;Node139</title>
<path fill="none" stroke="#191970" d="M637.7796,-328.8416C659.7609,-304.9396 698.8518,-262.433 716.2405,-243.5249"/>
<polygon fill="#191970" stroke="#191970" points="634.9747,-326.7211 630.7817,-336.4509 640.1271,-331.4595 634.9747,-326.7211"/>
</g>
<!-- Node137&#45;&gt;Node130 -->
<g id="edge17" class="edge">
<title>Node137&#45;&gt;Node130</title>
<path fill="none" stroke="#191970" d="M440.1834,-269.8556C441.4721,-254.8847 445.816,-235.1907 459,-224 487.0738,-200.1706 744.9539,-183.8636 825.8462,-179.3004"/>
<polygon fill="#191970" stroke="#191970" points="436.6723,-270.0105 439.6977,-280.1642 443.6645,-270.34 436.6723,-270.0105"/>
</g>
<!-- Node137&#45;&gt;Node131 -->
<g id="edge26" class="edge">
<title>Node137&#45;&gt;Node131</title>
<path fill="none" stroke="#191970" d="M436.9766,-270.0134C435.7884,-256.5009 435.9137,-238.54 442,-224 471.3404,-153.9074 547.5179,-97.3133 579.9862,-75.5861"/>
<polygon fill="#191970" stroke="#191970" points="433.5249,-270.6282 438.1815,-280.1449 440.4759,-269.8015 433.5249,-270.6282"/>
</g>
<!-- Node137&#45;&gt;Node138 -->
<g id="edge15" class="edge">
<title>Node137&#45;&gt;Node138</title>
<path fill="none" stroke="#191970" d="M459.8596,-273.645C471.6858,-263.9058 486.2892,-251.8795 496.291,-243.6427"/>
<polygon fill="#191970" stroke="#191970" points="457.339,-271.1867 451.8447,-280.2455 461.789,-276.5902 457.339,-271.1867"/>
</g>
<!-- Node137&#45;&gt;Node139 -->
<g id="edge18" class="edge">
<title>Node137&#45;&gt;Node139</title>
<path fill="none" stroke="#191970" d="M475.5796,-283.0089C527.3238,-272.8416 623.326,-253.9781 679.9429,-242.8533"/>
<polygon fill="#191970" stroke="#191970" points="474.6802,-279.6186 465.5427,-284.9811 476.0299,-286.4873 474.6802,-279.6186"/>
</g>
<!-- Node137&#45;&gt;Node141 -->
<g id="edge22" class="edge">
<title>Node137&#45;&gt;Node141</title>
<path fill="none" stroke="#191970" d="M405.8633,-276.7246C347.0215,-253.8417 227.8736,-207.5064 176.4926,-187.5249"/>
<polygon fill="#191970" stroke="#191970" points="404.8566,-280.0884 415.4453,-280.4509 407.3938,-273.5644 404.8566,-280.0884"/>
</g>
<!-- Node142 -->
<g id="node19" class="node">
<title>Node142</title>
<g id="a_node19"><a xlink:href="../../d3/d2c/local__operator_8hpp.html" target="_top" xlink:title="Contains declaration and implementation of sirius::Local_operator class. ">
<polygon fill="#ffffff" stroke="#000000" points="180.5,-224.5 180.5,-243.5 259.5,-243.5 259.5,-224.5 180.5,-224.5"/>
<text text-anchor="middle" x="220" y="-231.5" font-family="Helvetica,sans-Serif" font-size="10.00" fill="#000000">local_operator.hpp</text>
</a>
</g>
</g>
<!-- Node137&#45;&gt;Node142 -->
<g id="edge24" class="edge">
<title>Node137&#45;&gt;Node142</title>
<path fill="none" stroke="#191970" d="M404.412,-280.9412C364.1149,-270.6838 298.7342,-254.0414 257.6172,-243.5753"/>
<polygon fill="#191970" stroke="#191970" points="403.7783,-284.3915 414.3326,-283.4665 405.5051,-277.6078 403.7783,-284.3915"/>
</g>
<!-- Node138&#45;&gt;Node131 -->
<g id="edge16" class="edge">
<title>Node138&#45;&gt;Node131</title>
<path fill="none" stroke="#191970" d="M515.0185,-214.9598C524.3687,-190.4454 542.0667,-146.8545 562,-112 569.5143,-98.8609 579.9299,-84.8834 587.0369,-75.831"/>
<polygon fill="#191970" stroke="#191970" points="511.6751,-213.9074 511.4358,-224.4995 518.2282,-216.3685 511.6751,-213.9074"/>
</g>
<!-- Node139&#45;&gt;Node130 -->
<g id="edge19" class="edge">
<title>Node139&#45;&gt;Node130</title>
<path fill="none" stroke="#191970" d="M755.698,-220.2473C778.3993,-210.0771 808.7315,-196.4883 828.7921,-187.5011"/>
<polygon fill="#191970" stroke="#191970" points="754.1833,-217.0906 746.4883,-224.3733 757.0453,-223.4789 754.1833,-217.0906"/>
</g>
<!-- Node140 -->
<g id="node17" class="node">
<title>Node140</title>
<g id="a_node17"><a xlink:href="../../d7/dd1/stress_8hpp.html" target="_top" xlink:title="Stress tensor calculation. ">
<polygon fill="#ffffff" stroke="#000000" points="657.5,-112.5 657.5,-131.5 708.5,-131.5 708.5,-112.5 657.5,-112.5"/>
<text text-anchor="middle" x="683" y="-119.5" font-family="Helvetica,sans-Serif" font-size="10.00" fill="#000000">stress.hpp</text>
</a>
</g>
</g>
<!-- Node139&#45;&gt;Node140 -->
<g id="edge20" class="edge">
<title>Node139&#45;&gt;Node140</title>
<path fill="none" stroke="#191970" d="M717.847,-214.9253C708.7731,-190.7284 693.4766,-149.9376 686.5718,-131.5249"/>
<polygon fill="#191970" stroke="#191970" points="714.6307,-216.3166 721.4191,-224.4509 721.185,-213.8587 714.6307,-216.3166"/>
</g>
<!-- Node140&#45;&gt;Node131 -->
<g id="edge21" class="edge">
<title>Node140&#45;&gt;Node131</title>
<path fill="none" stroke="#191970" d="M659.0655,-106.769C643.4717,-96.8456 623.599,-84.1994 610.1528,-75.6427"/>
<polygon fill="#191970" stroke="#191970" points="657.3559,-109.8296 667.6716,-112.2455 661.114,-103.9239 657.3559,-109.8296"/>
</g>
<!-- Node141&#45;&gt;Node135 -->
<g id="edge23" class="edge">
<title>Node141&#45;&gt;Node135</title>
<path fill="none" stroke="#191970" d="M190.2648,-165.1687C222.5001,-154.3593 267.6182,-139.2298 294.9911,-130.0509"/>
<polygon fill="#191970" stroke="#191970" points="189.0767,-161.8755 180.7083,-168.3733 191.3022,-168.5123 189.0767,-161.8755"/>
</g>
<!-- Node142&#45;&gt;Node141 -->
<g id="edge25" class="edge">
<title>Node142&#45;&gt;Node141</title>
<path fill="none" stroke="#191970" d="M200.1404,-217.645C188.3142,-207.9058 173.7108,-195.8795 163.709,-187.6427"/>
<polygon fill="#191970" stroke="#191970" points="198.211,-220.5902 208.1553,-224.2455 202.661,-215.1867 198.211,-220.5902"/>
</g>
<!-- Node143&#45;&gt;Node138 -->
<g id="edge34" class="edge">
<title>Node143&#45;&gt;Node138</title>
<path fill="none" stroke="#191970" d="M206.4424,-387.2888C247.6362,-363.6648 331.721,-316.2488 405,-280 432.2086,-266.5408 464.2283,-252.5166 485.2587,-243.5456"/>
<polygon fill="#191970" stroke="#191970" points="204.5471,-384.3412 197.6222,-392.3597 208.0361,-390.4098 204.5471,-384.3412"/>
</g>
<!-- Node143&#45;&gt;Node141 -->
<g id="edge35" class="edge">
<title>Node143&#45;&gt;Node141</title>
<path fill="none" stroke="#191970" d="M173.4978,-382.7838C162.5625,-353.43 143.0012,-295.4079 138,-244 137.1393,-235.1529 136.6917,-232.7921 138,-224 139.9167,-211.1193 144.6962,-196.8554 148.1376,-187.6772"/>
<polygon fill="#191970" stroke="#191970" points="170.2665,-384.1337 177.0933,-392.2359 176.8092,-381.6449 170.2665,-384.1337"/>
</g>
<!-- Node144&#45;&gt;Node141 -->
<g id="edge40" class="edge">
<title>Node144&#45;&gt;Node141</title>
<path fill="none" stroke="#191970" d="M142.5688,-442.6245C115.6144,-423.5496 76,-388.3171 76,-346 76,-346 76,-346 76,-290 76,-245.3528 117.864,-205.2845 139.4501,-187.5918"/>
<polygon fill="#191970" stroke="#191970" points="140.912,-445.7305 151.149,-448.4609 144.8491,-439.9426 140.912,-445.7305"/>
</g>
<!-- Node144&#45;&gt;Node143 -->
<g id="edge39" class="edge">
<title>Node144&#45;&gt;Node143</title>
<path fill="none" stroke="#191970" d="M171.8865,-438.4538C174.1549,-429.3803 176.75,-418.9998 178.5893,-411.6427"/>
<polygon fill="#191970" stroke="#191970" points="168.4685,-437.6952 169.4386,-448.2455 175.2595,-439.393 168.4685,-437.6952"/>
</g>
<!-- Node145&#45;&gt;Node130 -->
<g id="edge48" class="edge">
<title>Node145&#45;&gt;Node130</title>
<path fill="none" stroke="#191970" d="M579.5731,-506.3847C666.1989,-491.6679 836,-455.9409 836,-402 836,-402 836,-402 836,-290 836,-251.7883 844.123,-206.8056 847.9941,-187.5381"/>
<polygon fill="#191970" stroke="#191970" points="578.978,-502.9356 569.6905,-508.0338 580.1302,-509.8401 578.978,-502.9356"/>
</g>
<!-- Node145&#45;&gt;Node131 -->
<g id="edge51" class="edge">
<title>Node145&#45;&gt;Node131</title>
<path fill="none" stroke="#191970" d="M480.4117,-512.4185C383.9979,-508.7197 175.0267,-497.4706 110,-468 70.4609,-450.0806 38,-445.4102 38,-402 38,-402 38,-402 38,-346 38,-318.0809 94.3154,-180.5694 108,-168 178.538,-103.2105 492.281,-74.131 574.9691,-67.5096"/>
<polygon fill="#191970" stroke="#191970" points="480.367,-515.9192 490.4901,-512.7933 480.6271,-508.924 480.367,-515.9192"/>
</g>
<!-- Node145&#45;&gt;Node133 -->
<g id="edge46" class="edge">
<title>Node145&#45;&gt;Node133</title>
<path fill="none" stroke="#191970" d="M530,-494.1575C530,-485.155 530,-474.9199 530,-467.6427"/>
<polygon fill="#191970" stroke="#191970" points="526.5001,-494.2455 530,-504.2455 533.5001,-494.2456 526.5001,-494.2455"/>
</g>
<!-- Node145&#45;&gt;Node135 -->
<g id="edge44" class="edge">
<title>Node145&#45;&gt;Node135</title>
<path fill="none" stroke="#191970" d="M494.7464,-500.6805C427.6032,-472.7571 288,-401.3146 288,-290 288,-290 288,-290 288,-234 288,-194.8595 305.8027,-150.722 314.4258,-131.6387"/>
<polygon fill="#191970" stroke="#191970" points="493.5199,-503.96 504.1018,-504.4842 496.1564,-497.4755 493.5199,-503.96"/>
</g>
<!-- Node145&#45;&gt;Node136 -->
<g id="edge45" class="edge">
<title>Node145&#45;&gt;Node136</title>
<path fill="none" stroke="#191970" d="M543.3294,-496.1847C549.3399,-487.8226 556.3424,-477.6023 562,-468 585.7241,-427.7345 608.6423,-376.7736 617.8094,-355.7488"/>
<polygon fill="#191970" stroke="#191970" points="540.3895,-494.2754 537.3071,-504.412 546.038,-498.41 540.3895,-494.2754"/>
</g>
<!-- Node145&#45;&gt;Node137 -->
<g id="edge47" class="edge">
<title>Node145&#45;&gt;Node137</title>
<path fill="none" stroke="#191970" d="M515.3008,-496.2834C509.0175,-488.0637 501.9954,-477.9298 497,-468 466.5221,-407.4169 447.8173,-327.1142 441.9764,-299.6701"/>
<polygon fill="#191970" stroke="#191970" points="512.7422,-498.69 521.6978,-504.3511 518.2272,-494.3408 512.7422,-498.69"/>
</g>
<!-- Node145&#45;&gt;Node139 -->
<g id="edge49" class="edge">
<title>Node145&#45;&gt;Node139</title>
<path fill="none" stroke="#191970" d="M550.7781,-497.8797C560.8193,-489.5475 572.6817,-478.8644 582,-468 648.9509,-389.9405 704.7259,-277.0185 720.521,-243.6361"/>
<polygon fill="#191970" stroke="#191970" points="548.4415,-495.2681 542.8677,-504.2783 552.8438,-500.7105 548.4415,-495.2681"/>
</g>
<!-- Node145&#45;&gt;Node142 -->
<g id="edge50" class="edge">
<title>Node145&#45;&gt;Node142</title>
<path fill="none" stroke="#191970" d="M480.4326,-505.318C450.0999,-498.4505 411.4102,-486.8054 381,-468 322.448,-431.7919 312.2808,-413.2184 274,-356 248.3692,-317.6896 229.9561,-265.2198 223.0271,-243.7536"/>
<polygon fill="#191970" stroke="#191970" points="479.8611,-508.7753 490.3749,-507.4674 481.3402,-501.9333 479.8611,-508.7753"/>
</g>
<!-- Node146&#45;&gt;Node127 -->
<g id="edge62" class="edge">
<title>Node146&#45;&gt;Node127</title>
<path fill="none" stroke="#191970" d="M720.343,-662.2677C713.5105,-636.3706 703.2333,-597.4164 698.5221,-579.5595"/>
<polygon fill="#191970" stroke="#191970" points="717.012,-663.3627 722.9473,-672.1389 723.7804,-661.5769 717.012,-663.3627"/>
</g>
<!-- Node147 -->
<g id="node24" class="node">
<title>Node147</title>
<g id="a_node24"><a xlink:href="../../d3/d0e/step__function_8h.html" target="_top" xlink:title="Contains definition and partial implementation of sirius::Step_function class. ">
<polygon fill="#ffffff" stroke="#000000" points="724.5,-616.5 724.5,-635.5 791.5,-635.5 791.5,-616.5 724.5,-616.5"/>
<text text-anchor="middle" x="758" y="-623.5" font-family="Helvetica,sans-Serif" font-size="10.00" fill="#000000">step_function.h</text>
</a>
</g>
</g>
<!-- Node146&#45;&gt;Node147 -->
<g id="edge63" class="edge">
<title>Node146&#45;&gt;Node147</title>
<path fill="none" stroke="#191970" d="M739.2576,-663.1825C744.0708,-653.6337 749.3207,-643.2186 753.0365,-635.8469"/>
<polygon fill="#191970" stroke="#191970" points="736.0387,-661.7926 734.6629,-672.2977 742.2895,-664.9435 736.0387,-661.7926"/>
</g>
<!-- Node147&#45;&gt;Node127 -->
<g id="edge64" class="edge">
<title>Node147&#45;&gt;Node127</title>
<path fill="none" stroke="#191970" d="M739.5779,-609.3607C728.8519,-599.6727 715.7066,-587.7995 706.6758,-579.6427"/>
<polygon fill="#191970" stroke="#191970" points="737.4334,-612.14 747.2004,-616.2455 742.1254,-606.9453 737.4334,-612.14"/>
</g>
<!-- Node147&#45;&gt;Node131 -->
<g id="edge65" class="edge">
<title>Node147&#45;&gt;Node131</title>
<path fill="none" stroke="#191970" d="M801.7724,-616.972C904.0309,-594.6262 1150,-533.0735 1150,-458 1150,-458 1150,-458 1150,-178 1150,-122.2781 714.5807,-77.3983 615.0806,-67.87"/>
<polygon fill="#191970" stroke="#191970" points="800.7965,-613.602 791.761,-619.1346 802.2745,-620.4442 800.7965,-613.602"/>
</g>
</g>
</svg>
        <g id="navigator" transform="translate(0 0)" fill="#404254">
                <rect fill="#f2f5e9" fill-opacity="0.5" stroke="#606060" stroke-width=".5" x="0" y="0" width="60" height="60"/>
                <use id="zoomplus" xlink:href="#zoomPlus" x="17" y="9" onmousedown="handleZoom(evt,'in')"/>
                <use id="zoomminus" xlink:href="#zoomMin" x="42" y="9" onmousedown="handleZoom(evt,'out')"/>
                <use id="reset" xlink:href="#resetDef" x="30" y="36" onmousedown="handleReset()"/>
                <g id="arrowUp" xlink:href="#dirArrow" transform="translate(30 24)" onmousedown="handlePan(0,-1)">
                  <use xlink:href="#rim" fill="#404040">
                        <set attributeName="fill" to="#808080" begin="arrowUp.mouseover" end="arrowUp.mouseout"/>
                  </use>
                  <path fill="none" stroke="white" stroke-width="1.5" d="M0,-3.0v7 M-2.5,-0.5L0,-3.0L2.5,-0.5"/>
                </g>
                <g id="arrowRight" xlink:href="#dirArrow" transform="rotate(90) translate(36 -43)" onmousedown="handlePan(1,0)">
                  <use xlink:href="#rim" fill="#404040">
                        <set attributeName="fill" to="#808080" begin="arrowRight.mouseover" end="arrowRight.mouseout"/>
                  </use>
                  <path fill="none" stroke="white" stroke-width="1.5" d="M0,-3.0v7 M-2.5,-0.5L0,-3.0L2.5,-0.5"/>
                </g>
                <g id="arrowDown" xlink:href="#dirArrow" transform="rotate(180) translate(-30 -48)" onmousedown="handlePan(0,1)">
                  <use xlink:href="#rim" fill="#404040">
                        <set attributeName="fill" to="#808080" begin="arrowDown.mouseover" end="arrowDown.mouseout"/>
                  </use>
                  <path fill="none" stroke="white" stroke-width="1.5" d="M0,-3.0v7 M-2.5,-0.5L0,-3.0L2.5,-0.5"/>
                </g>
                <g id="arrowLeft" xlink:href="#dirArrow" transform="rotate(270) translate(-36 17)" onmousedown="handlePan(-1,0)">
                  <use xlink:href="#rim" fill="#404040">
                        <set attributeName="fill" to="#808080" begin="arrowLeft.mouseover" end="arrowLeft.mouseout"/>
                  </use>
                  <path fill="none" stroke="white" stroke-width="1.5" d="M0,-3.0v7 M-2.5,-0.5L0,-3.0L2.5,-0.5"/>
                </g>
        </g>
        <svg viewBox="0 0 15 15" width="100%" height="30px" preserveAspectRatio="xMaxYMin meet">
         <g id="arrow_out" transform="scale(0.3 0.3)">
          <a xlink:href="sbessel_8h__dep__incl_org.svg" target="_base">
           <rect id="button" ry="5" rx="5" y="6" x="6" height="38" width="38"
                fill="#f2f5e9" fill-opacity="0.5" stroke="#606060" stroke-width="1.0"/>
           <path id="arrow"
             d="M 11.500037,31.436501 C 11.940474,20.09759 22.043105,11.32322 32.158766,21.979434 L 37.068811,17.246167 C 37.068811,17.246167 37.088388,32 37.088388,32 L 22.160133,31.978069 C 22.160133,31.978069 26.997745,27.140456 26.997745,27.140456 C 18.528582,18.264221 13.291696,25.230495 11.500037,31.436501 z"
             style="fill:#404040;"/>
          </a>
         </g>
        </svg>
</svg>
