<?xml version="1.0" encoding="UTF-8" standalone="no"?>
<!DOCTYPE svg PUBLIC "-//W3C//DTD SVG 1.1//EN"
 "http://www.w3.org/Graphics/SVG/1.1/DTD/svg11.dtd">
<!-- Generated by graphviz version 2.40.1 (20161225.0304)
 -->
<!-- Title: eigenproblem.h Pages: 1 -->
<svg width="1019pt" height="420pt"
 viewBox="0.00 0.00 1019.04 420.00" xmlns="http://www.w3.org/2000/svg" xmlns:xlink="http://www.w3.org/1999/xlink">
<g id="graph0" class="graph" transform="scale(1 1) rotate(0) translate(4 416)">
<title>eigenproblem.h</title>
<polygon fill="#ffffff" stroke="transparent" points="-4,4 -4,-416 1015.041,-416 1015.041,4 -4,4"/>
<!-- Node0 -->
<g id="node1" class="node">
<title>Node0</title>
<polygon fill="#bfbfbf" stroke="#000000" points="318.5,-392.5 318.5,-411.5 386.5,-411.5 386.5,-392.5 318.5,-392.5"/>
<text text-anchor="middle" x="352.5" y="-399.5" font-family="Helvetica,sans-Serif" font-size="10.00" fill="#000000">eigenproblem.h</text>
</g>
<!-- Node1 -->
<g id="node2" class="node">
<title>Node1</title>
<g id="a_node2"><a xlink:href="../../d2/d6f/constants_8h.html" target="_top" xlink:title="Various constants. ">
<polygon fill="#ffffff" stroke="#000000" points="0,-280.5 0,-299.5 55,-299.5 55,-280.5 0,-280.5"/>
<text text-anchor="middle" x="27.5" y="-287.5" font-family="Helvetica,sans-Serif" font-size="10.00" fill="#000000">constants.h</text>
</a>
</g>
</g>
<!-- Node0&#45;&gt;Node1 -->
<g id="edge1" class="edge">
<title>Node0&#45;&gt;Node1</title>
<path fill="none" stroke="#191970" d="M324.7907,-392.4509C266.3872,-372.3242 130.6188,-325.5363 64.7162,-302.8253"/>
<polygon fill="#191970" stroke="#191970" points="65.7339,-299.474 55.1392,-299.5249 63.4532,-306.0921 65.7339,-299.474"/>
</g>
<!-- Node3 -->
<g id="node4" class="node">
<title>Node3</title>
<g id="a_node4"><a xlink:href="../../d6/dc7/linalg_8hpp.html" target="_top" xlink:title="Linear algebra interface. ">
<polygon fill="#ffffff" stroke="#000000" points="289,-336.5 289,-355.5 338,-355.5 338,-336.5 289,-336.5"/>
<text text-anchor="middle" x="313.5" y="-343.5" font-family="Helvetica,sans-Serif" font-size="10.00" fill="#000000">linalg.hpp</text>
</a>
</g>
</g>
<!-- Node0&#45;&gt;Node3 -->
<g id="edge3" class="edge">
<title>Node0&#45;&gt;Node3</title>
<path fill="none" stroke="#191970" d="M345.7067,-392.2455C340.2822,-384.4564 332.5339,-373.3308 325.9967,-363.9439"/>
<polygon fill="#191970" stroke="#191970" points="328.8025,-361.8485 320.2154,-355.6427 323.0583,-365.849 328.8025,-361.8485"/>
</g>
<!-- Node42 -->
<g id="node43" class="node">
<title>Node42</title>
<polygon fill="#ffffff" stroke="#bfbfbf" points="356,-336.5 356,-355.5 429,-355.5 429,-336.5 356,-336.5"/>
<text text-anchor="middle" x="392.5" y="-343.5" font-family="Helvetica,sans-Serif" font-size="10.00" fill="#000000">elpa_constants.h</text>
</g>
<!-- Node0&#45;&gt;Node42 -->
<g id="edge57" class="edge">
<title>Node0&#45;&gt;Node42</title>
<path fill="none" stroke="#191970" d="M359.4675,-392.2455C365.0311,-384.4564 372.978,-373.3308 379.6829,-363.9439"/>
<polygon fill="#191970" stroke="#191970" points="382.648,-365.8144 385.6124,-355.6427 376.9519,-361.7457 382.648,-365.8144"/>
</g>
<!-- Node43 -->
<g id="node44" class="node">
<title>Node43</title>
<g id="a_node44"><a xlink:href="../../d2/da7/elpa_8h_source.html" target="_top" xlink:title="elpa.h">
<polygon fill="#ffffff" stroke="#000000" points="447,-336.5 447,-355.5 484,-355.5 484,-336.5 447,-336.5"/>
<text text-anchor="middle" x="465.5" y="-343.5" font-family="Helvetica,sans-Serif" font-size="10.00" fill="#000000">elpa.h</text>
</a>
</g>
</g>
<!-- Node0&#45;&gt;Node43 -->
<g id="edge58" class="edge">
<title>Node0&#45;&gt;Node43</title>
<path fill="none" stroke="#191970" d="M371.9254,-392.3733C390.0111,-383.4104 417.171,-369.9507 437.5786,-359.8372"/>
<polygon fill="#191970" stroke="#191970" points="439.2976,-362.8915 446.7036,-355.315 436.1893,-356.6195 439.2976,-362.8915"/>
</g>
<!-- Node2 -->
<g id="node3" class="node">
<title>Node2</title>
<polygon fill="#ffffff" stroke="#bfbfbf" points="5.5,-.5 5.5,-19.5 49.5,-19.5 49.5,-.5 5.5,-.5"/>
<text text-anchor="middle" x="27.5" y="-7.5" font-family="Helvetica,sans-Serif" font-size="10.00" fill="#000000">complex</text>
</g>
<!-- Node1&#45;&gt;Node2 -->
<g id="edge2" class="edge">
<title>Node1&#45;&gt;Node2</title>
<path fill="none" stroke="#191970" d="M27.5,-280.4116C27.5,-261.0538 27.5,-215.9167 27.5,-178 27.5,-178 27.5,-178 27.5,-122 27.5,-89.7116 27.5,-52.1872 27.5,-29.8048"/>
<polygon fill="#191970" stroke="#191970" points="31.0001,-29.5883 27.5,-19.5884 24.0001,-29.5884 31.0001,-29.5883"/>
</g>
<!-- Node4 -->
<g id="node5" class="node">
<title>Node4</title>
<polygon fill="#ffffff" stroke="#bfbfbf" points="399,-280.5 399,-299.5 440,-299.5 440,-280.5 399,-280.5"/>
<text text-anchor="middle" x="419.5" y="-287.5" font-family="Helvetica,sans-Serif" font-size="10.00" fill="#000000">stdint.h</text>
</g>
<!-- Node3&#45;&gt;Node4 -->
<g id="edge4" class="edge">
<title>Node3&#45;&gt;Node4</title>
<path fill="none" stroke="#191970" d="M331.9638,-336.2455C348.6074,-327.4527 373.2993,-314.4079 392.2192,-304.4125"/>
<polygon fill="#191970" stroke="#191970" points="394.0408,-307.4086 401.2478,-299.6427 390.7709,-301.2193 394.0408,-307.4086"/>
</g>
<!-- Node5 -->
<g id="node6" class="node">
<title>Node5</title>
<g id="a_node6"><a xlink:href="../../db/d1f/cublas_8hpp.html" target="_top" xlink:title="Interface to cuBLAS related functions. ">
<polygon fill="#ffffff" stroke="#000000" points="224,-112.5 224,-131.5 295,-131.5 295,-112.5 224,-112.5"/>
<text text-anchor="middle" x="259.5" y="-119.5" font-family="Helvetica,sans-Serif" font-size="10.00" fill="#000000">GPU/cublas.hpp</text>
</a>
</g>
</g>
<!-- Node3&#45;&gt;Node5 -->
<g id="edge5" class="edge">
<title>Node3&#45;&gt;Node5</title>
<path fill="none" stroke="#191970" d="M311.1797,-336.375C302.9925,-302.4133 275.3498,-187.7472 264.2103,-141.5392"/>
<polygon fill="#191970" stroke="#191970" points="267.5578,-140.4904 261.8117,-131.5891 260.7528,-142.1309 267.5578,-140.4904"/>
</g>
<!-- Node17 -->
<g id="node18" class="node">
<title>Node17</title>
<g id="a_node18"><a xlink:href="../../dd/df1/blas__lapack_8h_source.html" target="_top" xlink:title="blas_lapack.h">
<polygon fill="#ffffff" stroke="#000000" points="57.5,-56.5 57.5,-75.5 119.5,-75.5 119.5,-56.5 57.5,-56.5"/>
<text text-anchor="middle" x="88.5" y="-63.5" font-family="Helvetica,sans-Serif" font-size="10.00" fill="#000000">blas_lapack.h</text>
</a>
</g>
</g>
<!-- Node3&#45;&gt;Node17 -->
<g id="edge19" class="edge">
<title>Node3&#45;&gt;Node17</title>
<path fill="none" stroke="#191970" d="M288.886,-339.6214C229.5522,-323.5248 83.5,-279.3015 83.5,-234 83.5,-234 83.5,-234 83.5,-178 83.5,-145.6794 85.6037,-108.1646 87.082,-85.7929"/>
<polygon fill="#191970" stroke="#191970" points="90.5898,-85.7984 87.7836,-75.5819 83.6063,-85.3185 90.5898,-85.7984"/>
</g>
<!-- Node18 -->
<g id="node19" class="node">
<title>Node18</title>
<g id="a_node19"><a xlink:href="../../d6/d71/mdarray_8hpp.html" target="_top" xlink:title="Contains implementation of multidimensional array class. ">
<polygon fill="#ffffff" stroke="#000000" points="702,-112.5 702,-131.5 761,-131.5 761,-112.5 702,-112.5"/>
<text text-anchor="middle" x="731.5" y="-119.5" font-family="Helvetica,sans-Serif" font-size="10.00" fill="#000000">mdarray.hpp</text>
</a>
</g>
</g>
<!-- Node3&#45;&gt;Node18 -->
<g id="edge21" class="edge">
<title>Node3&#45;&gt;Node18</title>
<path fill="none" stroke="#191970" d="M338.4928,-337.837C365.6752,-328.8768 410.3494,-313.9108 448.5,-300 577.5285,-252.9525 658.9583,-301.3539 736.5,-188 745.7028,-174.547 743.1724,-155.7399 739.0858,-141.642"/>
<polygon fill="#191970" stroke="#191970" points="742.3303,-140.3091 735.826,-131.9458 735.6952,-142.5398 742.3303,-140.3091"/>
</g>
<!-- Node28 -->
<g id="node29" class="node">
<title>Node28</title>
<g id="a_node29"><a xlink:href="../../d3/d9b/dmatrix_8hpp.html" target="_top" xlink:title="Contains definition and implementaiton of dmatrix class. ">
<polygon fill="#ffffff" stroke="#000000" points="324.5,-280.5 324.5,-299.5 380.5,-299.5 380.5,-280.5 324.5,-280.5"/>
<text text-anchor="middle" x="352.5" y="-287.5" font-family="Helvetica,sans-Serif" font-size="10.00" fill="#000000">dmatrix.hpp</text>
</a>
</g>
</g>
<!-- Node3&#45;&gt;Node28 -->
<g id="edge34" class="edge">
<title>Node3&#45;&gt;Node28</title>
<path fill="none" stroke="#191970" d="M320.2933,-336.2455C325.7178,-328.4564 333.4661,-317.3308 340.0033,-307.9439"/>
<polygon fill="#191970" stroke="#191970" points="342.9417,-309.849 345.7846,-299.6427 337.1975,-305.8485 342.9417,-309.849"/>
</g>
<!-- Node6 -->
<g id="node7" class="node">
<title>Node6</title>
<polygon fill="#ffffff" stroke="#bfbfbf" points="68,-.5 68,-19.5 111,-19.5 111,-.5 68,-.5"/>
<text text-anchor="middle" x="89.5" y="-7.5" font-family="Helvetica,sans-Serif" font-size="10.00" fill="#000000">unistd.h</text>
</g>
<!-- Node5&#45;&gt;Node6 -->
<g id="edge6" class="edge">
<title>Node5&#45;&gt;Node6</title>
<path fill="none" stroke="#191970" d="M245.0059,-112.4509C215.5228,-93.0268 148.3478,-48.7703 112.7073,-25.2895"/>
<polygon fill="#191970" stroke="#191970" points="114.2336,-22.1038 103.9574,-19.5249 110.3825,-27.9492 114.2336,-22.1038"/>
</g>
<!-- Node7 -->
<g id="node8" class="node">
<title>Node7</title>
<g id="a_node8"><a xlink:href="../../d8/d7b/cuda_8hpp.html" target="_top" xlink:title="Interface to CUDA related functions. ">
<polygon fill="#ffffff" stroke="#000000" points="277,-56.5 277,-75.5 324,-75.5 324,-56.5 277,-56.5"/>
<text text-anchor="middle" x="300.5" y="-63.5" font-family="Helvetica,sans-Serif" font-size="10.00" fill="#000000">cuda.hpp</text>
</a>
</g>
</g>
<!-- Node5&#45;&gt;Node7 -->
<g id="edge7" class="edge">
<title>Node5&#45;&gt;Node7</title>
<path fill="none" stroke="#191970" d="M266.6417,-112.2455C272.3444,-104.4564 280.49,-93.3308 287.3625,-83.9439"/>
<polygon fill="#191970" stroke="#191970" points="290.3568,-85.7789 293.4402,-75.6427 284.7087,-81.6437 290.3568,-85.7789"/>
</g>
<!-- Node7&#45;&gt;Node2 -->
<g id="edge16" class="edge">
<title>Node7&#45;&gt;Node2</title>
<path fill="none" stroke="#191970" d="M276.8024,-58.436C273.6895,-57.5553 270.5293,-56.717 267.5,-56 178.8227,-35.0117 151.8086,-42.0111 59.4906,-19.9674"/>
<polygon fill="#191970" stroke="#191970" points="60.2873,-16.5591 49.7428,-17.5911 58.6293,-23.36 60.2873,-16.5591"/>
</g>
<!-- Node7&#45;&gt;Node6 -->
<g id="edge12" class="edge">
<title>Node7&#45;&gt;Node6</title>
<path fill="none" stroke="#191970" d="M276.7526,-58.6315C273.6478,-57.7188 270.5031,-56.8196 267.5,-56 205.2539,-39.0124 186.3142,-38.7093 121.0404,-20.2806"/>
<polygon fill="#191970" stroke="#191970" points="121.64,-16.8117 111.063,-17.4259 119.7145,-23.5417 121.64,-16.8117"/>
</g>
<!-- Node8 -->
<g id="node9" class="node">
<title>Node8</title>
<polygon fill="#ffffff" stroke="#bfbfbf" points="527.5,-.5 527.5,-19.5 595.5,-19.5 595.5,-.5 527.5,-.5"/>
<text text-anchor="middle" x="561.5" y="-7.5" font-family="Helvetica,sans-Serif" font-size="10.00" fill="#000000">cuda_runtime.h</text>
</g>
<!-- Node7&#45;&gt;Node8 -->
<g id="edge8" class="edge">
<title>Node7&#45;&gt;Node8</title>
<path fill="none" stroke="#191970" d="M324.1632,-59.5427C328.8991,-58.3154 333.8482,-57.0789 338.5,-56 417.5503,-37.6662 438.1507,-36.9934 517.5,-20 517.6005,-19.9785 517.7012,-19.9569 517.802,-19.9353"/>
<polygon fill="#191970" stroke="#191970" points="518.3863,-23.3903 527.4088,-17.8364 516.8922,-16.5516 518.3863,-23.3903"/>
</g>
<!-- Node9 -->
<g id="node10" class="node">
<title>Node9</title>
<polygon fill="#ffffff" stroke="#bfbfbf" points="129,-.5 129,-19.5 168,-19.5 168,-.5 129,-.5"/>
<text text-anchor="middle" x="148.5" y="-7.5" font-family="Helvetica,sans-Serif" font-size="10.00" fill="#000000">cuda.h</text>
</g>
<!-- Node7&#45;&gt;Node9 -->
<g id="edge9" class="edge">
<title>Node7&#45;&gt;Node9</title>
<path fill="none" stroke="#191970" d="M276.75,-57.25C250.011,-47.3988 206.5476,-31.3859 177.7417,-20.7733"/>
<polygon fill="#191970" stroke="#191970" points="178.8089,-17.4365 168.2155,-17.2636 176.389,-24.0049 178.8089,-17.4365"/>
</g>
<!-- Node10 -->
<g id="node11" class="node">
<title>Node10</title>
<polygon fill="#ffffff" stroke="#bfbfbf" points="186,-.5 186,-19.5 243,-19.5 243,-.5 186,-.5"/>
<text text-anchor="middle" x="214.5" y="-7.5" font-family="Helvetica,sans-Serif" font-size="10.00" fill="#000000">cublas_v2.h</text>
</g>
<!-- Node7&#45;&gt;Node10 -->
<g id="edge10" class="edge">
<title>Node7&#45;&gt;Node10</title>
<path fill="none" stroke="#191970" d="M285.5199,-56.2455C272.3249,-47.6534 252.8949,-35.0014 237.6921,-25.1018"/>
<polygon fill="#191970" stroke="#191970" points="239.5983,-22.1665 229.3084,-19.6427 235.7785,-28.0325 239.5983,-22.1665"/>
</g>
<!-- Node11 -->
<g id="node12" class="node">
<title>Node11</title>
<polygon fill="#ffffff" stroke="#bfbfbf" points="261,-.5 261,-19.5 312,-19.5 312,-.5 261,-.5"/>
<text text-anchor="middle" x="286.5" y="-7.5" font-family="Helvetica,sans-Serif" font-size="10.00" fill="#000000">execinfo.h</text>
</g>
<!-- Node7&#45;&gt;Node11 -->
<g id="edge11" class="edge">
<title>Node7&#45;&gt;Node11</title>
<path fill="none" stroke="#191970" d="M298.0614,-56.2455C296.2145,-48.8579 293.6172,-38.4689 291.3522,-29.4087"/>
<polygon fill="#191970" stroke="#191970" points="294.7316,-28.4952 288.9107,-19.6427 287.9406,-30.193 294.7316,-28.4952"/>
</g>
<!-- Node12 -->
<g id="node13" class="node">
<title>Node12</title>
<polygon fill="#ffffff" stroke="#bfbfbf" points="835.5,-.5 835.5,-19.5 877.5,-19.5 877.5,-.5 835.5,-.5"/>
<text text-anchor="middle" x="856.5" y="-7.5" font-family="Helvetica,sans-Serif" font-size="10.00" fill="#000000">signal.h</text>
</g>
<!-- Node7&#45;&gt;Node12 -->
<g id="edge13" class="edge">
<title>Node7&#45;&gt;Node12</title>
<path fill="none" stroke="#191970" d="M324.1319,-62.3979C337.9259,-60.3638 355.6759,-57.8638 371.5,-56 542.3798,-35.8731 747.9447,-18.6862 825.1628,-12.4763"/>
<polygon fill="#191970" stroke="#191970" points="825.501,-15.9606 835.1898,-11.6738 824.9424,-8.9829 825.501,-15.9606"/>
</g>
<!-- Node13 -->
<g id="node14" class="node">
<title>Node13</title>
<polygon fill="#ffffff" stroke="#bfbfbf" points="330,-.5 330,-19.5 373,-19.5 373,-.5 330,-.5"/>
<text text-anchor="middle" x="351.5" y="-7.5" font-family="Helvetica,sans-Serif" font-size="10.00" fill="#000000">assert.h</text>
</g>
<!-- Node7&#45;&gt;Node13 -->
<g id="edge14" class="edge">
<title>Node7&#45;&gt;Node13</title>
<path fill="none" stroke="#191970" d="M309.3835,-56.2455C316.6966,-48.2155 327.2391,-36.6394 335.9467,-27.0781"/>
<polygon fill="#191970" stroke="#191970" points="338.5727,-29.3928 342.7183,-19.6427 333.3972,-24.6795 338.5727,-29.3928"/>
</g>
<!-- Node14 -->
<g id="node15" class="node">
<title>Node14</title>
<polygon fill="#ffffff" stroke="#bfbfbf" points="391.5,-.5 391.5,-19.5 451.5,-19.5 451.5,-.5 391.5,-.5"/>
<text text-anchor="middle" x="421.5" y="-7.5" font-family="Helvetica,sans-Serif" font-size="10.00" fill="#000000">nvToolsExt.h</text>
</g>
<!-- Node7&#45;&gt;Node14 -->
<g id="edge15" class="edge">
<title>Node7&#45;&gt;Node14</title>
<path fill="none" stroke="#191970" d="M321.3006,-56.3733C340.7243,-47.3838 369.9224,-33.8706 391.7964,-23.7471"/>
<polygon fill="#191970" stroke="#191970" points="393.3656,-26.8776 400.9708,-19.5011 390.4255,-20.5249 393.3656,-26.8776"/>
</g>
<!-- Node15 -->
<g id="node16" class="node">
<title>Node15</title>
<polygon fill="#ffffff" stroke="#bfbfbf" points="614,-.5 614,-19.5 651,-19.5 651,-.5 614,-.5"/>
<text text-anchor="middle" x="632.5" y="-7.5" font-family="Helvetica,sans-Serif" font-size="10.00" fill="#000000">vector</text>
</g>
<!-- Node7&#45;&gt;Node15 -->
<g id="edge17" class="edge">
<title>Node7&#45;&gt;Node15</title>
<path fill="none" stroke="#191970" d="M324.1124,-59.3064C328.8525,-58.0985 333.8161,-56.9296 338.5,-56 452.4322,-33.3881 486.7825,-47.4283 604.2584,-19.5769"/>
<polygon fill="#191970" stroke="#191970" points="605.0935,-22.9759 613.9887,-17.2204 603.4458,-16.1726 605.0935,-22.9759"/>
</g>
<!-- Node16 -->
<g id="node17" class="node">
<title>Node16</title>
<polygon fill="#ffffff" stroke="#bfbfbf" points="470,-.5 470,-19.5 509,-19.5 509,-.5 470,-.5"/>
<text text-anchor="middle" x="489.5" y="-7.5" font-family="Helvetica,sans-Serif" font-size="10.00" fill="#000000">stdio.h</text>
</g>
<!-- Node7&#45;&gt;Node16 -->
<g id="edge18" class="edge">
<title>Node7&#45;&gt;Node16</title>
<path fill="none" stroke="#191970" d="M324.201,-59.6017C353.7621,-51.5319 406.0469,-36.9663 460.1333,-19.9982"/>
<polygon fill="#191970" stroke="#191970" points="461.4088,-23.2658 469.8905,-16.9167 459.3007,-16.5908 461.4088,-23.2658"/>
</g>
<!-- Node17&#45;&gt;Node2 -->
<g id="edge20" class="edge">
<title>Node17&#45;&gt;Node2</title>
<path fill="none" stroke="#191970" d="M77.8746,-56.2455C68.9527,-48.0549 56.012,-36.1749 45.4808,-26.5069"/>
<polygon fill="#191970" stroke="#191970" points="47.7371,-23.8271 38.0036,-19.6427 43.0032,-28.9837 47.7371,-23.8271"/>
</g>
<!-- Node18&#45;&gt;Node7 -->
<g id="edge33" class="edge">
<title>Node18&#45;&gt;Node7</title>
<path fill="none" stroke="#191970" d="M701.784,-113.9259C698.6624,-113.2141 695.5251,-112.5547 692.5,-112 551.293,-86.1087 513.9265,-94.0129 371.5,-76 359.2738,-74.4537 345.8857,-72.6079 334.0627,-70.9254"/>
<polygon fill="#191970" stroke="#191970" points="334.5404,-67.4582 324.1443,-69.5006 333.545,-74.3871 334.5404,-67.4582"/>
</g>
<!-- Node18&#45;&gt;Node12 -->
<g id="edge22" class="edge">
<title>Node18&#45;&gt;Node12</title>
<path fill="none" stroke="#191970" d="M761.1168,-119.1387C828.3543,-112.3448 987.9275,-94.4272 1003.5,-76 1037.793,-35.4205 940.3026,-18.7261 887.685,-12.8112"/>
<polygon fill="#191970" stroke="#191970" points="887.8185,-9.3059 877.5066,-11.7379 887.0844,-16.2674 887.8185,-9.3059"/>
</g>
<!-- Node18&#45;&gt;Node15 -->
<g id="edge27" class="edge">
<title>Node18&#45;&gt;Node15</title>
<path fill="none" stroke="#191970" d="M701.8736,-114.0709C655.685,-101.6423 571.5434,-78.7045 569.5,-76 554.494,-56.1398 581.6479,-35.7932 604.8578,-23.0404"/>
<polygon fill="#191970" stroke="#191970" points="606.538,-26.1115 613.7843,-18.3822 603.2995,-19.9057 606.538,-26.1115"/>
</g>
<!-- Node19 -->
<g id="node20" class="node">
<title>Node19</title>
<polygon fill="#ffffff" stroke="#bfbfbf" points="381,-56.5 381,-75.5 422,-75.5 422,-56.5 381,-56.5"/>
<text text-anchor="middle" x="401.5" y="-63.5" font-family="Helvetica,sans-Serif" font-size="10.00" fill="#000000">cassert</text>
</g>
<!-- Node18&#45;&gt;Node19 -->
<g id="edge23" class="edge">
<title>Node18&#45;&gt;Node19</title>
<path fill="none" stroke="#191970" d="M701.7691,-114.0048C698.6504,-113.2776 695.5178,-112.593 692.5,-112 580.741,-90.0386 547.3461,-101.9328 431.944,-75.6978"/>
<polygon fill="#191970" stroke="#191970" points="432.5456,-72.2445 422.0133,-73.3932 430.9632,-79.0633 432.5456,-72.2445"/>
</g>
<!-- Node20 -->
<g id="node21" class="node">
<title>Node20</title>
<polygon fill="#ffffff" stroke="#bfbfbf" points="440.5,-56.5 440.5,-75.5 484.5,-75.5 484.5,-56.5 440.5,-56.5"/>
<text text-anchor="middle" x="462.5" y="-63.5" font-family="Helvetica,sans-Serif" font-size="10.00" fill="#000000">memory</text>
</g>
<!-- Node18&#45;&gt;Node20 -->
<g id="edge24" class="edge">
<title>Node18&#45;&gt;Node20</title>
<path fill="none" stroke="#191970" d="M701.7294,-114.1915C698.6185,-113.4279 695.4986,-112.6838 692.5,-112 622.2969,-95.9914 539.3436,-80.1514 494.7472,-71.8847"/>
<polygon fill="#191970" stroke="#191970" points="495.2565,-68.4197 484.7873,-70.0463 493.9859,-75.3034 495.2565,-68.4197"/>
</g>
<!-- Node21 -->
<g id="node22" class="node">
<title>Node21</title>
<polygon fill="#ffffff" stroke="#bfbfbf" points="579,-56.5 579,-75.5 614,-75.5 614,-56.5 579,-56.5"/>
<text text-anchor="middle" x="596.5" y="-63.5" font-family="Helvetica,sans-Serif" font-size="10.00" fill="#000000">string</text>
</g>
<!-- Node18&#45;&gt;Node21 -->
<g id="edge25" class="edge">
<title>Node18&#45;&gt;Node21</title>
<path fill="none" stroke="#191970" d="M708.2927,-112.3733C684.8371,-102.6435 648.6061,-87.6144 623.7881,-77.3195"/>
<polygon fill="#191970" stroke="#191970" points="624.8211,-73.9589 614.2432,-73.3601 622.139,-80.4247 624.8211,-73.9589"/>
</g>
<!-- Node22 -->
<g id="node23" class="node">
<title>Node22</title>
<polygon fill="#ffffff" stroke="#bfbfbf" points="632,-56.5 632,-75.5 671,-75.5 671,-56.5 632,-56.5"/>
<text text-anchor="middle" x="651.5" y="-63.5" font-family="Helvetica,sans-Serif" font-size="10.00" fill="#000000">atomic</text>
</g>
<!-- Node18&#45;&gt;Node22 -->
<g id="edge26" class="edge">
<title>Node18&#45;&gt;Node22</title>
<path fill="none" stroke="#191970" d="M717.5651,-112.2455C705.4053,-103.7337 687.5536,-91.2375 673.4715,-81.3801"/>
<polygon fill="#191970" stroke="#191970" points="675.4747,-78.51 665.2752,-75.6427 671.4605,-84.2447 675.4747,-78.51"/>
</g>
<!-- Node23 -->
<g id="node24" class="node">
<title>Node23</title>
<polygon fill="#ffffff" stroke="#bfbfbf" points="689.5,-56.5 689.5,-75.5 723.5,-75.5 723.5,-56.5 689.5,-56.5"/>
<text text-anchor="middle" x="706.5" y="-63.5" font-family="Helvetica,sans-Serif" font-size="10.00" fill="#000000">array</text>
</g>
<!-- Node18&#45;&gt;Node23 -->
<g id="edge28" class="edge">
<title>Node18&#45;&gt;Node23</title>
<path fill="none" stroke="#191970" d="M727.1453,-112.2455C723.7756,-104.6973 719.007,-94.0158 714.9017,-84.8197"/>
<polygon fill="#191970" stroke="#191970" points="718.0773,-83.3473 710.8048,-75.6427 711.6853,-86.2009 718.0773,-83.3473"/>
</g>
<!-- Node24 -->
<g id="node25" class="node">
<title>Node24</title>
<polygon fill="#ffffff" stroke="#bfbfbf" points="742,-56.5 742,-75.5 781,-75.5 781,-56.5 742,-56.5"/>
<text text-anchor="middle" x="761.5" y="-63.5" font-family="Helvetica,sans-Serif" font-size="10.00" fill="#000000">cstring</text>
</g>
<!-- Node18&#45;&gt;Node24 -->
<g id="edge29" class="edge">
<title>Node18&#45;&gt;Node24</title>
<path fill="none" stroke="#191970" d="M736.7256,-112.2455C740.8123,-104.617 746.6135,-93.7881 751.575,-84.5267"/>
<polygon fill="#191970" stroke="#191970" points="754.6972,-86.1103 756.3343,-75.6427 748.5268,-82.8047 754.6972,-86.1103"/>
</g>
<!-- Node25 -->
<g id="node26" class="node">
<title>Node25</title>
<polygon fill="#ffffff" stroke="#bfbfbf" points="799,-56.5 799,-75.5 858,-75.5 858,-56.5 799,-56.5"/>
<text text-anchor="middle" x="828.5" y="-63.5" font-family="Helvetica,sans-Serif" font-size="10.00" fill="#000000">initializer_list</text>
</g>
<!-- Node18&#45;&gt;Node25 -->
<g id="edge30" class="edge">
<title>Node18&#45;&gt;Node25</title>
<path fill="none" stroke="#191970" d="M748.3961,-112.2455C763.418,-103.5731 785.6043,-90.7645 802.821,-80.825"/>
<polygon fill="#191970" stroke="#191970" points="804.8871,-83.6737 811.7975,-75.6427 801.3872,-77.6114 804.8871,-83.6737"/>
</g>
<!-- Node26 -->
<g id="node27" class="node">
<title>Node26</title>
<polygon fill="#ffffff" stroke="#bfbfbf" points="876,-56.5 876,-75.5 927,-75.5 927,-56.5 876,-56.5"/>
<text text-anchor="middle" x="901.5" y="-63.5" font-family="Helvetica,sans-Serif" font-size="10.00" fill="#000000">type_traits</text>
</g>
<!-- Node18&#45;&gt;Node26 -->
<g id="edge31" class="edge">
<title>Node18&#45;&gt;Node26</title>
<path fill="none" stroke="#191970" d="M760.724,-112.3733C790.0204,-102.7227 835.1436,-87.8586 866.3716,-77.5717"/>
<polygon fill="#191970" stroke="#191970" points="867.5818,-80.8582 875.9846,-74.4051 865.3916,-74.2096 867.5818,-80.8582"/>
</g>
<!-- Node27 -->
<g id="node28" class="node">
<title>Node27</title>
<polygon fill="#ffffff" stroke="#bfbfbf" points="945,-56.5 945,-75.5 994,-75.5 994,-56.5 945,-56.5"/>
<text text-anchor="middle" x="969.5" y="-63.5" font-family="Helvetica,sans-Serif" font-size="10.00" fill="#000000">functional</text>
</g>
<!-- Node18&#45;&gt;Node27 -->
<g id="edge32" class="edge">
<title>Node18&#45;&gt;Node27</title>
<path fill="none" stroke="#191970" d="M761.2001,-116.0506C799.3474,-108.2541 867.7908,-93.7445 934.8147,-76.3229"/>
<polygon fill="#191970" stroke="#191970" points="935.9052,-79.6553 944.6894,-73.7318 934.1285,-72.8845 935.9052,-79.6553"/>
</g>
<!-- Node29 -->
<g id="node30" class="node">
<title>Node29</title>
<g id="a_node30"><a xlink:href="../../d4/dd8/blacs__grid_8hpp.html" target="_top" xlink:title="Contains declaration and implementation of BLACS_grid class. ">
<polygon fill="#ffffff" stroke="#000000" points="320,-224.5 320,-243.5 385,-243.5 385,-224.5 320,-224.5"/>
<text text-anchor="middle" x="352.5" y="-231.5" font-family="Helvetica,sans-Serif" font-size="10.00" fill="#000000">blacs_grid.hpp</text>
</a>
</g>
</g>
<!-- Node28&#45;&gt;Node29 -->
<g id="edge35" class="edge">
<title>Node28&#45;&gt;Node29</title>
<path fill="none" stroke="#191970" d="M352.5,-280.2455C352.5,-272.9382 352.5,-262.6944 352.5,-253.7046"/>
<polygon fill="#191970" stroke="#191970" points="356.0001,-253.6426 352.5,-243.6427 349.0001,-253.6427 356.0001,-253.6426"/>
</g>
<!-- Node35 -->
<g id="node36" class="node">
<title>Node35</title>
<g id="a_node36"><a xlink:href="../../d0/d86/splindex_8hpp.html" target="_top" xlink:title="Contains definition of splindex_base and specialization of splindex classes. ">
<polygon fill="#ffffff" stroke="#000000" points="478,-224.5 478,-243.5 537,-243.5 537,-224.5 478,-224.5"/>
<text text-anchor="middle" x="507.5" y="-231.5" font-family="Helvetica,sans-Serif" font-size="10.00" fill="#000000">splindex.hpp</text>
</a>
</g>
</g>
<!-- Node28&#45;&gt;Node35 -->
<g id="edge48" class="edge">
<title>Node28&#45;&gt;Node35</title>
<path fill="none" stroke="#191970" d="M379.1454,-280.3733C404.6964,-271.1419 443.4512,-257.1402 471.6909,-246.9375"/>
<polygon fill="#191970" stroke="#191970" points="472.9865,-250.1909 481.2022,-243.5011 470.6079,-243.6074 472.9865,-250.1909"/>
</g>
<!-- Node39 -->
<g id="node40" class="node">
<title>Node39</title>
<g id="a_node40"><a xlink:href="../../d4/d83/hdf5__tree_8hpp.html" target="_top" xlink:title="Contains definition and implementation of sirius::HDF5_tree class. ">
<polygon fill="#ffffff" stroke="#000000" points="665,-168.5 665,-187.5 728,-187.5 728,-168.5 665,-168.5"/>
<text text-anchor="middle" x="696.5" y="-175.5" font-family="Helvetica,sans-Serif" font-size="10.00" fill="#000000">hdf5_tree.hpp</text>
</a>
</g>
</g>
<!-- Node28&#45;&gt;Node39 -->
<g id="edge53" class="edge">
<title>Node28&#45;&gt;Node39</title>
<path fill="none" stroke="#191970" d="M380.7535,-282.248C383.7031,-281.4734 386.6599,-280.7112 389.5,-280 458.5241,-262.7145 477.9439,-266.3447 545.5,-244 589.6183,-229.4075 638.5375,-206.7641 668.4063,-192.1598"/>
<polygon fill="#191970" stroke="#191970" points="669.9846,-195.284 677.4043,-187.721 666.8877,-189.0063 669.9846,-195.284"/>
</g>
<!-- Node29&#45;&gt;Node20 -->
<g id="edge36" class="edge">
<title>Node29&#45;&gt;Node20</title>
<path fill="none" stroke="#191970" d="M361.7089,-224.1829C369.9721,-215.1398 382.1953,-201.1682 391.5,-188 416.2346,-152.995 440.3125,-108.8746 453.0855,-84.434"/>
<polygon fill="#191970" stroke="#191970" points="456.2067,-86.0179 457.6934,-75.5279 449.9895,-82.8012 456.2067,-86.0179"/>
</g>
<!-- Node30 -->
<g id="node31" class="node">
<title>Node30</title>
<g id="a_node31"><a xlink:href="../../d1/d76/mpi__grid_8hpp.html" target="_top" xlink:title="Contains declaration and implementation of MPI_grid class. ">
<polygon fill="#ffffff" stroke="#000000" points="322.5,-168.5 322.5,-187.5 382.5,-187.5 382.5,-168.5 322.5,-168.5"/>
<text text-anchor="middle" x="352.5" y="-175.5" font-family="Helvetica,sans-Serif" font-size="10.00" fill="#000000">mpi_grid.hpp</text>
</a>
</g>
</g>
<!-- Node29&#45;&gt;Node30 -->
<g id="edge37" class="edge">
<title>Node29&#45;&gt;Node30</title>
<path fill="none" stroke="#191970" d="M352.5,-224.2455C352.5,-216.9382 352.5,-206.6944 352.5,-197.7046"/>
<polygon fill="#191970" stroke="#191970" points="356.0001,-197.6426 352.5,-187.6427 349.0001,-197.6427 356.0001,-197.6426"/>
</g>
<!-- Node33 -->
<g id="node34" class="node">
<title>Node33</title>
<g id="a_node34"><a xlink:href="../../d2/dfd/linalg__base_8hpp.html" target="_top" xlink:title="Basic interface to linear algebra functions. ">
<polygon fill="#ffffff" stroke="#000000" points="161,-168.5 161,-187.5 230,-187.5 230,-168.5 161,-168.5"/>
<text text-anchor="middle" x="195.5" y="-175.5" font-family="Helvetica,sans-Serif" font-size="10.00" fill="#000000">linalg_base.hpp</text>
</a>
</g>
</g>
<!-- Node29&#45;&gt;Node33 -->
<g id="edge44" class="edge">
<title>Node29&#45;&gt;Node33</title>
<path fill="none" stroke="#191970" d="M325.5107,-224.3733C299.6301,-215.1419 260.3752,-201.1402 231.7711,-190.9375"/>
<polygon fill="#191970" stroke="#191970" points="232.7317,-187.5642 222.1371,-187.5011 230.38,-194.1573 232.7317,-187.5642"/>
</g>
<!-- Node31 -->
<g id="node32" class="node">
<title>Node31</title>
<g id="a_node32"><a xlink:href="../../d4/d32/communicator_8hpp.html" target="_top" xlink:title="Contains declaration and implementation of Communicator class. ">
<polygon fill="#ffffff" stroke="#000000" points="313.5,-112.5 313.5,-131.5 391.5,-131.5 391.5,-112.5 313.5,-112.5"/>
<text text-anchor="middle" x="352.5" y="-119.5" font-family="Helvetica,sans-Serif" font-size="10.00" fill="#000000">communicator.hpp</text>
</a>
</g>
</g>
<!-- Node30&#45;&gt;Node31 -->
<g id="edge38" class="edge">
<title>Node30&#45;&gt;Node31</title>
<path fill="none" stroke="#191970" d="M352.5,-168.2455C352.5,-160.9382 352.5,-150.6944 352.5,-141.7046"/>
<polygon fill="#191970" stroke="#191970" points="356.0001,-141.6426 352.5,-131.6427 349.0001,-141.6427 356.0001,-141.6426"/>
</g>
<!-- Node31&#45;&gt;Node2 -->
<g id="edge42" class="edge">
<title>Node31&#45;&gt;Node2</title>
<path fill="none" stroke="#191970" d="M323.3739,-112.4558C295.4101,-103.2535 252.0032,-88.8676 214.5,-76 159.8794,-57.2592 96.5573,-34.7436 59.3839,-21.4447"/>
<polygon fill="#191970" stroke="#191970" points="60.216,-18.0251 49.6214,-17.9489 57.8561,-24.6153 60.216,-18.0251"/>
</g>
<!-- Node31&#45;&gt;Node7 -->
<g id="edge43" class="edge">
<title>Node31&#45;&gt;Node7</title>
<path fill="none" stroke="#191970" d="M343.4423,-112.2455C335.9858,-104.2155 325.2366,-92.6394 316.3583,-83.0781"/>
<polygon fill="#191970" stroke="#191970" points="318.8232,-80.589 309.4539,-75.6427 313.6937,-85.3522 318.8232,-80.589"/>
</g>
<!-- Node31&#45;&gt;Node15 -->
<g id="edge41" class="edge">
<title>Node31&#45;&gt;Node15</title>
<path fill="none" stroke="#191970" d="M352.262,-112.2386C352.4804,-97.649 355.2121,-70.3403 371.5,-56 447.7654,11.1462 499.7063,-42.2836 604.0485,-19.5299"/>
<polygon fill="#191970" stroke="#191970" points="605.0567,-22.8879 613.9763,-17.1702 603.4379,-16.0776 605.0567,-22.8879"/>
</g>
<!-- Node31&#45;&gt;Node19 -->
<g id="edge40" class="edge">
<title>Node31&#45;&gt;Node19</title>
<path fill="none" stroke="#191970" d="M361.0351,-112.2455C367.9912,-104.2958 377.9883,-92.8706 386.3051,-83.3656"/>
<polygon fill="#191970" stroke="#191970" points="389.1116,-85.4732 393.0627,-75.6427 383.8436,-80.8637 389.1116,-85.4732"/>
</g>
<!-- Node32 -->
<g id="node33" class="node">
<title>Node32</title>
<polygon fill="#ffffff" stroke="#bfbfbf" points="224,-56.5 224,-75.5 259,-75.5 259,-56.5 224,-56.5"/>
<text text-anchor="middle" x="241.5" y="-63.5" font-family="Helvetica,sans-Serif" font-size="10.00" fill="#000000">mpi.h</text>
</g>
<!-- Node31&#45;&gt;Node32 -->
<g id="edge39" class="edge">
<title>Node31&#45;&gt;Node32</title>
<path fill="none" stroke="#191970" d="M333.4184,-112.3733C315.4388,-103.3024 288.3295,-89.6257 268.2056,-79.4731"/>
<polygon fill="#191970" stroke="#191970" points="269.7387,-76.3264 259.2341,-74.9469 266.5857,-82.5761 269.7387,-76.3264"/>
</g>
<!-- Node33&#45;&gt;Node17 -->
<g id="edge45" class="edge">
<title>Node33&#45;&gt;Node17</title>
<path fill="none" stroke="#191970" d="M195.0596,-168.3988C193.9529,-154.5004 190.0741,-128.6249 176.5,-112 164.3781,-97.1537 146.1873,-86.5266 129.4853,-79.2541"/>
<polygon fill="#191970" stroke="#191970" points="130.4626,-75.8734 119.8806,-75.3533 127.8286,-82.359 130.4626,-75.8734"/>
</g>
<!-- Node34 -->
<g id="node35" class="node">
<title>Node34</title>
<g id="a_node35"><a xlink:href="../../d3/ddb/scalapack_8h_source.html" target="_top" xlink:title="scalapack.h">
<polygon fill="#ffffff" stroke="#000000" points="111.5,-112.5 111.5,-131.5 167.5,-131.5 167.5,-112.5 111.5,-112.5"/>
<text text-anchor="middle" x="139.5" y="-119.5" font-family="Helvetica,sans-Serif" font-size="10.00" fill="#000000">scalapack.h</text>
</a>
</g>
</g>
<!-- Node33&#45;&gt;Node34 -->
<g id="edge46" class="edge">
<title>Node33&#45;&gt;Node34</title>
<path fill="none" stroke="#191970" d="M185.7455,-168.2455C177.6352,-160.1352 165.9075,-148.4075 156.2919,-138.7919"/>
<polygon fill="#191970" stroke="#191970" points="158.6887,-136.2389 149.1427,-131.6427 153.7389,-141.1887 158.6887,-136.2389"/>
</g>
<!-- Node34&#45;&gt;Node17 -->
<g id="edge47" class="edge">
<title>Node34&#45;&gt;Node17</title>
<path fill="none" stroke="#191970" d="M130.6165,-112.2455C123.3034,-104.2155 112.7609,-92.6394 104.0533,-83.0781"/>
<polygon fill="#191970" stroke="#191970" points="106.6028,-80.6795 97.2817,-75.6427 101.4273,-85.3928 106.6028,-80.6795"/>
</g>
<!-- Node35&#45;&gt;Node15 -->
<g id="edge50" class="edge">
<title>Node35&#45;&gt;Node15</title>
<path fill="none" stroke="#191970" d="M497.8335,-224.4492C486.3208,-211.8647 469.475,-188.877 476.5,-168 496.4296,-108.7733 515.7022,-98.5153 561.5,-56 574.6566,-43.7864 591.4349,-32.7495 605.3774,-24.5499"/>
<polygon fill="#191970" stroke="#191970" points="607.1169,-27.5871 614.0636,-19.5874 603.6445,-21.509 607.1169,-27.5871"/>
</g>
<!-- Node36 -->
<g id="node37" class="node">
<title>Node36</title>
<polygon fill="#ffffff" stroke="#bfbfbf" points="600,-168.5 600,-187.5 647,-187.5 647,-168.5 600,-168.5"/>
<text text-anchor="middle" x="623.5" y="-175.5" font-family="Helvetica,sans-Serif" font-size="10.00" fill="#000000">algorithm</text>
</g>
<!-- Node35&#45;&gt;Node36 -->
<g id="edge49" class="edge">
<title>Node35&#45;&gt;Node36</title>
<path fill="none" stroke="#191970" d="M527.4411,-224.3733C545.9786,-215.4241 573.8028,-201.9917 594.7413,-191.8835"/>
<polygon fill="#191970" stroke="#191970" points="596.3352,-195.0006 603.8191,-187.5011 593.2919,-188.6967 596.3352,-195.0006"/>
</g>
<!-- Node37 -->
<g id="node38" class="node">
<title>Node37</title>
<polygon fill="#ffffff" stroke="#bfbfbf" points="486,-168.5 486,-187.5 529,-187.5 529,-168.5 486,-168.5"/>
<text text-anchor="middle" x="507.5" y="-175.5" font-family="Helvetica,sans-Serif" font-size="10.00" fill="#000000">sstream</text>
</g>
<!-- Node35&#45;&gt;Node37 -->
<g id="edge51" class="edge">
<title>Node35&#45;&gt;Node37</title>
<path fill="none" stroke="#191970" d="M507.5,-224.2455C507.5,-216.9382 507.5,-206.6944 507.5,-197.7046"/>
<polygon fill="#191970" stroke="#191970" points="511.0001,-197.6426 507.5,-187.6427 504.0001,-197.6427 511.0001,-197.6426"/>
</g>
<!-- Node38 -->
<g id="node39" class="node">
<title>Node38</title>
<polygon fill="#ffffff" stroke="#bfbfbf" points="547.5,-168.5 547.5,-187.5 581.5,-187.5 581.5,-168.5 547.5,-168.5"/>
<text text-anchor="middle" x="564.5" y="-175.5" font-family="Helvetica,sans-Serif" font-size="10.00" fill="#000000">limits</text>
</g>
<!-- Node35&#45;&gt;Node38 -->
<g id="edge52" class="edge">
<title>Node35&#45;&gt;Node38</title>
<path fill="none" stroke="#191970" d="M517.4286,-224.2455C525.6838,-216.1352 537.6209,-204.4075 547.4082,-194.7919"/>
<polygon fill="#191970" stroke="#191970" points="550.0046,-197.1476 554.6851,-187.6427 545.0989,-192.1542 550.0046,-197.1476"/>
</g>
<!-- Node39&#45;&gt;Node18 -->
<g id="edge56" class="edge">
<title>Node39&#45;&gt;Node18</title>
<path fill="none" stroke="#191970" d="M702.5965,-168.2455C707.4145,-160.5367 714.2751,-149.5598 720.1032,-140.2348"/>
<polygon fill="#191970" stroke="#191970" points="723.1413,-141.9777 725.4733,-131.6427 717.2053,-138.2677 723.1413,-141.9777"/>
</g>
<!-- Node40 -->
<g id="node41" class="node">
<title>Node40</title>
<polygon fill="#ffffff" stroke="#bfbfbf" points="586.5,-112.5 586.5,-131.5 628.5,-131.5 628.5,-112.5 586.5,-112.5"/>
<text text-anchor="middle" x="607.5" y="-119.5" font-family="Helvetica,sans-Serif" font-size="10.00" fill="#000000">fstream</text>
</g>
<!-- Node39&#45;&gt;Node40 -->
<g id="edge54" class="edge">
<title>Node39&#45;&gt;Node40</title>
<path fill="none" stroke="#191970" d="M680.9974,-168.2455C667.342,-159.6534 647.2343,-147.0014 631.5011,-137.1018"/>
<polygon fill="#191970" stroke="#191970" points="633.1529,-134.006 622.825,-131.6427 629.4249,-139.9307 633.1529,-134.006"/>
</g>
<!-- Node41 -->
<g id="node42" class="node">
<title>Node41</title>
<polygon fill="#ffffff" stroke="#bfbfbf" points="647,-112.5 647,-131.5 684,-131.5 684,-112.5 647,-112.5"/>
<text text-anchor="middle" x="665.5" y="-119.5" font-family="Helvetica,sans-Serif" font-size="10.00" fill="#000000">hdf5.h</text>
</g>
<!-- Node39&#45;&gt;Node41 -->
<g id="edge55" class="edge">
<title>Node39&#45;&gt;Node41</title>
<path fill="none" stroke="#191970" d="M691.1002,-168.2455C686.8773,-160.617 680.8827,-149.7881 675.7559,-140.5267"/>
<polygon fill="#191970" stroke="#191970" points="678.7432,-138.6965 670.8379,-131.6427 672.619,-142.0867 678.7432,-138.6965"/>
</g>
</g>
</svg>
