<?xml version="1.0" encoding="UTF-8" standalone="no"?>
<!DOCTYPE svg PUBLIC "-//W3C//DTD SVG 1.1//EN"
 "http://www.w3.org/Graphics/SVG/1.1/DTD/svg11.dtd">
<!-- Generated by graphviz version 2.40.1 (20161225.0304)
 -->
<!-- Title: fft3d.hpp Pages: 1 -->
<!--zoomable 1092 -->
<svg id="main" version="1.1" xmlns="http://www.w3.org/2000/svg" xmlns:xlink="http://www.w3.org/1999/xlink" xml:space="preserve" onload="init(evt)">
<style type="text/css"><![CDATA[
.edge:hover path { stroke: red; }
.edge:hover polygon { stroke: red; fill: red; }
]]></style>
<script type="text/javascript"><![CDATA[
var edges = document.getElementsByTagName('g');
if (edges && edges.length) {
  for (var i=0;i<edges.length;i++) {
    if (edges[i].id.substr(0,4)=='edge') {
      edges[i].setAttribute('class','edge');
    }
  }
}
]]></script>
        <defs>
                <circle id="rim" cx="0" cy="0" r="7"/>
                <circle id="rim2" cx="0" cy="0" r="3.5"/>
                <g id="zoomPlus">
                        <use xlink:href="#rim" fill="#404040">
                                <set attributeName="fill" to="#808080" begin="zoomplus.mouseover" end="zoomplus.mouseout"/>
                        </use>
                        <path d="M-4,0h8M0,-4v8" fill="none" stroke="white" stroke-width="1.5" pointer-events="none"/>
                </g>
                <g id="zoomMin">
                        <use xlink:href="#rim" fill="#404040">
                                <set attributeName="fill" to="#808080" begin="zoomminus.mouseover" end="zoomminus.mouseout"/>
                        </use>
                        <path d="M-4,0h8" fill="none" stroke="white" stroke-width="1.5" pointer-events="none"/>
                </g>
                <g id="dirArrow">
                        <path fill="none" stroke="white" stroke-width="1.5" d="M0,-3.0v7 M-2.5,-0.5L0,-3.0L2.5,-0.5"/>
                </g>
               <g id="resetDef">
                       <use xlink:href="#rim2" fill="#404040">
                               <set attributeName="fill" to="#808080" begin="reset.mouseover" end="reset.mouseout"/>
                       </use>
               </g>
        </defs>

<script type="text/javascript">
var viewWidth = 650;
var viewHeight = 1092;
var sectionId = 'dynsection-1';
</script>
<script xlink:href="../../svgpan.js"/>
<svg id="graph" class="graph">
<g id="viewport">
<title>fft3d.hpp</title>
<polygon fill="#ffffff" stroke="transparent" points="-4,4 -4,-1088 646,-1088 646,4 -4,4"/>
<!-- Node34 -->
<g id="node1" class="node">
<title>Node34</title>
<polygon fill="#bfbfbf" stroke="#000000" points="296.5,-1064.5 296.5,-1083.5 351.5,-1083.5 351.5,-1064.5 296.5,-1064.5"/>
<text text-anchor="middle" x="324" y="-1071.5" font-family="Helvetica,sans-Serif" font-size="10.00" fill="#000000">fft3d.hpp</text>
</g>
<!-- Node35 -->
<g id="node2" class="node">
<title>Node35</title>
<g id="a_node2"><a xlink:href="../../db/d5a/sddk_8hpp.html" target="_top" xlink:title="Main include file for SDDK library. ">
<polygon fill="#ffffff" stroke="#000000" points="295.5,-1008.5 295.5,-1027.5 352.5,-1027.5 352.5,-1008.5 295.5,-1008.5"/>
<text text-anchor="middle" x="324" y="-1015.5" font-family="Helvetica,sans-Serif" font-size="10.00" fill="#000000">sddk.hpp</text>
</a>
</g>
</g>
<!-- Node34&#45;&gt;Node35 -->
<g id="edge1" class="edge">
<title>Node34&#45;&gt;Node35</title>
<path fill="none" stroke="#191970" d="M324,-1054.1575C324,-1045.155 324,-1034.9199 324,-1027.6427"/>
<polygon fill="#191970" stroke="#191970" points="320.5001,-1054.2455 324,-1064.2455 327.5001,-1054.2456 320.5001,-1054.2455"/>
</g>
<!-- Node36 -->
<g id="node3" class="node">
<title>Node36</title>
<g id="a_node3"><a xlink:href="../../dd/d46/input_8hpp.html" target="_top" xlink:title="Contains input parameters structures. ">
<polygon fill="#ffffff" stroke="#000000" points="228,-952.5 228,-971.5 286,-971.5 286,-952.5 228,-952.5"/>
<text text-anchor="middle" x="257" y="-959.5" font-family="Helvetica,sans-Serif" font-size="10.00" fill="#000000">input.hpp</text>
</a>
</g>
</g>
<!-- Node35&#45;&gt;Node36 -->
<g id="edge2" class="edge">
<title>Node35&#45;&gt;Node36</title>
<path fill="none" stroke="#191970" d="M304.4324,-1001.645C292.7802,-991.9058 278.3916,-979.8795 268.5368,-971.6427"/>
<polygon fill="#191970" stroke="#191970" points="302.4121,-1004.5179 312.3295,-1008.2455 306.9012,-999.1469 302.4121,-1004.5179"/>
</g>
<!-- Node41 -->
<g id="node8" class="node">
<title>Node41</title>
<g id="a_node8"><a xlink:href="../../dd/dc2/sirius_8h.html" target="_top" xlink:title="&quot;All&#45;in&#45;one&quot; include file. ">
<polygon fill="#ffffff" stroke="#000000" points="76,-56.5 76,-75.5 124,-75.5 124,-56.5 76,-56.5"/>
<text text-anchor="middle" x="100" y="-63.5" font-family="Helvetica,sans-Serif" font-size="10.00" fill="#000000">sirius.h</text>
</a>
</g>
</g>
<!-- Node35&#45;&gt;Node41 -->
<g id="edge43" class="edge">
<title>Node35&#45;&gt;Node41</title>
<path fill="none" stroke="#191970" d="M285.0879,-1012.9274C199.0054,-1000.6178 0,-965.704 0,-906 0,-906 0,-906 0,-178 0,-129.5152 52.7893,-92.3608 81.6585,-75.6672"/>
<polygon fill="#191970" stroke="#191970" points="284.8584,-1016.4293 295.2472,-1014.3498 285.8291,-1009.4969 284.8584,-1016.4293"/>
</g>
<!-- Node54 -->
<g id="node21" class="node">
<title>Node54</title>
<g id="a_node21"><a xlink:href="../../de/d6d/atom_8hpp.html" target="_top" xlink:title="Contains declaration and partial implementation of sirius::Atom class. ">
<polygon fill="#ffffff" stroke="#000000" points="228,-728.5 228,-747.5 286,-747.5 286,-728.5 228,-728.5"/>
<text text-anchor="middle" x="257" y="-735.5" font-family="Helvetica,sans-Serif" font-size="10.00" fill="#000000">atom.hpp</text>
</a>
</g>
</g>
<!-- Node35&#45;&gt;Node54 -->
<g id="edge41" class="edge">
<title>Node35&#45;&gt;Node54</title>
<path fill="none" stroke="#191970" d="M342.0898,-1001.1146C361.9331,-980.6714 391,-944.2054 391,-906 391,-906 391,-906 391,-850 391,-795.7274 325.4865,-762.5941 286.076,-747.5723"/>
<polygon fill="#191970" stroke="#191970" points="339.403,-998.8497 334.7647,-1008.3752 344.3309,-1003.8212 339.403,-998.8497"/>
</g>
<!-- Node59 -->
<g id="node26" class="node">
<title>Node59</title>
<g id="a_node26"><a xlink:href="../../d4/dde/sddk__api_8cpp.html" target="_top" xlink:title="Fortran interface for the SDDK library. ">
<polygon fill="#ffffff" stroke="#000000" points="419.5,-952.5 419.5,-971.5 494.5,-971.5 494.5,-952.5 419.5,-952.5"/>
<text text-anchor="middle" x="457" y="-959.5" font-family="Helvetica,sans-Serif" font-size="10.00" fill="#000000">sddk_api.cpp</text>
</a>
</g>
</g>
<!-- Node35&#45;&gt;Node59 -->
<g id="edge42" class="edge">
<title>Node35&#45;&gt;Node59</title>
<path fill="none" stroke="#191970" d="M356.3397,-1004.3833C380.5285,-994.1985 412.995,-980.5284 434.4348,-971.5011"/>
<polygon fill="#191970" stroke="#191970" points="354.7217,-1001.2669 346.8635,-1008.3733 357.4381,-1007.7184 354.7217,-1001.2669"/>
</g>
<!-- Node37 -->
<g id="node4" class="node">
<title>Node37</title>
<g id="a_node4"><a xlink:href="../../de/d06/simulation__parameters_8hpp.html" target="_top" xlink:title="Contains definition and implementation of sirius::Simulation_parameters_base class. ">
<polygon fill="#ffffff" stroke="#000000" points="188.5,-896.5 188.5,-915.5 325.5,-915.5 325.5,-896.5 188.5,-896.5"/>
<text text-anchor="middle" x="257" y="-903.5" font-family="Helvetica,sans-Serif" font-size="10.00" fill="#000000">simulation_parameters.hpp</text>
</a>
</g>
</g>
<!-- Node36&#45;&gt;Node37 -->
<g id="edge3" class="edge">
<title>Node36&#45;&gt;Node37</title>
<path fill="none" stroke="#191970" d="M257,-942.1575C257,-933.155 257,-922.9199 257,-915.6427"/>
<polygon fill="#191970" stroke="#191970" points="253.5001,-942.2455 257,-952.2455 260.5001,-942.2456 253.5001,-942.2455"/>
</g>
<!-- Node36&#45;&gt;Node41 -->
<g id="edge40" class="edge">
<title>Node36&#45;&gt;Node41</title>
<path fill="none" stroke="#191970" d="M217.933,-959.3898C154.9612,-952.8304 38,-929.8936 38,-850 38,-850 38,-850 38,-178 38,-135.5504 72.5127,-94.0981 90.0386,-75.7848"/>
<polygon fill="#191970" stroke="#191970" points="217.6319,-962.8769 227.9185,-960.34 218.2951,-955.9083 217.6319,-962.8769"/>
</g>
<!-- Node38 -->
<g id="node5" class="node">
<title>Node38</title>
<g id="a_node5"><a xlink:href="../../d1/db8/simulation__context_8hpp.html" target="_top" xlink:title="Contains definition and implementation of Simulation_context class. ">
<polygon fill="#ffffff" stroke="#000000" points="302.5,-448.5 302.5,-467.5 421.5,-467.5 421.5,-448.5 302.5,-448.5"/>
<text text-anchor="middle" x="362" y="-455.5" font-family="Helvetica,sans-Serif" font-size="10.00" fill="#000000">simulation_context.hpp</text>
</a>
</g>
</g>
<!-- Node37&#45;&gt;Node38 -->
<g id="edge4" class="edge">
<title>Node37&#45;&gt;Node38</title>
<path fill="none" stroke="#191970" d="M282.8584,-890.8947C311.2921,-872.1194 353,-837.2136 353,-794 353,-794 353,-794 353,-570 353,-531.9611 358.2219,-486.888 360.7105,-467.5676"/>
<polygon fill="#191970" stroke="#191970" points="280.7302,-888.1 274.1629,-896.4139 284.4814,-894.0101 280.7302,-888.1"/>
</g>
<!-- Node52 -->
<g id="node19" class="node">
<title>Node52</title>
<g id="a_node19"><a xlink:href="../../db/df7/atom__type_8hpp.html" target="_top" xlink:title="Contains declaration and implementation of sirius::Atom_type class. ">
<polygon fill="#ffffff" stroke="#000000" points="215.5,-840.5 215.5,-859.5 298.5,-859.5 298.5,-840.5 215.5,-840.5"/>
<text text-anchor="middle" x="257" y="-847.5" font-family="Helvetica,sans-Serif" font-size="10.00" fill="#000000">atom_type.hpp</text>
</a>
</g>
</g>
<!-- Node37&#45;&gt;Node52 -->
<g id="edge26" class="edge">
<title>Node37&#45;&gt;Node52</title>
<path fill="none" stroke="#191970" d="M257,-886.1575C257,-877.155 257,-866.9199 257,-859.6427"/>
<polygon fill="#191970" stroke="#191970" points="253.5001,-886.2455 257,-896.2455 260.5001,-886.2456 253.5001,-886.2455"/>
</g>
<!-- Node55 -->
<g id="node22" class="node">
<title>Node55</title>
<g id="a_node22"><a xlink:href="../../d4/d91/unit__cell_8hpp.html" target="_top" xlink:title="Contains definition and partial implementation of sirius::Unit_cell class. ">
<polygon fill="#ffffff" stroke="#000000" points="218.5,-672.5 218.5,-691.5 291.5,-691.5 291.5,-672.5 218.5,-672.5"/>
<text text-anchor="middle" x="255" y="-679.5" font-family="Helvetica,sans-Serif" font-size="10.00" fill="#000000">unit_cell.hpp</text>
</a>
</g>
</g>
<!-- Node37&#45;&gt;Node55 -->
<g id="edge39" class="edge">
<title>Node37&#45;&gt;Node55</title>
<path fill="none" stroke="#191970" d="M235.5954,-890.0095C225.6852,-881.8317 214.2973,-871.2428 206,-860 189.7055,-837.9211 185.917,-830.7951 180,-804 169.5994,-756.9009 218.0332,-711.1242 242.1034,-691.7138"/>
<polygon fill="#191970" stroke="#191970" points="233.4667,-892.7885 243.4721,-896.2731 237.8236,-887.3096 233.4667,-892.7885"/>
</g>
<!-- Node39 -->
<g id="node6" class="node">
<title>Node39</title>
<g id="a_node6"><a xlink:href="../../db/d74/hubbard_8hpp.html" target="_top" xlink:title="Contains declaration and partial implementation of sirius::Hubbard class. ">
<polygon fill="#ffffff" stroke="#000000" points="364.5,-392.5 364.5,-411.5 437.5,-411.5 437.5,-392.5 364.5,-392.5"/>
<text text-anchor="middle" x="401" y="-399.5" font-family="Helvetica,sans-Serif" font-size="10.00" fill="#000000">hubbard.hpp</text>
</a>
</g>
</g>
<!-- Node38&#45;&gt;Node39 -->
<g id="edge5" class="edge">
<title>Node38&#45;&gt;Node39</title>
<path fill="none" stroke="#191970" d="M374.5908,-439.9209C381.1395,-430.5176 388.8824,-419.3997 394.2846,-411.6427"/>
<polygon fill="#191970" stroke="#191970" points="371.6361,-438.0392 368.7933,-448.2455 377.3804,-442.0397 371.6361,-438.0392"/>
</g>
<!-- Node43 -->
<g id="node10" class="node">
<title>Node43</title>
<g id="a_node10"><a xlink:href="../../de/dec/hamiltonian_8hpp.html" target="_top" xlink:title="Contains declaration and definition of sirius::Hamiltonian class. ">
<polygon fill="#ffffff" stroke="#000000" points="482.5,-168.5 482.5,-187.5 569.5,-187.5 569.5,-168.5 482.5,-168.5"/>
<text text-anchor="middle" x="526" y="-175.5" font-family="Helvetica,sans-Serif" font-size="10.00" fill="#000000">hamiltonian.hpp</text>
</a>
</g>
</g>
<!-- Node38&#45;&gt;Node43 -->
<g id="edge12" class="edge">
<title>Node38&#45;&gt;Node43</title>
<path fill="none" stroke="#191970" d="M423.0421,-446.3547C505.4229,-428.8622 642,-392.8042 642,-346 642,-346 642,-346 642,-290 642,-238.6311 582.3995,-203.359 548.6413,-187.5006"/>
<polygon fill="#191970" stroke="#191970" points="422.1037,-442.975 413.0307,-448.446 423.5352,-449.8271 422.1037,-442.975"/>
</g>
<!-- Node45 -->
<g id="node12" class="node">
<title>Node45</title>
<g id="a_node12"><a xlink:href="../../d3/d6a/periodic__function_8hpp.html" target="_top" xlink:title="Contains declaration and partial implementation of sirius::Periodic_function class. ">
<polygon fill="#ffffff" stroke="#000000" points="234,-392.5 234,-411.5 346,-411.5 346,-392.5 234,-392.5"/>
<text text-anchor="middle" x="290" y="-399.5" font-family="Helvetica,sans-Serif" font-size="10.00" fill="#000000">periodic_function.hpp</text>
</a>
</g>
</g>
<!-- Node38&#45;&gt;Node45 -->
<g id="edge13" class="edge">
<title>Node38&#45;&gt;Node45</title>
<path fill="none" stroke="#191970" d="M341.336,-441.928C328.7511,-432.1397 313.0908,-419.9595 302.3977,-411.6427"/>
<polygon fill="#191970" stroke="#191970" points="339.4162,-444.8688 349.4586,-448.2455 343.7138,-439.3434 339.4162,-444.8688"/>
</g>
<!-- Node40 -->
<g id="node7" class="node">
<title>Node40</title>
<g id="a_node7"><a xlink:href="../../df/dc4/dft__ground__state_8hpp.html" target="_top" xlink:title="Contains definition and partial implementation of sirius::DFT_ground_state class. ...">
<polygon fill="#ffffff" stroke="#000000" points="107.5,-224.5 107.5,-243.5 218.5,-243.5 218.5,-224.5 107.5,-224.5"/>
<text text-anchor="middle" x="163" y="-231.5" font-family="Helvetica,sans-Serif" font-size="10.00" fill="#000000">dft_ground_state.hpp</text>
</a>
</g>
</g>
<!-- Node39&#45;&gt;Node40 -->
<g id="edge6" class="edge">
<title>Node39&#45;&gt;Node40</title>
<path fill="none" stroke="#191970" d="M381.0769,-386.2886C340.6176,-354.4005 252.0467,-284.6923 245,-280 224.2126,-266.1579 198.9828,-252.4305 182.0458,-243.6251"/>
<polygon fill="#191970" stroke="#191970" points="378.9135,-389.0399 388.9335,-392.4821 383.2471,-383.5426 378.9135,-389.0399"/>
</g>
<!-- Node39&#45;&gt;Node43 -->
<g id="edge9" class="edge">
<title>Node39&#45;&gt;Node43</title>
<path fill="none" stroke="#191970" d="M413.6008,-383.7734C418.8806,-375.5556 424.7628,-365.5644 429,-356 453.7785,-300.0693 433.7735,-274.7028 468,-224 478.4983,-208.448 495.8868,-195.6732 508.8918,-187.5662"/>
<polygon fill="#191970" stroke="#191970" points="410.6338,-381.9146 408.0156,-392.1808 416.4644,-385.7881 410.6338,-381.9146"/>
</g>
<!-- Node40&#45;&gt;Node41 -->
<g id="edge7" class="edge">
<title>Node40&#45;&gt;Node41</title>
<path fill="none" stroke="#191970" d="M155.7725,-214.7267C142.3078,-178.8207 113.8308,-102.8822 103.6855,-75.8279"/>
<polygon fill="#191970" stroke="#191970" points="152.6439,-216.3519 159.4323,-224.4862 159.1982,-213.894 152.6439,-216.3519"/>
</g>
<!-- Node42 -->
<g id="node9" class="node">
<title>Node42</title>
<g id="a_node9"><a xlink:href="../../d4/d53/sirius__api_8cpp.html" target="_top" xlink:title="Fortran API. ">
<polygon fill="#ffffff" stroke="#000000" points="61,-.5 61,-19.5 139,-19.5 139,-.5 61,-.5"/>
<text text-anchor="middle" x="100" y="-7.5" font-family="Helvetica,sans-Serif" font-size="10.00" fill="#000000">sirius_api.cpp</text>
</a>
</g>
</g>
<!-- Node41&#45;&gt;Node42 -->
<g id="edge8" class="edge">
<title>Node41&#45;&gt;Node42</title>
<path fill="none" stroke="#191970" d="M100,-46.1575C100,-37.155 100,-26.9199 100,-19.6427"/>
<polygon fill="#191970" stroke="#191970" points="96.5001,-46.2455 100,-56.2455 103.5001,-46.2456 96.5001,-46.2455"/>
</g>
<!-- Node44 -->
<g id="node11" class="node">
<title>Node44</title>
<g id="a_node11"><a xlink:href="../../da/d3d/band_8hpp.html" target="_top" xlink:title="Contains declaration and partial implementation of sirius::Band class. ">
<polygon fill="#ffffff" stroke="#000000" points="257,-112.5 257,-131.5 315,-131.5 315,-112.5 257,-112.5"/>
<text text-anchor="middle" x="286" y="-119.5" font-family="Helvetica,sans-Serif" font-size="10.00" fill="#000000">band.hpp</text>
</a>
</g>
</g>
<!-- Node43&#45;&gt;Node44 -->
<g id="edge10" class="edge">
<title>Node43&#45;&gt;Node44</title>
<path fill="none" stroke="#191970" d="M474.9993,-166.0998C426.3386,-154.7457 354.7504,-138.0418 315.1088,-128.7921"/>
<polygon fill="#191970" stroke="#191970" points="474.4815,-169.573 485.0152,-168.4369 476.0721,-162.7561 474.4815,-169.573"/>
</g>
<!-- Node44&#45;&gt;Node41 -->
<g id="edge11" class="edge">
<title>Node44&#45;&gt;Node41</title>
<path fill="none" stroke="#191970" d="M246.9747,-110.2504C209.8843,-99.0834 155.277,-82.6425 124.1256,-73.2636"/>
<polygon fill="#191970" stroke="#191970" points="246.353,-113.7184 256.9375,-113.25 248.3711,-107.0156 246.353,-113.7184"/>
</g>
<!-- Node45&#45;&gt;Node44 -->
<g id="edge14" class="edge">
<title>Node45&#45;&gt;Node44</title>
<path fill="none" stroke="#191970" d="M288.8656,-382.2029C287.683,-359.8273 286,-322.309 286,-290 286,-290 286,-290 286,-234 286,-196.0833 286,-150.9462 286,-131.5884"/>
<polygon fill="#191970" stroke="#191970" points="285.3833,-382.6229 289.4269,-392.4157 292.3728,-382.2387 285.3833,-382.6229"/>
</g>
<!-- Node46 -->
<g id="node13" class="node">
<title>Node46</title>
<g id="a_node13"><a xlink:href="../../d0/d9a/density_8hpp.html" target="_top" xlink:title="Contains definition and partial implementation of sirius::Density class. ">
<polygon fill="#ffffff" stroke="#000000" points="352,-336.5 352,-355.5 420,-355.5 420,-336.5 352,-336.5"/>
<text text-anchor="middle" x="386" y="-343.5" font-family="Helvetica,sans-Serif" font-size="10.00" fill="#000000">density.hpp</text>
</a>
</g>
</g>
<!-- Node45&#45;&gt;Node46 -->
<g id="edge15" class="edge">
<title>Node45&#45;&gt;Node46</title>
<path fill="none" stroke="#191970" d="M315.6346,-387.0465C332.7159,-377.0824 354.664,-364.2794 369.4697,-355.6427"/>
<polygon fill="#191970" stroke="#191970" points="313.5962,-384.1836 306.7219,-392.2455 317.1233,-390.23 313.5962,-384.1836"/>
</g>
<!-- Node49 -->
<g id="node16" class="node">
<title>Node49</title>
<g id="a_node16"><a xlink:href="../../d5/d72/non__local__functor_8hpp.html" target="_top" xlink:title="Common operation for forces and stress tensor. ">
<polygon fill="#ffffff" stroke="#000000" points="66.5,-336.5 66.5,-355.5 181.5,-355.5 181.5,-336.5 66.5,-336.5"/>
<text text-anchor="middle" x="124" y="-343.5" font-family="Helvetica,sans-Serif" font-size="10.00" fill="#000000">non_local_functor.hpp</text>
</a>
</g>
</g>
<!-- Node45&#45;&gt;Node49 -->
<g id="edge20" class="edge">
<title>Node45&#45;&gt;Node49</title>
<path fill="none" stroke="#191970" d="M251.6333,-389.057C221.2534,-378.8084 179.5181,-364.729 152.164,-355.5011"/>
<polygon fill="#191970" stroke="#191970" points="250.8694,-392.4931 261.4636,-392.3733 253.107,-385.8603 250.8694,-392.4931"/>
</g>
<!-- Node51 -->
<g id="node18" class="node">
<title>Node51</title>
<g id="a_node18"><a xlink:href="../../d6/d1e/force_8hpp.html" target="_top" xlink:title="Contains defintion and implementation of sirius::Force class. ">
<polygon fill="#ffffff" stroke="#000000" points="178,-280.5 178,-299.5 236,-299.5 236,-280.5 178,-280.5"/>
<text text-anchor="middle" x="207" y="-287.5" font-family="Helvetica,sans-Serif" font-size="10.00" fill="#000000">force.hpp</text>
</a>
</g>
</g>
<!-- Node45&#45;&gt;Node51 -->
<g id="edge25" class="edge">
<title>Node45&#45;&gt;Node51</title>
<path fill="none" stroke="#191970" d="M276.8172,-384.2111C259.0224,-360.1989 227.9485,-318.2679 214.0586,-299.5249"/>
<polygon fill="#191970" stroke="#191970" points="274.1574,-386.5005 282.9235,-392.4509 279.7814,-382.3327 274.1574,-386.5005"/>
</g>
<!-- Node47 -->
<g id="node14" class="node">
<title>Node47</title>
<g id="a_node14"><a xlink:href="../../de/df2/potential_8hpp.html" target="_top" xlink:title="Contains declaration and partial implementation of sirius::Potential class. ">
<polygon fill="#ffffff" stroke="#000000" points="489,-280.5 489,-299.5 563,-299.5 563,-280.5 489,-280.5"/>
<text text-anchor="middle" x="526" y="-287.5" font-family="Helvetica,sans-Serif" font-size="10.00" fill="#000000">potential.hpp</text>
</a>
</g>
</g>
<!-- Node46&#45;&gt;Node47 -->
<g id="edge16" class="edge">
<title>Node46&#45;&gt;Node47</title>
<path fill="none" stroke="#191970" d="M419.3649,-332.6541C444.8952,-322.4419 479.4784,-308.6086 502.2472,-299.5011"/>
<polygon fill="#191970" stroke="#191970" points="418.0517,-329.4096 410.0669,-336.3733 420.6515,-335.909 418.0517,-329.4096"/>
</g>
<!-- Node47&#45;&gt;Node43 -->
<g id="edge17" class="edge">
<title>Node47&#45;&gt;Node43</title>
<path fill="none" stroke="#191970" d="M554.8315,-275.1908C566.4479,-267.5771 578.5959,-257.1135 585,-244 596.398,-220.6605 567.0345,-199.3732 545.7601,-187.6001"/>
<polygon fill="#191970" stroke="#191970" points="552.8902,-272.2748 546.1561,-280.4543 556.5211,-278.2595 552.8902,-272.2748"/>
</g>
<!-- Node48 -->
<g id="node15" class="node">
<title>Node48</title>
<g id="a_node15"><a xlink:href="../../d3/d2c/local__operator_8hpp.html" target="_top" xlink:title="Contains declaration and implementation of sirius::Local_operator class. ">
<polygon fill="#ffffff" stroke="#000000" points="476.5,-224.5 476.5,-243.5 575.5,-243.5 575.5,-224.5 476.5,-224.5"/>
<text text-anchor="middle" x="526" y="-231.5" font-family="Helvetica,sans-Serif" font-size="10.00" fill="#000000">local_operator.hpp</text>
</a>
</g>
</g>
<!-- Node47&#45;&gt;Node48 -->
<g id="edge18" class="edge">
<title>Node47&#45;&gt;Node48</title>
<path fill="none" stroke="#191970" d="M526,-270.1575C526,-261.155 526,-250.9199 526,-243.6427"/>
<polygon fill="#191970" stroke="#191970" points="522.5001,-270.2455 526,-280.2455 529.5001,-270.2456 522.5001,-270.2455"/>
</g>
<!-- Node48&#45;&gt;Node43 -->
<g id="edge19" class="edge">
<title>Node48&#45;&gt;Node43</title>
<path fill="none" stroke="#191970" d="M526,-214.1575C526,-205.155 526,-194.9199 526,-187.6427"/>
<polygon fill="#191970" stroke="#191970" points="522.5001,-214.2455 526,-224.2455 529.5001,-214.2456 522.5001,-214.2455"/>
</g>
<!-- Node50 -->
<g id="node17" class="node">
<title>Node50</title>
<g id="a_node17"><a xlink:href="../../d7/dd1/stress_8hpp.html" target="_top" xlink:title="Stress tensor calculation. ">
<polygon fill="#ffffff" stroke="#000000" points="94.5,-280.5 94.5,-299.5 157.5,-299.5 157.5,-280.5 94.5,-280.5"/>
<text text-anchor="middle" x="126" y="-287.5" font-family="Helvetica,sans-Serif" font-size="10.00" fill="#000000">stress.hpp</text>
</a>
</g>
</g>
<!-- Node49&#45;&gt;Node50 -->
<g id="edge21" class="edge">
<title>Node49&#45;&gt;Node50</title>
<path fill="none" stroke="#191970" d="M124.7087,-326.1575C125.0302,-317.155 125.3957,-306.9199 125.6556,-299.6427"/>
<polygon fill="#191970" stroke="#191970" points="121.2076,-326.127 124.3484,-336.2455 128.2032,-326.3769 121.2076,-326.127"/>
</g>
<!-- Node49&#45;&gt;Node51 -->
<g id="edge23" class="edge">
<title>Node49&#45;&gt;Node51</title>
<path fill="none" stroke="#191970" d="M146.988,-330.49C161.6322,-320.6096 180.1444,-308.1194 192.7082,-299.6427"/>
<polygon fill="#191970" stroke="#191970" points="144.7896,-327.7511 138.4575,-336.2455 148.7047,-333.5539 144.7896,-327.7511"/>
</g>
<!-- Node50&#45;&gt;Node40 -->
<g id="edge22" class="edge">
<title>Node50&#45;&gt;Node40</title>
<path fill="none" stroke="#191970" d="M138.1376,-271.6296C144.3093,-262.2887 151.5566,-251.3197 156.6289,-243.6427"/>
<polygon fill="#191970" stroke="#191970" points="135.0373,-269.9728 132.4449,-280.2455 140.8777,-273.8316 135.0373,-269.9728"/>
</g>
<!-- Node51&#45;&gt;Node40 -->
<g id="edge24" class="edge">
<title>Node51&#45;&gt;Node40</title>
<path fill="none" stroke="#191970" d="M193.0231,-272.2112C185.5871,-262.7472 176.734,-251.4797 170.5764,-243.6427"/>
<polygon fill="#191970" stroke="#191970" points="190.4054,-274.5447 199.3358,-280.2455 195.9097,-270.22 190.4054,-274.5447"/>
</g>
<!-- Node53 -->
<g id="node20" class="node">
<title>Node53</title>
<g id="a_node20"><a xlink:href="../../d6/d50/atom__symmetry__class_8hpp.html" target="_top" xlink:title="Contains declaration and partial implementation of sirius::Atom_symmetry_class class. ">
<polygon fill="#ffffff" stroke="#000000" points="189.5,-784.5 189.5,-803.5 324.5,-803.5 324.5,-784.5 189.5,-784.5"/>
<text text-anchor="middle" x="257" y="-791.5" font-family="Helvetica,sans-Serif" font-size="10.00" fill="#000000">atom_symmetry_class.hpp</text>
</a>
</g>
</g>
<!-- Node52&#45;&gt;Node53 -->
<g id="edge27" class="edge">
<title>Node52&#45;&gt;Node53</title>
<path fill="none" stroke="#191970" d="M257,-830.1575C257,-821.155 257,-810.9199 257,-803.6427"/>
<polygon fill="#191970" stroke="#191970" points="253.5001,-830.2455 257,-840.2455 260.5001,-830.2456 253.5001,-830.2455"/>
</g>
<!-- Node53&#45;&gt;Node54 -->
<g id="edge28" class="edge">
<title>Node53&#45;&gt;Node54</title>
<path fill="none" stroke="#191970" d="M257,-774.1575C257,-765.155 257,-754.9199 257,-747.6427"/>
<polygon fill="#191970" stroke="#191970" points="253.5001,-774.2455 257,-784.2455 260.5001,-774.2456 253.5001,-774.2455"/>
</g>
<!-- Node54&#45;&gt;Node55 -->
<g id="edge29" class="edge">
<title>Node54&#45;&gt;Node55</title>
<path fill="none" stroke="#191970" d="M256.2913,-718.1575C255.9698,-709.155 255.6043,-698.9199 255.3444,-691.6427"/>
<polygon fill="#191970" stroke="#191970" points="252.7968,-718.3769 256.6516,-728.2455 259.7924,-718.127 252.7968,-718.3769"/>
</g>
<!-- Node56 -->
<g id="node23" class="node">
<title>Node56</title>
<g id="a_node23"><a xlink:href="../../d4/df7/radial__integrals_8hpp.html" target="_top" xlink:title="Representation of various radial integrals. ">
<polygon fill="#ffffff" stroke="#000000" points="221,-560.5 221,-579.5 325,-579.5 325,-560.5 221,-560.5"/>
<text text-anchor="middle" x="273" y="-567.5" font-family="Helvetica,sans-Serif" font-size="10.00" fill="#000000">radial_integrals.hpp</text>
</a>
</g>
</g>
<!-- Node55&#45;&gt;Node56 -->
<g id="edge30" class="edge">
<title>Node55&#45;&gt;Node56</title>
<path fill="none" stroke="#191970" d="M265.2469,-663.217C269.1196,-655.0983 273.0586,-645.3345 275,-636 279.1084,-616.2468 276.6224,-592.4589 274.6675,-579.5205"/>
<polygon fill="#191970" stroke="#191970" points="262.1097,-661.6647 260.6945,-672.1646 268.3486,-664.839 262.1097,-661.6647"/>
</g>
<!-- Node58 -->
<g id="node25" class="node">
<title>Node58</title>
<g id="a_node25"><a xlink:href="../../d1/d2b/sbessel_8hpp.html" target="_top" xlink:title="Contains implementation of sirius::Spherical_Bessel_functions classe. ">
<polygon fill="#ffffff" stroke="#000000" points="196,-616.5 196,-635.5 266,-635.5 266,-616.5 196,-616.5"/>
<text text-anchor="middle" x="231" y="-623.5" font-family="Helvetica,sans-Serif" font-size="10.00" fill="#000000">sbessel.hpp</text>
</a>
</g>
</g>
<!-- Node55&#45;&gt;Node58 -->
<g id="edge37" class="edge">
<title>Node55&#45;&gt;Node58</title>
<path fill="none" stroke="#191970" d="M246.8759,-663.0437C242.9285,-653.8331 238.3542,-643.1598 235.1326,-635.6427"/>
<polygon fill="#191970" stroke="#191970" points="243.6633,-664.4328 250.8195,-672.2455 250.0973,-661.6753 243.6633,-664.4328"/>
</g>
<!-- Node56&#45;&gt;Node38 -->
<g id="edge36" class="edge">
<title>Node56&#45;&gt;Node38</title>
<path fill="none" stroke="#191970" d="M286.8845,-552.5274C305.923,-528.5688 339.4715,-486.3505 354.4311,-467.5249"/>
<polygon fill="#191970" stroke="#191970" points="284.0693,-550.4443 280.5881,-560.4509 289.5497,-554.7993 284.0693,-550.4443"/>
</g>
<!-- Node56&#45;&gt;Node39 -->
<g id="edge35" class="edge">
<title>Node56&#45;&gt;Node39</title>
<path fill="none" stroke="#191970" d="M270.9855,-549.9989C269.4499,-523.7487 270.7024,-477.5511 294,-448 303.8898,-435.4556 342.3304,-420.8734 370.3121,-411.5472"/>
<polygon fill="#191970" stroke="#191970" points="267.5161,-550.528 271.7879,-560.2235 274.4947,-549.9803 267.5161,-550.528"/>
</g>
<!-- Node57 -->
<g id="node24" class="node">
<title>Node57</title>
<g id="a_node24"><a xlink:href="../../d3/d1c/augmentation__operator_8hpp.html" target="_top" xlink:title="Contains implementation of sirius::Augmentation_operator class. ">
<polygon fill="#ffffff" stroke="#000000" points="106.5,-504.5 106.5,-523.5 245.5,-523.5 245.5,-504.5 106.5,-504.5"/>
<text text-anchor="middle" x="176" y="-511.5" font-family="Helvetica,sans-Serif" font-size="10.00" fill="#000000">augmentation_operator.hpp</text>
</a>
</g>
</g>
<!-- Node56&#45;&gt;Node57 -->
<g id="edge31" class="edge">
<title>Node56&#45;&gt;Node57</title>
<path fill="none" stroke="#191970" d="M247.0984,-555.0465C229.8391,-545.0824 207.6624,-532.2794 192.7025,-523.6427"/>
<polygon fill="#191970" stroke="#191970" points="245.6936,-558.2768 256.1039,-560.2455 249.1935,-552.2146 245.6936,-558.2768"/>
</g>
<!-- Node57&#45;&gt;Node38 -->
<g id="edge34" class="edge">
<title>Node57&#45;&gt;Node38</title>
<path fill="none" stroke="#191970" d="M217.6637,-501.4561C251.8067,-491.1765 299.3931,-476.8494 330.4427,-467.5011"/>
<polygon fill="#191970" stroke="#191970" points="216.5409,-498.1389 207.9745,-504.3733 218.559,-504.8417 216.5409,-498.1389"/>
</g>
<!-- Node57&#45;&gt;Node49 -->
<g id="edge32" class="edge">
<title>Node57&#45;&gt;Node49</title>
<path fill="none" stroke="#191970" d="M170.0344,-494.7267C158.9207,-458.8207 135.4159,-382.8822 127.042,-355.8279"/>
<polygon fill="#191970" stroke="#191970" points="166.7549,-495.9683 173.0553,-504.4862 173.4419,-493.8985 166.7549,-495.9683"/>
</g>
<!-- Node57&#45;&gt;Node51 -->
<g id="edge33" class="edge">
<title>Node57&#45;&gt;Node51</title>
<path fill="none" stroke="#191970" d="M178.7108,-494.4119C185.1124,-448.1557 200.9807,-333.494 205.6729,-299.5891"/>
<polygon fill="#191970" stroke="#191970" points="175.236,-493.9896 177.332,-504.375 182.1699,-494.9492 175.236,-493.9896"/>
</g>
<!-- Node58&#45;&gt;Node56 -->
<g id="edge38" class="edge">
<title>Node58&#45;&gt;Node56</title>
<path fill="none" stroke="#191970" d="M244.3416,-608.2112C251.4396,-598.7472 259.8903,-587.4797 265.768,-579.6427"/>
<polygon fill="#191970" stroke="#191970" points="241.5159,-606.1455 238.3158,-616.2455 247.1159,-610.3455 241.5159,-606.1455"/>
</g>
</g>
</svg>
        <g id="navigator" transform="translate(0 0)" fill="#404254">
                <rect fill="#f2f5e9" fill-opacity="0.5" stroke="#606060" stroke-width=".5" x="0" y="0" width="60" height="60"/>
                <use id="zoomplus" xlink:href="#zoomPlus" x="17" y="9" onmousedown="handleZoom(evt,'in')"/>
                <use id="zoomminus" xlink:href="#zoomMin" x="42" y="9" onmousedown="handleZoom(evt,'out')"/>
                <use id="reset" xlink:href="#resetDef" x="30" y="36" onmousedown="handleReset()"/>
                <g id="arrowUp" xlink:href="#dirArrow" transform="translate(30 24)" onmousedown="handlePan(0,-1)">
                  <use xlink:href="#rim" fill="#404040">
                        <set attributeName="fill" to="#808080" begin="arrowUp.mouseover" end="arrowUp.mouseout"/>
                  </use>
                  <path fill="none" stroke="white" stroke-width="1.5" d="M0,-3.0v7 M-2.5,-0.5L0,-3.0L2.5,-0.5"/>
                </g>
                <g id="arrowRight" xlink:href="#dirArrow" transform="rotate(90) translate(36 -43)" onmousedown="handlePan(1,0)">
                  <use xlink:href="#rim" fill="#404040">
                        <set attributeName="fill" to="#808080" begin="arrowRight.mouseover" end="arrowRight.mouseout"/>
                  </use>
                  <path fill="none" stroke="white" stroke-width="1.5" d="M0,-3.0v7 M-2.5,-0.5L0,-3.0L2.5,-0.5"/>
                </g>
                <g id="arrowDown" xlink:href="#dirArrow" transform="rotate(180) translate(-30 -48)" onmousedown="handlePan(0,1)">
                  <use xlink:href="#rim" fill="#404040">
                        <set attributeName="fill" to="#808080" begin="arrowDown.mouseover" end="arrowDown.mouseout"/>
                  </use>
                  <path fill="none" stroke="white" stroke-width="1.5" d="M0,-3.0v7 M-2.5,-0.5L0,-3.0L2.5,-0.5"/>
                </g>
                <g id="arrowLeft" xlink:href="#dirArrow" transform="rotate(270) translate(-36 17)" onmousedown="handlePan(-1,0)">
                  <use xlink:href="#rim" fill="#404040">
                        <set attributeName="fill" to="#808080" begin="arrowLeft.mouseover" end="arrowLeft.mouseout"/>
                  </use>
                  <path fill="none" stroke="white" stroke-width="1.5" d="M0,-3.0v7 M-2.5,-0.5L0,-3.0L2.5,-0.5"/>
                </g>
        </g>
        <svg viewBox="0 0 15 15" width="100%" height="30px" preserveAspectRatio="xMaxYMin meet">
         <g id="arrow_out" transform="scale(0.3 0.3)">
          <a xlink:href="fft3d_8hpp__dep__incl_org.svg" target="_base">
           <rect id="button" ry="5" rx="5" y="6" x="6" height="38" width="38"
                fill="#f2f5e9" fill-opacity="0.5" stroke="#606060" stroke-width="1.0"/>
           <path id="arrow"
             d="M 11.500037,31.436501 C 11.940474,20.09759 22.043105,11.32322 32.158766,21.979434 L 37.068811,17.246167 C 37.068811,17.246167 37.088388,32 37.088388,32 L 22.160133,31.978069 C 22.160133,31.978069 26.997745,27.140456 26.997745,27.140456 C 18.528582,18.264221 13.291696,25.230495 11.500037,31.436501 z"
             style="fill:#404040;"/>
          </a>
         </g>
        </svg>
</svg>
