<?xml version="1.0" encoding="UTF-8" standalone="no"?>
<!DOCTYPE svg PUBLIC "-//W3C//DTD SVG 1.1//EN"
 "http://www.w3.org/Graphics/SVG/1.1/DTD/svg11.dtd">
<!-- Generated by graphviz version 2.40.1 (20161225.0304)
 -->
<!-- Title: potential.h Pages: 1 -->
<svg width="397pt" height="364pt"
 viewBox="0.00 0.00 397.00 364.00" xmlns="http://www.w3.org/2000/svg" xmlns:xlink="http://www.w3.org/1999/xlink">
<g id="graph0" class="graph" transform="scale(1 1) rotate(0) translate(4 360)">
<title>potential.h</title>
<polygon fill="#ffffff" stroke="transparent" points="-4,4 -4,-360 393,-360 393,4 -4,4"/>
<!-- Node154 -->
<g id="node1" class="node">
<title>Node154</title>
<polygon fill="#bfbfbf" stroke="#000000" points="177.5,-336.5 177.5,-355.5 228.5,-355.5 228.5,-336.5 177.5,-336.5"/>
<text text-anchor="middle" x="203" y="-343.5" font-family="Helvetica,sans-Serif" font-size="10.00" fill="#000000">potential.h</text>
</g>
<!-- Node155 -->
<g id="node2" class="node">
<title>Node155</title>
<g id="a_node2"><a xlink:href="../../d9/dc2/band_8h.html" target="_top" xlink:title="Contains declaration and partial implementation of sirius::Band class. ">
<polygon fill="#ffffff" stroke="#000000" points="116.5,-224.5 116.5,-243.5 155.5,-243.5 155.5,-224.5 116.5,-224.5"/>
<text text-anchor="middle" x="136" y="-231.5" font-family="Helvetica,sans-Serif" font-size="10.00" fill="#000000">band.h</text>
</a>
</g>
</g>
<!-- Node154&#45;&gt;Node155 -->
<g id="edge1" class="edge">
<title>Node154&#45;&gt;Node155</title>
<path fill="none" stroke="#191970" d="M191.9763,-327.5723C177.5531,-303.4618 152.8115,-262.1028 141.6979,-243.5249"/>
<polygon fill="#191970" stroke="#191970" points="189.1503,-329.6661 197.2876,-336.4509 195.1575,-326.0724 189.1503,-329.6661"/>
</g>
<!-- Node157 -->
<g id="node4" class="node">
<title>Node157</title>
<g id="a_node4"><a xlink:href="../../dd/d0d/force_8h.html" target="_top" xlink:title="Contains definition of sirius::Force class. ">
<polygon fill="#ffffff" stroke="#000000" points="173.5,-168.5 173.5,-187.5 212.5,-187.5 212.5,-168.5 173.5,-168.5"/>
<text text-anchor="middle" x="193" y="-175.5" font-family="Helvetica,sans-Serif" font-size="10.00" fill="#000000">force.h</text>
</a>
</g>
</g>
<!-- Node154&#45;&gt;Node157 -->
<g id="edge13" class="edge">
<title>Node154&#45;&gt;Node157</title>
<path fill="none" stroke="#191970" d="M201.825,-326.2601C199.6766,-290.1669 195.1884,-214.7656 193.585,-187.8279"/>
<polygon fill="#191970" stroke="#191970" points="198.3456,-326.7119 202.4337,-336.4862 205.3332,-326.2959 198.3456,-326.7119"/>
</g>
<!-- Node158 -->
<g id="node5" class="node">
<title>Node158</title>
<g id="a_node5"><a xlink:href="../../d6/df1/dft__ground__state_8h.html" target="_top" xlink:title="Contains definition and partial implementation of sirius::DFT_ground_state class. ...">
<polygon fill="#ffffff" stroke="#000000" points="267.5,-112.5 267.5,-131.5 346.5,-131.5 346.5,-112.5 267.5,-112.5"/>
<text text-anchor="middle" x="307" y="-119.5" font-family="Helvetica,sans-Serif" font-size="10.00" fill="#000000">dft_ground_state.h</text>
</a>
</g>
</g>
<!-- Node154&#45;&gt;Node158 -->
<g id="edge12" class="edge">
<title>Node154&#45;&gt;Node158</title>
<path fill="none" stroke="#191970" d="M211.6897,-327.2838C232.8937,-281.6135 286.7065,-165.709 302.5479,-131.5891"/>
<polygon fill="#191970" stroke="#191970" points="208.5054,-325.831 207.4688,-336.375 214.8545,-328.7788 208.5054,-325.831"/>
</g>
<!-- Node159 -->
<g id="node6" class="node">
<title>Node159</title>
<g id="a_node6"><a xlink:href="../../dd/dc2/sirius_8h.html" target="_top" xlink:title="&quot;All&#45;in&#45;one&quot; include file. ">
<polygon fill="#ffffff" stroke="#000000" points="135,-56.5 135,-75.5 175,-75.5 175,-56.5 135,-56.5"/>
<text text-anchor="middle" x="155" y="-63.5" font-family="Helvetica,sans-Serif" font-size="10.00" fill="#000000">sirius.h</text>
</a>
</g>
</g>
<!-- Node154&#45;&gt;Node159 -->
<g id="edge20" class="edge">
<title>Node154&#45;&gt;Node159</title>
<path fill="none" stroke="#191970" d="M167.0255,-342.4247C108.7117,-334.4275 0,-309.4065 0,-234 0,-234 0,-234 0,-178 0,-112.2646 92.7219,-81.2146 134.7365,-70.5193"/>
<polygon fill="#191970" stroke="#191970" points="166.9286,-345.9404 177.2899,-343.7282 167.8105,-338.9962 166.9286,-345.9404"/>
</g>
<!-- Node162 -->
<g id="node9" class="node">
<title>Node162</title>
<g id="a_node9"><a xlink:href="../../dd/d3f/local__operator_8h.html" target="_top" xlink:title="Contains declaration and implementation of sirius::Local_operator class. ">
<polygon fill="#ffffff" stroke="#000000" points="67,-280.5 67,-299.5 137,-299.5 137,-280.5 67,-280.5"/>
<text text-anchor="middle" x="102" y="-287.5" font-family="Helvetica,sans-Serif" font-size="10.00" fill="#000000">local_operator.h</text>
</a>
</g>
</g>
<!-- Node154&#45;&gt;Node162 -->
<g id="edge10" class="edge">
<title>Node154&#45;&gt;Node162</title>
<path fill="none" stroke="#191970" d="M176.5281,-331.3225C158.4875,-321.3198 135.1123,-308.3593 119.3913,-299.6427"/>
<polygon fill="#191970" stroke="#191970" points="174.9643,-334.4574 185.4071,-336.2455 178.3587,-328.3354 174.9643,-334.4574"/>
</g>
<!-- Node163 -->
<g id="node10" class="node">
<title>Node163</title>
<g id="a_node10"><a xlink:href="../../d8/dab/forces_8h_source.html" target="_top" xlink:title="forces.h">
<polygon fill="#ffffff" stroke="#000000" points="276.5,-224.5 276.5,-243.5 319.5,-243.5 319.5,-224.5 276.5,-224.5"/>
<text text-anchor="middle" x="298" y="-231.5" font-family="Helvetica,sans-Serif" font-size="10.00" fill="#000000">forces.h</text>
</a>
</g>
</g>
<!-- Node154&#45;&gt;Node163 -->
<g id="edge14" class="edge">
<title>Node154&#45;&gt;Node163</title>
<path fill="none" stroke="#191970" d="M223.7496,-329.8552C233.7838,-321.5169 245.6486,-310.8359 255,-300 270.9041,-281.5711 285.4803,-256.8616 292.8863,-243.515"/>
<polygon fill="#191970" stroke="#191970" points="221.4118,-327.2446 215.8467,-336.2602 225.8194,-332.6828 221.4118,-327.2446"/>
</g>
<!-- Node164 -->
<g id="node11" class="node">
<title>Node164</title>
<g id="a_node11"><a xlink:href="../../d6/d9f/non__local__functor_8h_source.html" target="_top" xlink:title="non_local_functor.h">
<polygon fill="#ffffff" stroke="#000000" points="307,-280.5 307,-299.5 389,-299.5 389,-280.5 307,-280.5"/>
<text text-anchor="middle" x="348" y="-287.5" font-family="Helvetica,sans-Serif" font-size="10.00" fill="#000000">non_local_functor.h</text>
</a>
</g>
</g>
<!-- Node154&#45;&gt;Node164 -->
<g id="edge16" class="edge">
<title>Node154&#45;&gt;Node164</title>
<path fill="none" stroke="#191970" d="M237.5565,-332.6541C263.9986,-322.4419 299.8169,-308.6086 323.3989,-299.5011"/>
<polygon fill="#191970" stroke="#191970" points="235.9939,-329.5055 227.9264,-336.3733 238.5158,-336.0354 235.9939,-329.5055"/>
</g>
<!-- Node156 -->
<g id="node3" class="node">
<title>Node156</title>
<g id="a_node3"><a xlink:href="../../d2/d15/add__nl__h__o__rs_8cpp_source.html" target="_top" xlink:title="add_nl_h_o_rs.cpp">
<polygon fill="#ffffff" stroke="#000000" points="28,-168.5 28,-187.5 108,-187.5 108,-168.5 28,-168.5"/>
<text text-anchor="middle" x="68" y="-175.5" font-family="Helvetica,sans-Serif" font-size="10.00" fill="#000000">add_nl_h_o_rs.cpp</text>
</a>
</g>
</g>
<!-- Node155&#45;&gt;Node156 -->
<g id="edge2" class="edge">
<title>Node155&#45;&gt;Node156</title>
<path fill="none" stroke="#191970" d="M116.1404,-217.645C104.3142,-207.9058 89.7108,-195.8795 79.709,-187.6427"/>
<polygon fill="#191970" stroke="#191970" points="114.211,-220.5902 124.1553,-224.2455 118.661,-215.1867 114.211,-220.5902"/>
</g>
<!-- Node155&#45;&gt;Node157 -->
<g id="edge3" class="edge">
<title>Node155&#45;&gt;Node157</title>
<path fill="none" stroke="#191970" d="M153.2271,-217.0751C163.0341,-207.4402 174.964,-195.7196 183.1851,-187.6427"/>
<polygon fill="#191970" stroke="#191970" points="150.6091,-214.7406 145.9286,-224.2455 155.5149,-219.734 150.6091,-214.7406"/>
</g>
<!-- Node155&#45;&gt;Node159 -->
<g id="edge9" class="edge">
<title>Node155&#45;&gt;Node159</title>
<path fill="none" stroke="#191970" d="M138.2325,-214.2601C142.3145,-178.1669 150.842,-102.7656 153.8885,-75.8279"/>
<polygon fill="#191970" stroke="#191970" points="134.722,-214.1562 137.076,-224.4862 141.6777,-214.9429 134.722,-214.1562"/>
</g>
<!-- Node157&#45;&gt;Node158 -->
<g id="edge4" class="edge">
<title>Node157&#45;&gt;Node158</title>
<path fill="none" stroke="#191970" d="M221.8321,-163.8368C242.4395,-153.7139 269.6082,-140.3679 287.6584,-131.5011"/>
<polygon fill="#191970" stroke="#191970" points="220.0297,-160.8227 212.5973,-168.3733 223.116,-167.1056 220.0297,-160.8227"/>
</g>
<!-- Node157&#45;&gt;Node159 -->
<g id="edge8" class="edge">
<title>Node157&#45;&gt;Node159</title>
<path fill="none" stroke="#191970" d="M186.5282,-158.9253C178.3185,-134.7284 164.4788,-93.9376 158.2317,-75.5249"/>
<polygon fill="#191970" stroke="#191970" points="183.2327,-160.1057 189.7601,-168.4509 189.8615,-157.8566 183.2327,-160.1057"/>
</g>
<!-- Node161 -->
<g id="node8" class="node">
<title>Node161</title>
<g id="a_node8"><a xlink:href="../../df/d4d/force_8cpp.html" target="_top" xlink:title="Contains implementation of sirius::Force class. ">
<polygon fill="#ffffff" stroke="#000000" points="202.5,-112.5 202.5,-131.5 249.5,-131.5 249.5,-112.5 202.5,-112.5"/>
<text text-anchor="middle" x="226" y="-119.5" font-family="Helvetica,sans-Serif" font-size="10.00" fill="#000000">force.cpp</text>
</a>
</g>
</g>
<!-- Node157&#45;&gt;Node161 -->
<g id="edge7" class="edge">
<title>Node157&#45;&gt;Node161</title>
<path fill="none" stroke="#191970" d="M203.8254,-159.6296C209.3299,-150.2887 215.7937,-139.3197 220.3177,-131.6427"/>
<polygon fill="#191970" stroke="#191970" points="200.8097,-157.8532 198.7482,-168.2455 206.8405,-161.4071 200.8097,-157.8532"/>
</g>
<!-- Node158&#45;&gt;Node159 -->
<g id="edge5" class="edge">
<title>Node158&#45;&gt;Node159</title>
<path fill="none" stroke="#191970" d="M271.2384,-108.8247C241.4003,-97.8317 199.9342,-82.5547 175.4402,-73.5306"/>
<polygon fill="#191970" stroke="#191970" points="270.2768,-112.2003 280.8703,-112.3733 272.6968,-105.6319 270.2768,-112.2003"/>
</g>
<!-- Node160 -->
<g id="node7" class="node">
<title>Node160</title>
<g id="a_node7"><a xlink:href="../../d4/d53/sirius__api_8cpp.html" target="_top" xlink:title="Fortran API. ">
<polygon fill="#ffffff" stroke="#000000" points="124,-.5 124,-19.5 186,-19.5 186,-.5 124,-.5"/>
<text text-anchor="middle" x="155" y="-7.5" font-family="Helvetica,sans-Serif" font-size="10.00" fill="#000000">sirius_api.cpp</text>
</a>
</g>
</g>
<!-- Node159&#45;&gt;Node160 -->
<g id="edge6" class="edge">
<title>Node159&#45;&gt;Node160</title>
<path fill="none" stroke="#191970" d="M155,-46.1575C155,-37.155 155,-26.9199 155,-19.6427"/>
<polygon fill="#191970" stroke="#191970" points="151.5001,-46.2455 155,-56.2455 158.5001,-46.2456 151.5001,-46.2455"/>
</g>
<!-- Node162&#45;&gt;Node155 -->
<g id="edge11" class="edge">
<title>Node162&#45;&gt;Node155</title>
<path fill="none" stroke="#191970" d="M113.1535,-271.6296C118.8247,-262.2887 125.4845,-251.3197 130.1455,-243.6427"/>
<polygon fill="#191970" stroke="#191970" points="110.1204,-269.8812 107.9223,-280.2455 116.1039,-273.5141 110.1204,-269.8812"/>
</g>
<!-- Node163&#45;&gt;Node158 -->
<g id="edge15" class="edge">
<title>Node163&#45;&gt;Node158</title>
<path fill="none" stroke="#191970" d="M299.5854,-214.2702C301.5358,-189.9985 304.7683,-149.7725 306.2346,-131.5249"/>
<polygon fill="#191970" stroke="#191970" points="296.0797,-214.2027 298.7673,-224.4509 303.0572,-214.7635 296.0797,-214.2027"/>
</g>
<!-- Node164&#45;&gt;Node163 -->
<g id="edge17" class="edge">
<title>Node164&#45;&gt;Node163</title>
<path fill="none" stroke="#191970" d="M332.3753,-272.5004C323.8727,-262.9775 313.6782,-251.5596 306.6095,-243.6427"/>
<polygon fill="#191970" stroke="#191970" points="330.0197,-275.1172 339.2907,-280.2455 335.2413,-270.4551 330.0197,-275.1172"/>
</g>
<!-- Node165 -->
<g id="node12" class="node">
<title>Node165</title>
<g id="a_node12"><a xlink:href="../../d2/d50/stress_8h.html" target="_top" xlink:title="Stress tensor calculation. ">
<polygon fill="#ffffff" stroke="#000000" points="326.5,-168.5 326.5,-187.5 369.5,-187.5 369.5,-168.5 326.5,-168.5"/>
<text text-anchor="middle" x="348" y="-175.5" font-family="Helvetica,sans-Serif" font-size="10.00" fill="#000000">stress.h</text>
</a>
</g>
</g>
<!-- Node164&#45;&gt;Node165 -->
<g id="edge18" class="edge">
<title>Node164&#45;&gt;Node165</title>
<path fill="none" stroke="#191970" d="M348,-270.2702C348,-245.9985 348,-205.7725 348,-187.5249"/>
<polygon fill="#191970" stroke="#191970" points="344.5001,-270.4509 348,-280.4509 351.5001,-270.451 344.5001,-270.4509"/>
</g>
<!-- Node165&#45;&gt;Node158 -->
<g id="edge19" class="edge">
<title>Node165&#45;&gt;Node158</title>
<path fill="none" stroke="#191970" d="M334.7636,-159.9209C327.8789,-150.5176 319.7391,-139.3997 314.0598,-131.6427"/>
<polygon fill="#191970" stroke="#191970" points="332.1269,-162.2445 340.8583,-168.2455 337.7749,-158.1093 332.1269,-162.2445"/>
</g>
</g>
</svg>
