<?xml version="1.0" encoding="UTF-8" standalone="no"?>
<!DOCTYPE svg PUBLIC "-//W3C//DTD SVG 1.1//EN"
 "http://www.w3.org/Graphics/SVG/1.1/DTD/svg11.dtd">
<!-- Generated by graphviz version 2.40.1 (20161225.0304)
 -->
<!-- Title: spheric_function.h Pages: 1 -->
<svg width="1092pt" height="924pt"
 viewBox="0.00 0.00 1092.00 924.00" xmlns="http://www.w3.org/2000/svg" xmlns:xlink="http://www.w3.org/1999/xlink">
<g id="graph0" class="graph" transform="scale(1 1) rotate(0) translate(4 920)">
<title>spheric_function.h</title>
<polygon fill="#ffffff" stroke="transparent" points="-4,4 -4,-920 1088,-920 1088,4 -4,4"/>
<!-- Node54 -->
<g id="node1" class="node">
<title>Node54</title>
<polygon fill="#bfbfbf" stroke="#000000" points="845,-896.5 845,-915.5 943,-915.5 943,-896.5 845,-896.5"/>
<text text-anchor="middle" x="894" y="-903.5" font-family="Helvetica,sans-Serif" font-size="10.00" fill="#000000">spheric_function.h</text>
</g>
<!-- Node55 -->
<g id="node2" class="node">
<title>Node55</title>
<g id="a_node2"><a xlink:href="../../de/d6d/atom_8hpp.html" target="_top" xlink:title="Contains declaration and partial implementation of sirius::Atom class. ">
<polygon fill="#ffffff" stroke="#000000" points="629,-840.5 629,-859.5 687,-859.5 687,-840.5 629,-840.5"/>
<text text-anchor="middle" x="658" y="-847.5" font-family="Helvetica,sans-Serif" font-size="10.00" fill="#000000">atom.hpp</text>
</a>
</g>
</g>
<!-- Node54&#45;&gt;Node55 -->
<g id="edge1" class="edge">
<title>Node54&#45;&gt;Node55</title>
<path fill="none" stroke="#191970" d="M843.9059,-894.1133C796.339,-882.8262 726.4547,-866.2435 687.3209,-856.9575"/>
<polygon fill="#191970" stroke="#191970" points="843.1604,-897.5335 853.6983,-896.4369 844.7766,-890.7226 843.1604,-897.5335"/>
</g>
<!-- Node69 -->
<g id="node16" class="node">
<title>Node69</title>
<g id="a_node16"><a xlink:href="../../de/df2/potential_8hpp.html" target="_top" xlink:title="Contains declaration and partial implementation of sirius::Potential class. ">
<polygon fill="#ffffff" stroke="#000000" points="922,-280.5 922,-299.5 996,-299.5 996,-280.5 922,-280.5"/>
<text text-anchor="middle" x="959" y="-287.5" font-family="Helvetica,sans-Serif" font-size="10.00" fill="#000000">potential.hpp</text>
</a>
</g>
</g>
<!-- Node54&#45;&gt;Node69 -->
<g id="edge62" class="edge">
<title>Node54&#45;&gt;Node69</title>
<path fill="none" stroke="#191970" d="M953.2391,-896.6082C1008.9973,-883.9973 1084,-855.5877 1084,-794 1084,-794 1084,-794 1084,-570 1084,-455.0119 995.0107,-334.7303 967.2016,-299.9496"/>
<polygon fill="#191970" stroke="#191970" points="952.4683,-893.1938 943.4243,-898.7126 953.9358,-900.0383 952.4683,-893.1938"/>
</g>
<!-- Node77 -->
<g id="node24" class="node">
<title>Node77</title>
<g id="a_node24"><a xlink:href="../../d8/d65/periodic__function_8h.html" target="_top" xlink:title="Contains declaration and partial implementation of sirius::Periodic_function class. ">
<polygon fill="#ffffff" stroke="#000000" points="844,-504.5 844,-523.5 944,-523.5 944,-504.5 844,-504.5"/>
<text text-anchor="middle" x="894" y="-511.5" font-family="Helvetica,sans-Serif" font-size="10.00" fill="#000000">periodic_function.h</text>
</a>
</g>
</g>
<!-- Node54&#45;&gt;Node77 -->
<g id="edge61" class="edge">
<title>Node54&#45;&gt;Node77</title>
<path fill="none" stroke="#191970" d="M894,-886.1952C894,-863.8128 894,-826.2884 894,-794 894,-794 894,-794 894,-626 894,-588.0833 894,-542.9462 894,-523.5884"/>
<polygon fill="#191970" stroke="#191970" points="890.5001,-886.4116 894,-896.4116 897.5001,-886.4117 890.5001,-886.4116"/>
</g>
<!-- Node56 -->
<g id="node3" class="node">
<title>Node56</title>
<g id="a_node3"><a xlink:href="../../d4/d91/unit__cell_8hpp.html" target="_top" xlink:title="Contains definition and partial implementation of sirius::Unit_cell class. ">
<polygon fill="#ffffff" stroke="#000000" points="442.5,-784.5 442.5,-803.5 515.5,-803.5 515.5,-784.5 442.5,-784.5"/>
<text text-anchor="middle" x="479" y="-791.5" font-family="Helvetica,sans-Serif" font-size="10.00" fill="#000000">unit_cell.hpp</text>
</a>
</g>
</g>
<!-- Node55&#45;&gt;Node56 -->
<g id="edge2" class="edge">
<title>Node55&#45;&gt;Node56</title>
<path fill="none" stroke="#191970" d="M619.1192,-837.8362C586.2829,-827.5634 539.9026,-813.0533 509.6448,-803.5872"/>
<polygon fill="#191970" stroke="#191970" points="618.2533,-841.2325 628.8422,-840.878 620.3434,-834.5518 618.2533,-841.2325"/>
</g>
<!-- Node57 -->
<g id="node4" class="node">
<title>Node57</title>
<g id="a_node4"><a xlink:href="../../d2/d5f/beta__projectors_8h.html" target="_top" xlink:title="Contains declaration and implementation of sirius::Beta_projectors class. ">
<polygon fill="#ffffff" stroke="#000000" points="394,-504.5 394,-523.5 488,-523.5 488,-504.5 394,-504.5"/>
<text text-anchor="middle" x="441" y="-511.5" font-family="Helvetica,sans-Serif" font-size="10.00" fill="#000000">beta_projectors.h</text>
</a>
</g>
</g>
<!-- Node56&#45;&gt;Node57 -->
<g id="edge3" class="edge">
<title>Node56&#45;&gt;Node57</title>
<path fill="none" stroke="#191970" d="M468.511,-775.4209C457.2634,-753.7168 441,-716.3882 441,-682 441,-682 441,-682 441,-626 441,-588.0833 441,-542.9462 441,-523.5884"/>
<polygon fill="#191970" stroke="#191970" points="465.569,-777.3395 473.393,-784.4834 471.7317,-774.0196 465.569,-777.3395"/>
</g>
<!-- Node61 -->
<g id="node8" class="node">
<title>Node61</title>
<g id="a_node8"><a xlink:href="../../dd/dc2/sirius_8h.html" target="_top" xlink:title="&quot;All&#45;in&#45;one&quot; include file. ">
<polygon fill="#ffffff" stroke="#000000" points="610,-56.5 610,-75.5 658,-75.5 658,-56.5 610,-56.5"/>
<text text-anchor="middle" x="634" y="-63.5" font-family="Helvetica,sans-Serif" font-size="10.00" fill="#000000">sirius.h</text>
</a>
</g>
</g>
<!-- Node56&#45;&gt;Node61 -->
<g id="edge60" class="edge">
<title>Node56&#45;&gt;Node61</title>
<path fill="none" stroke="#191970" d="M432.1677,-792.9464C311.616,-788.9719 0,-770.1706 0,-682 0,-682 0,-682 0,-178 0,-114.8478 494.1129,-75.9106 609.9206,-67.652"/>
<polygon fill="#191970" stroke="#191970" points="432.1054,-796.446 442.209,-793.2575 432.3222,-789.4494 432.1054,-796.446"/>
</g>
<!-- Node74 -->
<g id="node21" class="node">
<title>Node74</title>
<g id="a_node21"><a xlink:href="../../de/d58/radial__integrals_8h.html" target="_top" xlink:title="Representation of various radial integrals. ">
<polygon fill="#ffffff" stroke="#000000" points="469.5,-672.5 469.5,-691.5 562.5,-691.5 562.5,-672.5 469.5,-672.5"/>
<text text-anchor="middle" x="516" y="-679.5" font-family="Helvetica,sans-Serif" font-size="10.00" fill="#000000">radial_integrals.h</text>
</a>
</g>
</g>
<!-- Node56&#45;&gt;Node74 -->
<g id="edge35" class="edge">
<title>Node56&#45;&gt;Node74</title>
<path fill="none" stroke="#191970" d="M484.1856,-774.1957C487.7643,-761.0096 492.7992,-743.3517 498,-728 502.2926,-715.3292 508.0377,-701.0194 511.871,-691.7733"/>
<polygon fill="#191970" stroke="#191970" points="480.7469,-773.5072 481.5503,-784.0716 487.5103,-775.312 480.7469,-773.5072"/>
</g>
<!-- Node78 -->
<g id="node25" class="node">
<title>Node78</title>
<g id="a_node25"><a xlink:href="../../d1/d2b/sbessel_8hpp.html" target="_top" xlink:title="Contains implementation of sirius::Spherical_Bessel_functions classe. ">
<polygon fill="#ffffff" stroke="#000000" points="507,-728.5 507,-747.5 577,-747.5 577,-728.5 507,-728.5"/>
<text text-anchor="middle" x="542" y="-735.5" font-family="Helvetica,sans-Serif" font-size="10.00" fill="#000000">sbessel.hpp</text>
</a>
</g>
</g>
<!-- Node56&#45;&gt;Node78 -->
<g id="edge58" class="edge">
<title>Node56&#45;&gt;Node78</title>
<path fill="none" stroke="#191970" d="M497.7192,-777.3607C508.6182,-767.6727 521.9755,-755.7995 531.152,-747.6427"/>
<polygon fill="#191970" stroke="#191970" points="495.1226,-774.9859 489.9738,-784.2455 499.7732,-780.2178 495.1226,-774.9859"/>
</g>
<!-- Node58 -->
<g id="node5" class="node">
<title>Node58</title>
<g id="a_node5"><a xlink:href="../../d4/d0f/beta__projectors__gradient_8h.html" target="_top" xlink:title="Contains declaration and implementation of sirius::Beta_projectors_gradient class. ">
<polygon fill="#ffffff" stroke="#000000" points="276.5,-448.5 276.5,-467.5 411.5,-467.5 411.5,-448.5 276.5,-448.5"/>
<text text-anchor="middle" x="344" y="-455.5" font-family="Helvetica,sans-Serif" font-size="10.00" fill="#000000">beta_projectors_gradient.h</text>
</a>
</g>
</g>
<!-- Node57&#45;&gt;Node58 -->
<g id="edge4" class="edge">
<title>Node57&#45;&gt;Node58</title>
<path fill="none" stroke="#191970" d="M415.0984,-499.0465C397.8391,-489.0824 375.6624,-476.2794 360.7025,-467.6427"/>
<polygon fill="#191970" stroke="#191970" points="413.6936,-502.2768 424.1039,-504.2455 417.1935,-496.2146 413.6936,-502.2768"/>
</g>
<!-- Node59 -->
<g id="node6" class="node">
<title>Node59</title>
<g id="a_node6"><a xlink:href="../../db/d74/hubbard_8hpp_source.html" target="_top" xlink:title="hubbard.hpp">
<polygon fill="#ffffff" stroke="#000000" points="498.5,-392.5 498.5,-411.5 571.5,-411.5 571.5,-392.5 498.5,-392.5"/>
<text text-anchor="middle" x="535" y="-399.5" font-family="Helvetica,sans-Serif" font-size="10.00" fill="#000000">hubbard.hpp</text>
</a>
</g>
</g>
<!-- Node57&#45;&gt;Node59 -->
<g id="edge26" class="edge">
<title>Node57&#45;&gt;Node59</title>
<path fill="none" stroke="#191970" d="M455.6645,-496.5274C475.7726,-472.5688 511.2059,-430.3505 527.0059,-411.5249"/>
<polygon fill="#191970" stroke="#191970" points="452.7622,-494.5411 449.0144,-504.4509 458.1241,-499.0412 452.7622,-494.5411"/>
</g>
<!-- Node65 -->
<g id="node12" class="node">
<title>Node65</title>
<g id="a_node12"><a xlink:href="../../d6/d1e/force_8hpp.html" target="_top" xlink:title="Contains defintion and implementation of sirius::Force class. ">
<polygon fill="#ffffff" stroke="#000000" points="219,-392.5 219,-411.5 277,-411.5 277,-392.5 219,-392.5"/>
<text text-anchor="middle" x="248" y="-399.5" font-family="Helvetica,sans-Serif" font-size="10.00" fill="#000000">force.hpp</text>
</a>
</g>
</g>
<!-- Node57&#45;&gt;Node65 -->
<g id="edge31" class="edge">
<title>Node57&#45;&gt;Node65</title>
<path fill="none" stroke="#191970" d="M383.8509,-505.1256C339.7791,-497.1746 283.6281,-484.2688 267,-468 251.4883,-452.8235 248.4291,-425.8676 247.9566,-411.5518"/>
<polygon fill="#191970" stroke="#191970" points="383.4506,-508.6088 393.9056,-506.8927 384.6624,-501.7145 383.4506,-508.6088"/>
</g>
<!-- Node66 -->
<g id="node13" class="node">
<title>Node66</title>
<g id="a_node13"><a xlink:href="../../d3/d9a/k__point_8hpp.html" target="_top" xlink:title="Contains definition and partial implementation of sirius::K_point class. ">
<polygon fill="#ffffff" stroke="#000000" points="722,-448.5 722,-467.5 790,-467.5 790,-448.5 722,-448.5"/>
<text text-anchor="middle" x="756" y="-455.5" font-family="Helvetica,sans-Serif" font-size="10.00" fill="#000000">k_point.hpp</text>
</a>
</g>
</g>
<!-- Node57&#45;&gt;Node66 -->
<g id="edge14" class="edge">
<title>Node57&#45;&gt;Node66</title>
<path fill="none" stroke="#191970" d="M498.2699,-505.3543C553.4431,-496.78 639.1768,-482.8122 713,-468 715.8556,-467.427 718.8109,-466.8038 721.7733,-466.1579"/>
<polygon fill="#191970" stroke="#191970" points="497.6805,-501.9038 488.3332,-506.8915 498.7508,-508.8215 497.6805,-501.9038"/>
</g>
<!-- Node71 -->
<g id="node18" class="node">
<title>Node71</title>
<g id="a_node18"><a xlink:href="../../d5/d72/non__local__functor_8hpp.html" target="_top" xlink:title="Common operation for forces and stress tensor. ">
<polygon fill="#ffffff" stroke="#000000" points="66.5,-448.5 66.5,-467.5 181.5,-467.5 181.5,-448.5 66.5,-448.5"/>
<text text-anchor="middle" x="124" y="-455.5" font-family="Helvetica,sans-Serif" font-size="10.00" fill="#000000">non_local_functor.hpp</text>
</a>
</g>
</g>
<!-- Node57&#45;&gt;Node71 -->
<g id="edge27" class="edge">
<title>Node57&#45;&gt;Node71</title>
<path fill="none" stroke="#191970" d="M383.7118,-503.8797C325.2647,-493.5547 235.2522,-477.6534 178.0178,-467.5426"/>
<polygon fill="#191970" stroke="#191970" points="383.4278,-507.3836 393.8842,-505.6767 384.6456,-500.4904 383.4278,-507.3836"/>
</g>
<!-- Node73 -->
<g id="node20" class="node">
<title>Node73</title>
<g id="a_node20"><a xlink:href="../../de/de7/non__local__operator_8hpp.html" target="_top" xlink:title="Contains declaration and implementation of sirius::Non_local_operator class. ">
<polygon fill="#ffffff" stroke="#000000" points="582,-448.5 582,-467.5 704,-467.5 704,-448.5 582,-448.5"/>
<text text-anchor="middle" x="643" y="-455.5" font-family="Helvetica,sans-Serif" font-size="10.00" fill="#000000">non_local_operator.hpp</text>
</a>
</g>
</g>
<!-- Node57&#45;&gt;Node73 -->
<g id="edge32" class="edge">
<title>Node57&#45;&gt;Node73</title>
<path fill="none" stroke="#191970" d="M485.7711,-501.5882C522.8838,-491.2996 574.8629,-476.8895 608.7281,-467.5011"/>
<polygon fill="#191970" stroke="#191970" points="484.4265,-498.3289 475.725,-504.3733 486.2966,-505.0745 484.4265,-498.3289"/>
</g>
<!-- Node58&#45;&gt;Node59 -->
<g id="edge5" class="edge">
<title>Node58&#45;&gt;Node59</title>
<path fill="none" stroke="#191970" d="M386.7837,-445.4561C421.8445,-435.1765 470.7102,-420.8494 502.5944,-411.5011"/>
<polygon fill="#191970" stroke="#191970" points="385.4454,-442.2011 376.8341,-448.3733 387.4149,-448.9183 385.4454,-442.2011"/>
</g>
<!-- Node58&#45;&gt;Node65 -->
<g id="edge12" class="edge">
<title>Node58&#45;&gt;Node65</title>
<path fill="none" stroke="#191970" d="M318.3654,-443.0465C301.2841,-433.0824 279.336,-420.2794 264.5303,-411.6427"/>
<polygon fill="#191970" stroke="#191970" points="316.8767,-446.23 327.2781,-448.2455 320.4038,-440.1836 316.8767,-446.23"/>
</g>
<!-- Node60 -->
<g id="node7" class="node">
<title>Node60</title>
<g id="a_node7"><a xlink:href="../../d6/df1/dft__ground__state_8h.html" target="_top" xlink:title="Contains definition and partial implementation of sirius::DFT_ground_state class. ...">
<polygon fill="#ffffff" stroke="#000000" points="456,-336.5 456,-355.5 556,-355.5 556,-336.5 456,-336.5"/>
<text text-anchor="middle" x="506" y="-343.5" font-family="Helvetica,sans-Serif" font-size="10.00" fill="#000000">dft_ground_state.h</text>
</a>
</g>
</g>
<!-- Node59&#45;&gt;Node60 -->
<g id="edge6" class="edge">
<title>Node59&#45;&gt;Node60</title>
<path fill="none" stroke="#191970" d="M525.3353,-383.3372C520.5313,-374.0605 514.9277,-363.2398 510.9935,-355.6427"/>
<polygon fill="#191970" stroke="#191970" points="522.242,-384.9751 529.9486,-392.2455 528.458,-381.7561 522.242,-384.9751"/>
</g>
<!-- Node63 -->
<g id="node10" class="node">
<title>Node63</title>
<g id="a_node10"><a xlink:href="../../de/dec/hamiltonian_8hpp.html" target="_top" xlink:title="Contains declaration and definition of sirius::Hamiltonian class. ">
<polygon fill="#ffffff" stroke="#000000" points="726.5,-168.5 726.5,-187.5 813.5,-187.5 813.5,-168.5 726.5,-168.5"/>
<text text-anchor="middle" x="770" y="-175.5" font-family="Helvetica,sans-Serif" font-size="10.00" fill="#000000">hamiltonian.hpp</text>
</a>
</g>
</g>
<!-- Node59&#45;&gt;Node63 -->
<g id="edge9" class="edge">
<title>Node59&#45;&gt;Node63</title>
<path fill="none" stroke="#191970" d="M547.1821,-383.5743C552.6793,-375.195 559.2218,-365.1321 565,-356 601.8037,-297.8342 592.8186,-267.698 646,-224 669.0629,-205.0497 700.6788,-193.4837 726.2138,-186.689"/>
<polygon fill="#191970" stroke="#191970" points="544.0919,-381.9031 541.5161,-392.1801 549.9385,-385.7525 544.0919,-381.9031"/>
</g>
<!-- Node60&#45;&gt;Node61 -->
<g id="edge7" class="edge">
<title>Node60&#45;&gt;Node61</title>
<path fill="none" stroke="#191970" d="M511.6819,-326.3467C517.5945,-304.1295 526,-266.7807 526,-234 526,-234 526,-234 526,-178 526,-128.0278 582.4011,-91.791 613.686,-75.5348"/>
<polygon fill="#191970" stroke="#191970" points="508.2445,-325.6455 508.9511,-336.2168 514.991,-327.5122 508.2445,-325.6455"/>
</g>
<!-- Node62 -->
<g id="node9" class="node">
<title>Node62</title>
<g id="a_node9"><a xlink:href="../../d4/d53/sirius__api_8cpp.html" target="_top" xlink:title="Fortran API. ">
<polygon fill="#ffffff" stroke="#000000" points="595,-.5 595,-19.5 673,-19.5 673,-.5 595,-.5"/>
<text text-anchor="middle" x="634" y="-7.5" font-family="Helvetica,sans-Serif" font-size="10.00" fill="#000000">sirius_api.cpp</text>
</a>
</g>
</g>
<!-- Node61&#45;&gt;Node62 -->
<g id="edge8" class="edge">
<title>Node61&#45;&gt;Node62</title>
<path fill="none" stroke="#191970" d="M634,-46.1575C634,-37.155 634,-26.9199 634,-19.6427"/>
<polygon fill="#191970" stroke="#191970" points="630.5001,-46.2455 634,-56.2455 637.5001,-46.2456 630.5001,-46.2455"/>
</g>
<!-- Node64 -->
<g id="node11" class="node">
<title>Node64</title>
<g id="a_node11"><a xlink:href="../../da/d3d/band_8hpp.html" target="_top" xlink:title="Contains declaration and partial implementation of sirius::Band class. ">
<polygon fill="#ffffff" stroke="#000000" points="687,-112.5 687,-131.5 745,-131.5 745,-112.5 687,-112.5"/>
<text text-anchor="middle" x="716" y="-119.5" font-family="Helvetica,sans-Serif" font-size="10.00" fill="#000000">band.hpp</text>
</a>
</g>
</g>
<!-- Node63&#45;&gt;Node64 -->
<g id="edge10" class="edge">
<title>Node63&#45;&gt;Node64</title>
<path fill="none" stroke="#191970" d="M753.4031,-160.7884C744.1653,-151.2085 733.0096,-139.6396 725.2983,-131.6427"/>
<polygon fill="#191970" stroke="#191970" points="751.1331,-163.4766 760.5939,-168.2455 756.172,-158.6176 751.1331,-163.4766"/>
</g>
<!-- Node64&#45;&gt;Node61 -->
<g id="edge11" class="edge">
<title>Node64&#45;&gt;Node61</title>
<path fill="none" stroke="#191970" d="M693.289,-106.49C678.8212,-96.6096 660.532,-84.1194 648.1196,-75.6427"/>
<polygon fill="#191970" stroke="#191970" points="691.4848,-109.4962 701.7167,-112.2455 695.4325,-103.7156 691.4848,-109.4962"/>
</g>
<!-- Node65&#45;&gt;Node60 -->
<g id="edge13" class="edge">
<title>Node65&#45;&gt;Node60</title>
<path fill="none" stroke="#191970" d="M286.9007,-393.5564C333.8984,-383.3554 412.7668,-366.2367 461.9574,-355.5596"/>
<polygon fill="#191970" stroke="#191970" points="286.1244,-390.1434 277.0944,-395.6849 287.6092,-396.9841 286.1244,-390.1434"/>
</g>
<!-- Node66&#45;&gt;Node59 -->
<g id="edge24" class="edge">
<title>Node66&#45;&gt;Node59</title>
<path fill="none" stroke="#191970" d="M712.2079,-446.9034C671.0925,-436.485 610.2855,-421.0769 571.6641,-411.2905"/>
<polygon fill="#191970" stroke="#191970" points="711.3997,-450.3091 721.9531,-449.3727 713.1192,-443.5236 711.3997,-450.3091"/>
</g>
<!-- Node66&#45;&gt;Node63 -->
<g id="edge25" class="edge">
<title>Node66&#45;&gt;Node63</title>
<path fill="none" stroke="#191970" d="M756.9942,-438.1153C759.7669,-382.6613 767.513,-227.7405 769.5201,-187.5977"/>
<polygon fill="#191970" stroke="#191970" points="753.4857,-438.1994 756.4819,-448.3618 760.477,-438.5491 753.4857,-438.1994"/>
</g>
<!-- Node67 -->
<g id="node14" class="node">
<title>Node67</title>
<g id="a_node14"><a xlink:href="../../d3/de4/k__point__set_8hpp.html" target="_top" xlink:title="Contains declaration and partial implementation of sirius::K_point_set class. ">
<polygon fill="#ffffff" stroke="#000000" points="659.5,-392.5 659.5,-411.5 746.5,-411.5 746.5,-392.5 659.5,-392.5"/>
<text text-anchor="middle" x="703" y="-399.5" font-family="Helvetica,sans-Serif" font-size="10.00" fill="#000000">k_point_set.hpp</text>
</a>
</g>
</g>
<!-- Node66&#45;&gt;Node67 -->
<g id="edge15" class="edge">
<title>Node66&#45;&gt;Node67</title>
<path fill="none" stroke="#191970" d="M739.7104,-440.7884C730.6438,-431.2085 719.6946,-419.6396 712.1261,-411.6427"/>
<polygon fill="#191970" stroke="#191970" points="737.3522,-443.3884 746.7681,-448.2455 742.4363,-438.5767 737.3522,-443.3884"/>
</g>
<!-- Node67&#45;&gt;Node60 -->
<g id="edge23" class="edge">
<title>Node67&#45;&gt;Node60</title>
<path fill="none" stroke="#191970" d="M659.3371,-389.5882C623.1431,-379.2996 572.4506,-364.8895 539.4236,-355.5011"/>
<polygon fill="#191970" stroke="#191970" points="658.5585,-393.0055 669.1345,-392.3733 660.4726,-386.2723 658.5585,-393.0055"/>
</g>
<!-- Node67&#45;&gt;Node64 -->
<g id="edge16" class="edge">
<title>Node67&#45;&gt;Node64</title>
<path fill="none" stroke="#191970" d="M689.7069,-384.0006C667.691,-351.9097 627.8038,-282.6723 646,-224 657.9604,-185.4347 690.1054,-148.5029 706.3386,-131.6039"/>
<polygon fill="#191970" stroke="#191970" points="686.9976,-386.2311 695.6312,-392.3722 692.7116,-382.1875 686.9976,-386.2311"/>
</g>
<!-- Node68 -->
<g id="node15" class="node">
<title>Node68</title>
<g id="a_node15"><a xlink:href="../../d0/d9a/density_8hpp.html" target="_top" xlink:title="Contains definition and partial implementation of sirius::Density class. ">
<polygon fill="#ffffff" stroke="#000000" points="798,-336.5 798,-355.5 866,-355.5 866,-336.5 798,-336.5"/>
<text text-anchor="middle" x="832" y="-343.5" font-family="Helvetica,sans-Serif" font-size="10.00" fill="#000000">density.hpp</text>
</a>
</g>
</g>
<!-- Node67&#45;&gt;Node68 -->
<g id="edge17" class="edge">
<title>Node67&#45;&gt;Node68</title>
<path fill="none" stroke="#191970" d="M734.3671,-388.3833C757.8284,-378.1985 789.3185,-364.5284 810.1135,-355.5011"/>
<polygon fill="#191970" stroke="#191970" points="732.9551,-385.1806 725.1759,-392.3733 735.7426,-391.6017 732.9551,-385.1806"/>
</g>
<!-- Node68&#45;&gt;Node69 -->
<g id="edge18" class="edge">
<title>Node68&#45;&gt;Node69</title>
<path fill="none" stroke="#191970" d="M863.1892,-332.2473C886.2537,-322.0771 917.0712,-308.4883 937.4528,-299.5011"/>
<polygon fill="#191970" stroke="#191970" points="861.5699,-329.1361 853.8321,-336.3733 864.3942,-335.5411 861.5699,-329.1361"/>
</g>
<!-- Node69&#45;&gt;Node61 -->
<g id="edge22" class="edge">
<title>Node69&#45;&gt;Node61</title>
<path fill="none" stroke="#191970" d="M955.7,-269.9179C952.5639,-255.8562 946.6797,-237.2816 936,-224 860.9133,-130.6196 715.653,-86.1084 658.2181,-71.5825"/>
<polygon fill="#191970" stroke="#191970" points="952.3234,-270.8905 957.665,-280.0403 959.1951,-269.5565 952.3234,-270.8905"/>
</g>
<!-- Node69&#45;&gt;Node63 -->
<g id="edge19" class="edge">
<title>Node69&#45;&gt;Node63</title>
<path fill="none" stroke="#191970" d="M950.2015,-271.1955C942.377,-256.3941 929.607,-236.2788 913,-224 883.747,-202.3711 843.9128,-190.6551 813.7157,-184.471"/>
<polygon fill="#191970" stroke="#191970" points="947.2153,-273.0498 954.8148,-280.4322 953.4777,-269.922 947.2153,-273.0498"/>
</g>
<!-- Node70 -->
<g id="node17" class="node">
<title>Node70</title>
<g id="a_node17"><a xlink:href="../../d3/d2c/local__operator_8hpp.html" target="_top" xlink:title="Contains declaration and implementation of sirius::Local_operator class. ">
<polygon fill="#ffffff" stroke="#000000" points="804.5,-224.5 804.5,-243.5 903.5,-243.5 903.5,-224.5 804.5,-224.5"/>
<text text-anchor="middle" x="854" y="-231.5" font-family="Helvetica,sans-Serif" font-size="10.00" fill="#000000">local_operator.hpp</text>
</a>
</g>
</g>
<!-- Node69&#45;&gt;Node70 -->
<g id="edge20" class="edge">
<title>Node69&#45;&gt;Node70</title>
<path fill="none" stroke="#191970" d="M931.7375,-275.46C912.9478,-265.4388 888.4987,-252.3993 872.08,-243.6427"/>
<polygon fill="#191970" stroke="#191970" points="930.2398,-278.6278 940.7104,-280.2455 933.5339,-272.4514 930.2398,-278.6278"/>
</g>
<!-- Node70&#45;&gt;Node63 -->
<g id="edge21" class="edge">
<title>Node70&#45;&gt;Node63</title>
<path fill="none" stroke="#191970" d="M830.7351,-218.49C815.9144,-208.6096 797.1791,-196.1194 784.464,-187.6427"/>
<polygon fill="#191970" stroke="#191970" points="829.1063,-221.6107 839.3683,-224.2455 832.9893,-215.7863 829.1063,-221.6107"/>
</g>
<!-- Node71&#45;&gt;Node65 -->
<g id="edge30" class="edge">
<title>Node71&#45;&gt;Node65</title>
<path fill="none" stroke="#191970" d="M154.4524,-444.2473C176.9722,-434.0771 207.0617,-420.4883 226.9618,-411.5011"/>
<polygon fill="#191970" stroke="#191970" points="152.9895,-441.0675 145.3164,-448.3733 155.8706,-447.4471 152.9895,-441.0675"/>
</g>
<!-- Node72 -->
<g id="node19" class="node">
<title>Node72</title>
<g id="a_node19"><a xlink:href="../../d7/dd1/stress_8hpp.html" target="_top" xlink:title="Stress tensor calculation. ">
<polygon fill="#ffffff" stroke="#000000" points="115.5,-392.5 115.5,-411.5 178.5,-411.5 178.5,-392.5 115.5,-392.5"/>
<text text-anchor="middle" x="147" y="-399.5" font-family="Helvetica,sans-Serif" font-size="10.00" fill="#000000">stress.hpp</text>
</a>
</g>
</g>
<!-- Node71&#45;&gt;Node72 -->
<g id="edge28" class="edge">
<title>Node71&#45;&gt;Node72</title>
<path fill="none" stroke="#191970" d="M131.9066,-438.7493C135.6617,-429.6064 139.9851,-419.0798 143.0396,-411.6427"/>
<polygon fill="#191970" stroke="#191970" points="128.568,-437.6656 128.0063,-448.2455 135.0431,-440.3251 128.568,-437.6656"/>
</g>
<!-- Node72&#45;&gt;Node60 -->
<g id="edge29" class="edge">
<title>Node72&#45;&gt;Node60</title>
<path fill="none" stroke="#191970" d="M188.854,-395.337C195.9119,-394.219 203.164,-393.0737 210,-392 296.4399,-378.4231 397.1148,-362.8229 455.9761,-353.7233"/>
<polygon fill="#191970" stroke="#191970" points="188.0516,-391.9205 178.7234,-396.944 189.1483,-398.834 188.0516,-391.9205"/>
</g>
<!-- Node73&#45;&gt;Node59 -->
<g id="edge33" class="edge">
<title>Node73&#45;&gt;Node59</title>
<path fill="none" stroke="#191970" d="M615.2229,-443.5971C595.8618,-433.558 570.5615,-420.4393 553.5966,-411.6427"/>
<polygon fill="#191970" stroke="#191970" points="613.6992,-446.7495 624.1878,-448.2455 616.9214,-440.5352 613.6992,-446.7495"/>
</g>
<!-- Node73&#45;&gt;Node63 -->
<g id="edge34" class="edge">
<title>Node73&#45;&gt;Node63</title>
<path fill="none" stroke="#191970" d="M643.4268,-437.9677C644.1924,-424.656 646.1463,-406.9433 651,-392 678.7095,-306.6899 741.5827,-216.6302 762.8303,-187.6045"/>
<polygon fill="#191970" stroke="#191970" points="639.9141,-438.2224 643.0169,-448.3527 646.9087,-438.4986 639.9141,-438.2224"/>
</g>
<!-- Node74&#45;&gt;Node59 -->
<g id="edge56" class="edge">
<title>Node74&#45;&gt;Node59</title>
<path fill="none" stroke="#191970" d="M516,-662.1952C516,-639.8128 516,-602.2884 516,-570 516,-570 516,-570 516,-514 516,-475.7388 526.9113,-431.1479 532.1965,-411.7934"/>
<polygon fill="#191970" stroke="#191970" points="512.5001,-662.4116 516,-672.4116 519.5001,-662.4117 512.5001,-662.4116"/>
</g>
<!-- Node75 -->
<g id="node22" class="node">
<title>Node75</title>
<g id="a_node22"><a xlink:href="../../d3/d1c/augmentation__operator_8hpp.html" target="_top" xlink:title="Contains implementation of sirius::Augmentation_operator class. ">
<polygon fill="#ffffff" stroke="#000000" points="164.5,-616.5 164.5,-635.5 303.5,-635.5 303.5,-616.5 164.5,-616.5"/>
<text text-anchor="middle" x="234" y="-623.5" font-family="Helvetica,sans-Serif" font-size="10.00" fill="#000000">augmentation_operator.hpp</text>
</a>
</g>
</g>
<!-- Node74&#45;&gt;Node75 -->
<g id="edge36" class="edge">
<title>Node74&#45;&gt;Node75</title>
<path fill="none" stroke="#191970" d="M459.3712,-670.7546C407.3698,-660.428 331.152,-645.2926 282.0521,-635.5423"/>
<polygon fill="#191970" stroke="#191970" points="458.9432,-674.2378 469.4334,-672.7527 460.3067,-667.3719 458.9432,-674.2378"/>
</g>
<!-- Node76 -->
<g id="node23" class="node">
<title>Node76</title>
<g id="a_node23"><a xlink:href="../../d5/d5b/simulation__context_8h.html" target="_top" xlink:title="Contains definition and implementation of Simulation_context class. ">
<polygon fill="#ffffff" stroke="#000000" points="544,-560.5 544,-579.5 652,-579.5 652,-560.5 544,-560.5"/>
<text text-anchor="middle" x="598" y="-567.5" font-family="Helvetica,sans-Serif" font-size="10.00" fill="#000000">simulation_context.h</text>
</a>
</g>
</g>
<!-- Node74&#45;&gt;Node76 -->
<g id="edge57" class="edge">
<title>Node74&#45;&gt;Node76</title>
<path fill="none" stroke="#191970" d="M529.024,-664.2111C546.6044,-640.1989 577.3039,-598.2679 591.0264,-579.5249"/>
<polygon fill="#191970" stroke="#191970" points="526.0747,-662.3147 522.9913,-672.4509 531.7227,-666.4499 526.0747,-662.3147"/>
</g>
<!-- Node75&#45;&gt;Node65 -->
<g id="edge38" class="edge">
<title>Node75&#45;&gt;Node65</title>
<path fill="none" stroke="#191970" d="M200.6202,-612.2819C135.8983,-583.7519 4.1582,-515.079 57,-448 67.0519,-435.2398 167.9091,-415.9981 218.8616,-406.9871"/>
<polygon fill="#191970" stroke="#191970" points="199.4563,-615.5918 210.0238,-616.3526 202.2372,-609.1679 199.4563,-615.5918"/>
</g>
<!-- Node75&#45;&gt;Node71 -->
<g id="edge37" class="edge">
<title>Node75&#45;&gt;Node71</title>
<path fill="none" stroke="#191970" d="M221.202,-608.0164C206.9223,-587.7997 183.2911,-553.8886 164,-524 151.2121,-504.1872 137.1013,-480.4217 129.5309,-467.5031"/>
<polygon fill="#191970" stroke="#191970" points="218.4185,-610.1419 227.0557,-616.2779 224.1301,-606.0949 218.4185,-610.1419"/>
</g>
<!-- Node75&#45;&gt;Node76 -->
<g id="edge39" class="edge">
<title>Node75&#45;&gt;Node76</title>
<path fill="none" stroke="#191970" d="M306.2231,-614.8887C376.1878,-604.125 480.7061,-588.0452 543.8165,-578.3359"/>
<polygon fill="#191970" stroke="#191970" points="305.5117,-611.4569 296.1602,-616.4369 306.5762,-618.3755 305.5117,-611.4569"/>
</g>
<!-- Node76&#45;&gt;Node57 -->
<g id="edge40" class="edge">
<title>Node76&#45;&gt;Node57</title>
<path fill="none" stroke="#191970" d="M561.3381,-556.9231C532.6376,-546.686 493.3956,-532.6889 467.6371,-523.5011"/>
<polygon fill="#191970" stroke="#191970" points="560.4161,-560.3102 571.0107,-560.3733 562.7678,-553.7171 560.4161,-560.3102"/>
</g>
<!-- Node76&#45;&gt;Node59 -->
<g id="edge42" class="edge">
<title>Node76&#45;&gt;Node59</title>
<path fill="none" stroke="#191970" d="M590.7725,-550.7267C577.3078,-514.8207 548.8308,-438.8822 538.6855,-411.8279"/>
<polygon fill="#191970" stroke="#191970" points="587.6439,-552.3519 594.4323,-560.4862 594.1982,-549.894 587.6439,-552.3519"/>
</g>
<!-- Node76&#45;&gt;Node63 -->
<g id="edge45" class="edge">
<title>Node76&#45;&gt;Node63</title>
<path fill="none" stroke="#191970" d="M662.1757,-567.4881C754.7079,-562.9693 920.2837,-551.2651 973,-524 1038.113,-490.3233 1084,-475.3064 1084,-402 1084,-402 1084,-402 1084,-346 1084,-224.821 899.939,-190.7188 813.6604,-181.39"/>
<polygon fill="#191970" stroke="#191970" points="661.9101,-563.9966 652.0871,-567.9664 662.2417,-570.9888 661.9101,-563.9966"/>
</g>
<!-- Node76&#45;&gt;Node65 -->
<g id="edge44" class="edge">
<title>Node76&#45;&gt;Node65</title>
<path fill="none" stroke="#191970" d="M533.969,-560.6474C443.2534,-545.9044 284.6712,-514.1136 252,-468 240.0547,-451.1399 242.93,-425.3599 245.6899,-411.539"/>
<polygon fill="#191970" stroke="#191970" points="533.4471,-564.1083 543.8747,-562.2334 534.5538,-557.1963 533.4471,-564.1083"/>
</g>
<!-- Node76&#45;&gt;Node68 -->
<g id="edge41" class="edge">
<title>Node76&#45;&gt;Node68</title>
<path fill="none" stroke="#191970" d="M647.149,-557.5429C693.0423,-543.3887 760.1303,-515.8037 799,-468 826.8235,-433.7813 831.2989,-378.0873 831.9377,-355.7357"/>
<polygon fill="#191970" stroke="#191970" points="645.9932,-554.2351 637.4085,-560.4443 647.9916,-560.9438 645.9932,-554.2351"/>
</g>
<!-- Node76&#45;&gt;Node69 -->
<g id="edge55" class="edge">
<title>Node76&#45;&gt;Node69</title>
<path fill="none" stroke="#191970" d="M662.3042,-566.1422C759.3179,-559.6661 933.8815,-545.2013 953,-524 1012.3286,-458.208 974.9641,-334.7809 962.5643,-299.5881"/>
<polygon fill="#191970" stroke="#191970" points="662.0549,-562.6509 652.3062,-566.7996 662.5143,-569.6358 662.0549,-562.6509"/>
</g>
<!-- Node76&#45;&gt;Node71 -->
<g id="edge43" class="edge">
<title>Node76&#45;&gt;Node71</title>
<path fill="none" stroke="#191970" d="M533.6548,-567.4577C435.7721,-562.7853 254.6415,-550.7481 196,-524 167.6126,-511.0516 142.8368,-482.6208 131.1459,-467.6528"/>
<polygon fill="#191970" stroke="#191970" points="533.573,-570.9576 543.7249,-567.9264 533.8985,-563.9652 533.573,-570.9576"/>
</g>
<!-- Node76&#45;&gt;Node73 -->
<g id="edge46" class="edge">
<title>Node76&#45;&gt;Node73</title>
<path fill="none" stroke="#191970" d="M605.664,-550.9253C615.3859,-526.7284 631.7751,-485.9376 639.173,-467.5249"/>
<polygon fill="#191970" stroke="#191970" points="602.3173,-549.867 601.8367,-560.4509 608.8126,-552.4768 602.3173,-549.867"/>
</g>
<!-- Node76&#45;&gt;Node77 -->
<g id="edge47" class="edge">
<title>Node76&#45;&gt;Node77</title>
<path fill="none" stroke="#191970" d="M658.4401,-558.5654C713.0314,-548.2373 792.4403,-533.214 843.6606,-523.5237"/>
<polygon fill="#191970" stroke="#191970" points="657.7229,-555.1389 648.5479,-560.4369 659.0242,-562.0169 657.7229,-555.1389"/>
</g>
<!-- Node77&#45;&gt;Node64 -->
<g id="edge48" class="edge">
<title>Node77&#45;&gt;Node64</title>
<path fill="none" stroke="#191970" d="M914.8386,-498.2716C956.4773,-464.8738 1046,-382.3326 1046,-290 1046,-290 1046,-290 1046,-234 1046,-170.776 826.0487,-136.1348 745.2853,-125.546"/>
<polygon fill="#191970" stroke="#191970" points="912.6608,-495.5316 906.9594,-504.4616 916.9852,-501.0361 912.6608,-495.5316"/>
</g>
<!-- Node77&#45;&gt;Node65 -->
<g id="edge52" class="edge">
<title>Node77&#45;&gt;Node65</title>
<path fill="none" stroke="#191970" d="M833.8053,-506.4342C769.1782,-498.064 663.5701,-483.6722 573,-468 463.2231,-449.0043 333.7179,-421.0174 277.0262,-408.4842"/>
<polygon fill="#191970" stroke="#191970" points="833.4516,-509.9175 843.8171,-507.7252 834.3469,-502.975 833.4516,-509.9175"/>
</g>
<!-- Node77&#45;&gt;Node66 -->
<g id="edge50" class="edge">
<title>Node77&#45;&gt;Node66</title>
<path fill="none" stroke="#191970" d="M860.7787,-500.5189C835.646,-490.3201 801.7582,-476.5685 779.4135,-467.5011"/>
<polygon fill="#191970" stroke="#191970" points="859.6947,-503.8562 870.277,-504.3733 862.3269,-497.3699 859.6947,-503.8562"/>
</g>
<!-- Node77&#45;&gt;Node68 -->
<g id="edge49" class="edge">
<title>Node77&#45;&gt;Node68</title>
<path fill="none" stroke="#191970" d="M886.8872,-494.7267C873.6362,-458.8207 845.6113,-382.8822 835.627,-355.8279"/>
<polygon fill="#191970" stroke="#191970" points="883.7431,-496.3165 890.489,-504.4862 890.3102,-493.8929 883.7431,-496.3165"/>
</g>
<!-- Node77&#45;&gt;Node69 -->
<g id="edge54" class="edge">
<title>Node77&#45;&gt;Node69</title>
<path fill="none" stroke="#191970" d="M899.938,-494.7418C902.4554,-486.5129 905.4018,-476.7951 908,-468 926.9431,-403.8754 948.7716,-326.4455 956.2914,-299.6636"/>
<polygon fill="#191970" stroke="#191970" points="896.5316,-493.912 896.9413,-504.4989 903.2231,-495.9672 896.5316,-493.912"/>
</g>
<!-- Node77&#45;&gt;Node70 -->
<g id="edge53" class="edge">
<title>Node77&#45;&gt;Node70</title>
<path fill="none" stroke="#191970" d="M894,-494.1952C894,-471.8128 894,-434.2884 894,-402 894,-402 894,-402 894,-346 894,-306.1507 871.265,-262.7287 860.0751,-243.7703"/>
<polygon fill="#191970" stroke="#191970" points="890.5001,-494.4116 894,-504.4116 897.5001,-494.4117 890.5001,-494.4116"/>
</g>
<!-- Node77&#45;&gt;Node71 -->
<g id="edge51" class="edge">
<title>Node77&#45;&gt;Node71</title>
<path fill="none" stroke="#191970" d="M833.7494,-509.6181C689.1207,-499.0997 323.7984,-472.5308 181.7507,-462.2"/>
<polygon fill="#191970" stroke="#191970" points="833.5476,-513.1126 843.7752,-510.3473 834.0554,-506.1311 833.5476,-513.1126"/>
</g>
<!-- Node78&#45;&gt;Node74 -->
<g id="edge59" class="edge">
<title>Node78&#45;&gt;Node74</title>
<path fill="none" stroke="#191970" d="M533.1989,-719.0437C528.9225,-709.8331 523.967,-699.1598 520.477,-691.6427"/>
<polygon fill="#191970" stroke="#191970" points="530.0854,-720.6494 537.4711,-728.2455 536.4345,-717.7015 530.0854,-720.6494"/>
</g>
</g>
</svg>
