<?xml version="1.0" encoding="UTF-8" standalone="no"?>
<!DOCTYPE svg PUBLIC "-//W3C//DTD SVG 1.1//EN"
 "http://www.w3.org/Graphics/SVG/1.1/DTD/svg11.dtd">
<!-- Generated by graphviz version 2.40.1 (20161225.0304)
 -->
<!-- Title: spheric_function.h Pages: 1 -->
<svg width="1181pt" height="1047pt"
 viewBox="0.00 0.00 1181.00 1047.00" xmlns="http://www.w3.org/2000/svg" xmlns:xlink="http://www.w3.org/1999/xlink">
<g id="graph0" class="graph" transform="scale(1 1) rotate(0) translate(4 1043)">
<title>spheric_function.h</title>
<polygon fill="#ffffff" stroke="transparent" points="-4,4 -4,-1043 1177,-1043 1177,4 -4,4"/>
<!-- Node90 -->
<g id="node1" class="node">
<title>Node90</title>
<polygon fill="#bfbfbf" stroke="#000000" points="161.5,-1019.5 161.5,-1038.5 238.5,-1038.5 238.5,-1019.5 161.5,-1019.5"/>
<text text-anchor="middle" x="200" y="-1026.5" font-family="Helvetica,sans-Serif" font-size="10.00" fill="#000000">spheric_function.h</text>
</g>
<!-- Node91 -->
<g id="node2" class="node">
<title>Node91</title>
<g id="a_node2"><a xlink:href="../../d9/d49/atom_8h.html" target="_top" xlink:title="Contains declaration and partial implementation of sirius::Atom class. ">
<polygon fill="#ffffff" stroke="#000000" points="825.5,-963.5 825.5,-982.5 864.5,-982.5 864.5,-963.5 825.5,-963.5"/>
<text text-anchor="middle" x="845" y="-970.5" font-family="Helvetica,sans-Serif" font-size="10.00" fill="#000000">atom.h</text>
</a>
</g>
</g>
<!-- Node90&#45;&gt;Node91 -->
<g id="edge1" class="edge">
<title>Node90&#45;&gt;Node91</title>
<path fill="none" stroke="#191970" d="M249.0835,-1024.7385C380.7075,-1013.3107 737.4907,-982.3341 825.2827,-974.7119"/>
<polygon fill="#191970" stroke="#191970" points="248.5549,-1021.2711 238.8951,-1025.6231 249.1604,-1028.2449 248.5549,-1021.2711"/>
</g>
<!-- Node96 -->
<g id="node7" class="node">
<title>Node96</title>
<g id="a_node7"><a xlink:href="../../d8/d65/periodic__function_8h.html" target="_top" xlink:title="Contains declaration and partial implementation of sirius::Periodic_function class. ">
<polygon fill="#ffffff" stroke="#000000" points="290.5,-560.5 290.5,-579.5 369.5,-579.5 369.5,-560.5 290.5,-560.5"/>
<text text-anchor="middle" x="330" y="-567.5" font-family="Helvetica,sans-Serif" font-size="10.00" fill="#000000">periodic_function.h</text>
</a>
</g>
</g>
<!-- Node90&#45;&gt;Node96 -->
<g id="edge75" class="edge">
<title>Node90&#45;&gt;Node96</title>
<path fill="none" stroke="#191970" d="M200,-1009.1952C200,-986.8128 200,-949.2884 200,-917 200,-917 200,-917 200,-682 200,-628.3773 264.27,-594.7904 302.4303,-579.5743"/>
<polygon fill="#191970" stroke="#191970" points="196.5001,-1009.4116 200,-1019.4116 203.5001,-1009.4117 196.5001,-1009.4116"/>
</g>
<!-- Node107 -->
<g id="node18" class="node">
<title>Node107</title>
<g id="a_node18"><a xlink:href="../../df/d86/potential_8h.html" target="_top" xlink:title="Contains declaration and partial implementation of sirius::Potential class. ">
<polygon fill="#ffffff" stroke="#000000" points="346.5,-336.5 346.5,-355.5 397.5,-355.5 397.5,-336.5 346.5,-336.5"/>
<text text-anchor="middle" x="372" y="-343.5" font-family="Helvetica,sans-Serif" font-size="10.00" fill="#000000">potential.h</text>
</a>
</g>
</g>
<!-- Node90&#45;&gt;Node107 -->
<g id="edge76" class="edge">
<title>Node90&#45;&gt;Node107</title>
<path fill="none" stroke="#191970" d="M179.7208,-1012.823C157.2071,-992.8958 124,-956.7639 124,-917 124,-917 124,-917 124,-626 124,-488.0088 294.8794,-386.1762 352.9516,-355.5534"/>
<polygon fill="#191970" stroke="#191970" points="177.5683,-1015.5872 187.4501,-1019.4082 182.1079,-1010.2588 177.5683,-1015.5872"/>
</g>
<!-- Node92 -->
<g id="node3" class="node">
<title>Node92</title>
<g id="a_node3"><a xlink:href="../../d0/d51/unit__cell_8h.html" target="_top" xlink:title="Contains definition and partial implementation of sirius::Unit_cell class. ">
<polygon fill="#ffffff" stroke="#000000" points="820,-907.5 820,-926.5 870,-926.5 870,-907.5 820,-907.5"/>
<text text-anchor="middle" x="845" y="-914.5" font-family="Helvetica,sans-Serif" font-size="10.00" fill="#000000">unit_cell.h</text>
</a>
</g>
</g>
<!-- Node91&#45;&gt;Node92 -->
<g id="edge2" class="edge">
<title>Node91&#45;&gt;Node92</title>
<path fill="none" stroke="#191970" d="M845,-953.1575C845,-944.155 845,-933.9199 845,-926.6427"/>
<polygon fill="#191970" stroke="#191970" points="841.5001,-953.2455 845,-963.2455 848.5001,-953.2456 841.5001,-953.2455"/>
</g>
<!-- Node101 -->
<g id="node12" class="node">
<title>Node101</title>
<g id="a_node12"><a xlink:href="../../dd/dc2/sirius_8h.html" target="_top" xlink:title="&quot;All&#45;in&#45;one&quot; include file. ">
<polygon fill="#ffffff" stroke="#000000" points="374,-56.5 374,-75.5 414,-75.5 414,-56.5 374,-56.5"/>
<text text-anchor="middle" x="394" y="-63.5" font-family="Helvetica,sans-Serif" font-size="10.00" fill="#000000">sirius.h</text>
</a>
</g>
</g>
<!-- Node91&#45;&gt;Node101 -->
<g id="edge74" class="edge">
<title>Node91&#45;&gt;Node101</title>
<path fill="none" stroke="#191970" d="M874.5322,-969.3627C955.1492,-958.6165 1173,-923.77 1173,-861 1173,-861 1173,-861 1173,-178 1173,-94.0423 1077.9961,-130.0424 996,-112 881.2181,-86.7435 505.5931,-70.4378 414.186,-66.7817"/>
<polygon fill="#191970" stroke="#191970" points="873.9998,-965.9024 864.5356,-970.6648 874.9039,-972.8438 873.9998,-965.9024"/>
</g>
<!-- Node93 -->
<g id="node4" class="node">
<title>Node93</title>
<g id="a_node4"><a xlink:href="../../de/d58/radial__integrals_8h.html" target="_top" xlink:title="Representation of various radial integrals. ">
<polygon fill="#ffffff" stroke="#000000" points="766,-795.5 766,-814.5 840,-814.5 840,-795.5 766,-795.5"/>
<text text-anchor="middle" x="803" y="-802.5" font-family="Helvetica,sans-Serif" font-size="10.00" fill="#000000">radial_integrals.h</text>
</a>
</g>
</g>
<!-- Node92&#45;&gt;Node93 -->
<g id="edge3" class="edge">
<title>Node92&#45;&gt;Node93</title>
<path fill="none" stroke="#191970" d="M840.3861,-897.4852C836.9978,-884.1803 831.9589,-866.2738 826,-851 820.9375,-838.0237 813.5041,-823.7807 808.4693,-814.6334"/>
<polygon fill="#191970" stroke="#191970" points="837.0422,-898.5445 842.8278,-907.4201 843.8399,-896.8737 837.0422,-898.5445"/>
</g>
<!-- Node92&#45;&gt;Node101 -->
<g id="edge73" class="edge">
<title>Node92&#45;&gt;Node101</title>
<path fill="none" stroke="#191970" d="M809.4357,-914.8614C648.9487,-903.1303 0,-832.5382 0,-458 0,-458 0,-458 0,-178 0,-136.8295 28.2189,-130.4976 65,-112 119.8738,-84.4033 311.193,-70.8845 373.9161,-67.1217"/>
<polygon fill="#191970" stroke="#191970" points="809.491,-918.3737 819.7108,-915.5798 809.9793,-911.3908 809.491,-918.3737"/>
</g>
<!-- Node112 -->
<g id="node23" class="node">
<title>Node112</title>
<g id="a_node23"><a xlink:href="../../d2/d5f/beta__projectors_8h.html" target="_top" xlink:title="Contains declaration and implementation of sirius::Beta_projectors class. ">
<polygon fill="#ffffff" stroke="#000000" points="768,-560.5 768,-579.5 842,-579.5 842,-560.5 768,-560.5"/>
<text text-anchor="middle" x="805" y="-567.5" font-family="Helvetica,sans-Serif" font-size="10.00" fill="#000000">beta_projectors.h</text>
</a>
</g>
</g>
<!-- Node92&#45;&gt;Node112 -->
<g id="edge70" class="edge">
<title>Node92&#45;&gt;Node112</title>
<path fill="none" stroke="#191970" d="M880.1016,-909.1441C949.3705,-892.6212 1097,-851.9048 1097,-805 1097,-805 1097,-805 1097,-682 1097,-628.0437 920.9982,-590.3597 842.2786,-576.2033"/>
<polygon fill="#191970" stroke="#191970" points="879.0199,-905.8028 870.084,-911.4949 880.6192,-912.6176 879.0199,-905.8028"/>
</g>
<!-- Node117 -->
<g id="node28" class="node">
<title>Node117</title>
<g id="a_node28"><a xlink:href="../../d0/d05/sbessel_8h.html" target="_top" xlink:title="Contains implementation of sirius::Spherical_Bessel_functions and sirius::sbessel_approx classes...">
<polygon fill="#ffffff" stroke="#000000" points="769,-851.5 769,-870.5 817,-870.5 817,-851.5 769,-851.5"/>
<text text-anchor="middle" x="793" y="-858.5" font-family="Helvetica,sans-Serif" font-size="10.00" fill="#000000">sbessel.h</text>
</a>
</g>
</g>
<!-- Node92&#45;&gt;Node117 -->
<g id="edge68" class="edge">
<title>Node92&#45;&gt;Node117</title>
<path fill="none" stroke="#191970" d="M829.0178,-899.7884C820.1222,-890.2085 809.3796,-878.6396 801.9539,-870.6427"/>
<polygon fill="#191970" stroke="#191970" points="826.573,-902.2992 835.9423,-907.2455 831.7025,-897.536 826.573,-902.2992"/>
</g>
<!-- Node118 -->
<g id="node29" class="node">
<title>Node118</title>
<g id="a_node29"><a xlink:href="../../d7/db5/real__space__prj_8h_source.html" target="_top" xlink:title="real_space_prj.h">
<polygon fill="#ffffff" stroke="#000000" points="873,-851.5 873,-870.5 945,-870.5 945,-851.5 873,-851.5"/>
<text text-anchor="middle" x="909" y="-858.5" font-family="Helvetica,sans-Serif" font-size="10.00" fill="#000000">real_space_prj.h</text>
</a>
</g>
</g>
<!-- Node92&#45;&gt;Node118 -->
<g id="edge71" class="edge">
<title>Node92&#45;&gt;Node118</title>
<path fill="none" stroke="#191970" d="M863.6914,-900.645C874.8219,-890.9058 888.5663,-878.8795 897.9798,-870.6427"/>
<polygon fill="#191970" stroke="#191970" points="861.369,-898.0264 856.1479,-907.2455 865.9785,-903.2945 861.369,-898.0264"/>
</g>
<!-- Node94 -->
<g id="node5" class="node">
<title>Node94</title>
<g id="a_node5"><a xlink:href="../../da/d12/augmentation__operator_8h.html" target="_top" xlink:title="Contains implementation of sirius::Augmentation_operator class. ">
<polygon fill="#ffffff" stroke="#000000" points="915,-672.5 915,-691.5 1015,-691.5 1015,-672.5 915,-672.5"/>
<text text-anchor="middle" x="965" y="-679.5" font-family="Helvetica,sans-Serif" font-size="10.00" fill="#000000">augmentation_operator.h</text>
</a>
</g>
</g>
<!-- Node93&#45;&gt;Node94 -->
<g id="edge4" class="edge">
<title>Node93&#45;&gt;Node94</title>
<path fill="none" stroke="#191970" d="M824.0393,-789.0257C858.1762,-763.107 924.6027,-712.672 952.3472,-691.6068"/>
<polygon fill="#191970" stroke="#191970" points="821.5599,-786.5137 815.7119,-795.3484 825.7928,-792.0888 821.5599,-786.5137"/>
</g>
<!-- Node115 -->
<g id="node26" class="node">
<title>Node115</title>
<g id="a_node26"><a xlink:href="../../de/df0/simulation__context__base_8h.html" target="_top" xlink:title="Contains definition and implementation of Simulation_context_base class. ">
<polygon fill="#ffffff" stroke="#000000" points="645.5,-728.5 645.5,-758.5 724.5,-758.5 724.5,-728.5 645.5,-728.5"/>
<text text-anchor="start" x="653.5" y="-746.5" font-family="Helvetica,sans-Serif" font-size="10.00" fill="#000000">simulation_context</text>
<text text-anchor="middle" x="685" y="-735.5" font-family="Helvetica,sans-Serif" font-size="10.00" fill="#000000">_base.h</text>
</a>
</g>
</g>
<!-- Node93&#45;&gt;Node115 -->
<g id="edge63" class="edge">
<title>Node93&#45;&gt;Node115</title>
<path fill="none" stroke="#191970" d="M775.4808,-790.6574C756.9807,-781.0154 732.6409,-768.3298 713.866,-758.5446"/>
<polygon fill="#191970" stroke="#191970" points="774.077,-793.8725 784.5625,-795.3906 777.3123,-787.665 774.077,-793.8725"/>
</g>
<!-- Node95 -->
<g id="node6" class="node">
<title>Node95</title>
<g id="a_node6"><a xlink:href="../../d5/d5b/simulation__context_8h.html" target="_top" xlink:title="Contains definition and implementation of Simulation_parameters and Simulation_context classes...">
<polygon fill="#ffffff" stroke="#000000" points="611.5,-616.5 611.5,-635.5 696.5,-635.5 696.5,-616.5 611.5,-616.5"/>
<text text-anchor="middle" x="654" y="-623.5" font-family="Helvetica,sans-Serif" font-size="10.00" fill="#000000">simulation_context.h</text>
</a>
</g>
</g>
<!-- Node94&#45;&gt;Node95 -->
<g id="edge5" class="edge">
<title>Node94&#45;&gt;Node95</title>
<path fill="none" stroke="#191970" d="M904.7919,-671.1587C843.6925,-660.1569 750.6491,-643.4031 696.7334,-633.6948"/>
<polygon fill="#191970" stroke="#191970" points="904.2248,-674.6128 914.6868,-672.9404 905.4654,-667.7236 904.2248,-674.6128"/>
</g>
<!-- Node109 -->
<g id="node20" class="node">
<title>Node109</title>
<g id="a_node20"><a xlink:href="../../d8/dab/forces_8h_source.html" target="_top" xlink:title="forces.h">
<polygon fill="#ffffff" stroke="#000000" points="812.5,-224.5 812.5,-243.5 855.5,-243.5 855.5,-224.5 812.5,-224.5"/>
<text text-anchor="middle" x="834" y="-231.5" font-family="Helvetica,sans-Serif" font-size="10.00" fill="#000000">forces.h</text>
</a>
</g>
</g>
<!-- Node94&#45;&gt;Node109 -->
<g id="edge61" class="edge">
<title>Node94&#45;&gt;Node109</title>
<path fill="none" stroke="#191970" d="M1021.1355,-669.7397C1070.6527,-655.2301 1135,-625.6659 1135,-570 1135,-570 1135,-570 1135,-458 1135,-318.6018 924.6638,-255.7307 855.6472,-238.8532"/>
<polygon fill="#191970" stroke="#191970" points="1020.143,-666.3829 1011.4532,-672.4442 1022.0262,-673.1248 1020.143,-666.3829"/>
</g>
<!-- Node110 -->
<g id="node21" class="node">
<title>Node110</title>
<g id="a_node21"><a xlink:href="../../d6/d9f/non__local__functor_8h_source.html" target="_top" xlink:title="non_local_functor.h">
<polygon fill="#ffffff" stroke="#000000" points="686,-280.5 686,-299.5 768,-299.5 768,-280.5 686,-280.5"/>
<text text-anchor="middle" x="727" y="-287.5" font-family="Helvetica,sans-Serif" font-size="10.00" fill="#000000">non_local_functor.h</text>
</a>
</g>
</g>
<!-- Node94&#45;&gt;Node110 -->
<g id="edge62" class="edge">
<title>Node94&#45;&gt;Node110</title>
<path fill="none" stroke="#191970" d="M970.807,-662.5035C982.1704,-620.3865 1003.0779,-518.9835 965,-448 920.4553,-364.9614 810.9312,-318.1502 757.4186,-299.5324"/>
<polygon fill="#191970" stroke="#191970" points="967.3871,-661.7354 968.0381,-672.3102 974.1237,-663.6375 967.3871,-661.7354"/>
</g>
<!-- Node95&#45;&gt;Node96 -->
<g id="edge6" class="edge">
<title>Node95&#45;&gt;Node96</title>
<path fill="none" stroke="#191970" d="M601.3078,-617.2528C546.8593,-608.1601 459.4289,-593.4089 384,-580 379.3064,-579.1656 374.3863,-578.2757 369.5072,-577.3838"/>
<polygon fill="#191970" stroke="#191970" points="600.9726,-620.7452 611.4122,-618.9385 602.1245,-613.8406 600.9726,-620.7452"/>
</g>
<!-- Node106 -->
<g id="node17" class="node">
<title>Node106</title>
<g id="a_node17"><a xlink:href="../../d2/dcb/density_8h.html" target="_top" xlink:title="Contains definition and partial implementation of sirius::Density class. ">
<polygon fill="#ffffff" stroke="#000000" points="544.5,-392.5 544.5,-411.5 591.5,-411.5 591.5,-392.5 544.5,-392.5"/>
<text text-anchor="middle" x="568" y="-399.5" font-family="Helvetica,sans-Serif" font-size="10.00" fill="#000000">density.h</text>
</a>
</g>
</g>
<!-- Node95&#45;&gt;Node106 -->
<g id="edge57" class="edge">
<title>Node95&#45;&gt;Node106</title>
<path fill="none" stroke="#191970" d="M642.277,-607.5968C630.0166,-587.6654 610.9305,-554.607 599,-524 583.2851,-483.6843 573.3348,-432.7509 569.6327,-411.7411"/>
<polygon fill="#191970" stroke="#191970" points="639.4205,-609.6305 647.6861,-616.2586 645.3579,-605.9227 639.4205,-609.6305"/>
</g>
<!-- Node95&#45;&gt;Node107 -->
<g id="edge56" class="edge">
<title>Node95&#45;&gt;Node107</title>
<path fill="none" stroke="#191970" d="M625.9249,-611.643C580.62,-587.3189 490.7424,-534.1391 434,-468 403.0598,-431.936 382.6219,-377.7591 375.1608,-355.7824"/>
<polygon fill="#191970" stroke="#191970" points="624.4127,-614.8026 634.8879,-616.3898 627.6888,-608.6165 624.4127,-614.8026"/>
</g>
<!-- Node95&#45;&gt;Node109 -->
<g id="edge59" class="edge">
<title>Node95&#45;&gt;Node109</title>
<path fill="none" stroke="#191970" d="M706.5574,-620.0951C747.4896,-614.0183 804.9054,-602.1874 851,-580 914.9995,-549.1942 939.7748,-534.3975 965,-468 996.149,-386.0099 969.1094,-339.855 905,-280 889.0039,-265.0655 867.5763,-251.9327 852.4586,-243.5635"/>
<polygon fill="#191970" stroke="#191970" points="705.9321,-616.6487 696.523,-621.5189 706.9155,-623.5793 705.9321,-616.6487"/>
</g>
<!-- Node95&#45;&gt;Node110 -->
<g id="edge60" class="edge">
<title>Node95&#45;&gt;Node110</title>
<path fill="none" stroke="#191970" d="M660.7439,-606.7793C673.4888,-569.6435 701.0783,-485.2314 715,-412 722.8701,-370.6016 725.7446,-320.2602 726.6431,-299.5744"/>
<polygon fill="#191970" stroke="#191970" points="657.3986,-605.7436 657.431,-616.3384 664.0127,-608.0359 657.3986,-605.7436"/>
</g>
<!-- Node95&#45;&gt;Node112 -->
<g id="edge48" class="edge">
<title>Node95&#45;&gt;Node112</title>
<path fill="none" stroke="#191970" d="M689.623,-612.7888C717.1938,-602.5639 754.7149,-588.6488 779.3809,-579.5011"/>
<polygon fill="#191970" stroke="#191970" points="688.1168,-609.6144 679.9578,-616.3733 690.5509,-616.1776 688.1168,-609.6144"/>
</g>
<!-- Node113 -->
<g id="node24" class="node">
<title>Node113</title>
<g id="a_node24"><a xlink:href="../../df/dae/non__local__operator_8h.html" target="_top" xlink:title="Contains declaration and implementation of sirius::Non_local_operator class. ">
<polygon fill="#ffffff" stroke="#000000" points="218.5,-504.5 218.5,-523.5 305.5,-523.5 305.5,-504.5 218.5,-504.5"/>
<text text-anchor="middle" x="262" y="-511.5" font-family="Helvetica,sans-Serif" font-size="10.00" fill="#000000">non_local_operator.h</text>
</a>
</g>
</g>
<!-- Node95&#45;&gt;Node113 -->
<g id="edge58" class="edge">
<title>Node95&#45;&gt;Node113</title>
<path fill="none" stroke="#191970" d="M601.2886,-622.6995C504.2249,-616.1609 304.9105,-600.4109 281,-580 264.4947,-565.9105 261.8547,-538.496 261.7075,-523.8243"/>
<polygon fill="#191970" stroke="#191970" points="601.2678,-626.2058 611.4781,-623.3774 601.7325,-619.2212 601.2678,-626.2058"/>
</g>
<!-- Node97 -->
<g id="node8" class="node">
<title>Node97</title>
<g id="a_node8"><a xlink:href="../../d9/dc2/band_8h.html" target="_top" xlink:title="Contains declaration and partial implementation of sirius::Band class. ">
<polygon fill="#ffffff" stroke="#000000" points="215.5,-224.5 215.5,-243.5 254.5,-243.5 254.5,-224.5 215.5,-224.5"/>
<text text-anchor="middle" x="235" y="-231.5" font-family="Helvetica,sans-Serif" font-size="10.00" fill="#000000">band.h</text>
</a>
</g>
</g>
<!-- Node96&#45;&gt;Node97 -->
<g id="edge7" class="edge">
<title>Node96&#45;&gt;Node97</title>
<path fill="none" stroke="#191970" d="M280.1104,-565.8315C216.3159,-557.4575 114,-532.4257 114,-458 114,-458 114,-458 114,-346 114,-291.4698 181.0032,-256.0764 215.29,-241.5347"/>
<polygon fill="#191970" stroke="#191970" points="280.0328,-569.3478 290.3823,-567.0808 280.878,-562.399 280.0328,-569.3478"/>
</g>
<!-- Node96&#45;&gt;Node101 -->
<g id="edge47" class="edge">
<title>Node96&#45;&gt;Node101</title>
<path fill="none" stroke="#191970" d="M280.1581,-562.4418C229.1138,-554.029 153.8346,-539.556 129,-524 97.1177,-504.0293 76,-495.6206 76,-458 76,-458 76,-458 76,-178 76,-114.6386 303.438,-78.3431 373.6239,-68.651"/>
<polygon fill="#191970" stroke="#191970" points="279.9071,-565.9467 290.3385,-564.0926 281.0277,-559.037 279.9071,-565.9467"/>
</g>
<!-- Node104 -->
<g id="node15" class="node">
<title>Node104</title>
<g id="a_node15"><a xlink:href="../../d9/d02/k__point_8h.html" target="_top" xlink:title="Contains definition and partial implementation of sirius::K_point class. ">
<polygon fill="#ffffff" stroke="#000000" points="608.5,-504.5 608.5,-523.5 655.5,-523.5 655.5,-504.5 608.5,-504.5"/>
<text text-anchor="middle" x="632" y="-511.5" font-family="Helvetica,sans-Serif" font-size="10.00" fill="#000000">k_point.h</text>
</a>
</g>
</g>
<!-- Node96&#45;&gt;Node104 -->
<g id="edge16" class="edge">
<title>Node96&#45;&gt;Node104</title>
<path fill="none" stroke="#191970" d="M379.9451,-560.7387C445.8551,-548.5169 559.2447,-527.491 608.2721,-518.3999"/>
<polygon fill="#191970" stroke="#191970" points="378.986,-557.3568 369.7918,-562.6214 380.2623,-564.2394 378.986,-557.3568"/>
</g>
<!-- Node96&#45;&gt;Node106 -->
<g id="edge43" class="edge">
<title>Node96&#45;&gt;Node106</title>
<path fill="none" stroke="#191970" d="M351.6686,-554.7045C399.8739,-520.6772 514.8436,-439.5222 554.375,-411.6177"/>
<polygon fill="#191970" stroke="#191970" points="349.6291,-551.86 343.4778,-560.4862 353.6659,-557.5788 349.6291,-551.86"/>
</g>
<!-- Node96&#45;&gt;Node107 -->
<g id="edge42" class="edge">
<title>Node96&#45;&gt;Node107</title>
<path fill="none" stroke="#191970" d="M332.2106,-550.1057C336.091,-517.024 344.9724,-448.7289 358,-392 360.9147,-379.3078 365.4759,-365.0027 368.5945,-355.7635"/>
<polygon fill="#191970" stroke="#191970" points="328.7081,-549.9286 331.048,-560.2618 335.6626,-550.7248 328.7081,-549.9286"/>
</g>
<!-- Node108 -->
<g id="node19" class="node">
<title>Node108</title>
<g id="a_node19"><a xlink:href="../../dd/d3f/local__operator_8h.html" target="_top" xlink:title="Contains declaration and implementation of sirius::Local_operator class. ">
<polygon fill="#ffffff" stroke="#000000" points="218,-280.5 218,-299.5 288,-299.5 288,-280.5 218,-280.5"/>
<text text-anchor="middle" x="253" y="-287.5" font-family="Helvetica,sans-Serif" font-size="10.00" fill="#000000">local_operator.h</text>
</a>
</g>
</g>
<!-- Node96&#45;&gt;Node108 -->
<g id="edge44" class="edge">
<title>Node96&#45;&gt;Node108</title>
<path fill="none" stroke="#191970" d="M281.5436,-557.6391C251.7848,-548.958 217.7408,-536.674 209,-524 158.3081,-450.4973 224.483,-334.4425 246.4003,-299.9699"/>
<polygon fill="#191970" stroke="#191970" points="280.8533,-561.0812 291.4287,-560.4404 282.7618,-554.3464 280.8533,-561.0812"/>
</g>
<!-- Node96&#45;&gt;Node109 -->
<g id="edge45" class="edge">
<title>Node96&#45;&gt;Node109</title>
<path fill="none" stroke="#191970" d="M379.761,-568.3555C461.1713,-564.8185 618.3496,-554.1885 664,-524 772.5539,-452.2134 820.9833,-285.4393 831.6652,-243.6357"/>
<polygon fill="#191970" stroke="#191970" points="379.5918,-564.8594 369.7457,-568.7714 379.8823,-571.8534 379.5918,-564.8594"/>
</g>
<!-- Node96&#45;&gt;Node110 -->
<g id="edge46" class="edge">
<title>Node96&#45;&gt;Node110</title>
<path fill="none" stroke="#191970" d="M379.1862,-558.0005C468.4443,-535.8345 649.8682,-488.8348 671,-468 695.9145,-443.4356 718.653,-333.6029 725.1505,-299.8799"/>
<polygon fill="#191970" stroke="#191970" points="378.1575,-554.6495 369.2914,-560.4498 379.8395,-561.4444 378.1575,-554.6495"/>
</g>
<!-- Node98 -->
<g id="node9" class="node">
<title>Node98</title>
<g id="a_node9"><a xlink:href="../../d2/d15/add__nl__h__o__rs_8cpp_source.html" target="_top" xlink:title="add_nl_h_o_rs.cpp">
<polygon fill="#ffffff" stroke="#000000" points="246,-168.5 246,-187.5 326,-187.5 326,-168.5 246,-168.5"/>
<text text-anchor="middle" x="286" y="-175.5" font-family="Helvetica,sans-Serif" font-size="10.00" fill="#000000">add_nl_h_o_rs.cpp</text>
</a>
</g>
</g>
<!-- Node97&#45;&gt;Node98 -->
<g id="edge8" class="edge">
<title>Node97&#45;&gt;Node98</title>
<path fill="none" stroke="#191970" d="M250.6749,-216.7884C259.3994,-207.2085 269.9354,-195.6396 277.2183,-187.6427"/>
<polygon fill="#191970" stroke="#191970" points="248.0291,-214.4954 243.8835,-224.2455 253.2046,-219.2088 248.0291,-214.4954"/>
</g>
<!-- Node99 -->
<g id="node10" class="node">
<title>Node99</title>
<g id="a_node10"><a xlink:href="../../dd/d0d/force_8h.html" target="_top" xlink:title="Contains definition of sirius::Force class. ">
<polygon fill="#ffffff" stroke="#000000" points="410.5,-168.5 410.5,-187.5 449.5,-187.5 449.5,-168.5 410.5,-168.5"/>
<text text-anchor="middle" x="430" y="-175.5" font-family="Helvetica,sans-Serif" font-size="10.00" fill="#000000">force.h</text>
</a>
</g>
</g>
<!-- Node97&#45;&gt;Node99 -->
<g id="edge9" class="edge">
<title>Node97&#45;&gt;Node99</title>
<path fill="none" stroke="#191970" d="M264.5641,-225.5098C304.925,-213.919 376.1658,-193.4601 410.4668,-183.6095"/>
<polygon fill="#191970" stroke="#191970" points="263.4162,-222.1979 254.7708,-228.3222 265.3484,-228.926 263.4162,-222.1979"/>
</g>
<!-- Node97&#45;&gt;Node101 -->
<g id="edge15" class="edge">
<title>Node97&#45;&gt;Node101</title>
<path fill="none" stroke="#191970" d="M231.0295,-214.3769C229.2713,-200.5341 229.1052,-182.0326 237,-168 267.2022,-114.3172 338.7187,-84.2195 373.8357,-72.2053"/>
<polygon fill="#191970" stroke="#191970" points="227.5854,-215.0034 232.6574,-224.3053 234.4932,-213.8708 227.5854,-215.0034"/>
</g>
<!-- Node100 -->
<g id="node11" class="node">
<title>Node100</title>
<g id="a_node11"><a xlink:href="../../d6/df1/dft__ground__state_8h.html" target="_top" xlink:title="Contains definition and partial implementation of sirius::DFT_ground_state class. ...">
<polygon fill="#ffffff" stroke="#000000" points="542.5,-112.5 542.5,-131.5 621.5,-131.5 621.5,-112.5 542.5,-112.5"/>
<text text-anchor="middle" x="582" y="-119.5" font-family="Helvetica,sans-Serif" font-size="10.00" fill="#000000">dft_ground_state.h</text>
</a>
</g>
</g>
<!-- Node99&#45;&gt;Node100 -->
<g id="edge10" class="edge">
<title>Node99&#45;&gt;Node100</title>
<path fill="none" stroke="#191970" d="M459.2172,-167.2358C487.2863,-156.8945 529.2896,-141.4196 556.1662,-131.5177"/>
<polygon fill="#191970" stroke="#191970" points="457.7336,-164.0523 449.5602,-170.7936 460.1536,-170.6207 457.7336,-164.0523"/>
</g>
<!-- Node99&#45;&gt;Node101 -->
<g id="edge14" class="edge">
<title>Node99&#45;&gt;Node101</title>
<path fill="none" stroke="#191970" d="M422.5423,-158.7931C419.45,-150.5874 415.9124,-140.8731 413,-132 406.5298,-112.2875 400.0775,-88.8813 396.6078,-75.9092"/>
<polygon fill="#191970" stroke="#191970" points="419.2998,-160.1129 426.1407,-168.2032 425.8381,-157.6127 419.2998,-160.1129"/>
</g>
<!-- Node103 -->
<g id="node14" class="node">
<title>Node103</title>
<g id="a_node14"><a xlink:href="../../df/d4d/force_8cpp.html" target="_top" xlink:title="Contains implementation of sirius::Force class. ">
<polygon fill="#ffffff" stroke="#000000" points="422.5,-112.5 422.5,-131.5 469.5,-131.5 469.5,-112.5 422.5,-112.5"/>
<text text-anchor="middle" x="446" y="-119.5" font-family="Helvetica,sans-Serif" font-size="10.00" fill="#000000">force.cpp</text>
</a>
</g>
</g>
<!-- Node99&#45;&gt;Node103 -->
<g id="edge13" class="edge">
<title>Node99&#45;&gt;Node103</title>
<path fill="none" stroke="#191970" d="M435.5846,-158.4538C438.177,-149.3803 441.1429,-138.9998 443.245,-131.6427"/>
<polygon fill="#191970" stroke="#191970" points="432.1689,-157.6688 432.787,-168.2455 438.8996,-159.5919 432.1689,-157.6688"/>
</g>
<!-- Node100&#45;&gt;Node101 -->
<g id="edge11" class="edge">
<title>Node100&#45;&gt;Node101</title>
<path fill="none" stroke="#191970" d="M539.8674,-109.4499C500.6472,-97.7672 443.8901,-80.8609 414.056,-71.9741"/>
<polygon fill="#191970" stroke="#191970" points="539.0986,-112.8728 549.6816,-112.3733 541.097,-106.1641 539.0986,-112.8728"/>
</g>
<!-- Node102 -->
<g id="node13" class="node">
<title>Node102</title>
<g id="a_node13"><a xlink:href="../../d4/d53/sirius__api_8cpp.html" target="_top" xlink:title="Fortran API. ">
<polygon fill="#ffffff" stroke="#000000" points="363,-.5 363,-19.5 425,-19.5 425,-.5 363,-.5"/>
<text text-anchor="middle" x="394" y="-7.5" font-family="Helvetica,sans-Serif" font-size="10.00" fill="#000000">sirius_api.cpp</text>
</a>
</g>
</g>
<!-- Node101&#45;&gt;Node102 -->
<g id="edge12" class="edge">
<title>Node101&#45;&gt;Node102</title>
<path fill="none" stroke="#191970" d="M394,-46.1575C394,-37.155 394,-26.9199 394,-19.6427"/>
<polygon fill="#191970" stroke="#191970" points="390.5001,-46.2455 394,-56.2455 397.5001,-46.2456 390.5001,-46.2455"/>
</g>
<!-- Node104&#45;&gt;Node99 -->
<g id="edge40" class="edge">
<title>Node104&#45;&gt;Node99</title>
<path fill="none" stroke="#191970" d="M613.454,-497.6283C592.5743,-478.5347 558.5028,-445.3187 535,-412 486.7656,-343.6208 481.1407,-321.6693 450,-244 442.1581,-224.4412 435.6457,-200.5805 432.3412,-187.5775"/>
<polygon fill="#191970" stroke="#191970" points="611.2471,-500.3513 621.016,-504.4526 615.9369,-495.1545 611.2471,-500.3513"/>
</g>
<!-- Node104&#45;&gt;Node101 -->
<g id="edge41" class="edge">
<title>Node104&#45;&gt;Node101</title>
<path fill="none" stroke="#191970" d="M665.7565,-512.4168C737.2267,-508.5372 901.11,-496.6951 948,-468 1056.7618,-401.4415 1114,-361.5114 1114,-234 1114,-234 1114,-234 1114,-178 1114,-105.1025 530.2936,-72.6787 414.0084,-66.9425"/>
<polygon fill="#191970" stroke="#191970" points="665.3123,-508.9351 655.5087,-512.9525 665.6778,-515.9256 665.3123,-508.9351"/>
</g>
<!-- Node105 -->
<g id="node16" class="node">
<title>Node105</title>
<g id="a_node16"><a xlink:href="../../d8/def/k__point__set_8h.html" target="_top" xlink:title="Contains declaration and partial implementation of sirius::K_point_set class. ">
<polygon fill="#ffffff" stroke="#000000" points="601.5,-448.5 601.5,-467.5 662.5,-467.5 662.5,-448.5 601.5,-448.5"/>
<text text-anchor="middle" x="632" y="-455.5" font-family="Helvetica,sans-Serif" font-size="10.00" fill="#000000">k_point_set.h</text>
</a>
</g>
</g>
<!-- Node104&#45;&gt;Node105 -->
<g id="edge17" class="edge">
<title>Node104&#45;&gt;Node105</title>
<path fill="none" stroke="#191970" d="M632,-494.1575C632,-485.155 632,-474.9199 632,-467.6427"/>
<polygon fill="#191970" stroke="#191970" points="628.5001,-494.2455 632,-504.2455 635.5001,-494.2456 628.5001,-494.2455"/>
</g>
<!-- Node105&#45;&gt;Node97 -->
<g id="edge18" class="edge">
<title>Node105&#45;&gt;Node97</title>
<path fill="none" stroke="#191970" d="M591.5017,-449.2282C494.3119,-427.2483 252.6693,-366.7711 209,-300 197.0014,-281.6539 214.2583,-256.912 225.8881,-243.5381"/>
<polygon fill="#191970" stroke="#191970" points="590.7388,-452.644 601.2622,-451.4157 592.2697,-445.8134 590.7388,-452.644"/>
</g>
<!-- Node105&#45;&gt;Node100 -->
<g id="edge38" class="edge">
<title>Node105&#45;&gt;Node100</title>
<path fill="none" stroke="#191970" d="M630.7306,-438.3369C627.4365,-391.2357 617.3442,-268.3998 596,-168 593.292,-155.2621 588.6857,-140.967 585.5001,-131.7426"/>
<polygon fill="#191970" stroke="#191970" points="627.2434,-438.6466 631.4092,-448.3881 634.2275,-438.175 627.2434,-438.6466"/>
</g>
<!-- Node105&#45;&gt;Node101 -->
<g id="edge39" class="edge">
<title>Node105&#45;&gt;Node101</title>
<path fill="none" stroke="#191970" d="M672.5213,-450.2471C775.2905,-429.4327 1038,-368.5432 1038,-290 1038,-290 1038,-290 1038,-178 1038,-113.1015 523.8047,-74.7584 414.3373,-67.3309"/>
<polygon fill="#191970" stroke="#191970" points="671.635,-446.855 662.516,-452.2489 673.0083,-453.719 671.635,-446.855"/>
</g>
<!-- Node105&#45;&gt;Node106 -->
<g id="edge19" class="edge">
<title>Node105&#45;&gt;Node106</title>
<path fill="none" stroke="#191970" d="M613.3086,-441.645C602.1781,-431.9058 588.4337,-419.8795 579.0202,-411.6427"/>
<polygon fill="#191970" stroke="#191970" points="611.0215,-444.2945 620.8521,-448.2455 615.631,-439.0264 611.0215,-444.2945"/>
</g>
<!-- Node106&#45;&gt;Node99 -->
<g id="edge34" class="edge">
<title>Node106&#45;&gt;Node99</title>
<path fill="none" stroke="#191970" d="M552.3404,-384.5575C545.1628,-376.1938 536.7669,-365.8667 530,-356 488.1002,-294.9063 447.963,-214.9267 434.6374,-187.6185"/>
<polygon fill="#191970" stroke="#191970" points="549.7877,-386.9552 559.0065,-392.1769 555.0561,-382.346 549.7877,-386.9552"/>
</g>
<!-- Node106&#45;&gt;Node100 -->
<g id="edge33" class="edge">
<title>Node106&#45;&gt;Node100</title>
<path fill="none" stroke="#191970" d="M571.9134,-382.5942C576.0554,-360.3331 582,-322.689 582,-290 582,-290 582,-290 582,-234 582,-196.0833 582,-150.9462 582,-131.5884"/>
<polygon fill="#191970" stroke="#191970" points="568.4676,-381.9793 570.0059,-392.4619 575.3403,-383.308 568.4676,-381.9793"/>
</g>
<!-- Node106&#45;&gt;Node101 -->
<g id="edge37" class="edge">
<title>Node106&#45;&gt;Node101</title>
<path fill="none" stroke="#191970" d="M566.8532,-382.0405C562.9708,-331.337 546.4109,-195.6778 478,-112 461.3723,-91.6615 433.2721,-78.906 414.1946,-72.1206"/>
<polygon fill="#191970" stroke="#191970" points="563.3788,-382.538 567.5482,-392.278 570.3627,-382.0639 563.3788,-382.538"/>
</g>
<!-- Node106&#45;&gt;Node107 -->
<g id="edge20" class="edge">
<title>Node106&#45;&gt;Node107</title>
<path fill="none" stroke="#191970" d="M534.5798,-392.4514C495.7932,-381.3695 432.6808,-363.3374 397.589,-353.3111"/>
<polygon fill="#191970" stroke="#191970" points="533.781,-395.8631 544.3578,-395.2451 535.7041,-389.1325 533.781,-395.8631"/>
</g>
<!-- Node106&#45;&gt;Node109 -->
<g id="edge35" class="edge">
<title>Node106&#45;&gt;Node109</title>
<path fill="none" stroke="#191970" d="M601.1518,-390.6156C644.4249,-374.7322 721.2064,-342.9661 777,-300 798.5917,-283.3725 818,-257.498 827.6207,-243.6005"/>
<polygon fill="#191970" stroke="#191970" points="599.8931,-387.3489 591.6753,-394.036 602.2696,-393.9331 599.8931,-387.3489"/>
</g>
<!-- Node106&#45;&gt;Node110 -->
<g id="edge36" class="edge">
<title>Node106&#45;&gt;Node110</title>
<path fill="none" stroke="#191970" d="M589.7471,-386.6813C623.106,-363.1832 685.9319,-318.9284 713.4781,-299.5249"/>
<polygon fill="#191970" stroke="#191970" points="587.7161,-383.8308 581.5563,-392.4509 591.7472,-389.5535 587.7161,-383.8308"/>
</g>
<!-- Node107&#45;&gt;Node97 -->
<g id="edge21" class="edge">
<title>Node107&#45;&gt;Node97</title>
<path fill="none" stroke="#191970" d="M354.0266,-329.4274C339.0571,-315.81 317.0279,-296.1954 297,-280 280.7419,-266.853 261.2754,-252.6474 248.548,-243.5553"/>
<polygon fill="#191970" stroke="#191970" points="351.8176,-332.1501 361.5591,-336.3158 356.5416,-326.9844 351.8176,-332.1501"/>
</g>
<!-- Node107&#45;&gt;Node99 -->
<g id="edge25" class="edge">
<title>Node107&#45;&gt;Node99</title>
<path fill="none" stroke="#191970" d="M378.6539,-326.7267C391.05,-290.8207 417.2669,-214.8822 426.607,-187.8279"/>
<polygon fill="#191970" stroke="#191970" points="375.2396,-325.8915 375.2845,-336.4862 381.8563,-328.1759 375.2396,-325.8915"/>
</g>
<!-- Node107&#45;&gt;Node100 -->
<g id="edge24" class="edge">
<title>Node107&#45;&gt;Node100</title>
<path fill="none" stroke="#191970" d="M387.959,-328.977C429.6108,-284.5484 540.6196,-166.1391 573.0102,-131.5891"/>
<polygon fill="#191970" stroke="#191970" points="385.3095,-326.6858 381.0234,-336.375 390.4163,-331.4734 385.3095,-326.6858"/>
</g>
<!-- Node107&#45;&gt;Node101 -->
<g id="edge32" class="edge">
<title>Node107&#45;&gt;Node101</title>
<path fill="none" stroke="#191970" d="M366.9684,-326.6538C361.6431,-304.4472 354,-266.8528 354,-234 354,-234 354,-234 354,-178 354,-138.1507 376.735,-94.7287 387.9249,-75.7703"/>
<polygon fill="#191970" stroke="#191970" points="363.6065,-327.6378 369.421,-336.4945 370.3987,-325.9449 363.6065,-327.6378"/>
</g>
<!-- Node107&#45;&gt;Node108 -->
<g id="edge22" class="edge">
<title>Node107&#45;&gt;Node108</title>
<path fill="none" stroke="#191970" d="M342.4856,-332.1109C320.9062,-321.9559 292.2024,-308.4482 273.1899,-299.5011"/>
<polygon fill="#191970" stroke="#191970" points="341.0047,-335.2821 351.5432,-336.3733 343.9853,-328.9484 341.0047,-335.2821"/>
</g>
<!-- Node107&#45;&gt;Node109 -->
<g id="edge26" class="edge">
<title>Node107&#45;&gt;Node109</title>
<path fill="none" stroke="#191970" d="M407.7096,-337.3431C499.0576,-315.1982 739.1795,-256.9868 812.4578,-239.2224"/>
<polygon fill="#191970" stroke="#191970" points="406.723,-333.9809 397.8291,-339.7384 408.3722,-340.7838 406.723,-333.9809"/>
</g>
<!-- Node107&#45;&gt;Node110 -->
<g id="edge28" class="edge">
<title>Node107&#45;&gt;Node110</title>
<path fill="none" stroke="#191970" d="M407.4779,-340.4035C473.6474,-329.9655 615.5314,-307.5838 685.8107,-296.4975"/>
<polygon fill="#191970" stroke="#191970" points="406.8632,-336.9571 397.5307,-341.9726 407.954,-343.8716 406.8632,-336.9571"/>
</g>
<!-- Node108&#45;&gt;Node97 -->
<g id="edge23" class="edge">
<title>Node108&#45;&gt;Node97</title>
<path fill="none" stroke="#191970" d="M246.7173,-270.4538C243.8008,-261.3803 240.4642,-250.9998 238.0994,-243.6427"/>
<polygon fill="#191970" stroke="#191970" points="243.4724,-271.7963 249.8646,-280.2455 250.1366,-269.6542 243.4724,-271.7963"/>
</g>
<!-- Node109&#45;&gt;Node100 -->
<g id="edge27" class="edge">
<title>Node109&#45;&gt;Node100</title>
<path fill="none" stroke="#191970" d="M815.5702,-217.6243C798.0179,-202.7908 770.2967,-181.2834 743,-168 703.7912,-148.9199 655.2553,-136.4064 621.7837,-129.315"/>
<polygon fill="#191970" stroke="#191970" points="813.4632,-220.4288 823.3236,-224.3048 818.0324,-215.1258 813.4632,-220.4288"/>
</g>
<!-- Node110&#45;&gt;Node109 -->
<g id="edge29" class="edge">
<title>Node110&#45;&gt;Node109</title>
<path fill="none" stroke="#191970" d="M754.5199,-275.5971C773.7017,-265.558 798.7678,-252.4393 815.5756,-243.6427"/>
<polygon fill="#191970" stroke="#191970" points="752.875,-272.5075 745.638,-280.2455 756.1209,-278.7095 752.875,-272.5075"/>
</g>
<!-- Node111 -->
<g id="node22" class="node">
<title>Node111</title>
<g id="a_node22"><a xlink:href="../../d2/d50/stress_8h.html" target="_top" xlink:title="Stress tensor calculation. ">
<polygon fill="#ffffff" stroke="#000000" points="691.5,-168.5 691.5,-187.5 734.5,-187.5 734.5,-168.5 691.5,-168.5"/>
<text text-anchor="middle" x="713" y="-175.5" font-family="Helvetica,sans-Serif" font-size="10.00" fill="#000000">stress.h</text>
</a>
</g>
</g>
<!-- Node110&#45;&gt;Node111 -->
<g id="edge30" class="edge">
<title>Node110&#45;&gt;Node111</title>
<path fill="none" stroke="#191970" d="M724.5338,-270.2702C721.4998,-245.9985 716.4716,-205.7725 714.1906,-187.5249"/>
<polygon fill="#191970" stroke="#191970" points="721.093,-270.9623 725.8064,-280.4509 728.0389,-270.094 721.093,-270.9623"/>
</g>
<!-- Node111&#45;&gt;Node100 -->
<g id="edge31" class="edge">
<title>Node111&#45;&gt;Node100</title>
<path fill="none" stroke="#191970" d="M682.0682,-164.7772C658.2695,-154.6038 625.9373,-140.7824 604.543,-131.6367"/>
<polygon fill="#191970" stroke="#191970" points="680.7972,-168.0402 691.368,-168.7527 683.5487,-161.6037 680.7972,-168.0402"/>
</g>
<!-- Node112&#45;&gt;Node104 -->
<g id="edge49" class="edge">
<title>Node112&#45;&gt;Node104</title>
<path fill="none" stroke="#191970" d="M765.6483,-557.2619C731.7049,-546.2744 683.8137,-530.7721 655.5292,-521.6164"/>
<polygon fill="#191970" stroke="#191970" points="764.6684,-560.6234 775.2602,-560.3733 766.8242,-553.9636 764.6684,-560.6234"/>
</g>
<!-- Node112&#45;&gt;Node109 -->
<g id="edge54" class="edge">
<title>Node112&#45;&gt;Node109</title>
<path fill="none" stroke="#191970" d="M839.9612,-556.4142C874.5462,-540.8581 925.4735,-511.7378 948,-468 992.3827,-381.8261 882.3548,-275.7786 845.5153,-243.6606"/>
<polygon fill="#191970" stroke="#191970" points="838.4572,-553.2514 830.677,-560.443 841.2438,-559.6729 838.4572,-553.2514"/>
</g>
<!-- Node112&#45;&gt;Node110 -->
<g id="edge55" class="edge">
<title>Node112&#45;&gt;Node110</title>
<path fill="none" stroke="#191970" d="M801.8546,-550.4424C794.9487,-509.6695 776.747,-412.9797 748,-336 743.2089,-323.1702 736.4589,-308.8952 731.9164,-299.7005"/>
<polygon fill="#191970" stroke="#191970" points="798.4161,-551.1025 803.5022,-560.3967 805.3222,-549.9594 798.4161,-551.1025"/>
</g>
<!-- Node112&#45;&gt;Node113 -->
<g id="edge50" class="edge">
<title>Node112&#45;&gt;Node113</title>
<path fill="none" stroke="#191970" d="M757.4577,-565.0969C653.2399,-554.3489 405.978,-528.8486 305.5395,-518.4903"/>
<polygon fill="#191970" stroke="#191970" points="757.3711,-568.6065 767.6774,-566.1509 758.0893,-561.6434 757.3711,-568.6065"/>
</g>
<!-- Node114 -->
<g id="node25" class="node">
<title>Node114</title>
<g id="a_node25"><a xlink:href="../../d4/d0f/beta__projectors__gradient_8h.html" target="_top" xlink:title="Contains declaration and implementation of sirius::Beta_projectors_gradient class. ">
<polygon fill="#ffffff" stroke="#000000" points="833,-448.5 833,-467.5 939,-467.5 939,-448.5 833,-448.5"/>
<text text-anchor="middle" x="886" y="-455.5" font-family="Helvetica,sans-Serif" font-size="10.00" fill="#000000">beta_projectors_gradient.h</text>
</a>
</g>
</g>
<!-- Node112&#45;&gt;Node114 -->
<g id="edge52" class="edge">
<title>Node112&#45;&gt;Node114</title>
<path fill="none" stroke="#191970" d="M817.8652,-552.2111C835.2312,-528.1989 865.5563,-486.2679 879.1115,-467.5249"/>
<polygon fill="#191970" stroke="#191970" points="814.9302,-550.2969 811.906,-560.4509 820.6023,-554.399 814.9302,-550.2969"/>
</g>
<!-- Node113&#45;&gt;Node97 -->
<g id="edge51" class="edge">
<title>Node113&#45;&gt;Node97</title>
<path fill="none" stroke="#191970" d="M255.5669,-494.7936C243.5141,-457.6821 217.943,-373.3098 209,-300 207.9236,-291.1765 206.7387,-288.5964 209,-280 212.5939,-266.3376 221.2727,-252.4664 227.6181,-243.5817"/>
<polygon fill="#191970" stroke="#191970" points="252.2601,-495.9422 258.712,-504.346 258.909,-493.753 252.2601,-495.9422"/>
</g>
<!-- Node114&#45;&gt;Node109 -->
<g id="edge53" class="edge">
<title>Node114&#45;&gt;Node109</title>
<path fill="none" stroke="#191970" d="M882.6101,-438.436C878.3159,-414.2604 870.4505,-371.917 862,-336 853.9251,-301.6794 842.2125,-261.4647 836.861,-243.5024"/>
<polygon fill="#191970" stroke="#191970" points="879.193,-439.2135 884.3698,-448.4575 886.0875,-438.0028 879.193,-439.2135"/>
</g>
<!-- Node115&#45;&gt;Node95 -->
<g id="edge64" class="edge">
<title>Node115&#45;&gt;Node95</title>
<path fill="none" stroke="#191970" d="M678.343,-718.2677C671.5105,-692.3706 661.2333,-653.4164 656.5221,-635.5595"/>
<polygon fill="#191970" stroke="#191970" points="675.012,-719.3627 680.9473,-728.1389 681.7804,-717.5769 675.012,-719.3627"/>
</g>
<!-- Node116 -->
<g id="node27" class="node">
<title>Node116</title>
<g id="a_node27"><a xlink:href="../../d3/d0e/step__function_8h.html" target="_top" xlink:title="Contains definition and partial implementation of sirius::Step_function class. ">
<polygon fill="#ffffff" stroke="#000000" points="589.5,-672.5 589.5,-691.5 656.5,-691.5 656.5,-672.5 589.5,-672.5"/>
<text text-anchor="middle" x="623" y="-679.5" font-family="Helvetica,sans-Serif" font-size="10.00" fill="#000000">step_function.h</text>
</a>
</g>
</g>
<!-- Node115&#45;&gt;Node116 -->
<g id="edge65" class="edge">
<title>Node115&#45;&gt;Node116</title>
<path fill="none" stroke="#191970" d="M662.2786,-720.9618C652.1829,-710.9475 640.8231,-699.6794 632.927,-691.8469"/>
<polygon fill="#191970" stroke="#191970" points="660.1096,-723.7402 669.6742,-728.2977 665.0393,-718.7705 660.1096,-723.7402"/>
</g>
<!-- Node116&#45;&gt;Node95 -->
<g id="edge66" class="edge">
<title>Node116&#45;&gt;Node95</title>
<path fill="none" stroke="#191970" d="M633.3312,-663.3372C638.4665,-654.0605 644.4566,-643.2398 648.6621,-635.6427"/>
<polygon fill="#191970" stroke="#191970" points="630.1809,-661.8015 628.3998,-672.2455 636.3051,-665.1917 630.1809,-661.8015"/>
</g>
<!-- Node116&#45;&gt;Node101 -->
<g id="edge67" class="edge">
<title>Node116&#45;&gt;Node101</title>
<path fill="none" stroke="#191970" d="M579.4044,-675.0301C443.7264,-652.1225 38,-573.9288 38,-458 38,-458 38,-458 38,-178 38,-131.5625 76.6883,-131.1355 119,-112 164.9801,-91.2055 318.4797,-73.7699 373.8595,-68.0156"/>
<polygon fill="#191970" stroke="#191970" points="579.0067,-678.5121 589.4467,-676.7076 580.1601,-671.6077 579.0067,-678.5121"/>
</g>
<!-- Node117&#45;&gt;Node93 -->
<g id="edge69" class="edge">
<title>Node117&#45;&gt;Node93</title>
<path fill="none" stroke="#191970" d="M796.5433,-841.1575C798.1509,-832.155 799.9786,-821.9199 801.2781,-814.6427"/>
<polygon fill="#191970" stroke="#191970" points="793.0544,-840.786 794.7419,-851.2455 799.9454,-842.0166 793.0544,-840.786"/>
</g>
<!-- Node119 -->
<g id="node30" class="node">
<title>Node119</title>
<g id="a_node30"><a xlink:href="../../d6/dc4/real__space__prj_8cpp_source.html" target="_top" xlink:title="real_space_prj.cpp">
<polygon fill="#ffffff" stroke="#000000" points="869,-795.5 869,-814.5 949,-814.5 949,-795.5 869,-795.5"/>
<text text-anchor="middle" x="909" y="-802.5" font-family="Helvetica,sans-Serif" font-size="10.00" fill="#000000">real_space_prj.cpp</text>
</a>
</g>
</g>
<!-- Node118&#45;&gt;Node119 -->
<g id="edge72" class="edge">
<title>Node118&#45;&gt;Node119</title>
<path fill="none" stroke="#191970" d="M909,-841.1575C909,-832.155 909,-821.9199 909,-814.6427"/>
<polygon fill="#191970" stroke="#191970" points="905.5001,-841.2455 909,-851.2455 912.5001,-841.2456 905.5001,-841.2455"/>
</g>
</g>
</svg>
