<?xml version="1.0" encoding="UTF-8" standalone="no"?>
<!DOCTYPE svg PUBLIC "-//W3C//DTD SVG 1.1//EN"
 "http://www.w3.org/Graphics/SVG/1.1/DTD/svg11.dtd">
<!-- Generated by graphviz version 2.40.1 (20161225.0304)
 -->
<!-- Title: sirius::Radial_grid_pow&lt; T &gt; Pages: 1 -->
<svg width="127pt" height="185pt"
 viewBox="0.00 0.00 127.00 185.00" xmlns="http://www.w3.org/2000/svg" xmlns:xlink="http://www.w3.org/1999/xlink">
<g id="graph0" class="graph" transform="scale(1 1) rotate(0) translate(4 181)">
<title>sirius::Radial_grid_pow&lt; T &gt;</title>
<polygon fill="#ffffff" stroke="transparent" points="-4,4 -4,-181 123,-181 123,4 -4,4"/>
<!-- Node1 -->
<g id="node1" class="node">
<title>Node1</title>
<g id="a_node1"><a xlink:title=" ">
<polygon fill="#bfbfbf" stroke="#000000" points="11.5,-.5 11.5,-30.5 107.5,-30.5 107.5,-.5 11.5,-.5"/>
<text text-anchor="start" x="19.5" y="-18.5" font-family="Helvetica,sans-Serif" font-size="10.00" fill="#000000">sirius::Radial_grid</text>
<text text-anchor="middle" x="59.5" y="-7.5" font-family="Helvetica,sans-Serif" font-size="10.00" fill="#000000">_pow&lt; T &gt;</text>
</a>
</g>
</g>
<!-- Node2 -->
<g id="node2" class="node">
<title>Node2</title>
<g id="a_node2"><a xlink:href="../../d9/dbf/classsirius_1_1_radial__grid.html" target="_top" xlink:title="Base class for radial grids.">
<polygon fill="#ffffff" stroke="#000000" points="0,-68.5 0,-87.5 119,-87.5 119,-68.5 0,-68.5"/>
<text text-anchor="middle" x="59.5" y="-75.5" font-family="Helvetica,sans-Serif" font-size="10.00" fill="#000000">sirius::Radial_grid&lt; T &gt;</text>
</a>
</g>
</g>
<!-- Node2&#45;&gt;Node1 -->
<g id="edge1" class="edge">
<title>Node2&#45;&gt;Node1</title>
<path fill="none" stroke="#191970" d="M59.5,-58.0501C59.5,-49.2205 59.5,-39.0001 59.5,-30.7892"/>
<polygon fill="#191970" stroke="#191970" points="56.0001,-58.2343 59.5,-68.2344 63.0001,-58.2344 56.0001,-58.2343"/>
</g>
<!-- Node3 -->
<g id="node3" class="node">
<title>Node3</title>
<g id="a_node3"><a xlink:href="../../d7/dab/classsddk_1_1mdarray.html" target="_top" xlink:title=" ">
<polygon fill="#ffffff" stroke="#000000" points="2.5,-157.5 2.5,-176.5 116.5,-176.5 116.5,-157.5 2.5,-157.5"/>
<text text-anchor="middle" x="59.5" y="-164.5" font-family="Helvetica,sans-Serif" font-size="10.00" fill="#000000">sddk::mdarray&lt; T, 1 &gt;</text>
</a>
</g>
</g>
<!-- Node3&#45;&gt;Node2 -->
<g id="edge2" class="edge">
<title>Node3&#45;&gt;Node2</title>
<path fill="none" stroke="#9a32cd" stroke-dasharray="5,2" d="M59.5,-147.2379C59.5,-128.7654 59.5,-101.957 59.5,-87.7259"/>
<polygon fill="#9a32cd" stroke="#9a32cd" points="56.0001,-147.4754 59.5,-157.4754 63.0001,-147.4755 56.0001,-147.4754"/>
<text text-anchor="middle" x="74" y="-131" font-family="Helvetica,sans-Serif" font-size="10.00" fill="#000000"> dx_</text>
<text text-anchor="middle" x="74" y="-120" font-family="Helvetica,sans-Serif" font-size="10.00" fill="#000000">x_</text>
<text text-anchor="middle" x="74" y="-109" font-family="Helvetica,sans-Serif" font-size="10.00" fill="#000000">x_inv_</text>
</g>
</g>
</svg>
