<?xml version="1.0" encoding="UTF-8" standalone="no"?>
<!DOCTYPE svg PUBLIC "-//W3C//DTD SVG 1.1//EN"
 "http://www.w3.org/Graphics/SVG/1.1/DTD/svg11.dtd">
<!-- Generated by graphviz version 2.40.1 (20161225.0304)
 -->
<!-- Title: smooth_periodic_function.hpp Pages: 1 -->
<!--zoomable 476 -->
<svg id="main" version="1.1" xmlns="http://www.w3.org/2000/svg" xmlns:xlink="http://www.w3.org/1999/xlink" xml:space="preserve" onload="init(evt)">
<style type="text/css"><![CDATA[
.edge:hover path { stroke: red; }
.edge:hover polygon { stroke: red; fill: red; }
]]></style>
<script type="text/javascript"><![CDATA[
var edges = document.getElementsByTagName('g');
if (edges && edges.length) {
  for (var i=0;i<edges.length;i++) {
    if (edges[i].id.substr(0,4)=='edge') {
      edges[i].setAttribute('class','edge');
    }
  }
}
]]></script>
        <defs>
                <circle id="rim" cx="0" cy="0" r="7"/>
                <circle id="rim2" cx="0" cy="0" r="3.5"/>
                <g id="zoomPlus">
                        <use xlink:href="#rim" fill="#404040">
                                <set attributeName="fill" to="#808080" begin="zoomplus.mouseover" end="zoomplus.mouseout"/>
                        </use>
                        <path d="M-4,0h8M0,-4v8" fill="none" stroke="white" stroke-width="1.5" pointer-events="none"/>
                </g>
                <g id="zoomMin">
                        <use xlink:href="#rim" fill="#404040">
                                <set attributeName="fill" to="#808080" begin="zoomminus.mouseover" end="zoomminus.mouseout"/>
                        </use>
                        <path d="M-4,0h8" fill="none" stroke="white" stroke-width="1.5" pointer-events="none"/>
                </g>
                <g id="dirArrow">
                        <path fill="none" stroke="white" stroke-width="1.5" d="M0,-3.0v7 M-2.5,-0.5L0,-3.0L2.5,-0.5"/>
                </g>
               <g id="resetDef">
                       <use xlink:href="#rim2" fill="#404040">
                               <set attributeName="fill" to="#808080" begin="reset.mouseover" end="reset.mouseout"/>
                       </use>
               </g>
        </defs>

<script type="text/javascript">
var viewWidth = 303;
var viewHeight = 476;
var sectionId = 'dynsection-0';
</script>
<script xlink:href="../../svgpan.js"/>
<svg id="graph" class="graph">
<g id="viewport">
<title>smooth_periodic_function.hpp</title>
<polygon fill="#ffffff" stroke="transparent" points="-4,4 -4,-472 298.5127,-472 298.5127,4 -4,4"/>
<!-- Node1 -->
<g id="node1" class="node">
<title>Node1</title>
<polygon fill="#bfbfbf" stroke="#000000" points="43.0127,-448.5 43.0127,-467.5 193.0127,-467.5 193.0127,-448.5 43.0127,-448.5"/>
<text text-anchor="middle" x="118.0127" y="-455.5" font-family="Helvetica,sans-Serif" font-size="10.00" fill="#000000">smooth_periodic_function.hpp</text>
</g>
<!-- Node2 -->
<g id="node2" class="node">
<title>Node2</title>
<g id="a_node2"><a xlink:href="../../d3/d6a/periodic__function_8hpp.html" target="_top" xlink:title="Contains declaration and partial implementation of sirius::Periodic_function class. ">
<polygon fill="#ffffff" stroke="#000000" points="62.0127,-392.5 62.0127,-411.5 174.0127,-411.5 174.0127,-392.5 62.0127,-392.5"/>
<text text-anchor="middle" x="118.0127" y="-399.5" font-family="Helvetica,sans-Serif" font-size="10.00" fill="#000000">periodic_function.hpp</text>
</a>
</g>
</g>
<!-- Node1&#45;&gt;Node2 -->
<g id="edge1" class="edge">
<title>Node1&#45;&gt;Node2</title>
<path fill="none" stroke="#191970" d="M118.0127,-438.1575C118.0127,-429.155 118.0127,-418.9199 118.0127,-411.6427"/>
<polygon fill="#191970" stroke="#191970" points="114.5128,-438.2455 118.0127,-448.2455 121.5128,-438.2456 114.5128,-438.2455"/>
</g>
<!-- Node3 -->
<g id="node3" class="node">
<title>Node3</title>
<g id="a_node3"><a xlink:href="../../da/d3d/band_8hpp.html" target="_top" xlink:title="Contains declaration and partial implementation of sirius::Band class. ">
<polygon fill="#ffffff" stroke="#000000" points="65.0127,-112.5 65.0127,-131.5 123.0127,-131.5 123.0127,-112.5 65.0127,-112.5"/>
<text text-anchor="middle" x="94.0127" y="-119.5" font-family="Helvetica,sans-Serif" font-size="10.00" fill="#000000">band.hpp</text>
</a>
</g>
</g>
<!-- Node2&#45;&gt;Node3 -->
<g id="edge2" class="edge">
<title>Node2&#45;&gt;Node3</title>
<path fill="none" stroke="#191970" d="M70.511,-388.88C52.5035,-381.7729 33.1877,-371.2328 20.0127,-356 -.038,-332.8175 .0127,-320.6506 .0127,-290 .0127,-290 .0127,-290 .0127,-234 .0127,-186.5296 50.1696,-148.649 77.2074,-131.6776"/>
<polygon fill="#191970" stroke="#191970" points="69.7396,-392.325 80.3333,-392.4831 72.1504,-385.7532 69.7396,-392.325"/>
</g>
<!-- Node6 -->
<g id="node6" class="node">
<title>Node6</title>
<g id="a_node6"><a xlink:href="../../d0/d9a/density_8hpp.html" target="_top" xlink:title="Contains definition and partial implementation of sirius::Density class. ">
<polygon fill="#ffffff" stroke="#000000" points="29.0127,-336.5 29.0127,-355.5 97.0127,-355.5 97.0127,-336.5 29.0127,-336.5"/>
<text text-anchor="middle" x="63.0127" y="-343.5" font-family="Helvetica,sans-Serif" font-size="10.00" fill="#000000">density.hpp</text>
</a>
</g>
</g>
<!-- Node2&#45;&gt;Node6 -->
<g id="edge5" class="edge">
<title>Node2&#45;&gt;Node6</title>
<path fill="none" stroke="#191970" d="M101.3901,-385.0751C91.9272,-375.4402 80.4158,-363.7196 72.4832,-355.6427"/>
<polygon fill="#191970" stroke="#191970" points="98.9282,-387.5635 108.4324,-392.2455 103.9224,-382.6585 98.9282,-387.5635"/>
</g>
<!-- Node10 -->
<g id="node10" class="node">
<title>Node10</title>
<g id="a_node10"><a xlink:href="../../d5/d72/non__local__functor_8hpp.html" target="_top" xlink:title="Common operation for forces and stress tensor. ">
<polygon fill="#ffffff" stroke="#000000" points="115.5127,-336.5 115.5127,-355.5 230.5127,-355.5 230.5127,-336.5 115.5127,-336.5"/>
<text text-anchor="middle" x="173.0127" y="-343.5" font-family="Helvetica,sans-Serif" font-size="10.00" fill="#000000">non_local_functor.hpp</text>
</a>
</g>
</g>
<!-- Node2&#45;&gt;Node10 -->
<g id="edge11" class="edge">
<title>Node2&#45;&gt;Node10</title>
<path fill="none" stroke="#191970" d="M134.6353,-385.0751C144.0982,-375.4402 155.6095,-363.7196 163.5422,-355.6427"/>
<polygon fill="#191970" stroke="#191970" points="132.103,-382.6585 127.5929,-392.2455 137.0971,-387.5635 132.103,-382.6585"/>
</g>
<!-- Node13 -->
<g id="node13" class="node">
<title>Node13</title>
<g id="a_node13"><a xlink:href="../../d6/d1e/force_8hpp.html" target="_top" xlink:title="Contains defintion and implementation of sirius::Force class. ">
<polygon fill="#ffffff" stroke="#000000" points="223.0127,-280.5 223.0127,-299.5 281.0127,-299.5 281.0127,-280.5 223.0127,-280.5"/>
<text text-anchor="middle" x="252.0127" y="-287.5" font-family="Helvetica,sans-Serif" font-size="10.00" fill="#000000">force.hpp</text>
</a>
</g>
</g>
<!-- Node2&#45;&gt;Node13 -->
<g id="edge17" class="edge">
<title>Node2&#45;&gt;Node13</title>
<path fill="none" stroke="#191970" d="M183.8417,-390.5282C204.6054,-383.7678 225.8086,-373.0344 240.0127,-356 253.4378,-339.8997 253.9165,-313.8111 253.0175,-299.7399"/>
<polygon fill="#191970" stroke="#191970" points="182.6225,-387.2394 174.0392,-393.4505 184.6223,-393.9476 182.6225,-387.2394"/>
</g>
<!-- Node4 -->
<g id="node4" class="node">
<title>Node4</title>
<g id="a_node4"><a xlink:href="../../dd/dc2/sirius_8h.html" target="_top" xlink:title="&quot;All&#45;in&#45;one&quot; include file. ">
<polygon fill="#ffffff" stroke="#000000" points="124.0127,-56.5 124.0127,-75.5 172.0127,-75.5 172.0127,-56.5 124.0127,-56.5"/>
<text text-anchor="middle" x="148.0127" y="-63.5" font-family="Helvetica,sans-Serif" font-size="10.00" fill="#000000">sirius.h</text>
</a>
</g>
</g>
<!-- Node3&#45;&gt;Node4 -->
<g id="edge3" class="edge">
<title>Node3&#45;&gt;Node4</title>
<path fill="none" stroke="#191970" d="M110.6096,-104.7884C119.8473,-95.2085 131.0031,-83.6396 138.7144,-75.6427"/>
<polygon fill="#191970" stroke="#191970" points="107.8407,-102.6176 103.4188,-112.2455 112.8796,-107.4766 107.8407,-102.6176"/>
</g>
<!-- Node5 -->
<g id="node5" class="node">
<title>Node5</title>
<g id="a_node5"><a xlink:href="../../d4/d53/sirius__api_8cpp.html" target="_top" xlink:title="Fortran API. ">
<polygon fill="#ffffff" stroke="#000000" points="109.0127,-.5 109.0127,-19.5 187.0127,-19.5 187.0127,-.5 109.0127,-.5"/>
<text text-anchor="middle" x="148.0127" y="-7.5" font-family="Helvetica,sans-Serif" font-size="10.00" fill="#000000">sirius_api.cpp</text>
</a>
</g>
</g>
<!-- Node4&#45;&gt;Node5 -->
<g id="edge4" class="edge">
<title>Node4&#45;&gt;Node5</title>
<path fill="none" stroke="#191970" d="M148.0127,-46.1575C148.0127,-37.155 148.0127,-26.9199 148.0127,-19.6427"/>
<polygon fill="#191970" stroke="#191970" points="144.5128,-46.2455 148.0127,-56.2455 151.5128,-46.2456 144.5128,-46.2455"/>
</g>
<!-- Node7 -->
<g id="node7" class="node">
<title>Node7</title>
<g id="a_node7"><a xlink:href="../../de/df2/potential_8hpp.html" target="_top" xlink:title="Contains declaration and partial implementation of sirius::Potential class. ">
<polygon fill="#ffffff" stroke="#000000" points="28.0127,-280.5 28.0127,-299.5 102.0127,-299.5 102.0127,-280.5 28.0127,-280.5"/>
<text text-anchor="middle" x="65.0127" y="-287.5" font-family="Helvetica,sans-Serif" font-size="10.00" fill="#000000">potential.hpp</text>
</a>
</g>
</g>
<!-- Node6&#45;&gt;Node7 -->
<g id="edge6" class="edge">
<title>Node6&#45;&gt;Node7</title>
<path fill="none" stroke="#191970" d="M63.7213,-326.1575C64.0429,-317.155 64.4084,-306.9199 64.6683,-299.6427"/>
<polygon fill="#191970" stroke="#191970" points="60.2203,-326.127 63.361,-336.2455 67.2158,-326.3769 60.2203,-326.127"/>
</g>
<!-- Node8 -->
<g id="node8" class="node">
<title>Node8</title>
<g id="a_node8"><a xlink:href="../../de/dec/hamiltonian_8hpp.html" target="_top" xlink:title="Contains declaration and definition of sirius::Hamiltonian class. ">
<polygon fill="#ffffff" stroke="#000000" points="50.5127,-168.5 50.5127,-187.5 137.5127,-187.5 137.5127,-168.5 50.5127,-168.5"/>
<text text-anchor="middle" x="94.0127" y="-175.5" font-family="Helvetica,sans-Serif" font-size="10.00" fill="#000000">hamiltonian.hpp</text>
</a>
</g>
</g>
<!-- Node7&#45;&gt;Node8 -->
<g id="edge7" class="edge">
<title>Node7&#45;&gt;Node8</title>
<path fill="none" stroke="#191970" d="M58.1768,-270.6895C54.4936,-257.2569 51.6869,-239.1186 57.0127,-224 62.1206,-209.5 73.9456,-196.1993 82.8624,-187.6707"/>
<polygon fill="#191970" stroke="#191970" points="54.8579,-271.8037 61.1798,-280.3057 61.5397,-269.717 54.8579,-271.8037"/>
</g>
<!-- Node9 -->
<g id="node9" class="node">
<title>Node9</title>
<g id="a_node9"><a xlink:href="../../d3/d2c/local__operator_8hpp.html" target="_top" xlink:title="Contains declaration and implementation of sirius::Local_operator class. ">
<polygon fill="#ffffff" stroke="#000000" points="66.5127,-224.5 66.5127,-243.5 165.5127,-243.5 165.5127,-224.5 66.5127,-224.5"/>
<text text-anchor="middle" x="116.0127" y="-231.5" font-family="Helvetica,sans-Serif" font-size="10.00" fill="#000000">local_operator.hpp</text>
</a>
</g>
</g>
<!-- Node7&#45;&gt;Node9 -->
<g id="edge9" class="edge">
<title>Node7&#45;&gt;Node9</title>
<path fill="none" stroke="#191970" d="M80.6876,-272.7884C89.4121,-263.2085 99.948,-251.6396 107.231,-243.6427"/>
<polygon fill="#191970" stroke="#191970" points="78.0418,-270.4954 73.8962,-280.2455 83.2172,-275.2088 78.0418,-270.4954"/>
</g>
<!-- Node8&#45;&gt;Node3 -->
<g id="edge8" class="edge">
<title>Node8&#45;&gt;Node3</title>
<path fill="none" stroke="#191970" d="M94.0127,-158.1575C94.0127,-149.155 94.0127,-138.9199 94.0127,-131.6427"/>
<polygon fill="#191970" stroke="#191970" points="90.5128,-158.2455 94.0127,-168.2455 97.5128,-158.2456 90.5128,-158.2455"/>
</g>
<!-- Node9&#45;&gt;Node8 -->
<g id="edge10" class="edge">
<title>Node9&#45;&gt;Node8</title>
<path fill="none" stroke="#191970" d="M108.4499,-214.7493C104.858,-205.6064 100.7226,-195.0798 97.8009,-187.6427"/>
<polygon fill="#191970" stroke="#191970" points="105.2663,-216.2178 112.1806,-224.2455 111.7816,-213.6582 105.2663,-216.2178"/>
</g>
<!-- Node11 -->
<g id="node11" class="node">
<title>Node11</title>
<g id="a_node11"><a xlink:href="../../d7/dd1/stress_8hpp.html" target="_top" xlink:title="Stress tensor calculation. ">
<polygon fill="#ffffff" stroke="#000000" points="141.5127,-280.5 141.5127,-299.5 204.5127,-299.5 204.5127,-280.5 141.5127,-280.5"/>
<text text-anchor="middle" x="173.0127" y="-287.5" font-family="Helvetica,sans-Serif" font-size="10.00" fill="#000000">stress.hpp</text>
</a>
</g>
</g>
<!-- Node10&#45;&gt;Node11 -->
<g id="edge12" class="edge">
<title>Node10&#45;&gt;Node11</title>
<path fill="none" stroke="#191970" d="M173.0127,-326.1575C173.0127,-317.155 173.0127,-306.9199 173.0127,-299.6427"/>
<polygon fill="#191970" stroke="#191970" points="169.5128,-326.2455 173.0127,-336.2455 176.5128,-326.2456 169.5128,-326.2455"/>
</g>
<!-- Node10&#45;&gt;Node13 -->
<g id="edge15" class="edge">
<title>Node10&#45;&gt;Node13</title>
<path fill="none" stroke="#191970" d="M195.2882,-330.2097C209.1632,-320.3743 226.5642,-308.0394 238.4096,-299.6427"/>
<polygon fill="#191970" stroke="#191970" points="192.9076,-327.6071 186.7734,-336.2455 196.9557,-333.3178 192.9076,-327.6071"/>
</g>
<!-- Node12 -->
<g id="node12" class="node">
<title>Node12</title>
<g id="a_node12"><a xlink:href="../../df/dc4/dft__ground__state_8hpp.html" target="_top" xlink:title="Contains definition and partial implementation of sirius::DFT_ground_state class. ...">
<polygon fill="#ffffff" stroke="#000000" points="183.5127,-224.5 183.5127,-243.5 294.5127,-243.5 294.5127,-224.5 183.5127,-224.5"/>
<text text-anchor="middle" x="239.0127" y="-231.5" font-family="Helvetica,sans-Serif" font-size="10.00" fill="#000000">dft_ground_state.hpp</text>
</a>
</g>
</g>
<!-- Node11&#45;&gt;Node12 -->
<g id="edge13" class="edge">
<title>Node11&#45;&gt;Node12</title>
<path fill="none" stroke="#191970" d="M192.2882,-273.645C203.7665,-263.9058 217.9404,-251.8795 227.6481,-243.6427"/>
<polygon fill="#191970" stroke="#191970" points="189.8697,-271.1069 184.509,-280.2455 194.3985,-276.4445 189.8697,-271.1069"/>
</g>
<!-- Node12&#45;&gt;Node4 -->
<g id="edge14" class="edge">
<title>Node12&#45;&gt;Node4</title>
<path fill="none" stroke="#191970" d="M229.0711,-215.6463C209.835,-180.1336 168.1168,-103.1154 153.3361,-75.8279"/>
<polygon fill="#191970" stroke="#191970" points="226.019,-217.3603 233.8594,-224.4862 232.174,-214.0263 226.019,-217.3603"/>
</g>
<!-- Node13&#45;&gt;Node12 -->
<g id="edge16" class="edge">
<title>Node13&#45;&gt;Node12</title>
<path fill="none" stroke="#191970" d="M247.4752,-270.4538C245.3688,-261.3803 242.9591,-250.9998 241.2512,-243.6427"/>
<polygon fill="#191970" stroke="#191970" points="244.0775,-271.2961 249.7482,-280.2455 250.8962,-269.7131 244.0775,-271.2961"/>
</g>
</g>
</svg>
        <g id="navigator" transform="translate(0 0)" fill="#404254">
                <rect fill="#f2f5e9" fill-opacity="0.5" stroke="#606060" stroke-width=".5" x="0" y="0" width="60" height="60"/>
                <use id="zoomplus" xlink:href="#zoomPlus" x="17" y="9" onmousedown="handleZoom(evt,'in')"/>
                <use id="zoomminus" xlink:href="#zoomMin" x="42" y="9" onmousedown="handleZoom(evt,'out')"/>
                <use id="reset" xlink:href="#resetDef" x="30" y="36" onmousedown="handleReset()"/>
                <g id="arrowUp" xlink:href="#dirArrow" transform="translate(30 24)" onmousedown="handlePan(0,-1)">
                  <use xlink:href="#rim" fill="#404040">
                        <set attributeName="fill" to="#808080" begin="arrowUp.mouseover" end="arrowUp.mouseout"/>
                  </use>
                  <path fill="none" stroke="white" stroke-width="1.5" d="M0,-3.0v7 M-2.5,-0.5L0,-3.0L2.5,-0.5"/>
                </g>
                <g id="arrowRight" xlink:href="#dirArrow" transform="rotate(90) translate(36 -43)" onmousedown="handlePan(1,0)">
                  <use xlink:href="#rim" fill="#404040">
                        <set attributeName="fill" to="#808080" begin="arrowRight.mouseover" end="arrowRight.mouseout"/>
                  </use>
                  <path fill="none" stroke="white" stroke-width="1.5" d="M0,-3.0v7 M-2.5,-0.5L0,-3.0L2.5,-0.5"/>
                </g>
                <g id="arrowDown" xlink:href="#dirArrow" transform="rotate(180) translate(-30 -48)" onmousedown="handlePan(0,1)">
                  <use xlink:href="#rim" fill="#404040">
                        <set attributeName="fill" to="#808080" begin="arrowDown.mouseover" end="arrowDown.mouseout"/>
                  </use>
                  <path fill="none" stroke="white" stroke-width="1.5" d="M0,-3.0v7 M-2.5,-0.5L0,-3.0L2.5,-0.5"/>
                </g>
                <g id="arrowLeft" xlink:href="#dirArrow" transform="rotate(270) translate(-36 17)" onmousedown="handlePan(-1,0)">
                  <use xlink:href="#rim" fill="#404040">
                        <set attributeName="fill" to="#808080" begin="arrowLeft.mouseover" end="arrowLeft.mouseout"/>
                  </use>
                  <path fill="none" stroke="white" stroke-width="1.5" d="M0,-3.0v7 M-2.5,-0.5L0,-3.0L2.5,-0.5"/>
                </g>
        </g>
        <svg viewBox="0 0 15 15" width="100%" height="30px" preserveAspectRatio="xMaxYMin meet">
         <g id="arrow_out" transform="scale(0.3 0.3)">
          <a xlink:href="smooth__periodic__function_8hpp__dep__incl_org.svg" target="_base">
           <rect id="button" ry="5" rx="5" y="6" x="6" height="38" width="38"
                fill="#f2f5e9" fill-opacity="0.5" stroke="#606060" stroke-width="1.0"/>
           <path id="arrow"
             d="M 11.500037,31.436501 C 11.940474,20.09759 22.043105,11.32322 32.158766,21.979434 L 37.068811,17.246167 C 37.068811,17.246167 37.088388,32 37.088388,32 L 22.160133,31.978069 C 22.160133,31.978069 26.997745,27.140456 26.997745,27.140456 C 18.528582,18.264221 13.291696,25.230495 11.500037,31.436501 z"
             style="fill:#404040;"/>
          </a>
         </g>
        </svg>
</svg>
