<?xml version="1.0" encoding="UTF-8" standalone="no"?>
<!DOCTYPE svg PUBLIC "-//W3C//DTD SVG 1.1//EN"
 "http://www.w3.org/Graphics/SVG/1.1/DTD/svg11.dtd">
<!-- Generated by graphviz version 2.40.1 (20161225.0304)
 -->
<!-- Title: step_function.h Pages: 1 -->
<svg width="1164pt" height="644pt"
 viewBox="0.00 0.00 1164.00 644.00" xmlns="http://www.w3.org/2000/svg" xmlns:xlink="http://www.w3.org/1999/xlink">
<g id="graph0" class="graph" transform="scale(1 1) rotate(0) translate(4 640)">
<title>step_function.h</title>
<polygon fill="#ffffff" stroke="transparent" points="-4,4 -4,-640 1160,-640 1160,4 -4,4"/>
<!-- Node127 -->
<g id="node1" class="node">
<title>Node127</title>
<polygon fill="#bfbfbf" stroke="#000000" points="839.5,-616.5 839.5,-635.5 906.5,-635.5 906.5,-616.5 839.5,-616.5"/>
<text text-anchor="middle" x="873" y="-623.5" font-family="Helvetica,sans-Serif" font-size="10.00" fill="#000000">step_function.h</text>
</g>
<!-- Node128 -->
<g id="node2" class="node">
<title>Node128</title>
<g id="a_node2"><a xlink:href="../../d5/d5b/simulation__context_8h.html" target="_top" xlink:title="Contains definition and implementation of Simulation_parameters and Simulation_context classes...">
<polygon fill="#ffffff" stroke="#000000" points="575.5,-560.5 575.5,-579.5 660.5,-579.5 660.5,-560.5 575.5,-560.5"/>
<text text-anchor="middle" x="618" y="-567.5" font-family="Helvetica,sans-Serif" font-size="10.00" fill="#000000">simulation_context.h</text>
</a>
</g>
</g>
<!-- Node127&#45;&gt;Node128 -->
<g id="edge1" class="edge">
<title>Node127&#45;&gt;Node128</title>
<path fill="none" stroke="#191970" d="M829.4805,-616.4428C782.2843,-606.0781 707.4371,-589.6411 660.6027,-579.3559"/>
<polygon fill="#191970" stroke="#191970" points="828.883,-619.8949 839.401,-618.6214 830.3845,-613.0578 828.883,-619.8949"/>
</g>
<!-- Node132 -->
<g id="node6" class="node">
<title>Node132</title>
<g id="a_node6"><a xlink:href="../../dd/dc2/sirius_8h.html" target="_top" xlink:title="&quot;All&#45;in&#45;one&quot; include file. ">
<polygon fill="#ffffff" stroke="#000000" points="651,-56.5 651,-75.5 691,-75.5 691,-56.5 651,-56.5"/>
<text text-anchor="middle" x="671" y="-63.5" font-family="Helvetica,sans-Serif" font-size="10.00" fill="#000000">sirius.h</text>
</a>
</g>
</g>
<!-- Node127&#45;&gt;Node132 -->
<g id="edge64" class="edge">
<title>Node127&#45;&gt;Node132</title>
<path fill="none" stroke="#191970" d="M916.7678,-618.0997C996.2095,-602.5054 1156,-564.8221 1156,-514 1156,-514 1156,-514 1156,-178 1156,-80.9965 783.0123,-67.9948 691.2224,-66.2639"/>
<polygon fill="#191970" stroke="#191970" points="915.7312,-614.7351 906.5751,-620.0658 917.0571,-621.6084 915.7312,-614.7351"/>
</g>
<!-- Node129 -->
<g id="node3" class="node">
<title>Node129</title>
<g id="a_node3"><a xlink:href="../../d8/d65/periodic__function_8h.html" target="_top" xlink:title="Contains declaration and partial implementation of sirius::Periodic_function class. ">
<polygon fill="#ffffff" stroke="#000000" points="578.5,-504.5 578.5,-523.5 657.5,-523.5 657.5,-504.5 578.5,-504.5"/>
<text text-anchor="middle" x="618" y="-511.5" font-family="Helvetica,sans-Serif" font-size="10.00" fill="#000000">periodic_function.h</text>
</a>
</g>
</g>
<!-- Node128&#45;&gt;Node129 -->
<g id="edge2" class="edge">
<title>Node128&#45;&gt;Node129</title>
<path fill="none" stroke="#191970" d="M618,-550.1575C618,-541.155 618,-530.9199 618,-523.6427"/>
<polygon fill="#191970" stroke="#191970" points="614.5001,-550.2455 618,-560.2455 621.5001,-550.2456 614.5001,-550.2455"/>
</g>
<!-- Node136 -->
<g id="node10" class="node">
<title>Node136</title>
<g id="a_node10"><a xlink:href="../../d2/dcb/density_8h.html" target="_top" xlink:title="Contains definition and partial implementation of sirius::Density class. ">
<polygon fill="#ffffff" stroke="#000000" points="630.5,-336.5 630.5,-355.5 677.5,-355.5 677.5,-336.5 630.5,-336.5"/>
<text text-anchor="middle" x="654" y="-343.5" font-family="Helvetica,sans-Serif" font-size="10.00" fill="#000000">density.h</text>
</a>
</g>
</g>
<!-- Node128&#45;&gt;Node136 -->
<g id="edge58" class="edge">
<title>Node128&#45;&gt;Node136</title>
<path fill="none" stroke="#191970" d="M641.4273,-554.1886C650.9425,-546.3502 660.8844,-535.9878 666,-524 691.4071,-464.461 667.3309,-383.4976 657.6341,-355.7757"/>
<polygon fill="#191970" stroke="#191970" points="639.1203,-551.5468 633.3074,-560.4046 643.3754,-557.1051 639.1203,-551.5468"/>
</g>
<!-- Node137 -->
<g id="node11" class="node">
<title>Node137</title>
<g id="a_node11"><a xlink:href="../../df/d86/potential_8h.html" target="_top" xlink:title="Contains declaration and partial implementation of sirius::Potential class. ">
<polygon fill="#ffffff" stroke="#000000" points="468.5,-280.5 468.5,-299.5 519.5,-299.5 519.5,-280.5 468.5,-280.5"/>
<text text-anchor="middle" x="494" y="-287.5" font-family="Helvetica,sans-Serif" font-size="10.00" fill="#000000">potential.h</text>
</a>
</g>
</g>
<!-- Node128&#45;&gt;Node137 -->
<g id="edge57" class="edge">
<title>Node128&#45;&gt;Node137</title>
<path fill="none" stroke="#191970" d="M597.6997,-553.8434C588.1973,-545.5981 577.1953,-535.0001 569,-524 520.6736,-459.1342 513.8929,-435.5061 499,-356 495.3187,-336.3472 494.3318,-312.9196 494.0773,-299.9276"/>
<polygon fill="#191970" stroke="#191970" points="595.6456,-556.6887 605.5561,-560.4347 600.1447,-551.3261 595.6456,-556.6887"/>
</g>
<!-- Node139 -->
<g id="node13" class="node">
<title>Node139</title>
<g id="a_node13"><a xlink:href="../../d0/d39/_hamiltonian_8h_source.html" target="_top" xlink:title="Hamiltonian.h">
<polygon fill="#ffffff" stroke="#000000" points="257,-168.5 257,-187.5 319,-187.5 319,-168.5 257,-168.5"/>
<text text-anchor="middle" x="288" y="-175.5" font-family="Helvetica,sans-Serif" font-size="10.00" fill="#000000">Hamiltonian.h</text>
</a>
</g>
</g>
<!-- Node128&#45;&gt;Node139 -->
<g id="edge56" class="edge">
<title>Node128&#45;&gt;Node139</title>
<path fill="none" stroke="#191970" d="M564.9023,-568.3279C460.6828,-564.4486 233.2126,-552.8655 161,-524 116.5878,-506.2471 76,-505.8289 76,-458 76,-458 76,-458 76,-290 76,-209.2453 197.7473,-186.5651 256.7187,-180.316"/>
<polygon fill="#191970" stroke="#191970" points="565.0724,-571.8362 575.1926,-568.7007 565.3259,-564.8408 565.0724,-571.8362"/>
</g>
<!-- Node141 -->
<g id="node15" class="node">
<title>Node141</title>
<g id="a_node15"><a xlink:href="../../d6/d1e/force_8hpp.html" target="_top" xlink:title="Contains defintion and implementation of sirius::Force class. ">
<polygon fill="#ffffff" stroke="#000000" points="879,-168.5 879,-187.5 927,-187.5 927,-168.5 879,-168.5"/>
<text text-anchor="middle" x="903" y="-175.5" font-family="Helvetica,sans-Serif" font-size="10.00" fill="#000000">force.hpp</text>
</a>
</g>
</g>
<!-- Node128&#45;&gt;Node141 -->
<g id="edge59" class="edge">
<title>Node128&#45;&gt;Node141</title>
<path fill="none" stroke="#191970" d="M670.7907,-565.8994C759.4054,-558.62 934.1522,-542.4572 993,-524 1052.9448,-505.1987 1118,-520.8241 1118,-458 1118,-458 1118,-458 1118,-290 1118,-204.7731 983.4733,-184.2988 927.2453,-179.4634"/>
<polygon fill="#191970" stroke="#191970" points="670.3656,-562.4223 660.6825,-566.7219 670.9334,-569.3993 670.3656,-562.4223"/>
</g>
<!-- Node142 -->
<g id="node16" class="node">
<title>Node142</title>
<g id="a_node16"><a xlink:href="../../d5/d72/non__local__functor_8hpp.html" target="_top" xlink:title="Common operation for forces and stress tensor. ">
<polygon fill="#ffffff" stroke="#000000" points="832,-224.5 832,-243.5 922,-243.5 922,-224.5 832,-224.5"/>
<text text-anchor="middle" x="877" y="-231.5" font-family="Helvetica,sans-Serif" font-size="10.00" fill="#000000">non_local_functor.hpp</text>
</a>
</g>
</g>
<!-- Node128&#45;&gt;Node142 -->
<g id="edge60" class="edge">
<title>Node128&#45;&gt;Node142</title>
<path fill="none" stroke="#191970" d="M670.8063,-567.1419C784.4484,-559.5463 1042,-533.9537 1042,-458 1042,-458 1042,-458 1042,-402 1042,-321.2595 943.794,-265.1075 898.9107,-243.6604"/>
<polygon fill="#191970" stroke="#191970" points="670.3495,-563.664 660.5961,-567.8016 670.801,-570.6495 670.3495,-563.664"/>
</g>
<!-- Node144 -->
<g id="node18" class="node">
<title>Node144</title>
<g id="a_node18"><a xlink:href="../../db/d74/hubbard_8hpp_source.html" target="_top" xlink:title="hubbard.hpp">
<polygon fill="#ffffff" stroke="#000000" points="285.5,-280.5 285.5,-299.5 344.5,-299.5 344.5,-280.5 285.5,-280.5"/>
<text text-anchor="middle" x="315" y="-287.5" font-family="Helvetica,sans-Serif" font-size="10.00" fill="#000000">hubbard.hpp</text>
</a>
</g>
</g>
<!-- Node128&#45;&gt;Node144 -->
<g id="edge55" class="edge">
<title>Node128&#45;&gt;Node144</title>
<path fill="none" stroke="#191970" d="M590.4717,-555.6766C535.5117,-525.7667 411.4305,-451.457 341,-356 327.985,-338.3603 320.4991,-313.3425 317.1455,-299.7348"/>
<polygon fill="#191970" stroke="#191970" points="588.8271,-558.7662 599.2925,-560.4173 592.141,-552.6002 588.8271,-558.7662"/>
</g>
<!-- Node145 -->
<g id="node19" class="node">
<title>Node145</title>
<g id="a_node19"><a xlink:href="../../d2/d5f/beta__projectors_8h.html" target="_top" xlink:title="Contains declaration and implementation of sirius::Beta_projectors class. ">
<polygon fill="#ffffff" stroke="#000000" points="796,-504.5 796,-523.5 870,-523.5 870,-504.5 796,-504.5"/>
<text text-anchor="middle" x="833" y="-511.5" font-family="Helvetica,sans-Serif" font-size="10.00" fill="#000000">beta_projectors.h</text>
</a>
</g>
</g>
<!-- Node128&#45;&gt;Node145 -->
<g id="edge44" class="edge">
<title>Node128&#45;&gt;Node145</title>
<path fill="none" stroke="#191970" d="M664.643,-557.8511C704.2064,-547.5462 760.1697,-532.9697 796.5225,-523.5011"/>
<polygon fill="#191970" stroke="#191970" points="663.7547,-554.4656 654.9598,-560.3733 665.5192,-561.2396 663.7547,-554.4656"/>
</g>
<!-- Node146 -->
<g id="node20" class="node">
<title>Node146</title>
<g id="a_node20"><a xlink:href="../../df/dae/non__local__operator_8h.html" target="_top" xlink:title="Contains declaration and implementation of sirius::Non_local_operator class. ">
<polygon fill="#ffffff" stroke="#000000" points="186.5,-336.5 186.5,-355.5 273.5,-355.5 273.5,-336.5 186.5,-336.5"/>
<text text-anchor="middle" x="230" y="-343.5" font-family="Helvetica,sans-Serif" font-size="10.00" fill="#000000">non_local_operator.h</text>
</a>
</g>
</g>
<!-- Node128&#45;&gt;Node146 -->
<g id="edge54" class="edge">
<title>Node128&#45;&gt;Node146</title>
<path fill="none" stroke="#191970" d="M565.0875,-568.3877C453.3893,-564.4381 201.6395,-552.4463 176,-524 130.38,-473.3859 196.6459,-385.2841 221.3521,-355.8747"/>
<polygon fill="#191970" stroke="#191970" points="565.0132,-571.8872 575.1281,-568.7344 565.2548,-564.8913 565.0132,-571.8872"/>
</g>
<!-- Node148 -->
<g id="node22" class="node">
<title>Node148</title>
<g id="a_node22"><a xlink:href="../../d1/d7f/sirius__internal_8h.html" target="_top" xlink:title="Contains basic definitions and declarations. ">
<polygon fill="#ffffff" stroke="#000000" points="238.5,-112.5 238.5,-131.5 307.5,-131.5 307.5,-112.5 238.5,-112.5"/>
<text text-anchor="middle" x="273" y="-119.5" font-family="Helvetica,sans-Serif" font-size="10.00" fill="#000000">sirius_internal.h</text>
</a>
</g>
</g>
<!-- Node128&#45;&gt;Node148 -->
<g id="edge61" class="edge">
<title>Node128&#45;&gt;Node148</title>
<path fill="none" stroke="#191970" d="M565.295,-568.5092C451.5762,-564.7743 186.629,-553.1397 102,-524 50.9458,-506.4209 0,-511.9959 0,-458 0,-458 0,-458 0,-234 0,-198.4973 15.4153,-187.6262 45,-168 76.2943,-147.2397 182.4737,-132.3636 238.2007,-125.7805"/>
<polygon fill="#191970" stroke="#191970" points="565.3861,-572.0138 575.4931,-568.8362 565.6105,-565.0174 565.3861,-572.0138"/>
</g>
<!-- Node130 -->
<g id="node4" class="node">
<title>Node130</title>
<g id="a_node4"><a xlink:href="../../d9/dc2/band_8h.html" target="_top" xlink:title="Contains declaration and partial implementation of sirius::Band class. ">
<polygon fill="#ffffff" stroke="#000000" points="325.5,-112.5 325.5,-131.5 364.5,-131.5 364.5,-112.5 325.5,-112.5"/>
<text text-anchor="middle" x="345" y="-119.5" font-family="Helvetica,sans-Serif" font-size="10.00" fill="#000000">band.h</text>
</a>
</g>
</g>
<!-- Node129&#45;&gt;Node130 -->
<g id="edge3" class="edge">
<title>Node129&#45;&gt;Node130</title>
<path fill="none" stroke="#191970" d="M568.0495,-510.2967C427.3642,-498.5066 38,-455.9447 38,-346 38,-346 38,-346 38,-234 38,-102.3904 189.7117,-169.0453 316,-132 319.0662,-131.1006 322.2881,-130.0734 325.4244,-129.0279"/>
<polygon fill="#191970" stroke="#191970" points="567.8814,-513.7946 578.1343,-511.1246 568.4542,-506.8181 567.8814,-513.7946"/>
</g>
<!-- Node129&#45;&gt;Node132 -->
<g id="edge43" class="edge">
<title>Node129&#45;&gt;Node132</title>
<path fill="none" stroke="#191970" d="M629.443,-495.2378C646.1606,-466.5175 676.3243,-409.3582 686,-356 694.2067,-310.743 775.5425,-711.2751 685,-112 683.0545,-99.1236 678.2814,-84.8588 674.8492,-75.6791"/>
<polygon fill="#191970" stroke="#191970" points="626.2427,-493.7723 624.1462,-504.1576 632.2615,-497.3464 626.2427,-493.7723"/>
</g>
<!-- Node134 -->
<g id="node8" class="node">
<title>Node134</title>
<g id="a_node8"><a xlink:href="../../d9/d02/k__point_8h.html" target="_top" xlink:title="Contains definition and partial implementation of sirius::K_point class. ">
<polygon fill="#ffffff" stroke="#000000" points="566.5,-448.5 566.5,-467.5 613.5,-467.5 613.5,-448.5 566.5,-448.5"/>
<text text-anchor="middle" x="590" y="-455.5" font-family="Helvetica,sans-Serif" font-size="10.00" fill="#000000">k_point.h</text>
</a>
</g>
</g>
<!-- Node129&#45;&gt;Node134 -->
<g id="edge7" class="edge">
<title>Node129&#45;&gt;Node134</title>
<path fill="none" stroke="#191970" d="M608.5219,-495.0437C603.9165,-485.8331 598.5799,-475.1598 594.8213,-467.6427"/>
<polygon fill="#191970" stroke="#191970" points="605.5201,-496.8665 613.1228,-504.2455 611.7811,-493.736 605.5201,-496.8665"/>
</g>
<!-- Node129&#45;&gt;Node136 -->
<g id="edge40" class="edge">
<title>Node129&#45;&gt;Node136</title>
<path fill="none" stroke="#191970" d="M622.23,-494.2601C629.9642,-458.1669 646.1217,-382.7656 651.894,-355.8279"/>
<polygon fill="#191970" stroke="#191970" points="618.7117,-493.9748 620.0387,-504.4862 625.5563,-495.4416 618.7117,-493.9748"/>
</g>
<!-- Node129&#45;&gt;Node137 -->
<g id="edge39" class="edge">
<title>Node129&#45;&gt;Node137</title>
<path fill="none" stroke="#191970" d="M591.4894,-498.98C579.5514,-491.0816 566.1218,-480.4472 557,-468 516.3081,-412.4734 499.9829,-328.2667 495.4298,-299.7977"/>
<polygon fill="#191970" stroke="#191970" points="589.9019,-502.116 600.2316,-504.4714 593.6253,-496.1884 589.9019,-502.116"/>
</g>
<!-- Node138 -->
<g id="node12" class="node">
<title>Node138</title>
<g id="a_node12"><a xlink:href="../../d3/d2c/local__operator_8hpp.html" target="_top" xlink:title="Contains declaration and implementation of sirius::Local_operator class. ">
<polygon fill="#ffffff" stroke="#000000" points="142.5,-224.5 142.5,-243.5 221.5,-243.5 221.5,-224.5 142.5,-224.5"/>
<text text-anchor="middle" x="182" y="-231.5" font-family="Helvetica,sans-Serif" font-size="10.00" fill="#000000">local_operator.hpp</text>
</a>
</g>
</g>
<!-- Node129&#45;&gt;Node138 -->
<g id="edge38" class="edge">
<title>Node129&#45;&gt;Node138</title>
<path fill="none" stroke="#191970" d="M568.1044,-503.626C462.7341,-480.5987 223.3853,-422.0063 177,-356 152.5014,-321.1386 169.5556,-265.8111 178.0144,-243.6467"/>
<polygon fill="#191970" stroke="#191970" points="567.6587,-507.1105 578.173,-505.807 569.1407,-500.2692 567.6587,-507.1105"/>
</g>
<!-- Node129&#45;&gt;Node141 -->
<g id="edge41" class="edge">
<title>Node129&#45;&gt;Node141</title>
<path fill="none" stroke="#191970" d="M667.5754,-505.3334C712.3176,-496.7543 774.0815,-482.792 794,-468 840.8451,-433.2116 915.1859,-300.1659 931,-244 936.8697,-223.1531 921.825,-200.1546 911.5847,-187.5601"/>
<polygon fill="#191970" stroke="#191970" points="666.9208,-501.8951 657.7414,-507.1856 668.2165,-508.7742 666.9208,-501.8951"/>
</g>
<!-- Node129&#45;&gt;Node142 -->
<g id="edge42" class="edge">
<title>Node129&#45;&gt;Node142</title>
<path fill="none" stroke="#191970" d="M667.8699,-503.9507C706.9338,-495.2292 757.2193,-481.8557 773,-468 810.0819,-435.4416 861.0594,-283.3804 873.9461,-243.5634"/>
<polygon fill="#191970" stroke="#191970" points="666.7206,-500.6193 657.6989,-506.1744 668.2157,-507.4577 666.7206,-500.6193"/>
</g>
<!-- Node131 -->
<g id="node5" class="node">
<title>Node131</title>
<g id="a_node5"><a xlink:href="../../d2/d15/add__nl__h__o__rs_8cpp_source.html" target="_top" xlink:title="add_nl_h_o_rs.cpp">
<polygon fill="#ffffff" stroke="#000000" points="305,-56.5 305,-75.5 385,-75.5 385,-56.5 305,-56.5"/>
<text text-anchor="middle" x="345" y="-63.5" font-family="Helvetica,sans-Serif" font-size="10.00" fill="#000000">add_nl_h_o_rs.cpp</text>
</a>
</g>
</g>
<!-- Node130&#45;&gt;Node131 -->
<g id="edge4" class="edge">
<title>Node130&#45;&gt;Node131</title>
<path fill="none" stroke="#191970" d="M345,-102.1575C345,-93.155 345,-82.9199 345,-75.6427"/>
<polygon fill="#191970" stroke="#191970" points="341.5001,-102.2455 345,-112.2455 348.5001,-102.2456 341.5001,-102.2455"/>
</g>
<!-- Node130&#45;&gt;Node132 -->
<g id="edge5" class="edge">
<title>Node130&#45;&gt;Node132</title>
<path fill="none" stroke="#191970" d="M375.0049,-116.8458C440.6641,-105.5669 595.6287,-78.9472 650.9442,-69.4452"/>
<polygon fill="#191970" stroke="#191970" points="374.1651,-113.4387 364.902,-118.5812 375.3502,-120.3376 374.1651,-113.4387"/>
</g>
<!-- Node133 -->
<g id="node7" class="node">
<title>Node133</title>
<g id="a_node7"><a xlink:href="../../d4/d53/sirius__api_8cpp.html" target="_top" xlink:title="Fortran API. ">
<polygon fill="#ffffff" stroke="#000000" points="460,-.5 460,-19.5 522,-19.5 522,-.5 460,-.5"/>
<text text-anchor="middle" x="491" y="-7.5" font-family="Helvetica,sans-Serif" font-size="10.00" fill="#000000">sirius_api.cpp</text>
</a>
</g>
</g>
<!-- Node132&#45;&gt;Node133 -->
<g id="edge6" class="edge">
<title>Node132&#45;&gt;Node133</title>
<path fill="none" stroke="#191970" d="M641.1304,-56.7072C608.087,-46.4271 555.1111,-29.9457 521.7274,-19.5596"/>
<polygon fill="#191970" stroke="#191970" points="640.1133,-60.0562 650.7016,-59.6849 642.1928,-53.3722 640.1133,-60.0562"/>
</g>
<!-- Node134&#45;&gt;Node132 -->
<g id="edge37" class="edge">
<title>Node134&#45;&gt;Node132</title>
<path fill="none" stroke="#191970" d="M609.1398,-441.302C645.2758,-408.1584 721.7417,-329.8155 742,-244 755.4788,-186.9027 770.0209,-163.5423 742,-112 731.2669,-92.2573 708.0025,-79.6824 691.0194,-72.7595"/>
<polygon fill="#191970" stroke="#191970" points="606.3658,-439.0899 601.2762,-448.3823 611.0497,-444.292 606.3658,-439.0899"/>
</g>
<!-- Node135 -->
<g id="node9" class="node">
<title>Node135</title>
<g id="a_node9"><a xlink:href="../../d8/def/k__point__set_8h.html" target="_top" xlink:title="Contains declaration and partial implementation of sirius::K_point_set class. ">
<polygon fill="#ffffff" stroke="#000000" points="555.5,-392.5 555.5,-411.5 616.5,-411.5 616.5,-392.5 555.5,-392.5"/>
<text text-anchor="middle" x="586" y="-399.5" font-family="Helvetica,sans-Serif" font-size="10.00" fill="#000000">k_point_set.h</text>
</a>
</g>
</g>
<!-- Node134&#45;&gt;Node135 -->
<g id="edge8" class="edge">
<title>Node134&#45;&gt;Node135</title>
<path fill="none" stroke="#191970" d="M588.5827,-438.1575C587.9396,-429.155 587.2086,-418.9199 586.6888,-411.6427"/>
<polygon fill="#191970" stroke="#191970" points="585.0996,-438.5204 589.3033,-448.2455 592.0818,-438.0216 585.0996,-438.5204"/>
</g>
<!-- Node134&#45;&gt;Node139 -->
<g id="edge36" class="edge">
<title>Node134&#45;&gt;Node139</title>
<path fill="none" stroke="#191970" d="M572.1638,-441.4631C515.7874,-389.1936 342.5545,-228.5803 298.3518,-187.5977"/>
<polygon fill="#191970" stroke="#191970" points="569.8917,-444.1294 579.6045,-448.3618 574.651,-438.9962 569.8917,-444.1294"/>
</g>
<!-- Node134&#45;&gt;Node144 -->
<g id="edge32" class="edge">
<title>Node134&#45;&gt;Node144</title>
<path fill="none" stroke="#191970" d="M556.7851,-448.8464C510.021,-434.7427 423.8112,-404.1754 364,-356 343.9946,-339.8865 327.8969,-313.8032 320.1021,-299.7364"/>
<polygon fill="#191970" stroke="#191970" points="555.8343,-452.215 566.4159,-451.6856 557.8137,-445.5007 555.8343,-452.215"/>
</g>
<!-- Node135&#45;&gt;Node130 -->
<g id="edge9" class="edge">
<title>Node135&#45;&gt;Node130</title>
<path fill="none" stroke="#191970" d="M562.5553,-386.6595C535.5261,-368.2291 490.7508,-335.3447 459,-300 407.5,-242.6706 363.7801,-159.6188 349.7311,-131.6231"/>
<polygon fill="#191970" stroke="#191970" points="560.7461,-389.6606 570.997,-392.3383 564.6533,-383.8525 560.7461,-389.6606"/>
</g>
<!-- Node135&#45;&gt;Node132 -->
<g id="edge31" class="edge">
<title>Node135&#45;&gt;Node132</title>
<path fill="none" stroke="#191970" d="M592.1244,-382.5477C601.3712,-352.8445 619.1768,-294.3247 632,-244 648.2479,-180.235 663.8391,-102.5803 669.1145,-75.7015"/>
<polygon fill="#191970" stroke="#191970" points="588.6739,-381.8548 589.0277,-392.4437 595.3545,-383.9453 588.6739,-381.8548"/>
</g>
<!-- Node135&#45;&gt;Node136 -->
<g id="edge10" class="edge">
<title>Node135&#45;&gt;Node136</title>
<path fill="none" stroke="#191970" d="M605.8596,-385.645C617.6858,-375.9058 632.2892,-363.8795 642.291,-355.6427"/>
<polygon fill="#191970" stroke="#191970" points="603.339,-383.1867 597.8447,-392.2455 607.789,-388.5902 603.339,-383.1867"/>
</g>
<!-- Node140 -->
<g id="node14" class="node">
<title>Node140</title>
<g id="a_node14"><a xlink:href="../../d6/df1/dft__ground__state_8h.html" target="_top" xlink:title="Contains definition and partial implementation of sirius::DFT_ground_state class. ...">
<polygon fill="#ffffff" stroke="#000000" points="544.5,-224.5 544.5,-243.5 623.5,-243.5 623.5,-224.5 544.5,-224.5"/>
<text text-anchor="middle" x="584" y="-231.5" font-family="Helvetica,sans-Serif" font-size="10.00" fill="#000000">dft_ground_state.h</text>
</a>
</g>
</g>
<!-- Node135&#45;&gt;Node140 -->
<g id="edge30" class="edge">
<title>Node135&#45;&gt;Node140</title>
<path fill="none" stroke="#191970" d="M578.7381,-382.7C576.0494,-374.581 573.3327,-364.9561 572,-356 567.0285,-322.5901 567.7019,-313.5032 572,-280 573.6383,-267.2294 577.736,-252.9414 580.6873,-243.7276"/>
<polygon fill="#191970" stroke="#191970" points="575.5064,-384.0598 582.1376,-392.3228 582.1067,-381.728 575.5064,-384.0598"/>
</g>
<!-- Node136&#45;&gt;Node132 -->
<g id="edge29" class="edge">
<title>Node136&#45;&gt;Node132</title>
<path fill="none" stroke="#191970" d="M656.8182,-326.4952C659.656,-306.0029 663.9049,-272.8093 666,-244 670.664,-179.8662 671.0498,-102.442 671.0305,-75.6626"/>
<polygon fill="#191970" stroke="#191970" points="653.3431,-326.0732 655.4094,-336.4646 660.2743,-327.0527 653.3431,-326.0732"/>
</g>
<!-- Node136&#45;&gt;Node137 -->
<g id="edge11" class="edge">
<title>Node136&#45;&gt;Node137</title>
<path fill="none" stroke="#191970" d="M620.7526,-334.3634C590.667,-323.8335 546.9905,-308.5467 519.5598,-298.9459"/>
<polygon fill="#191970" stroke="#191970" points="619.7966,-337.7369 630.3914,-337.737 622.1091,-331.1299 619.7966,-337.7369"/>
</g>
<!-- Node136&#45;&gt;Node140 -->
<g id="edge26" class="edge">
<title>Node136&#45;&gt;Node140</title>
<path fill="none" stroke="#191970" d="M642.6829,-327.8927C627.6437,-303.8299 601.6158,-262.1853 589.9531,-243.5249"/>
<polygon fill="#191970" stroke="#191970" points="639.7638,-329.826 648.0318,-336.4509 645.6998,-326.1159 639.7638,-329.826"/>
</g>
<!-- Node136&#45;&gt;Node141 -->
<g id="edge27" class="edge">
<title>Node136&#45;&gt;Node141</title>
<path fill="none" stroke="#191970" d="M674.3847,-330.2295C705.669,-306.271 767.7102,-259.7167 823,-224 843.8591,-210.5252 868.7865,-196.5043 885.209,-187.5383"/>
<polygon fill="#191970" stroke="#191970" points="672.2039,-327.4913 666.4077,-336.3601 676.4695,-333.0416 672.2039,-327.4913"/>
</g>
<!-- Node136&#45;&gt;Node142 -->
<g id="edge28" class="edge">
<title>Node136&#45;&gt;Node142</title>
<path fill="none" stroke="#191970" d="M682.148,-331.8629C728.2731,-308.6969 818.7438,-263.2587 858.0353,-243.5249"/>
<polygon fill="#191970" stroke="#191970" points="680.3782,-328.835 673.0129,-336.4509 683.52,-335.0904 680.3782,-328.835"/>
</g>
<!-- Node137&#45;&gt;Node132 -->
<g id="edge25" class="edge">
<title>Node137&#45;&gt;Node132</title>
<path fill="none" stroke="#191970" d="M496.6329,-270.2011C499.0945,-256.5138 503.6875,-238.2719 512,-224 551.1717,-156.7447 626.1835,-98.1402 657.1268,-75.7191"/>
<polygon fill="#191970" stroke="#191970" points="493.1188,-270.0194 495.0315,-280.4402 500.0347,-271.1011 493.1188,-270.0194"/>
</g>
<!-- Node137&#45;&gt;Node138 -->
<g id="edge12" class="edge">
<title>Node137&#45;&gt;Node138</title>
<path fill="none" stroke="#191970" d="M458.5519,-283.6375C399.8673,-273.1044 282.9313,-252.1159 221.6127,-241.11"/>
<polygon fill="#191970" stroke="#191970" points="458.0067,-287.0955 468.4677,-285.4173 459.2434,-280.2056 458.0067,-287.0955"/>
</g>
<!-- Node137&#45;&gt;Node139 -->
<g id="edge16" class="edge">
<title>Node137&#45;&gt;Node139</title>
<path fill="none" stroke="#191970" d="M467.4608,-275.5709C424.6905,-252.3171 341.6633,-207.1761 305.519,-187.5249"/>
<polygon fill="#191970" stroke="#191970" points="465.9793,-278.7492 476.4366,-280.4509 469.3229,-272.5994 465.9793,-278.7492"/>
</g>
<!-- Node137&#45;&gt;Node140 -->
<g id="edge17" class="edge">
<title>Node137&#45;&gt;Node140</title>
<path fill="none" stroke="#191970" d="M518.4784,-274.769C534.4266,-264.8456 554.751,-252.1994 568.5028,-243.6427"/>
<polygon fill="#191970" stroke="#191970" points="516.3183,-271.9908 509.6768,-280.2455 520.0165,-277.9342 516.3183,-271.9908"/>
</g>
<!-- Node137&#45;&gt;Node141 -->
<g id="edge19" class="edge">
<title>Node137&#45;&gt;Node141</title>
<path fill="none" stroke="#191970" d="M500.5663,-270.8833C506.8878,-255.558 518.0179,-234.8764 535,-224 592.4046,-187.2346 806.6212,-179.8181 878.9614,-178.3526"/>
<polygon fill="#191970" stroke="#191970" points="497.2115,-269.8597 496.9453,-280.4512 503.7584,-272.3374 497.2115,-269.8597"/>
</g>
<!-- Node137&#45;&gt;Node142 -->
<g id="edge21" class="edge">
<title>Node137&#45;&gt;Node142</title>
<path fill="none" stroke="#191970" d="M529.8262,-284.7617C599.9301,-274.5115 755.087,-251.8254 831.9889,-240.5813"/>
<polygon fill="#191970" stroke="#191970" points="529.1128,-281.3287 519.7244,-286.2387 530.1256,-288.2551 529.1128,-281.3287"/>
</g>
<!-- Node138&#45;&gt;Node130 -->
<g id="edge13" class="edge">
<title>Node138&#45;&gt;Node130</title>
<path fill="none" stroke="#191970" d="M196.2409,-216.7626C208.7692,-202.3849 228.0723,-182.0501 248,-168 272.6768,-150.6016 304.9658,-136.8023 325.351,-129.0142"/>
<polygon fill="#191970" stroke="#191970" points="193.515,-214.5653 189.6938,-224.4471 198.8433,-219.105 193.515,-214.5653"/>
</g>
<!-- Node138&#45;&gt;Node139 -->
<g id="edge14" class="edge">
<title>Node138&#45;&gt;Node139</title>
<path fill="none" stroke="#191970" d="M209.5222,-219.46C228.4908,-209.4388 253.1727,-196.3993 269.7478,-187.6427"/>
<polygon fill="#191970" stroke="#191970" points="207.6708,-216.4796 200.4638,-224.2455 210.9407,-222.669 207.6708,-216.4796"/>
</g>
<!-- Node139&#45;&gt;Node130 -->
<g id="edge15" class="edge">
<title>Node139&#45;&gt;Node130</title>
<path fill="none" stroke="#191970" d="M305.2271,-161.0751C315.0341,-151.4402 326.964,-139.7196 335.1851,-131.6427"/>
<polygon fill="#191970" stroke="#191970" points="302.6091,-158.7406 297.9286,-168.2455 307.5149,-163.734 302.6091,-158.7406"/>
</g>
<!-- Node140&#45;&gt;Node132 -->
<g id="edge18" class="edge">
<title>Node140&#45;&gt;Node132</title>
<path fill="none" stroke="#191970" d="M591.0185,-214.9598C600.3687,-190.4454 618.0667,-146.8545 638,-112 645.5143,-98.8609 655.9299,-84.8834 663.0369,-75.831"/>
<polygon fill="#191970" stroke="#191970" points="587.6751,-213.9074 587.4358,-224.4995 594.2282,-216.3685 587.6751,-213.9074"/>
</g>
<!-- Node141&#45;&gt;Node132 -->
<g id="edge20" class="edge">
<title>Node141&#45;&gt;Node132</title>
<path fill="none" stroke="#191970" d="M901.8513,-158.1664C899.918,-143.3628 894.8935,-123.7422 882,-112 853.9337,-86.4399 738.2452,-72.5342 691.1169,-67.8384"/>
<polygon fill="#191970" stroke="#191970" points="898.3867,-158.7086 902.8062,-168.3376 905.356,-158.0542 898.3867,-158.7086"/>
</g>
<!-- Node142&#45;&gt;Node141 -->
<g id="edge22" class="edge">
<title>Node142&#45;&gt;Node141</title>
<path fill="none" stroke="#191970" d="M885.8011,-215.0437C890.0775,-205.8331 895.033,-195.1598 898.523,-187.6427"/>
<polygon fill="#191970" stroke="#191970" points="882.5655,-213.7015 881.5289,-224.2455 888.9146,-216.6494 882.5655,-213.7015"/>
</g>
<!-- Node143 -->
<g id="node17" class="node">
<title>Node143</title>
<g id="a_node17"><a xlink:href="../../d7/dd1/stress_8hpp.html" target="_top" xlink:title="Stress tensor calculation. ">
<polygon fill="#ffffff" stroke="#000000" points="821.5,-112.5 821.5,-131.5 872.5,-131.5 872.5,-112.5 821.5,-112.5"/>
<text text-anchor="middle" x="847" y="-119.5" font-family="Helvetica,sans-Serif" font-size="10.00" fill="#000000">stress.hpp</text>
</a>
</g>
</g>
<!-- Node142&#45;&gt;Node143 -->
<g id="edge23" class="edge">
<title>Node142&#45;&gt;Node143</title>
<path fill="none" stroke="#191970" d="M871.8032,-214.5987C865.3115,-190.363 854.4612,-149.8551 849.5513,-131.5249"/>
<polygon fill="#191970" stroke="#191970" points="868.474,-215.6971 874.4422,-224.4509 875.2356,-213.8859 868.474,-215.6971"/>
</g>
<!-- Node143&#45;&gt;Node132 -->
<g id="edge24" class="edge">
<title>Node143&#45;&gt;Node132</title>
<path fill="none" stroke="#191970" d="M811.74,-110.7809C775.5591,-99.2688 720.5312,-81.7599 691.1506,-72.4115"/>
<polygon fill="#191970" stroke="#191970" points="810.8176,-114.1603 821.4081,-113.8571 812.9401,-107.4898 810.8176,-114.1603"/>
</g>
<!-- Node144&#45;&gt;Node130 -->
<g id="edge33" class="edge">
<title>Node144&#45;&gt;Node130</title>
<path fill="none" stroke="#191970" d="M318.525,-270.2601C324.9702,-234.1669 338.4347,-158.7656 343.245,-131.8279"/>
<polygon fill="#191970" stroke="#191970" points="315.0114,-270.0267 316.6989,-280.4862 321.9024,-271.2573 315.0114,-270.0267"/>
</g>
<!-- Node144&#45;&gt;Node139 -->
<g id="edge34" class="edge">
<title>Node144&#45;&gt;Node139</title>
<path fill="none" stroke="#191970" d="M310.3229,-270.5987C304.4804,-246.363 294.7151,-205.8551 290.2962,-187.5249"/>
<polygon fill="#191970" stroke="#191970" points="306.9518,-271.5497 312.698,-280.4509 313.7569,-269.9092 306.9518,-271.5497"/>
</g>
<!-- Node144&#45;&gt;Node140 -->
<g id="edge35" class="edge">
<title>Node144&#45;&gt;Node140</title>
<path fill="none" stroke="#191970" d="M354.5285,-281.771C405.4448,-271.1713 493.4367,-252.8533 544.3917,-242.2456"/>
<polygon fill="#191970" stroke="#191970" points="353.6339,-278.3821 344.5572,-283.8468 355.0607,-285.2352 353.6339,-278.3821"/>
</g>
<!-- Node145&#45;&gt;Node134 -->
<g id="edge45" class="edge">
<title>Node145&#45;&gt;Node134</title>
<path fill="none" stroke="#191970" d="M785.8999,-503.1457C734.202,-491.2317 653.2842,-472.584 613.5799,-463.434"/>
<polygon fill="#191970" stroke="#191970" points="785.2984,-506.5987 795.829,-505.4338 786.8704,-499.7775 785.2984,-506.5987"/>
</g>
<!-- Node145&#45;&gt;Node141 -->
<g id="edge52" class="edge">
<title>Node145&#45;&gt;Node141</title>
<path fill="none" stroke="#191970" d="M879.96,-502.8554C951.6092,-484.4661 1080,-445.4516 1080,-402 1080,-402 1080,-402 1080,-290 1080,-218.544 975.7158,-190.7964 927.24,-181.7581"/>
<polygon fill="#191970" stroke="#191970" points="879.0827,-499.467 870.2458,-505.3116 880.7987,-506.2534 879.0827,-499.467"/>
</g>
<!-- Node145&#45;&gt;Node142 -->
<g id="edge53" class="edge">
<title>Node145&#45;&gt;Node142</title>
<path fill="none" stroke="#191970" d="M844.3548,-495.2854C848.7377,-487.178 853.3306,-477.4041 856,-468 879.9462,-383.638 878.4824,-275.9288 877.3992,-243.5921"/>
<polygon fill="#191970" stroke="#191970" points="841.1771,-493.792 839.2561,-504.2112 847.2553,-497.2641 841.1771,-493.792"/>
</g>
<!-- Node145&#45;&gt;Node146 -->
<g id="edge46" class="edge">
<title>Node145&#45;&gt;Node146</title>
<path fill="none" stroke="#191970" d="M785.6918,-508.9181C730.2503,-502.3209 635.92,-489.0892 557,-468 438.4581,-436.3229 302.8474,-378.4239 251.3436,-355.6074"/>
<polygon fill="#191970" stroke="#191970" points="785.5737,-512.428 795.9121,-510.1114 786.3855,-505.4753 785.5737,-512.428"/>
</g>
<!-- Node147 -->
<g id="node21" class="node">
<title>Node147</title>
<g id="a_node21"><a xlink:href="../../d4/d0f/beta__projectors__gradient_8h.html" target="_top" xlink:title="Contains declaration and implementation of sirius::Beta_projectors_gradient class. ">
<polygon fill="#ffffff" stroke="#000000" points="908,-392.5 908,-411.5 1014,-411.5 1014,-392.5 908,-392.5"/>
<text text-anchor="middle" x="961" y="-399.5" font-family="Helvetica,sans-Serif" font-size="10.00" fill="#000000">beta_projectors_gradient.h</text>
</a>
</g>
</g>
<!-- Node145&#45;&gt;Node147 -->
<g id="edge50" class="edge">
<title>Node145&#45;&gt;Node147</title>
<path fill="none" stroke="#191970" d="M855.366,-498.2252C867.1511,-489.6442 881.6771,-478.6348 894,-468 915.7554,-449.2248 939.2651,-425.0702 951.8341,-411.8071"/>
<polygon fill="#191970" stroke="#191970" points="853.0423,-495.5853 846.97,-504.2674 857.1311,-501.267 853.0423,-495.5853"/>
</g>
<!-- Node146&#45;&gt;Node130 -->
<g id="edge47" class="edge">
<title>Node146&#45;&gt;Node130</title>
<path fill="none" stroke="#191970" d="M203.0901,-331.3311C166.8893,-309.5542 109.5923,-266.6412 133,-224 155.3083,-183.3616 179.4803,-188.6216 221,-168 230.6653,-163.1995 293.0087,-140.6416 325.4467,-128.9965"/>
<polygon fill="#191970" stroke="#191970" points="201.376,-334.3831 211.7773,-336.3991 204.9034,-328.3368 201.376,-334.3831"/>
</g>
<!-- Node146&#45;&gt;Node139 -->
<g id="edge49" class="edge">
<title>Node146&#45;&gt;Node139</title>
<path fill="none" stroke="#191970" d="M236.6539,-326.7267C249.05,-290.8207 275.2669,-214.8822 284.607,-187.8279"/>
<polygon fill="#191970" stroke="#191970" points="233.2396,-325.8915 233.2845,-336.4862 239.8563,-328.1759 233.2396,-325.8915"/>
</g>
<!-- Node146&#45;&gt;Node144 -->
<g id="edge48" class="edge">
<title>Node146&#45;&gt;Node144</title>
<path fill="none" stroke="#191970" d="M253.5419,-330.49C268.539,-320.6096 287.4973,-308.1194 300.3638,-299.6427"/>
<polygon fill="#191970" stroke="#191970" points="251.2309,-327.8212 244.8059,-336.2455 255.0821,-333.6666 251.2309,-327.8212"/>
</g>
<!-- Node147&#45;&gt;Node141 -->
<g id="edge51" class="edge">
<title>Node147&#45;&gt;Node141</title>
<path fill="none" stroke="#191970" d="M966.7917,-382.8142C975.9297,-348.7624 990.1232,-276.4179 964,-224 955.7172,-207.3801 938.2503,-195.1809 924.1216,-187.5378"/>
<polygon fill="#191970" stroke="#191970" points="963.4201,-381.8752 964.06,-392.4507 970.1547,-383.7843 963.4201,-381.8752"/>
</g>
<!-- Node148&#45;&gt;Node132 -->
<g id="edge62" class="edge">
<title>Node148&#45;&gt;Node132</title>
<path fill="none" stroke="#191970" d="M317.5867,-111.8459C450.0555,-88.363 597.896,-73.0428 650.8752,-67.8977"/>
<polygon fill="#191970" stroke="#191970" points="316.8972,-108.4136 307.6722,-113.6241 318.1331,-115.3036 316.8972,-108.4136"/>
</g>
<!-- Node148&#45;&gt;Node133 -->
<g id="edge63" class="edge">
<title>Node148&#45;&gt;Node133</title>
<path fill="none" stroke="#191970" d="M274.8498,-102.1891C277.2855,-87.3977 282.9281,-67.7825 296,-56 319.899,-34.4583 411.0917,-20.0284 459.8369,-13.6813"/>
<polygon fill="#191970" stroke="#191970" points="271.3472,-101.9854 273.5424,-112.3503 278.29,-102.8787 271.3472,-101.9854"/>
</g>
</g>
</svg>
