<?xml version="1.0" encoding="UTF-8" standalone="no"?>
<!DOCTYPE svg PUBLIC "-//W3C//DTD SVG 1.1//EN"
 "http://www.w3.org/Graphics/SVG/1.1/DTD/svg11.dtd">
<!-- Generated by graphviz version 2.40.1 (20161225.0304)
 -->
<!-- Title: local_operator.hpp Pages: 1 -->
<svg width="414pt" height="140pt"
 viewBox="0.00 0.00 413.50 140.00" xmlns="http://www.w3.org/2000/svg" xmlns:xlink="http://www.w3.org/1999/xlink">
<g id="graph0" class="graph" transform="scale(1 1) rotate(0) translate(4 136)">
<title>local_operator.hpp</title>
<polygon fill="#ffffff" stroke="transparent" points="-4,4 -4,-136 409.5,-136 409.5,4 -4,4"/>
<!-- Node1 -->
<g id="node1" class="node">
<title>Node1</title>
<g id="a_node1"><a xlink:title="Declaration of sirius::Local_operator class.">
<polygon fill="#bfbfbf" stroke="#000000" points="162,-112.5 162,-131.5 261,-131.5 261,-112.5 162,-112.5"/>
<text text-anchor="middle" x="211.5" y="-119.5" font-family="Helvetica,sans-Serif" font-size="10.00" fill="#000000">local_operator.hpp</text>
</a>
</g>
</g>
<!-- Node2 -->
<g id="node2" class="node">
<title>Node2</title>
<g id="a_node2"><a xlink:href="../../db/d8b/hamiltonian_8cpp.html" target="_top" xlink:title="Contains definition of sirius::Hamiltonian0 class.">
<polygon fill="#ffffff" stroke="#000000" points="0,-56.5 0,-75.5 87,-75.5 87,-56.5 0,-56.5"/>
<text text-anchor="middle" x="43.5" y="-63.5" font-family="Helvetica,sans-Serif" font-size="10.00" fill="#000000">hamiltonian.cpp</text>
</a>
</g>
</g>
<!-- Node1&#45;&gt;Node2 -->
<g id="edge1" class="edge">
<title>Node1&#45;&gt;Node2</title>
<path fill="none" stroke="#191970" d="M173.0714,-109.1905C142.2927,-98.9309 99.8074,-84.7691 72.0034,-75.5011"/>
<polygon fill="#191970" stroke="#191970" points="172.0261,-112.5313 182.6198,-112.3733 174.2398,-105.8905 172.0261,-112.5313"/>
</g>
<!-- Node3 -->
<g id="node3" class="node">
<title>Node3</title>
<g id="a_node3"><a xlink:href="../../d3/d3d/hamiltonian__k_8cpp.html" target="_top" xlink:title="Contains definition of sirius::Hamiltonian_k class.">
<polygon fill="#ffffff" stroke="#000000" points="105,-56.5 105,-75.5 202,-75.5 202,-56.5 105,-56.5"/>
<text text-anchor="middle" x="153.5" y="-63.5" font-family="Helvetica,sans-Serif" font-size="10.00" fill="#000000">hamiltonian_k.cpp</text>
</a>
</g>
</g>
<!-- Node1&#45;&gt;Node3 -->
<g id="edge2" class="edge">
<title>Node1&#45;&gt;Node3</title>
<path fill="none" stroke="#191970" d="M193.9707,-105.0751C183.9917,-95.4402 171.8524,-83.7196 163.4871,-75.6427"/>
<polygon fill="#191970" stroke="#191970" points="191.772,-107.8175 201.3972,-112.2455 196.6342,-102.7817 191.772,-107.8175"/>
</g>
<!-- Node4 -->
<g id="node4" class="node">
<title>Node4</title>
<g id="a_node4"><a xlink:href="../../de/d63/local__operator_8cpp.html" target="_top" xlink:title="Implementation of sirius::Local_operator class.">
<polygon fill="#ffffff" stroke="#000000" points="220,-56.5 220,-75.5 319,-75.5 319,-56.5 220,-56.5"/>
<text text-anchor="middle" x="269.5" y="-63.5" font-family="Helvetica,sans-Serif" font-size="10.00" fill="#000000">local_operator.cpp</text>
</a>
</g>
</g>
<!-- Node1&#45;&gt;Node4 -->
<g id="edge3" class="edge">
<title>Node1&#45;&gt;Node4</title>
<path fill="none" stroke="#191970" d="M229.0293,-105.0751C239.0083,-95.4402 251.1476,-83.7196 259.5129,-75.6427"/>
<polygon fill="#191970" stroke="#191970" points="226.3658,-102.7817 221.6028,-112.2455 231.228,-107.8175 226.3658,-102.7817"/>
</g>
<!-- Node5 -->
<g id="node5" class="node">
<title>Node5</title>
<g id="a_node5"><a xlink:href="../../d2/d92/sirius_8hpp.html" target="_top" xlink:title="&quot;All&#45;in&#45;one&quot; include file.">
<polygon fill="#ffffff" stroke="#000000" points="337,-56.5 337,-75.5 396,-75.5 396,-56.5 337,-56.5"/>
<text text-anchor="middle" x="366.5" y="-63.5" font-family="Helvetica,sans-Serif" font-size="10.00" fill="#000000">sirius.hpp</text>
</a>
</g>
</g>
<!-- Node1&#45;&gt;Node5 -->
<g id="edge4" class="edge">
<title>Node1&#45;&gt;Node5</title>
<path fill="none" stroke="#191970" d="M247.6949,-108.9231C276.0297,-98.686 314.7718,-84.6889 340.2022,-75.5011"/>
<polygon fill="#191970" stroke="#191970" points="246.3612,-105.6835 238.1454,-112.3733 248.7398,-112.267 246.3612,-105.6835"/>
</g>
<!-- Node6 -->
<g id="node6" class="node">
<title>Node6</title>
<g id="a_node6"><a xlink:href="../../d4/d53/sirius__api_8cpp.html" target="_top" xlink:title="Fortran API.">
<polygon fill="#ffffff" stroke="#000000" points="327.5,-.5 327.5,-19.5 405.5,-19.5 405.5,-.5 327.5,-.5"/>
<text text-anchor="middle" x="366.5" y="-7.5" font-family="Helvetica,sans-Serif" font-size="10.00" fill="#000000">sirius_api.cpp</text>
</a>
</g>
</g>
<!-- Node5&#45;&gt;Node6 -->
<g id="edge5" class="edge">
<title>Node5&#45;&gt;Node6</title>
<path fill="none" stroke="#191970" d="M366.5,-46.1575C366.5,-37.155 366.5,-26.9199 366.5,-19.6427"/>
<polygon fill="#191970" stroke="#191970" points="363.0001,-46.2455 366.5,-56.2455 370.0001,-46.2456 363.0001,-46.2455"/>
</g>
</g>
</svg>
