<?xml version="1.0" encoding="UTF-8" standalone="no"?>
<!DOCTYPE svg PUBLIC "-//W3C//DTD SVG 1.1//EN"
 "http://www.w3.org/Graphics/SVG/1.1/DTD/svg11.dtd">
<!-- Generated by graphviz version 2.40.1 (20161225.0304)
 -->
<!-- Title: json.hpp Pages: 1 -->
<svg width="607pt" height="1204pt"
 viewBox="0.00 0.00 606.50 1204.00" xmlns="http://www.w3.org/2000/svg" xmlns:xlink="http://www.w3.org/1999/xlink">
<g id="graph0" class="graph" transform="scale(1 1) rotate(0) translate(4 1200)">
<title>json.hpp</title>
<polygon fill="#ffffff" stroke="transparent" points="-4,4 -4,-1200 602.5,-1200 602.5,4 -4,4"/>
<!-- Node34 -->
<g id="node1" class="node">
<title>Node34</title>
<polygon fill="#bfbfbf" stroke="#000000" points="80,-1176.5 80,-1195.5 134,-1195.5 134,-1176.5 80,-1176.5"/>
<text text-anchor="middle" x="107" y="-1183.5" font-family="Helvetica,sans-Serif" font-size="10.00" fill="#000000">json.hpp</text>
</g>
<!-- Node35 -->
<g id="node2" class="node">
<title>Node35</title>
<g id="a_node2"><a xlink:href="../../df/dc4/dft__ground__state_8hpp.html" target="_top" xlink:title="Contains definition and partial implementation of sirius::DFT_ground_state class. ...">
<polygon fill="#ffffff" stroke="#000000" points="132.5,-224.5 132.5,-243.5 243.5,-243.5 243.5,-224.5 132.5,-224.5"/>
<text text-anchor="middle" x="188" y="-231.5" font-family="Helvetica,sans-Serif" font-size="10.00" fill="#000000">dft_ground_state.hpp</text>
</a>
</g>
</g>
<!-- Node34&#45;&gt;Node35 -->
<g id="edge1" class="edge">
<title>Node34&#45;&gt;Node35</title>
<path fill="none" stroke="#191970" d="M98.3184,-1166.9078C89.1477,-1144.9632 76,-1107.6364 76,-1074 76,-1074 76,-1074 76,-402 76,-331.191 145.7334,-267.5273 175.1522,-243.8199"/>
<polygon fill="#191970" stroke="#191970" points="95.2307,-1168.5844 102.4258,-1176.3613 101.6509,-1165.7949 95.2307,-1168.5844"/>
</g>
<!-- Node36 -->
<g id="node3" class="node">
<title>Node36</title>
<g id="a_node3"><a xlink:href="../../dd/dc2/sirius_8h.html" target="_top" xlink:title="&quot;All&#45;in&#45;one&quot; include file. ">
<polygon fill="#ffffff" stroke="#000000" points="66,-56.5 66,-75.5 114,-75.5 114,-56.5 66,-56.5"/>
<text text-anchor="middle" x="90" y="-63.5" font-family="Helvetica,sans-Serif" font-size="10.00" fill="#000000">sirius.h</text>
</a>
</g>
</g>
<!-- Node34&#45;&gt;Node36 -->
<g id="edge48" class="edge">
<title>Node34&#45;&gt;Node36</title>
<path fill="none" stroke="#191970" d="M77.9759,-1171.5332C46.2892,-1153.4482 0,-1119.2801 0,-1074 0,-1074 0,-1074 0,-178 0,-131.1044 48.5376,-92.6844 74.3232,-75.5825"/>
<polygon fill="#191970" stroke="#191970" points="76.4232,-1174.6734 86.8741,-1176.4139 79.7896,-1168.536 76.4232,-1174.6734"/>
</g>
<!-- Node38 -->
<g id="node5" class="node">
<title>Node38</title>
<g id="a_node5"><a xlink:href="../../d4/d91/unit__cell_8hpp.html" target="_top" xlink:title="Contains definition and partial implementation of sirius::Unit_cell class. ">
<polygon fill="#ffffff" stroke="#000000" points="407.5,-672.5 407.5,-691.5 480.5,-691.5 480.5,-672.5 407.5,-672.5"/>
<text text-anchor="middle" x="444" y="-679.5" font-family="Helvetica,sans-Serif" font-size="10.00" fill="#000000">unit_cell.hpp</text>
</a>
</g>
</g>
<!-- Node34&#45;&gt;Node38 -->
<g id="edge4" class="edge">
<title>Node34&#45;&gt;Node38</title>
<path fill="none" stroke="#191970" d="M144.3165,-1185.058C255.3589,-1181.2539 576,-1162.5986 576,-1074 576,-1074 576,-1074 576,-794 576,-740.0526 511.1033,-706.6941 472.3173,-691.5746"/>
<polygon fill="#191970" stroke="#191970" points="144.125,-1181.5623 134.2426,-1185.3816 144.3499,-1188.5587 144.125,-1181.5623"/>
</g>
<!-- Node53 -->
<g id="node20" class="node">
<title>Node53</title>
<g id="a_node20"><a xlink:href="../../df/d05/timer_8hpp.html" target="_top" xlink:title="Implementation of utils::timer class. ">
<polygon fill="#ffffff" stroke="#000000" points="107,-1120.5 107,-1139.5 165,-1139.5 165,-1120.5 107,-1120.5"/>
<text text-anchor="middle" x="136" y="-1127.5" font-family="Helvetica,sans-Serif" font-size="10.00" fill="#000000">timer.hpp</text>
</a>
</g>
</g>
<!-- Node34&#45;&gt;Node53 -->
<g id="edge33" class="edge">
<title>Node34&#45;&gt;Node53</title>
<path fill="none" stroke="#191970" d="M116.6647,-1167.3372C121.4687,-1158.0605 127.0723,-1147.2398 131.0065,-1139.6427"/>
<polygon fill="#191970" stroke="#191970" points="113.542,-1165.7561 112.0514,-1176.2455 119.758,-1168.9751 113.542,-1165.7561"/>
</g>
<!-- Node35&#45;&gt;Node36 -->
<g id="edge2" class="edge">
<title>Node35&#45;&gt;Node36</title>
<path fill="none" stroke="#191970" d="M177.2937,-215.6463C156.5779,-180.1336 111.6506,-103.1154 95.7329,-75.8279"/>
<polygon fill="#191970" stroke="#191970" points="174.3883,-217.612 182.4503,-224.4862 180.4348,-214.0849 174.3883,-217.612"/>
</g>
<!-- Node37 -->
<g id="node4" class="node">
<title>Node37</title>
<g id="a_node4"><a xlink:href="../../d4/d53/sirius__api_8cpp.html" target="_top" xlink:title="Fortran API. ">
<polygon fill="#ffffff" stroke="#000000" points="51,-.5 51,-19.5 129,-19.5 129,-.5 51,-.5"/>
<text text-anchor="middle" x="90" y="-7.5" font-family="Helvetica,sans-Serif" font-size="10.00" fill="#000000">sirius_api.cpp</text>
</a>
</g>
</g>
<!-- Node36&#45;&gt;Node37 -->
<g id="edge3" class="edge">
<title>Node36&#45;&gt;Node37</title>
<path fill="none" stroke="#191970" d="M90,-46.1575C90,-37.155 90,-26.9199 90,-19.6427"/>
<polygon fill="#191970" stroke="#191970" points="86.5001,-46.2455 90,-56.2455 93.5001,-46.2456 86.5001,-46.2455"/>
</g>
<!-- Node39 -->
<g id="node6" class="node">
<title>Node39</title>
<g id="a_node6"><a xlink:href="../../d4/df7/radial__integrals_8hpp.html" target="_top" xlink:title="Representation of various radial integrals. ">
<polygon fill="#ffffff" stroke="#000000" points="336,-560.5 336,-579.5 440,-579.5 440,-560.5 336,-560.5"/>
<text text-anchor="middle" x="388" y="-567.5" font-family="Helvetica,sans-Serif" font-size="10.00" fill="#000000">radial_integrals.hpp</text>
</a>
</g>
</g>
<!-- Node38&#45;&gt;Node39 -->
<g id="edge5" class="edge">
<title>Node38&#45;&gt;Node39</title>
<path fill="none" stroke="#191970" d="M425.8426,-665.1358C418.0746,-657.0136 409.5369,-646.7192 404,-636 394.4768,-617.5635 390.4855,-593.2819 388.921,-579.9063"/>
<polygon fill="#191970" stroke="#191970" points="423.6564,-667.898 433.2143,-672.4693 428.5933,-662.9353 423.6564,-667.898"/>
</g>
<!-- Node52 -->
<g id="node19" class="node">
<title>Node52</title>
<g id="a_node19"><a xlink:href="../../d1/d2b/sbessel_8hpp.html" target="_top" xlink:title="Contains implementation of sirius::Spherical_Bessel_functions classe. ">
<polygon fill="#ffffff" stroke="#000000" points="413,-616.5 413,-635.5 483,-635.5 483,-616.5 413,-616.5"/>
<text text-anchor="middle" x="448" y="-623.5" font-family="Helvetica,sans-Serif" font-size="10.00" fill="#000000">sbessel.hpp</text>
</a>
</g>
</g>
<!-- Node38&#45;&gt;Node52 -->
<g id="edge31" class="edge">
<title>Node38&#45;&gt;Node52</title>
<path fill="none" stroke="#191970" d="M445.4173,-662.1575C446.0604,-653.155 446.7914,-642.9199 447.3112,-635.6427"/>
<polygon fill="#191970" stroke="#191970" points="441.9182,-662.0216 444.6967,-672.2455 448.9004,-662.5204 441.9182,-662.0216"/>
</g>
<!-- Node40 -->
<g id="node7" class="node">
<title>Node40</title>
<g id="a_node7"><a xlink:href="../../d3/d1c/augmentation__operator_8hpp.html" target="_top" xlink:title="Contains implementation of sirius::Augmentation_operator class. ">
<polygon fill="#ffffff" stroke="#000000" points="142.5,-504.5 142.5,-523.5 281.5,-523.5 281.5,-504.5 142.5,-504.5"/>
<text text-anchor="middle" x="212" y="-511.5" font-family="Helvetica,sans-Serif" font-size="10.00" fill="#000000">augmentation_operator.hpp</text>
</a>
</g>
</g>
<!-- Node39&#45;&gt;Node40 -->
<g id="edge6" class="edge">
<title>Node39&#45;&gt;Node40</title>
<path fill="none" stroke="#191970" d="M348.1596,-557.3235C315.8827,-547.0536 271.1148,-532.8093 241.8607,-523.5011"/>
<polygon fill="#191970" stroke="#191970" points="347.154,-560.6764 357.7445,-560.3733 349.2765,-554.0059 347.154,-560.6764"/>
</g>
<!-- Node44 -->
<g id="node11" class="node">
<title>Node44</title>
<g id="a_node11"><a xlink:href="../../d1/db8/simulation__context_8hpp.html" target="_top" xlink:title="Contains definition and implementation of Simulation_context class. ">
<polygon fill="#ffffff" stroke="#000000" points="322.5,-448.5 322.5,-467.5 441.5,-467.5 441.5,-448.5 322.5,-448.5"/>
<text text-anchor="middle" x="382" y="-455.5" font-family="Helvetica,sans-Serif" font-size="10.00" fill="#000000">simulation_context.hpp</text>
</a>
</g>
</g>
<!-- Node39&#45;&gt;Node44 -->
<g id="edge30" class="edge">
<title>Node39&#45;&gt;Node44</title>
<path fill="none" stroke="#191970" d="M386.943,-550.2702C385.6428,-525.9985 383.4878,-485.7725 382.5103,-467.5249"/>
<polygon fill="#191970" stroke="#191970" points="383.4584,-550.6525 387.4884,-560.4509 390.4484,-550.278 383.4584,-550.6525"/>
</g>
<!-- Node45 -->
<g id="node12" class="node">
<title>Node45</title>
<g id="a_node12"><a xlink:href="../../db/d74/hubbard_8hpp.html" target="_top" xlink:title="Contains declaration and partial implementation of sirius::Hubbard class. ">
<polygon fill="#ffffff" stroke="#000000" points="525.5,-392.5 525.5,-411.5 598.5,-411.5 598.5,-392.5 525.5,-392.5"/>
<text text-anchor="middle" x="562" y="-399.5" font-family="Helvetica,sans-Serif" font-size="10.00" fill="#000000">hubbard.hpp</text>
</a>
</g>
</g>
<!-- Node39&#45;&gt;Node45 -->
<g id="edge29" class="edge">
<title>Node39&#45;&gt;Node45</title>
<path fill="none" stroke="#191970" d="M405.1612,-553.4306C441.048,-518.7812 523.0759,-439.5818 551.8211,-411.8279"/>
<polygon fill="#191970" stroke="#191970" points="402.6165,-551.0223 397.8535,-560.4862 407.4787,-556.0582 402.6165,-551.0223"/>
</g>
<!-- Node41 -->
<g id="node8" class="node">
<title>Node41</title>
<g id="a_node8"><a xlink:href="../../d5/d72/non__local__functor_8hpp.html" target="_top" xlink:title="Common operation for forces and stress tensor. ">
<polygon fill="#ffffff" stroke="#000000" points="142.5,-336.5 142.5,-355.5 257.5,-355.5 257.5,-336.5 142.5,-336.5"/>
<text text-anchor="middle" x="200" y="-343.5" font-family="Helvetica,sans-Serif" font-size="10.00" fill="#000000">non_local_functor.hpp</text>
</a>
</g>
</g>
<!-- Node40&#45;&gt;Node41 -->
<g id="edge7" class="edge">
<title>Node40&#45;&gt;Node41</title>
<path fill="none" stroke="#191970" d="M210.59,-494.2601C208.0119,-458.1669 202.6261,-382.7656 200.702,-355.8279"/>
<polygon fill="#191970" stroke="#191970" points="207.1168,-494.761 211.3204,-504.4862 214.099,-494.2623 207.1168,-494.761"/>
</g>
<!-- Node43 -->
<g id="node10" class="node">
<title>Node43</title>
<g id="a_node10"><a xlink:href="../../d6/d1e/force_8hpp.html" target="_top" xlink:title="Contains defintion and implementation of sirius::Force class. ">
<polygon fill="#ffffff" stroke="#000000" points="238,-280.5 238,-299.5 296,-299.5 296,-280.5 238,-280.5"/>
<text text-anchor="middle" x="267" y="-287.5" font-family="Helvetica,sans-Serif" font-size="10.00" fill="#000000">force.hpp</text>
</a>
</g>
</g>
<!-- Node40&#45;&gt;Node43 -->
<g id="edge12" class="edge">
<title>Node40&#45;&gt;Node43</title>
<path fill="none" stroke="#191970" d="M220.989,-494.9417C234.1891,-465.7927 258.2026,-408.0326 267,-356 270.3238,-336.3415 269.1293,-312.9159 268.0231,-299.9259"/>
<polygon fill="#191970" stroke="#191970" points="217.6724,-493.7761 216.6633,-504.3227 224.0291,-496.7073 217.6724,-493.7761"/>
</g>
<!-- Node40&#45;&gt;Node44 -->
<g id="edge13" class="edge">
<title>Node40&#45;&gt;Node44</title>
<path fill="none" stroke="#191970" d="M250.886,-501.1905C282.0312,-490.9309 325.0223,-476.7691 353.1573,-467.5011"/>
<polygon fill="#191970" stroke="#191970" points="249.6269,-497.9202 241.224,-504.3733 251.8171,-504.5687 249.6269,-497.9202"/>
</g>
<!-- Node42 -->
<g id="node9" class="node">
<title>Node42</title>
<g id="a_node9"><a xlink:href="../../d7/dd1/stress_8hpp.html" target="_top" xlink:title="Stress tensor calculation. ">
<polygon fill="#ffffff" stroke="#000000" points="156.5,-280.5 156.5,-299.5 219.5,-299.5 219.5,-280.5 156.5,-280.5"/>
<text text-anchor="middle" x="188" y="-287.5" font-family="Helvetica,sans-Serif" font-size="10.00" fill="#000000">stress.hpp</text>
</a>
</g>
</g>
<!-- Node41&#45;&gt;Node42 -->
<g id="edge8" class="edge">
<title>Node41&#45;&gt;Node42</title>
<path fill="none" stroke="#191970" d="M195.8115,-326.4538C193.8672,-317.3803 191.6428,-306.9998 190.0663,-299.6427"/>
<polygon fill="#191970" stroke="#191970" points="192.3921,-327.2009 197.9098,-336.2455 199.2367,-325.7341 192.3921,-327.2009"/>
</g>
<!-- Node41&#45;&gt;Node43 -->
<g id="edge10" class="edge">
<title>Node41&#45;&gt;Node43</title>
<path fill="none" stroke="#191970" d="M219.5676,-329.645C231.2198,-319.9058 245.6084,-307.8795 255.4632,-299.6427"/>
<polygon fill="#191970" stroke="#191970" points="217.0988,-327.1469 211.6705,-336.2455 221.5879,-332.5179 217.0988,-327.1469"/>
</g>
<!-- Node42&#45;&gt;Node35 -->
<g id="edge9" class="edge">
<title>Node42&#45;&gt;Node35</title>
<path fill="none" stroke="#191970" d="M188,-270.1575C188,-261.155 188,-250.9199 188,-243.6427"/>
<polygon fill="#191970" stroke="#191970" points="184.5001,-270.2455 188,-280.2455 191.5001,-270.2456 184.5001,-270.2455"/>
</g>
<!-- Node43&#45;&gt;Node35 -->
<g id="edge11" class="edge">
<title>Node43&#45;&gt;Node35</title>
<path fill="none" stroke="#191970" d="M244.7244,-274.2097C230.8495,-264.3743 213.4485,-252.0394 201.6031,-243.6427"/>
<polygon fill="#191970" stroke="#191970" points="243.0569,-277.3178 253.2393,-280.2455 247.1051,-271.6071 243.0569,-277.3178"/>
</g>
<!-- Node44&#45;&gt;Node45 -->
<g id="edge14" class="edge">
<title>Node44&#45;&gt;Node45</title>
<path fill="none" stroke="#191970" d="M422.7459,-445.3235C455.7563,-435.0536 501.5417,-420.8093 531.4607,-411.5011"/>
<polygon fill="#191970" stroke="#191970" points="421.4519,-442.0605 412.9431,-448.3733 423.5314,-448.7445 421.4519,-442.0605"/>
</g>
<!-- Node46 -->
<g id="node13" class="node">
<title>Node46</title>
<g id="a_node13"><a xlink:href="../../de/dec/hamiltonian_8hpp.html" target="_top" xlink:title="Contains declaration and definition of sirius::Hamiltonian class. ">
<polygon fill="#ffffff" stroke="#000000" points="442.5,-168.5 442.5,-187.5 529.5,-187.5 529.5,-168.5 442.5,-168.5"/>
<text text-anchor="middle" x="486" y="-175.5" font-family="Helvetica,sans-Serif" font-size="10.00" fill="#000000">hamiltonian.hpp</text>
</a>
</g>
</g>
<!-- Node44&#45;&gt;Node46 -->
<g id="edge19" class="edge">
<title>Node44&#45;&gt;Node46</title>
<path fill="none" stroke="#191970" d="M403.4495,-442.1526C413.7499,-433.8869 425.8176,-423.1809 435,-412 453.193,-389.8473 457.4606,-383.032 467,-356 488.6152,-294.7483 487.6007,-214.8687 486.4996,-187.6025"/>
<polygon fill="#191970" stroke="#191970" points="401.0601,-439.577 395.3149,-448.4788 405.3574,-445.1027 401.0601,-439.577"/>
</g>
<!-- Node48 -->
<g id="node15" class="node">
<title>Node48</title>
<g id="a_node15"><a xlink:href="../../d3/d6a/periodic__function_8hpp.html" target="_top" xlink:title="Contains declaration and partial implementation of sirius::Periodic_function class. ">
<polygon fill="#ffffff" stroke="#000000" points="314,-392.5 314,-411.5 426,-411.5 426,-392.5 314,-392.5"/>
<text text-anchor="middle" x="370" y="-399.5" font-family="Helvetica,sans-Serif" font-size="10.00" fill="#000000">periodic_function.hpp</text>
</a>
</g>
</g>
<!-- Node44&#45;&gt;Node48 -->
<g id="edge20" class="edge">
<title>Node44&#45;&gt;Node48</title>
<path fill="none" stroke="#191970" d="M377.8115,-438.4538C375.8672,-429.3803 373.6428,-418.9998 372.0663,-411.6427"/>
<polygon fill="#191970" stroke="#191970" points="374.3921,-439.2009 379.9098,-448.2455 381.2367,-437.7341 374.3921,-439.2009"/>
</g>
<!-- Node45&#45;&gt;Node35 -->
<g id="edge15" class="edge">
<title>Node45&#45;&gt;Node35</title>
<path fill="none" stroke="#191970" d="M542.3476,-386.0932C523.772,-371.6188 494.6968,-350.3785 467,-336 421.5707,-312.4159 278.849,-264.0801 217.0276,-243.5565"/>
<polygon fill="#191970" stroke="#191970" points="540.3202,-388.952 550.3359,-392.4069 544.6607,-383.4602 540.3202,-388.952"/>
</g>
<!-- Node45&#45;&gt;Node46 -->
<g id="edge16" class="edge">
<title>Node45&#45;&gt;Node46</title>
<path fill="none" stroke="#191970" d="M563.6416,-382.3099C565.6078,-347.9844 565.7029,-275.9019 538,-224 529.7137,-208.4754 513.9656,-195.6968 501.962,-187.5814"/>
<polygon fill="#191970" stroke="#191970" points="560.1408,-382.2013 562.9405,-392.4195 567.124,-382.6856 560.1408,-382.2013"/>
</g>
<!-- Node47 -->
<g id="node14" class="node">
<title>Node47</title>
<g id="a_node14"><a xlink:href="../../da/d3d/band_8hpp.html" target="_top" xlink:title="Contains declaration and partial implementation of sirius::Band class. ">
<polygon fill="#ffffff" stroke="#000000" points="301,-112.5 301,-131.5 359,-131.5 359,-112.5 301,-112.5"/>
<text text-anchor="middle" x="330" y="-119.5" font-family="Helvetica,sans-Serif" font-size="10.00" fill="#000000">band.hpp</text>
</a>
</g>
</g>
<!-- Node46&#45;&gt;Node47 -->
<g id="edge17" class="edge">
<title>Node46&#45;&gt;Node47</title>
<path fill="none" stroke="#191970" d="M449.5716,-164.9231C421.0539,-154.686 382.0619,-140.6889 356.4674,-131.5011"/>
<polygon fill="#191970" stroke="#191970" points="448.5881,-168.2887 459.1826,-168.3733 450.9532,-161.7004 448.5881,-168.2887"/>
</g>
<!-- Node47&#45;&gt;Node36 -->
<g id="edge18" class="edge">
<title>Node47&#45;&gt;Node36</title>
<path fill="none" stroke="#191970" d="M290.7527,-112.8423C240.7144,-101.1667 155.7254,-81.3359 114.2359,-71.655"/>
<polygon fill="#191970" stroke="#191970" points="290.0375,-116.2694 300.5713,-115.1333 291.6282,-109.4525 290.0375,-116.2694"/>
</g>
<!-- Node48&#45;&gt;Node41 -->
<g id="edge27" class="edge">
<title>Node48&#45;&gt;Node41</title>
<path fill="none" stroke="#191970" d="M331.114,-389.1905C299.9688,-378.9309 256.9777,-364.7691 228.8427,-355.5011"/>
<polygon fill="#191970" stroke="#191970" points="330.1829,-392.5687 340.776,-392.3733 332.3731,-385.9202 330.1829,-392.5687"/>
</g>
<!-- Node48&#45;&gt;Node43 -->
<g id="edge28" class="edge">
<title>Node48&#45;&gt;Node43</title>
<path fill="none" stroke="#191970" d="M354.2204,-384.8416C332.2391,-360.9396 293.1482,-318.433 275.7595,-299.5249"/>
<polygon fill="#191970" stroke="#191970" points="351.8729,-387.4595 361.2183,-392.4509 357.0253,-382.7211 351.8729,-387.4595"/>
</g>
<!-- Node48&#45;&gt;Node47 -->
<g id="edge21" class="edge">
<title>Node48&#45;&gt;Node47</title>
<path fill="none" stroke="#191970" d="M367.2089,-382.4621C359.33,-327.31 337.1178,-171.8245 331.3711,-131.5977"/>
<polygon fill="#191970" stroke="#191970" points="363.744,-382.9573 368.6231,-392.3618 370.6736,-381.9673 363.744,-382.9573"/>
</g>
<!-- Node49 -->
<g id="node16" class="node">
<title>Node49</title>
<g id="a_node16"><a xlink:href="../../d0/d9a/density_8hpp.html" target="_top" xlink:title="Contains definition and partial implementation of sirius::Density class. ">
<polygon fill="#ffffff" stroke="#000000" points="390,-336.5 390,-355.5 458,-355.5 458,-336.5 390,-336.5"/>
<text text-anchor="middle" x="424" y="-343.5" font-family="Helvetica,sans-Serif" font-size="10.00" fill="#000000">density.hpp</text>
</a>
</g>
</g>
<!-- Node48&#45;&gt;Node49 -->
<g id="edge22" class="edge">
<title>Node48&#45;&gt;Node49</title>
<path fill="none" stroke="#191970" d="M386.5969,-384.7884C395.8347,-375.2085 406.9904,-363.6396 414.7017,-355.6427"/>
<polygon fill="#191970" stroke="#191970" points="383.828,-382.6176 379.4061,-392.2455 388.8669,-387.4766 383.828,-382.6176"/>
</g>
<!-- Node50 -->
<g id="node17" class="node">
<title>Node50</title>
<g id="a_node17"><a xlink:href="../../de/df2/potential_8hpp.html" target="_top" xlink:title="Contains declaration and partial implementation of sirius::Potential class. ">
<polygon fill="#ffffff" stroke="#000000" points="390,-280.5 390,-299.5 464,-299.5 464,-280.5 390,-280.5"/>
<text text-anchor="middle" x="427" y="-287.5" font-family="Helvetica,sans-Serif" font-size="10.00" fill="#000000">potential.hpp</text>
</a>
</g>
</g>
<!-- Node49&#45;&gt;Node50 -->
<g id="edge23" class="edge">
<title>Node49&#45;&gt;Node50</title>
<path fill="none" stroke="#191970" d="M425.063,-326.1575C425.5453,-317.155 426.0936,-306.9199 426.4834,-299.6427"/>
<polygon fill="#191970" stroke="#191970" points="421.5626,-326.0726 424.5226,-336.2455 428.5526,-326.4471 421.5626,-326.0726"/>
</g>
<!-- Node50&#45;&gt;Node46 -->
<g id="edge24" class="edge">
<title>Node50&#45;&gt;Node46</title>
<path fill="none" stroke="#191970" d="M444.7074,-273.2789C452.4956,-265.0947 461.1768,-254.7097 467,-244 477.0246,-225.5635 482.2459,-201.2819 484.5302,-187.9063"/>
<polygon fill="#191970" stroke="#191970" points="442.2055,-270.8312 437.6363,-280.3901 447.1692,-275.7669 442.2055,-270.8312"/>
</g>
<!-- Node51 -->
<g id="node18" class="node">
<title>Node51</title>
<g id="a_node18"><a xlink:href="../../d3/d2c/local__operator_8hpp.html" target="_top" xlink:title="Contains declaration and implementation of sirius::Local_operator class. ">
<polygon fill="#ffffff" stroke="#000000" points="358.5,-224.5 358.5,-243.5 457.5,-243.5 457.5,-224.5 358.5,-224.5"/>
<text text-anchor="middle" x="408" y="-231.5" font-family="Helvetica,sans-Serif" font-size="10.00" fill="#000000">local_operator.hpp</text>
</a>
</g>
</g>
<!-- Node50&#45;&gt;Node51 -->
<g id="edge25" class="edge">
<title>Node50&#45;&gt;Node51</title>
<path fill="none" stroke="#191970" d="M420.4685,-270.7493C417.3664,-261.6064 413.7949,-251.0798 411.2716,-243.6427"/>
<polygon fill="#191970" stroke="#191970" points="417.163,-271.9003 423.6905,-280.2455 423.7918,-269.6512 417.163,-271.9003"/>
</g>
<!-- Node51&#45;&gt;Node46 -->
<g id="edge26" class="edge">
<title>Node51&#45;&gt;Node46</title>
<path fill="none" stroke="#191970" d="M429.9936,-218.2097C443.6929,-208.3743 460.8736,-196.0394 472.5691,-187.6427"/>
<polygon fill="#191970" stroke="#191970" points="427.6686,-215.5703 421.5866,-224.2455 431.7511,-221.2566 427.6686,-215.5703"/>
</g>
<!-- Node52&#45;&gt;Node39 -->
<g id="edge32" class="edge">
<title>Node52&#45;&gt;Node39</title>
<path fill="none" stroke="#191970" d="M430.1722,-609.3607C419.7922,-599.6727 407.0709,-587.7995 398.3314,-579.6427"/>
<polygon fill="#191970" stroke="#191970" points="427.8501,-611.981 437.5488,-616.2455 432.6263,-606.8636 427.8501,-611.981"/>
</g>
<!-- Node54 -->
<g id="node21" class="node">
<title>Node54</title>
<g id="a_node21"><a xlink:href="../../dc/ddc/profiler_8hpp.html" target="_top" xlink:title="A time&#45;based profiler. ">
<polygon fill="#ffffff" stroke="#000000" points="104.5,-1064.5 104.5,-1083.5 171.5,-1083.5 171.5,-1064.5 104.5,-1064.5"/>
<text text-anchor="middle" x="138" y="-1071.5" font-family="Helvetica,sans-Serif" font-size="10.00" fill="#000000">profiler.hpp</text>
</a>
</g>
</g>
<!-- Node53&#45;&gt;Node54 -->
<g id="edge34" class="edge">
<title>Node53&#45;&gt;Node54</title>
<path fill="none" stroke="#191970" d="M136.7087,-1110.1575C137.0302,-1101.155 137.3957,-1090.9199 137.6556,-1083.6427"/>
<polygon fill="#191970" stroke="#191970" points="133.2076,-1110.127 136.3484,-1120.2455 140.2032,-1110.3769 133.2076,-1110.127"/>
</g>
<!-- Node55 -->
<g id="node22" class="node">
<title>Node55</title>
<g id="a_node22"><a xlink:href="../../db/d5a/sddk_8hpp.html" target="_top" xlink:title="Main include file for SDDK library. ">
<polygon fill="#ffffff" stroke="#000000" points="109.5,-1008.5 109.5,-1027.5 166.5,-1027.5 166.5,-1008.5 109.5,-1008.5"/>
<text text-anchor="middle" x="138" y="-1015.5" font-family="Helvetica,sans-Serif" font-size="10.00" fill="#000000">sddk.hpp</text>
</a>
</g>
</g>
<!-- Node54&#45;&gt;Node55 -->
<g id="edge35" class="edge">
<title>Node54&#45;&gt;Node55</title>
<path fill="none" stroke="#191970" d="M138,-1054.1575C138,-1045.155 138,-1034.9199 138,-1027.6427"/>
<polygon fill="#191970" stroke="#191970" points="134.5001,-1054.2455 138,-1064.2455 141.5001,-1054.2456 134.5001,-1054.2455"/>
</g>
<!-- Node55&#45;&gt;Node36 -->
<g id="edge47" class="edge">
<title>Node55&#45;&gt;Node36</title>
<path fill="none" stroke="#191970" d="M110.9715,-1003.1058C81.3553,-984.5731 38,-949.9394 38,-906 38,-906 38,-906 38,-178 38,-136.8391 67.25,-94.4195 81.875,-75.7823"/>
<polygon fill="#191970" stroke="#191970" points="109.2855,-1006.176 119.6585,-1008.3328 112.8945,-1000.1781 109.2855,-1006.176"/>
</g>
<!-- Node56 -->
<g id="node23" class="node">
<title>Node56</title>
<g id="a_node23"><a xlink:href="../../dd/d46/input_8hpp.html" target="_top" xlink:title="Contains input parameters structures. ">
<polygon fill="#ffffff" stroke="#000000" points="107,-952.5 107,-971.5 165,-971.5 165,-952.5 107,-952.5"/>
<text text-anchor="middle" x="136" y="-959.5" font-family="Helvetica,sans-Serif" font-size="10.00" fill="#000000">input.hpp</text>
</a>
</g>
</g>
<!-- Node55&#45;&gt;Node56 -->
<g id="edge36" class="edge">
<title>Node55&#45;&gt;Node56</title>
<path fill="none" stroke="#191970" d="M137.2913,-998.1575C136.9698,-989.155 136.6043,-978.9199 136.3444,-971.6427"/>
<polygon fill="#191970" stroke="#191970" points="133.7968,-998.3769 137.6516,-1008.2455 140.7924,-998.127 133.7968,-998.3769"/>
</g>
<!-- Node60 -->
<g id="node27" class="node">
<title>Node60</title>
<g id="a_node27"><a xlink:href="../../de/d6d/atom_8hpp.html" target="_top" xlink:title="Contains declaration and partial implementation of sirius::Atom class. ">
<polygon fill="#ffffff" stroke="#000000" points="415,-728.5 415,-747.5 473,-747.5 473,-728.5 415,-728.5"/>
<text text-anchor="middle" x="444" y="-735.5" font-family="Helvetica,sans-Serif" font-size="10.00" fill="#000000">atom.hpp</text>
</a>
</g>
</g>
<!-- Node55&#45;&gt;Node60 -->
<g id="edge45" class="edge">
<title>Node55&#45;&gt;Node60</title>
<path fill="none" stroke="#191970" d="M176.8111,-1015.4294C277.2644,-1007.7185 538,-980.526 538,-906 538,-906 538,-906 538,-850 538,-819.4754 537.4844,-808.2916 519,-784 506.2353,-767.2251 485.4384,-755.1686 468.9783,-747.618"/>
<polygon fill="#191970" stroke="#191970" points="176.48,-1011.9443 166.767,-1016.1761 176.999,-1018.925 176.48,-1011.9443"/>
</g>
<!-- Node61 -->
<g id="node28" class="node">
<title>Node61</title>
<g id="a_node28"><a xlink:href="../../d4/dde/sddk__api_8cpp.html" target="_top" xlink:title="Fortran interface for the SDDK library. ">
<polygon fill="#ffffff" stroke="#000000" points="183.5,-952.5 183.5,-971.5 258.5,-971.5 258.5,-952.5 183.5,-952.5"/>
<text text-anchor="middle" x="221" y="-959.5" font-family="Helvetica,sans-Serif" font-size="10.00" fill="#000000">sddk_api.cpp</text>
</a>
</g>
</g>
<!-- Node55&#45;&gt;Node61 -->
<g id="edge46" class="edge">
<title>Node55&#45;&gt;Node61</title>
<path fill="none" stroke="#191970" d="M160.988,-1002.49C175.6322,-992.6096 194.1444,-980.1194 206.7082,-971.6427"/>
<polygon fill="#191970" stroke="#191970" points="158.7896,-999.7511 152.4575,-1008.2455 162.7047,-1005.5539 158.7896,-999.7511"/>
</g>
<!-- Node56&#45;&gt;Node36 -->
<g id="edge44" class="edge">
<title>Node56&#45;&gt;Node36</title>
<path fill="none" stroke="#191970" d="M129.7499,-942.3862C123.246,-920.2042 114,-882.8868 114,-850 114,-850 114,-850 114,-402 114,-326.5753 90,-309.4247 90,-234 90,-234 90,-234 90,-178 90,-140.0833 90,-94.9462 90,-75.5884"/>
<polygon fill="#191970" stroke="#191970" points="126.4896,-943.6941 132.7538,-952.2386 133.1853,-941.6526 126.4896,-943.6941"/>
</g>
<!-- Node57 -->
<g id="node24" class="node">
<title>Node57</title>
<g id="a_node24"><a xlink:href="../../de/d06/simulation__parameters_8hpp.html" target="_top" xlink:title="Contains definition and implementation of sirius::Simulation_parameters_base class. ">
<polygon fill="#ffffff" stroke="#000000" points="258.5,-896.5 258.5,-915.5 395.5,-915.5 395.5,-896.5 258.5,-896.5"/>
<text text-anchor="middle" x="327" y="-903.5" font-family="Helvetica,sans-Serif" font-size="10.00" fill="#000000">simulation_parameters.hpp</text>
</a>
</g>
</g>
<!-- Node56&#45;&gt;Node57 -->
<g id="edge37" class="edge">
<title>Node56&#45;&gt;Node57</title>
<path fill="none" stroke="#191970" d="M174.9387,-950.5834C210.1658,-940.2551 261.4447,-925.2204 294.5149,-915.5244"/>
<polygon fill="#191970" stroke="#191970" points="173.6201,-947.3226 165.0088,-953.4948 175.5896,-954.0399 173.6201,-947.3226"/>
</g>
<!-- Node57&#45;&gt;Node38 -->
<g id="edge43" class="edge">
<title>Node57&#45;&gt;Node38</title>
<path fill="none" stroke="#191970" d="M331.2457,-886.5027C337.0659,-861.7965 348.7984,-818.3021 366,-784 379.7108,-756.6592 387.3598,-752.2497 406,-728 415.8481,-715.1882 427.8047,-700.9092 435.6431,-691.7087"/>
<polygon fill="#191970" stroke="#191970" points="327.7925,-885.9046 328.9892,-896.4316 334.6184,-887.4559 327.7925,-885.9046"/>
</g>
<!-- Node57&#45;&gt;Node44 -->
<g id="edge38" class="edge">
<title>Node57&#45;&gt;Node44</title>
<path fill="none" stroke="#191970" d="M321.6022,-886.3284C315.9852,-864.0948 308,-826.7312 308,-794 308,-794 308,-794 308,-626 308,-560.6649 355.4525,-492.238 374.3594,-467.5671"/>
<polygon fill="#191970" stroke="#191970" points="318.2711,-887.4237 324.1965,-896.2066 325.0415,-885.6455 318.2711,-887.4237"/>
</g>
<!-- Node58 -->
<g id="node25" class="node">
<title>Node58</title>
<g id="a_node25"><a xlink:href="../../db/df7/atom__type_8hpp.html" target="_top" xlink:title="Contains declaration and implementation of sirius::Atom_type class. ">
<polygon fill="#ffffff" stroke="#000000" points="387.5,-840.5 387.5,-859.5 470.5,-859.5 470.5,-840.5 387.5,-840.5"/>
<text text-anchor="middle" x="429" y="-847.5" font-family="Helvetica,sans-Serif" font-size="10.00" fill="#000000">atom_type.hpp</text>
</a>
</g>
</g>
<!-- Node57&#45;&gt;Node58 -->
<g id="edge39" class="edge">
<title>Node57&#45;&gt;Node58</title>
<path fill="none" stroke="#191970" d="M353.734,-891.3225C371.9532,-881.3198 395.5598,-868.3593 411.4366,-859.6427"/>
<polygon fill="#191970" stroke="#191970" points="351.8484,-888.3649 344.767,-896.2455 355.2173,-894.5009 351.8484,-888.3649"/>
</g>
<!-- Node59 -->
<g id="node26" class="node">
<title>Node59</title>
<g id="a_node26"><a xlink:href="../../d6/d50/atom__symmetry__class_8hpp.html" target="_top" xlink:title="Contains declaration and partial implementation of sirius::Atom_symmetry_class class. ">
<polygon fill="#ffffff" stroke="#000000" points="374.5,-784.5 374.5,-803.5 509.5,-803.5 509.5,-784.5 374.5,-784.5"/>
<text text-anchor="middle" x="442" y="-791.5" font-family="Helvetica,sans-Serif" font-size="10.00" fill="#000000">atom_symmetry_class.hpp</text>
</a>
</g>
</g>
<!-- Node58&#45;&gt;Node59 -->
<g id="edge40" class="edge">
<title>Node58&#45;&gt;Node59</title>
<path fill="none" stroke="#191970" d="M433.5375,-830.4538C435.6439,-821.3803 438.0536,-810.9998 439.7615,-803.6427"/>
<polygon fill="#191970" stroke="#191970" points="430.1165,-829.7131 431.2644,-840.2455 436.9351,-831.2961 430.1165,-829.7131"/>
</g>
<!-- Node59&#45;&gt;Node60 -->
<g id="edge41" class="edge">
<title>Node59&#45;&gt;Node60</title>
<path fill="none" stroke="#191970" d="M442.7087,-774.1575C443.0302,-765.155 443.3957,-754.9199 443.6556,-747.6427"/>
<polygon fill="#191970" stroke="#191970" points="439.2076,-774.127 442.3484,-784.2455 446.2032,-774.3769 439.2076,-774.127"/>
</g>
<!-- Node60&#45;&gt;Node38 -->
<g id="edge42" class="edge">
<title>Node60&#45;&gt;Node38</title>
<path fill="none" stroke="#191970" d="M444,-718.1575C444,-709.155 444,-698.9199 444,-691.6427"/>
<polygon fill="#191970" stroke="#191970" points="440.5001,-718.2455 444,-728.2455 447.5001,-718.2456 440.5001,-718.2455"/>
</g>
</g>
</svg>
