<?xml version="1.0" encoding="UTF-8" standalone="no"?>
<!DOCTYPE svg PUBLIC "-//W3C//DTD SVG 1.1//EN"
 "http://www.w3.org/Graphics/SVG/1.1/DTD/svg11.dtd">
<!-- Generated by graphviz version 2.40.1 (20161225.0304)
 -->
<!-- Title: rotation.hpp Pages: 1 -->
<svg width="1941pt" height="196pt"
 viewBox="0.00 0.00 1940.82 196.00" xmlns="http://www.w3.org/2000/svg" xmlns:xlink="http://www.w3.org/1999/xlink">
<g id="graph0" class="graph" transform="scale(1 1) rotate(0) translate(4 192)">
<title>rotation.hpp</title>
<polygon fill="#ffffff" stroke="transparent" points="-4,4 -4,-192 1936.818,-192 1936.818,4 -4,4"/>
<!-- Node1 -->
<g id="node1" class="node">
<title>Node1</title>
<g id="a_node1"><a xlink:title="Generate rotation matrices and related entities.">
<polygon fill="#bfbfbf" stroke="#000000" points="1291.5,-168.5 1291.5,-187.5 1360.5,-187.5 1360.5,-168.5 1291.5,-168.5"/>
<text text-anchor="middle" x="1326" y="-175.5" font-family="Helvetica,sans-Serif" font-size="10.00" fill="#000000">rotation.hpp</text>
</a>
</g>
</g>
<!-- Node2 -->
<g id="node2" class="node">
<title>Node2</title>
<g id="a_node2"><a xlink:href="../../da/d3e/memory_8hpp.html" target="_top" xlink:title="Memory management functions and classes.">
<polygon fill="#ffffff" stroke="#000000" points="640,-112.5 640,-131.5 712,-131.5 712,-112.5 640,-112.5"/>
<text text-anchor="middle" x="676" y="-119.5" font-family="Helvetica,sans-Serif" font-size="10.00" fill="#000000">memory.hpp</text>
</a>
</g>
</g>
<!-- Node1&#45;&gt;Node2 -->
<g id="edge1" class="edge">
<title>Node1&#45;&gt;Node2</title>
<path fill="none" stroke="#191970" d="M1291.0532,-174.9892C1181.7725,-165.5742 846.4436,-136.6844 722.5967,-126.0145"/>
<polygon fill="#191970" stroke="#191970" points="722.5812,-122.5003 712.3177,-125.1289 721.9803,-129.4744 722.5812,-122.5003"/>
</g>
<!-- Node27 -->
<g id="node27" class="node">
<title>Node27</title>
<g id="a_node27"><a xlink:href="../../d6/d99/geometry3d_8hpp.html" target="_top" xlink:title="Simple classes and functions to work with the 3D vectors and matrices of the crystal lattice.">
<polygon fill="#ffffff" stroke="#000000" points="981.5,-112.5 981.5,-131.5 1070.5,-131.5 1070.5,-112.5 981.5,-112.5"/>
<text text-anchor="middle" x="1026" y="-119.5" font-family="Helvetica,sans-Serif" font-size="10.00" fill="#000000">geometry3d.hpp</text>
</a>
</g>
</g>
<!-- Node1&#45;&gt;Node27 -->
<g id="edge27" class="edge">
<title>Node1&#45;&gt;Node27</title>
<path fill="none" stroke="#191970" d="M1291.2931,-171.5214C1239.5725,-161.8669 1141.8019,-143.6164 1080.4874,-132.171"/>
<polygon fill="#191970" stroke="#191970" points="1081.0729,-128.7199 1070.6005,-130.3254 1079.7884,-135.601 1081.0729,-128.7199"/>
</g>
<!-- Node33 -->
<g id="node33" class="node">
<title>Node33</title>
<g id="a_node33"><a xlink:href="../../df/d93/utils_8hpp.html" target="_top" xlink:title="A collection of utility functions.">
<polygon fill="#ffffff" stroke="#000000" points="1497,-112.5 1497,-131.5 1571,-131.5 1571,-112.5 1497,-112.5"/>
<text text-anchor="middle" x="1534" y="-119.5" font-family="Helvetica,sans-Serif" font-size="10.00" fill="#000000">utils/utils.hpp</text>
</a>
</g>
</g>
<!-- Node1&#45;&gt;Node33 -->
<g id="edge37" class="edge">
<title>Node1&#45;&gt;Node33</title>
<path fill="none" stroke="#191970" d="M1360.8145,-168.6269C1395.8482,-159.1947 1450.0513,-144.6016 1488.4764,-134.2563"/>
<polygon fill="#191970" stroke="#191970" points="1489.6285,-137.5709 1498.3747,-131.5914 1487.8086,-130.8116 1489.6285,-137.5709"/>
</g>
<!-- Node39 -->
<g id="node39" class="node">
<title>Node39</title>
<g id="a_node39"><a xlink:href="../../dc/d72/rte_8hpp_source.html" target="_top" xlink:title=" ">
<polygon fill="#ffffff" stroke="#000000" points="1292,-112.5 1292,-131.5 1360,-131.5 1360,-112.5 1292,-112.5"/>
<text text-anchor="middle" x="1326" y="-119.5" font-family="Helvetica,sans-Serif" font-size="10.00" fill="#000000">utils/rte.hpp</text>
</a>
</g>
</g>
<!-- Node1&#45;&gt;Node39 -->
<g id="edge50" class="edge">
<title>Node1&#45;&gt;Node39</title>
<path fill="none" stroke="#191970" d="M1326,-168.2455C1326,-160.9382 1326,-150.6944 1326,-141.7046"/>
<polygon fill="#191970" stroke="#191970" points="1329.5001,-141.6426 1326,-131.6427 1322.5001,-141.6427 1329.5001,-141.6426"/>
</g>
<!-- Node40 -->
<g id="node40" class="node">
<title>Node40</title>
<g id="a_node40"><a xlink:href="../../d3/dad/constants_8hpp.html" target="_top" xlink:title="Various constants.">
<polygon fill="#ffffff" stroke="#000000" points="1747.5,-112.5 1747.5,-131.5 1826.5,-131.5 1826.5,-112.5 1747.5,-112.5"/>
<text text-anchor="middle" x="1787" y="-119.5" font-family="Helvetica,sans-Serif" font-size="10.00" fill="#000000">constants.hpp</text>
</a>
</g>
</g>
<!-- Node1&#45;&gt;Node40 -->
<g id="edge55" class="edge">
<title>Node1&#45;&gt;Node40</title>
<path fill="none" stroke="#191970" d="M1360.6499,-173.7909C1441.5838,-163.9595 1643.2914,-139.457 1737.305,-128.0367"/>
<polygon fill="#191970" stroke="#191970" points="1737.907,-131.4894 1747.4119,-126.809 1737.0628,-124.5405 1737.907,-131.4894"/>
</g>
<!-- Node3 -->
<g id="node3" class="node">
<title>Node3</title>
<g id="a_node3"><a xlink:title=" ">
<polygon fill="#ffffff" stroke="#bfbfbf" points="587.5,-56.5 587.5,-75.5 616.5,-75.5 616.5,-56.5 587.5,-56.5"/>
<text text-anchor="middle" x="602" y="-63.5" font-family="Helvetica,sans-Serif" font-size="10.00" fill="#000000">list</text>
</a>
</g>
</g>
<!-- Node2&#45;&gt;Node3 -->
<g id="edge2" class="edge">
<title>Node2&#45;&gt;Node3</title>
<path fill="none" stroke="#191970" d="M663.1102,-112.2455C652.0746,-103.8943 635.9708,-91.7076 623.0647,-81.9408"/>
<polygon fill="#191970" stroke="#191970" points="624.8283,-78.8862 614.7421,-75.6427 620.6041,-84.4681 624.8283,-78.8862"/>
</g>
<!-- Node4 -->
<g id="node4" class="node">
<title>Node4</title>
<g id="a_node4"><a xlink:title=" ">
<polygon fill="#ffffff" stroke="#bfbfbf" points="1231.5,-56.5 1231.5,-75.5 1286.5,-75.5 1286.5,-56.5 1231.5,-56.5"/>
<text text-anchor="middle" x="1259" y="-63.5" font-family="Helvetica,sans-Serif" font-size="10.00" fill="#000000">iostream</text>
</a>
</g>
</g>
<!-- Node2&#45;&gt;Node4 -->
<g id="edge3" class="edge">
<title>Node2&#45;&gt;Node4</title>
<path fill="none" stroke="#191970" d="M712.0616,-121.2004C798.4652,-118.8085 1024.1478,-109.7411 1221.2817,-75.8171"/>
<polygon fill="#191970" stroke="#191970" points="1221.9918,-79.2461 1231.2404,-74.0776 1220.7873,-72.3505 1221.9918,-79.2461"/>
</g>
<!-- Node5 -->
<g id="node5" class="node">
<title>Node5</title>
<g id="a_node5"><a xlink:title=" ">
<polygon fill="#ffffff" stroke="#bfbfbf" points="635,-56.5 635,-75.5 671,-75.5 671,-56.5 635,-56.5"/>
<text text-anchor="middle" x="653" y="-63.5" font-family="Helvetica,sans-Serif" font-size="10.00" fill="#000000">map</text>
</a>
</g>
</g>
<!-- Node2&#45;&gt;Node5 -->
<g id="edge4" class="edge">
<title>Node2&#45;&gt;Node5</title>
<path fill="none" stroke="#191970" d="M671.9937,-112.2455C668.9265,-104.7776 664.5997,-94.2427 660.8503,-85.1137"/>
<polygon fill="#191970" stroke="#191970" points="663.9972,-83.5631 656.9604,-75.6427 657.5221,-86.2226 663.9972,-83.5631"/>
</g>
<!-- Node6 -->
<g id="node6" class="node">
<title>Node6</title>
<g id="a_node6"><a xlink:title=" ">
<polygon fill="#ffffff" stroke="#bfbfbf" points="273.5,-56.5 273.5,-75.5 326.5,-75.5 326.5,-56.5 273.5,-56.5"/>
<text text-anchor="middle" x="300" y="-63.5" font-family="Helvetica,sans-Serif" font-size="10.00" fill="#000000">memory</text>
</a>
</g>
</g>
<!-- Node2&#45;&gt;Node6 -->
<g id="edge5" class="edge">
<title>Node2&#45;&gt;Node6</title>
<path fill="none" stroke="#191970" d="M639.8707,-118.8544C579.0746,-113.1884 452.3696,-99.7813 336.7347,-76.1376"/>
<polygon fill="#191970" stroke="#191970" points="337.1569,-72.6506 326.6541,-74.0441 335.7335,-79.5044 337.1569,-72.6506"/>
</g>
<!-- Node7 -->
<g id="node7" class="node">
<title>Node7</title>
<g id="a_node7"><a xlink:title=" ">
<polygon fill="#ffffff" stroke="#bfbfbf" points="785,-56.5 785,-75.5 831,-75.5 831,-56.5 785,-56.5"/>
<text text-anchor="middle" x="808" y="-63.5" font-family="Helvetica,sans-Serif" font-size="10.00" fill="#000000">cstring</text>
</a>
</g>
</g>
<!-- Node2&#45;&gt;Node7 -->
<g id="edge6" class="edge">
<title>Node2&#45;&gt;Node7</title>
<path fill="none" stroke="#191970" d="M698.6916,-112.3733C720.0711,-103.3032 752.3057,-89.6279 776.2362,-79.4755"/>
<polygon fill="#191970" stroke="#191970" points="777.7656,-82.6287 785.6045,-75.5011 775.0317,-76.1846 777.7656,-82.6287"/>
</g>
<!-- Node8 -->
<g id="node8" class="node">
<title>Node8</title>
<g id="a_node8"><a xlink:title=" ">
<polygon fill="#ffffff" stroke="#bfbfbf" points="344.5,-56.5 344.5,-75.5 403.5,-75.5 403.5,-56.5 344.5,-56.5"/>
<text text-anchor="middle" x="374" y="-63.5" font-family="Helvetica,sans-Serif" font-size="10.00" fill="#000000">functional</text>
</a>
</g>
</g>
<!-- Node2&#45;&gt;Node8 -->
<g id="edge7" class="edge">
<title>Node2&#45;&gt;Node8</title>
<path fill="none" stroke="#191970" d="M639.6666,-116.562C590.6535,-109.0259 500.4472,-94.4523 413.7586,-76.0303"/>
<polygon fill="#191970" stroke="#191970" points="414.2658,-72.5595 403.754,-73.8834 412.797,-79.4037 414.2658,-72.5595"/>
</g>
<!-- Node9 -->
<g id="node9" class="node">
<title>Node9</title>
<g id="a_node9"><a xlink:title=" ">
<polygon fill="#ffffff" stroke="#bfbfbf" points="422,-56.5 422,-75.5 480,-75.5 480,-56.5 422,-56.5"/>
<text text-anchor="middle" x="451" y="-63.5" font-family="Helvetica,sans-Serif" font-size="10.00" fill="#000000">algorithm</text>
</a>
</g>
</g>
<!-- Node2&#45;&gt;Node9 -->
<g id="edge8" class="edge">
<title>Node2&#45;&gt;Node9</title>
<path fill="none" stroke="#191970" d="M639.7584,-113.2682C604.116,-104.6402 547.899,-90.9239 490.0806,-76.2478"/>
<polygon fill="#191970" stroke="#191970" points="490.5879,-72.7655 480.0336,-73.6919 488.862,-79.5494 490.5879,-72.7655"/>
</g>
<!-- Node10 -->
<g id="node10" class="node">
<title>Node10</title>
<g id="a_node10"><a xlink:title=" ">
<polygon fill="#ffffff" stroke="#bfbfbf" points="727.5,-56.5 727.5,-75.5 766.5,-75.5 766.5,-56.5 727.5,-56.5"/>
<text text-anchor="middle" x="747" y="-63.5" font-family="Helvetica,sans-Serif" font-size="10.00" fill="#000000">array</text>
</a>
</g>
</g>
<!-- Node2&#45;&gt;Node10 -->
<g id="edge9" class="edge">
<title>Node2&#45;&gt;Node10</title>
<path fill="none" stroke="#191970" d="M688.3673,-112.2455C698.9554,-103.8943 714.4064,-91.7076 726.7893,-81.9408"/>
<polygon fill="#191970" stroke="#191970" points="729.0903,-84.5837 734.7745,-75.6427 724.7553,-79.0875 729.0903,-84.5837"/>
</g>
<!-- Node11 -->
<g id="node11" class="node">
<title>Node11</title>
<g id="a_node11"><a xlink:title=" ">
<polygon fill="#ffffff" stroke="#bfbfbf" points="1706,-.5 1706,-19.5 1760,-19.5 1760,-.5 1706,-.5"/>
<text text-anchor="middle" x="1733" y="-7.5" font-family="Helvetica,sans-Serif" font-size="10.00" fill="#000000">complex</text>
</a>
</g>
</g>
<!-- Node2&#45;&gt;Node11 -->
<g id="edge10" class="edge">
<title>Node2&#45;&gt;Node11</title>
<path fill="none" stroke="#191970" d="M678.961,-112.2375C684.126,-97.119 696.3525,-68.4859 718,-56 799.9809,-8.7149 1474.4858,-24.8802 1569,-20 1612.4418,-17.7569 1662.3225,-14.6377 1695.5559,-12.4822"/>
<polygon fill="#191970" stroke="#191970" points="1695.9808,-15.962 1705.7318,-11.8185 1695.5251,-8.9768 1695.9808,-15.962"/>
</g>
<!-- Node12 -->
<g id="node12" class="node">
<title>Node12</title>
<g id="a_node12"><a xlink:title=" ">
<polygon fill="#ffffff" stroke="#bfbfbf" points="996.5,-56.5 996.5,-75.5 1045.5,-75.5 1045.5,-56.5 996.5,-56.5"/>
<text text-anchor="middle" x="1021" y="-63.5" font-family="Helvetica,sans-Serif" font-size="10.00" fill="#000000">cassert</text>
</a>
</g>
</g>
<!-- Node2&#45;&gt;Node12 -->
<g id="edge11" class="edge">
<title>Node2&#45;&gt;Node12</title>
<path fill="none" stroke="#191970" d="M712.2126,-118.3006C768.7589,-112.1651 881.5515,-98.4881 986.4242,-75.866"/>
<polygon fill="#191970" stroke="#191970" points="987.201,-79.279 996.221,-73.7212 985.7038,-72.4409 987.201,-79.279"/>
</g>
<!-- Node13 -->
<g id="node13" class="node">
<title>Node13</title>
<g id="a_node13"><a xlink:href="../../d4/d86/acc_8hpp.html" target="_top" xlink:title="Interface to accelerators API.">
<polygon fill="#ffffff" stroke="#000000" points="498.5,-56.5 498.5,-75.5 569.5,-75.5 569.5,-56.5 498.5,-56.5"/>
<text text-anchor="middle" x="534" y="-63.5" font-family="Helvetica,sans-Serif" font-size="10.00" fill="#000000">gpu/acc.hpp</text>
</a>
</g>
</g>
<!-- Node2&#45;&gt;Node13 -->
<g id="edge12" class="edge">
<title>Node2&#45;&gt;Node13</title>
<path fill="none" stroke="#191970" d="M651.5893,-112.3733C628.3858,-103.2226 593.2962,-89.3844 567.4858,-79.2057"/>
<polygon fill="#191970" stroke="#191970" points="568.6789,-75.9139 558.0921,-75.5011 566.1108,-82.4258 568.6789,-75.9139"/>
</g>
<!-- Node13&#45;&gt;Node11 -->
<g id="edge24" class="edge">
<title>Node13&#45;&gt;Node11</title>
<path fill="none" stroke="#191970" d="M569.9195,-57.2606C572.6434,-56.7747 575.359,-56.345 578,-56 1015.0221,1.0879 1128.7856,-41.4137 1569,-20 1612.4483,-17.8865 1662.3278,-14.7425 1695.5591,-12.5457"/>
<polygon fill="#191970" stroke="#191970" points="1695.9889,-16.025 1705.7343,-11.8683 1695.5238,-9.0404 1695.9889,-16.025"/>
</g>
<!-- Node14 -->
<g id="node14" class="node">
<title>Node14</title>
<g id="a_node14"><a xlink:title=" ">
<polygon fill="#ffffff" stroke="#bfbfbf" points="690.5,-.5 690.5,-19.5 775.5,-19.5 775.5,-.5 690.5,-.5"/>
<text text-anchor="middle" x="733" y="-7.5" font-family="Helvetica,sans-Serif" font-size="10.00" fill="#000000">cuda_runtime.h</text>
</a>
</g>
</g>
<!-- Node13&#45;&gt;Node14 -->
<g id="edge13" class="edge">
<title>Node13&#45;&gt;Node14</title>
<path fill="none" stroke="#191970" d="M568.2093,-56.3733C601.7297,-46.9404 652.9505,-32.5265 689.381,-22.2747"/>
<polygon fill="#191970" stroke="#191970" points="690.5591,-25.5792 699.2371,-19.5011 688.6628,-18.8409 690.5591,-25.5792"/>
</g>
<!-- Node15 -->
<g id="node15" class="node">
<title>Node15</title>
<g id="a_node15"><a xlink:title=" ">
<polygon fill="#ffffff" stroke="#bfbfbf" points="793.5,-.5 793.5,-19.5 840.5,-19.5 840.5,-.5 793.5,-.5"/>
<text text-anchor="middle" x="817" y="-7.5" font-family="Helvetica,sans-Serif" font-size="10.00" fill="#000000">cuda.h</text>
</a>
</g>
</g>
<!-- Node13&#45;&gt;Node15 -->
<g id="edge14" class="edge">
<title>Node13&#45;&gt;Node15</title>
<path fill="none" stroke="#191970" d="M569.5085,-57.7682C572.3777,-57.1524 575.2351,-56.5554 578,-56 666.0082,-38.3208 691.8319,-41.2812 783.3337,-19.9184"/>
<polygon fill="#191970" stroke="#191970" points="784.377,-23.2682 793.3007,-17.557 782.7632,-16.4567 784.377,-23.2682"/>
</g>
<!-- Node16 -->
<g id="node16" class="node">
<title>Node16</title>
<g id="a_node16"><a xlink:title=" ">
<polygon fill="#ffffff" stroke="#bfbfbf" points="0,-.5 0,-19.5 70,-19.5 70,-.5 0,-.5"/>
<text text-anchor="middle" x="35" y="-7.5" font-family="Helvetica,sans-Serif" font-size="10.00" fill="#000000">cublas_v2.h</text>
</a>
</g>
</g>
<!-- Node13&#45;&gt;Node16 -->
<g id="edge15" class="edge">
<title>Node13&#45;&gt;Node16</title>
<path fill="none" stroke="#191970" d="M498.2188,-57.6047C495.1104,-57.0103 492.0056,-56.4639 489,-56 311.4831,-28.6033 261.5111,-47.6197 80.5828,-20.0634"/>
<polygon fill="#191970" stroke="#191970" points="80.8797,-16.5677 70.4616,-18.4945 79.8074,-23.4851 80.8797,-16.5677"/>
</g>
<!-- Node17 -->
<g id="node17" class="node">
<title>Node17</title>
<g id="a_node17"><a xlink:title=" ">
<polygon fill="#ffffff" stroke="#bfbfbf" points="88.5,-.5 88.5,-19.5 151.5,-19.5 151.5,-.5 88.5,-.5"/>
<text text-anchor="middle" x="120" y="-7.5" font-family="Helvetica,sans-Serif" font-size="10.00" fill="#000000">cublasXt.h</text>
</a>
</g>
</g>
<!-- Node13&#45;&gt;Node17 -->
<g id="edge16" class="edge">
<title>Node13&#45;&gt;Node17</title>
<path fill="none" stroke="#191970" d="M498.2074,-57.6757C495.1015,-57.0659 492.0004,-56.4965 489,-56 347.5642,-32.5952 307.2318,-44.847 161.8858,-19.9389"/>
<polygon fill="#191970" stroke="#191970" points="162.1507,-16.4324 151.6981,-18.1623 160.9481,-23.3283 162.1507,-16.4324"/>
</g>
<!-- Node18 -->
<g id="node18" class="node">
<title>Node18</title>
<g id="a_node18"><a xlink:title=" ">
<polygon fill="#ffffff" stroke="#bfbfbf" points="170,-.5 170,-19.5 272,-19.5 272,-.5 170,-.5"/>
<text text-anchor="middle" x="221" y="-7.5" font-family="Helvetica,sans-Serif" font-size="10.00" fill="#000000">cuda_profiler_api.h</text>
</a>
</g>
</g>
<!-- Node13&#45;&gt;Node18 -->
<g id="edge17" class="edge">
<title>Node13&#45;&gt;Node18</title>
<path fill="none" stroke="#191970" d="M498.1717,-57.8732C495.0735,-57.2205 491.9839,-56.5873 489,-56 469.0649,-52.0766 354.7468,-32.6279 282.0006,-20.3088"/>
<polygon fill="#191970" stroke="#191970" points="282.4698,-16.8385 272.0258,-18.6202 281.3013,-23.7403 282.4698,-16.8385"/>
</g>
<!-- Node19 -->
<g id="node19" class="node">
<title>Node19</title>
<g id="a_node19"><a xlink:title=" ">
<polygon fill="#ffffff" stroke="#bfbfbf" points="290,-.5 290,-19.5 364,-19.5 364,-.5 290,-.5"/>
<text text-anchor="middle" x="327" y="-7.5" font-family="Helvetica,sans-Serif" font-size="10.00" fill="#000000">nvToolsExt.h</text>
</a>
</g>
</g>
<!-- Node13&#45;&gt;Node19 -->
<g id="edge18" class="edge">
<title>Node13&#45;&gt;Node19</title>
<path fill="none" stroke="#191970" d="M498.4154,-56.3733C463.3984,-46.9001 409.8119,-32.4032 371.8875,-22.1435"/>
<polygon fill="#191970" stroke="#191970" points="372.6873,-18.7341 362.1202,-19.5011 370.8592,-25.4912 372.6873,-18.7341"/>
</g>
<!-- Node20 -->
<g id="node20" class="node">
<title>Node20</title>
<g id="a_node20"><a xlink:title=" ">
<polygon fill="#ffffff" stroke="#bfbfbf" points="382.5,-.5 382.5,-19.5 457.5,-19.5 457.5,-.5 382.5,-.5"/>
<text text-anchor="middle" x="420" y="-7.5" font-family="Helvetica,sans-Serif" font-size="10.00" fill="#000000">cuComplex.h</text>
</a>
</g>
</g>
<!-- Node13&#45;&gt;Node20 -->
<g id="edge19" class="edge">
<title>Node13&#45;&gt;Node20</title>
<path fill="none" stroke="#191970" d="M514.4027,-56.3733C496.2669,-47.4644 469.0865,-34.1127 448.5413,-24.0203"/>
<polygon fill="#191970" stroke="#191970" points="449.8603,-20.7688 439.3416,-19.5011 446.7739,-27.0517 449.8603,-20.7688"/>
</g>
<!-- Node21 -->
<g id="node21" class="node">
<title>Node21</title>
<g id="a_node21"><a xlink:title=" ">
<polygon fill="#ffffff" stroke="#bfbfbf" points="476,-.5 476,-19.5 538,-19.5 538,-.5 476,-.5"/>
<text text-anchor="middle" x="507" y="-7.5" font-family="Helvetica,sans-Serif" font-size="10.00" fill="#000000">execinfo.h</text>
</a>
</g>
</g>
<!-- Node13&#45;&gt;Node21 -->
<g id="edge20" class="edge">
<title>Node13&#45;&gt;Node21</title>
<path fill="none" stroke="#191970" d="M529.297,-56.2455C525.6576,-48.6973 520.5076,-38.0158 516.0738,-28.8197"/>
<polygon fill="#191970" stroke="#191970" points="519.1449,-27.1303 511.6491,-19.6427 512.8395,-30.1704 519.1449,-27.1303"/>
</g>
<!-- Node22 -->
<g id="node22" class="node">
<title>Node22</title>
<g id="a_node22"><a xlink:title=" ">
<polygon fill="#ffffff" stroke="#bfbfbf" points="1508,-.5 1508,-19.5 1560,-19.5 1560,-.5 1508,-.5"/>
<text text-anchor="middle" x="1534" y="-7.5" font-family="Helvetica,sans-Serif" font-size="10.00" fill="#000000">unistd.h</text>
</a>
</g>
</g>
<!-- Node13&#45;&gt;Node22 -->
<g id="edge21" class="edge">
<title>Node13&#45;&gt;Node22</title>
<path fill="none" stroke="#191970" d="M569.9242,-57.2957C572.647,-56.8017 575.3611,-56.3605 578,-56 670.3292,-43.3861 1334.9091,-17.5576 1497.9547,-11.3591"/>
<polygon fill="#191970" stroke="#191970" points="1498.0975,-14.8563 1507.9575,-10.9796 1497.832,-7.8613 1498.0975,-14.8563"/>
</g>
<!-- Node23 -->
<g id="node23" class="node">
<title>Node23</title>
<g id="a_node23"><a xlink:title=" ">
<polygon fill="#ffffff" stroke="#bfbfbf" points="556.5,-.5 556.5,-19.5 607.5,-19.5 607.5,-.5 556.5,-.5"/>
<text text-anchor="middle" x="582" y="-7.5" font-family="Helvetica,sans-Serif" font-size="10.00" fill="#000000">signal.h</text>
</a>
</g>
</g>
<!-- Node13&#45;&gt;Node23 -->
<g id="edge22" class="edge">
<title>Node13&#45;&gt;Node23</title>
<path fill="none" stroke="#191970" d="M542.361,-56.2455C549.175,-48.2958 558.9681,-36.8706 567.1152,-27.3656"/>
<polygon fill="#191970" stroke="#191970" points="569.8843,-29.513 573.7349,-19.6427 564.5695,-24.9575 569.8843,-29.513"/>
</g>
<!-- Node24 -->
<g id="node24" class="node">
<title>Node24</title>
<g id="a_node24"><a xlink:title=" ">
<polygon fill="#ffffff" stroke="#bfbfbf" points="859,-.5 859,-19.5 911,-19.5 911,-.5 859,-.5"/>
<text text-anchor="middle" x="885" y="-7.5" font-family="Helvetica,sans-Serif" font-size="10.00" fill="#000000">assert.h</text>
</a>
</g>
</g>
<!-- Node13&#45;&gt;Node24 -->
<g id="edge23" class="edge">
<title>Node13&#45;&gt;Node24</title>
<path fill="none" stroke="#191970" d="M569.9636,-57.5449C572.6772,-56.9933 575.3785,-56.471 578,-56 697.5877,-34.5138 729.956,-44.3183 849,-20 849.0993,-19.9797 849.1987,-19.9593 849.2983,-19.9388"/>
<polygon fill="#191970" stroke="#191970" points="849.8066,-23.4139 858.7563,-17.7436 848.2239,-16.5952 849.8066,-23.4139"/>
</g>
<!-- Node25 -->
<g id="node25" class="node">
<title>Node25</title>
<g id="a_node25"><a xlink:title=" ">
<polygon fill="#ffffff" stroke="#bfbfbf" points="1190,-.5 1190,-19.5 1234,-19.5 1234,-.5 1190,-.5"/>
<text text-anchor="middle" x="1212" y="-7.5" font-family="Helvetica,sans-Serif" font-size="10.00" fill="#000000">vector</text>
</a>
</g>
</g>
<!-- Node13&#45;&gt;Node25 -->
<g id="edge25" class="edge">
<title>Node13&#45;&gt;Node25</title>
<path fill="none" stroke="#191970" d="M569.9346,-57.3681C572.6549,-56.8574 575.3656,-56.3926 578,-56 806.8911,-21.8857 1086.1965,-12.7947 1179.7446,-10.6221"/>
<polygon fill="#191970" stroke="#191970" points="1180.0481,-14.1164 1189.9681,-10.3955 1179.8929,-7.1181 1180.0481,-14.1164"/>
</g>
<!-- Node26 -->
<g id="node26" class="node">
<title>Node26</title>
<g id="a_node26"><a xlink:title=" ">
<polygon fill="#ffffff" stroke="#bfbfbf" points="626,-.5 626,-19.5 672,-19.5 672,-.5 626,-.5"/>
<text text-anchor="middle" x="649" y="-7.5" font-family="Helvetica,sans-Serif" font-size="10.00" fill="#000000">stdio.h</text>
</a>
</g>
</g>
<!-- Node13&#45;&gt;Node26 -->
<g id="edge26" class="edge">
<title>Node13&#45;&gt;Node26</title>
<path fill="none" stroke="#191970" d="M553.7692,-56.3733C572.1469,-47.4241 599.7312,-33.9917 620.4893,-23.8835"/>
<polygon fill="#191970" stroke="#191970" points="622.0304,-27.026 629.4888,-19.5011 618.9657,-20.7325 622.0304,-27.026"/>
</g>
<!-- Node27&#45;&gt;Node7 -->
<g id="edge33" class="edge">
<title>Node27&#45;&gt;Node7</title>
<path fill="none" stroke="#191970" d="M987.8209,-112.4748C951.16,-103.2863 894.2391,-88.91 845,-76 843.7328,-75.6678 842.4417,-75.3275 841.1378,-74.9823"/>
<polygon fill="#191970" stroke="#191970" points="841.6428,-71.4946 831.0783,-72.295 839.8361,-78.2574 841.6428,-71.4946"/>
</g>
<!-- Node27&#45;&gt;Node10 -->
<g id="edge30" class="edge">
<title>Node27&#45;&gt;Node10</title>
<path fill="none" stroke="#191970" d="M981.2998,-115.846C933.0012,-108.739 853.6926,-95.744 776.4324,-75.7809"/>
<polygon fill="#191970" stroke="#191970" points="777.0941,-72.3361 766.533,-73.1812 775.316,-79.1065 777.0941,-72.3361"/>
</g>
<!-- Node27&#45;&gt;Node24 -->
<g id="edge28" class="edge">
<title>Node27&#45;&gt;Node24</title>
<path fill="none" stroke="#191970" d="M981.2532,-113.5617C943.8532,-105.4918 894.7888,-92.1759 883,-76 873.3155,-62.7115 875.1114,-43.5941 878.563,-29.3516"/>
<polygon fill="#191970" stroke="#191970" points="881.9707,-30.1651 881.3625,-19.5877 875.2418,-28.2357 881.9707,-30.1651"/>
</g>
<!-- Node27&#45;&gt;Node25 -->
<g id="edge31" class="edge">
<title>Node27&#45;&gt;Node25</title>
<path fill="none" stroke="#191970" d="M981.4156,-112.5341C941.5826,-102.078 892.8185,-83.0623 916,-56 933.0504,-36.0952 1106.7889,-19.0151 1179.8766,-12.6534"/>
<polygon fill="#191970" stroke="#191970" points="1180.2349,-16.1356 1189.899,-11.7935 1179.6364,-9.1613 1180.2349,-16.1356"/>
</g>
<!-- Node28 -->
<g id="node28" class="node">
<title>Node28</title>
<g id="a_node28"><a xlink:title=" ">
<polygon fill="#ffffff" stroke="#bfbfbf" points="1305,-56.5 1305,-75.5 1349,-75.5 1349,-56.5 1305,-56.5"/>
<text text-anchor="middle" x="1327" y="-63.5" font-family="Helvetica,sans-Serif" font-size="10.00" fill="#000000">cmath</text>
</a>
</g>
</g>
<!-- Node27&#45;&gt;Node28 -->
<g id="edge29" class="edge">
<title>Node27&#45;&gt;Node28</title>
<path fill="none" stroke="#191970" d="M1070.6378,-116.2284C1124.3087,-108.8618 1216.9205,-94.787 1295,-76 1295.099,-75.9762 1295.1982,-75.9522 1295.2975,-75.9281"/>
<polygon fill="#191970" stroke="#191970" points="1295.9873,-79.3674 1304.7265,-73.3776 1294.1595,-72.6102 1295.9873,-79.3674"/>
</g>
<!-- Node29 -->
<g id="node29" class="node">
<title>Node29</title>
<g id="a_node29"><a xlink:title=" ">
<polygon fill="#ffffff" stroke="#bfbfbf" points="925.5,-56.5 925.5,-75.5 978.5,-75.5 978.5,-56.5 925.5,-56.5"/>
<text text-anchor="middle" x="952" y="-63.5" font-family="Helvetica,sans-Serif" font-size="10.00" fill="#000000">ostream</text>
</a>
</g>
</g>
<!-- Node27&#45;&gt;Node29 -->
<g id="edge32" class="edge">
<title>Node27&#45;&gt;Node29</title>
<path fill="none" stroke="#191970" d="M1013.1102,-112.2455C1002.0746,-103.8943 985.9708,-91.7076 973.0647,-81.9408"/>
<polygon fill="#191970" stroke="#191970" points="974.8283,-78.8862 964.7421,-75.6427 970.6041,-84.4681 974.8283,-78.8862"/>
</g>
<!-- Node30 -->
<g id="node30" class="node">
<title>Node30</title>
<g id="a_node30"><a xlink:title=" ">
<polygon fill="#ffffff" stroke="#bfbfbf" points="1063.5,-56.5 1063.5,-75.5 1136.5,-75.5 1136.5,-56.5 1063.5,-56.5"/>
<text text-anchor="middle" x="1100" y="-63.5" font-family="Helvetica,sans-Serif" font-size="10.00" fill="#000000">initializer_list</text>
</a>
</g>
</g>
<!-- Node27&#45;&gt;Node30 -->
<g id="edge34" class="edge">
<title>Node27&#45;&gt;Node30</title>
<path fill="none" stroke="#191970" d="M1038.8898,-112.2455C1049.9254,-103.8943 1066.0292,-91.7076 1078.9353,-81.9408"/>
<polygon fill="#191970" stroke="#191970" points="1081.3959,-84.4681 1087.2579,-75.6427 1077.1717,-78.8862 1081.3959,-84.4681"/>
</g>
<!-- Node31 -->
<g id="node31" class="node">
<title>Node31</title>
<g id="a_node31"><a xlink:title=" ">
<polygon fill="#ffffff" stroke="#bfbfbf" points="1154.5,-56.5 1154.5,-75.5 1213.5,-75.5 1213.5,-56.5 1154.5,-56.5"/>
<text text-anchor="middle" x="1184" y="-63.5" font-family="Helvetica,sans-Serif" font-size="10.00" fill="#000000">stdexcept</text>
</a>
</g>
</g>
<!-- Node27&#45;&gt;Node31 -->
<g id="edge35" class="edge">
<title>Node27&#45;&gt;Node31</title>
<path fill="none" stroke="#191970" d="M1053.1612,-112.3733C1079.2067,-103.1419 1118.7116,-89.1402 1147.4979,-78.9375"/>
<polygon fill="#191970" stroke="#191970" points="1148.937,-82.1408 1157.1933,-75.5011 1146.5985,-75.5429 1148.937,-82.1408"/>
</g>
<!-- Node32 -->
<g id="node32" class="node">
<title>Node32</title>
<g id="a_node32"><a xlink:title=" ">
<polygon fill="#ffffff" stroke="#bfbfbf" points="1367,-56.5 1367,-75.5 1419,-75.5 1419,-56.5 1367,-56.5"/>
<text text-anchor="middle" x="1393" y="-63.5" font-family="Helvetica,sans-Serif" font-size="10.00" fill="#000000">sstream</text>
</a>
</g>
</g>
<!-- Node27&#45;&gt;Node32 -->
<g id="edge36" class="edge">
<title>Node27&#45;&gt;Node32</title>
<path fill="none" stroke="#191970" d="M1070.6471,-117.8292C1132.7754,-111.5842 1248.9233,-98.3135 1356.6622,-76.0473"/>
<polygon fill="#191970" stroke="#191970" points="1357.658,-79.4147 1366.7261,-73.9356 1356.2204,-72.5639 1357.658,-79.4147"/>
</g>
<!-- Node33&#45;&gt;Node4 -->
<g id="edge41" class="edge">
<title>Node33&#45;&gt;Node4</title>
<path fill="none" stroke="#191970" d="M1496.7205,-115.6642C1451.644,-107.8122 1373.2843,-93.5533 1296.6466,-76.0213"/>
<polygon fill="#191970" stroke="#191970" points="1297.3565,-72.5932 1286.8254,-73.7541 1295.7819,-79.4138 1297.3565,-72.5932"/>
</g>
<!-- Node33&#45;&gt;Node11 -->
<g id="edge47" class="edge">
<title>Node33&#45;&gt;Node11</title>
<path fill="none" stroke="#191970" d="M1571.0977,-121.0675C1636.0112,-118.5681 1765.9808,-109.4116 1794,-76 1809.3325,-57.7167 1784.5775,-37.7246 1762.1585,-24.5899"/>
<polygon fill="#191970" stroke="#191970" points="1763.5768,-21.3739 1753.136,-19.5738 1760.1754,-27.492 1763.5768,-21.3739"/>
</g>
<!-- Node33&#45;&gt;Node12 -->
<g id="edge38" class="edge">
<title>Node33&#45;&gt;Node12</title>
<path fill="none" stroke="#191970" d="M1496.9664,-119.4084C1403.0683,-112.6894 1156.5422,-94.0904 1055.8605,-75.9901"/>
<polygon fill="#191970" stroke="#191970" points="1056.2094,-72.494 1045.7326,-74.0708 1054.906,-79.3716 1056.2094,-72.494"/>
</g>
<!-- Node33&#45;&gt;Node22 -->
<g id="edge46" class="edge">
<title>Node33&#45;&gt;Node22</title>
<path fill="none" stroke="#191970" d="M1571.3682,-120.5401C1632.9017,-117.2648 1751.3198,-106.9975 1777,-76 1782.6708,-69.155 1782.6708,-62.845 1777,-56 1751.1705,-24.8223 1631.522,-14.6165 1570.301,-11.4035"/>
<polygon fill="#191970" stroke="#191970" points="1570.4512,-7.9067 1560.292,-10.9134 1570.1088,-14.8984 1570.4512,-7.9067"/>
</g>
<!-- Node33&#45;&gt;Node25 -->
<g id="edge42" class="edge">
<title>Node33&#45;&gt;Node25</title>
<path fill="none" stroke="#191970" d="M1524.2697,-112.4347C1508.8393,-97.8483 1477.1931,-70.2417 1445,-56 1377.4842,-26.1321 1290.4304,-15.5419 1244.1977,-11.8741"/>
<polygon fill="#191970" stroke="#191970" points="1244.395,-8.3792 1234.1655,-11.1371 1243.8821,-15.3604 1244.395,-8.3792"/>
</g>
<!-- Node33&#45;&gt;Node28 -->
<g id="edge39" class="edge">
<title>Node33&#45;&gt;Node28</title>
<path fill="none" stroke="#191970" d="M1496.7503,-112.9126C1463.1055,-104.5608 1412.0257,-91.5265 1359.1874,-76.2408"/>
<polygon fill="#191970" stroke="#191970" points="1359.8845,-72.7984 1349.3047,-73.361 1357.9262,-79.5189 1359.8845,-72.7984"/>
</g>
<!-- Node33&#45;&gt;Node32 -->
<g id="edge44" class="edge">
<title>Node33&#45;&gt;Node32</title>
<path fill="none" stroke="#191970" d="M1509.7612,-112.3733C1486.7211,-103.2226 1451.8786,-89.3844 1426.2499,-79.2057"/>
<polygon fill="#191970" stroke="#191970" points="1427.5082,-75.9395 1416.9225,-75.5011 1424.9244,-82.4452 1427.5082,-75.9395"/>
</g>
<!-- Node34 -->
<g id="node34" class="node">
<title>Node34</title>
<g id="a_node34"><a xlink:title=" ">
<polygon fill="#ffffff" stroke="#bfbfbf" points="1513.5,-56.5 1513.5,-75.5 1554.5,-75.5 1554.5,-56.5 1513.5,-56.5"/>
<text text-anchor="middle" x="1534" y="-63.5" font-family="Helvetica,sans-Serif" font-size="10.00" fill="#000000">string</text>
</a>
</g>
</g>
<!-- Node33&#45;&gt;Node34 -->
<g id="edge40" class="edge">
<title>Node33&#45;&gt;Node34</title>
<path fill="none" stroke="#191970" d="M1534,-112.2455C1534,-104.9382 1534,-94.6944 1534,-85.7046"/>
<polygon fill="#191970" stroke="#191970" points="1537.5001,-85.6426 1534,-75.6427 1530.5001,-85.6427 1537.5001,-85.6426"/>
</g>
<!-- Node35 -->
<g id="node35" class="node">
<title>Node35</title>
<g id="a_node35"><a xlink:title=" ">
<polygon fill="#ffffff" stroke="#bfbfbf" points="1573,-56.5 1573,-75.5 1623,-75.5 1623,-56.5 1573,-56.5"/>
<text text-anchor="middle" x="1598" y="-63.5" font-family="Helvetica,sans-Serif" font-size="10.00" fill="#000000">fstream</text>
</a>
</g>
</g>
<!-- Node33&#45;&gt;Node35 -->
<g id="edge43" class="edge">
<title>Node33&#45;&gt;Node35</title>
<path fill="none" stroke="#191970" d="M1545.1479,-112.2455C1554.5087,-104.0549 1568.0858,-92.1749 1579.1349,-82.5069"/>
<polygon fill="#191970" stroke="#191970" points="1581.7588,-84.8618 1586.9798,-75.6427 1577.1492,-79.5937 1581.7588,-84.8618"/>
</g>
<!-- Node36 -->
<g id="node36" class="node">
<title>Node36</title>
<g id="a_node36"><a xlink:title=" ">
<polygon fill="#ffffff" stroke="#bfbfbf" points="1641,-56.5 1641,-75.5 1703,-75.5 1703,-56.5 1641,-56.5"/>
<text text-anchor="middle" x="1672" y="-63.5" font-family="Helvetica,sans-Serif" font-size="10.00" fill="#000000">sys/time.h</text>
</a>
</g>
</g>
<!-- Node33&#45;&gt;Node36 -->
<g id="edge45" class="edge">
<title>Node33&#45;&gt;Node36</title>
<path fill="none" stroke="#191970" d="M1557.723,-112.3733C1580.1737,-103.2629 1614.0739,-89.5062 1639.1255,-79.3404"/>
<polygon fill="#191970" stroke="#191970" points="1640.6365,-82.5045 1648.5865,-75.5011 1638.0043,-76.0182 1640.6365,-82.5045"/>
</g>
<!-- Node37 -->
<g id="node37" class="node">
<title>Node37</title>
<g id="a_node37"><a xlink:title=" ">
<polygon fill="#ffffff" stroke="#bfbfbf" points="1721.5,-56.5 1721.5,-75.5 1768.5,-75.5 1768.5,-56.5 1721.5,-56.5"/>
<text text-anchor="middle" x="1745" y="-63.5" font-family="Helvetica,sans-Serif" font-size="10.00" fill="#000000">chrono</text>
</a>
</g>
</g>
<!-- Node33&#45;&gt;Node37 -->
<g id="edge48" class="edge">
<title>Node33&#45;&gt;Node37</title>
<path fill="none" stroke="#191970" d="M1571.2804,-112.8424C1605.3336,-104.3715 1657.2943,-91.1822 1711.4636,-76.07"/>
<polygon fill="#191970" stroke="#191970" points="1712.558,-79.3982 1721.2413,-73.3277 1710.6676,-72.6582 1712.558,-79.3982"/>
</g>
<!-- Node38 -->
<g id="node38" class="node">
<title>Node38</title>
<g id="a_node38"><a xlink:title=" ">
<polygon fill="#ffffff" stroke="#bfbfbf" points="1863,-56.5 1863,-75.5 1917,-75.5 1917,-56.5 1863,-56.5"/>
<text text-anchor="middle" x="1890" y="-63.5" font-family="Helvetica,sans-Serif" font-size="10.00" fill="#000000">json.hpp</text>
</a>
</g>
</g>
<!-- Node33&#45;&gt;Node38 -->
<g id="edge49" class="edge">
<title>Node33&#45;&gt;Node38</title>
<path fill="none" stroke="#191970" d="M1571.0471,-117.7385C1630.121,-110.6858 1749.1787,-95.4171 1849,-76 1850.2541,-75.7561 1851.5276,-75.4989 1852.812,-75.2316"/>
<polygon fill="#191970" stroke="#191970" points="1853.7276,-78.6136 1862.7318,-73.0302 1852.211,-71.7799 1853.7276,-78.6136"/>
</g>
<!-- Node39&#45;&gt;Node4 -->
<g id="edge54" class="edge">
<title>Node39&#45;&gt;Node4</title>
<path fill="none" stroke="#191970" d="M1314.3295,-112.2455C1304.4339,-103.9746 1290.0373,-91.9416 1278.4099,-82.2232"/>
<polygon fill="#191970" stroke="#191970" points="1280.4542,-79.3703 1270.5368,-75.6427 1275.965,-84.7413 1280.4542,-79.3703"/>
</g>
<!-- Node39&#45;&gt;Node25 -->
<g id="edge53" class="edge">
<title>Node39&#45;&gt;Node25</title>
<path fill="none" stroke="#191970" d="M1360.1046,-114.1854C1397.8688,-103.9473 1450.6263,-83.9522 1428,-56 1405.2717,-27.9217 1298.9702,-16.2557 1244.444,-12.0537"/>
<polygon fill="#191970" stroke="#191970" points="1244.4977,-8.5483 1234.2692,-11.3101 1243.9875,-15.5297 1244.4977,-8.5483"/>
</g>
<!-- Node39&#45;&gt;Node31 -->
<g id="edge51" class="edge">
<title>Node39&#45;&gt;Node31</title>
<path fill="none" stroke="#191970" d="M1301.5893,-112.3733C1278.3858,-103.2226 1243.2962,-89.3844 1217.4858,-79.2057"/>
<polygon fill="#191970" stroke="#191970" points="1218.6789,-75.9139 1208.0921,-75.5011 1216.1108,-82.4258 1218.6789,-75.9139"/>
</g>
<!-- Node39&#45;&gt;Node32 -->
<g id="edge52" class="edge">
<title>Node39&#45;&gt;Node32</title>
<path fill="none" stroke="#191970" d="M1337.6705,-112.2455C1347.5661,-103.9746 1361.9627,-91.9416 1373.5901,-82.2232"/>
<polygon fill="#191970" stroke="#191970" points="1376.035,-84.7413 1381.4632,-75.6427 1371.5458,-79.3703 1376.035,-84.7413"/>
</g>
<!-- Node40&#45;&gt;Node11 -->
<g id="edge56" class="edge">
<title>Node40&#45;&gt;Node11</title>
<path fill="none" stroke="#191970" d="M1826.913,-117.6252C1877.638,-110.4539 1955.3037,-93.1089 1926,-56 1906.9672,-31.8978 1820.8092,-19.054 1770.2723,-13.4785"/>
<polygon fill="#191970" stroke="#191970" points="1770.3789,-9.9703 1760.0659,-12.3976 1769.6417,-16.9314 1770.3789,-9.9703"/>
</g>
</g>
</svg>
