<?xml version="1.0" encoding="UTF-8" standalone="no"?>
<!DOCTYPE svg PUBLIC "-//W3C//DTD SVG 1.1//EN"
 "http://www.w3.org/Graphics/SVG/1.1/DTD/svg11.dtd">
<!-- Generated by graphviz version 2.40.1 (20161225.0304)
 -->
<!-- Title: spheric_function.h Pages: 1 -->
<svg width="1092pt" height="644pt"
 viewBox="0.00 0.00 1091.50 644.00" xmlns="http://www.w3.org/2000/svg" xmlns:xlink="http://www.w3.org/1999/xlink">
<g id="graph0" class="graph" transform="scale(1 1) rotate(0) translate(4 640)">
<title>spheric_function.h</title>
<polygon fill="#ffffff" stroke="transparent" points="-4,4 -4,-640 1087.5,-640 1087.5,4 -4,4"/>
<!-- Node0 -->
<g id="node1" class="node">
<title>Node0</title>
<polygon fill="#bfbfbf" stroke="#000000" points="335.5,-616.5 335.5,-635.5 412.5,-635.5 412.5,-616.5 335.5,-616.5"/>
<text text-anchor="middle" x="374" y="-623.5" font-family="Helvetica,sans-Serif" font-size="10.00" fill="#000000">spheric_function.h</text>
</g>
<!-- Node1 -->
<g id="node2" class="node">
<title>Node1</title>
<polygon fill="#ffffff" stroke="#bfbfbf" points="132,-56.5 132,-75.5 166,-75.5 166,-56.5 132,-56.5"/>
<text text-anchor="middle" x="149" y="-63.5" font-family="Helvetica,sans-Serif" font-size="10.00" fill="#000000">array</text>
</g>
<!-- Node0&#45;&gt;Node1 -->
<g id="edge1" class="edge">
<title>Node0&#45;&gt;Node1</title>
<path fill="none" stroke="#191970" d="M335.441,-618.2852C262.4119,-602.8385 108.3183,-565.9734 76,-524 55.3644,-497.1995 68.7276,-481.6659 72,-448 81.3773,-351.5291 114,-330.9256 114,-234 114,-234 114,-234 114,-178 114,-143.8821 128.9795,-106.4701 139.3391,-84.676"/>
<polygon fill="#191970" stroke="#191970" points="142.5455,-86.0877 143.8356,-75.5717 136.2692,-82.9879 142.5455,-86.0877"/>
</g>
<!-- Node2 -->
<g id="node3" class="node">
<title>Node2</title>
<polygon fill="#ffffff" stroke="#bfbfbf" points="352.5,-560.5 352.5,-579.5 395.5,-579.5 395.5,-560.5 352.5,-560.5"/>
<text text-anchor="middle" x="374" y="-567.5" font-family="Helvetica,sans-Serif" font-size="10.00" fill="#000000">typeinfo</text>
</g>
<!-- Node0&#45;&gt;Node2 -->
<g id="edge2" class="edge">
<title>Node0&#45;&gt;Node2</title>
<path fill="none" stroke="#191970" d="M374,-616.2455C374,-608.9382 374,-598.6944 374,-589.7046"/>
<polygon fill="#191970" stroke="#191970" points="377.5001,-589.6426 374,-579.6427 370.5001,-589.6427 377.5001,-589.6426"/>
</g>
<!-- Node3 -->
<g id="node4" class="node">
<title>Node3</title>
<g id="a_node4"><a xlink:href="../../dc/da1/radial__grid_8h.html" target="_top" xlink:title="Contains declaraion and partial implementation of sirius::Radial_grid class. ">
<polygon fill="#ffffff" stroke="#000000" points="414,-560.5 414,-579.5 472,-579.5 472,-560.5 414,-560.5"/>
<text text-anchor="middle" x="443" y="-567.5" font-family="Helvetica,sans-Serif" font-size="10.00" fill="#000000">radial_grid.h</text>
</a>
</g>
</g>
<!-- Node0&#45;&gt;Node3 -->
<g id="edge3" class="edge">
<title>Node0&#45;&gt;Node3</title>
<path fill="none" stroke="#191970" d="M386.0189,-616.2455C396.2098,-607.9746 411.0362,-595.9416 423.0107,-586.2232"/>
<polygon fill="#191970" stroke="#191970" points="425.5598,-588.662 431.1188,-579.6427 421.1486,-583.2268 425.5598,-588.662"/>
</g>
<!-- Node4 -->
<g id="node5" class="node">
<title>Node4</title>
<g id="a_node5"><a xlink:href="../../dd/d09/spline_8h.html" target="_top" xlink:title="Contains definition and partial implementaiton of sirius::Spline class. ">
<polygon fill="#ffffff" stroke="#000000" points="490,-560.5 490,-579.5 532,-579.5 532,-560.5 490,-560.5"/>
<text text-anchor="middle" x="511" y="-567.5" font-family="Helvetica,sans-Serif" font-size="10.00" fill="#000000">spline.h</text>
</a>
</g>
</g>
<!-- Node0&#45;&gt;Node4 -->
<g id="edge4" class="edge">
<title>Node0&#45;&gt;Node4</title>
<path fill="none" stroke="#191970" d="M397.5511,-616.3733C420.5145,-606.9868 455.5438,-592.6682 480.5998,-582.4263"/>
<polygon fill="#191970" stroke="#191970" points="482.0669,-585.6078 489.9992,-578.5843 479.4183,-579.1282 482.0669,-585.6078"/>
</g>
<!-- Node5 -->
<g id="node6" class="node">
<title>Node5</title>
<g id="a_node6"><a xlink:href="../../d4/d8b/sht_8h.html" target="_top" xlink:title="Contains declaration and particular implementation of sirius::SHT class. ">
<polygon fill="#ffffff" stroke="#000000" points="301.5,-560.5 301.5,-579.5 334.5,-579.5 334.5,-560.5 301.5,-560.5"/>
<text text-anchor="middle" x="318" y="-567.5" font-family="Helvetica,sans-Serif" font-size="10.00" fill="#000000">sht.h</text>
</a>
</g>
</g>
<!-- Node0&#45;&gt;Node5 -->
<g id="edge5" class="edge">
<title>Node0&#45;&gt;Node5</title>
<path fill="none" stroke="#191970" d="M364.2455,-616.2455C356.1352,-608.1352 344.4075,-596.4075 334.7919,-586.7919"/>
<polygon fill="#191970" stroke="#191970" points="337.1887,-584.2389 327.6427,-579.6427 332.2389,-589.1887 337.1887,-584.2389"/>
</g>
<!-- Node6 -->
<g id="node7" class="node">
<title>Node6</title>
<polygon fill="#ffffff" stroke="#bfbfbf" points="104.5,-504.5 104.5,-523.5 143.5,-523.5 143.5,-504.5 104.5,-504.5"/>
<text text-anchor="middle" x="124" y="-511.5" font-family="Helvetica,sans-Serif" font-size="10.00" fill="#000000">math.h</text>
</g>
<!-- Node5&#45;&gt;Node6 -->
<g id="edge6" class="edge">
<title>Node5&#45;&gt;Node6</title>
<path fill="none" stroke="#191970" d="M301.3899,-565.8245C272.8953,-558.5715 212.7007,-542.8589 153.0796,-524.1957"/>
<polygon fill="#191970" stroke="#191970" points="154.1106,-520.851 143.5207,-521.1759 152.0018,-527.5258 154.1106,-520.851"/>
</g>
<!-- Node7 -->
<g id="node8" class="node">
<title>Node7</title>
<polygon fill="#ffffff" stroke="#bfbfbf" points="161.5,-504.5 161.5,-523.5 204.5,-523.5 204.5,-504.5 161.5,-504.5"/>
<text text-anchor="middle" x="183" y="-511.5" font-family="Helvetica,sans-Serif" font-size="10.00" fill="#000000">stddef.h</text>
</g>
<!-- Node5&#45;&gt;Node7 -->
<g id="edge7" class="edge">
<title>Node5&#45;&gt;Node7</title>
<path fill="none" stroke="#191970" d="M301.4464,-563.1333C279.7497,-554.1332 241.2635,-538.1686 214.0574,-526.8831"/>
<polygon fill="#191970" stroke="#191970" points="215.1744,-523.5573 204.5965,-522.9586 212.4923,-530.0231 215.1744,-523.5573"/>
</g>
<!-- Node8 -->
<g id="node9" class="node">
<title>Node8</title>
<polygon fill="#ffffff" stroke="#bfbfbf" points="223,-504.5 223,-523.5 309,-523.5 309,-504.5 223,-504.5"/>
<text text-anchor="middle" x="266" y="-511.5" font-family="Helvetica,sans-Serif" font-size="10.00" fill="#000000">gsl/gsl_sf_coupling.h</text>
</g>
<!-- Node5&#45;&gt;Node8 -->
<g id="edge8" class="edge">
<title>Node5&#45;&gt;Node8</title>
<path fill="none" stroke="#191970" d="M308.9423,-560.2455C301.4858,-552.2155 290.7366,-540.6394 281.8583,-531.0781"/>
<polygon fill="#191970" stroke="#191970" points="284.3232,-528.589 274.9539,-523.6427 279.1937,-533.3522 284.3232,-528.589"/>
</g>
<!-- Node9 -->
<g id="node10" class="node">
<title>Node9</title>
<polygon fill="#ffffff" stroke="#bfbfbf" points="327.5,-504.5 327.5,-523.5 414.5,-523.5 414.5,-504.5 327.5,-504.5"/>
<text text-anchor="middle" x="371" y="-511.5" font-family="Helvetica,sans-Serif" font-size="10.00" fill="#000000">gsl/gsl_sf_legendre.h</text>
</g>
<!-- Node5&#45;&gt;Node9 -->
<g id="edge9" class="edge">
<title>Node5&#45;&gt;Node9</title>
<path fill="none" stroke="#191970" d="M327.2319,-560.2455C334.8317,-552.2155 345.7877,-540.6394 354.8368,-531.0781"/>
<polygon fill="#191970" stroke="#191970" points="357.5421,-533.3115 361.8739,-523.6427 352.458,-528.4998 357.5421,-533.3115"/>
</g>
<!-- Node10 -->
<g id="node11" class="node">
<title>Node10</title>
<polygon fill="#ffffff" stroke="#bfbfbf" points="432.5,-504.5 432.5,-523.5 473.5,-523.5 473.5,-504.5 432.5,-504.5"/>
<text text-anchor="middle" x="453" y="-511.5" font-family="Helvetica,sans-Serif" font-size="10.00" fill="#000000">string.h</text>
</g>
<!-- Node5&#45;&gt;Node10 -->
<g id="edge10" class="edge">
<title>Node5&#45;&gt;Node10</title>
<path fill="none" stroke="#191970" d="M334.5536,-563.1333C356.5011,-554.0292 395.6286,-537.7985 422.8816,-526.4936"/>
<polygon fill="#191970" stroke="#191970" points="424.4353,-529.6383 432.3311,-522.5738 421.7531,-523.1725 424.4353,-529.6383"/>
</g>
<!-- Node11 -->
<g id="node12" class="node">
<title>Node11</title>
<polygon fill="#ffffff" stroke="#bfbfbf" points="229.5,-.5 229.5,-19.5 266.5,-19.5 266.5,-.5 229.5,-.5"/>
<text text-anchor="middle" x="248" y="-7.5" font-family="Helvetica,sans-Serif" font-size="10.00" fill="#000000">vector</text>
</g>
<!-- Node5&#45;&gt;Node11 -->
<g id="edge11" class="edge">
<title>Node5&#45;&gt;Node11</title>
<path fill="none" stroke="#191970" d="M301.3022,-568.5684C252.8199,-564.1459 113.1303,-549.4434 76,-524 23.3027,-487.8893 0,-465.8826 0,-402 0,-402 0,-402 0,-122 0,-86.9903 14.2452,-75.971 43,-56 71.3292,-36.3245 169.684,-20.6146 219.1387,-13.7494"/>
<polygon fill="#191970" stroke="#191970" points="219.7509,-17.1984 229.1882,-12.3829 218.8078,-10.2623 219.7509,-17.1984"/>
</g>
<!-- Node12 -->
<g id="node13" class="node">
<title>Node12</title>
<polygon fill="#ffffff" stroke="#bfbfbf" points="66.5,-56.5 66.5,-75.5 113.5,-75.5 113.5,-56.5 66.5,-56.5"/>
<text text-anchor="middle" x="90" y="-63.5" font-family="Helvetica,sans-Serif" font-size="10.00" fill="#000000">algorithm</text>
</g>
<!-- Node5&#45;&gt;Node12 -->
<g id="edge12" class="edge">
<title>Node5&#45;&gt;Node12</title>
<path fill="none" stroke="#191970" d="M301.2753,-568.7558C254.7636,-564.9654 125.311,-552.066 95,-524 72.6023,-503.2612 76,-488.5246 76,-458 76,-458 76,-458 76,-178 76,-145.311 81.9446,-107.6669 86.0866,-85.4058"/>
<polygon fill="#191970" stroke="#191970" points="89.5324,-86.0207 87.9941,-75.5381 82.6597,-84.692 89.5324,-86.0207"/>
</g>
<!-- Node13 -->
<g id="node14" class="node">
<title>Node13</title>
<g id="a_node14"><a xlink:href="../../d7/d69/typedefs_8h.html" target="_top" xlink:title="Contains typedefs, enums and type_wrapper class. ">
<polygon fill="#ffffff" stroke="#000000" points="898.5,-392.5 898.5,-411.5 949.5,-411.5 949.5,-392.5 898.5,-392.5"/>
<text text-anchor="middle" x="924" y="-399.5" font-family="Helvetica,sans-Serif" font-size="10.00" fill="#000000">typedefs.h</text>
</a>
</g>
</g>
<!-- Node5&#45;&gt;Node13 -->
<g id="edge13" class="edge">
<title>Node5&#45;&gt;Node13</title>
<path fill="none" stroke="#191970" d="M334.7129,-562.4779C337.4376,-561.4962 340.2642,-560.6184 343,-560 403.9246,-546.2292 857.7142,-565.9413 904,-524 932.3772,-498.2864 930.9144,-449.1553 927.4215,-421.7382"/>
<polygon fill="#191970" stroke="#191970" points="930.8704,-421.1353 925.9349,-411.7603 923.9468,-422.1669 930.8704,-421.1353"/>
</g>
<!-- Node20 -->
<g id="node21" class="node">
<title>Node20</title>
<g id="a_node21"><a xlink:href="../../d5/d60/utils_8h.html" target="_top" xlink:title="Contains definition and partial implementation of sirius::Utils class. ">
<polygon fill="#ffffff" stroke="#000000" points="492,-504.5 492,-523.5 528,-523.5 528,-504.5 492,-504.5"/>
<text text-anchor="middle" x="510" y="-511.5" font-family="Helvetica,sans-Serif" font-size="10.00" fill="#000000">utils.h</text>
</a>
</g>
</g>
<!-- Node5&#45;&gt;Node20 -->
<g id="edge20" class="edge">
<title>Node5&#45;&gt;Node20</title>
<path fill="none" stroke="#191970" d="M334.5667,-563.0319C337.3598,-561.9557 340.2461,-560.9033 343,-560 403.6371,-540.1095 421.0008,-542.7507 482,-524 482.0987,-523.9697 482.1975,-523.9392 482.2965,-523.9086"/>
<polygon fill="#191970" stroke="#191970" points="483.3072,-527.2609 491.7037,-520.7995 481.1105,-520.6144 483.3072,-527.2609"/>
</g>
<!-- Node82 -->
<g id="node46" class="node">
<title>Node82</title>
<g id="a_node46"><a xlink:href="../../d6/dc7/linalg_8hpp.html" target="_top" xlink:title="Linear algebra interface. ">
<polygon fill="#ffffff" stroke="#000000" points="769.5,-336.5 769.5,-355.5 818.5,-355.5 818.5,-336.5 769.5,-336.5"/>
<text text-anchor="middle" x="794" y="-343.5" font-family="Helvetica,sans-Serif" font-size="10.00" fill="#000000">linalg.hpp</text>
</a>
</g>
</g>
<!-- Node5&#45;&gt;Node82 -->
<g id="edge79" class="edge">
<title>Node5&#45;&gt;Node82</title>
<path fill="none" stroke="#191970" d="M334.5151,-562.865C337.3144,-561.8089 340.2162,-560.8065 343,-560 427.2305,-535.5973 453.7113,-551.4457 537,-524 644.986,-488.4159 689.2517,-494.9603 767,-412 779.143,-399.043 786.1548,-379.8857 789.9733,-365.5439"/>
<polygon fill="#191970" stroke="#191970" points="793.4064,-366.235 792.303,-355.6978 786.5945,-364.6232 793.4064,-366.235"/>
</g>
<!-- Node89 -->
<g id="node50" class="node">
<title>Node89</title>
<g id="a_node50"><a xlink:href="../../d3/d68/_lebedev_laikov_8h_source.html" target="_top" xlink:title="LebedevLaikov.h">
<polygon fill="#ffffff" stroke="#000000" points="822.5,-504.5 822.5,-523.5 895.5,-523.5 895.5,-504.5 822.5,-504.5"/>
<text text-anchor="middle" x="859" y="-511.5" font-family="Helvetica,sans-Serif" font-size="10.00" fill="#000000">LebedevLaikov.h</text>
</a>
</g>
</g>
<!-- Node5&#45;&gt;Node89 -->
<g id="edge80" class="edge">
<title>Node5&#45;&gt;Node89</title>
<path fill="none" stroke="#191970" d="M334.7202,-562.5096C337.4439,-561.5238 340.2684,-560.6364 343,-560 544.8791,-512.9686 602.6133,-551.9897 808,-524 809.4528,-523.802 810.9266,-523.5889 812.413,-523.3633"/>
<polygon fill="#191970" stroke="#191970" points="813.0207,-526.8104 822.3141,-521.7229 811.8765,-519.9046 813.0207,-526.8104"/>
</g>
<!-- Node14 -->
<g id="node15" class="node">
<title>Node14</title>
<polygon fill="#ffffff" stroke="#bfbfbf" points="675,-336.5 675,-355.5 713,-355.5 713,-336.5 675,-336.5"/>
<text text-anchor="middle" x="694" y="-343.5" font-family="Helvetica,sans-Serif" font-size="10.00" fill="#000000">cstdlib</text>
</g>
<!-- Node13&#45;&gt;Node14 -->
<g id="edge14" class="edge">
<title>Node13&#45;&gt;Node14</title>
<path fill="none" stroke="#191970" d="M898.367,-396.571C860.6507,-388.4572 788.0642,-372.363 727,-356 725.7315,-355.6601 724.438,-355.305 723.1333,-354.9398"/>
<polygon fill="#191970" stroke="#191970" points="723.7144,-351.4637 713.1346,-352.0278 721.757,-358.1845 723.7144,-351.4637"/>
</g>
<!-- Node15 -->
<g id="node16" class="node">
<title>Node15</title>
<polygon fill="#ffffff" stroke="#bfbfbf" points="1046.5,-336.5 1046.5,-355.5 1083.5,-355.5 1083.5,-336.5 1046.5,-336.5"/>
<text text-anchor="middle" x="1065" y="-343.5" font-family="Helvetica,sans-Serif" font-size="10.00" fill="#000000">hdf5.h</text>
</g>
<!-- Node13&#45;&gt;Node15 -->
<g id="edge15" class="edge">
<title>Node13&#45;&gt;Node15</title>
<path fill="none" stroke="#191970" d="M948.2388,-392.3733C972.8457,-382.6003 1010.9147,-367.4807 1036.844,-357.1825"/>
<polygon fill="#191970" stroke="#191970" points="1038.4663,-360.3042 1046.4682,-353.3601 1035.8824,-353.7985 1038.4663,-360.3042"/>
</g>
<!-- Node16 -->
<g id="node17" class="node">
<title>Node16</title>
<polygon fill="#ffffff" stroke="#bfbfbf" points="906.5,-336.5 906.5,-355.5 941.5,-355.5 941.5,-336.5 906.5,-336.5"/>
<text text-anchor="middle" x="924" y="-343.5" font-family="Helvetica,sans-Serif" font-size="10.00" fill="#000000">mpi.h</text>
</g>
<!-- Node13&#45;&gt;Node16 -->
<g id="edge16" class="edge">
<title>Node13&#45;&gt;Node16</title>
<path fill="none" stroke="#191970" d="M924,-392.2455C924,-384.9382 924,-374.6944 924,-365.7046"/>
<polygon fill="#191970" stroke="#191970" points="927.5001,-365.6426 924,-355.6427 920.5001,-365.6427 927.5001,-365.6426"/>
</g>
<!-- Node17 -->
<g id="node18" class="node">
<title>Node17</title>
<polygon fill="#ffffff" stroke="#bfbfbf" points="970.5,-.5 970.5,-19.5 1013.5,-19.5 1013.5,-.5 970.5,-.5"/>
<text text-anchor="middle" x="992" y="-7.5" font-family="Helvetica,sans-Serif" font-size="10.00" fill="#000000">assert.h</text>
</g>
<!-- Node13&#45;&gt;Node17 -->
<g id="edge17" class="edge">
<title>Node13&#45;&gt;Node17</title>
<path fill="none" stroke="#191970" d="M940.8053,-392.3224C967.843,-375.351 1018,-337.4704 1018,-290 1018,-290 1018,-290 1018,-122 1018,-88.7204 1006.9729,-51.2857 999.2813,-29.2224"/>
<polygon fill="#191970" stroke="#191970" points="1002.5329,-27.9219 995.8364,-19.7117 995.9513,-30.3059 1002.5329,-27.9219"/>
</g>
<!-- Node18 -->
<g id="node19" class="node">
<title>Node18</title>
<polygon fill="#ffffff" stroke="#bfbfbf" points="882,-.5 882,-19.5 926,-19.5 926,-.5 882,-.5"/>
<text text-anchor="middle" x="904" y="-7.5" font-family="Helvetica,sans-Serif" font-size="10.00" fill="#000000">complex</text>
</g>
<!-- Node13&#45;&gt;Node18 -->
<g id="edge18" class="edge">
<title>Node13&#45;&gt;Node18</title>
<path fill="none" stroke="#191970" d="M932.75,-392.3262C948.5,-373.87 980,-331.7399 980,-290 980,-290 980,-290 980,-122 980,-90.7875 973.5636,-81.802 956,-56 948.1578,-44.4793 936.7918,-33.9817 926.6849,-25.9331"/>
<polygon fill="#191970" stroke="#191970" points="928.6741,-23.0487 918.5962,-19.7796 924.4358,-28.6198 928.6741,-23.0487"/>
</g>
<!-- Node19 -->
<g id="node20" class="node">
<title>Node19</title>
<polygon fill="#ffffff" stroke="#bfbfbf" points="312,-168.5 312,-187.5 346,-187.5 346,-168.5 312,-168.5"/>
<text text-anchor="middle" x="329" y="-175.5" font-family="Helvetica,sans-Serif" font-size="10.00" fill="#000000">limits</text>
</g>
<!-- Node13&#45;&gt;Node19 -->
<g id="edge19" class="edge">
<title>Node13&#45;&gt;Node19</title>
<path fill="none" stroke="#191970" d="M898.4488,-396.5978C865.7145,-389.28 807.528,-374.9265 760,-356 742.2689,-348.9392 740.0632,-342.1618 722,-336 634.0341,-305.9929 602.4659,-334.089 516,-300 448.7991,-273.5062 380.3467,-220.9392 348.0723,-194.2957"/>
<polygon fill="#191970" stroke="#191970" points="350.2311,-191.5384 340.3135,-187.8111 345.742,-196.9096 350.2311,-191.5384"/>
</g>
<!-- Node20&#45;&gt;Node13 -->
<g id="edge25" class="edge">
<title>Node20&#45;&gt;Node13</title>
<path fill="none" stroke="#191970" d="M528.2996,-512.2245C571.2332,-507.745 681.4895,-494.4128 770,-468 815.7755,-454.3399 866.1965,-431.0447 896.4646,-416.098"/>
<polygon fill="#191970" stroke="#191970" points="898.1684,-419.1593 905.5523,-411.5613 895.0419,-412.8964 898.1684,-419.1593"/>
</g>
<!-- Node20&#45;&gt;Node18 -->
<g id="edge24" class="edge">
<title>Node20&#45;&gt;Node18</title>
<path fill="none" stroke="#191970" d="M528.1883,-509.9151C598.9025,-492.8546 854.6447,-419.8318 916,-244 942.3943,-168.3594 921.0757,-70.6109 909.8351,-29.5371"/>
<polygon fill="#191970" stroke="#191970" points="913.1473,-28.3885 907.0421,-19.7296 906.415,-30.3058 913.1473,-28.3885"/>
</g>
<!-- Node21 -->
<g id="node22" class="node">
<title>Node21</title>
<polygon fill="#ffffff" stroke="#bfbfbf" points="104.5,-448.5 104.5,-467.5 171.5,-467.5 171.5,-448.5 104.5,-448.5"/>
<text text-anchor="middle" x="138" y="-455.5" font-family="Helvetica,sans-Serif" font-size="10.00" fill="#000000">gsl/gsl_sf_erf.h</text>
</g>
<!-- Node20&#45;&gt;Node21 -->
<g id="edge21" class="edge">
<title>Node20&#45;&gt;Node21</title>
<path fill="none" stroke="#191970" d="M491.8017,-506.839C488.5737,-505.7597 485.2158,-504.7565 482,-504 354.0504,-473.9024 315.572,-490.4373 181.9433,-467.9729"/>
<polygon fill="#191970" stroke="#191970" points="182.1788,-464.462 171.7295,-466.2118 180.9893,-471.3602 182.1788,-464.462"/>
</g>
<!-- Node22 -->
<g id="node23" class="node">
<title>Node22</title>
<polygon fill="#ffffff" stroke="#bfbfbf" points="190,-448.5 190,-467.5 232,-467.5 232,-448.5 190,-448.5"/>
<text text-anchor="middle" x="211" y="-455.5" font-family="Helvetica,sans-Serif" font-size="10.00" fill="#000000">fstream</text>
</g>
<!-- Node20&#45;&gt;Node22 -->
<g id="edge22" class="edge">
<title>Node20&#45;&gt;Node22</title>
<path fill="none" stroke="#191970" d="M491.7803,-506.9266C488.5547,-505.8375 485.2031,-504.8083 482,-504 379.1231,-478.0379 349.663,-490.6198 246,-468 244.7497,-467.7272 243.4782,-467.435 242.1967,-467.1281"/>
<polygon fill="#191970" stroke="#191970" points="242.9212,-463.7001 232.362,-464.5686 241.1581,-470.4745 242.9212,-463.7001"/>
</g>
<!-- Node23 -->
<g id="node24" class="node">
<title>Node23</title>
<polygon fill="#ffffff" stroke="#bfbfbf" points="184.5,-56.5 184.5,-75.5 219.5,-75.5 219.5,-56.5 184.5,-56.5"/>
<text text-anchor="middle" x="202" y="-63.5" font-family="Helvetica,sans-Serif" font-size="10.00" fill="#000000">string</text>
</g>
<!-- Node20&#45;&gt;Node23 -->
<g id="edge23" class="edge">
<title>Node20&#45;&gt;Node23</title>
<path fill="none" stroke="#191970" d="M491.8323,-507.5002C432.9213,-486.3764 250.3785,-420.532 240,-412 213.3245,-390.0704 199,-380.5325 199,-346 199,-346 199,-346 199,-234 199,-180.4798 200.5409,-117.3841 201.414,-85.9272"/>
<polygon fill="#191970" stroke="#191970" points="204.9149,-85.9413 201.7014,-75.8456 197.9178,-85.7418 204.9149,-85.9413"/>
</g>
<!-- Node24 -->
<g id="node25" class="node">
<title>Node24</title>
<g id="a_node25"><a xlink:href="../../d2/d6f/constants_8h.html" target="_top" xlink:title="Various constants. ">
<polygon fill="#ffffff" stroke="#000000" points="417.5,-448.5 417.5,-467.5 472.5,-467.5 472.5,-448.5 417.5,-448.5"/>
<text text-anchor="middle" x="445" y="-455.5" font-family="Helvetica,sans-Serif" font-size="10.00" fill="#000000">constants.h</text>
</a>
</g>
</g>
<!-- Node20&#45;&gt;Node24 -->
<g id="edge26" class="edge">
<title>Node20&#45;&gt;Node24</title>
<path fill="none" stroke="#191970" d="M498.6779,-504.2455C489.0777,-495.9746 475.1108,-483.9416 463.8305,-474.2232"/>
<polygon fill="#191970" stroke="#191970" points="466.053,-471.5182 456.1924,-467.6427 461.484,-476.8214 466.053,-471.5182"/>
</g>
<!-- Node25 -->
<g id="node26" class="node">
<title>Node25</title>
<g id="a_node26"><a xlink:href="../../db/d5a/sddk_8hpp_source.html" target="_top" xlink:title="sddk.hpp">
<polygon fill="#ffffff" stroke="#000000" points="490.5,-448.5 490.5,-467.5 537.5,-467.5 537.5,-448.5 490.5,-448.5"/>
<text text-anchor="middle" x="514" y="-455.5" font-family="Helvetica,sans-Serif" font-size="10.00" fill="#000000">sddk.hpp</text>
</a>
</g>
</g>
<!-- Node20&#45;&gt;Node25 -->
<g id="edge27" class="edge">
<title>Node20&#45;&gt;Node25</title>
<path fill="none" stroke="#191970" d="M510.6967,-504.2455C511.2187,-496.9382 511.9504,-486.6944 512.5925,-477.7046"/>
<polygon fill="#191970" stroke="#191970" points="516.0898,-477.8667 513.3112,-467.6427 509.1076,-477.3679 516.0898,-477.8667"/>
</g>
<!-- Node26 -->
<g id="node27" class="node">
<title>Node26</title>
<g id="a_node27"><a xlink:href="../../db/d0e/sddk__internal_8hpp_source.html" target="_top" xlink:title="sddk_internal.hpp">
<polygon fill="#ffffff" stroke="#ff0000" points="304,-112.5 304,-131.5 380,-131.5 380,-112.5 304,-112.5"/>
<text text-anchor="middle" x="342" y="-119.5" font-family="Helvetica,sans-Serif" font-size="10.00" fill="#000000">sddk_internal.hpp</text>
</a>
</g>
</g>
<!-- Node25&#45;&gt;Node26 -->
<g id="edge28" class="edge">
<title>Node25&#45;&gt;Node26</title>
<path fill="none" stroke="#191970" d="M509.0379,-448.3065C485.35,-402.0326 383.6056,-203.276 351.6456,-140.8425"/>
<polygon fill="#191970" stroke="#191970" points="354.6546,-139.0394 346.9823,-131.7328 348.4235,-142.2292 354.6546,-139.0394"/>
</g>
<!-- Node61 -->
<g id="node32" class="node">
<title>Node61</title>
<g id="a_node32"><a xlink:href="../../d1/d76/mpi__grid_8hpp.html" target="_top" xlink:title="Contains declaration and implementation of MPI_grid class. ">
<polygon fill="#ffffff" stroke="#ff0000" points="449,-168.5 449,-187.5 509,-187.5 509,-168.5 449,-168.5"/>
<text text-anchor="middle" x="479" y="-175.5" font-family="Helvetica,sans-Serif" font-size="10.00" fill="#000000">mpi_grid.hpp</text>
</a>
</g>
</g>
<!-- Node25&#45;&gt;Node61 -->
<g id="edge40" class="edge">
<title>Node25&#45;&gt;Node61</title>
<path fill="none" stroke="#191970" d="M512.7952,-448.3618C507.7677,-408.1418 488.402,-253.2159 481.4786,-197.8288"/>
<polygon fill="#191970" stroke="#191970" points="484.9131,-197.0863 480.1997,-187.5977 477.9672,-197.9546 484.9131,-197.0863"/>
</g>
<!-- Node62 -->
<g id="node33" class="node">
<title>Node62</title>
<g id="a_node33"><a xlink:href="../../d4/dd8/blacs__grid_8hpp.html" target="_top" xlink:title="Contains declaration and implementation of BLACS_grid class. ">
<polygon fill="#ffffff" stroke="#ff0000" points="525.5,-224.5 525.5,-243.5 590.5,-243.5 590.5,-224.5 525.5,-224.5"/>
<text text-anchor="middle" x="558" y="-231.5" font-family="Helvetica,sans-Serif" font-size="10.00" fill="#000000">blacs_grid.hpp</text>
</a>
</g>
</g>
<!-- Node25&#45;&gt;Node62 -->
<g id="edge42" class="edge">
<title>Node25&#45;&gt;Node62</title>
<path fill="none" stroke="#191970" d="M521.8273,-448.2034C528.7901,-439.1742 538.9351,-425.2114 546,-412 571.22,-364.8386 580.0484,-352.5472 590,-300 591.654,-291.2664 592.66,-288.4816 590,-280 586.7504,-269.6383 580.2506,-259.5669 573.9529,-251.5026"/>
<polygon fill="#191970" stroke="#191970" points="576.4619,-249.047 567.3618,-243.6212 571.0921,-253.5376 576.4619,-249.047"/>
</g>
<!-- Node66 -->
<g id="node34" class="node">
<title>Node66</title>
<g id="a_node34"><a xlink:href="../../d0/d86/splindex_8hpp.html" target="_top" xlink:title="Contains definition of splindex_base and specialization of splindex classes. ">
<polygon fill="#ffffff" stroke="#ff0000" points="227.5,-224.5 227.5,-243.5 286.5,-243.5 286.5,-224.5 227.5,-224.5"/>
<text text-anchor="middle" x="257" y="-231.5" font-family="Helvetica,sans-Serif" font-size="10.00" fill="#000000">splindex.hpp</text>
</a>
</g>
</g>
<!-- Node25&#45;&gt;Node66 -->
<g id="edge45" class="edge">
<title>Node25&#45;&gt;Node66</title>
<path fill="none" stroke="#191970" d="M490.3104,-450.4016C487.1962,-449.5265 484.0335,-448.6989 481,-448 431.6567,-436.6315 288.8551,-450.5298 256,-412 217.476,-366.8221 237.3388,-289.1998 249.6492,-253.277"/>
<polygon fill="#191970" stroke="#191970" points="253.0571,-254.1438 253.1542,-243.5494 246.4716,-251.7709 253.0571,-254.1438"/>
</g>
<!-- Node67 -->
<g id="node35" class="node">
<title>Node67</title>
<g id="a_node35"><a xlink:href="../../d6/d71/mdarray_8hpp.html" target="_top" xlink:title="Contains implementation of multidimensional array class. ">
<polygon fill="#ffffff" stroke="#ff0000" points="565.5,-112.5 565.5,-131.5 624.5,-131.5 624.5,-112.5 565.5,-112.5"/>
<text text-anchor="middle" x="595" y="-119.5" font-family="Helvetica,sans-Serif" font-size="10.00" fill="#000000">mdarray.hpp</text>
</a>
</g>
</g>
<!-- Node25&#45;&gt;Node67 -->
<g id="edge49" class="edge">
<title>Node25&#45;&gt;Node67</title>
<path fill="none" stroke="#191970" d="M537.7777,-450.2793C576.0332,-436.1913 647,-402.4495 647,-346 647,-346 647,-346 647,-234 647,-197.9842 624.6055,-161.0048 609.2092,-139.8372"/>
<polygon fill="#191970" stroke="#191970" points="611.9451,-137.6522 603.125,-131.7823 606.3595,-141.8714 611.9451,-137.6522"/>
</g>
<!-- Node69 -->
<g id="node41" class="node">
<title>Node69</title>
<g id="a_node41"><a xlink:href="../../d3/d9b/dmatrix_8hpp.html" target="_top" xlink:title="Contains definition and implementaiton of dmatrix class. ">
<polygon fill="#ffffff" stroke="#000000" points="525,-280.5 525,-299.5 581,-299.5 581,-280.5 525,-280.5"/>
<text text-anchor="middle" x="553" y="-287.5" font-family="Helvetica,sans-Serif" font-size="10.00" fill="#000000">dmatrix.hpp</text>
</a>
</g>
</g>
<!-- Node25&#45;&gt;Node69 -->
<g id="edge61" class="edge">
<title>Node25&#45;&gt;Node69</title>
<path fill="none" stroke="#191970" d="M517.5668,-448.2315C520.8503,-438.9887 525.698,-424.6811 529,-412 538.2976,-376.2929 545.8788,-333.8791 549.8907,-309.6335"/>
<polygon fill="#191970" stroke="#191970" points="553.3751,-310.0113 551.5209,-299.58 546.4654,-308.8908 553.3751,-310.0113"/>
</g>
<!-- Node70 -->
<g id="node42" class="node">
<title>Node70</title>
<g id="a_node42"><a xlink:href="../../db/d11/matrix__storage_8hpp.html" target="_top" xlink:title="Contains definition and implementaiton of matrix_storage class. ">
<polygon fill="#ffffff" stroke="#000000" points="265.5,-392.5 265.5,-411.5 346.5,-411.5 346.5,-392.5 265.5,-392.5"/>
<text text-anchor="middle" x="306" y="-399.5" font-family="Helvetica,sans-Serif" font-size="10.00" fill="#000000">matrix_storage.hpp</text>
</a>
</g>
</g>
<!-- Node25&#45;&gt;Node70 -->
<g id="edge64" class="edge">
<title>Node25&#45;&gt;Node70</title>
<path fill="none" stroke="#191970" d="M490.238,-450.6842C487.1356,-449.7629 483.9954,-448.8472 481,-448 438.2183,-435.8997 389.2529,-423.1191 354.017,-414.1089"/>
<polygon fill="#191970" stroke="#191970" points="354.5576,-410.6348 344.0028,-411.5551 352.8278,-417.4177 354.5576,-410.6348"/>
</g>
<!-- Node71 -->
<g id="node43" class="node">
<title>Node71</title>
<g id="a_node43"><a xlink:href="../../d6/dd8/gvec_8hpp.html" target="_top" xlink:title="Declaration and implementation of Gvec class. ">
<polygon fill="#ffffff" stroke="#ff0000" points="382.5,-336.5 382.5,-355.5 429.5,-355.5 429.5,-336.5 382.5,-336.5"/>
<text text-anchor="middle" x="406" y="-343.5" font-family="Helvetica,sans-Serif" font-size="10.00" fill="#000000">gvec.hpp</text>
</a>
</g>
</g>
<!-- Node25&#45;&gt;Node71 -->
<g id="edge65" class="edge">
<title>Node25&#45;&gt;Node71</title>
<path fill="none" stroke="#191970" d="M502.2796,-448.1615C491.6905,-439.104 475.8436,-425.1233 463,-412 447.7111,-396.3782 431.5378,-377.385 420.3404,-363.7917"/>
<polygon fill="#191970" stroke="#191970" points="422.7943,-361.2629 413.7599,-355.7284 417.371,-365.6888 422.7943,-361.2629"/>
</g>
<!-- Node76 -->
<g id="node44" class="node">
<title>Node76</title>
<g id="a_node44"><a xlink:href="../../dd/d4a/fft3d_8hpp.html" target="_top" xlink:title="Contains declaration and partial implementation of FFT3D class. ">
<polygon fill="#ffffff" stroke="#ff0000" points="365,-392.5 365,-411.5 411,-411.5 411,-392.5 365,-392.5"/>
<text text-anchor="middle" x="388" y="-399.5" font-family="Helvetica,sans-Serif" font-size="10.00" fill="#000000">fft3d.hpp</text>
</a>
</g>
</g>
<!-- Node25&#45;&gt;Node76 -->
<g id="edge66" class="edge">
<title>Node25&#45;&gt;Node76</title>
<path fill="none" stroke="#191970" d="M492.3398,-448.3733C472.0228,-439.3435 441.436,-425.7494 418.625,-415.6111"/>
<polygon fill="#191970" stroke="#191970" points="419.9372,-412.3642 409.3775,-411.5011 417.0941,-418.7609 419.9372,-412.3642"/>
</g>
<!-- Node81 -->
<g id="node45" class="node">
<title>Node81</title>
<g id="a_node45"><a xlink:href="../../d7/de9/wave__functions_8hpp.html" target="_top" xlink:title="Contains declaration and implementation of wave_functions class. ">
<polygon fill="#ffffff" stroke="#ff0000" points="675.5,-392.5 675.5,-411.5 758.5,-411.5 758.5,-392.5 675.5,-392.5"/>
<text text-anchor="middle" x="717" y="-399.5" font-family="Helvetica,sans-Serif" font-size="10.00" fill="#000000">wave_functions.hpp</text>
</a>
</g>
</g>
<!-- Node25&#45;&gt;Node81 -->
<g id="edge68" class="edge">
<title>Node25&#45;&gt;Node81</title>
<path fill="none" stroke="#191970" d="M537.684,-451.4665C570.6319,-442.3774 630.9196,-425.7463 672.4304,-414.2951"/>
<polygon fill="#191970" stroke="#191970" points="673.5805,-417.6086 682.2896,-411.5753 671.7189,-410.8607 673.5805,-417.6086"/>
</g>
<!-- Node26&#45;&gt;Node11 -->
<g id="edge30" class="edge">
<title>Node26&#45;&gt;Node11</title>
<path fill="none" stroke="#191970" d="M317.0217,-112.382C300.5616,-104.8314 279.7647,-92.7749 267,-76 256.8586,-62.6726 252.1261,-44.1024 249.92,-30.0541"/>
<polygon fill="#191970" stroke="#191970" points="253.3681,-29.4235 248.6373,-19.9436 246.4238,-30.3046 253.3681,-29.4235"/>
</g>
<!-- Node26&#45;&gt;Node12 -->
<g id="edge33" class="edge">
<title>Node26&#45;&gt;Node12</title>
<path fill="none" stroke="#191970" d="M303.7865,-115.0212C261.8701,-107.135 192.4448,-93.3969 123.4528,-75.9458"/>
<polygon fill="#191970" stroke="#191970" points="124.2787,-72.5445 113.7235,-73.459 122.5452,-79.3265 124.2787,-72.5445"/>
</g>
<!-- Node26&#45;&gt;Node18 -->
<g id="edge32" class="edge">
<title>Node26&#45;&gt;Node18</title>
<path fill="none" stroke="#191970" d="M352.8486,-112.3172C370.3783,-97.3078 406.6534,-68.8216 443,-56 522.4376,-27.9777 780.4949,-15.0165 871.7036,-11.2298"/>
<polygon fill="#191970" stroke="#191970" points="871.8816,-14.7256 881.7314,-10.8228 871.5977,-7.7314 871.8816,-14.7256"/>
</g>
<!-- Node26&#45;&gt;Node23 -->
<g id="edge29" class="edge">
<title>Node26&#45;&gt;Node23</title>
<path fill="none" stroke="#191970" d="M317.9331,-112.3733C293.2247,-102.4899 254.8458,-87.1383 229.0882,-76.8353"/>
<polygon fill="#191970" stroke="#191970" points="230.1442,-73.4881 219.5595,-73.0238 227.5444,-79.9874 230.1442,-73.4881"/>
</g>
<!-- Node31 -->
<g id="node28" class="node">
<title>Node31</title>
<polygon fill="#ffffff" stroke="#bfbfbf" points="276,-56.5 276,-75.5 320,-75.5 320,-56.5 276,-56.5"/>
<text text-anchor="middle" x="298" y="-63.5" font-family="Helvetica,sans-Serif" font-size="10.00" fill="#000000">memory</text>
</g>
<!-- Node26&#45;&gt;Node31 -->
<g id="edge31" class="edge">
<title>Node26&#45;&gt;Node31</title>
<path fill="none" stroke="#191970" d="M334.3358,-112.2455C328.1527,-104.3761 319.2937,-93.101 311.8711,-83.6542"/>
<polygon fill="#191970" stroke="#191970" points="314.5068,-81.3435 305.5764,-75.6427 309.0025,-85.6683 314.5068,-81.3435"/>
</g>
<!-- Node34 -->
<g id="node29" class="node">
<title>Node34</title>
<g id="a_node29"><a xlink:href="../../d8/d7b/cuda_8hpp.html" target="_top" xlink:title="Interface to CUDA related functions. ">
<polygon fill="#ffffff" stroke="#ff0000" points="452,-56.5 452,-75.5 518,-75.5 518,-56.5 452,-56.5"/>
<text text-anchor="middle" x="485" y="-63.5" font-family="Helvetica,sans-Serif" font-size="10.00" fill="#000000">GPU/cuda.hpp</text>
</a>
</g>
</g>
<!-- Node26&#45;&gt;Node34 -->
<g id="edge34" class="edge">
<title>Node26&#45;&gt;Node34</title>
<path fill="none" stroke="#191970" d="M366.5826,-112.3733C389.9496,-103.2226 425.2862,-89.3844 451.2784,-79.2057"/>
<polygon fill="#191970" stroke="#191970" points="452.703,-82.4066 460.7382,-75.5011 450.1505,-75.8886 452.703,-82.4066"/>
</g>
<!-- Node34&#45;&gt;Node11 -->
<g id="edge39" class="edge">
<title>Node34&#45;&gt;Node11</title>
<path fill="none" stroke="#191970" d="M451.7966,-58.1545C404.9748,-47.0911 320.3585,-27.0974 276.3358,-16.6954"/>
<polygon fill="#191970" stroke="#191970" points="277.108,-13.2815 266.5711,-14.3881 275.4983,-20.0939 277.108,-13.2815"/>
</g>
<!-- Node34&#45;&gt;Node17 -->
<g id="edge37" class="edge">
<title>Node34&#45;&gt;Node17</title>
<path fill="none" stroke="#191970" d="M518.3821,-57.5881C521.2862,-56.9974 524.1885,-56.4562 527,-56 706.6873,-26.8408 754.5181,-43.7498 935,-20 943.2646,-18.9125 952.1593,-17.4795 960.4077,-16.0392"/>
<polygon fill="#191970" stroke="#191970" points="961.1929,-19.4541 970.4138,-14.2364 959.9516,-12.5651 961.1929,-19.4541"/>
</g>
<!-- Node34&#45;&gt;Node18 -->
<g id="edge38" class="edge">
<title>Node34&#45;&gt;Node18</title>
<path fill="none" stroke="#191970" d="M518.3995,-57.6902C521.2999,-57.0773 524.1965,-56.5031 527,-56 653.6435,-33.2713 806.2663,-18.4653 871.6793,-12.7098"/>
<polygon fill="#191970" stroke="#191970" points="872.114,-16.1853 881.7736,-11.8329 871.5081,-9.2116 872.114,-16.1853"/>
</g>
<!-- Node39 -->
<g id="node30" class="node">
<title>Node39</title>
<polygon fill="#ffffff" stroke="#bfbfbf" points="641.5,-.5 641.5,-19.5 684.5,-19.5 684.5,-.5 641.5,-.5"/>
<text text-anchor="middle" x="663" y="-7.5" font-family="Helvetica,sans-Serif" font-size="10.00" fill="#000000">unistd.h</text>
</g>
<!-- Node34&#45;&gt;Node39 -->
<g id="edge35" class="edge">
<title>Node34&#45;&gt;Node39</title>
<path fill="none" stroke="#191970" d="M515.5993,-56.3733C547.9785,-46.1865 598.8217,-30.1909 631.528,-19.9013"/>
<polygon fill="#191970" stroke="#191970" points="632.9746,-23.1154 641.4633,-16.7756 630.8738,-16.438 632.9746,-23.1154"/>
</g>
<!-- Node40 -->
<g id="node31" class="node">
<title>Node40</title>
<polygon fill="#ffffff" stroke="#bfbfbf" points="433,-.5 433,-19.5 475,-19.5 475,-.5 433,-.5"/>
<text text-anchor="middle" x="454" y="-7.5" font-family="Helvetica,sans-Serif" font-size="10.00" fill="#000000">signal.h</text>
</g>
<!-- Node34&#45;&gt;Node40 -->
<g id="edge36" class="edge">
<title>Node34&#45;&gt;Node40</title>
<path fill="none" stroke="#191970" d="M479.6002,-56.2455C475.3773,-48.617 469.3827,-37.7881 464.2559,-28.5267"/>
<polygon fill="#191970" stroke="#191970" points="467.2432,-26.6965 459.3379,-19.6427 461.119,-30.0867 467.2432,-26.6965"/>
</g>
<!-- Node61&#45;&gt;Node26 -->
<g id="edge41" class="edge">
<title>Node61&#45;&gt;Node26</title>
<path fill="none" stroke="#191970" d="M455.4489,-168.3733C433.1609,-159.2629 399.5063,-145.5062 374.6363,-135.3404"/>
<polygon fill="#191970" stroke="#191970" points="375.8247,-132.0451 365.2438,-131.5011 373.1761,-138.5247 375.8247,-132.0451"/>
</g>
<!-- Node62&#45;&gt;Node31 -->
<g id="edge43" class="edge">
<title>Node62&#45;&gt;Node31</title>
<path fill="none" stroke="#191970" d="M554.2686,-224.2557C548.4457,-210.1791 535.971,-184.0837 518,-168 461.5656,-117.4924 375.8084,-87.6013 329.807,-74.2927"/>
<polygon fill="#191970" stroke="#191970" points="330.656,-70.8958 320.0818,-71.5559 328.7597,-77.634 330.656,-70.8958"/>
</g>
<!-- Node62&#45;&gt;Node61 -->
<g id="edge44" class="edge">
<title>Node62&#45;&gt;Node61</title>
<path fill="none" stroke="#191970" d="M544.2393,-224.2455C532.3448,-215.814 514.935,-203.4729 501.0915,-193.6598"/>
<polygon fill="#191970" stroke="#191970" points="502.7854,-190.5704 492.6031,-187.6427 498.7372,-196.2811 502.7854,-190.5704"/>
</g>
<!-- Node66&#45;&gt;Node11 -->
<g id="edge47" class="edge">
<title>Node66&#45;&gt;Node11</title>
<path fill="none" stroke="#191970" d="M228.8329,-224.3531C160.9586,-199.6297 -1.8221,-130.6706 57,-56 76.8676,-30.7795 170.8086,-17.7759 219.1317,-12.6602"/>
<polygon fill="#191970" stroke="#191970" points="219.6653,-16.1241 229.2611,-11.633 218.959,-9.1598 219.6653,-16.1241"/>
</g>
<!-- Node66&#45;&gt;Node12 -->
<g id="edge46" class="edge">
<title>Node66&#45;&gt;Node12</title>
<path fill="none" stroke="#191970" d="M247.5429,-224.4862C220.3441,-197.1246 141.6436,-117.9528 106.8653,-82.9663"/>
<polygon fill="#191970" stroke="#191970" points="109.3016,-80.4526 99.7694,-75.8279 104.3371,-85.3875 109.3016,-80.4526"/>
</g>
<!-- Node66&#45;&gt;Node19 -->
<g id="edge48" class="edge">
<title>Node66&#45;&gt;Node19</title>
<path fill="none" stroke="#191970" d="M269.5414,-224.2455C280.2787,-215.8943 295.9473,-203.7076 308.5047,-193.9408"/>
<polygon fill="#191970" stroke="#191970" points="310.8575,-196.5449 316.6023,-187.6427 306.5599,-191.0194 310.8575,-196.5449"/>
</g>
<!-- Node67&#45;&gt;Node1 -->
<g id="edge56" class="edge">
<title>Node67&#45;&gt;Node1</title>
<path fill="none" stroke="#191970" d="M565.2704,-121.3662C497.4132,-119.3668 326.0321,-111.1845 175.9941,-75.684"/>
<polygon fill="#191970" stroke="#191970" points="176.6856,-72.2505 166.1435,-73.3059 175.0429,-79.055 176.6856,-72.2505"/>
</g>
<!-- Node67&#45;&gt;Node11 -->
<g id="edge55" class="edge">
<title>Node67&#45;&gt;Node11</title>
<path fill="none" stroke="#191970" d="M565.4548,-114.1558C533.0361,-105.41 479.5458,-90.5715 434,-76 377.4716,-57.9149 312.2861,-34.0875 276.0382,-20.5681"/>
<polygon fill="#191970" stroke="#191970" points="277.2055,-17.2679 266.6131,-17.0417 274.7524,-23.8241 277.2055,-17.2679"/>
</g>
<!-- Node67&#45;&gt;Node23 -->
<g id="edge53" class="edge">
<title>Node67&#45;&gt;Node23</title>
<path fill="none" stroke="#191970" d="M565.1326,-117.9468C507.468,-110.0913 376.7977,-92.1445 267,-76 254.7191,-74.1942 241.1461,-72.1187 229.5933,-70.3281"/>
<polygon fill="#191970" stroke="#191970" points="230.066,-66.8597 219.6467,-68.7798 228.9893,-73.7764 230.066,-66.8597"/>
</g>
<!-- Node67&#45;&gt;Node31 -->
<g id="edge52" class="edge">
<title>Node67&#45;&gt;Node31</title>
<path fill="none" stroke="#191970" d="M565.2286,-114.9834C560.4793,-113.9364 555.6121,-112.9059 551,-112 455.0702,-93.1587 429.4557,-97.1127 334,-76 332.7531,-75.7242 331.485,-75.4317 330.2065,-75.1267"/>
<polygon fill="#191970" stroke="#191970" points="330.9312,-71.6994 320.3758,-72.6129 329.197,-78.4812 330.9312,-71.6994"/>
</g>
<!-- Node67&#45;&gt;Node34 -->
<g id="edge60" class="edge">
<title>Node67&#45;&gt;Node34</title>
<path fill="none" stroke="#191970" d="M575.8395,-112.2455C558.4889,-103.4125 532.7099,-90.2887 513.0417,-80.2758"/>
<polygon fill="#191970" stroke="#191970" points="514.4405,-77.0605 503.941,-75.6427 511.2647,-83.2986 514.4405,-77.0605"/>
</g>
<!-- Node67&#45;&gt;Node40 -->
<g id="edge50" class="edge">
<title>Node67&#45;&gt;Node40</title>
<path fill="none" stroke="#191970" d="M565.42,-115.0484C523.3403,-104.8651 450.4351,-86.0182 443,-76 432.9726,-62.4888 437.8135,-43.1385 443.9079,-28.8819"/>
<polygon fill="#191970" stroke="#191970" points="447.2107,-30.0884 448.3724,-19.5574 440.897,-27.0654 447.2107,-30.0884"/>
</g>
<!-- Node33 -->
<g id="node36" class="node">
<title>Node33</title>
<polygon fill="#ffffff" stroke="#bfbfbf" points="682.5,-56.5 682.5,-75.5 723.5,-75.5 723.5,-56.5 682.5,-56.5"/>
<text text-anchor="middle" x="703" y="-63.5" font-family="Helvetica,sans-Serif" font-size="10.00" fill="#000000">cassert</text>
</g>
<!-- Node67&#45;&gt;Node33 -->
<g id="edge51" class="edge">
<title>Node67&#45;&gt;Node33</title>
<path fill="none" stroke="#191970" d="M613.8122,-112.2455C630.8473,-103.4125 656.1575,-90.2887 675.4681,-80.2758"/>
<polygon fill="#191970" stroke="#191970" points="677.137,-83.353 684.4034,-75.6427 673.9147,-77.1388 677.137,-83.353"/>
</g>
<!-- Node68 -->
<g id="node37" class="node">
<title>Node68</title>
<polygon fill="#ffffff" stroke="#bfbfbf" points="741.5,-56.5 741.5,-75.5 780.5,-75.5 780.5,-56.5 741.5,-56.5"/>
<text text-anchor="middle" x="761" y="-63.5" font-family="Helvetica,sans-Serif" font-size="10.00" fill="#000000">atomic</text>
</g>
<!-- Node67&#45;&gt;Node68 -->
<g id="edge54" class="edge">
<title>Node67&#45;&gt;Node68</title>
<path fill="none" stroke="#191970" d="M623.6238,-112.4643C649.4601,-103.8406 688.7519,-90.6851 731.8155,-76.0448"/>
<polygon fill="#191970" stroke="#191970" points="733.0128,-79.3345 741.352,-72.7993 730.7575,-72.7078 733.0128,-79.3345"/>
</g>
<!-- Node49 -->
<g id="node38" class="node">
<title>Node49</title>
<polygon fill="#ffffff" stroke="#bfbfbf" points="798.5,-56.5 798.5,-75.5 837.5,-75.5 837.5,-56.5 798.5,-56.5"/>
<text text-anchor="middle" x="818" y="-63.5" font-family="Helvetica,sans-Serif" font-size="10.00" fill="#000000">cstring</text>
</g>
<!-- Node67&#45;&gt;Node49 -->
<g id="edge57" class="edge">
<title>Node67&#45;&gt;Node49</title>
<path fill="none" stroke="#191970" d="M624.819,-115.8922C661.2424,-108.2229 724.8839,-94.1508 788.6167,-75.8887"/>
<polygon fill="#191970" stroke="#191970" points="789.7993,-79.1901 798.4289,-73.0435 787.8498,-72.467 789.7993,-79.1901"/>
</g>
<!-- Node52 -->
<g id="node39" class="node">
<title>Node52</title>
<polygon fill="#ffffff" stroke="#bfbfbf" points="536.5,-56.5 536.5,-75.5 595.5,-75.5 595.5,-56.5 536.5,-56.5"/>
<text text-anchor="middle" x="566" y="-63.5" font-family="Helvetica,sans-Serif" font-size="10.00" fill="#000000">initializer_list</text>
</g>
<!-- Node67&#45;&gt;Node52 -->
<g id="edge58" class="edge">
<title>Node67&#45;&gt;Node52</title>
<path fill="none" stroke="#191970" d="M589.9486,-112.2455C585.9981,-104.617 580.3903,-93.7881 575.5942,-84.5267"/>
<polygon fill="#191970" stroke="#191970" points="578.7001,-82.9131 570.9935,-75.6427 572.4841,-86.1321 578.7001,-82.9131"/>
</g>
<!-- Node58 -->
<g id="node40" class="node">
<title>Node58</title>
<polygon fill="#ffffff" stroke="#bfbfbf" points="613.5,-56.5 613.5,-75.5 664.5,-75.5 664.5,-56.5 613.5,-56.5"/>
<text text-anchor="middle" x="639" y="-63.5" font-family="Helvetica,sans-Serif" font-size="10.00" fill="#000000">type_traits</text>
</g>
<!-- Node67&#45;&gt;Node58 -->
<g id="edge59" class="edge">
<title>Node67&#45;&gt;Node58</title>
<path fill="none" stroke="#191970" d="M602.6642,-112.2455C608.8473,-104.3761 617.7063,-93.101 625.1289,-83.6542"/>
<polygon fill="#191970" stroke="#191970" points="627.9975,-85.6683 631.4236,-75.6427 622.4932,-81.3435 627.9975,-85.6683"/>
</g>
<!-- Node69&#45;&gt;Node62 -->
<g id="edge62" class="edge">
<title>Node69&#45;&gt;Node62</title>
<path fill="none" stroke="#191970" d="M553.8709,-280.2455C554.5234,-272.9382 555.438,-262.6944 556.2407,-253.7046"/>
<polygon fill="#191970" stroke="#191970" points="559.7358,-253.9143 557.139,-243.6427 552.7635,-253.2918 559.7358,-253.9143"/>
</g>
<!-- Node69&#45;&gt;Node66 -->
<g id="edge63" class="edge">
<title>Node69&#45;&gt;Node66</title>
<path fill="none" stroke="#191970" d="M524.8862,-284.6812C471.9561,-274.6674 357.3857,-252.9919 296.6525,-241.5018"/>
<polygon fill="#191970" stroke="#191970" points="297.1513,-238.0342 286.6749,-239.6142 295.85,-244.9122 297.1513,-238.0342"/>
</g>
<!-- Node76&#45;&gt;Node71 -->
<g id="edge67" class="edge">
<title>Node76&#45;&gt;Node71</title>
<path fill="none" stroke="#191970" d="M391.1354,-392.2455C393.51,-384.8579 396.8493,-374.4689 399.7615,-365.4087"/>
<polygon fill="#191970" stroke="#191970" points="403.1725,-366.234 402.9006,-355.6427 396.5083,-364.0919 403.1725,-366.234"/>
</g>
<!-- Node81&#45;&gt;Node14 -->
<g id="edge69" class="edge">
<title>Node81&#45;&gt;Node14</title>
<path fill="none" stroke="#191970" d="M712.9937,-392.2455C709.9265,-384.7776 705.5997,-374.2427 701.8503,-365.1137"/>
<polygon fill="#191970" stroke="#191970" points="704.9972,-363.5631 697.9604,-355.6427 698.5221,-366.2226 704.9972,-363.5631"/>
</g>
<!-- Node81&#45;&gt;Node82 -->
<g id="edge70" class="edge">
<title>Node81&#45;&gt;Node82</title>
<path fill="none" stroke="#191970" d="M730.4124,-392.2455C742.0057,-383.814 758.9748,-371.4729 772.4678,-361.6598"/>
<polygon fill="#191970" stroke="#191970" points="774.7126,-364.355 780.7413,-355.6427 770.5953,-358.6938 774.7126,-364.355"/>
</g>
<!-- Node82&#45;&gt;Node67 -->
<g id="edge77" class="edge">
<title>Node82&#45;&gt;Node67</title>
<path fill="none" stroke="#191970" d="M775.3277,-336.3415C760.9678,-328.1837 741.3829,-315.3855 728,-300 684.8215,-250.3602 704.1785,-217.6398 661,-168 650.231,-155.6195 635.446,-144.9143 622.5991,-136.9542"/>
<polygon fill="#191970" stroke="#191970" points="624.0585,-133.7505 613.6723,-131.6585 620.487,-139.7708 624.0585,-133.7505"/>
</g>
<!-- Node82&#45;&gt;Node69 -->
<g id="edge78" class="edge">
<title>Node82&#45;&gt;Node69</title>
<path fill="none" stroke="#191970" d="M769.2676,-339.5508C764.537,-338.3477 759.6197,-337.1181 755,-336 698.0792,-322.2241 631.8478,-307.3631 591.1767,-298.3703"/>
<polygon fill="#191970" stroke="#191970" points="591.6789,-294.897 581.1596,-296.1599 590.1705,-301.7326 591.6789,-294.897"/>
</g>
<!-- Node83 -->
<g id="node47" class="node">
<title>Node83</title>
<polygon fill="#ffffff" stroke="#bfbfbf" points="737.5,-280.5 737.5,-299.5 778.5,-299.5 778.5,-280.5 737.5,-280.5"/>
<text text-anchor="middle" x="758" y="-287.5" font-family="Helvetica,sans-Serif" font-size="10.00" fill="#000000">stdint.h</text>
</g>
<!-- Node82&#45;&gt;Node83 -->
<g id="edge71" class="edge">
<title>Node82&#45;&gt;Node83</title>
<path fill="none" stroke="#191970" d="M787.7293,-336.2455C782.7736,-328.5367 775.717,-317.5598 769.7224,-308.2348"/>
<polygon fill="#191970" stroke="#191970" points="772.5506,-306.1618 764.1989,-299.6427 766.6624,-309.9471 772.5506,-306.1618"/>
</g>
<!-- Node84 -->
<g id="node48" class="node">
<title>Node84</title>
<g id="a_node48"><a xlink:href="../../db/d1f/cublas_8hpp.html" target="_top" xlink:title="Interface to cuBLAS related functions. ">
<polygon fill="#ffffff" stroke="#000000" points="771.5,-112.5 771.5,-131.5 842.5,-131.5 842.5,-112.5 771.5,-112.5"/>
<text text-anchor="middle" x="807" y="-119.5" font-family="Helvetica,sans-Serif" font-size="10.00" fill="#000000">GPU/cublas.hpp</text>
</a>
</g>
</g>
<!-- Node82&#45;&gt;Node84 -->
<g id="edge72" class="edge">
<title>Node82&#45;&gt;Node84</title>
<path fill="none" stroke="#191970" d="M794.5586,-336.375C796.5254,-302.4851 803.1562,-188.2317 805.849,-141.8332"/>
<polygon fill="#191970" stroke="#191970" points="809.3581,-141.7752 806.4435,-131.5891 802.3699,-141.3695 809.3581,-141.7752"/>
</g>
<!-- Node64 -->
<g id="node49" class="node">
<title>Node64</title>
<g id="a_node49"><a xlink:href="../../dd/df1/blas__lapack_8h_source.html" target="_top" xlink:title="blas_lapack.h">
<polygon fill="#ffffff" stroke="#000000" points="845,-224.5 845,-243.5 907,-243.5 907,-224.5 845,-224.5"/>
<text text-anchor="middle" x="876" y="-231.5" font-family="Helvetica,sans-Serif" font-size="10.00" fill="#000000">blas_lapack.h</text>
</a>
</g>
</g>
<!-- Node82&#45;&gt;Node64 -->
<g id="edge75" class="edge">
<title>Node82&#45;&gt;Node64</title>
<path fill="none" stroke="#191970" d="M800.9913,-336.4509C814.7284,-317.688 845.4296,-275.7548 862.9986,-251.758"/>
<polygon fill="#191970" stroke="#191970" points="865.943,-253.6611 869.0264,-243.5249 860.295,-249.5259 865.943,-253.6611"/>
</g>
<!-- Node84&#45;&gt;Node34 -->
<g id="edge74" class="edge">
<title>Node84&#45;&gt;Node34</title>
<path fill="none" stroke="#191970" d="M771.4934,-116.9916C720.0136,-109.5503 621.4533,-94.6301 528.2917,-76.1581"/>
<polygon fill="#191970" stroke="#191970" points="528.9159,-72.7137 518.4235,-74.1838 527.5425,-79.5777 528.9159,-72.7137"/>
</g>
<!-- Node84&#45;&gt;Node39 -->
<g id="edge73" class="edge">
<title>Node84&#45;&gt;Node39</title>
<path fill="none" stroke="#191970" d="M819.9881,-112.331C836.2967,-99.0166 860.4856,-74.5774 846,-56 827.5535,-32.3428 741.8361,-18.9912 694.5436,-13.308"/>
<polygon fill="#191970" stroke="#191970" points="694.8543,-9.8207 684.5185,-12.1489 694.0503,-16.7743 694.8543,-9.8207"/>
</g>
<!-- Node64&#45;&gt;Node18 -->
<g id="edge76" class="edge">
<title>Node64&#45;&gt;Node18</title>
<path fill="none" stroke="#191970" d="M877.2031,-224.375C881.4483,-190.4133 895.7816,-75.7472 901.5576,-29.5392"/>
<polygon fill="#191970" stroke="#191970" points="905.0339,-29.9461 902.8014,-19.5891 898.0879,-29.0778 905.0339,-29.9461"/>
</g>
</g>
</svg>
