<?xml version="1.0" encoding="UTF-8" standalone="no"?>
<!DOCTYPE svg PUBLIC "-//W3C//DTD SVG 1.1//EN"
 "http://www.w3.org/Graphics/SVG/1.1/DTD/svg11.dtd">
<!-- Generated by graphviz version 2.40.1 (20161225.0304)
 -->
<!-- Title: cublas.hpp Pages: 1 -->
<svg width="827pt" height="140pt"
 viewBox="0.00 0.00 827.00 140.00" xmlns="http://www.w3.org/2000/svg" xmlns:xlink="http://www.w3.org/1999/xlink">
<g id="graph0" class="graph" transform="scale(1 1) rotate(0) translate(4 136)">
<title>cublas.hpp</title>
<polygon fill="#ffffff" stroke="transparent" points="-4,4 -4,-136 823,-136 823,4 -4,4"/>
<!-- Node0 -->
<g id="node1" class="node">
<title>Node0</title>
<polygon fill="#bfbfbf" stroke="#000000" points="196.5,-112.5 196.5,-131.5 261.5,-131.5 261.5,-112.5 196.5,-112.5"/>
<text text-anchor="middle" x="229" y="-119.5" font-family="Helvetica,sans-Serif" font-size="10.00" fill="#000000">cublas.hpp</text>
</g>
<!-- Node1 -->
<g id="node2" class="node">
<title>Node1</title>
<polygon fill="#ffffff" stroke="#bfbfbf" points="0,-.5 0,-19.5 52,-19.5 52,-.5 0,-.5"/>
<text text-anchor="middle" x="26" y="-7.5" font-family="Helvetica,sans-Serif" font-size="10.00" fill="#000000">unistd.h</text>
</g>
<!-- Node0&#45;&gt;Node1 -->
<g id="edge1" class="edge">
<title>Node0&#45;&gt;Node1</title>
<path fill="none" stroke="#191970" d="M211.6923,-112.4509C176.0366,-92.7788 94.2159,-47.6363 52.1009,-24.4005"/>
<polygon fill="#191970" stroke="#191970" points="53.7104,-21.2912 43.2639,-19.5249 50.3289,-27.4202 53.7104,-21.2912"/>
</g>
<!-- Node2 -->
<g id="node3" class="node">
<title>Node2</title>
<g id="a_node3"><a xlink:href="../../d8/d7b/cuda_8hpp.html" target="_top" xlink:title="Interface to CUDA related functions. ">
<polygon fill="#ffffff" stroke="#000000" points="366,-56.5 366,-75.5 424,-75.5 424,-56.5 366,-56.5"/>
<text text-anchor="middle" x="395" y="-63.5" font-family="Helvetica,sans-Serif" font-size="10.00" fill="#000000">cuda.hpp</text>
</a>
</g>
</g>
<!-- Node0&#45;&gt;Node2 -->
<g id="edge2" class="edge">
<title>Node0&#45;&gt;Node2</title>
<path fill="none" stroke="#191970" d="M257.5364,-112.3733C285.0202,-103.1016 326.7686,-89.0178 357.0452,-78.804"/>
<polygon fill="#191970" stroke="#191970" points="358.4794,-82.0141 366.836,-75.5011 356.2418,-75.3813 358.4794,-82.0141"/>
</g>
<!-- Node2&#45;&gt;Node1 -->
<g id="edge7" class="edge">
<title>Node2&#45;&gt;Node1</title>
<path fill="none" stroke="#191970" d="M365.7217,-63.3736C308.9221,-57.9783 179.7249,-44.2422 62.1592,-20.0068"/>
<polygon fill="#191970" stroke="#191970" points="62.7784,-16.5607 52.2735,-17.938 61.3444,-23.4122 62.7784,-16.5607"/>
</g>
<!-- Node3 -->
<g id="node4" class="node">
<title>Node3</title>
<polygon fill="#ffffff" stroke="#bfbfbf" points="70.5,-.5 70.5,-19.5 155.5,-19.5 155.5,-.5 70.5,-.5"/>
<text text-anchor="middle" x="113" y="-7.5" font-family="Helvetica,sans-Serif" font-size="10.00" fill="#000000">cuda_runtime.h</text>
</g>
<!-- Node2&#45;&gt;Node3 -->
<g id="edge3" class="edge">
<title>Node2&#45;&gt;Node3</title>
<path fill="none" stroke="#191970" d="M365.8832,-60.2179C318.6583,-50.8399 224.7003,-32.1816 165.5587,-20.4372"/>
<polygon fill="#191970" stroke="#191970" points="166.15,-16.9863 155.6598,-18.4715 164.7865,-23.8523 166.15,-16.9863"/>
</g>
<!-- Node4 -->
<g id="node5" class="node">
<title>Node4</title>
<polygon fill="#ffffff" stroke="#bfbfbf" points="173.5,-.5 173.5,-19.5 220.5,-19.5 220.5,-.5 173.5,-.5"/>
<text text-anchor="middle" x="197" y="-7.5" font-family="Helvetica,sans-Serif" font-size="10.00" fill="#000000">cuda.h</text>
</g>
<!-- Node2&#45;&gt;Node4 -->
<g id="edge4" class="edge">
<title>Node2&#45;&gt;Node4</title>
<path fill="none" stroke="#191970" d="M365.7347,-58.0535C334.5773,-49.5468 283.5946,-35.4949 230.3798,-20.0665"/>
<polygon fill="#191970" stroke="#191970" points="231.3537,-16.7048 220.7742,-17.2735 229.3992,-23.4265 231.3537,-16.7048"/>
</g>
<!-- Node5 -->
<g id="node6" class="node">
<title>Node5</title>
<polygon fill="#ffffff" stroke="#bfbfbf" points="239,-.5 239,-19.5 309,-19.5 309,-.5 239,-.5"/>
<text text-anchor="middle" x="274" y="-7.5" font-family="Helvetica,sans-Serif" font-size="10.00" fill="#000000">cublas_v2.h</text>
</g>
<!-- Node2&#45;&gt;Node5 -->
<g id="edge5" class="edge">
<title>Node2&#45;&gt;Node5</title>
<path fill="none" stroke="#191970" d="M374.1994,-56.3733C354.7757,-47.3838 325.5776,-33.8706 303.7036,-23.7471"/>
<polygon fill="#191970" stroke="#191970" points="305.0745,-20.5249 294.5292,-19.5011 302.1344,-26.8776 305.0745,-20.5249"/>
</g>
<!-- Node6 -->
<g id="node7" class="node">
<title>Node6</title>
<polygon fill="#ffffff" stroke="#bfbfbf" points="327,-.5 327,-19.5 389,-19.5 389,-.5 327,-.5"/>
<text text-anchor="middle" x="358" y="-7.5" font-family="Helvetica,sans-Serif" font-size="10.00" fill="#000000">execinfo.h</text>
</g>
<!-- Node2&#45;&gt;Node6 -->
<g id="edge6" class="edge">
<title>Node2&#45;&gt;Node6</title>
<path fill="none" stroke="#191970" d="M388.5551,-56.2455C383.4618,-48.5367 376.2092,-37.5598 370.048,-28.2348"/>
<polygon fill="#191970" stroke="#191970" points="372.8038,-26.0566 364.3711,-19.6427 366.9635,-29.9155 372.8038,-26.0566"/>
</g>
<!-- Node7 -->
<g id="node8" class="node">
<title>Node7</title>
<polygon fill="#ffffff" stroke="#bfbfbf" points="407.5,-.5 407.5,-19.5 458.5,-19.5 458.5,-.5 407.5,-.5"/>
<text text-anchor="middle" x="433" y="-7.5" font-family="Helvetica,sans-Serif" font-size="10.00" fill="#000000">signal.h</text>
</g>
<!-- Node2&#45;&gt;Node7 -->
<g id="edge8" class="edge">
<title>Node2&#45;&gt;Node7</title>
<path fill="none" stroke="#191970" d="M401.6191,-56.2455C406.9046,-48.4564 414.4541,-37.3308 420.8238,-27.9439"/>
<polygon fill="#191970" stroke="#191970" points="423.7379,-29.8827 426.4568,-19.6427 417.9455,-25.9522 423.7379,-29.8827"/>
</g>
<!-- Node8 -->
<g id="node9" class="node">
<title>Node8</title>
<polygon fill="#ffffff" stroke="#bfbfbf" points="477,-.5 477,-19.5 529,-19.5 529,-.5 477,-.5"/>
<text text-anchor="middle" x="503" y="-7.5" font-family="Helvetica,sans-Serif" font-size="10.00" fill="#000000">assert.h</text>
</g>
<!-- Node2&#45;&gt;Node8 -->
<g id="edge9" class="edge">
<title>Node2&#45;&gt;Node8</title>
<path fill="none" stroke="#191970" d="M413.8122,-56.2455C430.8473,-47.4125 456.1575,-34.2887 475.4681,-24.2758"/>
<polygon fill="#191970" stroke="#191970" points="477.137,-27.353 484.4034,-19.6427 473.9147,-21.1388 477.137,-27.353"/>
</g>
<!-- Node9 -->
<g id="node10" class="node">
<title>Node9</title>
<polygon fill="#ffffff" stroke="#bfbfbf" points="547,-.5 547,-19.5 621,-19.5 621,-.5 547,-.5"/>
<text text-anchor="middle" x="584" y="-7.5" font-family="Helvetica,sans-Serif" font-size="10.00" fill="#000000">nvToolsExt.h</text>
</g>
<!-- Node2&#45;&gt;Node9 -->
<g id="edge10" class="edge">
<title>Node2&#45;&gt;Node9</title>
<path fill="none" stroke="#191970" d="M424.1171,-57.3727C455.635,-48.0341 506.1852,-33.0562 541.9992,-22.4447"/>
<polygon fill="#191970" stroke="#191970" points="543.0881,-25.7725 551.6817,-19.5758 541.0994,-19.0609 543.0881,-25.7725"/>
</g>
<!-- Node10 -->
<g id="node11" class="node">
<title>Node10</title>
<polygon fill="#ffffff" stroke="#bfbfbf" points="639,-.5 639,-19.5 693,-19.5 693,-.5 639,-.5"/>
<text text-anchor="middle" x="666" y="-7.5" font-family="Helvetica,sans-Serif" font-size="10.00" fill="#000000">complex</text>
</g>
<!-- Node2&#45;&gt;Node10 -->
<g id="edge11" class="edge">
<title>Node2&#45;&gt;Node10</title>
<path fill="none" stroke="#191970" d="M424.098,-61.0543C466.8267,-53.6301 549.2441,-38.6969 628.7494,-20.1597"/>
<polygon fill="#191970" stroke="#191970" points="630.0001,-23.461 638.9314,-17.7617 628.3953,-16.6474 630.0001,-23.461"/>
</g>
<!-- Node11 -->
<g id="node12" class="node">
<title>Node11</title>
<polygon fill="#ffffff" stroke="#bfbfbf" points="711,-.5 711,-19.5 755,-19.5 755,-.5 711,-.5"/>
<text text-anchor="middle" x="733" y="-7.5" font-family="Helvetica,sans-Serif" font-size="10.00" fill="#000000">vector</text>
</g>
<!-- Node2&#45;&gt;Node11 -->
<g id="edge12" class="edge">
<title>Node2&#45;&gt;Node11</title>
<path fill="none" stroke="#191970" d="M424.0797,-63.2429C477.2808,-57.8577 593.9142,-44.4726 700.7925,-19.9773"/>
<polygon fill="#191970" stroke="#191970" points="701.8275,-23.3299 710.7715,-17.6506 700.2379,-16.5128 701.8275,-23.3299"/>
</g>
<!-- Node12 -->
<g id="node13" class="node">
<title>Node12</title>
<polygon fill="#ffffff" stroke="#bfbfbf" points="773,-.5 773,-19.5 819,-19.5 819,-.5 773,-.5"/>
<text text-anchor="middle" x="796" y="-7.5" font-family="Helvetica,sans-Serif" font-size="10.00" fill="#000000">stdio.h</text>
</g>
<!-- Node2&#45;&gt;Node12 -->
<g id="edge13" class="edge">
<title>Node2&#45;&gt;Node12</title>
<path fill="none" stroke="#191970" d="M424.003,-64.1561C485.1261,-59.8939 631.6866,-47.6936 762.8906,-19.9214"/>
<polygon fill="#191970" stroke="#191970" points="763.6711,-23.3336 772.7103,-17.807 762.1976,-16.4905 763.6711,-23.3336"/>
</g>
</g>
</svg>
