<?xml version="1.0" encoding="UTF-8" standalone="no"?>
<!DOCTYPE svg PUBLIC "-//W3C//DTD SVG 1.1//EN"
 "http://www.w3.org/Graphics/SVG/1.1/DTD/svg11.dtd">
<!-- Generated by graphviz version 2.40.1 (20161225.0304)
 -->
<!-- Title: cublas.hpp Pages: 1 -->
<svg width="1007pt" height="140pt"
 viewBox="0.00 0.00 1007.00 140.00" xmlns="http://www.w3.org/2000/svg" xmlns:xlink="http://www.w3.org/1999/xlink">
<g id="graph0" class="graph" transform="scale(1 1) rotate(0) translate(4 136)">
<title>cublas.hpp</title>
<polygon fill="#ffffff" stroke="transparent" points="-4,4 -4,-136 1003,-136 1003,4 -4,4"/>
<!-- Node0 -->
<g id="node1" class="node">
<title>Node0</title>
<polygon fill="#bfbfbf" stroke="#000000" points="237.5,-112.5 237.5,-131.5 302.5,-131.5 302.5,-112.5 237.5,-112.5"/>
<text text-anchor="middle" x="270" y="-119.5" font-family="Helvetica,sans-Serif" font-size="10.00" fill="#000000">cublas.hpp</text>
</g>
<!-- Node1 -->
<g id="node2" class="node">
<title>Node1</title>
<polygon fill="#ffffff" stroke="#bfbfbf" points="0,-.5 0,-19.5 52,-19.5 52,-.5 0,-.5"/>
<text text-anchor="middle" x="26" y="-7.5" font-family="Helvetica,sans-Serif" font-size="10.00" fill="#000000">unistd.h</text>
</g>
<!-- Node0&#45;&gt;Node1 -->
<g id="edge1" class="edge">
<title>Node0&#45;&gt;Node1</title>
<path fill="none" stroke="#191970" d="M249.1967,-112.4509C205.9794,-92.6135 106.3366,-46.8758 56.1065,-23.8194"/>
<polygon fill="#191970" stroke="#191970" points="57.2991,-20.5157 46.7506,-19.5249 54.3788,-26.8775 57.2991,-20.5157"/>
</g>
<!-- Node2 -->
<g id="node3" class="node">
<title>Node2</title>
<g id="a_node3"><a xlink:href="../../d8/d7b/cuda_8hpp.html" target="_top" xlink:title="Interface to CUDA related functions. ">
<polygon fill="#ffffff" stroke="#000000" points="448,-56.5 448,-75.5 506,-75.5 506,-56.5 448,-56.5"/>
<text text-anchor="middle" x="477" y="-63.5" font-family="Helvetica,sans-Serif" font-size="10.00" fill="#000000">cuda.hpp</text>
</a>
</g>
</g>
<!-- Node0&#45;&gt;Node2 -->
<g id="edge2" class="edge">
<title>Node0&#45;&gt;Node2</title>
<path fill="none" stroke="#191970" d="M302.7998,-113.1266C339.427,-103.2178 398.682,-87.1875 437.7432,-76.6202"/>
<polygon fill="#191970" stroke="#191970" points="438.9616,-79.9165 447.7006,-73.9264 437.1335,-73.1594 438.9616,-79.9165"/>
</g>
<!-- Node2&#45;&gt;Node1 -->
<g id="edge8" class="edge">
<title>Node2&#45;&gt;Node1</title>
<path fill="none" stroke="#191970" d="M447.9987,-64.4753C381.3609,-60.6151 212.1423,-48.781 62.1111,-19.9393"/>
<polygon fill="#191970" stroke="#191970" points="62.7433,-16.4967 52.2578,-18.0148 61.4014,-23.3669 62.7433,-16.4967"/>
</g>
<!-- Node3 -->
<g id="node4" class="node">
<title>Node3</title>
<polygon fill="#ffffff" stroke="#bfbfbf" points="70.5,-.5 70.5,-19.5 155.5,-19.5 155.5,-.5 70.5,-.5"/>
<text text-anchor="middle" x="113" y="-7.5" font-family="Helvetica,sans-Serif" font-size="10.00" fill="#000000">cuda_runtime.h</text>
</g>
<!-- Node2&#45;&gt;Node3 -->
<g id="edge3" class="edge">
<title>Node2&#45;&gt;Node3</title>
<path fill="none" stroke="#191970" d="M447.5821,-62.1532C393.659,-54.9995 275.1503,-38.8031 165.4549,-20.192"/>
<polygon fill="#191970" stroke="#191970" points="165.9953,-16.7336 155.5488,-18.5004 164.817,-23.6338 165.9953,-16.7336"/>
</g>
<!-- Node4 -->
<g id="node5" class="node">
<title>Node4</title>
<polygon fill="#ffffff" stroke="#bfbfbf" points="173.5,-.5 173.5,-19.5 220.5,-19.5 220.5,-.5 173.5,-.5"/>
<text text-anchor="middle" x="197" y="-7.5" font-family="Helvetica,sans-Serif" font-size="10.00" fill="#000000">cuda.h</text>
</g>
<!-- Node2&#45;&gt;Node4 -->
<g id="edge4" class="edge">
<title>Node2&#45;&gt;Node4</title>
<path fill="none" stroke="#191970" d="M447.8797,-61.6428C403.1839,-54.7256 314.8483,-40.1489 230.4453,-19.8922"/>
<polygon fill="#191970" stroke="#191970" points="231.2508,-16.4861 220.707,-17.5249 229.5973,-23.288 231.2508,-16.4861"/>
</g>
<!-- Node5 -->
<g id="node6" class="node">
<title>Node5</title>
<polygon fill="#ffffff" stroke="#bfbfbf" points="239,-.5 239,-19.5 309,-19.5 309,-.5 239,-.5"/>
<text text-anchor="middle" x="274" y="-7.5" font-family="Helvetica,sans-Serif" font-size="10.00" fill="#000000">cublas_v2.h</text>
</g>
<!-- Node2&#45;&gt;Node5 -->
<g id="edge5" class="edge">
<title>Node2&#45;&gt;Node5</title>
<path fill="none" stroke="#191970" d="M447.915,-57.9766C414.0286,-48.6286 357.6729,-33.0822 318.3272,-22.2282"/>
<polygon fill="#191970" stroke="#191970" points="319.0356,-18.7929 308.4649,-19.5076 317.1741,-25.5409 319.0356,-18.7929"/>
</g>
<!-- Node6 -->
<g id="node7" class="node">
<title>Node6</title>
<polygon fill="#ffffff" stroke="#bfbfbf" points="327.5,-.5 327.5,-19.5 390.5,-19.5 390.5,-.5 327.5,-.5"/>
<text text-anchor="middle" x="359" y="-7.5" font-family="Helvetica,sans-Serif" font-size="10.00" fill="#000000">cublasXt.h</text>
</g>
<!-- Node2&#45;&gt;Node6 -->
<g id="edge6" class="edge">
<title>Node2&#45;&gt;Node6</title>
<path fill="none" stroke="#191970" d="M456.7151,-56.3733C437.8579,-47.4241 409.554,-33.9917 388.2545,-23.8835"/>
<polygon fill="#191970" stroke="#191970" points="389.5551,-20.6266 379.0202,-19.5011 386.5539,-26.9506 389.5551,-20.6266"/>
</g>
<!-- Node7 -->
<g id="node8" class="node">
<title>Node7</title>
<polygon fill="#ffffff" stroke="#bfbfbf" points="409,-.5 409,-19.5 471,-19.5 471,-.5 409,-.5"/>
<text text-anchor="middle" x="440" y="-7.5" font-family="Helvetica,sans-Serif" font-size="10.00" fill="#000000">execinfo.h</text>
</g>
<!-- Node2&#45;&gt;Node7 -->
<g id="edge7" class="edge">
<title>Node2&#45;&gt;Node7</title>
<path fill="none" stroke="#191970" d="M470.5551,-56.2455C465.4618,-48.5367 458.2092,-37.5598 452.048,-28.2348"/>
<polygon fill="#191970" stroke="#191970" points="454.8038,-26.0566 446.3711,-19.6427 448.9635,-29.9155 454.8038,-26.0566"/>
</g>
<!-- Node8 -->
<g id="node9" class="node">
<title>Node8</title>
<polygon fill="#ffffff" stroke="#bfbfbf" points="489.5,-.5 489.5,-19.5 540.5,-19.5 540.5,-.5 489.5,-.5"/>
<text text-anchor="middle" x="515" y="-7.5" font-family="Helvetica,sans-Serif" font-size="10.00" fill="#000000">signal.h</text>
</g>
<!-- Node2&#45;&gt;Node8 -->
<g id="edge9" class="edge">
<title>Node2&#45;&gt;Node8</title>
<path fill="none" stroke="#191970" d="M483.6191,-56.2455C488.9046,-48.4564 496.4541,-37.3308 502.8238,-27.9439"/>
<polygon fill="#191970" stroke="#191970" points="505.7379,-29.8827 508.4568,-19.6427 499.9455,-25.9522 505.7379,-29.8827"/>
</g>
<!-- Node9 -->
<g id="node10" class="node">
<title>Node9</title>
<polygon fill="#ffffff" stroke="#bfbfbf" points="559,-.5 559,-19.5 611,-19.5 611,-.5 559,-.5"/>
<text text-anchor="middle" x="585" y="-7.5" font-family="Helvetica,sans-Serif" font-size="10.00" fill="#000000">assert.h</text>
</g>
<!-- Node2&#45;&gt;Node9 -->
<g id="edge10" class="edge">
<title>Node2&#45;&gt;Node9</title>
<path fill="none" stroke="#191970" d="M495.8122,-56.2455C512.8473,-47.4125 538.1575,-34.2887 557.4681,-24.2758"/>
<polygon fill="#191970" stroke="#191970" points="559.137,-27.353 566.4034,-19.6427 555.9147,-21.1388 559.137,-27.353"/>
</g>
<!-- Node10 -->
<g id="node11" class="node">
<title>Node10</title>
<polygon fill="#ffffff" stroke="#bfbfbf" points="629,-.5 629,-19.5 703,-19.5 703,-.5 629,-.5"/>
<text text-anchor="middle" x="666" y="-7.5" font-family="Helvetica,sans-Serif" font-size="10.00" fill="#000000">nvToolsExt.h</text>
</g>
<!-- Node2&#45;&gt;Node10 -->
<g id="edge11" class="edge">
<title>Node2&#45;&gt;Node10</title>
<path fill="none" stroke="#191970" d="M506.1171,-57.3727C537.635,-48.0341 588.1852,-33.0562 623.9992,-22.4447"/>
<polygon fill="#191970" stroke="#191970" points="625.0881,-25.7725 633.6817,-19.5758 623.0994,-19.0609 625.0881,-25.7725"/>
</g>
<!-- Node11 -->
<g id="node12" class="node">
<title>Node11</title>
<polygon fill="#ffffff" stroke="#bfbfbf" points="721,-.5 721,-19.5 775,-19.5 775,-.5 721,-.5"/>
<text text-anchor="middle" x="748" y="-7.5" font-family="Helvetica,sans-Serif" font-size="10.00" fill="#000000">complex</text>
</g>
<!-- Node2&#45;&gt;Node11 -->
<g id="edge12" class="edge">
<title>Node2&#45;&gt;Node11</title>
<path fill="none" stroke="#191970" d="M506.098,-61.0543C548.8267,-53.6301 631.2441,-38.6969 710.7494,-20.1597"/>
<polygon fill="#191970" stroke="#191970" points="712.0001,-23.461 720.9314,-17.7617 710.3953,-16.6474 712.0001,-23.461"/>
</g>
<!-- Node12 -->
<g id="node13" class="node">
<title>Node12</title>
<polygon fill="#ffffff" stroke="#bfbfbf" points="793,-.5 793,-19.5 837,-19.5 837,-.5 793,-.5"/>
<text text-anchor="middle" x="815" y="-7.5" font-family="Helvetica,sans-Serif" font-size="10.00" fill="#000000">vector</text>
</g>
<!-- Node2&#45;&gt;Node12 -->
<g id="edge13" class="edge">
<title>Node2&#45;&gt;Node12</title>
<path fill="none" stroke="#191970" d="M506.0797,-63.2429C559.2808,-57.8577 675.9142,-44.4726 782.7925,-19.9773"/>
<polygon fill="#191970" stroke="#191970" points="783.8275,-23.3299 792.7715,-17.6506 782.2379,-16.5128 783.8275,-23.3299"/>
</g>
<!-- Node13 -->
<g id="node14" class="node">
<title>Node13</title>
<polygon fill="#ffffff" stroke="#bfbfbf" points="855,-.5 855,-19.5 901,-19.5 901,-.5 855,-.5"/>
<text text-anchor="middle" x="878" y="-7.5" font-family="Helvetica,sans-Serif" font-size="10.00" fill="#000000">stdio.h</text>
</g>
<!-- Node2&#45;&gt;Node13 -->
<g id="edge14" class="edge">
<title>Node2&#45;&gt;Node13</title>
<path fill="none" stroke="#191970" d="M506.003,-64.1561C567.1261,-59.8939 713.6866,-47.6936 844.8906,-19.9214"/>
<polygon fill="#191970" stroke="#191970" points="845.6711,-23.3336 854.7103,-17.807 844.1976,-16.4905 845.6711,-23.3336"/>
</g>
<!-- Node14 -->
<g id="node15" class="node">
<title>Node14</title>
<g id="a_node15"><a xlink:href="../../d6/d97/stream__id_8hpp_source.html" target="_top" xlink:title="stream_id.hpp">
<polygon fill="#ffffff" stroke="#000000" points="919,-.5 919,-19.5 999,-19.5 999,-.5 919,-.5"/>
<text text-anchor="middle" x="959" y="-7.5" font-family="Helvetica,sans-Serif" font-size="10.00" fill="#000000">stream_id.hpp</text>
</a>
</g>
</g>
<!-- Node2&#45;&gt;Node14 -->
<g id="edge15" class="edge">
<title>Node2&#45;&gt;Node14</title>
<path fill="none" stroke="#191970" d="M506.0075,-63.8809C574.4064,-58.6793 751.2652,-44.0352 909.0597,-20.0197"/>
<polygon fill="#191970" stroke="#191970" points="909.5933,-23.4789 918.9448,-18.4989 908.5288,-16.5603 909.5933,-23.4789"/>
</g>
</g>
</svg>
