<?xml version="1.0" encoding="UTF-8" standalone="no"?>
<!DOCTYPE svg PUBLIC "-//W3C//DTD SVG 1.1//EN"
 "http://www.w3.org/Graphics/SVG/1.1/DTD/svg11.dtd">
<!-- Generated by graphviz version 2.40.1 (20161225.0304)
 -->
<!-- Title: sirius::Simulation_parameters Pages: 1 -->
<svg width="538pt" height="280pt"
 viewBox="0.00 0.00 538.00 279.50" xmlns="http://www.w3.org/2000/svg" xmlns:xlink="http://www.w3.org/1999/xlink">
<g id="graph0" class="graph" transform="scale(1 1) rotate(0) translate(4 275.5)">
<title>sirius::Simulation_parameters</title>
<polygon fill="#ffffff" stroke="transparent" points="-4,4 -4,-275.5 534,-275.5 534,4 -4,4"/>
<!-- Node3 -->
<g id="node1" class="node">
<title>Node3</title>
<polygon fill="#bfbfbf" stroke="#000000" points="457,-121 457,-151 530,-151 530,-121 457,-121"/>
<text text-anchor="start" x="465" y="-139" font-family="Helvetica,sans-Serif" font-size="10.00" fill="#000000">sirius::Simulation</text>
<text text-anchor="middle" x="493.5" y="-128" font-family="Helvetica,sans-Serif" font-size="10.00" fill="#000000">_parameters</text>
</g>
<!-- Node4 -->
<g id="node2" class="node">
<title>Node4</title>
<g id="a_node2"><a xlink:href="../../d4/d6e/structsirius_1_1_parameters__input.html" target="_top" xlink:title="sirius::Parameters\l_input">
<polygon fill="#ffffff" stroke="#000000" points="260,-241 260,-271 337,-271 337,-241 260,-241"/>
<text text-anchor="start" x="268" y="-259" font-family="Helvetica,sans-Serif" font-size="10.00" fill="#000000">sirius::Parameters</text>
<text text-anchor="middle" x="298.5" y="-248" font-family="Helvetica,sans-Serif" font-size="10.00" fill="#000000">_input</text>
</a>
</g>
</g>
<!-- Node4&#45;&gt;Node3 -->
<g id="edge1" class="edge">
<title>Node4&#45;&gt;Node3</title>
<path fill="none" stroke="#9a32cd" stroke-dasharray="5,2" d="M347.0079,-251.0623C375.9126,-246.1588 412.0898,-236.4009 439,-217 462.5104,-200.0502 478.9293,-169.6035 487.2406,-151.2536"/>
<polygon fill="#9a32cd" stroke="#9a32cd" points="346.4572,-247.6058 337.1144,-252.6022 347.5337,-254.5225 346.4572,-247.6058"/>
<text text-anchor="middle" x="400" y="-250" font-family="Helvetica,sans-Serif" font-size="10.00" fill="#000000"> parameters_input_</text>
</g>
<!-- Node5 -->
<g id="node3" class="node">
<title>Node5</title>
<g id="a_node3"><a xlink:href="../../da/de3/structsirius_1_1_control__input.html" target="_top" xlink:title="Parse control input section. ">
<polygon fill="#ffffff" stroke="#000000" points="257,-202.5 257,-221.5 340,-221.5 340,-202.5 257,-202.5"/>
<text text-anchor="middle" x="298.5" y="-209.5" font-family="Helvetica,sans-Serif" font-size="10.00" fill="#000000">sirius::Control_input</text>
</a>
</g>
</g>
<!-- Node5&#45;&gt;Node3 -->
<g id="edge2" class="edge">
<title>Node5&#45;&gt;Node3</title>
<path fill="none" stroke="#9a32cd" stroke-dasharray="5,2" d="M350.2168,-205.4036C377.583,-200.5616 411.183,-192.4146 439,-179 453.5468,-171.9849 467.7972,-160.5323 478.0759,-151.2097"/>
<polygon fill="#9a32cd" stroke="#9a32cd" points="349.3447,-202.0007 340.0587,-207.1017 350.4989,-208.9049 349.3447,-202.0007"/>
<text text-anchor="middle" x="400" y="-205" font-family="Helvetica,sans-Serif" font-size="10.00" fill="#000000"> control_input_</text>
</g>
<!-- Node6 -->
<g id="node4" class="node">
<title>Node6</title>
<g id="a_node4"><a xlink:href="../../d2/dcd/structsirius_1_1_hubbard__input.html" target="_top" xlink:title="sirius::Hubbard_input">
<polygon fill="#ffffff" stroke="#000000" points="255,-164.5 255,-183.5 342,-183.5 342,-164.5 255,-164.5"/>
<text text-anchor="middle" x="298.5" y="-171.5" font-family="Helvetica,sans-Serif" font-size="10.00" fill="#000000">sirius::Hubbard_input</text>
</a>
</g>
</g>
<!-- Node6&#45;&gt;Node3 -->
<g id="edge3" class="edge">
<title>Node6&#45;&gt;Node3</title>
<path fill="none" stroke="#9a32cd" stroke-dasharray="5,2" d="M352.224,-166.5755C378.5096,-162.5951 410.5429,-157.2269 439,-151 444.848,-149.7204 451.0034,-148.1989 456.9877,-146.6235"/>
<polygon fill="#9a32cd" stroke="#9a32cd" points="351.4573,-163.151 342.082,-168.086 352.4885,-170.0746 351.4573,-163.151"/>
<text text-anchor="middle" x="400" y="-167" font-family="Helvetica,sans-Serif" font-size="10.00" fill="#000000"> hubbard_input_</text>
</g>
<!-- Node7 -->
<g id="node5" class="node">
<title>Node7</title>
<g id="a_node5"><a xlink:href="../../d6/de3/structsirius_1_1_settings__input.html" target="_top" xlink:title="Settings control the internal parameters related to the numerical implementation. ...">
<polygon fill="#ffffff" stroke="#000000" points="255.5,-126.5 255.5,-145.5 341.5,-145.5 341.5,-126.5 255.5,-126.5"/>
<text text-anchor="middle" x="298.5" y="-133.5" font-family="Helvetica,sans-Serif" font-size="10.00" fill="#000000">sirius::Settings_input</text>
</a>
</g>
</g>
<!-- Node7&#45;&gt;Node3 -->
<g id="edge4" class="edge">
<title>Node7&#45;&gt;Node3</title>
<path fill="none" stroke="#9a32cd" stroke-dasharray="5,2" d="M351.8244,-136C385.1805,-136 427.2842,-136 456.8935,-136"/>
<polygon fill="#9a32cd" stroke="#9a32cd" points="351.7769,-132.5001 341.7768,-136 351.7768,-139.5001 351.7769,-132.5001"/>
<text text-anchor="middle" x="400" y="-139" font-family="Helvetica,sans-Serif" font-size="10.00" fill="#000000"> settings_input_</text>
</g>
<!-- Node8 -->
<g id="node6" class="node">
<title>Node8</title>
<g id="a_node6"><a xlink:href="../../d7/d51/structsirius_1_1_unit__cell__input.html" target="_top" xlink:title="Parse unit cell input section. ">
<polygon fill="#ffffff" stroke="#000000" points="255,-88.5 255,-107.5 342,-107.5 342,-88.5 255,-88.5"/>
<text text-anchor="middle" x="298.5" y="-95.5" font-family="Helvetica,sans-Serif" font-size="10.00" fill="#000000">sirius::Unit_cell_input</text>
</a>
</g>
</g>
<!-- Node8&#45;&gt;Node3 -->
<g id="edge5" class="edge">
<title>Node8&#45;&gt;Node3</title>
<path fill="none" stroke="#9a32cd" stroke-dasharray="5,2" d="M352.224,-105.4245C378.5096,-109.4049 410.5429,-114.7731 439,-121 444.848,-122.2796 451.0034,-123.8011 456.9877,-125.3765"/>
<polygon fill="#9a32cd" stroke="#9a32cd" points="352.4885,-101.9254 342.082,-103.914 351.4573,-108.849 352.4885,-101.9254"/>
<text text-anchor="middle" x="400" y="-124" font-family="Helvetica,sans-Serif" font-size="10.00" fill="#000000"> unit_cell_input_</text>
</g>
<!-- Node9 -->
<g id="node7" class="node">
<title>Node9</title>
<g id="a_node7"><a xlink:href="../../d2/d6b/classgeometry3d_1_1vector3d.html" target="_top" xlink:title="geometry3d::vector3d\l\&lt; double \&gt;">
<polygon fill="#ffffff" stroke="#000000" points="114,-83 114,-113 203,-113 203,-83 114,-83"/>
<text text-anchor="start" x="122" y="-101" font-family="Helvetica,sans-Serif" font-size="10.00" fill="#000000">geometry3d::vector3d</text>
<text text-anchor="middle" x="158.5" y="-90" font-family="Helvetica,sans-Serif" font-size="10.00" fill="#000000">&lt; double &gt;</text>
</a>
</g>
</g>
<!-- Node9&#45;&gt;Node8 -->
<g id="edge6" class="edge">
<title>Node9&#45;&gt;Node8</title>
<path fill="none" stroke="#9a32cd" stroke-dasharray="5,2" d="M213.4582,-98C227.1505,-98 241.6485,-98 254.7206,-98"/>
<polygon fill="#9a32cd" stroke="#9a32cd" points="213.1818,-94.5001 203.1818,-98 213.1818,-101.5001 213.1818,-94.5001"/>
<text text-anchor="middle" x="228.5" y="-123" font-family="Helvetica,sans-Serif" font-size="10.00" fill="#000000"> a2_</text>
<text text-anchor="middle" x="228.5" y="-112" font-family="Helvetica,sans-Serif" font-size="10.00" fill="#000000">a1_</text>
<text text-anchor="middle" x="228.5" y="-101" font-family="Helvetica,sans-Serif" font-size="10.00" fill="#000000">a0_</text>
</g>
<!-- Node10 -->
<g id="node8" class="node">
<title>Node10</title>
<polygon fill="#ffffff" stroke="#bfbfbf" points="0,-83 0,-113 77,-113 77,-83 0,-83"/>
<text text-anchor="start" x="8" y="-101" font-family="Helvetica,sans-Serif" font-size="10.00" fill="#000000">std::array&lt; double</text>
<text text-anchor="middle" x="38.5" y="-90" font-family="Helvetica,sans-Serif" font-size="10.00" fill="#000000"> , 3 &gt;</text>
</g>
<!-- Node10&#45;&gt;Node9 -->
<g id="edge7" class="edge">
<title>Node10&#45;&gt;Node9</title>
<path fill="none" stroke="#191970" d="M87.2034,-98C95.9552,-98 105.0396,-98 113.6751,-98"/>
<polygon fill="#191970" stroke="#191970" points="87.1293,-94.5001 77.1293,-98 87.1293,-101.5001 87.1293,-94.5001"/>
</g>
<!-- Node11 -->
<g id="node9" class="node">
<title>Node11</title>
<g id="a_node9"><a xlink:href="../../d2/d11/structsirius_1_1_iterative__solver__input.html" target="_top" xlink:title="sirius::Iterative_solver\l_input">
<polygon fill="#ffffff" stroke="#000000" points="254,-39 254,-69 343,-69 343,-39 254,-39"/>
<text text-anchor="start" x="262" y="-57" font-family="Helvetica,sans-Serif" font-size="10.00" fill="#000000">sirius::Iterative_solver</text>
<text text-anchor="middle" x="298.5" y="-46" font-family="Helvetica,sans-Serif" font-size="10.00" fill="#000000">_input</text>
</a>
</g>
</g>
<!-- Node11&#45;&gt;Node3 -->
<g id="edge8" class="edge">
<title>Node11&#45;&gt;Node3</title>
<path fill="none" stroke="#9a32cd" stroke-dasharray="5,2" d="M353.2542,-63.2884C380.0682,-69.193 412.2539,-78.3576 439,-92 453.5158,-99.4041 467.7677,-111.1125 478.0548,-120.5904"/>
<polygon fill="#9a32cd" stroke="#9a32cd" points="353.77,-59.8203 343.2631,-61.1825 352.3262,-66.6698 353.77,-59.8203"/>
<text text-anchor="middle" x="400" y="-95" font-family="Helvetica,sans-Serif" font-size="10.00" fill="#000000"> iterative_solver_input_</text>
</g>
<!-- Node12 -->
<g id="node10" class="node">
<title>Node12</title>
<g id="a_node10"><a xlink:href="../../d4/db0/structsirius_1_1_mixer__input.html" target="_top" xlink:title="Parse mixer input section. ">
<polygon fill="#ffffff" stroke="#000000" points="260,-.5 260,-19.5 337,-19.5 337,-.5 260,-.5"/>
<text text-anchor="middle" x="298.5" y="-7.5" font-family="Helvetica,sans-Serif" font-size="10.00" fill="#000000">sirius::Mixer_input</text>
</a>
</g>
</g>
<!-- Node12&#45;&gt;Node3 -->
<g id="edge9" class="edge">
<title>Node12&#45;&gt;Node3</title>
<path fill="none" stroke="#9a32cd" stroke-dasharray="5,2" d="M347.2113,-15.0684C376.1903,-20.0992 412.3743,-30.1074 439,-50 463.6393,-68.4085 479.9622,-101.5228 487.891,-120.8479"/>
<polygon fill="#9a32cd" stroke="#9a32cd" points="347.715,-11.6046 337.289,-13.4885 346.6142,-18.5175 347.715,-11.6046"/>
<text text-anchor="middle" x="400" y="-53" font-family="Helvetica,sans-Serif" font-size="10.00" fill="#000000"> mixer_input_</text>
</g>
</g>
</svg>
