<?xml version="1.0" encoding="UTF-8" standalone="no"?>
<!DOCTYPE svg PUBLIC "-//W3C//DTD SVG 1.1//EN"
 "http://www.w3.org/Graphics/SVG/1.1/DTD/svg11.dtd">
<!-- Generated by graphviz version 2.40.1 (20161225.0304)
 -->
<!-- Title: radial_solver.hpp Pages: 1 -->
<!--zoomable 308 -->
<svg id="main" version="1.1" xmlns="http://www.w3.org/2000/svg" xmlns:xlink="http://www.w3.org/1999/xlink" xml:space="preserve" onload="init(evt)">
<style type="text/css"><![CDATA[
.edge:hover path { stroke: red; }
.edge:hover polygon { stroke: red; fill: red; }
]]></style>
<script type="text/javascript"><![CDATA[
var edges = document.getElementsByTagName('g');
if (edges && edges.length) {
  for (var i=0;i<edges.length;i++) {
    if (edges[i].id.substr(0,4)=='edge') {
      edges[i].setAttribute('class','edge');
    }
  }
}
]]></script>
        <defs>
                <circle id="rim" cx="0" cy="0" r="7"/>
                <circle id="rim2" cx="0" cy="0" r="3.5"/>
                <g id="zoomPlus">
                        <use xlink:href="#rim" fill="#404040">
                                <set attributeName="fill" to="#808080" begin="zoomplus.mouseover" end="zoomplus.mouseout"/>
                        </use>
                        <path d="M-4,0h8M0,-4v8" fill="none" stroke="white" stroke-width="1.5" pointer-events="none"/>
                </g>
                <g id="zoomMin">
                        <use xlink:href="#rim" fill="#404040">
                                <set attributeName="fill" to="#808080" begin="zoomminus.mouseover" end="zoomminus.mouseout"/>
                        </use>
                        <path d="M-4,0h8" fill="none" stroke="white" stroke-width="1.5" pointer-events="none"/>
                </g>
                <g id="dirArrow">
                        <path fill="none" stroke="white" stroke-width="1.5" d="M0,-3.0v7 M-2.5,-0.5L0,-3.0L2.5,-0.5"/>
                </g>
               <g id="resetDef">
                       <use xlink:href="#rim2" fill="#404040">
                               <set attributeName="fill" to="#808080" begin="reset.mouseover" end="reset.mouseout"/>
                       </use>
               </g>
        </defs>

<script type="text/javascript">
var viewWidth = 1206;
var viewHeight = 308;
var sectionId = 'dynsection-0';
</script>
<script xlink:href="../../svgpan.js"/>
<svg id="graph" class="graph">
<g id="viewport">
<title>radial_solver.hpp</title>
<polygon fill="#ffffff" stroke="transparent" points="-4,4 -4,-304 1202,-304 1202,4 -4,4"/>
<!-- Node1 -->
<g id="node1" class="node">
<title>Node1</title>
<g id="a_node1"><a xlink:title="Contains declaration and partial implementation of sirius::Radial_solver class.">
<polygon fill="#bfbfbf" stroke="#000000" points="937,-280.5 937,-299.5 1030,-299.5 1030,-280.5 937,-280.5"/>
<text text-anchor="middle" x="983.5" y="-287.5" font-family="Helvetica,sans-Serif" font-size="10.00" fill="#000000">radial_solver.hpp</text>
</a>
</g>
</g>
<!-- Node2 -->
<g id="node2" class="node">
<title>Node2</title>
<g id="a_node2"><a xlink:title=" ">
<polygon fill="#ffffff" stroke="#bfbfbf" points="867.5,-224.5 867.5,-243.5 905.5,-243.5 905.5,-224.5 867.5,-224.5"/>
<text text-anchor="middle" x="886.5" y="-231.5" font-family="Helvetica,sans-Serif" font-size="10.00" fill="#000000">tuple</text>
</a>
</g>
</g>
<!-- Node1&#45;&gt;Node2 -->
<g id="edge1" class="edge">
<title>Node1&#45;&gt;Node2</title>
<path fill="none" stroke="#191970" d="M966.6039,-280.2455C951.582,-271.5731 929.3957,-258.7645 912.179,-248.825"/>
<polygon fill="#191970" stroke="#191970" points="913.6128,-245.6114 903.2025,-243.6427 910.1129,-251.6737 913.6128,-245.6114"/>
</g>
<!-- Node3 -->
<g id="node3" class="node">
<title>Node3</title>
<g id="a_node3"><a xlink:href="../../d9/d05/spline_8hpp.html" target="_top" xlink:title="Contains definition and partial implementation of sirius::Spline class.">
<polygon fill="#ffffff" stroke="#000000" points="923.5,-224.5 923.5,-243.5 985.5,-243.5 985.5,-224.5 923.5,-224.5"/>
<text text-anchor="middle" x="954.5" y="-231.5" font-family="Helvetica,sans-Serif" font-size="10.00" fill="#000000">spline.hpp</text>
</a>
</g>
</g>
<!-- Node1&#45;&gt;Node3 -->
<g id="edge2" class="edge">
<title>Node1&#45;&gt;Node3</title>
<path fill="none" stroke="#191970" d="M978.4486,-280.2455C974.4981,-272.617 968.8903,-261.7881 964.0942,-252.5267"/>
<polygon fill="#191970" stroke="#191970" points="967.2001,-250.9131 959.4935,-243.6427 960.9841,-254.1321 967.2001,-250.9131"/>
</g>
<!-- Node30 -->
<g id="node30" class="node">
<title>Node30</title>
<g id="a_node30"><a xlink:href="../../d3/dad/constants_8hpp.html" target="_top" xlink:title="Various constants.">
<polygon fill="#ffffff" stroke="#000000" points="1119,-168.5 1119,-187.5 1198,-187.5 1198,-168.5 1119,-168.5"/>
<text text-anchor="middle" x="1158.5" y="-175.5" font-family="Helvetica,sans-Serif" font-size="10.00" fill="#000000">constants.hpp</text>
</a>
</g>
</g>
<!-- Node1&#45;&gt;Node30 -->
<g id="edge30" class="edge">
<title>Node1&#45;&gt;Node30</title>
<path fill="none" stroke="#191970" d="M998.4204,-280.4509C1028.8998,-260.9441 1098.5106,-216.3932 1135.0768,-192.9909"/>
<polygon fill="#191970" stroke="#191970" points="1137.0813,-195.8634 1143.6174,-187.5249 1133.3079,-189.9675 1137.0813,-195.8634"/>
</g>
<!-- Node31 -->
<g id="node31" class="node">
<title>Node31</title>
<g id="a_node31"><a xlink:href="../../de/df7/typedefs_8hpp.html" target="_top" xlink:title="Contains typedefs, enums and simple descriptors.">
<polygon fill="#ffffff" stroke="#000000" points="976.5,-112.5 976.5,-131.5 1050.5,-131.5 1050.5,-112.5 976.5,-112.5"/>
<text text-anchor="middle" x="1013.5" y="-119.5" font-family="Helvetica,sans-Serif" font-size="10.00" fill="#000000">typedefs.hpp</text>
</a>
</g>
</g>
<!-- Node1&#45;&gt;Node31 -->
<g id="edge32" class="edge">
<title>Node1&#45;&gt;Node31</title>
<path fill="none" stroke="#191970" d="M986.0901,-280.1796C988.48,-270.9001 992.0228,-256.5678 994.5,-244 1001.5856,-208.0514 1007.6797,-165.7186 1010.9474,-141.5535"/>
<polygon fill="#191970" stroke="#191970" points="1014.4306,-141.9111 1012.28,-131.5369 1007.4917,-140.9879 1014.4306,-141.9111"/>
</g>
<!-- Node4 -->
<g id="node4" class="node">
<title>Node4</title>
<g id="a_node4"><a xlink:href="../../d2/d4f/radial__grid_8hpp.html" target="_top" xlink:title="Contains declaraion and partial implementation of sirius::Radial_grid class.">
<polygon fill="#ffffff" stroke="#000000" points="762.5,-168.5 762.5,-187.5 872.5,-187.5 872.5,-168.5 762.5,-168.5"/>
<text text-anchor="middle" x="817.5" y="-175.5" font-family="Helvetica,sans-Serif" font-size="10.00" fill="#000000">radial/radial_grid.hpp</text>
</a>
</g>
</g>
<!-- Node3&#45;&gt;Node4 -->
<g id="edge3" class="edge">
<title>Node3&#45;&gt;Node4</title>
<path fill="none" stroke="#191970" d="M930.9489,-224.3733C908.6609,-215.2629 875.0063,-201.5062 850.1363,-191.3404"/>
<polygon fill="#191970" stroke="#191970" points="851.3247,-188.0451 840.7438,-187.5011 848.6761,-194.5247 851.3247,-188.0451"/>
</g>
<!-- Node5 -->
<g id="node5" class="node">
<title>Node5</title>
<g id="a_node5"><a xlink:href="../../da/d3e/memory_8hpp.html" target="_top" xlink:title="Memory management functions and classes.">
<polygon fill="#ffffff" stroke="#000000" points="609.5,-112.5 609.5,-131.5 681.5,-131.5 681.5,-112.5 609.5,-112.5"/>
<text text-anchor="middle" x="645.5" y="-119.5" font-family="Helvetica,sans-Serif" font-size="10.00" fill="#000000">memory.hpp</text>
</a>
</g>
</g>
<!-- Node4&#45;&gt;Node5 -->
<g id="edge4" class="edge">
<title>Node4&#45;&gt;Node5</title>
<path fill="none" stroke="#191970" d="M787.9321,-168.3733C759.3312,-159.0613 715.8212,-144.8953 684.4181,-134.671"/>
<polygon fill="#191970" stroke="#191970" points="685.2743,-131.269 674.682,-131.5011 683.1072,-137.9251 685.2743,-131.269"/>
</g>
<!-- Node6 -->
<g id="node6" class="node">
<title>Node6</title>
<g id="a_node6"><a xlink:title=" ">
<polygon fill="#ffffff" stroke="#bfbfbf" points="543,-56.5 543,-75.5 572,-75.5 572,-56.5 543,-56.5"/>
<text text-anchor="middle" x="557.5" y="-63.5" font-family="Helvetica,sans-Serif" font-size="10.00" fill="#000000">list</text>
</a>
</g>
</g>
<!-- Node5&#45;&gt;Node6 -->
<g id="edge5" class="edge">
<title>Node5&#45;&gt;Node6</title>
<path fill="none" stroke="#191970" d="M630.1716,-112.2455C616.505,-103.5486 596.302,-90.6922 580.6642,-80.7409"/>
<polygon fill="#191970" stroke="#191970" points="582.3841,-77.6868 572.0684,-75.2708 578.626,-83.5924 582.3841,-77.6868"/>
</g>
<!-- Node7 -->
<g id="node7" class="node">
<title>Node7</title>
<g id="a_node7"><a xlink:title=" ">
<polygon fill="#ffffff" stroke="#bfbfbf" points="590,-56.5 590,-75.5 645,-75.5 645,-56.5 590,-56.5"/>
<text text-anchor="middle" x="617.5" y="-63.5" font-family="Helvetica,sans-Serif" font-size="10.00" fill="#000000">iostream</text>
</a>
</g>
</g>
<!-- Node5&#45;&gt;Node7 -->
<g id="edge6" class="edge">
<title>Node5&#45;&gt;Node7</title>
<path fill="none" stroke="#191970" d="M640.6228,-112.2455C636.8487,-104.6973 631.5079,-94.0158 626.9099,-84.8197"/>
<polygon fill="#191970" stroke="#191970" points="629.924,-83.0217 622.3213,-75.6427 623.663,-86.1522 629.924,-83.0217"/>
</g>
<!-- Node8 -->
<g id="node8" class="node">
<title>Node8</title>
<g id="a_node8"><a xlink:title=" ">
<polygon fill="#ffffff" stroke="#bfbfbf" points="773.5,-56.5 773.5,-75.5 809.5,-75.5 809.5,-56.5 773.5,-56.5"/>
<text text-anchor="middle" x="791.5" y="-63.5" font-family="Helvetica,sans-Serif" font-size="10.00" fill="#000000">map</text>
</a>
</g>
</g>
<!-- Node5&#45;&gt;Node8 -->
<g id="edge7" class="edge">
<title>Node5&#45;&gt;Node8</title>
<path fill="none" stroke="#191970" d="M670.5983,-112.3733C696.4797,-102.4461 736.7438,-87.0024 763.6066,-76.6988"/>
<polygon fill="#191970" stroke="#191970" points="765.1046,-79.8729 773.188,-73.0238 762.5978,-73.3372 765.1046,-79.8729"/>
</g>
<!-- Node9 -->
<g id="node9" class="node">
<title>Node9</title>
<g id="a_node9"><a xlink:title=" ">
<polygon fill="#ffffff" stroke="#bfbfbf" points="702,-56.5 702,-75.5 755,-75.5 755,-56.5 702,-56.5"/>
<text text-anchor="middle" x="728.5" y="-63.5" font-family="Helvetica,sans-Serif" font-size="10.00" fill="#000000">memory</text>
</a>
</g>
</g>
<!-- Node5&#45;&gt;Node9 -->
<g id="edge8" class="edge">
<title>Node5&#45;&gt;Node9</title>
<path fill="none" stroke="#191970" d="M659.9575,-112.2455C672.5732,-103.7337 691.0944,-91.2375 705.7045,-81.3801"/>
<polygon fill="#191970" stroke="#191970" points="707.8761,-84.1371 714.2082,-75.6427 703.9609,-78.3343 707.8761,-84.1371"/>
</g>
<!-- Node10 -->
<g id="node10" class="node">
<title>Node10</title>
<g id="a_node10"><a xlink:title=" ">
<polygon fill="#ffffff" stroke="#bfbfbf" points="245.5,-56.5 245.5,-75.5 291.5,-75.5 291.5,-56.5 245.5,-56.5"/>
<text text-anchor="middle" x="268.5" y="-63.5" font-family="Helvetica,sans-Serif" font-size="10.00" fill="#000000">cstring</text>
</a>
</g>
</g>
<!-- Node5&#45;&gt;Node10 -->
<g id="edge9" class="edge">
<title>Node5&#45;&gt;Node10</title>
<path fill="none" stroke="#191970" d="M609.3881,-119.2238C547.9276,-114.0598 419.0153,-101.3252 301.6629,-75.9533"/>
<polygon fill="#191970" stroke="#191970" points="302.3132,-72.5128 291.7948,-73.7835 300.8098,-79.3495 302.3132,-72.5128"/>
</g>
<!-- Node11 -->
<g id="node11" class="node">
<title>Node11</title>
<g id="a_node11"><a xlink:title=" ">
<polygon fill="#ffffff" stroke="#bfbfbf" points="310,-56.5 310,-75.5 369,-75.5 369,-56.5 310,-56.5"/>
<text text-anchor="middle" x="339.5" y="-63.5" font-family="Helvetica,sans-Serif" font-size="10.00" fill="#000000">functional</text>
</a>
</g>
</g>
<!-- Node5&#45;&gt;Node11 -->
<g id="edge10" class="edge">
<title>Node5&#45;&gt;Node11</title>
<path fill="none" stroke="#191970" d="M609.3281,-116.8176C559.5238,-109.4582 466.8584,-94.964 379.1516,-76.2325"/>
<polygon fill="#191970" stroke="#191970" points="379.8248,-72.7972 369.3114,-74.1082 378.3476,-79.6396 379.8248,-72.7972"/>
</g>
<!-- Node12 -->
<g id="node12" class="node">
<title>Node12</title>
<g id="a_node12"><a xlink:title=" ">
<polygon fill="#ffffff" stroke="#bfbfbf" points="827.5,-56.5 827.5,-75.5 885.5,-75.5 885.5,-56.5 827.5,-56.5"/>
<text text-anchor="middle" x="856.5" y="-63.5" font-family="Helvetica,sans-Serif" font-size="10.00" fill="#000000">algorithm</text>
</a>
</g>
</g>
<!-- Node5&#45;&gt;Node12 -->
<g id="edge11" class="edge">
<title>Node5&#45;&gt;Node12</title>
<path fill="none" stroke="#191970" d="M681.7722,-112.3733C719.6291,-102.3259 778.7783,-86.6276 817.59,-76.3268"/>
<polygon fill="#191970" stroke="#191970" points="818.7103,-79.6507 827.4779,-73.7026 816.9146,-72.885 818.7103,-79.6507"/>
</g>
<!-- Node13 -->
<g id="node13" class="node">
<title>Node13</title>
<g id="a_node13"><a xlink:title=" ">
<polygon fill="#ffffff" stroke="#bfbfbf" points="904,-56.5 904,-75.5 943,-75.5 943,-56.5 904,-56.5"/>
<text text-anchor="middle" x="923.5" y="-63.5" font-family="Helvetica,sans-Serif" font-size="10.00" fill="#000000">array</text>
</a>
</g>
</g>
<!-- Node5&#45;&gt;Node13 -->
<g id="edge12" class="edge">
<title>Node5&#45;&gt;Node13</title>
<path fill="none" stroke="#191970" d="M681.747,-117.0404C728.6473,-110.2454 812.9726,-96.7464 894.0924,-75.7739"/>
<polygon fill="#191970" stroke="#191970" points="895.1844,-79.1059 903.9665,-73.1792 893.4053,-72.3358 895.1844,-79.1059"/>
</g>
<!-- Node14 -->
<g id="node14" class="node">
<title>Node14</title>
<g id="a_node14"><a xlink:title=" ">
<polygon fill="#ffffff" stroke="#bfbfbf" points="1130.5,-.5 1130.5,-19.5 1184.5,-19.5 1184.5,-.5 1130.5,-.5"/>
<text text-anchor="middle" x="1157.5" y="-7.5" font-family="Helvetica,sans-Serif" font-size="10.00" fill="#000000">complex</text>
</a>
</g>
</g>
<!-- Node5&#45;&gt;Node14 -->
<g id="edge13" class="edge">
<title>Node5&#45;&gt;Node14</title>
<path fill="none" stroke="#191970" d="M649.2315,-112.3258C655.5842,-97.3284 670.0369,-68.8582 692.5,-56 771.6852,-10.6734 1011.0565,-32.0315 1101.5,-20 1107.5207,-19.1991 1113.8806,-18.2059 1120.0691,-17.1589"/>
<polygon fill="#191970" stroke="#191970" points="1120.99,-20.5508 1130.2322,-15.3708 1119.777,-13.6566 1120.99,-20.5508"/>
</g>
<!-- Node15 -->
<g id="node15" class="node">
<title>Node15</title>
<g id="a_node15"><a xlink:title=" ">
<polygon fill="#ffffff" stroke="#bfbfbf" points="476,-56.5 476,-75.5 525,-75.5 525,-56.5 476,-56.5"/>
<text text-anchor="middle" x="500.5" y="-63.5" font-family="Helvetica,sans-Serif" font-size="10.00" fill="#000000">cassert</text>
</a>
</g>
</g>
<!-- Node5&#45;&gt;Node15 -->
<g id="edge14" class="edge">
<title>Node5&#45;&gt;Node15</title>
<path fill="none" stroke="#191970" d="M620.5736,-112.3733C596.8798,-103.2226 561.0489,-89.3844 534.6932,-79.2057"/>
<polygon fill="#191970" stroke="#191970" points="535.6906,-75.8389 525.1011,-75.5011 533.1686,-82.3689 535.6906,-75.8389"/>
</g>
<!-- Node16 -->
<g id="node16" class="node">
<title>Node16</title>
<g id="a_node16"><a xlink:href="../../d4/d86/acc_8hpp.html" target="_top" xlink:title="Interface to accelerators API.">
<polygon fill="#ffffff" stroke="#000000" points="387,-56.5 387,-75.5 458,-75.5 458,-56.5 387,-56.5"/>
<text text-anchor="middle" x="422.5" y="-63.5" font-family="Helvetica,sans-Serif" font-size="10.00" fill="#000000">gpu/acc.hpp</text>
</a>
</g>
</g>
<!-- Node5&#45;&gt;Node16 -->
<g id="edge15" class="edge">
<title>Node5&#45;&gt;Node16</title>
<path fill="none" stroke="#191970" d="M609.1749,-112.878C570.6373,-103.2004 509.6733,-87.8911 467.9711,-77.4187"/>
<polygon fill="#191970" stroke="#191970" points="468.6233,-73.9739 458.072,-74.9329 466.9183,-80.7631 468.6233,-73.9739"/>
</g>
<!-- Node16&#45;&gt;Node14 -->
<g id="edge27" class="edge">
<title>Node16&#45;&gt;Node14</title>
<path fill="none" stroke="#191970" d="M458.4278,-57.3211C461.1497,-56.8213 463.8626,-56.3718 466.5,-56 746.4076,-16.5394 820.7463,-52.9051 1101.5,-20 1107.5325,-19.293 1113.8984,-18.3485 1120.0895,-17.3215"/>
<polygon fill="#191970" stroke="#191970" points="1121.0069,-20.7143 1130.2537,-15.5426 1119.8,-13.8191 1121.0069,-20.7143"/>
</g>
<!-- Node17 -->
<g id="node17" class="node">
<title>Node17</title>
<g id="a_node17"><a xlink:title=" ">
<polygon fill="#ffffff" stroke="#bfbfbf" points="134,-.5 134,-19.5 219,-19.5 219,-.5 134,-.5"/>
<text text-anchor="middle" x="176.5" y="-7.5" font-family="Helvetica,sans-Serif" font-size="10.00" fill="#000000">cuda_runtime.h</text>
</a>
</g>
</g>
<!-- Node16&#45;&gt;Node17 -->
<g id="edge16" class="edge">
<title>Node16&#45;&gt;Node17</title>
<path fill="none" stroke="#191970" d="M386.9922,-57.9169C345.3783,-48.4438 276.0619,-32.6645 228.4147,-21.818"/>
<polygon fill="#191970" stroke="#191970" points="229.1214,-18.3894 218.5939,-19.5824 227.5676,-25.2148 229.1214,-18.3894"/>
</g>
<!-- Node18 -->
<g id="node18" class="node">
<title>Node18</title>
<g id="a_node18"><a xlink:title=" ">
<polygon fill="#ffffff" stroke="#bfbfbf" points="237,-.5 237,-19.5 284,-19.5 284,-.5 237,-.5"/>
<text text-anchor="middle" x="260.5" y="-7.5" font-family="Helvetica,sans-Serif" font-size="10.00" fill="#000000">cuda.h</text>
</a>
</g>
</g>
<!-- Node16&#45;&gt;Node18 -->
<g id="edge17" class="edge">
<title>Node16&#45;&gt;Node18</title>
<path fill="none" stroke="#191970" d="M394.6512,-56.3733C366.6105,-46.6802 323.3547,-31.7275 293.5828,-21.436"/>
<polygon fill="#191970" stroke="#191970" points="294.6394,-18.0981 284.0447,-18.1389 292.3524,-24.714 294.6394,-18.0981"/>
</g>
<!-- Node19 -->
<g id="node19" class="node">
<title>Node19</title>
<g id="a_node19"><a xlink:title=" ">
<polygon fill="#ffffff" stroke="#bfbfbf" points="302.5,-.5 302.5,-19.5 372.5,-19.5 372.5,-.5 302.5,-.5"/>
<text text-anchor="middle" x="337.5" y="-7.5" font-family="Helvetica,sans-Serif" font-size="10.00" fill="#000000">cublas_v2.h</text>
</a>
</g>
</g>
<!-- Node16&#45;&gt;Node19 -->
<g id="edge18" class="edge">
<title>Node16&#45;&gt;Node19</title>
<path fill="none" stroke="#191970" d="M407.6941,-56.2455C394.7744,-47.7337 375.8069,-35.2375 360.8448,-25.3801"/>
<polygon fill="#191970" stroke="#191970" points="362.4124,-22.2216 352.1362,-19.6427 358.5613,-28.067 362.4124,-22.2216"/>
</g>
<!-- Node20 -->
<g id="node20" class="node">
<title>Node20</title>
<g id="a_node20"><a xlink:title=" ">
<polygon fill="#ffffff" stroke="#bfbfbf" points="391,-.5 391,-19.5 454,-19.5 454,-.5 391,-.5"/>
<text text-anchor="middle" x="422.5" y="-7.5" font-family="Helvetica,sans-Serif" font-size="10.00" fill="#000000">cublasXt.h</text>
</a>
</g>
</g>
<!-- Node16&#45;&gt;Node20 -->
<g id="edge19" class="edge">
<title>Node16&#45;&gt;Node20</title>
<path fill="none" stroke="#191970" d="M422.5,-56.2455C422.5,-48.9382 422.5,-38.6944 422.5,-29.7046"/>
<polygon fill="#191970" stroke="#191970" points="426.0001,-29.6426 422.5,-19.6427 419.0001,-29.6427 426.0001,-29.6426"/>
</g>
<!-- Node21 -->
<g id="node21" class="node">
<title>Node21</title>
<g id="a_node21"><a xlink:title=" ">
<polygon fill="#ffffff" stroke="#bfbfbf" points="472.5,-.5 472.5,-19.5 574.5,-19.5 574.5,-.5 472.5,-.5"/>
<text text-anchor="middle" x="523.5" y="-7.5" font-family="Helvetica,sans-Serif" font-size="10.00" fill="#000000">cuda_profiler_api.h</text>
</a>
</g>
</g>
<!-- Node16&#45;&gt;Node21 -->
<g id="edge20" class="edge">
<title>Node16&#45;&gt;Node21</title>
<path fill="none" stroke="#191970" d="M440.0929,-56.2455C455.879,-47.4928 479.2639,-34.527 497.2587,-24.5496"/>
<polygon fill="#191970" stroke="#191970" points="499.0603,-27.5528 506.1087,-19.6427 495.6659,-21.4308 499.0603,-27.5528"/>
</g>
<!-- Node22 -->
<g id="node22" class="node">
<title>Node22</title>
<g id="a_node22"><a xlink:title=" ">
<polygon fill="#ffffff" stroke="#bfbfbf" points="592.5,-.5 592.5,-19.5 666.5,-19.5 666.5,-.5 592.5,-.5"/>
<text text-anchor="middle" x="629.5" y="-7.5" font-family="Helvetica,sans-Serif" font-size="10.00" fill="#000000">nvToolsExt.h</text>
</a>
</g>
</g>
<!-- Node16&#45;&gt;Node22 -->
<g id="edge21" class="edge">
<title>Node16&#45;&gt;Node22</title>
<path fill="none" stroke="#191970" d="M458.0846,-56.3733C493.1016,-46.9001 546.6881,-32.4032 584.6125,-22.1435"/>
<polygon fill="#191970" stroke="#191970" points="585.6408,-25.4912 594.3798,-19.5011 583.8127,-18.7341 585.6408,-25.4912"/>
</g>
<!-- Node23 -->
<g id="node23" class="node">
<title>Node23</title>
<g id="a_node23"><a xlink:title=" ">
<polygon fill="#ffffff" stroke="#bfbfbf" points="685,-.5 685,-19.5 760,-19.5 760,-.5 685,-.5"/>
<text text-anchor="middle" x="722.5" y="-7.5" font-family="Helvetica,sans-Serif" font-size="10.00" fill="#000000">cuComplex.h</text>
</a>
</g>
</g>
<!-- Node16&#45;&gt;Node23 -->
<g id="edge22" class="edge">
<title>Node16&#45;&gt;Node23</title>
<path fill="none" stroke="#191970" d="M458.007,-57.7608C460.8766,-57.1466 463.7344,-56.5521 466.5,-56 555.8642,-38.1615 581.2716,-37.8144 674.9207,-20.0468"/>
<polygon fill="#191970" stroke="#191970" points="675.6523,-23.4704 684.8162,-18.1531 674.3366,-16.5951 675.6523,-23.4704"/>
</g>
<!-- Node24 -->
<g id="node24" class="node">
<title>Node24</title>
<g id="a_node24"><a xlink:title=" ">
<polygon fill="#ffffff" stroke="#bfbfbf" points="778.5,-.5 778.5,-19.5 840.5,-19.5 840.5,-.5 778.5,-.5"/>
<text text-anchor="middle" x="809.5" y="-7.5" font-family="Helvetica,sans-Serif" font-size="10.00" fill="#000000">execinfo.h</text>
</a>
</g>
</g>
<!-- Node16&#45;&gt;Node24 -->
<g id="edge23" class="edge">
<title>Node16&#45;&gt;Node24</title>
<path fill="none" stroke="#191970" d="M458.4566,-57.5052C461.1719,-56.9627 463.8754,-56.4534 466.5,-56 596.5778,-33.5292 633.7548,-43.5586 768.3798,-19.8044"/>
<polygon fill="#191970" stroke="#191970" points="769.019,-23.2457 778.2438,-18.0348 767.7828,-16.3557 769.019,-23.2457"/>
</g>
<!-- Node25 -->
<g id="node25" class="node">
<title>Node25</title>
<g id="a_node25"><a xlink:title=" ">
<polygon fill="#ffffff" stroke="#bfbfbf" points="858.5,-.5 858.5,-19.5 910.5,-19.5 910.5,-.5 858.5,-.5"/>
<text text-anchor="middle" x="884.5" y="-7.5" font-family="Helvetica,sans-Serif" font-size="10.00" fill="#000000">unistd.h</text>
</a>
</g>
</g>
<!-- Node16&#45;&gt;Node25 -->
<g id="edge24" class="edge">
<title>Node16&#45;&gt;Node25</title>
<path fill="none" stroke="#191970" d="M458.4443,-57.4313C461.1624,-56.906 463.87,-56.4206 466.5,-56 632.1118,-29.5118 679.6746,-50.7759 848.2927,-19.9188"/>
<polygon fill="#191970" stroke="#191970" points="849.0622,-23.3357 858.2513,-18.0621 847.7792,-16.4543 849.0622,-23.3357"/>
</g>
<!-- Node26 -->
<g id="node26" class="node">
<title>Node26</title>
<g id="a_node26"><a xlink:title=" ">
<polygon fill="#ffffff" stroke="#bfbfbf" points="0,-.5 0,-19.5 51,-19.5 51,-.5 0,-.5"/>
<text text-anchor="middle" x="25.5" y="-7.5" font-family="Helvetica,sans-Serif" font-size="10.00" fill="#000000">signal.h</text>
</a>
</g>
</g>
<!-- Node16&#45;&gt;Node26 -->
<g id="edge25" class="edge">
<title>Node16&#45;&gt;Node26</title>
<path fill="none" stroke="#191970" d="M386.7054,-57.688C383.5999,-57.0755 380.4994,-56.5021 377.5,-56 240.7929,-33.1135 201.3494,-46.9173 61.1997,-19.8411"/>
<polygon fill="#191970" stroke="#191970" points="61.8647,-16.4049 51.3772,-17.909 60.5136,-23.2733 61.8647,-16.4049"/>
</g>
<!-- Node27 -->
<g id="node27" class="node">
<title>Node27</title>
<g id="a_node27"><a xlink:title=" ">
<polygon fill="#ffffff" stroke="#bfbfbf" points="938.5,-.5 938.5,-19.5 990.5,-19.5 990.5,-.5 938.5,-.5"/>
<text text-anchor="middle" x="964.5" y="-7.5" font-family="Helvetica,sans-Serif" font-size="10.00" fill="#000000">assert.h</text>
</a>
</g>
</g>
<!-- Node16&#45;&gt;Node27 -->
<g id="edge26" class="edge">
<title>Node16&#45;&gt;Node27</title>
<path fill="none" stroke="#191970" d="M458.4376,-57.3885C461.1573,-56.8731 463.867,-56.4017 466.5,-56 666.1581,-25.5407 719.7693,-49.9793 919.5,-20 922.3937,-19.5657 925.3788,-19.0514 928.37,-18.4889"/>
<polygon fill="#191970" stroke="#191970" points="929.3408,-21.8631 938.4405,-16.4368 927.943,-15.0041 929.3408,-21.8631"/>
</g>
<!-- Node28 -->
<g id="node28" class="node">
<title>Node28</title>
<g id="a_node28"><a xlink:title=" ">
<polygon fill="#ffffff" stroke="#bfbfbf" points="1048.5,-.5 1048.5,-19.5 1092.5,-19.5 1092.5,-.5 1048.5,-.5"/>
<text text-anchor="middle" x="1070.5" y="-7.5" font-family="Helvetica,sans-Serif" font-size="10.00" fill="#000000">vector</text>
</a>
</g>
</g>
<!-- Node16&#45;&gt;Node28 -->
<g id="edge28" class="edge">
<title>Node16&#45;&gt;Node28</title>
<path fill="none" stroke="#191970" d="M458.4324,-57.3533C461.1532,-56.846 463.8647,-56.3861 466.5,-56 701.4213,-21.5857 763.3464,-44.573 999.5,-20 1012.2362,-18.6747 1026.2008,-16.7999 1038.3503,-15.0311"/>
<polygon fill="#191970" stroke="#191970" points="1039.1086,-18.4568 1048.4833,-13.5205 1038.0765,-11.5333 1039.1086,-18.4568"/>
</g>
<!-- Node29 -->
<g id="node29" class="node">
<title>Node29</title>
<g id="a_node29"><a xlink:title=" ">
<polygon fill="#ffffff" stroke="#bfbfbf" points="69.5,-.5 69.5,-19.5 115.5,-19.5 115.5,-.5 69.5,-.5"/>
<text text-anchor="middle" x="92.5" y="-7.5" font-family="Helvetica,sans-Serif" font-size="10.00" fill="#000000">stdio.h</text>
</a>
</g>
</g>
<!-- Node16&#45;&gt;Node29 -->
<g id="edge29" class="edge">
<title>Node16&#45;&gt;Node29</title>
<path fill="none" stroke="#191970" d="M386.6893,-57.7801C383.5873,-57.1477 380.492,-56.5445 377.5,-56 268.9226,-36.2415 237.078,-44.5141 125.7416,-19.9887"/>
<polygon fill="#191970" stroke="#191970" points="126.3238,-16.5324 115.8003,-17.7592 124.7919,-23.3628 126.3238,-16.5324"/>
</g>
<!-- Node30&#45;&gt;Node14 -->
<g id="edge31" class="edge">
<title>Node30&#45;&gt;Node14</title>
<path fill="none" stroke="#191970" d="M1158.4434,-168.4862C1158.2853,-141.9293 1157.8367,-66.5651 1157.62,-30.1655"/>
<polygon fill="#191970" stroke="#191970" points="1161.1181,-29.8068 1157.5585,-19.8279 1154.1182,-29.8486 1161.1181,-29.8068"/>
</g>
<!-- Node31&#45;&gt;Node8 -->
<g id="edge39" class="edge">
<title>Node31&#45;&gt;Node8</title>
<path fill="none" stroke="#191970" d="M976.4831,-114.6858C938.9966,-106.9669 879.2355,-93.8089 819.312,-75.9857"/>
<polygon fill="#191970" stroke="#191970" points="820.2813,-72.6224 809.6966,-73.0853 818.2597,-79.3242 820.2813,-72.6224"/>
</g>
<!-- Node31&#45;&gt;Node12 -->
<g id="edge40" class="edge">
<title>Node31&#45;&gt;Node12</title>
<path fill="none" stroke="#191970" d="M986.5107,-112.3733C960.6301,-103.1419 921.3752,-89.1402 892.7711,-78.9375"/>
<polygon fill="#191970" stroke="#191970" points="893.7317,-75.5642 883.1371,-75.5011 891.38,-82.1573 893.7317,-75.5642"/>
</g>
<!-- Node31&#45;&gt;Node13 -->
<g id="edge37" class="edge">
<title>Node31&#45;&gt;Node13</title>
<path fill="none" stroke="#191970" d="M997.8232,-112.2455C984.0144,-103.6534 963.6807,-91.0014 947.7708,-81.1018"/>
<polygon fill="#191970" stroke="#191970" points="949.3368,-77.954 938.9972,-75.6427 945.6387,-83.8974 949.3368,-77.954"/>
</g>
<!-- Node31&#45;&gt;Node14 -->
<g id="edge35" class="edge">
<title>Node31&#45;&gt;Node14</title>
<path fill="none" stroke="#191970" d="M1038.0956,-112.4611C1056.894,-104.4508 1082.8349,-91.7905 1102.5,-76 1119.6726,-62.2109 1135.3328,-42.3717 1145.5123,-28.0489"/>
<polygon fill="#191970" stroke="#191970" points="1148.5756,-29.7718 1151.371,-19.5524 1142.8128,-25.7981 1148.5756,-29.7718"/>
</g>
<!-- Node31&#45;&gt;Node27 -->
<g id="edge34" class="edge">
<title>Node31&#45;&gt;Node27</title>
<path fill="none" stroke="#191970" d="M1033.0965,-112.4684C1055.4326,-100.2656 1087.077,-78.0528 1072.5,-56 1056.5978,-31.9423 1025.278,-20.4259 1000.4434,-14.9368"/>
<polygon fill="#191970" stroke="#191970" points="1001.0936,-11.4977 990.605,-12.9942 999.7376,-18.3651 1001.0936,-11.4977"/>
</g>
<!-- Node31&#45;&gt;Node28 -->
<g id="edge36" class="edge">
<title>Node31&#45;&gt;Node28</title>
<path fill="none" stroke="#191970" d="M1041.9381,-112.3621C1058.4279,-105.1374 1077.799,-93.4529 1087.5,-76 1095.7339,-61.1866 1089.432,-42.2883 1082.2826,-28.5136"/>
<polygon fill="#191970" stroke="#191970" points="1085.1352,-26.4524 1077.1226,-19.5206 1079.0636,-29.9361 1085.1352,-26.4524"/>
</g>
<!-- Node32 -->
<g id="node32" class="node">
<title>Node32</title>
<g id="a_node32"><a xlink:title=" ">
<polygon fill="#ffffff" stroke="#bfbfbf" points="961,-56.5 961,-75.5 1006,-75.5 1006,-56.5 961,-56.5"/>
<text text-anchor="middle" x="983.5" y="-63.5" font-family="Helvetica,sans-Serif" font-size="10.00" fill="#000000">cstdlib</text>
</a>
</g>
</g>
<!-- Node31&#45;&gt;Node32 -->
<g id="edge33" class="edge">
<title>Node31&#45;&gt;Node32</title>
<path fill="none" stroke="#191970" d="M1008.2744,-112.2455C1004.1877,-104.617 998.3865,-93.7881 993.425,-84.5267"/>
<polygon fill="#191970" stroke="#191970" points="996.4732,-82.8047 988.6657,-75.6427 990.3028,-86.1103 996.4732,-82.8047"/>
</g>
<!-- Node33 -->
<g id="node33" class="node">
<title>Node33</title>
<g id="a_node33"><a xlink:title=" ">
<polygon fill="#ffffff" stroke="#bfbfbf" points="1024,-56.5 1024,-75.5 1063,-75.5 1063,-56.5 1024,-56.5"/>
<text text-anchor="middle" x="1043.5" y="-63.5" font-family="Helvetica,sans-Serif" font-size="10.00" fill="#000000">limits</text>
</a>
</g>
</g>
<!-- Node31&#45;&gt;Node33 -->
<g id="edge38" class="edge">
<title>Node31&#45;&gt;Node33</title>
<path fill="none" stroke="#191970" d="M1018.7256,-112.2455C1022.8123,-104.617 1028.6135,-93.7881 1033.575,-84.5267"/>
<polygon fill="#191970" stroke="#191970" points="1036.6972,-86.1103 1038.3343,-75.6427 1030.5268,-82.8047 1036.6972,-86.1103"/>
</g>
</g>
</svg>
        <g id="navigator" transform="translate(0 0)" fill="#404254">
                <rect fill="#f2f5e9" fill-opacity="0.5" stroke="#606060" stroke-width=".5" x="0" y="0" width="60" height="60"/>
                <use id="zoomplus" xlink:href="#zoomPlus" x="17" y="9" onmousedown="handleZoom(evt,'in')"/>
                <use id="zoomminus" xlink:href="#zoomMin" x="42" y="9" onmousedown="handleZoom(evt,'out')"/>
                <use id="reset" xlink:href="#resetDef" x="30" y="36" onmousedown="handleReset()"/>
                <g id="arrowUp" xlink:href="#dirArrow" transform="translate(30 24)" onmousedown="handlePan(0,-1)">
                  <use xlink:href="#rim" fill="#404040">
                        <set attributeName="fill" to="#808080" begin="arrowUp.mouseover" end="arrowUp.mouseout"/>
                  </use>
                  <path fill="none" stroke="white" stroke-width="1.5" d="M0,-3.0v7 M-2.5,-0.5L0,-3.0L2.5,-0.5"/>
                </g>
                <g id="arrowRight" xlink:href="#dirArrow" transform="rotate(90) translate(36 -43)" onmousedown="handlePan(1,0)">
                  <use xlink:href="#rim" fill="#404040">
                        <set attributeName="fill" to="#808080" begin="arrowRight.mouseover" end="arrowRight.mouseout"/>
                  </use>
                  <path fill="none" stroke="white" stroke-width="1.5" d="M0,-3.0v7 M-2.5,-0.5L0,-3.0L2.5,-0.5"/>
                </g>
                <g id="arrowDown" xlink:href="#dirArrow" transform="rotate(180) translate(-30 -48)" onmousedown="handlePan(0,1)">
                  <use xlink:href="#rim" fill="#404040">
                        <set attributeName="fill" to="#808080" begin="arrowDown.mouseover" end="arrowDown.mouseout"/>
                  </use>
                  <path fill="none" stroke="white" stroke-width="1.5" d="M0,-3.0v7 M-2.5,-0.5L0,-3.0L2.5,-0.5"/>
                </g>
                <g id="arrowLeft" xlink:href="#dirArrow" transform="rotate(270) translate(-36 17)" onmousedown="handlePan(-1,0)">
                  <use xlink:href="#rim" fill="#404040">
                        <set attributeName="fill" to="#808080" begin="arrowLeft.mouseover" end="arrowLeft.mouseout"/>
                  </use>
                  <path fill="none" stroke="white" stroke-width="1.5" d="M0,-3.0v7 M-2.5,-0.5L0,-3.0L2.5,-0.5"/>
                </g>
        </g>
        <svg viewBox="0 0 15 15" width="100%" height="30px" preserveAspectRatio="xMaxYMin meet">
         <g id="arrow_out" transform="scale(0.3 0.3)">
          <a xlink:href="radial__solver_8hpp__incl_org.svg" target="_base">
           <rect id="button" ry="5" rx="5" y="6" x="6" height="38" width="38"
                fill="#f2f5e9" fill-opacity="0.5" stroke="#606060" stroke-width="1.0"/>
           <path id="arrow"
             d="M 11.500037,31.436501 C 11.940474,20.09759 22.043105,11.32322 32.158766,21.979434 L 37.068811,17.246167 C 37.068811,17.246167 37.088388,32 37.088388,32 L 22.160133,31.978069 C 22.160133,31.978069 26.997745,27.140456 26.997745,27.140456 C 18.528582,18.264221 13.291696,25.230495 11.500037,31.436501 z"
             style="fill:#404040;"/>
          </a>
         </g>
        </svg>
</svg>
