<?xml version="1.0" encoding="UTF-8" standalone="no"?>
<!DOCTYPE svg PUBLIC "-//W3C//DTD SVG 1.1//EN"
 "http://www.w3.org/Graphics/SVG/1.1/DTD/svg11.dtd">
<!-- Generated by graphviz version 2.40.1 (20161225.0304)
 -->
<!-- Title: radial_solver.hpp Pages: 1 -->
<svg width="399pt" height="140pt"
 viewBox="0.00 0.00 398.50 140.00" xmlns="http://www.w3.org/2000/svg" xmlns:xlink="http://www.w3.org/1999/xlink">
<g id="graph0" class="graph" transform="scale(1 1) rotate(0) translate(4 136)">
<title>radial_solver.hpp</title>
<polygon fill="#ffffff" stroke="transparent" points="-4,4 -4,-136 394.5,-136 394.5,4 -4,4"/>
<!-- Node0 -->
<g id="node1" class="node">
<title>Node0</title>
<polygon fill="#bfbfbf" stroke="#000000" points="81.5,-112.5 81.5,-131.5 174.5,-131.5 174.5,-112.5 81.5,-112.5"/>
<text text-anchor="middle" x="128" y="-119.5" font-family="Helvetica,sans-Serif" font-size="10.00" fill="#000000">radial_solver.hpp</text>
</g>
<!-- Node1 -->
<g id="node2" class="node">
<title>Node1</title>
<polygon fill="#ffffff" stroke="#bfbfbf" points="0,-56.5 0,-75.5 38,-75.5 38,-56.5 0,-56.5"/>
<text text-anchor="middle" x="19" y="-63.5" font-family="Helvetica,sans-Serif" font-size="10.00" fill="#000000">tuple</text>
</g>
<!-- Node0&#45;&gt;Node1 -->
<g id="edge1" class="edge">
<title>Node0&#45;&gt;Node1</title>
<path fill="none" stroke="#191970" d="M109.0136,-112.2455C91.8208,-103.4125 66.2762,-90.2887 46.7868,-80.2758"/>
<polygon fill="#191970" stroke="#191970" points="48.263,-77.0993 37.7688,-75.6427 45.0641,-83.3257 48.263,-77.0993"/>
</g>
<!-- Node2 -->
<g id="node3" class="node">
<title>Node2</title>
<g id="a_node3"><a xlink:href="../../d9/d05/spline_8hpp.html" target="_top" xlink:title="Contains definition and partial implementaiton of sirius::Spline class. ">
<polygon fill="#ffffff" stroke="#000000" points="56,-56.5 56,-75.5 118,-75.5 118,-56.5 56,-56.5"/>
<text text-anchor="middle" x="87" y="-63.5" font-family="Helvetica,sans-Serif" font-size="10.00" fill="#000000">spline.hpp</text>
</a>
</g>
</g>
<!-- Node0&#45;&gt;Node2 -->
<g id="edge2" class="edge">
<title>Node0&#45;&gt;Node2</title>
<path fill="none" stroke="#191970" d="M120.8583,-112.2455C115.1556,-104.4564 107.01,-93.3308 100.1375,-83.9439"/>
<polygon fill="#191970" stroke="#191970" points="102.7913,-81.6437 94.0598,-75.6427 97.1432,-85.7789 102.7913,-81.6437"/>
</g>
<!-- Node4 -->
<g id="node5" class="node">
<title>Node4</title>
<g id="a_node5"><a xlink:href="../../d2/d6f/constants_8h.html" target="_top" xlink:title="Various constants. ">
<polygon fill="#ffffff" stroke="#000000" points="136,-56.5 136,-75.5 204,-75.5 204,-56.5 136,-56.5"/>
<text text-anchor="middle" x="170" y="-63.5" font-family="Helvetica,sans-Serif" font-size="10.00" fill="#000000">constants.h</text>
</a>
</g>
</g>
<!-- Node0&#45;&gt;Node4 -->
<g id="edge4" class="edge">
<title>Node0&#45;&gt;Node4</title>
<path fill="none" stroke="#191970" d="M135.3158,-112.2455C141.2179,-104.3761 149.6742,-93.101 156.7594,-83.6542"/>
<polygon fill="#191970" stroke="#191970" points="159.568,-85.7427 162.768,-75.6427 153.9679,-81.5427 159.568,-85.7427"/>
</g>
<!-- Node6 -->
<g id="node7" class="node">
<title>Node6</title>
<g id="a_node7"><a xlink:href="../../de/df7/typedefs_8hpp.html" target="_top" xlink:title="Contains typedefs, enums and simple descriptors. ">
<polygon fill="#ffffff" stroke="#000000" points="222,-56.5 222,-75.5 296,-75.5 296,-56.5 222,-56.5"/>
<text text-anchor="middle" x="259" y="-63.5" font-family="Helvetica,sans-Serif" font-size="10.00" fill="#000000">typedefs.hpp</text>
</a>
</g>
</g>
<!-- Node0&#45;&gt;Node6 -->
<g id="edge6" class="edge">
<title>Node0&#45;&gt;Node6</title>
<path fill="none" stroke="#191970" d="M150.5197,-112.3733C171.7372,-103.3032 203.7276,-89.6279 227.4769,-79.4755"/>
<polygon fill="#191970" stroke="#191970" points="228.9548,-82.6502 236.7742,-75.5011 226.2033,-76.2136 228.9548,-82.6502"/>
</g>
<!-- Node3 -->
<g id="node4" class="node">
<title>Node3</title>
<g id="a_node4"><a xlink:href="../../d2/d4f/radial__grid_8hpp.html" target="_top" xlink:title="Contains declaraion and partial implementation of sirius::Radial_grid class. ">
<polygon fill="#ffffff" stroke="#000000" points="43.5,-.5 43.5,-19.5 126.5,-19.5 126.5,-.5 43.5,-.5"/>
<text text-anchor="middle" x="85" y="-7.5" font-family="Helvetica,sans-Serif" font-size="10.00" fill="#000000">radial_grid.hpp</text>
</a>
</g>
</g>
<!-- Node2&#45;&gt;Node3 -->
<g id="edge3" class="edge">
<title>Node2&#45;&gt;Node3</title>
<path fill="none" stroke="#191970" d="M86.6516,-56.2455C86.3907,-48.9382 86.0248,-38.6944 85.7037,-29.7046"/>
<polygon fill="#191970" stroke="#191970" points="89.1992,-29.5113 85.3444,-19.6427 82.2036,-29.7613 89.1992,-29.5113"/>
</g>
<!-- Node5 -->
<g id="node6" class="node">
<title>Node5</title>
<polygon fill="#ffffff" stroke="#bfbfbf" points="145,-.5 145,-19.5 199,-19.5 199,-.5 145,-.5"/>
<text text-anchor="middle" x="172" y="-7.5" font-family="Helvetica,sans-Serif" font-size="10.00" fill="#000000">complex</text>
</g>
<!-- Node4&#45;&gt;Node5 -->
<g id="edge5" class="edge">
<title>Node4&#45;&gt;Node5</title>
<path fill="none" stroke="#191970" d="M170.3484,-56.2455C170.6093,-48.9382 170.9752,-38.6944 171.2963,-29.7046"/>
<polygon fill="#191970" stroke="#191970" points="174.7964,-29.7613 171.6556,-19.6427 167.8008,-29.5113 174.7964,-29.7613"/>
</g>
<!-- Node6&#45;&gt;Node5 -->
<g id="edge9" class="edge">
<title>Node6&#45;&gt;Node5</title>
<path fill="none" stroke="#191970" d="M243.8458,-56.2455C230.4973,-47.6534 210.8414,-35.0014 195.4617,-25.1018"/>
<polygon fill="#191970" stroke="#191970" points="197.2836,-22.1121 186.9806,-19.6427 193.4949,-27.9982 197.2836,-22.1121"/>
</g>
<!-- Node7 -->
<g id="node8" class="node">
<title>Node7</title>
<polygon fill="#ffffff" stroke="#bfbfbf" points="217.5,-.5 217.5,-19.5 262.5,-19.5 262.5,-.5 217.5,-.5"/>
<text text-anchor="middle" x="240" y="-7.5" font-family="Helvetica,sans-Serif" font-size="10.00" fill="#000000">cstdlib</text>
</g>
<!-- Node6&#45;&gt;Node7 -->
<g id="edge7" class="edge">
<title>Node6&#45;&gt;Node7</title>
<path fill="none" stroke="#191970" d="M255.6905,-56.2455C253.1567,-48.7776 249.5823,-38.2427 246.485,-29.1137"/>
<polygon fill="#191970" stroke="#191970" points="249.7991,-27.9879 243.2716,-19.6427 243.1702,-30.237 249.7991,-27.9879"/>
</g>
<!-- Node8 -->
<g id="node9" class="node">
<title>Node8</title>
<polygon fill="#ffffff" stroke="#bfbfbf" points="281,-.5 281,-19.5 333,-19.5 333,-.5 281,-.5"/>
<text text-anchor="middle" x="307" y="-7.5" font-family="Helvetica,sans-Serif" font-size="10.00" fill="#000000">assert.h</text>
</g>
<!-- Node6&#45;&gt;Node8 -->
<g id="edge8" class="edge">
<title>Node6&#45;&gt;Node8</title>
<path fill="none" stroke="#191970" d="M267.361,-56.2455C274.175,-48.2958 283.9681,-36.8706 292.1152,-27.3656"/>
<polygon fill="#191970" stroke="#191970" points="294.8843,-29.513 298.7349,-19.6427 289.5695,-24.9575 294.8843,-29.513"/>
</g>
<!-- Node9 -->
<g id="node10" class="node">
<title>Node9</title>
<polygon fill="#ffffff" stroke="#bfbfbf" points="351.5,-.5 351.5,-19.5 390.5,-19.5 390.5,-.5 351.5,-.5"/>
<text text-anchor="middle" x="371" y="-7.5" font-family="Helvetica,sans-Serif" font-size="10.00" fill="#000000">limits</text>
</g>
<!-- Node6&#45;&gt;Node9 -->
<g id="edge10" class="edge">
<title>Node6&#45;&gt;Node9</title>
<path fill="none" stroke="#191970" d="M278.2535,-56.3733C296.0712,-47.4644 322.7747,-34.1127 342.9594,-24.0203"/>
<polygon fill="#191970" stroke="#191970" points="344.6187,-27.1038 351.9978,-19.5011 341.4882,-20.8428 344.6187,-27.1038"/>
</g>
</g>
</svg>
