<?xml version="1.0" encoding="UTF-8" standalone="no"?>
<!DOCTYPE svg PUBLIC "-//W3C//DTD SVG 1.1//EN"
 "http://www.w3.org/Graphics/SVG/1.1/DTD/svg11.dtd">
<!-- Generated by graphviz version 2.40.1 (20161225.0304)
 -->
<!-- Title: radial_solver.hpp Pages: 1 -->
<svg width="1301pt" height="308pt"
 viewBox="0.00 0.00 1300.50 308.00" xmlns="http://www.w3.org/2000/svg" xmlns:xlink="http://www.w3.org/1999/xlink">
<g id="graph0" class="graph" transform="scale(1 1) rotate(0) translate(4 304)">
<title>radial_solver.hpp</title>
<polygon fill="#ffffff" stroke="transparent" points="-4,4 -4,-304 1296.5,-304 1296.5,4 -4,4"/>
<!-- Node0 -->
<g id="node1" class="node">
<title>Node0</title>
<g id="a_node1"><a xlink:title="Contains declaration and partial implementation of sirius::Radial_solver class.">
<polygon fill="#bfbfbf" stroke="#000000" points="1086,-280.5 1086,-299.5 1179,-299.5 1179,-280.5 1086,-280.5"/>
<text text-anchor="middle" x="1132.5" y="-287.5" font-family="Helvetica,sans-Serif" font-size="10.00" fill="#000000">radial_solver.hpp</text>
</a>
</g>
</g>
<!-- Node1 -->
<g id="node2" class="node">
<title>Node1</title>
<g id="a_node2"><a xlink:title=" ">
<polygon fill="#ffffff" stroke="#bfbfbf" points="1016.5,-224.5 1016.5,-243.5 1054.5,-243.5 1054.5,-224.5 1016.5,-224.5"/>
<text text-anchor="middle" x="1035.5" y="-231.5" font-family="Helvetica,sans-Serif" font-size="10.00" fill="#000000">tuple</text>
</a>
</g>
</g>
<!-- Node0&#45;&gt;Node1 -->
<g id="edge1" class="edge">
<title>Node0&#45;&gt;Node1</title>
<path fill="none" stroke="#191970" d="M1115.6039,-280.2455C1100.582,-271.5731 1078.3957,-258.7645 1061.179,-248.825"/>
<polygon fill="#191970" stroke="#191970" points="1062.6128,-245.6114 1052.2025,-243.6427 1059.1129,-251.6737 1062.6128,-245.6114"/>
</g>
<!-- Node2 -->
<g id="node3" class="node">
<title>Node2</title>
<g id="a_node3"><a xlink:href="../../d9/d05/spline_8hpp.html" target="_top" xlink:title="Contains definition and partial implementaiton of sirius::Spline class.">
<polygon fill="#ffffff" stroke="#000000" points="1072.5,-224.5 1072.5,-243.5 1134.5,-243.5 1134.5,-224.5 1072.5,-224.5"/>
<text text-anchor="middle" x="1103.5" y="-231.5" font-family="Helvetica,sans-Serif" font-size="10.00" fill="#000000">spline.hpp</text>
</a>
</g>
</g>
<!-- Node0&#45;&gt;Node2 -->
<g id="edge2" class="edge">
<title>Node0&#45;&gt;Node2</title>
<path fill="none" stroke="#191970" d="M1127.4486,-280.2455C1123.4981,-272.617 1117.8903,-261.7881 1113.0942,-252.5267"/>
<polygon fill="#191970" stroke="#191970" points="1116.2001,-250.9131 1108.4935,-243.6427 1109.9841,-254.1321 1116.2001,-250.9131"/>
</g>
<!-- Node29 -->
<g id="node30" class="node">
<title>Node29</title>
<g id="a_node30"><a xlink:href="../../d3/dad/constants_8hpp.html" target="_top" xlink:title="Various constants.">
<polygon fill="#ffffff" stroke="#000000" points="1210,-168.5 1210,-187.5 1289,-187.5 1289,-168.5 1210,-168.5"/>
<text text-anchor="middle" x="1249.5" y="-175.5" font-family="Helvetica,sans-Serif" font-size="10.00" fill="#000000">constants.hpp</text>
</a>
</g>
</g>
<!-- Node0&#45;&gt;Node29 -->
<g id="edge30" class="edge">
<title>Node0&#45;&gt;Node29</title>
<path fill="none" stroke="#191970" d="M1142.4754,-280.4509C1162.4213,-261.3574 1207.4325,-218.2697 1232.2568,-194.5063"/>
<polygon fill="#191970" stroke="#191970" points="1234.7464,-196.9683 1239.5499,-187.5249 1229.9059,-191.9116 1234.7464,-196.9683"/>
</g>
<!-- Node30 -->
<g id="node31" class="node">
<title>Node30</title>
<g id="a_node31"><a xlink:href="../../de/df7/typedefs_8hpp.html" target="_top" xlink:title="Contains typedefs, enums and simple descriptors.">
<polygon fill="#ffffff" stroke="#000000" points="1125.5,-56.5 1125.5,-75.5 1199.5,-75.5 1199.5,-56.5 1125.5,-56.5"/>
<text text-anchor="middle" x="1162.5" y="-63.5" font-family="Helvetica,sans-Serif" font-size="10.00" fill="#000000">typedefs.hpp</text>
</a>
</g>
</g>
<!-- Node0&#45;&gt;Node30 -->
<g id="edge32" class="edge">
<title>Node0&#45;&gt;Node30</title>
<path fill="none" stroke="#191970" d="M1135.229,-280.2052C1137.717,-270.9439 1141.3261,-256.6238 1143.5,-244 1153.3132,-187.0136 1158.8985,-118.8353 1161.2179,-85.8367"/>
<polygon fill="#191970" stroke="#191970" points="1164.72,-85.9215 1161.9036,-75.7078 1157.736,-85.4486 1164.72,-85.9215"/>
</g>
<!-- Node3 -->
<g id="node4" class="node">
<title>Node3</title>
<g id="a_node4"><a xlink:href="../../d2/d4f/radial__grid_8hpp.html" target="_top" xlink:title="Contains declaraion and partial implementation of sirius::Radial_grid class.">
<polygon fill="#ffffff" stroke="#000000" points="911,-168.5 911,-187.5 994,-187.5 994,-168.5 911,-168.5"/>
<text text-anchor="middle" x="952.5" y="-175.5" font-family="Helvetica,sans-Serif" font-size="10.00" fill="#000000">radial_grid.hpp</text>
</a>
</g>
</g>
<!-- Node2&#45;&gt;Node3 -->
<g id="edge3" class="edge">
<title>Node2&#45;&gt;Node3</title>
<path fill="none" stroke="#191970" d="M1077.5422,-224.3733C1052.7593,-215.1822 1015.2254,-201.2624 987.746,-191.0713"/>
<polygon fill="#191970" stroke="#191970" points="988.7121,-187.6968 978.1191,-187.5011 986.2781,-194.26 988.7121,-187.6968"/>
</g>
<!-- Node4 -->
<g id="node5" class="node">
<title>Node4</title>
<g id="a_node5"><a xlink:href="../../da/d3e/memory_8hpp.html" target="_top" xlink:title="Memory management functions and classes.">
<polygon fill="#ffffff" stroke="#000000" points="807.5,-112.5 807.5,-131.5 879.5,-131.5 879.5,-112.5 807.5,-112.5"/>
<text text-anchor="middle" x="843.5" y="-119.5" font-family="Helvetica,sans-Serif" font-size="10.00" fill="#000000">memory.hpp</text>
</a>
</g>
</g>
<!-- Node3&#45;&gt;Node4 -->
<g id="edge4" class="edge">
<title>Node3&#45;&gt;Node4</title>
<path fill="none" stroke="#191970" d="M933.5136,-168.2455C916.3208,-159.4125 890.7762,-146.2887 871.2868,-136.2758"/>
<polygon fill="#191970" stroke="#191970" points="872.763,-133.0993 862.2688,-131.6427 869.5641,-139.3257 872.763,-133.0993"/>
</g>
<!-- Node5 -->
<g id="node6" class="node">
<title>Node5</title>
<g id="a_node6"><a xlink:title=" ">
<polygon fill="#ffffff" stroke="#bfbfbf" points="737,-56.5 737,-75.5 766,-75.5 766,-56.5 737,-56.5"/>
<text text-anchor="middle" x="751.5" y="-63.5" font-family="Helvetica,sans-Serif" font-size="10.00" fill="#000000">list</text>
</a>
</g>
</g>
<!-- Node4&#45;&gt;Node5 -->
<g id="edge5" class="edge">
<title>Node4&#45;&gt;Node5</title>
<path fill="none" stroke="#191970" d="M827.4748,-112.2455C813.0149,-103.4439 791.5558,-90.3818 775.1283,-80.3825"/>
<polygon fill="#191970" stroke="#191970" points="776.4903,-77.1141 766.1285,-74.9043 772.8507,-83.0935 776.4903,-77.1141"/>
</g>
<!-- Node6 -->
<g id="node7" class="node">
<title>Node6</title>
<g id="a_node7"><a xlink:title=" ">
<polygon fill="#ffffff" stroke="#bfbfbf" points="784,-56.5 784,-75.5 839,-75.5 839,-56.5 784,-56.5"/>
<text text-anchor="middle" x="811.5" y="-63.5" font-family="Helvetica,sans-Serif" font-size="10.00" fill="#000000">iostream</text>
</a>
</g>
</g>
<!-- Node4&#45;&gt;Node6 -->
<g id="edge6" class="edge">
<title>Node4&#45;&gt;Node6</title>
<path fill="none" stroke="#191970" d="M837.926,-112.2455C833.5669,-104.617 827.3789,-93.7881 822.0867,-84.5267"/>
<polygon fill="#191970" stroke="#191970" points="825.0104,-82.5886 817.0101,-75.6427 818.9327,-86.0616 825.0104,-82.5886"/>
</g>
<!-- Node7 -->
<g id="node8" class="node">
<title>Node7</title>
<g id="a_node8"><a xlink:title=" ">
<polygon fill="#ffffff" stroke="#bfbfbf" points="857.5,-56.5 857.5,-75.5 893.5,-75.5 893.5,-56.5 857.5,-56.5"/>
<text text-anchor="middle" x="875.5" y="-63.5" font-family="Helvetica,sans-Serif" font-size="10.00" fill="#000000">map</text>
</a>
</g>
</g>
<!-- Node4&#45;&gt;Node7 -->
<g id="edge7" class="edge">
<title>Node4&#45;&gt;Node7</title>
<path fill="none" stroke="#191970" d="M849.074,-112.2455C853.4331,-104.617 859.6211,-93.7881 864.9133,-84.5267"/>
<polygon fill="#191970" stroke="#191970" points="868.0673,-86.0616 869.9899,-75.6427 861.9896,-82.5886 868.0673,-86.0616"/>
</g>
<!-- Node8 -->
<g id="node9" class="node">
<title>Node8</title>
<g id="a_node9"><a xlink:title=" ">
<polygon fill="#ffffff" stroke="#bfbfbf" points="912,-56.5 912,-75.5 965,-75.5 965,-56.5 912,-56.5"/>
<text text-anchor="middle" x="938.5" y="-63.5" font-family="Helvetica,sans-Serif" font-size="10.00" fill="#000000">memory</text>
</a>
</g>
</g>
<!-- Node4&#45;&gt;Node8 -->
<g id="edge8" class="edge">
<title>Node4&#45;&gt;Node8</title>
<path fill="none" stroke="#191970" d="M860.0477,-112.2455C874.7599,-103.5731 896.4888,-90.7645 913.3505,-80.825"/>
<polygon fill="#191970" stroke="#191970" points="915.3046,-83.736 922.1419,-75.6427 911.7498,-77.7057 915.3046,-83.736"/>
</g>
<!-- Node9 -->
<g id="node10" class="node">
<title>Node9</title>
<g id="a_node10"><a xlink:title=" ">
<polygon fill="#ffffff" stroke="#bfbfbf" points="983.5,-56.5 983.5,-75.5 1029.5,-75.5 1029.5,-56.5 983.5,-56.5"/>
<text text-anchor="middle" x="1006.5" y="-63.5" font-family="Helvetica,sans-Serif" font-size="10.00" fill="#000000">cstring</text>
</a>
</g>
</g>
<!-- Node4&#45;&gt;Node9 -->
<g id="edge9" class="edge">
<title>Node4&#45;&gt;Node9</title>
<path fill="none" stroke="#191970" d="M871.5207,-112.3733C899.898,-102.624 943.7625,-87.554 973.7325,-77.2575"/>
<polygon fill="#191970" stroke="#191970" points="975.001,-80.5226 983.3212,-73.9633 972.7265,-73.9024 975.001,-80.5226"/>
</g>
<!-- Node10 -->
<g id="node11" class="node">
<title>Node10</title>
<g id="a_node11"><a xlink:title=" ">
<polygon fill="#ffffff" stroke="#bfbfbf" points="1048,-56.5 1048,-75.5 1107,-75.5 1107,-56.5 1048,-56.5"/>
<text text-anchor="middle" x="1077.5" y="-63.5" font-family="Helvetica,sans-Serif" font-size="10.00" fill="#000000">functional</text>
</a>
</g>
</g>
<!-- Node4&#45;&gt;Node10 -->
<g id="edge10" class="edge">
<title>Node4&#45;&gt;Node10</title>
<path fill="none" stroke="#191970" d="M879.8492,-113.6466C917.0613,-105.0459 976.8189,-91.0994 1037.8942,-76.116"/>
<polygon fill="#191970" stroke="#191970" points="1038.8298,-79.4903 1047.7044,-73.7031 1037.1579,-72.6929 1038.8298,-79.4903"/>
</g>
<!-- Node11 -->
<g id="node12" class="node">
<title>Node11</title>
<g id="a_node12"><a xlink:title=" ">
<polygon fill="#ffffff" stroke="#bfbfbf" points="461.5,-56.5 461.5,-75.5 519.5,-75.5 519.5,-56.5 461.5,-56.5"/>
<text text-anchor="middle" x="490.5" y="-63.5" font-family="Helvetica,sans-Serif" font-size="10.00" fill="#000000">algorithm</text>
</a>
</g>
</g>
<!-- Node4&#45;&gt;Node11 -->
<g id="edge11" class="edge">
<title>Node4&#45;&gt;Node11</title>
<path fill="none" stroke="#191970" d="M807.369,-118.0621C750.3534,-111.5578 635.8861,-97.3258 529.7916,-76.09"/>
<polygon fill="#191970" stroke="#191970" points="530.3779,-72.6377 519.8818,-74.0807 528.9868,-79.4981 530.3779,-72.6377"/>
</g>
<!-- Node12 -->
<g id="node13" class="node">
<title>Node12</title>
<g id="a_node13"><a xlink:title=" ">
<polygon fill="#ffffff" stroke="#bfbfbf" points="1061,-.5 1061,-19.5 1100,-19.5 1100,-.5 1061,-.5"/>
<text text-anchor="middle" x="1080.5" y="-7.5" font-family="Helvetica,sans-Serif" font-size="10.00" fill="#000000">array</text>
</a>
</g>
</g>
<!-- Node4&#45;&gt;Node12 -->
<g id="edge12" class="edge">
<title>Node4&#45;&gt;Node12</title>
<path fill="none" stroke="#191970" d="M807.4728,-120.7121C742.5647,-117.1818 616.6288,-104.0961 660.5,-56 717.3507,6.3255 950.0081,-35.3682 1050.8045,-19.3841"/>
<polygon fill="#191970" stroke="#191970" points="1051.5269,-22.8097 1060.7106,-17.5266 1050.2368,-15.9296 1051.5269,-22.8097"/>
</g>
<!-- Node13 -->
<g id="node14" class="node">
<title>Node13</title>
<g id="a_node14"><a xlink:title=" ">
<polygon fill="#ffffff" stroke="#bfbfbf" points="1238.5,-.5 1238.5,-19.5 1292.5,-19.5 1292.5,-.5 1238.5,-.5"/>
<text text-anchor="middle" x="1265.5" y="-7.5" font-family="Helvetica,sans-Serif" font-size="10.00" fill="#000000">complex</text>
</a>
</g>
</g>
<!-- Node4&#45;&gt;Node13 -->
<g id="edge13" class="edge">
<title>Node4&#45;&gt;Node13</title>
<path fill="none" stroke="#191970" d="M879.5697,-120.7154C960.1355,-117.3291 1152.0626,-106.2411 1208.5,-76 1228.8344,-65.1041 1245.1561,-43.7965 1255.0379,-28.3318"/>
<polygon fill="#191970" stroke="#191970" points="1258.1393,-29.9676 1260.3368,-19.6032 1252.1555,-26.3351 1258.1393,-29.9676"/>
</g>
<!-- Node14 -->
<g id="node15" class="node">
<title>Node14</title>
<g id="a_node15"><a xlink:title=" ">
<polygon fill="#ffffff" stroke="#bfbfbf" points="670,-56.5 670,-75.5 719,-75.5 719,-56.5 670,-56.5"/>
<text text-anchor="middle" x="694.5" y="-63.5" font-family="Helvetica,sans-Serif" font-size="10.00" fill="#000000">cassert</text>
</a>
</g>
</g>
<!-- Node4&#45;&gt;Node14 -->
<g id="edge14" class="edge">
<title>Node4&#45;&gt;Node14</title>
<path fill="none" stroke="#191970" d="M817.886,-112.3733C793.2831,-103.1265 755.9452,-89.0935 728.7872,-78.8865"/>
<polygon fill="#191970" stroke="#191970" points="729.8767,-75.557 719.2847,-75.315 727.414,-82.1095 729.8767,-75.557"/>
</g>
<!-- Node15 -->
<g id="node16" class="node">
<title>Node15</title>
<g id="a_node16"><a xlink:href="../../d4/d86/acc_8hpp.html" target="_top" xlink:title="Interface to accelerators API.">
<polygon fill="#ffffff" stroke="#000000" points="537.5,-56.5 537.5,-75.5 613.5,-75.5 613.5,-56.5 537.5,-56.5"/>
<text text-anchor="middle" x="575.5" y="-63.5" font-family="Helvetica,sans-Serif" font-size="10.00" fill="#000000">GPU/acc.hpp</text>
</a>
</g>
</g>
<!-- Node4&#45;&gt;Node15 -->
<g id="edge15" class="edge">
<title>Node4&#45;&gt;Node15</title>
<path fill="none" stroke="#191970" d="M807.3563,-114.4476C759.8406,-104.5189 676.2301,-87.0481 623.4624,-76.022"/>
<polygon fill="#191970" stroke="#191970" points="624.1666,-72.5936 613.6621,-73.9742 622.7348,-79.4456 624.1666,-72.5936"/>
</g>
<!-- Node15&#45;&gt;Node13 -->
<g id="edge27" class="edge">
<title>Node15&#45;&gt;Node13</title>
<path fill="none" stroke="#191970" d="M613.536,-61.0815C628.1957,-59.3024 645.1097,-57.3912 660.5,-56 909.5385,-33.489 977.8408,-61.3826 1227.9911,-19.9374"/>
<polygon fill="#191970" stroke="#191970" points="1228.8321,-23.3453 1238.1151,-18.2389 1227.6738,-16.4418 1228.8321,-23.3453"/>
</g>
<!-- Node16 -->
<g id="node17" class="node">
<title>Node16</title>
<g id="a_node17"><a xlink:title=" ">
<polygon fill="#ffffff" stroke="#bfbfbf" points="378,-.5 378,-19.5 463,-19.5 463,-.5 378,-.5"/>
<text text-anchor="middle" x="420.5" y="-7.5" font-family="Helvetica,sans-Serif" font-size="10.00" fill="#000000">cuda_runtime.h</text>
</a>
</g>
</g>
<!-- Node15&#45;&gt;Node16 -->
<g id="edge16" class="edge">
<title>Node15&#45;&gt;Node16</title>
<path fill="none" stroke="#191970" d="M548.8546,-56.3733C523.3036,-47.1419 484.5488,-33.1402 456.3091,-22.9375"/>
<polygon fill="#191970" stroke="#191970" points="457.3921,-19.6074 446.7978,-19.5011 455.0135,-26.1909 457.3921,-19.6074"/>
</g>
<!-- Node17 -->
<g id="node18" class="node">
<title>Node17</title>
<g id="a_node18"><a xlink:title=" ">
<polygon fill="#ffffff" stroke="#bfbfbf" points="481,-.5 481,-19.5 528,-19.5 528,-.5 481,-.5"/>
<text text-anchor="middle" x="504.5" y="-7.5" font-family="Helvetica,sans-Serif" font-size="10.00" fill="#000000">cuda.h</text>
</a>
</g>
</g>
<!-- Node15&#45;&gt;Node17 -->
<g id="edge17" class="edge">
<title>Node15&#45;&gt;Node17</title>
<path fill="none" stroke="#191970" d="M563.1327,-56.2455C552.5446,-47.8943 537.0936,-35.7076 524.7107,-25.9408"/>
<polygon fill="#191970" stroke="#191970" points="526.7447,-23.0875 516.7255,-19.6427 522.4097,-28.5837 526.7447,-23.0875"/>
</g>
<!-- Node18 -->
<g id="node19" class="node">
<title>Node18</title>
<g id="a_node19"><a xlink:title=" ">
<polygon fill="#ffffff" stroke="#bfbfbf" points="546.5,-.5 546.5,-19.5 616.5,-19.5 616.5,-.5 546.5,-.5"/>
<text text-anchor="middle" x="581.5" y="-7.5" font-family="Helvetica,sans-Serif" font-size="10.00" fill="#000000">cublas_v2.h</text>
</a>
</g>
</g>
<!-- Node15&#45;&gt;Node18 -->
<g id="edge18" class="edge">
<title>Node15&#45;&gt;Node18</title>
<path fill="none" stroke="#191970" d="M576.5451,-56.2455C577.328,-48.9382 578.4256,-38.6944 579.3888,-29.7046"/>
<polygon fill="#191970" stroke="#191970" points="582.8815,-29.9587 580.4669,-19.6427 575.9214,-29.2129 582.8815,-29.9587"/>
</g>
<!-- Node19 -->
<g id="node20" class="node">
<title>Node19</title>
<g id="a_node20"><a xlink:title=" ">
<polygon fill="#ffffff" stroke="#bfbfbf" points="635,-.5 635,-19.5 698,-19.5 698,-.5 635,-.5"/>
<text text-anchor="middle" x="666.5" y="-7.5" font-family="Helvetica,sans-Serif" font-size="10.00" fill="#000000">cublasXt.h</text>
</a>
</g>
</g>
<!-- Node15&#45;&gt;Node19 -->
<g id="edge19" class="edge">
<title>Node15&#45;&gt;Node19</title>
<path fill="none" stroke="#191970" d="M591.351,-56.2455C605.3132,-47.6534 625.8728,-35.0014 641.9596,-25.1018"/>
<polygon fill="#191970" stroke="#191970" points="644.1484,-27.8645 650.8307,-19.6427 640.4797,-21.9029 644.1484,-27.8645"/>
</g>
<!-- Node20 -->
<g id="node21" class="node">
<title>Node20</title>
<g id="a_node21"><a xlink:title=" ">
<polygon fill="#ffffff" stroke="#bfbfbf" points="716.5,-.5 716.5,-19.5 818.5,-19.5 818.5,-.5 716.5,-.5"/>
<text text-anchor="middle" x="767.5" y="-7.5" font-family="Helvetica,sans-Serif" font-size="10.00" fill="#000000">cuda_profiler_api.h</text>
</a>
</g>
</g>
<!-- Node15&#45;&gt;Node20 -->
<g id="edge20" class="edge">
<title>Node15&#45;&gt;Node20</title>
<path fill="none" stroke="#191970" d="M608.506,-56.3733C640.7091,-46.9807 689.8442,-32.6496 724.9639,-22.4064"/>
<polygon fill="#191970" stroke="#191970" points="726.3047,-25.6612 734.9247,-19.5011 724.3447,-18.9412 726.3047,-25.6612"/>
</g>
<!-- Node21 -->
<g id="node22" class="node">
<title>Node21</title>
<g id="a_node22"><a xlink:title=" ">
<polygon fill="#ffffff" stroke="#bfbfbf" points="836.5,-.5 836.5,-19.5 910.5,-19.5 910.5,-.5 836.5,-.5"/>
<text text-anchor="middle" x="873.5" y="-7.5" font-family="Helvetica,sans-Serif" font-size="10.00" fill="#000000">nvToolsExt.h</text>
</a>
</g>
</g>
<!-- Node15&#45;&gt;Node21 -->
<g id="edge21" class="edge">
<title>Node15&#45;&gt;Node21</title>
<path fill="none" stroke="#191970" d="M613.5455,-58.6295C618.2436,-57.7353 622.981,-56.8412 627.5,-56 713.1706,-40.0527 737.2409,-37.7459 826.3598,-20.1753"/>
<polygon fill="#191970" stroke="#191970" points="827.2379,-23.5694 836.3668,-18.1924 825.8772,-16.7029 827.2379,-23.5694"/>
</g>
<!-- Node22 -->
<g id="node23" class="node">
<title>Node22</title>
<g id="a_node23"><a xlink:title=" ">
<polygon fill="#ffffff" stroke="#bfbfbf" points="0,-.5 0,-19.5 75,-19.5 75,-.5 0,-.5"/>
<text text-anchor="middle" x="37.5" y="-7.5" font-family="Helvetica,sans-Serif" font-size="10.00" fill="#000000">cuComplex.h</text>
</a>
</g>
</g>
<!-- Node15&#45;&gt;Node22 -->
<g id="edge22" class="edge">
<title>Node15&#45;&gt;Node22</title>
<path fill="none" stroke="#191970" d="M537.3546,-57.4547C534.3667,-56.9167 531.3891,-56.4227 528.5,-56 335.8567,-27.8158 282.1686,-47.9659 85.2309,-19.915"/>
<polygon fill="#191970" stroke="#191970" points="85.5315,-16.4221 75.1331,-18.4527 84.5282,-23.3499 85.5315,-16.4221"/>
</g>
<!-- Node23 -->
<g id="node24" class="node">
<title>Node23</title>
<g id="a_node24"><a xlink:title=" ">
<polygon fill="#ffffff" stroke="#bfbfbf" points="93.5,-.5 93.5,-19.5 155.5,-19.5 155.5,-.5 93.5,-.5"/>
<text text-anchor="middle" x="124.5" y="-7.5" font-family="Helvetica,sans-Serif" font-size="10.00" fill="#000000">execinfo.h</text>
</a>
</g>
</g>
<!-- Node15&#45;&gt;Node23 -->
<g id="edge23" class="edge">
<title>Node15&#45;&gt;Node23</title>
<path fill="none" stroke="#191970" d="M537.346,-57.5117C534.36,-56.9608 531.3852,-56.4482 528.5,-56 371.154,-31.5576 326.4951,-47.1194 166.0805,-20.0553"/>
<polygon fill="#191970" stroke="#191970" points="166.2984,-16.5416 155.8503,-18.2986 165.1136,-23.4406 166.2984,-16.5416"/>
</g>
<!-- Node24 -->
<g id="node25" class="node">
<title>Node24</title>
<g id="a_node25"><a xlink:title=" ">
<polygon fill="#ffffff" stroke="#bfbfbf" points="173.5,-.5 173.5,-19.5 225.5,-19.5 225.5,-.5 173.5,-.5"/>
<text text-anchor="middle" x="199.5" y="-7.5" font-family="Helvetica,sans-Serif" font-size="10.00" fill="#000000">unistd.h</text>
</a>
</g>
</g>
<!-- Node15&#45;&gt;Node24 -->
<g id="edge24" class="edge">
<title>Node15&#45;&gt;Node24</title>
<path fill="none" stroke="#191970" d="M537.3339,-57.5867C534.3507,-57.0186 531.3798,-56.4817 528.5,-56 401.8313,-34.8114 365.2892,-45.6024 235.6732,-19.9746"/>
<polygon fill="#191970" stroke="#191970" points="236.2584,-16.5223 225.7645,-17.9811 234.8777,-23.3848 236.2584,-16.5223"/>
</g>
<!-- Node25 -->
<g id="node26" class="node">
<title>Node25</title>
<g id="a_node26"><a xlink:title=" ">
<polygon fill="#ffffff" stroke="#bfbfbf" points="244,-.5 244,-19.5 295,-19.5 295,-.5 244,-.5"/>
<text text-anchor="middle" x="269.5" y="-7.5" font-family="Helvetica,sans-Serif" font-size="10.00" fill="#000000">signal.h</text>
</a>
</g>
</g>
<!-- Node15&#45;&gt;Node25 -->
<g id="edge25" class="edge">
<title>Node15&#45;&gt;Node25</title>
<path fill="none" stroke="#191970" d="M537.3126,-57.7072C534.3342,-57.1117 531.3703,-56.5356 528.5,-56 432.4757,-38.0801 404.6526,-41.6373 304.9065,-19.8603"/>
<polygon fill="#191970" stroke="#191970" points="305.5446,-16.4168 295.0244,-17.6721 304.0313,-23.2513 305.5446,-16.4168"/>
</g>
<!-- Node26 -->
<g id="node27" class="node">
<title>Node26</title>
<g id="a_node27"><a xlink:title=" ">
<polygon fill="#ffffff" stroke="#bfbfbf" points="990.5,-.5 990.5,-19.5 1042.5,-19.5 1042.5,-.5 990.5,-.5"/>
<text text-anchor="middle" x="1016.5" y="-7.5" font-family="Helvetica,sans-Serif" font-size="10.00" fill="#000000">assert.h</text>
</a>
</g>
</g>
<!-- Node15&#45;&gt;Node26 -->
<g id="edge26" class="edge">
<title>Node15&#45;&gt;Node26</title>
<path fill="none" stroke="#191970" d="M613.7718,-58.2414C618.3872,-57.4238 623.043,-56.6539 627.5,-56 780.7611,-33.5156 824.4159,-49.1674 980.3058,-19.936"/>
<polygon fill="#191970" stroke="#191970" points="981.0798,-23.3515 990.2471,-18.0401 979.7685,-16.4754 981.0798,-23.3515"/>
</g>
<!-- Node27 -->
<g id="node28" class="node">
<title>Node27</title>
<g id="a_node28"><a xlink:title=" ">
<polygon fill="#ffffff" stroke="#bfbfbf" points="928.5,-.5 928.5,-19.5 972.5,-19.5 972.5,-.5 928.5,-.5"/>
<text text-anchor="middle" x="950.5" y="-7.5" font-family="Helvetica,sans-Serif" font-size="10.00" fill="#000000">vector</text>
</a>
</g>
</g>
<!-- Node15&#45;&gt;Node27 -->
<g id="edge28" class="edge">
<title>Node15&#45;&gt;Node27</title>
<path fill="none" stroke="#191970" d="M613.5036,-58.3856C618.2089,-57.5332 622.9595,-56.7157 627.5,-56 753.5123,-36.1386 790.0439,-47.6047 918.4706,-19.8781"/>
<polygon fill="#191970" stroke="#191970" points="919.2714,-23.2857 928.2877,-17.7218 917.7696,-16.4487 919.2714,-23.2857"/>
</g>
<!-- Node28 -->
<g id="node29" class="node">
<title>Node28</title>
<g id="a_node29"><a xlink:title=" ">
<polygon fill="#ffffff" stroke="#bfbfbf" points="313.5,-.5 313.5,-19.5 359.5,-19.5 359.5,-.5 313.5,-.5"/>
<text text-anchor="middle" x="336.5" y="-7.5" font-family="Helvetica,sans-Serif" font-size="10.00" fill="#000000">stdio.h</text>
</a>
</g>
</g>
<!-- Node15&#45;&gt;Node28 -->
<g id="edge29" class="edge">
<title>Node15&#45;&gt;Node28</title>
<path fill="none" stroke="#191970" d="M537.2116,-57.6745C487.5573,-46.8524 403.971,-28.5423 369.2765,-19.957"/>
<polygon fill="#191970" stroke="#191970" points="370.0612,-16.545 359.5045,-17.4432 368.3172,-23.3243 370.0612,-16.545"/>
</g>
<!-- Node29&#45;&gt;Node13 -->
<g id="edge31" class="edge">
<title>Node29&#45;&gt;Node13</title>
<path fill="none" stroke="#191970" d="M1250.4061,-168.4862C1252.9353,-141.9293 1260.1128,-66.5651 1263.5795,-30.1655"/>
<polygon fill="#191970" stroke="#191970" points="1267.1001,-30.1147 1264.564,-19.8279 1260.1316,-29.451 1267.1001,-30.1147"/>
</g>
<!-- Node30&#45;&gt;Node12 -->
<g id="edge37" class="edge">
<title>Node30&#45;&gt;Node12</title>
<path fill="none" stroke="#191970" d="M1148.2167,-56.2455C1135.753,-47.7337 1117.4549,-35.2375 1103.0208,-25.3801"/>
<polygon fill="#191970" stroke="#191970" points="1104.8515,-22.392 1094.6196,-19.6427 1100.9038,-28.1726 1104.8515,-22.392"/>
</g>
<!-- Node30&#45;&gt;Node13 -->
<g id="edge35" class="edge">
<title>Node30&#45;&gt;Node13</title>
<path fill="none" stroke="#191970" d="M1180.4412,-56.2455C1196.54,-47.4928 1220.3879,-34.527 1238.7391,-24.5496"/>
<polygon fill="#191970" stroke="#191970" points="1240.6507,-27.4942 1247.7644,-19.6427 1237.3071,-21.3444 1240.6507,-27.4942"/>
</g>
<!-- Node30&#45;&gt;Node26 -->
<g id="edge34" class="edge">
<title>Node30&#45;&gt;Node26</title>
<path fill="none" stroke="#191970" d="M1137.4017,-56.3733C1113.5445,-47.2226 1077.4665,-33.3844 1050.929,-23.2057"/>
<polygon fill="#191970" stroke="#191970" points="1051.861,-19.8145 1041.2708,-19.5011 1049.3541,-26.3503 1051.861,-19.8145"/>
</g>
<!-- Node30&#45;&gt;Node27 -->
<g id="edge36" class="edge">
<title>Node30&#45;&gt;Node27</title>
<path fill="none" stroke="#191970" d="M1125.2236,-57.2551C1090.5789,-48.9661 1037.3418,-35.8206 982.6607,-20.216"/>
<polygon fill="#191970" stroke="#191970" points="983.3773,-16.7803 972.7994,-17.3792 981.442,-23.5075 983.3773,-16.7803"/>
</g>
<!-- Node31 -->
<g id="node32" class="node">
<title>Node31</title>
<g id="a_node32"><a xlink:title=" ">
<polygon fill="#ffffff" stroke="#bfbfbf" points="1175,-.5 1175,-19.5 1220,-19.5 1220,-.5 1175,-.5"/>
<text text-anchor="middle" x="1197.5" y="-7.5" font-family="Helvetica,sans-Serif" font-size="10.00" fill="#000000">cstdlib</text>
</a>
</g>
</g>
<!-- Node30&#45;&gt;Node31 -->
<g id="edge33" class="edge">
<title>Node30&#45;&gt;Node31</title>
<path fill="none" stroke="#191970" d="M1168.5965,-56.2455C1173.4145,-48.5367 1180.2751,-37.5598 1186.1032,-28.2348"/>
<polygon fill="#191970" stroke="#191970" points="1189.1413,-29.9777 1191.4733,-19.6427 1183.2053,-26.2677 1189.1413,-29.9777"/>
</g>
<!-- Node32 -->
<g id="node33" class="node">
<title>Node32</title>
<g id="a_node33"><a xlink:title=" ">
<polygon fill="#ffffff" stroke="#bfbfbf" points="1118,-.5 1118,-19.5 1157,-19.5 1157,-.5 1118,-.5"/>
<text text-anchor="middle" x="1137.5" y="-7.5" font-family="Helvetica,sans-Serif" font-size="10.00" fill="#000000">limits</text>
</a>
</g>
</g>
<!-- Node30&#45;&gt;Node32 -->
<g id="edge38" class="edge">
<title>Node30&#45;&gt;Node32</title>
<path fill="none" stroke="#191970" d="M1158.1453,-56.2455C1154.7756,-48.6973 1150.007,-38.0158 1145.9017,-28.8197"/>
<polygon fill="#191970" stroke="#191970" points="1149.0773,-27.3473 1141.8048,-19.6427 1142.6853,-30.2009 1149.0773,-27.3473"/>
</g>
</g>
</svg>
