<?xml version="1.0" encoding="UTF-8" standalone="no"?>
<!DOCTYPE svg PUBLIC "-//W3C//DTD SVG 1.1//EN"
 "http://www.w3.org/Graphics/SVG/1.1/DTD/svg11.dtd">
<!-- Generated by graphviz version 2.40.1 (20161225.0304)
 -->
<!-- Title: radial_solver.hpp Pages: 1 -->
<svg width="1301pt" height="308pt"
 viewBox="0.00 0.00 1300.50 308.00" xmlns="http://www.w3.org/2000/svg" xmlns:xlink="http://www.w3.org/1999/xlink">
<g id="graph0" class="graph" transform="scale(1 1) rotate(0) translate(4 304)">
<title>radial_solver.hpp</title>
<polygon fill="#ffffff" stroke="transparent" points="-4,4 -4,-304 1296.5,-304 1296.5,4 -4,4"/>
<!-- Node1 -->
<g id="node1" class="node">
<title>Node1</title>
<g id="a_node1"><a xlink:title="Contains declaration and partial implementation of sirius::Radial_solver class.">
<polygon fill="#bfbfbf" stroke="#000000" points="1086,-280.5 1086,-299.5 1179,-299.5 1179,-280.5 1086,-280.5"/>
<text text-anchor="middle" x="1132.5" y="-287.5" font-family="Helvetica,sans-Serif" font-size="10.00" fill="#000000">radial_solver.hpp</text>
</a>
</g>
</g>
<!-- Node2 -->
<g id="node2" class="node">
<title>Node2</title>
<g id="a_node2"><a xlink:title=" ">
<polygon fill="#ffffff" stroke="#bfbfbf" points="1016.5,-224.5 1016.5,-243.5 1054.5,-243.5 1054.5,-224.5 1016.5,-224.5"/>
<text text-anchor="middle" x="1035.5" y="-231.5" font-family="Helvetica,sans-Serif" font-size="10.00" fill="#000000">tuple</text>
</a>
</g>
</g>
<!-- Node1&#45;&gt;Node2 -->
<g id="edge1" class="edge">
<title>Node1&#45;&gt;Node2</title>
<path fill="none" stroke="#191970" d="M1115.6039,-280.2455C1100.582,-271.5731 1078.3957,-258.7645 1061.179,-248.825"/>
<polygon fill="#191970" stroke="#191970" points="1062.6128,-245.6114 1052.2025,-243.6427 1059.1129,-251.6737 1062.6128,-245.6114"/>
</g>
<!-- Node3 -->
<g id="node3" class="node">
<title>Node3</title>
<g id="a_node3"><a xlink:href="../../d9/d05/spline_8hpp.html" target="_top" xlink:title="Contains definition and partial implementation of sirius::Spline class.">
<polygon fill="#ffffff" stroke="#000000" points="1072.5,-224.5 1072.5,-243.5 1134.5,-243.5 1134.5,-224.5 1072.5,-224.5"/>
<text text-anchor="middle" x="1103.5" y="-231.5" font-family="Helvetica,sans-Serif" font-size="10.00" fill="#000000">spline.hpp</text>
</a>
</g>
</g>
<!-- Node1&#45;&gt;Node3 -->
<g id="edge2" class="edge">
<title>Node1&#45;&gt;Node3</title>
<path fill="none" stroke="#191970" d="M1127.4486,-280.2455C1123.4981,-272.617 1117.8903,-261.7881 1113.0942,-252.5267"/>
<polygon fill="#191970" stroke="#191970" points="1116.2001,-250.9131 1108.4935,-243.6427 1109.9841,-254.1321 1116.2001,-250.9131"/>
</g>
<!-- Node30 -->
<g id="node30" class="node">
<title>Node30</title>
<g id="a_node30"><a xlink:href="../../d3/dad/constants_8hpp.html" target="_top" xlink:title="Various constants.">
<polygon fill="#ffffff" stroke="#000000" points="1210,-168.5 1210,-187.5 1289,-187.5 1289,-168.5 1210,-168.5"/>
<text text-anchor="middle" x="1249.5" y="-175.5" font-family="Helvetica,sans-Serif" font-size="10.00" fill="#000000">constants.hpp</text>
</a>
</g>
</g>
<!-- Node1&#45;&gt;Node30 -->
<g id="edge30" class="edge">
<title>Node1&#45;&gt;Node30</title>
<path fill="none" stroke="#191970" d="M1142.4754,-280.4509C1162.4213,-261.3574 1207.4325,-218.2697 1232.2568,-194.5063"/>
<polygon fill="#191970" stroke="#191970" points="1234.7464,-196.9683 1239.5499,-187.5249 1229.9059,-191.9116 1234.7464,-196.9683"/>
</g>
<!-- Node31 -->
<g id="node31" class="node">
<title>Node31</title>
<g id="a_node31"><a xlink:href="../../de/df7/typedefs_8hpp.html" target="_top" xlink:title="Contains typedefs, enums and simple descriptors.">
<polygon fill="#ffffff" stroke="#000000" points="1125.5,-56.5 1125.5,-75.5 1199.5,-75.5 1199.5,-56.5 1125.5,-56.5"/>
<text text-anchor="middle" x="1162.5" y="-63.5" font-family="Helvetica,sans-Serif" font-size="10.00" fill="#000000">typedefs.hpp</text>
</a>
</g>
</g>
<!-- Node1&#45;&gt;Node31 -->
<g id="edge32" class="edge">
<title>Node1&#45;&gt;Node31</title>
<path fill="none" stroke="#191970" d="M1135.229,-280.2052C1137.717,-270.9439 1141.3261,-256.6238 1143.5,-244 1153.3132,-187.0136 1158.8985,-118.8353 1161.2179,-85.8367"/>
<polygon fill="#191970" stroke="#191970" points="1164.72,-85.9215 1161.9036,-75.7078 1157.736,-85.4486 1164.72,-85.9215"/>
</g>
<!-- Node4 -->
<g id="node4" class="node">
<title>Node4</title>
<g id="a_node4"><a xlink:href="../../d2/d4f/radial__grid_8hpp.html" target="_top" xlink:title="Contains declaraion and partial implementation of sirius::Radial_grid class.">
<polygon fill="#ffffff" stroke="#000000" points="890.5,-168.5 890.5,-187.5 1000.5,-187.5 1000.5,-168.5 890.5,-168.5"/>
<text text-anchor="middle" x="945.5" y="-175.5" font-family="Helvetica,sans-Serif" font-size="10.00" fill="#000000">radial/radial_grid.hpp</text>
</a>
</g>
</g>
<!-- Node3&#45;&gt;Node4 -->
<g id="edge3" class="edge">
<title>Node3&#45;&gt;Node4</title>
<path fill="none" stroke="#191970" d="M1076.3388,-224.3733C1050.2933,-215.1419 1010.7884,-201.1402 982.0021,-190.9375"/>
<polygon fill="#191970" stroke="#191970" points="982.9015,-187.5429 972.3067,-187.5011 980.563,-194.1408 982.9015,-187.5429"/>
</g>
<!-- Node5 -->
<g id="node5" class="node">
<title>Node5</title>
<g id="a_node5"><a xlink:href="../../da/d3e/memory_8hpp.html" target="_top" xlink:title="Memory management functions and classes.">
<polygon fill="#ffffff" stroke="#000000" points="807.5,-112.5 807.5,-131.5 879.5,-131.5 879.5,-112.5 807.5,-112.5"/>
<text text-anchor="middle" x="843.5" y="-119.5" font-family="Helvetica,sans-Serif" font-size="10.00" fill="#000000">memory.hpp</text>
</a>
</g>
</g>
<!-- Node4&#45;&gt;Node5 -->
<g id="edge4" class="edge">
<title>Node4&#45;&gt;Node5</title>
<path fill="none" stroke="#191970" d="M927.733,-168.2455C911.7905,-159.4928 888.1741,-146.527 870.0011,-136.5496"/>
<polygon fill="#191970" stroke="#191970" points="871.5137,-133.3873 861.0634,-131.6427 868.1448,-139.5233 871.5137,-133.3873"/>
</g>
<!-- Node6 -->
<g id="node6" class="node">
<title>Node6</title>
<g id="a_node6"><a xlink:title=" ">
<polygon fill="#ffffff" stroke="#bfbfbf" points="737,-56.5 737,-75.5 766,-75.5 766,-56.5 737,-56.5"/>
<text text-anchor="middle" x="751.5" y="-63.5" font-family="Helvetica,sans-Serif" font-size="10.00" fill="#000000">list</text>
</a>
</g>
</g>
<!-- Node5&#45;&gt;Node6 -->
<g id="edge5" class="edge">
<title>Node5&#45;&gt;Node6</title>
<path fill="none" stroke="#191970" d="M827.4748,-112.2455C813.0149,-103.4439 791.5558,-90.3818 775.1283,-80.3825"/>
<polygon fill="#191970" stroke="#191970" points="776.4903,-77.1141 766.1285,-74.9043 772.8507,-83.0935 776.4903,-77.1141"/>
</g>
<!-- Node7 -->
<g id="node7" class="node">
<title>Node7</title>
<g id="a_node7"><a xlink:title=" ">
<polygon fill="#ffffff" stroke="#bfbfbf" points="784,-56.5 784,-75.5 839,-75.5 839,-56.5 784,-56.5"/>
<text text-anchor="middle" x="811.5" y="-63.5" font-family="Helvetica,sans-Serif" font-size="10.00" fill="#000000">iostream</text>
</a>
</g>
</g>
<!-- Node5&#45;&gt;Node7 -->
<g id="edge6" class="edge">
<title>Node5&#45;&gt;Node7</title>
<path fill="none" stroke="#191970" d="M837.926,-112.2455C833.5669,-104.617 827.3789,-93.7881 822.0867,-84.5267"/>
<polygon fill="#191970" stroke="#191970" points="825.0104,-82.5886 817.0101,-75.6427 818.9327,-86.0616 825.0104,-82.5886"/>
</g>
<!-- Node8 -->
<g id="node8" class="node">
<title>Node8</title>
<g id="a_node8"><a xlink:title=" ">
<polygon fill="#ffffff" stroke="#bfbfbf" points="857.5,-56.5 857.5,-75.5 893.5,-75.5 893.5,-56.5 857.5,-56.5"/>
<text text-anchor="middle" x="875.5" y="-63.5" font-family="Helvetica,sans-Serif" font-size="10.00" fill="#000000">map</text>
</a>
</g>
</g>
<!-- Node5&#45;&gt;Node8 -->
<g id="edge7" class="edge">
<title>Node5&#45;&gt;Node8</title>
<path fill="none" stroke="#191970" d="M849.074,-112.2455C853.4331,-104.617 859.6211,-93.7881 864.9133,-84.5267"/>
<polygon fill="#191970" stroke="#191970" points="868.0673,-86.0616 869.9899,-75.6427 861.9896,-82.5886 868.0673,-86.0616"/>
</g>
<!-- Node9 -->
<g id="node9" class="node">
<title>Node9</title>
<g id="a_node9"><a xlink:title=" ">
<polygon fill="#ffffff" stroke="#bfbfbf" points="912,-56.5 912,-75.5 965,-75.5 965,-56.5 912,-56.5"/>
<text text-anchor="middle" x="938.5" y="-63.5" font-family="Helvetica,sans-Serif" font-size="10.00" fill="#000000">memory</text>
</a>
</g>
</g>
<!-- Node5&#45;&gt;Node9 -->
<g id="edge8" class="edge">
<title>Node5&#45;&gt;Node9</title>
<path fill="none" stroke="#191970" d="M860.0477,-112.2455C874.7599,-103.5731 896.4888,-90.7645 913.3505,-80.825"/>
<polygon fill="#191970" stroke="#191970" points="915.3046,-83.736 922.1419,-75.6427 911.7498,-77.7057 915.3046,-83.736"/>
</g>
<!-- Node10 -->
<g id="node10" class="node">
<title>Node10</title>
<g id="a_node10"><a xlink:title=" ">
<polygon fill="#ffffff" stroke="#bfbfbf" points="983.5,-56.5 983.5,-75.5 1029.5,-75.5 1029.5,-56.5 983.5,-56.5"/>
<text text-anchor="middle" x="1006.5" y="-63.5" font-family="Helvetica,sans-Serif" font-size="10.00" fill="#000000">cstring</text>
</a>
</g>
</g>
<!-- Node5&#45;&gt;Node10 -->
<g id="edge9" class="edge">
<title>Node5&#45;&gt;Node10</title>
<path fill="none" stroke="#191970" d="M871.5207,-112.3733C899.898,-102.624 943.7625,-87.554 973.7325,-77.2575"/>
<polygon fill="#191970" stroke="#191970" points="975.001,-80.5226 983.3212,-73.9633 972.7265,-73.9024 975.001,-80.5226"/>
</g>
<!-- Node11 -->
<g id="node11" class="node">
<title>Node11</title>
<g id="a_node11"><a xlink:title=" ">
<polygon fill="#ffffff" stroke="#bfbfbf" points="1048,-56.5 1048,-75.5 1107,-75.5 1107,-56.5 1048,-56.5"/>
<text text-anchor="middle" x="1077.5" y="-63.5" font-family="Helvetica,sans-Serif" font-size="10.00" fill="#000000">functional</text>
</a>
</g>
</g>
<!-- Node5&#45;&gt;Node11 -->
<g id="edge10" class="edge">
<title>Node5&#45;&gt;Node11</title>
<path fill="none" stroke="#191970" d="M879.8492,-113.6466C917.0613,-105.0459 976.8189,-91.0994 1037.8942,-76.116"/>
<polygon fill="#191970" stroke="#191970" points="1038.8298,-79.4903 1047.7044,-73.7031 1037.1579,-72.6929 1038.8298,-79.4903"/>
</g>
<!-- Node12 -->
<g id="node12" class="node">
<title>Node12</title>
<g id="a_node12"><a xlink:title=" ">
<polygon fill="#ffffff" stroke="#bfbfbf" points="465.5,-56.5 465.5,-75.5 523.5,-75.5 523.5,-56.5 465.5,-56.5"/>
<text text-anchor="middle" x="494.5" y="-63.5" font-family="Helvetica,sans-Serif" font-size="10.00" fill="#000000">algorithm</text>
</a>
</g>
</g>
<!-- Node5&#45;&gt;Node12 -->
<g id="edge11" class="edge">
<title>Node5&#45;&gt;Node12</title>
<path fill="none" stroke="#191970" d="M807.3577,-117.9695C750.9629,-111.3953 638.4679,-97.1396 533.9686,-76.1295"/>
<polygon fill="#191970" stroke="#191970" points="534.3803,-72.6416 523.8829,-74.0753 532.9831,-79.5008 534.3803,-72.6416"/>
</g>
<!-- Node13 -->
<g id="node13" class="node">
<title>Node13</title>
<g id="a_node13"><a xlink:title=" ">
<polygon fill="#ffffff" stroke="#bfbfbf" points="1061,-.5 1061,-19.5 1100,-19.5 1100,-.5 1061,-.5"/>
<text text-anchor="middle" x="1080.5" y="-7.5" font-family="Helvetica,sans-Serif" font-size="10.00" fill="#000000">array</text>
</a>
</g>
</g>
<!-- Node5&#45;&gt;Node13 -->
<g id="edge12" class="edge">
<title>Node5&#45;&gt;Node13</title>
<path fill="none" stroke="#191970" d="M807.4728,-120.7121C742.5647,-117.1818 616.6288,-104.0961 660.5,-56 717.3507,6.3255 950.0081,-35.3682 1050.8045,-19.3841"/>
<polygon fill="#191970" stroke="#191970" points="1051.5269,-22.8097 1060.7106,-17.5266 1050.2368,-15.9296 1051.5269,-22.8097"/>
</g>
<!-- Node14 -->
<g id="node14" class="node">
<title>Node14</title>
<g id="a_node14"><a xlink:title=" ">
<polygon fill="#ffffff" stroke="#bfbfbf" points="1238.5,-.5 1238.5,-19.5 1292.5,-19.5 1292.5,-.5 1238.5,-.5"/>
<text text-anchor="middle" x="1265.5" y="-7.5" font-family="Helvetica,sans-Serif" font-size="10.00" fill="#000000">complex</text>
</a>
</g>
</g>
<!-- Node5&#45;&gt;Node14 -->
<g id="edge13" class="edge">
<title>Node5&#45;&gt;Node14</title>
<path fill="none" stroke="#191970" d="M879.5697,-120.7154C960.1355,-117.3291 1152.0626,-106.2411 1208.5,-76 1228.8344,-65.1041 1245.1561,-43.7965 1255.0379,-28.3318"/>
<polygon fill="#191970" stroke="#191970" points="1258.1393,-29.9676 1260.3368,-19.6032 1252.1555,-26.3351 1258.1393,-29.9676"/>
</g>
<!-- Node15 -->
<g id="node15" class="node">
<title>Node15</title>
<g id="a_node15"><a xlink:title=" ">
<polygon fill="#ffffff" stroke="#bfbfbf" points="670,-56.5 670,-75.5 719,-75.5 719,-56.5 670,-56.5"/>
<text text-anchor="middle" x="694.5" y="-63.5" font-family="Helvetica,sans-Serif" font-size="10.00" fill="#000000">cassert</text>
</a>
</g>
</g>
<!-- Node5&#45;&gt;Node15 -->
<g id="edge14" class="edge">
<title>Node5&#45;&gt;Node15</title>
<path fill="none" stroke="#191970" d="M817.886,-112.3733C793.2831,-103.1265 755.9452,-89.0935 728.7872,-78.8865"/>
<polygon fill="#191970" stroke="#191970" points="729.8767,-75.557 719.2847,-75.315 727.414,-82.1095 729.8767,-75.557"/>
</g>
<!-- Node16 -->
<g id="node16" class="node">
<title>Node16</title>
<g id="a_node16"><a xlink:href="../../d4/d86/acc_8hpp.html" target="_top" xlink:title="Interface to accelerators API.">
<polygon fill="#ffffff" stroke="#000000" points="542,-56.5 542,-75.5 613,-75.5 613,-56.5 542,-56.5"/>
<text text-anchor="middle" x="577.5" y="-63.5" font-family="Helvetica,sans-Serif" font-size="10.00" fill="#000000">gpu/acc.hpp</text>
</a>
</g>
</g>
<!-- Node5&#45;&gt;Node16 -->
<g id="edge15" class="edge">
<title>Node5&#45;&gt;Node16</title>
<path fill="none" stroke="#191970" d="M807.3492,-114.3893C759.5407,-104.3244 675.2664,-86.5824 623.1262,-75.6055"/>
<polygon fill="#191970" stroke="#191970" points="623.6535,-72.1399 613.1469,-73.5046 622.2114,-78.9897 623.6535,-72.1399"/>
</g>
<!-- Node16&#45;&gt;Node14 -->
<g id="edge27" class="edge">
<title>Node16&#45;&gt;Node14</title>
<path fill="none" stroke="#191970" d="M613.4046,-61.2234C627.998,-59.3996 645.0351,-57.4197 660.5,-56 909.5068,-33.1409 977.8399,-61.3734 1227.991,-19.9372"/>
<polygon fill="#191970" stroke="#191970" points="1228.832,-23.3451 1238.1151,-18.2389 1227.6738,-16.4416 1228.832,-23.3451"/>
</g>
<!-- Node17 -->
<g id="node17" class="node">
<title>Node17</title>
<g id="a_node17"><a xlink:title=" ">
<polygon fill="#ffffff" stroke="#bfbfbf" points="378,-.5 378,-19.5 463,-19.5 463,-.5 378,-.5"/>
<text text-anchor="middle" x="420.5" y="-7.5" font-family="Helvetica,sans-Serif" font-size="10.00" fill="#000000">cuda_runtime.h</text>
</a>
</g>
</g>
<!-- Node16&#45;&gt;Node17 -->
<g id="edge16" class="edge">
<title>Node16&#45;&gt;Node17</title>
<path fill="none" stroke="#191970" d="M550.5107,-56.3733C524.6301,-47.1419 485.3752,-33.1402 456.7711,-22.9375"/>
<polygon fill="#191970" stroke="#191970" points="457.7317,-19.5642 447.1371,-19.5011 455.38,-26.1573 457.7317,-19.5642"/>
</g>
<!-- Node18 -->
<g id="node18" class="node">
<title>Node18</title>
<g id="a_node18"><a xlink:title=" ">
<polygon fill="#ffffff" stroke="#bfbfbf" points="481,-.5 481,-19.5 528,-19.5 528,-.5 481,-.5"/>
<text text-anchor="middle" x="504.5" y="-7.5" font-family="Helvetica,sans-Serif" font-size="10.00" fill="#000000">cuda.h</text>
</a>
</g>
</g>
<!-- Node16&#45;&gt;Node18 -->
<g id="edge17" class="edge">
<title>Node16&#45;&gt;Node18</title>
<path fill="none" stroke="#191970" d="M564.7844,-56.2455C553.898,-47.8943 538.0117,-35.7076 525.28,-25.9408"/>
<polygon fill="#191970" stroke="#191970" points="527.1346,-22.9523 517.0699,-19.6427 522.8739,-28.5063 527.1346,-22.9523"/>
</g>
<!-- Node19 -->
<g id="node19" class="node">
<title>Node19</title>
<g id="a_node19"><a xlink:title=" ">
<polygon fill="#ffffff" stroke="#bfbfbf" points="546.5,-.5 546.5,-19.5 616.5,-19.5 616.5,-.5 546.5,-.5"/>
<text text-anchor="middle" x="581.5" y="-7.5" font-family="Helvetica,sans-Serif" font-size="10.00" fill="#000000">cublas_v2.h</text>
</a>
</g>
</g>
<!-- Node16&#45;&gt;Node19 -->
<g id="edge18" class="edge">
<title>Node16&#45;&gt;Node19</title>
<path fill="none" stroke="#191970" d="M578.1967,-56.2455C578.7187,-48.9382 579.4504,-38.6944 580.0925,-29.7046"/>
<polygon fill="#191970" stroke="#191970" points="583.5898,-29.8667 580.8112,-19.6427 576.6076,-29.3679 583.5898,-29.8667"/>
</g>
<!-- Node20 -->
<g id="node20" class="node">
<title>Node20</title>
<g id="a_node20"><a xlink:title=" ">
<polygon fill="#ffffff" stroke="#bfbfbf" points="635,-.5 635,-19.5 698,-19.5 698,-.5 635,-.5"/>
<text text-anchor="middle" x="666.5" y="-7.5" font-family="Helvetica,sans-Serif" font-size="10.00" fill="#000000">cublasXt.h</text>
</a>
</g>
</g>
<!-- Node16&#45;&gt;Node20 -->
<g id="edge19" class="edge">
<title>Node16&#45;&gt;Node20</title>
<path fill="none" stroke="#191970" d="M593.0026,-56.2455C606.658,-47.6534 626.7657,-35.0014 642.4989,-25.1018"/>
<polygon fill="#191970" stroke="#191970" points="644.5751,-27.9307 651.175,-19.6427 640.8471,-22.006 644.5751,-27.9307"/>
</g>
<!-- Node21 -->
<g id="node21" class="node">
<title>Node21</title>
<g id="a_node21"><a xlink:title=" ">
<polygon fill="#ffffff" stroke="#bfbfbf" points="716.5,-.5 716.5,-19.5 818.5,-19.5 818.5,-.5 716.5,-.5"/>
<text text-anchor="middle" x="767.5" y="-7.5" font-family="Helvetica,sans-Serif" font-size="10.00" fill="#000000">cuda_profiler_api.h</text>
</a>
</g>
</g>
<!-- Node16&#45;&gt;Node21 -->
<g id="edge20" class="edge">
<title>Node16&#45;&gt;Node21</title>
<path fill="none" stroke="#191970" d="M610.1622,-56.3733C642.0298,-46.9807 690.6531,-32.6496 725.407,-22.4064"/>
<polygon fill="#191970" stroke="#191970" points="726.6615,-25.6855 735.264,-19.5011 724.6825,-18.9711 726.6615,-25.6855"/>
</g>
<!-- Node22 -->
<g id="node22" class="node">
<title>Node22</title>
<g id="a_node22"><a xlink:title=" ">
<polygon fill="#ffffff" stroke="#bfbfbf" points="836.5,-.5 836.5,-19.5 910.5,-19.5 910.5,-.5 836.5,-.5"/>
<text text-anchor="middle" x="873.5" y="-7.5" font-family="Helvetica,sans-Serif" font-size="10.00" fill="#000000">nvToolsExt.h</text>
</a>
</g>
</g>
<!-- Node16&#45;&gt;Node22 -->
<g id="edge21" class="edge">
<title>Node16&#45;&gt;Node22</title>
<path fill="none" stroke="#191970" d="M613.263,-58.7603C618.0467,-57.8174 622.8906,-56.8757 627.5,-56 713.1109,-39.7355 737.2367,-37.7236 826.3596,-20.1741"/>
<polygon fill="#191970" stroke="#191970" points="827.2372,-23.5683 836.3668,-18.1924 825.8774,-16.7017 827.2372,-23.5683"/>
</g>
<!-- Node23 -->
<g id="node23" class="node">
<title>Node23</title>
<g id="a_node23"><a xlink:title=" ">
<polygon fill="#ffffff" stroke="#bfbfbf" points="0,-.5 0,-19.5 75,-19.5 75,-.5 0,-.5"/>
<text text-anchor="middle" x="37.5" y="-7.5" font-family="Helvetica,sans-Serif" font-size="10.00" fill="#000000">cuComplex.h</text>
</a>
</g>
</g>
<!-- Node16&#45;&gt;Node23 -->
<g id="edge22" class="edge">
<title>Node16&#45;&gt;Node23</title>
<path fill="none" stroke="#191970" d="M541.7225,-57.5805C538.6133,-56.9914 535.5073,-56.4527 532.5,-56 338.2523,-26.7562 283.9527,-48.1101 85.3175,-19.9254"/>
<polygon fill="#191970" stroke="#191970" points="85.5302,-16.4199 75.1327,-18.4551 84.53,-23.3481 85.5302,-16.4199"/>
</g>
<!-- Node24 -->
<g id="node24" class="node">
<title>Node24</title>
<g id="a_node24"><a xlink:title=" ">
<polygon fill="#ffffff" stroke="#bfbfbf" points="93.5,-.5 93.5,-19.5 155.5,-19.5 155.5,-.5 93.5,-.5"/>
<text text-anchor="middle" x="124.5" y="-7.5" font-family="Helvetica,sans-Serif" font-size="10.00" fill="#000000">execinfo.h</text>
</a>
</g>
</g>
<!-- Node16&#45;&gt;Node24 -->
<g id="edge23" class="edge">
<title>Node16&#45;&gt;Node24</title>
<path fill="none" stroke="#191970" d="M541.7137,-57.6372C538.6064,-57.0358 535.5032,-56.4788 532.5,-56 373.5412,-30.6584 328.2781,-47.29 166.1867,-20.07"/>
<polygon fill="#191970" stroke="#191970" points="166.2967,-16.538 155.8497,-18.3018 165.1164,-23.4378 166.2967,-16.538"/>
</g>
<!-- Node25 -->
<g id="node25" class="node">
<title>Node25</title>
<g id="a_node25"><a xlink:title=" ">
<polygon fill="#ffffff" stroke="#bfbfbf" points="173.5,-.5 173.5,-19.5 225.5,-19.5 225.5,-.5 173.5,-.5"/>
<text text-anchor="middle" x="199.5" y="-7.5" font-family="Helvetica,sans-Serif" font-size="10.00" fill="#000000">unistd.h</text>
</a>
</g>
</g>
<!-- Node16&#45;&gt;Node25 -->
<g id="edge24" class="edge">
<title>Node16&#45;&gt;Node25</title>
<path fill="none" stroke="#191970" d="M541.7014,-57.7113C538.5968,-57.0938 535.4976,-56.5129 532.5,-56 404.2136,-34.0519 367.0696,-45.7983 235.7985,-19.9947"/>
<polygon fill="#191970" stroke="#191970" points="236.2561,-16.5169 225.7636,-17.9858 234.882,-23.3807 236.2561,-16.5169"/>
</g>
<!-- Node26 -->
<g id="node26" class="node">
<title>Node26</title>
<g id="a_node26"><a xlink:title=" ">
<polygon fill="#ffffff" stroke="#bfbfbf" points="244,-.5 244,-19.5 295,-19.5 295,-.5 244,-.5"/>
<text text-anchor="middle" x="269.5" y="-7.5" font-family="Helvetica,sans-Serif" font-size="10.00" fill="#000000">signal.h</text>
</a>
</g>
</g>
<!-- Node16&#45;&gt;Node26 -->
<g id="edge25" class="edge">
<title>Node16&#45;&gt;Node26</title>
<path fill="none" stroke="#191970" d="M541.6801,-57.8297C538.5801,-57.1865 535.4878,-56.5673 532.5,-56 434.8615,-37.4615 406.4348,-41.8271 305.065,-19.8873"/>
<polygon fill="#191970" stroke="#191970" points="305.5408,-16.4084 295.0226,-17.6804 304.0382,-23.2453 305.5408,-16.4084"/>
</g>
<!-- Node27 -->
<g id="node27" class="node">
<title>Node27</title>
<g id="a_node27"><a xlink:title=" ">
<polygon fill="#ffffff" stroke="#bfbfbf" points="990.5,-.5 990.5,-19.5 1042.5,-19.5 1042.5,-.5 990.5,-.5"/>
<text text-anchor="middle" x="1016.5" y="-7.5" font-family="Helvetica,sans-Serif" font-size="10.00" fill="#000000">assert.h</text>
</a>
</g>
</g>
<!-- Node16&#45;&gt;Node27 -->
<g id="edge26" class="edge">
<title>Node16&#45;&gt;Node27</title>
<path fill="none" stroke="#191970" d="M613.206,-58.4255C617.9988,-57.5359 622.8604,-56.6982 627.5,-56 780.6767,-32.9481 824.4124,-49.1442 980.3057,-19.9353"/>
<polygon fill="#191970" stroke="#191970" points="981.0794,-23.3509 990.2471,-18.0401 979.7686,-16.4747 981.0794,-23.3509"/>
</g>
<!-- Node28 -->
<g id="node28" class="node">
<title>Node28</title>
<g id="a_node28"><a xlink:title=" ">
<polygon fill="#ffffff" stroke="#bfbfbf" points="928.5,-.5 928.5,-19.5 972.5,-19.5 972.5,-.5 928.5,-.5"/>
<text text-anchor="middle" x="950.5" y="-7.5" font-family="Helvetica,sans-Serif" font-size="10.00" fill="#000000">vector</text>
</a>
</g>
</g>
<!-- Node16&#45;&gt;Node28 -->
<g id="edge28" class="edge">
<title>Node16&#45;&gt;Node28</title>
<path fill="none" stroke="#191970" d="M613.2206,-58.5187C618.0111,-57.6143 622.8681,-56.7476 627.5,-56 753.4379,-35.6721 790.0403,-47.5819 918.4704,-19.8773"/>
<polygon fill="#191970" stroke="#191970" points="919.271,-23.2849 928.2877,-17.7218 917.7697,-16.4478 919.271,-23.2849"/>
</g>
<!-- Node29 -->
<g id="node29" class="node">
<title>Node29</title>
<g id="a_node29"><a xlink:title=" ">
<polygon fill="#ffffff" stroke="#bfbfbf" points="313.5,-.5 313.5,-19.5 359.5,-19.5 359.5,-.5 313.5,-.5"/>
<text text-anchor="middle" x="336.5" y="-7.5" font-family="Helvetica,sans-Serif" font-size="10.00" fill="#000000">stdio.h</text>
</a>
</g>
</g>
<!-- Node16&#45;&gt;Node29 -->
<g id="edge29" class="edge">
<title>Node16&#45;&gt;Node29</title>
<path fill="none" stroke="#191970" d="M541.6405,-58.0225C538.5491,-57.3374 535.4696,-56.6559 532.5,-56 462.6206,-40.566 442.2758,-39.2353 369.1791,-20.017"/>
<polygon fill="#191970" stroke="#191970" points="370.0657,-16.6312 359.5026,-17.4504 368.271,-23.3972 370.0657,-16.6312"/>
</g>
<!-- Node30&#45;&gt;Node14 -->
<g id="edge31" class="edge">
<title>Node30&#45;&gt;Node14</title>
<path fill="none" stroke="#191970" d="M1250.4061,-168.4862C1252.9353,-141.9293 1260.1128,-66.5651 1263.5795,-30.1655"/>
<polygon fill="#191970" stroke="#191970" points="1267.1001,-30.1147 1264.564,-19.8279 1260.1316,-29.451 1267.1001,-30.1147"/>
</g>
<!-- Node31&#45;&gt;Node13 -->
<g id="edge37" class="edge">
<title>Node31&#45;&gt;Node13</title>
<path fill="none" stroke="#191970" d="M1148.2167,-56.2455C1135.753,-47.7337 1117.4549,-35.2375 1103.0208,-25.3801"/>
<polygon fill="#191970" stroke="#191970" points="1104.8515,-22.392 1094.6196,-19.6427 1100.9038,-28.1726 1104.8515,-22.392"/>
</g>
<!-- Node31&#45;&gt;Node14 -->
<g id="edge35" class="edge">
<title>Node31&#45;&gt;Node14</title>
<path fill="none" stroke="#191970" d="M1180.4412,-56.2455C1196.54,-47.4928 1220.3879,-34.527 1238.7391,-24.5496"/>
<polygon fill="#191970" stroke="#191970" points="1240.6507,-27.4942 1247.7644,-19.6427 1237.3071,-21.3444 1240.6507,-27.4942"/>
</g>
<!-- Node31&#45;&gt;Node27 -->
<g id="edge34" class="edge">
<title>Node31&#45;&gt;Node27</title>
<path fill="none" stroke="#191970" d="M1137.4017,-56.3733C1113.5445,-47.2226 1077.4665,-33.3844 1050.929,-23.2057"/>
<polygon fill="#191970" stroke="#191970" points="1051.861,-19.8145 1041.2708,-19.5011 1049.3541,-26.3503 1051.861,-19.8145"/>
</g>
<!-- Node31&#45;&gt;Node28 -->
<g id="edge36" class="edge">
<title>Node31&#45;&gt;Node28</title>
<path fill="none" stroke="#191970" d="M1125.2236,-57.2551C1090.5789,-48.9661 1037.3418,-35.8206 982.6607,-20.216"/>
<polygon fill="#191970" stroke="#191970" points="983.3773,-16.7803 972.7994,-17.3792 981.442,-23.5075 983.3773,-16.7803"/>
</g>
<!-- Node32 -->
<g id="node32" class="node">
<title>Node32</title>
<g id="a_node32"><a xlink:title=" ">
<polygon fill="#ffffff" stroke="#bfbfbf" points="1175,-.5 1175,-19.5 1220,-19.5 1220,-.5 1175,-.5"/>
<text text-anchor="middle" x="1197.5" y="-7.5" font-family="Helvetica,sans-Serif" font-size="10.00" fill="#000000">cstdlib</text>
</a>
</g>
</g>
<!-- Node31&#45;&gt;Node32 -->
<g id="edge33" class="edge">
<title>Node31&#45;&gt;Node32</title>
<path fill="none" stroke="#191970" d="M1168.5965,-56.2455C1173.4145,-48.5367 1180.2751,-37.5598 1186.1032,-28.2348"/>
<polygon fill="#191970" stroke="#191970" points="1189.1413,-29.9777 1191.4733,-19.6427 1183.2053,-26.2677 1189.1413,-29.9777"/>
</g>
<!-- Node33 -->
<g id="node33" class="node">
<title>Node33</title>
<g id="a_node33"><a xlink:title=" ">
<polygon fill="#ffffff" stroke="#bfbfbf" points="1118,-.5 1118,-19.5 1157,-19.5 1157,-.5 1118,-.5"/>
<text text-anchor="middle" x="1137.5" y="-7.5" font-family="Helvetica,sans-Serif" font-size="10.00" fill="#000000">limits</text>
</a>
</g>
</g>
<!-- Node31&#45;&gt;Node33 -->
<g id="edge38" class="edge">
<title>Node31&#45;&gt;Node33</title>
<path fill="none" stroke="#191970" d="M1158.1453,-56.2455C1154.7756,-48.6973 1150.007,-38.0158 1145.9017,-28.8197"/>
<polygon fill="#191970" stroke="#191970" points="1149.0773,-27.3473 1141.8048,-19.6427 1142.6853,-30.2009 1149.0773,-27.3473"/>
</g>
</g>
</svg>
