<?xml version="1.0" encoding="UTF-8" standalone="no"?>
<!DOCTYPE svg PUBLIC "-//W3C//DTD SVG 1.1//EN"
 "http://www.w3.org/Graphics/SVG/1.1/DTD/svg11.dtd">
<!-- Generated by graphviz version 2.40.1 (20161225.0304)
 -->
<!-- Title: occupation_matrix.cpp Pages: 1 -->
<!--zoomable 319 -->
<svg id="main" version="1.1" xmlns="http://www.w3.org/2000/svg" xmlns:xlink="http://www.w3.org/1999/xlink" xml:space="preserve" onload="init(evt)">
<style type="text/css"><![CDATA[
.edge:hover path { stroke: red; }
.edge:hover polygon { stroke: red; fill: red; }
]]></style>
<script type="text/javascript"><![CDATA[
var edges = document.getElementsByTagName('g');
if (edges && edges.length) {
  for (var i=0;i<edges.length;i++) {
    if (edges[i].id.substr(0,4)=='edge') {
      edges[i].setAttribute('class','edge');
    }
  }
}
]]></script>
        <defs>
                <circle id="rim" cx="0" cy="0" r="7"/>
                <circle id="rim2" cx="0" cy="0" r="3.5"/>
                <g id="zoomPlus">
                        <use xlink:href="#rim" fill="#404040">
                                <set attributeName="fill" to="#808080" begin="zoomplus.mouseover" end="zoomplus.mouseout"/>
                        </use>
                        <path d="M-4,0h8M0,-4v8" fill="none" stroke="white" stroke-width="1.5" pointer-events="none"/>
                </g>
                <g id="zoomMin">
                        <use xlink:href="#rim" fill="#404040">
                                <set attributeName="fill" to="#808080" begin="zoomminus.mouseover" end="zoomminus.mouseout"/>
                        </use>
                        <path d="M-4,0h8" fill="none" stroke="white" stroke-width="1.5" pointer-events="none"/>
                </g>
                <g id="dirArrow">
                        <path fill="none" stroke="white" stroke-width="1.5" d="M0,-3.0v7 M-2.5,-0.5L0,-3.0L2.5,-0.5"/>
                </g>
               <g id="resetDef">
                       <use xlink:href="#rim2" fill="#404040">
                               <set attributeName="fill" to="#808080" begin="reset.mouseover" end="reset.mouseout"/>
                       </use>
               </g>
        </defs>

<script type="text/javascript">
var viewWidth = 1793;
var viewHeight = 319;
var sectionId = 'dynsection-0';
</script>
<script xlink:href="../../svgpan.js"/>
<svg id="graph" class="graph">
<g id="viewport">
<title>occupation_matrix.cpp</title>
<polygon fill="#ffffff" stroke="transparent" points="-4,4 -4,-315 1788.8111,-315 1788.8111,4 -4,4"/>
<!-- Node1 -->
<g id="node1" class="node">
<title>Node1</title>
<g id="a_node1"><a xlink:title="Occupation matrix of the LDA+U method.">
<polygon fill="#bfbfbf" stroke="#000000" points="643.5,-291.5 643.5,-310.5 760.5,-310.5 760.5,-291.5 643.5,-291.5"/>
<text text-anchor="middle" x="702" y="-298.5" font-family="Helvetica,sans-Serif" font-size="10.00" fill="#000000">occupation_matrix.cpp</text>
</a>
</g>
</g>
<!-- Node2 -->
<g id="node2" class="node">
<title>Node2</title>
<g id="a_node2"><a xlink:href="../../d0/d16/occupation__matrix_8hpp.html" target="_top" xlink:title="Occupation matrix of the LDA+U method.">
<polygon fill="#ffffff" stroke="#000000" points="600.5,-235.5 600.5,-254.5 717.5,-254.5 717.5,-235.5 600.5,-235.5"/>
<text text-anchor="middle" x="659" y="-242.5" font-family="Helvetica,sans-Serif" font-size="10.00" fill="#000000">occupation_matrix.hpp</text>
</a>
</g>
</g>
<!-- Node1&#45;&gt;Node2 -->
<g id="edge1" class="edge">
<title>Node1&#45;&gt;Node2</title>
<path fill="none" stroke="#191970" d="M694.51,-291.2455C688.4674,-283.3761 679.8097,-272.101 672.5559,-262.6542"/>
<polygon fill="#191970" stroke="#191970" points="675.2705,-260.4426 666.4042,-254.6427 669.7185,-264.7058 675.2705,-260.4426"/>
</g>
<!-- Node124 -->
<g id="node38" class="node">
<title>Node124</title>
<g id="a_node38"><a xlink:href="../../d7/dce/crystal__symmetry_8hpp.html" target="_top" xlink:title="Contains definition and partial implementation of sirius::Crystal_symmetry class.">
<polygon fill="#ffffff" stroke="#000000" points="1255,-179.5 1255,-198.5 1415,-198.5 1415,-179.5 1255,-179.5"/>
<text text-anchor="middle" x="1335" y="-186.5" font-family="Helvetica,sans-Serif" font-size="10.00" fill="#000000">symmetry/crystal_symmetry.hpp</text>
</a>
</g>
</g>
<!-- Node1&#45;&gt;Node124 -->
<g id="edge45" class="edge">
<title>Node1&#45;&gt;Node124</title>
<path fill="none" stroke="#191970" d="M755.6962,-291.4993C871.8396,-270.9494 1145.9781,-222.4446 1270.9301,-200.3362"/>
<polygon fill="#191970" stroke="#191970" points="1271.8704,-203.7243 1281.1076,-198.5355 1270.6508,-196.8314 1271.8704,-203.7243"/>
</g>
<!-- Node3 -->
<g id="node3" class="node">
<title>Node3</title>
<g id="a_node3"><a xlink:href="../../da/d3e/memory_8hpp.html" target="_top" xlink:title="Memory management functions and classes.">
<polygon fill="#ffffff" stroke="#000000" points="754.5,-118 754.5,-137 857.5,-137 857.5,-118 754.5,-118"/>
<text text-anchor="middle" x="806" y="-125" font-family="Helvetica,sans-Serif" font-size="10.00" fill="#000000">SDDK/memory.hpp</text>
</a>
</g>
</g>
<!-- Node2&#45;&gt;Node3 -->
<g id="edge2" class="edge">
<title>Node2&#45;&gt;Node3</title>
<path fill="none" stroke="#191970" d="M680.3752,-235.3781C697.6429,-227.066 722.0959,-214.0418 741,-199 760.9721,-183.1085 780.1628,-160.8524 792.447,-145.4094"/>
<polygon fill="#191970" stroke="#191970" points="795.4539,-147.2445 798.8353,-137.2037 789.9304,-142.9443 795.4539,-147.2445"/>
</g>
<!-- Node28 -->
<g id="node28" class="node">
<title>Node28</title>
<g id="a_node28"><a xlink:href="../../dc/d17/wf__inner_8hpp.html" target="_top" xlink:title="Contains implementation of inner product for wave&#45;functions.">
<polygon fill="#ffffff" stroke="#000000" points="149,-179.5 149,-198.5 253,-198.5 253,-179.5 149,-179.5"/>
<text text-anchor="middle" x="201" y="-186.5" font-family="Helvetica,sans-Serif" font-size="10.00" fill="#000000">SDDK/wf_inner.hpp</text>
</a>
</g>
</g>
<!-- Node2&#45;&gt;Node28 -->
<g id="edge28" class="edge">
<title>Node2&#45;&gt;Node28</title>
<path fill="none" stroke="#191970" d="M600.0621,-237.7936C513.378,-227.1947 352.2145,-207.4891 263.526,-196.6451"/>
<polygon fill="#191970" stroke="#191970" points="263.6923,-193.1395 253.3414,-195.3998 262.8427,-200.0877 263.6923,-193.1395"/>
</g>
<!-- Node77 -->
<g id="node32" class="node">
<title>Node77</title>
<g id="a_node32"><a xlink:href="../../d3/d9a/k__point_8hpp.html" target="_top" xlink:title="Contains definition of sirius::K_point class.">
<polygon fill="#ffffff" stroke="#000000" points="424.5,-179.5 424.5,-198.5 527.5,-198.5 527.5,-179.5 424.5,-179.5"/>
<text text-anchor="middle" x="476" y="-186.5" font-family="Helvetica,sans-Serif" font-size="10.00" fill="#000000">k_point/k_point.hpp</text>
</a>
</g>
</g>
<!-- Node2&#45;&gt;Node77 -->
<g id="edge33" class="edge">
<title>Node2&#45;&gt;Node77</title>
<path fill="none" stroke="#191970" d="M627.5412,-235.3733C596.9793,-226.021 550.4174,-211.7725 516.9739,-201.5385"/>
<polygon fill="#191970" stroke="#191970" points="517.6348,-198.0806 507.0483,-198.5011 515.5864,-204.7742 517.6348,-198.0806"/>
</g>
<!-- Node123 -->
<g id="node36" class="node">
<title>Node123</title>
<g id="a_node36"><a xlink:href="../../da/da9/hubbard__matrix_8hpp.html" target="_top" xlink:title="Base class for Hubbard occupancy and potential matrices.">
<polygon fill="#ffffff" stroke="#000000" points="586.5,-179.5 586.5,-198.5 731.5,-198.5 731.5,-179.5 586.5,-179.5"/>
<text text-anchor="middle" x="659" y="-186.5" font-family="Helvetica,sans-Serif" font-size="10.00" fill="#000000">hubbard/hubbard_matrix.hpp</text>
</a>
</g>
</g>
<!-- Node2&#45;&gt;Node123 -->
<g id="edge38" class="edge">
<title>Node2&#45;&gt;Node123</title>
<path fill="none" stroke="#191970" d="M659,-235.2455C659,-227.9382 659,-217.6944 659,-208.7046"/>
<polygon fill="#191970" stroke="#191970" points="662.5001,-208.6426 659,-198.6427 655.5001,-208.6427 662.5001,-208.6426"/>
</g>
<!-- Node4 -->
<g id="node4" class="node">
<title>Node4</title>
<g id="a_node4"><a xlink:title=" ">
<polygon fill="#ffffff" stroke="#bfbfbf" points="1177.5,-.5 1177.5,-19.5 1206.5,-19.5 1206.5,-.5 1177.5,-.5"/>
<text text-anchor="middle" x="1192" y="-7.5" font-family="Helvetica,sans-Serif" font-size="10.00" fill="#000000">list</text>
</a>
</g>
</g>
<!-- Node3&#45;&gt;Node4 -->
<g id="edge3" class="edge">
<title>Node3&#45;&gt;Node4</title>
<path fill="none" stroke="#191970" d="M825.7913,-117.9231C846.9385,-107.6597 881.4177,-90.8384 911,-76 928.412,-67.2662 931.5768,-62.3278 950,-56 1026.8111,-29.6176 1122.8343,-17.0635 1167.2966,-12.3397"/>
<polygon fill="#191970" stroke="#191970" points="1167.8537,-15.8011 1177.4467,-11.3037 1167.1429,-8.8373 1167.8537,-15.8011"/>
</g>
<!-- Node5 -->
<g id="node5" class="node">
<title>Node5</title>
<g id="a_node5"><a xlink:title=" ">
<polygon fill="#ffffff" stroke="#bfbfbf" points="440.5,-56.5 440.5,-75.5 495.5,-75.5 495.5,-56.5 440.5,-56.5"/>
<text text-anchor="middle" x="468" y="-63.5" font-family="Helvetica,sans-Serif" font-size="10.00" fill="#000000">iostream</text>
</a>
</g>
</g>
<!-- Node3&#45;&gt;Node5 -->
<g id="edge4" class="edge">
<title>Node3&#45;&gt;Node5</title>
<path fill="none" stroke="#191970" d="M754.2396,-118.4406C742.0294,-116.3159 729.0573,-114.0688 717,-112 625.5155,-96.3027 599.427,-96.8213 505.7341,-76.2361"/>
<polygon fill="#191970" stroke="#191970" points="506.3571,-72.7892 495.8363,-74.039 504.8402,-79.6229 506.3571,-72.7892"/>
</g>
<!-- Node6 -->
<g id="node6" class="node">
<title>Node6</title>
<g id="a_node6"><a xlink:title=" ">
<polygon fill="#ffffff" stroke="#bfbfbf" points="788,-56.5 788,-75.5 824,-75.5 824,-56.5 788,-56.5"/>
<text text-anchor="middle" x="806" y="-63.5" font-family="Helvetica,sans-Serif" font-size="10.00" fill="#000000">map</text>
</a>
</g>
</g>
<!-- Node3&#45;&gt;Node6 -->
<g id="edge5" class="edge">
<title>Node3&#45;&gt;Node6</title>
<path fill="none" stroke="#191970" d="M806,-117.8906C806,-109.3657 806,-96.6392 806,-85.9235"/>
<polygon fill="#191970" stroke="#191970" points="809.5001,-85.7448 806,-75.7449 802.5001,-85.7449 809.5001,-85.7448"/>
</g>
<!-- Node7 -->
<g id="node7" class="node">
<title>Node7</title>
<g id="a_node7"><a xlink:title=" ">
<polygon fill="#ffffff" stroke="#bfbfbf" points="602.5,-56.5 602.5,-75.5 655.5,-75.5 655.5,-56.5 602.5,-56.5"/>
<text text-anchor="middle" x="629" y="-63.5" font-family="Helvetica,sans-Serif" font-size="10.00" fill="#000000">memory</text>
</a>
</g>
</g>
<!-- Node3&#45;&gt;Node7 -->
<g id="edge6" class="edge">
<title>Node3&#45;&gt;Node7</title>
<path fill="none" stroke="#191970" d="M778.3438,-117.8906C747.9445,-107.3282 698.9817,-90.3157 665.4632,-78.6694"/>
<polygon fill="#191970" stroke="#191970" points="666.1893,-75.2165 655.5944,-75.2404 663.8917,-81.8287 666.1893,-75.2165"/>
</g>
<!-- Node8 -->
<g id="node8" class="node">
<title>Node8</title>
<g id="a_node8"><a xlink:title=" ">
<polygon fill="#ffffff" stroke="#bfbfbf" points="1026,-56.5 1026,-75.5 1072,-75.5 1072,-56.5 1026,-56.5"/>
<text text-anchor="middle" x="1049" y="-63.5" font-family="Helvetica,sans-Serif" font-size="10.00" fill="#000000">cstring</text>
</a>
</g>
</g>
<!-- Node3&#45;&gt;Node8 -->
<g id="edge7" class="edge">
<title>Node3&#45;&gt;Node8</title>
<path fill="none" stroke="#191970" d="M848.6406,-117.9301C889.3185,-108.6139 952.5072,-93.6585 1016.174,-76.1084"/>
<polygon fill="#191970" stroke="#191970" points="1017.2808,-79.4336 1025.9798,-73.3855 1015.4079,-72.6888 1017.2808,-79.4336"/>
</g>
<!-- Node9 -->
<g id="node9" class="node">
<title>Node9</title>
<g id="a_node9"><a xlink:title=" ">
<polygon fill="#ffffff" stroke="#bfbfbf" points="842.5,-56.5 842.5,-75.5 901.5,-75.5 901.5,-56.5 842.5,-56.5"/>
<text text-anchor="middle" x="872" y="-63.5" font-family="Helvetica,sans-Serif" font-size="10.00" fill="#000000">functional</text>
</a>
</g>
</g>
<!-- Node3&#45;&gt;Node9 -->
<g id="edge8" class="edge">
<title>Node3&#45;&gt;Node9</title>
<path fill="none" stroke="#191970" d="M816.3125,-117.8906C826.4242,-108.4683 842.0442,-93.9134 854.1707,-82.6137"/>
<polygon fill="#191970" stroke="#191970" points="856.612,-85.1228 861.5421,-75.7449 851.8399,-80.0015 856.612,-85.1228"/>
</g>
<!-- Node10 -->
<g id="node10" class="node">
<title>Node10</title>
<g id="a_node10"><a xlink:title=" ">
<polygon fill="#ffffff" stroke="#bfbfbf" points="674,-56.5 674,-75.5 732,-75.5 732,-56.5 674,-56.5"/>
<text text-anchor="middle" x="703" y="-63.5" font-family="Helvetica,sans-Serif" font-size="10.00" fill="#000000">algorithm</text>
</a>
</g>
</g>
<!-- Node3&#45;&gt;Node10 -->
<g id="edge9" class="edge">
<title>Node3&#45;&gt;Node10</title>
<path fill="none" stroke="#191970" d="M789.9063,-117.8906C773.2772,-107.9616 747.1024,-92.333 727.8206,-80.8201"/>
<polygon fill="#191970" stroke="#191970" points="729.361,-77.6634 718.9807,-75.5419 725.7724,-83.6736 729.361,-77.6634"/>
</g>
<!-- Node11 -->
<g id="node11" class="node">
<title>Node11</title>
<g id="a_node11"><a xlink:title=" ">
<polygon fill="#ffffff" stroke="#bfbfbf" points="1090.5,-56.5 1090.5,-75.5 1129.5,-75.5 1129.5,-56.5 1090.5,-56.5"/>
<text text-anchor="middle" x="1110" y="-63.5" font-family="Helvetica,sans-Serif" font-size="10.00" fill="#000000">array</text>
</a>
</g>
</g>
<!-- Node3&#45;&gt;Node11 -->
<g id="edge10" class="edge">
<title>Node3&#45;&gt;Node11</title>
<path fill="none" stroke="#191970" d="M857.6932,-120.1421C911.2246,-112.0053 997.3523,-97.4697 1080.593,-75.7823"/>
<polygon fill="#191970" stroke="#191970" points="1081.6914,-79.1123 1090.4647,-73.1726 1079.9023,-72.3448 1081.6914,-79.1123"/>
</g>
<!-- Node12 -->
<g id="node12" class="node">
<title>Node12</title>
<g id="a_node12"><a xlink:title=" ">
<polygon fill="#ffffff" stroke="#bfbfbf" points="929,-.5 929,-19.5 983,-19.5 983,-.5 929,-.5"/>
<text text-anchor="middle" x="956" y="-7.5" font-family="Helvetica,sans-Serif" font-size="10.00" fill="#000000">complex</text>
</a>
</g>
</g>
<!-- Node3&#45;&gt;Node12 -->
<g id="edge11" class="edge">
<title>Node3&#45;&gt;Node12</title>
<path fill="none" stroke="#191970" d="M796.8227,-117.8116C784.0823,-103.1642 764.186,-75.0716 779,-56 816.8156,-7.3162 853.8624,-33.863 919.0624,-19.9554"/>
<polygon fill="#191970" stroke="#191970" points="919.9831,-23.3339 928.8898,-17.5962 918.349,-16.5273 919.9831,-23.3339"/>
</g>
<!-- Node13 -->
<g id="node13" class="node">
<title>Node13</title>
<g id="a_node13"><a xlink:title=" ">
<polygon fill="#ffffff" stroke="#bfbfbf" points="958.5,-56.5 958.5,-75.5 1007.5,-75.5 1007.5,-56.5 958.5,-56.5"/>
<text text-anchor="middle" x="983" y="-63.5" font-family="Helvetica,sans-Serif" font-size="10.00" fill="#000000">cassert</text>
</a>
</g>
</g>
<!-- Node3&#45;&gt;Node13 -->
<g id="edge12" class="edge">
<title>Node3&#45;&gt;Node13</title>
<path fill="none" stroke="#191970" d="M833.6563,-117.8906C864.6723,-107.1139 915.0128,-89.6227 948.5576,-77.9673"/>
<polygon fill="#191970" stroke="#191970" points="950.0916,-81.1396 958.3889,-74.5513 947.7941,-74.5274 950.0916,-81.1396"/>
</g>
<!-- Node14 -->
<g id="node14" class="node">
<title>Node14</title>
<g id="a_node14"><a xlink:href="../../d4/d86/acc_8hpp.html" target="_top" xlink:title="Interface to accelerators API.">
<polygon fill="#ffffff" stroke="#000000" points="513.5,-56.5 513.5,-75.5 584.5,-75.5 584.5,-56.5 513.5,-56.5"/>
<text text-anchor="middle" x="549" y="-63.5" font-family="Helvetica,sans-Serif" font-size="10.00" fill="#000000">gpu/acc.hpp</text>
</a>
</g>
</g>
<!-- Node3&#45;&gt;Node14 -->
<g id="edge13" class="edge">
<title>Node3&#45;&gt;Node14</title>
<path fill="none" stroke="#191970" d="M766.1257,-117.9581C719.7931,-106.8707 643.4889,-88.6112 594.7748,-76.9539"/>
<polygon fill="#191970" stroke="#191970" points="595.3592,-73.495 584.8192,-74.5715 593.7301,-80.3028 595.3592,-73.495"/>
</g>
<!-- Node14&#45;&gt;Node12 -->
<g id="edge25" class="edge">
<title>Node14&#45;&gt;Node12</title>
<path fill="none" stroke="#191970" d="M584.7929,-57.6779C587.8988,-57.0676 590.9998,-56.4975 594,-56 734.5759,-32.6895 775.0589,-46.9226 918.9026,-19.9337"/>
<polygon fill="#191970" stroke="#191970" points="919.8188,-23.322 928.984,-18.007 918.5048,-16.4464 919.8188,-23.322"/>
</g>
<!-- Node15 -->
<g id="node15" class="node">
<title>Node15</title>
<g id="a_node15"><a xlink:title=" ">
<polygon fill="#ffffff" stroke="#bfbfbf" points="590.5,-.5 590.5,-19.5 675.5,-19.5 675.5,-.5 590.5,-.5"/>
<text text-anchor="middle" x="633" y="-7.5" font-family="Helvetica,sans-Serif" font-size="10.00" fill="#000000">cuda_runtime.h</text>
</a>
</g>
</g>
<!-- Node14&#45;&gt;Node15 -->
<g id="edge14" class="edge">
<title>Node14&#45;&gt;Node15</title>
<path fill="none" stroke="#191970" d="M563.6317,-56.2455C576.3994,-47.7337 595.1438,-35.2375 609.9299,-25.3801"/>
<polygon fill="#191970" stroke="#191970" points="612.1569,-28.1019 618.536,-19.6427 608.274,-22.2775 612.1569,-28.1019"/>
</g>
<!-- Node16 -->
<g id="node16" class="node">
<title>Node16</title>
<g id="a_node16"><a xlink:title=" ">
<polygon fill="#ffffff" stroke="#bfbfbf" points="693.5,-.5 693.5,-19.5 740.5,-19.5 740.5,-.5 693.5,-.5"/>
<text text-anchor="middle" x="717" y="-7.5" font-family="Helvetica,sans-Serif" font-size="10.00" fill="#000000">cuda.h</text>
</a>
</g>
</g>
<!-- Node14&#45;&gt;Node16 -->
<g id="edge15" class="edge">
<title>Node14&#45;&gt;Node16</title>
<path fill="none" stroke="#191970" d="M577.8802,-56.3733C607.2123,-46.5959 652.5987,-31.4671 683.4941,-21.1686"/>
<polygon fill="#191970" stroke="#191970" points="684.992,-24.3587 693.372,-17.876 682.7784,-17.7179 684.992,-24.3587"/>
</g>
<!-- Node17 -->
<g id="node17" class="node">
<title>Node17</title>
<g id="a_node17"><a xlink:title=" ">
<polygon fill="#ffffff" stroke="#bfbfbf" points="759,-.5 759,-19.5 829,-19.5 829,-.5 759,-.5"/>
<text text-anchor="middle" x="794" y="-7.5" font-family="Helvetica,sans-Serif" font-size="10.00" fill="#000000">cublas_v2.h</text>
</a>
</g>
</g>
<!-- Node14&#45;&gt;Node17 -->
<g id="edge16" class="edge">
<title>Node14&#45;&gt;Node17</title>
<path fill="none" stroke="#191970" d="M584.6251,-57.8571C628.0237,-47.9374 701.3939,-31.1671 748.7479,-20.3433"/>
<polygon fill="#191970" stroke="#191970" points="749.7607,-23.7022 758.7294,-18.0619 748.2009,-16.8782 749.7607,-23.7022"/>
</g>
<!-- Node18 -->
<g id="node18" class="node">
<title>Node18</title>
<g id="a_node18"><a xlink:title=" ">
<polygon fill="#ffffff" stroke="#bfbfbf" points="847.5,-.5 847.5,-19.5 910.5,-19.5 910.5,-.5 847.5,-.5"/>
<text text-anchor="middle" x="879" y="-7.5" font-family="Helvetica,sans-Serif" font-size="10.00" fill="#000000">cublasXt.h</text>
</a>
</g>
</g>
<!-- Node14&#45;&gt;Node18 -->
<g id="edge17" class="edge">
<title>Node14&#45;&gt;Node18</title>
<path fill="none" stroke="#191970" d="M584.8138,-57.7968C587.9151,-57.1607 591.0094,-56.5522 594,-56 698.6384,-36.6803 728.6691,-40.7434 837.2316,-19.9924"/>
<polygon fill="#191970" stroke="#191970" points="838.1289,-23.3837 847.28,-18.0444 836.7967,-16.5116 838.1289,-23.3837"/>
</g>
<!-- Node19 -->
<g id="node19" class="node">
<title>Node19</title>
<g id="a_node19"><a xlink:title=" ">
<polygon fill="#ffffff" stroke="#bfbfbf" points="0,-.5 0,-19.5 102,-19.5 102,-.5 0,-.5"/>
<text text-anchor="middle" x="51" y="-7.5" font-family="Helvetica,sans-Serif" font-size="10.00" fill="#000000">cuda_profiler_api.h</text>
</a>
</g>
</g>
<!-- Node14&#45;&gt;Node19 -->
<g id="edge18" class="edge">
<title>Node14&#45;&gt;Node19</title>
<path fill="none" stroke="#191970" d="M513.2169,-57.617C510.1089,-57.02 507.0047,-56.4695 504,-56 333.9205,-29.423 286.6991,-41.9454 112.0679,-20.0468"/>
<polygon fill="#191970" stroke="#191970" points="112.3873,-16.5593 102.0251,-18.7674 111.5026,-23.5031 112.3873,-16.5593"/>
</g>
<!-- Node20 -->
<g id="node20" class="node">
<title>Node20</title>
<g id="a_node20"><a xlink:title=" ">
<polygon fill="#ffffff" stroke="#bfbfbf" points="120,-.5 120,-19.5 194,-19.5 194,-.5 120,-.5"/>
<text text-anchor="middle" x="157" y="-7.5" font-family="Helvetica,sans-Serif" font-size="10.00" fill="#000000">nvToolsExt.h</text>
</a>
</g>
</g>
<!-- Node14&#45;&gt;Node20 -->
<g id="edge19" class="edge">
<title>Node14&#45;&gt;Node20</title>
<path fill="none" stroke="#191970" d="M513.2021,-57.7074C510.0973,-57.0908 506.9979,-56.5111 504,-56 374.4275,-33.911 337.6495,-41.9162 204.2945,-20.0782"/>
<polygon fill="#191970" stroke="#191970" points="204.5374,-16.5706 194.0985,-18.3817 203.3884,-23.4756 204.5374,-16.5706"/>
</g>
<!-- Node21 -->
<g id="node21" class="node">
<title>Node21</title>
<g id="a_node21"><a xlink:title=" ">
<polygon fill="#ffffff" stroke="#bfbfbf" points="212.5,-.5 212.5,-19.5 287.5,-19.5 287.5,-.5 212.5,-.5"/>
<text text-anchor="middle" x="250" y="-7.5" font-family="Helvetica,sans-Serif" font-size="10.00" fill="#000000">cuComplex.h</text>
</a>
</g>
</g>
<!-- Node14&#45;&gt;Node21 -->
<g id="edge20" class="edge">
<title>Node14&#45;&gt;Node21</title>
<path fill="none" stroke="#191970" d="M513.1702,-57.8803C510.0724,-57.2261 506.9833,-56.5906 504,-56 415.5276,-38.4863 390.3846,-37.7508 297.7761,-20.0881"/>
<polygon fill="#191970" stroke="#191970" points="298.1658,-16.599 287.6848,-18.1478 296.844,-23.4731 298.1658,-16.599"/>
</g>
<!-- Node22 -->
<g id="node22" class="node">
<title>Node22</title>
<g id="a_node22"><a xlink:title=" ">
<polygon fill="#ffffff" stroke="#bfbfbf" points="306,-.5 306,-19.5 368,-19.5 368,-.5 306,-.5"/>
<text text-anchor="middle" x="337" y="-7.5" font-family="Helvetica,sans-Serif" font-size="10.00" fill="#000000">execinfo.h</text>
</a>
</g>
</g>
<!-- Node14&#45;&gt;Node22 -->
<g id="edge21" class="edge">
<title>Node14&#45;&gt;Node22</title>
<path fill="none" stroke="#191970" d="M513.0371,-56.5004C475.6533,-46.6254 417.2327,-31.1935 378.061,-20.8463"/>
<polygon fill="#191970" stroke="#191970" points="378.8579,-17.4368 368.2956,-18.2668 377.0701,-24.2047 378.8579,-17.4368"/>
</g>
<!-- Node23 -->
<g id="node23" class="node">
<title>Node23</title>
<g id="a_node23"><a xlink:title=" ">
<polygon fill="#ffffff" stroke="#bfbfbf" points="386,-.5 386,-19.5 438,-19.5 438,-.5 386,-.5"/>
<text text-anchor="middle" x="412" y="-7.5" font-family="Helvetica,sans-Serif" font-size="10.00" fill="#000000">unistd.h</text>
</a>
</g>
</g>
<!-- Node14&#45;&gt;Node23 -->
<g id="edge22" class="edge">
<title>Node14&#45;&gt;Node23</title>
<path fill="none" stroke="#191970" d="M525.4489,-56.3733C503.1609,-47.2629 469.5063,-33.5062 444.6363,-23.3404"/>
<polygon fill="#191970" stroke="#191970" points="445.8247,-20.0451 435.2438,-19.5011 443.1761,-26.5247 445.8247,-20.0451"/>
</g>
<!-- Node24 -->
<g id="node24" class="node">
<title>Node24</title>
<g id="a_node24"><a xlink:title=" ">
<polygon fill="#ffffff" stroke="#bfbfbf" points="456.5,-.5 456.5,-19.5 507.5,-19.5 507.5,-.5 456.5,-.5"/>
<text text-anchor="middle" x="482" y="-7.5" font-family="Helvetica,sans-Serif" font-size="10.00" fill="#000000">signal.h</text>
</a>
</g>
</g>
<!-- Node14&#45;&gt;Node24 -->
<g id="edge23" class="edge">
<title>Node14&#45;&gt;Node24</title>
<path fill="none" stroke="#191970" d="M537.3295,-56.2455C527.4339,-47.9746 513.0373,-35.9416 501.4099,-26.2232"/>
<polygon fill="#191970" stroke="#191970" points="503.4542,-23.3703 493.5368,-19.6427 498.965,-28.7413 503.4542,-23.3703"/>
</g>
<!-- Node25 -->
<g id="node25" class="node">
<title>Node25</title>
<g id="a_node25"><a xlink:title=" ">
<polygon fill="#ffffff" stroke="#bfbfbf" points="1037,-.5 1037,-19.5 1089,-19.5 1089,-.5 1037,-.5"/>
<text text-anchor="middle" x="1063" y="-7.5" font-family="Helvetica,sans-Serif" font-size="10.00" fill="#000000">assert.h</text>
</a>
</g>
</g>
<!-- Node14&#45;&gt;Node25 -->
<g id="edge24" class="edge">
<title>Node14&#45;&gt;Node25</title>
<path fill="none" stroke="#191970" d="M584.7826,-57.6133C587.8906,-57.0171 590.995,-56.4678 594,-56 769.4971,-28.679 815.5635,-40.3919 992,-20 1003.2451,-18.7003 1015.4602,-17.0622 1026.5373,-15.49"/>
<polygon fill="#191970" stroke="#191970" points="1027.3432,-18.91 1036.74,-14.0161 1026.3423,-11.9819 1027.3432,-18.91"/>
</g>
<!-- Node26 -->
<g id="node26" class="node">
<title>Node26</title>
<g id="a_node26"><a xlink:title=" ">
<polygon fill="#ffffff" stroke="#bfbfbf" points="1260,-.5 1260,-19.5 1304,-19.5 1304,-.5 1260,-.5"/>
<text text-anchor="middle" x="1282" y="-7.5" font-family="Helvetica,sans-Serif" font-size="10.00" fill="#000000">vector</text>
</a>
</g>
</g>
<!-- Node14&#45;&gt;Node26 -->
<g id="edge26" class="edge">
<title>Node14&#45;&gt;Node26</title>
<path fill="none" stroke="#191970" d="M584.7669,-57.5073C587.8784,-56.9341 590.9878,-56.4191 594,-56 868.2654,-17.8419 940.5917,-48.7719 1216,-20 1226.9789,-18.853 1238.9247,-17.1752 1249.5981,-15.5203"/>
<polygon fill="#191970" stroke="#191970" points="1250.443,-18.9298 1259.7644,-13.8936 1249.337,-12.0177 1250.443,-18.9298"/>
</g>
<!-- Node27 -->
<g id="node27" class="node">
<title>Node27</title>
<g id="a_node27"><a xlink:title=" ">
<polygon fill="#ffffff" stroke="#bfbfbf" points="526,-.5 526,-19.5 572,-19.5 572,-.5 526,-.5"/>
<text text-anchor="middle" x="549" y="-7.5" font-family="Helvetica,sans-Serif" font-size="10.00" fill="#000000">stdio.h</text>
</a>
</g>
</g>
<!-- Node14&#45;&gt;Node27 -->
<g id="edge27" class="edge">
<title>Node14&#45;&gt;Node27</title>
<path fill="none" stroke="#191970" d="M549,-56.2455C549,-48.9382 549,-38.6944 549,-29.7046"/>
<polygon fill="#191970" stroke="#191970" points="552.5001,-29.6426 549,-19.6427 545.5001,-29.6427 552.5001,-29.6426"/>
</g>
<!-- Node29 -->
<g id="node29" class="node">
<title>Node29</title>
<g id="a_node29"><a xlink:href="../../d7/de9/wave__functions_8hpp.html" target="_top" xlink:title="Contains declaration and implementation of Wave_functions class.">
<polygon fill="#ffffff" stroke="#ff0000" points="148.5,-118 148.5,-137 253.5,-137 253.5,-118 148.5,-118"/>
<text text-anchor="middle" x="201" y="-125" font-family="Helvetica,sans-Serif" font-size="10.00" fill="#000000">wave_functions.hpp</text>
</a>
</g>
</g>
<!-- Node28&#45;&gt;Node29 -->
<g id="edge29" class="edge">
<title>Node28&#45;&gt;Node29</title>
<path fill="none" stroke="#191970" d="M201,-179.3906C201,-170.8657 201,-158.1392 201,-147.4235"/>
<polygon fill="#191970" stroke="#191970" points="204.5001,-147.2448 201,-137.2449 197.5001,-147.2449 204.5001,-147.2448"/>
</g>
<!-- Node58 -->
<g id="node31" class="node">
<title>Node58</title>
<g id="a_node31"><a xlink:title=" ">
<polygon fill="#ffffff" stroke="#bfbfbf" points="84.5,-56.5 84.5,-75.5 159.5,-75.5 159.5,-56.5 84.5,-56.5"/>
<text text-anchor="middle" x="122" y="-63.5" font-family="Helvetica,sans-Serif" font-size="10.00" fill="#000000">spla/spla.hpp</text>
</a>
</g>
</g>
<!-- Node28&#45;&gt;Node58 -->
<g id="edge32" class="edge">
<title>Node28&#45;&gt;Node58</title>
<path fill="none" stroke="#191970" d="M181.5158,-179.4266C167.5458,-171.5536 149.4214,-159.0854 139,-143 127.8716,-125.8234 123.9432,-102.4486 122.6006,-85.9728"/>
<polygon fill="#191970" stroke="#191970" points="126.0861,-85.6163 122.0275,-75.8296 119.0973,-86.0112 126.0861,-85.6163"/>
</g>
<!-- Node29&#45;&gt;Node5 -->
<g id="edge31" class="edge">
<title>Node29&#45;&gt;Node5</title>
<path fill="none" stroke="#191970" d="M238.3262,-117.951C246.4475,-115.9343 255.0021,-113.8561 263,-112 334.3339,-95.4453 355.0986,-94.0589 430.2155,-76.0922"/>
<polygon fill="#191970" stroke="#191970" points="431.2597,-79.4408 440.1602,-73.6935 429.6183,-72.636 431.2597,-79.4408"/>
</g>
<!-- Node30 -->
<g id="node30" class="node">
<title>Node30</title>
<g id="a_node30"><a xlink:title=" ">
<polygon fill="#ffffff" stroke="#bfbfbf" points="178.5,-56.5 178.5,-75.5 223.5,-75.5 223.5,-56.5 178.5,-56.5"/>
<text text-anchor="middle" x="201" y="-63.5" font-family="Helvetica,sans-Serif" font-size="10.00" fill="#000000">cstdlib</text>
</a>
</g>
</g>
<!-- Node29&#45;&gt;Node30 -->
<g id="edge30" class="edge">
<title>Node29&#45;&gt;Node30</title>
<path fill="none" stroke="#191970" d="M201,-117.8906C201,-109.3657 201,-96.6392 201,-85.9235"/>
<polygon fill="#191970" stroke="#191970" points="204.5001,-85.7448 201,-75.7449 197.5001,-85.7449 204.5001,-85.7448"/>
</g>
<!-- Node77&#45;&gt;Node29 -->
<g id="edge36" class="edge">
<title>Node77&#45;&gt;Node29</title>
<path fill="none" stroke="#191970" d="M429.7836,-179.4681C386.574,-170.4501 320.2947,-156.3449 263,-143 258.2521,-141.8941 253.3077,-140.7113 248.374,-139.5105"/>
<polygon fill="#191970" stroke="#191970" points="248.8751,-136.0295 238.3285,-137.0392 247.2029,-142.8268 248.8751,-136.0295"/>
</g>
<!-- Node78 -->
<g id="node33" class="node">
<title>Node78</title>
<g id="a_node33"><a xlink:href="../../db/d47/matching__coefficients_8hpp.html" target="_top" xlink:title="Contains definition and partial implementation of sirius::Matching_coefficients class.">
<polygon fill="#ffffff" stroke="#ff0000" points="398.5,-118 398.5,-137 553.5,-137 553.5,-118 398.5,-118"/>
<text text-anchor="middle" x="476" y="-125" font-family="Helvetica,sans-Serif" font-size="10.00" fill="#000000">lapw/matching_coefficients.hpp</text>
</a>
</g>
</g>
<!-- Node77&#45;&gt;Node78 -->
<g id="edge34" class="edge">
<title>Node77&#45;&gt;Node78</title>
<path fill="none" stroke="#191970" d="M476,-179.3906C476,-170.8657 476,-158.1392 476,-147.4235"/>
<polygon fill="#191970" stroke="#191970" points="479.5001,-147.2448 476,-137.2449 472.5001,-147.2449 479.5001,-147.2448"/>
</g>
<!-- Node114 -->
<g id="node34" class="node">
<title>Node114</title>
<g id="a_node34"><a xlink:href="../../d0/d85/beta__projectors_8hpp.html" target="_top" xlink:title="Contains declaration and implementation of sirius::Beta_projectors class.">
<polygon fill="#ffffff" stroke="#ff0000" points="272,-112.5 272,-142.5 380,-142.5 380,-112.5 272,-112.5"/>
<text text-anchor="start" x="280" y="-130.5" font-family="Helvetica,sans-Serif" font-size="10.00" fill="#000000">beta_projectors/beta</text>
<text text-anchor="middle" x="326" y="-119.5" font-family="Helvetica,sans-Serif" font-size="10.00" fill="#000000">_projectors.hpp</text>
</a>
</g>
</g>
<!-- Node77&#45;&gt;Node114 -->
<g id="edge35" class="edge">
<title>Node77&#45;&gt;Node114</title>
<path fill="none" stroke="#191970" d="M452.5625,-179.3906C431.134,-170.6049 398.8212,-157.3567 372.2097,-146.446"/>
<polygon fill="#191970" stroke="#191970" points="373.2744,-143.0998 362.6941,-142.5446 370.6189,-149.5766 373.2744,-143.0998"/>
</g>
<!-- Node121 -->
<g id="node35" class="node">
<title>Node121</title>
<g id="a_node35"><a xlink:href="../../db/d53/fft_8hpp.html" target="_top" xlink:title="Contains helper functions for the interface with SpFFT library.">
<polygon fill="#ffffff" stroke="#ff0000" points="347.5,-56.5 347.5,-75.5 422.5,-75.5 422.5,-56.5 347.5,-56.5"/>
<text text-anchor="middle" x="385" y="-63.5" font-family="Helvetica,sans-Serif" font-size="10.00" fill="#000000">SDDK/fft.hpp</text>
</a>
</g>
</g>
<!-- Node77&#45;&gt;Node121 -->
<g id="edge37" class="edge">
<title>Node77&#45;&gt;Node121</title>
<path fill="none" stroke="#191970" d="M512.8184,-179.3966C531.3138,-172.5069 552.0673,-161.1473 563,-143 570.1098,-131.1984 571.436,-122.8932 563,-112 558.912,-106.7212 484.1081,-88.6877 432.7871,-76.8303"/>
<polygon fill="#191970" stroke="#191970" points="433.3942,-73.3786 422.864,-74.5468 431.8243,-80.2003 433.3942,-73.3786"/>
</g>
<!-- Node116 -->
<g id="node37" class="node">
<title>Node116</title>
<g id="a_node37"><a xlink:href="../../d1/db8/simulation__context_8hpp.html" target="_top" xlink:title="Contains definition and implementation of Simulation_context class.">
<polygon fill="#ffffff" stroke="#ff0000" points="610.5,-112.5 610.5,-142.5 707.5,-142.5 707.5,-112.5 610.5,-112.5"/>
<text text-anchor="start" x="618.5" y="-130.5" font-family="Helvetica,sans-Serif" font-size="10.00" fill="#000000">context/simulation</text>
<text text-anchor="middle" x="659" y="-119.5" font-family="Helvetica,sans-Serif" font-size="10.00" fill="#000000">_context.hpp</text>
</a>
</g>
</g>
<!-- Node123&#45;&gt;Node116 -->
<g id="edge39" class="edge">
<title>Node123&#45;&gt;Node116</title>
<path fill="none" stroke="#191970" d="M659,-179.3906C659,-172.2234 659,-162.0862 659,-152.671"/>
<polygon fill="#191970" stroke="#191970" points="662.5001,-152.5446 659,-142.5446 655.5001,-152.5446 662.5001,-152.5446"/>
</g>
<!-- Node116&#45;&gt;Node7 -->
<g id="edge41" class="edge">
<title>Node116&#45;&gt;Node7</title>
<path fill="none" stroke="#191970" d="M651.5843,-112.2977C647.5501,-104.0277 642.5227,-93.7215 638.236,-84.9339"/>
<polygon fill="#191970" stroke="#191970" points="641.3334,-83.3001 633.8034,-75.8469 635.042,-86.3691 641.3334,-83.3001"/>
</g>
<!-- Node116&#45;&gt;Node10 -->
<g id="edge40" class="edge">
<title>Node116&#45;&gt;Node10</title>
<path fill="none" stroke="#191970" d="M669.8764,-112.2977C675.9841,-103.7609 683.6439,-93.0545 690.0588,-84.0883"/>
<polygon fill="#191970" stroke="#191970" points="692.9829,-86.0163 695.955,-75.8469 687.2899,-81.9433 692.9829,-86.0163"/>
</g>
<!-- Node116&#45;&gt;Node14 -->
<g id="edge43" class="edge">
<title>Node116&#45;&gt;Node14</title>
<path fill="none" stroke="#191970" d="M632.091,-112.4554C614.7032,-102.734 592.1951,-90.15 574.9916,-80.5317"/>
<polygon fill="#191970" stroke="#191970" points="576.4826,-77.3554 566.0461,-75.5303 573.0665,-83.4653 576.4826,-77.3554"/>
</g>
<!-- Node116&#45;&gt;Node58 -->
<g id="edge42" class="edge">
<title>Node116&#45;&gt;Node58</title>
<path fill="none" stroke="#191970" d="M610.2562,-118.9622C595.1419,-116.4947 578.4096,-113.9456 563,-112 391.7815,-90.3816 344.5959,-101.8959 169.6965,-75.9317"/>
<polygon fill="#191970" stroke="#191970" points="170.0476,-72.4452 159.6382,-74.4185 169.0061,-79.3673 170.0476,-72.4452"/>
</g>
<!-- Node116&#45;&gt;Node121 -->
<g id="edge44" class="edge">
<title>Node116&#45;&gt;Node121</title>
<path fill="none" stroke="#191970" d="M610.1917,-115.3558C605.4004,-114.2045 600.6084,-113.069 596,-112 588.016,-110.1479 492.472,-89.3592 432.7246,-76.3708"/>
<polygon fill="#191970" stroke="#191970" points="433.2538,-72.9042 422.7385,-74.2001 431.7669,-79.7445 433.2538,-72.9042"/>
</g>
<!-- Node124&#45;&gt;Node3 -->
<g id="edge48" class="edge">
<title>Node124&#45;&gt;Node3</title>
<path fill="none" stroke="#191970" d="M1254.9436,-179.6929C1148.7661,-167.349 963.6272,-145.8253 867.6461,-134.6668"/>
<polygon fill="#191970" stroke="#191970" points="867.8548,-131.1676 857.5175,-133.4893 867.0464,-138.1207 867.8548,-131.1676"/>
</g>
<!-- Node74 -->
<g id="node39" class="node">
<title>Node74</title>
<g id="a_node39"><a xlink:title=" ">
<polygon fill="#ffffff" stroke="#bfbfbf" points="1576.5,-.5 1576.5,-19.5 1625.5,-19.5 1625.5,-.5 1576.5,-.5"/>
<text text-anchor="middle" x="1601" y="-7.5" font-family="Helvetica,sans-Serif" font-size="10.00" fill="#000000">cstddef</text>
</a>
</g>
</g>
<!-- Node124&#45;&gt;Node74 -->
<g id="edge46" class="edge">
<title>Node124&#45;&gt;Node74</title>
<path fill="none" stroke="#191970" d="M1415.2628,-180.1644C1530.2881,-165.661 1733.0377,-132.6154 1777,-76 1815.4075,-26.538 1697.339,-14.144 1635.8029,-11.0384"/>
<polygon fill="#191970" stroke="#191970" points="1635.8786,-7.5384 1625.7319,-10.5873 1635.5652,-14.5314 1635.8786,-7.5384"/>
</g>
<!-- Node125 -->
<g id="node40" class="node">
<title>Node125</title>
<g id="a_node40"><a xlink:title=" ">
<polygon fill="#ffffff" stroke="#bfbfbf" points="1450.5,-118 1450.5,-137 1501.5,-137 1501.5,-118 1450.5,-118"/>
<text text-anchor="middle" x="1476" y="-125" font-family="Helvetica,sans-Serif" font-size="10.00" fill="#000000">spglib.h</text>
</a>
</g>
</g>
<!-- Node124&#45;&gt;Node125 -->
<g id="edge47" class="edge">
<title>Node124&#45;&gt;Node125</title>
<path fill="none" stroke="#191970" d="M1357.6063,-179.4497C1379.3052,-170.2431 1412.9729,-155.8541 1442,-143 1443.2012,-142.4681 1444.425,-141.9233 1445.6605,-141.3711"/>
<polygon fill="#191970" stroke="#191970" points="1447.4975,-144.3822 1455.1744,-137.0804 1444.6197,-138.0011 1447.4975,-144.3822"/>
</g>
<!-- Node66 -->
<g id="node41" class="node">
<title>Node66</title>
<g id="a_node41"><a xlink:href="../../d6/d99/geometry3d_8hpp.html" target="_top" xlink:title="Simple classes and functions to work with the 3D vectors and matrices of the crystal lattice.">
<polygon fill="#ffffff" stroke="#000000" points="1343.5,-118 1343.5,-137 1432.5,-137 1432.5,-118 1343.5,-118"/>
<text text-anchor="middle" x="1388" y="-125" font-family="Helvetica,sans-Serif" font-size="10.00" fill="#000000">geometry3d.hpp</text>
</a>
</g>
</g>
<!-- Node124&#45;&gt;Node66 -->
<g id="edge49" class="edge">
<title>Node124&#45;&gt;Node66</title>
<path fill="none" stroke="#191970" d="M1343.2813,-179.3906C1351.1693,-170.2376 1363.2314,-156.2409 1372.8412,-145.09"/>
<polygon fill="#191970" stroke="#191970" points="1375.7251,-147.1049 1379.602,-137.2449 1370.4225,-142.5352 1375.7251,-147.1049"/>
</g>
<!-- Node71 -->
<g id="node47" class="node">
<title>Node71</title>
<g id="a_node47"><a xlink:href="../../dc/ddc/profiler_8hpp.html" target="_top" xlink:title="A time&#45;based profiler.">
<polygon fill="#ffffff" stroke="#000000" points="1238.5,-118 1238.5,-137 1325.5,-137 1325.5,-118 1238.5,-118"/>
<text text-anchor="middle" x="1282" y="-125" font-family="Helvetica,sans-Serif" font-size="10.00" fill="#000000">utils/profiler.hpp</text>
</a>
</g>
</g>
<!-- Node124&#45;&gt;Node71 -->
<g id="edge59" class="edge">
<title>Node124&#45;&gt;Node71</title>
<path fill="none" stroke="#191970" d="M1326.7188,-179.3906C1318.8307,-170.2376 1306.7686,-156.2409 1297.1588,-145.09"/>
<polygon fill="#191970" stroke="#191970" points="1299.5775,-142.5352 1290.398,-137.2449 1294.2749,-147.1049 1299.5775,-142.5352"/>
</g>
<!-- Node66&#45;&gt;Node8 -->
<g id="edge55" class="edge">
<title>Node66&#45;&gt;Node8</title>
<path fill="none" stroke="#191970" d="M1358.2006,-117.9738C1350.6829,-115.7953 1342.5899,-113.641 1335,-112 1227.1319,-88.678 1194.7194,-99.8597 1082.3517,-75.7481"/>
<polygon fill="#191970" stroke="#191970" points="1082.8365,-72.2713 1072.3189,-73.5482 1081.3372,-79.1089 1082.8365,-72.2713"/>
</g>
<!-- Node66&#45;&gt;Node11 -->
<g id="edge52" class="edge">
<title>Node66&#45;&gt;Node11</title>
<path fill="none" stroke="#191970" d="M1357.3147,-117.945C1350.0377,-115.8408 1342.2755,-113.7272 1335,-112 1251.8562,-92.2618 1226.4384,-98.0445 1139.3087,-75.7352"/>
<polygon fill="#191970" stroke="#191970" points="1140.0927,-72.3226 1129.5328,-73.182 1138.3238,-79.0955 1140.0927,-72.3226"/>
</g>
<!-- Node66&#45;&gt;Node25 -->
<g id="edge50" class="edge">
<title>Node66&#45;&gt;Node25</title>
<path fill="none" stroke="#191970" d="M1355.6796,-117.9717C1324.7552,-108.5067 1277.0317,-92.9851 1237,-76 1219.0677,-68.3915 1215.9334,-63.6059 1198,-56 1165.0092,-42.0079 1126.1733,-29.1344 1098.6454,-20.5867"/>
<polygon fill="#191970" stroke="#191970" points="1099.6338,-17.229 1089.0469,-17.6392 1097.5789,-23.9206 1099.6338,-17.229"/>
</g>
<!-- Node66&#45;&gt;Node26 -->
<g id="edge53" class="edge">
<title>Node66&#45;&gt;Node26</title>
<path fill="none" stroke="#191970" d="M1380.1114,-117.5545C1368.8827,-103.5263 1347.4874,-77.266 1328,-56 1318.8865,-46.0548 1308.264,-35.3766 1299.5243,-26.8142"/>
<polygon fill="#191970" stroke="#191970" points="1301.7366,-24.0838 1292.1246,-19.6273 1296.8596,-29.1052 1301.7366,-24.0838"/>
</g>
<!-- Node45 -->
<g id="node42" class="node">
<title>Node45</title>
<g id="a_node42"><a xlink:title=" ">
<polygon fill="#ffffff" stroke="#bfbfbf" points="1652,-56.5 1652,-75.5 1696,-75.5 1696,-56.5 1652,-56.5"/>
<text text-anchor="middle" x="1674" y="-63.5" font-family="Helvetica,sans-Serif" font-size="10.00" fill="#000000">cmath</text>
</a>
</g>
</g>
<!-- Node66&#45;&gt;Node45 -->
<g id="edge51" class="edge">
<title>Node66&#45;&gt;Node45</title>
<path fill="none" stroke="#191970" d="M1419.268,-117.938C1426.6821,-115.8341 1434.5898,-113.7224 1442,-112 1527.2907,-92.176 1553.1423,-97.5554 1641.8048,-76.0351"/>
<polygon fill="#191970" stroke="#191970" points="1642.8865,-79.3731 1651.7527,-73.573 1641.2047,-72.5781 1642.8865,-79.3731"/>
</g>
<!-- Node67 -->
<g id="node43" class="node">
<title>Node67</title>
<g id="a_node43"><a xlink:title=" ">
<polygon fill="#ffffff" stroke="#bfbfbf" points="1714.5,-56.5 1714.5,-75.5 1767.5,-75.5 1767.5,-56.5 1714.5,-56.5"/>
<text text-anchor="middle" x="1741" y="-63.5" font-family="Helvetica,sans-Serif" font-size="10.00" fill="#000000">ostream</text>
</a>
</g>
</g>
<!-- Node66&#45;&gt;Node67 -->
<g id="edge54" class="edge">
<title>Node66&#45;&gt;Node67</title>
<path fill="none" stroke="#191970" d="M1418.3654,-117.958C1426.0249,-115.7799 1434.2695,-113.6298 1442,-112 1554.2847,-88.3279 1587.6423,-99.2036 1704.32,-75.8806"/>
<polygon fill="#191970" stroke="#191970" points="1705.2634,-79.2603 1714.3614,-73.831 1703.8634,-72.4017 1705.2634,-79.2603"/>
</g>
<!-- Node68 -->
<g id="node44" class="node">
<title>Node68</title>
<g id="a_node44"><a xlink:title=" ">
<polygon fill="#ffffff" stroke="#bfbfbf" points="1413.5,-56.5 1413.5,-75.5 1486.5,-75.5 1486.5,-56.5 1413.5,-56.5"/>
<text text-anchor="middle" x="1450" y="-63.5" font-family="Helvetica,sans-Serif" font-size="10.00" fill="#000000">initializer_list</text>
</a>
</g>
</g>
<!-- Node66&#45;&gt;Node68 -->
<g id="edge56" class="edge">
<title>Node66&#45;&gt;Node68</title>
<path fill="none" stroke="#191970" d="M1397.6875,-117.8906C1407.0959,-108.5581 1421.5807,-94.1902 1432.9249,-82.9374"/>
<polygon fill="#191970" stroke="#191970" points="1435.5411,-85.2722 1440.1759,-75.7449 1430.6114,-80.3024 1435.5411,-85.2722"/>
</g>
<!-- Node69 -->
<g id="node45" class="node">
<title>Node69</title>
<g id="a_node45"><a xlink:title=" ">
<polygon fill="#ffffff" stroke="#bfbfbf" points="1504.5,-56.5 1504.5,-75.5 1563.5,-75.5 1563.5,-56.5 1504.5,-56.5"/>
<text text-anchor="middle" x="1534" y="-63.5" font-family="Helvetica,sans-Serif" font-size="10.00" fill="#000000">stdexcept</text>
</a>
</g>
</g>
<!-- Node66&#45;&gt;Node69 -->
<g id="edge57" class="edge">
<title>Node66&#45;&gt;Node69</title>
<path fill="none" stroke="#191970" d="M1410.8125,-117.8906C1435.3481,-107.5554 1474.5442,-91.0447 1502.1211,-79.4284"/>
<polygon fill="#191970" stroke="#191970" points="1503.4906,-82.6495 1511.3477,-75.5419 1500.7732,-76.1984 1503.4906,-82.6495"/>
</g>
<!-- Node48 -->
<g id="node46" class="node">
<title>Node48</title>
<g id="a_node46"><a xlink:title=" ">
<polygon fill="#ffffff" stroke="#bfbfbf" points="1582,-56.5 1582,-75.5 1634,-75.5 1634,-56.5 1582,-56.5"/>
<text text-anchor="middle" x="1608" y="-63.5" font-family="Helvetica,sans-Serif" font-size="10.00" fill="#000000">sstream</text>
</a>
</g>
</g>
<!-- Node66&#45;&gt;Node48 -->
<g id="edge58" class="edge">
<title>Node66&#45;&gt;Node48</title>
<path fill="none" stroke="#191970" d="M1421.1102,-117.932C1428.0098,-115.9562 1435.2391,-113.8992 1442,-112 1497.1787,-96.4996 1513.2516,-92.6704 1571.8521,-76.3021"/>
<polygon fill="#191970" stroke="#191970" points="1572.9485,-79.6299 1581.6348,-73.5638 1571.0615,-72.889 1572.9485,-79.6299"/>
</g>
<!-- Node41 -->
<g id="node48" class="node">
<title>Node41</title>
<g id="a_node48"><a xlink:title=" ">
<polygon fill="#ffffff" stroke="#bfbfbf" points="1147.5,-56.5 1147.5,-75.5 1188.5,-75.5 1188.5,-56.5 1147.5,-56.5"/>
<text text-anchor="middle" x="1168" y="-63.5" font-family="Helvetica,sans-Serif" font-size="10.00" fill="#000000">mpi.h</text>
</a>
</g>
</g>
<!-- Node71&#45;&gt;Node41 -->
<g id="edge60" class="edge">
<title>Node71&#45;&gt;Node41</title>
<path fill="none" stroke="#191970" d="M1264.1875,-117.8906C1245.5315,-107.8262 1216.0203,-91.9057 1194.6026,-80.3514"/>
<polygon fill="#191970" stroke="#191970" points="1196.1502,-77.2095 1185.6874,-75.5419 1192.8266,-83.3702 1196.1502,-77.2095"/>
</g>
<!-- Node46 -->
<g id="node49" class="node">
<title>Node46</title>
<g id="a_node49"><a xlink:title=" ">
<polygon fill="#ffffff" stroke="#bfbfbf" points="1343.5,-.5 1343.5,-19.5 1384.5,-19.5 1384.5,-.5 1343.5,-.5"/>
<text text-anchor="middle" x="1364" y="-7.5" font-family="Helvetica,sans-Serif" font-size="10.00" fill="#000000">string</text>
</a>
</g>
</g>
<!-- Node71&#45;&gt;Node46 -->
<g id="edge61" class="edge">
<title>Node71&#45;&gt;Node46</title>
<path fill="none" stroke="#191970" d="M1291.8912,-117.8182C1301.7406,-107.8739 1316.9458,-91.6756 1328,-76 1338.5495,-61.0401 1348.345,-42.6625 1355.0463,-29.102"/>
<polygon fill="#191970" stroke="#191970" points="1358.3372,-30.3353 1359.5289,-19.8076 1352.0322,-27.2944 1358.3372,-30.3353"/>
</g>
<!-- Node72 -->
<g id="node50" class="node">
<title>Node72</title>
<g id="a_node50"><a xlink:href="../../d7/d7e/rt__graph_8hpp_source.html" target="_top" xlink:title=" ">
<polygon fill="#ffffff" stroke="#ff0000" points="1245.5,-56.5 1245.5,-75.5 1318.5,-75.5 1318.5,-56.5 1245.5,-56.5"/>
<text text-anchor="middle" x="1282" y="-63.5" font-family="Helvetica,sans-Serif" font-size="10.00" fill="#000000">rt_graph.hpp</text>
</a>
</g>
</g>
<!-- Node71&#45;&gt;Node72 -->
<g id="edge62" class="edge">
<title>Node71&#45;&gt;Node72</title>
<path fill="none" stroke="#191970" d="M1282,-117.8906C1282,-109.3657 1282,-96.6392 1282,-85.9235"/>
<polygon fill="#191970" stroke="#191970" points="1285.5001,-85.7448 1282,-75.7449 1278.5001,-85.7449 1285.5001,-85.7448"/>
</g>
<!-- Node72&#45;&gt;Node4 -->
<g id="edge64" class="edge">
<title>Node72&#45;&gt;Node4</title>
<path fill="none" stroke="#191970" d="M1266.3232,-56.2455C1252.2618,-47.4962 1231.4346,-34.5371 1215.4022,-24.5613"/>
<polygon fill="#191970" stroke="#191970" points="1216.9436,-21.3982 1206.6039,-19.0869 1213.2454,-27.3417 1216.9436,-21.3982"/>
</g>
<!-- Node72&#45;&gt;Node26 -->
<g id="edge66" class="edge">
<title>Node72&#45;&gt;Node26</title>
<path fill="none" stroke="#191970" d="M1282,-56.2455C1282,-48.9382 1282,-38.6944 1282,-29.7046"/>
<polygon fill="#191970" stroke="#191970" points="1285.5001,-29.6426 1282,-19.6427 1278.5001,-29.6427 1285.5001,-29.6426"/>
</g>
<!-- Node72&#45;&gt;Node74 -->
<g id="edge63" class="edge">
<title>Node72&#45;&gt;Node74</title>
<path fill="none" stroke="#191970" d="M1318.5934,-59.5761C1380.6298,-48.6857 1505.6075,-26.746 1566.3213,-16.0878"/>
<polygon fill="#191970" stroke="#191970" points="1566.9443,-19.532 1576.1885,-14.3556 1565.7339,-12.6375 1566.9443,-19.532"/>
</g>
<!-- Node72&#45;&gt;Node46 -->
<g id="edge65" class="edge">
<title>Node72&#45;&gt;Node46</title>
<path fill="none" stroke="#191970" d="M1296.2833,-56.2455C1308.747,-47.7337 1327.0451,-35.2375 1341.4792,-25.3801"/>
<polygon fill="#191970" stroke="#191970" points="1343.5962,-28.1726 1349.8804,-19.6427 1339.6485,-22.392 1343.5962,-28.1726"/>
</g>
</g>
</svg>
        <g id="navigator" transform="translate(0 0)" fill="#404254">
                <rect fill="#f2f5e9" fill-opacity="0.5" stroke="#606060" stroke-width=".5" x="0" y="0" width="60" height="60"/>
                <use id="zoomplus" xlink:href="#zoomPlus" x="17" y="9" onmousedown="handleZoom(evt,'in')"/>
                <use id="zoomminus" xlink:href="#zoomMin" x="42" y="9" onmousedown="handleZoom(evt,'out')"/>
                <use id="reset" xlink:href="#resetDef" x="30" y="36" onmousedown="handleReset()"/>
                <g id="arrowUp" xlink:href="#dirArrow" transform="translate(30 24)" onmousedown="handlePan(0,-1)">
                  <use xlink:href="#rim" fill="#404040">
                        <set attributeName="fill" to="#808080" begin="arrowUp.mouseover" end="arrowUp.mouseout"/>
                  </use>
                  <path fill="none" stroke="white" stroke-width="1.5" d="M0,-3.0v7 M-2.5,-0.5L0,-3.0L2.5,-0.5"/>
                </g>
                <g id="arrowRight" xlink:href="#dirArrow" transform="rotate(90) translate(36 -43)" onmousedown="handlePan(1,0)">
                  <use xlink:href="#rim" fill="#404040">
                        <set attributeName="fill" to="#808080" begin="arrowRight.mouseover" end="arrowRight.mouseout"/>
                  </use>
                  <path fill="none" stroke="white" stroke-width="1.5" d="M0,-3.0v7 M-2.5,-0.5L0,-3.0L2.5,-0.5"/>
                </g>
                <g id="arrowDown" xlink:href="#dirArrow" transform="rotate(180) translate(-30 -48)" onmousedown="handlePan(0,1)">
                  <use xlink:href="#rim" fill="#404040">
                        <set attributeName="fill" to="#808080" begin="arrowDown.mouseover" end="arrowDown.mouseout"/>
                  </use>
                  <path fill="none" stroke="white" stroke-width="1.5" d="M0,-3.0v7 M-2.5,-0.5L0,-3.0L2.5,-0.5"/>
                </g>
                <g id="arrowLeft" xlink:href="#dirArrow" transform="rotate(270) translate(-36 17)" onmousedown="handlePan(-1,0)">
                  <use xlink:href="#rim" fill="#404040">
                        <set attributeName="fill" to="#808080" begin="arrowLeft.mouseover" end="arrowLeft.mouseout"/>
                  </use>
                  <path fill="none" stroke="white" stroke-width="1.5" d="M0,-3.0v7 M-2.5,-0.5L0,-3.0L2.5,-0.5"/>
                </g>
        </g>
        <svg viewBox="0 0 15 15" width="100%" height="30px" preserveAspectRatio="xMaxYMin meet">
         <g id="arrow_out" transform="scale(0.3 0.3)">
          <a xlink:href="occupation__matrix_8cpp__incl_org.svg" target="_base">
           <rect id="button" ry="5" rx="5" y="6" x="6" height="38" width="38"
                fill="#f2f5e9" fill-opacity="0.5" stroke="#606060" stroke-width="1.0"/>
           <path id="arrow"
             d="M 11.500037,31.436501 C 11.940474,20.09759 22.043105,11.32322 32.158766,21.979434 L 37.068811,17.246167 C 37.068811,17.246167 37.088388,32 37.088388,32 L 22.160133,31.978069 C 22.160133,31.978069 26.997745,27.140456 26.997745,27.140456 C 18.528582,18.264221 13.291696,25.230495 11.500037,31.436501 z"
             style="fill:#404040;"/>
          </a>
         </g>
        </svg>
</svg>
