<?xml version="1.0" encoding="UTF-8" standalone="no"?>
<!DOCTYPE svg PUBLIC "-//W3C//DTD SVG 1.1//EN"
 "http://www.w3.org/Graphics/SVG/1.1/DTD/svg11.dtd">
<!-- Generated by graphviz version 2.40.1 (20161225.0304)
 -->
<!-- Title: cuda.hpp Pages: 1 -->
<svg width="827pt" height="84pt"
 viewBox="0.00 0.00 826.50 84.00" xmlns="http://www.w3.org/2000/svg" xmlns:xlink="http://www.w3.org/1999/xlink">
<g id="graph0" class="graph" transform="scale(1 1) rotate(0) translate(4 80)">
<title>cuda.hpp</title>
<polygon fill="#ffffff" stroke="transparent" points="-4,4 -4,-80 822.5,-80 822.5,4 -4,4"/>
<!-- Node0 -->
<g id="node1" class="node">
<title>Node0</title>
<polygon fill="#bfbfbf" stroke="#000000" points="403.5,-56.5 403.5,-75.5 461.5,-75.5 461.5,-56.5 403.5,-56.5"/>
<text text-anchor="middle" x="432.5" y="-63.5" font-family="Helvetica,sans-Serif" font-size="10.00" fill="#000000">cuda.hpp</text>
</g>
<!-- Node1 -->
<g id="node2" class="node">
<title>Node1</title>
<polygon fill="#ffffff" stroke="#bfbfbf" points="0,-.5 0,-19.5 85,-19.5 85,-.5 0,-.5"/>
<text text-anchor="middle" x="42.5" y="-7.5" font-family="Helvetica,sans-Serif" font-size="10.00" fill="#000000">cuda_runtime.h</text>
</g>
<!-- Node0&#45;&gt;Node1 -->
<g id="edge1" class="edge">
<title>Node0&#45;&gt;Node1</title>
<path fill="none" stroke="#191970" d="M403.3917,-62.635C346.2508,-55.9038 215.1862,-39.8472 95.1393,-20.201"/>
<polygon fill="#191970" stroke="#191970" points="95.4791,-16.7099 85.0428,-18.5357 94.3399,-23.6166 95.4791,-16.7099"/>
</g>
<!-- Node2 -->
<g id="node3" class="node">
<title>Node2</title>
<polygon fill="#ffffff" stroke="#bfbfbf" points="103,-.5 103,-19.5 150,-19.5 150,-.5 103,-.5"/>
<text text-anchor="middle" x="126.5" y="-7.5" font-family="Helvetica,sans-Serif" font-size="10.00" fill="#000000">cuda.h</text>
</g>
<!-- Node0&#45;&gt;Node2 -->
<g id="edge2" class="edge">
<title>Node0&#45;&gt;Node2</title>
<path fill="none" stroke="#191970" d="M403.1664,-62.306C354.6185,-55.9245 254.3933,-41.6189 160.1731,-19.9074"/>
<polygon fill="#191970" stroke="#191970" points="160.7294,-16.4431 150.1951,-17.5745 159.1357,-23.2593 160.7294,-16.4431"/>
</g>
<!-- Node3 -->
<g id="node4" class="node">
<title>Node3</title>
<polygon fill="#ffffff" stroke="#bfbfbf" points="168.5,-.5 168.5,-19.5 238.5,-19.5 238.5,-.5 168.5,-.5"/>
<text text-anchor="middle" x="203.5" y="-7.5" font-family="Helvetica,sans-Serif" font-size="10.00" fill="#000000">cublas_v2.h</text>
</g>
<!-- Node0&#45;&gt;Node3 -->
<g id="edge3" class="edge">
<title>Node0&#45;&gt;Node3</title>
<path fill="none" stroke="#191970" d="M403.497,-58.9076C364.4472,-49.3583 294.5729,-32.2711 248.624,-21.0347"/>
<polygon fill="#191970" stroke="#191970" points="249.1781,-17.5671 238.6329,-18.5914 247.5152,-24.3668 249.1781,-17.5671"/>
</g>
<!-- Node4 -->
<g id="node5" class="node">
<title>Node4</title>
<polygon fill="#ffffff" stroke="#bfbfbf" points="256.5,-.5 256.5,-19.5 318.5,-19.5 318.5,-.5 256.5,-.5"/>
<text text-anchor="middle" x="287.5" y="-7.5" font-family="Helvetica,sans-Serif" font-size="10.00" fill="#000000">execinfo.h</text>
</g>
<!-- Node0&#45;&gt;Node4 -->
<g id="edge4" class="edge">
<title>Node0&#45;&gt;Node4</title>
<path fill="none" stroke="#191970" d="M407.5736,-56.3733C383.8798,-47.2226 348.0489,-33.3844 321.6932,-23.2057"/>
<polygon fill="#191970" stroke="#191970" points="322.6906,-19.8389 312.1011,-19.5011 320.1686,-26.3689 322.6906,-19.8389"/>
</g>
<!-- Node5 -->
<g id="node6" class="node">
<title>Node5</title>
<polygon fill="#ffffff" stroke="#bfbfbf" points="336.5,-.5 336.5,-19.5 388.5,-19.5 388.5,-.5 336.5,-.5"/>
<text text-anchor="middle" x="362.5" y="-7.5" font-family="Helvetica,sans-Serif" font-size="10.00" fill="#000000">unistd.h</text>
</g>
<!-- Node0&#45;&gt;Node5 -->
<g id="edge5" class="edge">
<title>Node0&#45;&gt;Node5</title>
<path fill="none" stroke="#191970" d="M420.3069,-56.2455C409.8679,-47.8943 394.6345,-35.7076 382.426,-25.9408"/>
<polygon fill="#191970" stroke="#191970" points="384.5485,-23.1566 374.5533,-19.6427 380.1756,-28.6227 384.5485,-23.1566"/>
</g>
<!-- Node6 -->
<g id="node7" class="node">
<title>Node6</title>
<polygon fill="#ffffff" stroke="#bfbfbf" points="407,-.5 407,-19.5 458,-19.5 458,-.5 407,-.5"/>
<text text-anchor="middle" x="432.5" y="-7.5" font-family="Helvetica,sans-Serif" font-size="10.00" fill="#000000">signal.h</text>
</g>
<!-- Node0&#45;&gt;Node6 -->
<g id="edge6" class="edge">
<title>Node0&#45;&gt;Node6</title>
<path fill="none" stroke="#191970" d="M432.5,-56.2455C432.5,-48.9382 432.5,-38.6944 432.5,-29.7046"/>
<polygon fill="#191970" stroke="#191970" points="436.0001,-29.6426 432.5,-19.6427 429.0001,-29.6427 436.0001,-29.6426"/>
</g>
<!-- Node7 -->
<g id="node8" class="node">
<title>Node7</title>
<polygon fill="#ffffff" stroke="#bfbfbf" points="476.5,-.5 476.5,-19.5 528.5,-19.5 528.5,-.5 476.5,-.5"/>
<text text-anchor="middle" x="502.5" y="-7.5" font-family="Helvetica,sans-Serif" font-size="10.00" fill="#000000">assert.h</text>
</g>
<!-- Node0&#45;&gt;Node7 -->
<g id="edge7" class="edge">
<title>Node0&#45;&gt;Node7</title>
<path fill="none" stroke="#191970" d="M444.6931,-56.2455C455.1321,-47.8943 470.3655,-35.7076 482.574,-25.9408"/>
<polygon fill="#191970" stroke="#191970" points="484.8244,-28.6227 490.4467,-19.6427 480.4515,-23.1566 484.8244,-28.6227"/>
</g>
<!-- Node8 -->
<g id="node9" class="node">
<title>Node8</title>
<polygon fill="#ffffff" stroke="#bfbfbf" points="546.5,-.5 546.5,-19.5 620.5,-19.5 620.5,-.5 546.5,-.5"/>
<text text-anchor="middle" x="583.5" y="-7.5" font-family="Helvetica,sans-Serif" font-size="10.00" fill="#000000">nvToolsExt.h</text>
</g>
<!-- Node0&#45;&gt;Node8 -->
<g id="edge8" class="edge">
<title>Node0&#45;&gt;Node8</title>
<path fill="none" stroke="#191970" d="M458.4578,-56.3733C483.2407,-47.1822 520.7746,-33.2624 548.254,-23.0713"/>
<polygon fill="#191970" stroke="#191970" points="549.7219,-26.26 557.8809,-19.5011 547.2879,-19.6968 549.7219,-26.26"/>
</g>
<!-- Node9 -->
<g id="node10" class="node">
<title>Node9</title>
<polygon fill="#ffffff" stroke="#bfbfbf" points="638.5,-.5 638.5,-19.5 692.5,-19.5 692.5,-.5 638.5,-.5"/>
<text text-anchor="middle" x="665.5" y="-7.5" font-family="Helvetica,sans-Serif" font-size="10.00" fill="#000000">complex</text>
</g>
<!-- Node0&#45;&gt;Node9 -->
<g id="edge9" class="edge">
<title>Node0&#45;&gt;Node9</title>
<path fill="none" stroke="#191970" d="M461.6317,-59.5952C498.2781,-51.4519 563.3637,-36.7042 628.3947,-20.2095"/>
<polygon fill="#191970" stroke="#191970" points="629.5807,-23.5192 638.4055,-17.6561 627.8506,-16.7363 629.5807,-23.5192"/>
</g>
<!-- Node10 -->
<g id="node11" class="node">
<title>Node10</title>
<polygon fill="#ffffff" stroke="#bfbfbf" points="710.5,-.5 710.5,-19.5 754.5,-19.5 754.5,-.5 710.5,-.5"/>
<text text-anchor="middle" x="732.5" y="-7.5" font-family="Helvetica,sans-Serif" font-size="10.00" fill="#000000">vector</text>
</g>
<!-- Node0&#45;&gt;Node10 -->
<g id="edge10" class="edge">
<title>Node0&#45;&gt;Node10</title>
<path fill="none" stroke="#191970" d="M461.8391,-62.3792C509.8819,-56.1508 608.4175,-42.1234 700.5077,-19.9762"/>
<polygon fill="#191970" stroke="#191970" points="701.3743,-23.3676 710.258,-17.5944 699.7131,-16.5675 701.3743,-23.3676"/>
</g>
<!-- Node11 -->
<g id="node12" class="node">
<title>Node11</title>
<polygon fill="#ffffff" stroke="#bfbfbf" points="772.5,-.5 772.5,-19.5 818.5,-19.5 818.5,-.5 772.5,-.5"/>
<text text-anchor="middle" x="795.5" y="-7.5" font-family="Helvetica,sans-Serif" font-size="10.00" fill="#000000">stdio.h</text>
</g>
<!-- Node0&#45;&gt;Node11 -->
<g id="edge11" class="edge">
<title>Node0&#45;&gt;Node11</title>
<path fill="none" stroke="#191970" d="M461.5657,-63.5842C517.9419,-58.5524 646.1239,-45.4241 762.4234,-19.9463"/>
<polygon fill="#191970" stroke="#191970" points="763.202,-23.3587 772.2018,-17.7682 761.68,-16.5262 763.202,-23.3587"/>
</g>
</g>
</svg>
