<?xml version="1.0" encoding="UTF-8" standalone="no"?>
<!DOCTYPE svg PUBLIC "-//W3C//DTD SVG 1.1//EN"
 "http://www.w3.org/Graphics/SVG/1.1/DTD/svg11.dtd">
<!-- Generated by graphviz version 2.40.1 (20161225.0304)
 -->
<!-- Title: gaunt.hpp Pages: 1 -->
<svg width="501pt" height="756pt"
 viewBox="0.00 0.00 501.48 756.00" xmlns="http://www.w3.org/2000/svg" xmlns:xlink="http://www.w3.org/1999/xlink">
<g id="graph0" class="graph" transform="scale(1 1) rotate(0) translate(4 752)">
<title>gaunt.hpp</title>
<polygon fill="#ffffff" stroke="transparent" points="-4,4 -4,-752 497.4812,-752 497.4812,4 -4,4"/>
<!-- Node17 -->
<g id="node1" class="node">
<title>Node17</title>
<polygon fill="#bfbfbf" stroke="#000000" points="0,-728.5 0,-747.5 61,-747.5 61,-728.5 0,-728.5"/>
<text text-anchor="middle" x="30.5" y="-735.5" font-family="Helvetica,sans-Serif" font-size="10.00" fill="#000000">gaunt.hpp</text>
</g>
<!-- Node18 -->
<g id="node2" class="node">
<title>Node18</title>
<g id="a_node2"><a xlink:href="../../de/d6d/atom_8hpp.html" target="_top" xlink:title="Contains declaration and partial implementation of sirius::Atom class. ">
<polygon fill="#ffffff" stroke="#000000" points="34.5,-672.5 34.5,-691.5 92.5,-691.5 92.5,-672.5 34.5,-672.5"/>
<text text-anchor="middle" x="63.5" y="-679.5" font-family="Helvetica,sans-Serif" font-size="10.00" fill="#000000">atom.hpp</text>
</a>
</g>
</g>
<!-- Node17&#45;&gt;Node18 -->
<g id="edge1" class="edge">
<title>Node17&#45;&gt;Node18</title>
<path fill="none" stroke="#191970" d="M41.3254,-719.6296C46.8299,-710.2887 53.2937,-699.3197 57.8177,-691.6427"/>
<polygon fill="#191970" stroke="#191970" points="38.3097,-717.8532 36.2482,-728.2455 44.3405,-721.4071 38.3097,-717.8532"/>
</g>
<!-- Node25 -->
<g id="node9" class="node">
<title>Node25</title>
<g id="a_node9"><a xlink:href="../../dd/dc2/sirius_8h.html" target="_top" xlink:title="&quot;All&#45;in&#45;one&quot; include file. ">
<polygon fill="#ffffff" stroke="#000000" points="219.5,-56.5 219.5,-75.5 267.5,-75.5 267.5,-56.5 219.5,-56.5"/>
<text text-anchor="middle" x="243.5" y="-63.5" font-family="Helvetica,sans-Serif" font-size="10.00" fill="#000000">sirius.h</text>
</a>
</g>
</g>
<!-- Node17&#45;&gt;Node25 -->
<g id="edge31" class="edge">
<title>Node17&#45;&gt;Node25</title>
<path fill="none" stroke="#191970" d="M22.6585,-718.8271C14.3754,-696.8089 2.5,-659.4152 2.5,-626 2.5,-626 2.5,-626 2.5,-178 2.5,-130.5934 157.7962,-87.1258 219.0654,-71.8212"/>
<polygon fill="#191970" stroke="#191970" points="19.4674,-720.2771 26.3685,-728.3161 25.9868,-717.7281 19.4674,-720.2771"/>
</g>
<!-- Node19 -->
<g id="node3" class="node">
<title>Node19</title>
<g id="a_node3"><a xlink:href="../../d4/d91/unit__cell_8hpp.html" target="_top" xlink:title="Contains definition and partial implementation of sirius::Unit_cell class. ">
<polygon fill="#ffffff" stroke="#000000" points="97,-616.5 97,-635.5 170,-635.5 170,-616.5 97,-616.5"/>
<text text-anchor="middle" x="133.5" y="-623.5" font-family="Helvetica,sans-Serif" font-size="10.00" fill="#000000">unit_cell.hpp</text>
</a>
</g>
</g>
<!-- Node18&#45;&gt;Node19 -->
<g id="edge2" class="edge">
<title>Node18&#45;&gt;Node19</title>
<path fill="none" stroke="#191970" d="M83.59,-665.928C95.8253,-656.1397 111.0507,-643.9595 121.4467,-635.6427"/>
<polygon fill="#191970" stroke="#191970" points="81.3153,-663.2655 75.6931,-672.2455 85.6882,-668.7316 81.3153,-663.2655"/>
</g>
<!-- Node20 -->
<g id="node4" class="node">
<title>Node20</title>
<g id="a_node4"><a xlink:href="../../d4/df7/radial__integrals_8hpp.html" target="_top" xlink:title="Representation of various radial integrals. ">
<polygon fill="#ffffff" stroke="#000000" points="170.5,-560.5 170.5,-579.5 274.5,-579.5 274.5,-560.5 170.5,-560.5"/>
<text text-anchor="middle" x="222.5" y="-567.5" font-family="Helvetica,sans-Serif" font-size="10.00" fill="#000000">radial_integrals.hpp</text>
</a>
</g>
</g>
<!-- Node19&#45;&gt;Node20 -->
<g id="edge3" class="edge">
<title>Node19&#45;&gt;Node20</title>
<path fill="none" stroke="#191970" d="M157.7064,-610.769C173.4775,-600.8456 193.576,-588.1994 207.175,-579.6427"/>
<polygon fill="#191970" stroke="#191970" points="155.6026,-607.9575 149.0026,-616.2455 159.3305,-613.8823 155.6026,-607.9575"/>
</g>
<!-- Node21 -->
<g id="node5" class="node">
<title>Node21</title>
<g id="a_node5"><a xlink:href="../../d3/d1c/augmentation__operator_8hpp.html" target="_top" xlink:title="Contains implementation of sirius::Augmentation_operator class. ">
<polygon fill="#ffffff" stroke="#000000" points="299,-504.5 299,-523.5 438,-523.5 438,-504.5 299,-504.5"/>
<text text-anchor="middle" x="368.5" y="-511.5" font-family="Helvetica,sans-Serif" font-size="10.00" fill="#000000">augmentation_operator.hpp</text>
</a>
</g>
</g>
<!-- Node20&#45;&gt;Node21 -->
<g id="edge4" class="edge">
<title>Node20&#45;&gt;Node21</title>
<path fill="none" stroke="#191970" d="M256.9435,-556.7888C283.6013,-546.5639 319.88,-532.6488 343.7292,-523.5011"/>
<polygon fill="#191970" stroke="#191970" points="255.6816,-553.5241 247.5983,-560.3733 258.1885,-560.0598 255.6816,-553.5241"/>
</g>
<!-- Node28 -->
<g id="node12" class="node">
<title>Node28</title>
<g id="a_node12"><a xlink:href="../../d1/db8/simulation__context_8hpp.html" target="_top" xlink:title="Contains definition and implementation of Simulation_context class. ">
<polygon fill="#ffffff" stroke="#000000" points="219,-448.5 219,-467.5 338,-467.5 338,-448.5 219,-448.5"/>
<text text-anchor="middle" x="278.5" y="-455.5" font-family="Helvetica,sans-Serif" font-size="10.00" fill="#000000">simulation_context.hpp</text>
</a>
</g>
</g>
<!-- Node20&#45;&gt;Node28 -->
<g id="edge30" class="edge">
<title>Node20&#45;&gt;Node28</title>
<path fill="none" stroke="#191970" d="M231.8751,-551.2498C243.9527,-527.0946 264.4899,-486.0202 273.7376,-467.5249"/>
<polygon fill="#191970" stroke="#191970" points="228.6162,-549.9414 227.2745,-560.4509 234.8772,-553.0719 228.6162,-549.9414"/>
</g>
<!-- Node29 -->
<g id="node13" class="node">
<title>Node29</title>
<g id="a_node13"><a xlink:href="../../db/d74/hubbard_8hpp.html" target="_top" xlink:title="Contains declaration and partial implementation of sirius::Hubbard class. ">
<polygon fill="#ffffff" stroke="#000000" points="154,-392.5 154,-411.5 227,-411.5 227,-392.5 154,-392.5"/>
<text text-anchor="middle" x="190.5" y="-399.5" font-family="Helvetica,sans-Serif" font-size="10.00" fill="#000000">hubbard.hpp</text>
</a>
</g>
</g>
<!-- Node20&#45;&gt;Node29 -->
<g id="edge29" class="edge">
<title>Node20&#45;&gt;Node29</title>
<path fill="none" stroke="#191970" d="M218.74,-550.2601C211.8651,-514.1669 197.503,-438.7656 192.372,-411.8279"/>
<polygon fill="#191970" stroke="#191970" points="215.3785,-551.3178 220.6879,-560.4862 222.2548,-550.0079 215.3785,-551.3178"/>
</g>
<!-- Node22 -->
<g id="node6" class="node">
<title>Node22</title>
<g id="a_node6"><a xlink:href="../../d5/d72/non__local__functor_8hpp.html" target="_top" xlink:title="Common operation for forces and stress tensor. ">
<polygon fill="#ffffff" stroke="#000000" points="358,-336.5 358,-355.5 473,-355.5 473,-336.5 358,-336.5"/>
<text text-anchor="middle" x="415.5" y="-343.5" font-family="Helvetica,sans-Serif" font-size="10.00" fill="#000000">non_local_functor.hpp</text>
</a>
</g>
</g>
<!-- Node21&#45;&gt;Node22 -->
<g id="edge5" class="edge">
<title>Node21&#45;&gt;Node22</title>
<path fill="none" stroke="#191970" d="M373.8919,-494.7267C383.9371,-458.8207 405.1818,-382.8822 412.7505,-355.8279"/>
<polygon fill="#191970" stroke="#191970" points="370.4852,-493.913 371.1616,-504.4862 377.2264,-495.799 370.4852,-493.913"/>
</g>
<!-- Node27 -->
<g id="node11" class="node">
<title>Node27</title>
<g id="a_node11"><a xlink:href="../../d6/d1e/force_8hpp.html" target="_top" xlink:title="Contains defintion and implementation of sirius::Force class. ">
<polygon fill="#ffffff" stroke="#000000" points="332.5,-280.5 332.5,-299.5 390.5,-299.5 390.5,-280.5 332.5,-280.5"/>
<text text-anchor="middle" x="361.5" y="-287.5" font-family="Helvetica,sans-Serif" font-size="10.00" fill="#000000">force.hpp</text>
</a>
</g>
</g>
<!-- Node21&#45;&gt;Node27 -->
<g id="edge12" class="edge">
<title>Node21&#45;&gt;Node27</title>
<path fill="none" stroke="#191970" d="M391.712,-498.5606C435.6616,-467.3978 523.1398,-394.9273 482.5,-336 477.0295,-328.0678 424.5844,-310.119 390.5584,-299.1341"/>
<polygon fill="#191970" stroke="#191970" points="389.5244,-495.8184 383.3044,-504.3952 393.5154,-501.5693 389.5244,-495.8184"/>
</g>
<!-- Node21&#45;&gt;Node28 -->
<g id="edge13" class="edge">
<title>Node21&#45;&gt;Node28</title>
<path fill="none" stroke="#191970" d="M344.0216,-498.769C328.0734,-488.8456 307.749,-476.1994 293.9972,-467.6427"/>
<polygon fill="#191970" stroke="#191970" points="342.4835,-501.9342 352.8232,-504.2455 346.1817,-495.9908 342.4835,-501.9342"/>
</g>
<!-- Node23 -->
<g id="node7" class="node">
<title>Node23</title>
<g id="a_node7"><a xlink:href="../../d7/dd1/stress_8hpp.html" target="_top" xlink:title="Stress tensor calculation. ">
<polygon fill="#ffffff" stroke="#000000" points="409,-280.5 409,-299.5 472,-299.5 472,-280.5 409,-280.5"/>
<text text-anchor="middle" x="440.5" y="-287.5" font-family="Helvetica,sans-Serif" font-size="10.00" fill="#000000">stress.hpp</text>
</a>
</g>
</g>
<!-- Node22&#45;&gt;Node23 -->
<g id="edge6" class="edge">
<title>Node22&#45;&gt;Node23</title>
<path fill="none" stroke="#191970" d="M423.9626,-327.0437C428.0745,-317.8331 432.8394,-307.1598 436.1952,-299.6427"/>
<polygon fill="#191970" stroke="#191970" points="420.7352,-325.6874 419.8547,-336.2455 427.1272,-328.541 420.7352,-325.6874"/>
</g>
<!-- Node22&#45;&gt;Node27 -->
<g id="edge10" class="edge">
<title>Node22&#45;&gt;Node27</title>
<path fill="none" stroke="#191970" d="M398.9031,-328.7884C389.6653,-319.2085 378.5096,-307.6396 370.7983,-299.6427"/>
<polygon fill="#191970" stroke="#191970" points="396.6331,-331.4766 406.0939,-336.2455 401.672,-326.6176 396.6331,-331.4766"/>
</g>
<!-- Node24 -->
<g id="node8" class="node">
<title>Node24</title>
<g id="a_node8"><a xlink:href="../../df/dc4/dft__ground__state_8hpp.html" target="_top" xlink:title="Contains definition and partial implementation of sirius::DFT_ground_state class. ...">
<polygon fill="#ffffff" stroke="#000000" points="320,-224.5 320,-243.5 431,-243.5 431,-224.5 320,-224.5"/>
<text text-anchor="middle" x="375.5" y="-231.5" font-family="Helvetica,sans-Serif" font-size="10.00" fill="#000000">dft_ground_state.hpp</text>
</a>
</g>
</g>
<!-- Node23&#45;&gt;Node24 -->
<g id="edge7" class="edge">
<title>Node23&#45;&gt;Node24</title>
<path fill="none" stroke="#191970" d="M421.5165,-273.645C410.2121,-263.9058 396.253,-251.8795 386.6924,-243.6427"/>
<polygon fill="#191970" stroke="#191970" points="419.3173,-276.3701 429.1779,-280.2455 423.8862,-271.0668 419.3173,-276.3701"/>
</g>
<!-- Node24&#45;&gt;Node25 -->
<g id="edge8" class="edge">
<title>Node24&#45;&gt;Node25</title>
<path fill="none" stroke="#191970" d="M362.1649,-216.306C344.1109,-192.4404 310.7794,-148.6949 281.5,-112 271.4213,-99.3687 259.5152,-85.0503 251.7514,-75.7914"/>
<polygon fill="#191970" stroke="#191970" points="359.4759,-218.5531 368.2959,-224.4232 365.0617,-214.3341 359.4759,-218.5531"/>
</g>
<!-- Node26 -->
<g id="node10" class="node">
<title>Node26</title>
<g id="a_node10"><a xlink:href="../../d4/d53/sirius__api_8cpp.html" target="_top" xlink:title="Fortran API. ">
<polygon fill="#ffffff" stroke="#000000" points="204.5,-.5 204.5,-19.5 282.5,-19.5 282.5,-.5 204.5,-.5"/>
<text text-anchor="middle" x="243.5" y="-7.5" font-family="Helvetica,sans-Serif" font-size="10.00" fill="#000000">sirius_api.cpp</text>
</a>
</g>
</g>
<!-- Node25&#45;&gt;Node26 -->
<g id="edge9" class="edge">
<title>Node25&#45;&gt;Node26</title>
<path fill="none" stroke="#191970" d="M243.5,-46.1575C243.5,-37.155 243.5,-26.9199 243.5,-19.6427"/>
<polygon fill="#191970" stroke="#191970" points="240.0001,-46.2455 243.5,-56.2455 247.0001,-46.2456 240.0001,-46.2455"/>
</g>
<!-- Node27&#45;&gt;Node24 -->
<g id="edge11" class="edge">
<title>Node27&#45;&gt;Node24</title>
<path fill="none" stroke="#191970" d="M366.3865,-270.4538C368.6549,-261.3803 371.25,-250.9998 373.0893,-243.6427"/>
<polygon fill="#191970" stroke="#191970" points="362.9685,-269.6952 363.9386,-280.2455 369.7595,-271.393 362.9685,-269.6952"/>
</g>
<!-- Node28&#45;&gt;Node29 -->
<g id="edge14" class="edge">
<title>Node28&#45;&gt;Node29</title>
<path fill="none" stroke="#191970" d="M254.5655,-442.769C238.9717,-432.8456 219.099,-420.1994 205.6528,-411.6427"/>
<polygon fill="#191970" stroke="#191970" points="252.8559,-445.8296 263.1716,-448.2455 256.614,-439.9239 252.8559,-445.8296"/>
</g>
<!-- Node30 -->
<g id="node14" class="node">
<title>Node30</title>
<g id="a_node14"><a xlink:href="../../de/dec/hamiltonian_8hpp.html" target="_top" xlink:title="Contains declaration and definition of sirius::Hamiltonian class. ">
<polygon fill="#ffffff" stroke="#000000" points="153,-168.5 153,-187.5 240,-187.5 240,-168.5 153,-168.5"/>
<text text-anchor="middle" x="196.5" y="-175.5" font-family="Helvetica,sans-Serif" font-size="10.00" fill="#000000">hamiltonian.hpp</text>
</a>
</g>
</g>
<!-- Node28&#45;&gt;Node30 -->
<g id="edge19" class="edge">
<title>Node28&#45;&gt;Node30</title>
<path fill="none" stroke="#191970" d="M230.3909,-445.7668C160.8548,-426.6531 40.5,-387.5668 40.5,-346 40.5,-346 40.5,-346 40.5,-290 40.5,-259.4754 38.3919,-246.05 59.5,-224 72.816,-210.0899 119.419,-196.3226 154.6031,-187.528"/>
<polygon fill="#191970" stroke="#191970" points="229.6939,-449.2041 240.2612,-448.4399 231.5238,-442.4475 229.6939,-449.2041"/>
</g>
<!-- Node32 -->
<g id="node16" class="node">
<title>Node32</title>
<g id="a_node16"><a xlink:href="../../d3/d6a/periodic__function_8hpp.html" target="_top" xlink:title="Contains declaration and partial implementation of sirius::Periodic_function class. ">
<polygon fill="#ffffff" stroke="#000000" points="245.5,-392.5 245.5,-411.5 357.5,-411.5 357.5,-392.5 245.5,-392.5"/>
<text text-anchor="middle" x="301.5" y="-399.5" font-family="Helvetica,sans-Serif" font-size="10.00" fill="#000000">periodic_function.hpp</text>
</a>
</g>
</g>
<!-- Node28&#45;&gt;Node32 -->
<g id="edge20" class="edge">
<title>Node28&#45;&gt;Node32</title>
<path fill="none" stroke="#191970" d="M286.4066,-438.7493C290.1617,-429.6064 294.4851,-419.0798 297.5396,-411.6427"/>
<polygon fill="#191970" stroke="#191970" points="283.068,-437.6656 282.5063,-448.2455 289.5431,-440.3251 283.068,-437.6656"/>
</g>
<!-- Node29&#45;&gt;Node24 -->
<g id="edge15" class="edge">
<title>Node29&#45;&gt;Node24</title>
<path fill="none" stroke="#191970" d="M208.192,-385.5837C233.5889,-362.0609 281.9064,-317.4684 323.5,-280 337.4704,-267.4152 353.7239,-253.0866 364.2903,-243.8126"/>
<polygon fill="#191970" stroke="#191970" points="205.7443,-383.0802 200.7892,-392.4449 210.5027,-388.2142 205.7443,-383.0802"/>
</g>
<!-- Node29&#45;&gt;Node30 -->
<g id="edge16" class="edge">
<title>Node29&#45;&gt;Node30</title>
<path fill="none" stroke="#191970" d="M168.9793,-385.7304C154.5335,-372.7005 139.634,-353.732 148.5,-336 160.4257,-312.1486 184.5743,-323.8514 196.5,-300 215.4445,-262.1111 204.7882,-208.9607 199.2196,-187.5205"/>
<polygon fill="#191970" stroke="#191970" points="166.8987,-388.5538 176.8043,-392.3128 171.4048,-383.1971 166.8987,-388.5538"/>
</g>
<!-- Node31 -->
<g id="node15" class="node">
<title>Node31</title>
<g id="a_node15"><a xlink:href="../../da/d3d/band_8hpp.html" target="_top" xlink:title="Contains declaration and partial implementation of sirius::Band class. ">
<polygon fill="#ffffff" stroke="#000000" points="214.5,-112.5 214.5,-131.5 272.5,-131.5 272.5,-112.5 214.5,-112.5"/>
<text text-anchor="middle" x="243.5" y="-119.5" font-family="Helvetica,sans-Serif" font-size="10.00" fill="#000000">band.hpp</text>
</a>
</g>
</g>
<!-- Node30&#45;&gt;Node31 -->
<g id="edge17" class="edge">
<title>Node30&#45;&gt;Node31</title>
<path fill="none" stroke="#191970" d="M211.1872,-160.5004C219.1796,-150.9775 228.7625,-139.5596 235.407,-131.6427"/>
<polygon fill="#191970" stroke="#191970" points="208.4346,-158.3357 204.6868,-168.2455 213.7964,-162.8358 208.4346,-158.3357"/>
</g>
<!-- Node31&#45;&gt;Node25 -->
<g id="edge18" class="edge">
<title>Node31&#45;&gt;Node25</title>
<path fill="none" stroke="#191970" d="M243.5,-102.1575C243.5,-93.155 243.5,-82.9199 243.5,-75.6427"/>
<polygon fill="#191970" stroke="#191970" points="240.0001,-102.2455 243.5,-112.2455 247.0001,-102.2456 240.0001,-102.2455"/>
</g>
<!-- Node32&#45;&gt;Node22 -->
<g id="edge27" class="edge">
<title>Node32&#45;&gt;Node22</title>
<path fill="none" stroke="#191970" d="M330.3321,-387.8368C350.9395,-377.7139 378.1082,-364.3679 396.1584,-355.5011"/>
<polygon fill="#191970" stroke="#191970" points="328.5297,-384.8227 321.0973,-392.3733 331.616,-391.1056 328.5297,-384.8227"/>
</g>
<!-- Node32&#45;&gt;Node27 -->
<g id="edge28" class="edge">
<title>Node32&#45;&gt;Node27</title>
<path fill="none" stroke="#191970" d="M311.372,-383.5723C324.2883,-359.4618 346.445,-318.1028 356.3974,-299.5249"/>
<polygon fill="#191970" stroke="#191970" points="308.2526,-381.9833 306.6156,-392.4509 314.423,-385.2889 308.2526,-381.9833"/>
</g>
<!-- Node32&#45;&gt;Node31 -->
<g id="edge21" class="edge">
<title>Node32&#45;&gt;Node31</title>
<path fill="none" stroke="#191970" d="M298.6641,-382.2428C295.7075,-359.9031 291.5,-322.4169 291.5,-290 291.5,-290 291.5,-290 291.5,-234 291.5,-193.171 264.218,-150.2465 250.7902,-131.5923"/>
<polygon fill="#191970" stroke="#191970" points="295.2363,-383.008 300.0672,-392.4373 302.1709,-382.0534 295.2363,-383.008"/>
</g>
<!-- Node33 -->
<g id="node17" class="node">
<title>Node33</title>
<g id="a_node17"><a xlink:href="../../d0/d9a/density_8hpp.html" target="_top" xlink:title="Contains definition and partial implementation of sirius::Density class. ">
<polygon fill="#ffffff" stroke="#000000" points="157.5,-336.5 157.5,-355.5 225.5,-355.5 225.5,-336.5 157.5,-336.5"/>
<text text-anchor="middle" x="191.5" y="-343.5" font-family="Helvetica,sans-Serif" font-size="10.00" fill="#000000">density.hpp</text>
</a>
</g>
</g>
<!-- Node32&#45;&gt;Node33 -->
<g id="edge22" class="edge">
<title>Node32&#45;&gt;Node33</title>
<path fill="none" stroke="#191970" d="M273.2086,-387.5971C253.4889,-377.558 227.72,-364.4393 210.441,-355.6427"/>
<polygon fill="#191970" stroke="#191970" points="271.8399,-390.8277 282.3395,-392.2455 275.0157,-384.5896 271.8399,-390.8277"/>
</g>
<!-- Node34 -->
<g id="node18" class="node">
<title>Node34</title>
<g id="a_node18"><a xlink:href="../../de/df2/potential_8hpp.html" target="_top" xlink:title="Contains declaration and partial implementation of sirius::Potential class. ">
<polygon fill="#ffffff" stroke="#000000" points="113.5,-280.5 113.5,-299.5 187.5,-299.5 187.5,-280.5 113.5,-280.5"/>
<text text-anchor="middle" x="150.5" y="-287.5" font-family="Helvetica,sans-Serif" font-size="10.00" fill="#000000">potential.hpp</text>
</a>
</g>
</g>
<!-- Node33&#45;&gt;Node34 -->
<g id="edge23" class="edge">
<title>Node33&#45;&gt;Node34</title>
<path fill="none" stroke="#191970" d="M178.2636,-327.9209C171.3789,-318.5176 163.2391,-307.3997 157.5598,-299.6427"/>
<polygon fill="#191970" stroke="#191970" points="175.6269,-330.2445 184.3583,-336.2455 181.2749,-326.1093 175.6269,-330.2445"/>
</g>
<!-- Node34&#45;&gt;Node30 -->
<g id="edge24" class="edge">
<title>Node34&#45;&gt;Node30</title>
<path fill="none" stroke="#191970" d="M162.0716,-271.7037C166.9639,-263.4535 172.4534,-253.4564 176.5,-244 184.7901,-224.627 191.1345,-200.6966 194.2901,-187.6319"/>
<polygon fill="#191970" stroke="#191970" points="158.955,-270.0916 156.7252,-280.4491 164.9273,-273.7428 158.955,-270.0916"/>
</g>
<!-- Node35 -->
<g id="node19" class="node">
<title>Node35</title>
<g id="a_node19"><a xlink:href="../../d3/d2c/local__operator_8hpp.html" target="_top" xlink:title="Contains declaration and implementation of sirius::Local_operator class. ">
<polygon fill="#ffffff" stroke="#000000" points="69,-224.5 69,-243.5 168,-243.5 168,-224.5 69,-224.5"/>
<text text-anchor="middle" x="118.5" y="-231.5" font-family="Helvetica,sans-Serif" font-size="10.00" fill="#000000">local_operator.hpp</text>
</a>
</g>
</g>
<!-- Node34&#45;&gt;Node35 -->
<g id="edge25" class="edge">
<title>Node34&#45;&gt;Node35</title>
<path fill="none" stroke="#191970" d="M139.8355,-271.3372C134.5346,-262.0605 128.3513,-251.2398 124.0101,-243.6427"/>
<polygon fill="#191970" stroke="#191970" points="136.9257,-273.2996 144.926,-280.2455 143.0034,-269.8266 136.9257,-273.2996"/>
</g>
<!-- Node35&#45;&gt;Node30 -->
<g id="edge26" class="edge">
<title>Node35&#45;&gt;Node30</title>
<path fill="none" stroke="#191970" d="M140.4936,-218.2097C154.1929,-208.3743 171.3736,-196.0394 183.0691,-187.6427"/>
<polygon fill="#191970" stroke="#191970" points="138.1686,-215.5703 132.0866,-224.2455 142.2511,-221.2566 138.1686,-215.5703"/>
</g>
</g>
</svg>
