<?xml version="1.0" encoding="UTF-8" standalone="no"?>
<!DOCTYPE svg PUBLIC "-//W3C//DTD SVG 1.1//EN"
 "http://www.w3.org/Graphics/SVG/1.1/DTD/svg11.dtd">
<!-- Generated by graphviz version 2.40.1 (20161225.0304)
 -->
<!-- Title: sbessel.hpp Pages: 1 -->
<!--zoomable 756 -->
<svg id="main" version="1.1" xmlns="http://www.w3.org/2000/svg" xmlns:xlink="http://www.w3.org/1999/xlink" xml:space="preserve" onload="init(evt)">
<style type="text/css"><![CDATA[
.edge:hover path { stroke: red; }
.edge:hover polygon { stroke: red; fill: red; }
]]></style>
<script type="text/javascript"><![CDATA[
var edges = document.getElementsByTagName('g');
if (edges && edges.length) {
  for (var i=0;i<edges.length;i++) {
    if (edges[i].id.substr(0,4)=='edge') {
      edges[i].setAttribute('class','edge');
    }
  }
}
]]></script>
        <defs>
                <circle id="rim" cx="0" cy="0" r="7"/>
                <circle id="rim2" cx="0" cy="0" r="3.5"/>
                <g id="zoomPlus">
                        <use xlink:href="#rim" fill="#404040">
                                <set attributeName="fill" to="#808080" begin="zoomplus.mouseover" end="zoomplus.mouseout"/>
                        </use>
                        <path d="M-4,0h8M0,-4v8" fill="none" stroke="white" stroke-width="1.5" pointer-events="none"/>
                </g>
                <g id="zoomMin">
                        <use xlink:href="#rim" fill="#404040">
                                <set attributeName="fill" to="#808080" begin="zoomminus.mouseover" end="zoomminus.mouseout"/>
                        </use>
                        <path d="M-4,0h8" fill="none" stroke="white" stroke-width="1.5" pointer-events="none"/>
                </g>
                <g id="dirArrow">
                        <path fill="none" stroke="white" stroke-width="1.5" d="M0,-3.0v7 M-2.5,-0.5L0,-3.0L2.5,-0.5"/>
                </g>
               <g id="resetDef">
                       <use xlink:href="#rim2" fill="#404040">
                               <set attributeName="fill" to="#808080" begin="reset.mouseover" end="reset.mouseout"/>
                       </use>
               </g>
        </defs>

<script type="text/javascript">
var viewWidth = 1001;
var viewHeight = 756;
var sectionId = 'dynsection-1';
</script>
<script xlink:href="../../svgpan.js"/>
<svg id="graph" class="graph">
<g id="viewport">
<title>sbessel.hpp</title>
<polygon fill="#ffffff" stroke="transparent" points="-4,4 -4,-752 996.7525,-752 996.7525,4 -4,4"/>
<!-- Node123 -->
<g id="node1" class="node">
<title>Node123</title>
<polygon fill="#bfbfbf" stroke="#000000" points="409,-728.5 409,-747.5 479,-747.5 479,-728.5 409,-728.5"/>
<text text-anchor="middle" x="444" y="-735.5" font-family="Helvetica,sans-Serif" font-size="10.00" fill="#000000">sbessel.hpp</text>
</g>
<!-- Node124 -->
<g id="node2" class="node">
<title>Node124</title>
<g id="a_node2"><a xlink:href="../../de/d58/radial__integrals_8h.html" target="_top" xlink:title="Representation of various radial integrals. ">
<polygon fill="#ffffff" stroke="#000000" points="397.5,-672.5 397.5,-691.5 490.5,-691.5 490.5,-672.5 397.5,-672.5"/>
<text text-anchor="middle" x="444" y="-679.5" font-family="Helvetica,sans-Serif" font-size="10.00" fill="#000000">radial_integrals.h</text>
</a>
</g>
</g>
<!-- Node123&#45;&gt;Node124 -->
<g id="edge1" class="edge">
<title>Node123&#45;&gt;Node124</title>
<path fill="none" stroke="#191970" d="M444,-718.1575C444,-709.155 444,-698.9199 444,-691.6427"/>
<polygon fill="#191970" stroke="#191970" points="440.5001,-718.2455 444,-728.2455 447.5001,-718.2456 440.5001,-718.2455"/>
</g>
<!-- Node125 -->
<g id="node3" class="node">
<title>Node125</title>
<g id="a_node3"><a xlink:href="../../d3/d1c/augmentation__operator_8hpp.html" target="_top" xlink:title="Contains implementation of sirius::Augmentation_operator class. ">
<polygon fill="#ffffff" stroke="#000000" points="662.5,-616.5 662.5,-635.5 801.5,-635.5 801.5,-616.5 662.5,-616.5"/>
<text text-anchor="middle" x="732" y="-623.5" font-family="Helvetica,sans-Serif" font-size="10.00" fill="#000000">augmentation_operator.hpp</text>
</a>
</g>
</g>
<!-- Node124&#45;&gt;Node125 -->
<g id="edge2" class="edge">
<title>Node124&#45;&gt;Node125</title>
<path fill="none" stroke="#191970" d="M500.5408,-671.006C553.7207,-660.6654 632.5182,-645.3437 683.0657,-635.515"/>
<polygon fill="#191970" stroke="#191970" points="499.7403,-667.596 490.5923,-672.9404 501.0765,-674.4673 499.7403,-667.596"/>
</g>
<!-- Node132 -->
<g id="node10" class="node">
<title>Node132</title>
<g id="a_node10"><a xlink:href="../../d5/d5b/simulation__context_8h.html" target="_top" xlink:title="Contains definition and implementation of Simulation_context class. ">
<polygon fill="#ffffff" stroke="#000000" points="308,-560.5 308,-579.5 416,-579.5 416,-560.5 308,-560.5"/>
<text text-anchor="middle" x="362" y="-567.5" font-family="Helvetica,sans-Serif" font-size="10.00" fill="#000000">simulation_context.h</text>
</a>
</g>
</g>
<!-- Node124&#45;&gt;Node132 -->
<g id="edge54" class="edge">
<title>Node124&#45;&gt;Node132</title>
<path fill="none" stroke="#191970" d="M430.976,-664.2111C413.3956,-640.1989 382.6961,-598.2679 368.9736,-579.5249"/>
<polygon fill="#191970" stroke="#191970" points="428.2773,-666.4499 437.0087,-672.4509 433.9253,-662.3147 428.2773,-666.4499"/>
</g>
<!-- Node135 -->
<g id="node13" class="node">
<title>Node135</title>
<g id="a_node13"><a xlink:href="../../db/d74/hubbard_8hpp_source.html" target="_top" xlink:title="hubbard.hpp">
<polygon fill="#ffffff" stroke="#000000" points="370.5,-392.5 370.5,-411.5 443.5,-411.5 443.5,-392.5 370.5,-392.5"/>
<text text-anchor="middle" x="407" y="-399.5" font-family="Helvetica,sans-Serif" font-size="10.00" fill="#000000">hubbard.hpp</text>
</a>
</g>
</g>
<!-- Node124&#45;&gt;Node135 -->
<g id="edge53" class="edge">
<title>Node124&#45;&gt;Node135</title>
<path fill="none" stroke="#191970" d="M444,-662.1952C444,-639.8128 444,-602.2884 444,-570 444,-570 444,-570 444,-514 444,-474.2726 422.7516,-430.4377 412.4595,-411.5354"/>
<polygon fill="#191970" stroke="#191970" points="440.5001,-662.4116 444,-672.4116 447.5001,-662.4117 440.5001,-662.4116"/>
</g>
<!-- Node126 -->
<g id="node4" class="node">
<title>Node126</title>
<g id="a_node4"><a xlink:href="../../d5/d72/non__local__functor_8hpp.html" target="_top" xlink:title="Common operation for forces and stress tensor. ">
<polygon fill="#ffffff" stroke="#000000" points="864.5,-448.5 864.5,-467.5 979.5,-467.5 979.5,-448.5 864.5,-448.5"/>
<text text-anchor="middle" x="922" y="-455.5" font-family="Helvetica,sans-Serif" font-size="10.00" fill="#000000">non_local_functor.hpp</text>
</a>
</g>
</g>
<!-- Node125&#45;&gt;Node126 -->
<g id="edge3" class="edge">
<title>Node125&#45;&gt;Node126</title>
<path fill="none" stroke="#191970" d="M759.2082,-611.1806C790.3577,-593.3221 841.7455,-561.0537 878,-524 895.1431,-506.4789 909.7188,-481.4148 917.0094,-467.7679"/>
<polygon fill="#191970" stroke="#191970" points="757.2172,-608.2853 750.23,-616.2496 760.6587,-614.3809 757.2172,-608.2853"/>
</g>
<!-- Node131 -->
<g id="node9" class="node">
<title>Node131</title>
<g id="a_node9"><a xlink:href="../../d6/d1e/force_8hpp.html" target="_top" xlink:title="Contains defintion and implementation of sirius::Force class. ">
<polygon fill="#ffffff" stroke="#000000" points="769,-392.5 769,-411.5 827,-411.5 827,-392.5 769,-392.5"/>
<text text-anchor="middle" x="798" y="-399.5" font-family="Helvetica,sans-Serif" font-size="10.00" fill="#000000">force.hpp</text>
</a>
</g>
</g>
<!-- Node125&#45;&gt;Node131 -->
<g id="edge10" class="edge">
<title>Node125&#45;&gt;Node131</title>
<path fill="none" stroke="#191970" d="M779.3424,-613.4846C841.4475,-594.1407 947.4075,-550.3113 989,-468 993.0089,-460.0665 994.5006,-454.9826 989,-448 978.9481,-435.2398 878.0909,-415.9981 827.1384,-406.9871"/>
<polygon fill="#191970" stroke="#191970" points="778.3261,-610.1353 769.768,-616.381 780.3531,-616.8354 778.3261,-610.1353"/>
</g>
<!-- Node125&#45;&gt;Node132 -->
<g id="edge11" class="edge">
<title>Node125&#45;&gt;Node132</title>
<path fill="none" stroke="#191970" d="M658.5405,-614.8818C587.0964,-604.0686 480.2379,-587.8955 416.1963,-578.2027"/>
<polygon fill="#191970" stroke="#191970" points="658.404,-618.4009 668.8151,-616.4369 659.4515,-611.4797 658.404,-618.4009"/>
</g>
<!-- Node127 -->
<g id="node5" class="node">
<title>Node127</title>
<g id="a_node5"><a xlink:href="../../d7/dd1/stress_8hpp.html" target="_top" xlink:title="Stress tensor calculation. ">
<polygon fill="#ffffff" stroke="#000000" points="867.5,-392.5 867.5,-411.5 930.5,-411.5 930.5,-392.5 867.5,-392.5"/>
<text text-anchor="middle" x="899" y="-399.5" font-family="Helvetica,sans-Serif" font-size="10.00" fill="#000000">stress.hpp</text>
</a>
</g>
</g>
<!-- Node126&#45;&gt;Node127 -->
<g id="edge4" class="edge">
<title>Node126&#45;&gt;Node127</title>
<path fill="none" stroke="#191970" d="M914.0934,-438.7493C910.3383,-429.6064 906.0149,-419.0798 902.9604,-411.6427"/>
<polygon fill="#191970" stroke="#191970" points="910.9569,-440.3251 917.9937,-448.2455 917.432,-437.6656 910.9569,-440.3251"/>
</g>
<!-- Node126&#45;&gt;Node131 -->
<g id="edge8" class="edge">
<title>Node126&#45;&gt;Node131</title>
<path fill="none" stroke="#191970" d="M891.5476,-444.2473C869.0278,-434.0771 838.9383,-420.4883 819.0382,-411.5011"/>
<polygon fill="#191970" stroke="#191970" points="890.1294,-447.4471 900.6836,-448.3733 893.0105,-441.0675 890.1294,-447.4471"/>
</g>
<!-- Node128 -->
<g id="node6" class="node">
<title>Node128</title>
<g id="a_node6"><a xlink:href="../../d6/df1/dft__ground__state_8h.html" target="_top" xlink:title="Contains definition and partial implementation of sirius::DFT_ground_state class. ...">
<polygon fill="#ffffff" stroke="#000000" points="538,-336.5 538,-355.5 638,-355.5 638,-336.5 538,-336.5"/>
<text text-anchor="middle" x="588" y="-343.5" font-family="Helvetica,sans-Serif" font-size="10.00" fill="#000000">dft_ground_state.h</text>
</a>
</g>
</g>
<!-- Node127&#45;&gt;Node128 -->
<g id="edge5" class="edge">
<title>Node127&#45;&gt;Node128</title>
<path fill="none" stroke="#191970" d="M857.4193,-394.5128C800.7037,-384.3003 699.1946,-366.0222 638.2747,-355.0527"/>
<polygon fill="#191970" stroke="#191970" points="857.0062,-397.9946 867.4682,-396.3222 858.2467,-391.1054 857.0062,-397.9946"/>
</g>
<!-- Node129 -->
<g id="node7" class="node">
<title>Node129</title>
<g id="a_node7"><a xlink:href="../../dd/dc2/sirius_8h.html" target="_top" xlink:title="&quot;All&#45;in&#45;one&quot; include file. ">
<polygon fill="#ffffff" stroke="#000000" points="254,-56.5 254,-75.5 302,-75.5 302,-56.5 254,-56.5"/>
<text text-anchor="middle" x="278" y="-63.5" font-family="Helvetica,sans-Serif" font-size="10.00" fill="#000000">sirius.h</text>
</a>
</g>
</g>
<!-- Node128&#45;&gt;Node129 -->
<g id="edge6" class="edge">
<title>Node128&#45;&gt;Node129</title>
<path fill="none" stroke="#191970" d="M582.3181,-326.3467C576.4055,-304.1295 568,-266.7807 568,-234 568,-234 568,-234 568,-178 568,-121.1949 371.925,-82.082 302.2264,-69.9731"/>
<polygon fill="#191970" stroke="#191970" points="579.009,-327.5122 585.0489,-336.2168 585.7555,-325.6455 579.009,-327.5122"/>
</g>
<!-- Node130 -->
<g id="node8" class="node">
<title>Node130</title>
<g id="a_node8"><a xlink:href="../../d4/d53/sirius__api_8cpp.html" target="_top" xlink:title="Fortran API. ">
<polygon fill="#ffffff" stroke="#000000" points="239,-.5 239,-19.5 317,-19.5 317,-.5 239,-.5"/>
<text text-anchor="middle" x="278" y="-7.5" font-family="Helvetica,sans-Serif" font-size="10.00" fill="#000000">sirius_api.cpp</text>
</a>
</g>
</g>
<!-- Node129&#45;&gt;Node130 -->
<g id="edge7" class="edge">
<title>Node129&#45;&gt;Node130</title>
<path fill="none" stroke="#191970" d="M278,-46.1575C278,-37.155 278,-26.9199 278,-19.6427"/>
<polygon fill="#191970" stroke="#191970" points="274.5001,-46.2455 278,-56.2455 281.5001,-46.2456 274.5001,-46.2455"/>
</g>
<!-- Node131&#45;&gt;Node128 -->
<g id="edge9" class="edge">
<title>Node131&#45;&gt;Node128</title>
<path fill="none" stroke="#191970" d="M758.9424,-391.5846C720.2691,-381.2718 661.5457,-365.6122 623.9809,-355.5949"/>
<polygon fill="#191970" stroke="#191970" points="758.2362,-395.0186 768.8004,-394.2134 760.0399,-388.2549 758.2362,-395.0186"/>
</g>
<!-- Node132&#45;&gt;Node126 -->
<g id="edge40" class="edge">
<title>Node132&#45;&gt;Node126</title>
<path fill="none" stroke="#191970" d="M426.0664,-568.9886C540.6703,-566.356 775.733,-556.9846 850,-524 878.5152,-511.3354 903.2351,-482.7805 914.8845,-467.7201"/>
<polygon fill="#191970" stroke="#191970" points="425.9475,-565.4902 416.0267,-569.209 426.1012,-572.4886 425.9475,-565.4902"/>
</g>
<!-- Node132&#45;&gt;Node131 -->
<g id="edge41" class="edge">
<title>Node132&#45;&gt;Node131</title>
<path fill="none" stroke="#191970" d="M426.3221,-564.4521C535.5304,-553.5524 749.799,-525.2554 795,-468 807.7933,-451.795 804.0791,-425.7489 800.7464,-411.7122"/>
<polygon fill="#191970" stroke="#191970" points="425.7024,-560.9959 416.0907,-565.453 426.384,-567.9627 425.7024,-560.9959"/>
</g>
<!-- Node133 -->
<g id="node11" class="node">
<title>Node133</title>
<g id="a_node11"><a xlink:href="../../d2/d5f/beta__projectors_8h.html" target="_top" xlink:title="Contains declaration and implementation of sirius::Beta_projectors class. ">
<polygon fill="#ffffff" stroke="#000000" points="497,-504.5 497,-523.5 591,-523.5 591,-504.5 497,-504.5"/>
<text text-anchor="middle" x="544" y="-511.5" font-family="Helvetica,sans-Serif" font-size="10.00" fill="#000000">beta_projectors.h</text>
</a>
</g>
</g>
<!-- Node132&#45;&gt;Node133 -->
<g id="edge12" class="edge">
<title>Node132&#45;&gt;Node133</title>
<path fill="none" stroke="#191970" d="M403.1986,-557.3235C436.5758,-547.0536 482.8699,-532.8093 513.1214,-523.5011"/>
<polygon fill="#191970" stroke="#191970" points="401.8154,-554.0871 393.2869,-560.3733 403.874,-560.7776 401.8154,-554.0871"/>
</g>
<!-- Node132&#45;&gt;Node135 -->
<g id="edge39" class="edge">
<title>Node132&#45;&gt;Node135</title>
<path fill="none" stroke="#191970" d="M367.1625,-550.7267C376.7802,-514.8207 397.1208,-438.8822 404.3675,-411.8279"/>
<polygon fill="#191970" stroke="#191970" points="363.7549,-549.9212 364.5483,-560.4862 370.5166,-551.7324 363.7549,-549.9212"/>
</g>
<!-- Node136 -->
<g id="node14" class="node">
<title>Node136</title>
<g id="a_node14"><a xlink:href="../../de/dec/hamiltonian_8hpp.html" target="_top" xlink:title="Contains declaration and definition of sirius::Hamiltonian class. ">
<polygon fill="#ffffff" stroke="#000000" points="234.5,-168.5 234.5,-187.5 321.5,-187.5 321.5,-168.5 234.5,-168.5"/>
<text text-anchor="middle" x="278" y="-175.5" font-family="Helvetica,sans-Serif" font-size="10.00" fill="#000000">hamiltonian.hpp</text>
</a>
</g>
</g>
<!-- Node132&#45;&gt;Node136 -->
<g id="edge42" class="edge">
<title>Node132&#45;&gt;Node136</title>
<path fill="none" stroke="#191970" d="M297.7224,-563.435C193.7037,-551.0081 0,-519.5972 0,-458 0,-458 0,-458 0,-346 0,-237.8677 155.968,-197.4686 234.2567,-184.0013"/>
<polygon fill="#191970" stroke="#191970" points="297.4662,-566.9288 307.8049,-564.6137 298.279,-559.9761 297.4662,-566.9288"/>
</g>
<!-- Node140 -->
<g id="node18" class="node">
<title>Node140</title>
<g id="a_node18"><a xlink:href="../../d0/d9a/density_8hpp.html" target="_top" xlink:title="Contains definition and partial implementation of sirius::Density class. ">
<polygon fill="#ffffff" stroke="#000000" points="142,-336.5 142,-355.5 210,-355.5 210,-336.5 142,-336.5"/>
<text text-anchor="middle" x="176" y="-343.5" font-family="Helvetica,sans-Serif" font-size="10.00" fill="#000000">density.hpp</text>
</a>
</g>
</g>
<!-- Node132&#45;&gt;Node140 -->
<g id="edge38" class="edge">
<title>Node132&#45;&gt;Node140</title>
<path fill="none" stroke="#191970" d="M297.959,-561.4116C253.3629,-554.0013 199.4004,-541.6798 185,-524 143.7685,-473.3788 164.3905,-385.2816 172.9145,-355.874"/>
<polygon fill="#191970" stroke="#191970" points="297.4668,-564.8774 307.8956,-563.0089 298.5778,-557.9661 297.4668,-564.8774"/>
</g>
<!-- Node141 -->
<g id="node19" class="node">
<title>Node141</title>
<g id="a_node19"><a xlink:href="../../de/df2/potential_8hpp.html" target="_top" xlink:title="Contains declaration and partial implementation of sirius::Potential class. ">
<polygon fill="#ffffff" stroke="#000000" points="105,-280.5 105,-299.5 179,-299.5 179,-280.5 105,-280.5"/>
<text text-anchor="middle" x="142" y="-287.5" font-family="Helvetica,sans-Serif" font-size="10.00" fill="#000000">potential.hpp</text>
</a>
</g>
</g>
<!-- Node132&#45;&gt;Node141 -->
<g id="edge52" class="edge">
<title>Node132&#45;&gt;Node141</title>
<path fill="none" stroke="#191970" d="M297.8906,-561.96C249.0342,-554.5466 187.1576,-541.9589 169,-524 114.2792,-469.878 136.4038,-432.388 127,-356 125.9139,-347.1777 125.6048,-344.7787 127,-336 129.0567,-323.0584 134.1769,-308.8079 137.8632,-299.6493"/>
<polygon fill="#191970" stroke="#191970" points="297.3807,-565.4225 307.7843,-563.4186 298.4017,-558.4974 297.3807,-565.4225"/>
</g>
<!-- Node143 -->
<g id="node21" class="node">
<title>Node143</title>
<g id="a_node21"><a xlink:href="../../de/de7/non__local__operator_8hpp.html" target="_top" xlink:title="Contains declaration and implementation of sirius::Non_local_operator class. ">
<polygon fill="#ffffff" stroke="#000000" points="256,-448.5 256,-467.5 378,-467.5 378,-448.5 256,-448.5"/>
<text text-anchor="middle" x="317" y="-455.5" font-family="Helvetica,sans-Serif" font-size="10.00" fill="#000000">non_local_operator.hpp</text>
</a>
</g>
</g>
<!-- Node132&#45;&gt;Node143 -->
<g id="edge43" class="edge">
<title>Node132&#45;&gt;Node143</title>
<path fill="none" stroke="#191970" d="M354.336,-550.9253C344.6141,-526.7284 328.2249,-485.9376 320.827,-467.5249"/>
<polygon fill="#191970" stroke="#191970" points="351.1874,-552.4768 358.1633,-560.4509 357.6827,-549.867 351.1874,-552.4768"/>
</g>
<!-- Node144 -->
<g id="node22" class="node">
<title>Node144</title>
<g id="a_node22"><a xlink:href="../../d8/d65/periodic__function_8h.html" target="_top" xlink:title="Contains declaration and partial implementation of sirius::Periodic_function class. ">
<polygon fill="#ffffff" stroke="#000000" points="194,-504.5 194,-523.5 294,-523.5 294,-504.5 194,-504.5"/>
<text text-anchor="middle" x="244" y="-511.5" font-family="Helvetica,sans-Serif" font-size="10.00" fill="#000000">periodic_function.h</text>
</a>
</g>
</g>
<!-- Node132&#45;&gt;Node144 -->
<g id="edge44" class="edge">
<title>Node132&#45;&gt;Node144</title>
<path fill="none" stroke="#191970" d="M332.4453,-555.9741C311.0805,-545.8348 282.7884,-532.408 264.0202,-523.5011"/>
<polygon fill="#191970" stroke="#191970" points="331.1802,-559.2478 341.7151,-560.3733 334.1814,-552.9238 331.1802,-559.2478"/>
</g>
<!-- Node133&#45;&gt;Node126 -->
<g id="edge33" class="edge">
<title>Node133&#45;&gt;Node126</title>
<path fill="none" stroke="#191970" d="M601.2337,-505.5209C672.3701,-494.9822 793.0758,-477.0999 864.3876,-466.5352"/>
<polygon fill="#191970" stroke="#191970" points="600.4888,-502.093 591.1097,-507.0208 601.5147,-509.0174 600.4888,-502.093"/>
</g>
<!-- Node133&#45;&gt;Node131 -->
<g id="edge34" class="edge">
<title>Node133&#45;&gt;Node131</title>
<path fill="none" stroke="#191970" d="M601.1676,-508.9611C660.6344,-502.6292 748.5596,-489.854 774,-468 790.8324,-453.5406 795.8616,-426.2821 797.3626,-411.7315"/>
<polygon fill="#191970" stroke="#191970" points="600.7377,-505.4868 591.1503,-509.9958 601.457,-512.4497 600.7377,-505.4868"/>
</g>
<!-- Node134 -->
<g id="node12" class="node">
<title>Node134</title>
<g id="a_node12"><a xlink:href="../../d4/d0f/beta__projectors__gradient_8h.html" target="_top" xlink:title="Contains declaration and implementation of sirius::Beta_projectors_gradient class. ">
<polygon fill="#ffffff" stroke="#000000" points="596.5,-448.5 596.5,-467.5 731.5,-467.5 731.5,-448.5 596.5,-448.5"/>
<text text-anchor="middle" x="664" y="-455.5" font-family="Helvetica,sans-Serif" font-size="10.00" fill="#000000">beta_projectors_gradient.h</text>
</a>
</g>
</g>
<!-- Node133&#45;&gt;Node134 -->
<g id="edge13" class="edge">
<title>Node133&#45;&gt;Node134</title>
<path fill="none" stroke="#191970" d="M573.7624,-500.1109C595.5232,-489.9559 624.4682,-476.4482 643.6405,-467.5011"/>
<polygon fill="#191970" stroke="#191970" points="572.2105,-496.9727 564.6287,-504.3733 575.1707,-503.316 572.2105,-496.9727"/>
</g>
<!-- Node133&#45;&gt;Node135 -->
<g id="edge32" class="edge">
<title>Node133&#45;&gt;Node135</title>
<path fill="none" stroke="#191970" d="M524.5226,-498.0768C495.5995,-474.4317 442.1837,-430.7633 418.651,-411.5249"/>
<polygon fill="#191970" stroke="#191970" points="522.3621,-500.8313 532.3195,-504.4509 526.7926,-495.4119 522.3621,-500.8313"/>
</g>
<!-- Node138 -->
<g id="node16" class="node">
<title>Node138</title>
<g id="a_node16"><a xlink:href="../../d3/d9a/k__point_8hpp.html" target="_top" xlink:title="Contains definition and partial implementation of sirius::K_point class. ">
<polygon fill="#ffffff" stroke="#000000" points="510,-448.5 510,-467.5 578,-467.5 578,-448.5 510,-448.5"/>
<text text-anchor="middle" x="544" y="-455.5" font-family="Helvetica,sans-Serif" font-size="10.00" fill="#000000">k_point.hpp</text>
</a>
</g>
</g>
<!-- Node133&#45;&gt;Node138 -->
<g id="edge20" class="edge">
<title>Node133&#45;&gt;Node138</title>
<path fill="none" stroke="#191970" d="M544,-494.1575C544,-485.155 544,-474.9199 544,-467.6427"/>
<polygon fill="#191970" stroke="#191970" points="540.5001,-494.2455 544,-504.2455 547.5001,-494.2456 540.5001,-494.2455"/>
</g>
<!-- Node133&#45;&gt;Node143 -->
<g id="edge35" class="edge">
<title>Node133&#45;&gt;Node143</title>
<path fill="none" stroke="#191970" d="M495.2842,-501.982C453.5167,-491.6781 394.1519,-477.0331 355.6049,-467.5237"/>
<polygon fill="#191970" stroke="#191970" points="494.688,-505.4398 505.2352,-504.4369 496.3646,-498.6435 494.688,-505.4398"/>
</g>
<!-- Node134&#45;&gt;Node131 -->
<g id="edge19" class="edge">
<title>Node134&#45;&gt;Node131</title>
<path fill="none" stroke="#191970" d="M696.5828,-444.3833C720.9536,-434.1985 753.6642,-420.5284 775.2652,-411.5011"/>
<polygon fill="#191970" stroke="#191970" points="694.9125,-441.2879 687.0354,-448.3733 697.6117,-447.7466 694.9125,-441.2879"/>
</g>
<!-- Node134&#45;&gt;Node135 -->
<g id="edge14" class="edge">
<title>Node134&#45;&gt;Node135</title>
<path fill="none" stroke="#191970" d="M610.1306,-446.2619C560.166,-435.3747 487.1622,-419.4672 443.6336,-409.9824"/>
<polygon fill="#191970" stroke="#191970" points="609.5962,-449.7275 620.1121,-448.4369 611.0866,-442.888 609.5962,-449.7275"/>
</g>
<!-- Node135&#45;&gt;Node128 -->
<g id="edge15" class="edge">
<title>Node135&#45;&gt;Node128</title>
<path fill="none" stroke="#191970" d="M447.9722,-389.3235C481.1661,-379.0536 527.2058,-364.8093 557.291,-355.5011"/>
<polygon fill="#191970" stroke="#191970" points="446.6337,-386.0739 438.115,-392.3733 448.7027,-392.7611 446.6337,-386.0739"/>
</g>
<!-- Node135&#45;&gt;Node136 -->
<g id="edge16" class="edge">
<title>Node135&#45;&gt;Node136</title>
<path fill="none" stroke="#191970" d="M401.8697,-382.6199C392.1253,-348.2638 368.5001,-275.4582 331,-224 320.2365,-209.2302 303.8904,-195.9759 292.1991,-187.532"/>
<polygon fill="#191970" stroke="#191970" points="398.5187,-383.6342 404.5458,-392.3476 405.2679,-381.7774 398.5187,-383.6342"/>
</g>
<!-- Node137 -->
<g id="node15" class="node">
<title>Node137</title>
<g id="a_node15"><a xlink:href="../../da/d3d/band_8hpp.html" target="_top" xlink:title="Contains declaration and partial implementation of sirius::Band class. ">
<polygon fill="#ffffff" stroke="#000000" points="249,-112.5 249,-131.5 307,-131.5 307,-112.5 249,-112.5"/>
<text text-anchor="middle" x="278" y="-119.5" font-family="Helvetica,sans-Serif" font-size="10.00" fill="#000000">band.hpp</text>
</a>
</g>
</g>
<!-- Node136&#45;&gt;Node137 -->
<g id="edge17" class="edge">
<title>Node136&#45;&gt;Node137</title>
<path fill="none" stroke="#191970" d="M278,-158.1575C278,-149.155 278,-138.9199 278,-131.6427"/>
<polygon fill="#191970" stroke="#191970" points="274.5001,-158.2455 278,-168.2455 281.5001,-158.2456 274.5001,-158.2455"/>
</g>
<!-- Node137&#45;&gt;Node129 -->
<g id="edge18" class="edge">
<title>Node137&#45;&gt;Node129</title>
<path fill="none" stroke="#191970" d="M278,-102.1575C278,-93.155 278,-82.9199 278,-75.6427"/>
<polygon fill="#191970" stroke="#191970" points="274.5001,-102.2455 278,-112.2455 281.5001,-102.2456 274.5001,-102.2455"/>
</g>
<!-- Node138&#45;&gt;Node135 -->
<g id="edge30" class="edge">
<title>Node138&#45;&gt;Node135</title>
<path fill="none" stroke="#191970" d="M511.0194,-444.5189C486.0689,-434.3201 452.4266,-420.5685 430.2438,-411.5011"/>
<polygon fill="#191970" stroke="#191970" points="509.868,-447.8293 520.4489,-448.3733 512.5166,-441.3497 509.868,-447.8293"/>
</g>
<!-- Node138&#45;&gt;Node136 -->
<g id="edge31" class="edge">
<title>Node138&#45;&gt;Node136</title>
<path fill="none" stroke="#191970" d="M520.5064,-442.3859C510.1247,-434.4062 498.58,-423.8743 491,-412 474.5757,-386.2708 472,-376.5246 472,-346 472,-346 472,-346 472,-290 472,-220.9695 378.735,-193.8212 321.5374,-183.6625"/>
<polygon fill="#191970" stroke="#191970" points="518.6984,-445.3992 528.8409,-448.4621 522.8221,-439.7428 518.6984,-445.3992"/>
</g>
<!-- Node139 -->
<g id="node17" class="node">
<title>Node139</title>
<g id="a_node17"><a xlink:href="../../d3/de4/k__point__set_8hpp.html" target="_top" xlink:title="Contains declaration and partial implementation of sirius::K_point_set class. ">
<polygon fill="#ffffff" stroke="#000000" points="500.5,-392.5 500.5,-411.5 587.5,-411.5 587.5,-392.5 500.5,-392.5"/>
<text text-anchor="middle" x="544" y="-399.5" font-family="Helvetica,sans-Serif" font-size="10.00" fill="#000000">k_point_set.hpp</text>
</a>
</g>
</g>
<!-- Node138&#45;&gt;Node139 -->
<g id="edge21" class="edge">
<title>Node138&#45;&gt;Node139</title>
<path fill="none" stroke="#191970" d="M544,-438.1575C544,-429.155 544,-418.9199 544,-411.6427"/>
<polygon fill="#191970" stroke="#191970" points="540.5001,-438.2455 544,-448.2455 547.5001,-438.2456 540.5001,-438.2455"/>
</g>
<!-- Node139&#45;&gt;Node128 -->
<g id="edge29" class="edge">
<title>Node139&#45;&gt;Node128</title>
<path fill="none" stroke="#191970" d="M557.9769,-384.2112C565.4129,-374.7472 574.266,-363.4797 580.4236,-355.6427"/>
<polygon fill="#191970" stroke="#191970" points="555.0903,-382.22 551.6642,-392.2455 560.5946,-386.5447 555.0903,-382.22"/>
</g>
<!-- Node139&#45;&gt;Node137 -->
<g id="edge22" class="edge">
<title>Node139&#45;&gt;Node137</title>
<path fill="none" stroke="#191970" d="M534.6151,-383.2933C524.5515,-361.4707 510,-324.0323 510,-290 510,-290 510,-290 510,-234 510,-189.498 369.8109,-146.5052 307.383,-129.5662"/>
<polygon fill="#191970" stroke="#191970" points="531.5061,-384.9046 538.9832,-392.4109 537.819,-381.8802 531.5061,-384.9046"/>
</g>
<!-- Node139&#45;&gt;Node140 -->
<g id="edge23" class="edge">
<title>Node139&#45;&gt;Node140</title>
<path fill="none" stroke="#191970" d="M490.3789,-393.8403C413.5275,-382.1455 274.2683,-360.9539 210.0804,-351.1861"/>
<polygon fill="#191970" stroke="#191970" points="489.9277,-397.3118 500.3405,-395.3562 490.9808,-390.3915 489.9277,-397.3118"/>
</g>
<!-- Node140&#45;&gt;Node141 -->
<g id="edge24" class="edge">
<title>Node140&#45;&gt;Node141</title>
<path fill="none" stroke="#191970" d="M164.8465,-327.6296C159.1753,-318.2887 152.5155,-307.3197 147.8545,-299.6427"/>
<polygon fill="#191970" stroke="#191970" points="161.8961,-329.5141 170.0777,-336.2455 167.8796,-325.8812 161.8961,-329.5141"/>
</g>
<!-- Node141&#45;&gt;Node129 -->
<g id="edge28" class="edge">
<title>Node141&#45;&gt;Node129</title>
<path fill="none" stroke="#191970" d="M145.8859,-270.169C148.9536,-256.725 153.9085,-238.782 161,-224 190.8226,-161.8356 246.4279,-99.4005 268.5594,-75.8267"/>
<polygon fill="#191970" stroke="#191970" points="142.4018,-269.7266 143.7474,-280.2357 149.2491,-271.1812 142.4018,-269.7266"/>
</g>
<!-- Node141&#45;&gt;Node136 -->
<g id="edge25" class="edge">
<title>Node141&#45;&gt;Node136</title>
<path fill="none" stroke="#191970" d="M149.2989,-270.8089C155.5946,-256.3867 165.9045,-236.9645 180,-224 198.6751,-206.8233 224.9068,-194.9705 245.5318,-187.6032"/>
<polygon fill="#191970" stroke="#191970" points="145.9781,-269.6825 145.4273,-280.263 152.456,-272.3353 145.9781,-269.6825"/>
</g>
<!-- Node142 -->
<g id="node20" class="node">
<title>Node142</title>
<g id="a_node20"><a xlink:href="../../d3/d2c/local__operator_8hpp.html" target="_top" xlink:title="Contains declaration and implementation of sirius::Local_operator class. ">
<polygon fill="#ffffff" stroke="#000000" points="189.5,-224.5 189.5,-243.5 288.5,-243.5 288.5,-224.5 189.5,-224.5"/>
<text text-anchor="middle" x="239" y="-231.5" font-family="Helvetica,sans-Serif" font-size="10.00" fill="#000000">local_operator.hpp</text>
</a>
</g>
</g>
<!-- Node141&#45;&gt;Node142 -->
<g id="edge26" class="edge">
<title>Node141&#45;&gt;Node142</title>
<path fill="none" stroke="#191970" d="M167.9016,-275.0465C185.1609,-265.0824 207.3376,-252.2794 222.2975,-243.6427"/>
<polygon fill="#191970" stroke="#191970" points="165.8065,-272.2146 158.8961,-280.2455 169.3064,-278.2768 165.8065,-272.2146"/>
</g>
<!-- Node142&#45;&gt;Node136 -->
<g id="edge27" class="edge">
<title>Node142&#45;&gt;Node136</title>
<path fill="none" stroke="#191970" d="M251.5908,-215.9209C258.1395,-206.5176 265.8824,-195.3997 271.2846,-187.6427"/>
<polygon fill="#191970" stroke="#191970" points="248.6361,-214.0392 245.7933,-224.2455 254.3804,-218.0397 248.6361,-214.0392"/>
</g>
<!-- Node143&#45;&gt;Node135 -->
<g id="edge36" class="edge">
<title>Node143&#45;&gt;Node135</title>
<path fill="none" stroke="#191970" d="M341.4784,-442.769C357.4266,-432.8456 377.751,-420.1994 391.5028,-411.6427"/>
<polygon fill="#191970" stroke="#191970" points="339.3183,-439.9908 332.6768,-448.2455 343.0165,-445.9342 339.3183,-439.9908"/>
</g>
<!-- Node143&#45;&gt;Node136 -->
<g id="edge37" class="edge">
<title>Node143&#45;&gt;Node136</title>
<path fill="none" stroke="#191970" d="M317,-438.1952C317,-415.8128 317,-378.2884 317,-346 317,-346 317,-346 317,-290 317,-250.2621 294.8334,-206.7836 283.9233,-187.7906"/>
<polygon fill="#191970" stroke="#191970" points="313.5001,-438.4116 317,-448.4116 320.5001,-438.4117 313.5001,-438.4116"/>
</g>
<!-- Node144&#45;&gt;Node126 -->
<g id="edge48" class="edge">
<title>Node144&#45;&gt;Node126</title>
<path fill="none" stroke="#191970" d="M304.2558,-509.0231C433.6761,-498.3335 736.7707,-473.2992 864.0754,-462.7843"/>
<polygon fill="#191970" stroke="#191970" points="303.8082,-505.5481 294.1303,-509.8594 304.3845,-512.5243 303.8082,-505.5481"/>
</g>
<!-- Node144&#45;&gt;Node131 -->
<g id="edge49" class="edge">
<title>Node144&#45;&gt;Node131</title>
<path fill="none" stroke="#191970" d="M304.1338,-510.954C427.9469,-504.3193 702.9684,-487.5762 741,-468 765.769,-455.2506 784.3788,-426.7327 792.8876,-411.7"/>
<polygon fill="#191970" stroke="#191970" points="303.859,-507.4636 294.0588,-511.4894 304.2305,-514.4537 303.859,-507.4636"/>
</g>
<!-- Node144&#45;&gt;Node137 -->
<g id="edge45" class="edge">
<title>Node144&#45;&gt;Node137</title>
<path fill="none" stroke="#191970" d="M202.1887,-501.0125C141.976,-479.4022 38,-429.9339 38,-346 38,-346 38,-346 38,-234 38,-188.0196 184.4844,-145.5242 248.5713,-129.1327"/>
<polygon fill="#191970" stroke="#191970" points="201.2177,-504.3804 211.8125,-504.3637 203.5197,-497.7697 201.2177,-504.3804"/>
</g>
<!-- Node144&#45;&gt;Node138 -->
<g id="edge47" class="edge">
<title>Node144&#45;&gt;Node138</title>
<path fill="none" stroke="#191970" d="M304.2233,-502.7583C366.0296,-491.2211 460.0081,-473.6785 509.975,-464.3513"/>
<polygon fill="#191970" stroke="#191970" points="303.4012,-499.3512 294.2133,-504.6269 304.6857,-506.2324 303.4012,-499.3512"/>
</g>
<!-- Node144&#45;&gt;Node140 -->
<g id="edge46" class="edge">
<title>Node144&#45;&gt;Node140</title>
<path fill="none" stroke="#191970" d="M230.5023,-495.857C224.846,-487.6546 218.5433,-477.6523 214,-468 195.1992,-428.0569 182.6657,-376.4927 178.0165,-355.5108"/>
<polygon fill="#191970" stroke="#191970" points="227.8267,-498.133 236.4855,-504.2385 233.524,-494.0659 227.8267,-498.133"/>
</g>
<!-- Node144&#45;&gt;Node141 -->
<g id="edge51" class="edge">
<title>Node144&#45;&gt;Node141</title>
<path fill="none" stroke="#191970" d="M226.1698,-497.1438C199.3349,-470.3341 149.907,-414.9512 133,-356 127.389,-336.4354 133.747,-312.5768 138.2687,-299.5758"/>
<polygon fill="#191970" stroke="#191970" points="223.8086,-499.7302 233.4032,-504.2239 228.705,-494.7277 223.8086,-499.7302"/>
</g>
<!-- Node144&#45;&gt;Node142 -->
<g id="edge50" class="edge">
<title>Node144&#45;&gt;Node142</title>
<path fill="none" stroke="#191970" d="M243.6449,-494.1153C242.6547,-438.6613 239.8882,-283.7405 239.1714,-243.5977"/>
<polygon fill="#191970" stroke="#191970" points="240.1498,-494.4259 243.8279,-504.3618 247.1487,-494.3008 240.1498,-494.4259"/>
</g>
</g>
</svg>
        <g id="navigator" transform="translate(0 0)" fill="#404254">
                <rect fill="#f2f5e9" fill-opacity="0.5" stroke="#606060" stroke-width=".5" x="0" y="0" width="60" height="60"/>
                <use id="zoomplus" xlink:href="#zoomPlus" x="17" y="9" onmousedown="handleZoom(evt,'in')"/>
                <use id="zoomminus" xlink:href="#zoomMin" x="42" y="9" onmousedown="handleZoom(evt,'out')"/>
                <use id="reset" xlink:href="#resetDef" x="30" y="36" onmousedown="handleReset()"/>
                <g id="arrowUp" xlink:href="#dirArrow" transform="translate(30 24)" onmousedown="handlePan(0,-1)">
                  <use xlink:href="#rim" fill="#404040">
                        <set attributeName="fill" to="#808080" begin="arrowUp.mouseover" end="arrowUp.mouseout"/>
                  </use>
                  <path fill="none" stroke="white" stroke-width="1.5" d="M0,-3.0v7 M-2.5,-0.5L0,-3.0L2.5,-0.5"/>
                </g>
                <g id="arrowRight" xlink:href="#dirArrow" transform="rotate(90) translate(36 -43)" onmousedown="handlePan(1,0)">
                  <use xlink:href="#rim" fill="#404040">
                        <set attributeName="fill" to="#808080" begin="arrowRight.mouseover" end="arrowRight.mouseout"/>
                  </use>
                  <path fill="none" stroke="white" stroke-width="1.5" d="M0,-3.0v7 M-2.5,-0.5L0,-3.0L2.5,-0.5"/>
                </g>
                <g id="arrowDown" xlink:href="#dirArrow" transform="rotate(180) translate(-30 -48)" onmousedown="handlePan(0,1)">
                  <use xlink:href="#rim" fill="#404040">
                        <set attributeName="fill" to="#808080" begin="arrowDown.mouseover" end="arrowDown.mouseout"/>
                  </use>
                  <path fill="none" stroke="white" stroke-width="1.5" d="M0,-3.0v7 M-2.5,-0.5L0,-3.0L2.5,-0.5"/>
                </g>
                <g id="arrowLeft" xlink:href="#dirArrow" transform="rotate(270) translate(-36 17)" onmousedown="handlePan(-1,0)">
                  <use xlink:href="#rim" fill="#404040">
                        <set attributeName="fill" to="#808080" begin="arrowLeft.mouseover" end="arrowLeft.mouseout"/>
                  </use>
                  <path fill="none" stroke="white" stroke-width="1.5" d="M0,-3.0v7 M-2.5,-0.5L0,-3.0L2.5,-0.5"/>
                </g>
        </g>
        <svg viewBox="0 0 15 15" width="100%" height="30px" preserveAspectRatio="xMaxYMin meet">
         <g id="arrow_out" transform="scale(0.3 0.3)">
          <a xlink:href="sbessel_8hpp__dep__incl_org.svg" target="_base">
           <rect id="button" ry="5" rx="5" y="6" x="6" height="38" width="38"
                fill="#f2f5e9" fill-opacity="0.5" stroke="#606060" stroke-width="1.0"/>
           <path id="arrow"
             d="M 11.500037,31.436501 C 11.940474,20.09759 22.043105,11.32322 32.158766,21.979434 L 37.068811,17.246167 C 37.068811,17.246167 37.088388,32 37.088388,32 L 22.160133,31.978069 C 22.160133,31.978069 26.997745,27.140456 26.997745,27.140456 C 18.528582,18.264221 13.291696,25.230495 11.500037,31.436501 z"
             style="fill:#404040;"/>
          </a>
         </g>
        </svg>
</svg>
