<?xml version="1.0" encoding="UTF-8" standalone="no"?>
<!DOCTYPE svg PUBLIC "-//W3C//DTD SVG 1.1//EN"
 "http://www.w3.org/Graphics/SVG/1.1/DTD/svg11.dtd">
<!-- Generated by graphviz version 2.40.1 (20161225.0304)
 -->
<!-- Title: hubbard_occupancy.hpp Pages: 1 -->
<svg width="202pt" height="308pt"
 viewBox="0.00 0.00 202.00 308.00" xmlns="http://www.w3.org/2000/svg" xmlns:xlink="http://www.w3.org/1999/xlink">
<g id="graph0" class="graph" transform="scale(1 1) rotate(0) translate(4 304)">
<title>hubbard_occupancy.hpp</title>
<polygon fill="#ffffff" stroke="transparent" points="-4,4 -4,-304 198,-304 198,4 -4,4"/>
<!-- Node1 -->
<g id="node1" class="node">
<title>Node1</title>
<polygon fill="#bfbfbf" stroke="#000000" points="43.5,-280.5 43.5,-299.5 169.5,-299.5 169.5,-280.5 43.5,-280.5"/>
<text text-anchor="middle" x="106.5" y="-287.5" font-family="Helvetica,sans-Serif" font-size="10.00" fill="#000000">hubbard_occupancy.hpp</text>
</g>
<!-- Node2 -->
<g id="node2" class="node">
<title>Node2</title>
<g id="a_node2"><a xlink:href="../../db/d74/hubbard_8hpp.html" target="_top" xlink:title="Contains declaration and partial implementation of sirius::Hubbard class. ">
<polygon fill="#ffffff" stroke="#000000" points="70,-224.5 70,-243.5 143,-243.5 143,-224.5 70,-224.5"/>
<text text-anchor="middle" x="106.5" y="-231.5" font-family="Helvetica,sans-Serif" font-size="10.00" fill="#000000">hubbard.hpp</text>
</a>
</g>
</g>
<!-- Node1&#45;&gt;Node2 -->
<g id="edge1" class="edge">
<title>Node1&#45;&gt;Node2</title>
<path fill="none" stroke="#191970" d="M106.5,-270.1575C106.5,-261.155 106.5,-250.9199 106.5,-243.6427"/>
<polygon fill="#191970" stroke="#191970" points="103.0001,-270.2455 106.5,-280.2455 110.0001,-270.2456 103.0001,-270.2455"/>
</g>
<!-- Node3 -->
<g id="node3" class="node">
<title>Node3</title>
<g id="a_node3"><a xlink:href="../../df/dc4/dft__ground__state_8hpp.html" target="_top" xlink:title="Contains definition and partial implementation of sirius::DFT_ground_state class. ...">
<polygon fill="#ffffff" stroke="#000000" points="0,-112.5 0,-131.5 111,-131.5 111,-112.5 0,-112.5"/>
<text text-anchor="middle" x="55.5" y="-119.5" font-family="Helvetica,sans-Serif" font-size="10.00" fill="#000000">dft_ground_state.hpp</text>
</a>
</g>
</g>
<!-- Node2&#45;&gt;Node3 -->
<g id="edge2" class="edge">
<title>Node2&#45;&gt;Node3</title>
<path fill="none" stroke="#191970" d="M97.962,-215.2498C86.9627,-191.0946 68.2592,-150.0202 59.8372,-131.5249"/>
<polygon fill="#191970" stroke="#191970" points="94.8222,-216.8005 102.1518,-224.4509 101.1929,-213.8996 94.8222,-216.8005"/>
</g>
<!-- Node6 -->
<g id="node6" class="node">
<title>Node6</title>
<g id="a_node6"><a xlink:href="../../de/dec/hamiltonian_8hpp.html" target="_top" xlink:title="Contains declaration and definition of sirius::Hamiltonian class. ">
<polygon fill="#ffffff" stroke="#000000" points="107,-168.5 107,-187.5 194,-187.5 194,-168.5 107,-168.5"/>
<text text-anchor="middle" x="150.5" y="-175.5" font-family="Helvetica,sans-Serif" font-size="10.00" fill="#000000">hamiltonian.hpp</text>
</a>
</g>
</g>
<!-- Node2&#45;&gt;Node6 -->
<g id="edge5" class="edge">
<title>Node2&#45;&gt;Node6</title>
<path fill="none" stroke="#191970" d="M120.4769,-216.2112C127.9129,-206.7472 136.766,-195.4797 142.9236,-187.6427"/>
<polygon fill="#191970" stroke="#191970" points="117.5903,-214.22 114.1642,-224.2455 123.0946,-218.5447 117.5903,-214.22"/>
</g>
<!-- Node4 -->
<g id="node4" class="node">
<title>Node4</title>
<g id="a_node4"><a xlink:href="../../dd/dc2/sirius_8h.html" target="_top" xlink:title="&quot;All&#45;in&#45;one&quot; include file. ">
<polygon fill="#ffffff" stroke="#000000" points="82.5,-56.5 82.5,-75.5 130.5,-75.5 130.5,-56.5 82.5,-56.5"/>
<text text-anchor="middle" x="106.5" y="-63.5" font-family="Helvetica,sans-Serif" font-size="10.00" fill="#000000">sirius.h</text>
</a>
</g>
</g>
<!-- Node3&#45;&gt;Node4 -->
<g id="edge3" class="edge">
<title>Node3&#45;&gt;Node4</title>
<path fill="none" stroke="#191970" d="M71.1749,-104.7884C79.8994,-95.2085 90.4354,-83.6396 97.7183,-75.6427"/>
<polygon fill="#191970" stroke="#191970" points="68.5291,-102.4954 64.3835,-112.2455 73.7046,-107.2088 68.5291,-102.4954"/>
</g>
<!-- Node5 -->
<g id="node5" class="node">
<title>Node5</title>
<g id="a_node5"><a xlink:href="../../d4/d53/sirius__api_8cpp.html" target="_top" xlink:title="Fortran API. ">
<polygon fill="#ffffff" stroke="#000000" points="67.5,-.5 67.5,-19.5 145.5,-19.5 145.5,-.5 67.5,-.5"/>
<text text-anchor="middle" x="106.5" y="-7.5" font-family="Helvetica,sans-Serif" font-size="10.00" fill="#000000">sirius_api.cpp</text>
</a>
</g>
</g>
<!-- Node4&#45;&gt;Node5 -->
<g id="edge4" class="edge">
<title>Node4&#45;&gt;Node5</title>
<path fill="none" stroke="#191970" d="M106.5,-46.1575C106.5,-37.155 106.5,-26.9199 106.5,-19.6427"/>
<polygon fill="#191970" stroke="#191970" points="103.0001,-46.2455 106.5,-56.2455 110.0001,-46.2456 103.0001,-46.2455"/>
</g>
<!-- Node7 -->
<g id="node7" class="node">
<title>Node7</title>
<g id="a_node7"><a xlink:href="../../da/d3d/band_8hpp.html" target="_top" xlink:title="Contains declaration and partial implementation of sirius::Band class. ">
<polygon fill="#ffffff" stroke="#000000" points="129.5,-112.5 129.5,-131.5 187.5,-131.5 187.5,-112.5 129.5,-112.5"/>
<text text-anchor="middle" x="158.5" y="-119.5" font-family="Helvetica,sans-Serif" font-size="10.00" fill="#000000">band.hpp</text>
</a>
</g>
</g>
<!-- Node6&#45;&gt;Node7 -->
<g id="edge6" class="edge">
<title>Node6&#45;&gt;Node7</title>
<path fill="none" stroke="#191970" d="M153.3346,-158.1575C154.6207,-149.155 156.0829,-138.9199 157.1225,-131.6427"/>
<polygon fill="#191970" stroke="#191970" points="149.843,-157.851 151.8935,-168.2455 156.7726,-158.8411 149.843,-157.851"/>
</g>
<!-- Node7&#45;&gt;Node4 -->
<g id="edge7" class="edge">
<title>Node7&#45;&gt;Node4</title>
<path fill="none" stroke="#191970" d="M142.5178,-104.7884C133.6222,-95.2085 122.8796,-83.6396 115.4539,-75.6427"/>
<polygon fill="#191970" stroke="#191970" points="140.073,-107.2992 149.4423,-112.2455 145.2025,-102.536 140.073,-107.2992"/>
</g>
</g>
</svg>
