<?xml version="1.0" encoding="UTF-8" standalone="no"?>
<!DOCTYPE svg PUBLIC "-//W3C//DTD SVG 1.1//EN"
 "http://www.w3.org/Graphics/SVG/1.1/DTD/svg11.dtd">
<!-- Generated by graphviz version 2.40.1 (20161225.0304)
 -->
<!-- Title: timer.hpp Pages: 1 -->
<svg width="2210pt" height="140pt"
 viewBox="0.00 0.00 2209.50 140.00" xmlns="http://www.w3.org/2000/svg" xmlns:xlink="http://www.w3.org/1999/xlink">
<g id="graph0" class="graph" transform="scale(1 1) rotate(0) translate(4 136)">
<title>timer.hpp</title>
<polygon fill="#ffffff" stroke="transparent" points="-4,4 -4,-136 2205.5,-136 2205.5,4 -4,4"/>
<!-- Node0 -->
<g id="node1" class="node">
<title>Node0</title>
<polygon fill="#bfbfbf" stroke="#000000" points="224.5,-112.5 224.5,-131.5 282.5,-131.5 282.5,-112.5 224.5,-112.5"/>
<text text-anchor="middle" x="253.5" y="-119.5" font-family="Helvetica,sans-Serif" font-size="10.00" fill="#000000">timer.hpp</text>
</g>
<!-- Node1 -->
<g id="node2" class="node">
<title>Node1</title>
<polygon fill="#ffffff" stroke="#bfbfbf" points="48.5,-56.5 48.5,-75.5 92.5,-75.5 92.5,-56.5 48.5,-56.5"/>
<text text-anchor="middle" x="70.5" y="-63.5" font-family="Helvetica,sans-Serif" font-size="10.00" fill="#000000">omp.h</text>
</g>
<!-- Node0&#45;&gt;Node1 -->
<g id="edge1" class="edge">
<title>Node0&#45;&gt;Node1</title>
<path fill="none" stroke="#191970" d="M224.0979,-113.0026C190.8606,-102.8316 136.9248,-86.3267 102.6101,-75.826"/>
<polygon fill="#191970" stroke="#191970" points="103.2218,-72.3531 92.6353,-72.7736 101.1734,-79.0467 103.2218,-72.3531"/>
</g>
<!-- Node2 -->
<g id="node3" class="node">
<title>Node2</title>
<polygon fill="#ffffff" stroke="#bfbfbf" points="0,-.5 0,-19.5 41,-19.5 41,-.5 0,-.5"/>
<text text-anchor="middle" x="20.5" y="-7.5" font-family="Helvetica,sans-Serif" font-size="10.00" fill="#000000">string</text>
</g>
<!-- Node0&#45;&gt;Node2 -->
<g id="edge2" class="edge">
<title>Node0&#45;&gt;Node2</title>
<path fill="none" stroke="#191970" d="M232.8068,-112.4028C212.9415,-103.1623 182.1115,-88.7496 155.5,-76 118.6692,-58.3543 76.4019,-37.6099 49.1191,-24.1548"/>
<polygon fill="#191970" stroke="#191970" points="50.6435,-21.0041 40.1272,-19.7165 47.5452,-27.2811 50.6435,-21.0041"/>
</g>
<!-- Node3 -->
<g id="node4" class="node">
<title>Node3</title>
<polygon fill="#ffffff" stroke="#bfbfbf" points="59.5,-.5 59.5,-19.5 111.5,-19.5 111.5,-.5 59.5,-.5"/>
<text text-anchor="middle" x="85.5" y="-7.5" font-family="Helvetica,sans-Serif" font-size="10.00" fill="#000000">sstream</text>
</g>
<!-- Node0&#45;&gt;Node3 -->
<g id="edge3" class="edge">
<title>Node0&#45;&gt;Node3</title>
<path fill="none" stroke="#191970" d="M239.1764,-112.4509C210.0402,-93.0268 143.6555,-48.7703 108.4342,-25.2895"/>
<polygon fill="#191970" stroke="#191970" points="110.0493,-22.1598 99.7873,-19.5249 106.1664,-27.9841 110.0493,-22.1598"/>
</g>
<!-- Node4 -->
<g id="node5" class="node">
<title>Node4</title>
<polygon fill="#ffffff" stroke="#bfbfbf" points="1005,-56.5 1005,-75.5 1052,-75.5 1052,-56.5 1005,-56.5"/>
<text text-anchor="middle" x="1028.5" y="-63.5" font-family="Helvetica,sans-Serif" font-size="10.00" fill="#000000">chrono</text>
</g>
<!-- Node0&#45;&gt;Node4 -->
<g id="edge4" class="edge">
<title>Node0&#45;&gt;Node4</title>
<path fill="none" stroke="#191970" d="M282.6308,-121.0984C399.5315,-117.344 835.5199,-101.9994 994.7841,-75.6321"/>
<polygon fill="#191970" stroke="#191970" points="995.6151,-79.0402 1004.8681,-73.8794 994.4164,-72.1436 995.6151,-79.0402"/>
</g>
<!-- Node5 -->
<g id="node6" class="node">
<title>Node5</title>
<polygon fill="#ffffff" stroke="#bfbfbf" points="129.5,-.5 129.5,-19.5 165.5,-19.5 165.5,-.5 129.5,-.5"/>
<text text-anchor="middle" x="147.5" y="-7.5" font-family="Helvetica,sans-Serif" font-size="10.00" fill="#000000">map</text>
</g>
<!-- Node0&#45;&gt;Node5 -->
<g id="edge5" class="edge">
<title>Node0&#45;&gt;Node5</title>
<path fill="none" stroke="#191970" d="M244.4625,-112.4509C226.4701,-93.4401 185.9651,-50.6423 163.4152,-26.816"/>
<polygon fill="#191970" stroke="#191970" points="165.9305,-24.382 156.5146,-19.5249 160.8465,-29.1937 165.9305,-24.382"/>
</g>
<!-- Node6 -->
<g id="node7" class="node">
<title>Node6</title>
<polygon fill="#ffffff" stroke="#bfbfbf" points="183.5,-.5 183.5,-19.5 227.5,-19.5 227.5,-.5 183.5,-.5"/>
<text text-anchor="middle" x="205.5" y="-7.5" font-family="Helvetica,sans-Serif" font-size="10.00" fill="#000000">vector</text>
</g>
<!-- Node0&#45;&gt;Node6 -->
<g id="edge6" class="edge">
<title>Node0&#45;&gt;Node6</title>
<path fill="none" stroke="#191970" d="M249.4075,-112.4509C241.4726,-93.936 223.8682,-52.8591 213.5223,-28.7187"/>
<polygon fill="#191970" stroke="#191970" points="216.7384,-27.3376 209.5821,-19.5249 210.3043,-30.0951 216.7384,-27.3376"/>
</g>
<!-- Node7 -->
<g id="node8" class="node">
<title>Node7</title>
<polygon fill="#ffffff" stroke="#bfbfbf" points="246,-.5 246,-19.5 299,-19.5 299,-.5 246,-.5"/>
<text text-anchor="middle" x="272.5" y="-7.5" font-family="Helvetica,sans-Serif" font-size="10.00" fill="#000000">memory</text>
</g>
<!-- Node0&#45;&gt;Node7 -->
<g id="edge7" class="edge">
<title>Node0&#45;&gt;Node7</title>
<path fill="none" stroke="#191970" d="M255.1199,-112.4509C258.2188,-94.184 265.0433,-53.9553 269.1584,-29.6976"/>
<polygon fill="#191970" stroke="#191970" points="272.6623,-29.9694 270.8842,-19.5249 265.7609,-28.7986 272.6623,-29.9694"/>
</g>
<!-- Node8 -->
<g id="node9" class="node">
<title>Node8</title>
<polygon fill="#ffffff" stroke="#bfbfbf" points="1070.5,-56.5 1070.5,-75.5 1124.5,-75.5 1124.5,-56.5 1070.5,-56.5"/>
<text text-anchor="middle" x="1097.5" y="-63.5" font-family="Helvetica,sans-Serif" font-size="10.00" fill="#000000">complex</text>
</g>
<!-- Node0&#45;&gt;Node8 -->
<g id="edge8" class="edge">
<title>Node0&#45;&gt;Node8</title>
<path fill="none" stroke="#191970" d="M282.6126,-121.1783C406.0783,-117.5675 887.6101,-102.1812 1060.1784,-75.8441"/>
<polygon fill="#191970" stroke="#191970" points="1060.7951,-79.2901 1070.1182,-74.2572 1059.6914,-72.3776 1060.7951,-79.2901"/>
</g>
<!-- Node9 -->
<g id="node10" class="node">
<title>Node9</title>
<polygon fill="#ffffff" stroke="#bfbfbf" points="317.5,-.5 317.5,-19.5 375.5,-19.5 375.5,-.5 317.5,-.5"/>
<text text-anchor="middle" x="346.5" y="-7.5" font-family="Helvetica,sans-Serif" font-size="10.00" fill="#000000">algorithm</text>
</g>
<!-- Node0&#45;&gt;Node9 -->
<g id="edge9" class="edge">
<title>Node0&#45;&gt;Node9</title>
<path fill="none" stroke="#191970" d="M261.4291,-112.4509C277.0777,-93.6054 312.1358,-51.3849 332.017,-27.4419"/>
<polygon fill="#191970" stroke="#191970" points="334.8953,-29.4543 338.5909,-19.5249 329.5099,-24.9824 334.8953,-29.4543"/>
</g>
<!-- Node10 -->
<g id="node11" class="node">
<title>Node10</title>
<g id="a_node11"><a xlink:href="../../d5/db8/json_8hpp.html" target="_top" xlink:title="N.Lohmann&#39;s JSON parser. ">
<polygon fill="#ffffff" stroke="#000000" points="932.5,-56.5 932.5,-75.5 986.5,-75.5 986.5,-56.5 932.5,-56.5"/>
<text text-anchor="middle" x="959.5" y="-63.5" font-family="Helvetica,sans-Serif" font-size="10.00" fill="#000000">json.hpp</text>
</a>
</g>
</g>
<!-- Node0&#45;&gt;Node10 -->
<g id="edge10" class="edge">
<title>Node0&#45;&gt;Node10</title>
<path fill="none" stroke="#191970" d="M282.9371,-119.665C395.2721,-110.7546 796.9338,-78.8948 922.029,-68.9722"/>
<polygon fill="#191970" stroke="#191970" points="922.5562,-72.4415 932.2481,-68.1616 922.0027,-65.4634 922.5562,-72.4415"/>
</g>
<!-- Node10&#45;&gt;Node2 -->
<g id="edge20" class="edge">
<title>Node10&#45;&gt;Node2</title>
<path fill="none" stroke="#191970" d="M932.2053,-65.6144C802.3853,-63.6315 246.0177,-53.4159 51.3848,-19.5714"/>
<polygon fill="#191970" stroke="#191970" points="51.7547,-16.0812 41.2892,-17.7319 50.4998,-22.9678 51.7547,-16.0812"/>
</g>
<!-- Node10&#45;&gt;Node3 -->
<g id="edge40" class="edge">
<title>Node10&#45;&gt;Node3</title>
<path fill="none" stroke="#191970" d="M932.2729,-65.3258C809.0291,-62.151 301.9934,-47.7382 121.8453,-19.816"/>
<polygon fill="#191970" stroke="#191970" points="122.1602,-16.3214 111.7287,-18.1746 121.039,-23.2311 122.1602,-16.3214"/>
</g>
<!-- Node10&#45;&gt;Node5 -->
<g id="edge23" class="edge">
<title>Node10&#45;&gt;Node5</title>
<path fill="none" stroke="#191970" d="M932.3816,-65.4856C814.2504,-63.0837 343.3676,-51.7977 175.4874,-19.5314"/>
<polygon fill="#191970" stroke="#191970" points="176.0792,-16.0802 165.5837,-17.5275 174.691,-22.9412 176.0792,-16.0802"/>
</g>
<!-- Node10&#45;&gt;Node6 -->
<g id="edge25" class="edge">
<title>Node10&#45;&gt;Node6</title>
<path fill="none" stroke="#191970" d="M932.2742,-65.1728C820.2111,-61.6319 393.5813,-46.7813 237.9691,-19.7655"/>
<polygon fill="#191970" stroke="#191970" points="238.1454,-16.2398 227.679,-17.884 236.8864,-23.1256 238.1454,-16.2398"/>
</g>
<!-- Node10&#45;&gt;Node7 -->
<g id="edge24" class="edge">
<title>Node10&#45;&gt;Node7</title>
<path fill="none" stroke="#191970" d="M932.1528,-64.7997C827.3387,-60.0888 450.4917,-42.1094 309.2539,-19.7185"/>
<polygon fill="#191970" stroke="#191970" points="309.5399,-16.2181 299.101,-18.0294 308.391,-23.1232 309.5399,-16.2181"/>
</g>
<!-- Node10&#45;&gt;Node9 -->
<g id="edge11" class="edge">
<title>Node10&#45;&gt;Node9</title>
<path fill="none" stroke="#191970" d="M932.3452,-65.5348C850.8173,-63.7794 601.023,-55.7842 385.7466,-19.9453"/>
<polygon fill="#191970" stroke="#191970" points="386.2891,-16.4875 375.8458,-18.2731 385.1232,-23.3897 386.2891,-16.4875"/>
</g>
<!-- Node11 -->
<g id="node12" class="node">
<title>Node11</title>
<polygon fill="#ffffff" stroke="#bfbfbf" points="967,-.5 967,-19.5 1016,-19.5 1016,-.5 967,-.5"/>
<text text-anchor="middle" x="991.5" y="-7.5" font-family="Helvetica,sans-Serif" font-size="10.00" fill="#000000">cassert</text>
</g>
<!-- Node10&#45;&gt;Node11 -->
<g id="edge12" class="edge">
<title>Node10&#45;&gt;Node11</title>
<path fill="none" stroke="#191970" d="M965.074,-56.2455C969.4331,-48.617 975.6211,-37.7881 980.9133,-28.5267"/>
<polygon fill="#191970" stroke="#191970" points="984.0673,-30.0616 985.9899,-19.6427 977.9896,-26.5886 984.0673,-30.0616"/>
</g>
<!-- Node12 -->
<g id="node13" class="node">
<title>Node12</title>
<polygon fill="#ffffff" stroke="#bfbfbf" points="1034,-.5 1034,-19.5 1085,-19.5 1085,-.5 1034,-.5"/>
<text text-anchor="middle" x="1059.5" y="-7.5" font-family="Helvetica,sans-Serif" font-size="10.00" fill="#000000">ciso646</text>
</g>
<!-- Node10&#45;&gt;Node12 -->
<g id="edge13" class="edge">
<title>Node10&#45;&gt;Node12</title>
<path fill="none" stroke="#191970" d="M976.9187,-56.2455C992.5485,-47.4928 1015.7019,-34.527 1033.5185,-24.5496"/>
<polygon fill="#191970" stroke="#191970" points="1035.266,-27.5825 1042.2809,-19.6427 1031.8457,-21.475 1035.266,-27.5825"/>
</g>
<!-- Node13 -->
<g id="node14" class="node">
<title>Node13</title>
<polygon fill="#ffffff" stroke="#bfbfbf" points="1103,-.5 1103,-19.5 1152,-19.5 1152,-.5 1103,-.5"/>
<text text-anchor="middle" x="1127.5" y="-7.5" font-family="Helvetica,sans-Serif" font-size="10.00" fill="#000000">cstddef</text>
</g>
<!-- Node10&#45;&gt;Node13 -->
<g id="edge14" class="edge">
<title>Node10&#45;&gt;Node13</title>
<path fill="none" stroke="#191970" d="M986.866,-56.878C1015.8948,-47.2017 1061.8142,-31.8953 1093.2308,-21.4231"/>
<polygon fill="#191970" stroke="#191970" points="1094.5016,-24.6889 1102.8816,-18.2061 1092.2879,-18.0481 1094.5016,-24.6889"/>
</g>
<!-- Node14 -->
<g id="node15" class="node">
<title>Node14</title>
<polygon fill="#ffffff" stroke="#bfbfbf" points="1170,-.5 1170,-19.5 1229,-19.5 1229,-.5 1170,-.5"/>
<text text-anchor="middle" x="1199.5" y="-7.5" font-family="Helvetica,sans-Serif" font-size="10.00" fill="#000000">functional</text>
</g>
<!-- Node10&#45;&gt;Node14 -->
<g id="edge15" class="edge">
<title>Node10&#45;&gt;Node14</title>
<path fill="none" stroke="#191970" d="M986.5383,-58.5278C989.8868,-57.6511 993.2678,-56.7889 996.5,-56 1066.2848,-38.9676 1086.7821,-37.6423 1159.5349,-20.4021"/>
<polygon fill="#191970" stroke="#191970" points="1160.7478,-23.7108 1169.6595,-17.9808 1159.1197,-16.9028 1160.7478,-23.7108"/>
</g>
<!-- Node15 -->
<g id="node16" class="node">
<title>Node15</title>
<polygon fill="#ffffff" stroke="#bfbfbf" points="1247,-.5 1247,-19.5 1320,-19.5 1320,-.5 1247,-.5"/>
<text text-anchor="middle" x="1283.5" y="-7.5" font-family="Helvetica,sans-Serif" font-size="10.00" fill="#000000">initializer_list</text>
</g>
<!-- Node10&#45;&gt;Node15 -->
<g id="edge16" class="edge">
<title>Node10&#45;&gt;Node15</title>
<path fill="none" stroke="#191970" d="M986.8934,-58.2156C990.1186,-57.4123 993.3735,-56.6528 996.5,-56 1099.8256,-34.428 1129.8353,-39.4778 1236.8066,-20.2118"/>
<polygon fill="#191970" stroke="#191970" points="1237.5002,-23.643 1246.7065,-18.3995 1236.2397,-16.7574 1237.5002,-23.643"/>
</g>
<!-- Node16 -->
<g id="node17" class="node">
<title>Node16</title>
<polygon fill="#ffffff" stroke="#bfbfbf" points="1338,-.5 1338,-19.5 1383,-19.5 1383,-.5 1338,-.5"/>
<text text-anchor="middle" x="1360.5" y="-7.5" font-family="Helvetica,sans-Serif" font-size="10.00" fill="#000000">iosfwd</text>
</g>
<!-- Node10&#45;&gt;Node16 -->
<g id="edge17" class="edge">
<title>Node10&#45;&gt;Node16</title>
<path fill="none" stroke="#191970" d="M986.8688,-58.0916C990.0984,-57.3105 993.361,-56.5901 996.5,-56 1139.5135,-29.1141 1182.0043,-50.0261 1327.7457,-20.0111"/>
<polygon fill="#191970" stroke="#191970" points="1328.8939,-23.3462 1337.9579,-17.8603 1327.4512,-16.4965 1328.8939,-23.3462"/>
</g>
<!-- Node17 -->
<g id="node18" class="node">
<title>Node17</title>
<polygon fill="#ffffff" stroke="#bfbfbf" points="1401.5,-.5 1401.5,-19.5 1449.5,-19.5 1449.5,-.5 1401.5,-.5"/>
<text text-anchor="middle" x="1425.5" y="-7.5" font-family="Helvetica,sans-Serif" font-size="10.00" fill="#000000">iterator</text>
</g>
<!-- Node10&#45;&gt;Node17 -->
<g id="edge18" class="edge">
<title>Node10&#45;&gt;Node17</title>
<path fill="none" stroke="#191970" d="M986.8591,-58.0386C990.0904,-57.267 993.3561,-56.5634 996.5,-56 1167.2273,-25.4068 1217.1907,-52.7464 1391.4724,-19.8251"/>
<polygon fill="#191970" stroke="#191970" points="1392.3359,-23.2231 1401.492,-17.8925 1391.0101,-16.3498 1392.3359,-23.2231"/>
</g>
<!-- Node18 -->
<g id="node19" class="node">
<title>Node18</title>
<polygon fill="#ffffff" stroke="#bfbfbf" points="1467.5,-.5 1467.5,-19.5 1519.5,-19.5 1519.5,-.5 1467.5,-.5"/>
<text text-anchor="middle" x="1493.5" y="-7.5" font-family="Helvetica,sans-Serif" font-size="10.00" fill="#000000">numeric</text>
</g>
<!-- Node10&#45;&gt;Node18 -->
<g id="edge19" class="edge">
<title>Node10&#45;&gt;Node18</title>
<path fill="none" stroke="#191970" d="M986.852,-57.9984C990.0846,-57.2341 993.3525,-56.5431 996.5,-56 1196.1864,-21.5448 1253.9458,-55.3479 1457.1574,-19.9058"/>
<polygon fill="#191970" stroke="#191970" points="1458.0276,-23.306 1467.2598,-18.1081 1456.8012,-16.4143 1458.0276,-23.306"/>
</g>
<!-- Node19 -->
<g id="node20" class="node">
<title>Node19</title>
<polygon fill="#ffffff" stroke="#bfbfbf" points="1538,-.5 1538,-19.5 1577,-19.5 1577,-.5 1538,-.5"/>
<text text-anchor="middle" x="1557.5" y="-7.5" font-family="Helvetica,sans-Serif" font-size="10.00" fill="#000000">utility</text>
</g>
<!-- Node10&#45;&gt;Node19 -->
<g id="edge21" class="edge">
<title>Node10&#45;&gt;Node19</title>
<path fill="none" stroke="#191970" d="M986.8466,-57.9666C990.0802,-57.208 993.3498,-56.527 996.5,-56 1227.0411,-17.4305 1294.3941,-65.6838 1527.9168,-19.5651"/>
<polygon fill="#191970" stroke="#191970" points="1528.6108,-22.9957 1537.7243,-17.5924 1527.2304,-16.1331 1528.6108,-22.9957"/>
</g>
<!-- Node20 -->
<g id="node21" class="node">
<title>Node20</title>
<polygon fill="#ffffff" stroke="#bfbfbf" points="1595,-.5 1595,-19.5 1640,-19.5 1640,-.5 1595,-.5"/>
<text text-anchor="middle" x="1617.5" y="-7.5" font-family="Helvetica,sans-Serif" font-size="10.00" fill="#000000">cstdint</text>
</g>
<!-- Node10&#45;&gt;Node20 -->
<g id="edge22" class="edge">
<title>Node10&#45;&gt;Node20</title>
<path fill="none" stroke="#191970" d="M986.8432,-57.9459C990.0774,-57.191 993.3481,-56.5166 996.5,-56 1252.4597,-14.049 1326.472,-67.3239 1584.921,-19.8673"/>
<polygon fill="#191970" stroke="#191970" points="1585.7966,-23.2643 1594.9831,-17.9862 1584.5102,-16.3835 1585.7966,-23.2643"/>
</g>
<!-- Node21 -->
<g id="node22" class="node">
<title>Node21</title>
<polygon fill="#ffffff" stroke="#bfbfbf" points="1658,-.5 1658,-19.5 1697,-19.5 1697,-.5 1658,-.5"/>
<text text-anchor="middle" x="1677.5" y="-7.5" font-family="Helvetica,sans-Serif" font-size="10.00" fill="#000000">limits</text>
</g>
<!-- Node10&#45;&gt;Node21 -->
<g id="edge26" class="edge">
<title>Node10&#45;&gt;Node21</title>
<path fill="none" stroke="#191970" d="M986.8402,-57.9276C990.0749,-57.176 993.3466,-56.5073 996.5,-56 1280.1097,-10.3712 1362.6471,-75.9051 1647.5931,-19.8684"/>
<polygon fill="#191970" stroke="#191970" points="1648.6965,-23.2171 1657.8156,-17.8234 1647.3233,-16.3531 1648.6965,-23.2171"/>
</g>
<!-- Node22 -->
<g id="node23" class="node">
<title>Node22</title>
<polygon fill="#ffffff" stroke="#bfbfbf" points="1715,-.5 1715,-19.5 1778,-19.5 1778,-.5 1715,-.5"/>
<text text-anchor="middle" x="1746.5" y="-7.5" font-family="Helvetica,sans-Serif" font-size="10.00" fill="#000000">type_traits</text>
</g>
<!-- Node10&#45;&gt;Node22 -->
<g id="edge27" class="edge">
<title>Node10&#45;&gt;Node22</title>
<path fill="none" stroke="#191970" d="M986.838,-57.9138C990.0731,-57.1647 993.3455,-56.5004 996.5,-56 1305.2072,-7.032 1392.1233,-65.2582 1704.4796,-20.0427"/>
<polygon fill="#191970" stroke="#191970" points="1705.3518,-23.4521 1714.7354,-18.5329 1704.3322,-16.5267 1705.3518,-23.4521"/>
</g>
<!-- Node23 -->
<g id="node24" class="node">
<title>Node23</title>
<polygon fill="#ffffff" stroke="#bfbfbf" points="1796,-.5 1796,-19.5 1855,-19.5 1855,-.5 1796,-.5"/>
<text text-anchor="middle" x="1825.5" y="-7.5" font-family="Helvetica,sans-Serif" font-size="10.00" fill="#000000">exception</text>
</g>
<!-- Node10&#45;&gt;Node23 -->
<g id="edge28" class="edge">
<title>Node10&#45;&gt;Node23</title>
<path fill="none" stroke="#191970" d="M986.8355,-57.8977C990.071,-57.1514 993.3442,-56.4922 996.5,-56 1340.9048,-2.2836 1437.7669,-71.7315 1785.6518,-19.9909"/>
<polygon fill="#191970" stroke="#191970" points="1786.3894,-23.4192 1795.7545,-18.4649 1785.3439,-16.4977 1786.3894,-23.4192"/>
</g>
<!-- Node24 -->
<g id="node25" class="node">
<title>Node24</title>
<polygon fill="#ffffff" stroke="#bfbfbf" points="1873,-.5 1873,-19.5 1932,-19.5 1932,-.5 1873,-.5"/>
<text text-anchor="middle" x="1902.5" y="-7.5" font-family="Helvetica,sans-Serif" font-size="10.00" fill="#000000">stdexcept</text>
</g>
<!-- Node10&#45;&gt;Node24 -->
<g id="edge29" class="edge">
<title>Node10&#45;&gt;Node24</title>
<path fill="none" stroke="#191970" d="M986.8335,-57.8851C990.0694,-57.1411 993.3432,-56.4858 996.5,-56 1374.8553,2.231 1480.8835,-76.1051 1862.8192,-19.9584"/>
<polygon fill="#191970" stroke="#191970" points="1863.3819,-23.4132 1872.7562,-18.4765 1862.3494,-16.4898 1863.3819,-23.4132"/>
</g>
<!-- Node25 -->
<g id="node26" class="node">
<title>Node25</title>
<polygon fill="#ffffff" stroke="#bfbfbf" points="1950,-.5 1950,-19.5 1989,-19.5 1989,-.5 1950,-.5"/>
<text text-anchor="middle" x="1969.5" y="-7.5" font-family="Helvetica,sans-Serif" font-size="10.00" fill="#000000">array</text>
</g>
<!-- Node10&#45;&gt;Node25 -->
<g id="edge30" class="edge">
<title>Node10&#45;&gt;Node25</title>
<path fill="none" stroke="#191970" d="M986.8319,-57.8745C990.0681,-57.1324 993.3424,-56.4805 996.5,-56 1408.6731,6.7241 1526.9017,-97.8949 1939.707,-19.8059"/>
<polygon fill="#191970" stroke="#191970" points="1940.6618,-23.1867 1949.8242,-17.8668 1939.3441,-16.3118 1940.6618,-23.1867"/>
</g>
<!-- Node26 -->
<g id="node27" class="node">
<title>Node26</title>
<polygon fill="#ffffff" stroke="#bfbfbf" points="2007.5,-.5 2007.5,-19.5 2075.5,-19.5 2075.5,-.5 2007.5,-.5"/>
<text text-anchor="middle" x="2041.5" y="-7.5" font-family="Helvetica,sans-Serif" font-size="10.00" fill="#000000">forward_list</text>
</g>
<!-- Node10&#45;&gt;Node26 -->
<g id="edge31" class="edge">
<title>Node10&#45;&gt;Node26</title>
<path fill="none" stroke="#191970" d="M986.8309,-57.8677C990.0673,-57.1269 993.3419,-56.4771 996.5,-56 1433.7862,10.0617 1554.9385,-77.3988 1997.1681,-19.9098"/>
<polygon fill="#191970" stroke="#191970" points="1997.8849,-23.3457 2007.3419,-18.5692 1996.9703,-16.4057 1997.8849,-23.3457"/>
</g>
<!-- Node27 -->
<g id="node28" class="node">
<title>Node27</title>
<polygon fill="#ffffff" stroke="#bfbfbf" points="2093.5,-.5 2093.5,-19.5 2131.5,-19.5 2131.5,-.5 2093.5,-.5"/>
<text text-anchor="middle" x="2112.5" y="-7.5" font-family="Helvetica,sans-Serif" font-size="10.00" fill="#000000">tuple</text>
</g>
<!-- Node10&#45;&gt;Node27 -->
<g id="edge32" class="edge">
<title>Node10&#45;&gt;Node27</title>
<path fill="none" stroke="#191970" d="M986.8295,-57.8589C990.0662,-57.1196 993.3412,-56.4726 996.5,-56 1471.7229,15.1037 1607.3582,-108.7332 2083.557,-19.56"/>
<polygon fill="#191970" stroke="#191970" points="2084.2647,-22.9883 2093.4386,-17.6883 2082.9619,-16.1106 2084.2647,-22.9883"/>
</g>
<!-- Node28 -->
<g id="node29" class="node">
<title>Node28</title>
<polygon fill="#ffffff" stroke="#bfbfbf" points="2149.5,-.5 2149.5,-19.5 2201.5,-19.5 2201.5,-.5 2149.5,-.5"/>
<text text-anchor="middle" x="2175.5" y="-7.5" font-family="Helvetica,sans-Serif" font-size="10.00" fill="#000000">valarray</text>
</g>
<!-- Node10&#45;&gt;Node28 -->
<g id="edge33" class="edge">
<title>Node10&#45;&gt;Node28</title>
<path fill="none" stroke="#191970" d="M986.8288,-57.8538C990.0655,-57.1154 993.3408,-56.4701 996.5,-56 1496.34,18.3735 1636.0545,-96.9331 2139.2178,-19.8031"/>
<polygon fill="#191970" stroke="#191970" points="2139.9369,-23.2335 2149.2823,-18.2421 2138.864,-16.3162 2139.9369,-23.2335"/>
</g>
<!-- Node29 -->
<g id="node30" class="node">
<title>Node29</title>
<polygon fill="#ffffff" stroke="#bfbfbf" points="393.5,-.5 393.5,-19.5 439.5,-19.5 439.5,-.5 393.5,-.5"/>
<text text-anchor="middle" x="416.5" y="-7.5" font-family="Helvetica,sans-Serif" font-size="10.00" fill="#000000">cstring</text>
</g>
<!-- Node10&#45;&gt;Node29 -->
<g id="edge34" class="edge">
<title>Node10&#45;&gt;Node29</title>
<path fill="none" stroke="#191970" d="M932.4093,-65.4982C857.1658,-63.6966 639.2872,-55.7097 449.6524,-19.6088"/>
<polygon fill="#191970" stroke="#191970" points="450.2702,-16.1635 439.7874,-17.7001 448.9404,-23.036 450.2702,-16.1635"/>
</g>
<!-- Node30 -->
<g id="node31" class="node">
<title>Node30</title>
<polygon fill="#ffffff" stroke="#bfbfbf" points="458,-.5 458,-19.5 487,-19.5 487,-.5 458,-.5"/>
<text text-anchor="middle" x="472.5" y="-7.5" font-family="Helvetica,sans-Serif" font-size="10.00" fill="#000000">ios</text>
</g>
<!-- Node10&#45;&gt;Node30 -->
<g id="edge35" class="edge">
<title>Node10&#45;&gt;Node30</title>
<path fill="none" stroke="#191970" d="M932.3681,-64.3601C849.1511,-59.1703 597.5924,-42.2513 497.0567,-19.3259"/>
<polygon fill="#191970" stroke="#191970" points="497.7894,-15.9021 487.2458,-16.9428 496.1371,-22.7044 497.7894,-15.9021"/>
</g>
<!-- Node31 -->
<g id="node32" class="node">
<title>Node31</title>
<polygon fill="#ffffff" stroke="#bfbfbf" points="505,-.5 505,-19.5 554,-19.5 554,-.5 505,-.5"/>
<text text-anchor="middle" x="529.5" y="-7.5" font-family="Helvetica,sans-Serif" font-size="10.00" fill="#000000">istream</text>
</g>
<!-- Node10&#45;&gt;Node31 -->
<g id="edge36" class="edge">
<title>Node10&#45;&gt;Node31</title>
<path fill="none" stroke="#191970" d="M932.3608,-64.4463C869.3025,-60.4981 707.9644,-48.4498 564.1442,-19.8127"/>
<polygon fill="#191970" stroke="#191970" points="564.7552,-16.3655 554.2597,-17.8124 563.3667,-23.2264 564.7552,-16.3655"/>
</g>
<!-- Node32 -->
<g id="node33" class="node">
<title>Node32</title>
<polygon fill="#ffffff" stroke="#bfbfbf" points="572.5,-.5 572.5,-19.5 620.5,-19.5 620.5,-.5 572.5,-.5"/>
<text text-anchor="middle" x="596.5" y="-7.5" font-family="Helvetica,sans-Serif" font-size="10.00" fill="#000000">clocale</text>
</g>
<!-- Node10&#45;&gt;Node32 -->
<g id="edge37" class="edge">
<title>Node10&#45;&gt;Node32</title>
<path fill="none" stroke="#191970" d="M932.3968,-63.5735C875.8343,-58.2118 741.28,-43.8998 630.5,-20 630.3985,-19.9781 630.2969,-19.9561 630.1951,-19.9339"/>
<polygon fill="#191970" stroke="#191970" points="631.0812,-16.5476 620.5334,-17.5441 629.4004,-23.3429 631.0812,-16.5476"/>
</g>
<!-- Node33 -->
<g id="node34" class="node">
<title>Node33</title>
<polygon fill="#ffffff" stroke="#bfbfbf" points="639,-.5 639,-19.5 684,-19.5 684,-.5 639,-.5"/>
<text text-anchor="middle" x="661.5" y="-7.5" font-family="Helvetica,sans-Serif" font-size="10.00" fill="#000000">cstdlib</text>
</g>
<!-- Node10&#45;&gt;Node33 -->
<g id="edge38" class="edge">
<title>Node10&#45;&gt;Node33</title>
<path fill="none" stroke="#191970" d="M932.4532,-62.5228C885.7561,-56.263 786.8901,-41.8849 693.9635,-19.843"/>
<polygon fill="#191970" stroke="#191970" points="694.664,-16.4118 684.1226,-17.4741 693.0257,-23.2174 694.664,-16.4118"/>
</g>
<!-- Node34 -->
<g id="node35" class="node">
<title>Node34</title>
<polygon fill="#ffffff" stroke="#bfbfbf" points="702.5,-.5 702.5,-19.5 754.5,-19.5 754.5,-.5 702.5,-.5"/>
<text text-anchor="middle" x="728.5" y="-7.5" font-family="Helvetica,sans-Serif" font-size="10.00" fill="#000000">iomanip</text>
</g>
<!-- Node10&#45;&gt;Node34 -->
<g id="edge39" class="edge">
<title>Node10&#45;&gt;Node34</title>
<path fill="none" stroke="#191970" d="M932.4512,-60.0812C896.4006,-52.0999 830.3988,-37.1657 764.9132,-20.2849"/>
<polygon fill="#191970" stroke="#191970" points="765.3949,-16.794 754.8364,-17.6705 763.6369,-23.5697 765.3949,-16.794"/>
</g>
<!-- Node35 -->
<g id="node36" class="node">
<title>Node35</title>
<polygon fill="#ffffff" stroke="#bfbfbf" points="772.5,-.5 772.5,-19.5 816.5,-19.5 816.5,-.5 772.5,-.5"/>
<text text-anchor="middle" x="794.5" y="-7.5" font-family="Helvetica,sans-Serif" font-size="10.00" fill="#000000">cmath</text>
</g>
<!-- Node10&#45;&gt;Node35 -->
<g id="edge41" class="edge">
<title>Node10&#45;&gt;Node35</title>
<path fill="none" stroke="#191970" d="M932.2536,-56.7527C903.142,-46.8724 857.0426,-31.2266 826.294,-20.7907"/>
<polygon fill="#191970" stroke="#191970" points="827.0957,-17.3668 816.5013,-17.4671 824.8459,-23.9954 827.0957,-17.3668"/>
</g>
<!-- Node36 -->
<g id="node37" class="node">
<title>Node36</title>
<polygon fill="#ffffff" stroke="#bfbfbf" points="835,-.5 835,-19.5 888,-19.5 888,-.5 835,-.5"/>
<text text-anchor="middle" x="861.5" y="-7.5" font-family="Helvetica,sans-Serif" font-size="10.00" fill="#000000">ostream</text>
</g>
<!-- Node10&#45;&gt;Node36 -->
<g id="edge42" class="edge">
<title>Node10&#45;&gt;Node36</title>
<path fill="none" stroke="#191970" d="M942.4297,-56.2455C927.253,-47.5731 904.8379,-34.7645 887.4437,-24.825"/>
<polygon fill="#191970" stroke="#191970" points="888.7936,-21.5653 878.3747,-19.6427 885.3206,-27.643 888.7936,-21.5653"/>
</g>
<!-- Node37 -->
<g id="node38" class="node">
<title>Node37</title>
<polygon fill="#ffffff" stroke="#bfbfbf" points="906,-.5 906,-19.5 949,-19.5 949,-.5 906,-.5"/>
<text text-anchor="middle" x="927.5" y="-7.5" font-family="Helvetica,sans-Serif" font-size="10.00" fill="#000000">cstdio</text>
</g>
<!-- Node10&#45;&gt;Node37 -->
<g id="edge43" class="edge">
<title>Node10&#45;&gt;Node37</title>
<path fill="none" stroke="#191970" d="M953.926,-56.2455C949.5669,-48.617 943.3789,-37.7881 938.0867,-28.5267"/>
<polygon fill="#191970" stroke="#191970" points="941.0104,-26.5886 933.0101,-19.6427 934.9327,-30.0616 941.0104,-26.5886"/>
</g>
</g>
</svg>
