<?xml version="1.0" encoding="UTF-8" standalone="no"?>
<!DOCTYPE svg PUBLIC "-//W3C//DTD SVG 1.1//EN"
 "http://www.w3.org/Graphics/SVG/1.1/DTD/svg11.dtd">
<!-- Generated by graphviz version 2.40.1 (20161225.0304)
 -->
<!-- Title: sirius::K_point_set Pages: 1 -->
<svg width="1361pt" height="517pt"
 viewBox="0.00 0.00 1361.00 516.62" xmlns="http://www.w3.org/2000/svg" xmlns:xlink="http://www.w3.org/1999/xlink">
<g id="graph0" class="graph" transform="scale(1 1) rotate(0) translate(4 512.6198)">
<title>sirius::K_point_set</title>
<polygon fill="#ffffff" stroke="transparent" points="-4,4 -4,-512.6198 1357,-512.6198 1357,4 -4,4"/>
<!-- Node1 -->
<g id="node1" class="node">
<title>Node1</title>
<polygon fill="#bfbfbf" stroke="#000000" points="1255,-102.5 1255,-121.5 1353,-121.5 1353,-102.5 1255,-102.5"/>
<text text-anchor="middle" x="1304" y="-109.5" font-family="Helvetica,sans-Serif" font-size="10.00" fill="#000000">sirius::K_point_set</text>
</g>
<!-- Node2 -->
<g id="node2" class="node">
<title>Node2</title>
<g id="a_node2"><a xlink:href="../../d6/d66/classsirius_1_1_simulation__context.html" target="_top" xlink:title="Simulation context is a set of parameters and objects describing a single simulation. ">
<polygon fill="#ffffff" stroke="#000000" points="1105,-304 1105,-334 1197,-334 1197,-304 1105,-304"/>
<text text-anchor="start" x="1113" y="-322" font-family="Helvetica,sans-Serif" font-size="10.00" fill="#000000">sirius::Simulation</text>
<text text-anchor="middle" x="1151" y="-311" font-family="Helvetica,sans-Serif" font-size="10.00" fill="#000000">_context</text>
</a>
</g>
</g>
<!-- Node2&#45;&gt;Node1 -->
<g id="edge1" class="edge">
<title>Node2&#45;&gt;Node1</title>
<path fill="none" stroke="#9a32cd" stroke-dasharray="5,2" d="M1168.1985,-295.7314C1201.5958,-250.5469 1273.9579,-152.6452 1296.883,-121.6289"/>
<polygon fill="#9a32cd" stroke="#9a32cd" points="1165.3798,-293.6566 1162.2505,-303.7788 1171.009,-297.8174 1165.3798,-293.6566"/>
<text text-anchor="middle" x="1226" y="-231" font-family="Helvetica,sans-Serif" font-size="10.00" fill="#000000"> ctx_</text>
</g>
<!-- Node3 -->
<g id="node3" class="node">
<title>Node3</title>
<g id="a_node3"><a xlink:href="../../d0/d04/classsirius_1_1_simulation__parameters.html" target="_top" xlink:title="Set of basic parameters of a simulation. ">
<polygon fill="#ffffff" stroke="#000000" points="569,-191 569,-221 661,-221 661,-191 569,-191"/>
<text text-anchor="start" x="577" y="-209" font-family="Helvetica,sans-Serif" font-size="10.00" fill="#000000">sirius::Simulation</text>
<text text-anchor="middle" x="615" y="-198" font-family="Helvetica,sans-Serif" font-size="10.00" fill="#000000">_parameters</text>
</a>
</g>
</g>
<!-- Node3&#45;&gt;Node2 -->
<g id="edge2" class="edge">
<title>Node3&#45;&gt;Node2</title>
<path fill="none" stroke="#191970" d="M626.0614,-230.4197C652.6764,-285.7732 726.2412,-419.9368 835,-471 936.4465,-518.63 995.4231,-526.604 1087,-462 1130.3396,-431.4256 1144.7878,-364.4586 1149.2126,-334.2806"/>
<polygon fill="#191970" stroke="#191970" points="629.2089,-228.8882 621.7777,-221.3366 622.8776,-231.8741 629.2089,-228.8882"/>
</g>
<!-- Node19 -->
<g id="node19" class="node">
<title>Node19</title>
<g id="a_node19"><a xlink:href="../../d6/dd1/classsirius_1_1_unit__cell.html" target="_top" xlink:title="Representation of a unit cell. ">
<polygon fill="#ffffff" stroke="#000000" points="862,-102.5 862,-121.5 946,-121.5 946,-102.5 862,-102.5"/>
<text text-anchor="middle" x="904" y="-109.5" font-family="Helvetica,sans-Serif" font-size="10.00" fill="#000000">sirius::Unit_cell</text>
</a>
</g>
</g>
<!-- Node3&#45;&gt;Node19 -->
<g id="edge22" class="edge">
<title>Node3&#45;&gt;Node19</title>
<path fill="none" stroke="#9a32cd" stroke-dasharray="5,2" d="M670.9635,-187.7973C731.9381,-167.9648 827.1354,-137.0009 874.7767,-121.5052"/>
<polygon fill="#9a32cd" stroke="#9a32cd" points="669.5395,-184.58 661.1125,-191.0015 671.7047,-191.2367 669.5395,-184.58"/>
<text text-anchor="middle" x="755" y="-182" font-family="Helvetica,sans-Serif" font-size="10.00" fill="#000000"> parameters_</text>
</g>
<!-- Node4 -->
<g id="node4" class="node">
<title>Node4</title>
<g id="a_node4"><a xlink:href="../../d4/d6e/structsirius_1_1_parameters__input.html" target="_top" xlink:title="Parse parameters input section. ">
<polygon fill="#ffffff" stroke="#000000" points="311,-311 311,-341 408,-341 408,-311 311,-311"/>
<text text-anchor="start" x="319" y="-329" font-family="Helvetica,sans-Serif" font-size="10.00" fill="#000000">sirius::Parameters</text>
<text text-anchor="middle" x="359.5" y="-318" font-family="Helvetica,sans-Serif" font-size="10.00" fill="#000000">_input</text>
</a>
</g>
</g>
<!-- Node4&#45;&gt;Node3 -->
<g id="edge3" class="edge">
<title>Node4&#45;&gt;Node3</title>
<path fill="none" stroke="#9a32cd" stroke-dasharray="5,2" d="M418.6031,-322.6666C454.716,-318.5182 500.7635,-309.3156 537,-289 566.8396,-272.2707 591.9702,-240.2476 605.1291,-221.2412"/>
<polygon fill="#9a32cd" stroke="#9a32cd" points="417.7995,-319.2315 408.2181,-323.7532 418.528,-326.1935 417.7995,-319.2315"/>
<text text-anchor="middle" x="485.5" y="-323" font-family="Helvetica,sans-Serif" font-size="10.00" fill="#000000"> parameters_input_</text>
</g>
<!-- Node5 -->
<g id="node5" class="node">
<title>Node5</title>
<g id="a_node5"><a xlink:href="../../da/de3/structsirius_1_1_control__input.html" target="_top" xlink:title="Parse control input section. ">
<polygon fill="#ffffff" stroke="#000000" points="307,-272.5 307,-291.5 412,-291.5 412,-272.5 307,-272.5"/>
<text text-anchor="middle" x="359.5" y="-279.5" font-family="Helvetica,sans-Serif" font-size="10.00" fill="#000000">sirius::Control_input</text>
</a>
</g>
</g>
<!-- Node5&#45;&gt;Node3 -->
<g id="edge4" class="edge">
<title>Node5&#45;&gt;Node3</title>
<path fill="none" stroke="#9a32cd" stroke-dasharray="5,2" d="M421.9953,-276.4964C456.6456,-272.1158 500.0653,-264.4024 537,-251 557.2806,-243.6409 578.362,-231.1393 593.4876,-221.178"/>
<polygon fill="#9a32cd" stroke="#9a32cd" points="421.5153,-273.0288 412.0051,-277.6985 422.3516,-279.9787 421.5153,-273.0288"/>
<text text-anchor="middle" x="485.5" y="-277" font-family="Helvetica,sans-Serif" font-size="10.00" fill="#000000"> control_input_</text>
</g>
<!-- Node6 -->
<g id="node6" class="node">
<title>Node6</title>
<g id="a_node6"><a xlink:href="../../d2/dcd/structsirius_1_1_hubbard__input.html" target="_top" xlink:title="sirius::Hubbard_input">
<polygon fill="#ffffff" stroke="#000000" points="304,-234.5 304,-253.5 415,-253.5 415,-234.5 304,-234.5"/>
<text text-anchor="middle" x="359.5" y="-241.5" font-family="Helvetica,sans-Serif" font-size="10.00" fill="#000000">sirius::Hubbard_input</text>
</a>
</g>
</g>
<!-- Node6&#45;&gt;Node3 -->
<g id="edge5" class="edge">
<title>Node6&#45;&gt;Node3</title>
<path fill="none" stroke="#9a32cd" stroke-dasharray="5,2" d="M425.3232,-236.4432C458.8283,-232.3502 500.1606,-226.9234 537,-221 547.3473,-219.3363 558.4255,-217.3384 568.8885,-215.3513"/>
<polygon fill="#9a32cd" stroke="#9a32cd" points="424.6969,-232.9934 415.1899,-237.6697 425.5381,-239.9426 424.6969,-232.9934"/>
<text text-anchor="middle" x="485.5" y="-239" font-family="Helvetica,sans-Serif" font-size="10.00" fill="#000000"> hubbard_input_</text>
</g>
<!-- Node7 -->
<g id="node7" class="node">
<title>Node7</title>
<g id="a_node7"><a xlink:href="../../d6/de3/structsirius_1_1_settings__input.html" target="_top" xlink:title="Settings control the internal parameters related to the numerical implementation. ...">
<polygon fill="#ffffff" stroke="#000000" points="305,-196.5 305,-215.5 414,-215.5 414,-196.5 305,-196.5"/>
<text text-anchor="middle" x="359.5" y="-203.5" font-family="Helvetica,sans-Serif" font-size="10.00" fill="#000000">sirius::Settings_input</text>
</a>
</g>
</g>
<!-- Node7&#45;&gt;Node3 -->
<g id="edge6" class="edge">
<title>Node7&#45;&gt;Node3</title>
<path fill="none" stroke="#9a32cd" stroke-dasharray="5,2" d="M424.5753,-206C469.6417,-206 528.5416,-206 568.8303,-206"/>
<polygon fill="#9a32cd" stroke="#9a32cd" points="424.3112,-202.5001 414.3112,-206 424.3111,-209.5001 424.3112,-202.5001"/>
<text text-anchor="middle" x="485.5" y="-209" font-family="Helvetica,sans-Serif" font-size="10.00" fill="#000000"> settings_input_</text>
</g>
<!-- Node8 -->
<g id="node8" class="node">
<title>Node8</title>
<g id="a_node8"><a xlink:href="../../d7/d51/structsirius_1_1_unit__cell__input.html" target="_top" xlink:title="Parse unit cell input section. ">
<polygon fill="#ffffff" stroke="#000000" points="304,-158.5 304,-177.5 415,-177.5 415,-158.5 304,-158.5"/>
<text text-anchor="middle" x="359.5" y="-165.5" font-family="Helvetica,sans-Serif" font-size="10.00" fill="#000000">sirius::Unit_cell_input</text>
</a>
</g>
</g>
<!-- Node8&#45;&gt;Node3 -->
<g id="edge7" class="edge">
<title>Node8&#45;&gt;Node3</title>
<path fill="none" stroke="#9a32cd" stroke-dasharray="5,2" d="M425.3232,-175.5568C458.8283,-179.6498 500.1606,-185.0766 537,-191 547.3473,-192.6637 558.4255,-194.6616 568.8885,-196.6487"/>
<polygon fill="#9a32cd" stroke="#9a32cd" points="425.5381,-172.0574 415.1899,-174.3303 424.6969,-179.0066 425.5381,-172.0574"/>
<text text-anchor="middle" x="485.5" y="-194" font-family="Helvetica,sans-Serif" font-size="10.00" fill="#000000"> unit_cell_input_</text>
</g>
<!-- Node9 -->
<g id="node9" class="node">
<title>Node9</title>
<g id="a_node9"><a xlink:href="../../d2/d6b/classgeometry3d_1_1vector3d.html" target="_top" xlink:title="geometry3d::vector3d\l\&lt; double \&gt;">
<polygon fill="#ffffff" stroke="#000000" points="134,-153 134,-183 247,-183 247,-153 134,-153"/>
<text text-anchor="start" x="142" y="-171" font-family="Helvetica,sans-Serif" font-size="10.00" fill="#000000">geometry3d::vector3d</text>
<text text-anchor="middle" x="190.5" y="-160" font-family="Helvetica,sans-Serif" font-size="10.00" fill="#000000">&lt; double &gt;</text>
</a>
</g>
</g>
<!-- Node9&#45;&gt;Node8 -->
<g id="edge8" class="edge">
<title>Node9&#45;&gt;Node8</title>
<path fill="none" stroke="#9a32cd" stroke-dasharray="5,2" d="M257.6713,-168C272.9518,-168 289.0223,-168 303.7661,-168"/>
<polygon fill="#9a32cd" stroke="#9a32cd" points="257.2447,-164.5001 247.2447,-168 257.2447,-171.5001 257.2447,-164.5001"/>
<text text-anchor="middle" x="275" y="-193" font-family="Helvetica,sans-Serif" font-size="10.00" fill="#000000"> a2_</text>
<text text-anchor="middle" x="275" y="-182" font-family="Helvetica,sans-Serif" font-size="10.00" fill="#000000">a1_</text>
<text text-anchor="middle" x="275" y="-171" font-family="Helvetica,sans-Serif" font-size="10.00" fill="#000000">a0_</text>
</g>
<!-- Node10 -->
<g id="node10" class="node">
<title>Node10</title>
<polygon fill="#ffffff" stroke="#bfbfbf" points="0,-153 0,-183 97,-183 97,-153 0,-153"/>
<text text-anchor="start" x="8" y="-171" font-family="Helvetica,sans-Serif" font-size="10.00" fill="#000000">std::array&lt; double</text>
<text text-anchor="middle" x="48.5" y="-160" font-family="Helvetica,sans-Serif" font-size="10.00" fill="#000000"> , 3 &gt;</text>
</g>
<!-- Node10&#45;&gt;Node9 -->
<g id="edge9" class="edge">
<title>Node10&#45;&gt;Node9</title>
<path fill="none" stroke="#191970" d="M107.4305,-168C116.1271,-168 125.0725,-168 133.7242,-168"/>
<polygon fill="#191970" stroke="#191970" points="107.3684,-164.5001 97.3683,-168 107.3683,-171.5001 107.3684,-164.5001"/>
</g>
<!-- Node11 -->
<g id="node11" class="node">
<title>Node11</title>
<g id="a_node11"><a xlink:href="../../d2/d11/structsirius_1_1_iterative__solver__input.html" target="_top" xlink:title="Parse the parameters of iterative solver. ">
<polygon fill="#ffffff" stroke="#000000" points="303,-109 303,-139 416,-139 416,-109 303,-109"/>
<text text-anchor="start" x="311" y="-127" font-family="Helvetica,sans-Serif" font-size="10.00" fill="#000000">sirius::Iterative_solver</text>
<text text-anchor="middle" x="359.5" y="-116" font-family="Helvetica,sans-Serif" font-size="10.00" fill="#000000">_input</text>
</a>
</g>
</g>
<!-- Node11&#45;&gt;Node3 -->
<g id="edge10" class="edge">
<title>Node11&#45;&gt;Node3</title>
<path fill="none" stroke="#9a32cd" stroke-dasharray="5,2" d="M426.5525,-133.4203C460.3719,-139.3991 501.6142,-148.5896 537,-162 556.7725,-169.4933 577.5504,-181.443 592.6851,-190.9993"/>
<polygon fill="#9a32cd" stroke="#9a32cd" points="426.7571,-129.9045 416.3098,-131.6668 425.5758,-136.8041 426.7571,-129.9045"/>
<text text-anchor="middle" x="485.5" y="-165" font-family="Helvetica,sans-Serif" font-size="10.00" fill="#000000"> iterative_solver_input_</text>
</g>
<!-- Node12 -->
<g id="node12" class="node">
<title>Node12</title>
<g id="a_node12"><a xlink:href="../../d4/db0/structsirius_1_1_mixer__input.html" target="_top" xlink:title="Parse mixer input section. ">
<polygon fill="#ffffff" stroke="#000000" points="311,-70.5 311,-89.5 408,-89.5 408,-70.5 311,-70.5"/>
<text text-anchor="middle" x="359.5" y="-77.5" font-family="Helvetica,sans-Serif" font-size="10.00" fill="#000000">sirius::Mixer_input</text>
</a>
</g>
</g>
<!-- Node12&#45;&gt;Node3 -->
<g id="edge11" class="edge">
<title>Node12&#45;&gt;Node3</title>
<path fill="none" stroke="#9a32cd" stroke-dasharray="5,2" d="M418.4369,-81.3923C455.7646,-85.023 503.1951,-95.0094 537,-121 550.5549,-131.4216 544.2941,-141.6685 555,-155 566.0427,-168.7508 581.1917,-181.5934 593.5047,-190.9514"/>
<polygon fill="#9a32cd" stroke="#9a32cd" points="418.455,-77.8815 408.1962,-80.5287 417.8668,-84.8567 418.455,-77.8815"/>
<text text-anchor="middle" x="485.5" y="-124" font-family="Helvetica,sans-Serif" font-size="10.00" fill="#000000"> mixer_input_</text>
</g>
<!-- Node13 -->
<g id="node13" class="node">
<title>Node13</title>
<g id="a_node13"><a xlink:href="../../d7/dab/classsddk_1_1mdarray.html" target="_top" xlink:title="sddk::mdarray\&lt; int, 2 \&gt;">
<polygon fill="#ffffff" stroke="#000000" points="844.5,-442.5 844.5,-461.5 963.5,-461.5 963.5,-442.5 844.5,-442.5"/>
<text text-anchor="middle" x="904" y="-449.5" font-family="Helvetica,sans-Serif" font-size="10.00" fill="#000000">sddk::mdarray&lt; int, 2 &gt;</text>
</a>
</g>
</g>
<!-- Node13&#45;&gt;Node2 -->
<g id="edge12" class="edge">
<title>Node13&#45;&gt;Node2</title>
<path fill="none" stroke="#9a32cd" stroke-dasharray="5,2" d="M973.6759,-449.9427C1010.0435,-445.9537 1053.7583,-436.322 1087,-414 1116.5524,-394.1554 1136.0676,-355.6161 1145.1337,-334.2276"/>
<polygon fill="#9a32cd" stroke="#9a32cd" points="973.2404,-446.4685 963.628,-450.9241 973.9209,-453.4354 973.2404,-446.4685"/>
<text text-anchor="middle" x="1039" y="-450" font-family="Helvetica,sans-Serif" font-size="10.00" fill="#000000"> gvec_coord_</text>
</g>
<!-- Node14 -->
<g id="node14" class="node">
<title>Node14</title>
<g id="a_node14"><a xlink:href="../../d7/dab/classsddk_1_1mdarray.html" target="_top" xlink:title="sddk::mdarray\&lt; double\l_complex, 1 \&gt;">
<polygon fill="#ffffff" stroke="#000000" points="845,-393 845,-423 963,-423 963,-393 845,-393"/>
<text text-anchor="start" x="853" y="-411" font-family="Helvetica,sans-Serif" font-size="10.00" fill="#000000">sddk::mdarray&lt; double</text>
<text text-anchor="middle" x="904" y="-400" font-family="Helvetica,sans-Serif" font-size="10.00" fill="#000000">_complex, 1 &gt;</text>
</a>
</g>
</g>
<!-- Node14&#45;&gt;Node2 -->
<g id="edge13" class="edge">
<title>Node14&#45;&gt;Node2</title>
<path fill="none" stroke="#9a32cd" stroke-dasharray="5,2" d="M973.422,-402.5405C1008.7469,-397.761 1051.5868,-388.7996 1087,-372 1106.2906,-362.8488 1124.6671,-346.5645 1136.7389,-334.4534"/>
<polygon fill="#9a32cd" stroke="#9a32cd" points="972.6753,-399.1071 963.195,-403.8372 973.5558,-406.0515 972.6753,-399.1071"/>
<text text-anchor="middle" x="1039" y="-402" font-family="Helvetica,sans-Serif" font-size="10.00" fill="#000000"> theta_pw_</text>
</g>
<!-- Node15 -->
<g id="node15" class="node">
<title>Node15</title>
<g id="a_node15"><a xlink:href="../../d7/dab/classsddk_1_1mdarray.html" target="_top" xlink:title="sddk::mdarray\&lt; double, 1 \&gt;">
<polygon fill="#ffffff" stroke="#000000" points="835,-354.5 835,-373.5 973,-373.5 973,-354.5 835,-354.5"/>
<text text-anchor="middle" x="904" y="-361.5" font-family="Helvetica,sans-Serif" font-size="10.00" fill="#000000">sddk::mdarray&lt; double, 1 &gt;</text>
</a>
</g>
</g>
<!-- Node15&#45;&gt;Node2 -->
<g id="edge14" class="edge">
<title>Node15&#45;&gt;Node2</title>
<path fill="none" stroke="#9a32cd" stroke-dasharray="5,2" d="M983.6105,-358.364C1015.9789,-355.0563 1053.5623,-349.9112 1087,-342 1095.7321,-339.934 1104.9202,-337.0676 1113.5238,-334.0581"/>
<polygon fill="#9a32cd" stroke="#9a32cd" points="982.9075,-354.916 973.2964,-359.3745 983.5901,-361.8826 982.9075,-354.916"/>
<text text-anchor="middle" x="1039" y="-360" font-family="Helvetica,sans-Serif" font-size="10.00" fill="#000000"> theta_</text>
</g>
<!-- Node16 -->
<g id="node16" class="node">
<title>Node16</title>
<g id="a_node16"><a xlink:href="../../d7/dab/classsddk_1_1mdarray.html" target="_top" xlink:title="sddk::mdarray\&lt; double\l_complex, 3 \&gt;">
<polygon fill="#ffffff" stroke="#000000" points="845,-305 845,-335 963,-335 963,-305 845,-305"/>
<text text-anchor="start" x="853" y="-323" font-family="Helvetica,sans-Serif" font-size="10.00" fill="#000000">sddk::mdarray&lt; double</text>
<text text-anchor="middle" x="904" y="-312" font-family="Helvetica,sans-Serif" font-size="10.00" fill="#000000">_complex, 3 &gt;</text>
</a>
</g>
</g>
<!-- Node16&#45;&gt;Node2 -->
<g id="edge15" class="edge">
<title>Node16&#45;&gt;Node2</title>
<path fill="none" stroke="#9a32cd" stroke-dasharray="5,2" d="M973.3186,-319.7194C1015.2937,-319.5494 1067.684,-319.3373 1104.668,-319.1876"/>
<polygon fill="#9a32cd" stroke="#9a32cd" points="973.1484,-316.2199 963.1627,-319.7605 973.1768,-323.2199 973.1484,-316.2199"/>
<text text-anchor="middle" x="1039" y="-333" font-family="Helvetica,sans-Serif" font-size="10.00" fill="#000000"> sym_phase_factors_</text>
<text text-anchor="middle" x="1039" y="-322" font-family="Helvetica,sans-Serif" font-size="10.00" fill="#000000">phase_factors_</text>
</g>
<!-- Node17 -->
<g id="node17" class="node">
<title>Node17</title>
<g id="a_node17"><a xlink:href="../../d7/dab/classsddk_1_1mdarray.html" target="_top" xlink:title="sddk::mdarray\&lt; double\l_complex, 2 \&gt;">
<polygon fill="#ffffff" stroke="#000000" points="845,-256 845,-286 963,-286 963,-256 845,-256"/>
<text text-anchor="start" x="853" y="-274" font-family="Helvetica,sans-Serif" font-size="10.00" fill="#000000">sddk::mdarray&lt; double</text>
<text text-anchor="middle" x="904" y="-263" font-family="Helvetica,sans-Serif" font-size="10.00" fill="#000000">_complex, 2 &gt;</text>
</a>
</g>
</g>
<!-- Node17&#45;&gt;Node2 -->
<g id="edge16" class="edge">
<title>Node17&#45;&gt;Node2</title>
<path fill="none" stroke="#9a32cd" stroke-dasharray="5,2" d="M973.0087,-282.5743C1007.3536,-288.5556 1049.453,-296.22 1087,-304 1092.8109,-305.2041 1098.9018,-306.5379 1104.9191,-307.899"/>
<polygon fill="#9a32cd" stroke="#9a32cd" points="973.5271,-279.112 963.0764,-280.8537 972.3322,-286.0093 973.5271,-279.112"/>
<text text-anchor="middle" x="1039" y="-307" font-family="Helvetica,sans-Serif" font-size="10.00" fill="#000000"> phase_factors_t_</text>
</g>
<!-- Node18 -->
<g id="node18" class="node">
<title>Node18</title>
<g id="a_node18"><a xlink:href="../../da/d70/classsddk_1_1_communicator.html" target="_top" xlink:title="MPI communicator wrapper. ">
<polygon fill="#ffffff" stroke="#000000" points="561,-126.5 561,-145.5 669,-145.5 669,-126.5 561,-126.5"/>
<text text-anchor="middle" x="615" y="-133.5" font-family="Helvetica,sans-Serif" font-size="10.00" fill="#000000">sddk::Communicator</text>
</a>
</g>
</g>
<!-- Node18&#45;&gt;Node2 -->
<g id="edge17" class="edge">
<title>Node18&#45;&gt;Node2</title>
<path fill="none" stroke="#9a32cd" stroke-dasharray="5,2" d="M655.24,-148.2953C667.2852,-151.5779 680.5912,-154.8156 693,-157 816.0094,-178.654 856.6647,-135.5435 973,-181 1044.0203,-208.7502 1110.124,-274.2945 1137.5941,-303.9548"/>
<polygon fill="#9a32cd" stroke="#9a32cd" points="656.0399,-144.8846 645.466,-145.5495 654.1466,-151.6238 656.0399,-144.8846"/>
<text text-anchor="middle" x="904" y="-239" font-family="Helvetica,sans-Serif" font-size="10.00" fill="#000000"> comm_ortho_fft_</text>
<text text-anchor="start" x="851" y="-228" font-family="Helvetica,sans-Serif" font-size="10.00" fill="#000000">comm_ortho_fft_coarse</text>
<text text-anchor="middle" x="904" y="-217" font-family="Helvetica,sans-Serif" font-size="10.00" fill="#000000">_</text>
<text text-anchor="start" x="851" y="-206" font-family="Helvetica,sans-Serif" font-size="10.00" fill="#000000">comm_band_ortho</text>
<text text-anchor="middle" x="904" y="-195" font-family="Helvetica,sans-Serif" font-size="10.00" fill="#000000">_fft_coarse_</text>
<text text-anchor="middle" x="904" y="-184" font-family="Helvetica,sans-Serif" font-size="10.00" fill="#000000">comm_</text>
</g>
<!-- Node18&#45;&gt;Node19 -->
<g id="edge21" class="edge">
<title>Node18&#45;&gt;Node19</title>
<path fill="none" stroke="#9a32cd" stroke-dasharray="5,2" d="M649.2787,-123.0316C662.7065,-118.5957 678.3742,-114.1993 693,-112 750.9595,-103.2848 818.8915,-105.4636 861.69,-108.3233"/>
<polygon fill="#9a32cd" stroke="#9a32cd" points="647.8185,-119.8326 639.5014,-126.3958 650.096,-126.4517 647.8185,-119.8326"/>
<text text-anchor="middle" x="755" y="-115" font-family="Helvetica,sans-Serif" font-size="10.00" fill="#000000"> comm_</text>
</g>
<!-- Node19&#45;&gt;Node1 -->
<g id="edge25" class="edge">
<title>Node19&#45;&gt;Node1</title>
<path fill="none" stroke="#9a32cd" stroke-dasharray="5,2" d="M956.0891,-112C1033.734,-112 1178.8092,-112 1254.7635,-112"/>
<polygon fill="#9a32cd" stroke="#9a32cd" points="956.051,-108.5001 946.051,-112 956.051,-115.5001 956.051,-108.5001"/>
<text text-anchor="middle" x="1151" y="-115" font-family="Helvetica,sans-Serif" font-size="10.00" fill="#000000"> unit_cell_</text>
</g>
<!-- Node19&#45;&gt;Node2 -->
<g id="edge18" class="edge">
<title>Node19&#45;&gt;Node2</title>
<path fill="none" stroke="#9a32cd" stroke-dasharray="5,2" d="M956.4311,-119.0581C1006.905,-126.2792 1077.0291,-137.6002 1087,-146 1136.1058,-187.3682 1147.55,-270.0564 1150.2041,-303.9652"/>
<polygon fill="#9a32cd" stroke="#9a32cd" points="956.6965,-115.5609 946.305,-117.6263 955.7164,-122.492 956.6965,-115.5609"/>
<text text-anchor="middle" x="1039" y="-149" font-family="Helvetica,sans-Serif" font-size="10.00" fill="#000000"> unit_cell_</text>
</g>
<!-- Node20 -->
<g id="node20" class="node">
<title>Node20</title>
<g id="a_node20"><a xlink:href="../../d2/dc9/classsddk_1_1splindex.html" target="_top" xlink:title="sddk::splindex\&lt; block \&gt;">
<polygon fill="#ffffff" stroke="#000000" points="555,-36.5 555,-55.5 675,-55.5 675,-36.5 555,-36.5"/>
<text text-anchor="middle" x="615" y="-43.5" font-family="Helvetica,sans-Serif" font-size="10.00" fill="#000000">sddk::splindex&lt; block &gt;</text>
</a>
</g>
</g>
<!-- Node20&#45;&gt;Node19 -->
<g id="edge19" class="edge">
<title>Node20&#45;&gt;Node19</title>
<path fill="none" stroke="#9a32cd" stroke-dasharray="5,2" d="M685.2682,-41.7819C724.8311,-41.4652 774.646,-44.5535 817,-58 846.9904,-67.5213 877.0994,-89.6908 892.8263,-102.4667"/>
<polygon fill="#9a32cd" stroke="#9a32cd" points="685.1261,-38.2835 675.1813,-41.9374 685.2341,-45.2827 685.1261,-38.2835"/>
<text text-anchor="middle" x="755" y="-94" font-family="Helvetica,sans-Serif" font-size="10.00" fill="#000000"> spl_num_paw_atoms_</text>
<text text-anchor="middle" x="755" y="-83" font-family="Helvetica,sans-Serif" font-size="10.00" fill="#000000">spl_num_atoms_</text>
<text text-anchor="start" x="697.5" y="-72" font-family="Helvetica,sans-Serif" font-size="10.00" fill="#000000">spl_num_atom_symmetry</text>
<text text-anchor="middle" x="755" y="-61" font-family="Helvetica,sans-Serif" font-size="10.00" fill="#000000">_classes_</text>
</g>
<!-- Node21 -->
<g id="node21" class="node">
<title>Node21</title>
<g id="a_node21"><a xlink:href="../../d6/dec/classsddk_1_1splindex__base.html" target="_top" xlink:title="sddk::splindex_base\l\&lt; int \&gt;">
<polygon fill="#ffffff" stroke="#000000" points="306,-14 306,-44 413,-44 413,-14 306,-14"/>
<text text-anchor="start" x="314" y="-32" font-family="Helvetica,sans-Serif" font-size="10.00" fill="#000000">sddk::splindex_base</text>
<text text-anchor="middle" x="359.5" y="-21" font-family="Helvetica,sans-Serif" font-size="10.00" fill="#000000">&lt; int &gt;</text>
</a>
</g>
</g>
<!-- Node21&#45;&gt;Node20 -->
<g id="edge20" class="edge">
<title>Node21&#45;&gt;Node20</title>
<path fill="none" stroke="#191970" d="M423.044,-33.228C463.3425,-35.9093 515.1594,-39.357 554.7976,-41.9944"/>
<polygon fill="#191970" stroke="#191970" points="423.2715,-29.7355 413.0612,-32.5638 422.8067,-36.72 423.2715,-29.7355"/>
</g>
<!-- Node22 -->
<g id="node22" class="node">
<title>Node22</title>
<g id="a_node22"><a xlink:href="../../d2/dc9/classsddk_1_1splindex.html" target="_top" xlink:title="sddk::splindex\&lt; chunk \&gt;">
<polygon fill="#ffffff" stroke="#000000" points="693,-.5 693,-19.5 817,-19.5 817,-.5 693,-.5"/>
<text text-anchor="middle" x="755" y="-7.5" font-family="Helvetica,sans-Serif" font-size="10.00" fill="#000000">sddk::splindex&lt; chunk &gt;</text>
</a>
</g>
</g>
<!-- Node21&#45;&gt;Node22 -->
<g id="edge24" class="edge">
<title>Node21&#45;&gt;Node22</title>
<path fill="none" stroke="#191970" d="M423.4052,-25.93C497.6746,-22.362 619.41,-16.5138 692.8999,-12.9833"/>
<polygon fill="#191970" stroke="#191970" points="423.071,-22.4419 413.2505,-26.4178 423.407,-29.4338 423.071,-22.4419"/>
</g>
<!-- Node22&#45;&gt;Node1 -->
<g id="edge23" class="edge">
<title>Node22&#45;&gt;Node1</title>
<path fill="none" stroke="#9a32cd" stroke-dasharray="5,2" d="M816.079,-21.348C925.8217,-41.7374 1154.2643,-84.1803 1254.7556,-102.8508"/>
<polygon fill="#9a32cd" stroke="#9a32cd" points="816.6267,-17.8899 806.1556,-19.5043 815.348,-24.7722 816.6267,-17.8899"/>
<text text-anchor="middle" x="1039" y="-74" font-family="Helvetica,sans-Serif" font-size="10.00" fill="#000000"> spl_num_kpoints_</text>
</g>
</g>
</svg>
