<?xml version="1.0" encoding="UTF-8" standalone="no"?>
<!DOCTYPE svg PUBLIC "-//W3C//DTD SVG 1.1//EN"
 "http://www.w3.org/Graphics/SVG/1.1/DTD/svg11.dtd">
<!-- Generated by graphviz version 2.40.1 (20161225.0304)
 -->
<!-- Title: field4d.hpp Pages: 1 -->
<svg width="262pt" height="84pt"
 viewBox="0.00 0.00 262.00 84.00" xmlns="http://www.w3.org/2000/svg" xmlns:xlink="http://www.w3.org/1999/xlink">
<g id="graph0" class="graph" transform="scale(1 1) rotate(0) translate(4 80)">
<title>field4d.hpp</title>
<polygon fill="#ffffff" stroke="transparent" points="-4,4 -4,-80 258,-80 258,4 -4,4"/>
<!-- Node0 -->
<g id="node1" class="node">
<title>Node0</title>
<g id="a_node1"><a xlink:title="Base class for sirius::Density and sirius::Potential.">
<polygon fill="#bfbfbf" stroke="#000000" points="89,-56.5 89,-75.5 154,-75.5 154,-56.5 89,-56.5"/>
<text text-anchor="middle" x="121.5" y="-63.5" font-family="Helvetica,sans-Serif" font-size="10.00" fill="#000000">field4d.hpp</text>
</a>
</g>
</g>
<!-- Node1 -->
<g id="node2" class="node">
<title>Node1</title>
<g id="a_node2"><a xlink:title=" ">
<polygon fill="#ffffff" stroke="#bfbfbf" points="0,-.5 0,-19.5 53,-19.5 53,-.5 0,-.5"/>
<text text-anchor="middle" x="26.5" y="-7.5" font-family="Helvetica,sans-Serif" font-size="10.00" fill="#000000">memory</text>
</a>
</g>
</g>
<!-- Node0&#45;&gt;Node1 -->
<g id="edge1" class="edge">
<title>Node0&#45;&gt;Node1</title>
<path fill="none" stroke="#191970" d="M104.9523,-56.2455C90.2401,-47.5731 68.5112,-34.7645 51.6495,-24.825"/>
<polygon fill="#191970" stroke="#191970" points="53.2502,-21.7057 42.8581,-19.6427 49.6954,-27.736 53.2502,-21.7057"/>
</g>
<!-- Node2 -->
<g id="node3" class="node">
<title>Node2</title>
<g id="a_node3"><a xlink:title=" ">
<polygon fill="#ffffff" stroke="#bfbfbf" points="71,-.5 71,-19.5 110,-19.5 110,-.5 71,-.5"/>
<text text-anchor="middle" x="90.5" y="-7.5" font-family="Helvetica,sans-Serif" font-size="10.00" fill="#000000">array</text>
</a>
</g>
</g>
<!-- Node0&#45;&gt;Node2 -->
<g id="edge2" class="edge">
<title>Node0&#45;&gt;Node2</title>
<path fill="none" stroke="#191970" d="M116.1002,-56.2455C111.8773,-48.617 105.8827,-37.7881 100.7559,-28.5267"/>
<polygon fill="#191970" stroke="#191970" points="103.7432,-26.6965 95.8379,-19.6427 97.619,-30.0867 103.7432,-26.6965"/>
</g>
<!-- Node3 -->
<g id="node4" class="node">
<title>Node3</title>
<g id="a_node4"><a xlink:title=" ">
<polygon fill="#ffffff" stroke="#bfbfbf" points="128,-.5 128,-19.5 177,-19.5 177,-.5 128,-.5"/>
<text text-anchor="middle" x="152.5" y="-7.5" font-family="Helvetica,sans-Serif" font-size="10.00" fill="#000000">cassert</text>
</a>
</g>
</g>
<!-- Node0&#45;&gt;Node3 -->
<g id="edge3" class="edge">
<title>Node0&#45;&gt;Node3</title>
<path fill="none" stroke="#191970" d="M126.8998,-56.2455C131.1227,-48.617 137.1173,-37.7881 142.2441,-28.5267"/>
<polygon fill="#191970" stroke="#191970" points="145.381,-30.0867 147.1621,-19.6427 139.2568,-26.6965 145.381,-30.0867"/>
</g>
<!-- Node4 -->
<g id="node5" class="node">
<title>Node4</title>
<g id="a_node5"><a xlink:title=" ">
<polygon fill="#ffffff" stroke="#bfbfbf" points="195,-.5 195,-19.5 254,-19.5 254,-.5 195,-.5"/>
<text text-anchor="middle" x="224.5" y="-7.5" font-family="Helvetica,sans-Serif" font-size="10.00" fill="#000000">stdexcept</text>
</a>
</g>
</g>
<!-- Node0&#45;&gt;Node4 -->
<g id="edge4" class="edge">
<title>Node0&#45;&gt;Node4</title>
<path fill="none" stroke="#191970" d="M139.4412,-56.2455C155.54,-47.4928 179.3879,-34.527 197.7391,-24.5496"/>
<polygon fill="#191970" stroke="#191970" points="199.6507,-27.4942 206.7644,-19.6427 196.3071,-21.3444 199.6507,-27.4942"/>
</g>
</g>
</svg>
