<?xml version="1.0" encoding="UTF-8" standalone="no"?>
<!DOCTYPE svg PUBLIC "-//W3C//DTD SVG 1.1//EN"
 "http://www.w3.org/Graphics/SVG/1.1/DTD/svg11.dtd">
<!-- Generated by graphviz version 2.40.1 (20161225.0304)
 -->
<!-- Title: force.h Pages: 1 -->
<svg width="191pt" height="196pt"
 viewBox="0.00 0.00 191.00 196.00" xmlns="http://www.w3.org/2000/svg" xmlns:xlink="http://www.w3.org/1999/xlink">
<g id="graph0" class="graph" transform="scale(1 1) rotate(0) translate(4 192)">
<title>force.h</title>
<polygon fill="#ffffff" stroke="transparent" points="-4,4 -4,-192 187,-192 187,4 -4,4"/>
<!-- Node166 -->
<g id="node1" class="node">
<title>Node166</title>
<polygon fill="#bfbfbf" stroke="#000000" points="88,-168.5 88,-187.5 127,-187.5 127,-168.5 88,-168.5"/>
<text text-anchor="middle" x="107.5" y="-175.5" font-family="Helvetica,sans-Serif" font-size="10.00" fill="#000000">force.h</text>
</g>
<!-- Node167 -->
<g id="node2" class="node">
<title>Node167</title>
<g id="a_node2"><a xlink:href="../../d6/df1/dft__ground__state_8h.html" target="_top" xlink:title="Contains definition and partial implementation of sirius::DFT_ground_state class. ...">
<polygon fill="#ffffff" stroke="#000000" points="0,-112.5 0,-131.5 79,-131.5 79,-112.5 0,-112.5"/>
<text text-anchor="middle" x="39.5" y="-119.5" font-family="Helvetica,sans-Serif" font-size="10.00" fill="#000000">dft_ground_state.h</text>
</a>
</g>
</g>
<!-- Node166&#45;&gt;Node167 -->
<g id="edge1" class="edge">
<title>Node166&#45;&gt;Node167</title>
<path fill="none" stroke="#191970" d="M87.6404,-161.645C75.8142,-151.9058 61.2108,-139.8795 51.209,-131.6427"/>
<polygon fill="#191970" stroke="#191970" points="85.711,-164.5902 95.6553,-168.2455 90.161,-159.1867 85.711,-164.5902"/>
</g>
<!-- Node168 -->
<g id="node3" class="node">
<title>Node168</title>
<g id="a_node3"><a xlink:href="../../dd/dc2/sirius_8h.html" target="_top" xlink:title="&quot;All&#45;in&#45;one&quot; include file. ">
<polygon fill="#ffffff" stroke="#000000" points="53.5,-56.5 53.5,-75.5 93.5,-75.5 93.5,-56.5 53.5,-56.5"/>
<text text-anchor="middle" x="73.5" y="-63.5" font-family="Helvetica,sans-Serif" font-size="10.00" fill="#000000">sirius.h</text>
</a>
</g>
</g>
<!-- Node166&#45;&gt;Node168 -->
<g id="edge5" class="edge">
<title>Node166&#45;&gt;Node168</title>
<path fill="none" stroke="#191970" d="M102.0204,-158.2906C98.3178,-145.1445 93.2553,-127.4955 88.5,-112 84.6556,-99.4726 79.9265,-85.1315 76.8185,-75.8389"/>
<polygon fill="#191970" stroke="#191970" points="98.708,-159.4419 104.7741,-168.1282 105.4489,-157.5549 98.708,-159.4419"/>
</g>
<!-- Node170 -->
<g id="node5" class="node">
<title>Node170</title>
<g id="a_node5"><a xlink:href="../../df/d4d/force_8cpp.html" target="_top" xlink:title="Contains implementation of sirius::Force class. ">
<polygon fill="#ffffff" stroke="#000000" points="136,-112.5 136,-131.5 183,-131.5 183,-112.5 136,-112.5"/>
<text text-anchor="middle" x="159.5" y="-119.5" font-family="Helvetica,sans-Serif" font-size="10.00" fill="#000000">force.cpp</text>
</a>
</g>
</g>
<!-- Node166&#45;&gt;Node170 -->
<g id="edge4" class="edge">
<title>Node166&#45;&gt;Node170</title>
<path fill="none" stroke="#191970" d="M123.4822,-160.7884C132.3778,-151.2085 143.1204,-139.6396 150.5461,-131.6427"/>
<polygon fill="#191970" stroke="#191970" points="120.7975,-158.536 116.5577,-168.2455 125.927,-163.2992 120.7975,-158.536"/>
</g>
<!-- Node167&#45;&gt;Node168 -->
<g id="edge2" class="edge">
<title>Node167&#45;&gt;Node168</title>
<path fill="none" stroke="#191970" d="M50.6535,-103.6296C56.3247,-94.2887 62.9845,-83.3197 67.6455,-75.6427"/>
<polygon fill="#191970" stroke="#191970" points="47.6204,-101.8812 45.4223,-112.2455 53.6039,-105.5141 47.6204,-101.8812"/>
</g>
<!-- Node169 -->
<g id="node4" class="node">
<title>Node169</title>
<g id="a_node4"><a xlink:href="../../d4/d53/sirius__api_8cpp.html" target="_top" xlink:title="Fortran API. ">
<polygon fill="#ffffff" stroke="#000000" points="42.5,-.5 42.5,-19.5 104.5,-19.5 104.5,-.5 42.5,-.5"/>
<text text-anchor="middle" x="73.5" y="-7.5" font-family="Helvetica,sans-Serif" font-size="10.00" fill="#000000">sirius_api.cpp</text>
</a>
</g>
</g>
<!-- Node168&#45;&gt;Node169 -->
<g id="edge3" class="edge">
<title>Node168&#45;&gt;Node169</title>
<path fill="none" stroke="#191970" d="M73.5,-46.1575C73.5,-37.155 73.5,-26.9199 73.5,-19.6427"/>
<polygon fill="#191970" stroke="#191970" points="70.0001,-46.2455 73.5,-56.2455 77.0001,-46.2456 70.0001,-46.2455"/>
</g>
</g>
</svg>
