<?xml version="1.0" encoding="UTF-8" standalone="no"?>
<!DOCTYPE svg PUBLIC "-//W3C//DTD SVG 1.1//EN"
 "http://www.w3.org/Graphics/SVG/1.1/DTD/svg11.dtd">
<!-- Generated by graphviz version 2.40.1 (20161225.0304)
 -->
<!-- Title: unit_cell_symmetry.cpp Pages: 1 -->
<svg width="2200pt" height="308pt"
 viewBox="0.00 0.00 2199.50 308.00" xmlns="http://www.w3.org/2000/svg" xmlns:xlink="http://www.w3.org/1999/xlink">
<g id="graph0" class="graph" transform="scale(1 1) rotate(0) translate(4 304)">
<title>unit_cell_symmetry.cpp</title>
<polygon fill="#ffffff" stroke="transparent" points="-4,4 -4,-304 2195.5,-304 2195.5,4 -4,4"/>
<!-- Node1 -->
<g id="node1" class="node">
<title>Node1</title>
<g id="a_node1"><a xlink:title="Contains implementation of sirius::Unit_cell_symmetry class.">
<polygon fill="#bfbfbf" stroke="#000000" points="1964.5,-280.5 1964.5,-299.5 2085.5,-299.5 2085.5,-280.5 1964.5,-280.5"/>
<text text-anchor="middle" x="2025" y="-287.5" font-family="Helvetica,sans-Serif" font-size="10.00" fill="#000000">unit_cell_symmetry.cpp</text>
</a>
</g>
</g>
<!-- Node2 -->
<g id="node2" class="node">
<title>Node2</title>
<g id="a_node2"><a xlink:href="../../d8/d7a/unit__cell__symmetry_8hpp.html" target="_top" xlink:title="Contains definition and implementation of sirius::Unit_cell_symmetry class.">
<polygon fill="#ffffff" stroke="#000000" points="1964,-224.5 1964,-243.5 2086,-243.5 2086,-224.5 1964,-224.5"/>
<text text-anchor="middle" x="2025" y="-231.5" font-family="Helvetica,sans-Serif" font-size="10.00" fill="#000000">unit_cell_symmetry.hpp</text>
</a>
</g>
</g>
<!-- Node1&#45;&gt;Node2 -->
<g id="edge1" class="edge">
<title>Node1&#45;&gt;Node2</title>
<path fill="none" stroke="#191970" d="M2025,-280.2455C2025,-272.9382 2025,-262.6944 2025,-253.7046"/>
<polygon fill="#191970" stroke="#191970" points="2028.5001,-253.6426 2025,-243.6427 2021.5001,-253.6427 2028.5001,-253.6426"/>
</g>
<!-- Node3 -->
<g id="node3" class="node">
<title>Node3</title>
<g id="a_node3"><a xlink:title=" ">
<polygon fill="#ffffff" stroke="#bfbfbf" points="2142.5,-56.5 2142.5,-75.5 2191.5,-75.5 2191.5,-56.5 2142.5,-56.5"/>
<text text-anchor="middle" x="2167" y="-63.5" font-family="Helvetica,sans-Serif" font-size="10.00" fill="#000000">cstddef</text>
</a>
</g>
</g>
<!-- Node2&#45;&gt;Node3 -->
<g id="edge2" class="edge">
<title>Node2&#45;&gt;Node3</title>
<path fill="none" stroke="#191970" d="M2033.0414,-224.4862C2055.9742,-197.3545 2121.9659,-119.2798 2151.9061,-83.8576"/>
<polygon fill="#191970" stroke="#191970" points="2154.9108,-85.7246 2158.6931,-75.8279 2149.5647,-81.2058 2154.9108,-85.7246"/>
</g>
<!-- Node4 -->
<g id="node4" class="node">
<title>Node4</title>
<g id="a_node4"><a xlink:title=" ">
<polygon fill="#ffffff" stroke="#bfbfbf" points="2089.5,-168.5 2089.5,-187.5 2140.5,-187.5 2140.5,-168.5 2089.5,-168.5"/>
<text text-anchor="middle" x="2115" y="-175.5" font-family="Helvetica,sans-Serif" font-size="10.00" fill="#000000">spglib.h</text>
</a>
</g>
</g>
<!-- Node2&#45;&gt;Node4 -->
<g id="edge3" class="edge">
<title>Node2&#45;&gt;Node4</title>
<path fill="none" stroke="#191970" d="M2040.6768,-224.2455C2054.4856,-215.6534 2074.8193,-203.0014 2090.7292,-193.1018"/>
<polygon fill="#191970" stroke="#191970" points="2092.8613,-195.8974 2099.5028,-187.6427 2089.1632,-189.954 2092.8613,-195.8974"/>
</g>
<!-- Node5 -->
<g id="node5" class="node">
<title>Node5</title>
<g id="a_node5"><a xlink:href="../../d2/d22/rotation_8hpp.html" target="_top" xlink:title="Generate rotation matrices and related entities.">
<polygon fill="#ffffff" stroke="#000000" points="963.5,-168.5 963.5,-187.5 1078.5,-187.5 1078.5,-168.5 963.5,-168.5"/>
<text text-anchor="middle" x="1021" y="-175.5" font-family="Helvetica,sans-Serif" font-size="10.00" fill="#000000">symmetry/rotation.hpp</text>
</a>
</g>
</g>
<!-- Node2&#45;&gt;Node5 -->
<g id="edge4" class="edge">
<title>Node2&#45;&gt;Node5</title>
<path fill="none" stroke="#191970" d="M1963.7067,-230.5812C1786.4343,-220.6935 1274.0257,-192.113 1088.8127,-181.7824"/>
<polygon fill="#191970" stroke="#191970" points="1088.8428,-178.2787 1078.6633,-181.2163 1088.4529,-185.2678 1088.8428,-178.2787"/>
</g>
<!-- Node44 -->
<g id="node44" class="node">
<title>Node44</title>
<g id="a_node44"><a xlink:href="../../dc/ddc/profiler_8hpp.html" target="_top" xlink:title="A time&#45;based profiler.">
<polygon fill="#ffffff" stroke="#000000" points="1916.5,-168.5 1916.5,-187.5 2003.5,-187.5 2003.5,-168.5 1916.5,-168.5"/>
<text text-anchor="middle" x="1960" y="-175.5" font-family="Helvetica,sans-Serif" font-size="10.00" fill="#000000">utils/profiler.hpp</text>
</a>
</g>
</g>
<!-- Node2&#45;&gt;Node44 -->
<g id="edge56" class="edge">
<title>Node2&#45;&gt;Node44</title>
<path fill="none" stroke="#191970" d="M2013.6779,-224.2455C2004.0777,-215.9746 1990.1108,-203.9416 1978.8305,-194.2232"/>
<polygon fill="#191970" stroke="#191970" points="1981.053,-191.5182 1971.1924,-187.6427 1976.484,-196.8214 1981.053,-191.5182"/>
</g>
<!-- Node6 -->
<g id="node6" class="node">
<title>Node6</title>
<g id="a_node6"><a xlink:href="../../da/d3e/memory_8hpp.html" target="_top" xlink:title="Memory management functions and classes.">
<polygon fill="#ffffff" stroke="#000000" points="701,-112.5 701,-131.5 773,-131.5 773,-112.5 701,-112.5"/>
<text text-anchor="middle" x="737" y="-119.5" font-family="Helvetica,sans-Serif" font-size="10.00" fill="#000000">memory.hpp</text>
</a>
</g>
</g>
<!-- Node5&#45;&gt;Node6 -->
<g id="edge5" class="edge">
<title>Node5&#45;&gt;Node6</title>
<path fill="none" stroke="#191970" d="M972.5014,-168.4369C919.4784,-157.9816 835.145,-141.3525 783.0927,-131.0887"/>
<polygon fill="#191970" stroke="#191970" points="783.6197,-127.6253 773.1315,-129.1245 782.2655,-134.4931 783.6197,-127.6253"/>
</g>
<!-- Node31 -->
<g id="node31" class="node">
<title>Node31</title>
<g id="a_node31"><a xlink:href="../../d6/d99/geometry3d_8hpp.html" target="_top" xlink:title="Simple classes and functions to work with the 3D vectors and matrices of the crystal lattice.">
<polygon fill="#ffffff" stroke="#000000" points="976.5,-112.5 976.5,-131.5 1065.5,-131.5 1065.5,-112.5 976.5,-112.5"/>
<text text-anchor="middle" x="1021" y="-119.5" font-family="Helvetica,sans-Serif" font-size="10.00" fill="#000000">geometry3d.hpp</text>
</a>
</g>
</g>
<!-- Node5&#45;&gt;Node31 -->
<g id="edge31" class="edge">
<title>Node5&#45;&gt;Node31</title>
<path fill="none" stroke="#191970" d="M1021,-168.2455C1021,-160.9382 1021,-150.6944 1021,-141.7046"/>
<polygon fill="#191970" stroke="#191970" points="1024.5001,-141.6426 1021,-131.6427 1017.5001,-141.6427 1024.5001,-141.6426"/>
</g>
<!-- Node37 -->
<g id="node37" class="node">
<title>Node37</title>
<g id="a_node37"><a xlink:href="../../df/d93/utils_8hpp.html" target="_top" xlink:title="A collection of utility functions.">
<polygon fill="#ffffff" stroke="#000000" points="1551,-112.5 1551,-131.5 1625,-131.5 1625,-112.5 1551,-112.5"/>
<text text-anchor="middle" x="1588" y="-119.5" font-family="Helvetica,sans-Serif" font-size="10.00" fill="#000000">utils/utils.hpp</text>
</a>
</g>
</g>
<!-- Node5&#45;&gt;Node37 -->
<g id="edge41" class="edge">
<title>Node5&#45;&gt;Node37</title>
<path fill="none" stroke="#191970" d="M1078.7506,-172.2962C1191.1703,-161.1931 1437.4243,-136.8717 1540.8162,-126.6601"/>
<polygon fill="#191970" stroke="#191970" points="1541.3445,-130.1251 1550.952,-125.6591 1540.6564,-123.159 1541.3445,-130.1251"/>
</g>
<!-- Node43 -->
<g id="node43" class="node">
<title>Node43</title>
<g id="a_node43"><a xlink:href="../../d3/dad/constants_8hpp.html" target="_top" xlink:title="Various constants.">
<polygon fill="#ffffff" stroke="#000000" points="857.5,-112.5 857.5,-131.5 936.5,-131.5 936.5,-112.5 857.5,-112.5"/>
<text text-anchor="middle" x="897" y="-119.5" font-family="Helvetica,sans-Serif" font-size="10.00" fill="#000000">constants.hpp</text>
</a>
</g>
</g>
<!-- Node5&#45;&gt;Node43 -->
<g id="edge54" class="edge">
<title>Node5&#45;&gt;Node43</title>
<path fill="none" stroke="#191970" d="M999.6836,-168.3733C979.7784,-159.3838 949.8564,-145.8706 927.44,-135.7471"/>
<polygon fill="#191970" stroke="#191970" points="928.5925,-132.4272 918.0382,-131.5011 925.7113,-138.8068 928.5925,-132.4272"/>
</g>
<!-- Node7 -->
<g id="node7" class="node">
<title>Node7</title>
<g id="a_node7"><a xlink:title=" ">
<polygon fill="#ffffff" stroke="#bfbfbf" points="1401.5,-56.5 1401.5,-75.5 1430.5,-75.5 1430.5,-56.5 1401.5,-56.5"/>
<text text-anchor="middle" x="1416" y="-63.5" font-family="Helvetica,sans-Serif" font-size="10.00" fill="#000000">list</text>
</a>
</g>
</g>
<!-- Node6&#45;&gt;Node7 -->
<g id="edge6" class="edge">
<title>Node6&#45;&gt;Node7</title>
<path fill="none" stroke="#191970" d="M773.2255,-118.5174C794.9079,-116.4876 823.0193,-113.9515 848,-112 1086.2678,-93.386 1154.2464,-130.309 1391.3169,-75.3612"/>
<polygon fill="#191970" stroke="#191970" points="1392.3388,-78.7166 1401.2737,-73.0229 1390.7383,-71.902 1392.3388,-78.7166"/>
</g>
<!-- Node8 -->
<g id="node8" class="node">
<title>Node8</title>
<g id="a_node8"><a xlink:title=" ">
<polygon fill="#ffffff" stroke="#bfbfbf" points="1198.5,-56.5 1198.5,-75.5 1253.5,-75.5 1253.5,-56.5 1198.5,-56.5"/>
<text text-anchor="middle" x="1226" y="-63.5" font-family="Helvetica,sans-Serif" font-size="10.00" fill="#000000">iostream</text>
</a>
</g>
</g>
<!-- Node6&#45;&gt;Node8 -->
<g id="edge7" class="edge">
<title>Node6&#45;&gt;Node8</title>
<path fill="none" stroke="#191970" d="M773.2131,-118.2115C845.0969,-110.6371 1010.8813,-92.8984 1150,-76 1162.3637,-74.4982 1175.8446,-72.758 1187.9735,-71.1544"/>
<polygon fill="#191970" stroke="#191970" points="1188.7716,-74.5792 1198.2221,-69.7898 1187.8476,-67.6404 1188.7716,-74.5792"/>
</g>
<!-- Node9 -->
<g id="node9" class="node">
<title>Node9</title>
<g id="a_node9"><a xlink:title=" ">
<polygon fill="#ffffff" stroke="#bfbfbf" points="630,-56.5 630,-75.5 666,-75.5 666,-56.5 630,-56.5"/>
<text text-anchor="middle" x="648" y="-63.5" font-family="Helvetica,sans-Serif" font-size="10.00" fill="#000000">map</text>
</a>
</g>
</g>
<!-- Node6&#45;&gt;Node9 -->
<g id="edge8" class="edge">
<title>Node6&#45;&gt;Node9</title>
<path fill="none" stroke="#191970" d="M721.4974,-112.2455C707.842,-103.6534 687.7343,-91.0014 672.0011,-81.1018"/>
<polygon fill="#191970" stroke="#191970" points="673.6529,-78.006 663.325,-75.6427 669.9249,-83.9307 673.6529,-78.006"/>
</g>
<!-- Node10 -->
<g id="node10" class="node">
<title>Node10</title>
<g id="a_node10"><a xlink:title=" ">
<polygon fill="#ffffff" stroke="#bfbfbf" points="315.5,-56.5 315.5,-75.5 368.5,-75.5 368.5,-56.5 315.5,-56.5"/>
<text text-anchor="middle" x="342" y="-63.5" font-family="Helvetica,sans-Serif" font-size="10.00" fill="#000000">memory</text>
</a>
</g>
</g>
<!-- Node6&#45;&gt;Node10 -->
<g id="edge9" class="edge">
<title>Node6&#45;&gt;Node10</title>
<path fill="none" stroke="#191970" d="M700.9361,-119.2096C637.4861,-113.9088 501.6737,-100.8148 378.6178,-76.0975"/>
<polygon fill="#191970" stroke="#191970" points="379.1479,-72.6336 368.65,-74.0637 377.7484,-79.4923 379.1479,-72.6336"/>
</g>
<!-- Node11 -->
<g id="node11" class="node">
<title>Node11</title>
<g id="a_node11"><a xlink:title=" ">
<polygon fill="#ffffff" stroke="#bfbfbf" points="818,-56.5 818,-75.5 864,-75.5 864,-56.5 818,-56.5"/>
<text text-anchor="middle" x="841" y="-63.5" font-family="Helvetica,sans-Serif" font-size="10.00" fill="#000000">cstring</text>
</a>
</g>
</g>
<!-- Node6&#45;&gt;Node11 -->
<g id="edge10" class="edge">
<title>Node6&#45;&gt;Node11</title>
<path fill="none" stroke="#191970" d="M755.1154,-112.2455C771.445,-103.4527 795.671,-90.4079 814.2339,-80.4125"/>
<polygon fill="#191970" stroke="#191970" points="815.9468,-83.4654 823.0922,-75.6427 812.6281,-77.3021 815.9468,-83.4654"/>
</g>
<!-- Node12 -->
<g id="node12" class="node">
<title>Node12</title>
<g id="a_node12"><a xlink:title=" ">
<polygon fill="#ffffff" stroke="#bfbfbf" points="386.5,-56.5 386.5,-75.5 445.5,-75.5 445.5,-56.5 386.5,-56.5"/>
<text text-anchor="middle" x="416" y="-63.5" font-family="Helvetica,sans-Serif" font-size="10.00" fill="#000000">functional</text>
</a>
</g>
</g>
<!-- Node6&#45;&gt;Node12 -->
<g id="edge11" class="edge">
<title>Node6&#45;&gt;Node12</title>
<path fill="none" stroke="#191970" d="M700.7516,-117.1438C648.7261,-109.9438 549.7056,-95.3849 455.7051,-75.9955"/>
<polygon fill="#191970" stroke="#191970" points="456.2504,-72.5339 445.7464,-73.9189 454.8214,-79.3865 456.2504,-72.5339"/>
</g>
<!-- Node13 -->
<g id="node13" class="node">
<title>Node13</title>
<g id="a_node13"><a xlink:title=" ">
<polygon fill="#ffffff" stroke="#bfbfbf" points="464,-56.5 464,-75.5 522,-75.5 522,-56.5 464,-56.5"/>
<text text-anchor="middle" x="493" y="-63.5" font-family="Helvetica,sans-Serif" font-size="10.00" fill="#000000">algorithm</text>
</a>
</g>
</g>
<!-- Node6&#45;&gt;Node13 -->
<g id="edge12" class="edge">
<title>Node6&#45;&gt;Node13</title>
<path fill="none" stroke="#191970" d="M700.8084,-114.3496C661.6061,-105.9677 596.9875,-91.8765 532.0219,-76.185"/>
<polygon fill="#191970" stroke="#191970" points="532.5611,-72.7143 522.0176,-73.7563 530.9096,-79.5167 532.5611,-72.7143"/>
</g>
<!-- Node14 -->
<g id="node14" class="node">
<title>Node14</title>
<g id="a_node14"><a xlink:title=" ">
<polygon fill="#ffffff" stroke="#bfbfbf" points="760.5,-56.5 760.5,-75.5 799.5,-75.5 799.5,-56.5 760.5,-56.5"/>
<text text-anchor="middle" x="780" y="-63.5" font-family="Helvetica,sans-Serif" font-size="10.00" fill="#000000">array</text>
</a>
</g>
</g>
<!-- Node6&#45;&gt;Node14 -->
<g id="edge13" class="edge">
<title>Node6&#45;&gt;Node14</title>
<path fill="none" stroke="#191970" d="M744.49,-112.2455C750.5326,-104.3761 759.1903,-93.101 766.4441,-83.6542"/>
<polygon fill="#191970" stroke="#191970" points="769.2815,-85.7058 772.5958,-75.6427 763.7295,-81.4426 769.2815,-85.7058"/>
</g>
<!-- Node15 -->
<g id="node15" class="node">
<title>Node15</title>
<g id="a_node15"><a xlink:title=" ">
<polygon fill="#ffffff" stroke="#bfbfbf" points="929,-.5 929,-19.5 983,-19.5 983,-.5 929,-.5"/>
<text text-anchor="middle" x="956" y="-7.5" font-family="Helvetica,sans-Serif" font-size="10.00" fill="#000000">complex</text>
</a>
</g>
</g>
<!-- Node6&#45;&gt;Node15 -->
<g id="edge14" class="edge">
<title>Node6&#45;&gt;Node15</title>
<path fill="none" stroke="#191970" d="M734.2605,-112.1233C730.9657,-97.8818 727.4308,-71.583 741,-56 792.2083,2.808 837.4113,-35.5895 918.8179,-19.9339"/>
<polygon fill="#191970" stroke="#191970" points="919.8941,-23.2821 928.9278,-17.7466 918.4138,-16.4404 919.8941,-23.2821"/>
</g>
<!-- Node16 -->
<g id="node16" class="node">
<title>Node16</title>
<g id="a_node16"><a xlink:title=" ">
<polygon fill="#ffffff" stroke="#bfbfbf" points="1271.5,-56.5 1271.5,-75.5 1320.5,-75.5 1320.5,-56.5 1271.5,-56.5"/>
<text text-anchor="middle" x="1296" y="-63.5" font-family="Helvetica,sans-Serif" font-size="10.00" fill="#000000">cassert</text>
</a>
</g>
</g>
<!-- Node6&#45;&gt;Node16 -->
<g id="edge15" class="edge">
<title>Node6&#45;&gt;Node16</title>
<path fill="none" stroke="#191970" d="M773.2412,-118.7064C794.9291,-116.7425 823.0408,-114.2095 848,-112 1028.741,-96.0003 1078.7568,-109.7264 1261.3281,-75.7663"/>
<polygon fill="#191970" stroke="#191970" points="1262.0771,-79.1868 1271.2569,-73.8971 1260.782,-72.3077 1262.0771,-79.1868"/>
</g>
<!-- Node17 -->
<g id="node17" class="node">
<title>Node17</title>
<g id="a_node17"><a xlink:href="../../d4/d86/acc_8hpp.html" target="_top" xlink:title="Interface to accelerators API.">
<polygon fill="#ffffff" stroke="#000000" points="540.5,-56.5 540.5,-75.5 611.5,-75.5 611.5,-56.5 540.5,-56.5"/>
<text text-anchor="middle" x="576" y="-63.5" font-family="Helvetica,sans-Serif" font-size="10.00" fill="#000000">gpu/acc.hpp</text>
</a>
</g>
</g>
<!-- Node6&#45;&gt;Node17 -->
<g id="edge16" class="edge">
<title>Node6&#45;&gt;Node17</title>
<path fill="none" stroke="#191970" d="M709.3231,-112.3733C682.6672,-103.1016 642.1762,-89.0178 612.8116,-78.804"/>
<polygon fill="#191970" stroke="#191970" points="613.9105,-75.4807 603.3157,-75.5011 611.6109,-82.0921 613.9105,-75.4807"/>
</g>
<!-- Node17&#45;&gt;Node15 -->
<g id="edge28" class="edge">
<title>Node17&#45;&gt;Node15</title>
<path fill="none" stroke="#191970" d="M611.7983,-57.71C614.903,-57.0928 618.0023,-56.5123 621,-56 749.7151,-34.005 786.8946,-45.395 918.8879,-19.9579"/>
<polygon fill="#191970" stroke="#191970" points="919.8394,-23.338 928.9784,-17.9779 918.4915,-16.469 919.8394,-23.338"/>
</g>
<!-- Node18 -->
<g id="node18" class="node">
<title>Node18</title>
<g id="a_node18"><a xlink:title=" ">
<polygon fill="#ffffff" stroke="#bfbfbf" points="690.5,-.5 690.5,-19.5 775.5,-19.5 775.5,-.5 690.5,-.5"/>
<text text-anchor="middle" x="733" y="-7.5" font-family="Helvetica,sans-Serif" font-size="10.00" fill="#000000">cuda_runtime.h</text>
</a>
</g>
</g>
<!-- Node17&#45;&gt;Node18 -->
<g id="edge17" class="edge">
<title>Node17&#45;&gt;Node18</title>
<path fill="none" stroke="#191970" d="M602.9893,-56.3733C628.8699,-47.1419 668.1248,-33.1402 696.7289,-22.9375"/>
<polygon fill="#191970" stroke="#191970" points="698.12,-26.1573 706.3629,-19.5011 695.7683,-19.5642 698.12,-26.1573"/>
</g>
<!-- Node19 -->
<g id="node19" class="node">
<title>Node19</title>
<g id="a_node19"><a xlink:title=" ">
<polygon fill="#ffffff" stroke="#bfbfbf" points="793.5,-.5 793.5,-19.5 840.5,-19.5 840.5,-.5 793.5,-.5"/>
<text text-anchor="middle" x="817" y="-7.5" font-family="Helvetica,sans-Serif" font-size="10.00" fill="#000000">cuda.h</text>
</a>
</g>
</g>
<!-- Node17&#45;&gt;Node19 -->
<g id="edge18" class="edge">
<title>Node17&#45;&gt;Node19</title>
<path fill="none" stroke="#191970" d="M611.8604,-58.0266C614.9516,-57.3406 618.0308,-56.6578 621,-56 690.3216,-40.6425 710.51,-38.9007 783.1573,-20.0716"/>
<polygon fill="#191970" stroke="#191970" points="784.4786,-23.3439 793.2689,-17.4293 782.7088,-16.5713 784.4786,-23.3439"/>
</g>
<!-- Node20 -->
<g id="node20" class="node">
<title>Node20</title>
<g id="a_node20"><a xlink:title=" ">
<polygon fill="#ffffff" stroke="#bfbfbf" points="0,-.5 0,-19.5 70,-19.5 70,-.5 0,-.5"/>
<text text-anchor="middle" x="35" y="-7.5" font-family="Helvetica,sans-Serif" font-size="10.00" fill="#000000">cublas_v2.h</text>
</a>
</g>
</g>
<!-- Node17&#45;&gt;Node20 -->
<g id="edge19" class="edge">
<title>Node17&#45;&gt;Node20</title>
<path fill="none" stroke="#191970" d="M540.2228,-57.5782C537.1136,-56.9896 534.0074,-56.4517 531,-56 334.9213,-26.5514 279.9792,-49.6396 80.3819,-20.0177"/>
<polygon fill="#191970" stroke="#191970" points="80.8682,-16.5516 70.4577,-18.5195 79.8232,-23.4732 80.8682,-16.5516"/>
</g>
<!-- Node21 -->
<g id="node21" class="node">
<title>Node21</title>
<g id="a_node21"><a xlink:title=" ">
<polygon fill="#ffffff" stroke="#bfbfbf" points="88.5,-.5 88.5,-19.5 151.5,-19.5 151.5,-.5 88.5,-.5"/>
<text text-anchor="middle" x="120" y="-7.5" font-family="Helvetica,sans-Serif" font-size="10.00" fill="#000000">cublasXt.h</text>
</a>
</g>
</g>
<!-- Node17&#45;&gt;Node21 -->
<g id="edge20" class="edge">
<title>Node17&#45;&gt;Node21</title>
<path fill="none" stroke="#191970" d="M540.214,-57.6355C537.1066,-57.0344 534.0034,-56.478 531,-56 371.0195,-30.5384 325.6537,-46.9735 161.6362,-19.8735"/>
<polygon fill="#191970" stroke="#191970" points="162.1332,-16.408 151.6913,-18.2014 160.9726,-23.3111 162.1332,-16.408"/>
</g>
<!-- Node22 -->
<g id="node22" class="node">
<title>Node22</title>
<g id="a_node22"><a xlink:title=" ">
<polygon fill="#ffffff" stroke="#bfbfbf" points="170,-.5 170,-19.5 272,-19.5 272,-.5 170,-.5"/>
<text text-anchor="middle" x="221" y="-7.5" font-family="Helvetica,sans-Serif" font-size="10.00" fill="#000000">cuda_profiler_api.h</text>
</a>
</g>
</g>
<!-- Node17&#45;&gt;Node22 -->
<g id="edge21" class="edge">
<title>Node17&#45;&gt;Node22</title>
<path fill="none" stroke="#191970" d="M540.1883,-57.7855C537.0865,-57.1519 533.9916,-56.547 531,-56 423.7008,-36.3814 393.6154,-37.1655 282.0199,-20.1238"/>
<polygon fill="#191970" stroke="#191970" points="282.4672,-16.6515 272.0507,-18.5874 281.4009,-23.5698 282.4672,-16.6515"/>
</g>
<!-- Node23 -->
<g id="node23" class="node">
<title>Node23</title>
<g id="a_node23"><a xlink:title=" ">
<polygon fill="#ffffff" stroke="#bfbfbf" points="290,-.5 290,-19.5 364,-19.5 364,-.5 290,-.5"/>
<text text-anchor="middle" x="327" y="-7.5" font-family="Helvetica,sans-Serif" font-size="10.00" fill="#000000">nvToolsExt.h</text>
</a>
</g>
</g>
<!-- Node17&#45;&gt;Node23 -->
<g id="edge22" class="edge">
<title>Node17&#45;&gt;Node23</title>
<path fill="none" stroke="#191970" d="M540.3244,-57.9766C496.635,-48.1508 422.4956,-31.4769 374.1422,-20.6023"/>
<polygon fill="#191970" stroke="#191970" points="374.7601,-17.1539 364.2358,-18.3743 373.2241,-23.9833 374.7601,-17.1539"/>
</g>
<!-- Node24 -->
<g id="node24" class="node">
<title>Node24</title>
<g id="a_node24"><a xlink:title=" ">
<polygon fill="#ffffff" stroke="#bfbfbf" points="382.5,-.5 382.5,-19.5 457.5,-19.5 457.5,-.5 382.5,-.5"/>
<text text-anchor="middle" x="420" y="-7.5" font-family="Helvetica,sans-Serif" font-size="10.00" fill="#000000">cuComplex.h</text>
</a>
</g>
</g>
<!-- Node17&#45;&gt;Node24 -->
<g id="edge23" class="edge">
<title>Node17&#45;&gt;Node24</title>
<path fill="none" stroke="#191970" d="M549.1826,-56.3733C523.4668,-47.1419 484.462,-33.1402 456.0401,-22.9375"/>
<polygon fill="#191970" stroke="#191970" points="457.0619,-19.5857 446.4674,-19.5011 454.6968,-26.174 457.0619,-19.5857"/>
</g>
<!-- Node25 -->
<g id="node25" class="node">
<title>Node25</title>
<g id="a_node25"><a xlink:title=" ">
<polygon fill="#ffffff" stroke="#bfbfbf" points="476,-.5 476,-19.5 538,-19.5 538,-.5 476,-.5"/>
<text text-anchor="middle" x="507" y="-7.5" font-family="Helvetica,sans-Serif" font-size="10.00" fill="#000000">execinfo.h</text>
</a>
</g>
</g>
<!-- Node17&#45;&gt;Node25 -->
<g id="edge24" class="edge">
<title>Node17&#45;&gt;Node25</title>
<path fill="none" stroke="#191970" d="M563.9811,-56.2455C553.7902,-47.9746 538.9638,-35.9416 526.9893,-26.2232"/>
<polygon fill="#191970" stroke="#191970" points="528.8514,-23.2268 518.8812,-19.6427 524.4402,-28.662 528.8514,-23.2268"/>
</g>
<!-- Node26 -->
<g id="node26" class="node">
<title>Node26</title>
<g id="a_node26"><a xlink:title=" ">
<polygon fill="#ffffff" stroke="#bfbfbf" points="1330,-.5 1330,-19.5 1382,-19.5 1382,-.5 1330,-.5"/>
<text text-anchor="middle" x="1356" y="-7.5" font-family="Helvetica,sans-Serif" font-size="10.00" fill="#000000">unistd.h</text>
</a>
</g>
</g>
<!-- Node17&#45;&gt;Node26 -->
<g id="edge25" class="edge">
<title>Node17&#45;&gt;Node26</title>
<path fill="none" stroke="#191970" d="M611.7691,-57.5227C614.8801,-56.9461 617.9888,-56.4261 621,-56 887.1964,-18.3279 1211.9882,-11.5074 1319.5128,-10.2728"/>
<polygon fill="#191970" stroke="#191970" points="1319.8486,-13.7696 1329.8112,-10.1643 1319.7748,-6.77 1319.8486,-13.7696"/>
</g>
<!-- Node27 -->
<g id="node27" class="node">
<title>Node27</title>
<g id="a_node27"><a xlink:title=" ">
<polygon fill="#ffffff" stroke="#bfbfbf" points="556.5,-.5 556.5,-19.5 607.5,-19.5 607.5,-.5 556.5,-.5"/>
<text text-anchor="middle" x="582" y="-7.5" font-family="Helvetica,sans-Serif" font-size="10.00" fill="#000000">signal.h</text>
</a>
</g>
</g>
<!-- Node17&#45;&gt;Node27 -->
<g id="edge26" class="edge">
<title>Node17&#45;&gt;Node27</title>
<path fill="none" stroke="#191970" d="M577.0451,-56.2455C577.828,-48.9382 578.9256,-38.6944 579.8888,-29.7046"/>
<polygon fill="#191970" stroke="#191970" points="583.3815,-29.9587 580.9669,-19.6427 576.4214,-29.2129 583.3815,-29.9587"/>
</g>
<!-- Node28 -->
<g id="node28" class="node">
<title>Node28</title>
<g id="a_node28"><a xlink:title=" ">
<polygon fill="#ffffff" stroke="#bfbfbf" points="859,-.5 859,-19.5 911,-19.5 911,-.5 859,-.5"/>
<text text-anchor="middle" x="885" y="-7.5" font-family="Helvetica,sans-Serif" font-size="10.00" fill="#000000">assert.h</text>
</a>
</g>
</g>
<!-- Node17&#45;&gt;Node28 -->
<g id="edge27" class="edge">
<title>Node17&#45;&gt;Node28</title>
<path fill="none" stroke="#191970" d="M611.8199,-57.8297C614.9199,-57.1865 618.0122,-56.5673 621,-56 721.7881,-36.8635 748.7465,-41.7642 849,-20 849.099,-19.9785 849.1982,-19.9569 849.2975,-19.9352"/>
<polygon fill="#191970" stroke="#191970" points="849.8339,-23.4059 858.7404,-17.668 848.1996,-16.5994 849.8339,-23.4059"/>
</g>
<!-- Node29 -->
<g id="node29" class="node">
<title>Node29</title>
<g id="a_node29"><a xlink:title=" ">
<polygon fill="#ffffff" stroke="#bfbfbf" points="1441,-.5 1441,-19.5 1485,-19.5 1485,-.5 1441,-.5"/>
<text text-anchor="middle" x="1463" y="-7.5" font-family="Helvetica,sans-Serif" font-size="10.00" fill="#000000">vector</text>
</a>
</g>
</g>
<!-- Node17&#45;&gt;Node29 -->
<g id="edge29" class="edge">
<title>Node17&#45;&gt;Node29</title>
<path fill="none" stroke="#191970" d="M611.762,-57.4709C614.8745,-56.9056 617.9856,-56.4024 621,-56 960.5843,-10.6728 1049.8642,-51.5981 1391,-20 1404.0571,-18.7906 1418.3762,-16.9155 1430.7819,-15.1144"/>
<polygon fill="#191970" stroke="#191970" points="1431.3099,-18.5744 1440.6829,-13.6351 1430.2755,-11.6513 1431.3099,-18.5744"/>
</g>
<!-- Node30 -->
<g id="node30" class="node">
<title>Node30</title>
<g id="a_node30"><a xlink:title=" ">
<polygon fill="#ffffff" stroke="#bfbfbf" points="626,-.5 626,-19.5 672,-19.5 672,-.5 626,-.5"/>
<text text-anchor="middle" x="649" y="-7.5" font-family="Helvetica,sans-Serif" font-size="10.00" fill="#000000">stdio.h</text>
</a>
</g>
</g>
<!-- Node17&#45;&gt;Node30 -->
<g id="edge30" class="edge">
<title>Node17&#45;&gt;Node30</title>
<path fill="none" stroke="#191970" d="M588.7156,-56.2455C599.602,-47.8943 615.4883,-35.7076 628.22,-25.9408"/>
<polygon fill="#191970" stroke="#191970" points="630.6261,-28.5063 636.4301,-19.6427 626.3654,-22.9523 630.6261,-28.5063"/>
</g>
<!-- Node31&#45;&gt;Node11 -->
<g id="edge37" class="edge">
<title>Node31&#45;&gt;Node11</title>
<path fill="none" stroke="#191970" d="M990.0569,-112.3733C957.6276,-102.2842 906.8829,-86.4969 873.7813,-76.1986"/>
<polygon fill="#191970" stroke="#191970" points="874.7029,-72.8199 864.1146,-73.1912 872.6234,-79.5039 874.7029,-72.8199"/>
</g>
<!-- Node31&#45;&gt;Node14 -->
<g id="edge34" class="edge">
<title>Node31&#45;&gt;Node14</title>
<path fill="none" stroke="#191970" d="M976.366,-113.9101C935.3104,-106.1133 872.6168,-93.3129 809.3082,-75.8254"/>
<polygon fill="#191970" stroke="#191970" points="810.1297,-72.4209 799.5563,-73.0952 808.2424,-79.1617 810.1297,-72.4209"/>
</g>
<!-- Node31&#45;&gt;Node28 -->
<g id="edge32" class="edge">
<title>Node31&#45;&gt;Node28</title>
<path fill="none" stroke="#191970" d="M977.4764,-112.4655C955.1168,-105.6115 928.8876,-94.2638 911,-76 898.6397,-63.3798 891.968,-44.1818 888.4906,-29.7392"/>
<polygon fill="#191970" stroke="#191970" points="891.8868,-28.8806 886.4128,-19.8095 885.0352,-30.3144 891.8868,-28.8806"/>
</g>
<!-- Node31&#45;&gt;Node29 -->
<g id="edge35" class="edge">
<title>Node31&#45;&gt;Node29</title>
<path fill="none" stroke="#191970" d="M1051.148,-112.496C1077.5703,-103.8731 1116.8281,-90.3463 1150,-76 1167.8792,-68.2675 1170.5098,-62.1293 1189,-56 1211.6536,-48.4905 1363.0433,-25.0991 1430.5794,-14.8704"/>
<polygon fill="#191970" stroke="#191970" points="1431.3012,-18.3012 1440.666,-13.3462 1430.2552,-11.3797 1431.3012,-18.3012"/>
</g>
<!-- Node32 -->
<g id="node32" class="node">
<title>Node32</title>
<g id="a_node32"><a xlink:title=" ">
<polygon fill="#ffffff" stroke="#bfbfbf" points="1339,-56.5 1339,-75.5 1383,-75.5 1383,-56.5 1339,-56.5"/>
<text text-anchor="middle" x="1361" y="-63.5" font-family="Helvetica,sans-Serif" font-size="10.00" fill="#000000">cmath</text>
</a>
</g>
</g>
<!-- Node31&#45;&gt;Node32 -->
<g id="edge33" class="edge">
<title>Node31&#45;&gt;Node32</title>
<path fill="none" stroke="#191970" d="M1065.5212,-117.5383C1125.7714,-111.0047 1236.3874,-97.2523 1329,-76 1329.0993,-75.9772 1329.1987,-75.9543 1329.2982,-75.9312"/>
<polygon fill="#191970" stroke="#191970" points="1329.9652,-79.3751 1338.7409,-73.4389 1328.1788,-72.6069 1329.9652,-79.3751"/>
</g>
<!-- Node33 -->
<g id="node33" class="node">
<title>Node33</title>
<g id="a_node33"><a xlink:title=" ">
<polygon fill="#ffffff" stroke="#bfbfbf" points="920.5,-56.5 920.5,-75.5 973.5,-75.5 973.5,-56.5 920.5,-56.5"/>
<text text-anchor="middle" x="947" y="-63.5" font-family="Helvetica,sans-Serif" font-size="10.00" fill="#000000">ostream</text>
</a>
</g>
</g>
<!-- Node31&#45;&gt;Node33 -->
<g id="edge36" class="edge">
<title>Node31&#45;&gt;Node33</title>
<path fill="none" stroke="#191970" d="M1008.1102,-112.2455C997.0746,-103.8943 980.9708,-91.7076 968.0647,-81.9408"/>
<polygon fill="#191970" stroke="#191970" points="969.8283,-78.8862 959.7421,-75.6427 965.6041,-84.4681 969.8283,-78.8862"/>
</g>
<!-- Node34 -->
<g id="node34" class="node">
<title>Node34</title>
<g id="a_node34"><a xlink:title=" ">
<polygon fill="#ffffff" stroke="#bfbfbf" points="1068.5,-56.5 1068.5,-75.5 1141.5,-75.5 1141.5,-56.5 1068.5,-56.5"/>
<text text-anchor="middle" x="1105" y="-63.5" font-family="Helvetica,sans-Serif" font-size="10.00" fill="#000000">initializer_list</text>
</a>
</g>
</g>
<!-- Node31&#45;&gt;Node34 -->
<g id="edge38" class="edge">
<title>Node31&#45;&gt;Node34</title>
<path fill="none" stroke="#191970" d="M1035.6317,-112.2455C1048.3994,-103.7337 1067.1438,-91.2375 1081.9299,-81.3801"/>
<polygon fill="#191970" stroke="#191970" points="1084.1569,-84.1019 1090.536,-75.6427 1080.274,-78.2775 1084.1569,-84.1019"/>
</g>
<!-- Node35 -->
<g id="node35" class="node">
<title>Node35</title>
<g id="a_node35"><a xlink:title=" ">
<polygon fill="#ffffff" stroke="#bfbfbf" points="991.5,-56.5 991.5,-75.5 1050.5,-75.5 1050.5,-56.5 991.5,-56.5"/>
<text text-anchor="middle" x="1021" y="-63.5" font-family="Helvetica,sans-Serif" font-size="10.00" fill="#000000">stdexcept</text>
</a>
</g>
</g>
<!-- Node31&#45;&gt;Node35 -->
<g id="edge39" class="edge">
<title>Node31&#45;&gt;Node35</title>
<path fill="none" stroke="#191970" d="M1021,-112.2455C1021,-104.9382 1021,-94.6944 1021,-85.7046"/>
<polygon fill="#191970" stroke="#191970" points="1024.5001,-85.6426 1021,-75.6427 1017.5001,-85.6427 1024.5001,-85.6426"/>
</g>
<!-- Node36 -->
<g id="node36" class="node">
<title>Node36</title>
<g id="a_node36"><a xlink:title=" ">
<polygon fill="#ffffff" stroke="#bfbfbf" points="1449,-56.5 1449,-75.5 1501,-75.5 1501,-56.5 1449,-56.5"/>
<text text-anchor="middle" x="1475" y="-63.5" font-family="Helvetica,sans-Serif" font-size="10.00" fill="#000000">sstream</text>
</a>
</g>
</g>
<!-- Node31&#45;&gt;Node36 -->
<g id="edge40" class="edge">
<title>Node31&#45;&gt;Node36</title>
<path fill="none" stroke="#191970" d="M1065.5882,-119.4626C1142.401,-114.5652 1304.4022,-101.9245 1439,-76 1439.0995,-75.9808 1439.1992,-75.9615 1439.2989,-75.9421"/>
<polygon fill="#191970" stroke="#191970" points="1439.7812,-79.4211 1448.7701,-73.813 1438.2459,-72.5915 1439.7812,-79.4211"/>
</g>
<!-- Node37&#45;&gt;Node8 -->
<g id="edge45" class="edge">
<title>Node37&#45;&gt;Node8</title>
<path fill="none" stroke="#191970" d="M1550.5691,-118.3284C1491.4508,-112.1805 1372.736,-98.4213 1263.6671,-76.1544"/>
<polygon fill="#191970" stroke="#191970" points="1264.3219,-72.7158 1253.8199,-74.115 1262.9022,-79.5704 1264.3219,-72.7158"/>
</g>
<!-- Node37&#45;&gt;Node15 -->
<g id="edge51" class="edge">
<title>Node37&#45;&gt;Node15</title>
<path fill="none" stroke="#191970" d="M1580.1172,-112.2376C1567.2582,-97.1192 1540.157,-68.4862 1510,-56 1462.495,-36.3311 1110.2057,-17.5336 993.4608,-11.7856"/>
<polygon fill="#191970" stroke="#191970" points="993.391,-8.2781 983.2321,-11.2857 993.0493,-15.2697 993.391,-8.2781"/>
</g>
<!-- Node37&#45;&gt;Node16 -->
<g id="edge42" class="edge">
<title>Node37&#45;&gt;Node16</title>
<path fill="none" stroke="#191970" d="M1550.9966,-116.7078C1502.578,-109.4981 1414.9459,-95.474 1330.7774,-75.9765"/>
<polygon fill="#191970" stroke="#191970" points="1331.3338,-72.5121 1320.7986,-73.6349 1329.7346,-79.327 1331.3338,-72.5121"/>
</g>
<!-- Node37&#45;&gt;Node26 -->
<g id="edge50" class="edge">
<title>Node37&#45;&gt;Node26</title>
<path fill="none" stroke="#191970" d="M1625.2491,-114.6086C1666.9061,-104.7338 1725.4171,-85.0422 1700,-56 1699.3662,-55.2758 1480.3592,-26.3719 1392.1652,-14.7582"/>
<polygon fill="#191970" stroke="#191970" points="1392.4531,-11.266 1382.0818,-13.4307 1391.5393,-18.2061 1392.4531,-11.266"/>
</g>
<!-- Node37&#45;&gt;Node29 -->
<g id="edge46" class="edge">
<title>Node37&#45;&gt;Node29</title>
<path fill="none" stroke="#191970" d="M1625.0458,-118.3417C1678.0044,-111.6918 1765.5577,-94.5738 1733,-56 1717.7887,-37.9779 1564.0063,-20.2632 1495.5587,-13.2024"/>
<polygon fill="#191970" stroke="#191970" points="1495.6433,-9.6931 1485.3402,-12.1623 1494.9344,-16.6571 1495.6433,-9.6931"/>
</g>
<!-- Node37&#45;&gt;Node32 -->
<g id="edge43" class="edge">
<title>Node37&#45;&gt;Node32</title>
<path fill="none" stroke="#191970" d="M1550.9251,-114.2429C1513.3508,-106.1728 1453.3705,-92.7214 1392.9781,-76.1198"/>
<polygon fill="#191970" stroke="#191970" points="1393.8572,-72.7316 1383.2854,-73.4287 1391.9845,-79.4764 1393.8572,-72.7316"/>
</g>
<!-- Node37&#45;&gt;Node36 -->
<g id="edge48" class="edge">
<title>Node37&#45;&gt;Node36</title>
<path fill="none" stroke="#191970" d="M1568.5746,-112.3733C1550.5979,-103.4644 1523.6559,-90.1127 1503.291,-80.0203"/>
<polygon fill="#191970" stroke="#191970" points="1504.6861,-76.8055 1494.1719,-75.5011 1501.5778,-83.0776 1504.6861,-76.8055"/>
</g>
<!-- Node38 -->
<g id="node38" class="node">
<title>Node38</title>
<g id="a_node38"><a xlink:title=" ">
<polygon fill="#ffffff" stroke="#bfbfbf" points="1918.5,-56.5 1918.5,-75.5 1959.5,-75.5 1959.5,-56.5 1918.5,-56.5"/>
<text text-anchor="middle" x="1939" y="-63.5" font-family="Helvetica,sans-Serif" font-size="10.00" fill="#000000">string</text>
</a>
</g>
</g>
<!-- Node37&#45;&gt;Node38 -->
<g id="edge44" class="edge">
<title>Node37&#45;&gt;Node38</title>
<path fill="none" stroke="#191970" d="M1625.4769,-118.8294C1684.0346,-113.3998 1800.8112,-100.6622 1908.7374,-75.6746"/>
<polygon fill="#191970" stroke="#191970" points="1909.5524,-79.0785 1918.4833,-73.3785 1907.9472,-72.265 1909.5524,-79.0785"/>
</g>
<!-- Node39 -->
<g id="node39" class="node">
<title>Node39</title>
<g id="a_node39"><a xlink:title=" ">
<polygon fill="#ffffff" stroke="#bfbfbf" points="1785,-56.5 1785,-75.5 1835,-75.5 1835,-56.5 1785,-56.5"/>
<text text-anchor="middle" x="1810" y="-63.5" font-family="Helvetica,sans-Serif" font-size="10.00" fill="#000000">fstream</text>
</a>
</g>
</g>
<!-- Node37&#45;&gt;Node39 -->
<g id="edge47" class="edge">
<title>Node37&#45;&gt;Node39</title>
<path fill="none" stroke="#191970" d="M1625.1651,-112.7128C1662.1479,-103.4582 1720.5146,-88.8176 1771,-76 1772.2576,-75.6807 1773.5379,-75.3552 1774.8309,-75.0259"/>
<polygon fill="#191970" stroke="#191970" points="1776.0062,-78.3382 1784.8293,-72.4727 1774.2742,-71.5558 1776.0062,-78.3382"/>
</g>
<!-- Node40 -->
<g id="node40" class="node">
<title>Node40</title>
<g id="a_node40"><a xlink:title=" ">
<polygon fill="#ffffff" stroke="#bfbfbf" points="1557,-56.5 1557,-75.5 1619,-75.5 1619,-56.5 1557,-56.5"/>
<text text-anchor="middle" x="1588" y="-63.5" font-family="Helvetica,sans-Serif" font-size="10.00" fill="#000000">sys/time.h</text>
</a>
</g>
</g>
<!-- Node37&#45;&gt;Node40 -->
<g id="edge49" class="edge">
<title>Node37&#45;&gt;Node40</title>
<path fill="none" stroke="#191970" d="M1588,-112.2455C1588,-104.9382 1588,-94.6944 1588,-85.7046"/>
<polygon fill="#191970" stroke="#191970" points="1591.5001,-85.6426 1588,-75.6427 1584.5001,-85.6427 1591.5001,-85.6426"/>
</g>
<!-- Node41 -->
<g id="node41" class="node">
<title>Node41</title>
<g id="a_node41"><a xlink:title=" ">
<polygon fill="#ffffff" stroke="#bfbfbf" points="1853.5,-56.5 1853.5,-75.5 1900.5,-75.5 1900.5,-56.5 1853.5,-56.5"/>
<text text-anchor="middle" x="1877" y="-63.5" font-family="Helvetica,sans-Serif" font-size="10.00" fill="#000000">chrono</text>
</a>
</g>
</g>
<!-- Node37&#45;&gt;Node41 -->
<g id="edge52" class="edge">
<title>Node37&#45;&gt;Node41</title>
<path fill="none" stroke="#191970" d="M1625.1637,-116.712C1673.3211,-109.5562 1760.0217,-95.643 1843.4105,-75.9139"/>
<polygon fill="#191970" stroke="#191970" points="1844.3892,-79.2785 1853.2974,-73.5432 1842.7569,-72.4715 1844.3892,-79.2785"/>
</g>
<!-- Node42 -->
<g id="node42" class="node">
<title>Node42</title>
<g id="a_node42"><a xlink:title=" ">
<polygon fill="#ffffff" stroke="#bfbfbf" points="1637,-56.5 1637,-75.5 1691,-75.5 1691,-56.5 1637,-56.5"/>
<text text-anchor="middle" x="1664" y="-63.5" font-family="Helvetica,sans-Serif" font-size="10.00" fill="#000000">json.hpp</text>
</a>
</g>
</g>
<!-- Node37&#45;&gt;Node42 -->
<g id="edge53" class="edge">
<title>Node37&#45;&gt;Node42</title>
<path fill="none" stroke="#191970" d="M1601.2382,-112.2455C1612.681,-103.814 1629.4296,-91.4729 1642.7475,-81.6598"/>
<polygon fill="#191970" stroke="#191970" points="1644.9391,-84.3924 1650.9135,-75.6427 1640.7867,-78.757 1644.9391,-84.3924"/>
</g>
<!-- Node43&#45;&gt;Node15 -->
<g id="edge55" class="edge">
<title>Node43&#45;&gt;Node15</title>
<path fill="none" stroke="#191970" d="M857.2637,-118.2385C804.0049,-111.6439 719.5859,-94.8107 751,-56 797.3346,1.2443 841.6273,-35.0131 918.8305,-19.9402"/>
<polygon fill="#191970" stroke="#191970" points="919.9092,-23.2864 928.9197,-17.7132 918.4003,-16.4509 919.9092,-23.2864"/>
</g>
<!-- Node44&#45;&gt;Node38 -->
<g id="edge58" class="edge">
<title>Node44&#45;&gt;Node38</title>
<path fill="none" stroke="#191970" d="M1957.7144,-168.1581C1955.5906,-158.8634 1952.4029,-144.5208 1950,-132 1947.0536,-116.647 1944.1651,-99.1966 1942.0879,-86.0967"/>
<polygon fill="#191970" stroke="#191970" points="1945.4914,-85.207 1940.4902,-75.8668 1938.5753,-86.2872 1945.4914,-85.207"/>
</g>
<!-- Node45 -->
<g id="node45" class="node">
<title>Node45</title>
<g id="a_node45"><a xlink:title=" ">
<polygon fill="#ffffff" stroke="#bfbfbf" points="1861.5,-112.5 1861.5,-131.5 1902.5,-131.5 1902.5,-112.5 1861.5,-112.5"/>
<text text-anchor="middle" x="1882" y="-119.5" font-family="Helvetica,sans-Serif" font-size="10.00" fill="#000000">mpi.h</text>
</a>
</g>
</g>
<!-- Node44&#45;&gt;Node45 -->
<g id="edge57" class="edge">
<title>Node44&#45;&gt;Node45</title>
<path fill="none" stroke="#191970" d="M1946.4134,-168.2455C1934.6695,-159.814 1917.4801,-147.4729 1903.8118,-137.6598"/>
<polygon fill="#191970" stroke="#191970" points="1905.5954,-134.6316 1895.4309,-131.6427 1901.5129,-140.3179 1905.5954,-134.6316"/>
</g>
<!-- Node46 -->
<g id="node46" class="node">
<title>Node46</title>
<g id="a_node46"><a xlink:href="../../d7/d7e/rt__graph_8hpp_source.html" target="_top" xlink:title=" ">
<polygon fill="#ffffff" stroke="#000000" points="1959.5,-112.5 1959.5,-131.5 2032.5,-131.5 2032.5,-112.5 1959.5,-112.5"/>
<text text-anchor="middle" x="1996" y="-119.5" font-family="Helvetica,sans-Serif" font-size="10.00" fill="#000000">rt_graph.hpp</text>
</a>
</g>
</g>
<!-- Node44&#45;&gt;Node46 -->
<g id="edge59" class="edge">
<title>Node44&#45;&gt;Node46</title>
<path fill="none" stroke="#191970" d="M1966.2707,-168.2455C1971.2264,-160.5367 1978.283,-149.5598 1984.2776,-140.2348"/>
<polygon fill="#191970" stroke="#191970" points="1987.3376,-141.9471 1989.8011,-131.6427 1981.4494,-138.1618 1987.3376,-141.9471"/>
</g>
<!-- Node46&#45;&gt;Node3 -->
<g id="edge62" class="edge">
<title>Node46&#45;&gt;Node3</title>
<path fill="none" stroke="#191970" d="M2025.3959,-112.3733C2055.2093,-102.6098 2101.3171,-87.5102 2132.7613,-77.2127"/>
<polygon fill="#191970" stroke="#191970" points="2134.0019,-80.4894 2142.416,-74.0509 2131.8233,-73.837 2134.0019,-80.4894"/>
</g>
<!-- Node46&#45;&gt;Node7 -->
<g id="edge64" class="edge">
<title>Node46&#45;&gt;Node7</title>
<path fill="none" stroke="#191970" d="M1959.2171,-117.3405C1944.2701,-115.5338 1926.8246,-113.535 1911,-112 1705.3019,-92.0474 1645.9931,-123.9674 1440.6233,-75.3735"/>
<polygon fill="#191970" stroke="#191970" points="1441.2731,-71.9301 1430.7322,-72.9981 1439.6384,-78.7365 1441.2731,-71.9301"/>
</g>
<!-- Node46&#45;&gt;Node29 -->
<g id="edge66" class="edge">
<title>Node46&#45;&gt;Node29</title>
<path fill="none" stroke="#191970" d="M1995.141,-112.4879C1993.252,-97.7125 1987.3178,-69.5409 1969,-56 1930.8966,-27.833 1600.2852,-14.5428 1495.0355,-10.9994"/>
<polygon fill="#191970" stroke="#191970" points="1495.12,-7.5004 1485.01,-10.6686 1494.8891,-14.4966 1495.12,-7.5004"/>
</g>
<!-- Node46&#45;&gt;Node38 -->
<g id="edge65" class="edge">
<title>Node46&#45;&gt;Node38</title>
<path fill="none" stroke="#191970" d="M1986.0714,-112.2455C1977.8162,-104.1352 1965.8791,-92.4075 1956.0918,-82.7919"/>
<polygon fill="#191970" stroke="#191970" points="1958.4011,-80.1542 1948.8149,-75.6427 1953.4954,-85.1476 1958.4011,-80.1542"/>
</g>
<!-- Node46&#45;&gt;Node41 -->
<g id="edge61" class="edge">
<title>Node46&#45;&gt;Node41</title>
<path fill="none" stroke="#191970" d="M1975.5432,-112.3733C1956.5262,-103.4241 1927.9825,-89.9917 1906.5024,-79.8835"/>
<polygon fill="#191970" stroke="#191970" points="1907.7284,-76.5923 1897.1899,-75.5011 1904.7478,-82.926 1907.7284,-76.5923"/>
</g>
<!-- Node47 -->
<g id="node47" class="node">
<title>Node47</title>
<g id="a_node47"><a xlink:title=" ">
<polygon fill="#ffffff" stroke="#bfbfbf" points="2016,-56.5 2016,-75.5 2062,-75.5 2062,-56.5 2016,-56.5"/>
<text text-anchor="middle" x="2039" y="-63.5" font-family="Helvetica,sans-Serif" font-size="10.00" fill="#000000">atomic</text>
</a>
</g>
</g>
<!-- Node46&#45;&gt;Node47 -->
<g id="edge60" class="edge">
<title>Node46&#45;&gt;Node47</title>
<path fill="none" stroke="#191970" d="M2003.49,-112.2455C2009.5326,-104.3761 2018.1903,-93.101 2025.4441,-83.6542"/>
<polygon fill="#191970" stroke="#191970" points="2028.2815,-85.7058 2031.5958,-75.6427 2022.7295,-81.4426 2028.2815,-85.7058"/>
</g>
<!-- Node48 -->
<g id="node48" class="node">
<title>Node48</title>
<g id="a_node48"><a xlink:title=" ">
<polygon fill="#ffffff" stroke="#bfbfbf" points="2080,-56.5 2080,-75.5 2124,-75.5 2124,-56.5 2080,-56.5"/>
<text text-anchor="middle" x="2102" y="-63.5" font-family="Helvetica,sans-Serif" font-size="10.00" fill="#000000">deque</text>
</a>
</g>
</g>
<!-- Node46&#45;&gt;Node48 -->
<g id="edge63" class="edge">
<title>Node46&#45;&gt;Node48</title>
<path fill="none" stroke="#191970" d="M2014.4638,-112.2455C2031.1074,-103.4527 2055.7993,-90.4079 2074.7192,-80.4125"/>
<polygon fill="#191970" stroke="#191970" points="2076.5408,-83.4086 2083.7478,-75.6427 2073.2709,-77.2193 2076.5408,-83.4086"/>
</g>
</g>
</svg>
