<?xml version="1.0" encoding="UTF-8" standalone="no"?>
<!DOCTYPE svg PUBLIC "-//W3C//DTD SVG 1.1//EN"
 "http://www.w3.org/Graphics/SVG/1.1/DTD/svg11.dtd">
<!-- Generated by graphviz version 2.40.1 (20161225.0304)
 -->
<!-- Title: sirius::Radial_grid&lt; T &gt; Pages: 1 -->
<svg width="145pt" height="195pt"
 viewBox="0.00 0.00 144.50 195.00" xmlns="http://www.w3.org/2000/svg" xmlns:xlink="http://www.w3.org/1999/xlink">
<g id="graph0" class="graph" transform="scale(1 1) rotate(0) translate(4 191)">
<title>sirius::Radial_grid&lt; T &gt;</title>
<polygon fill="#ffffff" stroke="transparent" points="-4,4 -4,-191 140.5,-191 140.5,4 -4,4"/>
<!-- Node6 -->
<g id="node1" class="node">
<title>Node6</title>
<polygon fill="#bfbfbf" stroke="#000000" points="0,-.5 0,-19.5 119,-19.5 119,-.5 0,-.5"/>
<text text-anchor="middle" x="59.5" y="-7.5" font-family="Helvetica,sans-Serif" font-size="10.00" fill="#000000">sirius::Radial_grid&lt; T &gt;</text>
</g>
<!-- Node7 -->
<g id="node2" class="node">
<title>Node7</title>
<g id="a_node2"><a xlink:href="../../d7/dab/classsddk_1_1mdarray.html" target="_top" xlink:title="sddk::mdarray\&lt; T, 1 \&gt;">
<polygon fill="#ffffff" stroke="#000000" points="2.5,-89.5 2.5,-108.5 116.5,-108.5 116.5,-89.5 2.5,-89.5"/>
<text text-anchor="middle" x="59.5" y="-96.5" font-family="Helvetica,sans-Serif" font-size="10.00" fill="#000000">sddk::mdarray&lt; T, 1 &gt;</text>
</a>
</g>
</g>
<!-- Node7&#45;&gt;Node6 -->
<g id="edge1" class="edge">
<title>Node7&#45;&gt;Node6</title>
<path fill="none" stroke="#9a32cd" stroke-dasharray="5,2" d="M59.5,-79.2379C59.5,-60.7654 59.5,-33.957 59.5,-19.7259"/>
<polygon fill="#9a32cd" stroke="#9a32cd" points="56.0001,-79.4754 59.5,-89.4754 63.0001,-79.4755 56.0001,-79.4754"/>
<text text-anchor="middle" x="74" y="-63" font-family="Helvetica,sans-Serif" font-size="10.00" fill="#000000"> dx_</text>
<text text-anchor="middle" x="74" y="-52" font-family="Helvetica,sans-Serif" font-size="10.00" fill="#000000">x_inv_</text>
<text text-anchor="middle" x="74" y="-41" font-family="Helvetica,sans-Serif" font-size="10.00" fill="#000000">x_</text>
</g>
<!-- Node8 -->
<g id="node3" class="node">
<title>Node8</title>
<polygon fill="#ffffff" stroke="#bfbfbf" points="45,-167.5 45,-186.5 74,-186.5 74,-167.5 45,-167.5"/>
<text text-anchor="middle" x="59.5" y="-174.5" font-family="Helvetica,sans-Serif" font-size="10.00" fill="#000000">T</text>
</g>
<!-- Node8&#45;&gt;Node7 -->
<g id="edge2" class="edge">
<title>Node8&#45;&gt;Node7</title>
<path fill="none" stroke="#9a32cd" stroke-dasharray="5,2" d="M59.5,-157.2866C59.5,-141.7395 59.5,-120.7276 59.5,-108.6426"/>
<polygon fill="#9a32cd" stroke="#9a32cd" points="56.0001,-157.4356 59.5,-167.4357 63.0001,-157.4357 56.0001,-157.4356"/>
<text text-anchor="middle" x="98" y="-141" font-family="Helvetica,sans-Serif" font-size="10.00" fill="#000000"> raw_ptr_device_</text>
<text text-anchor="middle" x="98" y="-130" font-family="Helvetica,sans-Serif" font-size="10.00" fill="#000000">raw_ptr_</text>
</g>
</g>
</svg>
