<?xml version="1.0" encoding="UTF-8" standalone="no"?>
<!DOCTYPE svg PUBLIC "-//W3C//DTD SVG 1.1//EN"
 "http://www.w3.org/Graphics/SVG/1.1/DTD/svg11.dtd">
<!-- Generated by graphviz version 2.40.1 (20161225.0304)
 -->
<!-- Title: non_local_operator.hpp Pages: 1 -->
<svg width="140pt" height="151pt"
 viewBox="0.00 0.00 140.00 151.00" xmlns="http://www.w3.org/2000/svg" xmlns:xlink="http://www.w3.org/1999/xlink">
<g id="graph0" class="graph" transform="scale(1 1) rotate(0) translate(4 147)">
<title>non_local_operator.hpp</title>
<polygon fill="#ffffff" stroke="transparent" points="-4,4 -4,-147 136,-147 136,4 -4,4"/>
<!-- Node0 -->
<g id="node1" class="node">
<title>Node0</title>
<polygon fill="#bfbfbf" stroke="#000000" points="5,-123.5 5,-142.5 127,-142.5 127,-123.5 5,-123.5"/>
<text text-anchor="middle" x="66" y="-130.5" font-family="Helvetica,sans-Serif" font-size="10.00" fill="#000000">non_local_operator.hpp</text>
</g>
<!-- Node1 -->
<g id="node2" class="node">
<title>Node1</title>
<g id="a_node2"><a xlink:href="../../d0/d85/beta__projectors_8hpp.html" target="_top" xlink:title="Contains declaration and implementation of sirius::Beta_projectors class. ">
<polygon fill="#ffffff" stroke="#000000" points="11.5,-56.5 11.5,-86.5 120.5,-86.5 120.5,-56.5 11.5,-56.5"/>
<text text-anchor="start" x="19.5" y="-74.5" font-family="Helvetica,sans-Serif" font-size="10.00" fill="#000000">Beta_projectors/beta</text>
<text text-anchor="middle" x="66" y="-63.5" font-family="Helvetica,sans-Serif" font-size="10.00" fill="#000000">_projectors.hpp</text>
</a>
</g>
</g>
<!-- Node0&#45;&gt;Node1 -->
<g id="edge1" class="edge">
<title>Node0&#45;&gt;Node1</title>
<path fill="none" stroke="#191970" d="M66,-123.3906C66,-116.2234 66,-106.0862 66,-96.671"/>
<polygon fill="#191970" stroke="#191970" points="69.5001,-96.5446 66,-86.5446 62.5001,-96.5446 69.5001,-96.5446"/>
</g>
<!-- Node2 -->
<g id="node3" class="node">
<title>Node2</title>
<g id="a_node3"><a xlink:href="../../db/d19/beta__projectors__base_8hpp.html" target="_top" xlink:title="Contains declaration and implementation of sirius::Beta_projectors_base class. ">
<polygon fill="#ffffff" stroke="#000000" points="0,-.5 0,-19.5 132,-19.5 132,-.5 0,-.5"/>
<text text-anchor="middle" x="66" y="-7.5" font-family="Helvetica,sans-Serif" font-size="10.00" fill="#000000">beta_projectors_base.hpp</text>
</a>
</g>
</g>
<!-- Node1&#45;&gt;Node2 -->
<g id="edge2" class="edge">
<title>Node1&#45;&gt;Node2</title>
<path fill="none" stroke="#191970" d="M66,-56.2977C66,-48.3834 66,-38.6043 66,-30.0759"/>
<polygon fill="#191970" stroke="#191970" points="69.5001,-29.8469 66,-19.8469 62.5001,-29.847 69.5001,-29.8469"/>
</g>
</g>
</svg>
