<?xml version="1.0" encoding="UTF-8" standalone="no"?>
<!DOCTYPE svg PUBLIC "-//W3C//DTD SVG 1.1//EN"
 "http://www.w3.org/Graphics/SVG/1.1/DTD/svg11.dtd">
<!-- Generated by graphviz version 2.40.1 (20161225.0304)
 -->
<!-- Title: nlohmann::detail::output_adapter_protocol&lt; CharType &gt; Pages: 1 -->
<svg width="355pt" height="137pt"
 viewBox="0.00 0.00 355.00 137.00" xmlns="http://www.w3.org/2000/svg" xmlns:xlink="http://www.w3.org/1999/xlink">
<g id="graph0" class="graph" transform="scale(1 1) rotate(0) translate(4 133)">
<title>nlohmann::detail::output_adapter_protocol&lt; CharType &gt;</title>
<polygon fill="#ffffff" stroke="transparent" points="-4,4 -4,-133 351,-133 351,4 -4,4"/>
<!-- Node0 -->
<g id="node1" class="node">
<title>Node0</title>
<polygon fill="#bfbfbf" stroke="#000000" points="0,-49.5 0,-79.5 158,-79.5 158,-49.5 0,-49.5"/>
<text text-anchor="start" x="8" y="-67.5" font-family="Helvetica,sans-Serif" font-size="10.00" fill="#000000">nlohmann::detail::output</text>
<text text-anchor="middle" x="79" y="-56.5" font-family="Helvetica,sans-Serif" font-size="10.00" fill="#000000">_adapter_protocol&lt; CharType &gt;</text>
</g>
<!-- Node1 -->
<g id="node2" class="node">
<title>Node1</title>
<g id="a_node2"><a xlink:href="../../d8/d94/classnlohmann_1_1detail_1_1output__stream__adapter.html" target="_top" xlink:title="output adapter for output streams ">
<polygon fill="#ffffff" stroke="#000000" points="194,-98.5 194,-128.5 347,-128.5 347,-98.5 194,-98.5"/>
<text text-anchor="start" x="202" y="-116.5" font-family="Helvetica,sans-Serif" font-size="10.00" fill="#000000">nlohmann::detail::output</text>
<text text-anchor="middle" x="270.5" y="-105.5" font-family="Helvetica,sans-Serif" font-size="10.00" fill="#000000">_stream_adapter&lt; CharType &gt;</text>
</a>
</g>
</g>
<!-- Node0&#45;&gt;Node1 -->
<g id="edge1" class="edge">
<title>Node0&#45;&gt;Node1</title>
<path fill="none" stroke="#191970" d="M147.5875,-82.0498C168.6166,-87.4306 191.5513,-93.299 211.8534,-98.4938"/>
<polygon fill="#191970" stroke="#191970" points="148.3133,-78.6228 137.7577,-79.5346 146.578,-85.4043 148.3133,-78.6228"/>
</g>
<!-- Node2 -->
<g id="node3" class="node">
<title>Node2</title>
<g id="a_node3"><a xlink:href="../../d2/d39/classnlohmann_1_1detail_1_1output__string__adapter.html" target="_top" xlink:title="output adapter for basic_string ">
<polygon fill="#ffffff" stroke="#000000" points="197,-49.5 197,-79.5 344,-79.5 344,-49.5 197,-49.5"/>
<text text-anchor="start" x="205" y="-67.5" font-family="Helvetica,sans-Serif" font-size="10.00" fill="#000000">nlohmann::detail::output</text>
<text text-anchor="middle" x="270.5" y="-56.5" font-family="Helvetica,sans-Serif" font-size="10.00" fill="#000000">_string_adapter&lt; CharType &gt;</text>
</a>
</g>
</g>
<!-- Node0&#45;&gt;Node2 -->
<g id="edge2" class="edge">
<title>Node0&#45;&gt;Node2</title>
<path fill="none" stroke="#191970" d="M168.5077,-64.5C177.9858,-64.5 187.5458,-64.5 196.8142,-64.5"/>
<polygon fill="#191970" stroke="#191970" points="168.2728,-61.0001 158.2727,-64.5 168.2727,-68.0001 168.2728,-61.0001"/>
</g>
<!-- Node3 -->
<g id="node4" class="node">
<title>Node3</title>
<g id="a_node4"><a xlink:href="../../d5/d66/classnlohmann_1_1detail_1_1output__vector__adapter.html" target="_top" xlink:title="output adapter for byte vectors ">
<polygon fill="#ffffff" stroke="#000000" points="195.5,-.5 195.5,-30.5 345.5,-30.5 345.5,-.5 195.5,-.5"/>
<text text-anchor="start" x="203.5" y="-18.5" font-family="Helvetica,sans-Serif" font-size="10.00" fill="#000000">nlohmann::detail::output</text>
<text text-anchor="middle" x="270.5" y="-7.5" font-family="Helvetica,sans-Serif" font-size="10.00" fill="#000000">_vector_adapter&lt; CharType &gt;</text>
</a>
</g>
</g>
<!-- Node0&#45;&gt;Node3 -->
<g id="edge3" class="edge">
<title>Node0&#45;&gt;Node3</title>
<path fill="none" stroke="#191970" d="M147.5875,-46.9502C168.6166,-41.5694 191.5513,-35.701 211.8534,-30.5062"/>
<polygon fill="#191970" stroke="#191970" points="146.578,-43.5957 137.7577,-49.4654 148.3133,-50.3772 146.578,-43.5957"/>
</g>
</g>
</svg>
