<?xml version="1.0" encoding="UTF-8" standalone="no"?>
<!DOCTYPE svg PUBLIC "-//W3C//DTD SVG 1.1//EN"
 "http://www.w3.org/Graphics/SVG/1.1/DTD/svg11.dtd">
<!-- Generated by graphviz version 2.40.1 (20161225.0304)
 -->
<!-- Title: atom.h Pages: 1 -->
<svg width="985pt" height="935pt"
 viewBox="0.00 0.00 984.84 935.00" xmlns="http://www.w3.org/2000/svg" xmlns:xlink="http://www.w3.org/1999/xlink">
<g id="graph0" class="graph" transform="scale(1 1) rotate(0) translate(4 931)">
<title>atom.h</title>
<polygon fill="#ffffff" stroke="transparent" points="-4,4 -4,-931 980.8424,-931 980.8424,4 -4,4"/>
<!-- Node100 -->
<g id="node1" class="node">
<title>Node100</title>
<polygon fill="#bfbfbf" stroke="#000000" points="855.3424,-907.5 855.3424,-926.5 902.3424,-926.5 902.3424,-907.5 855.3424,-907.5"/>
<text text-anchor="middle" x="878.8424" y="-914.5" font-family="Helvetica,sans-Serif" font-size="10.00" fill="#000000">atom.h</text>
</g>
<!-- Node101 -->
<g id="node2" class="node">
<title>Node101</title>
<g id="a_node2"><a xlink:href="unit__cell_8h.html" target="_top" xlink:title="Contains definition and partial implementation of sirius::Unit_cell class. ">
<polygon fill="#ffffff" stroke="#000000" points="768.8424,-851.5 768.8424,-870.5 830.8424,-870.5 830.8424,-851.5 768.8424,-851.5"/>
<text text-anchor="middle" x="799.8424" y="-858.5" font-family="Helvetica,sans-Serif" font-size="10.00" fill="#000000">unit_cell.h</text>
</a>
</g>
</g>
<!-- Node100&#45;&gt;Node101 -->
<g id="edge1" class="edge">
<title>Node100&#45;&gt;Node101</title>
<path fill="none" stroke="#191970" d="M856.5668,-901.2097C842.6919,-891.3743 825.2909,-879.0394 813.4455,-870.6427"/>
<polygon fill="#191970" stroke="#191970" points="854.8994,-904.3178 865.0817,-907.2455 858.9475,-898.6071 854.8994,-904.3178"/>
</g>
<!-- Node110 -->
<g id="node11" class="node">
<title>Node110</title>
<g id="a_node11"><a xlink:href="sirius_8h.html" target="_top" xlink:title="&quot;All&#45;in&#45;one&quot; include file. ">
<polygon fill="#ffffff" stroke="#000000" points="642.8424,-56.5 642.8424,-75.5 690.8424,-75.5 690.8424,-56.5 642.8424,-56.5"/>
<text text-anchor="middle" x="666.8424" y="-63.5" font-family="Helvetica,sans-Serif" font-size="10.00" fill="#000000">sirius.h</text>
</a>
</g>
</g>
<!-- Node100&#45;&gt;Node110 -->
<g id="edge65" class="edge">
<title>Node100&#45;&gt;Node110</title>
<path fill="none" stroke="#191970" d="M905.3303,-901.9701C934.3542,-883.3084 976.8424,-848.5518 976.8424,-805 976.8424,-805 976.8424,-805 976.8424,-178 976.8424,-135.5631 945.5639,-131.4416 907.8424,-112 869.9798,-92.4856 744.1828,-75.3863 690.9584,-68.8391"/>
<polygon fill="#191970" stroke="#191970" points="903.4798,-898.9992 896.8171,-907.2369 907.1627,-904.9521 903.4798,-898.9992"/>
</g>
<!-- Node102 -->
<g id="node3" class="node">
<title>Node102</title>
<g id="a_node3"><a xlink:href="radial__integrals_8h.html" target="_top" xlink:title="Representation of various radial integrals. ">
<polygon fill="#ffffff" stroke="#000000" points="573.3424,-739.5 573.3424,-758.5 666.3424,-758.5 666.3424,-739.5 573.3424,-739.5"/>
<text text-anchor="middle" x="619.8424" y="-746.5" font-family="Helvetica,sans-Serif" font-size="10.00" fill="#000000">radial_integrals.h</text>
</a>
</g>
</g>
<!-- Node101&#45;&gt;Node102 -->
<g id="edge2" class="edge">
<title>Node101&#45;&gt;Node102</title>
<path fill="none" stroke="#191970" d="M775.7033,-845.9801C738.0643,-822.5603 666.4672,-778.011 635.1503,-758.5249"/>
<polygon fill="#191970" stroke="#191970" points="774.1561,-849.1396 784.4957,-851.4509 777.8542,-843.1962 774.1561,-849.1396"/>
</g>
<!-- Node101&#45;&gt;Node110 -->
<g id="edge64" class="edge">
<title>Node101&#45;&gt;Node110</title>
<path fill="none" stroke="#191970" d="M805.3242,-841.6336C812.3504,-817.3816 825.2561,-774.6816 838.8424,-739 877.7828,-636.731 938.8424,-623.4318 938.8424,-514 938.8424,-514 938.8424,-514 938.8424,-178 938.8424,-137.7538 911.8457,-131.8625 876.8424,-112 845.112,-93.9947 739.374,-76.6627 691.1684,-69.4763"/>
<polygon fill="#191970" stroke="#191970" points="801.9196,-840.8095 802.5284,-851.3868 808.6486,-842.7385 801.9196,-840.8095"/>
</g>
<!-- Node123 -->
<g id="node24" class="node">
<title>Node123</title>
<g id="a_node24"><a xlink:href="sbessel_8h.html" target="_top" xlink:title="Contains implementation of sirius::Spherical_Bessel_functions and sirius::sbessel_approx classes...">
<polygon fill="#ffffff" stroke="#000000" points="590.3424,-795.5 590.3424,-814.5 649.3424,-814.5 649.3424,-795.5 590.3424,-795.5"/>
<text text-anchor="middle" x="619.8424" y="-802.5" font-family="Helvetica,sans-Serif" font-size="10.00" fill="#000000">sbessel.h</text>
</a>
</g>
</g>
<!-- Node101&#45;&gt;Node123 -->
<g id="edge53" class="edge">
<title>Node101&#45;&gt;Node123</title>
<path fill="none" stroke="#191970" d="M759.0034,-848.2945C725.6686,-837.9237 679.353,-823.5144 649.4862,-814.2225"/>
<polygon fill="#191970" stroke="#191970" points="758.311,-851.7445 768.8993,-851.3733 760.3905,-845.0605 758.311,-851.7445"/>
</g>
<!-- Node124 -->
<g id="node25" class="node">
<title>Node124</title>
<g id="a_node25"><a xlink:href="beta__projectors_8h.html" target="_top" xlink:title="Contains declaration and implementation of sirius::Beta_projectors class. ">
<polygon fill="#ffffff" stroke="#000000" points="55.8424,-504.5 55.8424,-523.5 149.8424,-523.5 149.8424,-504.5 55.8424,-504.5"/>
<text text-anchor="middle" x="102.8424" y="-511.5" font-family="Helvetica,sans-Serif" font-size="10.00" fill="#000000">beta_projectors.h</text>
</a>
</g>
</g>
<!-- Node101&#45;&gt;Node124 -->
<g id="edge61" class="edge">
<title>Node101&#45;&gt;Node124</title>
<path fill="none" stroke="#191970" d="M758.306,-858.7528C608.0848,-850.0807 101.8424,-815.8936 101.8424,-749 101.8424,-749 101.8424,-749 101.8424,-626 101.8424,-588.0818 102.4226,-542.9455 102.6991,-523.5881"/>
<polygon fill="#191970" stroke="#191970" points="758.3119,-862.2587 768.4948,-859.3332 758.7101,-855.27 758.3119,-862.2587"/>
</g>
<!-- Node126 -->
<g id="node27" class="node">
<title>Node126</title>
<g id="a_node27"><a xlink:href="real__space__prj_8h_source.html" target="_top" xlink:title="real_space_prj.h">
<polygon fill="#ffffff" stroke="#000000" points="849.8424,-795.5 849.8424,-814.5 939.8424,-814.5 939.8424,-795.5 849.8424,-795.5"/>
<text text-anchor="middle" x="894.8424" y="-802.5" font-family="Helvetica,sans-Serif" font-size="10.00" fill="#000000">real_space_prj.h</text>
</a>
</g>
</g>
<!-- Node101&#45;&gt;Node126 -->
<g id="edge62" class="edge">
<title>Node101&#45;&gt;Node126</title>
<path fill="none" stroke="#191970" d="M825.21,-846.0465C842.1134,-836.0824 863.8328,-823.2794 878.4843,-814.6427"/>
<polygon fill="#191970" stroke="#191970" points="823.2275,-843.1522 816.3902,-851.2455 826.7822,-849.1825 823.2275,-843.1522"/>
</g>
<!-- Node103 -->
<g id="node4" class="node">
<title>Node103</title>
<g id="a_node4"><a xlink:href="augmentation__operator_8h.html" target="_top" xlink:title="Contains implementation of sirius::Augmentation_operator class. ">
<polygon fill="#ffffff" stroke="#000000" points="424.8424,-616.5 424.8424,-635.5 552.8424,-635.5 552.8424,-616.5 424.8424,-616.5"/>
<text text-anchor="middle" x="488.8424" y="-623.5" font-family="Helvetica,sans-Serif" font-size="10.00" fill="#000000">augmentation_operator.h</text>
</a>
</g>
</g>
<!-- Node102&#45;&gt;Node103 -->
<g id="edge3" class="edge">
<title>Node102&#45;&gt;Node103</title>
<path fill="none" stroke="#191970" d="M600.4149,-732.6575C590.2724,-723.9961 577.7388,-713.0876 566.8424,-703 541.4292,-679.4729 512.7267,-650.4801 498.2565,-635.6845"/>
<polygon fill="#191970" stroke="#191970" points="598.395,-735.5339 608.2836,-739.3372 602.9251,-730.1974 598.395,-735.5339"/>
</g>
<!-- Node104 -->
<g id="node5" class="node">
<title>Node104</title>
<g id="a_node5"><a xlink:href="simulation__context_8h.html" target="_top" xlink:title="Contains definition and implementation of Simulation_parameters and Simulation_context classes...">
<polygon fill="#ffffff" stroke="#000000" points="513.8424,-560.5 513.8424,-579.5 621.8424,-579.5 621.8424,-560.5 513.8424,-560.5"/>
<text text-anchor="middle" x="567.8424" y="-567.5" font-family="Helvetica,sans-Serif" font-size="10.00" fill="#000000">simulation_context.h</text>
</a>
</g>
</g>
<!-- Node102&#45;&gt;Node104 -->
<g id="edge52" class="edge">
<title>Node102&#45;&gt;Node104</title>
<path fill="none" stroke="#191970" d="M610.8065,-730.2458C607.0724,-722.0148 602.9091,-712.1582 599.8424,-703 584.685,-657.7345 573.6024,-601.5594 569.54,-579.511"/>
<polygon fill="#191970" stroke="#191970" points="607.6431,-731.7438 615.0459,-739.3234 613.9856,-728.7817 607.6431,-731.7438"/>
</g>
<!-- Node121 -->
<g id="node22" class="node">
<title>Node121</title>
<g id="a_node22"><a xlink:href="simulation__context__base_8h.html" target="_top" xlink:title="Contains definition and implementation of Simulation_context_base class. ">
<polygon fill="#ffffff" stroke="#000000" points="609.3424,-672.5 609.3424,-702.5 708.3424,-702.5 708.3424,-672.5 609.3424,-672.5"/>
<text text-anchor="start" x="617.3424" y="-690.5" font-family="Helvetica,sans-Serif" font-size="10.00" fill="#000000">simulation_context</text>
<text text-anchor="middle" x="658.8424" y="-679.5" font-family="Helvetica,sans-Serif" font-size="10.00" fill="#000000">_base.h</text>
</a>
</g>
</g>
<!-- Node102&#45;&gt;Node121 -->
<g id="edge48" class="edge">
<title>Node102&#45;&gt;Node121</title>
<path fill="none" stroke="#191970" d="M631.3813,-730.8041C637.0883,-721.8045 643.8937,-711.073 649.3019,-702.5446"/>
<polygon fill="#191970" stroke="#191970" points="628.3358,-729.0711 625.9362,-739.3906 634.2474,-732.8199 628.3358,-729.0711"/>
</g>
<!-- Node103&#45;&gt;Node104 -->
<g id="edge4" class="edge">
<title>Node103&#45;&gt;Node104</title>
<path fill="none" stroke="#191970" d="M511.118,-610.2097C524.9929,-600.3743 542.3939,-588.0394 554.2394,-579.6427"/>
<polygon fill="#191970" stroke="#191970" points="508.7373,-607.6071 502.6032,-616.2455 512.7855,-613.3178 508.7373,-607.6071"/>
</g>
<!-- Node117 -->
<g id="node18" class="node">
<title>Node117</title>
<g id="a_node18"><a xlink:href="_forces___p_s_8h_source.html" target="_top" xlink:title="Forces_PS.h">
<polygon fill="#ffffff" stroke="#000000" points="227.8424,-224.5 227.8424,-243.5 301.8424,-243.5 301.8424,-224.5 227.8424,-224.5"/>
<text text-anchor="middle" x="264.8424" y="-231.5" font-family="Helvetica,sans-Serif" font-size="10.00" fill="#000000">Forces_PS.h</text>
</a>
</g>
</g>
<!-- Node103&#45;&gt;Node117 -->
<g id="edge47" class="edge">
<title>Node103&#45;&gt;Node117</title>
<path fill="none" stroke="#191970" d="M416.1855,-614.7252C324.2791,-598.3711 177.8424,-564.4049 177.8424,-514 177.8424,-514 177.8424,-514 177.8424,-458 177.8424,-369.5556 237.5062,-273.98 258.0157,-243.7387"/>
<polygon fill="#191970" stroke="#191970" points="415.8277,-618.2157 426.281,-616.4902 417.0332,-611.3203 415.8277,-618.2157"/>
</g>
<!-- Node105 -->
<g id="node6" class="node">
<title>Node105</title>
<g id="a_node6"><a xlink:href="periodic__function_8h.html" target="_top" xlink:title="Contains declaration and partial implementation of sirius::Periodic_function class. ">
<polygon fill="#ffffff" stroke="#000000" points="492.8424,-504.5 492.8424,-523.5 592.8424,-523.5 592.8424,-504.5 492.8424,-504.5"/>
<text text-anchor="middle" x="542.8424" y="-511.5" font-family="Helvetica,sans-Serif" font-size="10.00" fill="#000000">periodic_function.h</text>
</a>
</g>
</g>
<!-- Node104&#45;&gt;Node105 -->
<g id="edge5" class="edge">
<title>Node104&#45;&gt;Node105</title>
<path fill="none" stroke="#191970" d="M559.3798,-551.0437C555.2679,-541.8331 550.503,-531.1598 547.1472,-523.6427"/>
<polygon fill="#191970" stroke="#191970" points="556.2152,-552.541 563.4877,-560.2455 562.6072,-549.6874 556.2152,-552.541"/>
</g>
<!-- Node115 -->
<g id="node16" class="node">
<title>Node115</title>
<g id="a_node16"><a xlink:href="density_8h.html" target="_top" xlink:title="Contains definition and partial implementation of sirius::Density class. ">
<polygon fill="#ffffff" stroke="#000000" points="429.3424,-336.5 429.3424,-355.5 486.3424,-355.5 486.3424,-336.5 429.3424,-336.5"/>
<text text-anchor="middle" x="457.8424" y="-343.5" font-family="Helvetica,sans-Serif" font-size="10.00" fill="#000000">density.h</text>
</a>
</g>
</g>
<!-- Node104&#45;&gt;Node115 -->
<g id="edge43" class="edge">
<title>Node104&#45;&gt;Node115</title>
<path fill="none" stroke="#191970" d="M526.2051,-556.3689C510.5375,-549.1691 494.0586,-538.698 483.8424,-524 446.2322,-469.8903 452.9573,-384.0552 456.4837,-355.5507"/>
<polygon fill="#191970" stroke="#191970" points="525.2196,-559.7528 535.7923,-560.4377 527.9543,-553.3091 525.2196,-559.7528"/>
</g>
<!-- Node116 -->
<g id="node17" class="node">
<title>Node116</title>
<g id="a_node17"><a xlink:href="potential_8h.html" target="_top" xlink:title="Contains declaration and partial implementation of sirius::Potential class. ">
<polygon fill="#ffffff" stroke="#000000" points="581.3424,-280.5 581.3424,-299.5 644.3424,-299.5 644.3424,-280.5 581.3424,-280.5"/>
<text text-anchor="middle" x="612.8424" y="-287.5" font-family="Helvetica,sans-Serif" font-size="10.00" fill="#000000">potential.h</text>
</a>
</g>
</g>
<!-- Node104&#45;&gt;Node116 -->
<g id="edge42" class="edge">
<title>Node104&#45;&gt;Node116</title>
<path fill="none" stroke="#191970" d="M584.3271,-552.8312C591.0363,-544.7394 598.0847,-534.5542 601.8424,-524 631.1712,-441.6252 618.9955,-332.5653 614.3432,-299.745"/>
<polygon fill="#191970" stroke="#191970" points="581.6085,-550.6221 577.6104,-560.4337 586.8544,-555.2569 581.6085,-550.6221"/>
</g>
<!-- Node104&#45;&gt;Node117 -->
<g id="edge46" class="edge">
<title>Node104&#45;&gt;Node117</title>
<path fill="none" stroke="#191970" d="M516.7363,-558.039C444.158,-540.0023 316.694,-504.0973 286.8424,-468 230.4137,-399.765 253.8418,-279.0757 262.2897,-243.8868"/>
<polygon fill="#191970" stroke="#191970" points="516.0508,-561.4746 526.5973,-560.4636 517.7223,-554.6771 516.0508,-561.4746"/>
</g>
<!-- Node120 -->
<g id="node21" class="node">
<title>Node120</title>
<g id="a_node21"><a xlink:href="non__local__operator_8h.html" target="_top" xlink:title="Contains declaration and implementation of sirius::Non_local_operator class. ">
<polygon fill="#ffffff" stroke="#000000" points="648.8424,-448.5 648.8424,-467.5 758.8424,-467.5 758.8424,-448.5 648.8424,-448.5"/>
<text text-anchor="middle" x="703.8424" y="-455.5" font-family="Helvetica,sans-Serif" font-size="10.00" fill="#000000">non_local_operator.h</text>
</a>
</g>
</g>
<!-- Node104&#45;&gt;Node120 -->
<g id="edge44" class="edge">
<title>Node104&#45;&gt;Node120</title>
<path fill="none" stroke="#191970" d="M591.7284,-554.9552C604.8278,-546.3735 621.1415,-535.1342 634.8424,-524 657.484,-505.6 681.6067,-481.3047 694.4723,-467.917"/>
<polygon fill="#191970" stroke="#191970" points="589.7438,-552.0705 583.2448,-560.4379 593.5433,-557.9496 589.7438,-552.0705"/>
</g>
<!-- Node106 -->
<g id="node7" class="node">
<title>Node106</title>
<g id="a_node7"><a xlink:href="band_8h.html" target="_top" xlink:title="Contains declaration and partial implementation of sirius::Band class. ">
<polygon fill="#ffffff" stroke="#000000" points="695.3424,-224.5 695.3424,-243.5 742.3424,-243.5 742.3424,-224.5 695.3424,-224.5"/>
<text text-anchor="middle" x="718.8424" y="-231.5" font-family="Helvetica,sans-Serif" font-size="10.00" fill="#000000">band.h</text>
</a>
</g>
</g>
<!-- Node105&#45;&gt;Node106 -->
<g id="edge6" class="edge">
<title>Node105&#45;&gt;Node106</title>
<path fill="none" stroke="#191970" d="M603.1633,-508.419C665.5944,-501.642 757.9578,-488.5063 786.8424,-468 814.4422,-448.4058 824.8424,-435.8479 824.8424,-402 824.8424,-402 824.8424,-402 824.8424,-346 824.8424,-296.4715 769.4858,-260.0372 738.7802,-243.6372"/>
<polygon fill="#191970" stroke="#191970" points="602.6069,-504.9582 593.0311,-509.4919 603.3441,-511.9193 602.6069,-504.9582"/>
</g>
<!-- Node105&#45;&gt;Node110 -->
<g id="edge41" class="edge">
<title>Node105&#45;&gt;Node110</title>
<path fill="none" stroke="#191970" d="M603.2423,-508.7982C671.4967,-502.0375 777.5609,-488.6023 811.8424,-468 843.6164,-448.9046 862.8424,-439.0705 862.8424,-402 862.8424,-402 862.8424,-402 862.8424,-178 862.8424,-99.6169 743.2135,-75.348 690.8759,-68.4811"/>
<polygon fill="#191970" stroke="#191970" points="602.6602,-505.3381 593.0445,-509.7867 603.3356,-512.3055 602.6602,-505.3381"/>
</g>
<!-- Node113 -->
<g id="node14" class="node">
<title>Node113</title>
<g id="a_node14"><a xlink:href="k__point_8h.html" target="_top" xlink:title="Contains definition and partial implementation of sirius::K_point class. ">
<polygon fill="#ffffff" stroke="#000000" points="296.3424,-448.5 296.3424,-467.5 353.3424,-467.5 353.3424,-448.5 296.3424,-448.5"/>
<text text-anchor="middle" x="324.8424" y="-455.5" font-family="Helvetica,sans-Serif" font-size="10.00" fill="#000000">k_point.h</text>
</a>
</g>
</g>
<!-- Node105&#45;&gt;Node113 -->
<g id="edge15" class="edge">
<title>Node105&#45;&gt;Node113</title>
<path fill="none" stroke="#191970" d="M495.6273,-501.8714C452.3445,-490.7528 389.6542,-474.6489 353.4944,-465.3601"/>
<polygon fill="#191970" stroke="#191970" points="494.8105,-505.2751 505.3669,-504.3733 496.5522,-498.4952 494.8105,-505.2751"/>
</g>
<!-- Node105&#45;&gt;Node115 -->
<g id="edge37" class="edge">
<title>Node105&#45;&gt;Node115</title>
<path fill="none" stroke="#191970" d="M536.1652,-494.8672C531.2987,-481.5158 524.2792,-463.4015 516.8424,-448 499.8524,-412.8135 475.372,-373.353 464.0358,-355.5828"/>
<polygon fill="#191970" stroke="#191970" points="532.9141,-496.1703 539.5733,-504.4108 539.5063,-493.8161 532.9141,-496.1703"/>
</g>
<!-- Node105&#45;&gt;Node116 -->
<g id="edge36" class="edge">
<title>Node105&#45;&gt;Node116</title>
<path fill="none" stroke="#191970" d="M548.8723,-494.7044C563.2671,-448.6409 599.2281,-333.5657 609.8458,-299.5891"/>
<polygon fill="#191970" stroke="#191970" points="545.4924,-493.7862 545.8502,-504.375 552.1737,-495.8742 545.4924,-493.7862"/>
</g>
<!-- Node105&#45;&gt;Node117 -->
<g id="edge40" class="edge">
<title>Node105&#45;&gt;Node117</title>
<path fill="none" stroke="#191970" d="M526.1033,-497.1404C473.8744,-444.5358 314.978,-284.4963 274.3716,-243.5977"/>
<polygon fill="#191970" stroke="#191970" points="523.7436,-499.7314 533.273,-504.3618 528.7111,-494.7994 523.7436,-499.7314"/>
</g>
<!-- Node119 -->
<g id="node20" class="node">
<title>Node119</title>
<g id="a_node20"><a xlink:href="local__operator_8h.html" target="_top" xlink:title="Contains declaration and implementation of sirius::Local_operator class. ">
<polygon fill="#ffffff" stroke="#000000" points="708.8424,-336.5 708.8424,-355.5 796.8424,-355.5 796.8424,-336.5 708.8424,-336.5"/>
<text text-anchor="middle" x="752.8424" y="-343.5" font-family="Helvetica,sans-Serif" font-size="10.00" fill="#000000">local_operator.h</text>
</a>
</g>
</g>
<!-- Node105&#45;&gt;Node119 -->
<g id="edge38" class="edge">
<title>Node105&#45;&gt;Node119</title>
<path fill="none" stroke="#191970" d="M602.9194,-510.103C662.3699,-504.8459 747.376,-493.074 767.8424,-468 795.1005,-434.6054 770.0026,-377.952 758.2016,-355.5373"/>
<polygon fill="#191970" stroke="#191970" points="602.5455,-506.622 592.8755,-510.9513 603.1347,-513.5972 602.5455,-506.622"/>
</g>
<!-- Node107 -->
<g id="node8" class="node">
<title>Node107</title>
<g id="a_node8"><a xlink:href="add__nl__h__o__rs_8cpp_source.html" target="_top" xlink:title="add_nl_h_o_rs.cpp">
<polygon fill="#ffffff" stroke="#000000" points="732.8424,-168.5 732.8424,-187.5 834.8424,-187.5 834.8424,-168.5 732.8424,-168.5"/>
<text text-anchor="middle" x="783.8424" y="-175.5" font-family="Helvetica,sans-Serif" font-size="10.00" fill="#000000">add_nl_h_o_rs.cpp</text>
</a>
</g>
</g>
<!-- Node106&#45;&gt;Node107 -->
<g id="edge7" class="edge">
<title>Node106&#45;&gt;Node107</title>
<path fill="none" stroke="#191970" d="M737.8259,-217.645C749.1303,-207.9058 763.0894,-195.8795 772.65,-187.6427"/>
<polygon fill="#191970" stroke="#191970" points="735.4562,-215.0668 730.1645,-224.2455 740.0252,-220.3701 735.4562,-215.0668"/>
</g>
<!-- Node108 -->
<g id="node9" class="node">
<title>Node108</title>
<g id="a_node9"><a xlink:href="force_8h.html" target="_top" xlink:title="Contains definition of sirius::Force class. ">
<polygon fill="#ffffff" stroke="#000000" points="567.3424,-168.5 567.3424,-187.5 614.3424,-187.5 614.3424,-168.5 567.3424,-168.5"/>
<text text-anchor="middle" x="590.8424" y="-175.5" font-family="Helvetica,sans-Serif" font-size="10.00" fill="#000000">force.h</text>
</a>
</g>
</g>
<!-- Node106&#45;&gt;Node108 -->
<g id="edge8" class="edge">
<title>Node106&#45;&gt;Node108</title>
<path fill="none" stroke="#191970" d="M687.4076,-220.2473C664.1615,-210.0771 633.1014,-196.4883 612.5593,-187.5011"/>
<polygon fill="#191970" stroke="#191970" points="686.274,-223.5716 696.8384,-224.3733 689.0797,-217.1585 686.274,-223.5716"/>
</g>
<!-- Node106&#45;&gt;Node110 -->
<g id="edge14" class="edge">
<title>Node106&#45;&gt;Node110</title>
<path fill="none" stroke="#191970" d="M712.8769,-214.7267C701.7631,-178.8207 678.2583,-102.8822 669.8844,-75.8279"/>
<polygon fill="#191970" stroke="#191970" points="709.5973,-215.9683 715.8977,-224.4862 716.2843,-213.8985 709.5973,-215.9683"/>
</g>
<!-- Node109 -->
<g id="node10" class="node">
<title>Node109</title>
<g id="a_node10"><a xlink:href="dft__ground__state_8h.html" target="_top" xlink:title="Contains definition and partial implementation of sirius::DFT_ground_state class. ...">
<polygon fill="#ffffff" stroke="#000000" points="386.8424,-112.5 386.8424,-131.5 486.8424,-131.5 486.8424,-112.5 386.8424,-112.5"/>
<text text-anchor="middle" x="436.8424" y="-119.5" font-family="Helvetica,sans-Serif" font-size="10.00" fill="#000000">dft_ground_state.h</text>
</a>
</g>
</g>
<!-- Node108&#45;&gt;Node109 -->
<g id="edge9" class="edge">
<title>Node108&#45;&gt;Node109</title>
<path fill="none" stroke="#191970" d="M557.6506,-165.9303C529.3743,-155.648 489.2864,-141.0706 463.1758,-131.5758"/>
<polygon fill="#191970" stroke="#191970" points="556.5233,-169.2445 567.1174,-169.3727 558.9156,-162.666 556.5233,-169.2445"/>
</g>
<!-- Node108&#45;&gt;Node110 -->
<g id="edge13" class="edge">
<title>Node108&#45;&gt;Node110</title>
<path fill="none" stroke="#191970" d="M577.9821,-159.6897C569.937,-145.778 562.6833,-126.6112 571.8424,-112 587.2202,-87.4682 619.8035,-75.6955 642.4965,-70.277"/>
<polygon fill="#191970" stroke="#191970" points="575.172,-161.7938 583.4862,-168.3608 581.0819,-158.0424 575.172,-161.7938"/>
</g>
<!-- Node112 -->
<g id="node13" class="node">
<title>Node112</title>
<g id="a_node13"><a xlink:href="force_8cpp.html" target="_top" xlink:title="Contains implementation of sirius::Force class. ">
<polygon fill="#ffffff" stroke="#000000" points="580.8424,-112.5 580.8424,-131.5 638.8424,-131.5 638.8424,-112.5 580.8424,-112.5"/>
<text text-anchor="middle" x="609.8424" y="-119.5" font-family="Helvetica,sans-Serif" font-size="10.00" fill="#000000">force.cpp</text>
</a>
</g>
</g>
<!-- Node108&#45;&gt;Node112 -->
<g id="edge12" class="edge">
<title>Node108&#45;&gt;Node112</title>
<path fill="none" stroke="#191970" d="M597.3739,-158.7493C600.476,-149.6064 604.0475,-139.0798 606.5708,-131.6427"/>
<polygon fill="#191970" stroke="#191970" points="594.0506,-157.6512 594.152,-168.2455 600.6794,-159.9003 594.0506,-157.6512"/>
</g>
<!-- Node109&#45;&gt;Node110 -->
<g id="edge10" class="edge">
<title>Node109&#45;&gt;Node110</title>
<path fill="none" stroke="#191970" d="M486.0216,-110.0259C534.1736,-98.302 605.5362,-80.9267 642.5666,-71.9106"/>
<polygon fill="#191970" stroke="#191970" points="485.0076,-106.6705 476.1195,-112.4369 486.6637,-113.4718 485.0076,-106.6705"/>
</g>
<!-- Node111 -->
<g id="node12" class="node">
<title>Node111</title>
<g id="a_node12"><a xlink:href="sirius__api_8cpp.html" target="_top" xlink:title="Fortran API. ">
<polygon fill="#ffffff" stroke="#000000" points="627.8424,-.5 627.8424,-19.5 705.8424,-19.5 705.8424,-.5 627.8424,-.5"/>
<text text-anchor="middle" x="666.8424" y="-7.5" font-family="Helvetica,sans-Serif" font-size="10.00" fill="#000000">sirius_api.cpp</text>
</a>
</g>
</g>
<!-- Node110&#45;&gt;Node111 -->
<g id="edge11" class="edge">
<title>Node110&#45;&gt;Node111</title>
<path fill="none" stroke="#191970" d="M666.8424,-46.1575C666.8424,-37.155 666.8424,-26.9199 666.8424,-19.6427"/>
<polygon fill="#191970" stroke="#191970" points="663.3425,-46.2455 666.8424,-56.2455 670.3425,-46.2456 663.3425,-46.2455"/>
</g>
<!-- Node113&#45;&gt;Node108 -->
<g id="edge34" class="edge">
<title>Node113&#45;&gt;Node108</title>
<path fill="none" stroke="#191970" d="M357.7755,-444.2667C394.6295,-427.6341 454.4537,-396.7097 494.8424,-356 547.0196,-303.4081 578.4023,-216.5888 587.823,-187.6914"/>
<polygon fill="#191970" stroke="#191970" points="356.2056,-441.1339 348.4761,-448.38 359.0373,-447.5357 356.2056,-441.1339"/>
</g>
<!-- Node113&#45;&gt;Node110 -->
<g id="edge35" class="edge">
<title>Node113&#45;&gt;Node110</title>
<path fill="none" stroke="#191970" d="M290.7816,-444.6544C219.0216,-415.471 58.8424,-344.253 58.8424,-290 58.8424,-290 58.8424,-290 58.8424,-178 58.8424,-117.5589 529.5522,-76.7703 642.6329,-67.8435"/>
<polygon fill="#191970" stroke="#191970" points="289.7111,-447.9965 300.2946,-448.4872 292.3271,-441.5036 289.7111,-447.9965"/>
</g>
<!-- Node114 -->
<g id="node15" class="node">
<title>Node114</title>
<g id="a_node15"><a xlink:href="k__point__set_8h.html" target="_top" xlink:title="Contains declaration and partial implementation of sirius::K_point_set class. ">
<polygon fill="#ffffff" stroke="#000000" points="286.8424,-392.5 286.8424,-411.5 362.8424,-411.5 362.8424,-392.5 286.8424,-392.5"/>
<text text-anchor="middle" x="324.8424" y="-399.5" font-family="Helvetica,sans-Serif" font-size="10.00" fill="#000000">k_point_set.h</text>
</a>
</g>
</g>
<!-- Node113&#45;&gt;Node114 -->
<g id="edge16" class="edge">
<title>Node113&#45;&gt;Node114</title>
<path fill="none" stroke="#191970" d="M324.8424,-438.1575C324.8424,-429.155 324.8424,-418.9199 324.8424,-411.6427"/>
<polygon fill="#191970" stroke="#191970" points="321.3425,-438.2455 324.8424,-448.2455 328.3425,-438.2456 321.3425,-438.2455"/>
</g>
<!-- Node114&#45;&gt;Node106 -->
<g id="edge17" class="edge">
<title>Node114&#45;&gt;Node106</title>
<path fill="none" stroke="#191970" d="M373.1972,-395.0467C440.2551,-383.6854 563.3272,-356.4973 652.8424,-300 677.5086,-284.432 700.1173,-258.1271 711.3674,-243.8807"/>
<polygon fill="#191970" stroke="#191970" points="372.2285,-391.6589 362.9295,-396.7363 373.3651,-398.566 372.2285,-391.6589"/>
</g>
<!-- Node114&#45;&gt;Node109 -->
<g id="edge31" class="edge">
<title>Node114&#45;&gt;Node109</title>
<path fill="none" stroke="#191970" d="M345.1217,-385.823C367.6353,-365.8958 400.8424,-329.7639 400.8424,-290 400.8424,-290 400.8424,-290 400.8424,-234 400.8424,-194.377 421.5165,-150.4883 431.5305,-131.5538"/>
<polygon fill="#191970" stroke="#191970" points="342.7345,-383.2588 337.3923,-392.4082 347.2741,-388.5872 342.7345,-383.2588"/>
</g>
<!-- Node114&#45;&gt;Node110 -->
<g id="edge33" class="edge">
<title>Node114&#45;&gt;Node110</title>
<path fill="none" stroke="#191970" d="M308.2197,-384.919C283.0786,-357.7569 236.4497,-301.8486 218.8424,-244 207.4122,-206.4462 233.2019,-192.5377 263.8424,-168 307.9045,-132.714 324.0359,-129.0712 377.8424,-112 473.0001,-81.8092 592.3478,-70.8639 642.6854,-67.4069"/>
<polygon fill="#191970" stroke="#191970" points="305.8672,-387.5257 315.2763,-392.3961 310.958,-382.7212 305.8672,-387.5257"/>
</g>
<!-- Node114&#45;&gt;Node115 -->
<g id="edge18" class="edge">
<title>Node114&#45;&gt;Node115</title>
<path fill="none" stroke="#191970" d="M357.1821,-388.3833C381.3709,-378.1985 413.8374,-364.5284 435.2772,-355.5011"/>
<polygon fill="#191970" stroke="#191970" points="355.5641,-385.2669 347.7059,-392.3733 358.2805,-391.7184 355.5641,-385.2669"/>
</g>
<!-- Node118 -->
<g id="node19" class="node">
<title>Node118</title>
<g id="a_node19"><a xlink:href="_forces___p_s_8cpp_source.html" target="_top" xlink:title="Forces_PS.cpp">
<polygon fill="#ffffff" stroke="#000000" points="287.3424,-168.5 287.3424,-187.5 372.3424,-187.5 372.3424,-168.5 287.3424,-168.5"/>
<text text-anchor="middle" x="329.8424" y="-175.5" font-family="Helvetica,sans-Serif" font-size="10.00" fill="#000000">Forces_PS.cpp</text>
</a>
</g>
</g>
<!-- Node114&#45;&gt;Node118 -->
<g id="edge32" class="edge">
<title>Node114&#45;&gt;Node118</title>
<path fill="none" stroke="#191970" d="M325.2862,-382.1177C326.323,-335.6713 328.8732,-221.4223 329.6284,-187.5891"/>
<polygon fill="#191970" stroke="#191970" points="321.7814,-382.2994 325.0573,-392.375 328.7796,-382.4556 321.7814,-382.2994"/>
</g>
<!-- Node115&#45;&gt;Node108 -->
<g id="edge28" class="edge">
<title>Node115&#45;&gt;Node108</title>
<path fill="none" stroke="#191970" d="M471.6588,-328.5477C499.4415,-293.4538 561.2748,-215.3486 583.062,-187.8279"/>
<polygon fill="#191970" stroke="#191970" points="468.837,-326.4733 465.3741,-336.4862 474.3254,-330.8182 468.837,-326.4733"/>
</g>
<!-- Node115&#45;&gt;Node109 -->
<g id="edge27" class="edge">
<title>Node115&#45;&gt;Node109</title>
<path fill="none" stroke="#191970" d="M456.006,-326.4119C451.6695,-280.1557 440.92,-165.494 437.7414,-131.5891"/>
<polygon fill="#191970" stroke="#191970" points="452.5219,-326.7454 456.9401,-336.375 459.4913,-326.0919 452.5219,-326.7454"/>
</g>
<!-- Node115&#45;&gt;Node110 -->
<g id="edge30" class="edge">
<title>Node115&#45;&gt;Node110</title>
<path fill="none" stroke="#191970" d="M461.8169,-326.0878C471.5877,-281.9381 500.722,-174.7859 563.8424,-112 585.7805,-90.1782 619.8736,-77.7703 642.7612,-71.4684"/>
<polygon fill="#191970" stroke="#191970" points="458.3413,-325.6064 459.6958,-336.1143 465.1898,-327.0552 458.3413,-325.6064"/>
</g>
<!-- Node115&#45;&gt;Node116 -->
<g id="edge19" class="edge">
<title>Node115&#45;&gt;Node116</title>
<path fill="none" stroke="#191970" d="M494.0373,-332.9231C522.3722,-322.686 561.1142,-308.6889 586.5447,-299.5011"/>
<polygon fill="#191970" stroke="#191970" points="492.7036,-329.6835 484.4879,-336.3733 495.0822,-336.267 492.7036,-329.6835"/>
</g>
<!-- Node115&#45;&gt;Node117 -->
<g id="edge29" class="edge">
<title>Node115&#45;&gt;Node117</title>
<path fill="none" stroke="#191970" d="M432.725,-331.4241C392.5801,-308.1276 315.048,-263.1349 281.2558,-243.5249"/>
<polygon fill="#191970" stroke="#191970" points="430.9814,-334.4589 441.3873,-336.4509 434.4949,-328.4045 430.9814,-334.4589"/>
</g>
<!-- Node116&#45;&gt;Node106 -->
<g id="edge20" class="edge">
<title>Node116&#45;&gt;Node106</title>
<path fill="none" stroke="#191970" d="M640.3646,-275.46C659.3332,-265.4388 684.0152,-252.3993 700.5902,-243.6427"/>
<polygon fill="#191970" stroke="#191970" points="638.5132,-272.4796 631.3062,-280.2455 641.7831,-278.669 638.5132,-272.4796"/>
</g>
<!-- Node116&#45;&gt;Node108 -->
<g id="edge22" class="edge">
<title>Node116&#45;&gt;Node108</title>
<path fill="none" stroke="#191970" d="M611.3157,-269.7989C610.0966,-256.6568 608.0506,-239.1984 604.8424,-224 602.1528,-211.2582 597.5424,-196.9639 594.351,-187.7408"/>
<polygon fill="#191970" stroke="#191970" points="607.854,-270.4014 612.1826,-280.0716 614.8292,-269.8127 607.854,-270.4014"/>
</g>
<!-- Node116&#45;&gt;Node109 -->
<g id="edge21" class="edge">
<title>Node116&#45;&gt;Node109</title>
<path fill="none" stroke="#191970" d="M595.484,-273.4306C559.1846,-238.7812 476.2139,-159.5818 447.1383,-131.8279"/>
<polygon fill="#191970" stroke="#191970" points="593.2254,-276.1132 602.8756,-280.4862 598.0587,-271.0497 593.2254,-276.1132"/>
</g>
<!-- Node116&#45;&gt;Node110 -->
<g id="edge26" class="edge">
<title>Node116&#45;&gt;Node110</title>
<path fill="none" stroke="#191970" d="M617.5645,-270.4119C628.7156,-224.1557 656.3573,-109.494 664.5307,-75.5891"/>
<polygon fill="#191970" stroke="#191970" points="614.1038,-269.8332 615.1627,-280.375 620.9089,-271.4738 614.1038,-269.8332"/>
</g>
<!-- Node116&#45;&gt;Node117 -->
<g id="edge23" class="edge">
<title>Node116&#45;&gt;Node117</title>
<path fill="none" stroke="#191970" d="M571.0229,-283.2704C502.4547,-272.2365 367.2291,-250.476 301.8987,-239.9631"/>
<polygon fill="#191970" stroke="#191970" points="570.6081,-286.7486 581.0372,-284.8819 571.7203,-279.8375 570.6081,-286.7486"/>
</g>
<!-- Node117&#45;&gt;Node109 -->
<g id="edge24" class="edge">
<title>Node117&#45;&gt;Node109</title>
<path fill="none" stroke="#191970" d="M263.6145,-213.6753C263.8625,-199.2038 266.6355,-180.2286 277.8424,-168 292.598,-151.8992 345.885,-138.7013 386.7455,-130.6353"/>
<polygon fill="#191970" stroke="#191970" points="260.1247,-214.1803 263.8441,-224.1007 267.123,-214.0261 260.1247,-214.1803"/>
</g>
<!-- Node117&#45;&gt;Node118 -->
<g id="edge25" class="edge">
<title>Node117&#45;&gt;Node118</title>
<path fill="none" stroke="#191970" d="M283.8259,-217.645C295.1303,-207.9058 309.0894,-195.8795 318.65,-187.6427"/>
<polygon fill="#191970" stroke="#191970" points="281.4562,-215.0668 276.1645,-224.2455 286.0252,-220.3701 281.4562,-215.0668"/>
</g>
<!-- Node119&#45;&gt;Node106 -->
<g id="edge39" class="edge">
<title>Node119&#45;&gt;Node106</title>
<path fill="none" stroke="#191970" d="M746.9527,-326.5987C739.5955,-302.363 727.2984,-261.8551 721.7339,-243.5249"/>
<polygon fill="#191970" stroke="#191970" points="743.6896,-327.8988 749.9436,-336.4509 750.3878,-325.8654 743.6896,-327.8988"/>
</g>
<!-- Node120&#45;&gt;Node106 -->
<g id="edge45" class="edge">
<title>Node120&#45;&gt;Node106</title>
<path fill="none" stroke="#191970" d="M701.7074,-438.4866C699.412,-414.3619 696.5116,-372.0698 699.8424,-336 703.006,-301.741 712.0254,-261.824 716.4016,-243.7622"/>
<polygon fill="#191970" stroke="#191970" points="698.2304,-438.8907 702.7253,-448.4848 705.1944,-438.1816 698.2304,-438.8907"/>
</g>
<!-- Node122 -->
<g id="node23" class="node">
<title>Node122</title>
<g id="a_node23"><a xlink:href="step__function_8h.html" target="_top" xlink:title="Contains definition and partial implementation of sirius::Step_function class. ">
<polygon fill="#ffffff" stroke="#000000" points="616.8424,-616.5 616.8424,-635.5 700.8424,-635.5 700.8424,-616.5 616.8424,-616.5"/>
<text text-anchor="middle" x="658.8424" y="-623.5" font-family="Helvetica,sans-Serif" font-size="10.00" fill="#000000">step_function.h</text>
</a>
</g>
</g>
<!-- Node121&#45;&gt;Node122 -->
<g id="edge49" class="edge">
<title>Node121&#45;&gt;Node122</title>
<path fill="none" stroke="#191970" d="M658.8424,-662.2849C658.8424,-652.9858 658.8424,-642.9883 658.8424,-635.8469"/>
<polygon fill="#191970" stroke="#191970" points="655.3425,-662.2977 658.8424,-672.2977 662.3425,-662.2978 655.3425,-662.2977"/>
</g>
<!-- Node122&#45;&gt;Node104 -->
<g id="edge50" class="edge">
<title>Node122&#45;&gt;Node104</title>
<path fill="none" stroke="#191970" d="M634.092,-610.769C617.9666,-600.8456 597.4164,-588.1994 583.5118,-579.6427"/>
<polygon fill="#191970" stroke="#191970" points="632.6405,-613.9853 642.9914,-616.2455 636.3092,-608.0237 632.6405,-613.9853"/>
</g>
<!-- Node122&#45;&gt;Node110 -->
<g id="edge51" class="edge">
<title>Node122&#45;&gt;Node110</title>
<path fill="none" stroke="#191970" d="M708.038,-613.8358C778.785,-594.8824 900.8424,-556.0844 900.8424,-514 900.8424,-514 900.8424,-514 900.8424,-178 900.8424,-140.6561 880.1704,-132.3254 848.8424,-112 798.9457,-79.6274 727.696,-70.0332 690.8962,-67.1926"/>
<polygon fill="#191970" stroke="#191970" points="706.769,-610.5508 697.9929,-616.4862 708.5549,-617.3191 706.769,-610.5508"/>
</g>
<!-- Node123&#45;&gt;Node102 -->
<g id="edge54" class="edge">
<title>Node123&#45;&gt;Node102</title>
<path fill="none" stroke="#191970" d="M619.8424,-785.1575C619.8424,-776.155 619.8424,-765.9199 619.8424,-758.6427"/>
<polygon fill="#191970" stroke="#191970" points="616.3425,-785.2455 619.8424,-795.2455 623.3425,-785.2456 616.3425,-785.2455"/>
</g>
<!-- Node123&#45;&gt;Node124 -->
<g id="edge55" class="edge">
<title>Node123&#45;&gt;Node124</title>
<path fill="none" stroke="#191970" d="M580.0276,-803.7531C464.9143,-799.0772 139.8424,-777.8722 139.8424,-687.5 139.8424,-687.5 139.8424,-687.5 139.8424,-626 139.8424,-586.2726 118.5941,-542.4377 108.3019,-523.5354"/>
<polygon fill="#191970" stroke="#191970" points="580.0511,-807.2565 590.1785,-804.1443 580.3207,-800.2617 580.0511,-807.2565"/>
</g>
<!-- Node124&#45;&gt;Node113 -->
<g id="edge56" class="edge">
<title>Node124&#45;&gt;Node113</title>
<path fill="none" stroke="#191970" d="M150.7225,-501.9221C195.0466,-490.7413 259.4835,-474.4869 296.2654,-465.2086"/>
<polygon fill="#191970" stroke="#191970" points="149.5935,-498.5972 140.7533,-504.4369 151.3057,-505.3846 149.5935,-498.5972"/>
</g>
<!-- Node124&#45;&gt;Node117 -->
<g id="edge60" class="edge">
<title>Node124&#45;&gt;Node117</title>
<path fill="none" stroke="#191970" d="M75.3319,-499.1044C39.5561,-477.605 -16.0398,-435.6435 4.8424,-392 47.4741,-302.9004 166.5556,-259.6634 227.6508,-242.8288"/>
<polygon fill="#191970" stroke="#191970" points="73.975,-502.364 84.3793,-504.3644 77.4934,-496.3124 73.975,-502.364"/>
</g>
<!-- Node124&#45;&gt;Node120 -->
<g id="edge57" class="edge">
<title>Node124&#45;&gt;Node120</title>
<path fill="none" stroke="#191970" d="M160.0549,-508.6691C275.5215,-497.9101 535.0825,-473.7247 648.7557,-463.1329"/>
<polygon fill="#191970" stroke="#191970" points="159.634,-505.193 150.0019,-509.6058 160.2835,-512.1628 159.634,-505.193"/>
</g>
<!-- Node125 -->
<g id="node26" class="node">
<title>Node125</title>
<g id="a_node26"><a xlink:href="beta__projectors__gradient_8h_source.html" target="_top" xlink:title="beta_projectors_gradient.h">
<polygon fill="#ffffff" stroke="#000000" points="14.3424,-392.5 14.3424,-411.5 149.3424,-411.5 149.3424,-392.5 14.3424,-392.5"/>
<text text-anchor="middle" x="81.8424" y="-399.5" font-family="Helvetica,sans-Serif" font-size="10.00" fill="#000000">beta_projectors_gradient.h</text>
</a>
</g>
</g>
<!-- Node124&#45;&gt;Node125 -->
<g id="edge58" class="edge">
<title>Node124&#45;&gt;Node125</title>
<path fill="none" stroke="#191970" d="M99.2047,-494.5987C94.6605,-470.363 87.0652,-429.8551 83.6283,-411.5249"/>
<polygon fill="#191970" stroke="#191970" points="95.7689,-495.2673 101.052,-504.4509 102.6491,-493.9772 95.7689,-495.2673"/>
</g>
<!-- Node125&#45;&gt;Node117 -->
<g id="edge59" class="edge">
<title>Node125&#45;&gt;Node117</title>
<path fill="none" stroke="#191970" d="M93.2511,-383.9054C114.6526,-349.9642 158.6985,-280.1234 158.8424,-280 179.1004,-262.6365 206.9198,-250.8988 228.976,-243.6279"/>
<polygon fill="#191970" stroke="#191970" points="90.2435,-382.1131 87.8705,-392.4388 96.1647,-385.8467 90.2435,-382.1131"/>
</g>
<!-- Node127 -->
<g id="node28" class="node">
<title>Node127</title>
<g id="a_node28"><a xlink:href="real__space__prj_8cpp_source.html" target="_top" xlink:title="real_space_prj.cpp">
<polygon fill="#ffffff" stroke="#000000" points="847.3424,-739.5 847.3424,-758.5 948.3424,-758.5 948.3424,-739.5 847.3424,-739.5"/>
<text text-anchor="middle" x="897.8424" y="-746.5" font-family="Helvetica,sans-Serif" font-size="10.00" fill="#000000">real_space_prj.cpp</text>
</a>
</g>
</g>
<!-- Node126&#45;&gt;Node127 -->
<g id="edge63" class="edge">
<title>Node126&#45;&gt;Node127</title>
<path fill="none" stroke="#191970" d="M895.9054,-785.1575C896.3877,-776.155 896.936,-765.9199 897.3258,-758.6427"/>
<polygon fill="#191970" stroke="#191970" points="892.405,-785.0726 895.365,-795.2455 899.395,-785.4471 892.405,-785.0726"/>
</g>
</g>
</svg>
