<?xml version="1.0" encoding="UTF-8" standalone="no"?>
<!DOCTYPE svg PUBLIC "-//W3C//DTD SVG 1.1//EN"
 "http://www.w3.org/Graphics/SVG/1.1/DTD/svg11.dtd">
<!-- Generated by graphviz version 2.40.1 (20161225.0304)
 -->
<!-- Title: sirius::Radial_integrals Pages: 1 -->
<svg width="1483pt" height="482pt"
 viewBox="0.00 0.00 1483.00 482.00" xmlns="http://www.w3.org/2000/svg" xmlns:xlink="http://www.w3.org/1999/xlink">
<g id="graph0" class="graph" transform="scale(1 1) rotate(0) translate(4 478)">
<title>sirius::Radial_integrals</title>
<polygon fill="#ffffff" stroke="transparent" points="-4,4 -4,-478 1479,-478 1479,4 -4,4"/>
<!-- Node1 -->
<g id="node1" class="node">
<title>Node1</title>
<polygon fill="#bfbfbf" stroke="#000000" points="1358,-282.5 1358,-301.5 1475,-301.5 1475,-282.5 1358,-282.5"/>
<text text-anchor="middle" x="1416.5" y="-289.5" font-family="Helvetica,sans-Serif" font-size="10.00" fill="#000000">sirius::Radial_integrals</text>
</g>
<!-- Node2 -->
<g id="node2" class="node">
<title>Node2</title>
<g id="a_node2"><a xlink:href="classsddk_1_1mdarray.html" target="_top" xlink:title="sddk::mdarray\&lt; sirius\l::Spline\&lt; double \&gt;, 2 \&gt;">
<polygon fill="#ffffff" stroke="#000000" points="1082,-380 1082,-410 1199,-410 1199,-380 1082,-380"/>
<text text-anchor="start" x="1090" y="-398" font-family="Helvetica,sans-Serif" font-size="10.00" fill="#000000">sddk::mdarray&lt; sirius</text>
<text text-anchor="middle" x="1140.5" y="-387" font-family="Helvetica,sans-Serif" font-size="10.00" fill="#000000">::Spline&lt; double &gt;, 2 &gt;</text>
</a>
</g>
</g>
<!-- Node2&#45;&gt;Node1 -->
<g id="edge1" class="edge">
<title>Node2&#45;&gt;Node1</title>
<path fill="none" stroke="#9a32cd" stroke-dasharray="5,2" d="M1209.3568,-389.5161C1257.6656,-384.8218 1317.4905,-377.0563 1340,-366 1371.1806,-350.6846 1397.8217,-317.955 1409.7747,-301.648"/>
<polygon fill="#9a32cd" stroke="#9a32cd" points="1208.8672,-386.0467 1199.2405,-390.4713 1209.5253,-393.0157 1208.8672,-386.0467"/>
<text text-anchor="start" x="1217" y="-413" font-family="Helvetica,sans-Serif" font-size="10.00" fill="#000000"> beta_djldq_radial_integrals</text>
<text text-anchor="middle" x="1278.5" y="-402" font-family="Helvetica,sans-Serif" font-size="10.00" fill="#000000">_</text>
<text text-anchor="middle" x="1278.5" y="-391" font-family="Helvetica,sans-Serif" font-size="10.00" fill="#000000">beta_radial_integrals_</text>
</g>
<!-- Node3 -->
<g id="node3" class="node">
<title>Node3</title>
<g id="a_node3"><a xlink:href="classsddk_1_1mdarray__base.html" target="_top" xlink:title="sddk::mdarray_base\l\&lt; sirius::Spline\&lt; double\l \&gt;, N \&gt;">
<polygon fill="#ffffff" stroke="#000000" points="811,-343.5 811,-384.5 931,-384.5 931,-343.5 811,-343.5"/>
<text text-anchor="start" x="819" y="-372.5" font-family="Helvetica,sans-Serif" font-size="10.00" fill="#000000">sddk::mdarray_base</text>
<text text-anchor="start" x="819" y="-361.5" font-family="Helvetica,sans-Serif" font-size="10.00" fill="#000000">&lt; sirius::Spline&lt; double</text>
<text text-anchor="middle" x="871" y="-350.5" font-family="Helvetica,sans-Serif" font-size="10.00" fill="#000000"> &gt;, N &gt;</text>
</a>
</g>
</g>
<!-- Node3&#45;&gt;Node2 -->
<g id="edge2" class="edge">
<title>Node3&#45;&gt;Node2</title>
<path fill="none" stroke="#191970" d="M941.1404,-372.0681C984.8912,-377.1007 1040.5466,-383.5026 1081.9278,-388.2626"/>
<polygon fill="#191970" stroke="#191970" points="941.4801,-368.5842 931.1456,-370.9184 940.6801,-375.5383 941.4801,-368.5842"/>
</g>
<!-- Node8 -->
<g id="node8" class="node">
<title>Node8</title>
<g id="a_node8"><a xlink:href="classsddk_1_1mdarray.html" target="_top" xlink:title="sddk::mdarray\&lt; sirius\l::Spline\&lt; double \&gt;, 3 \&gt;">
<polygon fill="#ffffff" stroke="#000000" points="1082,-331 1082,-361 1199,-361 1199,-331 1082,-331"/>
<text text-anchor="start" x="1090" y="-349" font-family="Helvetica,sans-Serif" font-size="10.00" fill="#000000">sddk::mdarray&lt; sirius</text>
<text text-anchor="middle" x="1140.5" y="-338" font-family="Helvetica,sans-Serif" font-size="10.00" fill="#000000">::Spline&lt; double &gt;, 3 &gt;</text>
</a>
</g>
</g>
<!-- Node3&#45;&gt;Node8 -->
<g id="edge8" class="edge">
<title>Node3&#45;&gt;Node8</title>
<path fill="none" stroke="#191970" d="M941.1404,-359.3153C984.8912,-356.3932 1040.5466,-352.6759 1081.9278,-349.9121"/>
<polygon fill="#191970" stroke="#191970" points="940.8901,-355.8241 931.1456,-359.9829 941.3567,-362.8086 940.8901,-355.8241"/>
</g>
<!-- Node9 -->
<g id="node9" class="node">
<title>Node9</title>
<g id="a_node9"><a xlink:href="classsddk_1_1mdarray.html" target="_top" xlink:title="sddk::mdarray\&lt; sirius\l::Spline\&lt; double \&gt;, 1 \&gt;">
<polygon fill="#ffffff" stroke="#000000" points="1082,-268 1082,-298 1199,-298 1199,-268 1082,-268"/>
<text text-anchor="start" x="1090" y="-286" font-family="Helvetica,sans-Serif" font-size="10.00" fill="#000000">sddk::mdarray&lt; sirius</text>
<text text-anchor="middle" x="1140.5" y="-275" font-family="Helvetica,sans-Serif" font-size="10.00" fill="#000000">::Spline&lt; double &gt;, 1 &gt;</text>
</a>
</g>
</g>
<!-- Node3&#45;&gt;Node9 -->
<g id="edge10" class="edge">
<title>Node3&#45;&gt;Node9</title>
<path fill="none" stroke="#191970" d="M941.2995,-348.1433C978.1733,-339.2357 1023.8968,-327.2564 1064,-314 1078.0144,-309.3674 1093.1354,-303.4444 1106.2039,-298.0191"/>
<polygon fill="#191970" stroke="#191970" points="940.0569,-344.8417 931.1459,-350.5727 941.6859,-351.6496 940.0569,-344.8417"/>
</g>
<!-- Node4 -->
<g id="node4" class="node">
<title>Node4</title>
<g id="a_node4"><a xlink:href="classsirius_1_1_spline.html" target="_top" xlink:title="sirius::Spline\&lt; double \&gt;">
<polygon fill="#ffffff" stroke="#000000" points="552,-382.5 552,-401.5 672,-401.5 672,-382.5 552,-382.5"/>
<text text-anchor="middle" x="612" y="-389.5" font-family="Helvetica,sans-Serif" font-size="10.00" fill="#000000">sirius::Spline&lt; double &gt;</text>
</a>
</g>
</g>
<!-- Node4&#45;&gt;Node3 -->
<g id="edge3" class="edge">
<title>Node4&#45;&gt;Node3</title>
<path fill="none" stroke="#9a32cd" stroke-dasharray="5,2" d="M682.0791,-384.4239C722.3248,-380.073 772.3469,-374.6652 810.8069,-370.5074"/>
<polygon fill="#9a32cd" stroke="#9a32cd" points="681.6367,-380.9512 672.0708,-385.5059 682.3891,-387.9107 681.6367,-380.9512"/>
<text text-anchor="middle" x="741.5" y="-396" font-family="Helvetica,sans-Serif" font-size="10.00" fill="#000000"> raw_ptr_device_</text>
<text text-anchor="middle" x="741.5" y="-385" font-family="Helvetica,sans-Serif" font-size="10.00" fill="#000000">raw_ptr_</text>
</g>
<!-- Node5 -->
<g id="node5" class="node">
<title>Node5</title>
<g id="a_node5"><a xlink:href="classsirius_1_1_radial__grid.html" target="_top" xlink:title="Radial grid for a muffin&#45;tin or an isolated atom. ">
<polygon fill="#ffffff" stroke="#000000" points="355.5,-412.5 355.5,-431.5 451.5,-431.5 451.5,-412.5 355.5,-412.5"/>
<text text-anchor="middle" x="403.5" y="-419.5" font-family="Helvetica,sans-Serif" font-size="10.00" fill="#000000">sirius::Radial_grid</text>
</a>
</g>
</g>
<!-- Node5&#45;&gt;Node1 -->
<g id="edge26" class="edge">
<title>Node5&#45;&gt;Node1</title>
<path fill="none" stroke="#9a32cd" stroke-dasharray="5,2" d="M461.8239,-430.1724C503.56,-435.3209 561.1275,-441 612,-441 612,-441 612,-441 1140.5,-441 1229.4514,-441 1264.8453,-472.5828 1340,-425 1386.5871,-395.5042 1407.8517,-326.7501 1414.2852,-301.5107"/>
<polygon fill="#9a32cd" stroke="#9a32cd" points="462.1949,-426.6916 451.8357,-428.9132 461.3193,-433.6366 462.1949,-426.6916"/>
<text text-anchor="middle" x="871" y="-466" font-family="Helvetica,sans-Serif" font-size="10.00" fill="#000000"> grid_gmax_</text>
<text text-anchor="middle" x="871" y="-455" font-family="Helvetica,sans-Serif" font-size="10.00" fill="#000000">grid_gmax_vloc_</text>
<text text-anchor="middle" x="871" y="-444" font-family="Helvetica,sans-Serif" font-size="10.00" fill="#000000">grid_gkmax_</text>
</g>
<!-- Node5&#45;&gt;Node4 -->
<g id="edge4" class="edge">
<title>Node5&#45;&gt;Node4</title>
<path fill="none" stroke="#9a32cd" stroke-dasharray="5,2" d="M461.6758,-413.6294C489.7772,-409.586 523.4699,-404.7381 551.8287,-400.6577"/>
<polygon fill="#9a32cd" stroke="#9a32cd" points="460.9955,-410.1911 451.5959,-415.0797 461.9925,-417.1198 460.9955,-410.1911"/>
<text text-anchor="middle" x="506" y="-413" font-family="Helvetica,sans-Serif" font-size="10.00" fill="#000000"> radial_grid_</text>
</g>
<!-- Node6 -->
<g id="node6" class="node">
<title>Node6</title>
<g id="a_node6"><a xlink:href="classsddk_1_1mdarray.html" target="_top" xlink:title="sddk::mdarray\&lt; double, 1 \&gt;">
<polygon fill="#ffffff" stroke="#000000" points="144,-412.5 144,-431.5 282,-431.5 282,-412.5 144,-412.5"/>
<text text-anchor="middle" x="213" y="-419.5" font-family="Helvetica,sans-Serif" font-size="10.00" fill="#000000">sddk::mdarray&lt; double, 1 &gt;</text>
</a>
</g>
</g>
<!-- Node6&#45;&gt;Node5 -->
<g id="edge5" class="edge">
<title>Node6&#45;&gt;Node5</title>
<path fill="none" stroke="#9a32cd" stroke-dasharray="5,2" d="M292.122,-422C313.5486,-422 336.0966,-422 355.2576,-422"/>
<polygon fill="#9a32cd" stroke="#9a32cd" points="292.0443,-418.5001 282.0442,-422 292.0442,-425.5001 292.0443,-418.5001"/>
<text text-anchor="middle" x="314.5" y="-447" font-family="Helvetica,sans-Serif" font-size="10.00" fill="#000000"> dx_</text>
<text text-anchor="middle" x="314.5" y="-436" font-family="Helvetica,sans-Serif" font-size="10.00" fill="#000000">x_inv_</text>
<text text-anchor="middle" x="314.5" y="-425" font-family="Helvetica,sans-Serif" font-size="10.00" fill="#000000">x_</text>
</g>
<!-- Node7 -->
<g id="node7" class="node">
<title>Node7</title>
<g id="a_node7"><a xlink:href="classsddk_1_1mdarray__base.html" target="_top" xlink:title="sddk::mdarray_base\l\&lt; double, N \&gt;">
<polygon fill="#ffffff" stroke="#000000" points="0,-407 0,-437 107,-437 107,-407 0,-407"/>
<text text-anchor="start" x="8" y="-425" font-family="Helvetica,sans-Serif" font-size="10.00" fill="#000000">sddk::mdarray_base</text>
<text text-anchor="middle" x="53.5" y="-414" font-family="Helvetica,sans-Serif" font-size="10.00" fill="#000000">&lt; double, N &gt;</text>
</a>
</g>
</g>
<!-- Node7&#45;&gt;Node6 -->
<g id="edge6" class="edge">
<title>Node7&#45;&gt;Node6</title>
<path fill="none" stroke="#191970" d="M117.1582,-422C125.8925,-422 134.8955,-422 143.7242,-422"/>
<polygon fill="#191970" stroke="#191970" points="117.0549,-418.5001 107.0549,-422 117.0549,-425.5001 117.0549,-418.5001"/>
</g>
<!-- Node8&#45;&gt;Node1 -->
<g id="edge7" class="edge">
<title>Node8&#45;&gt;Node1</title>
<path fill="none" stroke="#9a32cd" stroke-dasharray="5,2" d="M1209.5584,-350.9936C1248.6076,-351.8247 1297.8933,-349.492 1340,-337 1364.8174,-329.6373 1390.0078,-312.5583 1404.3936,-301.6864"/>
<polygon fill="#9a32cd" stroke="#9a32cd" points="1209.4441,-347.489 1199.3476,-350.7001 1209.2428,-354.4861 1209.4441,-347.489"/>
<text text-anchor="middle" x="1278.5" y="-354" font-family="Helvetica,sans-Serif" font-size="10.00" fill="#000000"> aug_radial_integrals_</text>
</g>
<!-- Node9&#45;&gt;Node1 -->
<g id="edge9" class="edge">
<title>Node9&#45;&gt;Node1</title>
<path fill="none" stroke="#9a32cd" stroke-dasharray="5,2" d="M1162.6679,-260.8459C1176.8815,-248.2603 1196.4675,-233.7121 1217,-227 1268.9608,-210.014 1288.6881,-208.1444 1340,-227 1370.0997,-238.0607 1396.4511,-266.8008 1408.8928,-282.0921"/>
<polygon fill="#9a32cd" stroke="#9a32cd" points="1159.9352,-258.6046 1154.9534,-267.9552 1164.6789,-263.7522 1159.9352,-258.6046"/>
<text text-anchor="start" x="1229" y="-329" font-family="Helvetica,sans-Serif" font-size="10.00" fill="#000000"> theta_radial_integrals</text>
<text text-anchor="middle" x="1278.5" y="-318" font-family="Helvetica,sans-Serif" font-size="10.00" fill="#000000">_</text>
<text text-anchor="start" x="1229" y="-307" font-family="Helvetica,sans-Serif" font-size="10.00" fill="#000000">vloc_radial_integrals</text>
<text text-anchor="middle" x="1278.5" y="-296" font-family="Helvetica,sans-Serif" font-size="10.00" fill="#000000">_</text>
<text text-anchor="start" x="1229" y="-285" font-family="Helvetica,sans-Serif" font-size="10.00" fill="#000000">pseudo_core_radial</text>
<text text-anchor="middle" x="1278.5" y="-274" font-family="Helvetica,sans-Serif" font-size="10.00" fill="#000000">_integrals_</text>
<text text-anchor="start" x="1229" y="-263" font-family="Helvetica,sans-Serif" font-size="10.00" fill="#000000">vloc_dj0dq_radial</text>
<text text-anchor="middle" x="1278.5" y="-252" font-family="Helvetica,sans-Serif" font-size="10.00" fill="#000000">_integrals_</text>
<text text-anchor="start" x="1229" y="-241" font-family="Helvetica,sans-Serif" font-size="10.00" fill="#000000">pseudo_rho_radial</text>
<text text-anchor="middle" x="1278.5" y="-230" font-family="Helvetica,sans-Serif" font-size="10.00" fill="#000000">_integrals_</text>
</g>
<!-- Node10 -->
<g id="node10" class="node">
<title>Node10</title>
<g id="a_node10"><a xlink:href="classsirius_1_1_unit__cell.html" target="_top" xlink:title="sirius::Unit_cell">
<polygon fill="#ffffff" stroke="#000000" points="1098.5,-185.5 1098.5,-204.5 1182.5,-204.5 1182.5,-185.5 1098.5,-185.5"/>
<text text-anchor="middle" x="1140.5" y="-192.5" font-family="Helvetica,sans-Serif" font-size="10.00" fill="#000000">sirius::Unit_cell</text>
</a>
</g>
</g>
<!-- Node10&#45;&gt;Node1 -->
<g id="edge11" class="edge">
<title>Node10&#45;&gt;Node1</title>
<path fill="none" stroke="#9a32cd" stroke-dasharray="5,2" d="M1192.5893,-184.1885C1234.548,-178.1234 1293.9263,-175.6666 1340,-198 1377.2994,-216.0802 1402.4943,-261.9986 1412.1264,-282.2038"/>
<polygon fill="#9a32cd" stroke="#9a32cd" points="1191.9235,-180.75 1182.583,-185.7505 1193.0032,-187.6662 1191.9235,-180.75"/>
<text text-anchor="middle" x="1278.5" y="-201" font-family="Helvetica,sans-Serif" font-size="10.00" fill="#000000"> unit_cell_</text>
</g>
<!-- Node11 -->
<g id="node11" class="node">
<title>Node11</title>
<g id="a_node11"><a xlink:href="classsddk_1_1_communicator__bundle.html" target="_top" xlink:title="A bundle of MPI communicators. ">
<polygon fill="#ffffff" stroke="#000000" points="817,-236 817,-266 925,-266 925,-236 817,-236"/>
<text text-anchor="start" x="825" y="-254" font-family="Helvetica,sans-Serif" font-size="10.00" fill="#000000">sddk::Communicator</text>
<text text-anchor="middle" x="871" y="-243" font-family="Helvetica,sans-Serif" font-size="10.00" fill="#000000">_bundle</text>
</a>
</g>
</g>
<!-- Node11&#45;&gt;Node10 -->
<g id="edge12" class="edge">
<title>Node11&#45;&gt;Node10</title>
<path fill="none" stroke="#9a32cd" stroke-dasharray="5,2" d="M935.4776,-254.8341C973.6279,-255.2687 1022.4585,-252.5926 1064,-240 1088.7734,-232.4904 1113.9775,-215.4573 1128.378,-204.6343"/>
<polygon fill="#9a32cd" stroke="#9a32cd" points="935.0803,-251.326 925.0154,-254.6347 934.9469,-258.3247 935.0803,-251.326"/>
<text text-anchor="middle" x="1006.5" y="-257" font-family="Helvetica,sans-Serif" font-size="10.00" fill="#000000"> comm_bundle_atoms_</text>
</g>
<!-- Node12 -->
<g id="node12" class="node">
<title>Node12</title>
<g id="a_node12"><a xlink:href="classsddk_1_1_communicator.html" target="_top" xlink:title="MPI communicator wrapper. ">
<polygon fill="#ffffff" stroke="#000000" points="558,-278.5 558,-297.5 666,-297.5 666,-278.5 558,-278.5"/>
<text text-anchor="middle" x="612" y="-285.5" font-family="Helvetica,sans-Serif" font-size="10.00" fill="#000000">sddk::Communicator</text>
</a>
</g>
</g>
<!-- Node12&#45;&gt;Node10 -->
<g id="edge16" class="edge">
<title>Node12&#45;&gt;Node10</title>
<path fill="none" stroke="#9a32cd" stroke-dasharray="5,2" d="M672.573,-299.079C762.446,-312.5914 934.4221,-327.0568 1064,-269 1095.871,-254.7203 1122.3795,-221.1911 1134.072,-204.6188"/>
<polygon fill="#9a32cd" stroke="#9a32cd" points="672.9733,-295.5994 662.555,-297.5252 671.9004,-302.5167 672.9733,-295.5994"/>
<text text-anchor="middle" x="871" y="-314" font-family="Helvetica,sans-Serif" font-size="10.00" fill="#000000"> comm_</text>
</g>
<!-- Node12&#45;&gt;Node11 -->
<g id="edge13" class="edge">
<title>Node12&#45;&gt;Node11</title>
<path fill="none" stroke="#9a32cd" stroke-dasharray="5,2" d="M676.4181,-278.7974C719.6169,-272.6262 775.8716,-264.5898 816.7766,-258.7462"/>
<polygon fill="#9a32cd" stroke="#9a32cd" points="675.6994,-275.3645 666.2949,-280.2436 676.6894,-282.2941 675.6994,-275.3645"/>
<text text-anchor="middle" x="741.5" y="-279" font-family="Helvetica,sans-Serif" font-size="10.00" fill="#000000"> comm_</text>
</g>
<!-- Node13 -->
<g id="node13" class="node">
<title>Node13</title>
<g id="a_node13"><a xlink:href="classsddk_1_1splindex.html" target="_top" xlink:title="sddk::splindex\&lt; block \&gt;">
<polygon fill="#ffffff" stroke="#000000" points="811,-187.5 811,-206.5 931,-206.5 931,-187.5 811,-187.5"/>
<text text-anchor="middle" x="871" y="-194.5" font-family="Helvetica,sans-Serif" font-size="10.00" fill="#000000">sddk::splindex&lt; block &gt;</text>
</a>
</g>
</g>
<!-- Node13&#45;&gt;Node10 -->
<g id="edge14" class="edge">
<title>Node13&#45;&gt;Node10</title>
<path fill="none" stroke="#9a32cd" stroke-dasharray="5,2" d="M941.2374,-196.0746C943.8579,-196.048 946.4524,-196.023 949,-196 1000.3645,-195.5366 1059.4807,-195.2683 1098.2835,-195.1284"/>
<polygon fill="#9a32cd" stroke="#9a32cd" points="941.0054,-192.5768 931.0436,-196.1843 941.0807,-199.5764 941.0054,-192.5768"/>
<text text-anchor="middle" x="1006.5" y="-232" font-family="Helvetica,sans-Serif" font-size="10.00" fill="#000000"> spl_num_paw_atoms_</text>
<text text-anchor="middle" x="1006.5" y="-221" font-family="Helvetica,sans-Serif" font-size="10.00" fill="#000000">spl_num_atoms_</text>
<text text-anchor="start" x="949" y="-210" font-family="Helvetica,sans-Serif" font-size="10.00" fill="#000000">spl_num_atom_symmetry</text>
<text text-anchor="middle" x="1006.5" y="-199" font-family="Helvetica,sans-Serif" font-size="10.00" fill="#000000">_classes_</text>
</g>
<!-- Node14 -->
<g id="node14" class="node">
<title>Node14</title>
<g id="a_node14"><a xlink:href="classsddk_1_1splindex__base.html" target="_top" xlink:title="sddk::splindex_base\l\&lt; int \&gt;">
<polygon fill="#ffffff" stroke="#000000" points="558.5,-214 558.5,-244 665.5,-244 665.5,-214 558.5,-214"/>
<text text-anchor="start" x="566.5" y="-232" font-family="Helvetica,sans-Serif" font-size="10.00" fill="#000000">sddk::splindex_base</text>
<text text-anchor="middle" x="612" y="-221" font-family="Helvetica,sans-Serif" font-size="10.00" fill="#000000">&lt; int &gt;</text>
</a>
</g>
</g>
<!-- Node14&#45;&gt;Node13 -->
<g id="edge15" class="edge">
<title>Node14&#45;&gt;Node13</title>
<path fill="none" stroke="#191970" d="M675.59,-221.1433C716.7702,-216.0554 770.0743,-209.4696 810.6054,-204.4619"/>
<polygon fill="#191970" stroke="#191970" points="675.1603,-217.6697 665.665,-222.3696 676.0187,-224.6169 675.1603,-217.6697"/>
</g>
<!-- Node15 -->
<g id="node15" class="node">
<title>Node15</title>
<g id="a_node15"><a xlink:href="classsirius_1_1_simulation__parameters__base.html" target="_top" xlink:title="Base class for simulation paremeters. ">
<polygon fill="#ffffff" stroke="#000000" points="821,-113 821,-143 921,-143 921,-113 821,-113"/>
<text text-anchor="start" x="829" y="-131" font-family="Helvetica,sans-Serif" font-size="10.00" fill="#000000">sirius::Simulation</text>
<text text-anchor="middle" x="871" y="-120" font-family="Helvetica,sans-Serif" font-size="10.00" fill="#000000">_parameters_base</text>
</a>
</g>
</g>
<!-- Node15&#45;&gt;Node1 -->
<g id="edge25" class="edge">
<title>Node15&#45;&gt;Node1</title>
<path fill="none" stroke="#9a32cd" stroke-dasharray="5,2" d="M931.3281,-118.4336C1026.0433,-106.6587 1212.0132,-96.932 1340,-176 1381.6625,-201.7383 1405.354,-259.598 1413.3781,-282.4523"/>
<polygon fill="#9a32cd" stroke="#9a32cd" points="930.8137,-114.9709 921.3453,-119.7247 931.7117,-121.9131 930.8137,-114.9709"/>
<text text-anchor="middle" x="1140.5" y="-125" font-family="Helvetica,sans-Serif" font-size="10.00" fill="#000000"> param_</text>
</g>
<!-- Node15&#45;&gt;Node10 -->
<g id="edge17" class="edge">
<title>Node15&#45;&gt;Node10</title>
<path fill="none" stroke="#9a32cd" stroke-dasharray="5,2" d="M930.8725,-142.8848C983.1164,-155.8731 1057.3618,-174.3311 1102.0394,-185.4384"/>
<polygon fill="#9a32cd" stroke="#9a32cd" points="931.6083,-139.4613 921.0593,-140.4452 929.9194,-146.2545 931.6083,-139.4613"/>
<text text-anchor="middle" x="1006.5" y="-178" font-family="Helvetica,sans-Serif" font-size="10.00" fill="#000000"> parameters_</text>
</g>
<!-- Node16 -->
<g id="node16" class="node">
<title>Node16</title>
<g id="a_node16"><a xlink:href="structsirius_1_1_parameters__input.html" target="_top" xlink:title="sirius::Parameters\l_input">
<polygon fill="#ffffff" stroke="#000000" points="563.5,-165 563.5,-195 660.5,-195 660.5,-165 563.5,-165"/>
<text text-anchor="start" x="571.5" y="-183" font-family="Helvetica,sans-Serif" font-size="10.00" fill="#000000">sirius::Parameters</text>
<text text-anchor="middle" x="612" y="-172" font-family="Helvetica,sans-Serif" font-size="10.00" fill="#000000">_input</text>
</a>
</g>
</g>
<!-- Node16&#45;&gt;Node15 -->
<g id="edge18" class="edge">
<title>Node16&#45;&gt;Node15</title>
<path fill="none" stroke="#9a32cd" stroke-dasharray="5,2" d="M670.7871,-170.7686C706.3038,-164.9032 752.4057,-156.7795 793,-148 802.0181,-146.0496 811.5707,-143.7755 820.7828,-141.4743"/>
<polygon fill="#9a32cd" stroke="#9a32cd" points="669.8971,-167.3677 660.5943,-172.438 671.0285,-174.2756 669.8971,-167.3677"/>
<text text-anchor="middle" x="741.5" y="-170" font-family="Helvetica,sans-Serif" font-size="10.00" fill="#000000"> parameters_input_</text>
</g>
<!-- Node17 -->
<g id="node17" class="node">
<title>Node17</title>
<g id="a_node17"><a xlink:href="structsirius_1_1_control__input.html" target="_top" xlink:title="Parse control input section. ">
<polygon fill="#ffffff" stroke="#000000" points="559.5,-126.5 559.5,-145.5 664.5,-145.5 664.5,-126.5 559.5,-126.5"/>
<text text-anchor="middle" x="612" y="-133.5" font-family="Helvetica,sans-Serif" font-size="10.00" fill="#000000">sirius::Control_input</text>
</a>
</g>
</g>
<!-- Node17&#45;&gt;Node15 -->
<g id="edge19" class="edge">
<title>Node17&#45;&gt;Node15</title>
<path fill="none" stroke="#9a32cd" stroke-dasharray="5,2" d="M674.9304,-134.0562C719.8104,-132.6699 779.3415,-130.8311 820.9873,-129.5448"/>
<polygon fill="#9a32cd" stroke="#9a32cd" points="674.6118,-130.5643 664.7247,-134.3714 674.828,-137.5609 674.6118,-130.5643"/>
<text text-anchor="middle" x="741.5" y="-136" font-family="Helvetica,sans-Serif" font-size="10.00" fill="#000000"> control_input_</text>
</g>
<!-- Node18 -->
<g id="node18" class="node">
<title>Node18</title>
<g id="a_node18"><a xlink:href="structsirius_1_1_unit__cell__input.html" target="_top" xlink:title="Parse unit cell input section. ">
<polygon fill="#ffffff" stroke="#000000" points="556.5,-88.5 556.5,-107.5 667.5,-107.5 667.5,-88.5 556.5,-88.5"/>
<text text-anchor="middle" x="612" y="-95.5" font-family="Helvetica,sans-Serif" font-size="10.00" fill="#000000">sirius::Unit_cell_input</text>
</a>
</g>
</g>
<!-- Node18&#45;&gt;Node15 -->
<g id="edge20" class="edge">
<title>Node18&#45;&gt;Node15</title>
<path fill="none" stroke="#9a32cd" stroke-dasharray="5,2" d="M677.9502,-103.0537C712.3148,-105.9753 754.9924,-110.0543 793,-115 801.985,-116.1692 811.5216,-117.5996 820.7281,-119.0788"/>
<polygon fill="#9a32cd" stroke="#9a32cd" points="677.8237,-99.531 667.5666,-102.1845 677.2397,-106.5066 677.8237,-99.531"/>
<text text-anchor="middle" x="741.5" y="-118" font-family="Helvetica,sans-Serif" font-size="10.00" fill="#000000"> unit_cell_input_</text>
</g>
<!-- Node19 -->
<g id="node19" class="node">
<title>Node19</title>
<g id="a_node19"><a xlink:href="classgeometry3d_1_1vector3d.html" target="_top" xlink:title="geometry3d::vector3d\l\&lt; double \&gt;">
<polygon fill="#ffffff" stroke="#000000" points="347,-83 347,-113 460,-113 460,-83 347,-83"/>
<text text-anchor="start" x="355" y="-101" font-family="Helvetica,sans-Serif" font-size="10.00" fill="#000000">geometry3d::vector3d</text>
<text text-anchor="middle" x="403.5" y="-90" font-family="Helvetica,sans-Serif" font-size="10.00" fill="#000000">&lt; double &gt;</text>
</a>
</g>
</g>
<!-- Node19&#45;&gt;Node18 -->
<g id="edge21" class="edge">
<title>Node19&#45;&gt;Node18</title>
<path fill="none" stroke="#9a32cd" stroke-dasharray="5,2" d="M470.2318,-98C498.0178,-98 529.9071,-98 556.3954,-98"/>
<polygon fill="#9a32cd" stroke="#9a32cd" points="470.1982,-94.5001 460.1981,-98 470.1981,-101.5001 470.1982,-94.5001"/>
<text text-anchor="middle" x="506" y="-123" font-family="Helvetica,sans-Serif" font-size="10.00" fill="#000000"> a2_</text>
<text text-anchor="middle" x="506" y="-112" font-family="Helvetica,sans-Serif" font-size="10.00" fill="#000000">a1_</text>
<text text-anchor="middle" x="506" y="-101" font-family="Helvetica,sans-Serif" font-size="10.00" fill="#000000">a0_</text>
</g>
<!-- Node20 -->
<g id="node20" class="node">
<title>Node20</title>
<polygon fill="#ffffff" stroke="#bfbfbf" points="164.5,-83 164.5,-113 261.5,-113 261.5,-83 164.5,-83"/>
<text text-anchor="start" x="172.5" y="-101" font-family="Helvetica,sans-Serif" font-size="10.00" fill="#000000">std::array&lt; double</text>
<text text-anchor="middle" x="213" y="-90" font-family="Helvetica,sans-Serif" font-size="10.00" fill="#000000"> , 3 &gt;</text>
</g>
<!-- Node20&#45;&gt;Node19 -->
<g id="edge22" class="edge">
<title>Node20&#45;&gt;Node19</title>
<path fill="none" stroke="#191970" d="M271.5874,-98C295.5479,-98 323.1612,-98 346.9118,-98"/>
<polygon fill="#191970" stroke="#191970" points="271.5641,-94.5001 261.5641,-98 271.5641,-101.5001 271.5641,-94.5001"/>
</g>
<!-- Node21 -->
<g id="node21" class="node">
<title>Node21</title>
<g id="a_node21"><a xlink:href="structsirius_1_1_iterative__solver__input.html" target="_top" xlink:title="sirius::Iterative_solver\l_input">
<polygon fill="#ffffff" stroke="#000000" points="555.5,-39 555.5,-69 668.5,-69 668.5,-39 555.5,-39"/>
<text text-anchor="start" x="563.5" y="-57" font-family="Helvetica,sans-Serif" font-size="10.00" fill="#000000">sirius::Iterative_solver</text>
<text text-anchor="middle" x="612" y="-46" font-family="Helvetica,sans-Serif" font-size="10.00" fill="#000000">_input</text>
</a>
</g>
</g>
<!-- Node21&#45;&gt;Node15 -->
<g id="edge23" class="edge">
<title>Node21&#45;&gt;Node15</title>
<path fill="none" stroke="#9a32cd" stroke-dasharray="5,2" d="M678.8899,-62.4774C713.5328,-67.9776 756.176,-76.4966 793,-89 811.2069,-95.1821 830.5457,-104.8286 845.4124,-112.9808"/>
<polygon fill="#9a32cd" stroke="#9a32cd" points="679.2942,-58.9985 668.878,-60.936 678.2289,-65.917 679.2942,-58.9985"/>
<text text-anchor="middle" x="741.5" y="-92" font-family="Helvetica,sans-Serif" font-size="10.00" fill="#000000"> iterative_solver_input_</text>
</g>
<!-- Node22 -->
<g id="node22" class="node">
<title>Node22</title>
<g id="a_node22"><a xlink:href="structsirius_1_1_mixer__input.html" target="_top" xlink:title="sirius::Mixer_input">
<polygon fill="#ffffff" stroke="#000000" points="563.5,-.5 563.5,-19.5 660.5,-19.5 660.5,-.5 563.5,-.5"/>
<text text-anchor="middle" x="612" y="-7.5" font-family="Helvetica,sans-Serif" font-size="10.00" fill="#000000">sirius::Mixer_input</text>
</a>
</g>
</g>
<!-- Node22&#45;&gt;Node15 -->
<g id="edge24" class="edge">
<title>Node22&#45;&gt;Node15</title>
<path fill="none" stroke="#9a32cd" stroke-dasharray="5,2" d="M670.868,-14.0644C707.8088,-18.6393 755.3944,-28.3584 793,-49 821.8922,-64.8588 846.9884,-94.7797 860.4687,-112.9006"/>
<polygon fill="#9a32cd" stroke="#9a32cd" points="671.0814,-10.5661 660.7481,-12.9056 670.285,-17.5206 671.0814,-10.5661"/>
<text text-anchor="middle" x="741.5" y="-52" font-family="Helvetica,sans-Serif" font-size="10.00" fill="#000000"> mixer_input_</text>
</g>
</g>
</svg>
