<?xml version="1.0" encoding="UTF-8" standalone="no"?>
<!DOCTYPE svg PUBLIC "-//W3C//DTD SVG 1.1//EN"
 "http://www.w3.org/Graphics/SVG/1.1/DTD/svg11.dtd">
<!-- Generated by graphviz version 2.40.1 (20161225.0304)
 -->
<!-- Title: sirius::Mixer&lt; T &gt; Pages: 1 -->
<svg width="298pt" height="241pt"
 viewBox="0.00 0.00 298.00 241.00" xmlns="http://www.w3.org/2000/svg" xmlns:xlink="http://www.w3.org/1999/xlink">
<g id="graph0" class="graph" transform="scale(1 1) rotate(0) translate(4 237)">
<title>sirius::Mixer&lt; T &gt;</title>
<polygon fill="#ffffff" stroke="transparent" points="-4,4 -4,-237 294,-237 294,4 -4,4"/>
<!-- Node4 -->
<g id="node1" class="node">
<title>Node4</title>
<polygon fill="#bfbfbf" stroke="#000000" points="94.5,-.5 94.5,-19.5 187.5,-19.5 187.5,-.5 94.5,-.5"/>
<text text-anchor="middle" x="141" y="-7.5" font-family="Helvetica,sans-Serif" font-size="10.00" fill="#000000">sirius::Mixer&lt; T &gt;</text>
</g>
<!-- Node5 -->
<g id="node2" class="node">
<title>Node5</title>
<g id="a_node2"><a xlink:href="classsddk_1_1mdarray.html" target="_top" xlink:title="sddk::mdarray\&lt; double, 1 \&gt;">
<polygon fill="#ffffff" stroke="#000000" points="0,-67.5 0,-86.5 138,-86.5 138,-67.5 0,-67.5"/>
<text text-anchor="middle" x="69" y="-74.5" font-family="Helvetica,sans-Serif" font-size="10.00" fill="#000000">sddk::mdarray&lt; double, 1 &gt;</text>
</a>
</g>
</g>
<!-- Node5&#45;&gt;Node4 -->
<g id="edge1" class="edge">
<title>Node5&#45;&gt;Node4</title>
<path fill="none" stroke="#9a32cd" stroke-dasharray="5,2" d="M86.7958,-60.44C100.607,-47.5879 119.2697,-30.2212 130.7033,-19.5817"/>
<polygon fill="#9a32cd" stroke="#9a32cd" points="84.2522,-58.0259 79.3158,-67.4005 89.0209,-63.1504 84.2522,-58.0259"/>
<text text-anchor="middle" x="130.5" y="-41" font-family="Helvetica,sans-Serif" font-size="10.00" fill="#000000"> weights_</text>
</g>
<!-- Node6 -->
<g id="node3" class="node">
<title>Node6</title>
<g id="a_node3"><a xlink:href="classsddk_1_1mdarray__base.html" target="_top" xlink:title="sddk::mdarray_base\l\&lt; double, N \&gt;">
<polygon fill="#ffffff" stroke="#000000" points="15.5,-124.5 15.5,-154.5 122.5,-154.5 122.5,-124.5 15.5,-124.5"/>
<text text-anchor="start" x="23.5" y="-142.5" font-family="Helvetica,sans-Serif" font-size="10.00" fill="#000000">sddk::mdarray_base</text>
<text text-anchor="middle" x="69" y="-131.5" font-family="Helvetica,sans-Serif" font-size="10.00" fill="#000000">&lt; double, N &gt;</text>
</a>
</g>
</g>
<!-- Node6&#45;&gt;Node5 -->
<g id="edge2" class="edge">
<title>Node6&#45;&gt;Node5</title>
<path fill="none" stroke="#191970" d="M69,-114.3498C69,-104.6481 69,-94.1303 69,-86.7356"/>
<polygon fill="#191970" stroke="#191970" points="65.5001,-114.3705 69,-124.3705 72.5001,-114.3705 65.5001,-114.3705"/>
</g>
<!-- Node7 -->
<g id="node4" class="node">
<title>Node7</title>
<g id="a_node4"><a xlink:href="classsddk_1_1mdarray.html" target="_top" xlink:title="sddk::mdarray\&lt; T, 2 \&gt;">
<polygon fill="#ffffff" stroke="#000000" points="156,-67.5 156,-86.5 270,-86.5 270,-67.5 156,-67.5"/>
<text text-anchor="middle" x="213" y="-74.5" font-family="Helvetica,sans-Serif" font-size="10.00" fill="#000000">sddk::mdarray&lt; T, 2 &gt;</text>
</a>
</g>
</g>
<!-- Node7&#45;&gt;Node4 -->
<g id="edge3" class="edge">
<title>Node7&#45;&gt;Node4</title>
<path fill="none" stroke="#9a32cd" stroke-dasharray="5,2" d="M195.2042,-60.44C181.393,-47.5879 162.7303,-30.2212 151.2967,-19.5817"/>
<polygon fill="#9a32cd" stroke="#9a32cd" points="192.9791,-63.1504 202.6842,-67.4005 197.7478,-58.0259 192.9791,-63.1504"/>
<text text-anchor="middle" x="201.5" y="-41" font-family="Helvetica,sans-Serif" font-size="10.00" fill="#000000"> vectors_</text>
</g>
<!-- Node8 -->
<g id="node5" class="node">
<title>Node8</title>
<g id="a_node5"><a xlink:href="classsddk_1_1mdarray__base.html" target="_top" xlink:title="Base class of multidimensional array. ">
<polygon fill="#ffffff" stroke="#000000" points="159.5,-124.5 159.5,-154.5 266.5,-154.5 266.5,-124.5 159.5,-124.5"/>
<text text-anchor="start" x="167.5" y="-142.5" font-family="Helvetica,sans-Serif" font-size="10.00" fill="#000000">sddk::mdarray_base</text>
<text text-anchor="middle" x="213" y="-131.5" font-family="Helvetica,sans-Serif" font-size="10.00" fill="#000000">&lt; T, N &gt;</text>
</a>
</g>
</g>
<!-- Node8&#45;&gt;Node7 -->
<g id="edge4" class="edge">
<title>Node8&#45;&gt;Node7</title>
<path fill="none" stroke="#191970" d="M213,-114.3498C213,-104.6481 213,-94.1303 213,-86.7356"/>
<polygon fill="#191970" stroke="#191970" points="209.5001,-114.3705 213,-124.3705 216.5001,-114.3705 209.5001,-114.3705"/>
</g>
<!-- Node9 -->
<g id="node6" class="node">
<title>Node9</title>
<polygon fill="#ffffff" stroke="#bfbfbf" points="198.5,-213.5 198.5,-232.5 227.5,-232.5 227.5,-213.5 198.5,-213.5"/>
<text text-anchor="middle" x="213" y="-220.5" font-family="Helvetica,sans-Serif" font-size="10.00" fill="#000000">T</text>
</g>
<!-- Node9&#45;&gt;Node8 -->
<g id="edge5" class="edge">
<title>Node9&#45;&gt;Node8</title>
<path fill="none" stroke="#9a32cd" stroke-dasharray="5,2" d="M213,-203.2427C213,-188.345 213,-168.2186 213,-154.597"/>
<polygon fill="#9a32cd" stroke="#9a32cd" points="209.5001,-203.4215 213,-213.4215 216.5001,-203.4215 209.5001,-203.4215"/>
<text text-anchor="middle" x="251.5" y="-187" font-family="Helvetica,sans-Serif" font-size="10.00" fill="#000000"> raw_ptr_device_</text>
<text text-anchor="middle" x="251.5" y="-176" font-family="Helvetica,sans-Serif" font-size="10.00" fill="#000000">raw_ptr_</text>
</g>
</g>
</svg>
