<?xml version="1.0" encoding="UTF-8" standalone="no"?>
<!DOCTYPE svg PUBLIC "-//W3C//DTD SVG 1.1//EN"
 "http://www.w3.org/Graphics/SVG/1.1/DTD/svg11.dtd">
<!-- Generated by graphviz version 2.40.1 (20161225.0304)
 -->
<!-- Title: descriptors.h Pages: 1 -->
<svg width="1225pt" height="1103pt"
 viewBox="0.00 0.00 1224.80 1103.00" xmlns="http://www.w3.org/2000/svg" xmlns:xlink="http://www.w3.org/1999/xlink">
<g id="graph0" class="graph" transform="scale(1 1) rotate(0) translate(4 1099)">
<title>descriptors.h</title>
<polygon fill="#ffffff" stroke="transparent" points="-4,4 -4,-1099 1220.8021,-1099 1220.8021,4 -4,4"/>
<!-- Node74 -->
<g id="node1" class="node">
<title>Node74</title>
<polygon fill="#bfbfbf" stroke="#000000" points="383.5,-1075.5 383.5,-1094.5 457.5,-1094.5 457.5,-1075.5 383.5,-1075.5"/>
<text text-anchor="middle" x="420.5" y="-1082.5" font-family="Helvetica,sans-Serif" font-size="10.00" fill="#000000">descriptors.h</text>
</g>
<!-- Node75 -->
<g id="node2" class="node">
<title>Node75</title>
<g id="a_node2"><a xlink:href="atom__type_8h.html" target="_top" xlink:title="Contains definition of sirius::radial_functions_index and sirius::basis_functions_index classes and d...">
<polygon fill="#ffffff" stroke="#000000" points="320.5,-1019.5 320.5,-1038.5 392.5,-1038.5 392.5,-1019.5 320.5,-1019.5"/>
<text text-anchor="middle" x="356.5" y="-1026.5" font-family="Helvetica,sans-Serif" font-size="10.00" fill="#000000">atom_type.h</text>
</a>
</g>
</g>
<!-- Node74&#45;&gt;Node75 -->
<g id="edge1" class="edge">
<title>Node74&#45;&gt;Node75</title>
<path fill="none" stroke="#191970" d="M401.8086,-1068.645C390.6781,-1058.9058 376.9337,-1046.8795 367.5202,-1038.6427"/>
<polygon fill="#191970" stroke="#191970" points="399.5215,-1071.2945 409.3521,-1075.2455 404.131,-1066.0264 399.5215,-1071.2945"/>
</g>
<!-- Node77 -->
<g id="node4" class="node">
<title>Node77</title>
<g id="a_node4"><a xlink:href="unit__cell_8h.html" target="_top" xlink:title="Contains definition and partial implementation of sirius::Unit_cell class. ">
<polygon fill="#ffffff" stroke="#000000" points="342.5,-851.5 342.5,-870.5 404.5,-870.5 404.5,-851.5 342.5,-851.5"/>
<text text-anchor="middle" x="373.5" y="-858.5" font-family="Helvetica,sans-Serif" font-size="10.00" fill="#000000">unit_cell.h</text>
</a>
</g>
</g>
<!-- Node74&#45;&gt;Node77 -->
<g id="edge74" class="edge">
<title>Node74&#45;&gt;Node77</title>
<path fill="none" stroke="#191970" d="M416.39,-1065.4119C406.6845,-1019.1557 382.626,-904.494 375.512,-870.5891"/>
<polygon fill="#191970" stroke="#191970" points="413.0015,-1066.3069 418.4805,-1075.375 419.8523,-1064.8694 413.0015,-1066.3069"/>
</g>
<!-- Node86 -->
<g id="node13" class="node">
<title>Node86</title>
<g id="a_node13"><a xlink:href="sirius_8h.html" target="_top" xlink:title="&quot;All&#45;in&#45;one&quot; include file. ">
<polygon fill="#ffffff" stroke="#000000" points="363.5,-56.5 363.5,-75.5 411.5,-75.5 411.5,-56.5 363.5,-56.5"/>
<text text-anchor="middle" x="387.5" y="-63.5" font-family="Helvetica,sans-Serif" font-size="10.00" fill="#000000">sirius.h</text>
</a>
</g>
</g>
<!-- Node74&#45;&gt;Node86 -->
<g id="edge75" class="edge">
<title>Node74&#45;&gt;Node86</title>
<path fill="none" stroke="#191970" d="M468.0682,-1082.9455C633.1769,-1075.1905 1171.5,-1044.4292 1171.5,-973 1171.5,-973 1171.5,-973 1171.5,-178 1171.5,-167.0618 1344.9359,-190.6124 1010.5,-112 893.4419,-84.4844 511.7276,-70.1226 411.6845,-66.7723"/>
<polygon fill="#191970" stroke="#191970" points="467.5697,-1079.4647 457.7422,-1083.4232 467.8933,-1086.4572 467.5697,-1079.4647"/>
</g>
<!-- Node76 -->
<g id="node3" class="node">
<title>Node76</title>
<g id="a_node3"><a xlink:href="atom_8h.html" target="_top" xlink:title="Contains declaration and partial implementation of sirius::Atom class. ">
<polygon fill="#ffffff" stroke="#000000" points="0,-907.5 0,-926.5 47,-926.5 47,-907.5 0,-907.5"/>
<text text-anchor="middle" x="23.5" y="-914.5" font-family="Helvetica,sans-Serif" font-size="10.00" fill="#000000">atom.h</text>
</a>
</g>
</g>
<!-- Node75&#45;&gt;Node76 -->
<g id="edge2" class="edge">
<title>Node75&#45;&gt;Node76</title>
<path fill="none" stroke="#191970" d="M310.2822,-1021.882C268.5257,-1014.6684 205.7844,-1001.8669 153.5,-983 110.406,-967.4494 63.2635,-940.8954 39.3397,-926.6711"/>
<polygon fill="#191970" stroke="#191970" points="309.7218,-1025.3368 320.1653,-1023.5526 310.8886,-1018.4347 309.7218,-1025.3368"/>
</g>
<!-- Node75&#45;&gt;Node77 -->
<g id="edge72" class="edge">
<title>Node75&#45;&gt;Node77</title>
<path fill="none" stroke="#191970" d="M358.4975,-1009.2601C362.1498,-973.1669 369.7797,-897.7656 372.5055,-870.8279"/>
<polygon fill="#191970" stroke="#191970" points="354.9873,-1009.1846 357.4627,-1019.4862 361.9518,-1009.8894 354.9873,-1009.1846"/>
</g>
<!-- Node75&#45;&gt;Node86 -->
<g id="edge73" class="edge">
<title>Node75&#45;&gt;Node86</title>
<path fill="none" stroke="#191970" d="M402.8914,-1027.2344C570.3063,-1020.256 1133.5,-991.2613 1133.5,-917 1133.5,-917 1133.5,-917 1133.5,-178 1133.5,-103.2679 540.4648,-72.7635 411.8966,-67.0284"/>
<polygon fill="#191970" stroke="#191970" points="402.5239,-1023.7465 392.6757,-1027.6533 402.8107,-1030.7406 402.5239,-1023.7465"/>
</g>
<!-- Node104 -->
<g id="node31" class="node">
<title>Node104</title>
<g id="a_node31"><a xlink:href="atom__symmetry__class_8h.html" target="_top" xlink:title="Contains declaration and partial implementation of sirius::Atom_symmetry_class class. ">
<polygon fill="#ffffff" stroke="#000000" points="162.5,-963.5 162.5,-982.5 286.5,-982.5 286.5,-963.5 162.5,-963.5"/>
<text text-anchor="middle" x="224.5" y="-970.5" font-family="Helvetica,sans-Serif" font-size="10.00" fill="#000000">atom_symmetry_class.h</text>
</a>
</g>
</g>
<!-- Node75&#45;&gt;Node104 -->
<g id="edge68" class="edge">
<title>Node75&#45;&gt;Node104</title>
<path fill="none" stroke="#191970" d="M324.4035,-1015.3833C300.3965,-1005.1985 268.1741,-991.5284 246.8955,-982.5011"/>
<polygon fill="#191970" stroke="#191970" points="323.2356,-1018.6897 333.8084,-1019.3733 325.9695,-1012.2457 323.2356,-1018.6897"/>
</g>
<!-- Node76&#45;&gt;Node77 -->
<g id="edge3" class="edge">
<title>Node76&#45;&gt;Node77</title>
<path fill="none" stroke="#191970" d="M57.1223,-911.6204C124.8058,-900.7911 276.6173,-876.5012 342.2667,-865.9973"/>
<polygon fill="#191970" stroke="#191970" points="56.3294,-908.2027 47.008,-913.2387 57.4354,-915.1148 56.3294,-908.2027"/>
</g>
<!-- Node76&#45;&gt;Node86 -->
<g id="edge67" class="edge">
<title>Node76&#45;&gt;Node86</title>
<path fill="none" stroke="#191970" d="M23.5,-897.1952C23.5,-874.8128 23.5,-837.2884 23.5,-805 23.5,-805 23.5,-805 23.5,-178 23.5,-146.7875 23.1957,-131.5838 47.5,-112 72.1114,-92.1688 289.6313,-73.6009 363.2601,-67.8337"/>
<polygon fill="#191970" stroke="#191970" points="20.0001,-897.4116 23.5,-907.4116 27.0001,-897.4117 20.0001,-897.4116"/>
</g>
<!-- Node78 -->
<g id="node5" class="node">
<title>Node78</title>
<g id="a_node5"><a xlink:href="radial__integrals_8h.html" target="_top" xlink:title="Representation of various radial integrals. ">
<polygon fill="#ffffff" stroke="#000000" points="482,-739.5 482,-758.5 575,-758.5 575,-739.5 482,-739.5"/>
<text text-anchor="middle" x="528.5" y="-746.5" font-family="Helvetica,sans-Serif" font-size="10.00" fill="#000000">radial_integrals.h</text>
</a>
</g>
</g>
<!-- Node77&#45;&gt;Node78 -->
<g id="edge4" class="edge">
<title>Node77&#45;&gt;Node78</title>
<path fill="none" stroke="#191970" d="M395.1167,-845.3802C427.7403,-821.807 488.5794,-777.8459 515.3182,-758.5249"/>
<polygon fill="#191970" stroke="#191970" points="392.7707,-842.7572 386.7152,-851.4509 396.8705,-848.431 392.7707,-842.7572"/>
</g>
<!-- Node77&#45;&gt;Node86 -->
<g id="edge66" class="edge">
<title>Node77&#45;&gt;Node86</title>
<path fill="none" stroke="#191970" d="M332.0812,-853.0404C255.5003,-837.1318 99.5,-798.6337 99.5,-749 99.5,-749 99.5,-749 99.5,-178 99.5,-138.9495 123.6815,-131.5256 157.5,-112 192.501,-91.7916 311.5061,-75.2654 363.1997,-68.861"/>
<polygon fill="#191970" stroke="#191970" points="331.8374,-856.5628 342.3355,-855.1341 333.2378,-849.7043 331.8374,-856.5628"/>
</g>
<!-- Node99 -->
<g id="node26" class="node">
<title>Node99</title>
<g id="a_node26"><a xlink:href="sbessel_8h.html" target="_top" xlink:title="Contains implementation of sirius::Spherical_Bessel_functions and sirius::sbessel_approx classes...">
<polygon fill="#ffffff" stroke="#000000" points="499,-795.5 499,-814.5 558,-814.5 558,-795.5 499,-795.5"/>
<text text-anchor="middle" x="528.5" y="-802.5" font-family="Helvetica,sans-Serif" font-size="10.00" fill="#000000">sbessel.h</text>
</a>
</g>
</g>
<!-- Node77&#45;&gt;Node99 -->
<g id="edge55" class="edge">
<title>Node77&#45;&gt;Node99</title>
<path fill="none" stroke="#191970" d="M409.6949,-847.9231C438.0297,-837.686 476.7718,-823.6889 502.2022,-814.5011"/>
<polygon fill="#191970" stroke="#191970" points="408.3612,-844.6835 400.1454,-851.3733 410.7398,-851.267 408.3612,-844.6835"/>
</g>
<!-- Node100 -->
<g id="node27" class="node">
<title>Node100</title>
<g id="a_node27"><a xlink:href="beta__projectors_8h.html" target="_top" xlink:title="Contains declaration and implementation of sirius::Beta_projectors class. ">
<polygon fill="#ffffff" stroke="#000000" points="931.5,-504.5 931.5,-523.5 1025.5,-523.5 1025.5,-504.5 931.5,-504.5"/>
<text text-anchor="middle" x="978.5" y="-511.5" font-family="Helvetica,sans-Serif" font-size="10.00" fill="#000000">beta_projectors.h</text>
</a>
</g>
</g>
<!-- Node77&#45;&gt;Node100 -->
<g id="edge63" class="edge">
<title>Node77&#45;&gt;Node100</title>
<path fill="none" stroke="#191970" d="M414.8762,-857.7498C551.4886,-846.4719 979.5,-806.546 979.5,-749 979.5,-749 979.5,-749 979.5,-626 979.5,-588.0818 978.9198,-542.9455 978.6433,-523.5881"/>
<polygon fill="#191970" stroke="#191970" points="414.4868,-854.2699 404.8051,-858.5727 415.057,-861.2466 414.4868,-854.2699"/>
</g>
<!-- Node102 -->
<g id="node29" class="node">
<title>Node102</title>
<g id="a_node29"><a xlink:href="real__space__prj_8h_source.html" target="_top" xlink:title="real_space_prj.h">
<polygon fill="#ffffff" stroke="#000000" points="328.5,-795.5 328.5,-814.5 418.5,-814.5 418.5,-795.5 328.5,-795.5"/>
<text text-anchor="middle" x="373.5" y="-802.5" font-family="Helvetica,sans-Serif" font-size="10.00" fill="#000000">real_space_prj.h</text>
</a>
</g>
</g>
<!-- Node77&#45;&gt;Node102 -->
<g id="edge64" class="edge">
<title>Node77&#45;&gt;Node102</title>
<path fill="none" stroke="#191970" d="M373.5,-841.1575C373.5,-832.155 373.5,-821.9199 373.5,-814.6427"/>
<polygon fill="#191970" stroke="#191970" points="370.0001,-841.2455 373.5,-851.2455 377.0001,-841.2456 370.0001,-841.2455"/>
</g>
<!-- Node79 -->
<g id="node6" class="node">
<title>Node79</title>
<g id="a_node6"><a xlink:href="augmentation__operator_8h.html" target="_top" xlink:title="Contains implementation of sirius::Augmentation_operator class. ">
<polygon fill="#ffffff" stroke="#000000" points="558.5,-616.5 558.5,-635.5 686.5,-635.5 686.5,-616.5 558.5,-616.5"/>
<text text-anchor="middle" x="622.5" y="-623.5" font-family="Helvetica,sans-Serif" font-size="10.00" fill="#000000">augmentation_operator.h</text>
</a>
</g>
</g>
<!-- Node78&#45;&gt;Node79 -->
<g id="edge5" class="edge">
<title>Node78&#45;&gt;Node79</title>
<path fill="none" stroke="#191970" d="M541.9974,-731.3386C562.1458,-704.9741 599.4021,-656.2238 615.1582,-635.6068"/>
<polygon fill="#191970" stroke="#191970" points="539.1673,-729.2777 535.876,-739.3484 544.7291,-733.5282 539.1673,-729.2777"/>
</g>
<!-- Node80 -->
<g id="node7" class="node">
<title>Node80</title>
<g id="a_node7"><a xlink:href="simulation__context_8h.html" target="_top" xlink:title="Contains definition and implementation of Simulation_parameters and Simulation_context classes...">
<polygon fill="#ffffff" stroke="#000000" points="477.5,-560.5 477.5,-579.5 585.5,-579.5 585.5,-560.5 477.5,-560.5"/>
<text text-anchor="middle" x="531.5" y="-567.5" font-family="Helvetica,sans-Serif" font-size="10.00" fill="#000000">simulation_context.h</text>
</a>
</g>
</g>
<!-- Node78&#45;&gt;Node80 -->
<g id="edge54" class="edge">
<title>Node78&#45;&gt;Node80</title>
<path fill="none" stroke="#191970" d="M528.8353,-728.9935C529.4787,-690.602 530.8648,-607.8992 531.3379,-579.6714"/>
<polygon fill="#191970" stroke="#191970" points="525.3295,-729.3189 528.6613,-739.3762 532.3285,-729.4363 525.3295,-729.3189"/>
</g>
<!-- Node97 -->
<g id="node24" class="node">
<title>Node97</title>
<g id="a_node24"><a xlink:href="simulation__context__base_8h.html" target="_top" xlink:title="Contains definition and implementation of Simulation_context_base class. ">
<polygon fill="#ffffff" stroke="#000000" points="403,-672.5 403,-702.5 502,-702.5 502,-672.5 403,-672.5"/>
<text text-anchor="start" x="411" y="-690.5" font-family="Helvetica,sans-Serif" font-size="10.00" fill="#000000">simulation_context</text>
<text text-anchor="middle" x="452.5" y="-679.5" font-family="Helvetica,sans-Serif" font-size="10.00" fill="#000000">_base.h</text>
</a>
</g>
</g>
<!-- Node78&#45;&gt;Node97 -->
<g id="edge50" class="edge">
<title>Node78&#45;&gt;Node97</title>
<path fill="none" stroke="#191970" d="M508.7752,-733.0385C497.1455,-723.6276 482.5183,-711.7911 471.0917,-702.5446"/>
<polygon fill="#191970" stroke="#191970" points="506.6496,-735.8209 516.625,-739.3906 511.053,-730.3793 506.6496,-735.8209"/>
</g>
<!-- Node79&#45;&gt;Node80 -->
<g id="edge6" class="edge">
<title>Node79&#45;&gt;Node80</title>
<path fill="none" stroke="#191970" d="M597.7496,-610.769C581.6242,-600.8456 561.074,-588.1994 547.1693,-579.6427"/>
<polygon fill="#191970" stroke="#191970" points="596.2981,-613.9853 606.649,-616.2455 599.9668,-608.0237 596.2981,-613.9853"/>
</g>
<!-- Node93 -->
<g id="node20" class="node">
<title>Node93</title>
<g id="a_node20"><a xlink:href="_forces___p_s_8h_source.html" target="_top" xlink:title="Forces_PS.h">
<polygon fill="#ffffff" stroke="#000000" points="753.5,-224.5 753.5,-243.5 827.5,-243.5 827.5,-224.5 753.5,-224.5"/>
<text text-anchor="middle" x="790.5" y="-231.5" font-family="Helvetica,sans-Serif" font-size="10.00" fill="#000000">Forces_PS.h</text>
</a>
</g>
</g>
<!-- Node79&#45;&gt;Node93 -->
<g id="edge49" class="edge">
<title>Node79&#45;&gt;Node93</title>
<path fill="none" stroke="#191970" d="M683.508,-614.4472C766.1561,-597.0224 903.5,-560.996 903.5,-514 903.5,-514 903.5,-514 903.5,-346 903.5,-295.1762 845.124,-259.5522 812.2875,-243.534"/>
<polygon fill="#191970" stroke="#191970" points="682.7934,-611.0208 673.713,-616.4794 684.2155,-617.8748 682.7934,-611.0208"/>
</g>
<!-- Node81 -->
<g id="node8" class="node">
<title>Node81</title>
<g id="a_node8"><a xlink:href="periodic__function_8h.html" target="_top" xlink:title="Contains declaration and partial implementation of sirius::Periodic_function class. ">
<polygon fill="#ffffff" stroke="#000000" points="325.5,-504.5 325.5,-523.5 425.5,-523.5 425.5,-504.5 325.5,-504.5"/>
<text text-anchor="middle" x="375.5" y="-511.5" font-family="Helvetica,sans-Serif" font-size="10.00" fill="#000000">periodic_function.h</text>
</a>
</g>
</g>
<!-- Node80&#45;&gt;Node81 -->
<g id="edge7" class="edge">
<title>Node80&#45;&gt;Node81</title>
<path fill="none" stroke="#191970" d="M495.0716,-556.9231C466.5539,-546.686 427.5619,-532.6889 401.9674,-523.5011"/>
<polygon fill="#191970" stroke="#191970" points="494.0881,-560.2887 504.6826,-560.3733 496.4532,-553.7004 494.0881,-560.2887"/>
</g>
<!-- Node91 -->
<g id="node18" class="node">
<title>Node91</title>
<g id="a_node18"><a xlink:href="density_8h.html" target="_top" xlink:title="Contains definition and partial implementation of sirius::Density class. ">
<polygon fill="#ffffff" stroke="#000000" points="541,-336.5 541,-355.5 598,-355.5 598,-336.5 541,-336.5"/>
<text text-anchor="middle" x="569.5" y="-343.5" font-family="Helvetica,sans-Serif" font-size="10.00" fill="#000000">density.h</text>
</a>
</g>
</g>
<!-- Node80&#45;&gt;Node91 -->
<g id="edge45" class="edge">
<title>Node80&#45;&gt;Node91</title>
<path fill="none" stroke="#191970" d="M551.939,-553.8929C573.2286,-535.6823 605.2839,-503.8603 618.5,-468 634.0494,-425.8087 596.6506,-376.3067 578.5861,-355.7304"/>
<polygon fill="#191970" stroke="#191970" points="549.5566,-551.3218 544.0992,-560.403 554.0285,-556.7071 549.5566,-551.3218"/>
</g>
<!-- Node92 -->
<g id="node19" class="node">
<title>Node92</title>
<g id="a_node19"><a xlink:href="potential_8h.html" target="_top" xlink:title="Contains declaration and partial implementation of sirius::Potential class. ">
<polygon fill="#ffffff" stroke="#000000" points="394,-280.5 394,-299.5 457,-299.5 457,-280.5 394,-280.5"/>
<text text-anchor="middle" x="425.5" y="-287.5" font-family="Helvetica,sans-Serif" font-size="10.00" fill="#000000">potential.h</text>
</a>
</g>
</g>
<!-- Node80&#45;&gt;Node92 -->
<g id="edge44" class="edge">
<title>Node80&#45;&gt;Node92</title>
<path fill="none" stroke="#191970" d="M523.6855,-551.0846C515.2977,-530.6613 501.6723,-497.136 490.5,-468 466.0001,-404.1069 438.4024,-326.5323 428.9146,-299.688"/>
<polygon fill="#191970" stroke="#191970" points="520.5095,-552.5639 527.5537,-560.4778 526.9821,-549.8984 520.5095,-552.5639"/>
</g>
<!-- Node80&#45;&gt;Node93 -->
<g id="edge48" class="edge">
<title>Node80&#45;&gt;Node93</title>
<path fill="none" stroke="#191970" d="M595.5346,-561.811C692.523,-547.5925 865.5,-514.3371 865.5,-458 865.5,-458 865.5,-458 865.5,-346 865.5,-301.5372 824.1868,-261.3795 802.8847,-243.6286"/>
<polygon fill="#191970" stroke="#191970" points="594.934,-558.3613 585.5341,-563.2492 595.9305,-565.29 594.934,-558.3613"/>
</g>
<!-- Node96 -->
<g id="node23" class="node">
<title>Node96</title>
<g id="a_node23"><a xlink:href="non__local__operator_8h.html" target="_top" xlink:title="Contains declaration and implementation of sirius::Non_local_operator class. ">
<polygon fill="#ffffff" stroke="#000000" points="499.5,-448.5 499.5,-467.5 609.5,-467.5 609.5,-448.5 499.5,-448.5"/>
<text text-anchor="middle" x="554.5" y="-455.5" font-family="Helvetica,sans-Serif" font-size="10.00" fill="#000000">non_local_operator.h</text>
</a>
</g>
</g>
<!-- Node80&#45;&gt;Node96 -->
<g id="edge46" class="edge">
<title>Node80&#45;&gt;Node96</title>
<path fill="none" stroke="#191970" d="M535.4842,-550.5987C540.4612,-526.363 548.7798,-485.8551 552.544,-467.5249"/>
<polygon fill="#191970" stroke="#191970" points="532.0442,-549.9513 533.461,-560.4509 538.9011,-551.3594 532.0442,-549.9513"/>
</g>
<!-- Node82 -->
<g id="node9" class="node">
<title>Node82</title>
<g id="a_node9"><a xlink:href="band_8h.html" target="_top" xlink:title="Contains declaration and partial implementation of sirius::Band class. ">
<polygon fill="#ffffff" stroke="#000000" points="282,-224.5 282,-243.5 329,-243.5 329,-224.5 282,-224.5"/>
<text text-anchor="middle" x="305.5" y="-231.5" font-family="Helvetica,sans-Serif" font-size="10.00" fill="#000000">band.h</text>
</a>
</g>
</g>
<!-- Node81&#45;&gt;Node82 -->
<g id="edge8" class="edge">
<title>Node81&#45;&gt;Node82</title>
<path fill="none" stroke="#191970" d="M370.6155,-494.4621C356.8275,-439.31 317.9561,-283.8245 307.8994,-243.5977"/>
<polygon fill="#191970" stroke="#191970" points="367.2695,-495.5092 373.0904,-504.3618 374.0605,-493.8114 367.2695,-495.5092"/>
</g>
<!-- Node81&#45;&gt;Node86 -->
<g id="edge43" class="edge">
<title>Node81&#45;&gt;Node86</title>
<path fill="none" stroke="#191970" d="M315.3091,-506.0425C256.4132,-494.4785 175.5,-466.7998 175.5,-402 175.5,-402 175.5,-402 175.5,-178 175.5,-93.9152 307.4954,-72.7933 363.1809,-67.6239"/>
<polygon fill="#191970" stroke="#191970" points="314.8194,-509.5112 325.2897,-507.8917 316.0947,-502.6284 314.8194,-509.5112"/>
</g>
<!-- Node89 -->
<g id="node16" class="node">
<title>Node89</title>
<g id="a_node16"><a xlink:href="k__point_8h.html" target="_top" xlink:title="Contains definition and partial implementation of sirius::K_point class. ">
<polygon fill="#ffffff" stroke="#000000" points="666,-448.5 666,-467.5 723,-467.5 723,-448.5 666,-448.5"/>
<text text-anchor="middle" x="694.5" y="-455.5" font-family="Helvetica,sans-Serif" font-size="10.00" fill="#000000">k_point.h</text>
</a>
</g>
</g>
<!-- Node81&#45;&gt;Node89 -->
<g id="edge17" class="edge">
<title>Node81&#45;&gt;Node89</title>
<path fill="none" stroke="#191970" d="M435.9646,-503.3855C504.8301,-491.2963 614.4561,-472.0516 665.9793,-463.0068"/>
<polygon fill="#191970" stroke="#191970" points="434.9389,-500.012 425.6947,-505.1884 436.1493,-506.9066 434.9389,-500.012"/>
</g>
<!-- Node81&#45;&gt;Node91 -->
<g id="edge39" class="edge">
<title>Node81&#45;&gt;Node91</title>
<path fill="none" stroke="#191970" d="M385.2779,-495.4265C393.2593,-481.3746 405.4816,-462.1476 419.5,-448 460.5069,-406.6151 520.5808,-371.7767 550.7489,-355.6355"/>
<polygon fill="#191970" stroke="#191970" points="382.2046,-493.7517 380.4599,-504.2019 388.3406,-497.1206 382.2046,-493.7517"/>
</g>
<!-- Node81&#45;&gt;Node92 -->
<g id="edge38" class="edge">
<title>Node81&#45;&gt;Node92</title>
<path fill="none" stroke="#191970" d="M379.8723,-494.4119C390.1974,-448.1557 415.7915,-333.494 423.3596,-299.5891"/>
<polygon fill="#191970" stroke="#191970" points="376.4111,-493.8527 377.6484,-504.375 383.243,-495.3777 376.4111,-493.8527"/>
</g>
<!-- Node81&#45;&gt;Node93 -->
<g id="edge42" class="edge">
<title>Node81&#45;&gt;Node93</title>
<path fill="none" stroke="#191970" d="M396.8639,-498.4708C419.1121,-483.109 455.5365,-460.1817 490.5,-448 591.9398,-412.657 647.0003,-480.7965 729.5,-412 782.9385,-367.4376 789.6808,-273.8047 790.4381,-243.6071"/>
<polygon fill="#191970" stroke="#191970" points="394.6824,-495.726 388.5161,-504.3416 398.7093,-501.4518 394.6824,-495.726"/>
</g>
<!-- Node95 -->
<g id="node22" class="node">
<title>Node95</title>
<g id="a_node22"><a xlink:href="local__operator_8h.html" target="_top" xlink:title="Contains declaration and implementation of sirius::Local_operator class. ">
<polygon fill="#ffffff" stroke="#000000" points="203.5,-336.5 203.5,-355.5 291.5,-355.5 291.5,-336.5 203.5,-336.5"/>
<text text-anchor="middle" x="247.5" y="-343.5" font-family="Helvetica,sans-Serif" font-size="10.00" fill="#000000">local_operator.h</text>
</a>
</g>
</g>
<!-- Node81&#45;&gt;Node95 -->
<g id="edge40" class="edge">
<title>Node81&#45;&gt;Node95</title>
<path fill="none" stroke="#191970" d="M345.8833,-499.3893C332.2571,-491.5402 316.6753,-480.8294 305.5,-468 274.5379,-432.4551 256.4407,-377.5174 250.0937,-355.5521"/>
<polygon fill="#191970" stroke="#191970" points="344.4764,-502.6098 354.9262,-504.3569 347.8468,-496.4745 344.4764,-502.6098"/>
</g>
<!-- Node83 -->
<g id="node10" class="node">
<title>Node83</title>
<g id="a_node10"><a xlink:href="add__nl__h__o__rs_8cpp_source.html" target="_top" xlink:title="add_nl_h_o_rs.cpp">
<polygon fill="#ffffff" stroke="#000000" points="241.5,-168.5 241.5,-187.5 343.5,-187.5 343.5,-168.5 241.5,-168.5"/>
<text text-anchor="middle" x="292.5" y="-175.5" font-family="Helvetica,sans-Serif" font-size="10.00" fill="#000000">add_nl_h_o_rs.cpp</text>
</a>
</g>
</g>
<!-- Node82&#45;&gt;Node83 -->
<g id="edge9" class="edge">
<title>Node82&#45;&gt;Node83</title>
<path fill="none" stroke="#191970" d="M300.9625,-214.4538C298.8561,-205.3803 296.4464,-194.9998 294.7385,-187.6427"/>
<polygon fill="#191970" stroke="#191970" points="297.5649,-215.2961 303.2356,-224.2455 304.3835,-213.7131 297.5649,-215.2961"/>
</g>
<!-- Node84 -->
<g id="node11" class="node">
<title>Node84</title>
<g id="a_node11"><a xlink:href="force_8h.html" target="_top" xlink:title="Contains definition of sirius::Force class. ">
<polygon fill="#ffffff" stroke="#000000" points="440,-168.5 440,-187.5 487,-187.5 487,-168.5 440,-168.5"/>
<text text-anchor="middle" x="463.5" y="-175.5" font-family="Helvetica,sans-Serif" font-size="10.00" fill="#000000">force.h</text>
</a>
</g>
</g>
<!-- Node82&#45;&gt;Node84 -->
<g id="edge10" class="edge">
<title>Node82&#45;&gt;Node84</title>
<path fill="none" stroke="#191970" d="M338.868,-222.1734C369.1847,-211.4282 413.1453,-195.8472 439.9425,-186.3495"/>
<polygon fill="#191970" stroke="#191970" points="337.4104,-218.9766 329.1542,-225.6162 339.749,-225.5744 337.4104,-218.9766"/>
</g>
<!-- Node82&#45;&gt;Node86 -->
<g id="edge16" class="edge">
<title>Node82&#45;&gt;Node86</title>
<path fill="none" stroke="#191970" d="M272.4274,-221.2003C247.7619,-209.5272 220.2795,-190.6711 232.5,-168 260.3953,-116.2496 327.291,-86.4462 363.4043,-73.5984"/>
<polygon fill="#191970" stroke="#191970" points="271.0956,-224.4386 281.6541,-225.3154 273.947,-218.0456 271.0956,-224.4386"/>
</g>
<!-- Node85 -->
<g id="node12" class="node">
<title>Node85</title>
<g id="a_node12"><a xlink:href="dft__ground__state_8h.html" target="_top" xlink:title="Contains definition and partial implementation of sirius::DFT_ground_state class. ...">
<polygon fill="#ffffff" stroke="#000000" points="548.5,-112.5 548.5,-131.5 648.5,-131.5 648.5,-112.5 548.5,-112.5"/>
<text text-anchor="middle" x="598.5" y="-119.5" font-family="Helvetica,sans-Serif" font-size="10.00" fill="#000000">dft_ground_state.h</text>
</a>
</g>
</g>
<!-- Node84&#45;&gt;Node85 -->
<g id="edge11" class="edge">
<title>Node84&#45;&gt;Node85</title>
<path fill="none" stroke="#191970" d="M495.9991,-164.5189C520.5854,-154.3201 553.7366,-140.5685 575.5955,-131.5011"/>
<polygon fill="#191970" stroke="#191970" points="494.6031,-161.3087 486.7073,-168.3733 497.2852,-167.7745 494.6031,-161.3087"/>
</g>
<!-- Node84&#45;&gt;Node86 -->
<g id="edge15" class="edge">
<title>Node84&#45;&gt;Node86</title>
<path fill="none" stroke="#191970" d="M447.8874,-160.5251C440.7198,-152.1545 432.3188,-141.8309 425.5,-132 412.2374,-112.8789 399.2499,-88.854 392.428,-75.7057"/>
<polygon fill="#191970" stroke="#191970" points="445.3294,-162.9172 454.5395,-168.1541 450.6054,-158.3167 445.3294,-162.9172"/>
</g>
<!-- Node88 -->
<g id="node15" class="node">
<title>Node88</title>
<g id="a_node15"><a xlink:href="force_8cpp.html" target="_top" xlink:title="Contains implementation of sirius::Force class. ">
<polygon fill="#ffffff" stroke="#000000" points="434.5,-112.5 434.5,-131.5 492.5,-131.5 492.5,-112.5 434.5,-112.5"/>
<text text-anchor="middle" x="463.5" y="-119.5" font-family="Helvetica,sans-Serif" font-size="10.00" fill="#000000">force.cpp</text>
</a>
</g>
</g>
<!-- Node84&#45;&gt;Node88 -->
<g id="edge14" class="edge">
<title>Node84&#45;&gt;Node88</title>
<path fill="none" stroke="#191970" d="M463.5,-158.1575C463.5,-149.155 463.5,-138.9199 463.5,-131.6427"/>
<polygon fill="#191970" stroke="#191970" points="460.0001,-158.2455 463.5,-168.2455 467.0001,-158.2456 460.0001,-158.2455"/>
</g>
<!-- Node85&#45;&gt;Node86 -->
<g id="edge12" class="edge">
<title>Node85&#45;&gt;Node86</title>
<path fill="none" stroke="#191970" d="M552.4688,-109.7832C509.0534,-98.2606 445.6841,-81.4422 411.5006,-72.3698"/>
<polygon fill="#191970" stroke="#191970" points="551.6646,-113.1908 562.2278,-112.3733 553.4603,-106.4251 551.6646,-113.1908"/>
</g>
<!-- Node87 -->
<g id="node14" class="node">
<title>Node87</title>
<g id="a_node14"><a xlink:href="sirius__api_8cpp.html" target="_top" xlink:title="Fortran API. ">
<polygon fill="#ffffff" stroke="#000000" points="348.5,-.5 348.5,-19.5 426.5,-19.5 426.5,-.5 348.5,-.5"/>
<text text-anchor="middle" x="387.5" y="-7.5" font-family="Helvetica,sans-Serif" font-size="10.00" fill="#000000">sirius_api.cpp</text>
</a>
</g>
</g>
<!-- Node86&#45;&gt;Node87 -->
<g id="edge13" class="edge">
<title>Node86&#45;&gt;Node87</title>
<path fill="none" stroke="#191970" d="M387.5,-46.1575C387.5,-37.155 387.5,-26.9199 387.5,-19.6427"/>
<polygon fill="#191970" stroke="#191970" points="384.0001,-46.2455 387.5,-56.2455 391.0001,-46.2456 384.0001,-46.2455"/>
</g>
<!-- Node89&#45;&gt;Node84 -->
<g id="edge36" class="edge">
<title>Node89&#45;&gt;Node84</title>
<path fill="none" stroke="#191970" d="M660.7164,-444.4729C624.4391,-428.3756 567.3315,-398.2595 532.5,-356 488.0209,-302.0355 469.9886,-216.1062 465.0235,-187.5641"/>
<polygon fill="#191970" stroke="#191970" points="659.3443,-447.6928 669.9119,-448.4512 662.1238,-441.2682 659.3443,-447.6928"/>
</g>
<!-- Node89&#45;&gt;Node86 -->
<g id="edge37" class="edge">
<title>Node89&#45;&gt;Node86</title>
<path fill="none" stroke="#191970" d="M717.7738,-442.5979C729.1001,-434.3809 742.4123,-423.5858 752.5,-412 826.0472,-327.531 893.5294,-248.3469 815.5,-168 758.0918,-108.8867 493.4535,-76.9644 411.6563,-68.3876"/>
<polygon fill="#191970" stroke="#191970" points="715.7571,-439.7373 709.5859,-448.3493 719.7807,-445.4654 715.7571,-439.7373"/>
</g>
<!-- Node90 -->
<g id="node17" class="node">
<title>Node90</title>
<g id="a_node17"><a xlink:href="k__point__set_8h.html" target="_top" xlink:title="Contains declaration and partial implementation of sirius::K_point_set class. ">
<polygon fill="#ffffff" stroke="#000000" points="644.5,-392.5 644.5,-411.5 720.5,-411.5 720.5,-392.5 644.5,-392.5"/>
<text text-anchor="middle" x="682.5" y="-399.5" font-family="Helvetica,sans-Serif" font-size="10.00" fill="#000000">k_point_set.h</text>
</a>
</g>
</g>
<!-- Node89&#45;&gt;Node90 -->
<g id="edge18" class="edge">
<title>Node89&#45;&gt;Node90</title>
<path fill="none" stroke="#191970" d="M690.3115,-438.4538C688.3672,-429.3803 686.1428,-418.9998 684.5663,-411.6427"/>
<polygon fill="#191970" stroke="#191970" points="686.8921,-439.2009 692.4098,-448.2455 693.7367,-437.7341 686.8921,-439.2009"/>
</g>
<!-- Node90&#45;&gt;Node82 -->
<g id="edge19" class="edge">
<title>Node90&#45;&gt;Node82</title>
<path fill="none" stroke="#191970" d="M634.286,-391.6224C573.4042,-377.1686 466.799,-347.2954 385.5,-300 357.4858,-283.7029 329.3158,-257.6942 315.0589,-243.6879"/>
<polygon fill="#191970" stroke="#191970" points="633.8458,-395.1136 644.3794,-393.9765 635.4357,-388.2966 633.8458,-395.1136"/>
</g>
<!-- Node90&#45;&gt;Node85 -->
<g id="edge33" class="edge">
<title>Node90&#45;&gt;Node85</title>
<path fill="none" stroke="#191970" d="M670.2324,-383.9217C656.9078,-362.4913 637.5,-325.2302 637.5,-290 637.5,-290 637.5,-290 637.5,-234 637.5,-194.2621 615.3334,-150.7836 604.4233,-131.7906"/>
<polygon fill="#191970" stroke="#191970" points="667.3012,-385.8345 675.6655,-392.3377 673.1822,-382.0379 667.3012,-385.8345"/>
</g>
<!-- Node90&#45;&gt;Node86 -->
<g id="edge35" class="edge">
<title>Node90&#45;&gt;Node86</title>
<path fill="none" stroke="#191970" d="M680.5149,-382.2186C678.4452,-359.8571 675.5,-322.3514 675.5,-290 675.5,-290 675.5,-290 675.5,-234 675.5,-179.1908 695.8221,-151.185 657.5,-112 623.5051,-77.2396 471.5282,-68.6606 411.7571,-66.6156"/>
<polygon fill="#191970" stroke="#191970" points="677.0551,-382.8055 681.4971,-392.4242 684.0229,-382.1349 677.0551,-382.8055"/>
</g>
<!-- Node90&#45;&gt;Node91 -->
<g id="edge20" class="edge">
<title>Node90&#45;&gt;Node91</title>
<path fill="none" stroke="#191970" d="M653.9208,-387.8368C633.4942,-377.7139 606.5638,-364.3679 588.6719,-355.5011"/>
<polygon fill="#191970" stroke="#191970" points="652.5604,-391.0688 663.0746,-392.3733 655.6687,-384.7968 652.5604,-391.0688"/>
</g>
<!-- Node94 -->
<g id="node21" class="node">
<title>Node94</title>
<g id="a_node21"><a xlink:href="_forces___p_s_8cpp_source.html" target="_top" xlink:title="Forces_PS.cpp">
<polygon fill="#ffffff" stroke="#000000" points="704,-168.5 704,-187.5 789,-187.5 789,-168.5 704,-168.5"/>
<text text-anchor="middle" x="746.5" y="-175.5" font-family="Helvetica,sans-Serif" font-size="10.00" fill="#000000">Forces_PS.cpp</text>
</a>
</g>
</g>
<!-- Node90&#45;&gt;Node94 -->
<g id="edge34" class="edge">
<title>Node90&#45;&gt;Node94</title>
<path fill="none" stroke="#191970" d="M688.013,-382.7044C701.174,-336.6409 734.0527,-221.5657 743.7602,-187.5891"/>
<polygon fill="#191970" stroke="#191970" points="684.6319,-381.7982 685.25,-392.375 691.3626,-383.7213 684.6319,-381.7982"/>
</g>
<!-- Node91&#45;&gt;Node84 -->
<g id="edge30" class="edge">
<title>Node91&#45;&gt;Node84</title>
<path fill="none" stroke="#191970" d="M559.8633,-327.3263C547.0448,-302.9533 523.2302,-259.2525 499.5,-224 490.6658,-210.8764 479.2301,-196.6656 471.644,-187.566"/>
<polygon fill="#191970" stroke="#191970" points="556.7782,-328.9798 564.5065,-336.2272 562.9845,-325.7422 556.7782,-328.9798"/>
</g>
<!-- Node91&#45;&gt;Node85 -->
<g id="edge29" class="edge">
<title>Node91&#45;&gt;Node85</title>
<path fill="none" stroke="#191970" d="M572.0561,-326.4433C573.1229,-318.2708 574.3737,-308.6756 575.5,-300 583.8442,-235.7272 593.8127,-158.3899 597.2575,-131.648"/>
<polygon fill="#191970" stroke="#191970" points="568.5692,-326.1165 570.7444,-336.4857 575.5102,-327.0233 568.5692,-326.1165"/>
</g>
<!-- Node91&#45;&gt;Node86 -->
<g id="edge32" class="edge">
<title>Node91&#45;&gt;Node86</title>
<path fill="none" stroke="#191970" d="M569.2989,-326.0675C567.7921,-281.8768 558.1347,-174.6466 501.5,-112 477.8845,-85.8777 437.3529,-74.3193 411.5215,-69.4028"/>
<polygon fill="#191970" stroke="#191970" points="565.8007,-326.188 569.5328,-336.1038 572.7988,-326.0249 565.8007,-326.188"/>
</g>
<!-- Node91&#45;&gt;Node92 -->
<g id="edge21" class="edge">
<title>Node91&#45;&gt;Node92</title>
<path fill="none" stroke="#191970" d="M535.1818,-332.6541C508.922,-322.4419 473.3508,-308.6086 449.9315,-299.5011"/>
<polygon fill="#191970" stroke="#191970" points="534.1569,-336.0108 544.7455,-336.3733 536.694,-329.4867 534.1569,-336.0108"/>
</g>
<!-- Node91&#45;&gt;Node93 -->
<g id="edge31" class="edge">
<title>Node91&#45;&gt;Node93</title>
<path fill="none" stroke="#191970" d="M597.3955,-331.8629C643.1069,-308.6969 732.7663,-263.2587 771.7054,-243.5249"/>
<polygon fill="#191970" stroke="#191970" points="595.6801,-328.8084 588.3423,-336.4509 598.8445,-335.0524 595.6801,-328.8084"/>
</g>
<!-- Node92&#45;&gt;Node82 -->
<g id="edge22" class="edge">
<title>Node92&#45;&gt;Node82</title>
<path fill="none" stroke="#191970" d="M395.7376,-276.1109C373.9768,-265.9559 345.0318,-252.4482 325.8595,-243.5011"/>
<polygon fill="#191970" stroke="#191970" points="394.3293,-279.316 404.8713,-280.3733 397.2895,-272.9727 394.3293,-279.316"/>
</g>
<!-- Node92&#45;&gt;Node84 -->
<g id="edge24" class="edge">
<title>Node92&#45;&gt;Node84</title>
<path fill="none" stroke="#191970" d="M425.5645,-270.2528C426.1642,-256.8457 428.069,-238.9123 433.5,-224 438.5246,-210.2035 448.3603,-196.3596 455.4005,-187.5179"/>
<polygon fill="#191970" stroke="#191970" points="422.0648,-270.2018 425.3189,-280.2845 429.0627,-270.3732 422.0648,-270.2018"/>
</g>
<!-- Node92&#45;&gt;Node85 -->
<g id="edge23" class="edge">
<title>Node92&#45;&gt;Node85</title>
<path fill="none" stroke="#191970" d="M442.5625,-273.4306C478.2431,-238.7812 559.7996,-159.5818 588.3796,-131.8279"/>
<polygon fill="#191970" stroke="#191970" points="440.0326,-271.0087 435.2969,-280.4862 444.9092,-276.0305 440.0326,-271.0087"/>
</g>
<!-- Node92&#45;&gt;Node86 -->
<g id="edge28" class="edge">
<title>Node92&#45;&gt;Node86</title>
<path fill="none" stroke="#191970" d="M422.177,-270.4119C414.33,-224.1557 394.8784,-109.494 389.1267,-75.5891"/>
<polygon fill="#191970" stroke="#191970" points="418.7439,-271.1013 423.8672,-280.375 425.6453,-269.9304 418.7439,-271.1013"/>
</g>
<!-- Node92&#45;&gt;Node93 -->
<g id="edge25" class="edge">
<title>Node92&#45;&gt;Node93</title>
<path fill="none" stroke="#191970" d="M467.3012,-283.5867C539.1662,-272.5608 684.9966,-250.1868 753.4475,-239.6848"/>
<polygon fill="#191970" stroke="#191970" points="466.6064,-280.1522 457.2528,-285.1283 467.668,-287.0713 466.6064,-280.1522"/>
</g>
<!-- Node93&#45;&gt;Node85 -->
<g id="edge26" class="edge">
<title>Node93&#45;&gt;Node85</title>
<path fill="none" stroke="#191970" d="M799.6044,-214.8739C804.9815,-200.4866 808.9127,-181.0795 798.5,-168 780.137,-144.9341 701.9284,-132.4663 648.9273,-126.5339"/>
<polygon fill="#191970" stroke="#191970" points="796.2893,-213.7272 795.618,-224.3008 802.7365,-216.4537 796.2893,-213.7272"/>
</g>
<!-- Node93&#45;&gt;Node94 -->
<g id="edge27" class="edge">
<title>Node93&#45;&gt;Node94</title>
<path fill="none" stroke="#191970" d="M776.5231,-216.2112C769.0871,-206.7472 760.234,-195.4797 754.0764,-187.6427"/>
<polygon fill="#191970" stroke="#191970" points="773.9054,-218.5447 782.8358,-224.2455 779.4097,-214.22 773.9054,-218.5447"/>
</g>
<!-- Node95&#45;&gt;Node82 -->
<g id="edge41" class="edge">
<title>Node95&#45;&gt;Node82</title>
<path fill="none" stroke="#191970" d="M254.6157,-326.7753C259.8222,-313.3819 267.3716,-295.2551 275.5,-280 282.4942,-266.8734 292.1044,-252.6633 298.5451,-243.5646"/>
<polygon fill="#191970" stroke="#191970" points="251.2554,-325.7653 250.9762,-336.3564 257.7992,-328.251 251.2554,-325.7653"/>
</g>
<!-- Node96&#45;&gt;Node82 -->
<g id="edge47" class="edge">
<title>Node96&#45;&gt;Node82</title>
<path fill="none" stroke="#191970" d="M530.8864,-442.8429C491.245,-416.7104 410.0151,-360.1611 352.5,-300 335.1973,-281.9013 319.2336,-257.0628 311.112,-243.607"/>
<polygon fill="#191970" stroke="#191970" points="529.0766,-445.8413 539.362,-448.3833 532.9067,-439.9821 529.0766,-445.8413"/>
</g>
<!-- Node98 -->
<g id="node25" class="node">
<title>Node98</title>
<g id="a_node25"><a xlink:href="step__function_8h.html" target="_top" xlink:title="Contains definition and partial implementation of sirius::Step_function class. ">
<polygon fill="#ffffff" stroke="#000000" points="410.5,-616.5 410.5,-635.5 494.5,-635.5 494.5,-616.5 410.5,-616.5"/>
<text text-anchor="middle" x="452.5" y="-623.5" font-family="Helvetica,sans-Serif" font-size="10.00" fill="#000000">step_function.h</text>
</a>
</g>
</g>
<!-- Node97&#45;&gt;Node98 -->
<g id="edge51" class="edge">
<title>Node97&#45;&gt;Node98</title>
<path fill="none" stroke="#191970" d="M452.5,-662.2849C452.5,-652.9858 452.5,-642.9883 452.5,-635.8469"/>
<polygon fill="#191970" stroke="#191970" points="449.0001,-662.2977 452.5,-672.2977 456.0001,-662.2978 449.0001,-662.2977"/>
</g>
<!-- Node98&#45;&gt;Node80 -->
<g id="edge52" class="edge">
<title>Node98&#45;&gt;Node80</title>
<path fill="none" stroke="#191970" d="M474.7756,-610.2097C488.6505,-600.3743 506.0515,-588.0394 517.8969,-579.6427"/>
<polygon fill="#191970" stroke="#191970" points="472.3949,-607.6071 466.2607,-616.2455 476.4431,-613.3178 472.3949,-607.6071"/>
</g>
<!-- Node98&#45;&gt;Node86 -->
<g id="edge53" class="edge">
<title>Node98&#45;&gt;Node86</title>
<path fill="none" stroke="#191970" d="M400.3855,-618.4845C310.8878,-604.0999 137.5,-569.1191 137.5,-514 137.5,-514 137.5,-514 137.5,-178 137.5,-140.3794 158.6618,-132.0409 190.5,-112 219.2571,-93.8985 317.0923,-76.8805 363.1493,-69.6499"/>
<polygon fill="#191970" stroke="#191970" points="399.9212,-621.9545 410.3446,-620.0558 401.0123,-615.04 399.9212,-621.9545"/>
</g>
<!-- Node99&#45;&gt;Node78 -->
<g id="edge56" class="edge">
<title>Node99&#45;&gt;Node78</title>
<path fill="none" stroke="#191970" d="M528.5,-785.1575C528.5,-776.155 528.5,-765.9199 528.5,-758.6427"/>
<polygon fill="#191970" stroke="#191970" points="525.0001,-785.2455 528.5,-795.2455 532.0001,-785.2456 525.0001,-785.2455"/>
</g>
<!-- Node99&#45;&gt;Node100 -->
<g id="edge57" class="edge">
<title>Node99&#45;&gt;Node100</title>
<path fill="none" stroke="#191970" d="M568.2583,-802.201C671.7458,-793.8308 941.5,-764.6166 941.5,-687.5 941.5,-687.5 941.5,-687.5 941.5,-626 941.5,-586.2726 962.7484,-542.4377 973.0405,-523.5354"/>
<polygon fill="#191970" stroke="#191970" points="567.8972,-798.7184 558.2019,-802.9907 568.4453,-805.697 567.8972,-798.7184"/>
</g>
<!-- Node100&#45;&gt;Node89 -->
<g id="edge58" class="edge">
<title>Node100&#45;&gt;Node89</title>
<path fill="none" stroke="#191970" d="M921.2053,-502.7025C861.2048,-490.8714 769.4054,-472.7701 723.1915,-463.6575"/>
<polygon fill="#191970" stroke="#191970" points="920.7962,-506.1891 931.2844,-504.6899 922.1504,-499.3213 920.7962,-506.1891"/>
</g>
<!-- Node100&#45;&gt;Node93 -->
<g id="edge62" class="edge">
<title>Node100&#45;&gt;Node93</title>
<path fill="none" stroke="#191970" d="M968.287,-495.3878C957.3354,-473.6529 941.5,-436.2959 941.5,-402 941.5,-402 941.5,-402 941.5,-346 941.5,-314.7875 939.5845,-302.0566 917.5,-280 893.3581,-255.8886 855.6336,-244.3256 827.5648,-238.8357"/>
<polygon fill="#191970" stroke="#191970" points="965.3006,-497.2296 973.0405,-504.4646 971.5018,-493.9821 965.3006,-497.2296"/>
</g>
<!-- Node100&#45;&gt;Node96 -->
<g id="edge59" class="edge">
<title>Node100&#45;&gt;Node96</title>
<path fill="none" stroke="#191970" d="M920.9741,-506.4022C839.1317,-495.5929 690.1053,-475.9101 609.6096,-465.2786"/>
<polygon fill="#191970" stroke="#191970" points="920.7238,-509.8995 931.096,-507.7391 921.6404,-502.9598 920.7238,-509.8995"/>
</g>
<!-- Node101 -->
<g id="node28" class="node">
<title>Node101</title>
<g id="a_node28"><a xlink:href="beta__projectors__gradient_8h_source.html" target="_top" xlink:title="beta_projectors_gradient.h">
<polygon fill="#ffffff" stroke="#000000" points="970,-392.5 970,-411.5 1105,-411.5 1105,-392.5 970,-392.5"/>
<text text-anchor="middle" x="1037.5" y="-399.5" font-family="Helvetica,sans-Serif" font-size="10.00" fill="#000000">beta_projectors_gradient.h</text>
</a>
</g>
</g>
<!-- Node100&#45;&gt;Node101 -->
<g id="edge60" class="edge">
<title>Node100&#45;&gt;Node101</title>
<path fill="none" stroke="#191970" d="M988.2075,-495.5723C1000.9085,-471.4618 1022.6959,-430.1028 1032.4824,-411.5249"/>
<polygon fill="#191970" stroke="#191970" points="985.0945,-493.9722 983.5303,-504.4509 991.2877,-497.2347 985.0945,-493.9722"/>
</g>
<!-- Node101&#45;&gt;Node93 -->
<g id="edge61" class="edge">
<title>Node101&#45;&gt;Node93</title>
<path fill="none" stroke="#191970" d="M1029.8004,-382.8821C1017.9281,-355.8507 992.5773,-306.7762 955.5,-280 917.4082,-252.4912 863.4841,-241.4162 827.7806,-236.9682"/>
<polygon fill="#191970" stroke="#191970" points="1026.6962,-384.528 1033.8118,-392.3778 1033.1445,-381.804 1026.6962,-384.528"/>
</g>
<!-- Node103 -->
<g id="node30" class="node">
<title>Node103</title>
<g id="a_node30"><a xlink:href="real__space__prj_8cpp_source.html" target="_top" xlink:title="real_space_prj.cpp">
<polygon fill="#ffffff" stroke="#000000" points="323,-739.5 323,-758.5 424,-758.5 424,-739.5 323,-739.5"/>
<text text-anchor="middle" x="373.5" y="-746.5" font-family="Helvetica,sans-Serif" font-size="10.00" fill="#000000">real_space_prj.cpp</text>
</a>
</g>
</g>
<!-- Node102&#45;&gt;Node103 -->
<g id="edge65" class="edge">
<title>Node102&#45;&gt;Node103</title>
<path fill="none" stroke="#191970" d="M373.5,-785.1575C373.5,-776.155 373.5,-765.9199 373.5,-758.6427"/>
<polygon fill="#191970" stroke="#191970" points="370.0001,-785.2455 373.5,-795.2455 377.0001,-785.2456 370.0001,-785.2455"/>
</g>
<!-- Node104&#45;&gt;Node76 -->
<g id="edge69" class="edge">
<title>Node104&#45;&gt;Node76</title>
<path fill="none" stroke="#191970" d="M180.2107,-960.6607C139.2324,-949.2438 79.8749,-932.7064 47.2327,-923.6121"/>
<polygon fill="#191970" stroke="#191970" points="179.3744,-964.0609 189.9469,-963.3733 181.2531,-957.3177 179.3744,-964.0609"/>
</g>
<!-- Node104&#45;&gt;Node77 -->
<g id="edge70" class="edge">
<title>Node104&#45;&gt;Node77</title>
<path fill="none" stroke="#191970" d="M245.28,-957.3802C276.6407,-933.807 335.1247,-889.8459 360.8285,-870.5249"/>
<polygon fill="#191970" stroke="#191970" points="243.0942,-954.6446 237.2037,-963.4509 247.3003,-960.2401 243.0942,-954.6446"/>
</g>
<!-- Node104&#45;&gt;Node86 -->
<g id="edge71" class="edge">
<title>Node104&#45;&gt;Node86</title>
<path fill="none" stroke="#191970" d="M202.1134,-957.5924C157.4441,-924.8289 61.5,-843.4622 61.5,-749 61.5,-749 61.5,-749 61.5,-178 61.5,-138.6547 86.0846,-131.0691 120.5,-112 162.2606,-88.861 305.6809,-73.4943 363.276,-68.1232"/>
<polygon fill="#191970" stroke="#191970" points="200.156,-960.4957 210.32,-963.4865 204.2395,-954.8102 200.156,-960.4957"/>
</g>
</g>
</svg>
