<?xml version="1.0" encoding="UTF-8" standalone="no"?>
<!DOCTYPE svg PUBLIC "-//W3C//DTD SVG 1.1//EN"
 "http://www.w3.org/Graphics/SVG/1.1/DTD/svg11.dtd">
<!-- Generated by graphviz version 2.40.1 (20161225.0304)
 -->
<!-- Title: hamiltonian Pages: 1 -->
<svg width="319pt" height="295pt"
 viewBox="0.00 0.00 318.99 295.00" xmlns="http://www.w3.org/2000/svg" xmlns:xlink="http://www.w3.org/1999/xlink">
<g id="graph0" class="graph" transform="scale(1 1) rotate(0) translate(4 291)">
<title>hamiltonian</title>
<polygon fill="#ffffff" stroke="transparent" points="-4,4 -4,-291 314.9935,-291 314.9935,4 -4,4"/>
<g id="clust1" class="cluster">
<title>clusterdir_68267d1309a1af8e8297ef4c3efbcdba</title>
<g id="a_clust1"><a xlink:href="dir_68267d1309a1af8e8297ef4c3efbcdba.html" target="_top" xlink:title="src">
<polygon fill="#ddddee" stroke="#000000" points="108.789,-208 108.789,-279 192.789,-279 192.789,-208 108.789,-208"/>
<text text-anchor="middle" x="150.789" y="-267" font-family="Helvetica,sans-Serif" font-size="10.00" fill="#000000">src</text>
</a>
</g>
</g>
<!-- dir_21f7b4eed03979aefcc3eb2d66364a44 -->
<g id="node1" class="node">
<title>dir_21f7b4eed03979aefcc3eb2d66364a44</title>
<g id="a_node1"><a xlink:href="dir_21f7b4eed03979aefcc3eb2d66364a44.html" target="_top" xlink:title="hamiltonian">
<polygon fill="#eeeeff" stroke="#000000" points="184.789,-252 116.789,-252 116.789,-216 184.789,-216 184.789,-252"/>
<text text-anchor="middle" x="150.789" y="-231.5" font-family="Helvetica,sans-Serif" font-size="10.00" fill="#000000">hamiltonian</text>
</a>
</g>
</g>
<!-- dir_b1780c5770c70e338c74f731f04dbc04 -->
<g id="node2" class="node">
<title>dir_b1780c5770c70e338c74f731f04dbc04</title>
<g id="a_node2"><a xlink:href="dir_b1780c5770c70e338c74f731f04dbc04.html" target="_top" xlink:title="function3d">
<polygon fill="none" stroke="#000000" points="82.289,-180 19.289,-180 19.289,-144 82.289,-144 82.289,-180"/>
<text text-anchor="middle" x="50.789" y="-159.5" font-family="Helvetica,sans-Serif" font-size="10.00" fill="#000000">function3d</text>
</a>
</g>
</g>
<!-- dir_21f7b4eed03979aefcc3eb2d66364a44&#45;&gt;dir_b1780c5770c70e338c74f731f04dbc04 -->
<g id="edge4" class="edge">
<title>dir_21f7b4eed03979aefcc3eb2d66364a44&#45;&gt;dir_b1780c5770c70e338c74f731f04dbc04</title>
<path fill="none" stroke="#000000" d="M125.5547,-215.8314C113.001,-206.7927 97.6606,-195.7476 84.1498,-186.0198"/>
<polygon fill="#000000" stroke="#000000" points="86.1755,-183.1655 76.0151,-180.1628 82.0854,-188.8463 86.1755,-183.1655"/>
<g id="a_edge4&#45;headlabel"><a xlink:href="dir_000021_000016.html" target="_top" xlink:title="1">
<text text-anchor="middle" x="90.7517" y="-180.4617" font-family="Helvetica,sans-Serif" font-size="10.00" fill="#000000">1</text>
</a>
</g>
</g>
<!-- dir_f599252a6ed79d26501e6b7d925f2ed5 -->
<g id="node3" class="node">
<title>dir_f599252a6ed79d26501e6b7d925f2ed5</title>
<g id="a_node3"><a xlink:href="dir_f599252a6ed79d26501e6b7d925f2ed5.html" target="_top" xlink:title="SDDK">
<polygon fill="none" stroke="#000000" points="209.789,-108 155.789,-108 155.789,-72 209.789,-72 209.789,-108"/>
<text text-anchor="middle" x="182.789" y="-87.5" font-family="Helvetica,sans-Serif" font-size="10.00" fill="#000000">SDDK</text>
</a>
</g>
</g>
<!-- dir_21f7b4eed03979aefcc3eb2d66364a44&#45;&gt;dir_f599252a6ed79d26501e6b7d925f2ed5 -->
<g id="edge5" class="edge">
<title>dir_21f7b4eed03979aefcc3eb2d66364a44&#45;&gt;dir_f599252a6ed79d26501e6b7d925f2ed5</title>
<path fill="none" stroke="#000000" d="M155.3703,-215.5357C157.9209,-205.118 161.112,-191.8514 163.789,-180 168.4218,-159.4895 173.3154,-136.2685 176.9758,-118.5512"/>
<polygon fill="#000000" stroke="#000000" points="180.4969,-118.8044 179.0822,-108.3044 173.6403,-117.3948 180.4969,-118.8044"/>
<g id="a_edge5&#45;headlabel"><a xlink:href="dir_000021_000014.html" target="_top" xlink:title="6">
<text text-anchor="middle" x="182.5543" y="-120.3971" font-family="Helvetica,sans-Serif" font-size="10.00" fill="#000000">6</text>
</a>
</g>
</g>
<!-- dir_db9a87b27e79d48ff721c11f86eab7d7 -->
<g id="node4" class="node">
<title>dir_db9a87b27e79d48ff721c11f86eab7d7</title>
<g id="a_node4"><a xlink:href="dir_db9a87b27e79d48ff721c11f86eab7d7.html" target="_top" xlink:title="beta_projectors">
<polygon fill="none" stroke="#000000" points="296.289,-180 211.289,-180 211.289,-144 296.289,-144 296.289,-180"/>
<text text-anchor="middle" x="253.789" y="-159.5" font-family="Helvetica,sans-Serif" font-size="10.00" fill="#000000">beta_projectors</text>
</a>
</g>
</g>
<!-- dir_21f7b4eed03979aefcc3eb2d66364a44&#45;&gt;dir_db9a87b27e79d48ff721c11f86eab7d7 -->
<g id="edge6" class="edge">
<title>dir_21f7b4eed03979aefcc3eb2d66364a44&#45;&gt;dir_db9a87b27e79d48ff721c11f86eab7d7</title>
<path fill="none" stroke="#000000" d="M176.7802,-215.8314C189.7106,-206.7927 205.5111,-195.7476 219.4273,-186.0198"/>
<polygon fill="#000000" stroke="#000000" points="221.6152,-188.7608 227.806,-180.1628 217.6047,-183.0235 221.6152,-188.7608"/>
<g id="a_edge6&#45;headlabel"><a xlink:href="dir_000021_000008.html" target="_top" xlink:title="1">
<text text-anchor="middle" x="220.2957" y="-190.6473" font-family="Helvetica,sans-Serif" font-size="10.00" fill="#000000">1</text>
</a>
</g>
</g>
<!-- dir_295205cd1bf15bf63a3635aca83f2eed -->
<g id="node5" class="node">
<title>dir_295205cd1bf15bf63a3635aca83f2eed</title>
<g id="a_node5"><a xlink:href="dir_295205cd1bf15bf63a3635aca83f2eed.html" target="_top" xlink:title="k_point">
<polygon fill="none" stroke="#000000" points="280.789,-252 226.789,-252 226.789,-216 280.789,-216 280.789,-252"/>
<text text-anchor="middle" x="253.789" y="-231.5" font-family="Helvetica,sans-Serif" font-size="10.00" fill="#000000">k_point</text>
</a>
</g>
</g>
<!-- dir_21f7b4eed03979aefcc3eb2d66364a44&#45;&gt;dir_295205cd1bf15bf63a3635aca83f2eed -->
<g id="edge7" class="edge">
<title>dir_21f7b4eed03979aefcc3eb2d66364a44&#45;&gt;dir_295205cd1bf15bf63a3635aca83f2eed</title>
<path fill="none" stroke="#000000" d="M184.9882,-234C195.5108,-234 206.0335,-234 216.5562,-234"/>
<polygon fill="#000000" stroke="#000000" points="216.6449,-237.5001 226.6449,-234 216.6449,-230.5001 216.6449,-237.5001"/>
<g id="a_edge7&#45;headlabel"><a xlink:href="dir_000021_000019.html" target="_top" xlink:title="1">
<text text-anchor="middle" x="213.0503" y="-237.8393" font-family="Helvetica,sans-Serif" font-size="10.00" fill="#000000">1</text>
</a>
</g>
</g>
<!-- dir_469511d0e94cf1d94db96de2a5eb203f -->
<g id="node6" class="node">
<title>dir_469511d0e94cf1d94db96de2a5eb203f</title>
<g id="a_node6"><a xlink:href="dir_469511d0e94cf1d94db96de2a5eb203f.html" target="_top" xlink:title="potential">
<polygon fill="none" stroke="#000000" points="154.789,-180 100.789,-180 100.789,-144 154.789,-144 154.789,-180"/>
<text text-anchor="middle" x="127.789" y="-159.5" font-family="Helvetica,sans-Serif" font-size="10.00" fill="#000000">potential</text>
</a>
</g>
</g>
<!-- dir_21f7b4eed03979aefcc3eb2d66364a44&#45;&gt;dir_469511d0e94cf1d94db96de2a5eb203f -->
<g id="edge8" class="edge">
<title>dir_21f7b4eed03979aefcc3eb2d66364a44&#45;&gt;dir_469511d0e94cf1d94db96de2a5eb203f</title>
<path fill="none" stroke="#000000" d="M144.9851,-215.8314C142.4982,-208.0463 139.5359,-198.7729 136.7764,-190.1347"/>
<polygon fill="#000000" stroke="#000000" points="140.048,-188.874 133.671,-180.4133 133.38,-191.0041 140.048,-188.874"/>
<g id="a_edge8&#45;headlabel"><a xlink:href="dir_000021_000020.html" target="_top" xlink:title="3">
<text text-anchor="middle" x="143.8464" y="-188.9342" font-family="Helvetica,sans-Serif" font-size="10.00" fill="#000000">3</text>
</a>
</g>
</g>
<!-- dir_313caf1132e152dd9b58bea13a4052ca -->
<g id="node7" class="node">
<title>dir_313caf1132e152dd9b58bea13a4052ca</title>
<g id="a_node7"><a xlink:href="dir_313caf1132e152dd9b58bea13a4052ca.html" target="_top" xlink:title="utils">
<polygon fill="none" stroke="#000000" points="154.789,-36 100.789,-36 100.789,0 154.789,0 154.789,-36"/>
<text text-anchor="middle" x="127.789" y="-15.5" font-family="Helvetica,sans-Serif" font-size="10.00" fill="#000000">utils</text>
</a>
</g>
</g>
<!-- dir_21f7b4eed03979aefcc3eb2d66364a44&#45;&gt;dir_313caf1132e152dd9b58bea13a4052ca -->
<g id="edge9" class="edge">
<title>dir_21f7b4eed03979aefcc3eb2d66364a44&#45;&gt;dir_313caf1132e152dd9b58bea13a4052ca</title>
<path fill="none" stroke="#000000" d="M116.6837,-225.6753C79.0917,-215.7282 22.2676,-198.1415 9.789,-180 -25.3164,-128.9636 45.469,-70.5665 91.846,-39.7276"/>
<polygon fill="#000000" stroke="#000000" points="93.9981,-42.5032 100.4739,-34.1178 90.1823,-36.6346 93.9981,-42.5032"/>
<g id="a_edge9&#45;headlabel"><a xlink:href="dir_000021_000003.html" target="_top" xlink:title="2">
<text text-anchor="middle" x="92.5322" y="-44.3429" font-family="Helvetica,sans-Serif" font-size="10.00" fill="#000000">2</text>
</a>
</g>
</g>
<!-- dir_b1780c5770c70e338c74f731f04dbc04&#45;&gt;dir_f599252a6ed79d26501e6b7d925f2ed5 -->
<g id="edge1" class="edge">
<title>dir_b1780c5770c70e338c74f731f04dbc04&#45;&gt;dir_f599252a6ed79d26501e6b7d925f2ed5</title>
<path fill="none" stroke="#000000" d="M82.4062,-144.7542C101.7196,-134.2196 126.4828,-120.7124 146.5812,-109.7497"/>
<polygon fill="#000000" stroke="#000000" points="148.348,-112.7728 155.451,-104.9116 144.996,-106.6276 148.348,-112.7728"/>
<g id="a_edge1&#45;headlabel"><a xlink:href="dir_000016_000014.html" target="_top" xlink:title="3">
<text text-anchor="middle" x="146.5519" y="-114.4867" font-family="Helvetica,sans-Serif" font-size="10.00" fill="#000000">3</text>
</a>
</g>
</g>
<!-- dir_b1780c5770c70e338c74f731f04dbc04&#45;&gt;dir_313caf1132e152dd9b58bea13a4052ca -->
<g id="edge2" class="edge">
<title>dir_b1780c5770c70e338c74f731f04dbc04&#45;&gt;dir_313caf1132e152dd9b58bea13a4052ca</title>
<path fill="none" stroke="#000000" d="M60.5411,-143.7623C73.8481,-118.8764 97.8005,-74.0822 113.2357,-45.2165"/>
<polygon fill="#000000" stroke="#000000" points="116.487,-46.5585 118.116,-36.0896 110.3141,-43.2577 116.487,-46.5585"/>
<g id="a_edge2&#45;headlabel"><a xlink:href="dir_000016_000003.html" target="_top" xlink:title="3">
<text text-anchor="middle" x="117.2959" y="-48.5672" font-family="Helvetica,sans-Serif" font-size="10.00" fill="#000000">3</text>
</a>
</g>
</g>
<!-- dir_f599252a6ed79d26501e6b7d925f2ed5&#45;&gt;dir_313caf1132e152dd9b58bea13a4052ca -->
<g id="edge3" class="edge">
<title>dir_f599252a6ed79d26501e6b7d925f2ed5&#45;&gt;dir_313caf1132e152dd9b58bea13a4052ca</title>
<path fill="none" stroke="#000000" d="M168.9101,-71.8314C162.5754,-63.5386 154.9506,-53.557 147.9964,-44.4533"/>
<polygon fill="#000000" stroke="#000000" points="150.7064,-42.2353 141.8546,-36.4133 145.1437,-46.4847 150.7064,-42.2353"/>
<g id="a_edge3&#45;headlabel"><a xlink:href="dir_000014_000003.html" target="_top" xlink:title="6">
<text text-anchor="middle" x="155.1448" y="-40.8683" font-family="Helvetica,sans-Serif" font-size="10.00" fill="#000000">6</text>
</a>
</g>
</g>
<!-- dir_db9a87b27e79d48ff721c11f86eab7d7&#45;&gt;dir_f599252a6ed79d26501e6b7d925f2ed5 -->
<g id="edge10" class="edge">
<title>dir_db9a87b27e79d48ff721c11f86eab7d7&#45;&gt;dir_f599252a6ed79d26501e6b7d925f2ed5</title>
<path fill="none" stroke="#000000" d="M235.8727,-143.8314C227.4448,-135.2848 217.2479,-124.9443 208.053,-115.6198"/>
<polygon fill="#000000" stroke="#000000" points="210.4601,-113.0761 200.9465,-108.4133 205.4758,-117.9912 210.4601,-113.0761"/>
<g id="a_edge10&#45;headlabel"><a xlink:href="dir_000008_000014.html" target="_top" xlink:title="1">
<text text-anchor="middle" x="215.0057" y="-111.142" font-family="Helvetica,sans-Serif" font-size="10.00" fill="#000000">1</text>
</a>
</g>
</g>
<!-- dir_db9a87b27e79d48ff721c11f86eab7d7&#45;&gt;dir_313caf1132e152dd9b58bea13a4052ca -->
<g id="edge11" class="edge">
<title>dir_db9a87b27e79d48ff721c11f86eab7d7&#45;&gt;dir_313caf1132e152dd9b58bea13a4052ca</title>
<path fill="none" stroke="#000000" d="M250.4453,-143.9677C246.0439,-124.3904 236.6742,-93.1025 218.789,-72 204.2238,-54.8148 182.7327,-41.7031 164.2927,-32.7056"/>
<polygon fill="#000000" stroke="#000000" points="165.5241,-29.4184 154.9807,-28.3757 162.5726,-35.7657 165.5241,-29.4184"/>
<g id="a_edge11&#45;headlabel"><a xlink:href="dir_000008_000003.html" target="_top" xlink:title="2">
<text text-anchor="middle" x="169.9807" y="-25.8593" font-family="Helvetica,sans-Serif" font-size="10.00" fill="#000000">2</text>
</a>
</g>
</g>
<!-- dir_295205cd1bf15bf63a3635aca83f2eed&#45;&gt;dir_21f7b4eed03979aefcc3eb2d66364a44 -->
<g id="edge13" class="edge">
<title>dir_295205cd1bf15bf63a3635aca83f2eed&#45;&gt;dir_21f7b4eed03979aefcc3eb2d66364a44</title>
<path fill="none" stroke="#000000" d="M226.6449,-234C216.1222,-234 205.5996,-234 195.0769,-234"/>
<polygon fill="#000000" stroke="#000000" points="194.9882,-230.5001 184.9882,-234 194.9881,-237.5001 194.9882,-230.5001"/>
<g id="a_edge13&#45;headlabel"><a xlink:href="dir_000019_000021.html" target="_top" xlink:title="1">
<text text-anchor="middle" x="198.5828" y="-225.1607" font-family="Helvetica,sans-Serif" font-size="10.00" fill="#000000">1</text>
</a>
</g>
</g>
<!-- dir_295205cd1bf15bf63a3635aca83f2eed&#45;&gt;dir_f599252a6ed79d26501e6b7d925f2ed5 -->
<g id="edge12" class="edge">
<title>dir_295205cd1bf15bf63a3635aca83f2eed&#45;&gt;dir_f599252a6ed79d26501e6b7d925f2ed5</title>
<path fill="none" stroke="#000000" d="M276.9027,-215.7218C297.3175,-197.2867 321.577,-168.1739 305.789,-144 286.9352,-115.132 248.8347,-101.5972 220.0062,-95.3133"/>
<polygon fill="#000000" stroke="#000000" points="220.3459,-91.813 209.8575,-93.3114 218.9911,-98.6806 220.3459,-91.813"/>
<g id="a_edge12&#45;headlabel"><a xlink:href="dir_000019_000014.html" target="_top" xlink:title="4">
<text text-anchor="middle" x="224.422" y="-87.223" font-family="Helvetica,sans-Serif" font-size="10.00" fill="#000000">4</text>
</a>
</g>
</g>
<!-- dir_295205cd1bf15bf63a3635aca83f2eed&#45;&gt;dir_db9a87b27e79d48ff721c11f86eab7d7 -->
<g id="edge14" class="edge">
<title>dir_295205cd1bf15bf63a3635aca83f2eed&#45;&gt;dir_db9a87b27e79d48ff721c11f86eab7d7</title>
<path fill="none" stroke="#000000" d="M253.789,-215.8314C253.789,-208.131 253.789,-198.9743 253.789,-190.4166"/>
<polygon fill="#000000" stroke="#000000" points="257.2891,-190.4132 253.789,-180.4133 250.2891,-190.4133 257.2891,-190.4132"/>
<g id="a_edge14&#45;headlabel"><a xlink:href="dir_000019_000008.html" target="_top" xlink:title="1">
<text text-anchor="middle" x="260.1282" y="-191.5079" font-family="Helvetica,sans-Serif" font-size="10.00" fill="#000000">1</text>
</a>
</g>
</g>
<!-- dir_469511d0e94cf1d94db96de2a5eb203f&#45;&gt;dir_f599252a6ed79d26501e6b7d925f2ed5 -->
<g id="edge15" class="edge">
<title>dir_469511d0e94cf1d94db96de2a5eb203f&#45;&gt;dir_f599252a6ed79d26501e6b7d925f2ed5</title>
<path fill="none" stroke="#000000" d="M141.6678,-143.8314C148.0025,-135.5386 155.6273,-125.557 162.5815,-116.4533"/>
<polygon fill="#000000" stroke="#000000" points="165.4342,-118.4847 168.7233,-108.4133 159.8715,-114.2353 165.4342,-118.4847"/>
<g id="a_edge15&#45;headlabel"><a xlink:href="dir_000020_000014.html" target="_top" xlink:title="2">
<text text-anchor="middle" x="165.5084" y="-120.5647" font-family="Helvetica,sans-Serif" font-size="10.00" fill="#000000">2</text>
</a>
</g>
</g>
<!-- dir_469511d0e94cf1d94db96de2a5eb203f&#45;&gt;dir_313caf1132e152dd9b58bea13a4052ca -->
<g id="edge16" class="edge">
<title>dir_469511d0e94cf1d94db96de2a5eb203f&#45;&gt;dir_313caf1132e152dd9b58bea13a4052ca</title>
<path fill="none" stroke="#000000" d="M127.789,-143.7623C127.789,-119.201 127.789,-75.2474 127.789,-46.3541"/>
<polygon fill="#000000" stroke="#000000" points="131.2891,-46.0896 127.789,-36.0896 124.2891,-46.0897 131.2891,-46.0896"/>
<g id="a_edge16&#45;headlabel"><a xlink:href="dir_000020_000003.html" target="_top" xlink:title="3">
<text text-anchor="middle" x="134.1282" y="-47.1842" font-family="Helvetica,sans-Serif" font-size="10.00" fill="#000000">3</text>
</a>
</g>
</g>
</g>
</svg>
