<?xml version="1.0" encoding="UTF-8" standalone="no"?>
<!DOCTYPE svg PUBLIC "-//W3C//DTD SVG 1.1//EN"
 "http://www.w3.org/Graphics/SVG/1.1/DTD/svg11.dtd">
<!-- Generated by graphviz version 2.40.1 (20161225.0304)
 -->
<!-- Title: mixer Pages: 1 -->
<svg width="156pt" height="295pt"
 viewBox="0.00 0.00 155.98 295.00" xmlns="http://www.w3.org/2000/svg" xmlns:xlink="http://www.w3.org/1999/xlink">
<g id="graph0" class="graph" transform="scale(1 1) rotate(0) translate(4 291)">
<title>mixer</title>
<polygon fill="#ffffff" stroke="transparent" points="-4,4 -4,-291 151.9789,-291 151.9789,4 -4,4"/>
<g id="clust1" class="cluster">
<title>clusterdir_68267d1309a1af8e8297ef4c3efbcdba</title>
<g id="a_clust1"><a xlink:href="dir_68267d1309a1af8e8297ef4c3efbcdba.html" target="_top" xlink:title="src">
<polygon fill="#ddddee" stroke="#000000" points="8,-208 8,-279 78,-279 78,-208 8,-208"/>
<text text-anchor="middle" x="43" y="-267" font-family="Helvetica,sans-Serif" font-size="10.00" fill="#000000">src</text>
</a>
</g>
</g>
<!-- dir_d1b0f45016cd06bf2eb252bd3f501161 -->
<g id="node1" class="node">
<title>dir_d1b0f45016cd06bf2eb252bd3f501161</title>
<g id="a_node1"><a xlink:href="dir_d1b0f45016cd06bf2eb252bd3f501161.html" target="_top" xlink:title="mixer">
<polygon fill="#eeeeff" stroke="#000000" points="70,-252 16,-252 16,-216 70,-216 70,-252"/>
<text text-anchor="middle" x="43" y="-231.5" font-family="Helvetica,sans-Serif" font-size="10.00" fill="#000000">mixer</text>
</a>
</g>
</g>
<!-- dir_b1780c5770c70e338c74f731f04dbc04 -->
<g id="node2" class="node">
<title>dir_b1780c5770c70e338c74f731f04dbc04</title>
<g id="a_node2"><a xlink:href="dir_b1780c5770c70e338c74f731f04dbc04.html" target="_top" xlink:title="function3d">
<polygon fill="none" stroke="#000000" points="134.5,-180 71.5,-180 71.5,-144 134.5,-144 134.5,-180"/>
<text text-anchor="middle" x="103" y="-159.5" font-family="Helvetica,sans-Serif" font-size="10.00" fill="#000000">function3d</text>
</a>
</g>
</g>
<!-- dir_d1b0f45016cd06bf2eb252bd3f501161&#45;&gt;dir_b1780c5770c70e338c74f731f04dbc04 -->
<g id="edge7" class="edge">
<title>dir_d1b0f45016cd06bf2eb252bd3f501161&#45;&gt;dir_b1780c5770c70e338c74f731f04dbc04</title>
<path fill="none" stroke="#000000" d="M58.1405,-215.8314C65.1217,-207.454 73.5391,-197.3531 81.1876,-188.1749"/>
<polygon fill="#000000" stroke="#000000" points="83.9425,-190.3362 87.6556,-180.4133 78.5649,-185.8548 83.9425,-190.3362"/>
<g id="a_edge7&#45;headlabel"><a xlink:href="dir_000010_000016.html" target="_top" xlink:title="1">
<text text-anchor="middle" x="83.8225" y="-192.4152" font-family="Helvetica,sans-Serif" font-size="10.00" fill="#000000">1</text>
</a>
</g>
</g>
<!-- dir_f599252a6ed79d26501e6b7d925f2ed5 -->
<g id="node3" class="node">
<title>dir_f599252a6ed79d26501e6b7d925f2ed5</title>
<g id="a_node3"><a xlink:href="dir_f599252a6ed79d26501e6b7d925f2ed5.html" target="_top" xlink:title="SDDK">
<polygon fill="none" stroke="#000000" points="108,-108 54,-108 54,-72 108,-72 108,-108"/>
<text text-anchor="middle" x="81" y="-87.5" font-family="Helvetica,sans-Serif" font-size="10.00" fill="#000000">SDDK</text>
</a>
</g>
</g>
<!-- dir_d1b0f45016cd06bf2eb252bd3f501161&#45;&gt;dir_f599252a6ed79d26501e6b7d925f2ed5 -->
<g id="edge8" class="edge">
<title>dir_d1b0f45016cd06bf2eb252bd3f501161&#45;&gt;dir_f599252a6ed79d26501e6b7d925f2ed5</title>
<path fill="none" stroke="#000000" d="M46.1034,-215.903C49.4078,-197.6089 55.1062,-168.6035 62,-144 64.402,-135.4275 67.4493,-126.2426 70.3963,-117.9233"/>
<polygon fill="#000000" stroke="#000000" points="73.7658,-118.8986 73.8911,-108.3045 67.1866,-116.5081 73.7658,-118.8986"/>
<g id="a_edge8&#45;headlabel"><a xlink:href="dir_000010_000014.html" target="_top" xlink:title="3">
<text text-anchor="middle" x="75.207" y="-120.7466" font-family="Helvetica,sans-Serif" font-size="10.00" fill="#000000">3</text>
</a>
</g>
</g>
<!-- dir_c45f2e881dec49fd11c03e7eb21cc175 -->
<g id="node4" class="node">
<title>dir_c45f2e881dec49fd11c03e7eb21cc175</title>
<g id="a_node4"><a xlink:href="dir_c45f2e881dec49fd11c03e7eb21cc175.html" target="_top" xlink:title="density">
<polygon fill="none" stroke="#000000" points="142,-252 88,-252 88,-216 142,-216 142,-252"/>
<text text-anchor="middle" x="115" y="-231.5" font-family="Helvetica,sans-Serif" font-size="10.00" fill="#000000">density</text>
</a>
</g>
</g>
<!-- dir_d1b0f45016cd06bf2eb252bd3f501161&#45;&gt;dir_c45f2e881dec49fd11c03e7eb21cc175 -->
<g id="edge9" class="edge">
<title>dir_d1b0f45016cd06bf2eb252bd3f501161&#45;&gt;dir_c45f2e881dec49fd11c03e7eb21cc175</title>
<path fill="none" stroke="#000000" d="M70.2813,-234C72.7377,-234 75.1942,-234 77.6507,-234"/>
<polygon fill="#000000" stroke="#000000" points="77.7495,-237.5001 87.7495,-234 77.7495,-230.5001 77.7495,-237.5001"/>
<g id="a_edge9&#45;headlabel"><a xlink:href="dir_000010_000006.html" target="_top" xlink:title="1">
<text text-anchor="middle" x="74.1549" y="-237.8393" font-family="Helvetica,sans-Serif" font-size="10.00" fill="#000000">1</text>
</a>
</g>
</g>
<!-- dir_5dff776341474e546195e534ccdc31ab -->
<g id="node5" class="node">
<title>dir_5dff776341474e546195e534ccdc31ab</title>
<g id="a_node5"><a xlink:href="dir_5dff776341474e546195e534ccdc31ab.html" target="_top" xlink:title="linalg">
<polygon fill="none" stroke="#000000" points="108,-36 54,-36 54,0 108,0 108,-36"/>
<text text-anchor="middle" x="81" y="-15.5" font-family="Helvetica,sans-Serif" font-size="10.00" fill="#000000">linalg</text>
</a>
</g>
</g>
<!-- dir_d1b0f45016cd06bf2eb252bd3f501161&#45;&gt;dir_5dff776341474e546195e534ccdc31ab -->
<g id="edge10" class="edge">
<title>dir_d1b0f45016cd06bf2eb252bd3f501161&#45;&gt;dir_5dff776341474e546195e534ccdc31ab</title>
<path fill="none" stroke="#000000" d="M39.968,-215.9883C35.5491,-185.5264 29.4476,-122.2459 45,-72 48.0167,-62.254 53.403,-52.6467 59.1054,-44.2993"/>
<polygon fill="#000000" stroke="#000000" points="62.0168,-46.247 65.0762,-36.1035 56.359,-42.1252 62.0168,-46.247"/>
<g id="a_edge10&#45;headlabel"><a xlink:href="dir_000010_000009.html" target="_top" xlink:title="1">
<text text-anchor="middle" x="62.1951" y="-48.3242" font-family="Helvetica,sans-Serif" font-size="10.00" fill="#000000">1</text>
</a>
</g>
</g>
<!-- dir_b1780c5770c70e338c74f731f04dbc04&#45;&gt;dir_f599252a6ed79d26501e6b7d925f2ed5 -->
<g id="edge1" class="edge">
<title>dir_b1780c5770c70e338c74f731f04dbc04&#45;&gt;dir_f599252a6ed79d26501e6b7d925f2ed5</title>
<path fill="none" stroke="#000000" d="M97.4485,-143.8314C95.0697,-136.0463 92.2362,-126.7729 89.5967,-118.1347"/>
<polygon fill="#000000" stroke="#000000" points="92.8958,-116.954 86.6263,-108.4133 86.2013,-118.9996 92.8958,-116.954"/>
<g id="a_edge1&#45;headlabel"><a xlink:href="dir_000016_000014.html" target="_top" xlink:title="3">
<text text-anchor="middle" x="96.6614" y="-117.062" font-family="Helvetica,sans-Serif" font-size="10.00" fill="#000000">3</text>
</a>
</g>
</g>
<!-- dir_f599252a6ed79d26501e6b7d925f2ed5&#45;&gt;dir_5dff776341474e546195e534ccdc31ab -->
<g id="edge2" class="edge">
<title>dir_f599252a6ed79d26501e6b7d925f2ed5&#45;&gt;dir_5dff776341474e546195e534ccdc31ab</title>
<path fill="none" stroke="#000000" d="M75.0476,-71.8314C74.2972,-64.131 74.0763,-54.9743 74.3849,-46.4166"/>
<polygon fill="#000000" stroke="#000000" points="77.8792,-46.6161 75.024,-36.4133 70.8935,-46.1697 77.8792,-46.6161"/>
<g id="a_edge2&#45;headlabel"><a xlink:href="dir_000014_000009.html" target="_top" xlink:title="3">
<text text-anchor="middle" x="80.4836" y="-47.8844" font-family="Helvetica,sans-Serif" font-size="10.00" fill="#000000">3</text>
</a>
</g>
</g>
<!-- dir_c45f2e881dec49fd11c03e7eb21cc175&#45;&gt;dir_d1b0f45016cd06bf2eb252bd3f501161 -->
<g id="edge5" class="edge">
<title>dir_c45f2e881dec49fd11c03e7eb21cc175&#45;&gt;dir_d1b0f45016cd06bf2eb252bd3f501161</title>
<path fill="none" stroke="#000000" d="M87.7495,-234C85.293,-234 82.8366,-234 80.3801,-234"/>
<polygon fill="#000000" stroke="#000000" points="80.2813,-230.5001 70.2813,-234 80.2812,-237.5001 80.2813,-230.5001"/>
<g id="a_edge5&#45;headlabel"><a xlink:href="dir_000006_000010.html" target="_top" xlink:title="3">
<text text-anchor="middle" x="83.8759" y="-225.1607" font-family="Helvetica,sans-Serif" font-size="10.00" fill="#000000">3</text>
</a>
</g>
</g>
<!-- dir_c45f2e881dec49fd11c03e7eb21cc175&#45;&gt;dir_b1780c5770c70e338c74f731f04dbc04 -->
<g id="edge3" class="edge">
<title>dir_c45f2e881dec49fd11c03e7eb21cc175&#45;&gt;dir_b1780c5770c70e338c74f731f04dbc04</title>
<path fill="none" stroke="#000000" d="M111.9719,-215.8314C110.6885,-208.131 109.1624,-198.9743 107.7361,-190.4166"/>
<polygon fill="#000000" stroke="#000000" points="111.1653,-189.7018 106.0689,-180.4133 104.2606,-190.8526 111.1653,-189.7018"/>
<g id="a_edge3&#45;headlabel"><a xlink:href="dir_000006_000016.html" target="_top" xlink:title="2">
<text text-anchor="middle" x="114.5568" y="-190.2807" font-family="Helvetica,sans-Serif" font-size="10.00" fill="#000000">2</text>
</a>
</g>
</g>
<!-- dir_c45f2e881dec49fd11c03e7eb21cc175&#45;&gt;dir_f599252a6ed79d26501e6b7d925f2ed5 -->
<g id="edge4" class="edge">
<title>dir_c45f2e881dec49fd11c03e7eb21cc175&#45;&gt;dir_f599252a6ed79d26501e6b7d925f2ed5</title>
<path fill="none" stroke="#000000" d="M128.5794,-215.9369C140.7265,-197.4184 155.0439,-168.012 144,-144 138.052,-131.0678 127.3096,-120.0737 116.3602,-111.4482"/>
<polygon fill="#000000" stroke="#000000" points="118.1534,-108.4226 108.0226,-105.3211 114.0081,-114.0633 118.1534,-108.4226"/>
<g id="a_edge4&#45;headlabel"><a xlink:href="dir_000006_000014.html" target="_top" xlink:title="1">
<text text-anchor="middle" x="122.7313" y="-105.7633" font-family="Helvetica,sans-Serif" font-size="10.00" fill="#000000">1</text>
</a>
</g>
</g>
<!-- dir_5dff776341474e546195e534ccdc31ab&#45;&gt;dir_f599252a6ed79d26501e6b7d925f2ed5 -->
<g id="edge6" class="edge">
<title>dir_5dff776341474e546195e534ccdc31ab&#45;&gt;dir_f599252a6ed79d26501e6b7d925f2ed5</title>
<path fill="none" stroke="#000000" d="M86.976,-36.4133C87.7071,-44.0593 87.9203,-53.1084 87.6155,-61.5726"/>
<polygon fill="#000000" stroke="#000000" points="84.1048,-61.6264 86.9524,-71.8314 91.0902,-62.078 84.1048,-61.6264"/>
<g id="a_edge6&#45;headlabel"><a xlink:href="dir_000009_000014.html" target="_top" xlink:title="5">
<text text-anchor="middle" x="81.5032" y="-55.3562" font-family="Helvetica,sans-Serif" font-size="10.00" fill="#000000">5</text>
</a>
</g>
</g>
</g>
</svg>
