<?xml version="1.0" encoding="UTF-8" standalone="no"?>
<!DOCTYPE svg PUBLIC "-//W3C//DTD SVG 1.1//EN"
 "http://www.w3.org/Graphics/SVG/1.1/DTD/svg11.dtd">
<!-- Generated by graphviz version 2.40.1 (20161225.0304)
 -->
<!-- Title: hubbard Pages: 1 -->
<svg width="298pt" height="439pt"
 viewBox="0.00 0.00 297.97 439.00" xmlns="http://www.w3.org/2000/svg" xmlns:xlink="http://www.w3.org/1999/xlink">
<g id="graph0" class="graph" transform="scale(1 1) rotate(0) translate(4 435)">
<title>hubbard</title>
<polygon fill="#ffffff" stroke="transparent" points="-4,4 -4,-435 293.9704,-435 293.9704,4 -4,4"/>
<g id="clust1" class="cluster">
<title>clusterdir_68267d1309a1af8e8297ef4c3efbcdba</title>
<g id="a_clust1"><a xlink:href="dir_68267d1309a1af8e8297ef4c3efbcdba.html" target="_top" xlink:title="src">
<polygon fill="#ddddee" stroke="#000000" points="133.9704,-352 133.9704,-423 203.9704,-423 203.9704,-352 133.9704,-352"/>
<text text-anchor="middle" x="168.9704" y="-411" font-family="Helvetica,sans-Serif" font-size="10.00" fill="#000000">src</text>
</a>
</g>
</g>
<!-- dir_943433e5c898142b26d01d6086e5b430 -->
<g id="node1" class="node">
<title>dir_943433e5c898142b26d01d6086e5b430</title>
<g id="a_node1"><a xlink:href="dir_943433e5c898142b26d01d6086e5b430.html" target="_top" xlink:title="hubbard">
<polygon fill="#eeeeff" stroke="#000000" points="195.9704,-396 141.9704,-396 141.9704,-360 195.9704,-360 195.9704,-396"/>
<text text-anchor="middle" x="168.9704" y="-375.5" font-family="Helvetica,sans-Serif" font-size="10.00" fill="#000000">hubbard</text>
</a>
</g>
</g>
<!-- dir_f599252a6ed79d26501e6b7d925f2ed5 -->
<g id="node2" class="node">
<title>dir_f599252a6ed79d26501e6b7d925f2ed5</title>
<g id="a_node2"><a xlink:href="dir_f599252a6ed79d26501e6b7d925f2ed5.html" target="_top" xlink:title="SDDK">
<polygon fill="none" stroke="#000000" points="194.9704,-108 140.9704,-108 140.9704,-72 194.9704,-72 194.9704,-108"/>
<text text-anchor="middle" x="167.9704" y="-87.5" font-family="Helvetica,sans-Serif" font-size="10.00" fill="#000000">SDDK</text>
</a>
</g>
</g>
<!-- dir_943433e5c898142b26d01d6086e5b430&#45;&gt;dir_f599252a6ed79d26501e6b7d925f2ed5 -->
<g id="edge6" class="edge">
<title>dir_943433e5c898142b26d01d6086e5b430&#45;&gt;dir_f599252a6ed79d26501e6b7d925f2ed5</title>
<path fill="none" stroke="#000000" d="M196.0797,-362.9972C209.8746,-353.7409 225.3129,-340.4801 232.9704,-324 266.1308,-252.6337 216.3886,-160.9486 187.0011,-116.5065"/>
<polygon fill="#000000" stroke="#000000" points="189.7564,-114.3331 181.2508,-108.0159 183.9605,-118.2584 189.7564,-114.3331"/>
<g id="a_edge6&#45;headlabel"><a xlink:href="dir_000004_000014.html" target="_top" xlink:title="4">
<text text-anchor="middle" x="194.1229" y="-113.2173" font-family="Helvetica,sans-Serif" font-size="10.00" fill="#000000">4</text>
</a>
</g>
</g>
<!-- dir_21f7b4eed03979aefcc3eb2d66364a44 -->
<g id="node3" class="node">
<title>dir_21f7b4eed03979aefcc3eb2d66364a44</title>
<g id="a_node3"><a xlink:href="dir_21f7b4eed03979aefcc3eb2d66364a44.html" target="_top" xlink:title="hamiltonian">
<polygon fill="none" stroke="#000000" points="184.9704,-252 116.9704,-252 116.9704,-216 184.9704,-216 184.9704,-252"/>
<text text-anchor="middle" x="150.9704" y="-231.5" font-family="Helvetica,sans-Serif" font-size="10.00" fill="#000000">hamiltonian</text>
</a>
</g>
</g>
<!-- dir_943433e5c898142b26d01d6086e5b430&#45;&gt;dir_21f7b4eed03979aefcc3eb2d66364a44 -->
<g id="edge7" class="edge">
<title>dir_943433e5c898142b26d01d6086e5b430&#45;&gt;dir_21f7b4eed03979aefcc3eb2d66364a44</title>
<path fill="none" stroke="#000000" d="M166.0639,-359.5288C164.467,-349.1089 162.505,-335.8424 160.9704,-324 158.3102,-303.4713 155.741,-280.2508 153.873,-262.5383"/>
<polygon fill="#000000" stroke="#000000" points="157.3233,-261.8785 152.8059,-252.2949 150.3609,-262.6038 157.3233,-261.8785"/>
<g id="a_edge7&#45;headlabel"><a xlink:href="dir_000004_000021.html" target="_top" xlink:title="1">
<text text-anchor="middle" x="160.5196" y="-262.6596" font-family="Helvetica,sans-Serif" font-size="10.00" fill="#000000">1</text>
</a>
</g>
</g>
<!-- dir_db9a87b27e79d48ff721c11f86eab7d7 -->
<g id="node4" class="node">
<title>dir_db9a87b27e79d48ff721c11f86eab7d7</title>
<g id="a_node4"><a xlink:href="dir_db9a87b27e79d48ff721c11f86eab7d7.html" target="_top" xlink:title="beta_projectors">
<polygon fill="none" stroke="#000000" points="101.4704,-180 16.4704,-180 16.4704,-144 101.4704,-144 101.4704,-180"/>
<text text-anchor="middle" x="58.9704" y="-159.5" font-family="Helvetica,sans-Serif" font-size="10.00" fill="#000000">beta_projectors</text>
</a>
</g>
</g>
<!-- dir_943433e5c898142b26d01d6086e5b430&#45;&gt;dir_db9a87b27e79d48ff721c11f86eab7d7 -->
<g id="edge8" class="edge">
<title>dir_943433e5c898142b26d01d6086e5b430&#45;&gt;dir_db9a87b27e79d48ff721c11f86eab7d7</title>
<path fill="none" stroke="#000000" d="M141.9396,-374.1363C113.7465,-368.5079 70.934,-355.0905 50.9704,-324 24.8413,-283.3075 37.3692,-224.3074 48.4476,-189.8751"/>
<polygon fill="#000000" stroke="#000000" points="51.891,-190.6198 51.7948,-180.0254 45.2633,-188.3675 51.891,-190.6198"/>
<g id="a_edge8&#45;headlabel"><a xlink:href="dir_000004_000008.html" target="_top" xlink:title="3">
<text text-anchor="middle" x="53.4228" y="-192.4368" font-family="Helvetica,sans-Serif" font-size="10.00" fill="#000000">3</text>
</a>
</g>
</g>
<!-- dir_295205cd1bf15bf63a3635aca83f2eed -->
<g id="node5" class="node">
<title>dir_295205cd1bf15bf63a3635aca83f2eed</title>
<g id="a_node5"><a xlink:href="dir_295205cd1bf15bf63a3635aca83f2eed.html" target="_top" xlink:title="k_point">
<polygon fill="none" stroke="#000000" points="113.9704,-324 59.9704,-324 59.9704,-288 113.9704,-288 113.9704,-324"/>
<text text-anchor="middle" x="86.9704" y="-303.5" font-family="Helvetica,sans-Serif" font-size="10.00" fill="#000000">k_point</text>
</a>
</g>
</g>
<!-- dir_943433e5c898142b26d01d6086e5b430&#45;&gt;dir_295205cd1bf15bf63a3635aca83f2eed -->
<g id="edge9" class="edge">
<title>dir_943433e5c898142b26d01d6086e5b430&#45;&gt;dir_295205cd1bf15bf63a3635aca83f2eed</title>
<path fill="none" stroke="#000000" d="M148.2783,-359.8314C138.2756,-351.0485 126.1154,-340.3712 115.2705,-330.8489"/>
<polygon fill="#000000" stroke="#000000" points="117.4796,-328.1308 107.6558,-324.1628 112.861,-333.3909 117.4796,-328.1308"/>
<g id="a_edge9&#45;headlabel"><a xlink:href="dir_000004_000019.html" target="_top" xlink:title="2">
<text text-anchor="middle" x="122.054" y="-325.869" font-family="Helvetica,sans-Serif" font-size="10.00" fill="#000000">2</text>
</a>
</g>
</g>
<!-- dir_a1204cba622aba6a1707a5a7155182eb -->
<g id="node6" class="node">
<title>dir_a1204cba622aba6a1707a5a7155182eb</title>
<g id="a_node6"><a xlink:href="dir_a1204cba622aba6a1707a5a7155182eb.html" target="_top" xlink:title="symmetry">
<polygon fill="none" stroke="#000000" points="197.9704,-36 137.9704,-36 137.9704,0 197.9704,0 197.9704,-36"/>
<text text-anchor="middle" x="167.9704" y="-15.5" font-family="Helvetica,sans-Serif" font-size="10.00" fill="#000000">symmetry</text>
</a>
</g>
</g>
<!-- dir_943433e5c898142b26d01d6086e5b430&#45;&gt;dir_a1204cba622aba6a1707a5a7155182eb -->
<g id="edge10" class="edge">
<title>dir_943433e5c898142b26d01d6086e5b430&#45;&gt;dir_a1204cba622aba6a1707a5a7155182eb</title>
<path fill="none" stroke="#000000" d="M196.3032,-365.5517C214.1486,-356.2576 236.8565,-342.0624 251.9704,-324 279.834,-290.7005 289.9704,-277.4193 289.9704,-234 289.9704,-234 289.9704,-234 289.9704,-162 289.9704,-109.5218 242.2187,-66.3443 206.4647,-41.3704"/>
<polygon fill="#000000" stroke="#000000" points="208.3692,-38.4331 198.1277,-35.7196 204.4417,-44.2275 208.3692,-38.4331"/>
<g id="a_edge10&#45;headlabel"><a xlink:href="dir_000004_000011.html" target="_top" xlink:title="1">
<text text-anchor="middle" x="212.9377" y="-35.5996" font-family="Helvetica,sans-Serif" font-size="10.00" fill="#000000">1</text>
</a>
</g>
</g>
<!-- dir_2fb6fc0a3945af305d3368b6f7854655 -->
<g id="node7" class="node">
<title>dir_2fb6fc0a3945af305d3368b6f7854655</title>
<g id="a_node7"><a xlink:href="dir_2fb6fc0a3945af305d3368b6f7854655.html" target="_top" xlink:title="radial">
<polygon fill="none" stroke="#000000" points="223.9704,-324 169.9704,-324 169.9704,-288 223.9704,-288 223.9704,-324"/>
<text text-anchor="middle" x="196.9704" y="-303.5" font-family="Helvetica,sans-Serif" font-size="10.00" fill="#000000">radial</text>
</a>
</g>
</g>
<!-- dir_943433e5c898142b26d01d6086e5b430&#45;&gt;dir_2fb6fc0a3945af305d3368b6f7854655 -->
<g id="edge11" class="edge">
<title>dir_943433e5c898142b26d01d6086e5b430&#45;&gt;dir_2fb6fc0a3945af305d3368b6f7854655</title>
<path fill="none" stroke="#000000" d="M176.036,-359.8314C179.0964,-351.9617 182.7483,-342.5712 186.1386,-333.8533"/>
<polygon fill="#000000" stroke="#000000" points="189.4472,-335.0019 189.8097,-324.4133 182.9231,-332.4647 189.4472,-335.0019"/>
<g id="a_edge11&#45;headlabel"><a xlink:href="dir_000004_000023.html" target="_top" xlink:title="1">
<text text-anchor="middle" x="190.7906" y="-336.8812" font-family="Helvetica,sans-Serif" font-size="10.00" fill="#000000">1</text>
</a>
</g>
</g>
<!-- dir_f599252a6ed79d26501e6b7d925f2ed5&#45;&gt;dir_a1204cba622aba6a1707a5a7155182eb -->
<g id="edge1" class="edge">
<title>dir_f599252a6ed79d26501e6b7d925f2ed5&#45;&gt;dir_a1204cba622aba6a1707a5a7155182eb</title>
<path fill="none" stroke="#000000" d="M162.018,-71.8314C161.2676,-64.131 161.0467,-54.9743 161.3553,-46.4166"/>
<polygon fill="#000000" stroke="#000000" points="164.8496,-46.6161 161.9944,-36.4133 157.8639,-46.1697 164.8496,-46.6161"/>
<g id="a_edge1&#45;headlabel"><a xlink:href="dir_000014_000011.html" target="_top" xlink:title="1">
<text text-anchor="middle" x="167.454" y="-47.8844" font-family="Helvetica,sans-Serif" font-size="10.00" fill="#000000">1</text>
</a>
</g>
</g>
<!-- dir_21f7b4eed03979aefcc3eb2d66364a44&#45;&gt;dir_f599252a6ed79d26501e6b7d925f2ed5 -->
<g id="edge2" class="edge">
<title>dir_21f7b4eed03979aefcc3eb2d66364a44&#45;&gt;dir_f599252a6ed79d26501e6b7d925f2ed5</title>
<path fill="none" stroke="#000000" d="M153.1235,-215.7623C156.0231,-191.201 161.212,-147.2474 164.6231,-118.3541"/>
<polygon fill="#000000" stroke="#000000" points="168.1382,-118.431 165.8348,-108.0896 161.1865,-117.6103 168.1382,-118.431"/>
<g id="a_edge2&#45;headlabel"><a xlink:href="dir_000021_000014.html" target="_top" xlink:title="6">
<text text-anchor="middle" x="170.5365" y="-119.8337" font-family="Helvetica,sans-Serif" font-size="10.00" fill="#000000">6</text>
</a>
</g>
</g>
<!-- dir_21f7b4eed03979aefcc3eb2d66364a44&#45;&gt;dir_db9a87b27e79d48ff721c11f86eab7d7 -->
<g id="edge3" class="edge">
<title>dir_21f7b4eed03979aefcc3eb2d66364a44&#45;&gt;dir_db9a87b27e79d48ff721c11f86eab7d7</title>
<path fill="none" stroke="#000000" d="M127.7549,-215.8314C116.4234,-206.9632 102.624,-196.1637 90.3677,-186.5718"/>
<polygon fill="#000000" stroke="#000000" points="92.2106,-183.5697 82.1785,-180.1628 87.8964,-189.0822 92.2106,-183.5697"/>
<g id="a_edge3&#45;headlabel"><a xlink:href="dir_000021_000008.html" target="_top" xlink:title="1">
<text text-anchor="middle" x="96.7912" y="-181.0491" font-family="Helvetica,sans-Serif" font-size="10.00" fill="#000000">1</text>
</a>
</g>
</g>
<!-- dir_21f7b4eed03979aefcc3eb2d66364a44&#45;&gt;dir_295205cd1bf15bf63a3635aca83f2eed -->
<g id="edge4" class="edge">
<title>dir_21f7b4eed03979aefcc3eb2d66364a44&#45;&gt;dir_295205cd1bf15bf63a3635aca83f2eed</title>
<path fill="none" stroke="#000000" d="M140.5791,-252.4133C133.8398,-260.9088 124.9213,-271.1366 116.2477,-280.3696"/>
<polygon fill="#000000" stroke="#000000" points="113.481,-278.1972 109.0727,-287.8314 118.5268,-283.049 113.481,-278.1972"/>
<g id="a_edge4&#45;headlabel"><a xlink:href="dir_000021_000019.html" target="_top" xlink:title="1">
<text text-anchor="middle" x="113.9259" y="-271.1382" font-family="Helvetica,sans-Serif" font-size="10.00" fill="#000000">1</text>
</a>
</g>
</g>
<!-- dir_db9a87b27e79d48ff721c11f86eab7d7&#45;&gt;dir_f599252a6ed79d26501e6b7d925f2ed5 -->
<g id="edge5" class="edge">
<title>dir_db9a87b27e79d48ff721c11f86eab7d7&#45;&gt;dir_f599252a6ed79d26501e6b7d925f2ed5</title>
<path fill="none" stroke="#000000" d="M86.4757,-143.8314C100.3938,-134.6377 117.4543,-123.3684 132.3625,-113.5208"/>
<polygon fill="#000000" stroke="#000000" points="134.4366,-116.3455 140.8515,-107.9134 130.5784,-110.5047 134.4366,-116.3455"/>
<g id="a_edge5&#45;headlabel"><a xlink:href="dir_000008_000014.html" target="_top" xlink:title="1">
<text text-anchor="middle" x="133.0021" y="-118.1957" font-family="Helvetica,sans-Serif" font-size="10.00" fill="#000000">1</text>
</a>
</g>
</g>
<!-- dir_295205cd1bf15bf63a3635aca83f2eed&#45;&gt;dir_f599252a6ed79d26501e6b7d925f2ed5 -->
<g id="edge12" class="edge">
<title>dir_295205cd1bf15bf63a3635aca83f2eed&#45;&gt;dir_f599252a6ed79d26501e6b7d925f2ed5</title>
<path fill="none" stroke="#000000" d="M90.0356,-287.7451C93.4041,-269.328 99.4861,-240.229 107.9704,-216 120.3249,-180.7185 139.5817,-142.1969 152.9333,-117.1562"/>
<polygon fill="#000000" stroke="#000000" points="156.0681,-118.717 157.7346,-108.2541 149.907,-115.3941 156.0681,-118.717"/>
<g id="a_edge12&#45;headlabel"><a xlink:href="dir_000019_000014.html" target="_top" xlink:title="4">
<text text-anchor="middle" x="156.8607" y="-120.7286" font-family="Helvetica,sans-Serif" font-size="10.00" fill="#000000">4</text>
</a>
</g>
</g>
<!-- dir_295205cd1bf15bf63a3635aca83f2eed&#45;&gt;dir_21f7b4eed03979aefcc3eb2d66364a44 -->
<g id="edge13" class="edge">
<title>dir_295205cd1bf15bf63a3635aca83f2eed&#45;&gt;dir_21f7b4eed03979aefcc3eb2d66364a44</title>
<path fill="none" stroke="#000000" d="M97.1679,-287.8314C103.865,-279.3694 112.7647,-269.1489 121.4428,-259.8971"/>
<polygon fill="#000000" stroke="#000000" points="124.2267,-262.0511 128.627,-252.4133 119.1769,-257.2034 124.2267,-262.0511"/>
<g id="a_edge13&#45;headlabel"><a xlink:href="dir_000019_000021.html" target="_top" xlink:title="1">
<text text-anchor="middle" x="123.7856" y="-264.1105" font-family="Helvetica,sans-Serif" font-size="10.00" fill="#000000">1</text>
</a>
</g>
</g>
<!-- dir_295205cd1bf15bf63a3635aca83f2eed&#45;&gt;dir_db9a87b27e79d48ff721c11f86eab7d7 -->
<g id="edge14" class="edge">
<title>dir_295205cd1bf15bf63a3635aca83f2eed&#45;&gt;dir_db9a87b27e79d48ff721c11f86eab7d7</title>
<path fill="none" stroke="#000000" d="M82.6649,-287.5469C80.2865,-277.1327 77.3425,-263.8659 74.9704,-252 70.8548,-231.4124 66.7201,-208.0684 63.685,-190.3147"/>
<polygon fill="#000000" stroke="#000000" points="67.1121,-189.5893 61.9905,-180.3146 60.2104,-190.7588 67.1121,-189.5893"/>
<g id="a_edge14&#45;headlabel"><a xlink:href="dir_000019_000008.html" target="_top" xlink:title="1">
<text text-anchor="middle" x="70.5119" y="-190.1591" font-family="Helvetica,sans-Serif" font-size="10.00" fill="#000000">1</text>
</a>
</g>
</g>
<!-- dir_295205cd1bf15bf63a3635aca83f2eed&#45;&gt;dir_a1204cba622aba6a1707a5a7155182eb -->
<g id="edge15" class="edge">
<title>dir_295205cd1bf15bf63a3635aca83f2eed&#45;&gt;dir_a1204cba622aba6a1707a5a7155182eb</title>
<path fill="none" stroke="#000000" d="M66.312,-287.8099C34.938,-257.8699 -18.5155,-196.3083 6.9704,-144 32.0852,-92.4533 89.6167,-55.7874 128.6505,-35.7485"/>
<polygon fill="#000000" stroke="#000000" points="130.2734,-38.8502 137.6555,-31.2504 127.1454,-32.588 130.2734,-38.8502"/>
<g id="a_edge15&#45;headlabel"><a xlink:href="dir_000019_000011.html" target="_top" xlink:title="1">
<text text-anchor="middle" x="128.3264" y="-40.4965" font-family="Helvetica,sans-Serif" font-size="10.00" fill="#000000">1</text>
</a>
</g>
</g>
<!-- dir_a1204cba622aba6a1707a5a7155182eb&#45;&gt;dir_f599252a6ed79d26501e6b7d925f2ed5 -->
<g id="edge16" class="edge">
<title>dir_a1204cba622aba6a1707a5a7155182eb&#45;&gt;dir_f599252a6ed79d26501e6b7d925f2ed5</title>
<path fill="none" stroke="#000000" d="M173.9464,-36.4133C174.6775,-44.0593 174.8907,-53.1084 174.5859,-61.5726"/>
<polygon fill="#000000" stroke="#000000" points="171.0752,-61.6264 173.9228,-71.8314 178.0606,-62.078 171.0752,-61.6264"/>
<g id="a_edge16&#45;headlabel"><a xlink:href="dir_000011_000014.html" target="_top" xlink:title="5">
<text text-anchor="middle" x="168.4736" y="-55.3562" font-family="Helvetica,sans-Serif" font-size="10.00" fill="#000000">5</text>
</a>
</g>
</g>
<!-- dir_2fb6fc0a3945af305d3368b6f7854655&#45;&gt;dir_f599252a6ed79d26501e6b7d925f2ed5 -->
<g id="edge17" class="edge">
<title>dir_2fb6fc0a3945af305d3368b6f7854655&#45;&gt;dir_f599252a6ed79d26501e6b7d925f2ed5</title>
<path fill="none" stroke="#000000" d="M197.2694,-287.6595C197.3529,-269.4236 196.9068,-240.6835 193.9704,-216 189.9301,-182.0377 181.421,-143.6242 175.2346,-118.2354"/>
<polygon fill="#000000" stroke="#000000" points="178.5505,-117.0657 172.7452,-108.2029 171.7565,-118.7515 178.5505,-117.0657"/>
<g id="a_edge17&#45;headlabel"><a xlink:href="dir_000023_000014.html" target="_top" xlink:title="1">
<text text-anchor="middle" x="182.1718" y="-117.3708" font-family="Helvetica,sans-Serif" font-size="10.00" fill="#000000">1</text>
</a>
</g>
</g>
</g>
</svg>
