<?xml version="1.0" encoding="UTF-8" standalone="no"?>
<!DOCTYPE svg PUBLIC "-//W3C//DTD SVG 1.1//EN"
 "http://www.w3.org/Graphics/SVG/1.1/DTD/svg11.dtd">
<!-- Generated by graphviz version 2.40.1 (20161225.0304)
 -->
<!-- Title: Hubbard Pages: 1 -->
<svg width="218pt" height="367pt"
 viewBox="0.00 0.00 217.69 367.00" xmlns="http://www.w3.org/2000/svg" xmlns:xlink="http://www.w3.org/1999/xlink">
<g id="graph0" class="graph" transform="scale(1 1) rotate(0) translate(4 363)">
<title>Hubbard</title>
<polygon fill="#ffffff" stroke="transparent" points="-4,4 -4,-363 213.6859,-363 213.6859,4 -4,4"/>
<g id="clust1" class="cluster">
<title>clusterdir_68267d1309a1af8e8297ef4c3efbcdba</title>
<g id="a_clust1"><a xlink:href="dir_68267d1309a1af8e8297ef4c3efbcdba.html" target="_top" xlink:title="src">
<polygon fill="#ddddee" stroke="#000000" points="30.1859,-280 30.1859,-351 102.1859,-351 102.1859,-280 30.1859,-280"/>
<text text-anchor="middle" x="66.1859" y="-339" font-family="Helvetica,sans-Serif" font-size="10.00" fill="#000000">src</text>
</a>
</g>
</g>
<!-- dir_609c05e5d49759fda00bdbe65713f1e8 -->
<g id="node1" class="node">
<title>dir_609c05e5d49759fda00bdbe65713f1e8</title>
<g id="a_node1"><a xlink:href="dir_609c05e5d49759fda00bdbe65713f1e8.html" target="_top" xlink:title="Hubbard">
<polygon fill="#eeeeff" stroke="#000000" points="93.6859,-324 38.6859,-324 38.6859,-288 93.6859,-288 93.6859,-324"/>
<text text-anchor="middle" x="66.1859" y="-303.5" font-family="Helvetica,sans-Serif" font-size="10.00" fill="#000000">Hubbard</text>
</a>
</g>
</g>
<!-- dir_b3499ae530625f385cc40d234a3477e1 -->
<g id="node2" class="node">
<title>dir_b3499ae530625f385cc40d234a3477e1</title>
<g id="a_node2"><a xlink:href="dir_b3499ae530625f385cc40d234a3477e1.html" target="_top" xlink:title="Hamiltonian">
<polygon fill="none" stroke="#000000" points="132.6859,-252 63.6859,-252 63.6859,-216 132.6859,-216 132.6859,-252"/>
<text text-anchor="middle" x="98.1859" y="-231.5" font-family="Helvetica,sans-Serif" font-size="10.00" fill="#000000">Hamiltonian</text>
</a>
</g>
</g>
<!-- dir_609c05e5d49759fda00bdbe65713f1e8&#45;&gt;dir_b3499ae530625f385cc40d234a3477e1 -->
<g id="edge7" class="edge">
<title>dir_609c05e5d49759fda00bdbe65713f1e8&#45;&gt;dir_b3499ae530625f385cc40d234a3477e1</title>
<path fill="none" stroke="#000000" d="M74.2609,-287.8314C77.7961,-279.8771 82.0219,-270.369 85.9316,-261.5723"/>
<polygon fill="#000000" stroke="#000000" points="89.1392,-262.9729 90.0023,-252.4133 82.7425,-260.1299 89.1392,-262.9729"/>
<g id="a_edge7&#45;headlabel"><a xlink:href="dir_000006_000005.html" target="_top" xlink:title="1">
<text text-anchor="middle" x="90.2739" y="-264.9108" font-family="Helvetica,sans-Serif" font-size="10.00" fill="#000000">1</text>
</a>
</g>
</g>
<!-- dir_f599252a6ed79d26501e6b7d925f2ed5 -->
<g id="node3" class="node">
<title>dir_f599252a6ed79d26501e6b7d925f2ed5</title>
<g id="a_node3"><a xlink:href="dir_f599252a6ed79d26501e6b7d925f2ed5.html" target="_top" xlink:title="SDDK">
<polygon fill="#ffffff" stroke="#ff0000" points="101.1859,-36 47.1859,-36 47.1859,0 101.1859,0 101.1859,-36"/>
<text text-anchor="middle" x="74.1859" y="-15.5" font-family="Helvetica,sans-Serif" font-size="10.00" fill="#000000">SDDK</text>
</a>
</g>
</g>
<!-- dir_609c05e5d49759fda00bdbe65713f1e8&#45;&gt;dir_f599252a6ed79d26501e6b7d925f2ed5 -->
<g id="edge8" class="edge">
<title>dir_609c05e5d49759fda00bdbe65713f1e8&#45;&gt;dir_f599252a6ed79d26501e6b7d925f2ed5</title>
<path fill="none" stroke="#000000" d="M51.067,-287.99C28.2283,-258.5546 -10.9811,-197.9998 3.1859,-144 12.9467,-106.7954 36.4489,-68.9997 53.7521,-44.6422"/>
<polygon fill="#000000" stroke="#000000" points="56.7646,-46.4502 59.8095,-36.3023 51.1009,-42.3365 56.7646,-46.4502"/>
<g id="a_edge8&#45;headlabel"><a xlink:href="dir_000006_000009.html" target="_top" xlink:title="1">
<text text-anchor="middle" x="56.9495" y="-48.5272" font-family="Helvetica,sans-Serif" font-size="10.00" fill="#000000">1</text>
</a>
</g>
</g>
<!-- dir_fdbccf8a388b80005fb5a3667c0ea6ee -->
<g id="node4" class="node">
<title>dir_fdbccf8a388b80005fb5a3667c0ea6ee</title>
<g id="a_node4"><a xlink:href="dir_fdbccf8a388b80005fb5a3667c0ea6ee.html" target="_top" xlink:title="K_point">
<polygon fill="none" stroke="#000000" points="66.1859,-180 12.1859,-180 12.1859,-144 66.1859,-144 66.1859,-180"/>
<text text-anchor="middle" x="39.1859" y="-159.5" font-family="Helvetica,sans-Serif" font-size="10.00" fill="#000000">K_point</text>
</a>
</g>
</g>
<!-- dir_609c05e5d49759fda00bdbe65713f1e8&#45;&gt;dir_fdbccf8a388b80005fb5a3667c0ea6ee -->
<g id="edge9" class="edge">
<title>dir_609c05e5d49759fda00bdbe65713f1e8&#45;&gt;dir_fdbccf8a388b80005fb5a3667c0ea6ee</title>
<path fill="none" stroke="#000000" d="M61.8308,-287.5567C59.437,-277.1455 56.4939,-263.8785 54.1859,-252 50.189,-231.4288 46.3172,-208.0842 43.5087,-190.3261"/>
<polygon fill="#000000" stroke="#000000" points="46.9476,-189.6627 41.9455,-180.3231 40.0316,-190.7436 46.9476,-189.6627"/>
<g id="a_edge9&#45;headlabel"><a xlink:href="dir_000006_000013.html" target="_top" xlink:title="1">
<text text-anchor="middle" x="50.3078" y="-190.2759" font-family="Helvetica,sans-Serif" font-size="10.00" fill="#000000">1</text>
</a>
</g>
</g>
<!-- dir_efab0974afde82118c2e07e0e822e0df -->
<g id="node5" class="node">
<title>dir_efab0974afde82118c2e07e0e822e0df</title>
<g id="a_node5"><a xlink:href="dir_efab0974afde82118c2e07e0e822e0df.html" target="_top" xlink:title="Beta_projectors">
<polygon fill="none" stroke="#000000" points="209.6859,-108 122.6859,-108 122.6859,-72 209.6859,-72 209.6859,-108"/>
<text text-anchor="middle" x="166.1859" y="-87.5" font-family="Helvetica,sans-Serif" font-size="10.00" fill="#000000">Beta_projectors</text>
</a>
</g>
</g>
<!-- dir_609c05e5d49759fda00bdbe65713f1e8&#45;&gt;dir_efab0974afde82118c2e07e0e822e0df -->
<g id="edge10" class="edge">
<title>dir_609c05e5d49759fda00bdbe65713f1e8&#45;&gt;dir_efab0974afde82118c2e07e0e822e0df</title>
<path fill="none" stroke="#000000" d="M93.7912,-293.4948C110.5567,-284.4184 130.8482,-270.4898 142.1859,-252 167.5328,-210.6637 169.7596,-152.5068 168.4217,-118.2857"/>
<polygon fill="#000000" stroke="#000000" points="171.9049,-117.871 167.8869,-108.0676 164.9145,-118.2369 171.9049,-117.871"/>
<g id="a_edge10&#45;headlabel"><a xlink:href="dir_000006_000008.html" target="_top" xlink:title="2">
<text text-anchor="middle" x="174.9281" y="-118.8123" font-family="Helvetica,sans-Serif" font-size="10.00" fill="#000000">2</text>
</a>
</g>
</g>
<!-- dir_b3499ae530625f385cc40d234a3477e1&#45;&gt;dir_f599252a6ed79d26501e6b7d925f2ed5 -->
<g id="edge1" class="edge">
<title>dir_b3499ae530625f385cc40d234a3477e1&#45;&gt;dir_f599252a6ed79d26501e6b7d925f2ed5</title>
<path fill="none" stroke="#000000" d="M96.181,-215.9555C91.9986,-178.3144 82.3178,-91.1867 77.3109,-46.1246"/>
<polygon fill="#000000" stroke="#000000" points="80.7851,-45.6974 76.2021,-36.1451 73.8279,-46.4704 80.7851,-45.6974"/>
<g id="a_edge1&#45;headlabel"><a xlink:href="dir_000005_000009.html" target="_top" xlink:title="1">
<text text-anchor="middle" x="84.0038" y="-46.4565" font-family="Helvetica,sans-Serif" font-size="10.00" fill="#000000">1</text>
</a>
</g>
</g>
<!-- dir_b3499ae530625f385cc40d234a3477e1&#45;&gt;dir_fdbccf8a388b80005fb5a3667c0ea6ee -->
<g id="edge2" class="edge">
<title>dir_b3499ae530625f385cc40d234a3477e1&#45;&gt;dir_fdbccf8a388b80005fb5a3667c0ea6ee</title>
<path fill="none" stroke="#000000" d="M83.2977,-215.8314C76.433,-207.454 68.1559,-197.3531 60.6348,-188.1749"/>
<polygon fill="#000000" stroke="#000000" points="63.32,-185.9297 54.2746,-180.4133 57.9057,-190.3665 63.32,-185.9297"/>
<g id="a_edge2&#45;headlabel"><a xlink:href="dir_000005_000013.html" target="_top" xlink:title="1">
<text text-anchor="middle" x="67.7945" y="-184.4104" font-family="Helvetica,sans-Serif" font-size="10.00" fill="#000000">1</text>
</a>
</g>
</g>
<!-- dir_b3499ae530625f385cc40d234a3477e1&#45;&gt;dir_efab0974afde82118c2e07e0e822e0df -->
<g id="edge3" class="edge">
<title>dir_b3499ae530625f385cc40d234a3477e1&#45;&gt;dir_efab0974afde82118c2e07e0e822e0df</title>
<path fill="none" stroke="#000000" d="M106.7982,-215.7623C118.5498,-190.8764 139.7027,-146.0822 153.3337,-117.2165"/>
<polygon fill="#000000" stroke="#000000" points="156.5384,-118.6267 157.6436,-108.0896 150.2086,-115.6376 156.5384,-118.6267"/>
<g id="a_edge3&#45;headlabel"><a xlink:href="dir_000005_000008.html" target="_top" xlink:title="1">
<text text-anchor="middle" x="157.5709" y="-120.5894" font-family="Helvetica,sans-Serif" font-size="10.00" fill="#000000">1</text>
</a>
</g>
</g>
<!-- dir_fdbccf8a388b80005fb5a3667c0ea6ee&#45;&gt;dir_f599252a6ed79d26501e6b7d925f2ed5 -->
<g id="edge4" class="edge">
<title>dir_fdbccf8a388b80005fb5a3667c0ea6ee&#45;&gt;dir_f599252a6ed79d26501e6b7d925f2ed5</title>
<path fill="none" stroke="#000000" d="M43.6187,-143.7623C49.6148,-119.0928 60.3659,-74.8598 67.3869,-45.9731"/>
<polygon fill="#000000" stroke="#000000" points="70.8283,-46.6334 69.7892,-36.0896 64.0263,-44.9801 70.8283,-46.6334"/>
<g id="a_edge4&#45;headlabel"><a xlink:href="dir_000013_000009.html" target="_top" xlink:title="2">
<text text-anchor="middle" x="72.7383" y="-48.2968" font-family="Helvetica,sans-Serif" font-size="10.00" fill="#000000">2</text>
</a>
</g>
</g>
<!-- dir_fdbccf8a388b80005fb5a3667c0ea6ee&#45;&gt;dir_efab0974afde82118c2e07e0e822e0df -->
<g id="edge5" class="edge">
<title>dir_fdbccf8a388b80005fb5a3667c0ea6ee&#45;&gt;dir_efab0974afde82118c2e07e0e822e0df</title>
<path fill="none" stroke="#000000" d="M66.4306,-146.5542C83.5448,-136.8517 105.9428,-124.1536 125.1785,-113.2483"/>
<polygon fill="#000000" stroke="#000000" points="127.0731,-116.1976 134.0462,-108.221 123.6207,-110.1081 127.0731,-116.1976"/>
<g id="a_edge5&#45;headlabel"><a xlink:href="dir_000013_000008.html" target="_top" xlink:title="1">
<text text-anchor="middle" x="125.3463" y="-117.9403" font-family="Helvetica,sans-Serif" font-size="10.00" fill="#000000">1</text>
</a>
</g>
</g>
<!-- dir_efab0974afde82118c2e07e0e822e0df&#45;&gt;dir_f599252a6ed79d26501e6b7d925f2ed5 -->
<g id="edge6" class="edge">
<title>dir_efab0974afde82118c2e07e0e822e0df&#45;&gt;dir_f599252a6ed79d26501e6b7d925f2ed5</title>
<path fill="none" stroke="#000000" d="M142.9705,-71.8314C131.6389,-62.9632 117.8395,-52.1637 105.5833,-42.5718"/>
<polygon fill="#000000" stroke="#000000" points="107.4262,-39.5697 97.394,-36.1628 103.112,-45.0822 107.4262,-39.5697"/>
<g id="a_edge6&#45;headlabel"><a xlink:href="dir_000008_000009.html" target="_top" xlink:title="2">
<text text-anchor="middle" x="112.0068" y="-37.0491" font-family="Helvetica,sans-Serif" font-size="10.00" fill="#000000">2</text>
</a>
</g>
</g>
</g>
</svg>
