<?xml version="1.0" encoding="UTF-8" standalone="no"?>
<!DOCTYPE svg PUBLIC "-//W3C//DTD SVG 1.1//EN"
 "http://www.w3.org/Graphics/SVG/1.1/DTD/svg11.dtd">
<!-- Generated by graphviz version 2.49.3 (20211023.0002)
 -->
<!-- Title: density Pages: 1 -->
<!--zoomable 527 -->
<svg id="main" version="1.1" xmlns="http://www.w3.org/2000/svg" xmlns:xlink="http://www.w3.org/1999/xlink" xml:space="preserve" onload="init(evt)">
<style type="text/css"><![CDATA[
.edge:hover path { stroke: red; }
.edge:hover polygon { stroke: red; fill: red; }
]]></style>
<script type="text/javascript"><![CDATA[
var edges = document.getElementsByTagName('g');
if (edges && edges.length) {
  for (var i=0;i<edges.length;i++) {
    if (edges[i].id.substr(0,4)=='edge') {
      edges[i].setAttribute('class','edge');
    }
  }
}
]]></script>
        <defs>
                <circle id="rim" cx="0" cy="0" r="7"/>
                <circle id="rim2" cx="0" cy="0" r="3.5"/>
                <g id="zoomPlus">
                        <use xlink:href="#rim" fill="#404040">
                                <set attributeName="fill" to="#808080" begin="zoomplus.mouseover" end="zoomplus.mouseout"/>
                        </use>
                        <path d="M-4,0h8M0,-4v8" fill="none" stroke="white" stroke-width="1.5" pointer-events="none"/>
                </g>
                <g id="zoomMin">
                        <use xlink:href="#rim" fill="#404040">
                                <set attributeName="fill" to="#808080" begin="zoomminus.mouseover" end="zoomminus.mouseout"/>
                        </use>
                        <path d="M-4,0h8" fill="none" stroke="white" stroke-width="1.5" pointer-events="none"/>
                </g>
                <g id="dirArrow">
                        <path fill="none" stroke="white" stroke-width="1.5" d="M0,-3.0v7 M-2.5,-0.5L0,-3.0L2.5,-0.5"/>
                </g>
               <g id="resetDef">
                       <use xlink:href="#rim2" fill="#404040">
                               <set attributeName="fill" to="#808080" begin="reset.mouseover" end="reset.mouseout"/>
                       </use>
               </g>
        </defs>

<script type="text/javascript">
var viewWidth = 326;
var viewHeight = 527;
var sectionId = 'dynsection-0';
</script>
<script xlink:href="svgpan.js"/>
<svg id="graph" class="graph">
<g id="viewport">
<title>density</title>
<polygon fill="white" stroke="transparent" points="-4,4 -4,-523 322,-523 322,4 -4,4"/>
<g id="clust1" class="cluster">
<title>clusterdir_68267d1309a1af8e8297ef4c3efbcdba</title>
<g id="a_clust1"><a xlink:href="dir_68267d1309a1af8e8297ef4c3efbcdba.html" target="_top" xlink:title="src">
<polygon fill="#ddddee" stroke="black" points="8,-8 8,-511 310,-511 310,-8 8,-8"/>
<text text-anchor="middle" x="159" y="-499" font-family="Helvetica,sans-Serif" font-size="10.00">src</text>
</a>
</g>
</g>
<!-- dir_295205cd1bf15bf63a3635aca83f2eed -->
<g id="node1" class="node">
<title>dir_295205cd1bf15bf63a3635aca83f2eed</title>
<g id="a_node1"><a xlink:href="dir_295205cd1bf15bf63a3635aca83f2eed.html" target="_top" xlink:title="k_point">
<polygon fill="none" stroke="black" points="242,-268 188,-268 188,-232 242,-232 242,-268"/>
<text text-anchor="middle" x="215" y="-247.5" font-family="Helvetica,sans-Serif" font-size="10.00">k_point</text>
</a>
</g>
</g>
<!-- dir_a1204cba622aba6a1707a5a7155182eb -->
<g id="node5" class="node">
<title>dir_a1204cba622aba6a1707a5a7155182eb</title>
<g id="a_node5"><a xlink:href="dir_a1204cba622aba6a1707a5a7155182eb.html" target="_top" xlink:title="symmetry">
<polygon fill="none" stroke="black" points="262,-196 202,-196 202,-160 262,-160 262,-196"/>
<text text-anchor="middle" x="232" y="-175.5" font-family="Helvetica,sans-Serif" font-size="10.00">symmetry</text>
</a>
</g>
</g>
<!-- dir_295205cd1bf15bf63a3635aca83f2eed&#45;&gt;dir_a1204cba622aba6a1707a5a7155182eb -->
<g id="edge1" class="edge">
<title>dir_295205cd1bf15bf63a3635aca83f2eed&#45;&gt;dir_a1204cba622aba6a1707a5a7155182eb</title>
<path fill="none" stroke="black" d="M219.2,-231.7C221.1,-223.9 223.38,-214.51 225.48,-205.83"/>
<polygon fill="black" stroke="black" points="228.89,-206.65 227.85,-196.1 222.08,-205 228.89,-206.65"/>
<g id="a_edge1&#45;headlabel"><a xlink:href="dir_000012_000023.html" target="_top" xlink:title="1">
<text text-anchor="middle" x="230.8" y="-208.31" font-family="Helvetica,sans-Serif" font-size="10.00">1</text>
</a>
</g>
</g>
<!-- dir_f599252a6ed79d26501e6b7d925f2ed5 -->
<g id="node8" class="node">
<title>dir_f599252a6ed79d26501e6b7d925f2ed5</title>
<g id="a_node8"><a xlink:href="dir_f599252a6ed79d26501e6b7d925f2ed5.html" target="_top" xlink:title="SDDK">
<polygon fill="none" stroke="black" points="210,-124 156,-124 156,-88 210,-88 210,-124"/>
<text text-anchor="middle" x="183" y="-103.5" font-family="Helvetica,sans-Serif" font-size="10.00">SDDK</text>
</a>
</g>
</g>
<!-- dir_295205cd1bf15bf63a3635aca83f2eed&#45;&gt;dir_f599252a6ed79d26501e6b7d925f2ed5 -->
<g id="edge2" class="edge">
<title>dir_295205cd1bf15bf63a3635aca83f2eed&#45;&gt;dir_f599252a6ed79d26501e6b7d925f2ed5</title>
<path fill="none" stroke="black" d="M206.39,-231.76C201.69,-221.6 196.19,-208.35 193,-196 187.76,-175.71 185.27,-152.11 184.08,-134.32"/>
<polygon fill="black" stroke="black" points="187.57,-134.11 183.51,-124.32 180.58,-134.51 187.57,-134.11"/>
<g id="a_edge2&#45;headlabel"><a xlink:href="dir_000012_000020.html" target="_top" xlink:title="5">
<text text-anchor="middle" x="190.61" y="-135.03" font-family="Helvetica,sans-Serif" font-size="10.00">5</text>
</a>
</g>
</g>
<!-- dir_2fb6fc0a3945af305d3368b6f7854655 -->
<g id="node2" class="node">
<title>dir_2fb6fc0a3945af305d3368b6f7854655</title>
<g id="a_node2"><a xlink:href="dir_2fb6fc0a3945af305d3368b6f7854655.html" target="_top" xlink:title="radial">
<polygon fill="none" stroke="black" points="150,-268 96,-268 96,-232 150,-232 150,-268"/>
<text text-anchor="middle" x="123" y="-247.5" font-family="Helvetica,sans-Serif" font-size="10.00">radial</text>
</a>
</g>
</g>
<!-- dir_2fb6fc0a3945af305d3368b6f7854655&#45;&gt;dir_f599252a6ed79d26501e6b7d925f2ed5 -->
<g id="edge3" class="edge">
<title>dir_2fb6fc0a3945af305d3368b6f7854655&#45;&gt;dir_f599252a6ed79d26501e6b7d925f2ed5</title>
<path fill="none" stroke="black" d="M129.38,-231.8C136.15,-213.77 147.33,-184.69 158,-160 161.81,-151.18 166.21,-141.65 170.25,-133.14"/>
<polygon fill="black" stroke="black" points="173.44,-134.59 174.6,-124.06 167.13,-131.56 173.44,-134.59"/>
<g id="a_edge3&#45;headlabel"><a xlink:href="dir_000019_000020.html" target="_top" xlink:title="2">
<text text-anchor="middle" x="174.45" y="-136.55" font-family="Helvetica,sans-Serif" font-size="10.00">2</text>
</a>
</g>
</g>
<!-- dir_313caf1132e152dd9b58bea13a4052ca -->
<g id="node3" class="node">
<title>dir_313caf1132e152dd9b58bea13a4052ca</title>
<g id="a_node3"><a xlink:href="dir_313caf1132e152dd9b58bea13a4052ca.html" target="_top" xlink:title="utils">
<polygon fill="none" stroke="black" points="234,-52 180,-52 180,-16 234,-16 234,-52"/>
<text text-anchor="middle" x="207" y="-31.5" font-family="Helvetica,sans-Serif" font-size="10.00">utils</text>
</a>
</g>
</g>
<!-- dir_943433e5c898142b26d01d6086e5b430 -->
<g id="node4" class="node">
<title>dir_943433e5c898142b26d01d6086e5b430</title>
<g id="a_node4"><a xlink:href="dir_943433e5c898142b26d01d6086e5b430.html" target="_top" xlink:title="hubbard">
<polygon fill="none" stroke="black" points="196,-340 142,-340 142,-304 196,-304 196,-340"/>
<text text-anchor="middle" x="169" y="-319.5" font-family="Helvetica,sans-Serif" font-size="10.00">hubbard</text>
</a>
</g>
</g>
<!-- dir_943433e5c898142b26d01d6086e5b430&#45;&gt;dir_295205cd1bf15bf63a3635aca83f2eed -->
<g id="edge4" class="edge">
<title>dir_943433e5c898142b26d01d6086e5b430&#45;&gt;dir_295205cd1bf15bf63a3635aca83f2eed</title>
<path fill="none" stroke="black" d="M180.37,-303.7C185.72,-295.56 192.2,-285.69 198.11,-276.7"/>
<polygon fill="black" stroke="black" points="201.19,-278.38 203.76,-268.1 195.34,-274.54 201.19,-278.38"/>
<g id="a_edge4&#45;headlabel"><a xlink:href="dir_000011_000012.html" target="_top" xlink:title="2">
<text text-anchor="middle" x="201.59" y="-280.45" font-family="Helvetica,sans-Serif" font-size="10.00">2</text>
</a>
</g>
</g>
<!-- dir_943433e5c898142b26d01d6086e5b430&#45;&gt;dir_2fb6fc0a3945af305d3368b6f7854655 -->
<g id="edge5" class="edge">
<title>dir_943433e5c898142b26d01d6086e5b430&#45;&gt;dir_2fb6fc0a3945af305d3368b6f7854655</title>
<path fill="none" stroke="black" d="M157.63,-303.7C152.28,-295.56 145.8,-285.69 139.89,-276.7"/>
<polygon fill="black" stroke="black" points="142.66,-274.54 134.24,-268.1 136.81,-278.38 142.66,-274.54"/>
<g id="a_edge5&#45;headlabel"><a xlink:href="dir_000011_000019.html" target="_top" xlink:title="1">
<text text-anchor="middle" x="147" y="-273.48" font-family="Helvetica,sans-Serif" font-size="10.00">1</text>
</a>
</g>
</g>
<!-- dir_943433e5c898142b26d01d6086e5b430&#45;&gt;dir_f599252a6ed79d26501e6b7d925f2ed5 -->
<g id="edge6" class="edge">
<title>dir_943433e5c898142b26d01d6086e5b430&#45;&gt;dir_f599252a6ed79d26501e6b7d925f2ed5</title>
<path fill="none" stroke="black" d="M170.12,-303.85C172.54,-266.83 178.28,-179.18 181.21,-134.39"/>
<polygon fill="black" stroke="black" points="184.71,-134.44 181.87,-124.23 177.73,-133.98 184.71,-134.44"/>
<g id="a_edge6&#45;headlabel"><a xlink:href="dir_000011_000020.html" target="_top" xlink:title="3">
<text text-anchor="middle" x="187.31" y="-135.71" font-family="Helvetica,sans-Serif" font-size="10.00">3</text>
</a>
</g>
</g>
<!-- dir_a1204cba622aba6a1707a5a7155182eb&#45;&gt;dir_313caf1132e152dd9b58bea13a4052ca -->
<g id="edge7" class="edge">
<title>dir_a1204cba622aba6a1707a5a7155182eb&#45;&gt;dir_313caf1132e152dd9b58bea13a4052ca</title>
<path fill="none" stroke="black" d="M229.9,-159.87C227.6,-141.9 223.62,-112.87 219,-88 217.42,-79.52 215.44,-70.34 213.55,-62.04"/>
<polygon fill="black" stroke="black" points="216.91,-61.06 211.23,-52.12 210.1,-62.65 216.91,-61.06"/>
<g id="a_edge7&#45;headlabel"><a xlink:href="dir_000023_000025.html" target="_top" xlink:title="3">
<text text-anchor="middle" x="220.49" y="-61.41" font-family="Helvetica,sans-Serif" font-size="10.00">3</text>
</a>
</g>
</g>
<!-- dir_a1204cba622aba6a1707a5a7155182eb&#45;&gt;dir_f599252a6ed79d26501e6b7d925f2ed5 -->
<g id="edge8" class="edge">
<title>dir_a1204cba622aba6a1707a5a7155182eb&#45;&gt;dir_f599252a6ed79d26501e6b7d925f2ed5</title>
<path fill="none" stroke="black" d="M213.97,-159.7C207.44,-151.56 200.32,-141.69 194.46,-132.7"/>
<polygon fill="black" stroke="black" points="197.35,-130.73 189.08,-124.1 191.42,-134.44 197.35,-130.73"/>
<g id="a_edge8&#45;headlabel"><a xlink:href="dir_000023_000020.html" target="_top" xlink:title="7">
<text text-anchor="middle" x="201.66" y="-129.77" font-family="Helvetica,sans-Serif" font-size="10.00">7</text>
</a>
</g>
</g>
<!-- dir_b1780c5770c70e338c74f731f04dbc04 -->
<g id="node6" class="node">
<title>dir_b1780c5770c70e338c74f731f04dbc04</title>
<g id="a_node6"><a xlink:href="dir_b1780c5770c70e338c74f731f04dbc04.html" target="_top" xlink:title="function3d">
<polygon fill="none" stroke="black" points="103.5,-340 40.5,-340 40.5,-304 103.5,-304 103.5,-340"/>
<text text-anchor="middle" x="72" y="-319.5" font-family="Helvetica,sans-Serif" font-size="10.00">function3d</text>
</a>
</g>
</g>
<!-- dir_b1780c5770c70e338c74f731f04dbc04&#45;&gt;dir_2fb6fc0a3945af305d3368b6f7854655 -->
<g id="edge9" class="edge">
<title>dir_b1780c5770c70e338c74f731f04dbc04&#45;&gt;dir_2fb6fc0a3945af305d3368b6f7854655</title>
<path fill="none" stroke="black" d="M84.61,-303.7C90.6,-295.47 97.88,-285.48 104.48,-276.42"/>
<polygon fill="black" stroke="black" points="107.48,-278.25 110.54,-268.1 101.82,-274.13 107.48,-278.25"/>
<g id="a_edge9&#45;headlabel"><a xlink:href="dir_000007_000019.html" target="_top" xlink:title="1">
<text text-anchor="middle" x="107.66" y="-280.32" font-family="Helvetica,sans-Serif" font-size="10.00">1</text>
</a>
</g>
</g>
<!-- dir_b1780c5770c70e338c74f731f04dbc04&#45;&gt;dir_313caf1132e152dd9b58bea13a4052ca -->
<g id="edge10" class="edge">
<title>dir_b1780c5770c70e338c74f731f04dbc04&#45;&gt;dir_313caf1132e152dd9b58bea13a4052ca</title>
<path fill="none" stroke="black" d="M65.76,-303.59C62.43,-293.37 58.68,-280.12 57,-268 50.21,-219.1 57.76,-202.43 83,-160 107.32,-119.11 147.9,-81.74 175.98,-58.72"/>
<polygon fill="black" stroke="black" points="178.32,-61.33 183.9,-52.33 173.92,-55.88 178.32,-61.33"/>
<g id="a_edge10&#45;headlabel"><a xlink:href="dir_000007_000025.html" target="_top" xlink:title="3">
<text text-anchor="middle" x="177.3" y="-63.3" font-family="Helvetica,sans-Serif" font-size="10.00">3</text>
</a>
</g>
</g>
<!-- dir_b1780c5770c70e338c74f731f04dbc04&#45;&gt;dir_a1204cba622aba6a1707a5a7155182eb -->
<g id="edge11" class="edge">
<title>dir_b1780c5770c70e338c74f731f04dbc04&#45;&gt;dir_a1204cba622aba6a1707a5a7155182eb</title>
<path fill="none" stroke="black" d="M70.13,-303.86C68.97,-284.24 70.17,-252.24 87,-232 112.82,-200.94 158.49,-188.09 191.69,-182.76"/>
<polygon fill="black" stroke="black" points="192.58,-186.17 201.99,-181.28 191.59,-179.24 192.58,-186.17"/>
<g id="a_edge11&#45;headlabel"><a xlink:href="dir_000007_000023.html" target="_top" xlink:title="1">
<text text-anchor="middle" x="189.43" y="-186.99" font-family="Helvetica,sans-Serif" font-size="10.00">1</text>
</a>
</g>
</g>
<!-- dir_b1780c5770c70e338c74f731f04dbc04&#45;&gt;dir_f599252a6ed79d26501e6b7d925f2ed5 -->
<g id="edge12" class="edge">
<title>dir_b1780c5770c70e338c74f731f04dbc04&#45;&gt;dir_f599252a6ed79d26501e6b7d925f2ed5</title>
<path fill="none" stroke="black" d="M66.93,-303.93C62.39,-285.51 57.73,-255.63 67,-232 83.69,-189.48 122.39,-152.82 150.51,-130.39"/>
<polygon fill="black" stroke="black" points="152.76,-133.07 158.5,-124.17 148.46,-127.55 152.76,-133.07"/>
<g id="a_edge12&#45;headlabel"><a xlink:href="dir_000007_000020.html" target="_top" xlink:title="4">
<text text-anchor="middle" x="151.67" y="-135.02" font-family="Helvetica,sans-Serif" font-size="10.00">4</text>
</a>
</g>
</g>
<!-- dir_d1b0f45016cd06bf2eb252bd3f501161 -->
<g id="node7" class="node">
<title>dir_d1b0f45016cd06bf2eb252bd3f501161</title>
<g id="a_node7"><a xlink:href="dir_d1b0f45016cd06bf2eb252bd3f501161.html" target="_top" xlink:title="mixer">
<polygon fill="none" stroke="black" points="173,-484 119,-484 119,-448 173,-448 173,-484"/>
<text text-anchor="middle" x="146" y="-463.5" font-family="Helvetica,sans-Serif" font-size="10.00">mixer</text>
</a>
</g>
</g>
<!-- dir_d1b0f45016cd06bf2eb252bd3f501161&#45;&gt;dir_943433e5c898142b26d01d6086e5b430 -->
<g id="edge21" class="edge">
<title>dir_d1b0f45016cd06bf2eb252bd3f501161&#45;&gt;dir_943433e5c898142b26d01d6086e5b430</title>
<path fill="none" stroke="black" d="M147.27,-447.84C148.75,-429.85 151.58,-400.8 156,-376 157.52,-367.47 159.61,-358.28 161.67,-349.98"/>
<polygon fill="black" stroke="black" points="165.12,-350.62 164.22,-340.07 158.34,-348.88 165.12,-350.62"/>
<g id="a_edge21&#45;headlabel"><a xlink:href="dir_000015_000011.html" target="_top" xlink:title="1">
<text text-anchor="middle" x="166.97" y="-352.31" font-family="Helvetica,sans-Serif" font-size="10.00">1</text>
</a>
</g>
</g>
<!-- dir_d1b0f45016cd06bf2eb252bd3f501161&#45;&gt;dir_b1780c5770c70e338c74f731f04dbc04 -->
<g id="edge22" class="edge">
<title>dir_d1b0f45016cd06bf2eb252bd3f501161&#45;&gt;dir_b1780c5770c70e338c74f731f04dbc04</title>
<path fill="none" stroke="black" d="M137.07,-447.87C124.3,-423.35 100.68,-378.03 85.68,-349.26"/>
<polygon fill="black" stroke="black" points="88.68,-347.44 80.96,-340.19 82.48,-350.67 88.68,-347.44"/>
<g id="a_edge22&#45;headlabel"><a xlink:href="dir_000015_000007.html" target="_top" xlink:title="1">
<text text-anchor="middle" x="92.86" y="-346.82" font-family="Helvetica,sans-Serif" font-size="10.00">1</text>
</a>
</g>
</g>
<!-- dir_d1b0f45016cd06bf2eb252bd3f501161&#45;&gt;dir_f599252a6ed79d26501e6b7d925f2ed5 -->
<g id="edge24" class="edge">
<title>dir_d1b0f45016cd06bf2eb252bd3f501161&#45;&gt;dir_f599252a6ed79d26501e6b7d925f2ed5</title>
<path fill="none" stroke="black" d="M118.96,-450.92C81.13,-429.05 17,-383.12 17,-323 17,-323 17,-323 17,-249 17,-181.41 97.45,-139.11 146.34,-119.64"/>
<polygon fill="black" stroke="black" points="147.88,-122.8 155.96,-115.94 145.37,-116.26 147.88,-122.8"/>
<g id="a_edge24&#45;headlabel"><a xlink:href="dir_000015_000020.html" target="_top" xlink:title="4">
<text text-anchor="middle" x="145.55" y="-124.24" font-family="Helvetica,sans-Serif" font-size="10.00">4</text>
</a>
</g>
</g>
<!-- dir_c45f2e881dec49fd11c03e7eb21cc175 -->
<g id="node9" class="node">
<title>dir_c45f2e881dec49fd11c03e7eb21cc175</title>
<g id="a_node9"><a xlink:href="dir_c45f2e881dec49fd11c03e7eb21cc175.html" target="_top" xlink:title="density">
<polygon fill="#eeeeff" stroke="black" points="219,-412 165,-412 165,-376 219,-376 219,-412"/>
<text text-anchor="middle" x="192" y="-391.5" font-family="Helvetica,sans-Serif" font-size="10.00">density</text>
</a>
</g>
</g>
<!-- dir_d1b0f45016cd06bf2eb252bd3f501161&#45;&gt;dir_c45f2e881dec49fd11c03e7eb21cc175 -->
<g id="edge23" class="edge">
<title>dir_d1b0f45016cd06bf2eb252bd3f501161&#45;&gt;dir_c45f2e881dec49fd11c03e7eb21cc175</title>
<path fill="none" stroke="black" d="M151.46,-447.7C156.01,-439.47 162.37,-429.48 168.77,-420.42"/>
<polygon fill="black" stroke="black" points="171.78,-422.24 174.86,-412.1 166.13,-418.1 171.78,-422.24"/>
<g id="a_edge23&#45;headlabel"><a xlink:href="dir_000015_000005.html" target="_top" xlink:title="1">
<text text-anchor="middle" x="171.95" y="-424.32" font-family="Helvetica,sans-Serif" font-size="10.00">1</text>
</a>
</g>
</g>
<!-- dir_f599252a6ed79d26501e6b7d925f2ed5&#45;&gt;dir_313caf1132e152dd9b58bea13a4052ca -->
<g id="edge25" class="edge">
<title>dir_f599252a6ed79d26501e6b7d925f2ed5&#45;&gt;dir_313caf1132e152dd9b58bea13a4052ca</title>
<path fill="none" stroke="black" d="M188.93,-87.7C191.61,-79.9 194.83,-70.51 197.8,-61.83"/>
<polygon fill="black" stroke="black" points="201.2,-62.7 201.14,-52.1 194.58,-60.43 201.2,-62.7"/>
<g id="a_edge25&#45;headlabel"><a xlink:href="dir_000020_000025.html" target="_top" xlink:title="6">
<text text-anchor="middle" x="202.72" y="-64.52" font-family="Helvetica,sans-Serif" font-size="10.00">6</text>
</a>
</g>
</g>
<!-- dir_f599252a6ed79d26501e6b7d925f2ed5&#45;&gt;dir_a1204cba622aba6a1707a5a7155182eb -->
<g id="edge26" class="edge">
<title>dir_f599252a6ed79d26501e6b7d925f2ed5&#45;&gt;dir_a1204cba622aba6a1707a5a7155182eb</title>
<path fill="none" stroke="black" d="M200.87,-124.1C207.39,-132.21 214.51,-142.08 220.4,-151.08"/>
<polygon fill="black" stroke="black" points="217.53,-153.08 225.8,-159.7 223.46,-149.37 217.53,-153.08"/>
<g id="a_edge26&#45;headlabel"><a xlink:href="dir_000020_000023.html" target="_top" xlink:title="1">
<text text-anchor="middle" x="213.21" y="-149.05" font-family="Helvetica,sans-Serif" font-size="10.00">1</text>
</a>
</g>
</g>
<!-- dir_c45f2e881dec49fd11c03e7eb21cc175&#45;&gt;dir_295205cd1bf15bf63a3635aca83f2eed -->
<g id="edge13" class="edge">
<title>dir_c45f2e881dec49fd11c03e7eb21cc175&#45;&gt;dir_295205cd1bf15bf63a3635aca83f2eed</title>
<path fill="none" stroke="black" d="M196.78,-375.93C199.52,-365.6 202.84,-352.13 205,-340 208.66,-319.46 211.23,-296.01 212.85,-278.34"/>
<polygon fill="black" stroke="black" points="216.35,-278.42 213.73,-268.16 209.38,-277.81 216.35,-278.42"/>
<g id="a_edge13&#45;headlabel"><a xlink:href="dir_000005_000012.html" target="_top" xlink:title="2">
<text text-anchor="middle" x="218.87" y="-279.75" font-family="Helvetica,sans-Serif" font-size="10.00">2</text>
</a>
</g>
</g>
<!-- dir_c45f2e881dec49fd11c03e7eb21cc175&#45;&gt;dir_2fb6fc0a3945af305d3368b6f7854655 -->
<g id="edge14" class="edge">
<title>dir_c45f2e881dec49fd11c03e7eb21cc175&#45;&gt;dir_2fb6fc0a3945af305d3368b6f7854655</title>
<path fill="none" stroke="black" d="M165.53,-375.99C153.55,-366.83 140.44,-354.45 133,-340 123.18,-320.93 121.04,-296.58 121.16,-278.16"/>
<polygon fill="black" stroke="black" points="124.66,-278.19 121.44,-268.1 117.66,-277.99 124.66,-278.19"/>
<g id="a_edge14&#45;headlabel"><a xlink:href="dir_000005_000019.html" target="_top" xlink:title="1">
<text text-anchor="middle" x="127.39" y="-279.36" font-family="Helvetica,sans-Serif" font-size="10.00">1</text>
</a>
</g>
</g>
<!-- dir_c45f2e881dec49fd11c03e7eb21cc175&#45;&gt;dir_313caf1132e152dd9b58bea13a4052ca -->
<g id="edge15" class="edge">
<title>dir_c45f2e881dec49fd11c03e7eb21cc175&#45;&gt;dir_313caf1132e152dd9b58bea13a4052ca</title>
<path fill="none" stroke="black" d="M217.56,-375.89C249.77,-352.04 301,-305.54 301,-251 301,-251 301,-251 301,-177 301,-129.17 263.46,-85.08 235.82,-59.11"/>
<polygon fill="black" stroke="black" points="238.08,-56.42 228.33,-52.27 233.36,-61.6 238.08,-56.42"/>
<g id="a_edge15&#45;headlabel"><a xlink:href="dir_000005_000025.html" target="_top" xlink:title="1">
<text text-anchor="middle" x="242.65" y="-54.25" font-family="Helvetica,sans-Serif" font-size="10.00">1</text>
</a>
</g>
</g>
<!-- dir_c45f2e881dec49fd11c03e7eb21cc175&#45;&gt;dir_943433e5c898142b26d01d6086e5b430 -->
<g id="edge16" class="edge">
<title>dir_c45f2e881dec49fd11c03e7eb21cc175&#45;&gt;dir_943433e5c898142b26d01d6086e5b430</title>
<path fill="none" stroke="black" d="M186.31,-375.7C183.75,-367.9 180.67,-358.51 177.82,-349.83"/>
<polygon fill="black" stroke="black" points="181.07,-348.51 174.62,-340.1 174.42,-350.7 181.07,-348.51"/>
<g id="a_edge16&#45;headlabel"><a xlink:href="dir_000005_000011.html" target="_top" xlink:title="1">
<text text-anchor="middle" x="184.89" y="-348.54" font-family="Helvetica,sans-Serif" font-size="10.00">1</text>
</a>
</g>
</g>
<!-- dir_c45f2e881dec49fd11c03e7eb21cc175&#45;&gt;dir_a1204cba622aba6a1707a5a7155182eb -->
<g id="edge17" class="edge">
<title>dir_c45f2e881dec49fd11c03e7eb21cc175&#45;&gt;dir_a1204cba622aba6a1707a5a7155182eb</title>
<path fill="none" stroke="black" d="M203.22,-375.68C217.62,-352.34 241.81,-308.98 251,-268 254.5,-252.39 253.74,-247.76 251,-232 249.48,-223.24 246.64,-214.01 243.61,-205.75"/>
<polygon fill="black" stroke="black" points="246.79,-204.29 239.89,-196.25 240.28,-206.84 246.79,-204.29"/>
<g id="a_edge17&#45;headlabel"><a xlink:href="dir_000005_000023.html" target="_top" xlink:title="2">
<text text-anchor="middle" x="250.75" y="-204.11" font-family="Helvetica,sans-Serif" font-size="10.00">2</text>
</a>
</g>
</g>
<!-- dir_c45f2e881dec49fd11c03e7eb21cc175&#45;&gt;dir_b1780c5770c70e338c74f731f04dbc04 -->
<g id="edge18" class="edge">
<title>dir_c45f2e881dec49fd11c03e7eb21cc175&#45;&gt;dir_b1780c5770c70e338c74f731f04dbc04</title>
<path fill="none" stroke="black" d="M164.77,-377.12C148.64,-367.7 127.94,-355.63 110.19,-345.28"/>
<polygon fill="black" stroke="black" points="111.62,-342.06 101.22,-340.04 108.09,-348.11 111.62,-342.06"/>
<g id="a_edge18&#45;headlabel"><a xlink:href="dir_000005_000007.html" target="_top" xlink:title="2">
<text text-anchor="middle" x="116.16" y="-338.92" font-family="Helvetica,sans-Serif" font-size="10.00">2</text>
</a>
</g>
</g>
<!-- dir_c45f2e881dec49fd11c03e7eb21cc175&#45;&gt;dir_d1b0f45016cd06bf2eb252bd3f501161 -->
<g id="edge19" class="edge">
<title>dir_c45f2e881dec49fd11c03e7eb21cc175&#45;&gt;dir_d1b0f45016cd06bf2eb252bd3f501161</title>
<path fill="none" stroke="black" d="M186.66,-412.1C182.13,-420.3 175.78,-430.28 169.38,-439.36"/>
<polygon fill="black" stroke="black" points="166.36,-437.56 163.29,-447.7 172.01,-441.69 166.36,-437.56"/>
<g id="a_edge19&#45;headlabel"><a xlink:href="dir_000005_000015.html" target="_top" xlink:title="3">
<text text-anchor="middle" x="166.19" y="-430.48" font-family="Helvetica,sans-Serif" font-size="10.00">3</text>
</a>
</g>
</g>
<!-- dir_c45f2e881dec49fd11c03e7eb21cc175&#45;&gt;dir_f599252a6ed79d26501e6b7d925f2ed5 -->
<g id="edge20" class="edge">
<title>dir_c45f2e881dec49fd11c03e7eb21cc175&#45;&gt;dir_f599252a6ed79d26501e6b7d925f2ed5</title>
<path fill="none" stroke="black" d="M209.96,-375.81C219.21,-366.07 229.99,-353.22 237,-340 275.13,-268.07 311.05,-230.88 271,-160 259.97,-140.47 238.54,-127.34 219.59,-119.03"/>
<polygon fill="black" stroke="black" points="220.84,-115.77 210.26,-115.23 218.2,-122.25 220.84,-115.77"/>
<g id="a_edge20&#45;headlabel"><a xlink:href="dir_000005_000020.html" target="_top" xlink:title="5">
<text text-anchor="middle" x="225.24" y="-111.99" font-family="Helvetica,sans-Serif" font-size="10.00">5</text>
</a>
</g>
</g>
</g>
</svg>
        <g id="navigator" transform="translate(0 0)" fill="#404254">
                <rect fill="#f2f5e9" fill-opacity="0.5" stroke="#606060" stroke-width=".5" x="0" y="0" width="60" height="60"/>
                <use id="zoomplus" xlink:href="#zoomPlus" x="17" y="9" onmousedown="handleZoom(evt,'in')"/>
                <use id="zoomminus" xlink:href="#zoomMin" x="42" y="9" onmousedown="handleZoom(evt,'out')"/>
                <use id="reset" xlink:href="#resetDef" x="30" y="36" onmousedown="handleReset()"/>
                <g id="arrowUp" xlink:href="#dirArrow" transform="translate(30 24)" onmousedown="handlePan(0,-1)">
                  <use xlink:href="#rim" fill="#404040">
                        <set attributeName="fill" to="#808080" begin="arrowUp.mouseover" end="arrowUp.mouseout"/>
                  </use>
                  <path fill="none" stroke="white" stroke-width="1.5" d="M0,-3.0v7 M-2.5,-0.5L0,-3.0L2.5,-0.5"/>
                </g>
                <g id="arrowRight" xlink:href="#dirArrow" transform="rotate(90) translate(36 -43)" onmousedown="handlePan(1,0)">
                  <use xlink:href="#rim" fill="#404040">
                        <set attributeName="fill" to="#808080" begin="arrowRight.mouseover" end="arrowRight.mouseout"/>
                  </use>
                  <path fill="none" stroke="white" stroke-width="1.5" d="M0,-3.0v7 M-2.5,-0.5L0,-3.0L2.5,-0.5"/>
                </g>
                <g id="arrowDown" xlink:href="#dirArrow" transform="rotate(180) translate(-30 -48)" onmousedown="handlePan(0,1)">
                  <use xlink:href="#rim" fill="#404040">
                        <set attributeName="fill" to="#808080" begin="arrowDown.mouseover" end="arrowDown.mouseout"/>
                  </use>
                  <path fill="none" stroke="white" stroke-width="1.5" d="M0,-3.0v7 M-2.5,-0.5L0,-3.0L2.5,-0.5"/>
                </g>
                <g id="arrowLeft" xlink:href="#dirArrow" transform="rotate(270) translate(-36 17)" onmousedown="handlePan(-1,0)">
                  <use xlink:href="#rim" fill="#404040">
                        <set attributeName="fill" to="#808080" begin="arrowLeft.mouseover" end="arrowLeft.mouseout"/>
                  </use>
                  <path fill="none" stroke="white" stroke-width="1.5" d="M0,-3.0v7 M-2.5,-0.5L0,-3.0L2.5,-0.5"/>
                </g>
        </g>
        <svg viewBox="0 0 15 15" width="100%" height="30px" preserveAspectRatio="xMaxYMin meet">
         <g id="arrow_out" transform="scale(0.3 0.3)">
          <a xlink:href="dir_c45f2e881dec49fd11c03e7eb21cc175_dep_org.svg" target="_base">
           <rect id="button" ry="5" rx="5" y="6" x="6" height="38" width="38"
                fill="#f2f5e9" fill-opacity="0.5" stroke="#606060" stroke-width="1.0"/>
           <path id="arrow"
             d="M 11.500037,31.436501 C 11.940474,20.09759 22.043105,11.32322 32.158766,21.979434 L 37.068811,17.246167 C 37.068811,17.246167 37.088388,32 37.088388,32 L 22.160133,31.978069 C 22.160133,31.978069 26.997745,27.140456 26.997745,27.140456 C 18.528582,18.264221 13.291696,25.230495 11.500037,31.436501 z"
             style="fill:#404040;"/>
          </a>
         </g>
        </svg>
</svg>
