<?xml version="1.0" encoding="UTF-8" standalone="no"?>
<!DOCTYPE svg PUBLIC "-//W3C//DTD SVG 1.1//EN"
 "http://www.w3.org/Graphics/SVG/1.1/DTD/svg11.dtd">
<!-- Generated by graphviz version 2.40.1 (20161225.0304)
 -->
<!-- Title: Hamiltonian Pages: 1 -->
<svg width="199pt" height="223pt"
 viewBox="0.00 0.00 199.00 223.00" xmlns="http://www.w3.org/2000/svg" xmlns:xlink="http://www.w3.org/1999/xlink">
<g id="graph0" class="graph" transform="scale(1 1) rotate(0) translate(4 219)">
<title>Hamiltonian</title>
<polygon fill="#ffffff" stroke="transparent" points="-4,4 -4,-219 195,-219 195,4 -4,4"/>
<g id="clust1" class="cluster">
<title>clusterdir_68267d1309a1af8e8297ef4c3efbcdba</title>
<g id="a_clust1"><a xlink:href="dir_68267d1309a1af8e8297ef4c3efbcdba.html" target="_top" xlink:title="src">
<polygon fill="#ddddee" stroke="#000000" points="40.5,-136 40.5,-207 126.5,-207 126.5,-136 40.5,-136"/>
<text text-anchor="middle" x="83.5" y="-195" font-family="Helvetica,sans-Serif" font-size="10.00" fill="#000000">src</text>
</a>
</g>
</g>
<!-- dir_b3499ae530625f385cc40d234a3477e1 -->
<g id="node1" class="node">
<title>dir_b3499ae530625f385cc40d234a3477e1</title>
<g id="a_node1"><a xlink:href="dir_b3499ae530625f385cc40d234a3477e1.html" target="_top" xlink:title="Hamiltonian">
<polygon fill="#eeeeff" stroke="#000000" points="118,-180 49,-180 49,-144 118,-144 118,-180"/>
<text text-anchor="middle" x="83.5" y="-159.5" font-family="Helvetica,sans-Serif" font-size="10.00" fill="#000000">Hamiltonian</text>
</a>
</g>
</g>
<!-- dir_fdbccf8a388b80005fb5a3667c0ea6ee -->
<g id="node2" class="node">
<title>dir_fdbccf8a388b80005fb5a3667c0ea6ee</title>
<g id="a_node2"><a xlink:href="dir_fdbccf8a388b80005fb5a3667c0ea6ee.html" target="_top" xlink:title="K_point">
<polygon fill="none" stroke="#000000" points="165.5,-108 111.5,-108 111.5,-72 165.5,-72 165.5,-108"/>
<text text-anchor="middle" x="138.5" y="-87.5" font-family="Helvetica,sans-Serif" font-size="10.00" fill="#000000">K_point</text>
</a>
</g>
</g>
<!-- dir_b3499ae530625f385cc40d234a3477e1&#45;&gt;dir_fdbccf8a388b80005fb5a3667c0ea6ee -->
<g id="edge1" class="edge">
<title>dir_b3499ae530625f385cc40d234a3477e1&#45;&gt;dir_fdbccf8a388b80005fb5a3667c0ea6ee</title>
<path fill="none" stroke="#000000" d="M97.3788,-143.8314C103.7136,-135.5386 111.3384,-125.557 118.2926,-116.4533"/>
<polygon fill="#000000" stroke="#000000" points="121.1452,-118.4847 124.4343,-108.4133 115.5825,-114.2353 121.1452,-118.4847"/>
<g id="a_edge1&#45;headlabel"><a xlink:href="dir_000004_000013.html" target="_top" xlink:title="1">
<text text-anchor="middle" x="121.2195" y="-120.5647" font-family="Helvetica,sans-Serif" font-size="10.00" fill="#000000">1</text>
</a>
</g>
</g>
<!-- dir_bf0a7b34cf1ef49fc97fa1d2273321e2 -->
<g id="node3" class="node">
<title>dir_bf0a7b34cf1ef49fc97fa1d2273321e2</title>
<g id="a_node3"><a xlink:href="dir_bf0a7b34cf1ef49fc97fa1d2273321e2.html" target="_top" xlink:title="Potential">
<polygon fill="none" stroke="#000000" points="55,-108 0,-108 0,-72 55,-72 55,-108"/>
<text text-anchor="middle" x="27.5" y="-87.5" font-family="Helvetica,sans-Serif" font-size="10.00" fill="#000000">Potential</text>
</a>
</g>
</g>
<!-- dir_b3499ae530625f385cc40d234a3477e1&#45;&gt;dir_bf0a7b34cf1ef49fc97fa1d2273321e2 -->
<g id="edge2" class="edge">
<title>dir_b3499ae530625f385cc40d234a3477e1&#45;&gt;dir_bf0a7b34cf1ef49fc97fa1d2273321e2</title>
<path fill="none" stroke="#000000" d="M69.3688,-143.8314C62.9189,-135.5386 55.1555,-125.557 48.0748,-116.4533"/>
<polygon fill="#000000" stroke="#000000" points="50.7236,-114.158 41.8214,-108.4133 45.1981,-118.4556 50.7236,-114.158"/>
<g id="a_edge2&#45;headlabel"><a xlink:href="dir_000004_000014.html" target="_top" xlink:title="2">
<text text-anchor="middle" x="55.1716" y="-112.7523" font-family="Helvetica,sans-Serif" font-size="10.00" fill="#000000">2</text>
</a>
</g>
</g>
<!-- dir_efab0974afde82118c2e07e0e822e0df -->
<g id="node4" class="node">
<title>dir_efab0974afde82118c2e07e0e822e0df</title>
<g id="a_node4"><a xlink:href="dir_efab0974afde82118c2e07e0e822e0df.html" target="_top" xlink:title="Beta_projectors">
<polygon fill="none" stroke="#000000" points="182,-36 95,-36 95,0 182,0 182,-36"/>
<text text-anchor="middle" x="138.5" y="-15.5" font-family="Helvetica,sans-Serif" font-size="10.00" fill="#000000">Beta_projectors</text>
</a>
</g>
</g>
<!-- dir_b3499ae530625f385cc40d234a3477e1&#45;&gt;dir_efab0974afde82118c2e07e0e822e0df -->
<g id="edge3" class="edge">
<title>dir_b3499ae530625f385cc40d234a3477e1&#45;&gt;dir_efab0974afde82118c2e07e0e822e0df</title>
<path fill="none" stroke="#000000" d="M85.2905,-143.8083C87.5888,-125.1875 92.5345,-95.7008 102.5,-72 106.4544,-62.5953 112.1152,-53.0879 117.7805,-44.727"/>
<polygon fill="#000000" stroke="#000000" points="120.6959,-46.6664 123.6147,-36.4815 114.9816,-42.6231 120.6959,-46.6664"/>
<g id="a_edge3&#45;headlabel"><a xlink:href="dir_000004_000008.html" target="_top" xlink:title="1">
<text text-anchor="middle" x="120.9374" y="-48.7406" font-family="Helvetica,sans-Serif" font-size="10.00" fill="#000000">1</text>
</a>
</g>
</g>
<!-- dir_609c05e5d49759fda00bdbe65713f1e8 -->
<g id="node5" class="node">
<title>dir_609c05e5d49759fda00bdbe65713f1e8</title>
<g id="a_node5"><a xlink:href="dir_609c05e5d49759fda00bdbe65713f1e8.html" target="_top" xlink:title="Hubbard">
<polygon fill="none" stroke="#000000" points="191,-180 136,-180 136,-144 191,-144 191,-180"/>
<text text-anchor="middle" x="163.5" y="-159.5" font-family="Helvetica,sans-Serif" font-size="10.00" fill="#000000">Hubbard</text>
</a>
</g>
</g>
<!-- dir_b3499ae530625f385cc40d234a3477e1&#45;&gt;dir_609c05e5d49759fda00bdbe65713f1e8 -->
<g id="edge4" class="edge">
<title>dir_b3499ae530625f385cc40d234a3477e1&#45;&gt;dir_609c05e5d49759fda00bdbe65713f1e8</title>
<path fill="none" stroke="#000000" d="M118.1875,-162C120.6766,-162 123.1657,-162 125.6548,-162"/>
<polygon fill="#000000" stroke="#000000" points="125.8877,-165.5001 135.8877,-162 125.8877,-158.5001 125.8877,-165.5001"/>
<g id="a_edge4&#45;headlabel"><a xlink:href="dir_000004_000005.html" target="_top" xlink:title="1">
<text text-anchor="middle" x="122.2931" y="-165.8393" font-family="Helvetica,sans-Serif" font-size="10.00" fill="#000000">1</text>
</a>
</g>
</g>
<!-- dir_fdbccf8a388b80005fb5a3667c0ea6ee&#45;&gt;dir_efab0974afde82118c2e07e0e822e0df -->
<g id="edge5" class="edge">
<title>dir_fdbccf8a388b80005fb5a3667c0ea6ee&#45;&gt;dir_efab0974afde82118c2e07e0e822e0df</title>
<path fill="none" stroke="#000000" d="M138.5,-71.8314C138.5,-64.131 138.5,-54.9743 138.5,-46.4166"/>
<polygon fill="#000000" stroke="#000000" points="142.0001,-46.4132 138.5,-36.4133 135.0001,-46.4133 142.0001,-46.4132"/>
<g id="a_edge5&#45;headlabel"><a xlink:href="dir_000013_000008.html" target="_top" xlink:title="1">
<text text-anchor="middle" x="144.8393" y="-47.5079" font-family="Helvetica,sans-Serif" font-size="10.00" fill="#000000">1</text>
</a>
</g>
</g>
<!-- dir_609c05e5d49759fda00bdbe65713f1e8&#45;&gt;dir_b3499ae530625f385cc40d234a3477e1 -->
<g id="edge6" class="edge">
<title>dir_609c05e5d49759fda00bdbe65713f1e8&#45;&gt;dir_b3499ae530625f385cc40d234a3477e1</title>
<path fill="none" stroke="#000000" d="M135.8877,-162C133.3986,-162 130.9095,-162 128.4204,-162"/>
<polygon fill="#000000" stroke="#000000" points="128.1875,-158.5001 118.1875,-162 128.1875,-165.5001 128.1875,-158.5001"/>
<g id="a_edge6&#45;headlabel"><a xlink:href="dir_000005_000004.html" target="_top" xlink:title="1">
<text text-anchor="middle" x="131.7821" y="-153.1607" font-family="Helvetica,sans-Serif" font-size="10.00" fill="#000000">1</text>
</a>
</g>
</g>
<!-- dir_609c05e5d49759fda00bdbe65713f1e8&#45;&gt;dir_fdbccf8a388b80005fb5a3667c0ea6ee -->
<g id="edge7" class="edge">
<title>dir_609c05e5d49759fda00bdbe65713f1e8&#45;&gt;dir_fdbccf8a388b80005fb5a3667c0ea6ee</title>
<path fill="none" stroke="#000000" d="M157.1914,-143.8314C154.4883,-136.0463 151.2684,-126.7729 148.269,-118.1347"/>
<polygon fill="#000000" stroke="#000000" points="151.48,-116.7119 144.8935,-108.4133 144.8673,-119.0081 151.48,-116.7119"/>
<g id="a_edge7&#45;headlabel"><a xlink:href="dir_000005_000013.html" target="_top" xlink:title="1">
<text text-anchor="middle" x="155.3412" y="-116.6764" font-family="Helvetica,sans-Serif" font-size="10.00" fill="#000000">1</text>
</a>
</g>
</g>
<!-- dir_609c05e5d49759fda00bdbe65713f1e8&#45;&gt;dir_efab0974afde82118c2e07e0e822e0df -->
<g id="edge8" class="edge">
<title>dir_609c05e5d49759fda00bdbe65713f1e8&#45;&gt;dir_efab0974afde82118c2e07e0e822e0df</title>
<path fill="none" stroke="#000000" d="M170.0595,-143.6929C175.677,-125.2353 181.7985,-96.1054 174.5,-72 171.5436,-62.2355 166.1748,-52.6229 160.47,-44.2762"/>
<polygon fill="#000000" stroke="#000000" points="163.2129,-42.0973 154.4905,-36.0831 157.5586,-46.2239 163.2129,-42.0973"/>
<g id="a_edge8&#45;headlabel"><a xlink:href="dir_000005_000008.html" target="_top" xlink:title="3">
<text text-anchor="middle" x="167.6253" y="-40.827" font-family="Helvetica,sans-Serif" font-size="10.00" fill="#000000">3</text>
</a>
</g>
</g>
</g>
</svg>
