<?xml version="1.0" encoding="UTF-8" standalone="no"?>
<!DOCTYPE svg PUBLIC "-//W3C//DTD SVG 1.1//EN"
 "http://www.w3.org/Graphics/SVG/1.1/DTD/svg11.dtd">
<!-- Generated by graphviz version 2.40.1 (20161225.0304)
 -->
<!-- Title: symmetry Pages: 1 -->
<svg width="213pt" height="260pt"
 viewBox="0.00 0.00 213.06 260.00" xmlns="http://www.w3.org/2000/svg" xmlns:xlink="http://www.w3.org/1999/xlink">
<g id="graph0" class="graph" transform="scale(1 1) rotate(0) translate(4 256)">
<title>symmetry</title>
<polygon fill="#ffffff" stroke="transparent" points="-4,4 -4,-256 209.0577,-256 209.0577,4 -4,4"/>
<g id="clust1" class="cluster">
<title>clusterdir_68267d1309a1af8e8297ef4c3efbcdba</title>
<g id="a_clust1"><a xlink:href="dir_68267d1309a1af8e8297ef4c3efbcdba.html" target="_top" xlink:title="src">
<polygon fill="#ddddee" stroke="#000000" points="8,-136 8,-207 84,-207 84,-136 8,-136"/>
<text text-anchor="middle" x="46" y="-195" font-family="Helvetica,sans-Serif" font-size="10.00" fill="#000000">src</text>
</a>
</g>
</g>
<!-- dir_a1204cba622aba6a1707a5a7155182eb -->
<g id="node1" class="node">
<title>dir_a1204cba622aba6a1707a5a7155182eb</title>
<g id="a_node1"><a xlink:href="dir_a1204cba622aba6a1707a5a7155182eb.html" target="_top" xlink:title="symmetry">
<polygon fill="#eeeeff" stroke="#000000" points="76,-180 16,-180 16,-144 76,-144 76,-180"/>
<text text-anchor="middle" x="46" y="-159.5" font-family="Helvetica,sans-Serif" font-size="10.00" fill="#000000">symmetry</text>
</a>
</g>
</g>
<!-- dir_f599252a6ed79d26501e6b7d925f2ed5 -->
<g id="node2" class="node">
<title>dir_f599252a6ed79d26501e6b7d925f2ed5</title>
<g id="a_node2"><a xlink:href="dir_f599252a6ed79d26501e6b7d925f2ed5.html" target="_top" xlink:title="SDDK">
<polygon fill="none" stroke="#000000" points="131,-108 77,-108 77,-72 131,-72 131,-108"/>
<text text-anchor="middle" x="104" y="-87.5" font-family="Helvetica,sans-Serif" font-size="10.00" fill="#000000">SDDK</text>
</a>
</g>
</g>
<!-- dir_a1204cba622aba6a1707a5a7155182eb&#45;&gt;dir_f599252a6ed79d26501e6b7d925f2ed5 -->
<g id="edge9" class="edge">
<title>dir_a1204cba622aba6a1707a5a7155182eb&#45;&gt;dir_f599252a6ed79d26501e6b7d925f2ed5</title>
<path fill="none" stroke="#000000" d="M54.6835,-143.8314C60.6155,-135.454 68.5626,-125.3531 76.3932,-116.1749"/>
<polygon fill="#000000" stroke="#000000" points="79.2354,-118.242 83.1911,-108.4133 73.9695,-113.63 79.2354,-118.242"/>
<g id="a_edge9&#45;headlabel"><a xlink:href="dir_000011_000014.html" target="_top" xlink:title="5">
<text text-anchor="middle" x="79.003" y="-120.3167" font-family="Helvetica,sans-Serif" font-size="10.00" fill="#000000">5</text>
</a>
</g>
</g>
<!-- dir_7ac8d61ee03599c6b28ac5ac512fd93e -->
<g id="node3" class="node">
<title>dir_7ac8d61ee03599c6b28ac5ac512fd93e</title>
<g id="a_node3"><a xlink:href="dir_7ac8d61ee03599c6b28ac5ac512fd93e.html" target="_top" xlink:title="unit_cell">
<polygon fill="none" stroke="#000000" points="158,-252 104,-252 104,-216 158,-216 158,-252"/>
<text text-anchor="middle" x="131" y="-231.5" font-family="Helvetica,sans-Serif" font-size="10.00" fill="#000000">unit_cell</text>
</a>
</g>
</g>
<!-- dir_a1204cba622aba6a1707a5a7155182eb&#45;&gt;dir_7ac8d61ee03599c6b28ac5ac512fd93e -->
<g id="edge10" class="edge">
<title>dir_a1204cba622aba6a1707a5a7155182eb&#45;&gt;dir_7ac8d61ee03599c6b28ac5ac512fd93e</title>
<path fill="none" stroke="#000000" d="M54.1478,-180.4206C61.2696,-188.9416 71.2206,-198.937 81,-207 85.2744,-210.5242 90.0214,-213.9994 94.8728,-217.2233"/>
<polygon fill="#000000" stroke="#000000" points="93.3052,-220.3712 103.6384,-222.7112 97.0198,-214.438 93.3052,-220.3712"/>
<g id="a_edge10&#45;headlabel"><a xlink:href="dir_000011_000005.html" target="_top" xlink:title="1">
<text text-anchor="middle" x="88.7518" y="-218.3703" font-family="Helvetica,sans-Serif" font-size="10.00" fill="#000000">1</text>
</a>
</g>
</g>
<!-- dir_73c9642e44a313d085b8e29d7d2d4254 -->
<g id="node4" class="node">
<title>dir_73c9642e44a313d085b8e29d7d2d4254</title>
<g id="a_node4"><a xlink:href="dir_73c9642e44a313d085b8e29d7d2d4254.html" target="_top" xlink:title="sht">
<polygon fill="none" stroke="#000000" points="186,-180 132,-180 132,-144 186,-144 186,-180"/>
<text text-anchor="middle" x="159" y="-159.5" font-family="Helvetica,sans-Serif" font-size="10.00" fill="#000000">sht</text>
</a>
</g>
</g>
<!-- dir_a1204cba622aba6a1707a5a7155182eb&#45;&gt;dir_73c9642e44a313d085b8e29d7d2d4254 -->
<g id="edge11" class="edge">
<title>dir_a1204cba622aba6a1707a5a7155182eb&#45;&gt;dir_73c9642e44a313d085b8e29d7d2d4254</title>
<path fill="none" stroke="#000000" d="M76.0156,-162C91.2612,-162 106.5067,-162 121.7523,-162"/>
<polygon fill="#000000" stroke="#000000" points="121.7708,-165.5001 131.7708,-162 121.7707,-158.5001 121.7708,-165.5001"/>
<g id="a_edge11&#45;headlabel"><a xlink:href="dir_000011_000018.html" target="_top" xlink:title="1">
<text text-anchor="middle" x="118.1761" y="-165.8393" font-family="Helvetica,sans-Serif" font-size="10.00" fill="#000000">1</text>
</a>
</g>
</g>
<!-- dir_313caf1132e152dd9b58bea13a4052ca -->
<g id="node5" class="node">
<title>dir_313caf1132e152dd9b58bea13a4052ca</title>
<g id="a_node5"><a xlink:href="dir_313caf1132e152dd9b58bea13a4052ca.html" target="_top" xlink:title="utils">
<polygon fill="none" stroke="#000000" points="158,-36 104,-36 104,0 158,0 158,-36"/>
<text text-anchor="middle" x="131" y="-15.5" font-family="Helvetica,sans-Serif" font-size="10.00" fill="#000000">utils</text>
</a>
</g>
</g>
<!-- dir_a1204cba622aba6a1707a5a7155182eb&#45;&gt;dir_313caf1132e152dd9b58bea13a4052ca -->
<g id="edge12" class="edge">
<title>dir_a1204cba622aba6a1707a5a7155182eb&#45;&gt;dir_313caf1132e152dd9b58bea13a4052ca</title>
<path fill="none" stroke="#000000" d="M47.1665,-143.8414C49.1085,-124.7176 54.2745,-94.3389 68,-72 75.0812,-60.475 85.4435,-50.1397 95.7273,-41.6717"/>
<polygon fill="#000000" stroke="#000000" points="98.1667,-44.2075 103.8936,-35.2939 93.858,-38.6906 98.1667,-44.2075"/>
<g id="a_edge12&#45;headlabel"><a xlink:href="dir_000011_000003.html" target="_top" xlink:title="2">
<text text-anchor="middle" x="97.0813" y="-46.1577" font-family="Helvetica,sans-Serif" font-size="10.00" fill="#000000">2</text>
</a>
</g>
</g>
<!-- dir_f599252a6ed79d26501e6b7d925f2ed5&#45;&gt;dir_a1204cba622aba6a1707a5a7155182eb -->
<g id="edge1" class="edge">
<title>dir_f599252a6ed79d26501e6b7d925f2ed5&#45;&gt;dir_a1204cba622aba6a1707a5a7155182eb</title>
<path fill="none" stroke="#000000" d="M95.1431,-108.4133C89.1721,-116.8239 81.2067,-126.9323 73.3786,-136.0923"/>
<polygon fill="#000000" stroke="#000000" points="70.5527,-134.0062 66.5882,-143.8314 75.8145,-138.6229 70.5527,-134.0062"/>
<g id="a_edge1&#45;headlabel"><a xlink:href="dir_000014_000011.html" target="_top" xlink:title="1">
<text text-anchor="middle" x="70.7892" y="-126.9316" font-family="Helvetica,sans-Serif" font-size="10.00" fill="#000000">1</text>
</a>
</g>
</g>
<!-- dir_f599252a6ed79d26501e6b7d925f2ed5&#45;&gt;dir_313caf1132e152dd9b58bea13a4052ca -->
<g id="edge2" class="edge">
<title>dir_f599252a6ed79d26501e6b7d925f2ed5&#45;&gt;dir_313caf1132e152dd9b58bea13a4052ca</title>
<path fill="none" stroke="#000000" d="M110.8132,-71.8314C113.7644,-63.9617 117.2858,-54.5712 120.555,-45.8533"/>
<polygon fill="#000000" stroke="#000000" points="123.8609,-47.0055 124.095,-36.4133 117.3066,-44.5476 123.8609,-47.0055"/>
<g id="a_edge2&#45;headlabel"><a xlink:href="dir_000014_000003.html" target="_top" xlink:title="6">
<text text-anchor="middle" x="125.2573" y="-48.8682" font-family="Helvetica,sans-Serif" font-size="10.00" fill="#000000">6</text>
</a>
</g>
</g>
<!-- dir_7ac8d61ee03599c6b28ac5ac512fd93e&#45;&gt;dir_a1204cba622aba6a1707a5a7155182eb -->
<g id="edge5" class="edge">
<title>dir_7ac8d61ee03599c6b28ac5ac512fd93e&#45;&gt;dir_a1204cba622aba6a1707a5a7155182eb</title>
<path fill="none" stroke="#000000" d="M110.6761,-215.8702C106.7159,-213.0361 102.6825,-210.0362 99,-207 91.8183,-201.0788 84.544,-194.1153 77.7023,-187.459"/>
<polygon fill="#000000" stroke="#000000" points="80.0797,-184.8887 70.4731,-180.4206 75.1965,-189.9042 80.0797,-184.8887"/>
<g id="a_edge5&#45;headlabel"><a xlink:href="dir_000005_000011.html" target="_top" xlink:title="1">
<text text-anchor="middle" x="84.6358" y="-182.862" font-family="Helvetica,sans-Serif" font-size="10.00" fill="#000000">1</text>
</a>
</g>
</g>
<!-- dir_7ac8d61ee03599c6b28ac5ac512fd93e&#45;&gt;dir_f599252a6ed79d26501e6b7d925f2ed5 -->
<g id="edge3" class="edge">
<title>dir_7ac8d61ee03599c6b28ac5ac512fd93e&#45;&gt;dir_f599252a6ed79d26501e6b7d925f2ed5</title>
<path fill="none" stroke="#000000" d="M125.2608,-215.7832C124.4395,-212.8621 123.6531,-209.8597 123,-207 116.1662,-177.0761 110.8458,-142.3039 107.5951,-118.4913"/>
<polygon fill="#000000" stroke="#000000" points="111.0379,-117.8292 106.2492,-108.3784 104.0991,-118.7528 111.0379,-117.8292"/>
<g id="a_edge3&#45;headlabel"><a xlink:href="dir_000005_000014.html" target="_top" xlink:title="1">
<text text-anchor="middle" x="114.3265" y="-118.5179" font-family="Helvetica,sans-Serif" font-size="10.00" fill="#000000">1</text>
</a>
</g>
</g>
<!-- dir_7ac8d61ee03599c6b28ac5ac512fd93e&#45;&gt;dir_73c9642e44a313d085b8e29d7d2d4254 -->
<g id="edge4" class="edge">
<title>dir_7ac8d61ee03599c6b28ac5ac512fd93e&#45;&gt;dir_73c9642e44a313d085b8e29d7d2d4254</title>
<path fill="none" stroke="#000000" d="M138.0656,-215.8314C141.126,-207.9617 144.7779,-198.5712 148.1682,-189.8533"/>
<polygon fill="#000000" stroke="#000000" points="151.4768,-191.0019 151.8393,-180.4133 144.9527,-188.4647 151.4768,-191.0019"/>
<g id="a_edge4&#45;headlabel"><a xlink:href="dir_000005_000018.html" target="_top" xlink:title="3">
<text text-anchor="middle" x="152.8202" y="-192.8812" font-family="Helvetica,sans-Serif" font-size="10.00" fill="#000000">3</text>
</a>
</g>
</g>
<!-- dir_7ac8d61ee03599c6b28ac5ac512fd93e&#45;&gt;dir_313caf1132e152dd9b58bea13a4052ca -->
<g id="edge6" class="edge">
<title>dir_7ac8d61ee03599c6b28ac5ac512fd93e&#45;&gt;dir_313caf1132e152dd9b58bea13a4052ca</title>
<path fill="none" stroke="#000000" d="M158.2337,-229.7178C171.7047,-226.0758 186.7994,-219.3601 195,-207 212.4457,-180.7055 202.7606,-166.5864 195,-136 186.3981,-102.0981 165.8863,-67.3914 150.385,-44.4749"/>
<polygon fill="#000000" stroke="#000000" points="153.0875,-42.2296 144.5164,-36.0016 147.3329,-46.2152 153.0875,-42.2296"/>
<g id="a_edge6&#45;headlabel"><a xlink:href="dir_000005_000003.html" target="_top" xlink:title="3">
<text text-anchor="middle" x="157.4682" y="-41.068" font-family="Helvetica,sans-Serif" font-size="10.00" fill="#000000">3</text>
</a>
</g>
</g>
<!-- dir_73c9642e44a313d085b8e29d7d2d4254&#45;&gt;dir_f599252a6ed79d26501e6b7d925f2ed5 -->
<g id="edge7" class="edge">
<title>dir_73c9642e44a313d085b8e29d7d2d4254&#45;&gt;dir_f599252a6ed79d26501e6b7d925f2ed5</title>
<path fill="none" stroke="#000000" d="M145.1212,-143.8314C138.7864,-135.5386 131.1616,-125.557 124.2074,-116.4533"/>
<polygon fill="#000000" stroke="#000000" points="126.9175,-114.2353 118.0657,-108.4133 121.3548,-118.4847 126.9175,-114.2353"/>
<g id="a_edge7&#45;headlabel"><a xlink:href="dir_000018_000014.html" target="_top" xlink:title="2">
<text text-anchor="middle" x="131.3558" y="-112.8683" font-family="Helvetica,sans-Serif" font-size="10.00" fill="#000000">2</text>
</a>
</g>
</g>
<!-- dir_73c9642e44a313d085b8e29d7d2d4254&#45;&gt;dir_313caf1132e152dd9b58bea13a4052ca -->
<g id="edge8" class="edge">
<title>dir_73c9642e44a313d085b8e29d7d2d4254&#45;&gt;dir_313caf1132e152dd9b58bea13a4052ca</title>
<path fill="none" stroke="#000000" d="M155.4538,-143.7623C150.6569,-119.0928 142.0561,-74.8598 136.4392,-45.9731"/>
<polygon fill="#000000" stroke="#000000" points="139.8619,-45.2377 134.5174,-36.0896 132.9905,-46.5738 139.8619,-45.2377"/>
<g id="a_edge8&#45;headlabel"><a xlink:href="dir_000018_000003.html" target="_top" xlink:title="1">
<text text-anchor="middle" x="143.335" y="-45.7243" font-family="Helvetica,sans-Serif" font-size="10.00" fill="#000000">1</text>
</a>
</g>
</g>
</g>
</svg>
