<?xml version="1.0" encoding="UTF-8" standalone="no"?>
<!DOCTYPE svg PUBLIC "-//W3C//DTD SVG 1.1//EN"
 "http://www.w3.org/Graphics/SVG/1.1/DTD/svg11.dtd">
<!-- Generated by graphviz version 2.40.1 (20161225.0304)
 -->
<!-- Title: sht Pages: 1 -->
<svg width="168pt" height="295pt"
 viewBox="0.00 0.00 168.29 295.00" xmlns="http://www.w3.org/2000/svg" xmlns:xlink="http://www.w3.org/1999/xlink">
<g id="graph0" class="graph" transform="scale(1 1) rotate(0) translate(4 291)">
<title>sht</title>
<polygon fill="#ffffff" stroke="transparent" points="-4,4 -4,-291 164.2873,-291 164.2873,4 -4,4"/>
<g id="clust1" class="cluster">
<title>clusterdir_68267d1309a1af8e8297ef4c3efbcdba</title>
<g id="a_clust1"><a xlink:href="dir_68267d1309a1af8e8297ef4c3efbcdba.html" target="_top" xlink:title="src">
<polygon fill="#ddddee" stroke="#000000" points="42.3047,-208 42.3047,-279 112.3047,-279 112.3047,-208 42.3047,-208"/>
<text text-anchor="middle" x="77.3047" y="-267" font-family="Helvetica,sans-Serif" font-size="10.00" fill="#000000">src</text>
</a>
</g>
</g>
<!-- dir_73c9642e44a313d085b8e29d7d2d4254 -->
<g id="node1" class="node">
<title>dir_73c9642e44a313d085b8e29d7d2d4254</title>
<g id="a_node1"><a xlink:href="dir_73c9642e44a313d085b8e29d7d2d4254.html" target="_top" xlink:title="sht">
<polygon fill="#eeeeff" stroke="#000000" points="104.3047,-252 50.3047,-252 50.3047,-216 104.3047,-216 104.3047,-252"/>
<text text-anchor="middle" x="77.3047" y="-231.5" font-family="Helvetica,sans-Serif" font-size="10.00" fill="#000000">sht</text>
</a>
</g>
</g>
<!-- dir_f599252a6ed79d26501e6b7d925f2ed5 -->
<g id="node2" class="node">
<title>dir_f599252a6ed79d26501e6b7d925f2ed5</title>
<g id="a_node2"><a xlink:href="dir_f599252a6ed79d26501e6b7d925f2ed5.html" target="_top" xlink:title="SDDK">
<polygon fill="none" stroke="#000000" points="67.3047,-180 13.3047,-180 13.3047,-144 67.3047,-144 67.3047,-180"/>
<text text-anchor="middle" x="40.3047" y="-159.5" font-family="Helvetica,sans-Serif" font-size="10.00" fill="#000000">SDDK</text>
</a>
</g>
</g>
<!-- dir_73c9642e44a313d085b8e29d7d2d4254&#45;&gt;dir_f599252a6ed79d26501e6b7d925f2ed5 -->
<g id="edge5" class="edge">
<title>dir_73c9642e44a313d085b8e29d7d2d4254&#45;&gt;dir_f599252a6ed79d26501e6b7d925f2ed5</title>
<path fill="none" stroke="#000000" d="M67.968,-215.8314C63.8804,-207.8771 58.9943,-198.369 54.4738,-189.5723"/>
<polygon fill="#000000" stroke="#000000" points="57.4508,-187.7078 49.7671,-180.4133 51.2248,-190.9074 57.4508,-187.7078"/>
<g id="a_edge5&#45;headlabel"><a xlink:href="dir_000018_000014.html" target="_top" xlink:title="2">
<text text-anchor="middle" x="61.6191" y="-187.1073" font-family="Helvetica,sans-Serif" font-size="10.00" fill="#000000">2</text>
</a>
</g>
</g>
<!-- dir_5dff776341474e546195e534ccdc31ab -->
<g id="node3" class="node">
<title>dir_5dff776341474e546195e534ccdc31ab</title>
<g id="a_node3"><a xlink:href="dir_5dff776341474e546195e534ccdc31ab.html" target="_top" xlink:title="linalg">
<polygon fill="none" stroke="#000000" points="67.3047,-108 13.3047,-108 13.3047,-72 67.3047,-72 67.3047,-108"/>
<text text-anchor="middle" x="40.3047" y="-87.5" font-family="Helvetica,sans-Serif" font-size="10.00" fill="#000000">linalg</text>
</a>
</g>
</g>
<!-- dir_73c9642e44a313d085b8e29d7d2d4254&#45;&gt;dir_5dff776341474e546195e534ccdc31ab -->
<g id="edge6" class="edge">
<title>dir_73c9642e44a313d085b8e29d7d2d4254&#45;&gt;dir_5dff776341474e546195e534ccdc31ab</title>
<path fill="none" stroke="#000000" d="M50.2167,-221.9489C33.6617,-212.9811 13.885,-199.0034 4.3047,-180 -6.1119,-159.3378 5.0467,-134.9076 17.6091,-116.7177"/>
<polygon fill="#000000" stroke="#000000" points="20.6757,-118.4569 23.8005,-108.3333 15.0446,-114.2986 20.6757,-118.4569"/>
<g id="a_edge6&#45;headlabel"><a xlink:href="dir_000018_000009.html" target="_top" xlink:title="1">
<text text-anchor="middle" x="20.8244" y="-120.5351" font-family="Helvetica,sans-Serif" font-size="10.00" fill="#000000">1</text>
</a>
</g>
</g>
<!-- dir_8e7c7dc41770315528a636bf7efd09f2 -->
<g id="node4" class="node">
<title>dir_8e7c7dc41770315528a636bf7efd09f2</title>
<g id="a_node4"><a xlink:href="dir_8e7c7dc41770315528a636bf7efd09f2.html" target="_top" xlink:title="specfunc">
<polygon fill="none" stroke="#000000" points="142.8047,-180 85.8047,-180 85.8047,-144 142.8047,-144 142.8047,-180"/>
<text text-anchor="middle" x="114.3047" y="-159.5" font-family="Helvetica,sans-Serif" font-size="10.00" fill="#000000">specfunc</text>
</a>
</g>
</g>
<!-- dir_73c9642e44a313d085b8e29d7d2d4254&#45;&gt;dir_8e7c7dc41770315528a636bf7efd09f2 -->
<g id="edge7" class="edge">
<title>dir_73c9642e44a313d085b8e29d7d2d4254&#45;&gt;dir_8e7c7dc41770315528a636bf7efd09f2</title>
<path fill="none" stroke="#000000" d="M86.6413,-215.8314C90.729,-207.8771 95.615,-198.369 100.1356,-189.5723"/>
<polygon fill="#000000" stroke="#000000" points="103.3846,-190.9074 104.8423,-180.4133 97.1586,-187.7078 103.3846,-190.9074"/>
<g id="a_edge7&#45;headlabel"><a xlink:href="dir_000018_000024.html" target="_top" xlink:title="1">
<text text-anchor="middle" x="104.267" y="-192.9022" font-family="Helvetica,sans-Serif" font-size="10.00" fill="#000000">1</text>
</a>
</g>
</g>
<!-- dir_313caf1132e152dd9b58bea13a4052ca -->
<g id="node5" class="node">
<title>dir_313caf1132e152dd9b58bea13a4052ca</title>
<g id="a_node5"><a xlink:href="dir_313caf1132e152dd9b58bea13a4052ca.html" target="_top" xlink:title="utils">
<polygon fill="none" stroke="#000000" points="122.3047,-36 68.3047,-36 68.3047,0 122.3047,0 122.3047,-36"/>
<text text-anchor="middle" x="95.3047" y="-15.5" font-family="Helvetica,sans-Serif" font-size="10.00" fill="#000000">utils</text>
</a>
</g>
</g>
<!-- dir_73c9642e44a313d085b8e29d7d2d4254&#45;&gt;dir_313caf1132e152dd9b58bea13a4052ca -->
<g id="edge8" class="edge">
<title>dir_73c9642e44a313d085b8e29d7d2d4254&#45;&gt;dir_313caf1132e152dd9b58bea13a4052ca</title>
<path fill="none" stroke="#000000" d="M104.3599,-222.5251C121.5086,-213.6536 142.2834,-199.564 152.3047,-180 175.6381,-134.4476 142.0501,-77.1446 117.3861,-44.3316"/>
<polygon fill="#000000" stroke="#000000" points="119.9309,-41.9018 111.0349,-36.1475 114.4007,-46.1934 119.9309,-41.9018"/>
<g id="a_edge8&#45;headlabel"><a xlink:href="dir_000018_000003.html" target="_top" xlink:title="1">
<text text-anchor="middle" x="124.3777" y="-40.5009" font-family="Helvetica,sans-Serif" font-size="10.00" fill="#000000">1</text>
</a>
</g>
</g>
<!-- dir_f599252a6ed79d26501e6b7d925f2ed5&#45;&gt;dir_5dff776341474e546195e534ccdc31ab -->
<g id="edge1" class="edge">
<title>dir_f599252a6ed79d26501e6b7d925f2ed5&#45;&gt;dir_5dff776341474e546195e534ccdc31ab</title>
<path fill="none" stroke="#000000" d="M34.3523,-143.8314C33.6019,-136.131 33.381,-126.9743 33.6896,-118.4166"/>
<polygon fill="#000000" stroke="#000000" points="37.1839,-118.6161 34.3287,-108.4133 30.1981,-118.1697 37.1839,-118.6161"/>
<g id="a_edge1&#45;headlabel"><a xlink:href="dir_000014_000009.html" target="_top" xlink:title="3">
<text text-anchor="middle" x="39.7883" y="-119.8844" font-family="Helvetica,sans-Serif" font-size="10.00" fill="#000000">3</text>
</a>
</g>
</g>
<!-- dir_f599252a6ed79d26501e6b7d925f2ed5&#45;&gt;dir_313caf1132e152dd9b58bea13a4052ca -->
<g id="edge2" class="edge">
<title>dir_f599252a6ed79d26501e6b7d925f2ed5&#45;&gt;dir_313caf1132e152dd9b58bea13a4052ca</title>
<path fill="none" stroke="#000000" d="M55.1899,-143.5185C62.5509,-133.5296 70.9766,-120.6716 76.3047,-108 84.6352,-88.1876 89.458,-64.3321 92.1588,-46.1605"/>
<polygon fill="#000000" stroke="#000000" points="95.6349,-46.5721 93.5142,-36.1917 88.6987,-45.6289 95.6349,-46.5721"/>
<g id="a_edge2&#45;headlabel"><a xlink:href="dir_000014_000003.html" target="_top" xlink:title="6">
<text text-anchor="middle" x="97.9641" y="-48.0164" font-family="Helvetica,sans-Serif" font-size="10.00" fill="#000000">6</text>
</a>
</g>
</g>
<!-- dir_5dff776341474e546195e534ccdc31ab&#45;&gt;dir_f599252a6ed79d26501e6b7d925f2ed5 -->
<g id="edge3" class="edge">
<title>dir_5dff776341474e546195e534ccdc31ab&#45;&gt;dir_f599252a6ed79d26501e6b7d925f2ed5</title>
<path fill="none" stroke="#000000" d="M46.2807,-108.4133C47.0118,-116.0593 47.225,-125.1084 46.9202,-133.5726"/>
<polygon fill="#000000" stroke="#000000" points="43.4095,-133.6264 46.2571,-143.8314 50.3949,-134.078 43.4095,-133.6264"/>
<g id="a_edge3&#45;headlabel"><a xlink:href="dir_000009_000014.html" target="_top" xlink:title="5">
<text text-anchor="middle" x="40.8079" y="-127.3562" font-family="Helvetica,sans-Serif" font-size="10.00" fill="#000000">5</text>
</a>
</g>
</g>
<!-- dir_5dff776341474e546195e534ccdc31ab&#45;&gt;dir_313caf1132e152dd9b58bea13a4052ca -->
<g id="edge4" class="edge">
<title>dir_5dff776341474e546195e534ccdc31ab&#45;&gt;dir_313caf1132e152dd9b58bea13a4052ca</title>
<path fill="none" stroke="#000000" d="M54.1835,-71.8314C60.5182,-63.5386 68.1431,-53.557 75.0973,-44.4533"/>
<polygon fill="#000000" stroke="#000000" points="77.9499,-46.4847 81.239,-36.4133 72.3872,-42.2353 77.9499,-46.4847"/>
<g id="a_edge4&#45;headlabel"><a xlink:href="dir_000009_000003.html" target="_top" xlink:title="1">
<text text-anchor="middle" x="78.0241" y="-48.5647" font-family="Helvetica,sans-Serif" font-size="10.00" fill="#000000">1</text>
</a>
</g>
</g>
</g>
</svg>
