<?xml version="1.0" encoding="UTF-8" standalone="no"?>
<!DOCTYPE svg PUBLIC "-//W3C//DTD SVG 1.1//EN"
 "http://www.w3.org/Graphics/SVG/1.1/DTD/svg11.dtd">
<!-- Generated by graphviz version 2.49.3 (20211023.0002)
 -->
<!-- Title: hamiltonian Pages: 1 -->
<svg width="334pt" height="671pt"
 viewBox="0.00 0.00 334.00 671.00" xmlns="http://www.w3.org/2000/svg" xmlns:xlink="http://www.w3.org/1999/xlink">
<g id="graph0" class="graph" transform="scale(1 1) rotate(0) translate(4 667)">
<title>hamiltonian</title>
<polygon fill="white" stroke="transparent" points="-4,4 -4,-667 330,-667 330,4 -4,4"/>
<g id="clust1" class="cluster">
<title>clusterdir_68267d1309a1af8e8297ef4c3efbcdba</title>
<g id="a_clust1"><a xlink:href="dir_68267d1309a1af8e8297ef4c3efbcdba.html" target="_top" xlink:title="src">
<polygon fill="#ddddee" stroke="black" points="8,-8 8,-655 318,-655 318,-8 8,-8"/>
<text text-anchor="middle" x="163" y="-643" font-family="Helvetica,sans-Serif" font-size="10.00">src</text>
</a>
</g>
</g>
<!-- dir_295205cd1bf15bf63a3635aca83f2eed -->
<g id="node1" class="node">
<title>dir_295205cd1bf15bf63a3635aca83f2eed</title>
<g id="a_node1"><a xlink:href="dir_295205cd1bf15bf63a3635aca83f2eed.html" target="_top" xlink:title="k_point">
<polygon fill="none" stroke="black" points="296,-628 242,-628 242,-592 296,-592 296,-628"/>
<text text-anchor="middle" x="269" y="-607.5" font-family="Helvetica,sans-Serif" font-size="10.00">k_point</text>
</a>
</g>
</g>
<!-- dir_db9a87b27e79d48ff721c11f86eab7d7 -->
<g id="node6" class="node">
<title>dir_db9a87b27e79d48ff721c11f86eab7d7</title>
<g id="a_node6"><a xlink:href="dir_db9a87b27e79d48ff721c11f86eab7d7.html" target="_top" xlink:title="beta_projectors">
<polygon fill="none" stroke="black" points="237.5,-556 152.5,-556 152.5,-520 237.5,-520 237.5,-556"/>
<text text-anchor="middle" x="195" y="-535.5" font-family="Helvetica,sans-Serif" font-size="10.00">beta_projectors</text>
</a>
</g>
</g>
<!-- dir_295205cd1bf15bf63a3635aca83f2eed&#45;&gt;dir_db9a87b27e79d48ff721c11f86eab7d7 -->
<g id="edge10" class="edge">
<title>dir_295205cd1bf15bf63a3635aca83f2eed&#45;&gt;dir_db9a87b27e79d48ff721c11f86eab7d7</title>
<path fill="none" stroke="black" d="M250.71,-591.7C241.57,-583.05 230.36,-572.45 220.4,-563.03"/>
<polygon fill="black" stroke="black" points="222.75,-560.43 213.08,-556.1 217.94,-565.52 222.75,-560.43"/>
<g id="a_edge10&#45;headlabel"><a xlink:href="dir_000012_000003.html" target="_top" xlink:title="1">
<text text-anchor="middle" x="227.31" y="-558.34" font-family="Helvetica,sans-Serif" font-size="10.00">1</text>
</a>
</g>
</g>
<!-- dir_f599252a6ed79d26501e6b7d925f2ed5 -->
<g id="node7" class="node">
<title>dir_f599252a6ed79d26501e6b7d925f2ed5</title>
<g id="a_node7"><a xlink:href="dir_f599252a6ed79d26501e6b7d925f2ed5.html" target="_top" xlink:title="SDDK">
<polygon fill="none" stroke="black" points="177,-124 123,-124 123,-88 177,-88 177,-124"/>
<text text-anchor="middle" x="150" y="-103.5" font-family="Helvetica,sans-Serif" font-size="10.00">SDDK</text>
</a>
</g>
</g>
<!-- dir_295205cd1bf15bf63a3635aca83f2eed&#45;&gt;dir_f599252a6ed79d26501e6b7d925f2ed5 -->
<g id="edge11" class="edge">
<title>dir_295205cd1bf15bf63a3635aca83f2eed&#45;&gt;dir_f599252a6ed79d26501e6b7d925f2ed5</title>
<path fill="none" stroke="black" d="M241.61,-600.85C215.2,-592.21 174.81,-576.93 144,-556 49.74,-491.97 37,-436.95 37,-323 37,-323 37,-323 37,-249 37,-207.11 42.12,-192.93 68,-160 80,-144.74 97.67,-132.52 113.54,-123.68"/>
<polygon fill="black" stroke="black" points="115.42,-126.65 122.62,-118.87 112.14,-120.46 115.42,-126.65"/>
<g id="a_edge11&#45;headlabel"><a xlink:href="dir_000012_000020.html" target="_top" xlink:title="5">
<text text-anchor="middle" x="113.57" y="-128.34" font-family="Helvetica,sans-Serif" font-size="10.00">5</text>
</a>
</g>
</g>
<!-- dir_21f7b4eed03979aefcc3eb2d66364a44 -->
<g id="node9" class="node">
<title>dir_21f7b4eed03979aefcc3eb2d66364a44</title>
<g id="a_node9"><a xlink:href="dir_21f7b4eed03979aefcc3eb2d66364a44.html" target="_top" xlink:title="hamiltonian">
<polygon fill="#eeeeff" stroke="black" points="266,-268 198,-268 198,-232 266,-232 266,-268"/>
<text text-anchor="middle" x="232" y="-247.5" font-family="Helvetica,sans-Serif" font-size="10.00">hamiltonian</text>
</a>
</g>
</g>
<!-- dir_295205cd1bf15bf63a3635aca83f2eed&#45;&gt;dir_21f7b4eed03979aefcc3eb2d66364a44 -->
<g id="edge9" class="edge">
<title>dir_295205cd1bf15bf63a3635aca83f2eed&#45;&gt;dir_21f7b4eed03979aefcc3eb2d66364a44</title>
<path fill="none" stroke="black" d="M271.33,-591.95C279.78,-565.72 300,-513.61 300,-467 300,-467 300,-467 300,-393 300,-347.7 269.35,-303.04 248.98,-276.24"/>
<polygon fill="black" stroke="black" points="251.66,-273.98 242.78,-268.19 246.11,-278.25 251.66,-273.98"/>
<g id="a_edge9&#45;headlabel"><a xlink:href="dir_000012_000010.html" target="_top" xlink:title="1">
<text text-anchor="middle" x="256.1" y="-272.59" font-family="Helvetica,sans-Serif" font-size="10.00">1</text>
</a>
</g>
</g>
<!-- dir_313caf1132e152dd9b58bea13a4052ca -->
<g id="node2" class="node">
<title>dir_313caf1132e152dd9b58bea13a4052ca</title>
<g id="a_node2"><a xlink:href="dir_313caf1132e152dd9b58bea13a4052ca.html" target="_top" xlink:title="utils">
<polygon fill="none" stroke="black" points="208,-52 154,-52 154,-16 208,-16 208,-52"/>
<text text-anchor="middle" x="181" y="-31.5" font-family="Helvetica,sans-Serif" font-size="10.00">utils</text>
</a>
</g>
</g>
<!-- dir_469511d0e94cf1d94db96de2a5eb203f -->
<g id="node3" class="node">
<title>dir_469511d0e94cf1d94db96de2a5eb203f</title>
<g id="a_node3"><a xlink:href="dir_469511d0e94cf1d94db96de2a5eb203f.html" target="_top" xlink:title="potential">
<polygon fill="none" stroke="black" points="170,-412 116,-412 116,-376 170,-376 170,-412"/>
<text text-anchor="middle" x="143" y="-391.5" font-family="Helvetica,sans-Serif" font-size="10.00">potential</text>
</a>
</g>
</g>
<!-- dir_469511d0e94cf1d94db96de2a5eb203f&#45;&gt;dir_313caf1132e152dd9b58bea13a4052ca -->
<g id="edge12" class="edge">
<title>dir_469511d0e94cf1d94db96de2a5eb203f&#45;&gt;dir_313caf1132e152dd9b58bea13a4052ca</title>
<path fill="none" stroke="black" d="M133.47,-375.66C120,-349.47 97,-297.9 97,-251 97,-251 97,-251 97,-177 97,-136.73 93.12,-122.43 114,-88 121.74,-75.24 133.74,-64.33 145.46,-55.78"/>
<polygon fill="black" stroke="black" points="147.63,-58.53 153.87,-49.98 143.65,-52.77 147.63,-58.53"/>
<g id="a_edge12&#45;headlabel"><a xlink:href="dir_000018_000025.html" target="_top" xlink:title="4">
<text text-anchor="middle" x="146.28" y="-60.41" font-family="Helvetica,sans-Serif" font-size="10.00">4</text>
</a>
</g>
</g>
<!-- dir_943433e5c898142b26d01d6086e5b430 -->
<g id="node4" class="node">
<title>dir_943433e5c898142b26d01d6086e5b430</title>
<g id="a_node4"><a xlink:href="dir_943433e5c898142b26d01d6086e5b430.html" target="_top" xlink:title="hubbard">
<polygon fill="none" stroke="black" points="230,-340 176,-340 176,-304 230,-304 230,-340"/>
<text text-anchor="middle" x="203" y="-319.5" font-family="Helvetica,sans-Serif" font-size="10.00">hubbard</text>
</a>
</g>
</g>
<!-- dir_469511d0e94cf1d94db96de2a5eb203f&#45;&gt;dir_943433e5c898142b26d01d6086e5b430 -->
<g id="edge13" class="edge">
<title>dir_469511d0e94cf1d94db96de2a5eb203f&#45;&gt;dir_943433e5c898142b26d01d6086e5b430</title>
<path fill="none" stroke="black" d="M157.83,-375.7C165.02,-367.3 173.8,-357.07 181.69,-347.86"/>
<polygon fill="black" stroke="black" points="184.49,-349.97 188.34,-340.1 179.17,-345.42 184.49,-349.97"/>
<g id="a_edge13&#45;headlabel"><a xlink:href="dir_000018_000011.html" target="_top" xlink:title="1">
<text text-anchor="middle" x="184.31" y="-352.05" font-family="Helvetica,sans-Serif" font-size="10.00">1</text>
</a>
</g>
</g>
<!-- dir_469511d0e94cf1d94db96de2a5eb203f&#45;&gt;dir_f599252a6ed79d26501e6b7d925f2ed5 -->
<g id="edge14" class="edge">
<title>dir_469511d0e94cf1d94db96de2a5eb203f&#45;&gt;dir_f599252a6ed79d26501e6b7d925f2ed5</title>
<path fill="none" stroke="black" d="M143.42,-375.97C144.58,-328.29 147.89,-193.18 149.32,-134.63"/>
<polygon fill="black" stroke="black" points="152.83,-134.39 149.58,-124.31 145.83,-134.22 152.83,-134.39"/>
<g id="a_edge14&#45;headlabel"><a xlink:href="dir_000018_000020.html" target="_top" xlink:title="4">
<text text-anchor="middle" x="155.58" y="-135.55" font-family="Helvetica,sans-Serif" font-size="10.00">4</text>
</a>
</g>
</g>
<!-- dir_943433e5c898142b26d01d6086e5b430&#45;&gt;dir_295205cd1bf15bf63a3635aca83f2eed -->
<g id="edge16" class="edge">
<title>dir_943433e5c898142b26d01d6086e5b430&#45;&gt;dir_295205cd1bf15bf63a3635aca83f2eed</title>
<path fill="none" stroke="black" d="M210.84,-340.38C215.2,-350.59 220.45,-363.84 224,-376 245.29,-448.92 259.25,-537.66 265.4,-581.61"/>
<polygon fill="black" stroke="black" points="261.97,-582.35 266.8,-591.78 268.91,-581.4 261.97,-582.35"/>
<g id="a_edge16&#45;headlabel"><a xlink:href="dir_000011_000012.html" target="_top" xlink:title="2">
<text text-anchor="middle" x="258.67" y="-576.68" font-family="Helvetica,sans-Serif" font-size="10.00">2</text>
</a>
</g>
</g>
<!-- dir_943433e5c898142b26d01d6086e5b430&#45;&gt;dir_db9a87b27e79d48ff721c11f86eab7d7 -->
<g id="edge17" class="edge">
<title>dir_943433e5c898142b26d01d6086e5b430&#45;&gt;dir_db9a87b27e79d48ff721c11f86eab7d7</title>
<path fill="none" stroke="black" d="M208.15,-340.12C216.29,-369.75 230.14,-432.38 219,-484 217.04,-493.08 213.39,-502.48 209.51,-510.8"/>
<polygon fill="black" stroke="black" points="206.27,-509.47 204.95,-519.98 212.54,-512.58 206.27,-509.47"/>
<g id="a_edge17&#45;headlabel"><a xlink:href="dir_000011_000003.html" target="_top" xlink:title="3">
<text text-anchor="middle" x="205.33" y="-502.48" font-family="Helvetica,sans-Serif" font-size="10.00">3</text>
</a>
</g>
</g>
<!-- dir_943433e5c898142b26d01d6086e5b430&#45;&gt;dir_f599252a6ed79d26501e6b7d925f2ed5 -->
<g id="edge18" class="edge">
<title>dir_943433e5c898142b26d01d6086e5b430&#45;&gt;dir_f599252a6ed79d26501e6b7d925f2ed5</title>
<path fill="none" stroke="black" d="M197,-303.8C188.84,-279.88 174.19,-235.08 165,-196 160.19,-175.54 156.3,-152.08 153.69,-134.39"/>
<polygon fill="black" stroke="black" points="157.11,-133.6 152.23,-124.19 150.18,-134.59 157.11,-133.6"/>
<g id="a_edge18&#45;headlabel"><a xlink:href="dir_000011_000020.html" target="_top" xlink:title="3">
<text text-anchor="middle" x="160.43" y="-134.25" font-family="Helvetica,sans-Serif" font-size="10.00">3</text>
</a>
</g>
</g>
<!-- dir_fc034541bb3ad0242232d8f8d983e32a -->
<g id="node8" class="node">
<title>dir_fc034541bb3ad0242232d8f8d983e32a</title>
<g id="a_node8"><a xlink:href="dir_fc034541bb3ad0242232d8f8d983e32a.html" target="_top" xlink:title="context">
<polygon fill="none" stroke="black" points="210,-484 156,-484 156,-448 210,-448 210,-484"/>
<text text-anchor="middle" x="183" y="-463.5" font-family="Helvetica,sans-Serif" font-size="10.00">context</text>
</a>
</g>
</g>
<!-- dir_943433e5c898142b26d01d6086e5b430&#45;&gt;dir_fc034541bb3ad0242232d8f8d983e32a -->
<g id="edge19" class="edge">
<title>dir_943433e5c898142b26d01d6086e5b430&#45;&gt;dir_fc034541bb3ad0242232d8f8d983e32a</title>
<path fill="none" stroke="black" d="M200.58,-340.19C197.17,-364.42 190.9,-408.89 186.85,-437.68"/>
<polygon fill="black" stroke="black" points="183.34,-437.48 185.41,-447.87 190.27,-438.46 183.34,-437.48"/>
<g id="a_edge19&#45;headlabel"><a xlink:href="dir_000011_000004.html" target="_top" xlink:title="2">
<text text-anchor="middle" x="181.03" y="-431.03" font-family="Helvetica,sans-Serif" font-size="10.00">2</text>
</a>
</g>
</g>
<!-- dir_943433e5c898142b26d01d6086e5b430&#45;&gt;dir_21f7b4eed03979aefcc3eb2d66364a44 -->
<g id="edge15" class="edge">
<title>dir_943433e5c898142b26d01d6086e5b430&#45;&gt;dir_21f7b4eed03979aefcc3eb2d66364a44</title>
<path fill="none" stroke="black" d="M204.25,-303.7C206.73,-295.73 210.51,-286.1 214.56,-277.26"/>
<polygon fill="black" stroke="black" points="217.79,-278.63 219.02,-268.1 211.49,-275.56 217.79,-278.63"/>
<g id="a_edge15&#45;headlabel"><a xlink:href="dir_000011_000010.html" target="_top" xlink:title="1">
<text text-anchor="middle" x="218.77" y="-280.6" font-family="Helvetica,sans-Serif" font-size="10.00">1</text>
</a>
</g>
</g>
<!-- dir_b1780c5770c70e338c74f731f04dbc04 -->
<g id="node5" class="node">
<title>dir_b1780c5770c70e338c74f731f04dbc04</title>
<g id="a_node5"><a xlink:href="dir_b1780c5770c70e338c74f731f04dbc04.html" target="_top" xlink:title="function3d">
<polygon fill="none" stroke="black" points="259.5,-196 196.5,-196 196.5,-160 259.5,-160 259.5,-196"/>
<text text-anchor="middle" x="228" y="-175.5" font-family="Helvetica,sans-Serif" font-size="10.00">function3d</text>
</a>
</g>
</g>
<!-- dir_b1780c5770c70e338c74f731f04dbc04&#45;&gt;dir_313caf1132e152dd9b58bea13a4052ca -->
<g id="edge20" class="edge">
<title>dir_b1780c5770c70e338c74f731f04dbc04&#45;&gt;dir_313caf1132e152dd9b58bea13a4052ca</title>
<path fill="none" stroke="black" d="M222.33,-159.87C214.29,-135.56 199.48,-90.82 189.94,-62.01"/>
<polygon fill="black" stroke="black" points="193.15,-60.58 186.69,-52.19 186.51,-62.78 193.15,-60.58"/>
<g id="a_edge20&#45;headlabel"><a xlink:href="dir_000007_000025.html" target="_top" xlink:title="3">
<text text-anchor="middle" x="196.98" y="-60.6" font-family="Helvetica,sans-Serif" font-size="10.00">3</text>
</a>
</g>
</g>
<!-- dir_b1780c5770c70e338c74f731f04dbc04&#45;&gt;dir_f599252a6ed79d26501e6b7d925f2ed5 -->
<g id="edge21" class="edge">
<title>dir_b1780c5770c70e338c74f731f04dbc04&#45;&gt;dir_f599252a6ed79d26501e6b7d925f2ed5</title>
<path fill="none" stroke="black" d="M208.72,-159.7C199.08,-151.05 187.27,-140.45 176.77,-131.03"/>
<polygon fill="black" stroke="black" points="178.84,-128.18 169.06,-124.1 174.16,-133.39 178.84,-128.18"/>
<g id="a_edge21&#45;headlabel"><a xlink:href="dir_000007_000020.html" target="_top" xlink:title="4">
<text text-anchor="middle" x="183.41" y="-125.97" font-family="Helvetica,sans-Serif" font-size="10.00">4</text>
</a>
</g>
</g>
<!-- dir_b1780c5770c70e338c74f731f04dbc04&#45;&gt;dir_fc034541bb3ad0242232d8f8d983e32a -->
<g id="edge22" class="edge">
<title>dir_b1780c5770c70e338c74f731f04dbc04&#45;&gt;dir_fc034541bb3ad0242232d8f8d983e32a</title>
<path fill="none" stroke="black" d="M212.5,-196.05C184.42,-228.27 126.28,-301.59 107,-376 102.99,-391.49 99.6,-397.81 107,-412 115.5,-428.3 131.56,-440.61 146.73,-449.24"/>
<polygon fill="black" stroke="black" points="145.51,-452.56 155.99,-454.14 148.79,-446.37 145.51,-452.56"/>
<g id="a_edge22&#45;headlabel"><a xlink:href="dir_000007_000004.html" target="_top" xlink:title="1">
<text text-anchor="middle" x="141.01" y="-450.88" font-family="Helvetica,sans-Serif" font-size="10.00">1</text>
</a>
</g>
</g>
<!-- dir_db9a87b27e79d48ff721c11f86eab7d7&#45;&gt;dir_313caf1132e152dd9b58bea13a4052ca -->
<g id="edge23" class="edge">
<title>dir_db9a87b27e79d48ff721c11f86eab7d7&#45;&gt;dir_313caf1132e152dd9b58bea13a4052ca</title>
<path fill="none" stroke="black" d="M152.33,-527.73C126.24,-520.04 93.97,-506.6 73,-484 21.48,-428.46 17,-398.76 17,-323 17,-323 17,-323 17,-177 17,-110.05 96.07,-67.61 144.4,-47.93"/>
<polygon fill="black" stroke="black" points="145.9,-51.1 153.92,-44.18 143.33,-44.59 145.9,-51.1"/>
<g id="a_edge23&#45;headlabel"><a xlink:href="dir_000003_000025.html" target="_top" xlink:title="2">
<text text-anchor="middle" x="143.59" y="-52.56" font-family="Helvetica,sans-Serif" font-size="10.00">2</text>
</a>
</g>
</g>
<!-- dir_db9a87b27e79d48ff721c11f86eab7d7&#45;&gt;dir_f599252a6ed79d26501e6b7d925f2ed5 -->
<g id="edge24" class="edge">
<title>dir_db9a87b27e79d48ff721c11f86eab7d7&#45;&gt;dir_f599252a6ed79d26501e6b7d925f2ed5</title>
<path fill="none" stroke="black" d="M159.46,-519.87C118.57,-497.39 57,-453.78 57,-395 57,-395 57,-395 57,-249 57,-201.32 94.15,-157.19 121.48,-131.17"/>
<polygon fill="black" stroke="black" points="123.93,-133.68 128.9,-124.32 119.18,-128.54 123.93,-133.68"/>
<g id="a_edge24&#45;headlabel"><a xlink:href="dir_000003_000020.html" target="_top" xlink:title="1">
<text text-anchor="middle" x="123.21" y="-135.7" font-family="Helvetica,sans-Serif" font-size="10.00">1</text>
</a>
</g>
</g>
<!-- dir_db9a87b27e79d48ff721c11f86eab7d7&#45;&gt;dir_fc034541bb3ad0242232d8f8d983e32a -->
<g id="edge25" class="edge">
<title>dir_db9a87b27e79d48ff721c11f86eab7d7&#45;&gt;dir_fc034541bb3ad0242232d8f8d983e32a</title>
<path fill="none" stroke="black" d="M192.03,-519.7C190.71,-511.98 189.12,-502.71 187.65,-494.11"/>
<polygon fill="black" stroke="black" points="191.07,-493.37 185.93,-484.1 184.17,-494.55 191.07,-493.37"/>
<g id="a_edge25&#45;headlabel"><a xlink:href="dir_000003_000004.html" target="_top" xlink:title="1">
<text text-anchor="middle" x="194.48" y="-493.93" font-family="Helvetica,sans-Serif" font-size="10.00">1</text>
</a>
</g>
</g>
<!-- dir_f599252a6ed79d26501e6b7d925f2ed5&#45;&gt;dir_313caf1132e152dd9b58bea13a4052ca -->
<g id="edge26" class="edge">
<title>dir_f599252a6ed79d26501e6b7d925f2ed5&#45;&gt;dir_313caf1132e152dd9b58bea13a4052ca</title>
<path fill="none" stroke="black" d="M157.66,-87.7C161.19,-79.73 165.46,-70.1 169.37,-61.26"/>
<polygon fill="black" stroke="black" points="172.58,-62.67 173.43,-52.1 166.18,-59.83 172.58,-62.67"/>
<g id="a_edge26&#45;headlabel"><a xlink:href="dir_000020_000025.html" target="_top" xlink:title="6">
<text text-anchor="middle" x="173.72" y="-64.6" font-family="Helvetica,sans-Serif" font-size="10.00">6</text>
</a>
</g>
</g>
<!-- dir_fc034541bb3ad0242232d8f8d983e32a&#45;&gt;dir_313caf1132e152dd9b58bea13a4052ca -->
<g id="edge27" class="edge">
<title>dir_fc034541bb3ad0242232d8f8d983e32a&#45;&gt;dir_313caf1132e152dd9b58bea13a4052ca</title>
<path fill="none" stroke="black" d="M198.98,-447.91C207.59,-438.01 217.88,-424.97 225,-412 279.96,-311.91 297.39,-271.97 275,-160 268.2,-126.01 265.62,-115.87 245,-88 236.8,-76.91 225.79,-66.71 215.22,-58.28"/>
<polygon fill="black" stroke="black" points="217.35,-55.5 207.28,-52.2 213.09,-61.06 217.35,-55.5"/>
<g id="a_edge27&#45;headlabel"><a xlink:href="dir_000004_000025.html" target="_top" xlink:title="5">
<text text-anchor="middle" x="221.93" y="-52.93" font-family="Helvetica,sans-Serif" font-size="10.00">5</text>
</a>
</g>
</g>
<!-- dir_fc034541bb3ad0242232d8f8d983e32a&#45;&gt;dir_469511d0e94cf1d94db96de2a5eb203f -->
<g id="edge28" class="edge">
<title>dir_fc034541bb3ad0242232d8f8d983e32a&#45;&gt;dir_469511d0e94cf1d94db96de2a5eb203f</title>
<path fill="none" stroke="black" d="M173.11,-447.7C168.51,-439.64 162.94,-429.89 157.85,-420.98"/>
<polygon fill="black" stroke="black" points="160.77,-419.05 152.77,-412.1 154.7,-422.52 160.77,-419.05"/>
<g id="a_edge28&#45;headlabel"><a xlink:href="dir_000004_000018.html" target="_top" xlink:title="1">
<text text-anchor="middle" x="165.02" y="-418.26" font-family="Helvetica,sans-Serif" font-size="10.00">1</text>
</a>
</g>
</g>
<!-- dir_fc034541bb3ad0242232d8f8d983e32a&#45;&gt;dir_f599252a6ed79d26501e6b7d925f2ed5 -->
<g id="edge29" class="edge">
<title>dir_fc034541bb3ad0242232d8f8d983e32a&#45;&gt;dir_f599252a6ed79d26501e6b7d925f2ed5</title>
<path fill="none" stroke="black" d="M155.82,-456.18C135.88,-448.12 110.24,-434.05 98,-412 46.5,-319.21 105.47,-187.98 135.06,-132.91"/>
<polygon fill="black" stroke="black" points="138.13,-134.59 139.88,-124.14 132,-131.22 138.13,-134.59"/>
<g id="a_edge29&#45;headlabel"><a xlink:href="dir_000004_000020.html" target="_top" xlink:title="3">
<text text-anchor="middle" x="138.89" y="-136.61" font-family="Helvetica,sans-Serif" font-size="10.00">3</text>
</a>
</g>
</g>
<!-- dir_21f7b4eed03979aefcc3eb2d66364a44&#45;&gt;dir_295205cd1bf15bf63a3635aca83f2eed -->
<g id="edge1" class="edge">
<title>dir_21f7b4eed03979aefcc3eb2d66364a44&#45;&gt;dir_295205cd1bf15bf63a3635aca83f2eed</title>
<path fill="none" stroke="black" d="M254.63,-268.19C280.35,-293.38 318,-342.8 318,-393 318,-467 318,-467 318,-467 318,-508.7 301.82,-554.79 287.73,-582.82"/>
<polygon fill="black" stroke="black" points="284.48,-581.48 282.86,-591.95 290.66,-584.77 284.48,-581.48"/>
<g id="a_edge1&#45;headlabel"><a xlink:href="dir_000010_000012.html" target="_top" xlink:title="1">
<text text-anchor="middle" x="283.67" y="-574.47" font-family="Helvetica,sans-Serif" font-size="10.00">1</text>
</a>
</g>
</g>
<!-- dir_21f7b4eed03979aefcc3eb2d66364a44&#45;&gt;dir_313caf1132e152dd9b58bea13a4052ca -->
<g id="edge2" class="edge">
<title>dir_21f7b4eed03979aefcc3eb2d66364a44&#45;&gt;dir_313caf1132e152dd9b58bea13a4052ca</title>
<path fill="none" stroke="black" d="M248.04,-231.85C256.01,-222.12 264.83,-209.27 269,-196 273.8,-180.74 273.83,-175.25 269,-160 256.55,-120.67 226.78,-83.02 205.31,-59.51"/>
<polygon fill="black" stroke="black" points="207.77,-57.01 198.38,-52.1 202.65,-61.79 207.77,-57.01"/>
<g id="a_edge2&#45;headlabel"><a xlink:href="dir_000010_000025.html" target="_top" xlink:title="2">
<text text-anchor="middle" x="212.29" y="-55.2" font-family="Helvetica,sans-Serif" font-size="10.00">2</text>
</a>
</g>
</g>
<!-- dir_21f7b4eed03979aefcc3eb2d66364a44&#45;&gt;dir_469511d0e94cf1d94db96de2a5eb203f -->
<g id="edge3" class="edge">
<title>dir_21f7b4eed03979aefcc3eb2d66364a44&#45;&gt;dir_469511d0e94cf1d94db96de2a5eb203f</title>
<path fill="none" stroke="black" d="M203.85,-268.03C190.89,-277.2 176.34,-289.58 167,-304 154.94,-322.61 148.9,-347.15 145.9,-365.75"/>
<polygon fill="black" stroke="black" points="142.44,-365.26 144.5,-375.66 149.37,-366.25 142.44,-365.26"/>
<g id="a_edge3&#45;headlabel"><a xlink:href="dir_000010_000018.html" target="_top" xlink:title="3">
<text text-anchor="middle" x="140.13" y="-358.81" font-family="Helvetica,sans-Serif" font-size="10.00">3</text>
</a>
</g>
</g>
<!-- dir_21f7b4eed03979aefcc3eb2d66364a44&#45;&gt;dir_943433e5c898142b26d01d6086e5b430 -->
<g id="edge4" class="edge">
<title>dir_21f7b4eed03979aefcc3eb2d66364a44&#45;&gt;dir_943433e5c898142b26d01d6086e5b430</title>
<path fill="none" stroke="black" d="M230.81,-268.1C228.35,-276.04 224.59,-285.67 220.54,-294.51"/>
<polygon fill="black" stroke="black" points="217.3,-293.17 216.08,-303.7 223.6,-296.23 217.3,-293.17"/>
<g id="a_edge4&#45;headlabel"><a xlink:href="dir_000010_000011.html" target="_top" xlink:title="2">
<text text-anchor="middle" x="216.32" y="-286.2" font-family="Helvetica,sans-Serif" font-size="10.00">2</text>
</a>
</g>
</g>
<!-- dir_21f7b4eed03979aefcc3eb2d66364a44&#45;&gt;dir_b1780c5770c70e338c74f731f04dbc04 -->
<g id="edge5" class="edge">
<title>dir_21f7b4eed03979aefcc3eb2d66364a44&#45;&gt;dir_b1780c5770c70e338c74f731f04dbc04</title>
<path fill="none" stroke="black" d="M231.01,-231.7C230.57,-223.98 230.04,-214.71 229.55,-206.11"/>
<polygon fill="black" stroke="black" points="233.04,-205.89 228.98,-196.1 226.05,-206.29 233.04,-205.89"/>
<g id="a_edge5&#45;headlabel"><a xlink:href="dir_000010_000007.html" target="_top" xlink:title="1">
<text text-anchor="middle" x="236.08" y="-206.82" font-family="Helvetica,sans-Serif" font-size="10.00">1</text>
</a>
</g>
</g>
<!-- dir_21f7b4eed03979aefcc3eb2d66364a44&#45;&gt;dir_db9a87b27e79d48ff721c11f86eab7d7 -->
<g id="edge6" class="edge">
<title>dir_21f7b4eed03979aefcc3eb2d66364a44&#45;&gt;dir_db9a87b27e79d48ff721c11f86eab7d7</title>
<path fill="none" stroke="black" d="M237.41,-268.47C240.3,-278.71 243.55,-291.96 245,-304 254.65,-383.86 252.08,-407.9 226,-484 222.8,-493.33 217.87,-502.84 212.87,-511.18"/>
<polygon fill="black" stroke="black" points="209.86,-509.38 207.49,-519.71 215.79,-513.11 209.86,-509.38"/>
<g id="a_edge6&#45;headlabel"><a xlink:href="dir_000010_000003.html" target="_top" xlink:title="1">
<text text-anchor="middle" x="209.38" y="-502.33" font-family="Helvetica,sans-Serif" font-size="10.00">1</text>
</a>
</g>
</g>
<!-- dir_21f7b4eed03979aefcc3eb2d66364a44&#45;&gt;dir_f599252a6ed79d26501e6b7d925f2ed5 -->
<g id="edge7" class="edge">
<title>dir_21f7b4eed03979aefcc3eb2d66364a44&#45;&gt;dir_f599252a6ed79d26501e6b7d925f2ed5</title>
<path fill="none" stroke="black" d="M215.56,-231.83C206.63,-221.9 195.85,-208.86 188,-196 175.88,-176.16 165.76,-151.76 159.02,-133.53"/>
<polygon fill="black" stroke="black" points="162.31,-132.34 155.63,-124.11 155.72,-134.7 162.31,-132.34"/>
<g id="a_edge7&#45;headlabel"><a xlink:href="dir_000010_000020.html" target="_top" xlink:title="11">
<text text-anchor="middle" x="166.2" y="-132.26" font-family="Helvetica,sans-Serif" font-size="10.00">11</text>
</a>
</g>
</g>
<!-- dir_21f7b4eed03979aefcc3eb2d66364a44&#45;&gt;dir_fc034541bb3ad0242232d8f8d983e32a -->
<g id="edge8" class="edge">
<title>dir_21f7b4eed03979aefcc3eb2d66364a44&#45;&gt;dir_fc034541bb3ad0242232d8f8d983e32a</title>
<path fill="none" stroke="black" d="M236.26,-268.26C240.05,-286.33 244.25,-315.45 239,-340 231.24,-376.29 212.13,-414.79 198.39,-439.32"/>
<polygon fill="black" stroke="black" points="195.35,-437.58 193.43,-448 201.43,-441.06 195.35,-437.58"/>
<g id="a_edge8&#45;headlabel"><a xlink:href="dir_000010_000004.html" target="_top" xlink:title="2">
<text text-anchor="middle" x="194.67" y="-430.55" font-family="Helvetica,sans-Serif" font-size="10.00">2</text>
</a>
</g>
</g>
</g>
</svg>
