<?xml version="1.0" encoding="UTF-8" standalone="no"?>
<!DOCTYPE svg PUBLIC "-//W3C//DTD SVG 1.1//EN"
 "http://www.w3.org/Graphics/SVG/1.1/DTD/svg11.dtd">
<!-- Generated by graphviz version 2.49.3 (20211023.0002)
 -->
<!-- Title: potential Pages: 1 -->
<!--zoomable 455 -->
<svg id="main" version="1.1" xmlns="http://www.w3.org/2000/svg" xmlns:xlink="http://www.w3.org/1999/xlink" xml:space="preserve" onload="init(evt)">
<style type="text/css"><![CDATA[
.edge:hover path { stroke: red; }
.edge:hover polygon { stroke: red; fill: red; }
]]></style>
<script type="text/javascript"><![CDATA[
var edges = document.getElementsByTagName('g');
if (edges && edges.length) {
  for (var i=0;i<edges.length;i++) {
    if (edges[i].id.substr(0,4)=='edge') {
      edges[i].setAttribute('class','edge');
    }
  }
}
]]></script>
        <defs>
                <circle id="rim" cx="0" cy="0" r="7"/>
                <circle id="rim2" cx="0" cy="0" r="3.5"/>
                <g id="zoomPlus">
                        <use xlink:href="#rim" fill="#404040">
                                <set attributeName="fill" to="#808080" begin="zoomplus.mouseover" end="zoomplus.mouseout"/>
                        </use>
                        <path d="M-4,0h8M0,-4v8" fill="none" stroke="white" stroke-width="1.5" pointer-events="none"/>
                </g>
                <g id="zoomMin">
                        <use xlink:href="#rim" fill="#404040">
                                <set attributeName="fill" to="#808080" begin="zoomminus.mouseover" end="zoomminus.mouseout"/>
                        </use>
                        <path d="M-4,0h8" fill="none" stroke="white" stroke-width="1.5" pointer-events="none"/>
                </g>
                <g id="dirArrow">
                        <path fill="none" stroke="white" stroke-width="1.5" d="M0,-3.0v7 M-2.5,-0.5L0,-3.0L2.5,-0.5"/>
                </g>
               <g id="resetDef">
                       <use xlink:href="#rim2" fill="#404040">
                               <set attributeName="fill" to="#808080" begin="reset.mouseover" end="reset.mouseout"/>
                       </use>
               </g>
        </defs>

<script type="text/javascript">
var viewWidth = 194;
var viewHeight = 455;
var sectionId = 'dynsection-0';
</script>
<script xlink:href="svgpan.js"/>
<svg id="graph" class="graph">
<g id="viewport">
<title>potential</title>
<polygon fill="white" stroke="transparent" points="-4,4 -4,-451 190,-451 190,4 -4,4"/>
<g id="clust1" class="cluster">
<title>clusterdir_68267d1309a1af8e8297ef4c3efbcdba</title>
<g id="a_clust1"><a xlink:href="dir_68267d1309a1af8e8297ef4c3efbcdba.html" target="_top" xlink:title="src">
<polygon fill="#ddddee" stroke="black" points="8,-8 8,-439 178,-439 178,-8 8,-8"/>
<text text-anchor="middle" x="93" y="-427" font-family="Helvetica,sans-Serif" font-size="10.00">src</text>
</a>
</g>
</g>
<!-- dir_204f8af06dc3bea3e75cefb7935561bc -->
<g id="node1" class="node">
<title>dir_204f8af06dc3bea3e75cefb7935561bc</title>
<g id="a_node1"><a xlink:href="dir_204f8af06dc3bea3e75cefb7935561bc.html" target="_top" xlink:title="dft">
<polygon fill="none" stroke="black" points="124,-412 70,-412 70,-376 124,-376 124,-412"/>
<text text-anchor="middle" x="97" y="-391.5" font-family="Helvetica,sans-Serif" font-size="10.00">dft</text>
</a>
</g>
</g>
<!-- dir_313caf1132e152dd9b58bea13a4052ca -->
<g id="node2" class="node">
<title>dir_313caf1132e152dd9b58bea13a4052ca</title>
<g id="a_node2"><a xlink:href="dir_313caf1132e152dd9b58bea13a4052ca.html" target="_top" xlink:title="utils">
<polygon fill="none" stroke="black" points="95,-52 41,-52 41,-16 95,-16 95,-52"/>
<text text-anchor="middle" x="68" y="-31.5" font-family="Helvetica,sans-Serif" font-size="10.00">utils</text>
</a>
</g>
</g>
<!-- dir_204f8af06dc3bea3e75cefb7935561bc&#45;&gt;dir_313caf1132e152dd9b58bea13a4052ca -->
<g id="edge1" class="edge">
<title>dir_204f8af06dc3bea3e75cefb7935561bc&#45;&gt;dir_313caf1132e152dd9b58bea13a4052ca</title>
<path fill="none" stroke="black" d="M79.64,-375.93C56.11,-350.89 17,-301.65 17,-251 17,-251 17,-251 17,-177 17,-134.59 37.4,-89.02 52.4,-61.26"/>
<polygon fill="black" stroke="black" points="55.63,-62.65 57.43,-52.21 49.51,-59.25 55.63,-62.65"/>
<g id="a_edge1&#45;headlabel"><a xlink:href="dir_000006_000025.html" target="_top" xlink:title="1">
<text text-anchor="middle" x="56.36" y="-64.68" font-family="Helvetica,sans-Serif" font-size="10.00">1</text>
</a>
</g>
</g>
<!-- dir_943433e5c898142b26d01d6086e5b430 -->
<g id="node3" class="node">
<title>dir_943433e5c898142b26d01d6086e5b430</title>
<g id="a_node3"><a xlink:href="dir_943433e5c898142b26d01d6086e5b430.html" target="_top" xlink:title="hubbard">
<polygon fill="none" stroke="black" points="130,-196 76,-196 76,-160 130,-160 130,-196"/>
<text text-anchor="middle" x="103" y="-175.5" font-family="Helvetica,sans-Serif" font-size="10.00">hubbard</text>
</a>
</g>
</g>
<!-- dir_204f8af06dc3bea3e75cefb7935561bc&#45;&gt;dir_943433e5c898142b26d01d6086e5b430 -->
<g id="edge3" class="edge">
<title>dir_204f8af06dc3bea3e75cefb7935561bc&#45;&gt;dir_943433e5c898142b26d01d6086e5b430</title>
<path fill="none" stroke="black" d="M97.48,-375.85C98.52,-338.83 100.98,-251.18 102.23,-206.39"/>
<polygon fill="black" stroke="black" points="105.74,-206.33 102.52,-196.23 98.74,-206.13 105.74,-206.33"/>
<g id="a_edge3&#45;headlabel"><a xlink:href="dir_000006_000011.html" target="_top" xlink:title="1">
<text text-anchor="middle" x="108.47" y="-207.5" font-family="Helvetica,sans-Serif" font-size="10.00">1</text>
</a>
</g>
</g>
<!-- dir_c45f2e881dec49fd11c03e7eb21cc175 -->
<g id="node4" class="node">
<title>dir_c45f2e881dec49fd11c03e7eb21cc175</title>
<g id="a_node4"><a xlink:href="dir_c45f2e881dec49fd11c03e7eb21cc175.html" target="_top" xlink:title="density">
<polygon fill="none" stroke="black" points="90,-268 36,-268 36,-232 90,-232 90,-268"/>
<text text-anchor="middle" x="63" y="-247.5" font-family="Helvetica,sans-Serif" font-size="10.00">density</text>
</a>
</g>
</g>
<!-- dir_204f8af06dc3bea3e75cefb7935561bc&#45;&gt;dir_c45f2e881dec49fd11c03e7eb21cc175 -->
<g id="edge4" class="edge">
<title>dir_204f8af06dc3bea3e75cefb7935561bc&#45;&gt;dir_c45f2e881dec49fd11c03e7eb21cc175</title>
<path fill="none" stroke="black" d="M92.9,-375.87C87.08,-351.56 76.37,-306.82 69.47,-278.01"/>
<polygon fill="black" stroke="black" points="72.85,-277.1 67.12,-268.19 66.04,-278.73 72.85,-277.1"/>
<g id="a_edge4&#45;headlabel"><a xlink:href="dir_000006_000005.html" target="_top" xlink:title="1">
<text text-anchor="middle" x="76.45" y="-277.43" font-family="Helvetica,sans-Serif" font-size="10.00">1</text>
</a>
</g>
</g>
<!-- dir_469511d0e94cf1d94db96de2a5eb203f -->
<g id="node6" class="node">
<title>dir_469511d0e94cf1d94db96de2a5eb203f</title>
<g id="a_node6"><a xlink:href="dir_469511d0e94cf1d94db96de2a5eb203f.html" target="_top" xlink:title="potential">
<polygon fill="#eeeeff" stroke="black" points="170,-340 116,-340 116,-304 170,-304 170,-340"/>
<text text-anchor="middle" x="143" y="-319.5" font-family="Helvetica,sans-Serif" font-size="10.00">potential</text>
</a>
</g>
</g>
<!-- dir_204f8af06dc3bea3e75cefb7935561bc&#45;&gt;dir_469511d0e94cf1d94db96de2a5eb203f -->
<g id="edge2" class="edge">
<title>dir_204f8af06dc3bea3e75cefb7935561bc&#45;&gt;dir_469511d0e94cf1d94db96de2a5eb203f</title>
<path fill="none" stroke="black" d="M102.46,-375.7C107.01,-367.47 113.37,-357.48 119.77,-348.42"/>
<polygon fill="black" stroke="black" points="122.78,-350.24 125.86,-340.1 117.13,-346.1 122.78,-350.24"/>
<g id="a_edge2&#45;headlabel"><a xlink:href="dir_000006_000018.html" target="_top" xlink:title="1">
<text text-anchor="middle" x="122.95" y="-352.32" font-family="Helvetica,sans-Serif" font-size="10.00">1</text>
</a>
</g>
</g>
<!-- dir_f599252a6ed79d26501e6b7d925f2ed5 -->
<g id="node5" class="node">
<title>dir_f599252a6ed79d26501e6b7d925f2ed5</title>
<g id="a_node5"><a xlink:href="dir_f599252a6ed79d26501e6b7d925f2ed5.html" target="_top" xlink:title="SDDK">
<polygon fill="none" stroke="black" points="120,-124 66,-124 66,-88 120,-88 120,-124"/>
<text text-anchor="middle" x="93" y="-103.5" font-family="Helvetica,sans-Serif" font-size="10.00">SDDK</text>
</a>
</g>
</g>
<!-- dir_943433e5c898142b26d01d6086e5b430&#45;&gt;dir_f599252a6ed79d26501e6b7d925f2ed5 -->
<g id="edge10" class="edge">
<title>dir_943433e5c898142b26d01d6086e5b430&#45;&gt;dir_f599252a6ed79d26501e6b7d925f2ed5</title>
<path fill="none" stroke="black" d="M100.53,-159.7C99.43,-151.98 98.1,-142.71 96.87,-134.11"/>
<polygon fill="black" stroke="black" points="100.32,-133.51 95.44,-124.1 93.39,-134.5 100.32,-133.51"/>
<g id="a_edge10&#45;headlabel"><a xlink:href="dir_000011_000020.html" target="_top" xlink:title="3">
<text text-anchor="middle" x="103.64" y="-134.17" font-family="Helvetica,sans-Serif" font-size="10.00">3</text>
</a>
</g>
</g>
<!-- dir_c45f2e881dec49fd11c03e7eb21cc175&#45;&gt;dir_313caf1132e152dd9b58bea13a4052ca -->
<g id="edge11" class="edge">
<title>dir_c45f2e881dec49fd11c03e7eb21cc175&#45;&gt;dir_313caf1132e152dd9b58bea13a4052ca</title>
<path fill="none" stroke="black" d="M60.56,-231.86C59.21,-221.5 57.68,-208.02 57,-196 54.3,-148.08 52.1,-135.75 57,-88 57.88,-79.46 59.53,-70.26 61.29,-61.96"/>
<polygon fill="black" stroke="black" points="64.74,-62.57 63.54,-52.05 57.92,-61.03 64.74,-62.57"/>
<g id="a_edge11&#45;headlabel"><a xlink:href="dir_000005_000025.html" target="_top" xlink:title="1">
<text text-anchor="middle" x="66.72" y="-64.21" font-family="Helvetica,sans-Serif" font-size="10.00">1</text>
</a>
</g>
</g>
<!-- dir_c45f2e881dec49fd11c03e7eb21cc175&#45;&gt;dir_943433e5c898142b26d01d6086e5b430 -->
<g id="edge12" class="edge">
<title>dir_c45f2e881dec49fd11c03e7eb21cc175&#45;&gt;dir_943433e5c898142b26d01d6086e5b430</title>
<path fill="none" stroke="black" d="M72.89,-231.7C77.49,-223.64 83.06,-213.89 88.15,-204.98"/>
<polygon fill="black" stroke="black" points="91.3,-206.52 93.23,-196.1 85.23,-203.05 91.3,-206.52"/>
<g id="a_edge12&#45;headlabel"><a xlink:href="dir_000005_000011.html" target="_top" xlink:title="1">
<text text-anchor="middle" x="91.99" y="-208.55" font-family="Helvetica,sans-Serif" font-size="10.00">1</text>
</a>
</g>
</g>
<!-- dir_c45f2e881dec49fd11c03e7eb21cc175&#45;&gt;dir_f599252a6ed79d26501e6b7d925f2ed5 -->
<g id="edge13" class="edge">
<title>dir_c45f2e881dec49fd11c03e7eb21cc175&#45;&gt;dir_f599252a6ed79d26501e6b7d925f2ed5</title>
<path fill="none" stroke="black" d="M61.73,-231.97C60.84,-213.83 60.75,-184.42 67,-160 69.3,-151.01 73.23,-141.75 77.34,-133.53"/>
<polygon fill="black" stroke="black" points="80.57,-134.92 82.17,-124.44 74.39,-131.63 80.57,-134.92"/>
<g id="a_edge13&#45;headlabel"><a xlink:href="dir_000005_000020.html" target="_top" xlink:title="5">
<text text-anchor="middle" x="81.39" y="-136.92" font-family="Helvetica,sans-Serif" font-size="10.00">5</text>
</a>
</g>
</g>
<!-- dir_f599252a6ed79d26501e6b7d925f2ed5&#45;&gt;dir_313caf1132e152dd9b58bea13a4052ca -->
<g id="edge14" class="edge">
<title>dir_f599252a6ed79d26501e6b7d925f2ed5&#45;&gt;dir_313caf1132e152dd9b58bea13a4052ca</title>
<path fill="none" stroke="black" d="M86.82,-87.7C84,-79.81 80.61,-70.3 77.48,-61.55"/>
<polygon fill="black" stroke="black" points="80.77,-60.34 74.11,-52.1 74.18,-62.7 80.77,-60.34"/>
<g id="a_edge14&#45;headlabel"><a xlink:href="dir_000020_000025.html" target="_top" xlink:title="6">
<text text-anchor="middle" x="84.65" y="-60.27" font-family="Helvetica,sans-Serif" font-size="10.00">6</text>
</a>
</g>
</g>
<!-- dir_469511d0e94cf1d94db96de2a5eb203f&#45;&gt;dir_204f8af06dc3bea3e75cefb7935561bc -->
<g id="edge5" class="edge">
<title>dir_469511d0e94cf1d94db96de2a5eb203f&#45;&gt;dir_204f8af06dc3bea3e75cefb7935561bc</title>
<path fill="none" stroke="black" d="M137.66,-340.1C133.13,-348.3 126.78,-358.28 120.38,-367.36"/>
<polygon fill="black" stroke="black" points="117.36,-365.56 114.29,-375.7 123.01,-369.69 117.36,-365.56"/>
<g id="a_edge5&#45;headlabel"><a xlink:href="dir_000018_000006.html" target="_top" xlink:title="1">
<text text-anchor="middle" x="117.19" y="-358.48" font-family="Helvetica,sans-Serif" font-size="10.00">1</text>
</a>
</g>
</g>
<!-- dir_469511d0e94cf1d94db96de2a5eb203f&#45;&gt;dir_313caf1132e152dd9b58bea13a4052ca -->
<g id="edge6" class="edge">
<title>dir_469511d0e94cf1d94db96de2a5eb203f&#45;&gt;dir_313caf1132e152dd9b58bea13a4052ca</title>
<path fill="none" stroke="black" d="M148.41,-303.53C151.3,-293.29 154.55,-280.04 156,-268 165.71,-187.69 171.75,-156.68 129,-88 122.04,-76.82 111.98,-66.71 102.03,-58.39"/>
<polygon fill="black" stroke="black" points="104.14,-55.59 94.13,-52.11 99.78,-61.07 104.14,-55.59"/>
<g id="a_edge6&#45;headlabel"><a xlink:href="dir_000018_000025.html" target="_top" xlink:title="4">
<text text-anchor="middle" x="108.72" y="-53.11" font-family="Helvetica,sans-Serif" font-size="10.00">4</text>
</a>
</g>
</g>
<!-- dir_469511d0e94cf1d94db96de2a5eb203f&#45;&gt;dir_943433e5c898142b26d01d6086e5b430 -->
<g id="edge7" class="edge">
<title>dir_469511d0e94cf1d94db96de2a5eb203f&#45;&gt;dir_943433e5c898142b26d01d6086e5b430</title>
<path fill="none" stroke="black" d="M138.18,-303.87C131.33,-279.56 118.72,-234.82 110.61,-206.01"/>
<polygon fill="black" stroke="black" points="113.92,-204.87 107.84,-196.19 107.18,-206.76 113.92,-204.87"/>
<g id="a_edge7&#45;headlabel"><a xlink:href="dir_000018_000011.html" target="_top" xlink:title="1">
<text text-anchor="middle" x="117.63" y="-205.06" font-family="Helvetica,sans-Serif" font-size="10.00">1</text>
</a>
</g>
</g>
<!-- dir_469511d0e94cf1d94db96de2a5eb203f&#45;&gt;dir_c45f2e881dec49fd11c03e7eb21cc175 -->
<g id="edge8" class="edge">
<title>dir_469511d0e94cf1d94db96de2a5eb203f&#45;&gt;dir_c45f2e881dec49fd11c03e7eb21cc175</title>
<path fill="none" stroke="black" d="M123.22,-303.7C113.25,-294.97 100.99,-284.24 90.14,-274.75"/>
<polygon fill="black" stroke="black" points="92.38,-272.06 82.55,-268.1 87.77,-277.32 92.38,-272.06"/>
<g id="a_edge8&#45;headlabel"><a xlink:href="dir_000018_000005.html" target="_top" xlink:title="1">
<text text-anchor="middle" x="96.95" y="-269.79" font-family="Helvetica,sans-Serif" font-size="10.00">1</text>
</a>
</g>
</g>
<!-- dir_469511d0e94cf1d94db96de2a5eb203f&#45;&gt;dir_f599252a6ed79d26501e6b7d925f2ed5 -->
<g id="edge9" class="edge">
<title>dir_469511d0e94cf1d94db96de2a5eb203f&#45;&gt;dir_f599252a6ed79d26501e6b7d925f2ed5</title>
<path fill="none" stroke="black" d="M146.25,-303.81C151.18,-273.55 158.1,-209.27 139,-160 135,-149.67 128.03,-139.99 120.72,-131.8"/>
<polygon fill="black" stroke="black" points="123.12,-129.25 113.68,-124.44 118.06,-134.09 123.12,-129.25"/>
<g id="a_edge9&#45;headlabel"><a xlink:href="dir_000018_000020.html" target="_top" xlink:title="4">
<text text-anchor="middle" x="127.65" y="-127.39" font-family="Helvetica,sans-Serif" font-size="10.00">4</text>
</a>
</g>
</g>
</g>
</svg>
        <g id="navigator" transform="translate(0 0)" fill="#404254">
                <rect fill="#f2f5e9" fill-opacity="0.5" stroke="#606060" stroke-width=".5" x="0" y="0" width="60" height="60"/>
                <use id="zoomplus" xlink:href="#zoomPlus" x="17" y="9" onmousedown="handleZoom(evt,'in')"/>
                <use id="zoomminus" xlink:href="#zoomMin" x="42" y="9" onmousedown="handleZoom(evt,'out')"/>
                <use id="reset" xlink:href="#resetDef" x="30" y="36" onmousedown="handleReset()"/>
                <g id="arrowUp" xlink:href="#dirArrow" transform="translate(30 24)" onmousedown="handlePan(0,-1)">
                  <use xlink:href="#rim" fill="#404040">
                        <set attributeName="fill" to="#808080" begin="arrowUp.mouseover" end="arrowUp.mouseout"/>
                  </use>
                  <path fill="none" stroke="white" stroke-width="1.5" d="M0,-3.0v7 M-2.5,-0.5L0,-3.0L2.5,-0.5"/>
                </g>
                <g id="arrowRight" xlink:href="#dirArrow" transform="rotate(90) translate(36 -43)" onmousedown="handlePan(1,0)">
                  <use xlink:href="#rim" fill="#404040">
                        <set attributeName="fill" to="#808080" begin="arrowRight.mouseover" end="arrowRight.mouseout"/>
                  </use>
                  <path fill="none" stroke="white" stroke-width="1.5" d="M0,-3.0v7 M-2.5,-0.5L0,-3.0L2.5,-0.5"/>
                </g>
                <g id="arrowDown" xlink:href="#dirArrow" transform="rotate(180) translate(-30 -48)" onmousedown="handlePan(0,1)">
                  <use xlink:href="#rim" fill="#404040">
                        <set attributeName="fill" to="#808080" begin="arrowDown.mouseover" end="arrowDown.mouseout"/>
                  </use>
                  <path fill="none" stroke="white" stroke-width="1.5" d="M0,-3.0v7 M-2.5,-0.5L0,-3.0L2.5,-0.5"/>
                </g>
                <g id="arrowLeft" xlink:href="#dirArrow" transform="rotate(270) translate(-36 17)" onmousedown="handlePan(-1,0)">
                  <use xlink:href="#rim" fill="#404040">
                        <set attributeName="fill" to="#808080" begin="arrowLeft.mouseover" end="arrowLeft.mouseout"/>
                  </use>
                  <path fill="none" stroke="white" stroke-width="1.5" d="M0,-3.0v7 M-2.5,-0.5L0,-3.0L2.5,-0.5"/>
                </g>
        </g>
        <svg viewBox="0 0 15 15" width="100%" height="30px" preserveAspectRatio="xMaxYMin meet">
         <g id="arrow_out" transform="scale(0.3 0.3)">
          <a xlink:href="dir_469511d0e94cf1d94db96de2a5eb203f_dep_org.svg" target="_base">
           <rect id="button" ry="5" rx="5" y="6" x="6" height="38" width="38"
                fill="#f2f5e9" fill-opacity="0.5" stroke="#606060" stroke-width="1.0"/>
           <path id="arrow"
             d="M 11.500037,31.436501 C 11.940474,20.09759 22.043105,11.32322 32.158766,21.979434 L 37.068811,17.246167 C 37.068811,17.246167 37.088388,32 37.088388,32 L 22.160133,31.978069 C 22.160133,31.978069 26.997745,27.140456 26.997745,27.140456 C 18.528582,18.264221 13.291696,25.230495 11.500037,31.436501 z"
             style="fill:#404040;"/>
          </a>
         </g>
        </svg>
</svg>
