<?xml version="1.0" encoding="UTF-8" standalone="no"?>
<!DOCTYPE svg PUBLIC "-//W3C//DTD SVG 1.1//EN"
 "http://www.w3.org/Graphics/SVG/1.1/DTD/svg11.dtd">
<!-- Generated by graphviz version 2.49.3 (20211023.0002)
 -->
<!-- Title: SDDK Pages: 1 -->
<svg width="284pt" height="311pt"
 viewBox="0.00 0.00 284.00 311.00" xmlns="http://www.w3.org/2000/svg" xmlns:xlink="http://www.w3.org/1999/xlink">
<g id="graph0" class="graph" transform="scale(1 1) rotate(0) translate(4 307)">
<title>SDDK</title>
<polygon fill="white" stroke="transparent" points="-4,4 -4,-307 280,-307 280,4 -4,4"/>
<g id="clust1" class="cluster">
<title>clusterdir_68267d1309a1af8e8297ef4c3efbcdba</title>
<g id="a_clust1"><a xlink:href="dir_68267d1309a1af8e8297ef4c3efbcdba.html" target="_top" xlink:title="src">
<polygon fill="#ddddee" stroke="black" points="8,-8 8,-295 268,-295 268,-8 8,-8"/>
<text text-anchor="middle" x="138" y="-283" font-family="Helvetica,sans-Serif" font-size="10.00">src</text>
</a>
</g>
</g>
<!-- dir_313caf1132e152dd9b58bea13a4052ca -->
<g id="node1" class="node">
<title>dir_313caf1132e152dd9b58bea13a4052ca</title>
<g id="a_node1"><a xlink:href="dir_313caf1132e152dd9b58bea13a4052ca.html" target="_top" xlink:title="utils">
<polygon fill="none" stroke="black" points="140,-52 86,-52 86,-16 140,-16 140,-52"/>
<text text-anchor="middle" x="113" y="-31.5" font-family="Helvetica,sans-Serif" font-size="10.00">utils</text>
</a>
</g>
</g>
<!-- dir_5dff776341474e546195e534ccdc31ab -->
<g id="node2" class="node">
<title>dir_5dff776341474e546195e534ccdc31ab</title>
<g id="a_node2"><a xlink:href="dir_5dff776341474e546195e534ccdc31ab.html" target="_top" xlink:title="linalg">
<polygon fill="none" stroke="black" points="165,-268 111,-268 111,-232 165,-232 165,-268"/>
<text text-anchor="middle" x="138" y="-247.5" font-family="Helvetica,sans-Serif" font-size="10.00">linalg</text>
</a>
</g>
</g>
<!-- dir_5dff776341474e546195e534ccdc31ab&#45;&gt;dir_313caf1132e152dd9b58bea13a4052ca -->
<g id="edge1" class="edge">
<title>dir_5dff776341474e546195e534ccdc31ab&#45;&gt;dir_313caf1132e152dd9b58bea13a4052ca</title>
<path fill="none" stroke="black" d="M165.31,-231.88C208.68,-202.49 284.92,-140.55 249,-88 227,-55.81 182.32,-43.17 150.17,-38.21"/>
<polygon fill="black" stroke="black" points="150.6,-34.73 140.22,-36.85 149.65,-41.67 150.6,-34.73"/>
<g id="a_edge1&#45;headlabel"><a xlink:href="dir_000014_000025.html" target="_top" xlink:title="1">
<text text-anchor="middle" x="154.54" y="-29.91" font-family="Helvetica,sans-Serif" font-size="10.00">1</text>
</a>
</g>
</g>
<!-- dir_6993b48177f4798e7c32b5b63ec2c631 -->
<g id="node3" class="node">
<title>dir_6993b48177f4798e7c32b5b63ec2c631</title>
<g id="a_node3"><a xlink:href="dir_6993b48177f4798e7c32b5b63ec2c631.html" target="_top" xlink:title="mpi">
<polygon fill="none" stroke="black" points="70,-124 16,-124 16,-88 70,-88 70,-124"/>
<text text-anchor="middle" x="43" y="-103.5" font-family="Helvetica,sans-Serif" font-size="10.00">mpi</text>
</a>
</g>
</g>
<!-- dir_5dff776341474e546195e534ccdc31ab&#45;&gt;dir_6993b48177f4798e7c32b5b63ec2c631 -->
<g id="edge2" class="edge">
<title>dir_5dff776341474e546195e534ccdc31ab&#45;&gt;dir_6993b48177f4798e7c32b5b63ec2c631</title>
<path fill="none" stroke="black" d="M126.28,-231.85C119.22,-221.49 110.06,-208.01 102,-196 87.75,-174.76 71.72,-150.57 59.98,-132.77"/>
<polygon fill="black" stroke="black" points="62.68,-130.52 54.25,-124.1 56.84,-134.37 62.68,-130.52"/>
<g id="a_edge2&#45;headlabel"><a xlink:href="dir_000014_000016.html" target="_top" xlink:title="1">
<text text-anchor="middle" x="67.03" y="-129.46" font-family="Helvetica,sans-Serif" font-size="10.00">1</text>
</a>
</g>
</g>
<!-- dir_cf895c1ed808af158264b2f3d8d7f8f0 -->
<g id="node5" class="node">
<title>dir_cf895c1ed808af158264b2f3d8d7f8f0</title>
<g id="a_node5"><a xlink:href="dir_cf895c1ed808af158264b2f3d8d7f8f0.html" target="_top" xlink:title="gpu">
<polygon fill="none" stroke="black" points="240,-124 186,-124 186,-88 240,-88 240,-124"/>
<text text-anchor="middle" x="213" y="-103.5" font-family="Helvetica,sans-Serif" font-size="10.00">gpu</text>
</a>
</g>
</g>
<!-- dir_5dff776341474e546195e534ccdc31ab&#45;&gt;dir_cf895c1ed808af158264b2f3d8d7f8f0 -->
<g id="edge3" class="edge">
<title>dir_5dff776341474e546195e534ccdc31ab&#45;&gt;dir_cf895c1ed808af158264b2f3d8d7f8f0</title>
<path fill="none" stroke="black" d="M150.84,-231.85C158.11,-221.71 167.11,-208.46 174,-196 185.22,-175.69 195.64,-151.52 202.88,-133.49"/>
<polygon fill="black" stroke="black" points="206.15,-134.76 206.56,-124.17 199.64,-132.19 206.15,-134.76"/>
<g id="a_edge3&#45;headlabel"><a xlink:href="dir_000014_000009.html" target="_top" xlink:title="3">
<text text-anchor="middle" x="207.47" y="-136.65" font-family="Helvetica,sans-Serif" font-size="10.00">3</text>
</a>
</g>
</g>
<!-- dir_f599252a6ed79d26501e6b7d925f2ed5 -->
<g id="node6" class="node">
<title>dir_f599252a6ed79d26501e6b7d925f2ed5</title>
<g id="a_node6"><a xlink:href="dir_f599252a6ed79d26501e6b7d925f2ed5.html" target="_top" xlink:title="SDDK">
<polygon fill="#eeeeff" stroke="black" points="165,-196 111,-196 111,-160 165,-160 165,-196"/>
<text text-anchor="middle" x="138" y="-175.5" font-family="Helvetica,sans-Serif" font-size="10.00">SDDK</text>
</a>
</g>
</g>
<!-- dir_5dff776341474e546195e534ccdc31ab&#45;&gt;dir_f599252a6ed79d26501e6b7d925f2ed5 -->
<g id="edge4" class="edge">
<title>dir_5dff776341474e546195e534ccdc31ab&#45;&gt;dir_f599252a6ed79d26501e6b7d925f2ed5</title>
<path fill="none" stroke="black" d="M132.08,-231.7C131.29,-223.98 131.06,-214.71 131.4,-206.11"/>
<polygon fill="black" stroke="black" points="134.9,-206.32 132.1,-196.1 127.92,-205.84 134.9,-206.32"/>
<g id="a_edge4&#45;headlabel"><a xlink:href="dir_000014_000020.html" target="_top" xlink:title="5">
<text text-anchor="middle" x="137.48" y="-207.61" font-family="Helvetica,sans-Serif" font-size="10.00">5</text>
</a>
</g>
</g>
<!-- dir_6993b48177f4798e7c32b5b63ec2c631&#45;&gt;dir_313caf1132e152dd9b58bea13a4052ca -->
<g id="edge5" class="edge">
<title>dir_6993b48177f4798e7c32b5b63ec2c631&#45;&gt;dir_313caf1132e152dd9b58bea13a4052ca</title>
<path fill="none" stroke="black" d="M60.3,-87.7C68.86,-79.14 79.34,-68.66 88.7,-59.3"/>
<polygon fill="black" stroke="black" points="91.3,-61.65 95.9,-52.1 86.35,-56.7 91.3,-61.65"/>
<g id="a_edge5&#45;headlabel"><a xlink:href="dir_000016_000025.html" target="_top" xlink:title="1">
<text text-anchor="middle" x="90.77" y="-63.7" font-family="Helvetica,sans-Serif" font-size="10.00">1</text>
</a>
</g>
</g>
<!-- dir_a1204cba622aba6a1707a5a7155182eb -->
<g id="node4" class="node">
<title>dir_a1204cba622aba6a1707a5a7155182eb</title>
<g id="a_node4"><a xlink:href="dir_a1204cba622aba6a1707a5a7155182eb.html" target="_top" xlink:title="symmetry">
<polygon fill="none" stroke="black" points="168,-124 108,-124 108,-88 168,-88 168,-124"/>
<text text-anchor="middle" x="138" y="-103.5" font-family="Helvetica,sans-Serif" font-size="10.00">symmetry</text>
</a>
</g>
</g>
<!-- dir_a1204cba622aba6a1707a5a7155182eb&#45;&gt;dir_313caf1132e152dd9b58bea13a4052ca -->
<g id="edge6" class="edge">
<title>dir_a1204cba622aba6a1707a5a7155182eb&#45;&gt;dir_313caf1132e152dd9b58bea13a4052ca</title>
<path fill="none" stroke="black" d="M131.82,-87.7C129,-79.81 125.61,-70.3 122.48,-61.55"/>
<polygon fill="black" stroke="black" points="125.77,-60.34 119.11,-52.1 119.18,-62.7 125.77,-60.34"/>
<g id="a_edge6&#45;headlabel"><a xlink:href="dir_000023_000025.html" target="_top" xlink:title="3">
<text text-anchor="middle" x="129.65" y="-60.27" font-family="Helvetica,sans-Serif" font-size="10.00">3</text>
</a>
</g>
</g>
<!-- dir_a1204cba622aba6a1707a5a7155182eb&#45;&gt;dir_f599252a6ed79d26501e6b7d925f2ed5 -->
<g id="edge7" class="edge">
<title>dir_a1204cba622aba6a1707a5a7155182eb&#45;&gt;dir_f599252a6ed79d26501e6b7d925f2ed5</title>
<path fill="none" stroke="black" d="M143.9,-124.1C144.7,-131.79 144.94,-141.05 144.6,-149.67"/>
<polygon fill="black" stroke="black" points="141.11,-149.48 143.92,-159.7 148.09,-149.96 141.11,-149.48"/>
<g id="a_edge7&#45;headlabel"><a xlink:href="dir_000023_000020.html" target="_top" xlink:title="7">
<text text-anchor="middle" x="138.52" y="-143.2" font-family="Helvetica,sans-Serif" font-size="10.00">7</text>
</a>
</g>
</g>
<!-- dir_f599252a6ed79d26501e6b7d925f2ed5&#45;&gt;dir_313caf1132e152dd9b58bea13a4052ca -->
<g id="edge8" class="edge">
<title>dir_f599252a6ed79d26501e6b7d925f2ed5&#45;&gt;dir_313caf1132e152dd9b58bea13a4052ca</title>
<path fill="none" stroke="black" d="M121.11,-159.99C112.71,-150.31 103.42,-137.46 99,-124 92.32,-103.66 96.79,-79.62 102.39,-61.66"/>
<polygon fill="black" stroke="black" points="105.73,-62.71 105.65,-52.11 99.11,-60.44 105.73,-62.71"/>
<g id="a_edge8&#45;headlabel"><a xlink:href="dir_000020_000025.html" target="_top" xlink:title="6">
<text text-anchor="middle" x="107.26" y="-64.53" font-family="Helvetica,sans-Serif" font-size="10.00">6</text>
</a>
</g>
</g>
<!-- dir_f599252a6ed79d26501e6b7d925f2ed5&#45;&gt;dir_5dff776341474e546195e534ccdc31ab -->
<g id="edge9" class="edge">
<title>dir_f599252a6ed79d26501e6b7d925f2ed5&#45;&gt;dir_5dff776341474e546195e534ccdc31ab</title>
<path fill="none" stroke="black" d="M143.9,-196.1C144.7,-203.79 144.94,-213.05 144.6,-221.67"/>
<polygon fill="black" stroke="black" points="141.11,-221.48 143.92,-231.7 148.09,-221.96 141.11,-221.48"/>
<g id="a_edge9&#45;headlabel"><a xlink:href="dir_000020_000014.html" target="_top" xlink:title="3">
<text text-anchor="middle" x="138.52" y="-215.2" font-family="Helvetica,sans-Serif" font-size="10.00">3</text>
</a>
</g>
</g>
<!-- dir_f599252a6ed79d26501e6b7d925f2ed5&#45;&gt;dir_6993b48177f4798e7c32b5b63ec2c631 -->
<g id="edge10" class="edge">
<title>dir_f599252a6ed79d26501e6b7d925f2ed5&#45;&gt;dir_6993b48177f4798e7c32b5b63ec2c631</title>
<path fill="none" stroke="black" d="M114.52,-159.7C102.44,-150.8 87.55,-139.82 74.48,-130.2"/>
<polygon fill="black" stroke="black" points="76.34,-127.22 66.21,-124.1 72.19,-132.85 76.34,-127.22"/>
<g id="a_edge10&#45;headlabel"><a xlink:href="dir_000020_000016.html" target="_top" xlink:title="2">
<text text-anchor="middle" x="80.92" y="-124.57" font-family="Helvetica,sans-Serif" font-size="10.00">2</text>
</a>
</g>
</g>
<!-- dir_f599252a6ed79d26501e6b7d925f2ed5&#45;&gt;dir_a1204cba622aba6a1707a5a7155182eb -->
<g id="edge11" class="edge">
<title>dir_f599252a6ed79d26501e6b7d925f2ed5&#45;&gt;dir_a1204cba622aba6a1707a5a7155182eb</title>
<path fill="none" stroke="black" d="M132.08,-159.7C131.29,-151.98 131.06,-142.71 131.4,-134.11"/>
<polygon fill="black" stroke="black" points="134.9,-134.32 132.1,-124.1 127.92,-133.84 134.9,-134.32"/>
<g id="a_edge11&#45;headlabel"><a xlink:href="dir_000020_000023.html" target="_top" xlink:title="1">
<text text-anchor="middle" x="137.48" y="-135.61" font-family="Helvetica,sans-Serif" font-size="10.00">1</text>
</a>
</g>
</g>
<!-- dir_f599252a6ed79d26501e6b7d925f2ed5&#45;&gt;dir_cf895c1ed808af158264b2f3d8d7f8f0 -->
<g id="edge12" class="edge">
<title>dir_f599252a6ed79d26501e6b7d925f2ed5&#45;&gt;dir_cf895c1ed808af158264b2f3d8d7f8f0</title>
<path fill="none" stroke="black" d="M156.54,-159.7C165.8,-151.05 177.16,-140.45 187.26,-131.03"/>
<polygon fill="black" stroke="black" points="189.75,-133.49 194.67,-124.1 184.98,-128.37 189.75,-133.49"/>
<g id="a_edge12&#45;headlabel"><a xlink:href="dir_000020_000009.html" target="_top" xlink:title="4">
<text text-anchor="middle" x="189.06" y="-135.51" font-family="Helvetica,sans-Serif" font-size="10.00">4</text>
</a>
</g>
</g>
</g>
</svg>
