<?xml version="1.0" encoding="UTF-8" standalone="no"?>
<!DOCTYPE svg PUBLIC "-//W3C//DTD SVG 1.1//EN"
 "http://www.w3.org/Graphics/SVG/1.1/DTD/svg11.dtd">
<!-- Generated by graphviz version 2.40.1 (20161225.0304)
 -->
<!-- Title: Graphical Class Hierarchy Pages: 1 -->
<svg width="533pt" height="1123pt"
 viewBox="0.00 0.00 533.00 1123.00" xmlns="http://www.w3.org/2000/svg" xmlns:xlink="http://www.w3.org/1999/xlink">
<g id="graph0" class="graph" transform="scale(1 1) rotate(0) translate(4 1119)">
<title>Graphical Class Hierarchy</title>
<polygon fill="#ffffff" stroke="transparent" points="-4,4 -4,-1119 529,-1119 529,4 -4,4"/>
<!-- Node80 -->
<g id="node1" class="node">
<title>Node80</title>
<g id="a_node1"><a xlink:title=" ">
<polygon fill="#ffffff" stroke="#bfbfbf" points="0,-553 0,-572 81,-572 81,-553 0,-553"/>
<text text-anchor="middle" x="40.5" y="-560" font-family="Helvetica,sans-Serif" font-size="10.00" fill="#000000">std::false_type</text>
</a>
</g>
</g>
<!-- Node0 -->
<g id="node2" class="node">
<title>Node0</title>
<g id="a_node2"><a xlink:href="d2/d3a/structnlohmann_1_1detail_1_1is__compatible__string__type__impl.html" target="_top" xlink:title=" ">
<polygon fill="#ffffff" stroke="#000000" points="117,-1062.5 117,-1114.5 298,-1114.5 298,-1062.5 117,-1062.5"/>
<text text-anchor="start" x="125" y="-1102.5" font-family="Helvetica,sans-Serif" font-size="10.00" fill="#000000">nlohmann::detail::is</text>
<text text-anchor="start" x="125" y="-1091.5" font-family="Helvetica,sans-Serif" font-size="10.00" fill="#000000">_compatible_string_type</text>
<text text-anchor="start" x="125" y="-1080.5" font-family="Helvetica,sans-Serif" font-size="10.00" fill="#000000">_impl&lt; BasicJsonType, Constructible</text>
<text text-anchor="middle" x="207.5" y="-1069.5" font-family="Helvetica,sans-Serif" font-size="10.00" fill="#000000">StringType &gt;</text>
</a>
</g>
</g>
<!-- Node80&#45;&gt;Node0 -->
<g id="edge1" class="edge">
<title>Node80&#45;&gt;Node0</title>
<path fill="none" stroke="#191970" d="M41.0493,-582.6245C43.6858,-665.2958 57.4944,-977.9337 117,-1052.5 119.8477,-1056.0685 123.1015,-1059.2847 126.6439,-1062.1833"/>
<polygon fill="#191970" stroke="#191970" points="44.5336,-582.0427 40.7373,-572.1514 37.5367,-582.2512 44.5336,-582.0427"/>
</g>
<!-- Node83 -->
<g id="node4" class="node">
<title>Node83</title>
<g id="a_node4"><a xlink:href="dc/dac/structnlohmann_1_1detail_1_1has__from__json.html" target="_top" xlink:title=" ">
<polygon fill="#ffffff" stroke="#000000" points="135,-1002 135,-1043 280,-1043 280,-1002 135,-1002"/>
<text text-anchor="start" x="143" y="-1031" font-family="Helvetica,sans-Serif" font-size="10.00" fill="#000000">nlohmann::detail::has</text>
<text text-anchor="start" x="143" y="-1020" font-family="Helvetica,sans-Serif" font-size="10.00" fill="#000000">_from_json&lt; BasicJsonType,</text>
<text text-anchor="middle" x="207.5" y="-1009" font-family="Helvetica,sans-Serif" font-size="10.00" fill="#000000"> T, typename &gt;</text>
</a>
</g>
</g>
<!-- Node80&#45;&gt;Node83 -->
<g id="edge3" class="edge">
<title>Node80&#45;&gt;Node83</title>
<path fill="none" stroke="#191970" d="M41.3893,-582.1649C45.1956,-657.8869 62.4877,-929.5114 117,-992.5 121.9827,-998.2575 128.0968,-1002.9145 134.7747,-1006.6806"/>
<polygon fill="#191970" stroke="#191970" points="44.882,-581.9275 40.9065,-572.1068 37.8901,-582.2632 44.882,-581.9275"/>
</g>
<!-- Node84 -->
<g id="node5" class="node">
<title>Node84</title>
<g id="a_node5"><a xlink:href="d7/d08/structnlohmann_1_1detail_1_1has__non__default__from__json.html" target="_top" xlink:title=" ">
<polygon fill="#ffffff" stroke="#000000" points="126,-942 126,-983 289,-983 289,-942 126,-942"/>
<text text-anchor="start" x="134" y="-971" font-family="Helvetica,sans-Serif" font-size="10.00" fill="#000000">nlohmann::detail::has</text>
<text text-anchor="start" x="134" y="-960" font-family="Helvetica,sans-Serif" font-size="10.00" fill="#000000">_non_default_from_json</text>
<text text-anchor="middle" x="207.5" y="-949" font-family="Helvetica,sans-Serif" font-size="10.00" fill="#000000">&lt; BasicJsonType, T, typename &gt;</text>
</a>
</g>
</g>
<!-- Node80&#45;&gt;Node84 -->
<g id="edge4" class="edge">
<title>Node80&#45;&gt;Node84</title>
<path fill="none" stroke="#191970" d="M42.0319,-582.4422C47.7226,-651.5524 69.7965,-879.4657 117,-932.5 120.0814,-935.962 123.5714,-939.0256 127.3437,-941.7365"/>
<polygon fill="#191970" stroke="#191970" points="45.4916,-581.7967 41.207,-572.1069 38.5138,-582.3537 45.4916,-581.7967"/>
</g>
<!-- Node85 -->
<g id="node6" class="node">
<title>Node85</title>
<g id="a_node6"><a xlink:href="d9/d6c/structnlohmann_1_1detail_1_1has__to__json.html" target="_top" xlink:title=" ">
<polygon fill="#ffffff" stroke="#000000" points="140.5,-882 140.5,-923 274.5,-923 274.5,-882 140.5,-882"/>
<text text-anchor="start" x="148.5" y="-911" font-family="Helvetica,sans-Serif" font-size="10.00" fill="#000000">nlohmann::detail::has</text>
<text text-anchor="start" x="148.5" y="-900" font-family="Helvetica,sans-Serif" font-size="10.00" fill="#000000">_to_json&lt; BasicJsonType,</text>
<text text-anchor="middle" x="207.5" y="-889" font-family="Helvetica,sans-Serif" font-size="10.00" fill="#000000"> T, typename &gt;</text>
</a>
</g>
</g>
<!-- Node80&#45;&gt;Node85 -->
<g id="edge5" class="edge">
<title>Node80&#45;&gt;Node85</title>
<path fill="none" stroke="#191970" d="M42.8806,-582.3164C50.6285,-643.7064 76.9574,-829.199 117,-872.5 123.4058,-879.4271 131.4456,-884.7567 140.0743,-888.8568"/>
<polygon fill="#191970" stroke="#191970" points="46.314,-581.5606 41.6154,-572.0646 39.3667,-582.418 46.314,-581.5606"/>
</g>
<!-- Node86 -->
<g id="node7" class="node">
<title>Node86</title>
<g id="a_node7"><a xlink:href="d4/df6/structnlohmann_1_1detail_1_1is__basic__json.html" target="_top" xlink:title=" ">
<polygon fill="#ffffff" stroke="#000000" points="142.5,-832.5 142.5,-862.5 272.5,-862.5 272.5,-832.5 142.5,-832.5"/>
<text text-anchor="start" x="150.5" y="-850.5" font-family="Helvetica,sans-Serif" font-size="10.00" fill="#000000">nlohmann::detail::is</text>
<text text-anchor="middle" x="207.5" y="-839.5" font-family="Helvetica,sans-Serif" font-size="10.00" fill="#000000">_basic_json&lt; typename &gt;</text>
</a>
</g>
</g>
<!-- Node80&#45;&gt;Node86 -->
<g id="edge6" class="edge">
<title>Node80&#45;&gt;Node86</title>
<path fill="none" stroke="#191970" d="M43.7612,-582.449C53.1285,-637.3912 81.7178,-789.1197 117,-823.5 124.1015,-830.42 132.9571,-835.4048 142.3276,-838.9838"/>
<polygon fill="#191970" stroke="#191970" points="47.1606,-581.5565 42.0585,-572.271 40.2565,-582.7115 47.1606,-581.5565"/>
</g>
<!-- Node87 -->
<g id="node8" class="node">
<title>Node87</title>
<g id="a_node8"><a xlink:href="dc/d4b/structnlohmann_1_1detail_1_1is__compatible__array__type__impl.html" target="_top" xlink:title=" ">
<polygon fill="#ffffff" stroke="#000000" points="121,-761.5 121,-813.5 294,-813.5 294,-761.5 121,-761.5"/>
<text text-anchor="start" x="129" y="-801.5" font-family="Helvetica,sans-Serif" font-size="10.00" fill="#000000">nlohmann::detail::is</text>
<text text-anchor="start" x="129" y="-790.5" font-family="Helvetica,sans-Serif" font-size="10.00" fill="#000000">_compatible_array_type</text>
<text text-anchor="start" x="129" y="-779.5" font-family="Helvetica,sans-Serif" font-size="10.00" fill="#000000">_impl&lt; BasicJsonType, Compatible</text>
<text text-anchor="middle" x="207.5" y="-768.5" font-family="Helvetica,sans-Serif" font-size="10.00" fill="#000000">ArrayType, typename &gt;</text>
</a>
</g>
</g>
<!-- Node80&#45;&gt;Node87 -->
<g id="edge7" class="edge">
<title>Node80&#45;&gt;Node87</title>
<path fill="none" stroke="#191970" d="M43.3122,-582.4359C49.6649,-620.3448 68.5385,-703.3286 117,-751.5 120.5978,-755.0762 124.5951,-758.3086 128.849,-761.2287"/>
<polygon fill="#191970" stroke="#191970" points="46.7169,-581.5512 41.7238,-572.2067 39.7998,-582.6253 46.7169,-581.5512"/>
</g>
<!-- Node89 -->
<g id="node10" class="node">
<title>Node89</title>
<g id="a_node10"><a xlink:href="dd/d13/structnlohmann_1_1detail_1_1is__compatible__integer__type__impl.html" target="_top" xlink:title=" ">
<polygon fill="#ffffff" stroke="#000000" points="126.5,-679 126.5,-742 288.5,-742 288.5,-679 126.5,-679"/>
<text text-anchor="start" x="134.5" y="-730" font-family="Helvetica,sans-Serif" font-size="10.00" fill="#000000">nlohmann::detail::is</text>
<text text-anchor="start" x="134.5" y="-719" font-family="Helvetica,sans-Serif" font-size="10.00" fill="#000000">_compatible_integer_type</text>
<text text-anchor="start" x="134.5" y="-708" font-family="Helvetica,sans-Serif" font-size="10.00" fill="#000000">_impl&lt; RealIntegerType,</text>
<text text-anchor="start" x="134.5" y="-697" font-family="Helvetica,sans-Serif" font-size="10.00" fill="#000000"> CompatibleNumberIntegerType,</text>
<text text-anchor="middle" x="207.5" y="-686" font-family="Helvetica,sans-Serif" font-size="10.00" fill="#000000"> typename &gt;</text>
</a>
</g>
</g>
<!-- Node80&#45;&gt;Node89 -->
<g id="edge9" class="edge">
<title>Node80&#45;&gt;Node89</title>
<path fill="none" stroke="#191970" d="M49.8975,-581.2532C62.4166,-604.6158 86.5668,-644.4978 117,-669.5 120.9984,-672.7849 125.3025,-675.8629 129.7857,-678.7374"/>
<polygon fill="#191970" stroke="#191970" points="52.8401,-579.3257 45.1211,-572.0685 46.6297,-582.5554 52.8401,-579.3257"/>
</g>
<!-- Node91 -->
<g id="node12" class="node">
<title>Node91</title>
<g id="a_node12"><a xlink:href="dc/da5/structnlohmann_1_1detail_1_1is__compatible__object__type__impl.html" target="_top" xlink:title=" ">
<polygon fill="#ffffff" stroke="#000000" points="121,-607.5 121,-659.5 294,-659.5 294,-607.5 121,-607.5"/>
<text text-anchor="start" x="129" y="-647.5" font-family="Helvetica,sans-Serif" font-size="10.00" fill="#000000">nlohmann::detail::is</text>
<text text-anchor="start" x="129" y="-636.5" font-family="Helvetica,sans-Serif" font-size="10.00" fill="#000000">_compatible_object_type</text>
<text text-anchor="start" x="129" y="-625.5" font-family="Helvetica,sans-Serif" font-size="10.00" fill="#000000">_impl&lt; BasicJsonType, Compatible</text>
<text text-anchor="middle" x="207.5" y="-614.5" font-family="Helvetica,sans-Serif" font-size="10.00" fill="#000000">ObjectType, typename &gt;</text>
</a>
</g>
</g>
<!-- Node80&#45;&gt;Node91 -->
<g id="edge11" class="edge">
<title>Node80&#45;&gt;Node91</title>
<path fill="none" stroke="#191970" d="M69.1161,-576.5549C83.394,-583.4166 100.9925,-591.6483 117,-598.5 123.9691,-601.483 131.2845,-604.4987 138.609,-607.4435"/>
<polygon fill="#191970" stroke="#191970" points="70.3483,-573.263 59.8223,-572.0573 67.299,-579.5639 70.3483,-573.263"/>
</g>
<!-- Node93 -->
<g id="node14" class="node">
<title>Node93</title>
<g id="a_node14"><a xlink:href="d2/d3a/structnlohmann_1_1detail_1_1is__compatible__string__type__impl.html" target="_top" xlink:title=" ">
<polygon fill="#ffffff" stroke="#000000" points="121,-536.5 121,-588.5 294,-588.5 294,-536.5 121,-536.5"/>
<text text-anchor="start" x="129" y="-576.5" font-family="Helvetica,sans-Serif" font-size="10.00" fill="#000000">nlohmann::detail::is</text>
<text text-anchor="start" x="129" y="-565.5" font-family="Helvetica,sans-Serif" font-size="10.00" fill="#000000">_compatible_string_type</text>
<text text-anchor="start" x="129" y="-554.5" font-family="Helvetica,sans-Serif" font-size="10.00" fill="#000000">_impl&lt; BasicJsonType, Compatible</text>
<text text-anchor="middle" x="207.5" y="-543.5" font-family="Helvetica,sans-Serif" font-size="10.00" fill="#000000">StringType, typename &gt;</text>
</a>
</g>
</g>
<!-- Node80&#45;&gt;Node93 -->
<g id="edge13" class="edge">
<title>Node80&#45;&gt;Node93</title>
<path fill="none" stroke="#191970" d="M91.5879,-562.5C100.9213,-562.5 110.8943,-562.5 120.9265,-562.5"/>
<polygon fill="#191970" stroke="#191970" points="91.3528,-559.0001 81.3528,-562.5 91.3528,-566.0001 91.3528,-559.0001"/>
</g>
<!-- Node94 -->
<g id="node15" class="node">
<title>Node94</title>
<g id="a_node15"><a xlink:href="d9/d66/structnlohmann_1_1detail_1_1is__compatible__type__impl.html" target="_top" xlink:title=" ">
<polygon fill="#ffffff" stroke="#000000" points="120.5,-465.5 120.5,-517.5 294.5,-517.5 294.5,-465.5 120.5,-465.5"/>
<text text-anchor="start" x="128.5" y="-505.5" font-family="Helvetica,sans-Serif" font-size="10.00" fill="#000000">nlohmann::detail::is</text>
<text text-anchor="start" x="128.5" y="-494.5" font-family="Helvetica,sans-Serif" font-size="10.00" fill="#000000">_compatible_type_impl</text>
<text text-anchor="start" x="128.5" y="-483.5" font-family="Helvetica,sans-Serif" font-size="10.00" fill="#000000">&lt; BasicJsonType, CompatibleType,</text>
<text text-anchor="middle" x="207.5" y="-472.5" font-family="Helvetica,sans-Serif" font-size="10.00" fill="#000000"> typename &gt;</text>
</a>
</g>
</g>
<!-- Node80&#45;&gt;Node94 -->
<g id="edge14" class="edge">
<title>Node80&#45;&gt;Node94</title>
<path fill="none" stroke="#191970" d="M70.0667,-548.5513C84.1975,-541.9932 101.3956,-534.1683 117,-527.5 124.619,-524.2442 132.637,-520.9158 140.622,-517.6619"/>
<polygon fill="#191970" stroke="#191970" points="68.4142,-545.46 60.8312,-552.8593 71.3733,-551.8038 68.4142,-545.46"/>
</g>
<!-- Node96 -->
<g id="node17" class="node">
<title>Node96</title>
<g id="a_node17"><a xlink:href="d2/db3/structnlohmann_1_1detail_1_1is__complete__type.html" target="_top" xlink:title=" ">
<polygon fill="#ffffff" stroke="#000000" points="127.5,-416.5 127.5,-446.5 287.5,-446.5 287.5,-416.5 127.5,-416.5"/>
<text text-anchor="start" x="135.5" y="-434.5" font-family="Helvetica,sans-Serif" font-size="10.00" fill="#000000">nlohmann::detail::is</text>
<text text-anchor="middle" x="207.5" y="-423.5" font-family="Helvetica,sans-Serif" font-size="10.00" fill="#000000">_complete_type&lt; T, typename &gt;</text>
</a>
</g>
</g>
<!-- Node80&#45;&gt;Node96 -->
<g id="edge16" class="edge">
<title>Node80&#45;&gt;Node96</title>
<path fill="none" stroke="#191970" d="M49.0137,-543.8308C60.8549,-519.9702 84.5552,-479.06 117,-456.5 122.6208,-452.5916 128.8333,-449.2928 135.2919,-446.5086"/>
<polygon fill="#191970" stroke="#191970" points="45.8289,-542.3779 44.674,-552.9096 52.1445,-545.3968 45.8289,-542.3779"/>
</g>
<!-- Node97 -->
<g id="node18" class="node">
<title>Node97</title>
<g id="a_node18"><a xlink:href="d8/d8b/structnlohmann_1_1detail_1_1is__constructible__array__type__impl.html" target="_top" xlink:title=" ">
<polygon fill="#ffffff" stroke="#000000" points="135.5,-334 135.5,-397 279.5,-397 279.5,-334 135.5,-334"/>
<text text-anchor="start" x="143.5" y="-385" font-family="Helvetica,sans-Serif" font-size="10.00" fill="#000000">nlohmann::detail::is</text>
<text text-anchor="start" x="143.5" y="-374" font-family="Helvetica,sans-Serif" font-size="10.00" fill="#000000">_constructible_array</text>
<text text-anchor="start" x="143.5" y="-363" font-family="Helvetica,sans-Serif" font-size="10.00" fill="#000000">_type_impl&lt; BasicJsonType,</text>
<text text-anchor="start" x="143.5" y="-352" font-family="Helvetica,sans-Serif" font-size="10.00" fill="#000000"> ConstructibleArrayType,</text>
<text text-anchor="middle" x="207.5" y="-341" font-family="Helvetica,sans-Serif" font-size="10.00" fill="#000000"> typename &gt;</text>
</a>
</g>
</g>
<!-- Node80&#45;&gt;Node97 -->
<g id="edge17" class="edge">
<title>Node80&#45;&gt;Node97</title>
<path fill="none" stroke="#191970" d="M45.5637,-542.8492C54.76,-510.6905 77.0484,-446.5054 117,-407.5 122.4533,-402.1758 128.7055,-397.4411 135.3209,-393.2505"/>
<polygon fill="#191970" stroke="#191970" points="42.1058,-542.226 42.8494,-552.7947 48.8589,-544.0691 42.1058,-542.226"/>
</g>
<!-- Node99 -->
<g id="node20" class="node">
<title>Node99</title>
<g id="a_node20"><a xlink:href="dd/da4/structnlohmann_1_1detail_1_1is__constructible__object__type__impl.html" target="_top" xlink:title=" ">
<polygon fill="#ffffff" stroke="#000000" points="135.5,-252 135.5,-315 279.5,-315 279.5,-252 135.5,-252"/>
<text text-anchor="start" x="143.5" y="-303" font-family="Helvetica,sans-Serif" font-size="10.00" fill="#000000">nlohmann::detail::is</text>
<text text-anchor="start" x="143.5" y="-292" font-family="Helvetica,sans-Serif" font-size="10.00" fill="#000000">_constructible_object</text>
<text text-anchor="start" x="143.5" y="-281" font-family="Helvetica,sans-Serif" font-size="10.00" fill="#000000">_type_impl&lt; BasicJsonType,</text>
<text text-anchor="start" x="143.5" y="-270" font-family="Helvetica,sans-Serif" font-size="10.00" fill="#000000"> ConstructibleObjectType,</text>
<text text-anchor="middle" x="207.5" y="-259" font-family="Helvetica,sans-Serif" font-size="10.00" fill="#000000"> typename &gt;</text>
</a>
</g>
</g>
<!-- Node80&#45;&gt;Node99 -->
<g id="edge19" class="edge">
<title>Node80&#45;&gt;Node99</title>
<path fill="none" stroke="#191970" d="M41.5594,-542.9781C44.9569,-498.6992 59.0729,-389.4628 117,-324.5 122.2807,-318.5779 128.5857,-313.4603 135.3763,-309.0492"/>
<polygon fill="#191970" stroke="#191970" points="38.0647,-542.7826 40.894,-552.9927 45.0493,-543.2467 38.0647,-542.7826"/>
</g>
<!-- Node101 -->
<g id="node22" class="node">
<title>Node101</title>
<g id="a_node22"><a xlink:href="de/df0/structnlohmann_1_1detail_1_1is__constructible__string__type__impl.html" target="_top" xlink:title=" ">
<polygon fill="#ffffff" stroke="#000000" points="135.5,-170 135.5,-233 279.5,-233 279.5,-170 135.5,-170"/>
<text text-anchor="start" x="143.5" y="-221" font-family="Helvetica,sans-Serif" font-size="10.00" fill="#000000">nlohmann::detail::is</text>
<text text-anchor="start" x="143.5" y="-210" font-family="Helvetica,sans-Serif" font-size="10.00" fill="#000000">_constructible_string</text>
<text text-anchor="start" x="143.5" y="-199" font-family="Helvetica,sans-Serif" font-size="10.00" fill="#000000">_type_impl&lt; BasicJsonType,</text>
<text text-anchor="start" x="143.5" y="-188" font-family="Helvetica,sans-Serif" font-size="10.00" fill="#000000"> ConstructibleStringType,</text>
<text text-anchor="middle" x="207.5" y="-177" font-family="Helvetica,sans-Serif" font-size="10.00" fill="#000000"> typename &gt;</text>
</a>
</g>
</g>
<!-- Node80&#45;&gt;Node101 -->
<g id="edge21" class="edge">
<title>Node80&#45;&gt;Node101</title>
<path fill="none" stroke="#191970" d="M42.9464,-542.6202C50.9733,-480.1979 78.2336,-289.4667 117,-242.5 122.1607,-236.2477 128.4768,-230.9092 135.3503,-226.3597"/>
<polygon fill="#191970" stroke="#191970" points="39.4516,-542.3596 41.673,-552.719 46.3966,-543.2354 39.4516,-542.3596"/>
</g>
<!-- Node103 -->
<g id="node24" class="node">
<title>Node103</title>
<g id="a_node24"><a xlink:href="df/d17/structnlohmann_1_1detail_1_1is__constructible__tuple.html" target="_top" xlink:title=" ">
<polygon fill="#ffffff" stroke="#000000" points="155,-110 155,-151 260,-151 260,-110 155,-110"/>
<text text-anchor="start" x="163" y="-139" font-family="Helvetica,sans-Serif" font-size="10.00" fill="#000000">nlohmann::detail::is</text>
<text text-anchor="start" x="163" y="-128" font-family="Helvetica,sans-Serif" font-size="10.00" fill="#000000">_constructible_tuple</text>
<text text-anchor="middle" x="207.5" y="-117" font-family="Helvetica,sans-Serif" font-size="10.00" fill="#000000">&lt; T1, T2 &gt;</text>
</a>
</g>
</g>
<!-- Node80&#45;&gt;Node103 -->
<g id="edge23" class="edge">
<title>Node80&#45;&gt;Node103</title>
<path fill="none" stroke="#191970" d="M41.6629,-542.7284C46.3197,-470.0435 65.8998,-218.8358 117,-160.5 126.707,-149.4185 140.6029,-142.4162 154.6018,-137.9961"/>
<polygon fill="#191970" stroke="#191970" points="38.1638,-542.6076 41.0411,-552.8042 45.1505,-543.0388 38.1638,-542.6076"/>
</g>
<!-- Node104 -->
<g id="node25" class="node">
<title>Node104</title>
<g id="a_node25"><a xlink:href="d3/d30/structnlohmann_1_1detail_1_1is__iterator__traits.html" target="_top" xlink:title=" ">
<polygon fill="#ffffff" stroke="#000000" points="156,-50 156,-91 259,-91 259,-50 156,-50"/>
<text text-anchor="start" x="164" y="-79" font-family="Helvetica,sans-Serif" font-size="10.00" fill="#000000">nlohmann::detail::is</text>
<text text-anchor="start" x="164" y="-68" font-family="Helvetica,sans-Serif" font-size="10.00" fill="#000000">_iterator_traits&lt; T,</text>
<text text-anchor="middle" x="207.5" y="-57" font-family="Helvetica,sans-Serif" font-size="10.00" fill="#000000"> typename &gt;</text>
</a>
</g>
</g>
<!-- Node80&#45;&gt;Node104 -->
<g id="edge24" class="edge">
<title>Node80&#45;&gt;Node104</title>
<path fill="none" stroke="#191970" d="M41.1201,-542.9175C44.0079,-463.8116 58.5855,-168.8196 117,-100.5 126.8963,-88.9256 141.3677,-81.7958 155.8478,-77.4109"/>
<polygon fill="#191970" stroke="#191970" points="37.6203,-542.8555 40.775,-552.9697 44.6161,-543.0957 37.6203,-542.8555"/>
</g>
<!-- Node105 -->
<g id="node26" class="node">
<title>Node105</title>
<g id="a_node26"><a xlink:href="d3/d0b/structnlohmann_1_1detail_1_1is__json__ref.html" target="_top" xlink:title=" ">
<polygon fill="#ffffff" stroke="#000000" points="148,-.5 148,-30.5 267,-30.5 267,-.5 148,-.5"/>
<text text-anchor="start" x="156" y="-18.5" font-family="Helvetica,sans-Serif" font-size="10.00" fill="#000000">nlohmann::detail::is</text>
<text text-anchor="middle" x="207.5" y="-7.5" font-family="Helvetica,sans-Serif" font-size="10.00" fill="#000000">_json_ref&lt; typename &gt;</text>
</a>
</g>
</g>
<!-- Node80&#45;&gt;Node105 -->
<g id="edge25" class="edge">
<title>Node80&#45;&gt;Node105</title>
<path fill="none" stroke="#191970" d="M42.1053,-542.9473C49.681,-452.6927 82.9144,-79.098 117,-40.5 125.0923,-31.3364 136.2107,-25.3964 147.8875,-21.5776"/>
<polygon fill="#191970" stroke="#191970" points="38.6165,-542.6689 41.276,-552.9245 45.5924,-543.2488 38.6165,-542.6689"/>
</g>
<!-- Node1 -->
<g id="node3" class="node">
<title>Node1</title>
<g id="a_node3"><a xlink:href="db/d4e/structnlohmann_1_1detail_1_1is__compatible__string__type.html" target="_top" xlink:title=" ">
<polygon fill="#ffffff" stroke="#000000" points="351,-1062.5 351,-1114.5 508,-1114.5 508,-1062.5 351,-1062.5"/>
<text text-anchor="start" x="359" y="-1102.5" font-family="Helvetica,sans-Serif" font-size="10.00" fill="#000000">nlohmann::detail::is</text>
<text text-anchor="start" x="359" y="-1091.5" font-family="Helvetica,sans-Serif" font-size="10.00" fill="#000000">_compatible_string_type</text>
<text text-anchor="start" x="359" y="-1080.5" font-family="Helvetica,sans-Serif" font-size="10.00" fill="#000000">&lt; BasicJsonType, Constructible</text>
<text text-anchor="middle" x="429.5" y="-1069.5" font-family="Helvetica,sans-Serif" font-size="10.00" fill="#000000">StringType &gt;</text>
</a>
</g>
</g>
<!-- Node0&#45;&gt;Node1 -->
<g id="edge2" class="edge">
<title>Node0&#45;&gt;Node1</title>
<path fill="none" stroke="#191970" d="M308.4392,-1088.5C322.689,-1088.5 337.1617,-1088.5 350.9077,-1088.5"/>
<polygon fill="#191970" stroke="#191970" points="308.1161,-1085.0001 298.1161,-1088.5 308.1161,-1092.0001 308.1161,-1085.0001"/>
</g>
<!-- Node88 -->
<g id="node9" class="node">
<title>Node88</title>
<g id="a_node9"><a xlink:href="d8/d94/structnlohmann_1_1detail_1_1is__compatible__array__type.html" target="_top" xlink:title=" ">
<polygon fill="#ffffff" stroke="#000000" points="343,-761.5 343,-813.5 516,-813.5 516,-761.5 343,-761.5"/>
<text text-anchor="start" x="351" y="-801.5" font-family="Helvetica,sans-Serif" font-size="10.00" fill="#000000">nlohmann::detail::is</text>
<text text-anchor="start" x="351" y="-790.5" font-family="Helvetica,sans-Serif" font-size="10.00" fill="#000000">_compatible_array_type</text>
<text text-anchor="start" x="351" y="-779.5" font-family="Helvetica,sans-Serif" font-size="10.00" fill="#000000">&lt; BasicJsonType, CompatibleArray</text>
<text text-anchor="middle" x="429.5" y="-768.5" font-family="Helvetica,sans-Serif" font-size="10.00" fill="#000000">Type &gt;</text>
</a>
</g>
</g>
<!-- Node87&#45;&gt;Node88 -->
<g id="edge8" class="edge">
<title>Node87&#45;&gt;Node88</title>
<path fill="none" stroke="#191970" d="M304.4463,-787.5C317.2006,-787.5 330.2064,-787.5 342.7755,-787.5"/>
<polygon fill="#191970" stroke="#191970" points="304.2848,-784.0001 294.2848,-787.5 304.2848,-791.0001 304.2848,-784.0001"/>
</g>
<!-- Node90 -->
<g id="node11" class="node">
<title>Node90</title>
<g id="a_node11"><a xlink:href="d1/d21/structnlohmann_1_1detail_1_1is__compatible__integer__type.html" target="_top" xlink:title=" ">
<polygon fill="#ffffff" stroke="#000000" points="334,-684.5 334,-736.5 525,-736.5 525,-684.5 334,-684.5"/>
<text text-anchor="start" x="342" y="-724.5" font-family="Helvetica,sans-Serif" font-size="10.00" fill="#000000">nlohmann::detail::is</text>
<text text-anchor="start" x="342" y="-713.5" font-family="Helvetica,sans-Serif" font-size="10.00" fill="#000000">_compatible_integer_type</text>
<text text-anchor="start" x="342" y="-702.5" font-family="Helvetica,sans-Serif" font-size="10.00" fill="#000000">&lt; RealIntegerType, CompatibleNumber</text>
<text text-anchor="middle" x="429.5" y="-691.5" font-family="Helvetica,sans-Serif" font-size="10.00" fill="#000000">IntegerType &gt;</text>
</a>
</g>
</g>
<!-- Node89&#45;&gt;Node90 -->
<g id="edge10" class="edge">
<title>Node89&#45;&gt;Node90</title>
<path fill="none" stroke="#191970" d="M298.7115,-710.5C310.3324,-710.5 322.2525,-710.5 333.9396,-710.5"/>
<polygon fill="#191970" stroke="#191970" points="298.5895,-707.0001 288.5894,-710.5 298.5894,-714.0001 298.5895,-707.0001"/>
</g>
<!-- Node92 -->
<g id="node13" class="node">
<title>Node92</title>
<g id="a_node13"><a xlink:href="d5/dda/structnlohmann_1_1detail_1_1is__compatible__object__type.html" target="_top" xlink:title=" ">
<polygon fill="#ffffff" stroke="#000000" points="340.5,-607.5 340.5,-659.5 518.5,-659.5 518.5,-607.5 340.5,-607.5"/>
<text text-anchor="start" x="348.5" y="-647.5" font-family="Helvetica,sans-Serif" font-size="10.00" fill="#000000">nlohmann::detail::is</text>
<text text-anchor="start" x="348.5" y="-636.5" font-family="Helvetica,sans-Serif" font-size="10.00" fill="#000000">_compatible_object_type</text>
<text text-anchor="start" x="348.5" y="-625.5" font-family="Helvetica,sans-Serif" font-size="10.00" fill="#000000">&lt; BasicJsonType, CompatibleObject</text>
<text text-anchor="middle" x="429.5" y="-614.5" font-family="Helvetica,sans-Serif" font-size="10.00" fill="#000000">Type &gt;</text>
</a>
</g>
</g>
<!-- Node91&#45;&gt;Node92 -->
<g id="edge12" class="edge">
<title>Node91&#45;&gt;Node92</title>
<path fill="none" stroke="#191970" d="M304.617,-633.5C316.4527,-633.5 328.5023,-633.5 340.2162,-633.5"/>
<polygon fill="#191970" stroke="#191970" points="304.2848,-630.0001 294.2848,-633.5 304.2848,-637.0001 304.2848,-630.0001"/>
</g>
<!-- Node95 -->
<g id="node16" class="node">
<title>Node95</title>
<g id="a_node16"><a xlink:href="d3/d71/structnlohmann_1_1detail_1_1is__compatible__type.html" target="_top" xlink:title=" ">
<polygon fill="#ffffff" stroke="#000000" points="355,-471 355,-512 504,-512 504,-471 355,-471"/>
<text text-anchor="start" x="363" y="-500" font-family="Helvetica,sans-Serif" font-size="10.00" fill="#000000">nlohmann::detail::is</text>
<text text-anchor="start" x="363" y="-489" font-family="Helvetica,sans-Serif" font-size="10.00" fill="#000000">_compatible_type&lt; BasicJson</text>
<text text-anchor="middle" x="429.5" y="-478" font-family="Helvetica,sans-Serif" font-size="10.00" fill="#000000">Type, CompatibleType &gt;</text>
</a>
</g>
</g>
<!-- Node94&#45;&gt;Node95 -->
<g id="edge15" class="edge">
<title>Node94&#45;&gt;Node95</title>
<path fill="none" stroke="#191970" d="M304.9569,-491.5C321.6946,-491.5 338.8492,-491.5 354.8679,-491.5"/>
<polygon fill="#191970" stroke="#191970" points="304.6031,-488.0001 294.6031,-491.5 304.6031,-495.0001 304.6031,-488.0001"/>
</g>
<!-- Node98 -->
<g id="node19" class="node">
<title>Node98</title>
<g id="a_node19"><a xlink:href="d3/d52/structnlohmann_1_1detail_1_1is__constructible__array__type.html" target="_top" xlink:title=" ">
<polygon fill="#ffffff" stroke="#000000" points="363.5,-339.5 363.5,-391.5 495.5,-391.5 495.5,-339.5 363.5,-339.5"/>
<text text-anchor="start" x="371.5" y="-379.5" font-family="Helvetica,sans-Serif" font-size="10.00" fill="#000000">nlohmann::detail::is</text>
<text text-anchor="start" x="371.5" y="-368.5" font-family="Helvetica,sans-Serif" font-size="10.00" fill="#000000">_constructible_array</text>
<text text-anchor="start" x="371.5" y="-357.5" font-family="Helvetica,sans-Serif" font-size="10.00" fill="#000000">_type&lt; BasicJsonType,</text>
<text text-anchor="middle" x="429.5" y="-346.5" font-family="Helvetica,sans-Serif" font-size="10.00" fill="#000000"> ConstructibleArrayType &gt;</text>
</a>
</g>
</g>
<!-- Node97&#45;&gt;Node98 -->
<g id="edge18" class="edge">
<title>Node97&#45;&gt;Node98</title>
<path fill="none" stroke="#191970" d="M289.8394,-365.5C314.0997,-365.5 340.3208,-365.5 363.4199,-365.5"/>
<polygon fill="#191970" stroke="#191970" points="289.5771,-362.0001 279.577,-365.5 289.577,-369.0001 289.5771,-362.0001"/>
</g>
<!-- Node100 -->
<g id="node21" class="node">
<title>Node100</title>
<g id="a_node21"><a xlink:href="dc/d11/structnlohmann_1_1detail_1_1is__constructible__object__type.html" target="_top" xlink:title=" ">
<polygon fill="#ffffff" stroke="#000000" points="361,-257.5 361,-309.5 498,-309.5 498,-257.5 361,-257.5"/>
<text text-anchor="start" x="369" y="-297.5" font-family="Helvetica,sans-Serif" font-size="10.00" fill="#000000">nlohmann::detail::is</text>
<text text-anchor="start" x="369" y="-286.5" font-family="Helvetica,sans-Serif" font-size="10.00" fill="#000000">_constructible_object</text>
<text text-anchor="start" x="369" y="-275.5" font-family="Helvetica,sans-Serif" font-size="10.00" fill="#000000">_type&lt; BasicJsonType,</text>
<text text-anchor="middle" x="429.5" y="-264.5" font-family="Helvetica,sans-Serif" font-size="10.00" fill="#000000"> ConstructibleObjectType &gt;</text>
</a>
</g>
</g>
<!-- Node99&#45;&gt;Node100 -->
<g id="edge20" class="edge">
<title>Node99&#45;&gt;Node100</title>
<path fill="none" stroke="#191970" d="M289.812,-283.5C313.1688,-283.5 338.3451,-283.5 360.8042,-283.5"/>
<polygon fill="#191970" stroke="#191970" points="289.5771,-280.0001 279.577,-283.5 289.577,-287.0001 289.5771,-280.0001"/>
</g>
<!-- Node102 -->
<g id="node23" class="node">
<title>Node102</title>
<g id="a_node23"><a xlink:href="d3/d84/structnlohmann_1_1detail_1_1is__constructible__string__type.html" target="_top" xlink:title=" ">
<polygon fill="#ffffff" stroke="#000000" points="362,-175.5 362,-227.5 497,-227.5 497,-175.5 362,-175.5"/>
<text text-anchor="start" x="370" y="-215.5" font-family="Helvetica,sans-Serif" font-size="10.00" fill="#000000">nlohmann::detail::is</text>
<text text-anchor="start" x="370" y="-204.5" font-family="Helvetica,sans-Serif" font-size="10.00" fill="#000000">_constructible_string</text>
<text text-anchor="start" x="370" y="-193.5" font-family="Helvetica,sans-Serif" font-size="10.00" fill="#000000">_type&lt; BasicJsonType,</text>
<text text-anchor="middle" x="429.5" y="-182.5" font-family="Helvetica,sans-Serif" font-size="10.00" fill="#000000"> ConstructibleStringType &gt;</text>
</a>
</g>
</g>
<!-- Node101&#45;&gt;Node102 -->
<g id="edge22" class="edge">
<title>Node101&#45;&gt;Node102</title>
<path fill="none" stroke="#191970" d="M289.6442,-201.5C313.4385,-201.5 339.1338,-201.5 361.9283,-201.5"/>
<polygon fill="#191970" stroke="#191970" points="289.5771,-198.0001 279.577,-201.5 289.577,-205.0001 289.5771,-198.0001"/>
</g>
</g>
</svg>
