<?xml version="1.0" encoding="UTF-8" standalone="no"?>
<!DOCTYPE svg PUBLIC "-//W3C//DTD SVG 1.1//EN"
 "http://www.w3.org/Graphics/SVG/1.1/DTD/svg11.dtd">
<!-- Generated by graphviz version 2.40.1 (20161225.0304)
 -->
<!-- Title: Graphical Class Hierarchy Pages: 1 -->
<svg width="286pt" height="137pt"
 viewBox="0.00 0.00 286.00 137.00" xmlns="http://www.w3.org/2000/svg" xmlns:xlink="http://www.w3.org/1999/xlink">
<g id="graph0" class="graph" transform="scale(1 1) rotate(0) translate(4 133)">
<title>Graphical Class Hierarchy</title>
<polygon fill="#ffffff" stroke="transparent" points="-4,4 -4,-133 282,-133 282,4 -4,4"/>
<!-- Node0 -->
<g id="node1" class="node">
<title>Node0</title>
<g id="a_node1"><a xlink:href="dc/d9b/structnlohmann_1_1detail_1_1output__adapter__protocol.html" target="_top" xlink:title="abstract output adapter interface ">
<polygon fill="#ffffff" stroke="#000000" points="0,-49.5 0,-79.5 123,-79.5 123,-49.5 0,-49.5"/>
<text text-anchor="start" x="8" y="-67.5" font-family="Helvetica,sans-Serif" font-size="10.00" fill="#000000">nlohmann::detail::output</text>
<text text-anchor="middle" x="61.5" y="-56.5" font-family="Helvetica,sans-Serif" font-size="10.00" fill="#000000">_adapter_protocol&lt; CharType &gt;</text>
</a>
</g>
</g>
<!-- Node1 -->
<g id="node2" class="node">
<title>Node1</title>
<g id="a_node2"><a xlink:href="d8/d94/classnlohmann_1_1detail_1_1output__stream__adapter.html" target="_top" xlink:title="output adapter for output streams ">
<polygon fill="#ffffff" stroke="#000000" points="159,-98.5 159,-128.5 278,-128.5 278,-98.5 159,-98.5"/>
<text text-anchor="start" x="167" y="-116.5" font-family="Helvetica,sans-Serif" font-size="10.00" fill="#000000">nlohmann::detail::output</text>
<text text-anchor="middle" x="218.5" y="-105.5" font-family="Helvetica,sans-Serif" font-size="10.00" fill="#000000">_stream_adapter&lt; CharType &gt;</text>
</a>
</g>
</g>
<!-- Node0&#45;&gt;Node1 -->
<g id="edge1" class="edge">
<title>Node0&#45;&gt;Node1</title>
<path fill="none" stroke="#191970" d="M119.5353,-82.6129C136.2263,-87.8222 154.2443,-93.4457 170.2735,-98.4484"/>
<polygon fill="#191970" stroke="#191970" points="120.4749,-79.2397 109.8862,-79.6014 118.3894,-85.9219 120.4749,-79.2397"/>
</g>
<!-- Node2 -->
<g id="node3" class="node">
<title>Node2</title>
<g id="a_node3"><a xlink:href="d2/d39/classnlohmann_1_1detail_1_1output__string__adapter.html" target="_top" xlink:title="output adapter for basic_string ">
<polygon fill="#ffffff" stroke="#000000" points="161.5,-49.5 161.5,-79.5 275.5,-79.5 275.5,-49.5 161.5,-49.5"/>
<text text-anchor="start" x="169.5" y="-67.5" font-family="Helvetica,sans-Serif" font-size="10.00" fill="#000000">nlohmann::detail::output</text>
<text text-anchor="middle" x="218.5" y="-56.5" font-family="Helvetica,sans-Serif" font-size="10.00" fill="#000000">_string_adapter&lt; CharType &gt;</text>
</a>
</g>
</g>
<!-- Node0&#45;&gt;Node2 -->
<g id="edge2" class="edge">
<title>Node0&#45;&gt;Node2</title>
<path fill="none" stroke="#191970" d="M133.2667,-64.5C142.7075,-64.5 152.2791,-64.5 161.43,-64.5"/>
<polygon fill="#191970" stroke="#191970" points="133.1,-61.0001 123.0999,-64.5 133.0999,-68.0001 133.1,-61.0001"/>
</g>
<!-- Node3 -->
<g id="node4" class="node">
<title>Node3</title>
<g id="a_node4"><a xlink:href="d5/d66/classnlohmann_1_1detail_1_1output__vector__adapter.html" target="_top" xlink:title="output adapter for byte vectors ">
<polygon fill="#ffffff" stroke="#000000" points="160,-.5 160,-30.5 277,-30.5 277,-.5 160,-.5"/>
<text text-anchor="start" x="168" y="-18.5" font-family="Helvetica,sans-Serif" font-size="10.00" fill="#000000">nlohmann::detail::output</text>
<text text-anchor="middle" x="218.5" y="-7.5" font-family="Helvetica,sans-Serif" font-size="10.00" fill="#000000">_vector_adapter&lt; CharType &gt;</text>
</a>
</g>
</g>
<!-- Node0&#45;&gt;Node3 -->
<g id="edge3" class="edge">
<title>Node0&#45;&gt;Node3</title>
<path fill="none" stroke="#191970" d="M119.5353,-46.3871C136.2263,-41.1778 154.2443,-35.5543 170.2735,-30.5516"/>
<polygon fill="#191970" stroke="#191970" points="118.3894,-43.0781 109.8862,-49.3986 120.4749,-49.7603 118.3894,-43.0781"/>
</g>
</g>
</svg>
