<?xml version="1.0" encoding="UTF-8" standalone="no"?>
<!DOCTYPE svg PUBLIC "-//W3C//DTD SVG 1.1//EN"
 "http://www.w3.org/Graphics/SVG/1.1/DTD/svg11.dtd">
<!-- Generated by graphviz version 2.40.1 (20161225.0304)
 -->
<!-- Title: Graphical Class Hierarchy Pages: 1 -->
<svg width="423pt" height="189pt"
 viewBox="0.00 0.00 423.00 188.50" xmlns="http://www.w3.org/2000/svg" xmlns:xlink="http://www.w3.org/1999/xlink">
<g id="graph0" class="graph" transform="scale(1 1) rotate(0) translate(4 184.5)">
<title>Graphical Class Hierarchy</title>
<polygon fill="#ffffff" stroke="transparent" points="-4,4 -4,-184.5 419,-184.5 419,4 -4,4"/>
<!-- Node0 -->
<g id="node1" class="node">
<title>Node0</title>
<g id="a_node1"><a xlink:href="classsddk_1_1mdarray__base.html" target="_top" xlink:title="Base class of multidimensional array. ">
<polygon fill="#ffffff" stroke="#000000" points="0,-89 0,-119 107,-119 107,-89 0,-89"/>
<text text-anchor="start" x="8" y="-107" font-family="Helvetica,sans-Serif" font-size="10.00" fill="#000000">sddk::mdarray_base</text>
<text text-anchor="middle" x="53.5" y="-96" font-family="Helvetica,sans-Serif" font-size="10.00" fill="#000000">&lt; T, N &gt;</text>
</a>
</g>
</g>
<!-- Node1 -->
<g id="node2" class="node">
<title>Node1</title>
<g id="a_node2"><a xlink:href="classsddk_1_1mdarray.html" target="_top" xlink:title="sddk::mdarray\&lt; T, 1 \&gt;">
<polygon fill="#ffffff" stroke="#000000" points="144,-151.5 144,-170.5 258,-170.5 258,-151.5 144,-151.5"/>
<text text-anchor="middle" x="201" y="-158.5" font-family="Helvetica,sans-Serif" font-size="10.00" fill="#000000">sddk::mdarray&lt; T, 1 &gt;</text>
</a>
</g>
</g>
<!-- Node0&#45;&gt;Node1 -->
<g id="edge1" class="edge">
<title>Node0&#45;&gt;Node1</title>
<path fill="none" stroke="#191970" d="M96.5399,-123.1485C111.1769,-129.426 127.7019,-136.2585 143,-142 151.7299,-145.2764 161.3115,-148.5454 170.1277,-151.4249"/>
<polygon fill="#191970" stroke="#191970" points="97.7936,-119.8774 87.2259,-119.1204 95.015,-126.3023 97.7936,-119.8774"/>
</g>
<!-- Node2 -->
<g id="node3" class="node">
<title>Node2</title>
<g id="a_node3"><a xlink:href="classsddk_1_1mdarray.html" target="_top" xlink:title="sddk::mdarray\&lt; T, 2 \&gt;">
<polygon fill="#ffffff" stroke="#000000" points="144,-113.5 144,-132.5 258,-132.5 258,-113.5 144,-113.5"/>
<text text-anchor="middle" x="201" y="-120.5" font-family="Helvetica,sans-Serif" font-size="10.00" fill="#000000">sddk::mdarray&lt; T, 2 &gt;</text>
</a>
</g>
</g>
<!-- Node0&#45;&gt;Node2 -->
<g id="edge2" class="edge">
<title>Node0&#45;&gt;Node2</title>
<path fill="none" stroke="#191970" d="M117.324,-112.2214C126.0753,-113.3487 135.0166,-114.5004 143.6427,-115.6116"/>
<polygon fill="#191970" stroke="#191970" points="117.5334,-108.7195 107.1681,-110.9132 116.639,-115.6622 117.5334,-108.7195"/>
</g>
<!-- Node5 -->
<g id="node6" class="node">
<title>Node5</title>
<g id="a_node6"><a xlink:href="classsddk_1_1mdarray.html" target="_top" xlink:title="sddk::mdarray\&lt; T, 3 \&gt;">
<polygon fill="#ffffff" stroke="#000000" points="144,-75.5 144,-94.5 258,-94.5 258,-75.5 144,-75.5"/>
<text text-anchor="middle" x="201" y="-82.5" font-family="Helvetica,sans-Serif" font-size="10.00" fill="#000000">sddk::mdarray&lt; T, 3 &gt;</text>
</a>
</g>
</g>
<!-- Node0&#45;&gt;Node5 -->
<g id="edge5" class="edge">
<title>Node0&#45;&gt;Node5</title>
<path fill="none" stroke="#191970" d="M117.324,-95.7786C126.0753,-94.6513 135.0166,-93.4996 143.6427,-92.3884"/>
<polygon fill="#191970" stroke="#191970" points="116.639,-92.3378 107.1681,-97.0868 117.5334,-99.2805 116.639,-92.3378"/>
</g>
<!-- Node6 -->
<g id="node7" class="node">
<title>Node6</title>
<g id="a_node7"><a xlink:href="classsddk_1_1mdarray.html" target="_top" xlink:title="Multidimensional array. ">
<polygon fill="#ffffff" stroke="#000000" points="143,-37.5 143,-56.5 259,-56.5 259,-37.5 143,-37.5"/>
<text text-anchor="middle" x="201" y="-44.5" font-family="Helvetica,sans-Serif" font-size="10.00" fill="#000000">sddk::mdarray&lt; T, N &gt;</text>
</a>
</g>
</g>
<!-- Node0&#45;&gt;Node6 -->
<g id="edge6" class="edge">
<title>Node0&#45;&gt;Node6</title>
<path fill="none" stroke="#191970" d="M96.5399,-84.8515C111.1769,-78.574 127.7019,-71.7415 143,-66 151.7299,-62.7236 161.3115,-59.4546 170.1277,-56.5751"/>
<polygon fill="#191970" stroke="#191970" points="95.015,-81.6977 87.2259,-88.8796 97.7936,-88.1226 95.015,-81.6977"/>
</g>
<!-- Node3 -->
<g id="node4" class="node">
<title>Node3</title>
<g id="a_node4"><a xlink:href="classsirius_1_1_spheric__function.html" target="_top" xlink:title="Function in spherical harmonics or spherical coordinates representation. ">
<polygon fill="#ffffff" stroke="#000000" points="295,-150 295,-180 415,-180 415,-150 295,-150"/>
<text text-anchor="start" x="303" y="-168" font-family="Helvetica,sans-Serif" font-size="10.00" fill="#000000">sirius::Spheric_function</text>
<text text-anchor="middle" x="355" y="-157" font-family="Helvetica,sans-Serif" font-size="10.00" fill="#000000">&lt; domain_t, T &gt;</text>
</a>
</g>
</g>
<!-- Node2&#45;&gt;Node3 -->
<g id="edge3" class="edge">
<title>Node2&#45;&gt;Node3</title>
<path fill="none" stroke="#191970" d="M245.6099,-135.1663C262.584,-139.7956 282.126,-145.1253 299.9546,-149.9876"/>
<polygon fill="#191970" stroke="#191970" points="246.5136,-131.785 235.945,-132.5305 244.6717,-138.5384 246.5136,-131.785"/>
</g>
<!-- Node4 -->
<g id="node5" class="node">
<title>Node4</title>
<g id="a_node5"><a xlink:href="classsirius_1_1_spheric__function.html" target="_top" xlink:title="sirius::Spheric_function\l\&lt; spectral, T \&gt;">
<polygon fill="#ffffff" stroke="#000000" points="295,-101 295,-131 415,-131 415,-101 295,-101"/>
<text text-anchor="start" x="303" y="-119" font-family="Helvetica,sans-Serif" font-size="10.00" fill="#000000">sirius::Spheric_function</text>
<text text-anchor="middle" x="355" y="-108" font-family="Helvetica,sans-Serif" font-size="10.00" fill="#000000">&lt; spectral, T &gt;</text>
</a>
</g>
</g>
<!-- Node2&#45;&gt;Node4 -->
<g id="edge4" class="edge">
<title>Node2&#45;&gt;Node4</title>
<path fill="none" stroke="#191970" d="M268.5047,-119.9316C277.2487,-119.5342 286.1585,-119.1292 294.7738,-118.7376"/>
<polygon fill="#191970" stroke="#191970" points="268.1746,-116.4429 258.3439,-120.3935 268.4926,-123.4357 268.1746,-116.4429"/>
</g>
<!-- Node7 -->
<g id="node8" class="node">
<title>Node7</title>
<g id="a_node8"><a xlink:href="classsddk_1_1dmatrix.html" target="_top" xlink:title="sddk::dmatrix\&lt; double\l_complex \&gt;">
<polygon fill="#ffffff" stroke="#000000" points="297.5,-39 297.5,-69 412.5,-69 412.5,-39 297.5,-39"/>
<text text-anchor="start" x="305.5" y="-57" font-family="Helvetica,sans-Serif" font-size="10.00" fill="#000000">sddk::dmatrix&lt; double</text>
<text text-anchor="middle" x="355" y="-46" font-family="Helvetica,sans-Serif" font-size="10.00" fill="#000000">_complex &gt;</text>
</a>
</g>
</g>
<!-- Node6&#45;&gt;Node7 -->
<g id="edge7" class="edge">
<title>Node6&#45;&gt;Node7</title>
<path fill="none" stroke="#191970" d="M269.3208,-50.1055C278.7166,-50.5326 288.287,-50.9676 297.4628,-51.3847"/>
<polygon fill="#191970" stroke="#191970" points="269.3694,-46.6042 259.2208,-49.6464 269.0515,-53.597 269.3694,-46.6042"/>
</g>
<!-- Node8 -->
<g id="node9" class="node">
<title>Node8</title>
<g id="a_node9"><a xlink:href="classsddk_1_1dmatrix.html" target="_top" xlink:title="Distributed matrix. ">
<polygon fill="#ffffff" stroke="#000000" points="305.5,-.5 305.5,-19.5 404.5,-19.5 404.5,-.5 305.5,-.5"/>
<text text-anchor="middle" x="355" y="-7.5" font-family="Helvetica,sans-Serif" font-size="10.00" fill="#000000">sddk::dmatrix&lt; T &gt;</text>
</a>
</g>
</g>
<!-- Node6&#45;&gt;Node8 -->
<g id="edge8" class="edge">
<title>Node6&#45;&gt;Node8</title>
<path fill="none" stroke="#191970" d="M250.6341,-35.0749C271.5253,-30.0556 295.5061,-24.294 315.2082,-19.5604"/>
<polygon fill="#191970" stroke="#191970" points="249.5645,-31.7322 240.6588,-37.4716 251.1998,-38.5385 249.5645,-31.7322"/>
</g>
</g>
</svg>
