<?xml version="1.0" encoding="UTF-8" standalone="no"?>
<!DOCTYPE svg PUBLIC "-//W3C//DTD SVG 1.1//EN"
 "http://www.w3.org/Graphics/SVG/1.1/DTD/svg11.dtd">
<!-- Generated by graphviz version 2.40.1 (20161225.0304)
 -->
<!-- Title: Graphical Class Hierarchy Pages: 1 -->
<svg width="328pt" height="275pt"
 viewBox="0.00 0.00 328.00 275.00" xmlns="http://www.w3.org/2000/svg" xmlns:xlink="http://www.w3.org/1999/xlink">
<g id="graph0" class="graph" transform="scale(1 1) rotate(0) translate(4 271)">
<title>Graphical Class Hierarchy</title>
<polygon fill="#ffffff" stroke="transparent" points="-4,4 -4,-271 324,-271 324,4 -4,4"/>
<!-- Node0 -->
<g id="node1" class="node">
<title>Node0</title>
<g id="a_node1"><a xlink:href="d3/d52/class_eigenproblem.html" target="_top" xlink:title="Base class for eigen&#45;value problems. ">
<polygon fill="#ffffff" stroke="#000000" points="0,-114.5 0,-133.5 63,-133.5 63,-114.5 0,-114.5"/>
<text text-anchor="middle" x="31.5" y="-121.5" font-family="Helvetica,sans-Serif" font-size="10.00" fill="#000000">Eigenproblem</text>
</a>
</g>
</g>
<!-- Node1 -->
<g id="node2" class="node">
<title>Node1</title>
<g id="a_node2"><a xlink:href="d1/d6f/class_eigenproblem__elpa.html" target="_top" xlink:title="Eigenproblem_elpa">
<polygon fill="#ffffff" stroke="#000000" points="108.5,-228.5 108.5,-247.5 189.5,-247.5 189.5,-228.5 108.5,-228.5"/>
<text text-anchor="middle" x="149" y="-235.5" font-family="Helvetica,sans-Serif" font-size="10.00" fill="#000000">Eigenproblem_elpa</text>
</a>
</g>
</g>
<!-- Node0&#45;&gt;Node1 -->
<g id="edge1" class="edge">
<title>Node0&#45;&gt;Node1</title>
<path fill="none" stroke="#191970" d="M40.3449,-142.4611C51.3584,-163.6553 72.0537,-198.1691 99,-219 103.9224,-222.8053 109.693,-225.9202 115.5308,-228.4454"/>
<polygon fill="#191970" stroke="#191970" points="43.4639,-140.8729 35.8543,-133.501 37.2059,-144.0093 43.4639,-140.8729"/>
</g>
<!-- Node4 -->
<g id="node5" class="node">
<title>Node4</title>
<g id="a_node5"><a xlink:href="d3/d9c/class_eigenproblem__lapack.html" target="_top" xlink:title="Interface for LAPACK eigen&#45;value solvers. ">
<polygon fill="#ffffff" stroke="#000000" points="104.5,-190.5 104.5,-209.5 193.5,-209.5 193.5,-190.5 104.5,-190.5"/>
<text text-anchor="middle" x="149" y="-197.5" font-family="Helvetica,sans-Serif" font-size="10.00" fill="#000000">Eigenproblem_lapack</text>
</a>
</g>
</g>
<!-- Node0&#45;&gt;Node4 -->
<g id="edge4" class="edge">
<title>Node0&#45;&gt;Node4</title>
<path fill="none" stroke="#191970" d="M48.001,-140.7242C60.9648,-153.1365 79.9556,-169.7851 99,-181 105.1614,-184.6283 112.1398,-187.7929 118.8863,-190.4445"/>
<polygon fill="#191970" stroke="#191970" points="50.3534,-138.1291 40.7614,-133.6297 45.454,-143.1287 50.3534,-138.1291"/>
</g>
<!-- Node5 -->
<g id="node6" class="node">
<title>Node5</title>
<g id="a_node6"><a xlink:href="d1/d15/class_eigenproblem__magma.html" target="_top" xlink:title="Interface for MAGMA eigen&#45;value solvers. ">
<polygon fill="#ffffff" stroke="#000000" points="103,-152.5 103,-171.5 195,-171.5 195,-152.5 103,-152.5"/>
<text text-anchor="middle" x="149" y="-159.5" font-family="Helvetica,sans-Serif" font-size="10.00" fill="#000000">Eigenproblem_magma</text>
</a>
</g>
</g>
<!-- Node0&#45;&gt;Node5 -->
<g id="edge5" class="edge">
<title>Node0&#45;&gt;Node5</title>
<path fill="none" stroke="#191970" d="M70.7092,-136.6804C86.5854,-141.8148 104.61,-147.6441 119.3593,-152.4141"/>
<polygon fill="#191970" stroke="#191970" points="71.742,-133.336 61.1502,-133.589 69.588,-139.9964 71.742,-133.336"/>
</g>
<!-- Node6 -->
<g id="node7" class="node">
<title>Node6</title>
<g id="a_node7"><a xlink:href="d4/d21/class_eigenproblem__plasma.html" target="_top" xlink:title="Interface for PLASMA eigen&#45;value solvers. ">
<polygon fill="#ffffff" stroke="#000000" points="103.5,-114.5 103.5,-133.5 194.5,-133.5 194.5,-114.5 103.5,-114.5"/>
<text text-anchor="middle" x="149" y="-121.5" font-family="Helvetica,sans-Serif" font-size="10.00" fill="#000000">Eigenproblem_plasma</text>
</a>
</g>
</g>
<!-- Node0&#45;&gt;Node6 -->
<g id="edge6" class="edge">
<title>Node0&#45;&gt;Node6</title>
<path fill="none" stroke="#191970" d="M73.4127,-124C83.0226,-124 93.289,-124 103.0587,-124"/>
<polygon fill="#191970" stroke="#191970" points="73.2972,-120.5001 63.2972,-124 73.2972,-127.5001 73.2972,-120.5001"/>
</g>
<!-- Node7 -->
<g id="node8" class="node">
<title>Node7</title>
<g id="a_node8"><a xlink:href="da/dcc/class_eigenproblem___r_s___c_p_u.html" target="_top" xlink:title="Eigenproblem_RS_CPU">
<polygon fill="#ffffff" stroke="#000000" points="100.5,-76.5 100.5,-95.5 197.5,-95.5 197.5,-76.5 100.5,-76.5"/>
<text text-anchor="middle" x="149" y="-83.5" font-family="Helvetica,sans-Serif" font-size="10.00" fill="#000000">Eigenproblem_RS_CPU</text>
</a>
</g>
</g>
<!-- Node0&#45;&gt;Node7 -->
<g id="edge7" class="edge">
<title>Node0&#45;&gt;Node7</title>
<path fill="none" stroke="#191970" d="M70.7092,-111.3196C86.5854,-106.1852 104.61,-100.3559 119.3593,-95.5859"/>
<polygon fill="#191970" stroke="#191970" points="69.588,-108.0036 61.1502,-114.411 71.742,-114.664 69.588,-108.0036"/>
</g>
<!-- Node8 -->
<g id="node9" class="node">
<title>Node8</title>
<g id="a_node9"><a xlink:href="d5/d5a/class_eigenproblem___r_s___g_p_u.html" target="_top" xlink:title="Eigenproblem_RS_GPU">
<polygon fill="#ffffff" stroke="#000000" points="100,-38.5 100,-57.5 198,-57.5 198,-38.5 100,-38.5"/>
<text text-anchor="middle" x="149" y="-45.5" font-family="Helvetica,sans-Serif" font-size="10.00" fill="#000000">Eigenproblem_RS_GPU</text>
</a>
</g>
</g>
<!-- Node0&#45;&gt;Node8 -->
<g id="edge8" class="edge">
<title>Node0&#45;&gt;Node8</title>
<path fill="none" stroke="#191970" d="M48.001,-107.2758C60.9648,-94.8635 79.9556,-78.2149 99,-67 105.1614,-63.3717 112.1398,-60.2071 118.8863,-57.5555"/>
<polygon fill="#191970" stroke="#191970" points="45.454,-104.8713 40.7614,-114.3703 50.3534,-109.8709 45.454,-104.8713"/>
</g>
<!-- Node9 -->
<g id="node10" class="node">
<title>Node9</title>
<g id="a_node10"><a xlink:href="d8/de0/class_eigenproblem__scalapack.html" target="_top" xlink:title="Interface for ScaLAPACK eigen&#45;value solvers. ">
<polygon fill="#ffffff" stroke="#000000" points="99,-.5 99,-19.5 199,-19.5 199,-.5 99,-.5"/>
<text text-anchor="middle" x="149" y="-7.5" font-family="Helvetica,sans-Serif" font-size="10.00" fill="#000000">Eigenproblem_scalapack</text>
</a>
</g>
</g>
<!-- Node0&#45;&gt;Node9 -->
<g id="edge9" class="edge">
<title>Node0&#45;&gt;Node9</title>
<path fill="none" stroke="#191970" d="M40.3449,-105.5389C51.3584,-84.3447 72.0537,-49.8309 99,-29 103.9224,-25.1947 109.693,-22.0798 115.5308,-19.5546"/>
<polygon fill="#191970" stroke="#191970" points="37.2059,-103.9907 35.8543,-114.499 43.4639,-107.1271 37.2059,-103.9907"/>
</g>
<!-- Node2 -->
<g id="node3" class="node">
<title>Node2</title>
<g id="a_node3"><a xlink:href="d6/dc1/class_eigenproblem__elpa1.html" target="_top" xlink:title="Eigenproblem_elpa1">
<polygon fill="#ffffff" stroke="#000000" points="235,-247.5 235,-266.5 320,-266.5 320,-247.5 235,-247.5"/>
<text text-anchor="middle" x="277.5" y="-254.5" font-family="Helvetica,sans-Serif" font-size="10.00" fill="#000000">Eigenproblem_elpa1</text>
</a>
</g>
</g>
<!-- Node1&#45;&gt;Node2 -->
<g id="edge2" class="edge">
<title>Node1&#45;&gt;Node2</title>
<path fill="none" stroke="#191970" d="M199.6958,-245.4959C211.347,-247.2186 223.6212,-249.0335 234.8898,-250.6997"/>
<polygon fill="#191970" stroke="#191970" points="200.0626,-242.0121 189.6582,-244.0117 199.0387,-248.9369 200.0626,-242.0121"/>
</g>
<!-- Node3 -->
<g id="node4" class="node">
<title>Node3</title>
<g id="a_node4"><a xlink:href="db/d08/class_eigenproblem__elpa2.html" target="_top" xlink:title="Eigenproblem_elpa2">
<polygon fill="#ffffff" stroke="#000000" points="235,-209.5 235,-228.5 320,-228.5 320,-209.5 235,-209.5"/>
<text text-anchor="middle" x="277.5" y="-216.5" font-family="Helvetica,sans-Serif" font-size="10.00" fill="#000000">Eigenproblem_elpa2</text>
</a>
</g>
</g>
<!-- Node1&#45;&gt;Node3 -->
<g id="edge3" class="edge">
<title>Node1&#45;&gt;Node3</title>
<path fill="none" stroke="#191970" d="M199.6958,-230.5041C211.347,-228.7814 223.6212,-226.9665 234.8898,-225.3003"/>
<polygon fill="#191970" stroke="#191970" points="199.0387,-227.0631 189.6582,-231.9883 200.0626,-233.9879 199.0387,-227.0631"/>
</g>
</g>
</svg>
