<?xml version="1.0" encoding="UTF-8" standalone="no"?>
<!DOCTYPE svg PUBLIC "-//W3C//DTD SVG 1.1//EN"
 "http://www.w3.org/Graphics/SVG/1.1/DTD/svg11.dtd">
<!-- Generated by graphviz version 2.40.1 (20161225.0304)
 -->
<!-- Title: Graphical Class Hierarchy Pages: 1 -->
<svg width="236pt" height="100pt"
 viewBox="0.00 0.00 236.00 99.50" xmlns="http://www.w3.org/2000/svg" xmlns:xlink="http://www.w3.org/1999/xlink">
<g id="graph0" class="graph" transform="scale(1 1) rotate(0) translate(4 95.5)">
<title>Graphical Class Hierarchy</title>
<polygon fill="#ffffff" stroke="transparent" points="-4,4 -4,-95.5 232,-95.5 232,4 -4,4"/>
<!-- Node0 -->
<g id="node1" class="node">
<title>Node0</title>
<g id="a_node1"><a xlink:href="d8/d5f/structnlohmann_1_1detail_1_1input__adapter__protocol.html" target="_top" xlink:title="abstract input adapter interface ">
<polygon fill="#ffffff" stroke="#000000" points="0,-27.5 0,-57.5 92,-57.5 92,-27.5 0,-27.5"/>
<text text-anchor="start" x="8" y="-45.5" font-family="Helvetica,sans-Serif" font-size="10.00" fill="#000000">nlohmann::detail::input</text>
<text text-anchor="middle" x="46" y="-34.5" font-family="Helvetica,sans-Serif" font-size="10.00" fill="#000000">_adapter_protocol</text>
</a>
</g>
</g>
<!-- Node1 -->
<g id="node2" class="node">
<title>Node1</title>
<g id="a_node2"><a xlink:href="db/dad/classnlohmann_1_1detail_1_1cached__input__stream__adapter.html" target="_top" xlink:title="input adapter for cached stream input ">
<polygon fill="#ffffff" stroke="#000000" points="128,-50 128,-91 228,-91 228,-50 128,-50"/>
<text text-anchor="start" x="136" y="-79" font-family="Helvetica,sans-Serif" font-size="10.00" fill="#000000">nlohmann::detail::cached</text>
<text text-anchor="start" x="136" y="-68" font-family="Helvetica,sans-Serif" font-size="10.00" fill="#000000">_input_stream_adapter&lt;</text>
<text text-anchor="middle" x="178" y="-57" font-family="Helvetica,sans-Serif" font-size="10.00" fill="#000000"> BufferSize &gt;</text>
</a>
</g>
</g>
<!-- Node0&#45;&gt;Node1 -->
<g id="edge1" class="edge">
<title>Node0&#45;&gt;Node1</title>
<path fill="none" stroke="#191970" d="M102.001,-54.379C110.4961,-56.181 119.2175,-58.031 127.5845,-59.8058"/>
<polygon fill="#191970" stroke="#191970" points="102.6758,-50.9443 92.1672,-52.293 101.2232,-57.792 102.6758,-50.9443"/>
</g>
<!-- Node2 -->
<g id="node3" class="node">
<title>Node2</title>
<g id="a_node3"><a xlink:href="d8/dba/classnlohmann_1_1detail_1_1input__buffer__adapter.html" target="_top" xlink:title="input adapter for buffer input ">
<polygon fill="#ffffff" stroke="#000000" points="132,-.5 132,-30.5 224,-30.5 224,-.5 132,-.5"/>
<text text-anchor="start" x="140" y="-18.5" font-family="Helvetica,sans-Serif" font-size="10.00" fill="#000000">nlohmann::detail::input</text>
<text text-anchor="middle" x="178" y="-7.5" font-family="Helvetica,sans-Serif" font-size="10.00" fill="#000000">_buffer_adapter</text>
</a>
</g>
</g>
<!-- Node0&#45;&gt;Node2 -->
<g id="edge2" class="edge">
<title>Node0&#45;&gt;Node2</title>
<path fill="none" stroke="#191970" d="M102.2385,-30.9967C112.0408,-28.9917 122.1368,-26.9266 131.6358,-24.9836"/>
<polygon fill="#191970" stroke="#191970" points="101.2629,-27.6237 92.1672,-33.0567 102.6658,-34.4817 101.2629,-27.6237"/>
</g>
</g>
</svg>
