<?xml version="1.0" encoding="UTF-8" standalone="no"?>
<!DOCTYPE svg PUBLIC "-//W3C//DTD SVG 1.1//EN"
 "http://www.w3.org/Graphics/SVG/1.1/DTD/svg11.dtd">
<!-- Generated by graphviz version 2.40.1 (20161225.0304)
 -->
<!-- Title: Graphical Class Hierarchy Pages: 1 -->
<svg width="418pt" height="164pt"
 viewBox="0.00 0.00 418.00 164.00" xmlns="http://www.w3.org/2000/svg" xmlns:xlink="http://www.w3.org/1999/xlink">
<g id="graph0" class="graph" transform="scale(1 1) rotate(0) translate(4 160)">
<title>Graphical Class Hierarchy</title>
<polygon fill="#ffffff" stroke="transparent" points="-4,4 -4,-160 414,-160 414,4 -4,4"/>
<!-- Node0 -->
<g id="node1" class="node">
<title>Node0</title>
<g id="a_node1"><a xlink:href="classsddk_1_1mdarray__base.html" target="_top" xlink:title="Base class of multidimensional array. ">
<polygon fill="#ffffff" stroke="#000000" points="0,-74 0,-104 107,-104 107,-74 0,-74"/>
<text text-anchor="start" x="8" y="-92" font-family="Helvetica,sans-Serif" font-size="10.00" fill="#000000">sddk::mdarray_base</text>
<text text-anchor="middle" x="53.5" y="-81" font-family="Helvetica,sans-Serif" font-size="10.00" fill="#000000">&lt; T, N &gt;</text>
</a>
</g>
</g>
<!-- Node1 -->
<g id="node2" class="node">
<title>Node1</title>
<g id="a_node2"><a xlink:href="classsddk_1_1mdarray.html" target="_top" xlink:title="sddk::mdarray\&lt; T, 1 \&gt;">
<polygon fill="#ffffff" stroke="#000000" points="144,-136.5 144,-155.5 258,-155.5 258,-136.5 144,-136.5"/>
<text text-anchor="middle" x="201" y="-143.5" font-family="Helvetica,sans-Serif" font-size="10.00" fill="#000000">sddk::mdarray&lt; T, 1 &gt;</text>
</a>
</g>
</g>
<!-- Node0&#45;&gt;Node1 -->
<g id="edge1" class="edge">
<title>Node0&#45;&gt;Node1</title>
<path fill="none" stroke="#191970" d="M96.5399,-108.1485C111.1769,-114.426 127.7019,-121.2585 143,-127 151.7299,-130.2764 161.3115,-133.5454 170.1277,-136.4249"/>
<polygon fill="#191970" stroke="#191970" points="97.7936,-104.8774 87.2259,-104.1204 95.015,-111.3023 97.7936,-104.8774"/>
</g>
<!-- Node2 -->
<g id="node3" class="node">
<title>Node2</title>
<g id="a_node3"><a xlink:href="classsddk_1_1mdarray.html" target="_top" xlink:title="sddk::mdarray\&lt; T, 2 \&gt;">
<polygon fill="#ffffff" stroke="#000000" points="144,-98.5 144,-117.5 258,-117.5 258,-98.5 144,-98.5"/>
<text text-anchor="middle" x="201" y="-105.5" font-family="Helvetica,sans-Serif" font-size="10.00" fill="#000000">sddk::mdarray&lt; T, 2 &gt;</text>
</a>
</g>
</g>
<!-- Node0&#45;&gt;Node2 -->
<g id="edge2" class="edge">
<title>Node0&#45;&gt;Node2</title>
<path fill="none" stroke="#191970" d="M117.324,-97.2214C126.0753,-98.3487 135.0166,-99.5004 143.6427,-100.6116"/>
<polygon fill="#191970" stroke="#191970" points="117.5334,-93.7195 107.1681,-95.9132 116.639,-100.6622 117.5334,-93.7195"/>
</g>
<!-- Node3 -->
<g id="node4" class="node">
<title>Node3</title>
<g id="a_node4"><a xlink:href="classsddk_1_1mdarray.html" target="_top" xlink:title="sddk::mdarray\&lt; T, 3 \&gt;">
<polygon fill="#ffffff" stroke="#000000" points="144,-60.5 144,-79.5 258,-79.5 258,-60.5 144,-60.5"/>
<text text-anchor="middle" x="201" y="-67.5" font-family="Helvetica,sans-Serif" font-size="10.00" fill="#000000">sddk::mdarray&lt; T, 3 &gt;</text>
</a>
</g>
</g>
<!-- Node0&#45;&gt;Node3 -->
<g id="edge3" class="edge">
<title>Node0&#45;&gt;Node3</title>
<path fill="none" stroke="#191970" d="M117.324,-80.7786C126.0753,-79.6513 135.0166,-78.4996 143.6427,-77.3884"/>
<polygon fill="#191970" stroke="#191970" points="116.639,-77.3378 107.1681,-82.0868 117.5334,-84.2805 116.639,-77.3378"/>
</g>
<!-- Node4 -->
<g id="node5" class="node">
<title>Node4</title>
<g id="a_node5"><a xlink:href="classsddk_1_1mdarray.html" target="_top" xlink:title="Multidimensional array. ">
<polygon fill="#ffffff" stroke="#000000" points="143,-22.5 143,-41.5 259,-41.5 259,-22.5 143,-22.5"/>
<text text-anchor="middle" x="201" y="-29.5" font-family="Helvetica,sans-Serif" font-size="10.00" fill="#000000">sddk::mdarray&lt; T, N &gt;</text>
</a>
</g>
</g>
<!-- Node0&#45;&gt;Node4 -->
<g id="edge4" class="edge">
<title>Node0&#45;&gt;Node4</title>
<path fill="none" stroke="#191970" d="M96.5399,-69.8515C111.1769,-63.574 127.7019,-56.7415 143,-51 151.7299,-47.7236 161.3115,-44.4546 170.1277,-41.5751"/>
<polygon fill="#191970" stroke="#191970" points="95.015,-66.6977 87.2259,-73.8796 97.7936,-73.1226 95.015,-66.6977"/>
</g>
<!-- Node5 -->
<g id="node6" class="node">
<title>Node5</title>
<g id="a_node6"><a xlink:href="classsddk_1_1dmatrix.html" target="_top" xlink:title="sddk::dmatrix\&lt; double\l_complex \&gt;">
<polygon fill="#ffffff" stroke="#000000" points="295,-39 295,-69 410,-69 410,-39 295,-39"/>
<text text-anchor="start" x="303" y="-57" font-family="Helvetica,sans-Serif" font-size="10.00" fill="#000000">sddk::dmatrix&lt; double</text>
<text text-anchor="middle" x="352.5" y="-46" font-family="Helvetica,sans-Serif" font-size="10.00" fill="#000000">_complex &gt;</text>
</a>
</g>
</g>
<!-- Node4&#45;&gt;Node5 -->
<g id="edge5" class="edge">
<title>Node4&#45;&gt;Node5</title>
<path fill="none" stroke="#191970" d="M269.1113,-41.8907C277.679,-43.1349 286.3785,-44.3982 294.7651,-45.6161"/>
<polygon fill="#191970" stroke="#191970" points="269.5398,-38.4163 259.1406,-40.4429 268.5338,-45.3437 269.5398,-38.4163"/>
</g>
<!-- Node6 -->
<g id="node7" class="node">
<title>Node6</title>
<g id="a_node7"><a xlink:href="classsddk_1_1dmatrix.html" target="_top" xlink:title="Distributed matrix. ">
<polygon fill="#ffffff" stroke="#000000" points="303,-.5 303,-19.5 402,-19.5 402,-.5 303,-.5"/>
<text text-anchor="middle" x="352.5" y="-7.5" font-family="Helvetica,sans-Serif" font-size="10.00" fill="#000000">sddk::dmatrix&lt; T &gt;</text>
</a>
</g>
</g>
<!-- Node4&#45;&gt;Node6 -->
<g id="edge6" class="edge">
<title>Node4&#45;&gt;Node6</title>
<path fill="none" stroke="#191970" d="M269.3508,-22.0745C280.5665,-20.4458 292.0007,-18.7854 302.6572,-17.2379"/>
<polygon fill="#191970" stroke="#191970" points="268.5338,-18.6563 259.1406,-23.5571 269.5398,-25.5837 268.5338,-18.6563"/>
</g>
</g>
</svg>
