<?xml version="1.0" encoding="UTF-8" standalone="no"?>
<!DOCTYPE svg PUBLIC "-//W3C//DTD SVG 1.1//EN"
 "http://www.w3.org/Graphics/SVG/1.1/DTD/svg11.dtd">
<!-- Generated by graphviz version 2.40.1 (20161225.0304)
 -->
<!-- Title: Graphical Class Hierarchy Pages: 1 -->
<svg width="310pt" height="186pt"
 viewBox="0.00 0.00 310.00 186.00" xmlns="http://www.w3.org/2000/svg" xmlns:xlink="http://www.w3.org/1999/xlink">
<g id="graph0" class="graph" transform="scale(1 1) rotate(0) translate(4 182)">
<title>Graphical Class Hierarchy</title>
<polygon fill="#ffffff" stroke="transparent" points="-4,4 -4,-182 306,-182 306,4 -4,4"/>
<!-- Node0 -->
<g id="node1" class="node">
<title>Node0</title>
<g id="a_node1"><a xlink:href="d6/d2c/classsirius_1_1_radial__integrals__base.html" target="_top" xlink:title=" ">
<polygon fill="#ffffff" stroke="#000000" points="0,-73.5 0,-103.5 117,-103.5 117,-73.5 0,-73.5"/>
<text text-anchor="start" x="8" y="-91.5" font-family="Helvetica,sans-Serif" font-size="10.00" fill="#000000">sirius::Radial_integrals</text>
<text text-anchor="middle" x="58.5" y="-80.5" font-family="Helvetica,sans-Serif" font-size="10.00" fill="#000000">_base&lt; 1 &gt;</text>
</a>
</g>
</g>
<!-- Node1 -->
<g id="node2" class="node">
<title>Node1</title>
<g id="a_node2"><a xlink:href="d5/dd8/classsirius_1_1_radial__integrals__rho__core__pseudo.html" target="_top" xlink:title=" ">
<polygon fill="#ffffff" stroke="#000000" points="153,-147.5 153,-177.5 302,-177.5 302,-147.5 153,-147.5"/>
<text text-anchor="start" x="161" y="-165.5" font-family="Helvetica,sans-Serif" font-size="10.00" fill="#000000">sirius::Radial_integrals</text>
<text text-anchor="middle" x="227.5" y="-154.5" font-family="Helvetica,sans-Serif" font-size="10.00" fill="#000000">_rho_core_pseudo&lt; jl_deriv &gt;</text>
</a>
</g>
</g>
<!-- Node0&#45;&gt;Node1 -->
<g id="edge1" class="edge">
<title>Node0&#45;&gt;Node1</title>
<path fill="none" stroke="#191970" d="M92.7669,-108.4944C110.4048,-118.3029 132.4655,-129.8386 153,-138.5 160.5122,-141.6686 168.5955,-144.6703 176.5695,-147.4093"/>
<polygon fill="#191970" stroke="#191970" points="94.4092,-105.4024 83.9781,-103.547 90.9754,-111.5024 94.4092,-105.4024"/>
</g>
<!-- Node2 -->
<g id="node3" class="node">
<title>Node2</title>
<g id="a_node3"><a xlink:href="d6/d14/classsirius_1_1_radial__integrals__rho__free__atom.html" target="_top" xlink:title=" ">
<polygon fill="#ffffff" stroke="#000000" points="169,-98.5 169,-128.5 286,-128.5 286,-98.5 169,-98.5"/>
<text text-anchor="start" x="177" y="-116.5" font-family="Helvetica,sans-Serif" font-size="10.00" fill="#000000">sirius::Radial_integrals</text>
<text text-anchor="middle" x="227.5" y="-105.5" font-family="Helvetica,sans-Serif" font-size="10.00" fill="#000000">_rho_free_atom</text>
</a>
</g>
</g>
<!-- Node0&#45;&gt;Node2 -->
<g id="edge2" class="edge">
<title>Node0&#45;&gt;Node2</title>
<path fill="none" stroke="#191970" d="M127.1149,-98.6501C140.9974,-100.7038 155.4732,-102.8451 168.9699,-104.8417"/>
<polygon fill="#191970" stroke="#191970" points="127.5383,-95.1748 117.1337,-97.1736 126.5138,-102.0994 127.5383,-95.1748"/>
</g>
<!-- Node3 -->
<g id="node4" class="node">
<title>Node3</title>
<g id="a_node4"><a xlink:href="db/d50/classsirius_1_1_radial__integrals__rho__pseudo.html" target="_top" xlink:title=" ">
<polygon fill="#ffffff" stroke="#000000" points="169,-49.5 169,-79.5 286,-79.5 286,-49.5 169,-49.5"/>
<text text-anchor="start" x="177" y="-67.5" font-family="Helvetica,sans-Serif" font-size="10.00" fill="#000000">sirius::Radial_integrals</text>
<text text-anchor="middle" x="227.5" y="-56.5" font-family="Helvetica,sans-Serif" font-size="10.00" fill="#000000">_rho_pseudo</text>
</a>
</g>
</g>
<!-- Node0&#45;&gt;Node3 -->
<g id="edge3" class="edge">
<title>Node0&#45;&gt;Node3</title>
<path fill="none" stroke="#191970" d="M127.1149,-78.7559C140.9974,-76.7844 155.4732,-74.7287 168.9699,-72.812"/>
<polygon fill="#191970" stroke="#191970" points="126.5422,-75.302 117.1337,-80.1733 127.5265,-82.2325 126.5422,-75.302"/>
</g>
<!-- Node4 -->
<g id="node5" class="node">
<title>Node4</title>
<g id="a_node5"><a xlink:href="d3/db4/classsirius_1_1_radial__integrals__vloc.html" target="_top" xlink:title=" ">
<polygon fill="#ffffff" stroke="#000000" points="169,-.5 169,-30.5 286,-30.5 286,-.5 169,-.5"/>
<text text-anchor="start" x="177" y="-18.5" font-family="Helvetica,sans-Serif" font-size="10.00" fill="#000000">sirius::Radial_integrals</text>
<text text-anchor="middle" x="227.5" y="-7.5" font-family="Helvetica,sans-Serif" font-size="10.00" fill="#000000">_vloc&lt; jl_deriv &gt;</text>
</a>
</g>
</g>
<!-- Node0&#45;&gt;Node4 -->
<g id="edge4" class="edge">
<title>Node0&#45;&gt;Node4</title>
<path fill="none" stroke="#191970" d="M94.8945,-68.4413C112.2138,-59.3053 133.3825,-48.7219 153,-40.5 161.3044,-37.0195 170.2787,-33.672 179.0254,-30.6202"/>
<polygon fill="#191970" stroke="#191970" points="92.8792,-65.5494 85.703,-73.3438 96.1736,-71.7258 92.8792,-65.5494"/>
</g>
</g>
</svg>
