<?xml version="1.0" encoding="UTF-8" standalone="no"?>
<!DOCTYPE svg PUBLIC "-//W3C//DTD SVG 1.1//EN"
 "http://www.w3.org/Graphics/SVG/1.1/DTD/svg11.dtd">
<!-- Generated by graphviz version 2.40.1 (20161225.0304)
 -->
<!-- Title: Graphical Class Hierarchy Pages: 1 -->
<svg width="252pt" height="235pt"
 viewBox="0.00 0.00 252.00 235.00" xmlns="http://www.w3.org/2000/svg" xmlns:xlink="http://www.w3.org/1999/xlink">
<g id="graph0" class="graph" transform="scale(1 1) rotate(0) translate(4 231)">
<title>Graphical Class Hierarchy</title>
<polygon fill="#ffffff" stroke="transparent" points="-4,4 -4,-231 248,-231 248,4 -4,4"/>
<!-- Node0 -->
<g id="node1" class="node">
<title>Node0</title>
<g id="a_node1"><a xlink:href="d6/d2c/classsirius_1_1_radial__integrals__base.html" target="_top" xlink:title="sirius::Radial_integrals\l_base\&lt; 1 \&gt;">
<polygon fill="#ffffff" stroke="#000000" points="0,-98.5 0,-128.5 92,-128.5 92,-98.5 0,-98.5"/>
<text text-anchor="start" x="8" y="-116.5" font-family="Helvetica,sans-Serif" font-size="10.00" fill="#000000">sirius::Radial_integrals</text>
<text text-anchor="middle" x="46" y="-105.5" font-family="Helvetica,sans-Serif" font-size="10.00" fill="#000000">_base&lt; 1 &gt;</text>
</a>
</g>
</g>
<!-- Node1 -->
<g id="node2" class="node">
<title>Node1</title>
<g id="a_node2"><a xlink:href="d5/dd8/classsirius_1_1_radial__integrals__rho__core__pseudo.html" target="_top" xlink:title="sirius::Radial_integrals\l_rho_core_pseudo\&lt; jl_deriv \&gt;">
<polygon fill="#ffffff" stroke="#000000" points="128,-196.5 128,-226.5 244,-226.5 244,-196.5 128,-196.5"/>
<text text-anchor="start" x="136" y="-214.5" font-family="Helvetica,sans-Serif" font-size="10.00" fill="#000000">sirius::Radial_integrals</text>
<text text-anchor="middle" x="186" y="-203.5" font-family="Helvetica,sans-Serif" font-size="10.00" fill="#000000">_rho_core_pseudo&lt; jl_deriv &gt;</text>
</a>
</g>
</g>
<!-- Node0&#45;&gt;Node1 -->
<g id="edge1" class="edge">
<title>Node0&#45;&gt;Node1</title>
<path fill="none" stroke="#191970" d="M66.9561,-136.164C82.605,-152.0995 105.1488,-173.0697 128,-187.5 133.1599,-190.7584 138.8377,-193.7397 144.56,-196.4092"/>
<polygon fill="#191970" stroke="#191970" points="69.3158,-133.5687 59.8567,-128.7963 64.2751,-138.4258 69.3158,-133.5687"/>
</g>
<!-- Node2 -->
<g id="node3" class="node">
<title>Node2</title>
<g id="a_node3"><a xlink:href="d6/d14/classsirius_1_1_radial__integrals__rho__free__atom.html" target="_top" xlink:title="sirius::Radial_integrals\l_rho_free_atom">
<polygon fill="#ffffff" stroke="#000000" points="140,-147.5 140,-177.5 232,-177.5 232,-147.5 140,-147.5"/>
<text text-anchor="start" x="148" y="-165.5" font-family="Helvetica,sans-Serif" font-size="10.00" fill="#000000">sirius::Radial_integrals</text>
<text text-anchor="middle" x="186" y="-154.5" font-family="Helvetica,sans-Serif" font-size="10.00" fill="#000000">_rho_free_atom</text>
</a>
</g>
</g>
<!-- Node0&#45;&gt;Node2 -->
<g id="edge2" class="edge">
<title>Node0&#45;&gt;Node2</title>
<path fill="none" stroke="#191970" d="M98.9586,-132.0355C113.4168,-137.0959 128.9077,-142.5177 142.7545,-147.3641"/>
<polygon fill="#191970" stroke="#191970" points="99.7418,-128.6015 89.147,-128.6014 97.4293,-135.2085 99.7418,-128.6015"/>
</g>
<!-- Node3 -->
<g id="node4" class="node">
<title>Node3</title>
<g id="a_node4"><a xlink:href="db/d50/classsirius_1_1_radial__integrals__rho__pseudo.html" target="_top" xlink:title="sirius::Radial_integrals\l_rho_pseudo">
<polygon fill="#ffffff" stroke="#000000" points="140,-98.5 140,-128.5 232,-128.5 232,-98.5 140,-98.5"/>
<text text-anchor="start" x="148" y="-116.5" font-family="Helvetica,sans-Serif" font-size="10.00" fill="#000000">sirius::Radial_integrals</text>
<text text-anchor="middle" x="186" y="-105.5" font-family="Helvetica,sans-Serif" font-size="10.00" fill="#000000">_rho_pseudo</text>
</a>
</g>
</g>
<!-- Node0&#45;&gt;Node3 -->
<g id="edge3" class="edge">
<title>Node0&#45;&gt;Node3</title>
<path fill="none" stroke="#191970" d="M102.4752,-113.5C114.8806,-113.5 127.8752,-113.5 139.8193,-113.5"/>
<polygon fill="#191970" stroke="#191970" points="102.2293,-110.0001 92.2292,-113.5 102.2292,-117.0001 102.2293,-110.0001"/>
</g>
<!-- Node4 -->
<g id="node5" class="node">
<title>Node4</title>
<g id="a_node5"><a xlink:href="db/d6e/classsirius_1_1_radial__integrals__theta.html" target="_top" xlink:title="Radial integrals for the step function of the LAPW method. ">
<polygon fill="#ffffff" stroke="#000000" points="140,-49.5 140,-79.5 232,-79.5 232,-49.5 140,-49.5"/>
<text text-anchor="start" x="148" y="-67.5" font-family="Helvetica,sans-Serif" font-size="10.00" fill="#000000">sirius::Radial_integrals</text>
<text text-anchor="middle" x="186" y="-56.5" font-family="Helvetica,sans-Serif" font-size="10.00" fill="#000000">_theta</text>
</a>
</g>
</g>
<!-- Node0&#45;&gt;Node4 -->
<g id="edge4" class="edge">
<title>Node0&#45;&gt;Node4</title>
<path fill="none" stroke="#191970" d="M98.9586,-94.9645C113.4168,-89.9041 128.9077,-84.4823 142.7545,-79.6359"/>
<polygon fill="#191970" stroke="#191970" points="97.4293,-91.7915 89.147,-98.3986 99.7418,-98.3985 97.4293,-91.7915"/>
</g>
<!-- Node5 -->
<g id="node6" class="node">
<title>Node5</title>
<g id="a_node6"><a xlink:href="d3/db4/classsirius_1_1_radial__integrals__vloc.html" target="_top" xlink:title="sirius::Radial_integrals\l_vloc\&lt; jl_deriv \&gt;">
<polygon fill="#ffffff" stroke="#000000" points="140,-.5 140,-30.5 232,-30.5 232,-.5 140,-.5"/>
<text text-anchor="start" x="148" y="-18.5" font-family="Helvetica,sans-Serif" font-size="10.00" fill="#000000">sirius::Radial_integrals</text>
<text text-anchor="middle" x="186" y="-7.5" font-family="Helvetica,sans-Serif" font-size="10.00" fill="#000000">_vloc&lt; jl_deriv &gt;</text>
</a>
</g>
</g>
<!-- Node0&#45;&gt;Node5 -->
<g id="edge5" class="edge">
<title>Node0&#45;&gt;Node5</title>
<path fill="none" stroke="#191970" d="M67.0741,-91.2617C82.78,-75.5992 105.3434,-54.9323 128,-40.5 133.7338,-36.8475 140.0923,-33.4979 146.4365,-30.5186"/>
<polygon fill="#191970" stroke="#191970" points="64.4688,-88.919 59.9444,-98.4993 69.4556,-93.8315 64.4688,-88.919"/>
</g>
</g>
</svg>
