<?xml version="1.0" encoding="UTF-8" standalone="no"?>
<!DOCTYPE svg PUBLIC "-//W3C//DTD SVG 1.1//EN"
 "http://www.w3.org/Graphics/SVG/1.1/DTD/svg11.dtd">
<!-- Generated by graphviz version 2.40.1 (20161225.0304)
 -->
<!-- Title: Graphical Class Hierarchy Pages: 1 -->
<svg width="231pt" height="171pt"
 viewBox="0.00 0.00 231.00 171.00" xmlns="http://www.w3.org/2000/svg" xmlns:xlink="http://www.w3.org/1999/xlink">
<g id="graph0" class="graph" transform="scale(1 1) rotate(0) translate(4 167)">
<title>Graphical Class Hierarchy</title>
<polygon fill="#ffffff" stroke="transparent" points="-4,4 -4,-167 227,-167 227,4 -4,4"/>
<!-- Node411 -->
<g id="node1" class="node">
<title>Node411</title>
<polygon fill="#ffffff" stroke="#bfbfbf" points="0,-83 0,-102 51,-102 51,-83 0,-83"/>
<text text-anchor="middle" x="25.5" y="-90" font-family="Helvetica,sans-Serif" font-size="10.00" fill="#000000">false_type</text>
</g>
<!-- Node0 -->
<g id="node2" class="node">
<title>Node0</title>
<g id="a_node2"><a xlink:href="d4/df6/structnlohmann_1_1detail_1_1is__basic__json.html" target="_top" xlink:title="nlohmann::detail::is\l_basic_json\&lt; typename \&gt;">
<polygon fill="#ffffff" stroke="#000000" points="104,-132.5 104,-162.5 206,-162.5 206,-132.5 104,-132.5"/>
<text text-anchor="start" x="112" y="-150.5" font-family="Helvetica,sans-Serif" font-size="10.00" fill="#000000">nlohmann::detail::is</text>
<text text-anchor="middle" x="155" y="-139.5" font-family="Helvetica,sans-Serif" font-size="10.00" fill="#000000">_basic_json&lt; typename &gt;</text>
</a>
</g>
</g>
<!-- Node411&#45;&gt;Node0 -->
<g id="edge1" class="edge">
<title>Node411&#45;&gt;Node0</title>
<path fill="none" stroke="#191970" d="M52.9732,-106.641C63.5057,-111.8661 75.7053,-117.6837 87,-122.5 94.9834,-125.9043 103.6032,-129.2896 111.9364,-132.4189"/>
<polygon fill="#191970" stroke="#191970" points="54.3499,-103.4158 43.8429,-102.0546 51.2078,-109.671 54.3499,-103.4158"/>
</g>
<!-- Node413 -->
<g id="node3" class="node">
<title>Node413</title>
<g id="a_node3"><a xlink:href="dd/d13/structnlohmann_1_1detail_1_1is__compatible__integer__type__impl.html" target="_top" xlink:title="nlohmann::detail::is\l_compatible_integer_type\l_impl\&lt; bool, typename, typename \&gt;">
<polygon fill="#ffffff" stroke="#000000" points="87,-72 87,-113 223,-113 223,-72 87,-72"/>
<text text-anchor="start" x="95" y="-101" font-family="Helvetica,sans-Serif" font-size="10.00" fill="#000000">nlohmann::detail::is</text>
<text text-anchor="start" x="95" y="-90" font-family="Helvetica,sans-Serif" font-size="10.00" fill="#000000">_compatible_integer_type</text>
<text text-anchor="middle" x="155" y="-79" font-family="Helvetica,sans-Serif" font-size="10.00" fill="#000000">_impl&lt; bool, typename, typename &gt;</text>
</a>
</g>
</g>
<!-- Node411&#45;&gt;Node413 -->
<g id="edge2" class="edge">
<title>Node411&#45;&gt;Node413</title>
<path fill="none" stroke="#191970" d="M61.1299,-92.5C69.1426,-92.5 77.9069,-92.5 86.7584,-92.5"/>
<polygon fill="#191970" stroke="#191970" points="61.0851,-89.0001 51.085,-92.5 61.085,-96.0001 61.0851,-89.0001"/>
</g>
<!-- Node414 -->
<g id="node4" class="node">
<title>Node414</title>
<g id="a_node4"><a xlink:href="dc/da5/structnlohmann_1_1detail_1_1is__compatible__object__type__impl.html" target="_top" xlink:title="nlohmann::detail::is\l_compatible_object_type\l_impl\&lt; B, RealType, Compatible\lObjectType \&gt;">
<polygon fill="#ffffff" stroke="#000000" points="93,-.5 93,-52.5 217,-52.5 217,-.5 93,-.5"/>
<text text-anchor="start" x="101" y="-40.5" font-family="Helvetica,sans-Serif" font-size="10.00" fill="#000000">nlohmann::detail::is</text>
<text text-anchor="start" x="101" y="-29.5" font-family="Helvetica,sans-Serif" font-size="10.00" fill="#000000">_compatible_object_type</text>
<text text-anchor="start" x="101" y="-18.5" font-family="Helvetica,sans-Serif" font-size="10.00" fill="#000000">_impl&lt; B, RealType, Compatible</text>
<text text-anchor="middle" x="155" y="-7.5" font-family="Helvetica,sans-Serif" font-size="10.00" fill="#000000">ObjectType &gt;</text>
</a>
</g>
</g>
<!-- Node411&#45;&gt;Node414 -->
<g id="edge3" class="edge">
<title>Node411&#45;&gt;Node414</title>
<path fill="none" stroke="#191970" d="M53.4223,-78.2693C68.178,-70.749 86.7565,-61.2804 103.9772,-52.5039"/>
<polygon fill="#191970" stroke="#191970" points="51.6507,-75.2438 44.3304,-82.903 54.8293,-81.4805 51.6507,-75.2438"/>
</g>
</g>
</svg>
