<?xml version="1.0" encoding="UTF-8" standalone="no"?>
<!DOCTYPE svg PUBLIC "-//W3C//DTD SVG 1.1//EN"
 "http://www.w3.org/Graphics/SVG/1.1/DTD/svg11.dtd">
<!-- Generated by graphviz version 2.40.1 (20161225.0304)
 -->
<!-- Title: Graphical Class Hierarchy Pages: 1 -->
<svg width="231pt" height="220pt"
 viewBox="0.00 0.00 231.00 220.00" xmlns="http://www.w3.org/2000/svg" xmlns:xlink="http://www.w3.org/1999/xlink">
<g id="graph0" class="graph" transform="scale(1 1) rotate(0) translate(4 216)">
<title>Graphical Class Hierarchy</title>
<polygon fill="#ffffff" stroke="transparent" points="-4,4 -4,-216 227,-216 227,4 -4,4"/>
<!-- Node269 -->
<g id="node1" class="node">
<title>Node269</title>
<polygon fill="#ffffff" stroke="#bfbfbf" points="0,-99 0,-118 51,-118 51,-99 0,-99"/>
<text text-anchor="middle" x="25.5" y="-106" font-family="Helvetica,sans-Serif" font-size="10.00" fill="#000000">false_type</text>
</g>
<!-- Node0 -->
<g id="node2" class="node">
<title>Node0</title>
<g id="a_node2"><a xlink:href="d4/df6/structnlohmann_1_1detail_1_1is__basic__json.html" target="_top" xlink:title="nlohmann::detail::is\l_basic_json\&lt; typename \&gt;">
<polygon fill="#ffffff" stroke="#000000" points="104,-181.5 104,-211.5 206,-211.5 206,-181.5 104,-181.5"/>
<text text-anchor="start" x="112" y="-199.5" font-family="Helvetica,sans-Serif" font-size="10.00" fill="#000000">nlohmann::detail::is</text>
<text text-anchor="middle" x="155" y="-188.5" font-family="Helvetica,sans-Serif" font-size="10.00" fill="#000000">_basic_json&lt; typename &gt;</text>
</a>
</g>
</g>
<!-- Node269&#45;&gt;Node0 -->
<g id="edge1" class="edge">
<title>Node269&#45;&gt;Node0</title>
<path fill="none" stroke="#191970" d="M39.1028,-126.278C50.5671,-140.2188 68.0907,-159.2492 87,-171.5 92.806,-175.2615 99.2559,-178.5607 105.8051,-181.4226"/>
<polygon fill="#191970" stroke="#191970" points="41.761,-123.9976 32.7895,-118.3617 36.2883,-128.3622 41.761,-123.9976"/>
</g>
<!-- Node271 -->
<g id="node3" class="node">
<title>Node271</title>
<g id="a_node3"><a xlink:href="dd/d13/structnlohmann_1_1detail_1_1is__compatible__integer__type__impl.html" target="_top" xlink:title="nlohmann::detail::is\l_compatible_integer_type\l_impl\&lt; bool, typename, typename \&gt;">
<polygon fill="#ffffff" stroke="#000000" points="87,-121 87,-162 223,-162 223,-121 87,-121"/>
<text text-anchor="start" x="95" y="-150" font-family="Helvetica,sans-Serif" font-size="10.00" fill="#000000">nlohmann::detail::is</text>
<text text-anchor="start" x="95" y="-139" font-family="Helvetica,sans-Serif" font-size="10.00" fill="#000000">_compatible_integer_type</text>
<text text-anchor="middle" x="155" y="-128" font-family="Helvetica,sans-Serif" font-size="10.00" fill="#000000">_impl&lt; bool, typename, typename &gt;</text>
</a>
</g>
</g>
<!-- Node269&#45;&gt;Node271 -->
<g id="edge2" class="edge">
<title>Node269&#45;&gt;Node271</title>
<path fill="none" stroke="#191970" d="M60.8601,-117.5107C68.9457,-119.5711 77.8074,-121.8293 86.7584,-124.1103"/>
<polygon fill="#191970" stroke="#191970" points="61.6397,-114.0975 51.085,-115.0197 59.9111,-120.8808 61.6397,-114.0975"/>
</g>
<!-- Node272 -->
<g id="node4" class="node">
<title>Node272</title>
<g id="a_node4"><a xlink:href="dc/da5/structnlohmann_1_1detail_1_1is__compatible__object__type__impl.html" target="_top" xlink:title="nlohmann::detail::is\l_compatible_object_type\l_impl\&lt; B, RealType, Compatible\lObjectType \&gt;">
<polygon fill="#ffffff" stroke="#000000" points="93,-49.5 93,-101.5 217,-101.5 217,-49.5 93,-49.5"/>
<text text-anchor="start" x="101" y="-89.5" font-family="Helvetica,sans-Serif" font-size="10.00" fill="#000000">nlohmann::detail::is</text>
<text text-anchor="start" x="101" y="-78.5" font-family="Helvetica,sans-Serif" font-size="10.00" fill="#000000">_compatible_object_type</text>
<text text-anchor="start" x="101" y="-67.5" font-family="Helvetica,sans-Serif" font-size="10.00" fill="#000000">_impl&lt; B, RealType, Compatible</text>
<text text-anchor="middle" x="155" y="-56.5" font-family="Helvetica,sans-Serif" font-size="10.00" fill="#000000">ObjectType &gt;</text>
</a>
</g>
</g>
<!-- Node269&#45;&gt;Node272 -->
<g id="edge3" class="edge">
<title>Node269&#45;&gt;Node272</title>
<path fill="none" stroke="#191970" d="M60.9633,-99.463C70.8985,-96.9313 81.999,-94.1026 92.994,-91.3008"/>
<polygon fill="#191970" stroke="#191970" points="59.9111,-96.1192 51.085,-101.9803 61.6397,-102.9025 59.9111,-96.1192"/>
</g>
<!-- Node273 -->
<g id="node5" class="node">
<title>Node273</title>
<g id="a_node5"><a xlink:href="d2/db3/structnlohmann_1_1detail_1_1is__complete__type.html" target="_top" xlink:title="nlohmann::detail::is\l_complete_type\&lt; T, typename \&gt;">
<polygon fill="#ffffff" stroke="#000000" points="93,-.5 93,-30.5 217,-30.5 217,-.5 93,-.5"/>
<text text-anchor="start" x="101" y="-18.5" font-family="Helvetica,sans-Serif" font-size="10.00" fill="#000000">nlohmann::detail::is</text>
<text text-anchor="middle" x="155" y="-7.5" font-family="Helvetica,sans-Serif" font-size="10.00" fill="#000000">_complete_type&lt; T, typename &gt;</text>
</a>
</g>
</g>
<!-- Node269&#45;&gt;Node273 -->
<g id="edge4" class="edge">
<title>Node269&#45;&gt;Node273</title>
<path fill="none" stroke="#191970" d="M38.0611,-90.2691C49.3294,-75.1131 67.1176,-53.9258 87,-40.5 92.629,-36.6989 98.9089,-33.3891 105.3147,-30.5324"/>
<polygon fill="#191970" stroke="#191970" points="34.9215,-88.6403 31.9271,-98.8031 40.6056,-92.7258 34.9215,-88.6403"/>
</g>
</g>
</svg>
