<?xml version="1.0" encoding="UTF-8" standalone="no"?>
<!DOCTYPE svg PUBLIC "-//W3C//DTD SVG 1.1//EN"
 "http://www.w3.org/Graphics/SVG/1.1/DTD/svg11.dtd">
<!-- Generated by graphviz version 2.40.1 (20161225.0304)
 -->
<!-- Title: Graphical Class Hierarchy Pages: 1 -->
<svg width="262pt" height="137pt"
 viewBox="0.00 0.00 262.00 137.00" xmlns="http://www.w3.org/2000/svg" xmlns:xlink="http://www.w3.org/1999/xlink">
<g id="graph0" class="graph" transform="scale(1 1) rotate(0) translate(4 133)">
<title>Graphical Class Hierarchy</title>
<polygon fill="#ffffff" stroke="transparent" points="-4,4 -4,-133 258,-133 258,4 -4,4"/>
<!-- Node0 -->
<g id="node1" class="node">
<title>Node0</title>
<g id="a_node1"><a xlink:href="db/d0d/classsirius_1_1mixer_1_1_mixer.html" target="_top" xlink:title=" ">
<polygon fill="#ffffff" stroke="#000000" points="0,-49.5 0,-79.5 100,-79.5 100,-49.5 0,-49.5"/>
<text text-anchor="start" x="8" y="-67.5" font-family="Helvetica,sans-Serif" font-size="10.00" fill="#000000">sirius::mixer::Mixer</text>
<text text-anchor="middle" x="50" y="-56.5" font-family="Helvetica,sans-Serif" font-size="10.00" fill="#000000">&lt; FUNCS... &gt;</text>
</a>
</g>
</g>
<!-- Node1 -->
<g id="node2" class="node">
<title>Node1</title>
<g id="a_node2"><a xlink:href="d9/de6/classsirius_1_1mixer_1_1_broyden1.html" target="_top" xlink:title="Broyden mixer.">
<polygon fill="#ffffff" stroke="#000000" points="136,-98.5 136,-128.5 254,-128.5 254,-98.5 136,-98.5"/>
<text text-anchor="start" x="144" y="-116.5" font-family="Helvetica,sans-Serif" font-size="10.00" fill="#000000">sirius::mixer::Broyden1</text>
<text text-anchor="middle" x="195" y="-105.5" font-family="Helvetica,sans-Serif" font-size="10.00" fill="#000000">&lt; FUNCS &gt;</text>
</a>
</g>
</g>
<!-- Node0&#45;&gt;Node1 -->
<g id="edge1" class="edge">
<title>Node0&#45;&gt;Node1</title>
<path fill="none" stroke="#191970" d="M104.4183,-82.8896C119.5158,-87.9916 135.7308,-93.4711 150.21,-98.3641"/>
<polygon fill="#191970" stroke="#191970" points="105.2822,-79.4872 94.6879,-79.6014 103.0411,-86.1187 105.2822,-79.4872"/>
</g>
<!-- Node2 -->
<g id="node3" class="node">
<title>Node2</title>
<g id="a_node3"><a xlink:href="d6/d20/classsirius_1_1mixer_1_1_broyden2.html" target="_top" xlink:title="Broyden mixer.">
<polygon fill="#ffffff" stroke="#000000" points="136,-49.5 136,-79.5 254,-79.5 254,-49.5 136,-49.5"/>
<text text-anchor="start" x="144" y="-67.5" font-family="Helvetica,sans-Serif" font-size="10.00" fill="#000000">sirius::mixer::Broyden2</text>
<text text-anchor="middle" x="195" y="-56.5" font-family="Helvetica,sans-Serif" font-size="10.00" fill="#000000">&lt; FUNCS &gt;</text>
</a>
</g>
</g>
<!-- Node0&#45;&gt;Node2 -->
<g id="edge2" class="edge">
<title>Node0&#45;&gt;Node2</title>
<path fill="none" stroke="#191970" d="M110.411,-64.5C118.8108,-64.5 127.4334,-64.5 135.8105,-64.5"/>
<polygon fill="#191970" stroke="#191970" points="110.3071,-61.0001 100.307,-64.5 110.307,-68.0001 110.3071,-61.0001"/>
</g>
<!-- Node3 -->
<g id="node4" class="node">
<title>Node3</title>
<g id="a_node4"><a xlink:href="d3/d2b/classsirius_1_1mixer_1_1_linear.html" target="_top" xlink:title=" ">
<polygon fill="#ffffff" stroke="#000000" points="143.5,-.5 143.5,-30.5 246.5,-30.5 246.5,-.5 143.5,-.5"/>
<text text-anchor="start" x="151.5" y="-18.5" font-family="Helvetica,sans-Serif" font-size="10.00" fill="#000000">sirius::mixer::Linear</text>
<text text-anchor="middle" x="195" y="-7.5" font-family="Helvetica,sans-Serif" font-size="10.00" fill="#000000">&lt; FUNCS &gt;</text>
</a>
</g>
</g>
<!-- Node0&#45;&gt;Node3 -->
<g id="edge3" class="edge">
<title>Node0&#45;&gt;Node3</title>
<path fill="none" stroke="#191970" d="M104.4183,-46.1104C119.5158,-41.0084 135.7308,-35.5289 150.21,-30.6359"/>
<polygon fill="#191970" stroke="#191970" points="103.0411,-42.8813 94.6879,-49.3986 105.2822,-49.5128 103.0411,-42.8813"/>
</g>
</g>
</svg>
