<?xml version="1.0" encoding="UTF-8" standalone="no"?>
<!DOCTYPE svg PUBLIC "-//W3C//DTD SVG 1.1//EN"
 "http://www.w3.org/Graphics/SVG/1.1/DTD/svg11.dtd">
<!-- Generated by graphviz version 2.40.1 (20161225.0304)
 -->
<!-- Title: Graphical Class Hierarchy Pages: 1 -->
<svg width="514pt" height="1501pt"
 viewBox="0.00 0.00 514.00 1500.50" xmlns="http://www.w3.org/2000/svg" xmlns:xlink="http://www.w3.org/1999/xlink">
<g id="graph0" class="graph" transform="scale(1 1) rotate(0) translate(4 1496.5)">
<title>Graphical Class Hierarchy</title>
<polygon fill="#ffffff" stroke="transparent" points="-4,4 -4,-1496.5 510,-1496.5 510,4 -4,4"/>
<!-- Node293 -->
<g id="node1" class="node">
<title>Node293</title>
<polygon fill="#ffffff" stroke="#bfbfbf" points="0,-755.5 0,-774.5 62,-774.5 62,-755.5 0,-755.5"/>
<text text-anchor="middle" x="31" y="-762.5" font-family="Helvetica,sans-Serif" font-size="10.00" fill="#000000">false_type</text>
</g>
<!-- Node0 -->
<g id="node2" class="node">
<title>Node0</title>
<g id="a_node2"><a xlink:href="dc/d4b/structnlohmann_1_1detail_1_1is__compatible__array__type__impl.html" target="_top" xlink:title="nlohmann::detail::is\l_compatible_array_type\l_impl\&lt; BasicJsonType, Compatible\lArrayType \&gt;">
<polygon fill="#ffffff" stroke="#000000" points="102,-1440 102,-1492 275,-1492 275,-1440 102,-1440"/>
<text text-anchor="start" x="110" y="-1480" font-family="Helvetica,sans-Serif" font-size="10.00" fill="#000000">nlohmann::detail::is</text>
<text text-anchor="start" x="110" y="-1469" font-family="Helvetica,sans-Serif" font-size="10.00" fill="#000000">_compatible_array_type</text>
<text text-anchor="start" x="110" y="-1458" font-family="Helvetica,sans-Serif" font-size="10.00" fill="#000000">_impl&lt; BasicJsonType, Compatible</text>
<text text-anchor="middle" x="188.5" y="-1447" font-family="Helvetica,sans-Serif" font-size="10.00" fill="#000000">ArrayType &gt;</text>
</a>
</g>
</g>
<!-- Node293&#45;&gt;Node0 -->
<g id="edge1" class="edge">
<title>Node293&#45;&gt;Node0</title>
<path fill="none" stroke="#191970" d="M31.7642,-784.6638C35.9906,-889.3273 57.7826,-1378.2082 98,-1431 100.45,-1434.2161 103.2361,-1437.1368 106.2737,-1439.7892"/>
<polygon fill="#191970" stroke="#191970" points="35.257,-784.4094 31.3629,-774.5562 28.2625,-784.6872 35.257,-784.4094"/>
</g>
<!-- Node296 -->
<g id="node4" class="node">
<title>Node296</title>
<g id="a_node4"><a xlink:href="dd/d13/structnlohmann_1_1detail_1_1is__compatible__integer__type__impl.html" target="_top" xlink:title="nlohmann::detail::is\l_compatible_integer_type\l_impl\&lt; RealIntegerType,\l CompatibleNumberIntegerType \&gt;">
<polygon fill="#ffffff" stroke="#000000" points="105,-1369 105,-1421 272,-1421 272,-1369 105,-1369"/>
<text text-anchor="start" x="113" y="-1409" font-family="Helvetica,sans-Serif" font-size="10.00" fill="#000000">nlohmann::detail::is</text>
<text text-anchor="start" x="113" y="-1398" font-family="Helvetica,sans-Serif" font-size="10.00" fill="#000000">_compatible_integer_type</text>
<text text-anchor="start" x="113" y="-1387" font-family="Helvetica,sans-Serif" font-size="10.00" fill="#000000">_impl&lt; RealIntegerType,</text>
<text text-anchor="middle" x="188.5" y="-1376" font-family="Helvetica,sans-Serif" font-size="10.00" fill="#000000"> CompatibleNumberIntegerType &gt;</text>
</a>
</g>
</g>
<!-- Node293&#45;&gt;Node296 -->
<g id="edge3" class="edge">
<title>Node293&#45;&gt;Node296</title>
<path fill="none" stroke="#191970" d="M32.0298,-784.9851C37.2602,-883.3688 62.0474,-1313.383 98,-1360 100.4691,-1363.2015 103.2706,-1366.1103 106.3206,-1368.7532"/>
<polygon fill="#191970" stroke="#191970" points="35.5201,-784.7059 31.5011,-774.903 28.5297,-785.0726 35.5201,-784.7059"/>
</g>
<!-- Node298 -->
<g id="node6" class="node">
<title>Node298</title>
<g id="a_node6"><a xlink:href="dc/da5/structnlohmann_1_1detail_1_1is__compatible__object__type__impl.html" target="_top" xlink:title="nlohmann::detail::is\l_compatible_object_type\l_impl\&lt; BasicJsonType, Compatible\lObjectType \&gt;">
<polygon fill="#ffffff" stroke="#000000" points="102,-1298 102,-1350 275,-1350 275,-1298 102,-1298"/>
<text text-anchor="start" x="110" y="-1338" font-family="Helvetica,sans-Serif" font-size="10.00" fill="#000000">nlohmann::detail::is</text>
<text text-anchor="start" x="110" y="-1327" font-family="Helvetica,sans-Serif" font-size="10.00" fill="#000000">_compatible_object_type</text>
<text text-anchor="start" x="110" y="-1316" font-family="Helvetica,sans-Serif" font-size="10.00" fill="#000000">_impl&lt; BasicJsonType, Compatible</text>
<text text-anchor="middle" x="188.5" y="-1305" font-family="Helvetica,sans-Serif" font-size="10.00" fill="#000000">ObjectType &gt;</text>
</a>
</g>
</g>
<!-- Node293&#45;&gt;Node298 -->
<g id="edge5" class="edge">
<title>Node293&#45;&gt;Node298</title>
<path fill="none" stroke="#191970" d="M32.339,-784.8224C38.625,-875.54 66.2374,-1248.45 98,-1289 100.4931,-1292.1828 103.3141,-1295.0765 106.3798,-1297.7072"/>
<polygon fill="#191970" stroke="#191970" points="35.8121,-784.3088 31.6368,-774.5714 28.8285,-784.7873 35.8121,-784.3088"/>
</g>
<!-- Node300 -->
<g id="node8" class="node">
<title>Node300</title>
<g id="a_node8"><a xlink:href="d2/d3a/structnlohmann_1_1detail_1_1is__compatible__string__type__impl.html" target="_top" xlink:title="nlohmann::detail::is\l_compatible_string_type\l_impl\&lt; BasicJsonType, Constructible\lStringType \&gt;">
<polygon fill="#ffffff" stroke="#000000" points="98,-1227 98,-1279 279,-1279 279,-1227 98,-1227"/>
<text text-anchor="start" x="106" y="-1267" font-family="Helvetica,sans-Serif" font-size="10.00" fill="#000000">nlohmann::detail::is</text>
<text text-anchor="start" x="106" y="-1256" font-family="Helvetica,sans-Serif" font-size="10.00" fill="#000000">_compatible_string_type</text>
<text text-anchor="start" x="106" y="-1245" font-family="Helvetica,sans-Serif" font-size="10.00" fill="#000000">_impl&lt; BasicJsonType, Constructible</text>
<text text-anchor="middle" x="188.5" y="-1234" font-family="Helvetica,sans-Serif" font-size="10.00" fill="#000000">StringType &gt;</text>
</a>
</g>
</g>
<!-- Node293&#45;&gt;Node300 -->
<g id="edge7" class="edge">
<title>Node293&#45;&gt;Node300</title>
<path fill="none" stroke="#191970" d="M31.3836,-785.0325C33.2656,-863.4365 43.7849,-1148.5232 98,-1217 100.834,-1220.5795 104.0768,-1223.8043 107.6108,-1226.7096"/>
<polygon fill="#191970" stroke="#191970" points="34.8745,-784.5705 31.1574,-774.6492 27.8762,-784.7231 34.8745,-784.5705"/>
</g>
<!-- Node302 -->
<g id="node10" class="node">
<title>Node302</title>
<g id="a_node10"><a xlink:href="d9/d66/structnlohmann_1_1detail_1_1is__compatible__type__impl.html" target="_top" xlink:title="nlohmann::detail::is\l_compatible_type_impl\l\&lt; BasicJsonType, CompatibleType \&gt;">
<polygon fill="#ffffff" stroke="#000000" points="98.5,-1166.5 98.5,-1207.5 278.5,-1207.5 278.5,-1166.5 98.5,-1166.5"/>
<text text-anchor="start" x="106.5" y="-1195.5" font-family="Helvetica,sans-Serif" font-size="10.00" fill="#000000">nlohmann::detail::is</text>
<text text-anchor="start" x="106.5" y="-1184.5" font-family="Helvetica,sans-Serif" font-size="10.00" fill="#000000">_compatible_type_impl</text>
<text text-anchor="middle" x="188.5" y="-1173.5" font-family="Helvetica,sans-Serif" font-size="10.00" fill="#000000">&lt; BasicJsonType, CompatibleType &gt;</text>
</a>
</g>
</g>
<!-- Node293&#45;&gt;Node302 -->
<g id="edge9" class="edge">
<title>Node293&#45;&gt;Node302</title>
<path fill="none" stroke="#191970" d="M31.774,-785.1694C34.9296,-857.1427 49.0814,-1100.0859 98,-1157 101.021,-1160.5148 104.4639,-1163.6197 108.2001,-1166.3621"/>
<polygon fill="#191970" stroke="#191970" points="35.2554,-784.6471 31.3451,-774.8003 28.2614,-784.9365 35.2554,-784.6471"/>
</g>
<!-- Node304 -->
<g id="node12" class="node">
<title>Node304</title>
<g id="a_node12"><a xlink:href="d8/d8b/structnlohmann_1_1detail_1_1is__constructible__array__type__impl.html" target="_top" xlink:title="nlohmann::detail::is\l_constructible_array\l_type_impl\&lt; BasicJsonType,\l ConstructibleArrayType \&gt;">
<polygon fill="#ffffff" stroke="#000000" points="116.5,-1095 116.5,-1147 260.5,-1147 260.5,-1095 116.5,-1095"/>
<text text-anchor="start" x="124.5" y="-1135" font-family="Helvetica,sans-Serif" font-size="10.00" fill="#000000">nlohmann::detail::is</text>
<text text-anchor="start" x="124.5" y="-1124" font-family="Helvetica,sans-Serif" font-size="10.00" fill="#000000">_constructible_array</text>
<text text-anchor="start" x="124.5" y="-1113" font-family="Helvetica,sans-Serif" font-size="10.00" fill="#000000">_type_impl&lt; BasicJsonType,</text>
<text text-anchor="middle" x="188.5" y="-1102" font-family="Helvetica,sans-Serif" font-size="10.00" fill="#000000"> ConstructibleArrayType &gt;</text>
</a>
</g>
</g>
<!-- Node293&#45;&gt;Node304 -->
<g id="edge11" class="edge">
<title>Node293&#45;&gt;Node304</title>
<path fill="none" stroke="#191970" d="M32.6592,-784.598C38.3041,-846.9916 58.6373,-1039.623 98,-1086 103.1234,-1092.0364 109.4161,-1097.0361 116.2759,-1101.1762"/>
<polygon fill="#191970" stroke="#191970" points="36.1364,-784.1834 31.7749,-774.528 29.1632,-784.7959 36.1364,-784.1834"/>
</g>
<!-- Node306 -->
<g id="node14" class="node">
<title>Node306</title>
<g id="a_node14"><a xlink:href="dd/da4/structnlohmann_1_1detail_1_1is__constructible__object__type__impl.html" target="_top" xlink:title="nlohmann::detail::is\l_constructible_object\l_type_impl\&lt; BasicJsonType,\l ConstructibleObjectType \&gt;">
<polygon fill="#ffffff" stroke="#000000" points="116.5,-1024 116.5,-1076 260.5,-1076 260.5,-1024 116.5,-1024"/>
<text text-anchor="start" x="124.5" y="-1064" font-family="Helvetica,sans-Serif" font-size="10.00" fill="#000000">nlohmann::detail::is</text>
<text text-anchor="start" x="124.5" y="-1053" font-family="Helvetica,sans-Serif" font-size="10.00" fill="#000000">_constructible_object</text>
<text text-anchor="start" x="124.5" y="-1042" font-family="Helvetica,sans-Serif" font-size="10.00" fill="#000000">_type_impl&lt; BasicJsonType,</text>
<text text-anchor="middle" x="188.5" y="-1031" font-family="Helvetica,sans-Serif" font-size="10.00" fill="#000000"> ConstructibleObjectType &gt;</text>
</a>
</g>
</g>
<!-- Node293&#45;&gt;Node306 -->
<g id="edge13" class="edge">
<title>Node293&#45;&gt;Node306</title>
<path fill="none" stroke="#191970" d="M34.0026,-784.8502C42.3288,-837.5548 67.144,-979.3485 98,-1014 103.1727,-1019.809 109.4085,-1024.6927 116.1583,-1028.7962"/>
<polygon fill="#191970" stroke="#191970" points="37.43,-784.1113 32.4402,-774.7651 30.5125,-785.183 37.43,-784.1113"/>
</g>
<!-- Node308 -->
<g id="node16" class="node">
<title>Node308</title>
<g id="a_node16"><a xlink:href="de/df0/structnlohmann_1_1detail_1_1is__constructible__string__type__impl.html" target="_top" xlink:title="nlohmann::detail::is\l_constructible_string\l_type_impl\&lt; BasicJsonType,\l ConstructibleStringType \&gt;">
<polygon fill="#ffffff" stroke="#000000" points="116.5,-953 116.5,-1005 260.5,-1005 260.5,-953 116.5,-953"/>
<text text-anchor="start" x="124.5" y="-993" font-family="Helvetica,sans-Serif" font-size="10.00" fill="#000000">nlohmann::detail::is</text>
<text text-anchor="start" x="124.5" y="-982" font-family="Helvetica,sans-Serif" font-size="10.00" fill="#000000">_constructible_string</text>
<text text-anchor="start" x="124.5" y="-971" font-family="Helvetica,sans-Serif" font-size="10.00" fill="#000000">_type_impl&lt; BasicJsonType,</text>
<text text-anchor="middle" x="188.5" y="-960" font-family="Helvetica,sans-Serif" font-size="10.00" fill="#000000"> ConstructibleStringType &gt;</text>
</a>
</g>
</g>
<!-- Node293&#45;&gt;Node308 -->
<g id="edge15" class="edge">
<title>Node293&#45;&gt;Node308</title>
<path fill="none" stroke="#191970" d="M33.1969,-784.7257C38.2213,-820.8204 53.7527,-897.9221 98,-943 103.3302,-948.4303 109.5829,-953.0639 116.2691,-957.013"/>
<polygon fill="#191970" stroke="#191970" points="36.6361,-784.0232 31.9117,-774.5401 29.6911,-784.8996 36.6361,-784.0232"/>
</g>
<!-- Node310 -->
<g id="node18" class="node">
<title>Node310</title>
<g id="a_node18"><a xlink:href="dc/dac/structnlohmann_1_1detail_1_1has__from__json.html" target="_top" xlink:title="nlohmann::detail::has\l_from_json\&lt; BasicJsonType,\l T, typename \&gt;">
<polygon fill="#ffffff" stroke="#000000" points="116,-892.5 116,-933.5 261,-933.5 261,-892.5 116,-892.5"/>
<text text-anchor="start" x="124" y="-921.5" font-family="Helvetica,sans-Serif" font-size="10.00" fill="#000000">nlohmann::detail::has</text>
<text text-anchor="start" x="124" y="-910.5" font-family="Helvetica,sans-Serif" font-size="10.00" fill="#000000">_from_json&lt; BasicJsonType,</text>
<text text-anchor="middle" x="188.5" y="-899.5" font-family="Helvetica,sans-Serif" font-size="10.00" fill="#000000"> T, typename &gt;</text>
</a>
</g>
</g>
<!-- Node293&#45;&gt;Node310 -->
<g id="edge17" class="edge">
<title>Node293&#45;&gt;Node310</title>
<path fill="none" stroke="#191970" d="M37.0334,-784.329C46.1334,-810.395 65.8132,-856.584 98,-883 103.3739,-887.4105 109.4205,-891.1812 115.7743,-894.4035"/>
<polygon fill="#191970" stroke="#191970" points="40.2457,-782.896 33.7756,-774.5063 33.6016,-785.0997 40.2457,-782.896"/>
</g>
<!-- Node311 -->
<g id="node19" class="node">
<title>Node311</title>
<g id="a_node19"><a xlink:href="d7/d08/structnlohmann_1_1detail_1_1has__non__default__from__json.html" target="_top" xlink:title="nlohmann::detail::has\l_non_default_from_json\l\&lt; BasicJsonType, T, typename \&gt;">
<polygon fill="#ffffff" stroke="#000000" points="107,-832.5 107,-873.5 270,-873.5 270,-832.5 107,-832.5"/>
<text text-anchor="start" x="115" y="-861.5" font-family="Helvetica,sans-Serif" font-size="10.00" fill="#000000">nlohmann::detail::has</text>
<text text-anchor="start" x="115" y="-850.5" font-family="Helvetica,sans-Serif" font-size="10.00" fill="#000000">_non_default_from_json</text>
<text text-anchor="middle" x="188.5" y="-839.5" font-family="Helvetica,sans-Serif" font-size="10.00" fill="#000000">&lt; BasicJsonType, T, typename &gt;</text>
</a>
</g>
</g>
<!-- Node293&#45;&gt;Node311 -->
<g id="edge18" class="edge">
<title>Node293&#45;&gt;Node311</title>
<path fill="none" stroke="#191970" d="M46.7291,-781.8416C59.4908,-794.6565 78.505,-811.9204 98,-823 104.0441,-826.4351 110.541,-829.5505 117.1793,-832.3587"/>
<polygon fill="#191970" stroke="#191970" points="49.1164,-779.2758 39.6427,-774.5325 44.0907,-784.1484 49.1164,-779.2758"/>
</g>
<!-- Node312 -->
<g id="node20" class="node">
<title>Node312</title>
<g id="a_node20"><a xlink:href="d9/d6c/structnlohmann_1_1detail_1_1has__to__json.html" target="_top" xlink:title="nlohmann::detail::has\l_to_json\&lt; BasicJsonType,\l T, typename \&gt;">
<polygon fill="#ffffff" stroke="#000000" points="121.5,-772.5 121.5,-813.5 255.5,-813.5 255.5,-772.5 121.5,-772.5"/>
<text text-anchor="start" x="129.5" y="-801.5" font-family="Helvetica,sans-Serif" font-size="10.00" fill="#000000">nlohmann::detail::has</text>
<text text-anchor="start" x="129.5" y="-790.5" font-family="Helvetica,sans-Serif" font-size="10.00" fill="#000000">_to_json&lt; BasicJsonType,</text>
<text text-anchor="middle" x="188.5" y="-779.5" font-family="Helvetica,sans-Serif" font-size="10.00" fill="#000000"> T, typename &gt;</text>
</a>
</g>
</g>
<!-- Node293&#45;&gt;Node312 -->
<g id="edge19" class="edge">
<title>Node293&#45;&gt;Node312</title>
<path fill="none" stroke="#191970" d="M72.1066,-772.3078C87.1438,-774.9811 104.5755,-778.0801 121.2972,-781.0528"/>
<polygon fill="#191970" stroke="#191970" points="72.5752,-768.8363 62.1169,-770.5319 71.3499,-775.7283 72.5752,-768.8363"/>
</g>
<!-- Node313 -->
<g id="node21" class="node">
<title>Node313</title>
<g id="a_node21"><a xlink:href="d4/df6/structnlohmann_1_1detail_1_1is__basic__json.html" target="_top" xlink:title="nlohmann::detail::is\l_basic_json\&lt; typename \&gt;">
<polygon fill="#ffffff" stroke="#000000" points="123.5,-723 123.5,-753 253.5,-753 253.5,-723 123.5,-723"/>
<text text-anchor="start" x="131.5" y="-741" font-family="Helvetica,sans-Serif" font-size="10.00" fill="#000000">nlohmann::detail::is</text>
<text text-anchor="middle" x="188.5" y="-730" font-family="Helvetica,sans-Serif" font-size="10.00" fill="#000000">_basic_json&lt; typename &gt;</text>
</a>
</g>
</g>
<!-- Node293&#45;&gt;Node313 -->
<g id="edge20" class="edge">
<title>Node293&#45;&gt;Node313</title>
<path fill="none" stroke="#191970" d="M71.9896,-757.9732C87.6404,-755.2902 105.8981,-752.1603 123.2538,-749.1851"/>
<polygon fill="#191970" stroke="#191970" points="71.3818,-754.5263 62.1169,-759.6657 72.5646,-761.4256 71.3818,-754.5263"/>
</g>
<!-- Node314 -->
<g id="node22" class="node">
<title>Node314</title>
<g id="a_node22"><a xlink:href="dc/d4b/structnlohmann_1_1detail_1_1is__compatible__array__type__impl.html" target="_top" xlink:title="nlohmann::detail::is\l_compatible_array_type\l_impl\&lt; BasicJsonType, Compatible\lArrayType, typename \&gt;">
<polygon fill="#ffffff" stroke="#000000" points="102,-652 102,-704 275,-704 275,-652 102,-652"/>
<text text-anchor="start" x="110" y="-692" font-family="Helvetica,sans-Serif" font-size="10.00" fill="#000000">nlohmann::detail::is</text>
<text text-anchor="start" x="110" y="-681" font-family="Helvetica,sans-Serif" font-size="10.00" fill="#000000">_compatible_array_type</text>
<text text-anchor="start" x="110" y="-670" font-family="Helvetica,sans-Serif" font-size="10.00" fill="#000000">_impl&lt; BasicJsonType, Compatible</text>
<text text-anchor="middle" x="188.5" y="-659" font-family="Helvetica,sans-Serif" font-size="10.00" fill="#000000">ArrayType, typename &gt;</text>
</a>
</g>
</g>
<!-- Node293&#45;&gt;Node314 -->
<g id="edge21" class="edge">
<title>Node293&#45;&gt;Node314</title>
<path fill="none" stroke="#191970" d="M49.3603,-748.369C62.273,-737.2899 80.3353,-722.9859 98,-713 103.5726,-709.8498 109.485,-706.8636 115.5133,-704.0622"/>
<polygon fill="#191970" stroke="#191970" points="46.8873,-745.8824 41.6744,-755.1061 51.5015,-751.1464 46.8873,-745.8824"/>
</g>
<!-- Node315 -->
<g id="node23" class="node">
<title>Node315</title>
<g id="a_node23"><a xlink:href="dd/d13/structnlohmann_1_1detail_1_1is__compatible__integer__type__impl.html" target="_top" xlink:title="nlohmann::detail::is\l_compatible_integer_type\l_impl\&lt; RealIntegerType,\l CompatibleNumberIntegerType,\l typename \&gt;">
<polygon fill="#ffffff" stroke="#000000" points="107.5,-569.5 107.5,-632.5 269.5,-632.5 269.5,-569.5 107.5,-569.5"/>
<text text-anchor="start" x="115.5" y="-620.5" font-family="Helvetica,sans-Serif" font-size="10.00" fill="#000000">nlohmann::detail::is</text>
<text text-anchor="start" x="115.5" y="-609.5" font-family="Helvetica,sans-Serif" font-size="10.00" fill="#000000">_compatible_integer_type</text>
<text text-anchor="start" x="115.5" y="-598.5" font-family="Helvetica,sans-Serif" font-size="10.00" fill="#000000">_impl&lt; RealIntegerType,</text>
<text text-anchor="start" x="115.5" y="-587.5" font-family="Helvetica,sans-Serif" font-size="10.00" fill="#000000"> CompatibleNumberIntegerType,</text>
<text text-anchor="middle" x="188.5" y="-576.5" font-family="Helvetica,sans-Serif" font-size="10.00" fill="#000000"> typename &gt;</text>
</a>
</g>
</g>
<!-- Node293&#45;&gt;Node315 -->
<g id="edge22" class="edge">
<title>Node293&#45;&gt;Node315</title>
<path fill="none" stroke="#191970" d="M37.1106,-745.7016C46.3895,-719.1711 66.3735,-671.3864 98,-642 101.6645,-638.5951 105.6601,-635.4354 109.8648,-632.5092"/>
<polygon fill="#191970" stroke="#191970" points="33.7351,-744.7596 33.8825,-755.3534 40.3737,-746.9799 33.7351,-744.7596"/>
</g>
<!-- Node316 -->
<g id="node24" class="node">
<title>Node316</title>
<g id="a_node24"><a xlink:href="dc/da5/structnlohmann_1_1detail_1_1is__compatible__object__type__impl.html" target="_top" xlink:title="nlohmann::detail::is\l_compatible_object_type\l_impl\&lt; BasicJsonType, Compatible\lObjectType, typename \&gt;">
<polygon fill="#ffffff" stroke="#000000" points="102,-498 102,-550 275,-550 275,-498 102,-498"/>
<text text-anchor="start" x="110" y="-538" font-family="Helvetica,sans-Serif" font-size="10.00" fill="#000000">nlohmann::detail::is</text>
<text text-anchor="start" x="110" y="-527" font-family="Helvetica,sans-Serif" font-size="10.00" fill="#000000">_compatible_object_type</text>
<text text-anchor="start" x="110" y="-516" font-family="Helvetica,sans-Serif" font-size="10.00" fill="#000000">_impl&lt; BasicJsonType, Compatible</text>
<text text-anchor="middle" x="188.5" y="-505" font-family="Helvetica,sans-Serif" font-size="10.00" fill="#000000">ObjectType, typename &gt;</text>
</a>
</g>
</g>
<!-- Node293&#45;&gt;Node316 -->
<g id="edge23" class="edge">
<title>Node293&#45;&gt;Node316</title>
<path fill="none" stroke="#191970" d="M32.0317,-745.3747C35.1622,-705.3398 47.7327,-613.5229 98,-560 101.357,-556.4256 105.1148,-553.199 109.1395,-550.2873"/>
<polygon fill="#191970" stroke="#191970" points="28.5347,-745.215 31.3644,-755.425 35.5193,-745.6789 28.5347,-745.215"/>
</g>
<!-- Node317 -->
<g id="node25" class="node">
<title>Node317</title>
<g id="a_node25"><a xlink:href="d2/d3a/structnlohmann_1_1detail_1_1is__compatible__string__type__impl.html" target="_top" xlink:title="nlohmann::detail::is\l_compatible_string_type\l_impl\&lt; BasicJsonType, Compatible\lStringType, typename \&gt;">
<polygon fill="#ffffff" stroke="#000000" points="102,-427 102,-479 275,-479 275,-427 102,-427"/>
<text text-anchor="start" x="110" y="-467" font-family="Helvetica,sans-Serif" font-size="10.00" fill="#000000">nlohmann::detail::is</text>
<text text-anchor="start" x="110" y="-456" font-family="Helvetica,sans-Serif" font-size="10.00" fill="#000000">_compatible_string_type</text>
<text text-anchor="start" x="110" y="-445" font-family="Helvetica,sans-Serif" font-size="10.00" fill="#000000">_impl&lt; BasicJsonType, Compatible</text>
<text text-anchor="middle" x="188.5" y="-434" font-family="Helvetica,sans-Serif" font-size="10.00" fill="#000000">StringType, typename &gt;</text>
</a>
</g>
</g>
<!-- Node293&#45;&gt;Node317 -->
<g id="edge24" class="edge">
<title>Node293&#45;&gt;Node317</title>
<path fill="none" stroke="#191970" d="M33.3929,-745.1923C40.6039,-688.485 63.7572,-527.0782 98,-488 100.8866,-484.7058 104.1203,-481.7198 107.6009,-479.0132"/>
<polygon fill="#191970" stroke="#191970" points="29.8909,-744.9923 32.1311,-755.3476 36.8375,-745.8555 29.8909,-744.9923"/>
</g>
<!-- Node318 -->
<g id="node26" class="node">
<title>Node318</title>
<g id="a_node26"><a xlink:href="d9/d66/structnlohmann_1_1detail_1_1is__compatible__type__impl.html" target="_top" xlink:title="nlohmann::detail::is\l_compatible_type_impl\l\&lt; BasicJsonType, CompatibleType,\l typename \&gt;">
<polygon fill="#ffffff" stroke="#000000" points="101.5,-356 101.5,-408 275.5,-408 275.5,-356 101.5,-356"/>
<text text-anchor="start" x="109.5" y="-396" font-family="Helvetica,sans-Serif" font-size="10.00" fill="#000000">nlohmann::detail::is</text>
<text text-anchor="start" x="109.5" y="-385" font-family="Helvetica,sans-Serif" font-size="10.00" fill="#000000">_compatible_type_impl</text>
<text text-anchor="start" x="109.5" y="-374" font-family="Helvetica,sans-Serif" font-size="10.00" fill="#000000">&lt; BasicJsonType, CompatibleType,</text>
<text text-anchor="middle" x="188.5" y="-363" font-family="Helvetica,sans-Serif" font-size="10.00" fill="#000000"> typename &gt;</text>
</a>
</g>
</g>
<!-- Node293&#45;&gt;Node318 -->
<g id="edge25" class="edge">
<title>Node293&#45;&gt;Node318</title>
<path fill="none" stroke="#191970" d="M32.3363,-745.0658C37.1446,-678.8845 55.5774,-467.7781 98,-417 100.7002,-413.768 103.736,-410.8335 107.0162,-408.1692"/>
<polygon fill="#191970" stroke="#191970" points="28.8231,-745.1329 31.6153,-755.3532 35.806,-745.6224 28.8231,-745.1329"/>
</g>
<!-- Node319 -->
<g id="node27" class="node">
<title>Node319</title>
<g id="a_node27"><a xlink:href="d2/db3/structnlohmann_1_1detail_1_1is__complete__type.html" target="_top" xlink:title="nlohmann::detail::is\l_complete_type\&lt; T, typename \&gt;">
<polygon fill="#ffffff" stroke="#000000" points="108.5,-307 108.5,-337 268.5,-337 268.5,-307 108.5,-307"/>
<text text-anchor="start" x="116.5" y="-325" font-family="Helvetica,sans-Serif" font-size="10.00" fill="#000000">nlohmann::detail::is</text>
<text text-anchor="middle" x="188.5" y="-314" font-family="Helvetica,sans-Serif" font-size="10.00" fill="#000000">_complete_type&lt; T, typename &gt;</text>
</a>
</g>
</g>
<!-- Node293&#45;&gt;Node319 -->
<g id="edge26" class="edge">
<title>Node293&#45;&gt;Node319</title>
<path fill="none" stroke="#191970" d="M31.4095,-744.8106C33.35,-669.4375 43.9534,-405.7806 98,-346 101.0523,-342.6239 104.5196,-339.6991 108.2745,-337.1675"/>
<polygon fill="#191970" stroke="#191970" points="27.9007,-745.1521 31.1671,-755.2309 34.8988,-745.315 27.9007,-745.1521"/>
</g>
<!-- Node320 -->
<g id="node28" class="node">
<title>Node320</title>
<g id="a_node28"><a xlink:href="d8/d8b/structnlohmann_1_1detail_1_1is__constructible__array__type__impl.html" target="_top" xlink:title="nlohmann::detail::is\l_constructible_array\l_type_impl\&lt; BasicJsonType,\l ConstructibleArrayType,\l typename \&gt;">
<polygon fill="#ffffff" stroke="#000000" points="116.5,-224.5 116.5,-287.5 260.5,-287.5 260.5,-224.5 116.5,-224.5"/>
<text text-anchor="start" x="124.5" y="-275.5" font-family="Helvetica,sans-Serif" font-size="10.00" fill="#000000">nlohmann::detail::is</text>
<text text-anchor="start" x="124.5" y="-264.5" font-family="Helvetica,sans-Serif" font-size="10.00" fill="#000000">_constructible_array</text>
<text text-anchor="start" x="124.5" y="-253.5" font-family="Helvetica,sans-Serif" font-size="10.00" fill="#000000">_type_impl&lt; BasicJsonType,</text>
<text text-anchor="start" x="124.5" y="-242.5" font-family="Helvetica,sans-Serif" font-size="10.00" fill="#000000"> ConstructibleArrayType,</text>
<text text-anchor="middle" x="188.5" y="-231.5" font-family="Helvetica,sans-Serif" font-size="10.00" fill="#000000"> typename &gt;</text>
</a>
</g>
</g>
<!-- Node293&#45;&gt;Node320 -->
<g id="edge27" class="edge">
<title>Node293&#45;&gt;Node320</title>
<path fill="none" stroke="#191970" d="M31.3588,-745.3511C33.1702,-665.9494 43.529,-369.5817 98,-297 102.9697,-290.3779 109.2575,-284.7977 116.1942,-280.1015"/>
<polygon fill="#191970" stroke="#191970" points="27.8578,-745.3688 31.1493,-755.4393 34.8562,-745.5141 27.8578,-745.3688"/>
</g>
<!-- Node321 -->
<g id="node29" class="node">
<title>Node321</title>
<g id="a_node29"><a xlink:href="dd/da4/structnlohmann_1_1detail_1_1is__constructible__object__type__impl.html" target="_top" xlink:title="nlohmann::detail::is\l_constructible_object\l_type_impl\&lt; BasicJsonType,\l ConstructibleObjectType,\l typename \&gt;">
<polygon fill="#ffffff" stroke="#000000" points="116.5,-142.5 116.5,-205.5 260.5,-205.5 260.5,-142.5 116.5,-142.5"/>
<text text-anchor="start" x="124.5" y="-193.5" font-family="Helvetica,sans-Serif" font-size="10.00" fill="#000000">nlohmann::detail::is</text>
<text text-anchor="start" x="124.5" y="-182.5" font-family="Helvetica,sans-Serif" font-size="10.00" fill="#000000">_constructible_object</text>
<text text-anchor="start" x="124.5" y="-171.5" font-family="Helvetica,sans-Serif" font-size="10.00" fill="#000000">_type_impl&lt; BasicJsonType,</text>
<text text-anchor="start" x="124.5" y="-160.5" font-family="Helvetica,sans-Serif" font-size="10.00" fill="#000000"> ConstructibleObjectType,</text>
<text text-anchor="middle" x="188.5" y="-149.5" font-family="Helvetica,sans-Serif" font-size="10.00" fill="#000000"> typename &gt;</text>
</a>
</g>
</g>
<!-- Node293&#45;&gt;Node321 -->
<g id="edge28" class="edge">
<title>Node293&#45;&gt;Node321</title>
<path fill="none" stroke="#191970" d="M32.2525,-745.4131C38.3443,-652.4849 65.8935,-258.7292 98,-215 103.0021,-208.1871 109.4049,-202.4802 116.489,-197.7055"/>
<polygon fill="#191970" stroke="#191970" points="28.7578,-745.2182 31.6034,-755.4237 35.7432,-745.6712 28.7578,-745.2182"/>
</g>
<!-- Node322 -->
<g id="node30" class="node">
<title>Node322</title>
<g id="a_node30"><a xlink:href="de/df0/structnlohmann_1_1detail_1_1is__constructible__string__type__impl.html" target="_top" xlink:title="nlohmann::detail::is\l_constructible_string\l_type_impl\&lt; BasicJsonType,\l ConstructibleStringType,\l typename \&gt;">
<polygon fill="#ffffff" stroke="#000000" points="116.5,-60.5 116.5,-123.5 260.5,-123.5 260.5,-60.5 116.5,-60.5"/>
<text text-anchor="start" x="124.5" y="-111.5" font-family="Helvetica,sans-Serif" font-size="10.00" fill="#000000">nlohmann::detail::is</text>
<text text-anchor="start" x="124.5" y="-100.5" font-family="Helvetica,sans-Serif" font-size="10.00" fill="#000000">_constructible_string</text>
<text text-anchor="start" x="124.5" y="-89.5" font-family="Helvetica,sans-Serif" font-size="10.00" fill="#000000">_type_impl&lt; BasicJsonType,</text>
<text text-anchor="start" x="124.5" y="-78.5" font-family="Helvetica,sans-Serif" font-size="10.00" fill="#000000"> ConstructibleStringType,</text>
<text text-anchor="middle" x="188.5" y="-67.5" font-family="Helvetica,sans-Serif" font-size="10.00" fill="#000000"> typename &gt;</text>
</a>
</g>
</g>
<!-- Node293&#45;&gt;Node322 -->
<g id="edge29" class="edge">
<title>Node293&#45;&gt;Node322</title>
<path fill="none" stroke="#191970" d="M31.9255,-745.4355C36.8585,-644.3452 61.2202,-183.9223 98,-133 102.9488,-126.1483 109.3187,-120.4174 116.3844,-115.6293"/>
<polygon fill="#191970" stroke="#191970" points="28.427,-745.3216 31.4421,-755.4783 35.4189,-745.6582 28.427,-745.3216"/>
</g>
<!-- Node323 -->
<g id="node31" class="node">
<title>Node323</title>
<g id="a_node31"><a xlink:href="d3/d30/structnlohmann_1_1detail_1_1is__iterator__traits.html" target="_top" xlink:title="nlohmann::detail::is\l_iterator_traits\&lt; T,\l typename \&gt;">
<polygon fill="#ffffff" stroke="#000000" points="137,-.5 137,-41.5 240,-41.5 240,-.5 137,-.5"/>
<text text-anchor="start" x="145" y="-29.5" font-family="Helvetica,sans-Serif" font-size="10.00" fill="#000000">nlohmann::detail::is</text>
<text text-anchor="start" x="145" y="-18.5" font-family="Helvetica,sans-Serif" font-size="10.00" fill="#000000">_iterator_traits&lt; T,</text>
<text text-anchor="middle" x="188.5" y="-7.5" font-family="Helvetica,sans-Serif" font-size="10.00" fill="#000000"> typename &gt;</text>
</a>
</g>
</g>
<!-- Node293&#45;&gt;Node323 -->
<g id="edge30" class="edge">
<title>Node293&#45;&gt;Node323</title>
<path fill="none" stroke="#191970" d="M31.5805,-745.2602C34.9638,-635.86 53.5442,-106.8677 98,-51 107.5851,-38.9544 122.1496,-31.7014 136.8107,-27.3487"/>
<polygon fill="#191970" stroke="#191970" points="28.0821,-745.1576 31.278,-755.259 35.0789,-745.3694 28.0821,-745.1576"/>
</g>
<!-- Node1 -->
<g id="node3" class="node">
<title>Node1</title>
<g id="a_node3"><a xlink:href="d8/d94/structnlohmann_1_1detail_1_1is__compatible__array__type.html" target="_top" xlink:title="nlohmann::detail::is\l_compatible_array_type\l\&lt; BasicJsonType, CompatibleArray\lType \&gt;">
<polygon fill="#ffffff" stroke="#000000" points="324,-1440 324,-1492 497,-1492 497,-1440 324,-1440"/>
<text text-anchor="start" x="332" y="-1480" font-family="Helvetica,sans-Serif" font-size="10.00" fill="#000000">nlohmann::detail::is</text>
<text text-anchor="start" x="332" y="-1469" font-family="Helvetica,sans-Serif" font-size="10.00" fill="#000000">_compatible_array_type</text>
<text text-anchor="start" x="332" y="-1458" font-family="Helvetica,sans-Serif" font-size="10.00" fill="#000000">&lt; BasicJsonType, CompatibleArray</text>
<text text-anchor="middle" x="410.5" y="-1447" font-family="Helvetica,sans-Serif" font-size="10.00" fill="#000000">Type &gt;</text>
</a>
</g>
</g>
<!-- Node0&#45;&gt;Node1 -->
<g id="edge2" class="edge">
<title>Node0&#45;&gt;Node1</title>
<path fill="none" stroke="#191970" d="M285.4463,-1466C298.2006,-1466 311.2064,-1466 323.7755,-1466"/>
<polygon fill="#191970" stroke="#191970" points="285.2848,-1462.5001 275.2848,-1466 285.2848,-1469.5001 285.2848,-1462.5001"/>
</g>
<!-- Node297 -->
<g id="node5" class="node">
<title>Node297</title>
<g id="a_node5"><a xlink:href="d1/d21/structnlohmann_1_1detail_1_1is__compatible__integer__type.html" target="_top" xlink:title="nlohmann::detail::is\l_compatible_integer_type\l\&lt; RealIntegerType, CompatibleNumber\lIntegerType \&gt;">
<polygon fill="#ffffff" stroke="#000000" points="315,-1369 315,-1421 506,-1421 506,-1369 315,-1369"/>
<text text-anchor="start" x="323" y="-1409" font-family="Helvetica,sans-Serif" font-size="10.00" fill="#000000">nlohmann::detail::is</text>
<text text-anchor="start" x="323" y="-1398" font-family="Helvetica,sans-Serif" font-size="10.00" fill="#000000">_compatible_integer_type</text>
<text text-anchor="start" x="323" y="-1387" font-family="Helvetica,sans-Serif" font-size="10.00" fill="#000000">&lt; RealIntegerType, CompatibleNumber</text>
<text text-anchor="middle" x="410.5" y="-1376" font-family="Helvetica,sans-Serif" font-size="10.00" fill="#000000">IntegerType &gt;</text>
</a>
</g>
</g>
<!-- Node296&#45;&gt;Node297 -->
<g id="edge4" class="edge">
<title>Node296&#45;&gt;Node297</title>
<path fill="none" stroke="#191970" d="M282.2974,-1395C293.0046,-1395 303.9306,-1395 314.6638,-1395"/>
<polygon fill="#191970" stroke="#191970" points="282.1124,-1391.5001 272.1123,-1395 282.1123,-1398.5001 282.1124,-1391.5001"/>
</g>
<!-- Node299 -->
<g id="node7" class="node">
<title>Node299</title>
<g id="a_node7"><a xlink:href="d5/dda/structnlohmann_1_1detail_1_1is__compatible__object__type.html" target="_top" xlink:title="nlohmann::detail::is\l_compatible_object_type\l\&lt; BasicJsonType, CompatibleObject\lType \&gt;">
<polygon fill="#ffffff" stroke="#000000" points="321.5,-1298 321.5,-1350 499.5,-1350 499.5,-1298 321.5,-1298"/>
<text text-anchor="start" x="329.5" y="-1338" font-family="Helvetica,sans-Serif" font-size="10.00" fill="#000000">nlohmann::detail::is</text>
<text text-anchor="start" x="329.5" y="-1327" font-family="Helvetica,sans-Serif" font-size="10.00" fill="#000000">_compatible_object_type</text>
<text text-anchor="start" x="329.5" y="-1316" font-family="Helvetica,sans-Serif" font-size="10.00" fill="#000000">&lt; BasicJsonType, CompatibleObject</text>
<text text-anchor="middle" x="410.5" y="-1305" font-family="Helvetica,sans-Serif" font-size="10.00" fill="#000000">Type &gt;</text>
</a>
</g>
</g>
<!-- Node298&#45;&gt;Node299 -->
<g id="edge6" class="edge">
<title>Node298&#45;&gt;Node299</title>
<path fill="none" stroke="#191970" d="M285.617,-1324C297.4527,-1324 309.5023,-1324 321.2162,-1324"/>
<polygon fill="#191970" stroke="#191970" points="285.2848,-1320.5001 275.2848,-1324 285.2848,-1327.5001 285.2848,-1320.5001"/>
</g>
<!-- Node301 -->
<g id="node9" class="node">
<title>Node301</title>
<g id="a_node9"><a xlink:href="db/d4e/structnlohmann_1_1detail_1_1is__compatible__string__type.html" target="_top" xlink:title="nlohmann::detail::is\l_compatible_string_type\l\&lt; BasicJsonType, Constructible\lStringType \&gt;">
<polygon fill="#ffffff" stroke="#000000" points="332,-1227 332,-1279 489,-1279 489,-1227 332,-1227"/>
<text text-anchor="start" x="340" y="-1267" font-family="Helvetica,sans-Serif" font-size="10.00" fill="#000000">nlohmann::detail::is</text>
<text text-anchor="start" x="340" y="-1256" font-family="Helvetica,sans-Serif" font-size="10.00" fill="#000000">_compatible_string_type</text>
<text text-anchor="start" x="340" y="-1245" font-family="Helvetica,sans-Serif" font-size="10.00" fill="#000000">&lt; BasicJsonType, Constructible</text>
<text text-anchor="middle" x="410.5" y="-1234" font-family="Helvetica,sans-Serif" font-size="10.00" fill="#000000">StringType &gt;</text>
</a>
</g>
</g>
<!-- Node300&#45;&gt;Node301 -->
<g id="edge8" class="edge">
<title>Node300&#45;&gt;Node301</title>
<path fill="none" stroke="#191970" d="M289.4392,-1253C303.689,-1253 318.1617,-1253 331.9077,-1253"/>
<polygon fill="#191970" stroke="#191970" points="289.1161,-1249.5001 279.1161,-1253 289.1161,-1256.5001 289.1161,-1249.5001"/>
</g>
<!-- Node303 -->
<g id="node11" class="node">
<title>Node303</title>
<g id="a_node11"><a xlink:href="d3/d71/structnlohmann_1_1detail_1_1is__compatible__type.html" target="_top" xlink:title="nlohmann::detail::is\l_compatible_type\&lt; BasicJson\lType, CompatibleType \&gt;">
<polygon fill="#ffffff" stroke="#000000" points="336,-1166.5 336,-1207.5 485,-1207.5 485,-1166.5 336,-1166.5"/>
<text text-anchor="start" x="344" y="-1195.5" font-family="Helvetica,sans-Serif" font-size="10.00" fill="#000000">nlohmann::detail::is</text>
<text text-anchor="start" x="344" y="-1184.5" font-family="Helvetica,sans-Serif" font-size="10.00" fill="#000000">_compatible_type&lt; BasicJson</text>
<text text-anchor="middle" x="410.5" y="-1173.5" font-family="Helvetica,sans-Serif" font-size="10.00" fill="#000000">Type, CompatibleType &gt;</text>
</a>
</g>
</g>
<!-- Node302&#45;&gt;Node303 -->
<g id="edge10" class="edge">
<title>Node302&#45;&gt;Node303</title>
<path fill="none" stroke="#191970" d="M289.0877,-1187C304.8313,-1187 320.8569,-1187 335.8824,-1187"/>
<polygon fill="#191970" stroke="#191970" points="288.7959,-1183.5001 278.7959,-1187 288.7959,-1190.5001 288.7959,-1183.5001"/>
</g>
<!-- Node305 -->
<g id="node13" class="node">
<title>Node305</title>
<g id="a_node13"><a xlink:href="d3/d52/structnlohmann_1_1detail_1_1is__constructible__array__type.html" target="_top" xlink:title="nlohmann::detail::is\l_constructible_array\l_type\&lt; BasicJsonType,\l ConstructibleArrayType \&gt;">
<polygon fill="#ffffff" stroke="#000000" points="344.5,-1095 344.5,-1147 476.5,-1147 476.5,-1095 344.5,-1095"/>
<text text-anchor="start" x="352.5" y="-1135" font-family="Helvetica,sans-Serif" font-size="10.00" fill="#000000">nlohmann::detail::is</text>
<text text-anchor="start" x="352.5" y="-1124" font-family="Helvetica,sans-Serif" font-size="10.00" fill="#000000">_constructible_array</text>
<text text-anchor="start" x="352.5" y="-1113" font-family="Helvetica,sans-Serif" font-size="10.00" fill="#000000">_type&lt; BasicJsonType,</text>
<text text-anchor="middle" x="410.5" y="-1102" font-family="Helvetica,sans-Serif" font-size="10.00" fill="#000000"> ConstructibleArrayType &gt;</text>
</a>
</g>
</g>
<!-- Node304&#45;&gt;Node305 -->
<g id="edge12" class="edge">
<title>Node304&#45;&gt;Node305</title>
<path fill="none" stroke="#191970" d="M270.8394,-1121C295.0997,-1121 321.3208,-1121 344.4199,-1121"/>
<polygon fill="#191970" stroke="#191970" points="270.5771,-1117.5001 260.577,-1121 270.577,-1124.5001 270.5771,-1117.5001"/>
</g>
<!-- Node307 -->
<g id="node15" class="node">
<title>Node307</title>
<g id="a_node15"><a xlink:href="dc/d11/structnlohmann_1_1detail_1_1is__constructible__object__type.html" target="_top" xlink:title="nlohmann::detail::is\l_constructible_object\l_type\&lt; BasicJsonType,\l ConstructibleObjectType \&gt;">
<polygon fill="#ffffff" stroke="#000000" points="342,-1024 342,-1076 479,-1076 479,-1024 342,-1024"/>
<text text-anchor="start" x="350" y="-1064" font-family="Helvetica,sans-Serif" font-size="10.00" fill="#000000">nlohmann::detail::is</text>
<text text-anchor="start" x="350" y="-1053" font-family="Helvetica,sans-Serif" font-size="10.00" fill="#000000">_constructible_object</text>
<text text-anchor="start" x="350" y="-1042" font-family="Helvetica,sans-Serif" font-size="10.00" fill="#000000">_type&lt; BasicJsonType,</text>
<text text-anchor="middle" x="410.5" y="-1031" font-family="Helvetica,sans-Serif" font-size="10.00" fill="#000000"> ConstructibleObjectType &gt;</text>
</a>
</g>
</g>
<!-- Node306&#45;&gt;Node307 -->
<g id="edge14" class="edge">
<title>Node306&#45;&gt;Node307</title>
<path fill="none" stroke="#191970" d="M270.812,-1050C294.1688,-1050 319.3451,-1050 341.8042,-1050"/>
<polygon fill="#191970" stroke="#191970" points="270.5771,-1046.5001 260.577,-1050 270.577,-1053.5001 270.5771,-1046.5001"/>
</g>
<!-- Node309 -->
<g id="node17" class="node">
<title>Node309</title>
<g id="a_node17"><a xlink:href="d3/d84/structnlohmann_1_1detail_1_1is__constructible__string__type.html" target="_top" xlink:title="nlohmann::detail::is\l_constructible_string\l_type\&lt; BasicJsonType,\l ConstructibleStringType \&gt;">
<polygon fill="#ffffff" stroke="#000000" points="343,-953 343,-1005 478,-1005 478,-953 343,-953"/>
<text text-anchor="start" x="351" y="-993" font-family="Helvetica,sans-Serif" font-size="10.00" fill="#000000">nlohmann::detail::is</text>
<text text-anchor="start" x="351" y="-982" font-family="Helvetica,sans-Serif" font-size="10.00" fill="#000000">_constructible_string</text>
<text text-anchor="start" x="351" y="-971" font-family="Helvetica,sans-Serif" font-size="10.00" fill="#000000">_type&lt; BasicJsonType,</text>
<text text-anchor="middle" x="410.5" y="-960" font-family="Helvetica,sans-Serif" font-size="10.00" fill="#000000"> ConstructibleStringType &gt;</text>
</a>
</g>
</g>
<!-- Node308&#45;&gt;Node309 -->
<g id="edge16" class="edge">
<title>Node308&#45;&gt;Node309</title>
<path fill="none" stroke="#191970" d="M270.6442,-979C294.4385,-979 320.1338,-979 342.9283,-979"/>
<polygon fill="#191970" stroke="#191970" points="270.5771,-975.5001 260.577,-979 270.577,-982.5001 270.5771,-975.5001"/>
</g>
</g>
</svg>
