<?xml version="1.0" encoding="UTF-8" standalone="no"?>
<!DOCTYPE svg PUBLIC "-//W3C//DTD SVG 1.1//EN"
 "http://www.w3.org/Graphics/SVG/1.1/DTD/svg11.dtd">
<!-- Generated by graphviz version 2.40.1 (20161225.0304)
 -->
<!-- Title: non_local_operator.h Pages: 1 -->
<svg width="238pt" height="308pt"
 viewBox="0.00 0.00 237.87 308.00" xmlns="http://www.w3.org/2000/svg" xmlns:xlink="http://www.w3.org/1999/xlink">
<g id="graph0" class="graph" transform="scale(1 1) rotate(0) translate(4 304)">
<title>non_local_operator.h</title>
<polygon fill="#ffffff" stroke="transparent" points="-4,4 -4,-304 233.8691,-304 233.8691,4 -4,4"/>
<!-- Node120 -->
<g id="node1" class="node">
<title>Node120</title>
<polygon fill="#bfbfbf" stroke="#000000" points="101,-280.5 101,-299.5 211,-299.5 211,-280.5 101,-280.5"/>
<text text-anchor="middle" x="156" y="-287.5" font-family="Helvetica,sans-Serif" font-size="10.00" fill="#000000">non_local_operator.h</text>
</g>
<!-- Node121 -->
<g id="node2" class="node">
<title>Node121</title>
<g id="a_node2"><a xlink:href="band_8h.html" target="_top" xlink:title="Contains declaration and partial implementation of sirius::Band class. ">
<polygon fill="#ffffff" stroke="#000000" points="132.5,-224.5 132.5,-243.5 179.5,-243.5 179.5,-224.5 132.5,-224.5"/>
<text text-anchor="middle" x="156" y="-231.5" font-family="Helvetica,sans-Serif" font-size="10.00" fill="#000000">band.h</text>
</a>
</g>
</g>
<!-- Node120&#45;&gt;Node121 -->
<g id="edge1" class="edge">
<title>Node120&#45;&gt;Node121</title>
<path fill="none" stroke="#191970" d="M156,-270.1575C156,-261.155 156,-250.9199 156,-243.6427"/>
<polygon fill="#191970" stroke="#191970" points="152.5001,-270.2455 156,-280.2455 159.5001,-270.2456 152.5001,-270.2455"/>
</g>
<!-- Node122 -->
<g id="node3" class="node">
<title>Node122</title>
<g id="a_node3"><a xlink:href="add__nl__h__o__rs_8cpp_source.html" target="_top" xlink:title="add_nl_h_o_rs.cpp">
<polygon fill="#ffffff" stroke="#000000" points="12,-168.5 12,-187.5 114,-187.5 114,-168.5 12,-168.5"/>
<text text-anchor="middle" x="63" y="-175.5" font-family="Helvetica,sans-Serif" font-size="10.00" fill="#000000">add_nl_h_o_rs.cpp</text>
</a>
</g>
</g>
<!-- Node121&#45;&gt;Node122 -->
<g id="edge2" class="edge">
<title>Node121&#45;&gt;Node122</title>
<path fill="none" stroke="#191970" d="M131.1665,-219.0465C114.6189,-209.0824 93.3568,-196.2794 79.0137,-187.6427"/>
<polygon fill="#191970" stroke="#191970" points="129.4283,-222.0854 139.8006,-224.2455 133.0393,-216.0886 129.4283,-222.0854"/>
</g>
<!-- Node123 -->
<g id="node4" class="node">
<title>Node123</title>
<g id="a_node4"><a xlink:href="force_8h.html" target="_top" xlink:title="Contains definition of sirius::Force class. ">
<polygon fill="#ffffff" stroke="#000000" points="132.5,-168.5 132.5,-187.5 179.5,-187.5 179.5,-168.5 132.5,-168.5"/>
<text text-anchor="middle" x="156" y="-175.5" font-family="Helvetica,sans-Serif" font-size="10.00" fill="#000000">force.h</text>
</a>
</g>
</g>
<!-- Node121&#45;&gt;Node123 -->
<g id="edge3" class="edge">
<title>Node121&#45;&gt;Node123</title>
<path fill="none" stroke="#191970" d="M156,-214.1575C156,-205.155 156,-194.9199 156,-187.6427"/>
<polygon fill="#191970" stroke="#191970" points="152.5001,-214.2455 156,-224.2455 159.5001,-214.2456 152.5001,-214.2455"/>
</g>
<!-- Node125 -->
<g id="node6" class="node">
<title>Node125</title>
<g id="a_node6"><a xlink:href="sirius_8h.html" target="_top" xlink:title="&quot;All&#45;in&#45;one&quot; include file. ">
<polygon fill="#ffffff" stroke="#000000" points="104,-56.5 104,-75.5 152,-75.5 152,-56.5 104,-56.5"/>
<text text-anchor="middle" x="128" y="-63.5" font-family="Helvetica,sans-Serif" font-size="10.00" fill="#000000">sirius.h</text>
</a>
</g>
</g>
<!-- Node121&#45;&gt;Node125 -->
<g id="edge9" class="edge">
<title>Node121&#45;&gt;Node125</title>
<path fill="none" stroke="#191970" d="M176.5734,-217.6486C203.858,-193.9135 246.0297,-148.7386 223,-112 207.6222,-87.4682 175.0389,-75.6955 152.3459,-70.277"/>
<polygon fill="#191970" stroke="#191970" points="174.0729,-215.1783 168.6723,-224.2933 178.5784,-220.5356 174.0729,-215.1783"/>
</g>
<!-- Node124 -->
<g id="node5" class="node">
<title>Node124</title>
<g id="a_node5"><a xlink:href="dft__ground__state_8h.html" target="_top" xlink:title="Contains definition and partial implementation of sirius::DFT_ground_state class. ...">
<polygon fill="#ffffff" stroke="#000000" points="0,-112.5 0,-131.5 100,-131.5 100,-112.5 0,-112.5"/>
<text text-anchor="middle" x="50" y="-119.5" font-family="Helvetica,sans-Serif" font-size="10.00" fill="#000000">dft_ground_state.h</text>
</a>
</g>
</g>
<!-- Node123&#45;&gt;Node124 -->
<g id="edge4" class="edge">
<title>Node123&#45;&gt;Node124</title>
<path fill="none" stroke="#191970" d="M128.4778,-163.46C109.5092,-153.4388 84.8273,-140.3993 68.2522,-131.6427"/>
<polygon fill="#191970" stroke="#191970" points="127.0593,-166.669 137.5362,-168.2455 130.3292,-160.4796 127.0593,-166.669"/>
</g>
<!-- Node123&#45;&gt;Node125 -->
<g id="edge8" class="edge">
<title>Node123&#45;&gt;Node125</title>
<path fill="none" stroke="#191970" d="M151.1497,-158.5987C145.0907,-134.363 134.9638,-93.8551 130.3812,-75.5249"/>
<polygon fill="#191970" stroke="#191970" points="147.7918,-159.5984 153.6127,-168.4509 154.5828,-157.9006 147.7918,-159.5984"/>
</g>
<!-- Node127 -->
<g id="node8" class="node">
<title>Node127</title>
<g id="a_node8"><a xlink:href="force_8cpp.html" target="_top" xlink:title="Contains implementation of sirius::Force class. ">
<polygon fill="#ffffff" stroke="#000000" points="156,-112.5 156,-131.5 214,-131.5 214,-112.5 156,-112.5"/>
<text text-anchor="middle" x="185" y="-119.5" font-family="Helvetica,sans-Serif" font-size="10.00" fill="#000000">force.cpp</text>
</a>
</g>
</g>
<!-- Node123&#45;&gt;Node127 -->
<g id="edge7" class="edge">
<title>Node123&#45;&gt;Node127</title>
<path fill="none" stroke="#191970" d="M165.6647,-159.3372C170.4687,-150.0605 176.0723,-139.2398 180.0065,-131.6427"/>
<polygon fill="#191970" stroke="#191970" points="162.542,-157.7561 161.0514,-168.2455 168.758,-160.9751 162.542,-157.7561"/>
</g>
<!-- Node124&#45;&gt;Node125 -->
<g id="edge5" class="edge">
<title>Node124&#45;&gt;Node125</title>
<path fill="none" stroke="#191970" d="M71.9936,-106.2097C85.6929,-96.3743 102.8736,-84.0394 114.5691,-75.6427"/>
<polygon fill="#191970" stroke="#191970" points="69.6686,-103.5703 63.5866,-112.2455 73.7511,-109.2566 69.6686,-103.5703"/>
</g>
<!-- Node126 -->
<g id="node7" class="node">
<title>Node126</title>
<g id="a_node7"><a xlink:href="sirius__api_8cpp.html" target="_top" xlink:title="Fortran API. ">
<polygon fill="#ffffff" stroke="#000000" points="89,-.5 89,-19.5 167,-19.5 167,-.5 89,-.5"/>
<text text-anchor="middle" x="128" y="-7.5" font-family="Helvetica,sans-Serif" font-size="10.00" fill="#000000">sirius_api.cpp</text>
</a>
</g>
</g>
<!-- Node125&#45;&gt;Node126 -->
<g id="edge6" class="edge">
<title>Node125&#45;&gt;Node126</title>
<path fill="none" stroke="#191970" d="M128,-46.1575C128,-37.155 128,-26.9199 128,-19.6427"/>
<polygon fill="#191970" stroke="#191970" points="124.5001,-46.2455 128,-56.2455 131.5001,-46.2456 124.5001,-46.2455"/>
</g>
</g>
</svg>
