<?xml version="1.0" encoding="UTF-8" standalone="no"?>
<!DOCTYPE svg PUBLIC "-//W3C//DTD SVG 1.1//EN"
 "http://www.w3.org/Graphics/SVG/1.1/DTD/svg11.dtd">
<!-- Generated by graphviz version 2.40.1 (20161225.0304)
 -->
<!-- Title: potential.h Pages: 1 -->
<svg width="456pt" height="308pt"
 viewBox="0.00 0.00 456.40 308.00" xmlns="http://www.w3.org/2000/svg" xmlns:xlink="http://www.w3.org/1999/xlink">
<g id="graph0" class="graph" transform="scale(1 1) rotate(0) translate(4 304)">
<title>potential.h</title>
<polygon fill="#ffffff" stroke="transparent" points="-4,4 -4,-304 452.4045,-304 452.4045,4 -4,4"/>
<!-- Node142 -->
<g id="node1" class="node">
<title>Node142</title>
<polygon fill="#bfbfbf" stroke="#000000" points="172.4045,-280.5 172.4045,-299.5 235.4045,-299.5 235.4045,-280.5 172.4045,-280.5"/>
<text text-anchor="middle" x="203.9045" y="-287.5" font-family="Helvetica,sans-Serif" font-size="10.00" fill="#000000">potential.h</text>
</g>
<!-- Node143 -->
<g id="node2" class="node">
<title>Node143</title>
<g id="a_node2"><a xlink:href="band_8h.html" target="_top" xlink:title="Contains declaration and partial implementation of sirius::Band class. ">
<polygon fill="#ffffff" stroke="#000000" points="125.4045,-224.5 125.4045,-243.5 172.4045,-243.5 172.4045,-224.5 125.4045,-224.5"/>
<text text-anchor="middle" x="148.9045" y="-231.5" font-family="Helvetica,sans-Serif" font-size="10.00" fill="#000000">band.h</text>
</a>
</g>
</g>
<!-- Node142&#45;&gt;Node143 -->
<g id="edge1" class="edge">
<title>Node142&#45;&gt;Node143</title>
<path fill="none" stroke="#191970" d="M187.2818,-273.0751C177.819,-263.4402 166.3076,-251.7196 158.3749,-243.6427"/>
<polygon fill="#191970" stroke="#191970" points="184.82,-275.5635 194.3242,-280.2455 189.8142,-270.6585 184.82,-275.5635"/>
</g>
<!-- Node145 -->
<g id="node4" class="node">
<title>Node145</title>
<g id="a_node4"><a xlink:href="force_8h.html" target="_top" xlink:title="Contains definition of sirius::Force class. ">
<polygon fill="#ffffff" stroke="#000000" points="180.4045,-168.5 180.4045,-187.5 227.4045,-187.5 227.4045,-168.5 180.4045,-168.5"/>
<text text-anchor="middle" x="203.9045" y="-175.5" font-family="Helvetica,sans-Serif" font-size="10.00" fill="#000000">force.h</text>
</a>
</g>
</g>
<!-- Node142&#45;&gt;Node145 -->
<g id="edge11" class="edge">
<title>Node142&#45;&gt;Node145</title>
<path fill="none" stroke="#191970" d="M203.9045,-270.2702C203.9045,-245.9985 203.9045,-205.7725 203.9045,-187.5249"/>
<polygon fill="#191970" stroke="#191970" points="200.4046,-270.4509 203.9045,-280.4509 207.4046,-270.451 200.4046,-270.4509"/>
</g>
<!-- Node146 -->
<g id="node5" class="node">
<title>Node146</title>
<g id="a_node5"><a xlink:href="dft__ground__state_8h.html" target="_top" xlink:title="Contains definition and partial implementation of sirius::DFT_ground_state class. ...">
<polygon fill="#ffffff" stroke="#000000" points="285.9045,-112.5 285.9045,-131.5 385.9045,-131.5 385.9045,-112.5 285.9045,-112.5"/>
<text text-anchor="middle" x="335.9045" y="-119.5" font-family="Helvetica,sans-Serif" font-size="10.00" fill="#000000">dft_ground_state.h</text>
</a>
</g>
</g>
<!-- Node142&#45;&gt;Node146 -->
<g id="edge10" class="edge">
<title>Node142&#45;&gt;Node146</title>
<path fill="none" stroke="#191970" d="M217.617,-272.5477C245.1908,-237.4538 306.5591,-159.3486 328.1826,-131.8279"/>
<polygon fill="#191970" stroke="#191970" points="214.8057,-270.4606 211.3796,-280.4862 220.3099,-274.7854 214.8057,-270.4606"/>
</g>
<!-- Node147 -->
<g id="node6" class="node">
<title>Node147</title>
<g id="a_node6"><a xlink:href="sirius_8h.html" target="_top" xlink:title="&quot;All&#45;in&#45;one&quot; include file. ">
<polygon fill="#ffffff" stroke="#000000" points="138.9045,-56.5 138.9045,-75.5 186.9045,-75.5 186.9045,-56.5 138.9045,-56.5"/>
<text text-anchor="middle" x="162.9045" y="-63.5" font-family="Helvetica,sans-Serif" font-size="10.00" fill="#000000">sirius.h</text>
</a>
</g>
</g>
<!-- Node142&#45;&gt;Node147 -->
<g id="edge15" class="edge">
<title>Node142&#45;&gt;Node147</title>
<path fill="none" stroke="#191970" d="M162.1295,-281.7578C115.0067,-269.9829 40.5641,-243.3316 6.9045,-188 -28.8333,-129.2522 86.484,-87.8349 138.6455,-72.5261"/>
<polygon fill="#191970" stroke="#191970" points="161.4956,-285.2046 172.0343,-284.1149 163.1163,-278.3948 161.4956,-285.2046"/>
</g>
<!-- Node150 -->
<g id="node9" class="node">
<title>Node150</title>
<g id="a_node9"><a xlink:href="_forces___p_s_8h_source.html" target="_top" xlink:title="Forces_PS.h">
<polygon fill="#ffffff" stroke="#000000" points="297.9045,-224.5 297.9045,-243.5 371.9045,-243.5 371.9045,-224.5 297.9045,-224.5"/>
<text text-anchor="middle" x="334.9045" y="-231.5" font-family="Helvetica,sans-Serif" font-size="10.00" fill="#000000">Forces_PS.h</text>
</a>
</g>
</g>
<!-- Node142&#45;&gt;Node150 -->
<g id="edge12" class="edge">
<title>Node142&#45;&gt;Node150</title>
<path fill="none" stroke="#191970" d="M235.7578,-276.3833C259.5829,-266.1985 291.5612,-252.5284 312.6786,-243.5011"/>
<polygon fill="#191970" stroke="#191970" points="234.2435,-273.2242 226.4242,-280.3733 236.995,-279.6608 234.2435,-273.2242"/>
</g>
<!-- Node144 -->
<g id="node3" class="node">
<title>Node144</title>
<g id="a_node3"><a xlink:href="add__nl__h__o__rs_8cpp_source.html" target="_top" xlink:title="add_nl_h_o_rs.cpp">
<polygon fill="#ffffff" stroke="#000000" points="15.9045,-168.5 15.9045,-187.5 117.9045,-187.5 117.9045,-168.5 15.9045,-168.5"/>
<text text-anchor="middle" x="66.9045" y="-175.5" font-family="Helvetica,sans-Serif" font-size="10.00" fill="#000000">add_nl_h_o_rs.cpp</text>
</a>
</g>
</g>
<!-- Node143&#45;&gt;Node144 -->
<g id="edge2" class="edge">
<title>Node143&#45;&gt;Node144</title>
<path fill="none" stroke="#191970" d="M126.1935,-218.49C111.7257,-208.6096 93.4365,-196.1194 81.0241,-187.6427"/>
<polygon fill="#191970" stroke="#191970" points="124.3892,-221.4962 134.6212,-224.2455 128.337,-215.7156 124.3892,-221.4962"/>
</g>
<!-- Node143&#45;&gt;Node145 -->
<g id="edge3" class="edge">
<title>Node143&#45;&gt;Node145</title>
<path fill="none" stroke="#191970" d="M165.5271,-217.0751C174.99,-207.4402 186.5013,-195.7196 194.434,-187.6427"/>
<polygon fill="#191970" stroke="#191970" points="162.9948,-214.6585 158.4847,-224.2455 167.9889,-219.5635 162.9948,-214.6585"/>
</g>
<!-- Node143&#45;&gt;Node147 -->
<g id="edge9" class="edge">
<title>Node143&#45;&gt;Node147</title>
<path fill="none" stroke="#191970" d="M150.5495,-214.2601C153.5572,-178.1669 159.8407,-102.7656 162.0855,-75.8279"/>
<polygon fill="#191970" stroke="#191970" points="147.0399,-214.2301 149.6973,-224.4862 154.0157,-214.8115 147.0399,-214.2301"/>
</g>
<!-- Node145&#45;&gt;Node146 -->
<g id="edge4" class="edge">
<title>Node145&#45;&gt;Node146</title>
<path fill="none" stroke="#191970" d="M236.001,-164.3833C260.008,-154.1985 292.2304,-140.5284 313.509,-131.5011"/>
<polygon fill="#191970" stroke="#191970" points="234.435,-161.2457 226.5961,-168.3733 237.1688,-167.6897 234.435,-161.2457"/>
</g>
<!-- Node145&#45;&gt;Node147 -->
<g id="edge8" class="edge">
<title>Node145&#45;&gt;Node147</title>
<path fill="none" stroke="#191970" d="M196.9217,-158.9253C188.0639,-134.7284 173.1316,-93.9376 166.3913,-75.5249"/>
<polygon fill="#191970" stroke="#191970" points="193.6844,-160.2636 200.4088,-168.4509 200.2578,-157.8572 193.6844,-160.2636"/>
</g>
<!-- Node149 -->
<g id="node8" class="node">
<title>Node149</title>
<g id="a_node8"><a xlink:href="force_8cpp.html" target="_top" xlink:title="Contains implementation of sirius::Force class. ">
<polygon fill="#ffffff" stroke="#000000" points="209.9045,-112.5 209.9045,-131.5 267.9045,-131.5 267.9045,-112.5 209.9045,-112.5"/>
<text text-anchor="middle" x="238.9045" y="-119.5" font-family="Helvetica,sans-Serif" font-size="10.00" fill="#000000">force.cpp</text>
</a>
</g>
</g>
<!-- Node145&#45;&gt;Node149 -->
<g id="edge7" class="edge">
<title>Node145&#45;&gt;Node149</title>
<path fill="none" stroke="#191970" d="M215.386,-159.6296C221.224,-150.2887 228.0796,-139.3197 232.8778,-131.6427"/>
<polygon fill="#191970" stroke="#191970" points="212.333,-157.9105 210.001,-168.2455 218.269,-161.6206 212.333,-157.9105"/>
</g>
<!-- Node146&#45;&gt;Node147 -->
<g id="edge5" class="edge">
<title>Node146&#45;&gt;Node147</title>
<path fill="none" stroke="#191970" d="M296.6101,-109.2804C262.8756,-98.3606 215.3333,-82.9712 186.9672,-73.7891"/>
<polygon fill="#191970" stroke="#191970" points="295.5728,-112.6234 306.1647,-112.3733 297.7286,-105.9636 295.5728,-112.6234"/>
</g>
<!-- Node148 -->
<g id="node7" class="node">
<title>Node148</title>
<g id="a_node7"><a xlink:href="sirius__api_8cpp.html" target="_top" xlink:title="Fortran API. ">
<polygon fill="#ffffff" stroke="#000000" points="123.9045,-.5 123.9045,-19.5 201.9045,-19.5 201.9045,-.5 123.9045,-.5"/>
<text text-anchor="middle" x="162.9045" y="-7.5" font-family="Helvetica,sans-Serif" font-size="10.00" fill="#000000">sirius_api.cpp</text>
</a>
</g>
</g>
<!-- Node147&#45;&gt;Node148 -->
<g id="edge6" class="edge">
<title>Node147&#45;&gt;Node148</title>
<path fill="none" stroke="#191970" d="M162.9045,-46.1575C162.9045,-37.155 162.9045,-26.9199 162.9045,-19.6427"/>
<polygon fill="#191970" stroke="#191970" points="159.4046,-46.2455 162.9045,-56.2455 166.4046,-46.2456 159.4046,-46.2455"/>
</g>
<!-- Node150&#45;&gt;Node146 -->
<g id="edge13" class="edge">
<title>Node150&#45;&gt;Node146</title>
<path fill="none" stroke="#191970" d="M335.0806,-214.2702C335.2973,-189.9985 335.6565,-149.7725 335.8194,-131.5249"/>
<polygon fill="#191970" stroke="#191970" points="331.5792,-214.4201 334.9897,-224.4509 338.579,-214.4826 331.5792,-214.4201"/>
</g>
<!-- Node151 -->
<g id="node10" class="node">
<title>Node151</title>
<g id="a_node10"><a xlink:href="_forces___p_s_8cpp_source.html" target="_top" xlink:title="Forces_PS.cpp">
<polygon fill="#ffffff" stroke="#000000" points="363.4045,-168.5 363.4045,-187.5 448.4045,-187.5 448.4045,-168.5 363.4045,-168.5"/>
<text text-anchor="middle" x="405.9045" y="-175.5" font-family="Helvetica,sans-Serif" font-size="10.00" fill="#000000">Forces_PS.cpp</text>
</a>
</g>
</g>
<!-- Node150&#45;&gt;Node151 -->
<g id="edge14" class="edge">
<title>Node150&#45;&gt;Node151</title>
<path fill="none" stroke="#191970" d="M355.2814,-217.928C367.6916,-208.1397 383.1344,-195.9595 393.6789,-187.6427"/>
<polygon fill="#191970" stroke="#191970" points="352.9559,-215.3046 347.2717,-224.2455 357.2909,-220.8007 352.9559,-215.3046"/>
</g>
</g>
</svg>
