<?xml version="1.0" encoding="UTF-8" standalone="no"?>
<!DOCTYPE svg PUBLIC "-//W3C//DTD SVG 1.1//EN"
 "http://www.w3.org/Graphics/SVG/1.1/DTD/svg11.dtd">
<!-- Generated by graphviz version 2.40.1 (20161225.0304)
 -->
<!-- Title: radial_solver.h Pages: 1 -->
<!--zoomable 1103 -->
<svg id="main" version="1.1" xmlns="http://www.w3.org/2000/svg" xmlns:xlink="http://www.w3.org/1999/xlink" xml:space="preserve" onload="init(evt)">
<style type="text/css"><![CDATA[
.edge:hover path { stroke: red; }
.edge:hover polygon { stroke: red; fill: red; }
]]></style>
<script type="text/javascript"><![CDATA[
var edges = document.getElementsByTagName('g');
if (edges && edges.length) {
  for (var i=0;i<edges.length;i++) {
    if (edges[i].id.substr(0,4)=='edge') {
      edges[i].setAttribute('class','edge');
    }
  }
}
]]></script>
        <defs>
                <circle id="rim" cx="0" cy="0" r="7"/>
                <circle id="rim2" cx="0" cy="0" r="3.5"/>
                <g id="zoomPlus">
                        <use xlink:href="#rim" fill="#404040">
                                <set attributeName="fill" to="#808080" begin="zoomplus.mouseover" end="zoomplus.mouseout"/>
                        </use>
                        <path d="M-4,0h8M0,-4v8" fill="none" stroke="white" stroke-width="1.5" pointer-events="none"/>
                </g>
                <g id="zoomMin">
                        <use xlink:href="#rim" fill="#404040">
                                <set attributeName="fill" to="#808080" begin="zoomminus.mouseover" end="zoomminus.mouseout"/>
                        </use>
                        <path d="M-4,0h8" fill="none" stroke="white" stroke-width="1.5" pointer-events="none"/>
                </g>
                <g id="dirArrow">
                        <path fill="none" stroke="white" stroke-width="1.5" d="M0,-3.0v7 M-2.5,-0.5L0,-3.0L2.5,-0.5"/>
                </g>
               <g id="resetDef">
                       <use xlink:href="#rim2" fill="#404040">
                               <set attributeName="fill" to="#808080" begin="reset.mouseover" end="reset.mouseout"/>
                       </use>
               </g>
        </defs>

<script type="text/javascript">
var viewWidth = 1225;
var viewHeight = 1103;
var sectionId = 'dynsection-1';
</script>
<script xlink:href="svgpan.js"/>
<svg id="graph" class="graph">
<g id="viewport">
<title>radial_solver.h</title>
<polygon fill="#ffffff" stroke="transparent" points="-4,4 -4,-1099 1220.8021,-1099 1220.8021,4 -4,4"/>
<!-- Node5 -->
<g id="node1" class="node">
<title>Node5</title>
<polygon fill="#bfbfbf" stroke="#000000" points="705.5,-1075.5 705.5,-1094.5 787.5,-1094.5 787.5,-1075.5 705.5,-1075.5"/>
<text text-anchor="middle" x="746.5" y="-1082.5" font-family="Helvetica,sans-Serif" font-size="10.00" fill="#000000">radial_solver.h</text>
</g>
<!-- Node6 -->
<g id="node2" class="node">
<title>Node6</title>
<g id="a_node2"><a xlink:href="atom__type_8h.html" target="_top" xlink:title="Contains definition of sirius::radial_functions_index and sirius::basis_functions_index classes and d...">
<polygon fill="#ffffff" stroke="#000000" points="336.5,-1019.5 336.5,-1038.5 408.5,-1038.5 408.5,-1019.5 336.5,-1019.5"/>
<text text-anchor="middle" x="372.5" y="-1026.5" font-family="Helvetica,sans-Serif" font-size="10.00" fill="#000000">atom_type.h</text>
</a>
</g>
</g>
<!-- Node5&#45;&gt;Node6 -->
<g id="edge1" class="edge">
<title>Node5&#45;&gt;Node6</title>
<path fill="none" stroke="#191970" d="M695.4869,-1077.3617C618.767,-1065.8742 475.559,-1044.4313 408.6659,-1034.4152"/>
<polygon fill="#191970" stroke="#191970" points="694.9975,-1080.8273 705.4056,-1078.8468 696.0342,-1073.9045 694.9975,-1080.8273"/>
</g>
<!-- Node17 -->
<g id="node13" class="node">
<title>Node17</title>
<g id="a_node13"><a xlink:href="sirius_8h.html" target="_top" xlink:title="&quot;All&#45;in&#45;one&quot; include file. ">
<polygon fill="#ffffff" stroke="#000000" points="363.5,-56.5 363.5,-75.5 411.5,-75.5 411.5,-56.5 363.5,-56.5"/>
<text text-anchor="middle" x="387.5" y="-63.5" font-family="Helvetica,sans-Serif" font-size="10.00" fill="#000000">sirius.h</text>
</a>
</g>
</g>
<!-- Node5&#45;&gt;Node17 -->
<g id="edge75" class="edge">
<title>Node5&#45;&gt;Node17</title>
<path fill="none" stroke="#191970" d="M797.7802,-1082.2751C910.8255,-1074.8669 1171.5,-1049.4911 1171.5,-973 1171.5,-973 1171.5,-973 1171.5,-178 1171.5,-167.0618 1344.9359,-190.6124 1010.5,-112 893.4419,-84.4844 511.7276,-70.1226 411.6845,-66.7723"/>
<polygon fill="#191970" stroke="#191970" points="797.3957,-1078.7924 787.6369,-1082.9174 797.8382,-1085.7784 797.3957,-1078.7924"/>
</g>
<!-- Node7 -->
<g id="node3" class="node">
<title>Node7</title>
<g id="a_node3"><a xlink:href="atom_8h.html" target="_top" xlink:title="Contains declaration and partial implementation of sirius::Atom class. ">
<polygon fill="#ffffff" stroke="#000000" points="0,-907.5 0,-926.5 47,-926.5 47,-907.5 0,-907.5"/>
<text text-anchor="middle" x="23.5" y="-914.5" font-family="Helvetica,sans-Serif" font-size="10.00" fill="#000000">atom.h</text>
</a>
</g>
</g>
<!-- Node6&#45;&gt;Node7 -->
<g id="edge2" class="edge">
<title>Node6&#45;&gt;Node7</title>
<path fill="none" stroke="#191970" d="M326.2912,-1022.6009C281.9248,-1015.659 213.4353,-1002.8352 156.5,-983 112.4408,-967.6506 64.1983,-941.0133 39.7128,-926.7229"/>
<polygon fill="#191970" stroke="#191970" points="325.7888,-1026.0647 336.203,-1024.1166 326.847,-1019.1451 325.7888,-1026.0647"/>
</g>
<!-- Node8 -->
<g id="node4" class="node">
<title>Node8</title>
<g id="a_node4"><a xlink:href="unit__cell_8h.html" target="_top" xlink:title="Contains definition and partial implementation of sirius::Unit_cell class. ">
<polygon fill="#ffffff" stroke="#000000" points="341.5,-851.5 341.5,-870.5 403.5,-870.5 403.5,-851.5 341.5,-851.5"/>
<text text-anchor="middle" x="372.5" y="-858.5" font-family="Helvetica,sans-Serif" font-size="10.00" fill="#000000">unit_cell.h</text>
</a>
</g>
</g>
<!-- Node6&#45;&gt;Node8 -->
<g id="edge73" class="edge">
<title>Node6&#45;&gt;Node8</title>
<path fill="none" stroke="#191970" d="M372.5,-1009.2601C372.5,-973.1669 372.5,-897.7656 372.5,-870.8279"/>
<polygon fill="#191970" stroke="#191970" points="369.0001,-1009.4862 372.5,-1019.4862 376.0001,-1009.4863 369.0001,-1009.4862"/>
</g>
<!-- Node6&#45;&gt;Node17 -->
<g id="edge74" class="edge">
<title>Node6&#45;&gt;Node17</title>
<path fill="none" stroke="#191970" d="M419.0152,-1027.0869C584.3085,-1019.6794 1133.5,-989.6047 1133.5,-917 1133.5,-917 1133.5,-917 1133.5,-178 1133.5,-103.2679 540.4648,-72.7635 411.8966,-67.0284"/>
<polygon fill="#191970" stroke="#191970" points="418.5287,-1023.6049 408.6927,-1027.5422 418.8372,-1030.5981 418.5287,-1023.6049"/>
</g>
<!-- Node35 -->
<g id="node31" class="node">
<title>Node35</title>
<g id="a_node31"><a xlink:href="atom__symmetry__class_8h.html" target="_top" xlink:title="Contains declaration and partial implementation of sirius::Atom_symmetry_class class. ">
<polygon fill="#ffffff" stroke="#000000" points="165.5,-963.5 165.5,-982.5 289.5,-982.5 289.5,-963.5 165.5,-963.5"/>
<text text-anchor="middle" x="227.5" y="-970.5" font-family="Helvetica,sans-Serif" font-size="10.00" fill="#000000">atom_symmetry_class.h</text>
</a>
</g>
</g>
<!-- Node6&#45;&gt;Node35 -->
<g id="edge69" class="edge">
<title>Node6&#45;&gt;Node35</title>
<path fill="none" stroke="#191970" d="M337.9435,-1015.6541C311.5014,-1005.4419 275.6831,-991.6086 252.1011,-982.5011"/>
<polygon fill="#191970" stroke="#191970" points="336.9842,-1019.0354 347.5736,-1019.3733 339.5061,-1012.5055 336.9842,-1019.0354"/>
</g>
<!-- Node7&#45;&gt;Node8 -->
<g id="edge3" class="edge">
<title>Node7&#45;&gt;Node8</title>
<path fill="none" stroke="#191970" d="M57.331,-911.5715C124.9942,-900.7144 276.096,-876.4688 341.4231,-865.9865"/>
<polygon fill="#191970" stroke="#191970" points="56.533,-908.1547 47.2138,-913.1949 57.642,-915.0663 56.533,-908.1547"/>
</g>
<!-- Node7&#45;&gt;Node17 -->
<g id="edge68" class="edge">
<title>Node7&#45;&gt;Node17</title>
<path fill="none" stroke="#191970" d="M23.5,-897.1952C23.5,-874.8128 23.5,-837.2884 23.5,-805 23.5,-805 23.5,-805 23.5,-178 23.5,-146.7875 23.1957,-131.5838 47.5,-112 72.1114,-92.1688 289.6313,-73.6009 363.2601,-67.8337"/>
<polygon fill="#191970" stroke="#191970" points="20.0001,-897.4116 23.5,-907.4116 27.0001,-897.4117 20.0001,-897.4116"/>
</g>
<!-- Node9 -->
<g id="node5" class="node">
<title>Node9</title>
<g id="a_node5"><a xlink:href="radial__integrals_8h.html" target="_top" xlink:title="Representation of various radial integrals. ">
<polygon fill="#ffffff" stroke="#000000" points="498,-739.5 498,-758.5 591,-758.5 591,-739.5 498,-739.5"/>
<text text-anchor="middle" x="544.5" y="-746.5" font-family="Helvetica,sans-Serif" font-size="10.00" fill="#000000">radial_integrals.h</text>
</a>
</g>
</g>
<!-- Node8&#45;&gt;Node9 -->
<g id="edge4" class="edge">
<title>Node8&#45;&gt;Node9</title>
<path fill="none" stroke="#191970" d="M395.5663,-845.9801C431.5324,-822.5603 499.9474,-778.011 529.8725,-758.5249"/>
<polygon fill="#191970" stroke="#191970" points="393.6347,-843.0612 387.1646,-851.4509 397.4545,-848.9272 393.6347,-843.0612"/>
</g>
<!-- Node8&#45;&gt;Node17 -->
<g id="edge67" class="edge">
<title>Node8&#45;&gt;Node17</title>
<path fill="none" stroke="#191970" d="M331.2323,-853.0124C254.931,-837.0557 99.5,-798.4785 99.5,-749 99.5,-749 99.5,-749 99.5,-178 99.5,-138.9495 123.6815,-131.5256 157.5,-112 192.501,-91.7916 311.5061,-75.2654 363.1997,-68.861"/>
<polygon fill="#191970" stroke="#191970" points="330.9493,-856.5273 341.4492,-855.1126 332.3588,-849.6706 330.9493,-856.5273"/>
</g>
<!-- Node27 -->
<g id="node23" class="node">
<title>Node27</title>
<g id="a_node23"><a xlink:href="beta__projectors_8h.html" target="_top" xlink:title="Contains declaration and implementation of sirius::Beta_projectors class. ">
<polygon fill="#ffffff" stroke="#000000" points="931.5,-504.5 931.5,-523.5 1025.5,-523.5 1025.5,-504.5 931.5,-504.5"/>
<text text-anchor="middle" x="978.5" y="-511.5" font-family="Helvetica,sans-Serif" font-size="10.00" fill="#000000">beta_projectors.h</text>
</a>
</g>
</g>
<!-- Node8&#45;&gt;Node27 -->
<g id="edge64" class="edge">
<title>Node8&#45;&gt;Node27</title>
<path fill="none" stroke="#191970" d="M413.9445,-857.7568C550.7824,-846.5012 979.5,-806.6378 979.5,-749 979.5,-749 979.5,-749 979.5,-626 979.5,-588.0818 978.9198,-542.9455 978.6433,-523.5881"/>
<polygon fill="#191970" stroke="#191970" points="413.5398,-854.2781 403.8568,-858.5781 414.1078,-861.255 413.5398,-854.2781"/>
</g>
<!-- Node32 -->
<g id="node28" class="node">
<title>Node32</title>
<g id="a_node28"><a xlink:href="sbessel_8h.html" target="_top" xlink:title="Contains implementation of sirius::Spherical_Bessel_functions and sirius::sbessel_approx classes...">
<polygon fill="#ffffff" stroke="#000000" points="515,-795.5 515,-814.5 574,-814.5 574,-795.5 515,-795.5"/>
<text text-anchor="middle" x="544.5" y="-802.5" font-family="Helvetica,sans-Serif" font-size="10.00" fill="#000000">sbessel.h</text>
</a>
</g>
</g>
<!-- Node8&#45;&gt;Node32 -->
<g id="edge61" class="edge">
<title>Node8&#45;&gt;Node32</title>
<path fill="none" stroke="#191970" d="M411.8435,-848.1905C443.3551,-837.9309 486.8519,-823.7691 515.318,-814.5011"/>
<polygon fill="#191970" stroke="#191970" points="410.493,-844.9493 402.0679,-851.3733 412.6601,-851.6054 410.493,-844.9493"/>
</g>
<!-- Node33 -->
<g id="node29" class="node">
<title>Node33</title>
<g id="a_node29"><a xlink:href="real__space__prj_8h_source.html" target="_top" xlink:title="real_space_prj.h">
<polygon fill="#ffffff" stroke="#000000" points="327.5,-795.5 327.5,-814.5 417.5,-814.5 417.5,-795.5 327.5,-795.5"/>
<text text-anchor="middle" x="372.5" y="-802.5" font-family="Helvetica,sans-Serif" font-size="10.00" fill="#000000">real_space_prj.h</text>
</a>
</g>
</g>
<!-- Node8&#45;&gt;Node33 -->
<g id="edge65" class="edge">
<title>Node8&#45;&gt;Node33</title>
<path fill="none" stroke="#191970" d="M372.5,-841.1575C372.5,-832.155 372.5,-821.9199 372.5,-814.6427"/>
<polygon fill="#191970" stroke="#191970" points="369.0001,-841.2455 372.5,-851.2455 376.0001,-841.2456 369.0001,-841.2455"/>
</g>
<!-- Node10 -->
<g id="node6" class="node">
<title>Node10</title>
<g id="a_node6"><a xlink:href="augmentation__operator_8h.html" target="_top" xlink:title="Contains implementation of sirius::Augmentation_operator class. ">
<polygon fill="#ffffff" stroke="#000000" points="579.5,-616.5 579.5,-635.5 707.5,-635.5 707.5,-616.5 579.5,-616.5"/>
<text text-anchor="middle" x="643.5" y="-623.5" font-family="Helvetica,sans-Serif" font-size="10.00" fill="#000000">augmentation_operator.h</text>
</a>
</g>
</g>
<!-- Node9&#45;&gt;Node10 -->
<g id="edge5" class="edge">
<title>Node9&#45;&gt;Node10</title>
<path fill="none" stroke="#191970" d="M558.7153,-731.3386C579.9355,-704.9741 619.1735,-656.2238 635.7677,-635.6068"/>
<polygon fill="#191970" stroke="#191970" points="555.8119,-729.3637 552.2684,-739.3484 561.265,-733.7528 555.8119,-729.3637"/>
</g>
<!-- Node11 -->
<g id="node7" class="node">
<title>Node11</title>
<g id="a_node7"><a xlink:href="simulation__context_8h.html" target="_top" xlink:title="Contains definition and implementation of Simulation_parameters and Simulation_context classes...">
<polygon fill="#ffffff" stroke="#000000" points="500.5,-560.5 500.5,-579.5 608.5,-579.5 608.5,-560.5 500.5,-560.5"/>
<text text-anchor="middle" x="554.5" y="-567.5" font-family="Helvetica,sans-Serif" font-size="10.00" fill="#000000">simulation_context.h</text>
</a>
</g>
</g>
<!-- Node9&#45;&gt;Node11 -->
<g id="edge60" class="edge">
<title>Node9&#45;&gt;Node11</title>
<path fill="none" stroke="#191970" d="M545.6177,-728.9935C547.7625,-690.602 552.3827,-607.8992 553.9597,-579.6714"/>
<polygon fill="#191970" stroke="#191970" points="542.101,-729.1965 545.0376,-739.3762 549.0901,-729.587 542.101,-729.1965"/>
</g>
<!-- Node30 -->
<g id="node26" class="node">
<title>Node30</title>
<g id="a_node26"><a xlink:href="simulation__context__base_8h.html" target="_top" xlink:title="Contains definition and implementation of Simulation_context_base class. ">
<polygon fill="#ffffff" stroke="#000000" points="424,-672.5 424,-702.5 523,-702.5 523,-672.5 424,-672.5"/>
<text text-anchor="start" x="432" y="-690.5" font-family="Helvetica,sans-Serif" font-size="10.00" fill="#000000">simulation_context</text>
<text text-anchor="middle" x="473.5" y="-679.5" font-family="Helvetica,sans-Serif" font-size="10.00" fill="#000000">_base.h</text>
</a>
</g>
</g>
<!-- Node9&#45;&gt;Node30 -->
<g id="edge56" class="edge">
<title>Node9&#45;&gt;Node30</title>
<path fill="none" stroke="#191970" d="M525.7556,-732.7637C514.9432,-723.398 501.4398,-711.7014 490.8686,-702.5446"/>
<polygon fill="#191970" stroke="#191970" points="523.556,-735.4888 533.4063,-739.3906 528.1391,-730.1978 523.556,-735.4888"/>
</g>
<!-- Node10&#45;&gt;Node11 -->
<g id="edge6" class="edge">
<title>Node10&#45;&gt;Node11</title>
<path fill="none" stroke="#191970" d="M619.2936,-610.769C603.5225,-600.8456 583.424,-588.1994 569.825,-579.6427"/>
<polygon fill="#191970" stroke="#191970" points="617.6695,-613.8823 627.9974,-616.2455 621.3974,-607.9575 617.6695,-613.8823"/>
</g>
<!-- Node24 -->
<g id="node20" class="node">
<title>Node24</title>
<g id="a_node20"><a xlink:href="_forces___p_s_8h_source.html" target="_top" xlink:title="Forces_PS.h">
<polygon fill="#ffffff" stroke="#000000" points="753.5,-224.5 753.5,-243.5 827.5,-243.5 827.5,-224.5 753.5,-224.5"/>
<text text-anchor="middle" x="790.5" y="-231.5" font-family="Helvetica,sans-Serif" font-size="10.00" fill="#000000">Forces_PS.h</text>
</a>
</g>
</g>
<!-- Node10&#45;&gt;Node24 -->
<g id="edge55" class="edge">
<title>Node10&#45;&gt;Node24</title>
<path fill="none" stroke="#191970" d="M697.8277,-614.1378C774.0448,-595.9007 903.5,-558.3911 903.5,-514 903.5,-514 903.5,-514 903.5,-346 903.5,-295.1762 845.124,-259.5522 812.2875,-243.534"/>
<polygon fill="#191970" stroke="#191970" points="696.8311,-610.7767 687.9002,-616.4765 698.4363,-617.5901 696.8311,-610.7767"/>
</g>
<!-- Node12 -->
<g id="node8" class="node">
<title>Node12</title>
<g id="a_node8"><a xlink:href="periodic__function_8h.html" target="_top" xlink:title="Contains declaration and partial implementation of sirius::Periodic_function class. ">
<polygon fill="#ffffff" stroke="#000000" points="325.5,-504.5 325.5,-523.5 425.5,-523.5 425.5,-504.5 325.5,-504.5"/>
<text text-anchor="middle" x="375.5" y="-511.5" font-family="Helvetica,sans-Serif" font-size="10.00" fill="#000000">periodic_function.h</text>
</a>
</g>
</g>
<!-- Node11&#45;&gt;Node12 -->
<g id="edge7" class="edge">
<title>Node11&#45;&gt;Node12</title>
<path fill="none" stroke="#191970" d="M513.9805,-557.3235C481.1534,-547.0536 435.6224,-532.8093 405.8697,-523.5011"/>
<polygon fill="#191970" stroke="#191970" points="513.1399,-560.7278 523.7288,-560.3733 515.23,-554.0471 513.1399,-560.7278"/>
</g>
<!-- Node22 -->
<g id="node18" class="node">
<title>Node22</title>
<g id="a_node18"><a xlink:href="density_8h.html" target="_top" xlink:title="Contains definition and partial implementation of sirius::Density class. ">
<polygon fill="#ffffff" stroke="#000000" points="541,-336.5 541,-355.5 598,-355.5 598,-336.5 541,-336.5"/>
<text text-anchor="middle" x="569.5" y="-343.5" font-family="Helvetica,sans-Serif" font-size="10.00" fill="#000000">density.h</text>
</a>
</g>
</g>
<!-- Node11&#45;&gt;Node22 -->
<g id="edge52" class="edge">
<title>Node11&#45;&gt;Node22</title>
<path fill="none" stroke="#191970" d="M569.7119,-552.6785C585.4493,-533.502 609.0251,-500.9278 618.5,-468 630.9342,-424.788 595.2147,-375.8362 578.0897,-355.5677"/>
<polygon fill="#191970" stroke="#191970" points="566.8861,-550.6 563.1115,-560.4997 572.2358,-555.1146 566.8861,-550.6"/>
</g>
<!-- Node23 -->
<g id="node19" class="node">
<title>Node23</title>
<g id="a_node19"><a xlink:href="potential_8h.html" target="_top" xlink:title="Contains declaration and partial implementation of sirius::Potential class. ">
<polygon fill="#ffffff" stroke="#000000" points="394,-280.5 394,-299.5 457,-299.5 457,-280.5 394,-280.5"/>
<text text-anchor="middle" x="425.5" y="-287.5" font-family="Helvetica,sans-Serif" font-size="10.00" fill="#000000">potential.h</text>
</a>
</g>
</g>
<!-- Node11&#45;&gt;Node23 -->
<g id="edge51" class="edge">
<title>Node11&#45;&gt;Node23</title>
<path fill="none" stroke="#191970" d="M541.4906,-551.8878C527.6067,-532.003 505.5766,-498.7977 490.5,-468 460.2684,-406.2444 436.0756,-326.6837 428.2113,-299.5516"/>
<polygon fill="#191970" stroke="#191970" points="538.7848,-554.1235 547.4141,-560.2705 544.5015,-550.0838 538.7848,-554.1235"/>
</g>
<!-- Node11&#45;&gt;Node24 -->
<g id="edge54" class="edge">
<title>Node11&#45;&gt;Node24</title>
<path fill="none" stroke="#191970" d="M618.6271,-560.2205C709.6774,-544.498 865.5,-509.9952 865.5,-458 865.5,-458 865.5,-458 865.5,-346 865.5,-301.5372 824.1868,-261.3795 802.8847,-243.6286"/>
<polygon fill="#191970" stroke="#191970" points="617.9457,-556.786 608.6721,-561.9095 619.1166,-563.6874 617.9457,-556.786"/>
</g>
<!-- Node11&#45;&gt;Node27 -->
<g id="edge44" class="edge">
<title>Node11&#45;&gt;Node27</title>
<path fill="none" stroke="#191970" d="M618.779,-561.5103C704.6886,-550.1638 854.9471,-530.3183 931.2087,-520.246"/>
<polygon fill="#191970" stroke="#191970" points="618.0862,-558.0713 608.6306,-562.8507 619.0028,-565.0111 618.0862,-558.0713"/>
</g>
<!-- Node28 -->
<g id="node24" class="node">
<title>Node28</title>
<g id="a_node24"><a xlink:href="non__local__operator_8h.html" target="_top" xlink:title="Contains declaration and implementation of sirius::Non_local_operator class. ">
<polygon fill="#ffffff" stroke="#000000" points="499.5,-448.5 499.5,-467.5 609.5,-467.5 609.5,-448.5 499.5,-448.5"/>
<text text-anchor="middle" x="554.5" y="-455.5" font-family="Helvetica,sans-Serif" font-size="10.00" fill="#000000">non_local_operator.h</text>
</a>
</g>
</g>
<!-- Node11&#45;&gt;Node28 -->
<g id="edge53" class="edge">
<title>Node11&#45;&gt;Node28</title>
<path fill="none" stroke="#191970" d="M554.5,-550.2702C554.5,-525.9985 554.5,-485.7725 554.5,-467.5249"/>
<polygon fill="#191970" stroke="#191970" points="551.0001,-550.4509 554.5,-560.4509 558.0001,-550.451 551.0001,-550.4509"/>
</g>
<!-- Node13 -->
<g id="node9" class="node">
<title>Node13</title>
<g id="a_node9"><a xlink:href="band_8h.html" target="_top" xlink:title="Contains declaration and partial implementation of sirius::Band class. ">
<polygon fill="#ffffff" stroke="#000000" points="283,-224.5 283,-243.5 330,-243.5 330,-224.5 283,-224.5"/>
<text text-anchor="middle" x="306.5" y="-231.5" font-family="Helvetica,sans-Serif" font-size="10.00" fill="#000000">band.h</text>
</a>
</g>
</g>
<!-- Node12&#45;&gt;Node13 -->
<g id="edge8" class="edge">
<title>Node12&#45;&gt;Node13</title>
<path fill="none" stroke="#191970" d="M370.6853,-494.4621C357.0943,-439.31 318.7782,-283.8245 308.8651,-243.5977"/>
<polygon fill="#191970" stroke="#191970" points="367.3337,-495.4897 373.1249,-504.3618 374.1304,-493.8148 367.3337,-495.4897"/>
</g>
<!-- Node12&#45;&gt;Node17 -->
<g id="edge43" class="edge">
<title>Node12&#45;&gt;Node17</title>
<path fill="none" stroke="#191970" d="M315.3091,-506.0425C256.4132,-494.4785 175.5,-466.7998 175.5,-402 175.5,-402 175.5,-402 175.5,-178 175.5,-93.9152 307.4954,-72.7933 363.1809,-67.6239"/>
<polygon fill="#191970" stroke="#191970" points="314.8194,-509.5112 325.2897,-507.8917 316.0947,-502.6284 314.8194,-509.5112"/>
</g>
<!-- Node20 -->
<g id="node16" class="node">
<title>Node20</title>
<g id="a_node16"><a xlink:href="k__point_8h.html" target="_top" xlink:title="Contains definition and partial implementation of sirius::K_point class. ">
<polygon fill="#ffffff" stroke="#000000" points="666,-448.5 666,-467.5 723,-467.5 723,-448.5 666,-448.5"/>
<text text-anchor="middle" x="694.5" y="-455.5" font-family="Helvetica,sans-Serif" font-size="10.00" fill="#000000">k_point.h</text>
</a>
</g>
</g>
<!-- Node12&#45;&gt;Node20 -->
<g id="edge17" class="edge">
<title>Node12&#45;&gt;Node20</title>
<path fill="none" stroke="#191970" d="M435.9646,-503.3855C504.8301,-491.2963 614.4561,-472.0516 665.9793,-463.0068"/>
<polygon fill="#191970" stroke="#191970" points="434.9389,-500.012 425.6947,-505.1884 436.1493,-506.9066 434.9389,-500.012"/>
</g>
<!-- Node12&#45;&gt;Node22 -->
<g id="edge39" class="edge">
<title>Node12&#45;&gt;Node22</title>
<path fill="none" stroke="#191970" d="M385.2779,-495.4265C393.2593,-481.3746 405.4816,-462.1476 419.5,-448 460.5069,-406.6151 520.5808,-371.7767 550.7489,-355.6355"/>
<polygon fill="#191970" stroke="#191970" points="382.2046,-493.7517 380.4599,-504.2019 388.3406,-497.1206 382.2046,-493.7517"/>
</g>
<!-- Node12&#45;&gt;Node23 -->
<g id="edge38" class="edge">
<title>Node12&#45;&gt;Node23</title>
<path fill="none" stroke="#191970" d="M379.8723,-494.4119C390.1974,-448.1557 415.7915,-333.494 423.3596,-299.5891"/>
<polygon fill="#191970" stroke="#191970" points="376.4111,-493.8527 377.6484,-504.375 383.243,-495.3777 376.4111,-493.8527"/>
</g>
<!-- Node12&#45;&gt;Node24 -->
<g id="edge42" class="edge">
<title>Node12&#45;&gt;Node24</title>
<path fill="none" stroke="#191970" d="M396.8639,-498.4708C419.1121,-483.109 455.5365,-460.1817 490.5,-448 591.9398,-412.657 647.0003,-480.7965 729.5,-412 782.9385,-367.4376 789.6808,-273.8047 790.4381,-243.6071"/>
<polygon fill="#191970" stroke="#191970" points="394.6824,-495.726 388.5161,-504.3416 398.7093,-501.4518 394.6824,-495.726"/>
</g>
<!-- Node26 -->
<g id="node22" class="node">
<title>Node26</title>
<g id="a_node22"><a xlink:href="local__operator_8h.html" target="_top" xlink:title="Contains declaration and implementation of sirius::Local_operator class. ">
<polygon fill="#ffffff" stroke="#000000" points="203.5,-336.5 203.5,-355.5 291.5,-355.5 291.5,-336.5 203.5,-336.5"/>
<text text-anchor="middle" x="247.5" y="-343.5" font-family="Helvetica,sans-Serif" font-size="10.00" fill="#000000">local_operator.h</text>
</a>
</g>
</g>
<!-- Node12&#45;&gt;Node26 -->
<g id="edge40" class="edge">
<title>Node12&#45;&gt;Node26</title>
<path fill="none" stroke="#191970" d="M345.8833,-499.3893C332.2571,-491.5402 316.6753,-480.8294 305.5,-468 274.5379,-432.4551 256.4407,-377.5174 250.0937,-355.5521"/>
<polygon fill="#191970" stroke="#191970" points="344.4764,-502.6098 354.9262,-504.3569 347.8468,-496.4745 344.4764,-502.6098"/>
</g>
<!-- Node14 -->
<g id="node10" class="node">
<title>Node14</title>
<g id="a_node10"><a xlink:href="add__nl__h__o__rs_8cpp_source.html" target="_top" xlink:title="add_nl_h_o_rs.cpp">
<polygon fill="#ffffff" stroke="#000000" points="241.5,-168.5 241.5,-187.5 343.5,-187.5 343.5,-168.5 241.5,-168.5"/>
<text text-anchor="middle" x="292.5" y="-175.5" font-family="Helvetica,sans-Serif" font-size="10.00" fill="#000000">add_nl_h_o_rs.cpp</text>
</a>
</g>
</g>
<!-- Node13&#45;&gt;Node14 -->
<g id="edge9" class="edge">
<title>Node13&#45;&gt;Node14</title>
<path fill="none" stroke="#191970" d="M301.6135,-214.4538C299.3451,-205.3803 296.75,-194.9998 294.9107,-187.6427"/>
<polygon fill="#191970" stroke="#191970" points="298.2405,-215.393 304.0614,-224.2455 305.0315,-213.6952 298.2405,-215.393"/>
</g>
<!-- Node15 -->
<g id="node11" class="node">
<title>Node15</title>
<g id="a_node11"><a xlink:href="force_8h.html" target="_top" xlink:title="Contains definition of sirius::Force class. ">
<polygon fill="#ffffff" stroke="#000000" points="440,-168.5 440,-187.5 487,-187.5 487,-168.5 440,-168.5"/>
<text text-anchor="middle" x="463.5" y="-175.5" font-family="Helvetica,sans-Serif" font-size="10.00" fill="#000000">force.h</text>
</a>
</g>
</g>
<!-- Node13&#45;&gt;Node15 -->
<g id="edge10" class="edge">
<title>Node13&#45;&gt;Node15</title>
<path fill="none" stroke="#191970" d="M339.6273,-222.1839C369.6566,-211.4728 413.1752,-195.9502 439.8348,-186.4411"/>
<polygon fill="#191970" stroke="#191970" points="338.2474,-218.96 330.0045,-225.6162 340.5991,-225.5532 338.2474,-218.96"/>
</g>
<!-- Node13&#45;&gt;Node17 -->
<g id="edge16" class="edge">
<title>Node13&#45;&gt;Node17</title>
<path fill="none" stroke="#191970" d="M273.4529,-221.4915C248.3616,-209.8895 220.1146,-190.9769 232.5,-168 260.3953,-116.2496 327.291,-86.4462 363.4043,-73.5984"/>
<polygon fill="#191970" stroke="#191970" points="272.2579,-224.7886 282.8236,-225.5734 275.0534,-218.371 272.2579,-224.7886"/>
</g>
<!-- Node16 -->
<g id="node12" class="node">
<title>Node16</title>
<g id="a_node12"><a xlink:href="dft__ground__state_8h.html" target="_top" xlink:title="Contains definition and partial implementation of sirius::DFT_ground_state class. ...">
<polygon fill="#ffffff" stroke="#000000" points="548.5,-112.5 548.5,-131.5 648.5,-131.5 648.5,-112.5 548.5,-112.5"/>
<text text-anchor="middle" x="598.5" y="-119.5" font-family="Helvetica,sans-Serif" font-size="10.00" fill="#000000">dft_ground_state.h</text>
</a>
</g>
</g>
<!-- Node15&#45;&gt;Node16 -->
<g id="edge11" class="edge">
<title>Node15&#45;&gt;Node16</title>
<path fill="none" stroke="#191970" d="M495.9991,-164.5189C520.5854,-154.3201 553.7366,-140.5685 575.5955,-131.5011"/>
<polygon fill="#191970" stroke="#191970" points="494.6031,-161.3087 486.7073,-168.3733 497.2852,-167.7745 494.6031,-161.3087"/>
</g>
<!-- Node15&#45;&gt;Node17 -->
<g id="edge15" class="edge">
<title>Node15&#45;&gt;Node17</title>
<path fill="none" stroke="#191970" d="M447.8874,-160.5251C440.7198,-152.1545 432.3188,-141.8309 425.5,-132 412.2374,-112.8789 399.2499,-88.854 392.428,-75.7057"/>
<polygon fill="#191970" stroke="#191970" points="445.3294,-162.9172 454.5395,-168.1541 450.6054,-158.3167 445.3294,-162.9172"/>
</g>
<!-- Node19 -->
<g id="node15" class="node">
<title>Node19</title>
<g id="a_node15"><a xlink:href="force_8cpp.html" target="_top" xlink:title="Contains implementation of sirius::Force class. ">
<polygon fill="#ffffff" stroke="#000000" points="434.5,-112.5 434.5,-131.5 492.5,-131.5 492.5,-112.5 434.5,-112.5"/>
<text text-anchor="middle" x="463.5" y="-119.5" font-family="Helvetica,sans-Serif" font-size="10.00" fill="#000000">force.cpp</text>
</a>
</g>
</g>
<!-- Node15&#45;&gt;Node19 -->
<g id="edge14" class="edge">
<title>Node15&#45;&gt;Node19</title>
<path fill="none" stroke="#191970" d="M463.5,-158.1575C463.5,-149.155 463.5,-138.9199 463.5,-131.6427"/>
<polygon fill="#191970" stroke="#191970" points="460.0001,-158.2455 463.5,-168.2455 467.0001,-158.2456 460.0001,-158.2455"/>
</g>
<!-- Node16&#45;&gt;Node17 -->
<g id="edge12" class="edge">
<title>Node16&#45;&gt;Node17</title>
<path fill="none" stroke="#191970" d="M552.4688,-109.7832C509.0534,-98.2606 445.6841,-81.4422 411.5006,-72.3698"/>
<polygon fill="#191970" stroke="#191970" points="551.6646,-113.1908 562.2278,-112.3733 553.4603,-106.4251 551.6646,-113.1908"/>
</g>
<!-- Node18 -->
<g id="node14" class="node">
<title>Node18</title>
<g id="a_node14"><a xlink:href="sirius__api_8cpp.html" target="_top" xlink:title="Fortran API. ">
<polygon fill="#ffffff" stroke="#000000" points="348.5,-.5 348.5,-19.5 426.5,-19.5 426.5,-.5 348.5,-.5"/>
<text text-anchor="middle" x="387.5" y="-7.5" font-family="Helvetica,sans-Serif" font-size="10.00" fill="#000000">sirius_api.cpp</text>
</a>
</g>
</g>
<!-- Node17&#45;&gt;Node18 -->
<g id="edge13" class="edge">
<title>Node17&#45;&gt;Node18</title>
<path fill="none" stroke="#191970" d="M387.5,-46.1575C387.5,-37.155 387.5,-26.9199 387.5,-19.6427"/>
<polygon fill="#191970" stroke="#191970" points="384.0001,-46.2455 387.5,-56.2455 391.0001,-46.2456 384.0001,-46.2455"/>
</g>
<!-- Node20&#45;&gt;Node15 -->
<g id="edge36" class="edge">
<title>Node20&#45;&gt;Node15</title>
<path fill="none" stroke="#191970" d="M660.7164,-444.4729C624.4391,-428.3756 567.3315,-398.2595 532.5,-356 488.0209,-302.0355 469.9886,-216.1062 465.0235,-187.5641"/>
<polygon fill="#191970" stroke="#191970" points="659.3443,-447.6928 669.9119,-448.4512 662.1238,-441.2682 659.3443,-447.6928"/>
</g>
<!-- Node20&#45;&gt;Node17 -->
<g id="edge37" class="edge">
<title>Node20&#45;&gt;Node17</title>
<path fill="none" stroke="#191970" d="M717.7738,-442.5979C729.1001,-434.3809 742.4123,-423.5858 752.5,-412 826.0472,-327.531 893.5294,-248.3469 815.5,-168 758.0918,-108.8867 493.4535,-76.9644 411.6563,-68.3876"/>
<polygon fill="#191970" stroke="#191970" points="715.7571,-439.7373 709.5859,-448.3493 719.7807,-445.4654 715.7571,-439.7373"/>
</g>
<!-- Node21 -->
<g id="node17" class="node">
<title>Node21</title>
<g id="a_node17"><a xlink:href="k__point__set_8h.html" target="_top" xlink:title="Contains declaration and partial implementation of sirius::K_point_set class. ">
<polygon fill="#ffffff" stroke="#000000" points="644.5,-392.5 644.5,-411.5 720.5,-411.5 720.5,-392.5 644.5,-392.5"/>
<text text-anchor="middle" x="682.5" y="-399.5" font-family="Helvetica,sans-Serif" font-size="10.00" fill="#000000">k_point_set.h</text>
</a>
</g>
</g>
<!-- Node20&#45;&gt;Node21 -->
<g id="edge18" class="edge">
<title>Node20&#45;&gt;Node21</title>
<path fill="none" stroke="#191970" d="M690.3115,-438.4538C688.3672,-429.3803 686.1428,-418.9998 684.5663,-411.6427"/>
<polygon fill="#191970" stroke="#191970" points="686.8921,-439.2009 692.4098,-448.2455 693.7367,-437.7341 686.8921,-439.2009"/>
</g>
<!-- Node21&#45;&gt;Node13 -->
<g id="edge19" class="edge">
<title>Node21&#45;&gt;Node13</title>
<path fill="none" stroke="#191970" d="M634.2392,-391.7025C573.3086,-377.3324 466.6524,-347.5465 385.5,-300 357.7438,-283.7379 329.9634,-257.715 315.915,-243.6971"/>
<polygon fill="#191970" stroke="#191970" points="633.8092,-395.1955 644.3411,-394.0422 635.3887,-388.376 633.8092,-395.1955"/>
</g>
<!-- Node21&#45;&gt;Node16 -->
<g id="edge33" class="edge">
<title>Node21&#45;&gt;Node16</title>
<path fill="none" stroke="#191970" d="M670.2324,-383.9217C656.9078,-362.4913 637.5,-325.2302 637.5,-290 637.5,-290 637.5,-290 637.5,-234 637.5,-194.2621 615.3334,-150.7836 604.4233,-131.7906"/>
<polygon fill="#191970" stroke="#191970" points="667.3012,-385.8345 675.6655,-392.3377 673.1822,-382.0379 667.3012,-385.8345"/>
</g>
<!-- Node21&#45;&gt;Node17 -->
<g id="edge35" class="edge">
<title>Node21&#45;&gt;Node17</title>
<path fill="none" stroke="#191970" d="M680.5149,-382.2186C678.4452,-359.8571 675.5,-322.3514 675.5,-290 675.5,-290 675.5,-290 675.5,-234 675.5,-179.1908 695.8221,-151.185 657.5,-112 623.5051,-77.2396 471.5282,-68.6606 411.7571,-66.6156"/>
<polygon fill="#191970" stroke="#191970" points="677.0551,-382.8055 681.4971,-392.4242 684.0229,-382.1349 677.0551,-382.8055"/>
</g>
<!-- Node21&#45;&gt;Node22 -->
<g id="edge20" class="edge">
<title>Node21&#45;&gt;Node22</title>
<path fill="none" stroke="#191970" d="M653.9208,-387.8368C633.4942,-377.7139 606.5638,-364.3679 588.6719,-355.5011"/>
<polygon fill="#191970" stroke="#191970" points="652.5604,-391.0688 663.0746,-392.3733 655.6687,-384.7968 652.5604,-391.0688"/>
</g>
<!-- Node25 -->
<g id="node21" class="node">
<title>Node25</title>
<g id="a_node21"><a xlink:href="_forces___p_s_8cpp_source.html" target="_top" xlink:title="Forces_PS.cpp">
<polygon fill="#ffffff" stroke="#000000" points="704,-168.5 704,-187.5 789,-187.5 789,-168.5 704,-168.5"/>
<text text-anchor="middle" x="746.5" y="-175.5" font-family="Helvetica,sans-Serif" font-size="10.00" fill="#000000">Forces_PS.cpp</text>
</a>
</g>
</g>
<!-- Node21&#45;&gt;Node25 -->
<g id="edge34" class="edge">
<title>Node21&#45;&gt;Node25</title>
<path fill="none" stroke="#191970" d="M688.013,-382.7044C701.174,-336.6409 734.0527,-221.5657 743.7602,-187.5891"/>
<polygon fill="#191970" stroke="#191970" points="684.6319,-381.7982 685.25,-392.375 691.3626,-383.7213 684.6319,-381.7982"/>
</g>
<!-- Node22&#45;&gt;Node15 -->
<g id="edge30" class="edge">
<title>Node22&#45;&gt;Node15</title>
<path fill="none" stroke="#191970" d="M559.8633,-327.3263C547.0448,-302.9533 523.2302,-259.2525 499.5,-224 490.6658,-210.8764 479.2301,-196.6656 471.644,-187.566"/>
<polygon fill="#191970" stroke="#191970" points="556.7782,-328.9798 564.5065,-336.2272 562.9845,-325.7422 556.7782,-328.9798"/>
</g>
<!-- Node22&#45;&gt;Node16 -->
<g id="edge29" class="edge">
<title>Node22&#45;&gt;Node16</title>
<path fill="none" stroke="#191970" d="M572.0561,-326.4433C573.1229,-318.2708 574.3737,-308.6756 575.5,-300 583.8442,-235.7272 593.8127,-158.3899 597.2575,-131.648"/>
<polygon fill="#191970" stroke="#191970" points="568.5692,-326.1165 570.7444,-336.4857 575.5102,-327.0233 568.5692,-326.1165"/>
</g>
<!-- Node22&#45;&gt;Node17 -->
<g id="edge32" class="edge">
<title>Node22&#45;&gt;Node17</title>
<path fill="none" stroke="#191970" d="M569.2989,-326.0675C567.7921,-281.8768 558.1347,-174.6466 501.5,-112 477.8845,-85.8777 437.3529,-74.3193 411.5215,-69.4028"/>
<polygon fill="#191970" stroke="#191970" points="565.8007,-326.188 569.5328,-336.1038 572.7988,-326.0249 565.8007,-326.188"/>
</g>
<!-- Node22&#45;&gt;Node23 -->
<g id="edge21" class="edge">
<title>Node22&#45;&gt;Node23</title>
<path fill="none" stroke="#191970" d="M535.1818,-332.6541C508.922,-322.4419 473.3508,-308.6086 449.9315,-299.5011"/>
<polygon fill="#191970" stroke="#191970" points="534.1569,-336.0108 544.7455,-336.3733 536.694,-329.4867 534.1569,-336.0108"/>
</g>
<!-- Node22&#45;&gt;Node24 -->
<g id="edge31" class="edge">
<title>Node22&#45;&gt;Node24</title>
<path fill="none" stroke="#191970" d="M597.3955,-331.8629C643.1069,-308.6969 732.7663,-263.2587 771.7054,-243.5249"/>
<polygon fill="#191970" stroke="#191970" points="595.6801,-328.8084 588.3423,-336.4509 598.8445,-335.0524 595.6801,-328.8084"/>
</g>
<!-- Node23&#45;&gt;Node13 -->
<g id="edge22" class="edge">
<title>Node23&#45;&gt;Node13</title>
<path fill="none" stroke="#191970" d="M395.9856,-276.1109C374.4062,-265.9559 345.7024,-252.4482 326.6899,-243.5011"/>
<polygon fill="#191970" stroke="#191970" points="394.5047,-279.2821 405.0432,-280.3733 397.4853,-272.9484 394.5047,-279.2821"/>
</g>
<!-- Node23&#45;&gt;Node15 -->
<g id="edge24" class="edge">
<title>Node23&#45;&gt;Node15</title>
<path fill="none" stroke="#191970" d="M425.5645,-270.2528C426.1642,-256.8457 428.069,-238.9123 433.5,-224 438.5246,-210.2035 448.3603,-196.3596 455.4005,-187.5179"/>
<polygon fill="#191970" stroke="#191970" points="422.0648,-270.2018 425.3189,-280.2845 429.0627,-270.3732 422.0648,-270.2018"/>
</g>
<!-- Node23&#45;&gt;Node16 -->
<g id="edge23" class="edge">
<title>Node23&#45;&gt;Node16</title>
<path fill="none" stroke="#191970" d="M442.5625,-273.4306C478.2431,-238.7812 559.7996,-159.5818 588.3796,-131.8279"/>
<polygon fill="#191970" stroke="#191970" points="440.0326,-271.0087 435.2969,-280.4862 444.9092,-276.0305 440.0326,-271.0087"/>
</g>
<!-- Node23&#45;&gt;Node17 -->
<g id="edge28" class="edge">
<title>Node23&#45;&gt;Node17</title>
<path fill="none" stroke="#191970" d="M422.177,-270.4119C414.33,-224.1557 394.8784,-109.494 389.1267,-75.5891"/>
<polygon fill="#191970" stroke="#191970" points="418.7439,-271.1013 423.8672,-280.375 425.6453,-269.9304 418.7439,-271.1013"/>
</g>
<!-- Node23&#45;&gt;Node24 -->
<g id="edge25" class="edge">
<title>Node23&#45;&gt;Node24</title>
<path fill="none" stroke="#191970" d="M467.3012,-283.5867C539.1662,-272.5608 684.9966,-250.1868 753.4475,-239.6848"/>
<polygon fill="#191970" stroke="#191970" points="466.6064,-280.1522 457.2528,-285.1283 467.668,-287.0713 466.6064,-280.1522"/>
</g>
<!-- Node24&#45;&gt;Node16 -->
<g id="edge26" class="edge">
<title>Node24&#45;&gt;Node16</title>
<path fill="none" stroke="#191970" d="M799.6044,-214.8739C804.9815,-200.4866 808.9127,-181.0795 798.5,-168 780.137,-144.9341 701.9284,-132.4663 648.9273,-126.5339"/>
<polygon fill="#191970" stroke="#191970" points="796.2893,-213.7272 795.618,-224.3008 802.7365,-216.4537 796.2893,-213.7272"/>
</g>
<!-- Node24&#45;&gt;Node25 -->
<g id="edge27" class="edge">
<title>Node24&#45;&gt;Node25</title>
<path fill="none" stroke="#191970" d="M776.5231,-216.2112C769.0871,-206.7472 760.234,-195.4797 754.0764,-187.6427"/>
<polygon fill="#191970" stroke="#191970" points="773.9054,-218.5447 782.8358,-224.2455 779.4097,-214.22 773.9054,-218.5447"/>
</g>
<!-- Node26&#45;&gt;Node13 -->
<g id="edge41" class="edge">
<title>Node26&#45;&gt;Node13</title>
<path fill="none" stroke="#191970" d="M254.5435,-326.7364C259.717,-313.3253 267.2567,-295.1933 275.5,-280 282.6645,-266.7951 292.6087,-252.6021 299.2845,-243.5288"/>
<polygon fill="#191970" stroke="#191970" points="251.1784,-325.7415 250.9335,-336.3335 257.7302,-328.206 251.1784,-325.7415"/>
</g>
<!-- Node27&#45;&gt;Node20 -->
<g id="edge45" class="edge">
<title>Node27&#45;&gt;Node20</title>
<path fill="none" stroke="#191970" d="M921.2053,-502.7025C861.2048,-490.8714 769.4054,-472.7701 723.1915,-463.6575"/>
<polygon fill="#191970" stroke="#191970" points="920.7962,-506.1891 931.2844,-504.6899 922.1504,-499.3213 920.7962,-506.1891"/>
</g>
<!-- Node27&#45;&gt;Node24 -->
<g id="edge50" class="edge">
<title>Node27&#45;&gt;Node24</title>
<path fill="none" stroke="#191970" d="M968.287,-495.3878C957.3354,-473.6529 941.5,-436.2959 941.5,-402 941.5,-402 941.5,-402 941.5,-346 941.5,-314.7875 939.5845,-302.0566 917.5,-280 893.3581,-255.8886 855.6336,-244.3256 827.5648,-238.8357"/>
<polygon fill="#191970" stroke="#191970" points="965.3006,-497.2296 973.0405,-504.4646 971.5018,-493.9821 965.3006,-497.2296"/>
</g>
<!-- Node27&#45;&gt;Node28 -->
<g id="edge46" class="edge">
<title>Node27&#45;&gt;Node28</title>
<path fill="none" stroke="#191970" d="M920.9741,-506.4022C839.1317,-495.5929 690.1053,-475.9101 609.6096,-465.2786"/>
<polygon fill="#191970" stroke="#191970" points="920.7238,-509.8995 931.096,-507.7391 921.6404,-502.9598 920.7238,-509.8995"/>
</g>
<!-- Node29 -->
<g id="node25" class="node">
<title>Node29</title>
<g id="a_node25"><a xlink:href="beta__projectors__gradient_8h.html" target="_top" xlink:title="Contains declaration and implementation of sirius::Beta_projectors_gradient class. ">
<polygon fill="#ffffff" stroke="#000000" points="970,-392.5 970,-411.5 1105,-411.5 1105,-392.5 970,-392.5"/>
<text text-anchor="middle" x="1037.5" y="-399.5" font-family="Helvetica,sans-Serif" font-size="10.00" fill="#000000">beta_projectors_gradient.h</text>
</a>
</g>
</g>
<!-- Node27&#45;&gt;Node29 -->
<g id="edge48" class="edge">
<title>Node27&#45;&gt;Node29</title>
<path fill="none" stroke="#191970" d="M988.2075,-495.5723C1000.9085,-471.4618 1022.6959,-430.1028 1032.4824,-411.5249"/>
<polygon fill="#191970" stroke="#191970" points="985.0945,-493.9722 983.5303,-504.4509 991.2877,-497.2347 985.0945,-493.9722"/>
</g>
<!-- Node28&#45;&gt;Node13 -->
<g id="edge47" class="edge">
<title>Node28&#45;&gt;Node13</title>
<path fill="none" stroke="#191970" d="M530.8197,-442.9063C491.0803,-416.8671 409.7098,-360.4516 352.5,-300 335.4115,-281.9432 319.8476,-257.0883 311.9497,-243.6187"/>
<polygon fill="#191970" stroke="#191970" points="529.0245,-445.9138 539.3173,-448.4259 532.8376,-440.0434 529.0245,-445.9138"/>
</g>
<!-- Node29&#45;&gt;Node24 -->
<g id="edge49" class="edge">
<title>Node29&#45;&gt;Node24</title>
<path fill="none" stroke="#191970" d="M1029.8004,-382.8821C1017.9281,-355.8507 992.5773,-306.7762 955.5,-280 917.4082,-252.4912 863.4841,-241.4162 827.7806,-236.9682"/>
<polygon fill="#191970" stroke="#191970" points="1026.6962,-384.528 1033.8118,-392.3778 1033.1445,-381.804 1026.6962,-384.528"/>
</g>
<!-- Node31 -->
<g id="node27" class="node">
<title>Node31</title>
<g id="a_node27"><a xlink:href="step__function_8h.html" target="_top" xlink:title="Contains definition and partial implementation of sirius::Step_function class. ">
<polygon fill="#ffffff" stroke="#000000" points="431.5,-616.5 431.5,-635.5 515.5,-635.5 515.5,-616.5 431.5,-616.5"/>
<text text-anchor="middle" x="473.5" y="-623.5" font-family="Helvetica,sans-Serif" font-size="10.00" fill="#000000">step_function.h</text>
</a>
</g>
</g>
<!-- Node30&#45;&gt;Node31 -->
<g id="edge57" class="edge">
<title>Node30&#45;&gt;Node31</title>
<path fill="none" stroke="#191970" d="M473.5,-662.2849C473.5,-652.9858 473.5,-642.9883 473.5,-635.8469"/>
<polygon fill="#191970" stroke="#191970" points="470.0001,-662.2977 473.5,-672.2977 477.0001,-662.2978 470.0001,-662.2977"/>
</g>
<!-- Node31&#45;&gt;Node11 -->
<g id="edge58" class="edge">
<title>Node31&#45;&gt;Node11</title>
<path fill="none" stroke="#191970" d="M495.934,-610.49C510.2254,-600.6096 528.2916,-588.1194 540.5526,-579.6427"/>
<polygon fill="#191970" stroke="#191970" points="493.8443,-607.6797 487.6091,-616.2455 497.8251,-613.4376 493.8443,-607.6797"/>
</g>
<!-- Node31&#45;&gt;Node17 -->
<g id="edge59" class="edge">
<title>Node31&#45;&gt;Node17</title>
<path fill="none" stroke="#191970" d="M421.3615,-619.6179C326.9829,-606.6 137.5,-573.1045 137.5,-514 137.5,-514 137.5,-514 137.5,-178 137.5,-140.3794 158.6618,-132.0409 190.5,-112 219.2571,-93.8985 317.0923,-76.8805 363.1493,-69.6499"/>
<polygon fill="#191970" stroke="#191970" points="420.9068,-623.0882 431.2856,-620.9596 421.8447,-616.1513 420.9068,-623.0882"/>
</g>
<!-- Node32&#45;&gt;Node9 -->
<g id="edge62" class="edge">
<title>Node32&#45;&gt;Node9</title>
<path fill="none" stroke="#191970" d="M544.5,-785.1575C544.5,-776.155 544.5,-765.9199 544.5,-758.6427"/>
<polygon fill="#191970" stroke="#191970" points="541.0001,-785.2455 544.5,-795.2455 548.0001,-785.2456 541.0001,-785.2455"/>
</g>
<!-- Node32&#45;&gt;Node27 -->
<g id="edge63" class="edge">
<title>Node32&#45;&gt;Node27</title>
<path fill="none" stroke="#191970" d="M584.0741,-801.7715C684.5307,-792.4922 941.5,-761.5215 941.5,-687.5 941.5,-687.5 941.5,-687.5 941.5,-626 941.5,-586.2726 962.7484,-542.4377 973.0405,-523.5354"/>
<polygon fill="#191970" stroke="#191970" points="583.6615,-798.2944 574.0152,-802.6761 584.2885,-805.2663 583.6615,-798.2944"/>
</g>
<!-- Node34 -->
<g id="node30" class="node">
<title>Node34</title>
<g id="a_node30"><a xlink:href="real__space__prj_8cpp_source.html" target="_top" xlink:title="real_space_prj.cpp">
<polygon fill="#ffffff" stroke="#000000" points="322,-739.5 322,-758.5 423,-758.5 423,-739.5 322,-739.5"/>
<text text-anchor="middle" x="372.5" y="-746.5" font-family="Helvetica,sans-Serif" font-size="10.00" fill="#000000">real_space_prj.cpp</text>
</a>
</g>
</g>
<!-- Node33&#45;&gt;Node34 -->
<g id="edge66" class="edge">
<title>Node33&#45;&gt;Node34</title>
<path fill="none" stroke="#191970" d="M372.5,-785.1575C372.5,-776.155 372.5,-765.9199 372.5,-758.6427"/>
<polygon fill="#191970" stroke="#191970" points="369.0001,-785.2455 372.5,-795.2455 376.0001,-785.2456 369.0001,-785.2455"/>
</g>
<!-- Node35&#45;&gt;Node7 -->
<g id="edge70" class="edge">
<title>Node35&#45;&gt;Node7</title>
<path fill="none" stroke="#191970" d="M182.7856,-960.7255C141.0641,-949.2725 80.4192,-932.6249 47.2913,-923.5309"/>
<polygon fill="#191970" stroke="#191970" points="181.8613,-964.1012 192.4311,-963.3733 183.7144,-957.3509 181.8613,-964.1012"/>
</g>
<!-- Node35&#45;&gt;Node8 -->
<g id="edge71" class="edge">
<title>Node35&#45;&gt;Node8</title>
<path fill="none" stroke="#191970" d="M248.1148,-957.0768C278.7268,-933.4317 335.2618,-889.7633 360.1687,-870.5249"/>
<polygon fill="#191970" stroke="#191970" points="245.6372,-954.5681 239.8626,-963.4509 249.9162,-960.1079 245.6372,-954.5681"/>
</g>
<!-- Node35&#45;&gt;Node17 -->
<g id="edge72" class="edge">
<title>Node35&#45;&gt;Node17</title>
<path fill="none" stroke="#191970" d="M204.3748,-957.4567C158.7441,-924.7239 61.5,-843.8408 61.5,-749 61.5,-749 61.5,-749 61.5,-178 61.5,-138.6547 86.0846,-131.0691 120.5,-112 162.2606,-88.861 305.6809,-73.4943 363.276,-68.1232"/>
<polygon fill="#191970" stroke="#191970" points="202.5734,-960.4685 212.7686,-963.3511 206.5963,-954.7399 202.5734,-960.4685"/>
</g>
</g>
</svg>
        <g id="navigator" transform="translate(0 0)" fill="#404254">
                <rect fill="#f2f5e9" fill-opacity="0.5" stroke="#606060" stroke-width=".5" x="0" y="0" width="60" height="60"/>
                <use id="zoomplus" xlink:href="#zoomPlus" x="17" y="9" onmousedown="handleZoom(evt,'in')"/>
                <use id="zoomminus" xlink:href="#zoomMin" x="42" y="9" onmousedown="handleZoom(evt,'out')"/>
                <use id="reset" xlink:href="#resetDef" x="30" y="36" onmousedown="handleReset()"/>
                <g id="arrowUp" xlink:href="#dirArrow" transform="translate(30 24)" onmousedown="handlePan(0,-1)">
                  <use xlink:href="#rim" fill="#404040">
                        <set attributeName="fill" to="#808080" begin="arrowUp.mouseover" end="arrowUp.mouseout"/>
                  </use>
                  <path fill="none" stroke="white" stroke-width="1.5" d="M0,-3.0v7 M-2.5,-0.5L0,-3.0L2.5,-0.5"/>
                </g>
                <g id="arrowRight" xlink:href="#dirArrow" transform="rotate(90) translate(36 -43)" onmousedown="handlePan(1,0)">
                  <use xlink:href="#rim" fill="#404040">
                        <set attributeName="fill" to="#808080" begin="arrowRight.mouseover" end="arrowRight.mouseout"/>
                  </use>
                  <path fill="none" stroke="white" stroke-width="1.5" d="M0,-3.0v7 M-2.5,-0.5L0,-3.0L2.5,-0.5"/>
                </g>
                <g id="arrowDown" xlink:href="#dirArrow" transform="rotate(180) translate(-30 -48)" onmousedown="handlePan(0,1)">
                  <use xlink:href="#rim" fill="#404040">
                        <set attributeName="fill" to="#808080" begin="arrowDown.mouseover" end="arrowDown.mouseout"/>
                  </use>
                  <path fill="none" stroke="white" stroke-width="1.5" d="M0,-3.0v7 M-2.5,-0.5L0,-3.0L2.5,-0.5"/>
                </g>
                <g id="arrowLeft" xlink:href="#dirArrow" transform="rotate(270) translate(-36 17)" onmousedown="handlePan(-1,0)">
                  <use xlink:href="#rim" fill="#404040">
                        <set attributeName="fill" to="#808080" begin="arrowLeft.mouseover" end="arrowLeft.mouseout"/>
                  </use>
                  <path fill="none" stroke="white" stroke-width="1.5" d="M0,-3.0v7 M-2.5,-0.5L0,-3.0L2.5,-0.5"/>
                </g>
        </g>
        <svg viewBox="0 0 15 15" width="100%" height="30px" preserveAspectRatio="xMaxYMin meet">
         <g id="arrow_out" transform="scale(0.3 0.3)">
          <a xlink:href="radial__solver_8h__dep__incl_org.svg" target="_base">
           <rect id="button" ry="5" rx="5" y="6" x="6" height="38" width="38"
                fill="#f2f5e9" fill-opacity="0.5" stroke="#606060" stroke-width="1.0"/>
           <path id="arrow"
             d="M 11.500037,31.436501 C 11.940474,20.09759 22.043105,11.32322 32.158766,21.979434 L 37.068811,17.246167 C 37.068811,17.246167 37.088388,32 37.088388,32 L 22.160133,31.978069 C 22.160133,31.978069 26.997745,27.140456 26.997745,27.140456 C 18.528582,18.264221 13.291696,25.230495 11.500037,31.436501 z"
             style="fill:#404040;"/>
          </a>
         </g>
        </svg>
</svg>
