<?xml version="1.0" encoding="UTF-8" standalone="no"?>
<!DOCTYPE svg PUBLIC "-//W3C//DTD SVG 1.1//EN"
 "http://www.w3.org/Graphics/SVG/1.1/DTD/svg11.dtd">
<!-- Generated by graphviz version 2.40.1 (20161225.0304)
 -->
<!-- Title: simulation_context_base.h Pages: 1 -->
<svg width="849pt" height="711pt"
 viewBox="0.00 0.00 849.00 711.00" xmlns="http://www.w3.org/2000/svg" xmlns:xlink="http://www.w3.org/1999/xlink">
<g id="graph0" class="graph" transform="scale(1 1) rotate(0) translate(4 707)">
<title>simulation_context_base.h</title>
<polygon fill="#ffffff" stroke="transparent" points="-4,4 -4,-707 845,-707 845,4 -4,4"/>
<!-- Node107 -->
<g id="node1" class="node">
<title>Node107</title>
<polygon fill="#bfbfbf" stroke="#000000" points="557.5,-672.5 557.5,-702.5 656.5,-702.5 656.5,-672.5 557.5,-672.5"/>
<text text-anchor="start" x="565.5" y="-690.5" font-family="Helvetica,sans-Serif" font-size="10.00" fill="#000000">simulation_context</text>
<text text-anchor="middle" x="607" y="-679.5" font-family="Helvetica,sans-Serif" font-size="10.00" fill="#000000">_base.h</text>
</g>
<!-- Node108 -->
<g id="node2" class="node">
<title>Node108</title>
<g id="a_node2"><a xlink:href="step__function_8h.html" target="_top" xlink:title="Contains definition and partial implementation of sirius::Step_function class. ">
<polygon fill="#ffffff" stroke="#000000" points="565,-616.5 565,-635.5 649,-635.5 649,-616.5 565,-616.5"/>
<text text-anchor="middle" x="607" y="-623.5" font-family="Helvetica,sans-Serif" font-size="10.00" fill="#000000">step_function.h</text>
</a>
</g>
</g>
<!-- Node107&#45;&gt;Node108 -->
<g id="edge1" class="edge">
<title>Node107&#45;&gt;Node108</title>
<path fill="none" stroke="#191970" d="M607,-662.2849C607,-652.9858 607,-642.9883 607,-635.8469"/>
<polygon fill="#191970" stroke="#191970" points="603.5001,-662.2977 607,-672.2977 610.5001,-662.2978 603.5001,-662.2977"/>
</g>
<!-- Node109 -->
<g id="node3" class="node">
<title>Node109</title>
<g id="a_node3"><a xlink:href="simulation__context_8h.html" target="_top" xlink:title="Contains definition and implementation of Simulation_parameters and Simulation_context classes...">
<polygon fill="#ffffff" stroke="#000000" points="326,-560.5 326,-579.5 434,-579.5 434,-560.5 326,-560.5"/>
<text text-anchor="middle" x="380" y="-567.5" font-family="Helvetica,sans-Serif" font-size="10.00" fill="#000000">simulation_context.h</text>
</a>
</g>
</g>
<!-- Node108&#45;&gt;Node109 -->
<g id="edge2" class="edge">
<title>Node108&#45;&gt;Node109</title>
<path fill="none" stroke="#191970" d="M558.2842,-613.982C516.5167,-603.6781 457.1519,-589.0331 418.6049,-579.5237"/>
<polygon fill="#191970" stroke="#191970" points="557.688,-617.4398 568.2352,-616.4369 559.3646,-610.6435 557.688,-617.4398"/>
</g>
<!-- Node115 -->
<g id="node9" class="node">
<title>Node115</title>
<g id="a_node9"><a xlink:href="sirius_8h.html" target="_top" xlink:title="&quot;All&#45;in&#45;one&quot; include file. ">
<polygon fill="#ffffff" stroke="#000000" points="600,-56.5 600,-75.5 648,-75.5 648,-56.5 600,-56.5"/>
<text text-anchor="middle" x="624" y="-63.5" font-family="Helvetica,sans-Serif" font-size="10.00" fill="#000000">sirius.h</text>
</a>
</g>
</g>
<!-- Node108&#45;&gt;Node115 -->
<g id="edge51" class="edge">
<title>Node108&#45;&gt;Node115</title>
<path fill="none" stroke="#191970" d="M653.7647,-613.775C722.0476,-594.5291 841,-555.103 841,-514 841,-514 841,-514 841,-178 841,-91.9369 704.5505,-71.939 648.0519,-67.3474"/>
<polygon fill="#191970" stroke="#191970" points="652.7763,-610.417 644.078,-616.4659 654.65,-617.1616 652.7763,-610.417"/>
</g>
<!-- Node110 -->
<g id="node4" class="node">
<title>Node110</title>
<g id="a_node4"><a xlink:href="periodic__function_8h.html" target="_top" xlink:title="Contains declaration and partial implementation of sirius::Periodic_function class. ">
<polygon fill="#ffffff" stroke="#000000" points="415,-504.5 415,-523.5 515,-523.5 515,-504.5 415,-504.5"/>
<text text-anchor="middle" x="465" y="-511.5" font-family="Helvetica,sans-Serif" font-size="10.00" fill="#000000">periodic_function.h</text>
</a>
</g>
</g>
<!-- Node109&#45;&gt;Node110 -->
<g id="edge3" class="edge">
<title>Node109&#45;&gt;Node110</title>
<path fill="none" stroke="#191970" d="M403.5419,-554.49C418.539,-544.6096 437.4973,-532.1194 450.3638,-523.6427"/>
<polygon fill="#191970" stroke="#191970" points="401.2309,-551.8212 394.8059,-560.2455 405.0821,-557.6666 401.2309,-551.8212"/>
</g>
<!-- Node120 -->
<g id="node14" class="node">
<title>Node120</title>
<g id="a_node14"><a xlink:href="density_8h.html" target="_top" xlink:title="Contains definition and partial implementation of sirius::Density class. ">
<polygon fill="#ffffff" stroke="#000000" points="251.5,-336.5 251.5,-355.5 308.5,-355.5 308.5,-336.5 251.5,-336.5"/>
<text text-anchor="middle" x="280" y="-343.5" font-family="Helvetica,sans-Serif" font-size="10.00" fill="#000000">density.h</text>
</a>
</g>
</g>
<!-- Node109&#45;&gt;Node120 -->
<g id="edge48" class="edge">
<title>Node109&#45;&gt;Node120</title>
<path fill="none" stroke="#191970" d="M326.836,-557.957C294.8236,-549.5085 258.4733,-537.3669 249,-524 210.7294,-470.0001 256.6049,-384.0937 273.9156,-355.5608"/>
<polygon fill="#191970" stroke="#191970" points="326.0412,-561.3664 336.597,-560.4577 327.7785,-554.5854 326.0412,-561.3664"/>
</g>
<!-- Node121 -->
<g id="node15" class="node">
<title>Node121</title>
<g id="a_node15"><a xlink:href="potential_8h.html" target="_top" xlink:title="Contains declaration and partial implementation of sirius::Potential class. ">
<polygon fill="#ffffff" stroke="#000000" points="301.5,-280.5 301.5,-299.5 364.5,-299.5 364.5,-280.5 301.5,-280.5"/>
<text text-anchor="middle" x="333" y="-287.5" font-family="Helvetica,sans-Serif" font-size="10.00" fill="#000000">potential.h</text>
</a>
</g>
</g>
<!-- Node109&#45;&gt;Node121 -->
<g id="edge47" class="edge">
<title>Node109&#45;&gt;Node121</title>
<path fill="none" stroke="#191970" d="M376.7204,-550.4621C367.4628,-495.31 341.3634,-339.8245 334.611,-299.5977"/>
<polygon fill="#191970" stroke="#191970" points="373.2749,-551.0792 378.3822,-560.3618 380.1784,-549.9203 373.2749,-551.0792"/>
</g>
<!-- Node122 -->
<g id="node16" class="node">
<title>Node122</title>
<g id="a_node16"><a xlink:href="_forces___p_s_8h_source.html" target="_top" xlink:title="Forces_PS.h">
<polygon fill="#ffffff" stroke="#000000" points="99,-224.5 99,-243.5 173,-243.5 173,-224.5 99,-224.5"/>
<text text-anchor="middle" x="136" y="-231.5" font-family="Helvetica,sans-Serif" font-size="10.00" fill="#000000">Forces_PS.h</text>
</a>
</g>
</g>
<!-- Node109&#45;&gt;Node122 -->
<g id="edge50" class="edge">
<title>Node109&#45;&gt;Node122</title>
<path fill="none" stroke="#191970" d="M315.7934,-564.3832C207.448,-553.1148 0,-523.0463 0,-458 0,-458 0,-458 0,-346 0,-291.402 66.1204,-258.4905 106.1542,-243.5675"/>
<polygon fill="#191970" stroke="#191970" points="315.6563,-567.8872 325.9588,-565.4155 316.3636,-560.923 315.6563,-567.8872"/>
</g>
<!-- Node125 -->
<g id="node19" class="node">
<title>Node125</title>
<g id="a_node19"><a xlink:href="beta__projectors_8h.html" target="_top" xlink:title="Contains declaration and implementation of sirius::Beta_projectors class. ">
<polygon fill="#ffffff" stroke="#000000" points="258,-504.5 258,-523.5 352,-523.5 352,-504.5 258,-504.5"/>
<text text-anchor="middle" x="305" y="-511.5" font-family="Helvetica,sans-Serif" font-size="10.00" fill="#000000">beta_projectors.h</text>
</a>
</g>
</g>
<!-- Node109&#45;&gt;Node125 -->
<g id="edge40" class="edge">
<title>Node109&#45;&gt;Node125</title>
<path fill="none" stroke="#191970" d="M358.8523,-554.2097C345.6799,-544.3743 329.16,-532.0394 317.9143,-523.6427"/>
<polygon fill="#191970" stroke="#191970" points="356.8291,-557.0671 366.936,-560.2455 361.0172,-551.4581 356.8291,-557.0671"/>
</g>
<!-- Node126 -->
<g id="node20" class="node">
<title>Node126</title>
<g id="a_node20"><a xlink:href="non__local__operator_8h.html" target="_top" xlink:title="Contains declaration and implementation of sirius::Non_local_operator class. ">
<polygon fill="#ffffff" stroke="#000000" points="514,-448.5 514,-467.5 624,-467.5 624,-448.5 514,-448.5"/>
<text text-anchor="middle" x="569" y="-455.5" font-family="Helvetica,sans-Serif" font-size="10.00" fill="#000000">non_local_operator.h</text>
</a>
</g>
</g>
<!-- Node109&#45;&gt;Node126 -->
<g id="edge49" class="edge">
<title>Node109&#45;&gt;Node126</title>
<path fill="none" stroke="#191970" d="M444.2195,-559.0948C470.8014,-552.2574 500.7744,-541.3209 524,-524 544.2332,-508.9107 558.4418,-481.918 564.9655,-467.5736"/>
<polygon fill="#191970" stroke="#191970" points="443.1127,-555.7616 434.2189,-561.5193 444.762,-562.5645 443.1127,-555.7616"/>
</g>
<!-- Node111 -->
<g id="node5" class="node">
<title>Node111</title>
<g id="a_node5"><a xlink:href="band_8h.html" target="_top" xlink:title="Contains declaration and partial implementation of sirius::Band class. ">
<polygon fill="#ffffff" stroke="#000000" points="573.5,-224.5 573.5,-243.5 620.5,-243.5 620.5,-224.5 573.5,-224.5"/>
<text text-anchor="middle" x="597" y="-231.5" font-family="Helvetica,sans-Serif" font-size="10.00" fill="#000000">band.h</text>
</a>
</g>
</g>
<!-- Node110&#45;&gt;Node111 -->
<g id="edge4" class="edge">
<title>Node110&#45;&gt;Node111</title>
<path fill="none" stroke="#191970" d="M525.1964,-507.1097C563.7385,-500.8679 613.8629,-489.2498 654,-468 692.6556,-447.5346 727,-445.7388 727,-402 727,-402 727,-402 727,-346 727,-290.441 658.0044,-256.3909 620.542,-241.9976"/>
<polygon fill="#191970" stroke="#191970" points="524.5067,-503.6745 515.1566,-508.6572 525.5731,-510.5928 524.5067,-503.6745"/>
</g>
<!-- Node110&#45;&gt;Node115 -->
<g id="edge39" class="edge">
<title>Node110&#45;&gt;Node115</title>
<path fill="none" stroke="#191970" d="M525.2286,-506.6016C622.402,-492.9645 803,-459.8395 803,-402 803,-402 803,-402 803,-178 803,-105.7832 697.0001,-78.3886 648.1407,-69.5973"/>
<polygon fill="#191970" stroke="#191970" points="524.6666,-503.1459 515.237,-507.9764 525.6208,-510.0805 524.6666,-503.1459"/>
</g>
<!-- Node118 -->
<g id="node12" class="node">
<title>Node118</title>
<g id="a_node12"><a xlink:href="k__point_8h.html" target="_top" xlink:title="Contains definition and partial implementation of sirius::K_point class. ">
<polygon fill="#ffffff" stroke="#000000" points="438.5,-448.5 438.5,-467.5 495.5,-467.5 495.5,-448.5 438.5,-448.5"/>
<text text-anchor="middle" x="467" y="-455.5" font-family="Helvetica,sans-Serif" font-size="10.00" fill="#000000">k_point.h</text>
</a>
</g>
</g>
<!-- Node110&#45;&gt;Node118 -->
<g id="edge13" class="edge">
<title>Node110&#45;&gt;Node118</title>
<path fill="none" stroke="#191970" d="M465.7087,-494.1575C466.0302,-485.155 466.3957,-474.9199 466.6556,-467.6427"/>
<polygon fill="#191970" stroke="#191970" points="462.2076,-494.127 465.3484,-504.2455 469.2032,-494.3769 462.2076,-494.127"/>
</g>
<!-- Node110&#45;&gt;Node120 -->
<g id="edge35" class="edge">
<title>Node110&#45;&gt;Node120</title>
<path fill="none" stroke="#191970" d="M439.617,-498.9855C426.1441,-490.553 409.6073,-479.445 396,-468 351.2664,-430.3747 305.6283,-377.076 287.8022,-355.5583"/>
<polygon fill="#191970" stroke="#191970" points="438.0282,-502.1171 448.3813,-504.3673 441.6911,-496.1519 438.0282,-502.1171"/>
</g>
<!-- Node110&#45;&gt;Node121 -->
<g id="edge34" class="edge">
<title>Node110&#45;&gt;Node121</title>
<path fill="none" stroke="#191970" d="M450.2108,-496.5631C443.3993,-488.1767 435.4225,-477.8292 429,-468 392.5622,-412.2343 389.6826,-394.5982 358,-336 351.1697,-323.3671 343.2476,-308.8056 338.1831,-299.5082"/>
<polygon fill="#191970" stroke="#191970" points="447.6998,-499.0186 456.7733,-504.4889 453.0915,-494.5543 447.6998,-499.0186"/>
</g>
<!-- Node110&#45;&gt;Node122 -->
<g id="edge38" class="edge">
<title>Node110&#45;&gt;Node122</title>
<path fill="none" stroke="#191970" d="M431.2939,-500.3289C412.5773,-492.0959 389.2561,-480.7508 370,-468 266.0516,-399.1685 170.1943,-278.894 143.4003,-243.8453"/>
<polygon fill="#191970" stroke="#191970" points="430.0469,-503.6026 440.6159,-504.3416 432.8145,-497.1729 430.0469,-503.6026"/>
</g>
<!-- Node124 -->
<g id="node18" class="node">
<title>Node124</title>
<g id="a_node18"><a xlink:href="local__operator_8h.html" target="_top" xlink:title="Contains declaration and implementation of sirius::Local_operator class. ">
<polygon fill="#ffffff" stroke="#000000" points="611,-336.5 611,-355.5 699,-355.5 699,-336.5 611,-336.5"/>
<text text-anchor="middle" x="655" y="-343.5" font-family="Helvetica,sans-Serif" font-size="10.00" fill="#000000">local_operator.h</text>
</a>
</g>
</g>
<!-- Node110&#45;&gt;Node124 -->
<g id="edge36" class="edge">
<title>Node110&#45;&gt;Node124</title>
<path fill="none" stroke="#191970" d="M524.9288,-504.5077C567.0132,-496.6038 618.3073,-484.0598 633,-468 662.3458,-435.9238 659.0779,-378.5083 656.3935,-355.7133"/>
<polygon fill="#191970" stroke="#191970" points="524.2173,-501.0797 515.0084,-506.3186 525.4744,-507.9659 524.2173,-501.0797"/>
</g>
<!-- Node112 -->
<g id="node6" class="node">
<title>Node112</title>
<g id="a_node6"><a xlink:href="add__nl__h__o__rs_8cpp_source.html" target="_top" xlink:title="add_nl_h_o_rs.cpp">
<polygon fill="#ffffff" stroke="#000000" points="494,-168.5 494,-187.5 596,-187.5 596,-168.5 494,-168.5"/>
<text text-anchor="middle" x="545" y="-175.5" font-family="Helvetica,sans-Serif" font-size="10.00" fill="#000000">add_nl_h_o_rs.cpp</text>
</a>
</g>
</g>
<!-- Node111&#45;&gt;Node112 -->
<g id="edge5" class="edge">
<title>Node111&#45;&gt;Node112</title>
<path fill="none" stroke="#191970" d="M581.0178,-216.7884C572.1222,-207.2085 561.3796,-195.6396 553.9539,-187.6427"/>
<polygon fill="#191970" stroke="#191970" points="578.573,-219.2992 587.9423,-224.2455 583.7025,-214.536 578.573,-219.2992"/>
</g>
<!-- Node113 -->
<g id="node7" class="node">
<title>Node113</title>
<g id="a_node7"><a xlink:href="force_8h.html" target="_top" xlink:title="Contains definition of sirius::Force class. ">
<polygon fill="#ffffff" stroke="#000000" points="428.5,-168.5 428.5,-187.5 475.5,-187.5 475.5,-168.5 428.5,-168.5"/>
<text text-anchor="middle" x="452" y="-175.5" font-family="Helvetica,sans-Serif" font-size="10.00" fill="#000000">force.h</text>
</a>
</g>
</g>
<!-- Node111&#45;&gt;Node113 -->
<g id="edge6" class="edge">
<title>Node111&#45;&gt;Node113</title>
<path fill="none" stroke="#191970" d="M563.9713,-221.2441C537.0271,-210.8381 499.6201,-196.3912 475.6094,-187.1181"/>
<polygon fill="#191970" stroke="#191970" points="562.7911,-224.5402 573.3805,-224.878 565.313,-218.0102 562.7911,-224.5402"/>
</g>
<!-- Node111&#45;&gt;Node115 -->
<g id="edge12" class="edge">
<title>Node111&#45;&gt;Node115</title>
<path fill="none" stroke="#191970" d="M600.4776,-214.4555C601.911,-206.285 603.5681,-196.6879 605,-188 611.902,-146.1219 619.4934,-96.0429 622.5789,-75.5005"/>
<polygon fill="#191970" stroke="#191970" points="596.9975,-214.037 598.7039,-224.4936 603.8907,-215.2552 596.9975,-214.037"/>
</g>
<!-- Node114 -->
<g id="node8" class="node">
<title>Node114</title>
<g id="a_node8"><a xlink:href="dft__ground__state_8h.html" target="_top" xlink:title="Contains definition and partial implementation of sirius::DFT_ground_state class. ...">
<polygon fill="#ffffff" stroke="#000000" points="225,-112.5 225,-131.5 325,-131.5 325,-112.5 225,-112.5"/>
<text text-anchor="middle" x="275" y="-119.5" font-family="Helvetica,sans-Serif" font-size="10.00" fill="#000000">dft_ground_state.h</text>
</a>
</g>
</g>
<!-- Node113&#45;&gt;Node114 -->
<g id="edge7" class="edge">
<title>Node113&#45;&gt;Node114</title>
<path fill="none" stroke="#191970" d="M418.9375,-167.5396C386.2691,-157.2038 336.7279,-141.5297 305.1212,-131.5299"/>
<polygon fill="#191970" stroke="#191970" points="417.9058,-170.8841 428.4958,-170.5636 420.0174,-164.2101 417.9058,-170.8841"/>
</g>
<!-- Node113&#45;&gt;Node115 -->
<g id="edge11" class="edge">
<title>Node113&#45;&gt;Node115</title>
<path fill="none" stroke="#191970" d="M452.8167,-157.9965C454.4627,-143.4174 458.9776,-124.1646 471,-112 489.0839,-93.7023 561.2942,-77.7692 599.6949,-70.3813"/>
<polygon fill="#191970" stroke="#191970" points="449.3216,-157.7993 452.0404,-168.0393 456.3008,-158.3388 449.3216,-157.7993"/>
</g>
<!-- Node117 -->
<g id="node11" class="node">
<title>Node117</title>
<g id="a_node11"><a xlink:href="force_8cpp.html" target="_top" xlink:title="Contains implementation of sirius::Force class. ">
<polygon fill="#ffffff" stroke="#000000" points="480,-112.5 480,-131.5 538,-131.5 538,-112.5 480,-112.5"/>
<text text-anchor="middle" x="509" y="-119.5" font-family="Helvetica,sans-Serif" font-size="10.00" fill="#000000">force.cpp</text>
</a>
</g>
</g>
<!-- Node113&#45;&gt;Node117 -->
<g id="edge10" class="edge">
<title>Node113&#45;&gt;Node117</title>
<path fill="none" stroke="#191970" d="M469.2271,-161.0751C479.0341,-151.4402 490.964,-139.7196 499.1851,-131.6427"/>
<polygon fill="#191970" stroke="#191970" points="466.6091,-158.7406 461.9286,-168.2455 471.5149,-163.734 466.6091,-158.7406"/>
</g>
<!-- Node114&#45;&gt;Node115 -->
<g id="edge8" class="edge">
<title>Node114&#45;&gt;Node115</title>
<path fill="none" stroke="#191970" d="M335.1724,-112.3448C413.2061,-99.8237 545.7195,-78.5608 599.8655,-69.8726"/>
<polygon fill="#191970" stroke="#191970" points="334.3224,-108.9364 325.0032,-113.9766 335.4314,-115.848 334.3224,-108.9364"/>
</g>
<!-- Node116 -->
<g id="node10" class="node">
<title>Node116</title>
<g id="a_node10"><a xlink:href="sirius__api_8cpp.html" target="_top" xlink:title="Fortran API. ">
<polygon fill="#ffffff" stroke="#000000" points="585,-.5 585,-19.5 663,-19.5 663,-.5 585,-.5"/>
<text text-anchor="middle" x="624" y="-7.5" font-family="Helvetica,sans-Serif" font-size="10.00" fill="#000000">sirius_api.cpp</text>
</a>
</g>
</g>
<!-- Node115&#45;&gt;Node116 -->
<g id="edge9" class="edge">
<title>Node115&#45;&gt;Node116</title>
<path fill="none" stroke="#191970" d="M624,-46.1575C624,-37.155 624,-26.9199 624,-19.6427"/>
<polygon fill="#191970" stroke="#191970" points="620.5001,-46.2455 624,-56.2455 627.5001,-46.2456 620.5001,-46.2455"/>
</g>
<!-- Node118&#45;&gt;Node113 -->
<g id="edge32" class="edge">
<title>Node118&#45;&gt;Node113</title>
<path fill="none" stroke="#191970" d="M489.2638,-441.6617C498.1073,-433.7992 507.2844,-423.5637 512,-412 515.3565,-403.7692 513.2111,-400.806 512,-392 500.8544,-310.9617 467.0212,-217.3838 455.7203,-187.6104"/>
<polygon fill="#191970" stroke="#191970" points="486.8504,-439.1158 481.3737,-448.1853 491.3109,-444.5106 486.8504,-439.1158"/>
</g>
<!-- Node118&#45;&gt;Node115 -->
<g id="edge33" class="edge">
<title>Node118&#45;&gt;Node115</title>
<path fill="none" stroke="#191970" d="M505.6591,-447.6355C555.7126,-432.938 644.0902,-402.5396 708,-356 739.3315,-333.1842 765,-328.7585 765,-290 765,-290 765,-290 765,-178 765,-119.071 688.5527,-86.2001 648.2388,-72.9628"/>
<polygon fill="#191970" stroke="#191970" points="504.5222,-444.3206 495.8803,-450.4498 506.4582,-451.0476 504.5222,-444.3206"/>
</g>
<!-- Node119 -->
<g id="node13" class="node">
<title>Node119</title>
<g id="a_node13"><a xlink:href="k__point__set_8h.html" target="_top" xlink:title="Contains declaration and partial implementation of sirius::K_point_set class. ">
<polygon fill="#ffffff" stroke="#000000" points="427,-392.5 427,-411.5 503,-411.5 503,-392.5 427,-392.5"/>
<text text-anchor="middle" x="465" y="-399.5" font-family="Helvetica,sans-Serif" font-size="10.00" fill="#000000">k_point_set.h</text>
</a>
</g>
</g>
<!-- Node118&#45;&gt;Node119 -->
<g id="edge14" class="edge">
<title>Node118&#45;&gt;Node119</title>
<path fill="none" stroke="#191970" d="M466.2913,-438.1575C465.9698,-429.155 465.6043,-418.9199 465.3444,-411.6427"/>
<polygon fill="#191970" stroke="#191970" points="462.7968,-438.3769 466.6516,-448.2455 469.7924,-438.127 462.7968,-438.3769"/>
</g>
<!-- Node119&#45;&gt;Node111 -->
<g id="edge15" class="edge">
<title>Node119&#45;&gt;Node111</title>
<path fill="none" stroke="#191970" d="M464.365,-381.9374C464.593,-355.619 468.7809,-309.3458 493,-280 513.3582,-255.3325 549.5975,-243.464 573.4659,-238.0739"/>
<polygon fill="#191970" stroke="#191970" points="460.8678,-382.2279 464.4719,-392.1909 467.8674,-382.1549 460.8678,-382.2279"/>
</g>
<!-- Node119&#45;&gt;Node114 -->
<g id="edge29" class="edge">
<title>Node119&#45;&gt;Node114</title>
<path fill="none" stroke="#191970" d="M453.207,-383.6619C427.5701,-343.9429 364.5928,-247.1602 309,-168 300.0965,-155.322 289.4186,-141.0138 282.4351,-131.77"/>
<polygon fill="#191970" stroke="#191970" points="450.2705,-385.5665 458.6298,-392.0759 456.1544,-381.7743 450.2705,-385.5665"/>
</g>
<!-- Node119&#45;&gt;Node115 -->
<g id="edge31" class="edge">
<title>Node119&#45;&gt;Node115</title>
<path fill="none" stroke="#191970" d="M490.2311,-387.1171C528.6431,-362.8125 600.3464,-310.5664 629,-244 654.5463,-184.6524 635.0477,-103.5679 627.027,-75.7951"/>
<polygon fill="#191970" stroke="#191970" points="488.3327,-384.1759 481.674,-392.4167 492.0184,-390.127 488.3327,-384.1759"/>
</g>
<!-- Node119&#45;&gt;Node120 -->
<g id="edge16" class="edge">
<title>Node119&#45;&gt;Node120</title>
<path fill="none" stroke="#191970" d="M423.2857,-389.373C388.3264,-378.7907 339.3413,-363.9628 308.6566,-354.6744"/>
<polygon fill="#191970" stroke="#191970" points="422.6122,-392.8259 433.1974,-392.3733 424.6403,-386.1261 422.6122,-392.8259"/>
</g>
<!-- Node123 -->
<g id="node17" class="node">
<title>Node123</title>
<g id="a_node17"><a xlink:href="_forces___p_s_8cpp_source.html" target="_top" xlink:title="Forces_PS.cpp">
<polygon fill="#ffffff" stroke="#000000" points="14.5,-168.5 14.5,-187.5 99.5,-187.5 99.5,-168.5 14.5,-168.5"/>
<text text-anchor="middle" x="57" y="-175.5" font-family="Helvetica,sans-Serif" font-size="10.00" fill="#000000">Forces_PS.cpp</text>
</a>
</g>
</g>
<!-- Node119&#45;&gt;Node123 -->
<g id="edge30" class="edge">
<title>Node119&#45;&gt;Node123</title>
<path fill="none" stroke="#191970" d="M416.6934,-398.0742C370.2451,-392.9261 298.8985,-381.3565 242,-356 165.3525,-321.8425 144.0403,-308.1968 90,-244 75.3148,-226.5548 65.0971,-201.461 60.2339,-187.789"/>
<polygon fill="#191970" stroke="#191970" points="416.4767,-401.5707 426.7878,-399.1353 417.2085,-394.609 416.4767,-401.5707"/>
</g>
<!-- Node120&#45;&gt;Node113 -->
<g id="edge26" class="edge">
<title>Node120&#45;&gt;Node113</title>
<path fill="none" stroke="#191970" d="M318.4323,-332.4962C336.3858,-324.884 357.2259,-314.0526 373,-300 410.8708,-266.2623 437.9738,-210.2939 447.8715,-187.8023"/>
<polygon fill="#191970" stroke="#191970" points="316.761,-329.3968 308.8055,-336.3941 319.3882,-335.8852 316.761,-329.3968"/>
</g>
<!-- Node120&#45;&gt;Node114 -->
<g id="edge25" class="edge">
<title>Node120&#45;&gt;Node114</title>
<path fill="none" stroke="#191970" d="M279.5562,-326.1177C278.5194,-279.6713 275.9692,-165.4223 275.214,-131.5891"/>
<polygon fill="#191970" stroke="#191970" points="276.0628,-326.4556 279.7852,-336.375 283.061,-326.2994 276.0628,-326.4556"/>
</g>
<!-- Node120&#45;&gt;Node115 -->
<g id="edge28" class="edge">
<title>Node120&#45;&gt;Node115</title>
<path fill="none" stroke="#191970" d="M265.3809,-328.0017C232.3575,-285.0932 159.1463,-175.6239 216,-112 241.7373,-83.1979 516.3736,-70.1923 599.9833,-66.8812"/>
<polygon fill="#191970" stroke="#191970" points="262.8231,-330.4112 271.7565,-336.1072 268.325,-326.0834 262.8231,-330.4112"/>
</g>
<!-- Node120&#45;&gt;Node121 -->
<g id="edge17" class="edge">
<title>Node120&#45;&gt;Node121</title>
<path fill="none" stroke="#191970" d="M296.2896,-328.7884C305.3562,-319.2085 316.3054,-307.6396 323.8739,-299.6427"/>
<polygon fill="#191970" stroke="#191970" points="293.5637,-326.5767 289.2319,-336.2455 298.6478,-331.3884 293.5637,-326.5767"/>
</g>
<!-- Node120&#45;&gt;Node122 -->
<g id="edge27" class="edge">
<title>Node120&#45;&gt;Node122</title>
<path fill="none" stroke="#191970" d="M259.5274,-330.0768C229.1265,-306.4317 172.9814,-262.7633 148.2463,-243.5249"/>
<polygon fill="#191970" stroke="#191970" points="257.6803,-333.0742 267.7226,-336.4509 261.9779,-327.5488 257.6803,-333.0742"/>
</g>
<!-- Node121&#45;&gt;Node111 -->
<g id="edge18" class="edge">
<title>Node121&#45;&gt;Node111</title>
<path fill="none" stroke="#191970" d="M374.5205,-281.1926C430.4685,-269.3249 528.2178,-248.5902 573.1595,-239.0571"/>
<polygon fill="#191970" stroke="#191970" points="373.6384,-277.8018 364.5823,-283.3007 375.091,-284.6494 373.6384,-277.8018"/>
</g>
<!-- Node121&#45;&gt;Node113 -->
<g id="edge20" class="edge">
<title>Node121&#45;&gt;Node113</title>
<path fill="none" stroke="#191970" d="M350.57,-273.4635C375.8359,-249.6838 421.6144,-206.5982 441.8798,-187.5249"/>
<polygon fill="#191970" stroke="#191970" points="348.0291,-271.0486 343.1459,-280.4509 352.8267,-276.146 348.0291,-271.0486"/>
</g>
<!-- Node121&#45;&gt;Node114 -->
<g id="edge19" class="edge">
<title>Node121&#45;&gt;Node114</title>
<path fill="none" stroke="#191970" d="M326.3461,-270.7267C313.95,-234.8207 287.7331,-158.8822 278.393,-131.8279"/>
<polygon fill="#191970" stroke="#191970" points="323.1437,-272.1759 329.7155,-280.4862 329.7604,-269.8915 323.1437,-272.1759"/>
</g>
<!-- Node121&#45;&gt;Node115 -->
<g id="edge24" class="edge">
<title>Node121&#45;&gt;Node115</title>
<path fill="none" stroke="#191970" d="M340.9474,-270.5565C357.0001,-233.7682 396.8719,-153.9176 456,-112 500.2824,-80.6069 565.0615,-70.6222 599.8228,-67.4581"/>
<polygon fill="#191970" stroke="#191970" points="337.5762,-269.5413 336.8942,-280.1142 344.0207,-272.2743 337.5762,-269.5413"/>
</g>
<!-- Node121&#45;&gt;Node122 -->
<g id="edge21" class="edge">
<title>Node121&#45;&gt;Node122</title>
<path fill="none" stroke="#191970" d="M291.5645,-278.2214C255.2937,-267.9109 203.2649,-253.121 169.5509,-243.5373"/>
<polygon fill="#191970" stroke="#191970" points="290.7726,-281.6349 301.3485,-281.0026 292.6867,-274.9016 290.7726,-281.6349"/>
</g>
<!-- Node122&#45;&gt;Node114 -->
<g id="edge22" class="edge">
<title>Node122&#45;&gt;Node114</title>
<path fill="none" stroke="#191970" d="M155.7618,-218.0768C185.1071,-194.4317 239.3027,-150.7633 263.1789,-131.5249"/>
<polygon fill="#191970" stroke="#191970" points="153.4419,-215.4513 147.8511,-224.4509 157.8339,-220.902 153.4419,-215.4513"/>
</g>
<!-- Node122&#45;&gt;Node123 -->
<g id="edge23" class="edge">
<title>Node122&#45;&gt;Node123</title>
<path fill="none" stroke="#191970" d="M113.7244,-218.2097C99.8495,-208.3743 82.4485,-196.0394 70.6031,-187.6427"/>
<polygon fill="#191970" stroke="#191970" points="112.0569,-221.3178 122.2393,-224.2455 116.1051,-215.6071 112.0569,-221.3178"/>
</g>
<!-- Node124&#45;&gt;Node111 -->
<g id="edge37" class="edge">
<title>Node124&#45;&gt;Node111</title>
<path fill="none" stroke="#191970" d="M645.2901,-327.2498C632.7812,-303.0946 611.5105,-262.0202 601.9325,-243.5249"/>
<polygon fill="#191970" stroke="#191970" points="642.3484,-329.1805 650.055,-336.4509 648.5643,-325.9615 642.3484,-329.1805"/>
</g>
<!-- Node125&#45;&gt;Node118 -->
<g id="edge41" class="edge">
<title>Node125&#45;&gt;Node118</title>
<path fill="none" stroke="#191970" d="M342.4422,-501.057C372.0901,-490.8084 412.8196,-476.729 439.5146,-467.5011"/>
<polygon fill="#191970" stroke="#191970" points="341.1565,-497.7982 332.8488,-504.3733 343.4436,-504.414 341.1565,-497.7982"/>
</g>
<!-- Node125&#45;&gt;Node122 -->
<g id="edge46" class="edge">
<title>Node125&#45;&gt;Node122</title>
<path fill="none" stroke="#191970" d="M248.2741,-502.186C169.8862,-484.2005 38,-447.2209 38,-402 38,-402 38,-402 38,-346 38,-297.9429 89.7335,-260.5947 118.0253,-243.7631"/>
<polygon fill="#191970" stroke="#191970" points="247.9669,-505.7047 258.4921,-504.4927 249.5084,-498.8765 247.9669,-505.7047"/>
</g>
<!-- Node125&#45;&gt;Node126 -->
<g id="edge42" class="edge">
<title>Node125&#45;&gt;Node126</title>
<path fill="none" stroke="#191970" d="M360.1228,-502.3073C408.7694,-491.9883 478.7988,-477.1336 524.1027,-467.5237"/>
<polygon fill="#191970" stroke="#191970" points="359.1393,-498.9379 350.0833,-504.4369 360.5919,-505.7856 359.1393,-498.9379"/>
</g>
<!-- Node127 -->
<g id="node21" class="node">
<title>Node127</title>
<g id="a_node21"><a xlink:href="beta__projectors__gradient_8h.html" target="_top" xlink:title="Contains declaration and implementation of sirius::Beta_projectors_gradient class. ">
<polygon fill="#ffffff" stroke="#000000" points="66.5,-392.5 66.5,-411.5 201.5,-411.5 201.5,-392.5 66.5,-392.5"/>
<text text-anchor="middle" x="134" y="-399.5" font-family="Helvetica,sans-Serif" font-size="10.00" fill="#000000">beta_projectors_gradient.h</text>
</a>
</g>
</g>
<!-- Node125&#45;&gt;Node127 -->
<g id="edge44" class="edge">
<title>Node125&#45;&gt;Node127</title>
<path fill="none" stroke="#191970" d="M281.6116,-498.6813C245.735,-475.1832 178.1675,-430.9284 148.5425,-411.5249"/>
<polygon fill="#191970" stroke="#191970" points="280.1375,-501.8997 290.4206,-504.4509 283.9729,-496.0439 280.1375,-501.8997"/>
</g>
<!-- Node126&#45;&gt;Node111 -->
<g id="edge43" class="edge">
<title>Node126&#45;&gt;Node111</title>
<path fill="none" stroke="#191970" d="M571.4485,-438.4119C577.2305,-392.1557 591.5632,-277.494 595.8014,-243.5891"/>
<polygon fill="#191970" stroke="#191970" points="567.9706,-438.0181 570.2031,-448.375 574.9165,-438.8864 567.9706,-438.0181"/>
</g>
<!-- Node127&#45;&gt;Node122 -->
<g id="edge45" class="edge">
<title>Node127&#45;&gt;Node122</title>
<path fill="none" stroke="#191970" d="M134.235,-382.2601C134.6647,-346.1669 135.5623,-270.7656 135.883,-243.8279"/>
<polygon fill="#191970" stroke="#191970" points="130.7326,-382.4452 134.1133,-392.4862 137.7321,-382.5286 130.7326,-382.4452"/>
</g>
</g>
</svg>
