<?xml version="1.0" encoding="UTF-8" standalone="no"?>
<!DOCTYPE svg PUBLIC "-//W3C//DTD SVG 1.1//EN"
 "http://www.w3.org/Graphics/SVG/1.1/DTD/svg11.dtd">
<!-- Generated by graphviz version 2.40.1 (20161225.0304)
 -->
<!-- Title: spheric_function.h Pages: 1 -->
<!--zoomable 991 -->
<svg id="main" version="1.1" xmlns="http://www.w3.org/2000/svg" xmlns:xlink="http://www.w3.org/1999/xlink" xml:space="preserve" onload="init(evt)">
<style type="text/css"><![CDATA[
.edge:hover path { stroke: red; }
.edge:hover polygon { stroke: red; fill: red; }
]]></style>
<script type="text/javascript"><![CDATA[
var edges = document.getElementsByTagName('g');
if (edges && edges.length) {
  for (var i=0;i<edges.length;i++) {
    if (edges[i].id.substr(0,4)=='edge') {
      edges[i].setAttribute('class','edge');
    }
  }
}
]]></script>
        <defs>
                <circle id="rim" cx="0" cy="0" r="7"/>
                <circle id="rim2" cx="0" cy="0" r="3.5"/>
                <g id="zoomPlus">
                        <use xlink:href="#rim" fill="#404040">
                                <set attributeName="fill" to="#808080" begin="zoomplus.mouseover" end="zoomplus.mouseout"/>
                        </use>
                        <path d="M-4,0h8M0,-4v8" fill="none" stroke="white" stroke-width="1.5" pointer-events="none"/>
                </g>
                <g id="zoomMin">
                        <use xlink:href="#rim" fill="#404040">
                                <set attributeName="fill" to="#808080" begin="zoomminus.mouseover" end="zoomminus.mouseout"/>
                        </use>
                        <path d="M-4,0h8" fill="none" stroke="white" stroke-width="1.5" pointer-events="none"/>
                </g>
                <g id="dirArrow">
                        <path fill="none" stroke="white" stroke-width="1.5" d="M0,-3.0v7 M-2.5,-0.5L0,-3.0L2.5,-0.5"/>
                </g>
               <g id="resetDef">
                       <use xlink:href="#rim2" fill="#404040">
                               <set attributeName="fill" to="#808080" begin="reset.mouseover" end="reset.mouseout"/>
                       </use>
               </g>
        </defs>

<script type="text/javascript">
var viewWidth = 1267;
var viewHeight = 991;
var sectionId = 'dynsection-1';
</script>
<script xlink:href="svgpan.js"/>
<svg id="graph" class="graph">
<g id="viewport">
<title>spheric_function.h</title>
<polygon fill="#ffffff" stroke="transparent" points="-4,4 -4,-987 1262.6939,-987 1262.6939,4 -4,4"/>
<!-- Node94 -->
<g id="node1" class="node">
<title>Node94</title>
<polygon fill="#bfbfbf" stroke="#000000" points="208,-963.5 208,-982.5 306,-982.5 306,-963.5 208,-963.5"/>
<text text-anchor="middle" x="257" y="-970.5" font-family="Helvetica,sans-Serif" font-size="10.00" fill="#000000">spheric_function.h</text>
</g>
<!-- Node95 -->
<g id="node2" class="node">
<title>Node95</title>
<g id="a_node2"><a xlink:href="atom_8h.html" target="_top" xlink:title="Contains declaration and partial implementation of sirius::Atom class. ">
<polygon fill="#ffffff" stroke="#000000" points="899.5,-907.5 899.5,-926.5 946.5,-926.5 946.5,-907.5 899.5,-907.5"/>
<text text-anchor="middle" x="923" y="-914.5" font-family="Helvetica,sans-Serif" font-size="10.00" fill="#000000">atom.h</text>
</a>
</g>
</g>
<!-- Node94&#45;&gt;Node95 -->
<g id="edge1" class="edge">
<title>Node94&#45;&gt;Node95</title>
<path fill="none" stroke="#191970" d="M316.401,-968.0053C457.0027,-956.183 805.4263,-926.8861 899.3531,-918.9883"/>
<polygon fill="#191970" stroke="#191970" points="315.9146,-964.5338 306.243,-968.8594 316.5012,-971.5092 315.9146,-964.5338"/>
</g>
<!-- Node100 -->
<g id="node7" class="node">
<title>Node100</title>
<g id="a_node7"><a xlink:href="periodic__function_8h.html" target="_top" xlink:title="Contains declaration and partial implementation of sirius::Periodic_function class. ">
<polygon fill="#ffffff" stroke="#000000" points="207,-504.5 207,-523.5 307,-523.5 307,-504.5 207,-504.5"/>
<text text-anchor="middle" x="257" y="-511.5" font-family="Helvetica,sans-Serif" font-size="10.00" fill="#000000">periodic_function.h</text>
</a>
</g>
</g>
<!-- Node94&#45;&gt;Node100 -->
<g id="edge74" class="edge">
<title>Node94&#45;&gt;Node100</title>
<path fill="none" stroke="#191970" d="M257,-953.1952C257,-930.8128 257,-893.2884 257,-861 257,-861 257,-861 257,-626 257,-588.0833 257,-542.9462 257,-523.5884"/>
<polygon fill="#191970" stroke="#191970" points="253.5001,-953.4116 257,-963.4116 260.5001,-953.4117 253.5001,-953.4116"/>
</g>
<!-- Node111 -->
<g id="node18" class="node">
<title>Node111</title>
<g id="a_node18"><a xlink:href="potential_8h.html" target="_top" xlink:title="Contains declaration and partial implementation of sirius::Potential class. ">
<polygon fill="#ffffff" stroke="#000000" points="280.5,-280.5 280.5,-299.5 343.5,-299.5 343.5,-280.5 280.5,-280.5"/>
<text text-anchor="middle" x="312" y="-287.5" font-family="Helvetica,sans-Serif" font-size="10.00" fill="#000000">potential.h</text>
</a>
</g>
</g>
<!-- Node94&#45;&gt;Node111 -->
<g id="edge75" class="edge">
<title>Node94&#45;&gt;Node111</title>
<path fill="none" stroke="#191970" d="M197.7197,-967.9081C132.8623,-958.7071 38,-932.9512 38,-861 38,-861 38,-861 38,-514 38,-424.3268 62.4924,-391.4073 133,-336 155.7687,-318.1076 235.4171,-302.5781 280.4169,-294.9743"/>
<polygon fill="#191970" stroke="#191970" points="197.4797,-971.4067 207.8521,-969.2472 198.3969,-964.4671 197.4797,-971.4067"/>
</g>
<!-- Node96 -->
<g id="node3" class="node">
<title>Node96</title>
<g id="a_node3"><a xlink:href="unit__cell_8h.html" target="_top" xlink:title="Contains definition and partial implementation of sirius::Unit_cell class. ">
<polygon fill="#ffffff" stroke="#000000" points="892,-851.5 892,-870.5 954,-870.5 954,-851.5 892,-851.5"/>
<text text-anchor="middle" x="923" y="-858.5" font-family="Helvetica,sans-Serif" font-size="10.00" fill="#000000">unit_cell.h</text>
</a>
</g>
</g>
<!-- Node95&#45;&gt;Node96 -->
<g id="edge2" class="edge">
<title>Node95&#45;&gt;Node96</title>
<path fill="none" stroke="#191970" d="M923,-897.1575C923,-888.155 923,-877.9199 923,-870.6427"/>
<polygon fill="#191970" stroke="#191970" points="919.5001,-897.2455 923,-907.2455 926.5001,-897.2456 919.5001,-897.2455"/>
</g>
<!-- Node105 -->
<g id="node12" class="node">
<title>Node105</title>
<g id="a_node12"><a xlink:href="sirius_8h.html" target="_top" xlink:title="&quot;All&#45;in&#45;one&quot; include file. ">
<polygon fill="#ffffff" stroke="#000000" points="386,-56.5 386,-75.5 434,-75.5 434,-56.5 386,-56.5"/>
<text text-anchor="middle" x="410" y="-63.5" font-family="Helvetica,sans-Serif" font-size="10.00" fill="#000000">sirius.h</text>
</a>
</g>
</g>
<!-- Node95&#45;&gt;Node105 -->
<g id="edge73" class="edge">
<title>Node95&#45;&gt;Node105</title>
<path fill="none" stroke="#191970" d="M956.9998,-911.1649C1032.9956,-897.1587 1210,-858.7652 1210,-805 1210,-805 1210,-805 1210,-178 1210,-166.2837 1392.9388,-191.9002 1046,-112 926.2519,-84.422 535.9109,-70.0819 434.3388,-66.7593"/>
<polygon fill="#191970" stroke="#191970" points="956.1929,-907.754 946.9758,-912.9785 957.4392,-914.6422 956.1929,-907.754"/>
</g>
<!-- Node97 -->
<g id="node4" class="node">
<title>Node97</title>
<g id="a_node4"><a xlink:href="radial__integrals_8h.html" target="_top" xlink:title="Representation of various radial integrals. ">
<polygon fill="#ffffff" stroke="#000000" points="842.5,-739.5 842.5,-758.5 935.5,-758.5 935.5,-739.5 842.5,-739.5"/>
<text text-anchor="middle" x="889" y="-746.5" font-family="Helvetica,sans-Serif" font-size="10.00" fill="#000000">radial_integrals.h</text>
</a>
</g>
</g>
<!-- Node96&#45;&gt;Node97 -->
<g id="edge3" class="edge">
<title>Node96&#45;&gt;Node97</title>
<path fill="none" stroke="#191970" d="M903.7994,-844.2665C896.0797,-836.2807 888.0568,-826.0582 884,-815 877.0344,-796.0129 882.0098,-771.9378 885.7996,-758.745"/>
<polygon fill="#191970" stroke="#191970" points="901.6302,-847.0368 911.26,-851.4549 906.4872,-841.9959 901.6302,-847.0368"/>
</g>
<!-- Node96&#45;&gt;Node105 -->
<g id="edge72" class="edge">
<title>Node96&#45;&gt;Node105</title>
<path fill="none" stroke="#191970" d="M963.9517,-851.5259C1034.6259,-833.9757 1172,-794.0661 1172,-749 1172,-749 1172,-749 1172,-178 1172,-101.5329 563.5887,-72.2956 434.0637,-66.9377"/>
<polygon fill="#191970" stroke="#191970" points="962.9152,-848.1761 954.0326,-853.9509 964.5777,-854.9758 962.9152,-848.1761"/>
</g>
<!-- Node116 -->
<g id="node23" class="node">
<title>Node116</title>
<g id="a_node23"><a xlink:href="beta__projectors_8h.html" target="_top" xlink:title="Contains declaration and implementation of sirius::Beta_projectors class. ">
<polygon fill="#ffffff" stroke="#000000" points="926,-504.5 926,-523.5 1020,-523.5 1020,-504.5 926,-504.5"/>
<text text-anchor="middle" x="973" y="-511.5" font-family="Helvetica,sans-Serif" font-size="10.00" fill="#000000">beta_projectors.h</text>
</a>
</g>
</g>
<!-- Node96&#45;&gt;Node116 -->
<g id="edge69" class="edge">
<title>Node96&#45;&gt;Node116</title>
<path fill="none" stroke="#191970" d="M940.4843,-843.9533C948.0138,-835.7942 956.3641,-825.5215 962,-815 976.4132,-788.0925 981,-779.5246 981,-749 981,-749 981,-749 981,-626 981,-587.9867 976.3583,-542.9002 974.1462,-523.5719"/>
<polygon fill="#191970" stroke="#191970" points="937.7835,-841.7118 933.3593,-851.3388 942.8213,-846.572 937.7835,-841.7118"/>
</g>
<!-- Node121 -->
<g id="node28" class="node">
<title>Node121</title>
<g id="a_node28"><a xlink:href="sbessel_8h.html" target="_top" xlink:title="Contains implementation of sirius::Spherical_Bessel_functions and sirius::sbessel_approx classes...">
<polygon fill="#ffffff" stroke="#000000" points="893.5,-795.5 893.5,-814.5 952.5,-814.5 952.5,-795.5 893.5,-795.5"/>
<text text-anchor="middle" x="923" y="-802.5" font-family="Helvetica,sans-Serif" font-size="10.00" fill="#000000">sbessel.h</text>
</a>
</g>
</g>
<!-- Node96&#45;&gt;Node121 -->
<g id="edge67" class="edge">
<title>Node96&#45;&gt;Node121</title>
<path fill="none" stroke="#191970" d="M923,-841.1575C923,-832.155 923,-821.9199 923,-814.6427"/>
<polygon fill="#191970" stroke="#191970" points="919.5001,-841.2455 923,-851.2455 926.5001,-841.2456 919.5001,-841.2455"/>
</g>
<!-- Node122 -->
<g id="node29" class="node">
<title>Node122</title>
<g id="a_node29"><a xlink:href="real__space__prj_8h_source.html" target="_top" xlink:title="real_space_prj.h">
<polygon fill="#ffffff" stroke="#000000" points="738,-795.5 738,-814.5 828,-814.5 828,-795.5 738,-795.5"/>
<text text-anchor="middle" x="783" y="-802.5" font-family="Helvetica,sans-Serif" font-size="10.00" fill="#000000">real_space_prj.h</text>
</a>
</g>
</g>
<!-- Node96&#45;&gt;Node122 -->
<g id="edge70" class="edge">
<title>Node96&#45;&gt;Node122</title>
<path fill="none" stroke="#191970" d="M889.6351,-847.6541C864.1048,-837.4419 829.5216,-823.6086 806.7528,-814.5011"/>
<polygon fill="#191970" stroke="#191970" points="888.3485,-850.909 898.9331,-851.3733 890.9483,-844.4096 888.3485,-850.909"/>
</g>
<!-- Node98 -->
<g id="node5" class="node">
<title>Node98</title>
<g id="a_node5"><a xlink:href="augmentation__operator_8h.html" target="_top" xlink:title="Contains implementation of sirius::Augmentation_operator class. ">
<polygon fill="#ffffff" stroke="#000000" points="825,-616.5 825,-635.5 953,-635.5 953,-616.5 825,-616.5"/>
<text text-anchor="middle" x="889" y="-623.5" font-family="Helvetica,sans-Serif" font-size="10.00" fill="#000000">augmentation_operator.h</text>
</a>
</g>
</g>
<!-- Node97&#45;&gt;Node98 -->
<g id="edge4" class="edge">
<title>Node97&#45;&gt;Node98</title>
<path fill="none" stroke="#191970" d="M889,-729.2305C889,-702.4497 889,-655.686 889,-635.6068"/>
<polygon fill="#191970" stroke="#191970" points="885.5001,-729.3484 889,-739.3484 892.5001,-729.3484 885.5001,-729.3484"/>
</g>
<!-- Node119 -->
<g id="node26" class="node">
<title>Node119</title>
<g id="a_node26"><a xlink:href="simulation__context__base_8h.html" target="_top" xlink:title="Contains definition and implementation of Simulation_context_base class. ">
<polygon fill="#ffffff" stroke="#000000" points="733.5,-672.5 733.5,-702.5 832.5,-702.5 832.5,-672.5 733.5,-672.5"/>
<text text-anchor="start" x="741.5" y="-690.5" font-family="Helvetica,sans-Serif" font-size="10.00" fill="#000000">simulation_context</text>
<text text-anchor="middle" x="783" y="-679.5" font-family="Helvetica,sans-Serif" font-size="10.00" fill="#000000">_base.h</text>
</a>
</g>
</g>
<!-- Node97&#45;&gt;Node119 -->
<g id="edge62" class="edge">
<title>Node97&#45;&gt;Node119</title>
<path fill="none" stroke="#191970" d="M863.3594,-734.1236C846.86,-724.5508 825.4866,-712.1502 808.9305,-702.5446"/>
<polygon fill="#191970" stroke="#191970" points="862.0314,-737.3995 872.4375,-739.3906 865.5443,-731.3448 862.0314,-737.3995"/>
</g>
<!-- Node99 -->
<g id="node6" class="node">
<title>Node99</title>
<g id="a_node6"><a xlink:href="simulation__context_8h.html" target="_top" xlink:title="Contains definition and implementation of Simulation_parameters and Simulation_context classes...">
<polygon fill="#ffffff" stroke="#000000" points="706,-560.5 706,-579.5 814,-579.5 814,-560.5 706,-560.5"/>
<text text-anchor="middle" x="760" y="-567.5" font-family="Helvetica,sans-Serif" font-size="10.00" fill="#000000">simulation_context.h</text>
</a>
</g>
</g>
<!-- Node98&#45;&gt;Node99 -->
<g id="edge5" class="edge">
<title>Node98&#45;&gt;Node99</title>
<path fill="none" stroke="#191970" d="M857.6329,-612.3833C834.1716,-602.1985 802.6815,-588.5284 781.8865,-579.5011"/>
<polygon fill="#191970" stroke="#191970" points="856.2574,-615.6017 866.8241,-616.3733 859.0449,-609.1806 856.2574,-615.6017"/>
</g>
<!-- Node112 -->
<g id="node19" class="node">
<title>Node112</title>
<g id="a_node19"><a xlink:href="forces_8h_source.html" target="_top" xlink:title="forces.h">
<polygon fill="#ffffff" stroke="#000000" points="768,-168.5 768,-187.5 820,-187.5 820,-168.5 768,-168.5"/>
<text text-anchor="middle" x="794" y="-175.5" font-family="Helvetica,sans-Serif" font-size="10.00" fill="#000000">forces.h</text>
</a>
</g>
</g>
<!-- Node98&#45;&gt;Node112 -->
<g id="edge60" class="edge">
<title>Node98&#45;&gt;Node112</title>
<path fill="none" stroke="#191970" d="M938.9296,-613.9116C1010.5721,-595.0871 1134,-556.49 1134,-514 1134,-514 1134,-514 1134,-290 1134,-241.1111 1090.7974,-243.5784 1046,-224 968.573,-190.1611 867.2645,-181.2131 820.1736,-178.8484"/>
<polygon fill="#191970" stroke="#191970" points="937.9861,-610.5404 929.1824,-616.4349 939.7405,-617.317 937.9861,-610.5404"/>
</g>
<!-- Node113 -->
<g id="node20" class="node">
<title>Node113</title>
<g id="a_node20"><a xlink:href="non__local__functor_8h_source.html" target="_top" xlink:title="non_local_functor.h">
<polygon fill="#ffffff" stroke="#000000" points="742,-224.5 742,-243.5 846,-243.5 846,-224.5 742,-224.5"/>
<text text-anchor="middle" x="794" y="-231.5" font-family="Helvetica,sans-Serif" font-size="10.00" fill="#000000">non_local_functor.h</text>
</a>
</g>
</g>
<!-- Node98&#45;&gt;Node113 -->
<g id="edge61" class="edge">
<title>Node98&#45;&gt;Node113</title>
<path fill="none" stroke="#191970" d="M889.9462,-605.9956C891.0603,-572.7554 891.4048,-504.2373 879,-448 860.8309,-365.6303 814.8688,-273.6639 799.2717,-243.8771"/>
<polygon fill="#191970" stroke="#191970" points="886.4405,-606.0725 889.5397,-616.2038 893.435,-606.3511 886.4405,-606.0725"/>
</g>
<!-- Node99&#45;&gt;Node100 -->
<g id="edge6" class="edge">
<title>Node99&#45;&gt;Node100</title>
<path fill="none" stroke="#191970" d="M695.7417,-564.2933C610.1013,-556.453 453.8974,-541.3341 321,-524 316.5394,-523.4182 311.9103,-522.7741 307.2741,-522.1013"/>
<polygon fill="#191970" stroke="#191970" points="695.5531,-567.7905 705.8296,-565.213 696.1887,-560.8194 695.5531,-567.7905"/>
</g>
<!-- Node110 -->
<g id="node17" class="node">
<title>Node110</title>
<g id="a_node17"><a xlink:href="density_8h.html" target="_top" xlink:title="Contains definition and partial implementation of sirius::Density class. ">
<polygon fill="#ffffff" stroke="#000000" points="552.5,-336.5 552.5,-355.5 609.5,-355.5 609.5,-336.5 552.5,-336.5"/>
<text text-anchor="middle" x="581" y="-343.5" font-family="Helvetica,sans-Serif" font-size="10.00" fill="#000000">density.h</text>
</a>
</g>
</g>
<!-- Node99&#45;&gt;Node110 -->
<g id="edge56" class="edge">
<title>Node99&#45;&gt;Node110</title>
<path fill="none" stroke="#191970" d="M743.7374,-552.8804C735.8005,-544.3528 726.2161,-533.7947 718,-524 665.8723,-461.8563 608.0107,-383.1883 588.1452,-355.8725"/>
<polygon fill="#191970" stroke="#191970" points="741.3474,-555.4483 750.7437,-560.3431 746.4507,-550.657 741.3474,-555.4483"/>
</g>
<!-- Node99&#45;&gt;Node111 -->
<g id="edge55" class="edge">
<title>Node99&#45;&gt;Node111</title>
<path fill="none" stroke="#191970" d="M695.5141,-565.8812C619.694,-557.9925 493.6121,-535.0004 410,-468 351.639,-421.2339 322.7309,-329.8533 314.5178,-299.8228"/>
<polygon fill="#191970" stroke="#191970" points="695.5754,-569.4039 705.8694,-566.8971 696.2589,-562.4374 695.5754,-569.4039"/>
</g>
<!-- Node99&#45;&gt;Node112 -->
<g id="edge58" class="edge">
<title>Node99&#45;&gt;Node112</title>
<path fill="none" stroke="#191970" d="M824.2915,-563.4903C892.1936,-555.8293 994.1587,-541.8573 1029,-524 1066.1979,-504.9349 1096,-499.799 1096,-458 1096,-458 1096,-458 1096,-290 1096,-239.6776 1049.9699,-244.4723 1004,-224 941.6069,-196.2138 861.1061,-184.6471 820.2689,-180.3099"/>
<polygon fill="#191970" stroke="#191970" points="823.67,-560.0377 814.1173,-564.6199 824.4425,-566.9949 823.67,-560.0377"/>
</g>
<!-- Node99&#45;&gt;Node113 -->
<g id="edge59" class="edge">
<title>Node99&#45;&gt;Node113</title>
<path fill="none" stroke="#191970" d="M757.7632,-550.4797C755.5344,-529.9748 752.2669,-496.7711 751,-468 750.609,-459.1197 750.1201,-456.8452 751,-448 758.9522,-368.0564 783.2226,-273.7601 791.3306,-243.7074"/>
<polygon fill="#191970" stroke="#191970" points="754.2889,-550.9054 758.8753,-560.4561 761.2458,-550.1299 754.2889,-550.9054"/>
</g>
<!-- Node99&#45;&gt;Node116 -->
<g id="edge47" class="edge">
<title>Node99&#45;&gt;Node116</title>
<path fill="none" stroke="#191970" d="M806.4585,-557.7856C845.6393,-547.4845 900.9235,-532.9497 936.8618,-523.5011"/>
<polygon fill="#191970" stroke="#191970" points="805.3974,-554.4455 796.616,-560.3733 807.1773,-561.2155 805.3974,-554.4455"/>
</g>
<!-- Node117 -->
<g id="node24" class="node">
<title>Node117</title>
<g id="a_node24"><a xlink:href="non__local__operator_8h.html" target="_top" xlink:title="Contains declaration and implementation of sirius::Non_local_operator class. ">
<polygon fill="#ffffff" stroke="#000000" points="760,-448.5 760,-467.5 870,-467.5 870,-448.5 760,-448.5"/>
<text text-anchor="middle" x="815" y="-455.5" font-family="Helvetica,sans-Serif" font-size="10.00" fill="#000000">non_local_operator.h</text>
</a>
</g>
</g>
<!-- Node99&#45;&gt;Node117 -->
<g id="edge57" class="edge">
<title>Node99&#45;&gt;Node117</title>
<path fill="none" stroke="#191970" d="M769.2077,-551.2498C781.0696,-527.0946 801.2401,-486.0202 810.3226,-467.5249"/>
<polygon fill="#191970" stroke="#191970" points="765.9556,-549.932 764.6893,-560.4509 772.2389,-553.0176 765.9556,-549.932"/>
</g>
<!-- Node101 -->
<g id="node8" class="node">
<title>Node101</title>
<g id="a_node8"><a xlink:href="band_8h.html" target="_top" xlink:title="Contains declaration and partial implementation of sirius::Band class. ">
<polygon fill="#ffffff" stroke="#000000" points="168.5,-224.5 168.5,-243.5 215.5,-243.5 215.5,-224.5 168.5,-224.5"/>
<text text-anchor="middle" x="192" y="-231.5" font-family="Helvetica,sans-Serif" font-size="10.00" fill="#000000">band.h</text>
</a>
</g>
</g>
<!-- Node100&#45;&gt;Node101 -->
<g id="edge7" class="edge">
<title>Node100&#45;&gt;Node101</title>
<path fill="none" stroke="#191970" d="M214.6719,-500.9656C172.505,-485.0386 114,-453.6365 114,-402 114,-402 114,-402 114,-346 114,-300.9791 156.9657,-261.0918 179.1199,-243.5173"/>
<polygon fill="#191970" stroke="#191970" points="213.5986,-504.2992 224.1929,-504.408 215.9788,-497.7163 213.5986,-504.2992"/>
</g>
<!-- Node100&#45;&gt;Node105 -->
<g id="edge46" class="edge">
<title>Node100&#45;&gt;Node105</title>
<path fill="none" stroke="#191970" d="M200.5178,-501.7107C176.5566,-494.596 149.3057,-483.8257 128,-468 73.9095,-427.822 38,-413.3799 38,-346 38,-346 38,-346 38,-178 38,-105.073 303.4454,-75.4337 385.8787,-67.9876"/>
<polygon fill="#191970" stroke="#191970" points="199.6354,-505.0983 210.2102,-504.4469 201.5373,-498.3616 199.6354,-505.0983"/>
</g>
<!-- Node108 -->
<g id="node15" class="node">
<title>Node108</title>
<g id="a_node15"><a xlink:href="k__point_8h.html" target="_top" xlink:title="Contains definition and partial implementation of sirius::K_point class. ">
<polygon fill="#ffffff" stroke="#000000" points="419.5,-448.5 419.5,-467.5 476.5,-467.5 476.5,-448.5 419.5,-448.5"/>
<text text-anchor="middle" x="448" y="-455.5" font-family="Helvetica,sans-Serif" font-size="10.00" fill="#000000">k_point.h</text>
</a>
</g>
</g>
<!-- Node100&#45;&gt;Node108 -->
<g id="edge16" class="edge">
<title>Node100&#45;&gt;Node108</title>
<path fill="none" stroke="#191970" d="M299.6935,-501.4825C336.1604,-490.7907 387.6107,-475.7058 419.3327,-466.4051"/>
<polygon fill="#191970" stroke="#191970" points="298.4454,-498.2011 289.8341,-504.3733 300.4149,-504.9183 298.4454,-498.2011"/>
</g>
<!-- Node100&#45;&gt;Node110 -->
<g id="edge41" class="edge">
<title>Node100&#45;&gt;Node110</title>
<path fill="none" stroke="#191970" d="M317.4478,-509.0246C364.6996,-503.4533 431.1704,-491.8489 485,-468 523.3608,-451.0045 536.7924,-446.2694 561,-412 573.296,-394.5932 578.1621,-369.4844 579.9858,-355.7997"/>
<polygon fill="#191970" stroke="#191970" points="316.9166,-505.5622 307.3695,-510.156 317.6976,-512.5185 316.9166,-505.5622"/>
</g>
<!-- Node100&#45;&gt;Node111 -->
<g id="edge40" class="edge">
<title>Node100&#45;&gt;Node111</title>
<path fill="none" stroke="#191970" d="M261.8096,-494.4119C273.1671,-448.1557 301.3207,-333.494 309.6455,-299.5891"/>
<polygon fill="#191970" stroke="#191970" points="258.3488,-493.8288 259.3633,-504.375 265.1469,-495.4981 258.3488,-493.8288"/>
</g>
<!-- Node100&#45;&gt;Node112 -->
<g id="edge44" class="edge">
<title>Node100&#45;&gt;Node112</title>
<path fill="none" stroke="#191970" d="M317.3409,-507.4848C383.6256,-499.6235 485.2916,-485.2846 520,-468 552.6521,-451.7394 555.0961,-438.6526 580,-412 653.5498,-333.2856 655.428,-298.7537 733,-224 747.5174,-210.01 766.3003,-196.4164 779.1654,-187.6804"/>
<polygon fill="#191970" stroke="#191970" points="316.5484,-504.0535 307.0221,-508.6904 317.3607,-511.0062 316.5484,-504.0535"/>
</g>
<!-- Node100&#45;&gt;Node113 -->
<g id="edge45" class="edge">
<title>Node100&#45;&gt;Node113</title>
<path fill="none" stroke="#191970" d="M317.2623,-512.5306C409.4891,-509.3061 580.3954,-499.1902 632,-468 679.044,-439.5662 766.688,-283.7935 788.8205,-243.5117"/>
<polygon fill="#191970" stroke="#191970" points="317.1103,-509.0336 307.2325,-512.8649 317.3436,-516.0297 317.1103,-509.0336"/>
</g>
<!-- Node115 -->
<g id="node22" class="node">
<title>Node115</title>
<g id="a_node22"><a xlink:href="local__operator_8h.html" target="_top" xlink:title="Contains declaration and implementation of sirius::Local_operator class. ">
<polygon fill="#ffffff" stroke="#000000" points="142,-336.5 142,-355.5 230,-355.5 230,-336.5 142,-336.5"/>
<text text-anchor="middle" x="186" y="-343.5" font-family="Helvetica,sans-Serif" font-size="10.00" fill="#000000">local_operator.h</text>
</a>
</g>
</g>
<!-- Node100&#45;&gt;Node115 -->
<g id="edge42" class="edge">
<title>Node100&#45;&gt;Node115</title>
<path fill="none" stroke="#191970" d="M249.05,-495.1887C233.9572,-459.4762 201.6364,-382.9988 190.1535,-355.8279"/>
<polygon fill="#191970" stroke="#191970" points="245.8625,-496.6376 252.9793,-504.4862 252.3103,-493.9125 245.8625,-496.6376"/>
</g>
<!-- Node102 -->
<g id="node9" class="node">
<title>Node102</title>
<g id="a_node9"><a xlink:href="add__nl__h__o__rs_8cpp_source.html" target="_top" xlink:title="add_nl_h_o_rs.cpp">
<polygon fill="#ffffff" stroke="#000000" points="128,-168.5 128,-187.5 230,-187.5 230,-168.5 128,-168.5"/>
<text text-anchor="middle" x="179" y="-175.5" font-family="Helvetica,sans-Serif" font-size="10.00" fill="#000000">add_nl_h_o_rs.cpp</text>
</a>
</g>
</g>
<!-- Node101&#45;&gt;Node102 -->
<g id="edge8" class="edge">
<title>Node101&#45;&gt;Node102</title>
<path fill="none" stroke="#191970" d="M187.4625,-214.4538C185.3561,-205.3803 182.9464,-194.9998 181.2385,-187.6427"/>
<polygon fill="#191970" stroke="#191970" points="184.0649,-215.2961 189.7356,-224.2455 190.8835,-213.7131 184.0649,-215.2961"/>
</g>
<!-- Node103 -->
<g id="node10" class="node">
<title>Node103</title>
<g id="a_node10"><a xlink:href="force_8h.html" target="_top" xlink:title="Contains definition of sirius::Force class. ">
<polygon fill="#ffffff" stroke="#000000" points="310.5,-168.5 310.5,-187.5 357.5,-187.5 357.5,-168.5 310.5,-168.5"/>
<text text-anchor="middle" x="334" y="-175.5" font-family="Helvetica,sans-Serif" font-size="10.00" fill="#000000">force.h</text>
</a>
</g>
</g>
<!-- Node101&#45;&gt;Node103 -->
<g id="edge9" class="edge">
<title>Node101&#45;&gt;Node103</title>
<path fill="none" stroke="#191970" d="M225.2352,-220.8932C251.2788,-210.6225 286.8844,-196.5808 310.1549,-187.4037"/>
<polygon fill="#191970" stroke="#191970" points="223.7863,-217.7022 215.7676,-224.6269 226.3544,-224.2141 223.7863,-217.7022"/>
</g>
<!-- Node101&#45;&gt;Node105 -->
<g id="edge15" class="edge">
<title>Node101&#45;&gt;Node105</title>
<path fill="none" stroke="#191970" d="M159.2493,-221.244C133.7097,-209.2768 104.7706,-189.9668 119,-168 149.1965,-121.3836 321.6246,-83.3242 385.8749,-70.5764"/>
<polygon fill="#191970" stroke="#191970" points="157.8583,-224.4558 168.4185,-225.312 160.6972,-218.0573 157.8583,-224.4558"/>
</g>
<!-- Node104 -->
<g id="node11" class="node">
<title>Node104</title>
<g id="a_node11"><a xlink:href="dft__ground__state_8h.html" target="_top" xlink:title="Contains definition and partial implementation of sirius::DFT_ground_state class. ...">
<polygon fill="#ffffff" stroke="#000000" points="513,-112.5 513,-131.5 613,-131.5 613,-112.5 513,-112.5"/>
<text text-anchor="middle" x="563" y="-119.5" font-family="Helvetica,sans-Serif" font-size="10.00" fill="#000000">dft_ground_state.h</text>
</a>
</g>
</g>
<!-- Node103&#45;&gt;Node104 -->
<g id="edge10" class="edge">
<title>Node103&#45;&gt;Node104</title>
<path fill="none" stroke="#191970" d="M367.5541,-169.7946C409.1364,-159.626 479.8722,-142.3282 523.8775,-131.5671"/>
<polygon fill="#191970" stroke="#191970" points="366.5269,-166.4426 357.6445,-172.2179 368.1897,-173.2423 366.5269,-166.4426"/>
</g>
<!-- Node103&#45;&gt;Node105 -->
<g id="edge14" class="edge">
<title>Node103&#45;&gt;Node105</title>
<path fill="none" stroke="#191970" d="M321.1396,-159.6897C313.0945,-145.778 305.8409,-126.6112 315,-112 330.3778,-87.4682 362.9611,-75.6955 385.6541,-70.277"/>
<polygon fill="#191970" stroke="#191970" points="318.3296,-161.7938 326.6438,-168.3608 324.2395,-158.0424 318.3296,-161.7938"/>
</g>
<!-- Node107 -->
<g id="node14" class="node">
<title>Node107</title>
<g id="a_node14"><a xlink:href="force_8cpp.html" target="_top" xlink:title="Contains implementation of sirius::Force class. ">
<polygon fill="#ffffff" stroke="#000000" points="324,-112.5 324,-131.5 382,-131.5 382,-112.5 324,-112.5"/>
<text text-anchor="middle" x="353" y="-119.5" font-family="Helvetica,sans-Serif" font-size="10.00" fill="#000000">force.cpp</text>
</a>
</g>
</g>
<!-- Node103&#45;&gt;Node107 -->
<g id="edge13" class="edge">
<title>Node103&#45;&gt;Node107</title>
<path fill="none" stroke="#191970" d="M340.5315,-158.7493C343.6336,-149.6064 347.2051,-139.0798 349.7284,-131.6427"/>
<polygon fill="#191970" stroke="#191970" points="337.2082,-157.6512 337.3095,-168.2455 343.837,-159.9003 337.2082,-157.6512"/>
</g>
<!-- Node104&#45;&gt;Node105 -->
<g id="edge11" class="edge">
<title>Node104&#45;&gt;Node105</title>
<path fill="none" stroke="#191970" d="M527.0921,-108.8572C498.5696,-98.4176 459.4492,-84.0991 434.4443,-74.9469"/>
<polygon fill="#191970" stroke="#191970" points="526.1046,-112.2228 536.6984,-112.3733 528.5106,-105.6493 526.1046,-112.2228"/>
</g>
<!-- Node106 -->
<g id="node13" class="node">
<title>Node106</title>
<g id="a_node13"><a xlink:href="sirius__api_8cpp.html" target="_top" xlink:title="Fortran API. ">
<polygon fill="#ffffff" stroke="#000000" points="371,-.5 371,-19.5 449,-19.5 449,-.5 371,-.5"/>
<text text-anchor="middle" x="410" y="-7.5" font-family="Helvetica,sans-Serif" font-size="10.00" fill="#000000">sirius_api.cpp</text>
</a>
</g>
</g>
<!-- Node105&#45;&gt;Node106 -->
<g id="edge12" class="edge">
<title>Node105&#45;&gt;Node106</title>
<path fill="none" stroke="#191970" d="M410,-46.1575C410,-37.155 410,-26.9199 410,-19.6427"/>
<polygon fill="#191970" stroke="#191970" points="406.5001,-46.2455 410,-56.2455 413.5001,-46.2456 406.5001,-46.2455"/>
</g>
<!-- Node108&#45;&gt;Node103 -->
<g id="edge38" class="edge">
<title>Node108&#45;&gt;Node103</title>
<path fill="none" stroke="#191970" d="M439.475,-438.6297C423.1034,-401.2385 386.3716,-316.4092 358,-244 350.2605,-224.2474 341.9545,-200.8556 337.4275,-187.8969"/>
<polygon fill="#191970" stroke="#191970" points="436.4769,-440.5078 443.7004,-448.2584 442.8869,-437.6948 436.4769,-440.5078"/>
</g>
<!-- Node108&#45;&gt;Node105 -->
<g id="edge39" class="edge">
<title>Node108&#45;&gt;Node105</title>
<path fill="none" stroke="#191970" d="M446.0667,-438.0565C439.1687,-366.8985 415.9127,-126.9943 410.9405,-75.7021"/>
<polygon fill="#191970" stroke="#191970" points="442.612,-438.6944 447.0607,-448.3101 449.5794,-438.019 442.612,-438.6944"/>
</g>
<!-- Node109 -->
<g id="node16" class="node">
<title>Node109</title>
<g id="a_node16"><a xlink:href="k__point__set_8h.html" target="_top" xlink:title="Contains declaration and partial implementation of sirius::K_point_set class. ">
<polygon fill="#ffffff" stroke="#000000" points="476,-392.5 476,-411.5 552,-411.5 552,-392.5 476,-392.5"/>
<text text-anchor="middle" x="514" y="-399.5" font-family="Helvetica,sans-Serif" font-size="10.00" fill="#000000">k_point_set.h</text>
</a>
</g>
</g>
<!-- Node108&#45;&gt;Node109 -->
<g id="edge17" class="edge">
<title>Node108&#45;&gt;Node109</title>
<path fill="none" stroke="#191970" d="M467.2755,-441.645C478.7538,-431.9058 492.9277,-419.8795 502.6354,-411.6427"/>
<polygon fill="#191970" stroke="#191970" points="464.857,-439.1069 459.4963,-448.2455 469.3859,-444.4445 464.857,-439.1069"/>
</g>
<!-- Node109&#45;&gt;Node101 -->
<g id="edge18" class="edge">
<title>Node109&#45;&gt;Node101</title>
<path fill="none" stroke="#191970" d="M473.7047,-389.2446C424.0109,-372.5969 337.9148,-340.7226 271,-300 243.5196,-283.2761 215.6271,-257.4408 201.4879,-243.575"/>
<polygon fill="#191970" stroke="#191970" points="472.8456,-392.6469 483.4389,-392.4664 475.0452,-386.0015 472.8456,-392.6469"/>
</g>
<!-- Node109&#45;&gt;Node104 -->
<g id="edge36" class="edge">
<title>Node109&#45;&gt;Node104</title>
<path fill="none" stroke="#191970" d="M516.8359,-382.2428C519.7925,-359.9031 524,-322.4169 524,-290 524,-290 524,-290 524,-234 524,-194.2621 546.1666,-150.7836 557.0767,-131.7906"/>
<polygon fill="#191970" stroke="#191970" points="513.3291,-382.0534 515.4328,-392.4373 520.2637,-383.008 513.3291,-382.0534"/>
</g>
<!-- Node109&#45;&gt;Node105 -->
<g id="edge37" class="edge">
<title>Node109&#45;&gt;Node105</title>
<path fill="none" stroke="#191970" d="M506.1585,-382.8271C497.8754,-360.8089 486,-323.4152 486,-290 486,-290 486,-290 486,-234 486,-168.3748 437.265,-100.1223 417.8471,-75.5326"/>
<polygon fill="#191970" stroke="#191970" points="502.9674,-384.2771 509.8685,-392.3161 509.4868,-381.7281 502.9674,-384.2771"/>
</g>
<!-- Node109&#45;&gt;Node110 -->
<g id="edge19" class="edge">
<title>Node109&#45;&gt;Node110</title>
<path fill="none" stroke="#191970" d="M533.5676,-385.645C545.2198,-375.9058 559.6084,-363.8795 569.4632,-355.6427"/>
<polygon fill="#191970" stroke="#191970" points="531.0988,-383.1469 525.6705,-392.2455 535.5879,-388.5179 531.0988,-383.1469"/>
</g>
<!-- Node110&#45;&gt;Node103 -->
<g id="edge32" class="edge">
<title>Node110&#45;&gt;Node103</title>
<path fill="none" stroke="#191970" d="M558.512,-330.7045C508.4838,-296.6772 389.1665,-215.5222 348.1402,-187.6177"/>
<polygon fill="#191970" stroke="#191970" points="556.7754,-333.7562 567.0125,-336.4862 560.7123,-327.9681 556.7754,-333.7562"/>
</g>
<!-- Node110&#45;&gt;Node104 -->
<g id="edge31" class="edge">
<title>Node110&#45;&gt;Node104</title>
<path fill="none" stroke="#191970" d="M579.4023,-326.1177C575.67,-279.6713 566.4893,-165.4223 563.7706,-131.5891"/>
<polygon fill="#191970" stroke="#191970" points="575.9367,-326.6875 580.2266,-336.375 582.9142,-326.1268 575.9367,-326.6875"/>
</g>
<!-- Node110&#45;&gt;Node105 -->
<g id="edge35" class="edge">
<title>Node110&#45;&gt;Node105</title>
<path fill="none" stroke="#191970" d="M590.5555,-327.1236C608.2817,-291.7077 645.0079,-216.318 651,-188 658.4843,-152.6299 650.7083,-133.9748 622,-112 592.617,-89.5087 483.4362,-74.443 434.2714,-68.6547"/>
<polygon fill="#191970" stroke="#191970" points="587.2767,-325.8531 585.9093,-336.3594 593.53,-328.999 587.2767,-325.8531"/>
</g>
<!-- Node110&#45;&gt;Node111 -->
<g id="edge20" class="edge">
<title>Node110&#45;&gt;Node111</title>
<path fill="none" stroke="#191970" d="M542.3446,-337.9528C488.7884,-326.8035 393.0356,-306.8699 343.5458,-296.5672"/>
<polygon fill="#191970" stroke="#191970" points="541.9635,-341.4484 552.467,-340.06 543.3902,-334.5953 541.9635,-341.4484"/>
</g>
<!-- Node110&#45;&gt;Node112 -->
<g id="edge33" class="edge">
<title>Node110&#45;&gt;Node112</title>
<path fill="none" stroke="#191970" d="M594.8982,-328.2981C615.6427,-302.7492 656.9033,-255.1902 700,-224 721.489,-208.4478 749.0412,-195.6731 768.7513,-187.5662"/>
<polygon fill="#191970" stroke="#191970" points="591.9656,-326.3607 588.4468,-336.3542 597.4296,-330.7363 591.9656,-326.3607"/>
</g>
<!-- Node110&#45;&gt;Node113 -->
<g id="edge34" class="edge">
<title>Node110&#45;&gt;Node113</title>
<path fill="none" stroke="#191970" d="M608.1628,-331.7172C652.3038,-308.5069 738.4347,-263.2174 775.8857,-243.5249"/>
<polygon fill="#191970" stroke="#191970" points="606.3823,-328.699 599.1603,-336.4509 609.6402,-334.8947 606.3823,-328.699"/>
</g>
<!-- Node111&#45;&gt;Node101 -->
<g id="edge21" class="edge">
<title>Node111&#45;&gt;Node101</title>
<path fill="none" stroke="#191970" d="M282.2376,-276.1109C260.4768,-265.9559 231.5318,-252.4482 212.3595,-243.5011"/>
<polygon fill="#191970" stroke="#191970" points="280.8293,-279.316 291.3713,-280.3733 283.7895,-272.9727 280.8293,-279.316"/>
</g>
<!-- Node111&#45;&gt;Node103 -->
<g id="edge23" class="edge">
<title>Node111&#45;&gt;Node103</title>
<path fill="none" stroke="#191970" d="M313.5268,-269.7989C314.7459,-256.6568 316.7918,-239.1984 320,-224 322.6896,-211.2582 327.3,-196.9639 330.4914,-187.7408"/>
<polygon fill="#191970" stroke="#191970" points="310.0132,-269.8127 312.6598,-280.0716 316.9884,-270.4014 310.0132,-269.8127"/>
</g>
<!-- Node111&#45;&gt;Node104 -->
<g id="edge22" class="edge">
<title>Node111&#45;&gt;Node104</title>
<path fill="none" stroke="#191970" d="M334.5367,-274.9157C385.1871,-241.0142 506.8536,-159.5801 548.6308,-131.6177"/>
<polygon fill="#191970" stroke="#191970" points="332.5775,-272.0153 326.214,-280.4862 336.4711,-277.8325 332.5775,-272.0153"/>
</g>
<!-- Node111&#45;&gt;Node105 -->
<g id="edge30" class="edge">
<title>Node111&#45;&gt;Node105</title>
<path fill="none" stroke="#191970" d="M304.5224,-270.7585C292.1935,-235.5087 272.2321,-159.8101 307,-112 325.5443,-86.4993 361.5022,-74.8796 385.636,-69.7674"/>
<polygon fill="#191970" stroke="#191970" points="301.3022,-272.143 308.0345,-280.3238 307.8733,-269.7302 301.3022,-272.143"/>
</g>
<!-- Node111&#45;&gt;Node112 -->
<g id="edge24" class="edge">
<title>Node111&#45;&gt;Node112</title>
<path fill="none" stroke="#191970" d="M353.6388,-280.3246C450.5299,-257.8105 688.8578,-202.4314 767.9895,-184.0439"/>
<polygon fill="#191970" stroke="#191970" points="352.5737,-276.9788 343.6254,-282.6514 354.1581,-283.7971 352.5737,-276.9788"/>
</g>
<!-- Node111&#45;&gt;Node113 -->
<g id="edge26" class="edge">
<title>Node111&#45;&gt;Node113</title>
<path fill="none" stroke="#191970" d="M353.7534,-285.149C441.6422,-274.9378 645.5423,-251.2482 741.8449,-240.0595"/>
<polygon fill="#191970" stroke="#191970" points="353.1546,-281.6949 343.6254,-286.3257 353.9625,-288.6481 353.1546,-281.6949"/>
</g>
<!-- Node112&#45;&gt;Node104 -->
<g id="edge25" class="edge">
<title>Node112&#45;&gt;Node104</title>
<path fill="none" stroke="#191970" d="M758.1057,-169.2984C715.9086,-159.0687 646.1069,-142.1471 602.4335,-131.5596"/>
<polygon fill="#191970" stroke="#191970" points="757.4073,-172.7303 767.9504,-171.6849 759.0565,-165.9274 757.4073,-172.7303"/>
</g>
<!-- Node113&#45;&gt;Node112 -->
<g id="edge27" class="edge">
<title>Node113&#45;&gt;Node112</title>
<path fill="none" stroke="#191970" d="M794,-214.1575C794,-205.155 794,-194.9199 794,-187.6427"/>
<polygon fill="#191970" stroke="#191970" points="790.5001,-214.2455 794,-224.2455 797.5001,-214.2456 790.5001,-214.2455"/>
</g>
<!-- Node114 -->
<g id="node21" class="node">
<title>Node114</title>
<g id="a_node21"><a xlink:href="stress_8h.html" target="_top" xlink:title="Stress tensor calculation. ">
<polygon fill="#ffffff" stroke="#000000" points="590,-168.5 590,-187.5 642,-187.5 642,-168.5 590,-168.5"/>
<text text-anchor="middle" x="616" y="-175.5" font-family="Helvetica,sans-Serif" font-size="10.00" fill="#000000">stress.h</text>
</a>
</g>
</g>
<!-- Node113&#45;&gt;Node114 -->
<g id="edge28" class="edge">
<title>Node113&#45;&gt;Node114</title>
<path fill="none" stroke="#191970" d="M753.7171,-221.3267C719.5446,-210.5758 671.5227,-195.4678 642.151,-186.2273"/>
<polygon fill="#191970" stroke="#191970" points="752.8113,-224.7108 763.4007,-224.3733 754.912,-218.0335 752.8113,-224.7108"/>
</g>
<!-- Node114&#45;&gt;Node104 -->
<g id="edge29" class="edge">
<title>Node114&#45;&gt;Node104</title>
<path fill="none" stroke="#191970" d="M599.7104,-160.7884C590.6438,-151.2085 579.6946,-139.6396 572.1261,-131.6427"/>
<polygon fill="#191970" stroke="#191970" points="597.3522,-163.3884 606.7681,-168.2455 602.4363,-158.5767 597.3522,-163.3884"/>
</g>
<!-- Node115&#45;&gt;Node101 -->
<g id="edge43" class="edge">
<title>Node115&#45;&gt;Node101</title>
<path fill="none" stroke="#191970" d="M187.057,-326.2702C188.3572,-301.9985 190.5122,-261.7725 191.4897,-243.5249"/>
<polygon fill="#191970" stroke="#191970" points="183.5516,-326.278 186.5116,-336.4509 190.5416,-326.6525 183.5516,-326.278"/>
</g>
<!-- Node116&#45;&gt;Node108 -->
<g id="edge48" class="edge">
<title>Node116&#45;&gt;Node108</title>
<path fill="none" stroke="#191970" d="M915.8744,-507.9066C804.0951,-495.9835 560.1024,-469.9576 476.6539,-461.0564"/>
<polygon fill="#191970" stroke="#191970" points="915.6329,-511.4006 925.9477,-508.9811 916.3754,-504.4401 915.6329,-511.4006"/>
</g>
<!-- Node116&#45;&gt;Node112 -->
<g id="edge53" class="edge">
<title>Node116&#45;&gt;Node112</title>
<path fill="none" stroke="#191970" d="M995.7488,-498.3024C1020.9273,-478.8775 1058,-443.2693 1058,-402 1058,-402 1058,-402 1058,-290 1058,-238.719 887.0542,-197.4459 820.2785,-183.2798"/>
<polygon fill="#191970" stroke="#191970" points="993.3656,-495.7123 987.4191,-504.481 997.5359,-501.3345 993.3656,-495.7123"/>
</g>
<!-- Node116&#45;&gt;Node113 -->
<g id="edge54" class="edge">
<title>Node116&#45;&gt;Node113</title>
<path fill="none" stroke="#191970" d="M956.9539,-497.0918C934.5075,-473.1649 895.3198,-430.3038 885,-412 854.697,-358.253 874.8162,-332.2504 842,-280 832.7918,-265.3385 817.8949,-252.0656 807.1372,-243.5877"/>
<polygon fill="#191970" stroke="#191970" points="954.4525,-499.5409 963.8584,-504.4174 959.5466,-494.7397 954.4525,-499.5409"/>
</g>
<!-- Node116&#45;&gt;Node117 -->
<g id="edge49" class="edge">
<title>Node116&#45;&gt;Node117</title>
<path fill="none" stroke="#191970" d="M936.1045,-500.9231C907.2213,-490.686 867.7294,-476.6889 841.8067,-467.5011"/>
<polygon fill="#191970" stroke="#191970" points="935.2441,-504.3314 945.8388,-504.3733 937.5826,-497.7336 935.2441,-504.3314"/>
</g>
<!-- Node118 -->
<g id="node25" class="node">
<title>Node118</title>
<g id="a_node25"><a xlink:href="beta__projectors__gradient_8h.html" target="_top" xlink:title="Contains declaration and implementation of sirius::Beta_projectors_gradient class. ">
<polygon fill="#ffffff" stroke="#000000" points="894.5,-392.5 894.5,-411.5 1029.5,-411.5 1029.5,-392.5 894.5,-392.5"/>
<text text-anchor="middle" x="962" y="-399.5" font-family="Helvetica,sans-Serif" font-size="10.00" fill="#000000">beta_projectors_gradient.h</text>
</a>
</g>
</g>
<!-- Node116&#45;&gt;Node118 -->
<g id="edge51" class="edge">
<title>Node116&#45;&gt;Node118</title>
<path fill="none" stroke="#191970" d="M971.0623,-494.2702C968.6784,-469.9985 964.7277,-429.7725 962.9355,-411.5249"/>
<polygon fill="#191970" stroke="#191970" points="967.6014,-494.841 972.0621,-504.4509 974.5679,-494.1567 967.6014,-494.841"/>
</g>
<!-- Node117&#45;&gt;Node101 -->
<g id="edge50" class="edge">
<title>Node117&#45;&gt;Node101</title>
<path fill="none" stroke="#191970" d="M749.7345,-454.6846C679.0082,-449.871 563.3487,-438.4265 467,-412 405.9363,-395.2515 392.6306,-384.3242 336,-356 291.4784,-333.7322 275.8353,-333.4842 239,-300 220.4721,-283.1577 204.987,-257.8284 197.2707,-243.9569"/>
<polygon fill="#191970" stroke="#191970" points="749.628,-458.1851 759.8359,-455.3477 750.0866,-451.2001 749.628,-458.1851"/>
</g>
<!-- Node118&#45;&gt;Node112 -->
<g id="edge52" class="edge">
<title>Node118&#45;&gt;Node112</title>
<path fill="none" stroke="#191970" d="M953.5492,-382.929C937.6953,-348.5441 900.9117,-274.998 855,-224 841.6882,-209.2134 823.0335,-195.962 809.8673,-187.5233"/>
<polygon fill="#191970" stroke="#191970" points="950.4688,-384.611 957.7844,-392.2746 956.8446,-381.7216 950.4688,-384.611"/>
</g>
<!-- Node119&#45;&gt;Node99 -->
<g id="edge63" class="edge">
<title>Node119&#45;&gt;Node99</title>
<path fill="none" stroke="#191970" d="M778.0609,-662.2677C772.9917,-636.3706 765.3666,-597.4164 761.8712,-579.5595"/>
<polygon fill="#191970" stroke="#191970" points="774.6373,-662.9975 779.9932,-672.1389 781.5069,-661.6528 774.6373,-662.9975"/>
</g>
<!-- Node120 -->
<g id="node27" class="node">
<title>Node120</title>
<g id="a_node27"><a xlink:href="step__function_8h.html" target="_top" xlink:title="Contains definition and partial implementation of sirius::Step_function class. ">
<polygon fill="#ffffff" stroke="#000000" points="671,-616.5 671,-635.5 755,-635.5 755,-616.5 671,-616.5"/>
<text text-anchor="middle" x="713" y="-623.5" font-family="Helvetica,sans-Serif" font-size="10.00" fill="#000000">step_function.h</text>
</a>
</g>
</g>
<!-- Node119&#45;&gt;Node120 -->
<g id="edge64" class="edge">
<title>Node119&#45;&gt;Node120</title>
<path fill="none" stroke="#191970" d="M758.0156,-665.5494C746.4529,-655.3907 733.2976,-643.8329 724.2079,-635.8469"/>
<polygon fill="#191970" stroke="#191970" points="755.8741,-668.3269 765.6966,-672.2977 760.4942,-663.0681 755.8741,-668.3269"/>
</g>
<!-- Node120&#45;&gt;Node99 -->
<g id="edge65" class="edge">
<title>Node120&#45;&gt;Node99</title>
<path fill="none" stroke="#191970" d="M727.6872,-608.5004C735.6796,-598.9775 745.2625,-587.5596 751.907,-579.6427"/>
<polygon fill="#191970" stroke="#191970" points="724.9346,-606.3357 721.1868,-616.2455 730.2964,-610.8358 724.9346,-606.3357"/>
</g>
<!-- Node120&#45;&gt;Node105 -->
<g id="edge66" class="edge">
<title>Node120&#45;&gt;Node105</title>
<path fill="none" stroke="#191970" d="M660.4295,-620.9663C495.6282,-603.7513 0,-540.4681 0,-402 0,-402 0,-402 0,-178 0,-131.5625 38.4355,-130.5663 81,-112 136.1102,-87.9613 319.6879,-72.566 385.9151,-67.6805"/>
<polygon fill="#191970" stroke="#191970" points="660.4916,-624.4911 670.7975,-622.0339 661.2087,-617.5279 660.4916,-624.4911"/>
</g>
<!-- Node121&#45;&gt;Node97 -->
<g id="edge68" class="edge">
<title>Node121&#45;&gt;Node97</title>
<path fill="none" stroke="#191970" d="M911.8465,-786.6296C906.1753,-777.2887 899.5155,-766.3197 894.8545,-758.6427"/>
<polygon fill="#191970" stroke="#191970" points="908.8961,-788.5141 917.0777,-795.2455 914.8796,-784.8812 908.8961,-788.5141"/>
</g>
<!-- Node123 -->
<g id="node30" class="node">
<title>Node123</title>
<g id="a_node30"><a xlink:href="real__space__prj_8cpp_source.html" target="_top" xlink:title="real_space_prj.cpp">
<polygon fill="#ffffff" stroke="#000000" points="723.5,-739.5 723.5,-758.5 824.5,-758.5 824.5,-739.5 723.5,-739.5"/>
<text text-anchor="middle" x="774" y="-746.5" font-family="Helvetica,sans-Serif" font-size="10.00" fill="#000000">real_space_prj.cpp</text>
</a>
</g>
</g>
<!-- Node122&#45;&gt;Node123 -->
<g id="edge71" class="edge">
<title>Node122&#45;&gt;Node123</title>
<path fill="none" stroke="#191970" d="M779.811,-785.1575C778.3642,-776.155 776.7193,-765.9199 775.5497,-758.6427"/>
<polygon fill="#191970" stroke="#191970" points="776.3898,-785.9276 781.4323,-795.2455 783.3011,-784.8168 776.3898,-785.9276"/>
</g>
</g>
</svg>
        <g id="navigator" transform="translate(0 0)" fill="#404254">
                <rect fill="#f2f5e9" fill-opacity="0.5" stroke="#606060" stroke-width=".5" x="0" y="0" width="60" height="60"/>
                <use id="zoomplus" xlink:href="#zoomPlus" x="17" y="9" onmousedown="handleZoom(evt,'in')"/>
                <use id="zoomminus" xlink:href="#zoomMin" x="42" y="9" onmousedown="handleZoom(evt,'out')"/>
                <use id="reset" xlink:href="#resetDef" x="30" y="36" onmousedown="handleReset()"/>
                <g id="arrowUp" xlink:href="#dirArrow" transform="translate(30 24)" onmousedown="handlePan(0,-1)">
                  <use xlink:href="#rim" fill="#404040">
                        <set attributeName="fill" to="#808080" begin="arrowUp.mouseover" end="arrowUp.mouseout"/>
                  </use>
                  <path fill="none" stroke="white" stroke-width="1.5" d="M0,-3.0v7 M-2.5,-0.5L0,-3.0L2.5,-0.5"/>
                </g>
                <g id="arrowRight" xlink:href="#dirArrow" transform="rotate(90) translate(36 -43)" onmousedown="handlePan(1,0)">
                  <use xlink:href="#rim" fill="#404040">
                        <set attributeName="fill" to="#808080" begin="arrowRight.mouseover" end="arrowRight.mouseout"/>
                  </use>
                  <path fill="none" stroke="white" stroke-width="1.5" d="M0,-3.0v7 M-2.5,-0.5L0,-3.0L2.5,-0.5"/>
                </g>
                <g id="arrowDown" xlink:href="#dirArrow" transform="rotate(180) translate(-30 -48)" onmousedown="handlePan(0,1)">
                  <use xlink:href="#rim" fill="#404040">
                        <set attributeName="fill" to="#808080" begin="arrowDown.mouseover" end="arrowDown.mouseout"/>
                  </use>
                  <path fill="none" stroke="white" stroke-width="1.5" d="M0,-3.0v7 M-2.5,-0.5L0,-3.0L2.5,-0.5"/>
                </g>
                <g id="arrowLeft" xlink:href="#dirArrow" transform="rotate(270) translate(-36 17)" onmousedown="handlePan(-1,0)">
                  <use xlink:href="#rim" fill="#404040">
                        <set attributeName="fill" to="#808080" begin="arrowLeft.mouseover" end="arrowLeft.mouseout"/>
                  </use>
                  <path fill="none" stroke="white" stroke-width="1.5" d="M0,-3.0v7 M-2.5,-0.5L0,-3.0L2.5,-0.5"/>
                </g>
        </g>
        <svg viewBox="0 0 15 15" width="100%" height="30px" preserveAspectRatio="xMaxYMin meet">
         <g id="arrow_out" transform="scale(0.3 0.3)">
          <a xlink:href="spheric__function_8h__dep__incl_org.svg" target="_base">
           <rect id="button" ry="5" rx="5" y="6" x="6" height="38" width="38"
                fill="#f2f5e9" fill-opacity="0.5" stroke="#606060" stroke-width="1.0"/>
           <path id="arrow"
             d="M 11.500037,31.436501 C 11.940474,20.09759 22.043105,11.32322 32.158766,21.979434 L 37.068811,17.246167 C 37.068811,17.246167 37.088388,32 37.088388,32 L 22.160133,31.978069 C 22.160133,31.978069 26.997745,27.140456 26.997745,27.140456 C 18.528582,18.264221 13.291696,25.230495 11.500037,31.436501 z"
             style="fill:#404040;"/>
          </a>
         </g>
        </svg>
</svg>
