<?xml version="1.0" encoding="UTF-8" standalone="no"?>
<!DOCTYPE svg PUBLIC "-//W3C//DTD SVG 1.1//EN"
 "http://www.w3.org/Graphics/SVG/1.1/DTD/svg11.dtd">
<!-- Generated by graphviz version 2.40.1 (20161225.0304)
 -->
<!-- Title: spline.h Pages: 1 -->
<svg width="1185pt" height="1159pt"
 viewBox="0.00 0.00 1185.00 1159.00" xmlns="http://www.w3.org/2000/svg" xmlns:xlink="http://www.w3.org/1999/xlink">
<g id="graph0" class="graph" transform="scale(1 1) rotate(0) translate(4 1155)">
<title>spline.h</title>
<polygon fill="#ffffff" stroke="transparent" points="-4,4 -4,-1155 1181,-1155 1181,4 -4,4"/>
<!-- Node33 -->
<g id="node1" class="node">
<title>Node33</title>
<polygon fill="#bfbfbf" stroke="#000000" points="1001.5,-1131.5 1001.5,-1150.5 1052.5,-1150.5 1052.5,-1131.5 1001.5,-1131.5"/>
<text text-anchor="middle" x="1027" y="-1138.5" font-family="Helvetica,sans-Serif" font-size="10.00" fill="#000000">spline.h</text>
</g>
<!-- Node34 -->
<g id="node2" class="node">
<title>Node34</title>
<g id="a_node2"><a xlink:href="radial__solver_8h.html" target="_top" xlink:title="Contains declaration and partial implementation of sirius::Radial_solver class. ">
<polygon fill="#ffffff" stroke="#000000" points="986,-1075.5 986,-1094.5 1068,-1094.5 1068,-1075.5 986,-1075.5"/>
<text text-anchor="middle" x="1027" y="-1082.5" font-family="Helvetica,sans-Serif" font-size="10.00" fill="#000000">radial_solver.h</text>
</a>
</g>
</g>
<!-- Node33&#45;&gt;Node34 -->
<g id="edge1" class="edge">
<title>Node33&#45;&gt;Node34</title>
<path fill="none" stroke="#191970" d="M1027,-1121.1575C1027,-1112.155 1027,-1101.9199 1027,-1094.6427"/>
<polygon fill="#191970" stroke="#191970" points="1023.5001,-1121.2455 1027,-1131.2455 1030.5001,-1121.2456 1023.5001,-1121.2455"/>
</g>
<!-- Node46 -->
<g id="node14" class="node">
<title>Node46</title>
<g id="a_node14"><a xlink:href="sirius_8h.html" target="_top" xlink:title="&quot;All&#45;in&#45;one&quot; include file. ">
<polygon fill="#ffffff" stroke="#000000" points="710,-56.5 710,-75.5 758,-75.5 758,-56.5 710,-56.5"/>
<text text-anchor="middle" x="734" y="-63.5" font-family="Helvetica,sans-Serif" font-size="10.00" fill="#000000">sirius.h</text>
</a>
</g>
</g>
<!-- Node33&#45;&gt;Node46 -->
<g id="edge80" class="edge">
<title>Node33&#45;&gt;Node46</title>
<path fill="none" stroke="#191970" d="M1062.3609,-1131.5992C1106.7077,-1117.4174 1177,-1085.9551 1177,-1029 1177,-1029 1177,-1029 1177,-178 1177,-131.2171 1138.0493,-130.3139 1095,-112 1033.737,-85.9376 828.6829,-71.6111 758.1071,-67.3607"/>
<polygon fill="#191970" stroke="#191970" points="1061.3272,-1128.2553 1052.7859,-1134.524 1063.3722,-1134.9499 1061.3272,-1128.2553"/>
</g>
<!-- Node65 -->
<g id="node33" class="node">
<title>Node65</title>
<g id="a_node33"><a xlink:href="spheric__function_8h.html" target="_top" xlink:title="Contains declaration and implementation of sirius::Spheric_function and sirius::Spheric_function_grad...">
<polygon fill="#ffffff" stroke="#000000" points="409,-963.5 409,-982.5 507,-982.5 507,-963.5 409,-963.5"/>
<text text-anchor="middle" x="458" y="-970.5" font-family="Helvetica,sans-Serif" font-size="10.00" fill="#000000">spheric_function.h</text>
</a>
</g>
</g>
<!-- Node33&#45;&gt;Node65 -->
<g id="edge76" class="edge">
<title>Node33&#45;&gt;Node65</title>
<path fill="none" stroke="#191970" d="M991.8356,-1130.6175C888.9444,-1100.2384 589.5018,-1011.8265 490.3261,-982.5444"/>
<polygon fill="#191970" stroke="#191970" points="990.864,-1133.98 1001.4459,-1133.455 992.8463,-1127.2665 990.864,-1133.98"/>
</g>
<!-- Node35 -->
<g id="node3" class="node">
<title>Node35</title>
<g id="a_node3"><a xlink:href="atom__type_8h.html" target="_top" xlink:title="Contains definition of sirius::radial_functions_index and sirius::basis_functions_index classes and d...">
<polygon fill="#ffffff" stroke="#000000" points="965,-1019.5 965,-1038.5 1037,-1038.5 1037,-1019.5 965,-1019.5"/>
<text text-anchor="middle" x="1001" y="-1026.5" font-family="Helvetica,sans-Serif" font-size="10.00" fill="#000000">atom_type.h</text>
</a>
</g>
</g>
<!-- Node34&#45;&gt;Node35 -->
<g id="edge2" class="edge">
<title>Node34&#45;&gt;Node35</title>
<path fill="none" stroke="#191970" d="M1018.1989,-1066.0437C1013.9225,-1056.8331 1008.967,-1046.1598 1005.477,-1038.6427"/>
<polygon fill="#191970" stroke="#191970" points="1015.0854,-1067.6494 1022.4711,-1075.2455 1021.4345,-1064.7015 1015.0854,-1067.6494"/>
</g>
<!-- Node34&#45;&gt;Node46 -->
<g id="edge75" class="edge">
<title>Node34&#45;&gt;Node46</title>
<path fill="none" stroke="#191970" d="M1057.4935,-1070.8317C1090.6579,-1053.0707 1139,-1019.2492 1139,-973 1139,-973 1139,-973 1139,-178 1139,-130.5213 1098.6536,-130.6704 1055,-112 1001.296,-89.0311 823.7586,-73.0756 758.4162,-67.8543"/>
<polygon fill="#191970" stroke="#191970" points="1055.8841,-1067.7236 1048.5947,-1075.4123 1059.0878,-1073.9474 1055.8841,-1067.7236"/>
</g>
<!-- Node36 -->
<g id="node4" class="node">
<title>Node36</title>
<g id="a_node4"><a xlink:href="atom_8h.html" target="_top" xlink:title="Contains declaration and partial implementation of sirius::Atom class. ">
<polygon fill="#ffffff" stroke="#000000" points="835.5,-907.5 835.5,-926.5 882.5,-926.5 882.5,-907.5 835.5,-907.5"/>
<text text-anchor="middle" x="859" y="-914.5" font-family="Helvetica,sans-Serif" font-size="10.00" fill="#000000">atom.h</text>
</a>
</g>
</g>
<!-- Node35&#45;&gt;Node36 -->
<g id="edge3" class="edge">
<title>Node35&#45;&gt;Node36</title>
<path fill="none" stroke="#191970" d="M955.3886,-1015.9245C935.765,-1008.6136 913.577,-997.9073 897,-983 879.3038,-967.0862 867.7062,-940.9218 862.3799,-926.7892"/>
<polygon fill="#191970" stroke="#191970" points="954.481,-1019.3157 965.0758,-1019.3431 956.8106,-1012.7146 954.481,-1019.3157"/>
</g>
<!-- Node37 -->
<g id="node5" class="node">
<title>Node37</title>
<g id="a_node5"><a xlink:href="unit__cell_8h.html" target="_top" xlink:title="Contains definition and partial implementation of sirius::Unit_cell class. ">
<polygon fill="#ffffff" stroke="#000000" points="846,-851.5 846,-870.5 908,-870.5 908,-851.5 846,-851.5"/>
<text text-anchor="middle" x="877" y="-858.5" font-family="Helvetica,sans-Serif" font-size="10.00" fill="#000000">unit_cell.h</text>
</a>
</g>
</g>
<!-- Node35&#45;&gt;Node37 -->
<g id="edge73" class="edge">
<title>Node35&#45;&gt;Node37</title>
<path fill="none" stroke="#191970" d="M970.4703,-1014.476C956.6739,-1006.6973 941.0309,-996.0203 930,-983 914.5501,-964.7636 889.4329,-896.2524 880.3838,-870.6935"/>
<polygon fill="#191970" stroke="#191970" points="969.1796,-1017.7551 979.6474,-1019.3914 972.4848,-1011.5845 969.1796,-1017.7551"/>
</g>
<!-- Node35&#45;&gt;Node46 -->
<g id="edge74" class="edge">
<title>Node35&#45;&gt;Node46</title>
<path fill="none" stroke="#191970" d="M1031.5054,-1014.4554C1045.2965,-1006.6721 1060.942,-995.9973 1072,-983 1092.7619,-958.5969 1101,-949.0401 1101,-917 1101,-917 1101,-917 1101,-178 1101,-129.8193 1059.2179,-131.1353 1015,-112 968.7245,-91.9743 817.7628,-74.6541 758.344,-68.444"/>
<polygon fill="#191970" stroke="#191970" points="1029.4914,-1011.5639 1022.3331,-1019.3748 1032.7999,-1017.7327 1029.4914,-1011.5639"/>
</g>
<!-- Node64 -->
<g id="node32" class="node">
<title>Node64</title>
<g id="a_node32"><a xlink:href="atom__symmetry__class_8h.html" target="_top" xlink:title="Contains declaration and partial implementation of sirius::Atom_symmetry_class class. ">
<polygon fill="#ffffff" stroke="#000000" points="939,-963.5 939,-982.5 1063,-982.5 1063,-963.5 939,-963.5"/>
<text text-anchor="middle" x="1001" y="-970.5" font-family="Helvetica,sans-Serif" font-size="10.00" fill="#000000">atom_symmetry_class.h</text>
</a>
</g>
</g>
<!-- Node35&#45;&gt;Node64 -->
<g id="edge69" class="edge">
<title>Node35&#45;&gt;Node64</title>
<path fill="none" stroke="#191970" d="M1001,-1009.1575C1001,-1000.155 1001,-989.9199 1001,-982.6427"/>
<polygon fill="#191970" stroke="#191970" points="997.5001,-1009.2455 1001,-1019.2455 1004.5001,-1009.2456 997.5001,-1009.2455"/>
</g>
<!-- Node36&#45;&gt;Node37 -->
<g id="edge4" class="edge">
<title>Node36&#45;&gt;Node37</title>
<path fill="none" stroke="#191970" d="M865.2827,-897.4538C868.1992,-888.3803 871.5358,-877.9998 873.9006,-870.6427"/>
<polygon fill="#191970" stroke="#191970" points="861.8634,-896.6542 862.1354,-907.2455 868.5276,-898.7963 861.8634,-896.6542"/>
</g>
<!-- Node36&#45;&gt;Node46 -->
<g id="edge68" class="edge">
<title>Node36&#45;&gt;Node46</title>
<path fill="none" stroke="#191970" d="M825.4464,-911.4622C715.1195,-891.8346 357.6492,-816.8208 130,-636 1.3666,-533.827 0,-454.2738 0,-290 0,-290 0,-290 0,-178 0,-137.1401 26.9396,-129.2064 64,-112 123.5512,-84.3516 597.0161,-69.745 709.8994,-66.6349"/>
<polygon fill="#191970" stroke="#191970" points="824.8859,-914.9172 835.3391,-913.1904 826.0906,-908.0216 824.8859,-914.9172"/>
</g>
<!-- Node38 -->
<g id="node6" class="node">
<title>Node38</title>
<g id="a_node6"><a xlink:href="radial__integrals_8h.html" target="_top" xlink:title="Representation of various radial integrals. ">
<polygon fill="#ffffff" stroke="#000000" points="704.5,-739.5 704.5,-758.5 797.5,-758.5 797.5,-739.5 704.5,-739.5"/>
<text text-anchor="middle" x="751" y="-746.5" font-family="Helvetica,sans-Serif" font-size="10.00" fill="#000000">radial_integrals.h</text>
</a>
</g>
</g>
<!-- Node37&#45;&gt;Node38 -->
<g id="edge5" class="edge">
<title>Node37&#45;&gt;Node38</title>
<path fill="none" stroke="#191970" d="M835.6027,-852.3428C813.2854,-845.664 786.9296,-834.2039 770,-815 755.807,-798.9002 752.1796,-772.8114 751.2767,-758.7401"/>
<polygon fill="#191970" stroke="#191970" points="834.953,-855.7944 845.5241,-855.0856 836.8183,-849.0475 834.953,-855.7944"/>
</g>
<!-- Node37&#45;&gt;Node46 -->
<g id="edge67" class="edge">
<title>Node37&#45;&gt;Node46</title>
<path fill="none" stroke="#191970" d="M883.7485,-841.8744C912.2121,-760.917 1021,-448.4584 1021,-402 1021,-402 1021,-402 1021,-178 1021,-128.038 975.4344,-132.7825 930,-112 871.6746,-85.3209 796.2597,-73.2541 758.2223,-68.5592"/>
<polygon fill="#191970" stroke="#191970" points="880.4377,-840.739 880.4175,-851.3338 887.0403,-843.064 880.4377,-840.739"/>
</g>
<!-- Node59 -->
<g id="node27" class="node">
<title>Node59</title>
<g id="a_node27"><a xlink:href="sbessel_8h.html" target="_top" xlink:title="Contains implementation of sirius::Spherical_Bessel_functions and sirius::sbessel_approx classes...">
<polygon fill="#ffffff" stroke="#000000" points="779.5,-795.5 779.5,-814.5 838.5,-814.5 838.5,-795.5 779.5,-795.5"/>
<text text-anchor="middle" x="809" y="-802.5" font-family="Helvetica,sans-Serif" font-size="10.00" fill="#000000">sbessel.h</text>
</a>
</g>
</g>
<!-- Node37&#45;&gt;Node59 -->
<g id="edge56" class="edge">
<title>Node37&#45;&gt;Node59</title>
<path fill="none" stroke="#191970" d="M857.1404,-844.645C845.3142,-834.9058 830.7108,-822.8795 820.709,-814.6427"/>
<polygon fill="#191970" stroke="#191970" points="855.211,-847.5902 865.1553,-851.2455 859.661,-842.1867 855.211,-847.5902"/>
</g>
<!-- Node60 -->
<g id="node28" class="node">
<title>Node60</title>
<g id="a_node28"><a xlink:href="beta__projectors_8h.html" target="_top" xlink:title="Contains declaration and implementation of sirius::Beta_projectors class. ">
<polygon fill="#ffffff" stroke="#000000" points="781,-504.5 781,-523.5 875,-523.5 875,-504.5 781,-504.5"/>
<text text-anchor="middle" x="828" y="-511.5" font-family="Helvetica,sans-Serif" font-size="10.00" fill="#000000">beta_projectors.h</text>
</a>
</g>
</g>
<!-- Node37&#45;&gt;Node60 -->
<g id="edge64" class="edge">
<title>Node37&#45;&gt;Node60</title>
<path fill="none" stroke="#191970" d="M874.1641,-841.2428C871.2075,-818.9031 867,-781.4169 867,-749 867,-749 867,-749 867,-626 867,-586.2621 844.8334,-542.7836 833.9233,-523.7906"/>
<polygon fill="#191970" stroke="#191970" points="870.7363,-842.008 875.5672,-851.4373 877.6709,-841.0534 870.7363,-842.008"/>
</g>
<!-- Node62 -->
<g id="node30" class="node">
<title>Node62</title>
<g id="a_node30"><a xlink:href="real__space__prj_8h_source.html" target="_top" xlink:title="real_space_prj.h">
<polygon fill="#ffffff" stroke="#000000" points="936,-795.5 936,-814.5 1026,-814.5 1026,-795.5 936,-795.5"/>
<text text-anchor="middle" x="981" y="-802.5" font-family="Helvetica,sans-Serif" font-size="10.00" fill="#000000">real_space_prj.h</text>
</a>
</g>
</g>
<!-- Node37&#45;&gt;Node62 -->
<g id="edge65" class="edge">
<title>Node37&#45;&gt;Node62</title>
<path fill="none" stroke="#191970" d="M904.0029,-846.46C922.6136,-836.4388 946.8299,-823.3993 963.0922,-814.6427"/>
<polygon fill="#191970" stroke="#191970" points="902.2608,-843.4228 895.1154,-851.2455 905.5795,-849.5861 902.2608,-843.4228"/>
</g>
<!-- Node39 -->
<g id="node7" class="node">
<title>Node39</title>
<g id="a_node7"><a xlink:href="augmentation__operator_8h.html" target="_top" xlink:title="Contains implementation of sirius::Augmentation_operator class. ">
<polygon fill="#ffffff" stroke="#000000" points="571,-616.5 571,-635.5 699,-635.5 699,-616.5 571,-616.5"/>
<text text-anchor="middle" x="635" y="-623.5" font-family="Helvetica,sans-Serif" font-size="10.00" fill="#000000">augmentation_operator.h</text>
</a>
</g>
</g>
<!-- Node38&#45;&gt;Node39 -->
<g id="edge6" class="edge">
<title>Node38&#45;&gt;Node39</title>
<path fill="none" stroke="#191970" d="M728.2727,-733.5273C716.7826,-725.1651 702.9845,-714.2624 692,-703 670.6321,-681.0916 650.5343,-650.8982 640.9195,-635.6474"/>
<polygon fill="#191970" stroke="#191970" points="726.3456,-736.4515 736.5246,-739.3905 730.4001,-730.7452 726.3456,-736.4515"/>
</g>
<!-- Node40 -->
<g id="node8" class="node">
<title>Node40</title>
<g id="a_node8"><a xlink:href="simulation__context_8h.html" target="_top" xlink:title="Contains definition and implementation of Simulation_parameters and Simulation_context classes...">
<polygon fill="#ffffff" stroke="#000000" points="489,-560.5 489,-579.5 597,-579.5 597,-560.5 489,-560.5"/>
<text text-anchor="middle" x="543" y="-567.5" font-family="Helvetica,sans-Serif" font-size="10.00" fill="#000000">simulation_context.h</text>
</a>
</g>
</g>
<!-- Node38&#45;&gt;Node40 -->
<g id="edge55" class="edge">
<title>Node38&#45;&gt;Node40</title>
<path fill="none" stroke="#191970" d="M711.3105,-735.9163C667.9076,-719.5229 599.5405,-687.1979 562,-636 549.4498,-618.884 545.1665,-593.6616 543.7214,-579.8807"/>
<polygon fill="#191970" stroke="#191970" points="710.3786,-739.3024 720.9723,-739.4586 712.7882,-732.7302 710.3786,-739.3024"/>
</g>
<!-- Node57 -->
<g id="node25" class="node">
<title>Node57</title>
<g id="a_node25"><a xlink:href="simulation__context__base_8h.html" target="_top" xlink:title="Contains definition and implementation of Simulation_context_base class. ">
<polygon fill="#ffffff" stroke="#000000" points="701.5,-672.5 701.5,-702.5 800.5,-702.5 800.5,-672.5 701.5,-672.5"/>
<text text-anchor="start" x="709.5" y="-690.5" font-family="Helvetica,sans-Serif" font-size="10.00" fill="#000000">simulation_context</text>
<text text-anchor="middle" x="751" y="-679.5" font-family="Helvetica,sans-Serif" font-size="10.00" fill="#000000">_base.h</text>
</a>
</g>
</g>
<!-- Node38&#45;&gt;Node57 -->
<g id="edge51" class="edge">
<title>Node38&#45;&gt;Node57</title>
<path fill="none" stroke="#191970" d="M751,-729.3693C751,-720.681 751,-710.6241 751,-702.5446"/>
<polygon fill="#191970" stroke="#191970" points="747.5001,-729.3906 751,-739.3906 754.5001,-729.3907 747.5001,-729.3906"/>
</g>
<!-- Node39&#45;&gt;Node40 -->
<g id="edge7" class="edge">
<title>Node39&#45;&gt;Node40</title>
<path fill="none" stroke="#191970" d="M609.9776,-610.769C593.675,-600.8456 572.899,-588.1994 558.8415,-579.6427"/>
<polygon fill="#191970" stroke="#191970" points="608.613,-614.0357 618.9748,-616.2455 612.2527,-608.0563 608.613,-614.0357"/>
</g>
<!-- Node53 -->
<g id="node21" class="node">
<title>Node53</title>
<g id="a_node21"><a xlink:href="_forces___p_s_8h_source.html" target="_top" xlink:title="Forces_PS.h">
<polygon fill="#ffffff" stroke="#000000" points="632,-224.5 632,-243.5 706,-243.5 706,-224.5 632,-224.5"/>
<text text-anchor="middle" x="669" y="-231.5" font-family="Helvetica,sans-Serif" font-size="10.00" fill="#000000">Forces_PS.h</text>
</a>
</g>
</g>
<!-- Node39&#45;&gt;Node53 -->
<g id="edge50" class="edge">
<title>Node39&#45;&gt;Node53</title>
<path fill="none" stroke="#191970" d="M667.6982,-611.9905C702.6202,-594.5679 753,-561.246 753,-514 753,-514 753,-514 753,-458 753,-369.9493 695.3936,-274.1154 675.5913,-243.7736"/>
<polygon fill="#191970" stroke="#191970" points="665.8228,-609.0077 658.313,-616.4813 668.8442,-615.3221 665.8228,-609.0077"/>
</g>
<!-- Node41 -->
<g id="node9" class="node">
<title>Node41</title>
<g id="a_node9"><a xlink:href="periodic__function_8h.html" target="_top" xlink:title="Contains declaration and partial implementation of sirius::Periodic_function class. ">
<polygon fill="#ffffff" stroke="#000000" points="213,-504.5 213,-523.5 313,-523.5 313,-504.5 213,-504.5"/>
<text text-anchor="middle" x="263" y="-511.5" font-family="Helvetica,sans-Serif" font-size="10.00" fill="#000000">periodic_function.h</text>
</a>
</g>
</g>
<!-- Node40&#45;&gt;Node41 -->
<g id="edge8" class="edge">
<title>Node40&#45;&gt;Node41</title>
<path fill="none" stroke="#191970" d="M485.1829,-558.4366C433.5636,-548.1127 358.869,-533.1738 310.6184,-523.5237"/>
<polygon fill="#191970" stroke="#191970" points="484.6922,-561.9077 495.1844,-560.4369 486.0651,-555.0436 484.6922,-561.9077"/>
</g>
<!-- Node51 -->
<g id="node19" class="node">
<title>Node51</title>
<g id="a_node19"><a xlink:href="density_8h.html" target="_top" xlink:title="Contains definition and partial implementation of sirius::Density class. ">
<polygon fill="#ffffff" stroke="#000000" points="441.5,-336.5 441.5,-355.5 498.5,-355.5 498.5,-336.5 441.5,-336.5"/>
<text text-anchor="middle" x="470" y="-343.5" font-family="Helvetica,sans-Serif" font-size="10.00" fill="#000000">density.h</text>
</a>
</g>
</g>
<!-- Node40&#45;&gt;Node51 -->
<g id="edge46" class="edge">
<title>Node40&#45;&gt;Node51</title>
<path fill="none" stroke="#191970" d="M540.6678,-550.1364C537.4378,-525.6592 530.6432,-483.0126 519,-448 507.1594,-412.3939 485.7111,-373.1399 475.5827,-355.5017"/>
<polygon fill="#191970" stroke="#191970" points="537.2245,-550.8082 541.9393,-560.2962 544.1703,-549.9389 537.2245,-550.8082"/>
</g>
<!-- Node52 -->
<g id="node20" class="node">
<title>Node52</title>
<g id="a_node20"><a xlink:href="potential_8h.html" target="_top" xlink:title="Contains declaration and partial implementation of sirius::Potential class. ">
<polygon fill="#ffffff" stroke="#000000" points="286.5,-280.5 286.5,-299.5 349.5,-299.5 349.5,-280.5 286.5,-280.5"/>
<text text-anchor="middle" x="318" y="-287.5" font-family="Helvetica,sans-Serif" font-size="10.00" fill="#000000">potential.h</text>
</a>
</g>
</g>
<!-- Node40&#45;&gt;Node52 -->
<g id="edge45" class="edge">
<title>Node40&#45;&gt;Node52</title>
<path fill="none" stroke="#191970" d="M535.9234,-550.5773C524.4946,-520.0885 501.6735,-462.9274 486,-448 455.4001,-418.8568 430.608,-438.8774 398,-412 358.5199,-379.4582 331.5348,-322.3118 321.9071,-299.6511"/>
<polygon fill="#191970" stroke="#191970" points="532.7076,-551.9723 539.4604,-560.1362 539.2726,-549.543 532.7076,-551.9723"/>
</g>
<!-- Node40&#45;&gt;Node53 -->
<g id="edge49" class="edge">
<title>Node40&#45;&gt;Node53</title>
<path fill="none" stroke="#191970" d="M563.7979,-554.1C585.9409,-535.9004 620.0736,-503.9299 637,-468 674.5699,-388.2497 671.6049,-277.406 669.6915,-243.947"/>
<polygon fill="#191970" stroke="#191970" points="561.5749,-551.3962 555.9594,-560.3804 565.9519,-556.8591 561.5749,-551.3962"/>
</g>
<!-- Node56 -->
<g id="node24" class="node">
<title>Node56</title>
<g id="a_node24"><a xlink:href="non__local__operator_8h.html" target="_top" xlink:title="Contains declaration and implementation of sirius::Non_local_operator class. ">
<polygon fill="#ffffff" stroke="#000000" points="367,-448.5 367,-467.5 477,-467.5 477,-448.5 367,-448.5"/>
<text text-anchor="middle" x="422" y="-455.5" font-family="Helvetica,sans-Serif" font-size="10.00" fill="#000000">non_local_operator.h</text>
</a>
</g>
</g>
<!-- Node40&#45;&gt;Node56 -->
<g id="edge47" class="edge">
<title>Node40&#45;&gt;Node56</title>
<path fill="none" stroke="#191970" d="M524.0381,-553.5403C514.114,-544.847 501.8111,-533.9454 491,-524 469.5281,-504.2475 444.9668,-480.4594 431.7128,-467.5208"/>
<polygon fill="#191970" stroke="#191970" points="521.8944,-556.3149 531.7298,-560.2539 526.4974,-551.0412 521.8944,-556.3149"/>
</g>
<!-- Node42 -->
<g id="node10" class="node">
<title>Node42</title>
<g id="a_node10"><a xlink:href="band_8h.html" target="_top" xlink:title="Contains declaration and partial implementation of sirius::Band class. ">
<polygon fill="#ffffff" stroke="#000000" points="179.5,-224.5 179.5,-243.5 226.5,-243.5 226.5,-224.5 179.5,-224.5"/>
<text text-anchor="middle" x="203" y="-231.5" font-family="Helvetica,sans-Serif" font-size="10.00" fill="#000000">band.h</text>
</a>
</g>
</g>
<!-- Node41&#45;&gt;Node42 -->
<g id="edge9" class="edge">
<title>Node41&#45;&gt;Node42</title>
<path fill="none" stroke="#191970" d="M241.3218,-498.0606C217.3281,-478.4028 182,-442.5703 182,-402 182,-402 182,-402 182,-346 182,-307.6204 194.0599,-263.0906 199.9014,-243.7725"/>
<polygon fill="#191970" stroke="#191970" points="239.24,-500.8763 249.2595,-504.3205 243.5747,-495.3798 239.24,-500.8763"/>
</g>
<!-- Node41&#45;&gt;Node46 -->
<g id="edge44" class="edge">
<title>Node41&#45;&gt;Node46</title>
<path fill="none" stroke="#191970" d="M216.9956,-501.2915C195.0791,-493.8306 169.289,-482.8966 149,-468 73.8485,-412.8221 38,-383.2328 38,-290 38,-290 38,-290 38,-178 38,-113.9938 104.459,-129.5925 166,-112 270.7548,-82.0542 615.694,-69.5868 709.9916,-66.6887"/>
<polygon fill="#191970" stroke="#191970" points="216.1667,-504.7026 226.7591,-504.4769 218.3379,-498.0478 216.1667,-504.7026"/>
</g>
<!-- Node49 -->
<g id="node17" class="node">
<title>Node49</title>
<g id="a_node17"><a xlink:href="k__point_8h.html" target="_top" xlink:title="Contains definition and partial implementation of sirius::K_point class. ">
<polygon fill="#ffffff" stroke="#000000" points="571.5,-448.5 571.5,-467.5 628.5,-467.5 628.5,-448.5 571.5,-448.5"/>
<text text-anchor="middle" x="600" y="-455.5" font-family="Helvetica,sans-Serif" font-size="10.00" fill="#000000">k_point.h</text>
</a>
</g>
</g>
<!-- Node41&#45;&gt;Node49 -->
<g id="edge18" class="edge">
<title>Node41&#45;&gt;Node49</title>
<path fill="none" stroke="#191970" d="M323.0619,-504.0194C396.0458,-491.8915 516.2173,-471.9223 571.0729,-462.8069"/>
<polygon fill="#191970" stroke="#191970" points="322.3794,-500.5847 313.0884,-505.6767 323.5269,-507.49 322.3794,-500.5847"/>
</g>
<!-- Node41&#45;&gt;Node51 -->
<g id="edge40" class="edge">
<title>Node41&#45;&gt;Node51</title>
<path fill="none" stroke="#191970" d="M277.5567,-496.6474C289.5961,-482.7698 307.499,-463.1904 325,-448 368.6981,-410.0711 426.4141,-372.841 453.9925,-355.7386"/>
<polygon fill="#191970" stroke="#191970" points="274.7138,-494.5865 270.8741,-504.4611 280.0336,-499.1362 274.7138,-494.5865"/>
</g>
<!-- Node41&#45;&gt;Node52 -->
<g id="edge39" class="edge">
<title>Node41&#45;&gt;Node52</title>
<path fill="none" stroke="#191970" d="M267.8096,-494.4119C279.1671,-448.1557 307.3207,-333.494 315.6455,-299.5891"/>
<polygon fill="#191970" stroke="#191970" points="264.3488,-493.8288 265.3633,-504.375 271.1469,-495.4981 264.3488,-493.8288"/>
</g>
<!-- Node41&#45;&gt;Node53 -->
<g id="edge43" class="edge">
<title>Node41&#45;&gt;Node53</title>
<path fill="none" stroke="#191970" d="M284.68,-498.4406C303.7886,-484.8467 332.4797,-464.7262 358,-448 423.0935,-405.3371 442.3713,-399.3637 507,-356 542.1389,-332.423 550.1731,-325.4236 584,-300 610.2859,-280.244 640.6045,-256.4572 656.9866,-243.5197"/>
<polygon fill="#191970" stroke="#191970" points="282.4797,-495.7109 276.373,-504.3687 286.546,-501.4088 282.4797,-495.7109"/>
</g>
<!-- Node55 -->
<g id="node23" class="node">
<title>Node55</title>
<g id="a_node23"><a xlink:href="local__operator_8h.html" target="_top" xlink:title="Contains declaration and implementation of sirius::Local_operator class. ">
<polygon fill="#ffffff" stroke="#000000" points="66,-336.5 66,-355.5 154,-355.5 154,-336.5 66,-336.5"/>
<text text-anchor="middle" x="110" y="-343.5" font-family="Helvetica,sans-Serif" font-size="10.00" fill="#000000">local_operator.h</text>
</a>
</g>
</g>
<!-- Node41&#45;&gt;Node55 -->
<g id="edge41" class="edge">
<title>Node41&#45;&gt;Node55</title>
<path fill="none" stroke="#191970" d="M220.8756,-500.7429C202.8315,-493.3908 182.5977,-482.7025 168,-468 134.6218,-434.3822 117.8066,-377.8579 112.1979,-355.5075"/>
<polygon fill="#191970" stroke="#191970" points="220.0351,-504.1693 230.6252,-504.4884 222.5455,-497.6349 220.0351,-504.1693"/>
</g>
<!-- Node43 -->
<g id="node11" class="node">
<title>Node43</title>
<g id="a_node11"><a xlink:href="add__nl__h__o__rs_8cpp_source.html" target="_top" xlink:title="add_nl_h_o_rs.cpp">
<polygon fill="#ffffff" stroke="#000000" points="139,-168.5 139,-187.5 241,-187.5 241,-168.5 139,-168.5"/>
<text text-anchor="middle" x="190" y="-175.5" font-family="Helvetica,sans-Serif" font-size="10.00" fill="#000000">add_nl_h_o_rs.cpp</text>
</a>
</g>
</g>
<!-- Node42&#45;&gt;Node43 -->
<g id="edge10" class="edge">
<title>Node42&#45;&gt;Node43</title>
<path fill="none" stroke="#191970" d="M198.4625,-214.4538C196.3561,-205.3803 193.9464,-194.9998 192.2385,-187.6427"/>
<polygon fill="#191970" stroke="#191970" points="195.0649,-215.2961 200.7356,-224.2455 201.8835,-213.7131 195.0649,-215.2961"/>
</g>
<!-- Node44 -->
<g id="node12" class="node">
<title>Node44</title>
<g id="a_node12"><a xlink:href="force_8h.html" target="_top" xlink:title="Contains definition of sirius::Force class. ">
<polygon fill="#ffffff" stroke="#000000" points="302.5,-168.5 302.5,-187.5 349.5,-187.5 349.5,-168.5 302.5,-168.5"/>
<text text-anchor="middle" x="326" y="-175.5" font-family="Helvetica,sans-Serif" font-size="10.00" fill="#000000">force.h</text>
</a>
</g>
</g>
<!-- Node42&#45;&gt;Node44 -->
<g id="edge11" class="edge">
<title>Node42&#45;&gt;Node44</title>
<path fill="none" stroke="#191970" d="M233.5065,-220.1109C255.8112,-209.9559 285.4799,-196.4482 305.1315,-187.5011"/>
<polygon fill="#191970" stroke="#191970" points="231.7953,-217.0442 224.1445,-224.3733 234.6959,-223.415 231.7953,-217.0442"/>
</g>
<!-- Node42&#45;&gt;Node46 -->
<g id="edge17" class="edge">
<title>Node42&#45;&gt;Node46</title>
<path fill="none" stroke="#191970" d="M170.2493,-221.244C144.7097,-209.2768 115.7706,-189.9668 130,-168 163.0964,-116.9069 196.1462,-127.5597 255,-112 342.5316,-88.8586 625.2198,-71.928 709.8459,-67.2804"/>
<polygon fill="#191970" stroke="#191970" points="168.8583,-224.4558 179.4185,-225.312 171.6972,-218.0573 168.8583,-224.4558"/>
</g>
<!-- Node45 -->
<g id="node13" class="node">
<title>Node45</title>
<g id="a_node13"><a xlink:href="dft__ground__state_8h.html" target="_top" xlink:title="Contains definition and partial implementation of sirius::DFT_ground_state class. ...">
<polygon fill="#ffffff" stroke="#000000" points="482,-112.5 482,-131.5 582,-131.5 582,-112.5 482,-112.5"/>
<text text-anchor="middle" x="532" y="-119.5" font-family="Helvetica,sans-Serif" font-size="10.00" fill="#000000">dft_ground_state.h</text>
</a>
</g>
</g>
<!-- Node44&#45;&gt;Node45 -->
<g id="edge12" class="edge">
<title>Node44&#45;&gt;Node45</title>
<path fill="none" stroke="#191970" d="M359.6438,-168.8541C397.4717,-158.5708 458.6105,-141.9505 496.9893,-131.5175"/>
<polygon fill="#191970" stroke="#191970" points="358.3625,-165.5753 349.6308,-171.5761 360.1988,-172.3302 358.3625,-165.5753"/>
</g>
<!-- Node44&#45;&gt;Node46 -->
<g id="edge16" class="edge">
<title>Node44&#45;&gt;Node46</title>
<path fill="none" stroke="#191970" d="M326.1853,-157.8578C327.475,-142.8881 331.8193,-123.1946 345,-112 372.9251,-88.2825 629.4896,-71.899 709.9693,-67.3088"/>
<polygon fill="#191970" stroke="#191970" points="322.6742,-158.0115 325.6987,-168.1654 329.6664,-158.3416 322.6742,-158.0115"/>
</g>
<!-- Node48 -->
<g id="node16" class="node">
<title>Node48</title>
<g id="a_node16"><a xlink:href="force_8cpp.html" target="_top" xlink:title="Contains implementation of sirius::Force class. ">
<polygon fill="#ffffff" stroke="#000000" points="354,-112.5 354,-131.5 412,-131.5 412,-112.5 354,-112.5"/>
<text text-anchor="middle" x="383" y="-119.5" font-family="Helvetica,sans-Serif" font-size="10.00" fill="#000000">force.cpp</text>
</a>
</g>
</g>
<!-- Node44&#45;&gt;Node48 -->
<g id="edge15" class="edge">
<title>Node44&#45;&gt;Node48</title>
<path fill="none" stroke="#191970" d="M343.2271,-161.0751C353.0341,-151.4402 364.964,-139.7196 373.1851,-131.6427"/>
<polygon fill="#191970" stroke="#191970" points="340.6091,-158.7406 335.9286,-168.2455 345.5149,-163.734 340.6091,-158.7406"/>
</g>
<!-- Node45&#45;&gt;Node46 -->
<g id="edge13" class="edge">
<title>Node45&#45;&gt;Node46</title>
<path fill="none" stroke="#191970" d="M576.4816,-109.6685C617.542,-98.2854 676.9816,-81.8071 709.8551,-72.6936"/>
<polygon fill="#191970" stroke="#191970" points="575.4265,-106.3289 566.725,-112.3733 577.2966,-113.0745 575.4265,-106.3289"/>
</g>
<!-- Node47 -->
<g id="node15" class="node">
<title>Node47</title>
<g id="a_node15"><a xlink:href="sirius__api_8cpp.html" target="_top" xlink:title="Fortran API. ">
<polygon fill="#ffffff" stroke="#000000" points="695,-.5 695,-19.5 773,-19.5 773,-.5 695,-.5"/>
<text text-anchor="middle" x="734" y="-7.5" font-family="Helvetica,sans-Serif" font-size="10.00" fill="#000000">sirius_api.cpp</text>
</a>
</g>
</g>
<!-- Node46&#45;&gt;Node47 -->
<g id="edge14" class="edge">
<title>Node46&#45;&gt;Node47</title>
<path fill="none" stroke="#191970" d="M734,-46.1575C734,-37.155 734,-26.9199 734,-19.6427"/>
<polygon fill="#191970" stroke="#191970" points="730.5001,-46.2455 734,-56.2455 737.5001,-46.2456 730.5001,-46.2455"/>
</g>
<!-- Node49&#45;&gt;Node44 -->
<g id="edge37" class="edge">
<title>Node49&#45;&gt;Node44</title>
<path fill="none" stroke="#191970" d="M568.1572,-444.3564C531.8846,-427.6198 472.4208,-396.4208 432,-356 378.337,-302.337 341.1244,-216.2122 329.7,-187.5921"/>
<polygon fill="#191970" stroke="#191970" points="566.7421,-447.5577 577.2956,-448.493 569.6288,-441.1806 566.7421,-447.5577"/>
</g>
<!-- Node49&#45;&gt;Node46 -->
<g id="edge38" class="edge">
<title>Node49&#45;&gt;Node46</title>
<path fill="none" stroke="#191970" d="M626.3035,-443.3538C694.5473,-404.4604 872,-297.2463 872,-234 872,-234 872,-234 872,-178 872,-119.9909 797.5757,-86.7803 758.0378,-73.2301"/>
<polygon fill="#191970" stroke="#191970" points="624.4075,-440.4051 617.4286,-448.3767 627.8554,-446.4971 624.4075,-440.4051"/>
</g>
<!-- Node50 -->
<g id="node18" class="node">
<title>Node50</title>
<g id="a_node18"><a xlink:href="k__point__set_8h.html" target="_top" xlink:title="Contains declaration and partial implementation of sirius::K_point_set class. ">
<polygon fill="#ffffff" stroke="#000000" points="557,-392.5 557,-411.5 633,-411.5 633,-392.5 557,-392.5"/>
<text text-anchor="middle" x="595" y="-399.5" font-family="Helvetica,sans-Serif" font-size="10.00" fill="#000000">k_point_set.h</text>
</a>
</g>
</g>
<!-- Node49&#45;&gt;Node50 -->
<g id="edge19" class="edge">
<title>Node49&#45;&gt;Node50</title>
<path fill="none" stroke="#191970" d="M598.2283,-438.1575C597.4246,-429.155 596.5107,-418.9199 595.861,-411.6427"/>
<polygon fill="#191970" stroke="#191970" points="594.7535,-438.5965 599.1291,-448.2455 601.7258,-437.9739 594.7535,-438.5965"/>
</g>
<!-- Node50&#45;&gt;Node42 -->
<g id="edge20" class="edge">
<title>Node50&#45;&gt;Node42</title>
<path fill="none" stroke="#191970" d="M547.0133,-393.6665C482.195,-380.8904 364.6933,-352.2693 277,-300 250.3831,-284.1351 224.6117,-257.9508 211.6559,-243.8021"/>
<polygon fill="#191970" stroke="#191970" points="546.4695,-397.1261 556.9513,-395.5822 547.7945,-390.2526 546.4695,-397.1261"/>
</g>
<!-- Node50&#45;&gt;Node45 -->
<g id="edge34" class="edge">
<title>Node50&#45;&gt;Node45</title>
<path fill="none" stroke="#191970" d="M590.604,-382.4621C578.1948,-327.31 543.2105,-171.8245 534.1595,-131.5977"/>
<polygon fill="#191970" stroke="#191970" points="587.2216,-383.374 592.8314,-392.3618 594.0508,-381.8373 587.2216,-383.374"/>
</g>
<!-- Node50&#45;&gt;Node46 -->
<g id="edge36" class="edge">
<title>Node50&#45;&gt;Node46</title>
<path fill="none" stroke="#191970" d="M613.0603,-385.05C640.447,-358.1149 691.7471,-302.5671 715,-244 738.9686,-183.6304 736.4648,-103.1926 734.7376,-75.6917"/>
<polygon fill="#191970" stroke="#191970" points="610.4566,-382.6988 605.699,-392.1654 615.3217,-387.7319 610.4566,-382.6988"/>
</g>
<!-- Node50&#45;&gt;Node51 -->
<g id="edge21" class="edge">
<title>Node50&#45;&gt;Node51</title>
<path fill="none" stroke="#191970" d="M564.302,-388.2473C541.6007,-378.0771 511.2685,-364.4883 491.2079,-355.5011"/>
<polygon fill="#191970" stroke="#191970" points="562.9547,-391.4789 573.5117,-392.3733 565.8167,-385.0906 562.9547,-391.4789"/>
</g>
<!-- Node54 -->
<g id="node22" class="node">
<title>Node54</title>
<g id="a_node22"><a xlink:href="_forces___p_s_8cpp_source.html" target="_top" xlink:title="Forces_PS.cpp">
<polygon fill="#ffffff" stroke="#000000" points="560.5,-168.5 560.5,-187.5 645.5,-187.5 645.5,-168.5 560.5,-168.5"/>
<text text-anchor="middle" x="603" y="-175.5" font-family="Helvetica,sans-Serif" font-size="10.00" fill="#000000">Forces_PS.cpp</text>
</a>
</g>
</g>
<!-- Node50&#45;&gt;Node54 -->
<g id="edge35" class="edge">
<title>Node50&#45;&gt;Node54</title>
<path fill="none" stroke="#191970" d="M595.7101,-382.1177C597.3689,-335.6713 601.4492,-221.4223 602.6575,-187.5891"/>
<polygon fill="#191970" stroke="#191970" points="592.203,-382.2564 595.3438,-392.375 599.1985,-382.5063 592.203,-382.2564"/>
</g>
<!-- Node51&#45;&gt;Node44 -->
<g id="edge31" class="edge">
<title>Node51&#45;&gt;Node44</title>
<path fill="none" stroke="#191970" d="M455.0409,-328.5477C424.9604,-293.4538 358.0131,-215.3486 334.4239,-187.8279"/>
<polygon fill="#191970" stroke="#191970" points="452.68,-331.1714 461.8453,-336.4862 457.9948,-326.6159 452.68,-331.1714"/>
</g>
<!-- Node51&#45;&gt;Node45 -->
<g id="edge30" class="edge">
<title>Node51&#45;&gt;Node45</title>
<path fill="none" stroke="#191970" d="M474.5728,-326.1311C482.3033,-293.0861 498.801,-224.8425 516,-168 519.82,-155.3748 524.9258,-141.055 528.3318,-131.7942"/>
<polygon fill="#191970" stroke="#191970" points="471.0699,-325.7427 472.2173,-336.2752 477.8885,-327.326 471.0699,-325.7427"/>
</g>
<!-- Node51&#45;&gt;Node46 -->
<g id="edge33" class="edge">
<title>Node51&#45;&gt;Node46</title>
<path fill="none" stroke="#191970" d="M465.5275,-326.6222C460.7939,-304.3866 454,-266.7658 454,-234 454,-234 454,-234 454,-178 454,-147.4754 450.3043,-132.4122 473,-112 507.8088,-80.6935 652.2031,-70.092 709.9634,-67.0604"/>
<polygon fill="#191970" stroke="#191970" points="462.1302,-327.4693 467.7076,-336.4772 468.9649,-325.9572 462.1302,-327.4693"/>
</g>
<!-- Node51&#45;&gt;Node52 -->
<g id="edge22" class="edge">
<title>Node51&#45;&gt;Node52</title>
<path fill="none" stroke="#191970" d="M434.141,-332.7888C406.3877,-322.5639 368.6181,-308.6488 343.7888,-299.5011"/>
<polygon fill="#191970" stroke="#191970" points="433.2768,-336.2003 443.8703,-336.3733 435.6968,-329.6319 433.2768,-336.2003"/>
</g>
<!-- Node51&#45;&gt;Node53 -->
<g id="edge32" class="edge">
<title>Node51&#45;&gt;Node53</title>
<path fill="none" stroke="#191970" d="M495.8983,-331.4241C537.2912,-308.1276 617.2336,-263.1349 652.0763,-243.5249"/>
<polygon fill="#191970" stroke="#191970" points="493.9646,-328.4961 486.9666,-336.4509 497.3979,-334.5963 493.9646,-328.4961"/>
</g>
<!-- Node52&#45;&gt;Node42 -->
<g id="edge23" class="edge">
<title>Node52&#45;&gt;Node42</title>
<path fill="none" stroke="#191970" d="M289.1967,-275.9741C268.375,-265.8348 240.8022,-252.408 222.5112,-243.5011"/>
<polygon fill="#191970" stroke="#191970" points="287.7078,-279.1419 298.2308,-280.3733 290.7724,-272.8484 287.7078,-279.1419"/>
</g>
<!-- Node52&#45;&gt;Node44 -->
<g id="edge25" class="edge">
<title>Node52&#45;&gt;Node44</title>
<path fill="none" stroke="#191970" d="M319.4093,-270.2702C321.143,-245.9985 324.0163,-205.7725 325.3197,-187.5249"/>
<polygon fill="#191970" stroke="#191970" points="315.9035,-270.227 318.6821,-280.4509 322.8857,-270.7258 315.9035,-270.227"/>
</g>
<!-- Node52&#45;&gt;Node45 -->
<g id="edge24" class="edge">
<title>Node52&#45;&gt;Node45</title>
<path fill="none" stroke="#191970" d="M338.0262,-274.2785C381.6845,-240.0047 484.3514,-159.4064 519.7489,-131.6177"/>
<polygon fill="#191970" stroke="#191970" points="335.8232,-271.5582 330.1187,-280.4862 340.1457,-277.0642 335.8232,-271.5582"/>
</g>
<!-- Node52&#45;&gt;Node46 -->
<g id="edge29" class="edge">
<title>Node52&#45;&gt;Node46</title>
<path fill="none" stroke="#191970" d="M308.6154,-271.2856C297.7741,-247.1536 282.6735,-204.0063 293,-168 301.0913,-139.7872 303.1721,-127.6527 328,-112 360.4038,-91.571 627.1633,-72.8679 709.7345,-67.5219"/>
<polygon fill="#191970" stroke="#191970" points="305.4787,-272.84 312.9143,-280.3874 311.8083,-269.8504 305.4787,-272.84"/>
</g>
<!-- Node52&#45;&gt;Node53 -->
<g id="edge26" class="edge">
<title>Node52&#45;&gt;Node53</title>
<path fill="none" stroke="#191970" d="M359.8585,-283.3217C428.9813,-272.2936 565.8879,-250.4509 631.8119,-239.9331"/>
<polygon fill="#191970" stroke="#191970" points="359.0916,-279.8997 349.768,-284.9316 360.1945,-286.8123 359.0916,-279.8997"/>
</g>
<!-- Node53&#45;&gt;Node45 -->
<g id="edge27" class="edge">
<title>Node53&#45;&gt;Node45</title>
<path fill="none" stroke="#191970" d="M669.248,-213.8853C668.3804,-199.5183 664.9652,-180.5818 654,-168 635.7814,-147.0956 607.0634,-135.6644 582.0658,-129.4269"/>
<polygon fill="#191970" stroke="#191970" points="665.7569,-214.3049 669.4932,-224.2191 672.7549,-214.1388 665.7569,-214.3049"/>
</g>
<!-- Node53&#45;&gt;Node54 -->
<g id="edge28" class="edge">
<title>Node53&#45;&gt;Node54</title>
<path fill="none" stroke="#191970" d="M649.7245,-217.645C638.2462,-207.9058 624.0723,-195.8795 614.3646,-187.6427"/>
<polygon fill="#191970" stroke="#191970" points="647.6141,-220.4445 657.5037,-224.2455 652.143,-215.1069 647.6141,-220.4445"/>
</g>
<!-- Node55&#45;&gt;Node42 -->
<g id="edge42" class="edge">
<title>Node55&#45;&gt;Node42</title>
<path fill="none" stroke="#191970" d="M124.5085,-328.5274C144.4027,-304.5688 179.459,-262.3505 195.0909,-243.5249"/>
<polygon fill="#191970" stroke="#191970" points="121.6248,-326.5215 117.9291,-336.4509 127.0102,-330.9934 121.6248,-326.5215"/>
</g>
<!-- Node56&#45;&gt;Node42 -->
<g id="edge48" class="edge">
<title>Node56&#45;&gt;Node42</title>
<path fill="none" stroke="#191970" d="M399.5805,-442.543C387.5292,-433.9455 372.5997,-422.8219 360,-412 306.3584,-365.9274 291.9516,-354.5843 247,-300 231.5922,-281.2905 216.5732,-257.1112 208.6911,-243.8263"/>
<polygon fill="#191970" stroke="#191970" points="397.5823,-445.4166 407.7726,-448.3164 401.6148,-439.6948 397.5823,-445.4166"/>
</g>
<!-- Node58 -->
<g id="node26" class="node">
<title>Node58</title>
<g id="a_node26"><a xlink:href="step__function_8h.html" target="_top" xlink:title="Contains definition and partial implementation of sirius::Step_function class. ">
<polygon fill="#ffffff" stroke="#000000" points="717,-616.5 717,-635.5 801,-635.5 801,-616.5 717,-616.5"/>
<text text-anchor="middle" x="759" y="-623.5" font-family="Helvetica,sans-Serif" font-size="10.00" fill="#000000">step_function.h</text>
</a>
</g>
</g>
<!-- Node57&#45;&gt;Node58 -->
<g id="edge52" class="edge">
<title>Node57&#45;&gt;Node58</title>
<path fill="none" stroke="#191970" d="M754.28,-662.2849C755.4897,-652.9858 756.7901,-642.9883 757.7191,-635.8469"/>
<polygon fill="#191970" stroke="#191970" points="750.7968,-661.9298 752.9775,-672.2977 757.7383,-662.8328 750.7968,-661.9298"/>
</g>
<!-- Node58&#45;&gt;Node40 -->
<g id="edge53" class="edge">
<title>Node58&#45;&gt;Node40</title>
<path fill="none" stroke="#191970" d="M712.14,-613.8511C672.3927,-603.5462 616.169,-588.9697 579.6472,-579.5011"/>
<polygon fill="#191970" stroke="#191970" points="711.3099,-617.2516 721.8683,-616.3733 713.0667,-610.4756 711.3099,-617.2516"/>
</g>
<!-- Node58&#45;&gt;Node46 -->
<g id="edge54" class="edge">
<title>Node58&#45;&gt;Node46</title>
<path fill="none" stroke="#191970" d="M784.1231,-611.0285C842.6228,-574.0465 983,-472.16 983,-346 983,-346 983,-346 983,-178 983,-129.0585 820.9834,-86.1985 758.3285,-71.4535"/>
<polygon fill="#191970" stroke="#191970" points="782.1207,-608.1519 775.4713,-616.4003 785.8131,-614.0989 782.1207,-608.1519"/>
</g>
<!-- Node59&#45;&gt;Node38 -->
<g id="edge57" class="edge">
<title>Node59&#45;&gt;Node38</title>
<path fill="none" stroke="#191970" d="M791.4707,-788.0751C781.4917,-778.4402 769.3524,-766.7196 760.9871,-758.6427"/>
<polygon fill="#191970" stroke="#191970" points="789.272,-790.8175 798.8972,-795.2455 794.1342,-785.7817 789.272,-790.8175"/>
</g>
<!-- Node59&#45;&gt;Node60 -->
<g id="edge58" class="edge">
<title>Node59&#45;&gt;Node60</title>
<path fill="none" stroke="#191970" d="M814.4189,-785.3971C820.3418,-762.2101 829,-722.3543 829,-687.5 829,-687.5 829,-687.5 829,-626 829,-588.0818 828.4198,-542.9455 828.1433,-523.5881"/>
<polygon fill="#191970" stroke="#191970" points="810.9609,-784.7828 811.7809,-795.3458 817.7271,-786.5769 810.9609,-784.7828"/>
</g>
<!-- Node60&#45;&gt;Node49 -->
<g id="edge59" class="edge">
<title>Node60&#45;&gt;Node49</title>
<path fill="none" stroke="#191970" d="M779.3435,-502.0493C733.532,-490.7973 666.4652,-474.3248 628.6662,-465.0408"/>
<polygon fill="#191970" stroke="#191970" points="778.5182,-505.4505 789.0645,-504.4369 780.188,-498.6526 778.5182,-505.4505"/>
</g>
<!-- Node60&#45;&gt;Node53 -->
<g id="edge63" class="edge">
<title>Node60&#45;&gt;Node53</title>
<path fill="none" stroke="#191970" d="M824.3232,-494.3153C814.2236,-441.0093 785.8868,-296.7287 772,-280 755.4258,-260.0338 728.4161,-248.4129 706.2133,-241.8473"/>
<polygon fill="#191970" stroke="#191970" points="820.9001,-495.0508 826.1898,-504.2307 827.7793,-493.7558 820.9001,-495.0508"/>
</g>
<!-- Node60&#45;&gt;Node56 -->
<g id="edge60" class="edge">
<title>Node60&#45;&gt;Node56</title>
<path fill="none" stroke="#191970" d="M770.4967,-506.0685C692.453,-495.3039 553.9463,-476.1995 477.1436,-465.606"/>
<polygon fill="#191970" stroke="#191970" points="770.2476,-509.5672 780.6321,-507.4665 771.2041,-502.6329 770.2476,-509.5672"/>
</g>
<!-- Node61 -->
<g id="node29" class="node">
<title>Node61</title>
<g id="a_node29"><a xlink:href="beta__projectors__gradient_8h_source.html" target="_top" xlink:title="beta_projectors_gradient.h">
<polygon fill="#ffffff" stroke="#000000" points="819.5,-392.5 819.5,-411.5 954.5,-411.5 954.5,-392.5 819.5,-392.5"/>
<text text-anchor="middle" x="887" y="-399.5" font-family="Helvetica,sans-Serif" font-size="10.00" fill="#000000">beta_projectors_gradient.h</text>
</a>
</g>
</g>
<!-- Node60&#45;&gt;Node61 -->
<g id="edge61" class="edge">
<title>Node60&#45;&gt;Node61</title>
<path fill="none" stroke="#191970" d="M837.7075,-495.5723C850.4085,-471.4618 872.1959,-430.1028 881.9824,-411.5249"/>
<polygon fill="#191970" stroke="#191970" points="834.5945,-493.9722 833.0303,-504.4509 840.7877,-497.2347 834.5945,-493.9722"/>
</g>
<!-- Node61&#45;&gt;Node53 -->
<g id="edge62" class="edge">
<title>Node61&#45;&gt;Node53</title>
<path fill="none" stroke="#191970" d="M879.9318,-383.098C868.9813,-356.3305 845.4162,-307.5759 810,-280 779.6266,-256.3505 736.6421,-244.6352 706.1343,-238.9806"/>
<polygon fill="#191970" stroke="#191970" points="876.7092,-384.4671 883.624,-392.4943 883.2243,-381.907 876.7092,-384.4671"/>
</g>
<!-- Node63 -->
<g id="node31" class="node">
<title>Node63</title>
<g id="a_node31"><a xlink:href="real__space__prj_8cpp_source.html" target="_top" xlink:title="real_space_prj.cpp">
<polygon fill="#ffffff" stroke="#000000" points="933.5,-739.5 933.5,-758.5 1034.5,-758.5 1034.5,-739.5 933.5,-739.5"/>
<text text-anchor="middle" x="984" y="-746.5" font-family="Helvetica,sans-Serif" font-size="10.00" fill="#000000">real_space_prj.cpp</text>
</a>
</g>
</g>
<!-- Node62&#45;&gt;Node63 -->
<g id="edge66" class="edge">
<title>Node62&#45;&gt;Node63</title>
<path fill="none" stroke="#191970" d="M982.063,-785.1575C982.5453,-776.155 983.0936,-765.9199 983.4834,-758.6427"/>
<polygon fill="#191970" stroke="#191970" points="978.5626,-785.0726 981.5226,-795.2455 985.5526,-785.4471 978.5626,-785.0726"/>
</g>
<!-- Node64&#45;&gt;Node36 -->
<g id="edge70" class="edge">
<title>Node64&#45;&gt;Node36</title>
<path fill="none" stroke="#191970" d="M967.0983,-959.6303C941.032,-949.3506 905.6885,-935.4124 882.6203,-926.315"/>
<polygon fill="#191970" stroke="#191970" points="966.0025,-962.9605 976.5893,-963.3733 968.5707,-956.4486 966.0025,-962.9605"/>
</g>
<!-- Node64&#45;&gt;Node37 -->
<g id="edge71" class="edge">
<title>Node64&#45;&gt;Node37</title>
<path fill="none" stroke="#191970" d="M982.6918,-956.4635C956.3643,-932.6838 908.6623,-889.5982 887.5454,-870.5249"/>
<polygon fill="#191970" stroke="#191970" points="980.6608,-959.3454 990.4278,-963.4509 985.3528,-954.1507 980.6608,-959.3454"/>
</g>
<!-- Node64&#45;&gt;Node46 -->
<g id="edge72" class="edge">
<title>Node64&#45;&gt;Node46</title>
<path fill="none" stroke="#191970" d="M1017.7398,-955.8593C1036.1023,-935.1728 1063,-898.4751 1063,-861 1063,-861 1063,-861 1063,-178 1063,-128.038 1017.837,-131.8789 972,-112 898.4488,-80.1018 802.5711,-70.2048 758.3236,-67.2285"/>
<polygon fill="#191970" stroke="#191970" points="1015.164,-953.4896 1010.9614,-963.2152 1020.3118,-958.2331 1015.164,-953.4896"/>
</g>
<!-- Node65&#45;&gt;Node36 -->
<g id="edge77" class="edge">
<title>Node65&#45;&gt;Node36</title>
<path fill="none" stroke="#191970" d="M517.1961,-964.7332C606.9614,-952.1974 773.5803,-928.9289 835.2463,-920.3172"/>
<polygon fill="#191970" stroke="#191970" points="516.5903,-961.2838 507.1705,-966.1333 517.5585,-968.2165 516.5903,-961.2838"/>
</g>
<!-- Node65&#45;&gt;Node41 -->
<g id="edge78" class="edge">
<title>Node65&#45;&gt;Node41</title>
<path fill="none" stroke="#191970" d="M399.0312,-964.3031C308.0917,-949.2097 144,-914.5551 144,-861 144,-861 144,-861 144,-626 144,-574.223 204.4774,-539.3488 239.2046,-523.5915"/>
<polygon fill="#191970" stroke="#191970" points="398.5046,-967.7634 408.9375,-965.918 399.6309,-960.8546 398.5046,-967.7634"/>
</g>
<!-- Node65&#45;&gt;Node52 -->
<g id="edge79" class="edge">
<title>Node65&#45;&gt;Node52</title>
<path fill="none" stroke="#191970" d="M398.396,-968.3057C289.1639,-958.0505 68,-928.9024 68,-861 68,-861 68,-861 68,-514 68,-450.77 247.6303,-333.7859 302.3614,-299.6098"/>
<polygon fill="#191970" stroke="#191970" points="398.3289,-971.8141 408.6062,-969.2398 398.9667,-964.8432 398.3289,-971.8141"/>
</g>
</g>
</svg>
