<?xml version="1.0" encoding="UTF-8" standalone="no"?>
<!DOCTYPE svg PUBLIC "-//W3C//DTD SVG 1.1//EN"
 "http://www.w3.org/Graphics/SVG/1.1/DTD/svg11.dtd">
<!-- Generated by graphviz version 2.40.1 (20161225.0304)
 -->
<!-- Title: step_function.h Pages: 1 -->
<svg width="842pt" height="644pt"
 viewBox="0.00 0.00 842.00 644.00" xmlns="http://www.w3.org/2000/svg" xmlns:xlink="http://www.w3.org/1999/xlink">
<g id="graph0" class="graph" transform="scale(1 1) rotate(0) translate(4 640)">
<title>step_function.h</title>
<polygon fill="#ffffff" stroke="transparent" points="-4,4 -4,-640 838,-640 838,4 -4,4"/>
<!-- Node106 -->
<g id="node1" class="node">
<title>Node106</title>
<polygon fill="#bfbfbf" stroke="#000000" points="527,-616.5 527,-635.5 611,-635.5 611,-616.5 527,-616.5"/>
<text text-anchor="middle" x="569" y="-623.5" font-family="Helvetica,sans-Serif" font-size="10.00" fill="#000000">step_function.h</text>
</g>
<!-- Node107 -->
<g id="node2" class="node">
<title>Node107</title>
<g id="a_node2"><a xlink:href="simulation__context_8h.html" target="_top" xlink:title="Contains definition and implementation of Simulation_parameters and Simulation_context classes...">
<polygon fill="#ffffff" stroke="#000000" points="306,-560.5 306,-579.5 414,-579.5 414,-560.5 306,-560.5"/>
<text text-anchor="middle" x="360" y="-567.5" font-family="Helvetica,sans-Serif" font-size="10.00" fill="#000000">simulation_context.h</text>
</a>
</g>
</g>
<!-- Node106&#45;&gt;Node107 -->
<g id="edge1" class="edge">
<title>Node106&#45;&gt;Node107</title>
<path fill="none" stroke="#191970" d="M523.1689,-613.7199C484.7387,-603.4228 430.648,-588.9296 395.4595,-579.5011"/>
<polygon fill="#191970" stroke="#191970" points="522.5065,-617.1658 533.0716,-616.3733 524.3182,-610.4043 522.5065,-617.1658"/>
</g>
<!-- Node113 -->
<g id="node8" class="node">
<title>Node113</title>
<g id="a_node8"><a xlink:href="sirius_8h.html" target="_top" xlink:title="&quot;All&#45;in&#45;one&quot; include file. ">
<polygon fill="#ffffff" stroke="#000000" points="451,-56.5 451,-75.5 499,-75.5 499,-56.5 451,-56.5"/>
<text text-anchor="middle" x="475" y="-63.5" font-family="Helvetica,sans-Serif" font-size="10.00" fill="#000000">sirius.h</text>
</a>
</g>
</g>
<!-- Node106&#45;&gt;Node113 -->
<g id="edge48" class="edge">
<title>Node106&#45;&gt;Node113</title>
<path fill="none" stroke="#191970" d="M621.3147,-615.0303C698.5369,-597.3097 834,-559.7098 834,-514 834,-514 834,-514 834,-178 834,-128.3971 789.6668,-131.3646 744,-112 699.726,-93.2261 556.5208,-75.3016 499.1225,-68.6845"/>
<polygon fill="#191970" stroke="#191970" points="620.2663,-611.6789 611.2831,-617.2959 621.8085,-618.5069 620.2663,-611.6789"/>
</g>
<!-- Node108 -->
<g id="node3" class="node">
<title>Node108</title>
<g id="a_node3"><a xlink:href="periodic__function_8h.html" target="_top" xlink:title="Contains declaration and partial implementation of sirius::Periodic_function class. ">
<polygon fill="#ffffff" stroke="#000000" points="442,-504.5 442,-523.5 542,-523.5 542,-504.5 442,-504.5"/>
<text text-anchor="middle" x="492" y="-511.5" font-family="Helvetica,sans-Serif" font-size="10.00" fill="#000000">periodic_function.h</text>
</a>
</g>
</g>
<!-- Node107&#45;&gt;Node108 -->
<g id="edge2" class="edge">
<title>Node107&#45;&gt;Node108</title>
<path fill="none" stroke="#191970" d="M392.0965,-556.3833C416.1035,-546.1985 448.3259,-532.5284 469.6045,-523.5011"/>
<polygon fill="#191970" stroke="#191970" points="390.5305,-553.2457 382.6916,-560.3733 393.2644,-559.6897 390.5305,-553.2457"/>
</g>
<!-- Node118 -->
<g id="node13" class="node">
<title>Node118</title>
<g id="a_node13"><a xlink:href="density_8h.html" target="_top" xlink:title="Contains definition and partial implementation of sirius::Density class. ">
<polygon fill="#ffffff" stroke="#000000" points="186.5,-336.5 186.5,-355.5 243.5,-355.5 243.5,-336.5 186.5,-336.5"/>
<text text-anchor="middle" x="215" y="-343.5" font-family="Helvetica,sans-Serif" font-size="10.00" fill="#000000">density.h</text>
</a>
</g>
</g>
<!-- Node107&#45;&gt;Node118 -->
<g id="edge45" class="edge">
<title>Node107&#45;&gt;Node118</title>
<path fill="none" stroke="#191970" d="M312.1283,-557.6243C249.2922,-538.4391 141.9496,-494.7892 99,-412 79.6339,-374.6701 146.0367,-357.0974 186.3254,-350.0309"/>
<polygon fill="#191970" stroke="#191970" points="311.2319,-561.009 321.8143,-560.4956 313.2214,-554.2977 311.2319,-561.009"/>
</g>
<!-- Node119 -->
<g id="node14" class="node">
<title>Node119</title>
<g id="a_node14"><a xlink:href="potential_8h.html" target="_top" xlink:title="Contains declaration and partial implementation of sirius::Potential class. ">
<polygon fill="#ffffff" stroke="#000000" points="256.5,-280.5 256.5,-299.5 319.5,-299.5 319.5,-280.5 256.5,-280.5"/>
<text text-anchor="middle" x="288" y="-287.5" font-family="Helvetica,sans-Serif" font-size="10.00" fill="#000000">potential.h</text>
</a>
</g>
</g>
<!-- Node107&#45;&gt;Node119 -->
<g id="edge44" class="edge">
<title>Node107&#45;&gt;Node119</title>
<path fill="none" stroke="#191970" d="M336.3742,-554.4338C310.3084,-535.1759 272,-499.7679 272,-458 272,-458 272,-458 272,-402 272,-363.6984 281.2834,-318.7628 285.7076,-299.5228"/>
<polygon fill="#191970" stroke="#191970" points="334.493,-557.3908 344.6716,-560.3315 338.5485,-551.6852 334.493,-557.3908"/>
</g>
<!-- Node120 -->
<g id="node15" class="node">
<title>Node120</title>
<g id="a_node15"><a xlink:href="forces_8h_source.html" target="_top" xlink:title="forces.h">
<polygon fill="#ffffff" stroke="#000000" points="126,-224.5 126,-243.5 178,-243.5 178,-224.5 126,-224.5"/>
<text text-anchor="middle" x="152" y="-231.5" font-family="Helvetica,sans-Serif" font-size="10.00" fill="#000000">forces.h</text>
</a>
</g>
</g>
<!-- Node107&#45;&gt;Node120 -->
<g id="edge47" class="edge">
<title>Node107&#45;&gt;Node120</title>
<path fill="none" stroke="#191970" d="M295.6761,-563.3192C192.1361,-550.7597 0,-519.2075 0,-458 0,-458 0,-458 0,-346 0,-284.2117 82.4112,-252.6923 125.8703,-240.3664"/>
<polygon fill="#191970" stroke="#191970" points="295.3716,-566.8075 305.7146,-564.5111 296.197,-559.8564 295.3716,-566.8075"/>
</g>
<!-- Node122 -->
<g id="node17" class="node">
<title>Node122</title>
<g id="a_node17"><a xlink:href="beta__projectors_8h.html" target="_top" xlink:title="Contains declaration and implementation of sirius::Beta_projectors class. ">
<polygon fill="#ffffff" stroke="#000000" points="313,-504.5 313,-523.5 407,-523.5 407,-504.5 313,-504.5"/>
<text text-anchor="middle" x="360" y="-511.5" font-family="Helvetica,sans-Serif" font-size="10.00" fill="#000000">beta_projectors.h</text>
</a>
</g>
</g>
<!-- Node107&#45;&gt;Node122 -->
<g id="edge37" class="edge">
<title>Node107&#45;&gt;Node122</title>
<path fill="none" stroke="#191970" d="M360,-550.1575C360,-541.155 360,-530.9199 360,-523.6427"/>
<polygon fill="#191970" stroke="#191970" points="356.5001,-550.2455 360,-560.2455 363.5001,-550.2456 356.5001,-550.2455"/>
</g>
<!-- Node123 -->
<g id="node18" class="node">
<title>Node123</title>
<g id="a_node18"><a xlink:href="non__local__operator_8h.html" target="_top" xlink:title="Contains declaration and implementation of sirius::Non_local_operator class. ">
<polygon fill="#ffffff" stroke="#000000" points="554,-448.5 554,-467.5 664,-467.5 664,-448.5 554,-448.5"/>
<text text-anchor="middle" x="609" y="-455.5" font-family="Helvetica,sans-Serif" font-size="10.00" fill="#000000">non_local_operator.h</text>
</a>
</g>
</g>
<!-- Node107&#45;&gt;Node123 -->
<g id="edge46" class="edge">
<title>Node107&#45;&gt;Node123</title>
<path fill="none" stroke="#191970" d="M424.5432,-564.3591C463.4273,-558.6417 512.6687,-547.1377 551,-524 574.768,-509.653 594.0559,-482.3471 603.2208,-467.7597"/>
<polygon fill="#191970" stroke="#191970" points="423.8117,-560.9267 414.3822,-565.7575 424.766,-567.8614 423.8117,-560.9267"/>
</g>
<!-- Node109 -->
<g id="node4" class="node">
<title>Node109</title>
<g id="a_node4"><a xlink:href="band_8h.html" target="_top" xlink:title="Contains declaration and partial implementation of sirius::Band class. ">
<polygon fill="#ffffff" stroke="#000000" points="594.5,-224.5 594.5,-243.5 641.5,-243.5 641.5,-224.5 594.5,-224.5"/>
<text text-anchor="middle" x="618" y="-231.5" font-family="Helvetica,sans-Serif" font-size="10.00" fill="#000000">band.h</text>
</a>
</g>
</g>
<!-- Node108&#45;&gt;Node109 -->
<g id="edge3" class="edge">
<title>Node108&#45;&gt;Node109</title>
<path fill="none" stroke="#191970" d="M552.3164,-509.1565C593.9962,-503.7318 649.5375,-492.2545 693,-468 728.9513,-447.9372 758,-443.1705 758,-402 758,-402 758,-402 758,-346 758,-287.1713 681.6917,-254.1602 641.7491,-240.9106"/>
<polygon fill="#191970" stroke="#191970" points="551.806,-505.6927 542.3038,-510.3786 552.6542,-512.6411 551.806,-505.6927"/>
</g>
<!-- Node108&#45;&gt;Node113 -->
<g id="edge36" class="edge">
<title>Node108&#45;&gt;Node113</title>
<path fill="none" stroke="#191970" d="M552.0597,-506.0604C611.0152,-497.5811 696.2856,-483.2832 726,-468 764.0244,-448.4427 796,-444.7592 796,-402 796,-402 796,-402 796,-178 796,-115.1395 573.7794,-79.3479 499.1272,-69.0977"/>
<polygon fill="#191970" stroke="#191970" points="551.5168,-502.6022 542.1078,-507.4726 552.5004,-509.5328 551.5168,-502.6022"/>
</g>
<!-- Node116 -->
<g id="node11" class="node">
<title>Node116</title>
<g id="a_node11"><a xlink:href="k__point_8h.html" target="_top" xlink:title="Contains definition and partial implementation of sirius::K_point class. ">
<polygon fill="#ffffff" stroke="#000000" points="423.5,-448.5 423.5,-467.5 480.5,-467.5 480.5,-448.5 423.5,-448.5"/>
<text text-anchor="middle" x="452" y="-455.5" font-family="Helvetica,sans-Serif" font-size="10.00" fill="#000000">k_point.h</text>
</a>
</g>
</g>
<!-- Node108&#45;&gt;Node116 -->
<g id="edge12" class="edge">
<title>Node108&#45;&gt;Node116</title>
<path fill="none" stroke="#191970" d="M479.0864,-495.9209C472.3697,-486.5176 464.4283,-475.3997 458.8876,-467.6427"/>
<polygon fill="#191970" stroke="#191970" points="476.372,-498.1425 485.0325,-504.2455 482.0682,-494.0738 476.372,-498.1425"/>
</g>
<!-- Node108&#45;&gt;Node118 -->
<g id="edge32" class="edge">
<title>Node108&#45;&gt;Node118</title>
<path fill="none" stroke="#191970" d="M464.8398,-499.471C449.5173,-490.9108 430.2459,-479.5259 414,-468 371.3007,-437.7063 368.6248,-419.3782 324,-392 298.4392,-376.3179 266.5807,-363.5614 243.9217,-355.4942"/>
<polygon fill="#191970" stroke="#191970" points="463.36,-502.6517 473.8076,-504.4118 466.738,-496.5206 463.36,-502.6517"/>
</g>
<!-- Node108&#45;&gt;Node119 -->
<g id="edge31" class="edge">
<title>Node108&#45;&gt;Node119</title>
<path fill="none" stroke="#191970" d="M499.5844,-494.5337C508.2138,-468.9132 518.7293,-423.451 499,-392 459.3246,-328.7524 368.1163,-303.7688 319.6375,-294.6906"/>
<polygon fill="#191970" stroke="#191970" points="496.1982,-493.606 496.0952,-504.2003 502.7825,-495.9826 496.1982,-493.606"/>
</g>
<!-- Node108&#45;&gt;Node120 -->
<g id="edge35" class="edge">
<title>Node108&#45;&gt;Node120</title>
<path fill="none" stroke="#191970" d="M458.9517,-500.5207C438.0777,-491.7625 410.6749,-479.8131 387,-468 325.3894,-437.258 313.0694,-423.8035 252,-392 219.2061,-374.9217 199.7484,-385.1483 177,-356 150.2629,-321.7409 150.0996,-266.0699 151.2636,-243.7301"/>
<polygon fill="#191970" stroke="#191970" points="457.76,-503.8158 468.3371,-504.4285 460.4507,-497.3535 457.76,-503.8158"/>
</g>
<!-- Node121 -->
<g id="node16" class="node">
<title>Node121</title>
<g id="a_node16"><a xlink:href="local__operator_8h.html" target="_top" xlink:title="Contains declaration and implementation of sirius::Local_operator class. ">
<polygon fill="#ffffff" stroke="#000000" points="642,-336.5 642,-355.5 730,-355.5 730,-336.5 642,-336.5"/>
<text text-anchor="middle" x="686" y="-343.5" font-family="Helvetica,sans-Serif" font-size="10.00" fill="#000000">local_operator.h</text>
</a>
</g>
</g>
<!-- Node108&#45;&gt;Node121 -->
<g id="edge33" class="edge">
<title>Node108&#45;&gt;Node121</title>
<path fill="none" stroke="#191970" d="M552.0795,-506.1856C598.4116,-498.853 657.1746,-486.262 673,-468 701.178,-435.4836 692.9816,-378.3225 688.27,-355.6545"/>
<polygon fill="#191970" stroke="#191970" points="551.4575,-502.74 542.1033,-507.7149 552.5182,-509.6591 551.4575,-502.74"/>
</g>
<!-- Node110 -->
<g id="node5" class="node">
<title>Node110</title>
<g id="a_node5"><a xlink:href="add__nl__h__o__rs_8cpp_source.html" target="_top" xlink:title="add_nl_h_o_rs.cpp">
<polygon fill="#ffffff" stroke="#000000" points="632,-168.5 632,-187.5 734,-187.5 734,-168.5 632,-168.5"/>
<text text-anchor="middle" x="683" y="-175.5" font-family="Helvetica,sans-Serif" font-size="10.00" fill="#000000">add_nl_h_o_rs.cpp</text>
</a>
</g>
</g>
<!-- Node109&#45;&gt;Node110 -->
<g id="edge4" class="edge">
<title>Node109&#45;&gt;Node110</title>
<path fill="none" stroke="#191970" d="M636.9835,-217.645C648.2879,-207.9058 662.247,-195.8795 671.8076,-187.6427"/>
<polygon fill="#191970" stroke="#191970" points="634.6138,-215.0668 629.3221,-224.2455 639.1827,-220.3701 634.6138,-215.0668"/>
</g>
<!-- Node111 -->
<g id="node6" class="node">
<title>Node111</title>
<g id="a_node6"><a xlink:href="force_8h.html" target="_top" xlink:title="Contains definition of sirius::Force class. ">
<polygon fill="#ffffff" stroke="#000000" points="375.5,-168.5 375.5,-187.5 422.5,-187.5 422.5,-168.5 375.5,-168.5"/>
<text text-anchor="middle" x="399" y="-175.5" font-family="Helvetica,sans-Serif" font-size="10.00" fill="#000000">force.h</text>
</a>
</g>
</g>
<!-- Node109&#45;&gt;Node111 -->
<g id="edge5" class="edge">
<title>Node109&#45;&gt;Node111</title>
<path fill="none" stroke="#191970" d="M584.3429,-225.3936C539.6674,-213.9698 461.8872,-194.0807 422.8243,-184.0921"/>
<polygon fill="#191970" stroke="#191970" points="583.5909,-228.8139 594.1463,-227.9004 585.3251,-222.0321 583.5909,-228.8139"/>
</g>
<!-- Node109&#45;&gt;Node113 -->
<g id="edge11" class="edge">
<title>Node109&#45;&gt;Node113</title>
<path fill="none" stroke="#191970" d="M616.8123,-214.211C614.2292,-187.8288 606.0293,-141.0904 580,-112 558.7669,-88.2698 523.0596,-76.2336 499.2649,-70.5435"/>
<polygon fill="#191970" stroke="#191970" points="613.3458,-214.7726 617.6296,-224.4628 620.3237,-214.2162 613.3458,-214.7726"/>
</g>
<!-- Node112 -->
<g id="node7" class="node">
<title>Node112</title>
<g id="a_node7"><a xlink:href="dft__ground__state_8h.html" target="_top" xlink:title="Contains definition and partial implementation of sirius::DFT_ground_state class. ...">
<polygon fill="#ffffff" stroke="#000000" points="195,-112.5 195,-131.5 295,-131.5 295,-112.5 195,-112.5"/>
<text text-anchor="middle" x="245" y="-119.5" font-family="Helvetica,sans-Serif" font-size="10.00" fill="#000000">dft_ground_state.h</text>
</a>
</g>
</g>
<!-- Node111&#45;&gt;Node112 -->
<g id="edge6" class="edge">
<title>Node111&#45;&gt;Node112</title>
<path fill="none" stroke="#191970" d="M365.8082,-165.9303C337.5319,-155.648 297.444,-141.0706 271.3334,-131.5758"/>
<polygon fill="#191970" stroke="#191970" points="364.6809,-169.2445 375.275,-169.3727 367.0732,-162.666 364.6809,-169.2445"/>
</g>
<!-- Node111&#45;&gt;Node113 -->
<g id="edge10" class="edge">
<title>Node111&#45;&gt;Node113</title>
<path fill="none" stroke="#191970" d="M386.1396,-159.6897C378.0945,-145.778 370.8409,-126.6112 380,-112 395.3778,-87.4682 427.9611,-75.6955 450.6541,-70.277"/>
<polygon fill="#191970" stroke="#191970" points="383.3296,-161.7938 391.6438,-168.3608 389.2395,-158.0424 383.3296,-161.7938"/>
</g>
<!-- Node115 -->
<g id="node10" class="node">
<title>Node115</title>
<g id="a_node10"><a xlink:href="force_8cpp.html" target="_top" xlink:title="Contains implementation of sirius::Force class. ">
<polygon fill="#ffffff" stroke="#000000" points="389,-112.5 389,-131.5 447,-131.5 447,-112.5 389,-112.5"/>
<text text-anchor="middle" x="418" y="-119.5" font-family="Helvetica,sans-Serif" font-size="10.00" fill="#000000">force.cpp</text>
</a>
</g>
</g>
<!-- Node111&#45;&gt;Node115 -->
<g id="edge9" class="edge">
<title>Node111&#45;&gt;Node115</title>
<path fill="none" stroke="#191970" d="M405.5315,-158.7493C408.6336,-149.6064 412.2051,-139.0798 414.7284,-131.6427"/>
<polygon fill="#191970" stroke="#191970" points="402.2082,-157.6512 402.3095,-168.2455 408.837,-159.9003 402.2082,-157.6512"/>
</g>
<!-- Node112&#45;&gt;Node113 -->
<g id="edge7" class="edge">
<title>Node112&#45;&gt;Node113</title>
<path fill="none" stroke="#191970" d="M294.1792,-110.0259C342.3312,-98.302 413.6938,-80.9267 450.7242,-71.9106"/>
<polygon fill="#191970" stroke="#191970" points="293.1652,-106.6705 284.2771,-112.4369 294.8212,-113.4718 293.1652,-106.6705"/>
</g>
<!-- Node114 -->
<g id="node9" class="node">
<title>Node114</title>
<g id="a_node9"><a xlink:href="sirius__api_8cpp.html" target="_top" xlink:title="Fortran API. ">
<polygon fill="#ffffff" stroke="#000000" points="436,-.5 436,-19.5 514,-19.5 514,-.5 436,-.5"/>
<text text-anchor="middle" x="475" y="-7.5" font-family="Helvetica,sans-Serif" font-size="10.00" fill="#000000">sirius_api.cpp</text>
</a>
</g>
</g>
<!-- Node113&#45;&gt;Node114 -->
<g id="edge8" class="edge">
<title>Node113&#45;&gt;Node114</title>
<path fill="none" stroke="#191970" d="M475,-46.1575C475,-37.155 475,-26.9199 475,-19.6427"/>
<polygon fill="#191970" stroke="#191970" points="471.5001,-46.2455 475,-56.2455 478.5001,-46.2456 471.5001,-46.2455"/>
</g>
<!-- Node116&#45;&gt;Node111 -->
<g id="edge29" class="edge">
<title>Node116&#45;&gt;Node111</title>
<path fill="none" stroke="#191970" d="M429.1927,-442.0311C419.9012,-434.1623 410.1498,-423.8197 405,-412 387.0635,-370.8323 395.624,-226.3537 398.3,-187.6173"/>
<polygon fill="#191970" stroke="#191970" points="427.0949,-444.8342 437.1123,-448.2842 431.4328,-439.3403 427.0949,-444.8342"/>
</g>
<!-- Node116&#45;&gt;Node113 -->
<g id="edge30" class="edge">
<title>Node116&#45;&gt;Node113</title>
<path fill="none" stroke="#191970" d="M474.9497,-442.092C484.2686,-434.235 494.0022,-423.8847 499,-412 502.4457,-403.8061 499.2062,-400.8865 499,-392 496.1103,-267.455 503.453,-235.3499 486,-112 484.2054,-99.3167 480.5133,-85.0097 477.9026,-75.7676"/>
<polygon fill="#191970" stroke="#191970" points="472.7043,-439.4049 466.9965,-448.3308 477.0248,-444.9126 472.7043,-439.4049"/>
</g>
<!-- Node117 -->
<g id="node12" class="node">
<title>Node117</title>
<g id="a_node12"><a xlink:href="k__point__set_8h.html" target="_top" xlink:title="Contains declaration and partial implementation of sirius::K_point_set class. ">
<polygon fill="#ffffff" stroke="#000000" points="414,-392.5 414,-411.5 490,-411.5 490,-392.5 414,-392.5"/>
<text text-anchor="middle" x="452" y="-399.5" font-family="Helvetica,sans-Serif" font-size="10.00" fill="#000000">k_point_set.h</text>
</a>
</g>
</g>
<!-- Node116&#45;&gt;Node117 -->
<g id="edge13" class="edge">
<title>Node116&#45;&gt;Node117</title>
<path fill="none" stroke="#191970" d="M452,-438.1575C452,-429.155 452,-418.9199 452,-411.6427"/>
<polygon fill="#191970" stroke="#191970" points="448.5001,-438.2455 452,-448.2455 455.5001,-438.2456 448.5001,-438.2455"/>
</g>
<!-- Node117&#45;&gt;Node109 -->
<g id="edge14" class="edge">
<title>Node117&#45;&gt;Node109</title>
<path fill="none" stroke="#191970" d="M468.806,-384.9915C503.2658,-350.1166 580.9808,-271.4652 608.2891,-243.8279"/>
<polygon fill="#191970" stroke="#191970" points="465.9395,-382.9129 461.4005,-392.4862 470.9188,-387.8329 465.9395,-382.9129"/>
</g>
<!-- Node117&#45;&gt;Node112 -->
<g id="edge27" class="edge">
<title>Node117&#45;&gt;Node112</title>
<path fill="none" stroke="#191970" d="M438.8083,-384.1561C399.1918,-330.5686 282.1449,-172.2444 252.0954,-131.5977"/>
<polygon fill="#191970" stroke="#191970" points="436.1154,-386.4012 444.8746,-392.3618 441.7442,-382.2399 436.1154,-386.4012"/>
</g>
<!-- Node117&#45;&gt;Node113 -->
<g id="edge28" class="edge">
<title>Node117&#45;&gt;Node113</title>
<path fill="none" stroke="#191970" d="M453.3665,-382.0377C457.7225,-318.4011 471.1799,-121.8062 474.3338,-75.7328"/>
<polygon fill="#191970" stroke="#191970" points="449.8547,-382.0908 452.6635,-392.3065 456.8384,-382.5689 449.8547,-382.0908"/>
</g>
<!-- Node117&#45;&gt;Node118 -->
<g id="edge15" class="edge">
<title>Node117&#45;&gt;Node118</title>
<path fill="none" stroke="#191970" d="M404.0481,-390.6696C355.9461,-379.3037 283.4565,-362.1754 243.667,-352.7736"/>
<polygon fill="#191970" stroke="#191970" points="403.385,-394.1092 413.9218,-393.0026 404.9947,-387.2968 403.385,-394.1092"/>
</g>
<!-- Node118&#45;&gt;Node111 -->
<g id="edge24" class="edge">
<title>Node118&#45;&gt;Node111</title>
<path fill="none" stroke="#191970" d="M253.4615,-337.1405C277.062,-330.1674 306.7313,-318.473 328,-300 365.3736,-267.5389 387.973,-210.3459 395.8442,-187.6619"/>
<polygon fill="#191970" stroke="#191970" points="252.4529,-333.7881 243.7607,-339.8459 254.3334,-340.5308 252.4529,-333.7881"/>
</g>
<!-- Node118&#45;&gt;Node112 -->
<g id="edge23" class="edge">
<title>Node118&#45;&gt;Node112</title>
<path fill="none" stroke="#191970" d="M217.6234,-326.4119C223.8184,-280.1557 239.1749,-165.494 243.7157,-131.5891"/>
<polygon fill="#191970" stroke="#191970" points="214.1476,-325.9989 216.2891,-336.375 221.0856,-326.9281 214.1476,-325.9989"/>
</g>
<!-- Node118&#45;&gt;Node113 -->
<g id="edge26" class="edge">
<title>Node118&#45;&gt;Node113</title>
<path fill="none" stroke="#191970" d="M176.6986,-333.7292C135.5537,-317.8638 76,-285.9304 76,-234 76,-234 76,-234 76,-178 76,-99.6665 364.6751,-73.5601 450.9393,-67.5076"/>
<polygon fill="#191970" stroke="#191970" points="175.6058,-337.0566 186.1991,-337.2372 178.0305,-330.49 175.6058,-337.0566"/>
</g>
<!-- Node118&#45;&gt;Node119 -->
<g id="edge16" class="edge">
<title>Node118&#45;&gt;Node119</title>
<path fill="none" stroke="#191970" d="M235.951,-329.928C248.7107,-320.1397 264.5885,-307.9595 275.4301,-299.6427"/>
<polygon fill="#191970" stroke="#191970" points="233.5196,-327.3819 227.7156,-336.2455 237.7803,-332.9359 233.5196,-327.3819"/>
</g>
<!-- Node118&#45;&gt;Node120 -->
<g id="edge25" class="edge">
<title>Node118&#45;&gt;Node120</title>
<path fill="none" stroke="#191970" d="M204.6344,-327.5723C191.0723,-303.4618 167.8078,-262.1028 157.3577,-243.5249"/>
<polygon fill="#191970" stroke="#191970" points="201.6755,-329.4511 209.6287,-336.4509 207.7765,-326.0192 201.6755,-329.4511"/>
</g>
<!-- Node119&#45;&gt;Node109 -->
<g id="edge17" class="edge">
<title>Node119&#45;&gt;Node109</title>
<path fill="none" stroke="#191970" d="M329.8675,-282.8952C399.927,-271.0063 538.6915,-247.4584 594.2175,-238.0358"/>
<polygon fill="#191970" stroke="#191970" points="328.9152,-279.5067 319.6418,-284.6305 330.0864,-286.408 328.9152,-279.5067"/>
</g>
<!-- Node119&#45;&gt;Node111 -->
<g id="edge19" class="edge">
<title>Node119&#45;&gt;Node111</title>
<path fill="none" stroke="#191970" d="M304.696,-273.1536C328.3255,-249.3113 370.739,-206.5156 389.5602,-187.5249"/>
<polygon fill="#191970" stroke="#191970" points="302.0172,-270.8844 297.4638,-280.4509 306.9891,-275.812 302.0172,-270.8844"/>
</g>
<!-- Node119&#45;&gt;Node112 -->
<g id="edge18" class="edge">
<title>Node119&#45;&gt;Node112</title>
<path fill="none" stroke="#191970" d="M280.2349,-270.888C277.0914,-262.6981 273.5987,-252.97 271,-244 259.0683,-202.8142 250.0401,-152.3566 246.5617,-131.6071"/>
<polygon fill="#191970" stroke="#191970" points="277.0095,-272.2496 283.9364,-280.2663 283.5207,-269.6797 277.0095,-272.2496"/>
</g>
<!-- Node119&#45;&gt;Node113 -->
<g id="edge22" class="edge">
<title>Node119&#45;&gt;Node113</title>
<path fill="none" stroke="#191970" d="M292.4464,-270.3566C301.507,-234.4499 325.3164,-157.7179 372,-112 394.1075,-90.3498 428.1609,-77.9017 450.9932,-71.5439"/>
<polygon fill="#191970" stroke="#191970" points="289.0362,-269.5684 290.099,-280.1098 295.8419,-271.2065 289.0362,-269.5684"/>
</g>
<!-- Node119&#45;&gt;Node120 -->
<g id="edge20" class="edge">
<title>Node119&#45;&gt;Node120</title>
<path fill="none" stroke="#191970" d="M255.2601,-276.5189C230.4917,-266.3201 197.095,-252.5685 175.0742,-243.5011"/>
<polygon fill="#191970" stroke="#191970" points="254.0413,-279.8021 264.6208,-280.3733 256.7066,-273.3293 254.0413,-279.8021"/>
</g>
<!-- Node120&#45;&gt;Node112 -->
<g id="edge21" class="edge">
<title>Node120&#45;&gt;Node112</title>
<path fill="none" stroke="#191970" d="M162.5885,-215.1032C170.6608,-201.4114 182.4895,-182.7856 195,-168 206.5808,-154.3131 222.0364,-140.6626 232.6827,-131.8304"/>
<polygon fill="#191970" stroke="#191970" points="159.3786,-213.6636 157.4184,-224.0755 165.4437,-217.1585 159.3786,-213.6636"/>
</g>
<!-- Node121&#45;&gt;Node109 -->
<g id="edge34" class="edge">
<title>Node121&#45;&gt;Node109</title>
<path fill="none" stroke="#191970" d="M675.0063,-327.8927C660.3967,-303.8299 635.1125,-262.1853 623.783,-243.5249"/>
<polygon fill="#191970" stroke="#191970" points="672.0208,-329.7195 680.2024,-336.4509 678.0043,-326.0866 672.0208,-329.7195"/>
</g>
<!-- Node122&#45;&gt;Node116 -->
<g id="edge38" class="edge">
<title>Node122&#45;&gt;Node116</title>
<path fill="none" stroke="#191970" d="M385.0224,-498.769C401.325,-488.8456 422.101,-476.1994 436.1585,-467.6427"/>
<polygon fill="#191970" stroke="#191970" points="382.7473,-496.0563 376.0252,-504.2455 386.387,-502.0357 382.7473,-496.0563"/>
</g>
<!-- Node122&#45;&gt;Node120 -->
<g id="edge43" class="edge">
<title>Node122&#45;&gt;Node120</title>
<path fill="none" stroke="#191970" d="M302.776,-506.0911C210.2394,-491.6782 38,-457.4091 38,-402 38,-402 38,-402 38,-346 38,-295.0875 96.5729,-259.6175 129.749,-243.6105"/>
<polygon fill="#191970" stroke="#191970" points="302.4195,-509.5772 312.8336,-507.6284 303.4772,-502.6576 302.4195,-509.5772"/>
</g>
<!-- Node122&#45;&gt;Node123 -->
<g id="edge39" class="edge">
<title>Node122&#45;&gt;Node123</title>
<path fill="none" stroke="#191970" d="M412.279,-502.2425C458.1496,-491.9262 524.0133,-477.1135 566.6537,-467.5237"/>
<polygon fill="#191970" stroke="#191970" points="411.51,-498.8279 402.5217,-504.4369 413.046,-505.6573 411.51,-498.8279"/>
</g>
<!-- Node124 -->
<g id="node19" class="node">
<title>Node124</title>
<g id="a_node19"><a xlink:href="beta__projectors__gradient_8h.html" target="_top" xlink:title="Contains declaration and implementation of sirius::Beta_projectors_gradient class. ">
<polygon fill="#ffffff" stroke="#000000" points="108.5,-392.5 108.5,-411.5 243.5,-411.5 243.5,-392.5 108.5,-392.5"/>
<text text-anchor="middle" x="176" y="-399.5" font-family="Helvetica,sans-Serif" font-size="10.00" fill="#000000">beta_projectors_gradient.h</text>
</a>
</g>
</g>
<!-- Node122&#45;&gt;Node124 -->
<g id="edge41" class="edge">
<title>Node122&#45;&gt;Node124</title>
<path fill="none" stroke="#191970" d="M335.3245,-498.9801C296.849,-475.5603 223.6609,-431.011 191.648,-411.5249"/>
<polygon fill="#191970" stroke="#191970" points="333.9504,-502.2411 344.3123,-504.4509 337.5901,-496.2617 333.9504,-502.2411"/>
</g>
<!-- Node123&#45;&gt;Node109 -->
<g id="edge40" class="edge">
<title>Node123&#45;&gt;Node109</title>
<path fill="none" stroke="#191970" d="M609.7988,-438.1177C611.665,-391.6713 616.2554,-277.4223 617.6147,-243.5891"/>
<polygon fill="#191970" stroke="#191970" points="606.2911,-438.2425 609.3867,-448.375 613.2855,-438.5236 606.2911,-438.2425"/>
</g>
<!-- Node124&#45;&gt;Node120 -->
<g id="edge42" class="edge">
<title>Node124&#45;&gt;Node120</title>
<path fill="none" stroke="#191970" d="M159.0629,-384.8992C152.1626,-376.8205 144.9028,-366.6267 141,-356 129.3461,-324.2683 133.0246,-313.4359 138,-280 139.9167,-267.1193 144.6962,-252.8554 148.1376,-243.6772"/>
<polygon fill="#191970" stroke="#191970" points="156.6471,-387.4447 165.9678,-392.4821 161.8228,-382.7317 156.6471,-387.4447"/>
</g>
</g>
</svg>
