<?xml version="1.0" encoding="UTF-8" standalone="no"?>
<!DOCTYPE svg PUBLIC "-//W3C//DTD SVG 1.1//EN"
 "http://www.w3.org/Graphics/SVG/1.1/DTD/svg11.dtd">
<!-- Generated by graphviz version 2.40.1 (20161225.0304)
 -->
<!-- Title: sirius::Density::paw_density_data_t Pages: 1 -->
<svg width="1733pt" height="970pt"
 viewBox="0.00 0.00 1733.00 970.00" xmlns="http://www.w3.org/2000/svg" xmlns:xlink="http://www.w3.org/1999/xlink">
<g id="graph0" class="graph" transform="scale(1 1) rotate(0) translate(4 966)">
<title>sirius::Density::paw_density_data_t</title>
<polygon fill="#ffffff" stroke="transparent" points="-4,4 -4,-966 1729,-966 1729,4 -4,4"/>
<!-- Node1 -->
<g id="node1" class="node">
<title>Node1</title>
<polygon fill="#bfbfbf" stroke="#000000" points="1622,-680 1622,-710 1725,-710 1725,-680 1622,-680"/>
<text text-anchor="start" x="1630" y="-698" font-family="Helvetica,sans-Serif" font-size="10.00" fill="#000000">sirius::Density::paw</text>
<text text-anchor="middle" x="1673.5" y="-687" font-family="Helvetica,sans-Serif" font-size="10.00" fill="#000000">_density_data_t</text>
</g>
<!-- Node2 -->
<g id="node2" class="node">
<title>Node2</title>
<g id="a_node2"><a xlink:href="classsirius_1_1_atom.html" target="_top" xlink:title="Data and methods specific to the actual atom in the unit cell. ">
<polygon fill="#ffffff" stroke="#000000" points="1486,-685.5 1486,-704.5 1555,-704.5 1555,-685.5 1486,-685.5"/>
<text text-anchor="middle" x="1520.5" y="-692.5" font-family="Helvetica,sans-Serif" font-size="10.00" fill="#000000">sirius::Atom</text>
</a>
</g>
</g>
<!-- Node2&#45;&gt;Node1 -->
<g id="edge1" class="edge">
<title>Node2&#45;&gt;Node1</title>
<path fill="none" stroke="#9a32cd" stroke-dasharray="5,2" d="M1565.2871,-695C1582.9915,-695 1603.4494,-695 1621.7795,-695"/>
<polygon fill="#9a32cd" stroke="#9a32cd" points="1565.2181,-691.5001 1555.2181,-695 1565.218,-698.5001 1565.2181,-691.5001"/>
<text text-anchor="middle" x="1588.5" y="-698" font-family="Helvetica,sans-Serif" font-size="10.00" fill="#000000"> atom_</text>
</g>
<!-- Node3 -->
<g id="node3" class="node">
<title>Node3</title>
<g id="a_node3"><a xlink:href="classsddk_1_1mdarray.html" target="_top" xlink:title="sddk::mdarray\&lt; double\l_complex, 4 \&gt;">
<polygon fill="#ffffff" stroke="#000000" points="890.5,-559 890.5,-589 1008.5,-589 1008.5,-559 890.5,-559"/>
<text text-anchor="start" x="898.5" y="-577" font-family="Helvetica,sans-Serif" font-size="10.00" fill="#000000">sddk::mdarray&lt; double</text>
<text text-anchor="middle" x="949.5" y="-566" font-family="Helvetica,sans-Serif" font-size="10.00" fill="#000000">_complex, 4 &gt;</text>
</a>
</g>
</g>
<!-- Node3&#45;&gt;Node2 -->
<g id="edge2" class="edge">
<title>Node3&#45;&gt;Node2</title>
<path fill="none" stroke="#9a32cd" stroke-dasharray="5,2" d="M1011.0554,-591.8138C1048.2146,-602.2334 1096.6169,-615.2186 1140,-625 1266.6228,-653.5492 1418.902,-678.8852 1485.9468,-689.5904"/>
<polygon fill="#9a32cd" stroke="#9a32cd" points="1011.949,-588.4293 1001.3745,-589.086 1010.0505,-595.167 1011.949,-588.4293"/>
<text text-anchor="start" x="1140" y="-668" font-family="Helvetica,sans-Serif" font-size="10.00" fill="#000000"> uj_correction_matrix</text>
<text text-anchor="middle" x="1186.5" y="-657" font-family="Helvetica,sans-Serif" font-size="10.00" fill="#000000">_</text>
<text text-anchor="middle" x="1186.5" y="-646" font-family="Helvetica,sans-Serif" font-size="10.00" fill="#000000">occupation_matrix_</text>
</g>
<!-- Node4 -->
<g id="node4" class="node">
<title>Node4</title>
<g id="a_node4"><a xlink:href="classsddk_1_1mdarray__base.html" target="_top" xlink:title="sddk::mdarray_base\l\&lt; double_complex, N \&gt;">
<polygon fill="#ffffff" stroke="#000000" points="465.5,-517 465.5,-547 584.5,-547 584.5,-517 465.5,-517"/>
<text text-anchor="start" x="473.5" y="-535" font-family="Helvetica,sans-Serif" font-size="10.00" fill="#000000">sddk::mdarray_base</text>
<text text-anchor="middle" x="525" y="-524" font-family="Helvetica,sans-Serif" font-size="10.00" fill="#000000">&lt; double_complex, N &gt;</text>
</a>
</g>
</g>
<!-- Node4&#45;&gt;Node3 -->
<g id="edge3" class="edge">
<title>Node4&#45;&gt;Node3</title>
<path fill="none" stroke="#191970" d="M594.9448,-538.9203C677.3371,-547.0722 812.7732,-560.4723 890.2264,-568.1355"/>
<polygon fill="#191970" stroke="#191970" points="595.2162,-535.4302 584.9201,-537.9285 594.5269,-542.3962 595.2162,-535.4302"/>
</g>
<!-- Node15 -->
<g id="node15" class="node">
<title>Node15</title>
<g id="a_node15"><a xlink:href="classsddk_1_1mdarray.html" target="_top" xlink:title="sddk::mdarray\&lt; double\l_complex \&gt;">
<polygon fill="#ffffff" stroke="#000000" points="742.5,-453 742.5,-483 860.5,-483 860.5,-453 742.5,-453"/>
<text text-anchor="start" x="750.5" y="-471" font-family="Helvetica,sans-Serif" font-size="10.00" fill="#000000">sddk::mdarray&lt; double</text>
<text text-anchor="middle" x="801.5" y="-460" font-family="Helvetica,sans-Serif" font-size="10.00" fill="#000000">_complex &gt;</text>
</a>
</g>
</g>
<!-- Node4&#45;&gt;Node15 -->
<g id="edge17" class="edge">
<title>Node4&#45;&gt;Node15</title>
<path fill="none" stroke="#191970" d="M582.3544,-514.0425C592.2004,-511.1945 602.3631,-508.4008 612,-506 655.3036,-495.2121 704.7605,-485.3768 742.2889,-478.4161"/>
<polygon fill="#191970" stroke="#191970" points="581.2525,-510.7182 572.6452,-516.8959 583.2263,-517.4342 581.2525,-510.7182"/>
</g>
<!-- Node5 -->
<g id="node5" class="node">
<title>Node5</title>
<g id="a_node5"><a xlink:href="classsirius_1_1_atom__type.html" target="_top" xlink:title="sirius::Atom_type">
<polygon fill="#ffffff" stroke="#000000" points="1029,-413.5 1029,-432.5 1122,-432.5 1122,-413.5 1029,-413.5"/>
<text text-anchor="middle" x="1075.5" y="-420.5" font-family="Helvetica,sans-Serif" font-size="10.00" fill="#000000">sirius::Atom_type</text>
</a>
</g>
</g>
<!-- Node5&#45;&gt;Node2 -->
<g id="edge4" class="edge">
<title>Node5&#45;&gt;Node2</title>
<path fill="none" stroke="#9a32cd" stroke-dasharray="5,2" d="M1078.6117,-442.9637C1084.5967,-474.2918 1100.7781,-534.6519 1140,-566 1169.0566,-589.2235 1435.9975,-614.0407 1468,-633 1489.8427,-645.9403 1506.9243,-671.3352 1515.1414,-685.2729"/>
<polygon fill="#9a32cd" stroke="#9a32cd" points="1082.0125,-442.0917 1076.8443,-432.8429 1075.1168,-443.2959 1082.0125,-442.0917"/>
<text text-anchor="middle" x="1310" y="-613" font-family="Helvetica,sans-Serif" font-size="10.00" fill="#000000"> type_</text>
</g>
<!-- Node27 -->
<g id="node27" class="node">
<title>Node27</title>
<g id="a_node27"><a xlink:href="classsirius_1_1_atom__symmetry__class.html" target="_top" xlink:title="Data and methods specific to the symmetry class of the atom. ">
<polygon fill="#ffffff" stroke="#000000" points="1251,-680 1251,-710 1369,-710 1369,-680 1251,-680"/>
<text text-anchor="start" x="1259" y="-698" font-family="Helvetica,sans-Serif" font-size="10.00" fill="#000000">sirius::Atom_symmetry</text>
<text text-anchor="middle" x="1310" y="-687" font-family="Helvetica,sans-Serif" font-size="10.00" fill="#000000">_class</text>
</a>
</g>
</g>
<!-- Node5&#45;&gt;Node27 -->
<g id="edge36" class="edge">
<title>Node5&#45;&gt;Node27</title>
<path fill="none" stroke="#9a32cd" stroke-dasharray="5,2" d="M1077.2518,-442.6879C1081.4691,-477.8941 1095.4107,-551.6284 1140,-591 1171.9171,-619.1823 1196.1894,-592.6009 1233,-614 1261.8515,-630.7722 1286.6928,-661.5715 1299.8886,-679.9777"/>
<polygon fill="#9a32cd" stroke="#9a32cd" points="1080.7283,-442.2808 1076.1977,-432.7035 1073.767,-443.0158 1080.7283,-442.2808"/>
<text text-anchor="middle" x="1186.5" y="-617" font-family="Helvetica,sans-Serif" font-size="10.00" fill="#000000"> atom_type_</text>
</g>
<!-- Node6 -->
<g id="node6" class="node">
<title>Node6</title>
<g id="a_node6"><a xlink:href="structpseudopotential__descriptor.html" target="_top" xlink:title="pseudopotential_descriptor">
<polygon fill="#ffffff" stroke="#000000" points="733,-674.5 733,-693.5 870,-693.5 870,-674.5 733,-674.5"/>
<text text-anchor="middle" x="801.5" y="-681.5" font-family="Helvetica,sans-Serif" font-size="10.00" fill="#000000">pseudopotential_descriptor</text>
</a>
</g>
</g>
<!-- Node6&#45;&gt;Node5 -->
<g id="edge5" class="edge">
<title>Node6&#45;&gt;Node5</title>
<path fill="none" stroke="#9a32cd" stroke-dasharray="5,2" d="M817.6019,-666.7438C833.7919,-650.4993 860.2665,-626.8067 888,-614 938.4908,-590.6844 968.2689,-626.5948 1011,-591 1061.6507,-548.8082 1072.6241,-462.0384 1074.9169,-432.8371"/>
<polygon fill="#9a32cd" stroke="#9a32cd" points="814.9736,-664.4264 810.5198,-674.0397 819.9964,-669.302 814.9736,-664.4264"/>
<text text-anchor="middle" x="949.5" y="-617" font-family="Helvetica,sans-Serif" font-size="10.00" fill="#000000"> pp_desc_</text>
</g>
<!-- Node7 -->
<g id="node7" class="node">
<title>Node7</title>
<g id="a_node7"><a xlink:href="classsddk_1_1mdarray.html" target="_top" xlink:title="sddk::mdarray\&lt; double, 2 \&gt;">
<polygon fill="#ffffff" stroke="#000000" points="456,-760.5 456,-779.5 594,-779.5 594,-760.5 456,-760.5"/>
<text text-anchor="middle" x="525" y="-767.5" font-family="Helvetica,sans-Serif" font-size="10.00" fill="#000000">sddk::mdarray&lt; double, 2 &gt;</text>
</a>
</g>
</g>
<!-- Node7&#45;&gt;Node1 -->
<g id="edge44" class="edge">
<title>Node7&#45;&gt;Node1</title>
<path fill="none" stroke="#9a32cd" stroke-dasharray="5,2" d="M541.8597,-786.5909C558.4565,-802.0994 585.1504,-824.9199 612,-839 841.5948,-959.4009 927.2508,-940 1186.5,-940 1186.5,-940 1186.5,-940 1520.5,-940 1629.32,-940 1663.5898,-763.9623 1671.5059,-710.3258"/>
<polygon fill="#9a32cd" stroke="#9a32cd" points="544.219,-784.0044 534.5669,-779.6354 539.3877,-789.0699 544.219,-784.0044"/>
<text text-anchor="middle" x="1186.5" y="-954" font-family="Helvetica,sans-Serif" font-size="10.00" fill="#000000"> ae_density_</text>
<text text-anchor="middle" x="1186.5" y="-943" font-family="Helvetica,sans-Serif" font-size="10.00" fill="#000000">ps_density_</text>
</g>
<!-- Node7&#45;&gt;Node2 -->
<g id="edge39" class="edge">
<title>Node7&#45;&gt;Node2</title>
<path fill="none" stroke="#9a32cd" stroke-dasharray="5,2" d="M552.8371,-784.0916C601.8016,-807.5353 707.1118,-852 801.5,-852 801.5,-852 801.5,-852 1310,-852 1408.9313,-852 1491.3918,-739.1922 1514.2205,-704.8211"/>
<polygon fill="#9a32cd" stroke="#9a32cd" points="554.0646,-780.7965 543.5413,-779.5669 551.001,-787.0905 554.0646,-780.7965"/>
<text text-anchor="middle" x="1075.5" y="-866" font-family="Helvetica,sans-Serif" font-size="10.00" fill="#000000"> beff_</text>
<text text-anchor="middle" x="1075.5" y="-855" font-family="Helvetica,sans-Serif" font-size="10.00" fill="#000000">veff_</text>
</g>
<!-- Node7&#45;&gt;Node6 -->
<g id="edge6" class="edge">
<title>Node7&#45;&gt;Node6</title>
<path fill="none" stroke="#9a32cd" stroke-dasharray="5,2" d="M543.7986,-753.8548C560.5494,-740.3957 586.3199,-721.8821 612,-712 633.6488,-703.6692 687.9739,-696.1033 732.9348,-690.9425"/>
<polygon fill="#9a32cd" stroke="#9a32cd" points="541.3983,-751.2977 535.9094,-760.3599 545.8515,-756.6985 541.3983,-751.2977"/>
<text text-anchor="middle" x="663.5" y="-748" font-family="Helvetica,sans-Serif" font-size="10.00" fill="#000000"> all_elec_wfc</text>
<text text-anchor="middle" x="663.5" y="-737" font-family="Helvetica,sans-Serif" font-size="10.00" fill="#000000">beta_radial_functions</text>
<text text-anchor="middle" x="663.5" y="-726" font-family="Helvetica,sans-Serif" font-size="10.00" fill="#000000">d_mtrx_ion</text>
<text text-anchor="middle" x="663.5" y="-715" font-family="Helvetica,sans-Serif" font-size="10.00" fill="#000000">pseudo_wfc</text>
</g>
<!-- Node7&#45;&gt;Node27 -->
<g id="edge37" class="edge">
<title>Node7&#45;&gt;Node27</title>
<path fill="none" stroke="#9a32cd" stroke-dasharray="5,2" d="M604.4409,-764.6555C638.5007,-762.2322 678.7212,-759.1956 715,-756 911.5351,-738.6883 1144.0896,-713.4723 1250.9373,-701.6209"/>
<polygon fill="#9a32cd" stroke="#9a32cd" points="603.8081,-761.1913 594.0796,-765.3873 604.3013,-768.174 603.8081,-761.1913"/>
<text text-anchor="start" x="899" y="-764" font-family="Helvetica,sans-Serif" font-size="10.00" fill="#000000"> o1_radial_integrals</text>
<text text-anchor="middle" x="949.5" y="-753" font-family="Helvetica,sans-Serif" font-size="10.00" fill="#000000">_</text>
<text text-anchor="middle" x="949.5" y="-742" font-family="Helvetica,sans-Serif" font-size="10.00" fill="#000000">h_spherical_integrals_</text>
</g>
<!-- Node8 -->
<g id="node8" class="node">
<title>Node8</title>
<g id="a_node8"><a xlink:href="classsddk_1_1mdarray__base.html" target="_top" xlink:title="sddk::mdarray_base\l\&lt; double, N \&gt;">
<polygon fill="#ffffff" stroke="#000000" points="0,-695 0,-725 107,-725 107,-695 0,-695"/>
<text text-anchor="start" x="8" y="-713" font-family="Helvetica,sans-Serif" font-size="10.00" fill="#000000">sddk::mdarray_base</text>
<text text-anchor="middle" x="53.5" y="-702" font-family="Helvetica,sans-Serif" font-size="10.00" fill="#000000">&lt; double, N &gt;</text>
</a>
</g>
</g>
<!-- Node8&#45;&gt;Node7 -->
<g id="edge7" class="edge">
<title>Node8&#45;&gt;Node7</title>
<path fill="none" stroke="#191970" d="M117.2815,-718.1164C205.6325,-729.3594 364.6493,-749.5948 455.7921,-761.1931"/>
<polygon fill="#191970" stroke="#191970" points="117.4899,-714.6148 107.128,-716.8243 116.6061,-721.5588 117.4899,-714.6148"/>
</g>
<!-- Node9 -->
<g id="node9" class="node">
<title>Node9</title>
<g id="a_node9"><a xlink:href="classsddk_1_1mdarray.html" target="_top" xlink:title="sddk::mdarray\&lt; double, 3 \&gt;">
<polygon fill="#ffffff" stroke="#000000" points="456,-650.5 456,-669.5 594,-669.5 594,-650.5 456,-650.5"/>
<text text-anchor="middle" x="525" y="-657.5" font-family="Helvetica,sans-Serif" font-size="10.00" fill="#000000">sddk::mdarray&lt; double, 3 &gt;</text>
</a>
</g>
</g>
<!-- Node8&#45;&gt;Node9 -->
<g id="edge9" class="edge">
<title>Node8&#45;&gt;Node9</title>
<path fill="none" stroke="#191970" d="M117.2815,-703.2363C205.6325,-693.8672 364.6493,-677.0043 455.7921,-667.3391"/>
<polygon fill="#191970" stroke="#191970" points="116.7031,-699.7779 107.128,-704.313 117.4414,-706.7389 116.7031,-699.7779"/>
</g>
<!-- Node14 -->
<g id="node14" class="node">
<title>Node14</title>
<g id="a_node14"><a xlink:href="classsddk_1_1mdarray.html" target="_top" xlink:title="sddk::mdarray\&lt; double, 1 \&gt;">
<polygon fill="#ffffff" stroke="#000000" points="144,-300.5 144,-319.5 282,-319.5 282,-300.5 144,-300.5"/>
<text text-anchor="middle" x="213" y="-307.5" font-family="Helvetica,sans-Serif" font-size="10.00" fill="#000000">sddk::mdarray&lt; double, 1 &gt;</text>
</a>
</g>
</g>
<!-- Node8&#45;&gt;Node14 -->
<g id="edge15" class="edge">
<title>Node8&#45;&gt;Node14</title>
<path fill="none" stroke="#191970" d="M57.2741,-684.8487C68.5316,-612.4303 103.6119,-405.1552 144,-351 154.7463,-336.5906 172.1829,-326.2924 186.8386,-319.6209"/>
<polygon fill="#191970" stroke="#191970" points="53.7896,-684.4809 55.7313,-694.8963 60.7086,-685.5434 53.7896,-684.4809"/>
</g>
<!-- Node28 -->
<g id="node28" class="node">
<title>Node28</title>
<g id="a_node28"><a xlink:href="classsddk_1_1mdarray.html" target="_top" xlink:title="sddk::mdarray\&lt; double, 4 \&gt;">
<polygon fill="#ffffff" stroke="#000000" points="300,-909.5 300,-928.5 438,-928.5 438,-909.5 300,-909.5"/>
<text text-anchor="middle" x="369" y="-916.5" font-family="Helvetica,sans-Serif" font-size="10.00" fill="#000000">sddk::mdarray&lt; double, 4 &gt;</text>
</a>
</g>
</g>
<!-- Node8&#45;&gt;Node28 -->
<g id="edge42" class="edge">
<title>Node8&#45;&gt;Node28</title>
<path fill="none" stroke="#191970" d="M80.4549,-731.6801C93.6641,-742.0589 109.9355,-754.4856 125,-765 208.3863,-823.1999 312.9542,-885.9335 352.6778,-909.4146"/>
<polygon fill="#191970" stroke="#191970" points="82.2741,-728.6564 72.2603,-725.1961 77.9306,-734.1458 82.2741,-728.6564"/>
</g>
<!-- Node9&#45;&gt;Node1 -->
<g id="edge45" class="edge">
<title>Node9&#45;&gt;Node1</title>
<path fill="none" stroke="#9a32cd" stroke-dasharray="5,2" d="M572.5422,-647.9441C666.7624,-624.0422 868.3133,-572.8616 870,-572 879.2739,-567.263 878.3472,-560.9074 888,-557 965.4597,-525.6447 991.9347,-543 1075.5,-543 1075.5,-543 1075.5,-543 1520.5,-543 1597.6315,-543 1649.7004,-641.4233 1667.0974,-679.87"/>
<polygon fill="#9a32cd" stroke="#9a32cd" points="571.5177,-644.5931 562.6852,-650.4445 573.2389,-651.3782 571.5177,-644.5931"/>
<text text-anchor="middle" x="1186.5" y="-557" font-family="Helvetica,sans-Serif" font-size="10.00" fill="#000000"> ps_magnetization_</text>
<text text-anchor="middle" x="1186.5" y="-546" font-family="Helvetica,sans-Serif" font-size="10.00" fill="#000000">ae_magnetization_</text>
</g>
<!-- Node9&#45;&gt;Node2 -->
<g id="edge40" class="edge">
<title>Node9&#45;&gt;Node2</title>
<path fill="none" stroke="#9a32cd" stroke-dasharray="5,2" d="M534.7836,-678.4083C548.4995,-702.0846 575.8706,-742.2634 612,-760 783.0468,-843.97 1281.6741,-749.8823 1468,-710 1475.1374,-708.4723 1482.7308,-706.5065 1489.8603,-704.5045"/>
<polygon fill="#9a32cd" stroke="#9a32cd" points="537.8336,-676.6912 529.9048,-669.6637 531.7206,-680.1018 537.8336,-676.6912"/>
<text text-anchor="start" x="1034.5" y="-806" font-family="Helvetica,sans-Serif" font-size="10.00" fill="#000000"> h_radial_integrals</text>
<text text-anchor="middle" x="1075.5" y="-795" font-family="Helvetica,sans-Serif" font-size="10.00" fill="#000000">_</text>
<text text-anchor="middle" x="1075.5" y="-784" font-family="Helvetica,sans-Serif" font-size="10.00" fill="#000000">d_mtrx_</text>
</g>
<!-- Node9&#45;&gt;Node5 -->
<g id="edge31" class="edge">
<title>Node9&#45;&gt;Node5</title>
<path fill="none" stroke="#9a32cd" stroke-dasharray="5,2" d="M543.0204,-643.3157C559.783,-628.564 586.0156,-607.3681 612,-594 777.1282,-509.0468 845.0607,-553.3576 1011,-470 1031.5527,-459.6756 1052.5715,-442.9785 1064.8101,-432.5144"/>
<polygon fill="#9a32cd" stroke="#9a32cd" points="540.2706,-641.081 535.1694,-650.367 544.948,-646.2889 540.2706,-641.081"/>
<text text-anchor="middle" x="801.5" y="-560" font-family="Helvetica,sans-Serif" font-size="10.00" fill="#000000"> rf_coef_</text>
<text text-anchor="middle" x="801.5" y="-549" font-family="Helvetica,sans-Serif" font-size="10.00" fill="#000000">vrf_coef_</text>
</g>
<!-- Node9&#45;&gt;Node6 -->
<g id="edge8" class="edge">
<title>Node9&#45;&gt;Node6</title>
<path fill="none" stroke="#9a32cd" stroke-dasharray="5,2" d="M604.197,-666.8742C644.8259,-670.4008 693.8339,-674.6547 732.8422,-678.0406"/>
<polygon fill="#9a32cd" stroke="#9a32cd" points="604.3246,-663.3722 594.0594,-665.9943 603.7192,-670.346 604.3246,-663.3722"/>
<text text-anchor="middle" x="663.5" y="-679" font-family="Helvetica,sans-Serif" font-size="10.00" fill="#000000"> q_radial_functions_l</text>
</g>
<!-- Node9&#45;&gt;Node27 -->
<g id="edge38" class="edge">
<title>Node9&#45;&gt;Node27</title>
<path fill="none" stroke="#9a32cd" stroke-dasharray="5,2" d="M604.0878,-650.9931C700.5491,-641.6297 868.3887,-630.5758 1011,-648 1069.635,-655.164 1081.7369,-670.2636 1140,-680 1176.5292,-686.1044 1217.9165,-689.8238 1250.7084,-692.0318"/>
<polygon fill="#9a32cd" stroke="#9a32cd" points="603.7259,-647.5117 594.1191,-651.9795 604.4152,-654.4777 603.7259,-647.5117"/>
<text text-anchor="start" x="897" y="-717" font-family="Helvetica,sans-Serif" font-size="10.00" fill="#000000"> o_radial_integrals</text>
<text text-anchor="middle" x="949.5" y="-706" font-family="Helvetica,sans-Serif" font-size="10.00" fill="#000000">_</text>
<text text-anchor="start" x="897" y="-695" font-family="Helvetica,sans-Serif" font-size="10.00" fill="#000000">aw_surface_derivatives</text>
<text text-anchor="middle" x="949.5" y="-684" font-family="Helvetica,sans-Serif" font-size="10.00" fill="#000000">_</text>
<text text-anchor="start" x="897" y="-673" font-family="Helvetica,sans-Serif" font-size="10.00" fill="#000000">so_radial_integrals</text>
<text text-anchor="middle" x="949.5" y="-662" font-family="Helvetica,sans-Serif" font-size="10.00" fill="#000000">_</text>
<text text-anchor="middle" x="949.5" y="-651" font-family="Helvetica,sans-Serif" font-size="10.00" fill="#000000">radial_functions_</text>
</g>
<!-- Node10 -->
<g id="node10" class="node">
<title>Node10</title>
<g id="a_node10"><a xlink:href="classsddk_1_1mdarray.html" target="_top" xlink:title="sddk::mdarray\&lt; int, 2 \&gt;">
<polygon fill="#ffffff" stroke="#000000" points="465.5,-387.5 465.5,-406.5 584.5,-406.5 584.5,-387.5 465.5,-387.5"/>
<text text-anchor="middle" x="525" y="-394.5" font-family="Helvetica,sans-Serif" font-size="10.00" fill="#000000">sddk::mdarray&lt; int, 2 &gt;</text>
</a>
</g>
</g>
<!-- Node10&#45;&gt;Node5 -->
<g id="edge10" class="edge">
<title>Node10&#45;&gt;Node5</title>
<path fill="none" stroke="#9a32cd" stroke-dasharray="5,2" d="M595.1477,-401.9942C600.8481,-402.3524 606.5203,-402.6929 612,-403 764.391,-411.5413 945.1453,-418.3964 1028.7697,-421.3815"/>
<polygon fill="#9a32cd" stroke="#9a32cd" points="595.0963,-398.4838 584.892,-401.3337 594.6464,-405.4693 595.0963,-398.4838"/>
<text text-anchor="middle" x="801.5" y="-418" font-family="Helvetica,sans-Serif" font-size="10.00" fill="#000000"> idx_radial_integrals_</text>
</g>
<!-- Node16 -->
<g id="node16" class="node">
<title>Node16</title>
<g id="a_node16"><a xlink:href="classsirius_1_1radial__functions__index.html" target="_top" xlink:title="sirius::radial_functions\l_index">
<polygon fill="#ffffff" stroke="#000000" points="744,-307 744,-337 859,-337 859,-307 744,-307"/>
<text text-anchor="start" x="752" y="-325" font-family="Helvetica,sans-Serif" font-size="10.00" fill="#000000">sirius::radial_functions</text>
<text text-anchor="middle" x="801.5" y="-314" font-family="Helvetica,sans-Serif" font-size="10.00" fill="#000000">_index</text>
</a>
</g>
</g>
<!-- Node10&#45;&gt;Node16 -->
<g id="edge19" class="edge">
<title>Node10&#45;&gt;Node16</title>
<path fill="none" stroke="#9a32cd" stroke-dasharray="5,2" d="M586.7199,-382.9263C589.2747,-381.4452 591.7176,-379.8086 594,-378 607.0942,-367.6244 598.1749,-354.3796 612,-345 650.3946,-318.9512 703.4693,-314.5146 743.685,-315.8424"/>
<polygon fill="#9a32cd" stroke="#9a32cd" points="585.0948,-379.8252 577.673,-387.3862 588.1899,-386.1037 585.0948,-379.8252"/>
<text text-anchor="middle" x="663.5" y="-348" font-family="Helvetica,sans-Serif" font-size="10.00" fill="#000000"> index_by_l_order_</text>
</g>
<!-- Node26 -->
<g id="node26" class="node">
<title>Node26</title>
<g id="a_node26"><a xlink:href="classsirius_1_1basis__functions__index.html" target="_top" xlink:title="sirius::basis_functions\l_index">
<polygon fill="#ffffff" stroke="#000000" points="744.5,-356 744.5,-386 858.5,-386 858.5,-356 744.5,-356"/>
<text text-anchor="start" x="752.5" y="-374" font-family="Helvetica,sans-Serif" font-size="10.00" fill="#000000">sirius::basis_functions</text>
<text text-anchor="middle" x="801.5" y="-363" font-family="Helvetica,sans-Serif" font-size="10.00" fill="#000000">_index</text>
</a>
</g>
</g>
<!-- Node10&#45;&gt;Node26 -->
<g id="edge33" class="edge">
<title>Node10&#45;&gt;Node26</title>
<path fill="none" stroke="#9a32cd" stroke-dasharray="5,2" d="M594.895,-390.4276C641.1099,-386.0819 700.9422,-380.4557 744.3152,-376.3772"/>
<polygon fill="#9a32cd" stroke="#9a32cd" points="594.2843,-386.9695 584.656,-391.3904 594.9397,-393.9387 594.2843,-386.9695"/>
<text text-anchor="middle" x="663.5" y="-391" font-family="Helvetica,sans-Serif" font-size="10.00" fill="#000000"> index_by_lm_order_</text>
</g>
<!-- Node11 -->
<g id="node11" class="node">
<title>Node11</title>
<g id="a_node11"><a xlink:href="classsddk_1_1mdarray__base.html" target="_top" xlink:title="sddk::mdarray_base\l\&lt; int, N \&gt;">
<polygon fill="#ffffff" stroke="#000000" points="159.5,-360 159.5,-390 266.5,-390 266.5,-360 159.5,-360"/>
<text text-anchor="start" x="167.5" y="-378" font-family="Helvetica,sans-Serif" font-size="10.00" fill="#000000">sddk::mdarray_base</text>
<text text-anchor="middle" x="213" y="-367" font-family="Helvetica,sans-Serif" font-size="10.00" fill="#000000">&lt; int, N &gt;</text>
</a>
</g>
</g>
<!-- Node11&#45;&gt;Node10 -->
<g id="edge11" class="edge">
<title>Node11&#45;&gt;Node10</title>
<path fill="none" stroke="#191970" d="M276.6633,-379.4891C331.9397,-383.3868 411.38,-388.9883 465.4219,-392.799"/>
<polygon fill="#191970" stroke="#191970" points="276.8562,-375.9941 266.6347,-378.7819 276.3637,-382.9767 276.8562,-375.9941"/>
</g>
<!-- Node17 -->
<g id="node17" class="node">
<title>Node17</title>
<g id="a_node17"><a xlink:href="classsddk_1_1mdarray.html" target="_top" xlink:title="sddk::mdarray\&lt; int, 1 \&gt;">
<polygon fill="#ffffff" stroke="#000000" points="465.5,-349.5 465.5,-368.5 584.5,-368.5 584.5,-349.5 465.5,-349.5"/>
<text text-anchor="middle" x="525" y="-356.5" font-family="Helvetica,sans-Serif" font-size="10.00" fill="#000000">sddk::mdarray&lt; int, 1 &gt;</text>
</a>
</g>
</g>
<!-- Node11&#45;&gt;Node17 -->
<g id="edge21" class="edge">
<title>Node11&#45;&gt;Node17</title>
<path fill="none" stroke="#191970" d="M276.6633,-371.7352C331.9397,-368.9005 411.38,-364.8267 465.4219,-362.0553"/>
<polygon fill="#191970" stroke="#191970" points="276.4423,-368.2419 266.6347,-372.2495 276.8009,-375.2327 276.4423,-368.2419"/>
</g>
<!-- Node12 -->
<g id="node12" class="node">
<title>Node12</title>
<g id="a_node12"><a xlink:href="classsirius_1_1_spline.html" target="_top" xlink:title="sirius::Spline\&lt; double \&gt;">
<polygon fill="#ffffff" stroke="#000000" points="741.5,-199.5 741.5,-218.5 861.5,-218.5 861.5,-199.5 741.5,-199.5"/>
<text text-anchor="middle" x="801.5" y="-206.5" font-family="Helvetica,sans-Serif" font-size="10.00" fill="#000000">sirius::Spline&lt; double &gt;</text>
</a>
</g>
</g>
<!-- Node12&#45;&gt;Node5 -->
<g id="edge12" class="edge">
<title>Node12&#45;&gt;Node5</title>
<path fill="none" stroke="#9a32cd" stroke-dasharray="5,2" d="M865.2212,-198.4917C910.6118,-194.6925 970.5103,-197.6517 1011,-230 1041.0855,-254.0362 1066.7044,-377.0914 1073.6471,-413.0938"/>
<polygon fill="#9a32cd" stroke="#9a32cd" points="864.8037,-195.0156 855.1861,-199.4599 865.476,-201.9833 864.8037,-195.0156"/>
<text text-anchor="middle" x="949.5" y="-233" font-family="Helvetica,sans-Serif" font-size="10.00" fill="#000000"> free_atom_density_spline_</text>
</g>
<!-- Node13 -->
<g id="node13" class="node">
<title>Node13</title>
<g id="a_node13"><a xlink:href="classsirius_1_1_radial__grid.html" target="_top" xlink:title="Radial grid for a muffin&#45;tin or an isolated atom. ">
<polygon fill="#ffffff" stroke="#000000" points="477,-245.5 477,-264.5 573,-264.5 573,-245.5 477,-245.5"/>
<text text-anchor="middle" x="525" y="-252.5" font-family="Helvetica,sans-Serif" font-size="10.00" fill="#000000">sirius::Radial_grid</text>
</a>
</g>
</g>
<!-- Node13&#45;&gt;Node5 -->
<g id="edge30" class="edge">
<title>Node13&#45;&gt;Node5</title>
<path fill="none" stroke="#9a32cd" stroke-dasharray="5,2" d="M583.34,-250.3668C652.5583,-246.315 771.048,-243.9491 870,-265 936.2782,-279.0999 958.9165,-279.6536 1011,-323 1042.1234,-348.9024 1063.3978,-393.7599 1071.6605,-413.364"/>
<polygon fill="#9a32cd" stroke="#9a32cd" points="582.8439,-246.8907 573.0789,-251.0012 583.2759,-253.8774 582.8439,-246.8907"/>
<text text-anchor="start" x="751" y="-290" font-family="Helvetica,sans-Serif" font-size="10.00" fill="#000000"> free_atom_radial_grid</text>
<text text-anchor="middle" x="801.5" y="-279" font-family="Helvetica,sans-Serif" font-size="10.00" fill="#000000">_</text>
<text text-anchor="middle" x="801.5" y="-268" font-family="Helvetica,sans-Serif" font-size="10.00" fill="#000000">radial_grid_</text>
</g>
<!-- Node13&#45;&gt;Node12 -->
<g id="edge13" class="edge">
<title>Node13&#45;&gt;Node12</title>
<path fill="none" stroke="#9a32cd" stroke-dasharray="5,2" d="M563.6332,-242.3765C578.6013,-237.8885 595.966,-233.1684 612,-230 654.8641,-221.5298 703.9068,-216.2113 741.3601,-213.0462"/>
<polygon fill="#9a32cd" stroke="#9a32cd" points="562.2327,-239.1451 553.6994,-245.4247 564.2862,-245.8372 562.2327,-239.1451"/>
<text text-anchor="middle" x="663.5" y="-233" font-family="Helvetica,sans-Serif" font-size="10.00" fill="#000000"> radial_grid_</text>
</g>
<!-- Node14&#45;&gt;Node13 -->
<g id="edge14" class="edge">
<title>Node14&#45;&gt;Node13</title>
<path fill="none" stroke="#9a32cd" stroke-dasharray="5,2" d="M276.9909,-298.7196C336.2787,-288.2682 423.1571,-272.9531 476.7865,-263.4992"/>
<polygon fill="#9a32cd" stroke="#9a32cd" points="276.2306,-295.2995 266.9901,-300.4825 277.4459,-302.1932 276.2306,-295.2995"/>
<text text-anchor="middle" x="369" y="-318" font-family="Helvetica,sans-Serif" font-size="10.00" fill="#000000"> dx_</text>
<text text-anchor="middle" x="369" y="-307" font-family="Helvetica,sans-Serif" font-size="10.00" fill="#000000">x_inv_</text>
<text text-anchor="middle" x="369" y="-296" font-family="Helvetica,sans-Serif" font-size="10.00" fill="#000000">x_</text>
</g>
<!-- Node15&#45;&gt;Node5 -->
<g id="edge16" class="edge">
<title>Node15&#45;&gt;Node5</title>
<path fill="none" stroke="#9a32cd" stroke-dasharray="5,2" d="M870.951,-458.9097C911.8332,-453.2633 964.483,-445.4802 1011,-437 1018.3274,-435.6642 1026.092,-434.1042 1033.5995,-432.5199"/>
<polygon fill="#9a32cd" stroke="#9a32cd" points="870.2536,-455.4725 860.8216,-460.2984 871.2044,-462.4077 870.2536,-455.4725"/>
<text text-anchor="middle" x="949.5" y="-458" font-family="Helvetica,sans-Serif" font-size="10.00" fill="#000000"> p_mtrx_</text>
</g>
<!-- Node16&#45;&gt;Node5 -->
<g id="edge18" class="edge">
<title>Node16&#45;&gt;Node5</title>
<path fill="none" stroke="#9a32cd" stroke-dasharray="5,2" d="M869.0115,-325.2129C911.6872,-329.5255 966.9056,-339.4299 1011,-362 1035.6955,-374.6406 1057.5508,-399.6628 1068.3508,-413.4057"/>
<polygon fill="#9a32cd" stroke="#9a32cd" points="869.2835,-321.7231 859.0017,-324.2798 868.6337,-328.6929 869.2835,-321.7231"/>
<text text-anchor="middle" x="949.5" y="-365" font-family="Helvetica,sans-Serif" font-size="10.00" fill="#000000"> indexr_</text>
</g>
<!-- Node17&#45;&gt;Node16 -->
<g id="edge20" class="edge">
<title>Node17&#45;&gt;Node16</title>
<path fill="none" stroke="#9a32cd" stroke-dasharray="5,2" d="M541.571,-341.9792C557.8413,-326.5897 584.2032,-305.0075 612,-296 662.7024,-279.5699 724.3156,-293.9615 763.2288,-306.9854"/>
<polygon fill="#9a32cd" stroke="#9a32cd" points="538.7258,-339.8665 534.0284,-349.3631 543.6227,-344.8686 538.7258,-339.8665"/>
<text text-anchor="middle" x="663.5" y="-299" font-family="Helvetica,sans-Serif" font-size="10.00" fill="#000000"> index_by_idxlo_</text>
</g>
<!-- Node17&#45;&gt;Node26 -->
<g id="edge34" class="edge">
<title>Node17&#45;&gt;Node26</title>
<path fill="none" stroke="#9a32cd" stroke-dasharray="5,2" d="M594.8838,-359.9298C630.8012,-360.6382 675.2634,-361.8709 715,-364 724.4783,-364.5079 734.5301,-365.1897 744.2991,-365.9291"/>
<polygon fill="#9a32cd" stroke="#9a32cd" points="594.5738,-356.4234 584.5098,-359.735 594.4423,-363.4222 594.5738,-356.4234"/>
<text text-anchor="middle" x="663.5" y="-367" font-family="Helvetica,sans-Serif" font-size="10.00" fill="#000000"> index_by_idxrf_</text>
</g>
<!-- Node18 -->
<g id="node18" class="node">
<title>Node18</title>
<g id="a_node18"><a xlink:href="classsirius_1_1_simulation__parameters.html" target="_top" xlink:title="Set of basic parameters of a simulation. ">
<polygon fill="#ffffff" stroke="#000000" points="755.5,-119 755.5,-149 847.5,-149 847.5,-119 755.5,-119"/>
<text text-anchor="start" x="763.5" y="-137" font-family="Helvetica,sans-Serif" font-size="10.00" fill="#000000">sirius::Simulation</text>
<text text-anchor="middle" x="801.5" y="-126" font-family="Helvetica,sans-Serif" font-size="10.00" fill="#000000">_parameters</text>
</a>
</g>
</g>
<!-- Node18&#45;&gt;Node5 -->
<g id="edge22" class="edge">
<title>Node18&#45;&gt;Node5</title>
<path fill="none" stroke="#9a32cd" stroke-dasharray="5,2" d="M857.9211,-131.8636C904.9064,-133.2254 970.4626,-142.9071 1011,-182 1045.6847,-215.4487 1068.8013,-372.8069 1074.2574,-413.4177"/>
<polygon fill="#9a32cd" stroke="#9a32cd" points="857.9548,-128.3637 847.8956,-131.6899 857.8334,-135.3627 857.9548,-128.3637"/>
<text text-anchor="middle" x="949.5" y="-185" font-family="Helvetica,sans-Serif" font-size="10.00" fill="#000000"> parameters_</text>
</g>
<!-- Node19 -->
<g id="node19" class="node">
<title>Node19</title>
<g id="a_node19"><a xlink:href="structsirius_1_1_parameters__input.html" target="_top" xlink:title="sirius::Parameters\l_input">
<polygon fill="#ffffff" stroke="#000000" points="476.5,-193 476.5,-223 573.5,-223 573.5,-193 476.5,-193"/>
<text text-anchor="start" x="484.5" y="-211" font-family="Helvetica,sans-Serif" font-size="10.00" fill="#000000">sirius::Parameters</text>
<text text-anchor="middle" x="525" y="-200" font-family="Helvetica,sans-Serif" font-size="10.00" fill="#000000">_input</text>
</a>
</g>
</g>
<!-- Node19&#45;&gt;Node18 -->
<g id="edge23" class="edge">
<title>Node19&#45;&gt;Node18</title>
<path fill="none" stroke="#9a32cd" stroke-dasharray="5,2" d="M583.4871,-198.8351C621.4131,-192.199 671.6507,-182.0999 715,-169 732.9887,-163.5639 752.4355,-155.868 768.3255,-149.0764"/>
<polygon fill="#9a32cd" stroke="#9a32cd" points="582.8903,-195.3862 573.6284,-200.5308 584.077,-202.2849 582.8903,-195.3862"/>
<text text-anchor="middle" x="663.5" y="-196" font-family="Helvetica,sans-Serif" font-size="10.00" fill="#000000"> parameters_input_</text>
</g>
<!-- Node20 -->
<g id="node20" class="node">
<title>Node20</title>
<g id="a_node20"><a xlink:href="structsirius_1_1_control__input.html" target="_top" xlink:title="Parse control input section. ">
<polygon fill="#ffffff" stroke="#000000" points="472.5,-154.5 472.5,-173.5 577.5,-173.5 577.5,-154.5 472.5,-154.5"/>
<text text-anchor="middle" x="525" y="-161.5" font-family="Helvetica,sans-Serif" font-size="10.00" fill="#000000">sirius::Control_input</text>
</a>
</g>
</g>
<!-- Node20&#45;&gt;Node18 -->
<g id="edge24" class="edge">
<title>Node20&#45;&gt;Node18</title>
<path fill="none" stroke="#9a32cd" stroke-dasharray="5,2" d="M587.9054,-157.1748C638.9125,-151.6406 709.6204,-143.9689 755.4633,-138.9949"/>
<polygon fill="#9a32cd" stroke="#9a32cd" points="587.2225,-153.7283 577.6584,-158.2866 587.9776,-160.6874 587.2225,-153.7283"/>
<text text-anchor="middle" x="663.5" y="-157" font-family="Helvetica,sans-Serif" font-size="10.00" fill="#000000"> control_input_</text>
</g>
<!-- Node21 -->
<g id="node21" class="node">
<title>Node21</title>
<g id="a_node21"><a xlink:href="structsirius_1_1_unit__cell__input.html" target="_top" xlink:title="Parse unit cell input section. ">
<polygon fill="#ffffff" stroke="#000000" points="469.5,-28.5 469.5,-47.5 580.5,-47.5 580.5,-28.5 469.5,-28.5"/>
<text text-anchor="middle" x="525" y="-35.5" font-family="Helvetica,sans-Serif" font-size="10.00" fill="#000000">sirius::Unit_cell_input</text>
</a>
</g>
</g>
<!-- Node21&#45;&gt;Node18 -->
<g id="edge25" class="edge">
<title>Node21&#45;&gt;Node18</title>
<path fill="none" stroke="#9a32cd" stroke-dasharray="5,2" d="M591.1545,-43.117C628.6274,-47.7326 675.7185,-56.4758 715,-73 741.7625,-84.2579 768.4397,-104.8555 784.9424,-118.9757"/>
<polygon fill="#9a32cd" stroke="#9a32cd" points="591.1916,-39.5979 580.8547,-41.9216 590.3845,-46.5512 591.1916,-39.5979"/>
<text text-anchor="middle" x="663.5" y="-76" font-family="Helvetica,sans-Serif" font-size="10.00" fill="#000000"> unit_cell_input_</text>
</g>
<!-- Node22 -->
<g id="node22" class="node">
<title>Node22</title>
<g id="a_node22"><a xlink:href="classgeometry3d_1_1vector3d.html" target="_top" xlink:title="geometry3d::vector3d\l\&lt; double \&gt;">
<polygon fill="#ffffff" stroke="#000000" points="156.5,-3 156.5,-33 269.5,-33 269.5,-3 156.5,-3"/>
<text text-anchor="start" x="164.5" y="-21" font-family="Helvetica,sans-Serif" font-size="10.00" fill="#000000">geometry3d::vector3d</text>
<text text-anchor="middle" x="213" y="-10" font-family="Helvetica,sans-Serif" font-size="10.00" fill="#000000">&lt; double &gt;</text>
</a>
</g>
</g>
<!-- Node22&#45;&gt;Node2 -->
<g id="edge43" class="edge">
<title>Node22&#45;&gt;Node2</title>
<path fill="none" stroke="#9a32cd" stroke-dasharray="5,2" d="M279.8083,-11.9122C342.9398,-6.6894 440.3258,0 525,0 525,0 525,0 1310,0 1460.1841,0 1513.1478,-601.9642 1519.7704,-685.4397"/>
<polygon fill="#9a32cd" stroke="#9a32cd" points="279.2637,-8.4456 269.5913,-12.7695 279.849,-15.421 279.2637,-8.4456"/>
<text text-anchor="middle" x="949.5" y="-14" font-family="Helvetica,sans-Serif" font-size="10.00" fill="#000000"> vector_field_</text>
<text text-anchor="middle" x="949.5" y="-3" font-family="Helvetica,sans-Serif" font-size="10.00" fill="#000000">position_</text>
</g>
<!-- Node22&#45;&gt;Node21 -->
<g id="edge26" class="edge">
<title>Node22&#45;&gt;Node21</title>
<path fill="none" stroke="#9a32cd" stroke-dasharray="5,2" d="M279.7693,-22.2801C336.2933,-25.9034 416.3647,-31.0362 469.444,-34.4387"/>
<polygon fill="#9a32cd" stroke="#9a32cd" points="279.7043,-18.7688 269.5008,-21.6218 279.2564,-25.7545 279.7043,-18.7688"/>
<text text-anchor="middle" x="369" y="-58" font-family="Helvetica,sans-Serif" font-size="10.00" fill="#000000"> a2_</text>
<text text-anchor="middle" x="369" y="-47" font-family="Helvetica,sans-Serif" font-size="10.00" fill="#000000">a1_</text>
<text text-anchor="middle" x="369" y="-36" font-family="Helvetica,sans-Serif" font-size="10.00" fill="#000000">a0_</text>
</g>
<!-- Node23 -->
<g id="node23" class="node">
<title>Node23</title>
<polygon fill="#ffffff" stroke="#bfbfbf" points="5,-3 5,-33 102,-33 102,-3 5,-3"/>
<text text-anchor="start" x="13" y="-21" font-family="Helvetica,sans-Serif" font-size="10.00" fill="#000000">std::array&lt; double</text>
<text text-anchor="middle" x="53.5" y="-10" font-family="Helvetica,sans-Serif" font-size="10.00" fill="#000000"> , 3 &gt;</text>
</g>
<!-- Node23&#45;&gt;Node22 -->
<g id="edge27" class="edge">
<title>Node23&#45;&gt;Node22</title>
<path fill="none" stroke="#191970" d="M112.4897,-18C126.8658,-18 142.2094,-18 156.4681,-18"/>
<polygon fill="#191970" stroke="#191970" points="112.222,-14.5001 102.2219,-18 112.2219,-21.5001 112.222,-14.5001"/>
</g>
<!-- Node24 -->
<g id="node24" class="node">
<title>Node24</title>
<g id="a_node24"><a xlink:href="structsirius_1_1_iterative__solver__input.html" target="_top" xlink:title="sirius::Iterative_solver\l_input">
<polygon fill="#ffffff" stroke="#000000" points="468.5,-105 468.5,-135 581.5,-135 581.5,-105 468.5,-105"/>
<text text-anchor="start" x="476.5" y="-123" font-family="Helvetica,sans-Serif" font-size="10.00" fill="#000000">sirius::Iterative_solver</text>
<text text-anchor="middle" x="525" y="-112" font-family="Helvetica,sans-Serif" font-size="10.00" fill="#000000">_input</text>
</a>
</g>
</g>
<!-- Node24&#45;&gt;Node18 -->
<g id="edge28" class="edge">
<title>Node24&#45;&gt;Node18</title>
<path fill="none" stroke="#9a32cd" stroke-dasharray="5,2" d="M591.5738,-122.3601C628.0382,-123.7643 674.0214,-125.7165 715,-128 728.0762,-128.7287 742.2549,-129.655 755.2765,-130.5606"/>
<polygon fill="#9a32cd" stroke="#9a32cd" points="591.6794,-118.8617 581.5535,-121.9787 591.4131,-125.8566 591.6794,-118.8617"/>
<text text-anchor="middle" x="663.5" y="-131" font-family="Helvetica,sans-Serif" font-size="10.00" fill="#000000"> iterative_solver_input_</text>
</g>
<!-- Node25 -->
<g id="node25" class="node">
<title>Node25</title>
<g id="a_node25"><a xlink:href="structsirius_1_1_mixer__input.html" target="_top" xlink:title="sirius::Mixer_input">
<polygon fill="#ffffff" stroke="#000000" points="476.5,-66.5 476.5,-85.5 573.5,-85.5 573.5,-66.5 476.5,-66.5"/>
<text text-anchor="middle" x="525" y="-73.5" font-family="Helvetica,sans-Serif" font-size="10.00" fill="#000000">sirius::Mixer_input</text>
</a>
</g>
</g>
<!-- Node25&#45;&gt;Node18 -->
<g id="edge29" class="edge">
<title>Node25&#45;&gt;Node18</title>
<path fill="none" stroke="#9a32cd" stroke-dasharray="5,2" d="M584.0481,-83.9991C621.7472,-89.5844 671.5287,-97.848 715,-108 728.1324,-111.0668 742.2033,-115.0074 755.1002,-118.8884"/>
<polygon fill="#9a32cd" stroke="#9a32cd" points="584.1516,-80.4772 573.7507,-82.4955 583.1401,-87.4037 584.1516,-80.4772"/>
<text text-anchor="middle" x="663.5" y="-111" font-family="Helvetica,sans-Serif" font-size="10.00" fill="#000000"> mixer_input_</text>
</g>
<!-- Node26&#45;&gt;Node5 -->
<g id="edge32" class="edge">
<title>Node26&#45;&gt;Node5</title>
<path fill="none" stroke="#9a32cd" stroke-dasharray="5,2" d="M868.6549,-375.5025C910.1428,-379.303 964.2111,-386.1041 1011,-398 1026.0147,-401.8174 1042.2754,-408.1356 1054.7137,-413.465"/>
<polygon fill="#9a32cd" stroke="#9a32cd" points="868.9288,-372.0132 858.6603,-374.6224 868.3147,-378.9862 868.9288,-372.0132"/>
<text text-anchor="middle" x="949.5" y="-401" font-family="Helvetica,sans-Serif" font-size="10.00" fill="#000000"> indexb_</text>
</g>
<!-- Node27&#45;&gt;Node2 -->
<g id="edge35" class="edge">
<title>Node27&#45;&gt;Node2</title>
<path fill="none" stroke="#9a32cd" stroke-dasharray="5,2" d="M1379.5416,-695C1415.1493,-695 1456.943,-695 1485.7264,-695"/>
<polygon fill="#9a32cd" stroke="#9a32cd" points="1379.1962,-691.5001 1369.1962,-695 1379.1961,-698.5001 1379.1962,-691.5001"/>
<text text-anchor="middle" x="1427.5" y="-698" font-family="Helvetica,sans-Serif" font-size="10.00" fill="#000000"> symmetry_class_</text>
</g>
<!-- Node28&#45;&gt;Node2 -->
<g id="edge41" class="edge">
<title>Node28&#45;&gt;Node2</title>
<path fill="none" stroke="#9a32cd" stroke-dasharray="5,2" d="M448.0645,-926.8517C619.792,-941.3264 1038.0435,-962.5552 1369,-866 1417.5284,-851.842 1433.834,-847.2577 1468,-810 1497.5186,-777.8102 1512.8688,-726.1752 1518.2411,-704.7773"/>
<polygon fill="#9a32cd" stroke="#9a32cd" points="448.3608,-923.3644 438.098,-925.9957 447.7618,-930.3387 448.3608,-923.3644"/>
<text text-anchor="middle" x="949.5" y="-939" font-family="Helvetica,sans-Serif" font-size="10.00" fill="#000000"> b_radial_integrals_</text>
</g>
</g>
</svg>
