<?xml version="1.0" encoding="UTF-8" standalone="no"?>
<!DOCTYPE svg PUBLIC "-//W3C//DTD SVG 1.1//EN"
 "http://www.w3.org/Graphics/SVG/1.1/DTD/svg11.dtd">
<!-- Generated by graphviz version 2.40.1 (20161225.0304)
 -->
<!-- Title: atom_symmetry_class.h Pages: 1 -->
<svg width="1198pt" height="1047pt"
 viewBox="0.00 0.00 1198.00 1047.00" xmlns="http://www.w3.org/2000/svg" xmlns:xlink="http://www.w3.org/1999/xlink">
<g id="graph0" class="graph" transform="scale(1 1) rotate(0) translate(4 1043)">
<title>atom_symmetry_class.h</title>
<polygon fill="#ffffff" stroke="transparent" points="-4,4 -4,-1043 1194,-1043 1194,4 -4,4"/>
<!-- Node109 -->
<g id="node1" class="node">
<title>Node109</title>
<polygon fill="#bfbfbf" stroke="#000000" points="907.5,-1019.5 907.5,-1038.5 1004.5,-1038.5 1004.5,-1019.5 907.5,-1019.5"/>
<text text-anchor="middle" x="956" y="-1026.5" font-family="Helvetica,sans-Serif" font-size="10.00" fill="#000000">atom_symmetry_class.h</text>
</g>
<!-- Node110 -->
<g id="node2" class="node">
<title>Node110</title>
<g id="a_node2"><a xlink:href="../../d0/d51/unit__cell_8h.html" target="_top" xlink:title="Contains definition and partial implementation of sirius::Unit_cell class. ">
<polygon fill="#ffffff" stroke="#000000" points="321,-907.5 321,-926.5 371,-926.5 371,-907.5 321,-907.5"/>
<text text-anchor="middle" x="346" y="-914.5" font-family="Helvetica,sans-Serif" font-size="10.00" fill="#000000">unit_cell.h</text>
</a>
</g>
</g>
<!-- Node109&#45;&gt;Node110 -->
<g id="edge1" class="edge">
<title>Node109&#45;&gt;Node110</title>
<path fill="none" stroke="#191970" d="M897.23,-1018.2095C767.5597,-994.4011 461.3151,-938.1726 371.3004,-921.6453"/>
<polygon fill="#191970" stroke="#191970" points="896.901,-1021.7075 907.3687,-1020.071 898.1651,-1014.8226 896.901,-1021.7075"/>
</g>
<!-- Node119 -->
<g id="node11" class="node">
<title>Node119</title>
<g id="a_node11"><a xlink:href="../../dd/dc2/sirius_8h.html" target="_top" xlink:title="&quot;All&#45;in&#45;one&quot; include file. ">
<polygon fill="#ffffff" stroke="#000000" points="923,-56.5 923,-75.5 963,-75.5 963,-56.5 923,-56.5"/>
<text text-anchor="middle" x="943" y="-63.5" font-family="Helvetica,sans-Serif" font-size="10.00" fill="#000000">sirius.h</text>
</a>
</g>
</g>
<!-- Node109&#45;&gt;Node119 -->
<g id="edge76" class="edge">
<title>Node109&#45;&gt;Node119</title>
<path fill="none" stroke="#191970" d="M1002.7647,-1016.775C1071.0476,-997.5291 1190,-958.103 1190,-917 1190,-917 1190,-917 1190,-178 1190,-140.9295 1170.1753,-132.0579 1139,-112 1109.6794,-93.1354 1007.0262,-75.7371 963.1426,-68.9763"/>
<polygon fill="#191970" stroke="#191970" points="1001.7763,-1013.417 993.078,-1019.4659 1003.65,-1020.1616 1001.7763,-1013.417"/>
</g>
<!-- Node138 -->
<g id="node30" class="node">
<title>Node138</title>
<g id="a_node30"><a xlink:href="../../d9/d49/atom_8h.html" target="_top" xlink:title="Contains declaration and partial implementation of sirius::Atom class. ">
<polygon fill="#ffffff" stroke="#000000" points="936.5,-963.5 936.5,-982.5 975.5,-982.5 975.5,-963.5 936.5,-963.5"/>
<text text-anchor="middle" x="956" y="-970.5" font-family="Helvetica,sans-Serif" font-size="10.00" fill="#000000">atom.h</text>
</a>
</g>
</g>
<!-- Node109&#45;&gt;Node138 -->
<g id="edge73" class="edge">
<title>Node109&#45;&gt;Node138</title>
<path fill="none" stroke="#191970" d="M956,-1009.1575C956,-1000.155 956,-989.9199 956,-982.6427"/>
<polygon fill="#191970" stroke="#191970" points="952.5001,-1009.2455 956,-1019.2455 959.5001,-1009.2456 952.5001,-1009.2455"/>
</g>
<!-- Node111 -->
<g id="node3" class="node">
<title>Node111</title>
<g id="a_node3"><a xlink:href="../../de/d58/radial__integrals_8h.html" target="_top" xlink:title="Representation of various radial integrals. ">
<polygon fill="#ffffff" stroke="#000000" points="225,-795.5 225,-814.5 299,-814.5 299,-795.5 225,-795.5"/>
<text text-anchor="middle" x="262" y="-802.5" font-family="Helvetica,sans-Serif" font-size="10.00" fill="#000000">radial_integrals.h</text>
</a>
</g>
</g>
<!-- Node110&#45;&gt;Node111 -->
<g id="edge2" class="edge">
<title>Node110&#45;&gt;Node111</title>
<path fill="none" stroke="#191970" d="M311.3759,-907.6997C292.9617,-900.797 271.9209,-889.3276 261,-871 250.5585,-853.4769 255.1207,-828.4135 258.8701,-814.7673"/>
<polygon fill="#191970" stroke="#191970" points="310.3811,-911.0586 320.9757,-910.9922 312.6521,-904.4372 310.3811,-911.0586"/>
</g>
<!-- Node110&#45;&gt;Node119 -->
<g id="edge72" class="edge">
<title>Node110&#45;&gt;Node119</title>
<path fill="none" stroke="#191970" d="M310.7916,-913.2028C222.7402,-902.7339 0,-869.843 0,-805 0,-805 0,-805 0,-178 0,-81.6565 786.2036,-67.8755 922.8678,-66.2077"/>
<polygon fill="#191970" stroke="#191970" points="310.5009,-916.6925 320.8378,-914.369 311.3081,-909.7392 310.5009,-916.6925"/>
</g>
<!-- Node130 -->
<g id="node22" class="node">
<title>Node130</title>
<g id="a_node22"><a xlink:href="../../d2/d5f/beta__projectors_8h.html" target="_top" xlink:title="Contains declaration and implementation of sirius::Beta_projectors class. ">
<polygon fill="#ffffff" stroke="#000000" points="312,-560.5 312,-579.5 386,-579.5 386,-560.5 312,-560.5"/>
<text text-anchor="middle" x="349" y="-567.5" font-family="Helvetica,sans-Serif" font-size="10.00" fill="#000000">beta_projectors.h</text>
</a>
</g>
</g>
<!-- Node110&#45;&gt;Node130 -->
<g id="edge69" class="edge">
<title>Node110&#45;&gt;Node130</title>
<path fill="none" stroke="#191970" d="M346,-897.1952C346,-874.8128 346,-837.2884 346,-805 346,-805 346,-805 346,-682 346,-644.0697 347.7406,-598.9397 348.5702,-579.5861"/>
<polygon fill="#191970" stroke="#191970" points="342.5001,-897.4116 346,-907.4116 349.5001,-897.4117 342.5001,-897.4116"/>
</g>
<!-- Node135 -->
<g id="node27" class="node">
<title>Node135</title>
<g id="a_node27"><a xlink:href="../../d0/d05/sbessel_8h.html" target="_top" xlink:title="Contains implementation of sirius::Spherical_Bessel_functions and sirius::sbessel_approx classes...">
<polygon fill="#ffffff" stroke="#000000" points="270,-851.5 270,-870.5 318,-870.5 318,-851.5 270,-851.5"/>
<text text-anchor="middle" x="294" y="-858.5" font-family="Helvetica,sans-Serif" font-size="10.00" fill="#000000">sbessel.h</text>
</a>
</g>
</g>
<!-- Node110&#45;&gt;Node135 -->
<g id="edge67" class="edge">
<title>Node110&#45;&gt;Node135</title>
<path fill="none" stroke="#191970" d="M330.0178,-899.7884C321.1222,-890.2085 310.3796,-878.6396 302.9539,-870.6427"/>
<polygon fill="#191970" stroke="#191970" points="327.573,-902.2992 336.9423,-907.2455 332.7025,-897.536 327.573,-902.2992"/>
</g>
<!-- Node136 -->
<g id="node28" class="node">
<title>Node136</title>
<g id="a_node28"><a xlink:href="../../d7/db5/real__space__prj_8h_source.html" target="_top" xlink:title="real_space_prj.h">
<polygon fill="#ffffff" stroke="#000000" points="376,-851.5 376,-870.5 448,-870.5 448,-851.5 376,-851.5"/>
<text text-anchor="middle" x="412" y="-858.5" font-family="Helvetica,sans-Serif" font-size="10.00" fill="#000000">real_space_prj.h</text>
</a>
</g>
</g>
<!-- Node110&#45;&gt;Node136 -->
<g id="edge70" class="edge">
<title>Node110&#45;&gt;Node136</title>
<path fill="none" stroke="#191970" d="M365.2755,-900.645C376.7538,-890.9058 390.9277,-878.8795 400.6354,-870.6427"/>
<polygon fill="#191970" stroke="#191970" points="362.857,-898.1069 357.4963,-907.2455 367.3859,-903.4445 362.857,-898.1069"/>
</g>
<!-- Node112 -->
<g id="node4" class="node">
<title>Node112</title>
<g id="a_node4"><a xlink:href="../../da/d12/augmentation__operator_8h.html" target="_top" xlink:title="Contains implementation of sirius::Augmentation_operator class. ">
<polygon fill="#ffffff" stroke="#000000" points="122,-672.5 122,-691.5 222,-691.5 222,-672.5 122,-672.5"/>
<text text-anchor="middle" x="172" y="-679.5" font-family="Helvetica,sans-Serif" font-size="10.00" fill="#000000">augmentation_operator.h</text>
</a>
</g>
</g>
<!-- Node111&#45;&gt;Node112 -->
<g id="edge3" class="edge">
<title>Node111&#45;&gt;Node112</title>
<path fill="none" stroke="#191970" d="M248.8245,-786.9934C229.4761,-760.5507 194.0494,-712.1342 179.0293,-691.6068"/>
<polygon fill="#191970" stroke="#191970" points="246.2081,-789.3449 254.9379,-795.3484 251.8573,-785.2113 246.2081,-789.3449"/>
</g>
<!-- Node133 -->
<g id="node25" class="node">
<title>Node133</title>
<g id="a_node25"><a xlink:href="../../de/df0/simulation__context__base_8h.html" target="_top" xlink:title="Contains definition and implementation of Simulation_context_base class. ">
<polygon fill="#ffffff" stroke="#000000" points="375.5,-728.5 375.5,-758.5 454.5,-758.5 454.5,-728.5 375.5,-728.5"/>
<text text-anchor="start" x="383.5" y="-746.5" font-family="Helvetica,sans-Serif" font-size="10.00" fill="#000000">simulation_context</text>
<text text-anchor="middle" x="415" y="-735.5" font-family="Helvetica,sans-Serif" font-size="10.00" fill="#000000">_base.h</text>
</a>
</g>
</g>
<!-- Node111&#45;&gt;Node133 -->
<g id="edge62" class="edge">
<title>Node111&#45;&gt;Node133</title>
<path fill="none" stroke="#191970" d="M295.3948,-791.5766C319.6349,-781.833 352.4467,-768.644 377.572,-758.5446"/>
<polygon fill="#191970" stroke="#191970" points="293.8794,-788.4135 285.9063,-795.3906 296.4901,-794.9084 293.8794,-788.4135"/>
</g>
<!-- Node113 -->
<g id="node5" class="node">
<title>Node113</title>
<g id="a_node5"><a xlink:href="../../d5/d5b/simulation__context_8h.html" target="_top" xlink:title="Contains definition and implementation of Simulation_parameters and Simulation_context classes...">
<polygon fill="#ffffff" stroke="#000000" points="374.5,-616.5 374.5,-635.5 459.5,-635.5 459.5,-616.5 374.5,-616.5"/>
<text text-anchor="middle" x="417" y="-623.5" font-family="Helvetica,sans-Serif" font-size="10.00" fill="#000000">simulation_context.h</text>
</a>
</g>
</g>
<!-- Node112&#45;&gt;Node113 -->
<g id="edge4" class="edge">
<title>Node112&#45;&gt;Node113</title>
<path fill="none" stroke="#191970" d="M223.7233,-670.1775C268.8445,-659.8641 333.4665,-645.0934 375.3339,-635.5237"/>
<polygon fill="#191970" stroke="#191970" points="222.8073,-666.7966 213.8386,-672.4369 224.3671,-673.6206 222.8073,-666.7966"/>
</g>
<!-- Node127 -->
<g id="node19" class="node">
<title>Node127</title>
<g id="a_node19"><a xlink:href="../../d8/dab/forces_8h_source.html" target="_top" xlink:title="forces.h">
<polygon fill="#ffffff" stroke="#000000" points="282.5,-224.5 282.5,-243.5 325.5,-243.5 325.5,-224.5 282.5,-224.5"/>
<text text-anchor="middle" x="304" y="-231.5" font-family="Helvetica,sans-Serif" font-size="10.00" fill="#000000">forces.h</text>
</a>
</g>
</g>
<!-- Node112&#45;&gt;Node127 -->
<g id="edge60" class="edge">
<title>Node112&#45;&gt;Node127</title>
<path fill="none" stroke="#191970" d="M152.9345,-665.0836C115.9359,-630.2817 38,-546.4727 38,-458 38,-458 38,-458 38,-346 38,-297.4659 81.3033,-301.1224 125,-280 178.2986,-254.2362 247.7472,-241.7155 282.3831,-236.7313"/>
<polygon fill="#191970" stroke="#191970" points="150.8482,-667.9203 160.5752,-672.1197 155.59,-662.771 150.8482,-667.9203"/>
</g>
<!-- Node128 -->
<g id="node20" class="node">
<title>Node128</title>
<g id="a_node20"><a xlink:href="../../d6/d9f/non__local__functor_8h_source.html" target="_top" xlink:title="non_local_functor.h">
<polygon fill="#ffffff" stroke="#000000" points="149,-280.5 149,-299.5 231,-299.5 231,-280.5 149,-280.5"/>
<text text-anchor="middle" x="190" y="-287.5" font-family="Helvetica,sans-Serif" font-size="10.00" fill="#000000">non_local_functor.h</text>
</a>
</g>
</g>
<!-- Node112&#45;&gt;Node128 -->
<g id="edge61" class="edge">
<title>Node112&#45;&gt;Node128</title>
<path fill="none" stroke="#191970" d="M158.4238,-664.2056C131.9509,-627.6761 76,-540.6893 76,-458 76,-458 76,-458 76,-402 76,-351.0875 134.5729,-315.6175 167.749,-299.6105"/>
<polygon fill="#191970" stroke="#191970" points="155.7052,-666.4158 164.467,-672.3723 161.3321,-662.2519 155.7052,-666.4158"/>
</g>
<!-- Node114 -->
<g id="node6" class="node">
<title>Node114</title>
<g id="a_node6"><a xlink:href="../../d8/d65/periodic__function_8h.html" target="_top" xlink:title="Contains declaration and partial implementation of sirius::Periodic_function class. ">
<polygon fill="#ffffff" stroke="#000000" points="564.5,-560.5 564.5,-579.5 643.5,-579.5 643.5,-560.5 564.5,-560.5"/>
<text text-anchor="middle" x="604" y="-567.5" font-family="Helvetica,sans-Serif" font-size="10.00" fill="#000000">periodic_function.h</text>
</a>
</g>
</g>
<!-- Node113&#45;&gt;Node114 -->
<g id="edge5" class="edge">
<title>Node113&#45;&gt;Node114</title>
<path fill="none" stroke="#191970" d="M458.8877,-613.4561C493.2143,-603.1765 541.0565,-588.8494 572.273,-579.5011"/>
<polygon fill="#191970" stroke="#191970" points="457.722,-610.1515 449.1464,-616.3733 459.7302,-616.8573 457.722,-610.1515"/>
</g>
<!-- Node124 -->
<g id="node16" class="node">
<title>Node124</title>
<g id="a_node16"><a xlink:href="../../d2/dcb/density_8h.html" target="_top" xlink:title="Contains definition and partial implementation of sirius::Density class. ">
<polygon fill="#ffffff" stroke="#000000" points="423.5,-392.5 423.5,-411.5 470.5,-411.5 470.5,-392.5 423.5,-392.5"/>
<text text-anchor="middle" x="447" y="-399.5" font-family="Helvetica,sans-Serif" font-size="10.00" fill="#000000">density.h</text>
</a>
</g>
</g>
<!-- Node113&#45;&gt;Node124 -->
<g id="edge56" class="edge">
<title>Node113&#45;&gt;Node124</title>
<path fill="none" stroke="#191970" d="M419.6234,-606.4119C425.8184,-560.1557 441.1749,-445.494 445.7157,-411.5891"/>
<polygon fill="#191970" stroke="#191970" points="416.1476,-605.9989 418.2891,-616.375 423.0856,-606.9281 416.1476,-605.9989"/>
</g>
<!-- Node125 -->
<g id="node17" class="node">
<title>Node125</title>
<g id="a_node17"><a xlink:href="../../df/d86/potential_8h.html" target="_top" xlink:title="Contains declaration and partial implementation of sirius::Potential class. ">
<polygon fill="#ffffff" stroke="#000000" points="572.5,-336.5 572.5,-355.5 623.5,-355.5 623.5,-336.5 572.5,-336.5"/>
<text text-anchor="middle" x="598" y="-343.5" font-family="Helvetica,sans-Serif" font-size="10.00" fill="#000000">potential.h</text>
</a>
</g>
</g>
<!-- Node113&#45;&gt;Node125 -->
<g id="edge55" class="edge">
<title>Node113&#45;&gt;Node125</title>
<path fill="none" stroke="#191970" d="M428.7504,-607.8226C463.5979,-553.9149 565.5749,-396.1604 591.7958,-355.5977"/>
<polygon fill="#191970" stroke="#191970" points="425.7199,-606.0635 423.2304,-616.3618 431.5986,-609.8637 425.7199,-606.0635"/>
</g>
<!-- Node113&#45;&gt;Node127 -->
<g id="edge58" class="edge">
<title>Node113&#45;&gt;Node127</title>
<path fill="none" stroke="#191970" d="M364.3822,-614.9608C287.1092,-597.2114 152,-559.65 152,-514 152,-514 152,-514 152,-458 152,-378.7093 92.0985,-343.1859 140,-280 157.2393,-257.2599 241.6984,-242.6624 282.2241,-236.8548"/>
<polygon fill="#191970" stroke="#191970" points="363.8975,-618.4394 374.4232,-617.2306 365.441,-611.6117 363.8975,-618.4394"/>
</g>
<!-- Node113&#45;&gt;Node128 -->
<g id="edge59" class="edge">
<title>Node113&#45;&gt;Node128</title>
<path fill="none" stroke="#191970" d="M364.1541,-623.5444C293.0419,-619.2114 171.5754,-607.8646 138,-580 113.9815,-560.0668 114,-545.2125 114,-514 114,-514 114,-514 114,-458 114,-392.3748 162.735,-324.1223 182.1529,-299.5326"/>
<polygon fill="#191970" stroke="#191970" points="364.0774,-627.0458 374.2642,-624.1339 364.485,-620.0577 364.0774,-627.0458"/>
</g>
<!-- Node113&#45;&gt;Node130 -->
<g id="edge47" class="edge">
<title>Node113&#45;&gt;Node130</title>
<path fill="none" stroke="#191970" d="M397.1404,-609.645C385.3142,-599.9058 370.7108,-587.8795 360.709,-579.6427"/>
<polygon fill="#191970" stroke="#191970" points="395.211,-612.5902 405.1553,-616.2455 399.661,-607.1867 395.211,-612.5902"/>
</g>
<!-- Node131 -->
<g id="node23" class="node">
<title>Node131</title>
<g id="a_node23"><a xlink:href="../../df/dae/non__local__operator_8h.html" target="_top" xlink:title="Contains declaration and implementation of sirius::Non_local_operator class. ">
<polygon fill="#ffffff" stroke="#000000" points="960.5,-504.5 960.5,-523.5 1047.5,-523.5 1047.5,-504.5 960.5,-504.5"/>
<text text-anchor="middle" x="1004" y="-511.5" font-family="Helvetica,sans-Serif" font-size="10.00" fill="#000000">non_local_operator.h</text>
</a>
</g>
</g>
<!-- Node113&#45;&gt;Node131 -->
<g id="edge57" class="edge">
<title>Node113&#45;&gt;Node131</title>
<path fill="none" stroke="#191970" d="M469.6266,-615.9588C584.1815,-594.1016 854.3322,-542.5567 960.2792,-522.342"/>
<polygon fill="#191970" stroke="#191970" points="468.8552,-612.5428 459.6884,-617.855 470.1672,-619.4187 468.8552,-612.5428"/>
</g>
<!-- Node115 -->
<g id="node7" class="node">
<title>Node115</title>
<g id="a_node7"><a xlink:href="../../d9/dc2/band_8h.html" target="_top" xlink:title="Contains declaration and partial implementation of sirius::Band class. ">
<polygon fill="#ffffff" stroke="#000000" points="851.5,-224.5 851.5,-243.5 890.5,-243.5 890.5,-224.5 851.5,-224.5"/>
<text text-anchor="middle" x="871" y="-231.5" font-family="Helvetica,sans-Serif" font-size="10.00" fill="#000000">band.h</text>
</a>
</g>
</g>
<!-- Node114&#45;&gt;Node115 -->
<g id="edge6" class="edge">
<title>Node114&#45;&gt;Node115</title>
<path fill="none" stroke="#191970" d="M653.418,-558.946C744.9055,-537.9897 933.0372,-492.4005 951,-468 1005.9785,-393.3178 911.2277,-278.0739 880.2758,-243.8835"/>
<polygon fill="#191970" stroke="#191970" points="652.5219,-555.5604 643.5506,-561.1965 654.0786,-562.3851 652.5219,-555.5604"/>
</g>
<!-- Node114&#45;&gt;Node119 -->
<g id="edge46" class="edge">
<title>Node114&#45;&gt;Node119</title>
<path fill="none" stroke="#191970" d="M653.8985,-568.0524C765.2288,-563.2679 1026.5467,-549.435 1057,-524 1080.428,-504.4326 1076,-488.5246 1076,-458 1076,-458 1076,-458 1076,-178 1076,-119.7393 1000.4062,-85.6669 963.1998,-72.4252"/>
<polygon fill="#191970" stroke="#191970" points="653.449,-564.5682 643.6056,-568.4873 653.7445,-571.562 653.449,-564.5682"/>
</g>
<!-- Node122 -->
<g id="node14" class="node">
<title>Node122</title>
<g id="a_node14"><a xlink:href="../../d9/d02/k__point_8h.html" target="_top" xlink:title="Contains definition and partial implementation of sirius::K_point class. ">
<polygon fill="#ffffff" stroke="#000000" points="639.5,-504.5 639.5,-523.5 686.5,-523.5 686.5,-504.5 639.5,-504.5"/>
<text text-anchor="middle" x="663" y="-511.5" font-family="Helvetica,sans-Serif" font-size="10.00" fill="#000000">k_point.h</text>
</a>
</g>
</g>
<!-- Node114&#45;&gt;Node122 -->
<g id="edge15" class="edge">
<title>Node114&#45;&gt;Node122</title>
<path fill="none" stroke="#191970" d="M621.5307,-553.3607C631.7377,-543.6727 644.2469,-531.7995 652.8408,-523.6427"/>
<polygon fill="#191970" stroke="#191970" points="619.1206,-550.8227 614.277,-560.2455 623.9396,-555.8998 619.1206,-550.8227"/>
</g>
<!-- Node114&#45;&gt;Node124 -->
<g id="edge42" class="edge">
<title>Node114&#45;&gt;Node124</title>
<path fill="none" stroke="#191970" d="M598.4725,-550.6181C590.1158,-524.3635 571.9783,-477.4068 542,-448 521.8542,-428.2382 491.5679,-415.606 470.6318,-408.6769"/>
<polygon fill="#191970" stroke="#191970" points="595.2139,-551.9341 601.4611,-560.4911 601.9137,-549.906 595.2139,-551.9341"/>
</g>
<!-- Node114&#45;&gt;Node125 -->
<g id="edge41" class="edge">
<title>Node114&#45;&gt;Node125</title>
<path fill="none" stroke="#191970" d="M603.4674,-550.1177C602.2233,-503.6713 599.1631,-389.4223 598.2569,-355.5891"/>
<polygon fill="#191970" stroke="#191970" points="599.9756,-550.4723 603.7422,-560.375 606.9731,-550.2848 599.9756,-550.4723"/>
</g>
<!-- Node126 -->
<g id="node18" class="node">
<title>Node126</title>
<g id="a_node18"><a xlink:href="../../dd/d3f/local__operator_8h.html" target="_top" xlink:title="Contains declaration and implementation of sirius::Local_operator class. ">
<polygon fill="#ffffff" stroke="#000000" points="788,-280.5 788,-299.5 858,-299.5 858,-280.5 788,-280.5"/>
<text text-anchor="middle" x="823" y="-287.5" font-family="Helvetica,sans-Serif" font-size="10.00" fill="#000000">local_operator.h</text>
</a>
</g>
</g>
<!-- Node114&#45;&gt;Node126 -->
<g id="edge43" class="edge">
<title>Node114&#45;&gt;Node126</title>
<path fill="none" stroke="#191970" d="M647.0591,-557.4692C710.8469,-537.605 823,-497.1171 823,-458 823,-458 823,-458 823,-402 823,-364.0833 823,-318.9462 823,-299.5884"/>
<polygon fill="#191970" stroke="#191970" points="645.794,-554.1963 637.2614,-560.4769 647.8482,-560.8881 645.794,-554.1963"/>
</g>
<!-- Node114&#45;&gt;Node127 -->
<g id="edge44" class="edge">
<title>Node114&#45;&gt;Node127</title>
<path fill="none" stroke="#191970" d="M581.0966,-554.516C543.3945,-528.2757 467.239,-472.0384 415,-412 364.7981,-354.3028 322.2654,-271.4866 308.6011,-243.5875"/>
<polygon fill="#191970" stroke="#191970" points="579.1712,-557.4398 589.3907,-560.2351 583.1449,-551.677 579.1712,-557.4398"/>
</g>
<!-- Node114&#45;&gt;Node128 -->
<g id="edge45" class="edge">
<title>Node114&#45;&gt;Node128</title>
<path fill="none" stroke="#191970" d="M573.8232,-556.0096C556.0451,-547.4172 533.3241,-535.8209 514,-524 386.1495,-445.7916 243.3866,-332.972 201.8945,-299.6252"/>
<polygon fill="#191970" stroke="#191970" points="572.6061,-559.3069 583.1384,-560.4564 575.6218,-552.9898 572.6061,-559.3069"/>
</g>
<!-- Node116 -->
<g id="node8" class="node">
<title>Node116</title>
<g id="a_node8"><a xlink:href="../../d2/d15/add__nl__h__o__rs_8cpp_source.html" target="_top" xlink:title="add_nl_h_o_rs.cpp">
<polygon fill="#ffffff" stroke="#000000" points="816,-168.5 816,-187.5 896,-187.5 896,-168.5 816,-168.5"/>
<text text-anchor="middle" x="856" y="-175.5" font-family="Helvetica,sans-Serif" font-size="10.00" fill="#000000">add_nl_h_o_rs.cpp</text>
</a>
</g>
</g>
<!-- Node115&#45;&gt;Node116 -->
<g id="edge7" class="edge">
<title>Node115&#45;&gt;Node116</title>
<path fill="none" stroke="#191970" d="M865.7644,-214.4538C863.334,-205.3803 860.5535,-194.9998 858.5829,-187.6427"/>
<polygon fill="#191970" stroke="#191970" points="862.4189,-215.4917 868.3872,-224.2455 869.1806,-213.6805 862.4189,-215.4917"/>
</g>
<!-- Node117 -->
<g id="node9" class="node">
<title>Node117</title>
<g id="a_node9"><a xlink:href="../../dd/d0d/force_8h.html" target="_top" xlink:title="Contains definition of sirius::Force class. ">
<polygon fill="#ffffff" stroke="#000000" points="686.5,-168.5 686.5,-187.5 725.5,-187.5 725.5,-168.5 686.5,-168.5"/>
<text text-anchor="middle" x="706" y="-175.5" font-family="Helvetica,sans-Serif" font-size="10.00" fill="#000000">force.h</text>
</a>
</g>
</g>
<!-- Node115&#45;&gt;Node117 -->
<g id="edge8" class="edge">
<title>Node115&#45;&gt;Node117</title>
<path fill="none" stroke="#191970" d="M841.7361,-224.068C808.2419,-212.7003 754.3139,-194.3974 725.5501,-184.6352"/>
<polygon fill="#191970" stroke="#191970" points="840.83,-227.4565 851.4244,-227.3562 843.0798,-220.8279 840.83,-227.4565"/>
</g>
<!-- Node115&#45;&gt;Node119 -->
<g id="edge14" class="edge">
<title>Node115&#45;&gt;Node119</title>
<path fill="none" stroke="#191970" d="M886.0016,-216.6263C892.5403,-208.3771 899.8673,-198.1238 905,-188 924.9631,-148.6249 936.8518,-96.7457 941.1563,-75.5952"/>
<polygon fill="#191970" stroke="#191970" points="883.2497,-214.4622 879.5979,-224.4078 888.6548,-218.9102 883.2497,-214.4622"/>
</g>
<!-- Node118 -->
<g id="node10" class="node">
<title>Node118</title>
<g id="a_node10"><a xlink:href="../../d6/df1/dft__ground__state_8h.html" target="_top" xlink:title="Contains definition and partial implementation of sirius::DFT_ground_state class. ...">
<polygon fill="#ffffff" stroke="#000000" points="492.5,-112.5 492.5,-131.5 571.5,-131.5 571.5,-112.5 492.5,-112.5"/>
<text text-anchor="middle" x="532" y="-119.5" font-family="Helvetica,sans-Serif" font-size="10.00" fill="#000000">dft_ground_state.h</text>
</a>
</g>
</g>
<!-- Node117&#45;&gt;Node118 -->
<g id="edge9" class="edge">
<title>Node117&#45;&gt;Node118</title>
<path fill="none" stroke="#191970" d="M676.712,-168.574C644.743,-158.2851 593.835,-141.9009 561.7032,-131.5596"/>
<polygon fill="#191970" stroke="#191970" points="675.7868,-171.9529 686.3782,-171.6849 677.9314,-165.2895 675.7868,-171.9529"/>
</g>
<!-- Node117&#45;&gt;Node119 -->
<g id="edge13" class="edge">
<title>Node117&#45;&gt;Node119</title>
<path fill="none" stroke="#191970" d="M706.8057,-158.1672C708.4917,-143.364 713.2089,-123.7435 726,-112 754.7936,-85.5646 874.3718,-72.1293 922.6505,-67.6993"/>
<polygon fill="#191970" stroke="#191970" points="703.3007,-158.0991 706.0236,-168.3381 710.2801,-158.6358 703.3007,-158.0991"/>
</g>
<!-- Node121 -->
<g id="node13" class="node">
<title>Node121</title>
<g id="a_node13"><a xlink:href="../../df/d4d/force_8cpp.html" target="_top" xlink:title="Contains implementation of sirius::Force class. ">
<polygon fill="#ffffff" stroke="#000000" points="734.5,-112.5 734.5,-131.5 781.5,-131.5 781.5,-112.5 734.5,-112.5"/>
<text text-anchor="middle" x="758" y="-119.5" font-family="Helvetica,sans-Serif" font-size="10.00" fill="#000000">force.cpp</text>
</a>
</g>
</g>
<!-- Node117&#45;&gt;Node121 -->
<g id="edge12" class="edge">
<title>Node117&#45;&gt;Node121</title>
<path fill="none" stroke="#191970" d="M721.9822,-160.7884C730.8778,-151.2085 741.6204,-139.6396 749.0461,-131.6427"/>
<polygon fill="#191970" stroke="#191970" points="719.2975,-158.536 715.0577,-168.2455 724.427,-163.2992 719.2975,-158.536"/>
</g>
<!-- Node118&#45;&gt;Node119 -->
<g id="edge10" class="edge">
<title>Node118&#45;&gt;Node119</title>
<path fill="none" stroke="#191970" d="M581.8195,-115.2119C672.5137,-102.8546 860.9224,-77.1833 922.816,-68.7501"/>
<polygon fill="#191970" stroke="#191970" points="581.2177,-111.7615 571.7819,-116.5796 582.1628,-118.6974 581.2177,-111.7615"/>
</g>
<!-- Node120 -->
<g id="node12" class="node">
<title>Node120</title>
<g id="a_node12"><a xlink:href="../../d4/d53/sirius__api_8cpp.html" target="_top" xlink:title="Fortran API. ">
<polygon fill="#ffffff" stroke="#000000" points="912,-.5 912,-19.5 974,-19.5 974,-.5 912,-.5"/>
<text text-anchor="middle" x="943" y="-7.5" font-family="Helvetica,sans-Serif" font-size="10.00" fill="#000000">sirius_api.cpp</text>
</a>
</g>
</g>
<!-- Node119&#45;&gt;Node120 -->
<g id="edge11" class="edge">
<title>Node119&#45;&gt;Node120</title>
<path fill="none" stroke="#191970" d="M943,-46.1575C943,-37.155 943,-26.9199 943,-19.6427"/>
<polygon fill="#191970" stroke="#191970" points="939.5001,-46.2455 943,-56.2455 946.5001,-46.2456 939.5001,-46.2455"/>
</g>
<!-- Node122&#45;&gt;Node117 -->
<g id="edge39" class="edge">
<title>Node122&#45;&gt;Node117</title>
<path fill="none" stroke="#191970" d="M680.7074,-497.2789C688.4956,-489.0947 697.1768,-478.7097 703,-468 717.5813,-441.1832 722,-432.5246 722,-402 722,-402 722,-402 722,-290 722,-251.6984 712.7166,-206.7628 708.2924,-187.5228"/>
<polygon fill="#191970" stroke="#191970" points="678.2055,-494.8312 673.6363,-504.3901 683.1692,-499.7669 678.2055,-494.8312"/>
</g>
<!-- Node122&#45;&gt;Node119 -->
<g id="edge40" class="edge">
<title>Node122&#45;&gt;Node119</title>
<path fill="none" stroke="#191970" d="M696.3947,-504.1099C781.5285,-476.6167 1000,-390.789 1000,-234 1000,-234 1000,-234 1000,-178 1000,-136.1099 967.9375,-94.055 951.9063,-75.6456"/>
<polygon fill="#191970" stroke="#191970" points="695.1778,-500.8238 686.6972,-507.1744 697.2871,-507.4985 695.1778,-500.8238"/>
</g>
<!-- Node123 -->
<g id="node15" class="node">
<title>Node123</title>
<g id="a_node15"><a xlink:href="../../d8/def/k__point__set_8h.html" target="_top" xlink:title="Contains declaration and partial implementation of sirius::K_point_set class. ">
<polygon fill="#ffffff" stroke="#000000" points="632.5,-448.5 632.5,-467.5 693.5,-467.5 693.5,-448.5 632.5,-448.5"/>
<text text-anchor="middle" x="663" y="-455.5" font-family="Helvetica,sans-Serif" font-size="10.00" fill="#000000">k_point_set.h</text>
</a>
</g>
</g>
<!-- Node122&#45;&gt;Node123 -->
<g id="edge16" class="edge">
<title>Node122&#45;&gt;Node123</title>
<path fill="none" stroke="#191970" d="M663,-494.1575C663,-485.155 663,-474.9199 663,-467.6427"/>
<polygon fill="#191970" stroke="#191970" points="659.5001,-494.2455 663,-504.2455 666.5001,-494.2456 659.5001,-494.2455"/>
</g>
<!-- Node123&#45;&gt;Node115 -->
<g id="edge17" class="edge">
<title>Node123&#45;&gt;Node115</title>
<path fill="none" stroke="#191970" d="M694.7614,-444.0823C741.9033,-421.5121 828.9135,-372.0696 867,-300 876.5472,-281.9343 874.7516,-257.0829 872.7712,-243.6162"/>
<polygon fill="#191970" stroke="#191970" points="693.1883,-440.9541 685.6148,-448.3631 696.1556,-447.2941 693.1883,-440.9541"/>
</g>
<!-- Node123&#45;&gt;Node118 -->
<g id="edge37" class="edge">
<title>Node123&#45;&gt;Node118</title>
<path fill="none" stroke="#191970" d="M659.3861,-438.1799C654.6456,-413.7466 645.445,-371.1439 633,-336 605.4578,-258.2226 589.3554,-242.5513 554,-168 548.0066,-155.3622 541.0311,-140.8019 536.5687,-131.5061"/>
<polygon fill="#191970" stroke="#191970" points="656.0056,-439.1413 661.298,-448.3196 662.8844,-437.8442 656.0056,-439.1413"/>
</g>
<!-- Node123&#45;&gt;Node119 -->
<g id="edge38" class="edge">
<title>Node123&#45;&gt;Node119</title>
<path fill="none" stroke="#191970" d="M703.2847,-448.1622C784.8812,-425.5656 962,-361.7972 962,-234 962,-234 962,-234 962,-178 962,-139.7388 951.0887,-95.1479 945.8035,-75.7934"/>
<polygon fill="#191970" stroke="#191970" points="702.3365,-444.7928 693.5931,-450.7765 704.1596,-451.5513 702.3365,-444.7928"/>
</g>
<!-- Node123&#45;&gt;Node124 -->
<g id="edge18" class="edge">
<title>Node123&#45;&gt;Node124</title>
<path fill="none" stroke="#191970" d="M622.3564,-447.4628C577.5619,-435.8494 507.0356,-417.5648 470.5753,-408.1121"/>
<polygon fill="#191970" stroke="#191970" points="621.4941,-450.8549 632.0525,-449.9766 623.2509,-444.0789 621.4941,-450.8549"/>
</g>
<!-- Node124&#45;&gt;Node117 -->
<g id="edge33" class="edge">
<title>Node124&#45;&gt;Node117</title>
<path fill="none" stroke="#191970" d="M468.7158,-386.33C480.524,-377.6344 495.2746,-366.4854 508,-356 582.558,-294.5664 667.3475,-214.8019 695.9681,-187.5841"/>
<polygon fill="#191970" stroke="#191970" points="466.3504,-383.7236 460.3417,-392.4498 470.4807,-389.3752 466.3504,-383.7236"/>
</g>
<!-- Node124&#45;&gt;Node118 -->
<g id="edge32" class="edge">
<title>Node124&#45;&gt;Node118</title>
<path fill="none" stroke="#191970" d="M457.4164,-383.3469C461.715,-375.1337 466.4993,-365.2631 470,-356 501.9428,-271.4769 523.9626,-163.8772 530.1965,-131.5797"/>
<polygon fill="#191970" stroke="#191970" points="454.2045,-381.9288 452.5327,-392.3909 460.3638,-385.2548 454.2045,-381.9288"/>
</g>
<!-- Node124&#45;&gt;Node119 -->
<g id="edge36" class="edge">
<title>Node124&#45;&gt;Node119</title>
<path fill="none" stroke="#191970" d="M441.3354,-382.2614C432.8951,-351.0595 418,-288.3031 418,-234 418,-234 418,-234 418,-178 418,-136.5164 446.5144,-129.7686 484,-112 563.5146,-74.3092 844.7319,-67.4308 922.7792,-66.2386"/>
<polygon fill="#191970" stroke="#191970" points="438.0629,-383.5577 444.1133,-392.255 444.8072,-381.6829 438.0629,-383.5577"/>
</g>
<!-- Node124&#45;&gt;Node125 -->
<g id="edge19" class="edge">
<title>Node124&#45;&gt;Node125</title>
<path fill="none" stroke="#191970" d="M480.2558,-389.6667C507.9825,-379.384 546.9179,-364.9443 572.2994,-355.5314"/>
<polygon fill="#191970" stroke="#191970" points="478.7527,-386.4912 470.5938,-393.25 481.1868,-393.0543 478.7527,-386.4912"/>
</g>
<!-- Node124&#45;&gt;Node127 -->
<g id="edge34" class="edge">
<title>Node124&#45;&gt;Node127</title>
<path fill="none" stroke="#191970" d="M435.246,-383.9232C418.8522,-359.2885 387.5672,-314.3153 356,-280 343.4332,-266.3392 327.1682,-252.4677 316.202,-243.5825"/>
<polygon fill="#191970" stroke="#191970" points="432.3441,-385.8805 440.7695,-392.3043 438.189,-382.0285 432.3441,-385.8805"/>
</g>
<!-- Node124&#45;&gt;Node128 -->
<g id="edge35" class="edge">
<title>Node124&#45;&gt;Node128</title>
<path fill="none" stroke="#191970" d="M415.8841,-388.4398C363.1519,-365.4592 257.5172,-319.4238 211.8562,-299.5249"/>
<polygon fill="#191970" stroke="#191970" points="414.5227,-391.6644 425.0883,-392.4509 417.3193,-385.2472 414.5227,-391.6644"/>
</g>
<!-- Node125&#45;&gt;Node115 -->
<g id="edge20" class="edge">
<title>Node125&#45;&gt;Node115</title>
<path fill="none" stroke="#191970" d="M630.5768,-332.6352C687.7609,-309.175 804.5462,-261.2631 851.1501,-242.1436"/>
<polygon fill="#191970" stroke="#191970" points="629.1991,-329.4172 621.2758,-336.4509 631.856,-335.8934 629.1991,-329.4172"/>
</g>
<!-- Node125&#45;&gt;Node117 -->
<g id="edge24" class="edge">
<title>Node125&#45;&gt;Node117</title>
<path fill="none" stroke="#191970" d="M609.7988,-327.6463C632.6284,-292.1336 682.1401,-215.1154 699.6821,-187.8279"/>
<polygon fill="#191970" stroke="#191970" points="606.5795,-326.1818 604.116,-336.4862 612.4677,-329.9671 606.5795,-326.1818"/>
</g>
<!-- Node125&#45;&gt;Node118 -->
<g id="edge23" class="edge">
<title>Node125&#45;&gt;Node118</title>
<path fill="none" stroke="#191970" d="M588.9005,-327.1003C579.5026,-306.9262 564.9793,-273.8262 556,-244 543.6788,-203.0732 536.06,-152.474 533.2402,-131.647"/>
<polygon fill="#191970" stroke="#191970" points="585.8524,-328.8419 593.2913,-336.386 592.1806,-325.8495 585.8524,-328.8419"/>
</g>
<!-- Node125&#45;&gt;Node119 -->
<g id="edge31" class="edge">
<title>Node125&#45;&gt;Node119</title>
<path fill="none" stroke="#191970" d="M600.9472,-326.2218C608.9487,-280.1329 635.6308,-165.4565 709,-112 743.2992,-87.0098 872.7187,-72.5454 922.9231,-67.7741"/>
<polygon fill="#191970" stroke="#191970" points="597.4454,-325.951 599.2983,-336.3826 604.355,-327.0724 597.4454,-325.951"/>
</g>
<!-- Node125&#45;&gt;Node126 -->
<g id="edge21" class="edge">
<title>Node125&#45;&gt;Node126</title>
<path fill="none" stroke="#191970" d="M633.6701,-337.1221C675.9411,-326.6013 745.9213,-309.184 787.9287,-298.7289"/>
<polygon fill="#191970" stroke="#191970" points="632.669,-333.7644 623.8104,-339.5761 634.3597,-340.5572 632.669,-333.7644"/>
</g>
<!-- Node125&#45;&gt;Node127 -->
<g id="edge25" class="edge">
<title>Node125&#45;&gt;Node127</title>
<path fill="none" stroke="#191970" d="M563.3233,-332.7898C502.0473,-309.4466 376.3271,-261.5532 325.7678,-242.2925"/>
<polygon fill="#191970" stroke="#191970" points="562.3428,-336.1616 572.9337,-336.4509 564.8348,-329.6202 562.3428,-336.1616"/>
</g>
<!-- Node125&#45;&gt;Node128 -->
<g id="edge27" class="edge">
<title>Node125&#45;&gt;Node128</title>
<path fill="none" stroke="#191970" d="M562.5314,-341.1318C487.1785,-330.7892 311.4878,-306.6748 231.269,-295.6644"/>
<polygon fill="#191970" stroke="#191970" points="562.0947,-344.6046 572.4778,-342.4969 563.0466,-337.6696 562.0947,-344.6046"/>
</g>
<!-- Node126&#45;&gt;Node115 -->
<g id="edge22" class="edge">
<title>Node126&#45;&gt;Node115</title>
<path fill="none" stroke="#191970" d="M837.9997,-272.5004C846.1622,-262.9775 855.9489,-251.5596 862.7349,-243.6427"/>
<polygon fill="#191970" stroke="#191970" points="835.2115,-270.3752 831.361,-280.2455 840.5263,-274.9307 835.2115,-270.3752"/>
</g>
<!-- Node127&#45;&gt;Node118 -->
<g id="edge26" class="edge">
<title>Node127&#45;&gt;Node118</title>
<path fill="none" stroke="#191970" d="M332.4837,-220.008C379.5511,-196.8872 472.3536,-151.3 512.6101,-131.5249"/>
<polygon fill="#191970" stroke="#191970" points="330.8715,-216.9004 323.4392,-224.4509 333.9579,-223.1833 330.8715,-216.9004"/>
</g>
<!-- Node128&#45;&gt;Node127 -->
<g id="edge28" class="edge">
<title>Node128&#45;&gt;Node127</title>
<path fill="none" stroke="#191970" d="M218.8321,-275.8368C239.4395,-265.7139 266.6082,-252.3679 284.6584,-243.5011"/>
<polygon fill="#191970" stroke="#191970" points="217.0297,-272.8227 209.5973,-280.3733 220.116,-279.1056 217.0297,-272.8227"/>
</g>
<!-- Node129 -->
<g id="node21" class="node">
<title>Node129</title>
<g id="a_node21"><a xlink:href="../../d2/d50/stress_8h.html" target="_top" xlink:title="Stress tensor calculation. ">
<polygon fill="#ffffff" stroke="#000000" points="289.5,-168.5 289.5,-187.5 332.5,-187.5 332.5,-168.5 289.5,-168.5"/>
<text text-anchor="middle" x="311" y="-175.5" font-family="Helvetica,sans-Serif" font-size="10.00" fill="#000000">stress.h</text>
</a>
</g>
</g>
<!-- Node128&#45;&gt;Node129 -->
<g id="edge29" class="edge">
<title>Node128&#45;&gt;Node129</title>
<path fill="none" stroke="#191970" d="M207.8653,-273.4635C233.5558,-249.6838 280.1038,-206.5982 300.7097,-187.5249"/>
<polygon fill="#191970" stroke="#191970" points="205.2776,-271.0895 200.3164,-280.4509 210.0327,-276.2266 205.2776,-271.0895"/>
</g>
<!-- Node129&#45;&gt;Node118 -->
<g id="edge30" class="edge">
<title>Node129&#45;&gt;Node118</title>
<path fill="none" stroke="#191970" d="M342.3285,-170.0616C382.2797,-159.9382 451.3065,-142.4472 494.155,-131.5897"/>
<polygon fill="#191970" stroke="#191970" points="341.4267,-166.6794 332.5928,-172.5285 343.1462,-173.4649 341.4267,-166.6794"/>
</g>
<!-- Node130&#45;&gt;Node122 -->
<g id="edge48" class="edge">
<title>Node130&#45;&gt;Node122</title>
<path fill="none" stroke="#191970" d="M396.2889,-561.5663C464.3937,-549.4202 587.5712,-527.4523 639.2098,-518.2428"/>
<polygon fill="#191970" stroke="#191970" points="395.4831,-558.1547 386.253,-563.3562 396.7122,-565.046 395.4831,-558.1547"/>
</g>
<!-- Node130&#45;&gt;Node127 -->
<g id="edge53" class="edge">
<title>Node130&#45;&gt;Node127</title>
<path fill="none" stroke="#191970" d="M346.4248,-550.1614C343.2846,-526.0175 337.8013,-484.0108 333,-448 322.4954,-369.2134 309.5011,-274.1578 305.3446,-243.8099"/>
<polygon fill="#191970" stroke="#191970" points="342.9689,-550.728 347.7284,-560.1935 349.9105,-549.8259 342.9689,-550.728"/>
</g>
<!-- Node130&#45;&gt;Node128 -->
<g id="edge54" class="edge">
<title>Node130&#45;&gt;Node128</title>
<path fill="none" stroke="#191970" d="M302.0223,-558.4155C255.1309,-543.7082 190,-513.3225 190,-458 190,-458 190,-458 190,-402 190,-364.0833 190,-318.9462 190,-299.5884"/>
<polygon fill="#191970" stroke="#191970" points="301.1378,-561.8042 311.7216,-561.3193 303.1455,-555.0982 301.1378,-561.8042"/>
</g>
<!-- Node130&#45;&gt;Node131 -->
<g id="edge49" class="edge">
<title>Node130&#45;&gt;Node131</title>
<path fill="none" stroke="#191970" d="M396.2269,-565.9623C518.1385,-555.5393 842.104,-527.8415 960.1681,-517.7475"/>
<polygon fill="#191970" stroke="#191970" points="395.7578,-562.4895 386.0923,-566.8287 396.3542,-569.4641 395.7578,-562.4895"/>
</g>
<!-- Node132 -->
<g id="node24" class="node">
<title>Node132</title>
<g id="a_node24"><a xlink:href="../../d4/d0f/beta__projectors__gradient_8h.html" target="_top" xlink:title="Contains declaration and implementation of sirius::Beta_projectors_gradient class. ">
<polygon fill="#ffffff" stroke="#000000" points="218,-448.5 218,-467.5 324,-467.5 324,-448.5 218,-448.5"/>
<text text-anchor="middle" x="271" y="-455.5" font-family="Helvetica,sans-Serif" font-size="10.00" fill="#000000">beta_projectors_gradient.h</text>
</a>
</g>
</g>
<!-- Node130&#45;&gt;Node132 -->
<g id="edge51" class="edge">
<title>Node130&#45;&gt;Node132</title>
<path fill="none" stroke="#191970" d="M336.6113,-552.2111C319.8885,-528.1989 290.6866,-486.2679 277.6334,-467.5249"/>
<polygon fill="#191970" stroke="#191970" points="333.7627,-554.2451 342.3498,-560.4509 339.5069,-550.2446 333.7627,-554.2451"/>
</g>
<!-- Node131&#45;&gt;Node115 -->
<g id="edge50" class="edge">
<title>Node131&#45;&gt;Node115</title>
<path fill="none" stroke="#191970" d="M1013.3849,-495.2933C1023.4485,-473.4707 1038,-436.0323 1038,-402 1038,-402 1038,-402 1038,-346 1038,-275.8316 935.0495,-246.8048 890.8129,-237.5712"/>
<polygon fill="#191970" stroke="#191970" points="1010.181,-493.8802 1009.0168,-504.4109 1016.4939,-496.9046 1010.181,-493.8802"/>
</g>
<!-- Node132&#45;&gt;Node127 -->
<g id="edge52" class="edge">
<title>Node132&#45;&gt;Node127</title>
<path fill="none" stroke="#191970" d="M271.8958,-438.0907C273.6588,-404.9876 278.4615,-336.6622 290,-280 292.5985,-267.2393 297.2288,-252.9492 300.4498,-243.7321"/>
<polygon fill="#191970" stroke="#191970" points="268.3915,-438.0932 271.393,-448.2539 275.383,-438.4392 268.3915,-438.0932"/>
</g>
<!-- Node133&#45;&gt;Node113 -->
<g id="edge63" class="edge">
<title>Node133&#45;&gt;Node113</title>
<path fill="none" stroke="#191970" d="M415.4354,-717.9216C415.8762,-692.0247 416.5347,-653.337 416.8373,-635.5595"/>
<polygon fill="#191970" stroke="#191970" points="411.9323,-718.0808 415.2615,-728.1389 418.9312,-718.2 411.9323,-718.0808"/>
</g>
<!-- Node134 -->
<g id="node26" class="node">
<title>Node134</title>
<g id="a_node26"><a xlink:href="../../d3/d0e/step__function_8h.html" target="_top" xlink:title="Contains definition and partial implementation of sirius::Step_function class. ">
<polygon fill="#ffffff" stroke="#000000" points="443.5,-672.5 443.5,-691.5 510.5,-691.5 510.5,-672.5 443.5,-672.5"/>
<text text-anchor="middle" x="477" y="-679.5" font-family="Helvetica,sans-Serif" font-size="10.00" fill="#000000">step_function.h</text>
</a>
</g>
</g>
<!-- Node133&#45;&gt;Node134 -->
<g id="edge64" class="edge">
<title>Node133&#45;&gt;Node134</title>
<path fill="none" stroke="#191970" d="M437.7214,-720.9618C447.8171,-710.9475 459.1769,-699.6794 467.073,-691.8469"/>
<polygon fill="#191970" stroke="#191970" points="434.9607,-718.7705 430.3258,-728.2977 439.8904,-723.7402 434.9607,-718.7705"/>
</g>
<!-- Node134&#45;&gt;Node113 -->
<g id="edge65" class="edge">
<title>Node134&#45;&gt;Node113</title>
<path fill="none" stroke="#191970" d="M459.1722,-665.3607C448.7922,-655.6727 436.0709,-643.7995 427.3314,-635.6427"/>
<polygon fill="#191970" stroke="#191970" points="456.8501,-667.981 466.5488,-672.2455 461.6263,-662.8636 456.8501,-667.981"/>
</g>
<!-- Node134&#45;&gt;Node119 -->
<g id="edge66" class="edge">
<title>Node134&#45;&gt;Node119</title>
<path fill="none" stroke="#191970" d="M521.0393,-678.9272C665.2315,-668.285 1114,-630.3184 1114,-570 1114,-570 1114,-570 1114,-178 1114,-106.6681 1008.5836,-78.3049 963.2875,-69.4101"/>
<polygon fill="#191970" stroke="#191970" points="520.5168,-675.4559 510.7981,-679.6747 521.0264,-682.4373 520.5168,-675.4559"/>
</g>
<!-- Node135&#45;&gt;Node111 -->
<g id="edge68" class="edge">
<title>Node135&#45;&gt;Node111</title>
<path fill="none" stroke="#191970" d="M283.3355,-842.3372C278.0346,-833.0605 271.8513,-822.2398 267.5101,-814.6427"/>
<polygon fill="#191970" stroke="#191970" points="280.4257,-844.2996 288.426,-851.2455 286.5034,-840.8266 280.4257,-844.2996"/>
</g>
<!-- Node137 -->
<g id="node29" class="node">
<title>Node137</title>
<g id="a_node29"><a xlink:href="../../d6/dc4/real__space__prj_8cpp_source.html" target="_top" xlink:title="real_space_prj.cpp">
<polygon fill="#ffffff" stroke="#000000" points="374,-795.5 374,-814.5 454,-814.5 454,-795.5 374,-795.5"/>
<text text-anchor="middle" x="414" y="-802.5" font-family="Helvetica,sans-Serif" font-size="10.00" fill="#000000">real_space_prj.cpp</text>
</a>
</g>
</g>
<!-- Node136&#45;&gt;Node137 -->
<g id="edge71" class="edge">
<title>Node136&#45;&gt;Node137</title>
<path fill="none" stroke="#191970" d="M412.7087,-841.1575C413.0302,-832.155 413.3957,-821.9199 413.6556,-814.6427"/>
<polygon fill="#191970" stroke="#191970" points="409.2076,-841.127 412.3484,-851.2455 416.2032,-841.3769 409.2076,-841.127"/>
</g>
<!-- Node138&#45;&gt;Node110 -->
<g id="edge74" class="edge">
<title>Node138&#45;&gt;Node110</title>
<path fill="none" stroke="#191970" d="M926.1783,-970.2623C820.9782,-960.6046 468.3114,-928.2286 371.035,-919.2983"/>
<polygon fill="#191970" stroke="#191970" points="926.117,-973.7713 936.3951,-971.2002 926.757,-966.8006 926.117,-973.7713"/>
</g>
<!-- Node138&#45;&gt;Node119 -->
<g id="edge75" class="edge">
<title>Node138&#45;&gt;Node119</title>
<path fill="none" stroke="#191970" d="M985.6617,-969.7475C1040.4542,-961.9195 1152,-936.6886 1152,-861 1152,-861 1152,-861 1152,-178 1152,-92.7857 1015.3508,-72.1506 963.0398,-67.3732"/>
<polygon fill="#191970" stroke="#191970" points="984.9642,-966.3092 975.5098,-971.0909 985.8825,-973.2487 984.9642,-966.3092"/>
</g>
</g>
</svg>
