<?xml version="1.0" encoding="UTF-8" standalone="no"?>
<!DOCTYPE svg PUBLIC "-//W3C//DTD SVG 1.1//EN"
 "http://www.w3.org/Graphics/SVG/1.1/DTD/svg11.dtd">
<!-- Generated by graphviz version 2.40.1 (20161225.0304)
 -->
<!-- Title: beta_projectors_gradient.h Pages: 1 -->
<svg width="114pt" height="196pt"
 viewBox="0.00 0.00 114.00 196.00" xmlns="http://www.w3.org/2000/svg" xmlns:xlink="http://www.w3.org/1999/xlink">
<g id="graph0" class="graph" transform="scale(1 1) rotate(0) translate(4 192)">
<title>beta_projectors_gradient.h</title>
<polygon fill="#ffffff" stroke="transparent" points="-4,4 -4,-192 110,-192 110,4 -4,4"/>
<!-- Node132 -->
<g id="node1" class="node">
<title>Node132</title>
<polygon fill="#bfbfbf" stroke="#000000" points="0,-168.5 0,-187.5 106,-187.5 106,-168.5 0,-168.5"/>
<text text-anchor="middle" x="53" y="-175.5" font-family="Helvetica,sans-Serif" font-size="10.00" fill="#000000">beta_projectors_gradient.h</text>
</g>
<!-- Node133 -->
<g id="node2" class="node">
<title>Node133</title>
<g id="a_node2"><a xlink:href="../../d6/d1e/force_8hpp.html" target="_top" xlink:title="Contains defintion and implementation of sirius::Force class. ">
<polygon fill="#ffffff" stroke="#000000" points="29,-112.5 29,-131.5 77,-131.5 77,-112.5 29,-112.5"/>
<text text-anchor="middle" x="53" y="-119.5" font-family="Helvetica,sans-Serif" font-size="10.00" fill="#000000">force.hpp</text>
</a>
</g>
</g>
<!-- Node132&#45;&gt;Node133 -->
<g id="edge1" class="edge">
<title>Node132&#45;&gt;Node133</title>
<path fill="none" stroke="#191970" d="M53,-158.1575C53,-149.155 53,-138.9199 53,-131.6427"/>
<polygon fill="#191970" stroke="#191970" points="49.5001,-158.2455 53,-168.2455 56.5001,-158.2456 49.5001,-158.2455"/>
</g>
<!-- Node134 -->
<g id="node3" class="node">
<title>Node134</title>
<g id="a_node3"><a xlink:href="../../dd/dc2/sirius_8h.html" target="_top" xlink:title="&quot;All&#45;in&#45;one&quot; include file. ">
<polygon fill="#ffffff" stroke="#000000" points="33,-56.5 33,-75.5 73,-75.5 73,-56.5 33,-56.5"/>
<text text-anchor="middle" x="53" y="-63.5" font-family="Helvetica,sans-Serif" font-size="10.00" fill="#000000">sirius.h</text>
</a>
</g>
</g>
<!-- Node133&#45;&gt;Node134 -->
<g id="edge2" class="edge">
<title>Node133&#45;&gt;Node134</title>
<path fill="none" stroke="#191970" d="M53,-102.1575C53,-93.155 53,-82.9199 53,-75.6427"/>
<polygon fill="#191970" stroke="#191970" points="49.5001,-102.2455 53,-112.2455 56.5001,-102.2456 49.5001,-102.2455"/>
</g>
<!-- Node135 -->
<g id="node4" class="node">
<title>Node135</title>
<g id="a_node4"><a xlink:href="../../d4/d53/sirius__api_8cpp.html" target="_top" xlink:title="Fortran API. ">
<polygon fill="#ffffff" stroke="#000000" points="22,-.5 22,-19.5 84,-19.5 84,-.5 22,-.5"/>
<text text-anchor="middle" x="53" y="-7.5" font-family="Helvetica,sans-Serif" font-size="10.00" fill="#000000">sirius_api.cpp</text>
</a>
</g>
</g>
<!-- Node134&#45;&gt;Node135 -->
<g id="edge3" class="edge">
<title>Node134&#45;&gt;Node135</title>
<path fill="none" stroke="#191970" d="M53,-46.1575C53,-37.155 53,-26.9199 53,-19.6427"/>
<polygon fill="#191970" stroke="#191970" points="49.5001,-46.2455 53,-56.2455 56.5001,-46.2456 49.5001,-46.2455"/>
</g>
</g>
</svg>
