<?xml version="1.0" encoding="UTF-8" standalone="no"?>
<!DOCTYPE svg PUBLIC "-//W3C//DTD SVG 1.1//EN"
 "http://www.w3.org/Graphics/SVG/1.1/DTD/svg11.dtd">
<!-- Generated by graphviz version 2.40.1 (20161225.0304)
 -->
<!-- Title: sirius::Unit_cell_input Pages: 1 -->
<svg width="97pt" height="196pt"
 viewBox="0.00 0.00 97.00 196.00" xmlns="http://www.w3.org/2000/svg" xmlns:xlink="http://www.w3.org/1999/xlink">
<g id="graph0" class="graph" transform="scale(1 1) rotate(0) translate(4 192)">
<title>sirius::Unit_cell_input</title>
<polygon fill="#ffffff" stroke="transparent" points="-4,4 -4,-192 93,-192 93,4 -4,4"/>
<!-- Node1 -->
<g id="node1" class="node">
<title>Node1</title>
<polygon fill="#bfbfbf" stroke="#000000" points="1,-.5 1,-19.5 88,-19.5 88,-.5 1,-.5"/>
<text text-anchor="middle" x="44.5" y="-7.5" font-family="Helvetica,sans-Serif" font-size="10.00" fill="#000000">sirius::Unit_cell_input</text>
</g>
<!-- Node2 -->
<g id="node2" class="node">
<title>Node2</title>
<g id="a_node2"><a xlink:href="../../d2/d6b/classgeometry3d_1_1vector3d.html" target="_top" xlink:title="geometry3d::vector3d\l\&lt; double \&gt;">
<polygon fill="#ffffff" stroke="#000000" points="0,-89.5 0,-119.5 89,-119.5 89,-89.5 0,-89.5"/>
<text text-anchor="start" x="8" y="-107.5" font-family="Helvetica,sans-Serif" font-size="10.00" fill="#000000">geometry3d::vector3d</text>
<text text-anchor="middle" x="44.5" y="-96.5" font-family="Helvetica,sans-Serif" font-size="10.00" fill="#000000">&lt; double &gt;</text>
</a>
</g>
</g>
<!-- Node2&#45;&gt;Node1 -->
<g id="edge1" class="edge">
<title>Node2&#45;&gt;Node1</title>
<path fill="none" stroke="#9a32cd" stroke-dasharray="5,2" d="M44.5,-79.2172C44.5,-59.6238 44.5,-33.5479 44.5,-19.6636"/>
<polygon fill="#9a32cd" stroke="#9a32cd" points="41.0001,-79.3169 44.5,-89.3169 48.0001,-79.317 41.0001,-79.3169"/>
<text text-anchor="middle" x="52" y="-63" font-family="Helvetica,sans-Serif" font-size="10.00" fill="#000000"> a2_</text>
<text text-anchor="middle" x="52" y="-52" font-family="Helvetica,sans-Serif" font-size="10.00" fill="#000000">a1_</text>
<text text-anchor="middle" x="52" y="-41" font-family="Helvetica,sans-Serif" font-size="10.00" fill="#000000">a0_</text>
</g>
<!-- Node3 -->
<g id="node3" class="node">
<title>Node3</title>
<polygon fill="#ffffff" stroke="#bfbfbf" points="6,-157.5 6,-187.5 83,-187.5 83,-157.5 6,-157.5"/>
<text text-anchor="start" x="14" y="-175.5" font-family="Helvetica,sans-Serif" font-size="10.00" fill="#000000">std::array&lt; double</text>
<text text-anchor="middle" x="44.5" y="-164.5" font-family="Helvetica,sans-Serif" font-size="10.00" fill="#000000"> , 3 &gt;</text>
</g>
<!-- Node3&#45;&gt;Node2 -->
<g id="edge2" class="edge">
<title>Node3&#45;&gt;Node2</title>
<path fill="none" stroke="#191970" d="M44.5,-147.1174C44.5,-137.8378 44.5,-127.6413 44.5,-119.5492"/>
<polygon fill="#191970" stroke="#191970" points="41.0001,-147.4086 44.5,-157.4086 48.0001,-147.4086 41.0001,-147.4086"/>
</g>
</g>
</svg>
