<?xml version="1.0" encoding="UTF-8" standalone="no"?>
<!DOCTYPE svg PUBLIC "-//W3C//DTD SVG 1.1//EN"
 "http://www.w3.org/Graphics/SVG/1.1/DTD/svg11.dtd">
<!-- Generated by graphviz version 2.40.1 (20161225.0304)
 -->
<!-- Title: sddk::wave_functions Pages: 1 -->
<svg width="621pt" height="391pt"
 viewBox="0.00 0.00 621.00 391.00" xmlns="http://www.w3.org/2000/svg" xmlns:xlink="http://www.w3.org/1999/xlink">
<g id="graph0" class="graph" transform="scale(1 1) rotate(0) translate(4 387)">
<title>sddk::wave_functions</title>
<polygon fill="#ffffff" stroke="transparent" points="-4,4 -4,-387 617,-387 617,4 -4,4"/>
<!-- Node1 -->
<g id="node1" class="node">
<title>Node1</title>
<polygon fill="#bfbfbf" stroke="#000000" points="525,-284 525,-303 613,-303 613,-284 525,-284"/>
<text text-anchor="middle" x="569" y="-291" font-family="Helvetica,sans-Serif" font-size="10.00" fill="#000000">sddk::wave_functions</text>
</g>
<!-- Node2 -->
<g id="node2" class="node">
<title>Node2</title>
<g id="a_node2"><a xlink:href="../../d2/dc9/classsddk_1_1splindex.html" target="_top" xlink:title="sddk::splindex\&lt; block \&gt;">
<polygon fill="#ffffff" stroke="#000000" points="335,-358 335,-377 429,-377 429,-358 335,-358"/>
<text text-anchor="middle" x="382" y="-365" font-family="Helvetica,sans-Serif" font-size="10.00" fill="#000000">sddk::splindex&lt; block &gt;</text>
</a>
</g>
</g>
<!-- Node2&#45;&gt;Node1 -->
<g id="edge1" class="edge">
<title>Node2&#45;&gt;Node1</title>
<path fill="none" stroke="#9a32cd" stroke-dasharray="5,2" d="M439.2194,-361.8348C461.142,-358.1981 485.9302,-352.2423 507,-342.5 528.1699,-332.7114 548.5642,-314.3153 559.8776,-303.0601"/>
<polygon fill="#9a32cd" stroke="#9a32cd" points="438.3998,-358.4195 429.0454,-363.394 439.4602,-365.3387 438.3998,-358.4195"/>
<text text-anchor="middle" x="477" y="-362.5" font-family="Helvetica,sans-Serif" font-size="10.00" fill="#000000"> spl_num_atoms_</text>
</g>
<!-- Node3 -->
<g id="node3" class="node">
<title>Node3</title>
<g id="a_node3"><a xlink:href="../../d6/dec/classsddk_1_1splindex__base.html" target="_top" xlink:title="sddk::splindex_base\l\&lt; int \&gt;">
<polygon fill="#ffffff" stroke="#000000" points="134,-352.5 134,-382.5 218,-382.5 218,-352.5 134,-352.5"/>
<text text-anchor="start" x="142" y="-370.5" font-family="Helvetica,sans-Serif" font-size="10.00" fill="#000000">sddk::splindex_base</text>
<text text-anchor="middle" x="176" y="-359.5" font-family="Helvetica,sans-Serif" font-size="10.00" fill="#000000">&lt; int &gt;</text>
</a>
</g>
</g>
<!-- Node3&#45;&gt;Node2 -->
<g id="edge2" class="edge">
<title>Node3&#45;&gt;Node2</title>
<path fill="none" stroke="#191970" d="M228.4836,-367.5C261.2622,-367.5 303.113,-367.5 334.8363,-367.5"/>
<polygon fill="#191970" stroke="#191970" points="228.1843,-364.0001 218.1843,-367.5 228.1842,-371.0001 228.1843,-364.0001"/>
</g>
<!-- Node4 -->
<g id="node4" class="node">
<title>Node4</title>
<g id="a_node4"><a xlink:href="../../db/dea/structsddk_1_1block__data__descriptor.html" target="_top" xlink:title="sddk::block_data_descriptor">
<polygon fill="#ffffff" stroke="#000000" points="121,-292 121,-311 231,-311 231,-292 121,-292"/>
<text text-anchor="middle" x="176" y="-299" font-family="Helvetica,sans-Serif" font-size="10.00" fill="#000000">sddk::block_data_descriptor</text>
</a>
</g>
</g>
<!-- Node4&#45;&gt;Node1 -->
<g id="edge3" class="edge">
<title>Node4&#45;&gt;Node1</title>
<path fill="none" stroke="#9a32cd" stroke-dasharray="5,2" d="M241.3767,-307.1367C243.9501,-307.275 246.4986,-307.3974 249,-307.5 347.4836,-311.5405 462.9965,-303.2743 524.7448,-297.8064"/>
<polygon fill="#9a32cd" stroke="#9a32cd" points="241.567,-303.6419 231.3737,-306.5309 241.1438,-310.6291 241.567,-303.6419"/>
<text text-anchor="middle" x="382" y="-310.5" font-family="Helvetica,sans-Serif" font-size="10.00" fill="#000000"> mt_coeffs_distr_</text>
</g>
<!-- Node6 -->
<g id="node6" class="node">
<title>Node6</title>
<g id="a_node6"><a xlink:href="../../dc/d9b/classsddk_1_1_gvec.html" target="_top" xlink:title="Store list of G&#45;vectors for FFTs and G+k basis functions. ">
<polygon fill="#ffffff" stroke="#000000" points="355,-150 355,-169 409,-169 409,-150 355,-150"/>
<text text-anchor="middle" x="382" y="-157" font-family="Helvetica,sans-Serif" font-size="10.00" fill="#000000">sddk::Gvec</text>
</a>
</g>
</g>
<!-- Node4&#45;&gt;Node6 -->
<g id="edge12" class="edge">
<title>Node4&#45;&gt;Node6</title>
<path fill="none" stroke="#9a32cd" stroke-dasharray="5,2" d="M229.8916,-289.2058C257.8393,-280.9556 291.389,-267.9604 317,-248.5 346.2502,-226.2743 368.1876,-187.3247 377.3282,-169.2389"/>
<polygon fill="#9a32cd" stroke="#9a32cd" points="228.9321,-285.8397 220.2619,-291.9289 230.837,-292.5756 228.9321,-285.8397"/>
<text text-anchor="middle" x="283" y="-295.5" font-family="Helvetica,sans-Serif" font-size="10.00" fill="#000000"> gvec_distr_</text>
<text text-anchor="middle" x="283" y="-284.5" font-family="Helvetica,sans-Serif" font-size="10.00" fill="#000000">zcol_distr_</text>
</g>
<!-- Node5 -->
<g id="node5" class="node">
<title>Node5</title>
<g id="a_node5"><a xlink:href="../../da/d70/classsddk_1_1_communicator.html" target="_top" xlink:title="MPI communicator wrapper. ">
<polygon fill="#ffffff" stroke="#000000" points="133.5,-239 133.5,-258 218.5,-258 218.5,-239 133.5,-239"/>
<text text-anchor="middle" x="176" y="-246" font-family="Helvetica,sans-Serif" font-size="10.00" fill="#000000">sddk::Communicator</text>
</a>
</g>
</g>
<!-- Node5&#45;&gt;Node1 -->
<g id="edge4" class="edge">
<title>Node5&#45;&gt;Node1</title>
<path fill="none" stroke="#9a32cd" stroke-dasharray="5,2" d="M228.9153,-254.559C307.0575,-263.5066 451.9049,-280.0922 524.745,-288.4326"/>
<polygon fill="#9a32cd" stroke="#9a32cd" points="229.1393,-251.0619 218.806,-253.4015 228.3429,-258.0164 229.1393,-251.0619"/>
<text text-anchor="middle" x="382" y="-279.5" font-family="Helvetica,sans-Serif" font-size="10.00" fill="#000000"> comm_</text>
</g>
<!-- Node5&#45;&gt;Node6 -->
<g id="edge15" class="edge">
<title>Node5&#45;&gt;Node6</title>
<path fill="none" stroke="#9a32cd" stroke-dasharray="5,2" d="M201.9703,-234.1952C215.7252,-226.9125 233.0344,-218.2057 249,-211.5 278.415,-199.1455 287.2885,-200.1234 317,-188.5 332.3052,-182.5125 349.2517,-174.9189 362.003,-169.0042"/>
<polygon fill="#9a32cd" stroke="#9a32cd" points="200.2327,-231.1555 193.0757,-238.9675 203.5422,-237.3237 200.2327,-231.1555"/>
<text text-anchor="middle" x="283" y="-236.5" font-family="Helvetica,sans-Serif" font-size="10.00" fill="#000000"> comm_ortho_fft_</text>
<text text-anchor="middle" x="283" y="-225.5" font-family="Helvetica,sans-Serif" font-size="10.00" fill="#000000">comm_fft_</text>
<text text-anchor="middle" x="283" y="-214.5" font-family="Helvetica,sans-Serif" font-size="10.00" fill="#000000">comm_</text>
</g>
<!-- Node6&#45;&gt;Node1 -->
<g id="edge5" class="edge">
<title>Node6&#45;&gt;Node1</title>
<path fill="none" stroke="#9a32cd" stroke-dasharray="5,2" d="M410.5219,-173.9026C436.6702,-187.6714 475.9294,-209.7935 507,-233.5 527.7208,-249.3097 548.9167,-271.3466 560.3694,-283.8419"/>
<polygon fill="#9a32cd" stroke="#9a32cd" points="412.0077,-170.7303 401.521,-169.2204 408.7772,-176.9403 412.0077,-170.7303"/>
<text text-anchor="middle" x="477" y="-236.5" font-family="Helvetica,sans-Serif" font-size="10.00" fill="#000000"> gkvec_</text>
</g>
<!-- Node7 -->
<g id="node7" class="node">
<title>Node7</title>
<g id="a_node7"><a xlink:href="../../d7/dab/classsddk_1_1mdarray.html" target="_top" xlink:title="sddk::mdarray\&lt; int, 3 \&gt;">
<polygon fill="#ffffff" stroke="#000000" points="129.5,-175 129.5,-194 222.5,-194 222.5,-175 129.5,-175"/>
<text text-anchor="middle" x="176" y="-182" font-family="Helvetica,sans-Serif" font-size="10.00" fill="#000000">sddk::mdarray&lt; int, 3 &gt;</text>
</a>
</g>
</g>
<!-- Node7&#45;&gt;Node6 -->
<g id="edge6" class="edge">
<title>Node7&#45;&gt;Node6</title>
<path fill="none" stroke="#9a32cd" stroke-dasharray="5,2" d="M232.8306,-177.6031C272.5382,-172.7842 323.7888,-166.5645 354.7096,-162.8119"/>
<polygon fill="#9a32cd" stroke="#9a32cd" points="232.2501,-174.1478 222.7446,-178.8271 233.0934,-181.0968 232.2501,-174.1478"/>
<text text-anchor="middle" x="283" y="-177.5" font-family="Helvetica,sans-Serif" font-size="10.00" fill="#000000"> gvec_index_by_xy_</text>
</g>
<!-- Node8 -->
<g id="node8" class="node">
<title>Node8</title>
<g id="a_node8"><a xlink:href="../../d0/d58/classsddk_1_1mdarray__base.html" target="_top" xlink:title="sddk::mdarray_base\l\&lt; int, N \&gt;">
<polygon fill="#ffffff" stroke="#000000" points="0,-158.5 0,-188.5 84,-188.5 84,-158.5 0,-158.5"/>
<text text-anchor="start" x="8" y="-176.5" font-family="Helvetica,sans-Serif" font-size="10.00" fill="#000000">sddk::mdarray_base</text>
<text text-anchor="middle" x="42" y="-165.5" font-family="Helvetica,sans-Serif" font-size="10.00" fill="#000000">&lt; int, N &gt;</text>
</a>
</g>
</g>
<!-- Node8&#45;&gt;Node7 -->
<g id="edge7" class="edge">
<title>Node8&#45;&gt;Node7</title>
<path fill="none" stroke="#191970" d="M94.0781,-177.7751C105.7406,-178.7324 118.0387,-179.742 129.4595,-180.6795"/>
<polygon fill="#191970" stroke="#191970" points="94.2836,-174.2803 84.0308,-176.9503 93.7109,-181.2568 94.2836,-174.2803"/>
</g>
<!-- Node11 -->
<g id="node11" class="node">
<title>Node11</title>
<g id="a_node11"><a xlink:href="../../d7/dab/classsddk_1_1mdarray.html" target="_top" xlink:title="sddk::mdarray\&lt; int, 1 \&gt;">
<polygon fill="#ffffff" stroke="#000000" points="129.5,-137 129.5,-156 222.5,-156 222.5,-137 129.5,-137"/>
<text text-anchor="middle" x="176" y="-144" font-family="Helvetica,sans-Serif" font-size="10.00" fill="#000000">sddk::mdarray&lt; int, 1 &gt;</text>
</a>
</g>
</g>
<!-- Node8&#45;&gt;Node11 -->
<g id="edge11" class="edge">
<title>Node8&#45;&gt;Node11</title>
<path fill="none" stroke="#191970" d="M94.0781,-163.0067C105.7406,-160.6567 118.0387,-158.1788 129.4595,-155.8776"/>
<polygon fill="#191970" stroke="#191970" points="93.1424,-159.6248 84.0308,-165.0311 94.5251,-166.4868 93.1424,-159.6248"/>
</g>
<!-- Node9 -->
<g id="node9" class="node">
<title>Node9</title>
<g id="a_node9"><a xlink:href="../../d7/dab/classsddk_1_1mdarray.html" target="_top" xlink:title="sddk::mdarray\&lt; double, 1 \&gt;">
<polygon fill="#ffffff" stroke="#000000" points="122,-99 122,-118 230,-118 230,-99 122,-99"/>
<text text-anchor="middle" x="176" y="-106" font-family="Helvetica,sans-Serif" font-size="10.00" fill="#000000">sddk::mdarray&lt; double, 1 &gt;</text>
</a>
</g>
</g>
<!-- Node9&#45;&gt;Node6 -->
<g id="edge8" class="edge">
<title>Node9&#45;&gt;Node6</title>
<path fill="none" stroke="#9a32cd" stroke-dasharray="5,2" d="M240.4151,-111.3443C264.8149,-113.693 292.5835,-117.9213 317,-125.5 335.3659,-131.2006 354.6803,-142.0054 367.4345,-149.9097"/>
<polygon fill="#9a32cd" stroke="#9a32cd" points="240.4511,-107.8341 230.1839,-110.4485 239.8405,-114.8075 240.4511,-107.8341"/>
<text text-anchor="middle" x="283" y="-128.5" font-family="Helvetica,sans-Serif" font-size="10.00" fill="#000000"> gvec_shell_len_</text>
</g>
<!-- Node10 -->
<g id="node10" class="node">
<title>Node10</title>
<g id="a_node10"><a xlink:href="../../d0/d58/classsddk_1_1mdarray__base.html" target="_top" xlink:title="sddk::mdarray_base\l\&lt; double, N \&gt;">
<polygon fill="#ffffff" stroke="#000000" points="0,-98.5 0,-128.5 84,-128.5 84,-98.5 0,-98.5"/>
<text text-anchor="start" x="8" y="-116.5" font-family="Helvetica,sans-Serif" font-size="10.00" fill="#000000">sddk::mdarray_base</text>
<text text-anchor="middle" x="42" y="-105.5" font-family="Helvetica,sans-Serif" font-size="10.00" fill="#000000">&lt; double, N &gt;</text>
</a>
</g>
</g>
<!-- Node10&#45;&gt;Node9 -->
<g id="edge9" class="edge">
<title>Node10&#45;&gt;Node9</title>
<path fill="none" stroke="#191970" d="M94.0931,-111.5562C103.1845,-111.217 112.6616,-110.8634 121.8079,-110.5221"/>
<polygon fill="#191970" stroke="#191970" points="93.8933,-108.0612 84.0308,-111.9317 94.1544,-115.0563 93.8933,-108.0612"/>
</g>
<!-- Node11&#45;&gt;Node6 -->
<g id="edge10" class="edge">
<title>Node11&#45;&gt;Node6</title>
<path fill="none" stroke="#9a32cd" stroke-dasharray="5,2" d="M232.5231,-141.6493C258.3627,-140.3667 289.3189,-140.1432 317,-143.5 329.5754,-145.025 343.2259,-148.152 354.7562,-151.2403"/>
<polygon fill="#9a32cd" stroke="#9a32cd" points="232.3115,-138.1556 222.5232,-142.2102 232.7035,-145.1446 232.3115,-138.1556"/>
<text text-anchor="middle" x="283" y="-146.5" font-family="Helvetica,sans-Serif" font-size="10.00" fill="#000000"> gvec_shell_</text>
</g>
<!-- Node12 -->
<g id="node12" class="node">
<title>Node12</title>
<g id="a_node12"><a xlink:href="../../d7/dab/classsddk_1_1mdarray.html" target="_top" xlink:title="sddk::mdarray\&lt; uint32\l_t, 1 \&gt;">
<polygon fill="#ffffff" stroke="#000000" points="130.5,-49.5 130.5,-79.5 221.5,-79.5 221.5,-49.5 130.5,-49.5"/>
<text text-anchor="start" x="138.5" y="-67.5" font-family="Helvetica,sans-Serif" font-size="10.00" fill="#000000">sddk::mdarray&lt; uint32</text>
<text text-anchor="middle" x="176" y="-56.5" font-family="Helvetica,sans-Serif" font-size="10.00" fill="#000000">_t, 1 &gt;</text>
</a>
</g>
</g>
<!-- Node12&#45;&gt;Node6 -->
<g id="edge13" class="edge">
<title>Node12&#45;&gt;Node6</title>
<path fill="none" stroke="#9a32cd" stroke-dasharray="5,2" d="M231.74,-70.5809C258.7064,-75.22 290.8234,-83.3406 317,-97.5 341.6905,-110.8555 363.795,-136.0817 374.7434,-149.8826"/>
<polygon fill="#9a32cd" stroke="#9a32cd" points="232.1081,-67.0953 221.6801,-68.9681 230.9999,-74.007 232.1081,-67.0953"/>
<text text-anchor="middle" x="283" y="-100.5" font-family="Helvetica,sans-Serif" font-size="10.00" fill="#000000"> gvec_full_index_</text>
</g>
<!-- Node13 -->
<g id="node13" class="node">
<title>Node13</title>
<g id="a_node13"><a xlink:href="../../d0/d58/classsddk_1_1mdarray__base.html" target="_top" xlink:title="sddk::mdarray_base\l\&lt; uint32_t, N \&gt;">
<polygon fill="#ffffff" stroke="#000000" points="0,-49.5 0,-79.5 84,-79.5 84,-49.5 0,-49.5"/>
<text text-anchor="start" x="8" y="-67.5" font-family="Helvetica,sans-Serif" font-size="10.00" fill="#000000">sddk::mdarray_base</text>
<text text-anchor="middle" x="42" y="-56.5" font-family="Helvetica,sans-Serif" font-size="10.00" fill="#000000">&lt; uint32_t, N &gt;</text>
</a>
</g>
</g>
<!-- Node13&#45;&gt;Node12 -->
<g id="edge14" class="edge">
<title>Node13&#45;&gt;Node12</title>
<path fill="none" stroke="#191970" d="M94.2962,-64.5C106.215,-64.5 118.7867,-64.5 130.4,-64.5"/>
<polygon fill="#191970" stroke="#191970" points="94.0308,-61.0001 84.0308,-64.5 94.0307,-68.0001 94.0308,-61.0001"/>
</g>
<!-- Node14 -->
<g id="node14" class="node">
<title>Node14</title>
<g id="a_node14"><a xlink:href="../../d2/d6b/classgeometry3d_1_1vector3d.html" target="_top" xlink:title="geometry3d::vector3d\l\&lt; double \&gt;">
<polygon fill="#ffffff" stroke="#000000" points="131.5,-.5 131.5,-30.5 220.5,-30.5 220.5,-.5 131.5,-.5"/>
<text text-anchor="start" x="139.5" y="-18.5" font-family="Helvetica,sans-Serif" font-size="10.00" fill="#000000">geometry3d::vector3d</text>
<text text-anchor="middle" x="176" y="-7.5" font-family="Helvetica,sans-Serif" font-size="10.00" fill="#000000">&lt; double &gt;</text>
</a>
</g>
</g>
<!-- Node14&#45;&gt;Node6 -->
<g id="edge16" class="edge">
<title>Node14&#45;&gt;Node6</title>
<path fill="none" stroke="#9a32cd" stroke-dasharray="5,2" d="M230.6677,-22.9632C258.6558,-28.9383 292.0027,-39.5961 317,-58.5 349.7646,-83.2778 370.594,-129.7311 378.4548,-149.827"/>
<polygon fill="#9a32cd" stroke="#9a32cd" points="231.1146,-19.4836 220.6241,-20.9671 229.75,-26.3493 231.1146,-19.4836"/>
<text text-anchor="middle" x="283" y="-61.5" font-family="Helvetica,sans-Serif" font-size="10.00" fill="#000000"> vk_</text>
</g>
<!-- Node15 -->
<g id="node15" class="node">
<title>Node15</title>
<polygon fill="#ffffff" stroke="#bfbfbf" points="3.5,-.5 3.5,-30.5 80.5,-30.5 80.5,-.5 3.5,-.5"/>
<text text-anchor="start" x="11.5" y="-18.5" font-family="Helvetica,sans-Serif" font-size="10.00" fill="#000000">std::array&lt; double</text>
<text text-anchor="middle" x="42" y="-7.5" font-family="Helvetica,sans-Serif" font-size="10.00" fill="#000000"> , 3 &gt;</text>
</g>
<!-- Node15&#45;&gt;Node14 -->
<g id="edge17" class="edge">
<title>Node15&#45;&gt;Node14</title>
<path fill="none" stroke="#191970" d="M91.0351,-15.5C104.1683,-15.5 118.2958,-15.5 131.1878,-15.5"/>
<polygon fill="#191970" stroke="#191970" points="90.7584,-12.0001 80.7584,-15.5 90.7583,-19.0001 90.7584,-12.0001"/>
</g>
</g>
</svg>
