<?xml version="1.0" encoding="UTF-8" standalone="no"?>
<!DOCTYPE svg PUBLIC "-//W3C//DTD SVG 1.1//EN"
 "http://www.w3.org/Graphics/SVG/1.1/DTD/svg11.dtd">
<!-- Generated by graphviz version 2.40.1 (20161225.0304)
 -->
<!-- Title: sirius::magnetic_group_symmetry_descriptor Pages: 1 -->
<svg width="100pt" height="274pt"
 viewBox="0.00 0.00 100.00 274.00" xmlns="http://www.w3.org/2000/svg" xmlns:xlink="http://www.w3.org/1999/xlink">
<g id="graph0" class="graph" transform="scale(1 1) rotate(0) translate(4 270)">
<title>sirius::magnetic_group_symmetry_descriptor</title>
<polygon fill="#ffffff" stroke="transparent" points="-4,4 -4,-270 96,-270 96,4 -4,4"/>
<!-- Node1 -->
<g id="node1" class="node">
<title>Node1</title>
<polygon fill="#bfbfbf" stroke="#000000" points="0,-.5 0,-30.5 92,-30.5 92,-.5 0,-.5"/>
<text text-anchor="start" x="8" y="-18.5" font-family="Helvetica,sans-Serif" font-size="10.00" fill="#000000">sirius::magnetic_group</text>
<text text-anchor="middle" x="46" y="-7.5" font-family="Helvetica,sans-Serif" font-size="10.00" fill="#000000">_symmetry_descriptor</text>
</g>
<!-- Node2 -->
<g id="node2" class="node">
<title>Node2</title>
<g id="a_node2"><a xlink:href="../../d6/d5b/structsirius_1_1space__group__symmetry__descriptor.html" target="_top" xlink:title="Descriptor of the space group symmetry operation. ">
<polygon fill="#ffffff" stroke="#000000" points="1,-78.5 1,-108.5 91,-108.5 91,-78.5 1,-78.5"/>
<text text-anchor="start" x="9" y="-96.5" font-family="Helvetica,sans-Serif" font-size="10.00" fill="#000000">sirius::space_group</text>
<text text-anchor="middle" x="46" y="-85.5" font-family="Helvetica,sans-Serif" font-size="10.00" fill="#000000">_symmetry_descriptor</text>
</a>
</g>
</g>
<!-- Node2&#45;&gt;Node1 -->
<g id="edge1" class="edge">
<title>Node2&#45;&gt;Node1</title>
<path fill="none" stroke="#9a32cd" stroke-dasharray="5,2" d="M46,-68.2875C46,-55.9187 46,-41.4264 46,-30.7592"/>
<polygon fill="#9a32cd" stroke="#9a32cd" points="42.5001,-68.4608 46,-78.4608 49.5001,-68.4608 42.5001,-68.4608"/>
<text text-anchor="middle" x="59.5" y="-52" font-family="Helvetica,sans-Serif" font-size="10.00" fill="#000000"> spg_op</text>
</g>
<!-- Node3 -->
<g id="node3" class="node">
<title>Node3</title>
<g id="a_node3"><a xlink:href="../../d2/d6b/classgeometry3d_1_1vector3d.html" target="_top" xlink:title="geometry3d::vector3d\l\&lt; double \&gt;">
<polygon fill="#ffffff" stroke="#000000" points="1.5,-167.5 1.5,-197.5 90.5,-197.5 90.5,-167.5 1.5,-167.5"/>
<text text-anchor="start" x="9.5" y="-185.5" font-family="Helvetica,sans-Serif" font-size="10.00" fill="#000000">geometry3d::vector3d</text>
<text text-anchor="middle" x="46" y="-174.5" font-family="Helvetica,sans-Serif" font-size="10.00" fill="#000000">&lt; double &gt;</text>
</a>
</g>
</g>
<!-- Node3&#45;&gt;Node2 -->
<g id="edge2" class="edge">
<title>Node3&#45;&gt;Node2</title>
<path fill="none" stroke="#9a32cd" stroke-dasharray="5,2" d="M46,-157.31C46,-141.6343 46,-121.9926 46,-108.6717"/>
<polygon fill="#9a32cd" stroke="#9a32cd" points="42.5001,-157.4023 46,-167.4024 49.5001,-157.4024 42.5001,-157.4023"/>
<text text-anchor="middle" x="69" y="-141" font-family="Helvetica,sans-Serif" font-size="10.00" fill="#000000"> euler_angles</text>
<text text-anchor="middle" x="69" y="-130" font-family="Helvetica,sans-Serif" font-size="10.00" fill="#000000">t</text>
</g>
<!-- Node4 -->
<g id="node4" class="node">
<title>Node4</title>
<polygon fill="#ffffff" stroke="#bfbfbf" points="7.5,-235.5 7.5,-265.5 84.5,-265.5 84.5,-235.5 7.5,-235.5"/>
<text text-anchor="start" x="15.5" y="-253.5" font-family="Helvetica,sans-Serif" font-size="10.00" fill="#000000">std::array&lt; double</text>
<text text-anchor="middle" x="46" y="-242.5" font-family="Helvetica,sans-Serif" font-size="10.00" fill="#000000"> , 3 &gt;</text>
</g>
<!-- Node4&#45;&gt;Node3 -->
<g id="edge3" class="edge">
<title>Node4&#45;&gt;Node3</title>
<path fill="none" stroke="#191970" d="M46,-225.1174C46,-215.8378 46,-205.6413 46,-197.5492"/>
<polygon fill="#191970" stroke="#191970" points="42.5001,-225.4086 46,-235.4086 49.5001,-225.4086 42.5001,-225.4086"/>
</g>
</g>
</svg>
