<?xml version="1.0" encoding="UTF-8" standalone="no"?>
<!DOCTYPE svg PUBLIC "-//W3C//DTD SVG 1.1//EN"
 "http://www.w3.org/Graphics/SVG/1.1/DTD/svg11.dtd">
<!-- Generated by graphviz version 2.40.1 (20161225.0304)
 -->
<!-- Title: wave_functions.hpp Pages: 1 -->
<svg width="1135pt" height="476pt"
 viewBox="0.00 0.00 1134.80 476.00" xmlns="http://www.w3.org/2000/svg" xmlns:xlink="http://www.w3.org/1999/xlink">
<g id="graph0" class="graph" transform="scale(1 1) rotate(0) translate(4 472)">
<title>wave_functions.hpp</title>
<polygon fill="#ffffff" stroke="transparent" points="-4,4 -4,-472 1130.8032,-472 1130.8032,4 -4,4"/>
<!-- Node0 -->
<g id="node1" class="node">
<title>Node0</title>
<polygon fill="#bfbfbf" stroke="#000000" points="555.8032,-448.5 555.8032,-467.5 638.8032,-467.5 638.8032,-448.5 555.8032,-448.5"/>
<text text-anchor="middle" x="597.3032" y="-455.5" font-family="Helvetica,sans-Serif" font-size="10.00" fill="#000000">wave_functions.hpp</text>
</g>
<!-- Node1 -->
<g id="node2" class="node">
<title>Node1</title>
<polygon fill="#ffffff" stroke="#bfbfbf" points="370.3032,-392.5 370.3032,-411.5 408.3032,-411.5 408.3032,-392.5 370.3032,-392.5"/>
<text text-anchor="middle" x="389.3032" y="-399.5" font-family="Helvetica,sans-Serif" font-size="10.00" fill="#000000">cstdlib</text>
</g>
<!-- Node0&#45;&gt;Node1 -->
<g id="edge1" class="edge">
<title>Node0&#45;&gt;Node1</title>
<path fill="none" stroke="#191970" d="M555.533,-448.4878C521.0039,-440.3651 470.5333,-427.8983 418.2788,-412.1089"/>
<polygon fill="#191970" stroke="#191970" points="419.0908,-408.6973 408.5045,-409.1223 417.0452,-415.3918 419.0908,-408.6973"/>
</g>
<!-- Node2 -->
<g id="node3" class="node">
<title>Node2</title>
<polygon fill="#ffffff" stroke="#bfbfbf" points="426.8032,-392.5 426.8032,-411.5 471.8032,-411.5 471.8032,-392.5 426.8032,-392.5"/>
<text text-anchor="middle" x="449.3032" y="-399.5" font-family="Helvetica,sans-Serif" font-size="10.00" fill="#000000">iostream</text>
</g>
<!-- Node0&#45;&gt;Node2 -->
<g id="edge2" class="edge">
<title>Node0&#45;&gt;Node2</title>
<path fill="none" stroke="#191970" d="M571.8611,-448.3733C546.8345,-438.9037 508.5413,-424.4144 481.4282,-414.1554"/>
<polygon fill="#191970" stroke="#191970" points="482.5817,-410.8498 471.9902,-410.5843 480.1045,-417.3968 482.5817,-410.8498"/>
</g>
<!-- Node3 -->
<g id="node4" class="node">
<title>Node3</title>
<g id="a_node4"><a xlink:href="../../d6/dc7/linalg_8hpp.html" target="_top" xlink:title="Linear algebra interface. ">
<polygon fill="#ffffff" stroke="#000000" points="587.8032,-336.5 587.8032,-355.5 636.8032,-355.5 636.8032,-336.5 587.8032,-336.5"/>
<text text-anchor="middle" x="612.3032" y="-343.5" font-family="Helvetica,sans-Serif" font-size="10.00" fill="#000000">linalg.hpp</text>
</a>
</g>
</g>
<!-- Node0&#45;&gt;Node3 -->
<g id="edge3" class="edge">
<title>Node0&#45;&gt;Node3</title>
<path fill="none" stroke="#191970" d="M592.945,-448.4872C587.615,-435.5576 579.9271,-411.7797 585.3032,-392 588.0208,-382.0015 593.5207,-371.9556 598.8516,-363.8139"/>
<polygon fill="#191970" stroke="#191970" points="601.7787,-365.7354 604.6413,-355.5346 596.0422,-361.7239 601.7787,-365.7354"/>
</g>
<!-- Node40 -->
<g id="node41" class="node">
<title>Node40</title>
<g id="a_node41"><a xlink:href="../../d4/d83/hdf5__tree_8hpp.html" target="_top" xlink:title="Contains definition and implementation of sirius::HDF5_tree class. ">
<polygon fill="#ffffff" stroke="#000000" points="468.8032,-224.5 468.8032,-243.5 531.8032,-243.5 531.8032,-224.5 468.8032,-224.5"/>
<text text-anchor="middle" x="500.3032" y="-231.5" font-family="Helvetica,sans-Serif" font-size="10.00" fill="#000000">hdf5_tree.hpp</text>
</a>
</g>
</g>
<!-- Node0&#45;&gt;Node40 -->
<g id="edge63" class="edge">
<title>Node0&#45;&gt;Node40</title>
<path fill="none" stroke="#191970" d="M593.1352,-448.375C578.3664,-414.2697 528.3535,-298.7761 508.5121,-252.9567"/>
<polygon fill="#191970" stroke="#191970" points="511.6413,-251.3749 504.4556,-243.5891 505.2177,-254.1565 511.6413,-251.3749"/>
</g>
<!-- Node43 -->
<g id="node44" class="node">
<title>Node43</title>
<g id="a_node44"><a xlink:href="../../d1/d99/eigenproblem_8h.html" target="_top" xlink:title="Contains definition and implementaiton of various eigenvalue solver interfaces. ">
<polygon fill="#ffffff" stroke="#000000" points="594.3032,-392.5 594.3032,-411.5 662.3032,-411.5 662.3032,-392.5 594.3032,-392.5"/>
<text text-anchor="middle" x="628.3032" y="-399.5" font-family="Helvetica,sans-Serif" font-size="10.00" fill="#000000">eigenproblem.h</text>
</a>
</g>
</g>
<!-- Node0&#45;&gt;Node43 -->
<g id="edge57" class="edge">
<title>Node0&#45;&gt;Node43</title>
<path fill="none" stroke="#191970" d="M602.703,-448.2455C606.9259,-440.617 612.9205,-429.7881 618.0473,-420.5267"/>
<polygon fill="#191970" stroke="#191970" points="621.1842,-422.0867 622.9653,-411.6427 615.0599,-418.6965 621.1842,-422.0867"/>
</g>
<!-- Node47 -->
<g id="node48" class="node">
<title>Node47</title>
<g id="a_node48"><a xlink:href="../../dc/d17/wf__inner_8hpp.html" target="_top" xlink:title="Contains implementation of inner product for wave&#45;functions. ">
<polygon fill="#ffffff" stroke="#000000" points="680.8032,-392.5 680.8032,-411.5 739.8032,-411.5 739.8032,-392.5 680.8032,-392.5"/>
<text text-anchor="middle" x="710.3032" y="-399.5" font-family="Helvetica,sans-Serif" font-size="10.00" fill="#000000">wf_inner.hpp</text>
</a>
</g>
</g>
<!-- Node0&#45;&gt;Node47 -->
<g id="edge64" class="edge">
<title>Node0&#45;&gt;Node47</title>
<path fill="none" stroke="#191970" d="M616.7286,-448.3733C634.7053,-439.4644 661.6473,-426.1127 682.0122,-416.0203"/>
<polygon fill="#191970" stroke="#191970" points="683.7254,-419.0776 691.1313,-411.5011 680.617,-412.8055 683.7254,-419.0776"/>
</g>
<!-- Node48 -->
<g id="node49" class="node">
<title>Node48</title>
<g id="a_node49"><a xlink:href="../../d6/d22/wf__trans_8hpp_source.html" target="_top" xlink:title="wf_trans.hpp">
<polygon fill="#ffffff" stroke="#000000" points="757.8032,-392.5 757.8032,-411.5 816.8032,-411.5 816.8032,-392.5 757.8032,-392.5"/>
<text text-anchor="middle" x="787.3032" y="-399.5" font-family="Helvetica,sans-Serif" font-size="10.00" fill="#000000">wf_trans.hpp</text>
</a>
</g>
</g>
<!-- Node0&#45;&gt;Node48 -->
<g id="edge65" class="edge">
<title>Node0&#45;&gt;Node48</title>
<path fill="none" stroke="#191970" d="M629.9654,-448.3733C662.6056,-438.753 712.8237,-423.9519 747.7129,-413.6687"/>
<polygon fill="#191970" stroke="#191970" points="748.9626,-416.9493 757.5651,-410.7649 746.9836,-410.2349 748.9626,-416.9493"/>
</g>
<!-- Node49 -->
<g id="node50" class="node">
<title>Node49</title>
<g id="a_node50"><a xlink:href="../../d2/d68/wf__ortho_8hpp_source.html" target="_top" xlink:title="wf_ortho.hpp">
<polygon fill="#ffffff" stroke="#000000" points="835.3032,-392.5 835.3032,-411.5 895.3032,-411.5 895.3032,-392.5 835.3032,-392.5"/>
<text text-anchor="middle" x="865.3032" y="-399.5" font-family="Helvetica,sans-Serif" font-size="10.00" fill="#000000">wf_ortho.hpp</text>
</a>
</g>
</g>
<!-- Node0&#45;&gt;Node49 -->
<g id="edge66" class="edge">
<title>Node0&#45;&gt;Node49</title>
<path fill="none" stroke="#191970" d="M638.813,-450.3443C682.7327,-442.0926 754.2829,-428.2204 825.12,-412.1865"/>
<polygon fill="#191970" stroke="#191970" points="826.1357,-415.5448 835.1078,-409.91 824.58,-408.7199 826.1357,-415.5448"/>
</g>
<!-- Node4 -->
<g id="node5" class="node">
<title>Node4</title>
<polygon fill="#ffffff" stroke="#bfbfbf" points="969.8032,-280.5 969.8032,-299.5 1010.8032,-299.5 1010.8032,-280.5 969.8032,-280.5"/>
<text text-anchor="middle" x="990.3032" y="-287.5" font-family="Helvetica,sans-Serif" font-size="10.00" fill="#000000">stdint.h</text>
</g>
<!-- Node3&#45;&gt;Node4 -->
<g id="edge4" class="edge">
<title>Node3&#45;&gt;Node4</title>
<path fill="none" stroke="#191970" d="M637.0631,-338.1886C640.1548,-337.37 643.2887,-336.6143 646.3032,-336 781.7814,-308.3938 819.719,-327.0809 955.3032,-300 956.775,-299.706 958.275,-299.3805 959.7852,-299.0319"/>
<polygon fill="#191970" stroke="#191970" points="960.8954,-302.3605 969.7112,-296.484 959.155,-295.5803 960.8954,-302.3605"/>
</g>
<!-- Node5 -->
<g id="node6" class="node">
<title>Node5</title>
<g id="a_node6"><a xlink:href="../../db/d1f/cublas_8hpp.html" target="_top" xlink:title="Interface to cuBLAS related functions. ">
<polygon fill="#ffffff" stroke="#000000" points="1001.8032,-112.5 1001.8032,-131.5 1072.8032,-131.5 1072.8032,-112.5 1001.8032,-112.5"/>
<text text-anchor="middle" x="1037.3032" y="-119.5" font-family="Helvetica,sans-Serif" font-size="10.00" fill="#000000">GPU/cublas.hpp</text>
</a>
</g>
</g>
<!-- Node3&#45;&gt;Node5 -->
<g id="edge5" class="edge">
<title>Node3&#45;&gt;Node5</title>
<path fill="none" stroke="#191970" d="M637.0514,-338.1299C640.1452,-337.3214 643.2827,-336.584 646.3032,-336 728.28,-320.1487 961.2851,-359.062 1020.3032,-300 1062.4608,-257.811 1050.9158,-178.6913 1042.53,-141.8352"/>
<polygon fill="#191970" stroke="#191970" points="1045.8624,-140.7271 1040.0919,-131.8417 1039.0618,-142.3863 1045.8624,-140.7271"/>
</g>
<!-- Node18 -->
<g id="node19" class="node">
<title>Node18</title>
<g id="a_node19"><a xlink:href="../../dd/df1/blas__lapack_8h_source.html" target="_top" xlink:title="blas_lapack.h">
<polygon fill="#ffffff" stroke="#000000" points="915.3032,-56.5 915.3032,-75.5 977.3032,-75.5 977.3032,-56.5 915.3032,-56.5"/>
<text text-anchor="middle" x="946.3032" y="-63.5" font-family="Helvetica,sans-Serif" font-size="10.00" fill="#000000">blas_lapack.h</text>
</a>
</g>
</g>
<!-- Node3&#45;&gt;Node18 -->
<g id="edge19" class="edge">
<title>Node3&#45;&gt;Node18</title>
<path fill="none" stroke="#191970" d="M637.056,-338.5255C709.7235,-316.0251 919.6441,-246.8512 956.3032,-188 976.0543,-156.2922 963.9666,-110.6076 954.4517,-85.0901"/>
<polygon fill="#191970" stroke="#191970" points="957.6987,-83.7832 950.7554,-75.7806 951.1927,-86.3665 957.6987,-83.7832"/>
</g>
<!-- Node19 -->
<g id="node20" class="node">
<title>Node19</title>
<g id="a_node20"><a xlink:href="../../d6/d71/mdarray_8hpp.html" target="_top" xlink:title="Contains implementation of multidimensional array class. ">
<polygon fill="#ffffff" stroke="#000000" points="302.8032,-112.5 302.8032,-131.5 361.8032,-131.5 361.8032,-112.5 302.8032,-112.5"/>
<text text-anchor="middle" x="332.3032" y="-119.5" font-family="Helvetica,sans-Serif" font-size="10.00" fill="#000000">mdarray.hpp</text>
</a>
</g>
</g>
<!-- Node3&#45;&gt;Node19 -->
<g id="edge21" class="edge">
<title>Node3&#45;&gt;Node19</title>
<path fill="none" stroke="#191970" d="M593.9501,-336.3812C552.6853,-314.1655 450.768,-255.9541 381.3032,-188 366.5494,-173.567 352.8268,-154.3771 343.6792,-140.4115"/>
<polygon fill="#191970" stroke="#191970" points="346.4503,-138.2476 338.1207,-131.7003 340.5493,-142.013 346.4503,-138.2476"/>
</g>
<!-- Node29 -->
<g id="node30" class="node">
<title>Node29</title>
<g id="a_node30"><a xlink:href="../../d3/d9b/dmatrix_8hpp.html" target="_top" xlink:title="Contains definition and implementaiton of dmatrix class. ">
<polygon fill="#ffffff" stroke="#000000" points="584.3032,-280.5 584.3032,-299.5 640.3032,-299.5 640.3032,-280.5 584.3032,-280.5"/>
<text text-anchor="middle" x="612.3032" y="-287.5" font-family="Helvetica,sans-Serif" font-size="10.00" fill="#000000">dmatrix.hpp</text>
</a>
</g>
</g>
<!-- Node3&#45;&gt;Node29 -->
<g id="edge34" class="edge">
<title>Node3&#45;&gt;Node29</title>
<path fill="none" stroke="#191970" d="M612.3032,-336.2455C612.3032,-328.9382 612.3032,-318.6944 612.3032,-309.7046"/>
<polygon fill="#191970" stroke="#191970" points="615.8033,-309.6426 612.3032,-299.6427 608.8033,-309.6427 615.8033,-309.6426"/>
</g>
<!-- Node6 -->
<g id="node7" class="node">
<title>Node6</title>
<polygon fill="#ffffff" stroke="#bfbfbf" points="1012.8032,-.5 1012.8032,-19.5 1055.8032,-19.5 1055.8032,-.5 1012.8032,-.5"/>
<text text-anchor="middle" x="1034.3032" y="-7.5" font-family="Helvetica,sans-Serif" font-size="10.00" fill="#000000">unistd.h</text>
</g>
<!-- Node5&#45;&gt;Node6 -->
<g id="edge6" class="edge">
<title>Node5&#45;&gt;Node6</title>
<path fill="none" stroke="#191970" d="M1037.0474,-112.4509C1036.5581,-94.184 1035.4806,-53.9553 1034.8308,-29.6976"/>
<polygon fill="#191970" stroke="#191970" points="1038.3249,-29.4276 1034.5583,-19.5249 1031.3274,-29.6151 1038.3249,-29.4276"/>
</g>
<!-- Node7 -->
<g id="node8" class="node">
<title>Node7</title>
<g id="a_node8"><a xlink:href="../../d8/d7b/cuda_8hpp.html" target="_top" xlink:title="Interface to CUDA related functions. ">
<polygon fill="#ffffff" stroke="#000000" points="732.8032,-56.5 732.8032,-75.5 779.8032,-75.5 779.8032,-56.5 732.8032,-56.5"/>
<text text-anchor="middle" x="756.3032" y="-63.5" font-family="Helvetica,sans-Serif" font-size="10.00" fill="#000000">cuda.hpp</text>
</a>
</g>
</g>
<!-- Node5&#45;&gt;Node7 -->
<g id="edge7" class="edge">
<title>Node5&#45;&gt;Node7</title>
<path fill="none" stroke="#191970" d="M1001.7144,-114.9076C947.1643,-104.0364 843.594,-83.396 790.125,-72.7403"/>
<polygon fill="#191970" stroke="#191970" points="790.6198,-69.2701 780.1285,-70.7481 789.2516,-76.1351 790.6198,-69.2701"/>
</g>
<!-- Node7&#45;&gt;Node6 -->
<g id="edge12" class="edge">
<title>Node7&#45;&gt;Node6</title>
<path fill="none" stroke="#191970" d="M779.8252,-62.0655C829.9864,-53.6095 946.8809,-33.5409 1003.0318,-20.0158"/>
<polygon fill="#191970" stroke="#191970" points="1003.9317,-23.3985 1012.7797,-17.5707 1002.2286,-16.6089 1003.9317,-23.3985"/>
</g>
<!-- Node8 -->
<g id="node9" class="node">
<title>Node8</title>
<polygon fill="#ffffff" stroke="#bfbfbf" points="794.3032,-.5 794.3032,-19.5 862.3032,-19.5 862.3032,-.5 794.3032,-.5"/>
<text text-anchor="middle" x="828.3032" y="-7.5" font-family="Helvetica,sans-Serif" font-size="10.00" fill="#000000">cuda_runtime.h</text>
</g>
<!-- Node7&#45;&gt;Node8 -->
<g id="edge8" class="edge">
<title>Node7&#45;&gt;Node8</title>
<path fill="none" stroke="#191970" d="M768.8446,-56.2455C779.5819,-47.8943 795.2505,-35.7076 807.8079,-25.9408"/>
<polygon fill="#191970" stroke="#191970" points="810.1607,-28.5449 815.9055,-19.6427 805.8631,-23.0194 810.1607,-28.5449"/>
</g>
<!-- Node9 -->
<g id="node10" class="node">
<title>Node9</title>
<polygon fill="#ffffff" stroke="#bfbfbf" points="880.8032,-.5 880.8032,-19.5 919.8032,-19.5 919.8032,-.5 880.8032,-.5"/>
<text text-anchor="middle" x="900.3032" y="-7.5" font-family="Helvetica,sans-Serif" font-size="10.00" fill="#000000">cuda.h</text>
</g>
<!-- Node7&#45;&gt;Node9 -->
<g id="edge9" class="edge">
<title>Node7&#45;&gt;Node9</title>
<path fill="none" stroke="#191970" d="M780.0819,-56.7527C805.0153,-47.0564 844.2275,-31.8072 871.043,-21.379"/>
<polygon fill="#191970" stroke="#191970" points="872.6063,-24.5264 880.6578,-17.6399 870.0691,-18.0024 872.6063,-24.5264"/>
</g>
<!-- Node10 -->
<g id="node11" class="node">
<title>Node10</title>
<polygon fill="#ffffff" stroke="#bfbfbf" points="937.8032,-.5 937.8032,-19.5 994.8032,-19.5 994.8032,-.5 937.8032,-.5"/>
<text text-anchor="middle" x="966.3032" y="-7.5" font-family="Helvetica,sans-Serif" font-size="10.00" fill="#000000">cublas_v2.h</text>
</g>
<!-- Node7&#45;&gt;Node10 -->
<g id="edge10" class="edge">
<title>Node7&#45;&gt;Node10</title>
<path fill="none" stroke="#191970" d="M779.8163,-59.7805C811.3487,-51.4327 869.3326,-36.0579 927.8497,-20.3832"/>
<polygon fill="#191970" stroke="#191970" points="928.8701,-23.7333 937.6231,-17.7638 927.0579,-16.972 928.8701,-23.7333"/>
</g>
<!-- Node11 -->
<g id="node12" class="node">
<title>Node11</title>
<polygon fill="#ffffff" stroke="#bfbfbf" points="527.8032,-.5 527.8032,-19.5 578.8032,-19.5 578.8032,-.5 527.8032,-.5"/>
<text text-anchor="middle" x="553.3032" y="-7.5" font-family="Helvetica,sans-Serif" font-size="10.00" fill="#000000">execinfo.h</text>
</g>
<!-- Node7&#45;&gt;Node11 -->
<g id="edge11" class="edge">
<title>Node7&#45;&gt;Node11</title>
<path fill="none" stroke="#191970" d="M732.6317,-59.6069C701.8657,-51.2787 646.2248,-36.1524 588.8743,-20.1381"/>
<polygon fill="#191970" stroke="#191970" points="589.4814,-16.6736 578.9082,-17.351 587.596,-23.415 589.4814,-16.6736"/>
</g>
<!-- Node12 -->
<g id="node13" class="node">
<title>Node12</title>
<polygon fill="#ffffff" stroke="#bfbfbf" points="186.3032,-.5 186.3032,-19.5 228.3032,-19.5 228.3032,-.5 186.3032,-.5"/>
<text text-anchor="middle" x="207.3032" y="-7.5" font-family="Helvetica,sans-Serif" font-size="10.00" fill="#000000">signal.h</text>
</g>
<!-- Node7&#45;&gt;Node12 -->
<g id="edge13" class="edge">
<title>Node7&#45;&gt;Node12</title>
<path fill="none" stroke="#191970" d="M732.6703,-62.406C718.876,-60.3747 701.126,-57.8747 685.3032,-56 517.2257,-36.0859 315.1167,-18.8275 238.6555,-12.5366"/>
<polygon fill="#191970" stroke="#191970" points="238.5574,-9.017 228.3051,-11.689 237.986,-15.9936 238.5574,-9.017"/>
</g>
<!-- Node13 -->
<g id="node14" class="node">
<title>Node13</title>
<polygon fill="#ffffff" stroke="#bfbfbf" points="596.8032,-.5 596.8032,-19.5 639.8032,-19.5 639.8032,-.5 596.8032,-.5"/>
<text text-anchor="middle" x="618.3032" y="-7.5" font-family="Helvetica,sans-Serif" font-size="10.00" fill="#000000">assert.h</text>
</g>
<!-- Node7&#45;&gt;Node13 -->
<g id="edge14" class="edge">
<title>Node7&#45;&gt;Node13</title>
<path fill="none" stroke="#191970" d="M732.5801,-56.3733C709.5853,-47.042 674.5789,-32.8365 649.3717,-22.6075"/>
<polygon fill="#191970" stroke="#191970" points="650.4846,-19.282 639.9024,-18.7649 647.8525,-25.7683 650.4846,-19.282"/>
</g>
<!-- Node14 -->
<g id="node15" class="node">
<title>Node14</title>
<polygon fill="#ffffff" stroke="#bfbfbf" points="658.3032,-.5 658.3032,-19.5 718.3032,-19.5 718.3032,-.5 658.3032,-.5"/>
<text text-anchor="middle" x="688.3032" y="-7.5" font-family="Helvetica,sans-Serif" font-size="10.00" fill="#000000">nvToolsExt.h</text>
</g>
<!-- Node7&#45;&gt;Node14 -->
<g id="edge15" class="edge">
<title>Node7&#45;&gt;Node14</title>
<path fill="none" stroke="#191970" d="M744.4585,-56.2455C734.4152,-47.9746 719.8037,-35.9416 708.0028,-26.2232"/>
<polygon fill="#191970" stroke="#191970" points="709.9565,-23.298 700.0122,-19.6427 705.5065,-28.7015 709.9565,-23.298"/>
</g>
<!-- Node15 -->
<g id="node16" class="node">
<title>Node15</title>
<polygon fill="#ffffff" stroke="#bfbfbf" points="1074.3032,-.5 1074.3032,-19.5 1118.3032,-19.5 1118.3032,-.5 1074.3032,-.5"/>
<text text-anchor="middle" x="1096.3032" y="-7.5" font-family="Helvetica,sans-Serif" font-size="10.00" fill="#000000">complex</text>
</g>
<!-- Node7&#45;&gt;Node15 -->
<g id="edge16" class="edge">
<title>Node7&#45;&gt;Node15</title>
<path fill="none" stroke="#191970" d="M779.8207,-62.4175C792.4192,-60.5032 808.2059,-58.1122 822.3032,-56 927.1134,-40.2962 957.2382,-44.5675 1064.1789,-19.9631"/>
<polygon fill="#191970" stroke="#191970" points="1065.132,-23.3349 1074.0757,-17.6551 1063.5421,-16.5178 1065.132,-23.3349"/>
</g>
<!-- Node16 -->
<g id="node17" class="node">
<title>Node16</title>
<polygon fill="#ffffff" stroke="#bfbfbf" points="472.8032,-.5 472.8032,-19.5 509.8032,-19.5 509.8032,-.5 472.8032,-.5"/>
<text text-anchor="middle" x="491.3032" y="-7.5" font-family="Helvetica,sans-Serif" font-size="10.00" fill="#000000">vector</text>
</g>
<!-- Node7&#45;&gt;Node16 -->
<g id="edge17" class="edge">
<title>Node7&#45;&gt;Node16</title>
<path fill="none" stroke="#191970" d="M732.6563,-59.4708C727.919,-58.2494 722.9653,-57.0335 718.3032,-56 633.6383,-37.232 607.9342,-42.758 519.7402,-19.7347"/>
<polygon fill="#191970" stroke="#191970" points="520.4085,-16.2908 509.8448,-17.1017 518.6085,-23.0554 520.4085,-16.2908"/>
</g>
<!-- Node17 -->
<g id="node18" class="node">
<title>Node17</title>
<polygon fill="#ffffff" stroke="#bfbfbf" points="736.8032,-.5 736.8032,-19.5 775.8032,-19.5 775.8032,-.5 736.8032,-.5"/>
<text text-anchor="middle" x="756.3032" y="-7.5" font-family="Helvetica,sans-Serif" font-size="10.00" fill="#000000">stdio.h</text>
</g>
<!-- Node7&#45;&gt;Node17 -->
<g id="edge18" class="edge">
<title>Node7&#45;&gt;Node17</title>
<path fill="none" stroke="#191970" d="M756.3032,-56.2455C756.3032,-48.9382 756.3032,-38.6944 756.3032,-29.7046"/>
<polygon fill="#191970" stroke="#191970" points="759.8033,-29.6426 756.3032,-19.6427 752.8033,-29.6427 759.8033,-29.6426"/>
</g>
<!-- Node18&#45;&gt;Node15 -->
<g id="edge20" class="edge">
<title>Node18&#45;&gt;Node15</title>
<path fill="none" stroke="#191970" d="M972.0891,-56.3733C997.7523,-46.7923 1037.1796,-32.0728 1064.7092,-21.7951"/>
<polygon fill="#191970" stroke="#191970" points="1066.1216,-25.0038 1074.2659,-18.2273 1063.6733,-18.4459 1066.1216,-25.0038"/>
</g>
<!-- Node19&#45;&gt;Node7 -->
<g id="edge33" class="edge">
<title>Node19&#45;&gt;Node7</title>
<path fill="none" stroke="#191970" d="M362.0698,-118.2266C422.8447,-110.4992 565.5739,-92.2323 685.3032,-76 697.515,-74.3444 710.8999,-72.4738 722.7243,-70.802"/>
<polygon fill="#191970" stroke="#191970" points="723.2358,-74.2646 732.645,-69.3946 722.2525,-67.334 723.2358,-74.2646"/>
</g>
<!-- Node19&#45;&gt;Node12 -->
<g id="edge22" class="edge">
<title>Node19&#45;&gt;Node12</title>
<path fill="none" stroke="#191970" d="M302.7205,-120.0378C225.7435,-114.6328 23.8053,-98.428 4.3032,-76 -1.5294,-69.2923 -1.2444,-62.9453 4.3032,-56 25.411,-29.574 124.1838,-17.1994 175.7601,-12.4561"/>
<polygon fill="#191970" stroke="#191970" points="176.3487,-15.918 186.0046,-11.5575 175.737,-8.9448 176.3487,-15.918"/>
</g>
<!-- Node19&#45;&gt;Node16 -->
<g id="edge27" class="edge">
<title>Node19&#45;&gt;Node16</title>
<path fill="none" stroke="#191970" d="M302.5987,-119.54C231.1816,-113.326 54.4746,-96.0565 37.3032,-76 31.5222,-69.2477 31.343,-62.5946 37.3032,-56 65.8829,-24.3782 367.249,-13.4143 462.5694,-10.723"/>
<polygon fill="#191970" stroke="#191970" points="462.744,-14.2197 472.6447,-10.448 462.5529,-7.2223 462.744,-14.2197"/>
</g>
<!-- Node20 -->
<g id="node21" class="node">
<title>Node20</title>
<polygon fill="#ffffff" stroke="#bfbfbf" points="542.8032,-56.5 542.8032,-75.5 583.8032,-75.5 583.8032,-56.5 542.8032,-56.5"/>
<text text-anchor="middle" x="563.3032" y="-63.5" font-family="Helvetica,sans-Serif" font-size="10.00" fill="#000000">cassert</text>
</g>
<!-- Node19&#45;&gt;Node20 -->
<g id="edge23" class="edge">
<title>Node19&#45;&gt;Node20</title>
<path fill="none" stroke="#191970" d="M361.8209,-116.1782C399.3583,-108.5726 466.3248,-94.3299 532.9098,-75.8993"/>
<polygon fill="#191970" stroke="#191970" points="534.0418,-79.217 542.7275,-73.1499 532.1541,-72.4763 534.0418,-79.217"/>
</g>
<!-- Node21 -->
<g id="node22" class="node">
<title>Node21</title>
<polygon fill="#ffffff" stroke="#bfbfbf" points="480.3032,-56.5 480.3032,-75.5 524.3032,-75.5 524.3032,-56.5 480.3032,-56.5"/>
<text text-anchor="middle" x="502.3032" y="-63.5" font-family="Helvetica,sans-Serif" font-size="10.00" fill="#000000">memory</text>
</g>
<!-- Node19&#45;&gt;Node21 -->
<g id="edge24" class="edge">
<title>Node19&#45;&gt;Node21</title>
<path fill="none" stroke="#191970" d="M361.5272,-112.3733C391.9372,-102.3559 439.4001,-86.721 470.674,-76.419"/>
<polygon fill="#191970" stroke="#191970" points="471.814,-79.7286 480.2169,-73.2755 469.6239,-73.08 471.814,-79.7286"/>
</g>
<!-- Node22 -->
<g id="node23" class="node">
<title>Node22</title>
<polygon fill="#ffffff" stroke="#bfbfbf" points="46.8032,-56.5 46.8032,-75.5 81.8032,-75.5 81.8032,-56.5 46.8032,-56.5"/>
<text text-anchor="middle" x="64.3032" y="-63.5" font-family="Helvetica,sans-Serif" font-size="10.00" fill="#000000">string</text>
</g>
<!-- Node19&#45;&gt;Node22 -->
<g id="edge25" class="edge">
<title>Node19&#45;&gt;Node22</title>
<path fill="none" stroke="#191970" d="M302.4751,-118.0895C258.193,-111.9071 172.4084,-98.4852 91.857,-76.0894"/>
<polygon fill="#191970" stroke="#191970" points="92.6383,-72.673 82.0628,-73.3136 90.7295,-79.4078 92.6383,-72.673"/>
</g>
<!-- Node23 -->
<g id="node24" class="node">
<title>Node23</title>
<polygon fill="#ffffff" stroke="#bfbfbf" points="99.8032,-56.5 99.8032,-75.5 138.8032,-75.5 138.8032,-56.5 99.8032,-56.5"/>
<text text-anchor="middle" x="119.3032" y="-63.5" font-family="Helvetica,sans-Serif" font-size="10.00" fill="#000000">atomic</text>
</g>
<!-- Node19&#45;&gt;Node23 -->
<g id="edge26" class="edge">
<title>Node19&#45;&gt;Node23</title>
<path fill="none" stroke="#191970" d="M302.7713,-115.4525C268.1008,-107.5842 208.7076,-93.5412 148.5429,-75.8765"/>
<polygon fill="#191970" stroke="#191970" points="149.4664,-72.4997 138.8839,-73.0107 147.4753,-79.2106 149.4664,-72.4997"/>
</g>
<!-- Node24 -->
<g id="node25" class="node">
<title>Node24</title>
<polygon fill="#ffffff" stroke="#bfbfbf" points="157.3032,-56.5 157.3032,-75.5 191.3032,-75.5 191.3032,-56.5 157.3032,-56.5"/>
<text text-anchor="middle" x="174.3032" y="-63.5" font-family="Helvetica,sans-Serif" font-size="10.00" fill="#000000">array</text>
</g>
<!-- Node19&#45;&gt;Node24 -->
<g id="edge28" class="edge">
<title>Node19&#45;&gt;Node24</title>
<path fill="none" stroke="#191970" d="M304.1434,-112.477C279.2912,-104.009 241.8703,-91.105 200.9566,-76.167"/>
<polygon fill="#191970" stroke="#191970" points="201.9301,-72.7962 191.3365,-72.6404 199.5208,-79.3685 201.9301,-72.7962"/>
</g>
<!-- Node25 -->
<g id="node26" class="node">
<title>Node25</title>
<polygon fill="#ffffff" stroke="#bfbfbf" points="209.8032,-56.5 209.8032,-75.5 248.8032,-75.5 248.8032,-56.5 209.8032,-56.5"/>
<text text-anchor="middle" x="229.3032" y="-63.5" font-family="Helvetica,sans-Serif" font-size="10.00" fill="#000000">cstring</text>
</g>
<!-- Node19&#45;&gt;Node25 -->
<g id="edge29" class="edge">
<title>Node19&#45;&gt;Node25</title>
<path fill="none" stroke="#191970" d="M314.362,-112.2455C298.2632,-103.4928 274.4153,-90.527 256.0641,-80.5496"/>
<polygon fill="#191970" stroke="#191970" points="257.4961,-77.3444 247.0388,-75.6427 254.1525,-83.4942 257.4961,-77.3444"/>
</g>
<!-- Node26 -->
<g id="node27" class="node">
<title>Node26</title>
<polygon fill="#ffffff" stroke="#bfbfbf" points="266.8032,-56.5 266.8032,-75.5 325.8032,-75.5 325.8032,-56.5 266.8032,-56.5"/>
<text text-anchor="middle" x="296.3032" y="-63.5" font-family="Helvetica,sans-Serif" font-size="10.00" fill="#000000">initializer_list</text>
</g>
<!-- Node19&#45;&gt;Node26 -->
<g id="edge30" class="edge">
<title>Node19&#45;&gt;Node26</title>
<path fill="none" stroke="#191970" d="M326.0325,-112.2455C321.0768,-104.5367 314.0202,-93.5598 308.0256,-84.2348"/>
<polygon fill="#191970" stroke="#191970" points="310.8538,-82.1618 302.5021,-75.6427 304.9655,-85.9471 310.8538,-82.1618"/>
</g>
<!-- Node27 -->
<g id="node28" class="node">
<title>Node27</title>
<polygon fill="#ffffff" stroke="#bfbfbf" points="343.8032,-56.5 343.8032,-75.5 394.8032,-75.5 394.8032,-56.5 343.8032,-56.5"/>
<text text-anchor="middle" x="369.3032" y="-63.5" font-family="Helvetica,sans-Serif" font-size="10.00" fill="#000000">type_traits</text>
</g>
<!-- Node19&#45;&gt;Node27 -->
<g id="edge31" class="edge">
<title>Node19&#45;&gt;Node27</title>
<path fill="none" stroke="#191970" d="M338.7481,-112.2455C343.8414,-104.5367 351.094,-93.5598 357.2552,-84.2348"/>
<polygon fill="#191970" stroke="#191970" points="360.3397,-85.9155 362.9321,-75.6427 354.4993,-82.0566 360.3397,-85.9155"/>
</g>
<!-- Node28 -->
<g id="node29" class="node">
<title>Node28</title>
<polygon fill="#ffffff" stroke="#bfbfbf" points="412.8032,-56.5 412.8032,-75.5 461.8032,-75.5 461.8032,-56.5 412.8032,-56.5"/>
<text text-anchor="middle" x="437.3032" y="-63.5" font-family="Helvetica,sans-Serif" font-size="10.00" fill="#000000">functional</text>
</g>
<!-- Node19&#45;&gt;Node28 -->
<g id="edge32" class="edge">
<title>Node19&#45;&gt;Node28</title>
<path fill="none" stroke="#191970" d="M350.5928,-112.2455C367.0794,-103.4527 391.5383,-90.4079 410.2797,-80.4125"/>
<polygon fill="#191970" stroke="#191970" points="412.0467,-83.4368 419.2232,-75.6427 408.7526,-77.2604 412.0467,-83.4368"/>
</g>
<!-- Node30 -->
<g id="node31" class="node">
<title>Node30</title>
<g id="a_node31"><a xlink:href="../../d4/dd8/blacs__grid_8hpp.html" target="_top" xlink:title="Contains declaration and implementation of BLACS_grid class. ">
<polygon fill="#ffffff" stroke="#000000" points="579.8032,-224.5 579.8032,-243.5 644.8032,-243.5 644.8032,-224.5 579.8032,-224.5"/>
<text text-anchor="middle" x="612.3032" y="-231.5" font-family="Helvetica,sans-Serif" font-size="10.00" fill="#000000">blacs_grid.hpp</text>
</a>
</g>
</g>
<!-- Node29&#45;&gt;Node30 -->
<g id="edge35" class="edge">
<title>Node29&#45;&gt;Node30</title>
<path fill="none" stroke="#191970" d="M612.3032,-280.2455C612.3032,-272.9382 612.3032,-262.6944 612.3032,-253.7046"/>
<polygon fill="#191970" stroke="#191970" points="615.8033,-253.6426 612.3032,-243.6427 608.8033,-253.6427 615.8033,-253.6426"/>
</g>
<!-- Node36 -->
<g id="node37" class="node">
<title>Node36</title>
<g id="a_node37"><a xlink:href="../../d0/d86/splindex_8hpp.html" target="_top" xlink:title="Contains definition of splindex_base and specialization of splindex classes. ">
<polygon fill="#ffffff" stroke="#000000" points="773.8032,-224.5 773.8032,-243.5 832.8032,-243.5 832.8032,-224.5 773.8032,-224.5"/>
<text text-anchor="middle" x="803.3032" y="-231.5" font-family="Helvetica,sans-Serif" font-size="10.00" fill="#000000">splindex.hpp</text>
</a>
</g>
</g>
<!-- Node29&#45;&gt;Node36 -->
<g id="edge48" class="edge">
<title>Node29&#45;&gt;Node36</title>
<path fill="none" stroke="#191970" d="M640.4859,-281.737C673.1148,-272.1704 727.0752,-256.3496 763.8598,-245.5646"/>
<polygon fill="#191970" stroke="#191970" points="765.1362,-248.8377 773.7475,-242.6656 763.1667,-242.1205 765.1362,-248.8377"/>
</g>
<!-- Node29&#45;&gt;Node40 -->
<g id="edge53" class="edge">
<title>Node29&#45;&gt;Node40</title>
<path fill="none" stroke="#191970" d="M593.0497,-280.3733C575.232,-271.4644 548.5285,-258.1127 528.3438,-248.0203"/>
<polygon fill="#191970" stroke="#191970" points="529.815,-244.8428 519.3054,-243.5011 526.6845,-251.1038 529.815,-244.8428"/>
</g>
<!-- Node30&#45;&gt;Node21 -->
<g id="edge36" class="edge">
<title>Node30&#45;&gt;Node21</title>
<path fill="none" stroke="#191970" d="M603.0943,-224.1829C594.8311,-215.1398 582.6079,-201.1682 573.3032,-188 548.5686,-152.995 524.4907,-108.8746 511.7177,-84.434"/>
<polygon fill="#191970" stroke="#191970" points="514.8137,-82.8012 507.1098,-75.5279 508.5965,-86.0179 514.8137,-82.8012"/>
</g>
<!-- Node31 -->
<g id="node32" class="node">
<title>Node31</title>
<g id="a_node32"><a xlink:href="../../d1/d76/mpi__grid_8hpp.html" target="_top" xlink:title="Contains declaration and implementation of MPI_grid class. ">
<polygon fill="#ffffff" stroke="#000000" points="582.3032,-168.5 582.3032,-187.5 642.3032,-187.5 642.3032,-168.5 582.3032,-168.5"/>
<text text-anchor="middle" x="612.3032" y="-175.5" font-family="Helvetica,sans-Serif" font-size="10.00" fill="#000000">mpi_grid.hpp</text>
</a>
</g>
</g>
<!-- Node30&#45;&gt;Node31 -->
<g id="edge37" class="edge">
<title>Node30&#45;&gt;Node31</title>
<path fill="none" stroke="#191970" d="M612.3032,-224.2455C612.3032,-216.9382 612.3032,-206.6944 612.3032,-197.7046"/>
<polygon fill="#191970" stroke="#191970" points="615.8033,-197.6426 612.3032,-187.6427 608.8033,-197.6427 615.8033,-197.6426"/>
</g>
<!-- Node34 -->
<g id="node35" class="node">
<title>Node34</title>
<g id="a_node35"><a xlink:href="../../d2/dfd/linalg__base_8hpp.html" target="_top" xlink:title="Basic interface to linear algebra functions. ">
<polygon fill="#ffffff" stroke="#000000" points="698.8032,-168.5 698.8032,-187.5 767.8032,-187.5 767.8032,-168.5 698.8032,-168.5"/>
<text text-anchor="middle" x="733.3032" y="-175.5" font-family="Helvetica,sans-Serif" font-size="10.00" fill="#000000">linalg_base.hpp</text>
</a>
</g>
</g>
<!-- Node30&#45;&gt;Node34 -->
<g id="edge44" class="edge">
<title>Node30&#45;&gt;Node34</title>
<path fill="none" stroke="#191970" d="M633.1038,-224.3733C652.5275,-215.3838 681.7256,-201.8706 703.5996,-191.7471"/>
<polygon fill="#191970" stroke="#191970" points="705.1688,-194.8776 712.774,-187.5011 702.2287,-188.5249 705.1688,-194.8776"/>
</g>
<!-- Node32 -->
<g id="node33" class="node">
<title>Node32</title>
<g id="a_node33"><a xlink:href="../../d4/d32/communicator_8hpp.html" target="_top" xlink:title="Contains declaration and implementation of Communicator class. ">
<polygon fill="#ffffff" stroke="#000000" points="584.3032,-112.5 584.3032,-131.5 662.3032,-131.5 662.3032,-112.5 584.3032,-112.5"/>
<text text-anchor="middle" x="623.3032" y="-119.5" font-family="Helvetica,sans-Serif" font-size="10.00" fill="#000000">communicator.hpp</text>
</a>
</g>
</g>
<!-- Node31&#45;&gt;Node32 -->
<g id="edge38" class="edge">
<title>Node31&#45;&gt;Node32</title>
<path fill="none" stroke="#191970" d="M614.2192,-168.2455C615.6546,-160.9382 617.6668,-150.6944 619.4327,-141.7046"/>
<polygon fill="#191970" stroke="#191970" points="622.9159,-142.1298 621.4091,-131.6427 616.0472,-140.7805 622.9159,-142.1298"/>
</g>
<!-- Node32&#45;&gt;Node7 -->
<g id="edge43" class="edge">
<title>Node32&#45;&gt;Node7</title>
<path fill="none" stroke="#191970" d="M646.1667,-112.3733C667.7082,-103.3032 700.187,-89.6279 724.2988,-79.4755"/>
<polygon fill="#191970" stroke="#191970" points="725.8799,-82.6075 733.738,-75.5011 723.1634,-76.156 725.8799,-82.6075"/>
</g>
<!-- Node32&#45;&gt;Node15 -->
<g id="edge42" class="edge">
<title>Node32&#45;&gt;Node15</title>
<path fill="none" stroke="#191970" d="M662.6571,-112.7375C717.3042,-99.8947 819.2746,-76.0003 906.3032,-56 973.8836,-40.4692 993.7355,-39.2241 1064.2154,-20.1323"/>
<polygon fill="#191970" stroke="#191970" points="1065.3012,-23.464 1074.0237,-17.4499 1063.4546,-16.7119 1065.3012,-23.464"/>
</g>
<!-- Node32&#45;&gt;Node16 -->
<g id="edge41" class="edge">
<title>Node32&#45;&gt;Node16</title>
<path fill="none" stroke="#191970" d="M621.183,-112.2326C617.6607,-98.1272 609.3469,-71.9963 593.3032,-56 582.3859,-45.115 545.7962,-30.0446 519.5651,-20.1632"/>
<polygon fill="#191970" stroke="#191970" points="520.6871,-16.8464 510.0941,-16.6496 518.2523,-23.4093 520.6871,-16.8464"/>
</g>
<!-- Node32&#45;&gt;Node20 -->
<g id="edge40" class="edge">
<title>Node32&#45;&gt;Node20</title>
<path fill="none" stroke="#191970" d="M612.852,-112.2455C604.0763,-104.0549 591.3478,-92.1749 580.9892,-82.5069"/>
<polygon fill="#191970" stroke="#191970" points="583.3333,-79.9072 573.6346,-75.6427 578.5571,-85.0246 583.3333,-79.9072"/>
</g>
<!-- Node33 -->
<g id="node34" class="node">
<title>Node33</title>
<polygon fill="#ffffff" stroke="#bfbfbf" points="640.8032,-56.5 640.8032,-75.5 675.8032,-75.5 675.8032,-56.5 640.8032,-56.5"/>
<text text-anchor="middle" x="658.3032" y="-63.5" font-family="Helvetica,sans-Serif" font-size="10.00" fill="#000000">mpi.h</text>
</g>
<!-- Node32&#45;&gt;Node33 -->
<g id="edge39" class="edge">
<title>Node32&#45;&gt;Node33</title>
<path fill="none" stroke="#191970" d="M629.3997,-112.2455C634.2177,-104.5367 641.0783,-93.5598 646.9064,-84.2348"/>
<polygon fill="#191970" stroke="#191970" points="649.9445,-85.9777 652.2765,-75.6427 644.0085,-82.2677 649.9445,-85.9777"/>
</g>
<!-- Node34&#45;&gt;Node18 -->
<g id="edge45" class="edge">
<title>Node34&#45;&gt;Node18</title>
<path fill="none" stroke="#191970" d="M749.9384,-168.2863C772.6329,-155.1289 814.6682,-131.0938 851.3032,-112 872.8905,-100.7489 897.6551,-88.7879 916.4865,-79.8833"/>
<polygon fill="#191970" stroke="#191970" points="918.1877,-82.951 925.745,-75.5254 915.2066,-76.6175 918.1877,-82.951"/>
</g>
<!-- Node35 -->
<g id="node36" class="node">
<title>Node35</title>
<g id="a_node36"><a xlink:href="../../d3/ddb/scalapack_8h_source.html" target="_top" xlink:title="scalapack.h">
<polygon fill="#ffffff" stroke="#000000" points="860.3032,-112.5 860.3032,-131.5 916.3032,-131.5 916.3032,-112.5 860.3032,-112.5"/>
<text text-anchor="middle" x="888.3032" y="-119.5" font-family="Helvetica,sans-Serif" font-size="10.00" fill="#000000">scalapack.h</text>
</a>
</g>
</g>
<!-- Node34&#45;&gt;Node35 -->
<g id="edge46" class="edge">
<title>Node34&#45;&gt;Node35</title>
<path fill="none" stroke="#191970" d="M759.9486,-168.3733C785.4996,-159.1419 824.2544,-145.1402 852.4941,-134.9375"/>
<polygon fill="#191970" stroke="#191970" points="853.7897,-138.1909 862.0054,-131.5011 851.4111,-131.6074 853.7897,-138.1909"/>
</g>
<!-- Node35&#45;&gt;Node18 -->
<g id="edge47" class="edge">
<title>Node35&#45;&gt;Node18</title>
<path fill="none" stroke="#191970" d="M898.406,-112.2455C906.806,-104.1352 918.9526,-92.4075 928.9116,-82.7919"/>
<polygon fill="#191970" stroke="#191970" points="931.5532,-85.1066 936.3161,-75.6427 926.691,-80.0707 931.5532,-85.1066"/>
</g>
<!-- Node36&#45;&gt;Node16 -->
<g id="edge50" class="edge">
<title>Node36&#45;&gt;Node16</title>
<path fill="none" stroke="#191970" d="M773.7244,-230.8154C747.0746,-226.2252 709.2602,-215.0639 690.3032,-188 656.6213,-139.9142 723.0142,-100.9955 685.3032,-56 638.8,-.514 595.5823,-37.4135 519.7782,-19.6063"/>
<polygon fill="#191970" stroke="#191970" points="520.4308,-16.1592 509.8702,-17.0098 518.6562,-22.9306 520.4308,-16.1592"/>
</g>
<!-- Node37 -->
<g id="node38" class="node">
<title>Node37</title>
<polygon fill="#ffffff" stroke="#bfbfbf" points="838.8032,-168.5 838.8032,-187.5 885.8032,-187.5 885.8032,-168.5 838.8032,-168.5"/>
<text text-anchor="middle" x="862.3032" y="-175.5" font-family="Helvetica,sans-Serif" font-size="10.00" fill="#000000">algorithm</text>
</g>
<!-- Node36&#45;&gt;Node37 -->
<g id="edge49" class="edge">
<title>Node36&#45;&gt;Node37</title>
<path fill="none" stroke="#191970" d="M813.5802,-224.2455C822.125,-216.1352 834.481,-204.4075 844.6117,-194.7919"/>
<polygon fill="#191970" stroke="#191970" points="847.3004,-197.0655 852.1439,-187.6427 842.4814,-191.9884 847.3004,-197.0655"/>
</g>
<!-- Node38 -->
<g id="node39" class="node">
<title>Node38</title>
<polygon fill="#ffffff" stroke="#bfbfbf" points="903.8032,-168.5 903.8032,-187.5 946.8032,-187.5 946.8032,-168.5 903.8032,-168.5"/>
<text text-anchor="middle" x="925.3032" y="-175.5" font-family="Helvetica,sans-Serif" font-size="10.00" fill="#000000">sstream</text>
</g>
<!-- Node36&#45;&gt;Node38 -->
<g id="edge51" class="edge">
<title>Node36&#45;&gt;Node38</title>
<path fill="none" stroke="#191970" d="M824.2757,-224.3733C843.8599,-215.3838 873.2993,-201.8706 895.3542,-191.7471"/>
<polygon fill="#191970" stroke="#191970" points="896.9761,-194.8538 904.6043,-187.5011 894.0559,-188.4919 896.9761,-194.8538"/>
</g>
<!-- Node39 -->
<g id="node40" class="node">
<title>Node39</title>
<polygon fill="#ffffff" stroke="#bfbfbf" points="786.3032,-168.5 786.3032,-187.5 820.3032,-187.5 820.3032,-168.5 786.3032,-168.5"/>
<text text-anchor="middle" x="803.3032" y="-175.5" font-family="Helvetica,sans-Serif" font-size="10.00" fill="#000000">limits</text>
</g>
<!-- Node36&#45;&gt;Node39 -->
<g id="edge52" class="edge">
<title>Node36&#45;&gt;Node39</title>
<path fill="none" stroke="#191970" d="M803.3032,-224.2455C803.3032,-216.9382 803.3032,-206.6944 803.3032,-197.7046"/>
<polygon fill="#191970" stroke="#191970" points="806.8033,-197.6426 803.3032,-187.6427 799.8033,-197.6427 806.8033,-197.6426"/>
</g>
<!-- Node40&#45;&gt;Node19 -->
<g id="edge56" class="edge">
<title>Node40&#45;&gt;Node19</title>
<path fill="none" stroke="#191970" d="M503.0662,-224.2746C506.4197,-210.2215 510.1593,-184.1552 497.3032,-168 481.7458,-148.4503 415.5267,-134.7466 371.8533,-127.637"/>
<polygon fill="#191970" stroke="#191970" points="372.2453,-124.1556 361.822,-126.0546 371.1545,-131.0701 372.2453,-124.1556"/>
</g>
<!-- Node41 -->
<g id="node42" class="node">
<title>Node41</title>
<polygon fill="#ffffff" stroke="#bfbfbf" points="390.3032,-168.5 390.3032,-187.5 432.3032,-187.5 432.3032,-168.5 390.3032,-168.5"/>
<text text-anchor="middle" x="411.3032" y="-175.5" font-family="Helvetica,sans-Serif" font-size="10.00" fill="#000000">fstream</text>
</g>
<!-- Node40&#45;&gt;Node41 -->
<g id="edge54" class="edge">
<title>Node40&#45;&gt;Node41</title>
<path fill="none" stroke="#191970" d="M484.8006,-224.2455C471.1452,-215.6534 451.0375,-203.0014 435.3043,-193.1018"/>
<polygon fill="#191970" stroke="#191970" points="436.9561,-190.006 426.6282,-187.6427 433.2281,-195.9307 436.9561,-190.006"/>
</g>
<!-- Node42 -->
<g id="node43" class="node">
<title>Node42</title>
<polygon fill="#ffffff" stroke="#bfbfbf" points="450.8032,-168.5 450.8032,-187.5 487.8032,-187.5 487.8032,-168.5 450.8032,-168.5"/>
<text text-anchor="middle" x="469.3032" y="-175.5" font-family="Helvetica,sans-Serif" font-size="10.00" fill="#000000">hdf5.h</text>
</g>
<!-- Node40&#45;&gt;Node42 -->
<g id="edge55" class="edge">
<title>Node40&#45;&gt;Node42</title>
<path fill="none" stroke="#191970" d="M494.9034,-224.2455C490.6805,-216.617 484.6859,-205.7881 479.5591,-196.5267"/>
<polygon fill="#191970" stroke="#191970" points="482.5464,-194.6965 474.6411,-187.6427 476.4222,-198.0867 482.5464,-194.6965"/>
</g>
<!-- Node43&#45;&gt;Node3 -->
<g id="edge60" class="edge">
<title>Node43&#45;&gt;Node3</title>
<path fill="none" stroke="#191970" d="M625.5162,-392.2455C623.4055,-384.8579 620.4372,-374.4689 617.8485,-365.4087"/>
<polygon fill="#191970" stroke="#191970" points="621.1709,-364.2964 615.0582,-355.6427 614.4402,-366.2195 621.1709,-364.2964"/>
</g>
<!-- Node44 -->
<g id="node45" class="node">
<title>Node44</title>
<g id="a_node45"><a xlink:href="../../d2/d6f/constants_8h.html" target="_top" xlink:title="Various constants. ">
<polygon fill="#ffffff" stroke="#000000" points="1071.8032,-280.5 1071.8032,-299.5 1126.8032,-299.5 1126.8032,-280.5 1071.8032,-280.5"/>
<text text-anchor="middle" x="1099.3032" y="-287.5" font-family="Helvetica,sans-Serif" font-size="10.00" fill="#000000">constants.h</text>
</a>
</g>
</g>
<!-- Node43&#45;&gt;Node44 -->
<g id="edge58" class="edge">
<title>Node43&#45;&gt;Node44</title>
<path fill="none" stroke="#191970" d="M643.8773,-392.3332C672.1675,-374.8469 730.0318,-339.4439 740.3032,-336 873.0676,-291.4857 915.1604,-322.9014 1053.3032,-300 1056.0067,-299.5518 1058.7911,-299.0495 1061.589,-298.5149"/>
<polygon fill="#191970" stroke="#191970" points="1062.5519,-301.891 1071.6587,-296.4766 1061.1631,-295.0302 1062.5519,-301.891"/>
</g>
<!-- Node45 -->
<g id="node46" class="node">
<title>Node45</title>
<polygon fill="#ffffff" stroke="#bfbfbf" points="748.8032,-336.5 748.8032,-355.5 821.8032,-355.5 821.8032,-336.5 748.8032,-336.5"/>
<text text-anchor="middle" x="785.3032" y="-343.5" font-family="Helvetica,sans-Serif" font-size="10.00" fill="#000000">elpa_constants.h</text>
</g>
<!-- Node43&#45;&gt;Node45 -->
<g id="edge61" class="edge">
<title>Node43&#45;&gt;Node45</title>
<path fill="none" stroke="#191970" d="M655.2925,-392.3733C681.1731,-383.1419 720.428,-369.1402 749.0321,-358.9375"/>
<polygon fill="#191970" stroke="#191970" points="750.4232,-362.1573 758.6661,-355.5011 748.0715,-355.5642 750.4232,-362.1573"/>
</g>
<!-- Node46 -->
<g id="node47" class="node">
<title>Node46</title>
<g id="a_node47"><a xlink:href="../../d2/da7/elpa_8h_source.html" target="_top" xlink:title="elpa.h">
<polygon fill="#ffffff" stroke="#000000" points="654.8032,-336.5 654.8032,-355.5 691.8032,-355.5 691.8032,-336.5 654.8032,-336.5"/>
<text text-anchor="middle" x="673.3032" y="-343.5" font-family="Helvetica,sans-Serif" font-size="10.00" fill="#000000">elpa.h</text>
</a>
</g>
</g>
<!-- Node43&#45;&gt;Node46 -->
<g id="edge62" class="edge">
<title>Node43&#45;&gt;Node46</title>
<path fill="none" stroke="#191970" d="M636.1416,-392.2455C642.4652,-384.3761 651.5256,-373.101 659.1168,-363.6542"/>
<polygon fill="#191970" stroke="#191970" points="662.019,-365.6302 665.5546,-355.6427 656.5624,-361.2454 662.019,-365.6302"/>
</g>
<!-- Node44&#45;&gt;Node15 -->
<g id="edge59" class="edge">
<title>Node44&#45;&gt;Node15</title>
<path fill="none" stroke="#191970" d="M1099.5897,-280.4127C1100.1428,-261.0567 1101.3032,-215.9227 1101.3032,-178 1101.3032,-178 1101.3032,-178 1101.3032,-122 1101.3032,-89.6794 1099.1995,-52.1646 1097.7212,-29.7929"/>
<polygon fill="#191970" stroke="#191970" points="1101.1969,-29.3185 1097.0196,-19.5819 1094.2134,-29.7984 1101.1969,-29.3185"/>
</g>
</g>
</svg>
