<?xml version="1.0" encoding="UTF-8" standalone="no"?>
<!DOCTYPE svg PUBLIC "-//W3C//DTD SVG 1.1//EN"
 "http://www.w3.org/Graphics/SVG/1.1/DTD/svg11.dtd">
<!-- Generated by graphviz version 2.40.1 (20161225.0304)
 -->
<!-- Title: dmatrix.hpp Pages: 1 -->
<svg width="660pt" height="1260pt"
 viewBox="0.00 0.00 660.00 1260.00" xmlns="http://www.w3.org/2000/svg" xmlns:xlink="http://www.w3.org/1999/xlink">
<g id="graph0" class="graph" transform="scale(1 1) rotate(0) translate(4 1256)">
<title>dmatrix.hpp</title>
<polygon fill="#ffffff" stroke="transparent" points="-4,4 -4,-1256 656,-1256 656,4 -4,4"/>
<!-- Node37 -->
<g id="node1" class="node">
<title>Node37</title>
<polygon fill="#bfbfbf" stroke="#000000" points="176.5,-1232.5 176.5,-1251.5 245.5,-1251.5 245.5,-1232.5 176.5,-1232.5"/>
<text text-anchor="middle" x="211" y="-1239.5" font-family="Helvetica,sans-Serif" font-size="10.00" fill="#000000">dmatrix.hpp</text>
</g>
<!-- Node38 -->
<g id="node2" class="node">
<title>Node38</title>
<g id="a_node2"><a xlink:href="../../d6/dc7/linalg_8hpp.html" target="_top" xlink:title="Linear algebra interface. ">
<polygon fill="#ffffff" stroke="#000000" points="257.5,-1176.5 257.5,-1195.5 316.5,-1195.5 316.5,-1176.5 257.5,-1176.5"/>
<text text-anchor="middle" x="287" y="-1183.5" font-family="Helvetica,sans-Serif" font-size="10.00" fill="#000000">linalg.hpp</text>
</a>
</g>
</g>
<!-- Node37&#45;&gt;Node38 -->
<g id="edge1" class="edge">
<title>Node37&#45;&gt;Node38</title>
<path fill="none" stroke="#191970" d="M232.4297,-1226.2097C245.7777,-1216.3743 262.5179,-1204.0394 273.9135,-1195.6427"/>
<polygon fill="#191970" stroke="#191970" points="230.2126,-1223.4958 224.2382,-1232.2455 234.365,-1229.1312 230.2126,-1223.4958"/>
</g>
<!-- Node63 -->
<g id="node27" class="node">
<title>Node63</title>
<g id="a_node27"><a xlink:href="../../db/d5a/sddk_8hpp.html" target="_top" xlink:title="Main include file for SDDK library. ">
<polygon fill="#ffffff" stroke="#000000" points="154.5,-1008.5 154.5,-1027.5 211.5,-1027.5 211.5,-1008.5 154.5,-1008.5"/>
<text text-anchor="middle" x="183" y="-1015.5" font-family="Helvetica,sans-Serif" font-size="10.00" fill="#000000">sddk.hpp</text>
</a>
</g>
</g>
<!-- Node37&#45;&gt;Node63 -->
<g id="edge62" class="edge">
<title>Node37&#45;&gt;Node63</title>
<path fill="none" stroke="#191970" d="M208.2325,-1222.4522C204.048,-1192.6248 195.9668,-1133.9459 190,-1084 187.6217,-1064.0922 185.2426,-1040.7562 183.9625,-1027.8491"/>
<polygon fill="#191970" stroke="#191970" points="204.7721,-1222.9789 209.6329,-1232.3928 211.7036,-1222.0023 204.7721,-1222.9789"/>
</g>
<!-- Node39 -->
<g id="node3" class="node">
<title>Node39</title>
<g id="a_node3"><a xlink:href="../../d1/d99/eigenproblem_8h.html" target="_top" xlink:title="Contains definition and implementaiton of various eigenvalue solver interfaces. ">
<polygon fill="#ffffff" stroke="#000000" points="280.5,-1120.5 280.5,-1139.5 365.5,-1139.5 365.5,-1120.5 280.5,-1120.5"/>
<text text-anchor="middle" x="323" y="-1127.5" font-family="Helvetica,sans-Serif" font-size="10.00" fill="#000000">eigenproblem.h</text>
</a>
</g>
</g>
<!-- Node38&#45;&gt;Node39 -->
<g id="edge2" class="edge">
<title>Node38&#45;&gt;Node39</title>
<path fill="none" stroke="#191970" d="M298.8096,-1167.6296C304.8144,-1158.2887 311.8659,-1147.3197 316.8011,-1139.6427"/>
<polygon fill="#191970" stroke="#191970" points="295.7342,-1165.9411 293.2707,-1176.2455 301.6225,-1169.7264 295.7342,-1165.9411"/>
</g>
<!-- Node60 -->
<g id="node24" class="node">
<title>Node60</title>
<g id="a_node24"><a xlink:href="../../d7/de9/wave__functions_8hpp.html" target="_top" xlink:title="Contains declaration and implementation of Wave_functions class. ">
<polygon fill="#ffffff" stroke="#000000" points="199.5,-1064.5 199.5,-1083.5 304.5,-1083.5 304.5,-1064.5 199.5,-1064.5"/>
<text text-anchor="middle" x="252" y="-1071.5" font-family="Helvetica,sans-Serif" font-size="10.00" fill="#000000">wave_functions.hpp</text>
</a>
</g>
</g>
<!-- Node38&#45;&gt;Node60 -->
<g id="edge61" class="edge">
<title>Node38&#45;&gt;Node60</title>
<path fill="none" stroke="#191970" d="M280.046,-1166.7601C277.1463,-1158.5489 273.8073,-1148.8394 271,-1140 264.7199,-1120.2261 258.1993,-1096.842 254.6664,-1083.8903"/>
<polygon fill="#191970" stroke="#191970" points="276.7512,-1167.9412 283.4108,-1176.1813 283.3434,-1165.5867 276.7512,-1167.9412"/>
</g>
<!-- Node68 -->
<g id="node32" class="node">
<title>Node68</title>
<g id="a_node32"><a xlink:href="../../d0/db9/sht_8hpp.html" target="_top" xlink:title="Contains declaration and particular implementation of sirius::SHT class. ">
<polygon fill="#ffffff" stroke="#000000" points="544.5,-840.5 544.5,-859.5 593.5,-859.5 593.5,-840.5 544.5,-840.5"/>
<text text-anchor="middle" x="569" y="-847.5" font-family="Helvetica,sans-Serif" font-size="10.00" fill="#000000">sht.hpp</text>
</a>
</g>
</g>
<!-- Node38&#45;&gt;Node68 -->
<g id="edge56" class="edge">
<title>Node38&#45;&gt;Node68</title>
<path fill="none" stroke="#191970" d="M326.891,-1176.147C395.1333,-1158.1146 527,-1117.6259 527,-1074 527,-1074 527,-1074 527,-962 527,-921.9203 550.8717,-878.6153 562.6211,-859.7285"/>
<polygon fill="#191970" stroke="#191970" points="325.7072,-1172.8384 316.9109,-1178.7439 327.47,-1179.6128 325.7072,-1172.8384"/>
</g>
<!-- Node40 -->
<g id="node4" class="node">
<title>Node40</title>
<g id="a_node4"><a xlink:href="../../d6/d50/atom__symmetry__class_8hpp.html" target="_top" xlink:title="Contains declaration and partial implementation of sirius::Atom_symmetry_class class. ">
<polygon fill="#ffffff" stroke="#000000" points="322.5,-784.5 322.5,-803.5 457.5,-803.5 457.5,-784.5 322.5,-784.5"/>
<text text-anchor="middle" x="390" y="-791.5" font-family="Helvetica,sans-Serif" font-size="10.00" fill="#000000">atom_symmetry_class.hpp</text>
</a>
</g>
</g>
<!-- Node39&#45;&gt;Node40 -->
<g id="edge3" class="edge">
<title>Node39&#45;&gt;Node40</title>
<path fill="none" stroke="#191970" d="M358.3839,-1116.1866C395.3446,-1099.1626 448,-1066.4139 448,-1018 448,-1018 448,-1018 448,-906 448,-863.9577 415.375,-821.9788 399.0625,-803.6171"/>
<polygon fill="#191970" stroke="#191970" points="356.6345,-1113.1329 348.9001,-1120.3737 359.4618,-1119.5366 356.6345,-1113.1329"/>
</g>
<!-- Node39&#45;&gt;Node60 -->
<g id="edge36" class="edge">
<title>Node39&#45;&gt;Node60</title>
<path fill="none" stroke="#191970" d="M302.623,-1113.928C290.2129,-1104.1397 274.77,-1091.9595 264.2255,-1083.6427"/>
<polygon fill="#191970" stroke="#191970" points="300.6136,-1116.8007 310.6327,-1120.2455 304.9486,-1111.3046 300.6136,-1116.8007"/>
</g>
<!-- Node41 -->
<g id="node5" class="node">
<title>Node41</title>
<g id="a_node5"><a xlink:href="../../de/d6d/atom_8hpp.html" target="_top" xlink:title="Contains declaration and partial implementation of sirius::Atom class. ">
<polygon fill="#ffffff" stroke="#000000" points="402,-728.5 402,-747.5 460,-747.5 460,-728.5 402,-728.5"/>
<text text-anchor="middle" x="431" y="-735.5" font-family="Helvetica,sans-Serif" font-size="10.00" fill="#000000">atom.hpp</text>
</a>
</g>
</g>
<!-- Node40&#45;&gt;Node41 -->
<g id="edge4" class="edge">
<title>Node40&#45;&gt;Node41</title>
<path fill="none" stroke="#191970" d="M403.2364,-775.9209C410.1211,-766.5176 418.2609,-755.3997 423.9402,-747.6427"/>
<polygon fill="#191970" stroke="#191970" points="400.2251,-774.1093 397.1417,-784.2455 405.8731,-778.2445 400.2251,-774.1093"/>
</g>
<!-- Node42 -->
<g id="node6" class="node">
<title>Node42</title>
<g id="a_node6"><a xlink:href="../../d4/d91/unit__cell_8hpp.html" target="_top" xlink:title="Contains definition and partial implementation of sirius::Unit_cell class. ">
<polygon fill="#ffffff" stroke="#000000" points="322.5,-672.5 322.5,-691.5 395.5,-691.5 395.5,-672.5 322.5,-672.5"/>
<text text-anchor="middle" x="359" y="-679.5" font-family="Helvetica,sans-Serif" font-size="10.00" fill="#000000">unit_cell.hpp</text>
</a>
</g>
</g>
<!-- Node41&#45;&gt;Node42 -->
<g id="edge5" class="edge">
<title>Node41&#45;&gt;Node42</title>
<path fill="none" stroke="#191970" d="M410.336,-721.928C397.7511,-712.1397 382.0908,-699.9595 371.3977,-691.6427"/>
<polygon fill="#191970" stroke="#191970" points="408.4162,-724.8688 418.4586,-728.2455 412.7138,-719.3434 408.4162,-724.8688"/>
</g>
<!-- Node43 -->
<g id="node7" class="node">
<title>Node43</title>
<g id="a_node7"><a xlink:href="../../d4/df7/radial__integrals_8hpp.html" target="_top" xlink:title="Representation of various radial integrals. ">
<polygon fill="#ffffff" stroke="#000000" points="284,-560.5 284,-579.5 388,-579.5 388,-560.5 284,-560.5"/>
<text text-anchor="middle" x="336" y="-567.5" font-family="Helvetica,sans-Serif" font-size="10.00" fill="#000000">radial_integrals.hpp</text>
</a>
</g>
</g>
<!-- Node42&#45;&gt;Node43 -->
<g id="edge6" class="edge">
<title>Node42&#45;&gt;Node43</title>
<path fill="none" stroke="#191970" d="M367.4823,-662.8197C372.1971,-649.4466 376.1676,-631.3259 371,-616 366.1906,-601.7366 355.0009,-588.3952 346.559,-579.7924"/>
<polygon fill="#191970" stroke="#191970" points="364.1234,-661.7962 363.7019,-672.3827 370.6332,-664.3697 364.1234,-661.7962"/>
</g>
<!-- Node59 -->
<g id="node23" class="node">
<title>Node59</title>
<g id="a_node23"><a xlink:href="../../d1/d2b/sbessel_8hpp.html" target="_top" xlink:title="Contains implementation of sirius::Spherical_Bessel_functions classe. ">
<polygon fill="#ffffff" stroke="#000000" points="292,-616.5 292,-635.5 362,-635.5 362,-616.5 292,-616.5"/>
<text text-anchor="middle" x="327" y="-623.5" font-family="Helvetica,sans-Serif" font-size="10.00" fill="#000000">sbessel.hpp</text>
</a>
</g>
</g>
<!-- Node42&#45;&gt;Node59 -->
<g id="edge34" class="edge">
<title>Node42&#45;&gt;Node59</title>
<path fill="none" stroke="#191970" d="M348.3355,-663.3372C343.0346,-654.0605 336.8513,-643.2398 332.5101,-635.6427"/>
<polygon fill="#191970" stroke="#191970" points="345.4257,-665.2996 353.426,-672.2455 351.5034,-661.8266 345.4257,-665.2996"/>
</g>
<!-- Node44 -->
<g id="node8" class="node">
<title>Node44</title>
<g id="a_node8"><a xlink:href="../../d3/d1c/augmentation__operator_8hpp.html" target="_top" xlink:title="Contains implementation of sirius::Augmentation_operator class. ">
<polygon fill="#ffffff" stroke="#000000" points="360.5,-504.5 360.5,-523.5 499.5,-523.5 499.5,-504.5 360.5,-504.5"/>
<text text-anchor="middle" x="430" y="-511.5" font-family="Helvetica,sans-Serif" font-size="10.00" fill="#000000">augmentation_operator.hpp</text>
</a>
</g>
</g>
<!-- Node43&#45;&gt;Node44 -->
<g id="edge7" class="edge">
<title>Node43&#45;&gt;Node44</title>
<path fill="none" stroke="#191970" d="M361.1005,-555.0465C377.826,-545.0824 399.3168,-532.2794 413.8141,-523.6427"/>
<polygon fill="#191970" stroke="#191970" points="359.1732,-552.1206 352.3736,-560.2455 362.7559,-558.1343 359.1732,-552.1206"/>
</g>
<!-- Node51 -->
<g id="node15" class="node">
<title>Node51</title>
<g id="a_node15"><a xlink:href="../../d1/db8/simulation__context_8hpp.html" target="_top" xlink:title="Contains definition and implementation of Simulation_context class. ">
<polygon fill="#ffffff" stroke="#000000" points="273.5,-448.5 273.5,-467.5 392.5,-467.5 392.5,-448.5 273.5,-448.5"/>
<text text-anchor="middle" x="333" y="-455.5" font-family="Helvetica,sans-Serif" font-size="10.00" fill="#000000">simulation_context.hpp</text>
</a>
</g>
</g>
<!-- Node43&#45;&gt;Node51 -->
<g id="edge33" class="edge">
<title>Node43&#45;&gt;Node51</title>
<path fill="none" stroke="#191970" d="M335.4715,-550.2702C334.8214,-525.9985 333.7439,-485.7725 333.2551,-467.5249"/>
<polygon fill="#191970" stroke="#191970" points="331.9776,-550.5483 335.7442,-560.4509 338.9751,-550.3608 331.9776,-550.5483"/>
</g>
<!-- Node52 -->
<g id="node16" class="node">
<title>Node52</title>
<g id="a_node16"><a xlink:href="../../db/d74/hubbard_8hpp.html" target="_top" xlink:title="Contains declaration and partial implementation of sirius::Hubbard class. ">
<polygon fill="#ffffff" stroke="#000000" points="209.5,-392.5 209.5,-411.5 282.5,-411.5 282.5,-392.5 209.5,-392.5"/>
<text text-anchor="middle" x="246" y="-399.5" font-family="Helvetica,sans-Serif" font-size="10.00" fill="#000000">hubbard.hpp</text>
</a>
</g>
</g>
<!-- Node43&#45;&gt;Node52 -->
<g id="edge32" class="edge">
<title>Node43&#45;&gt;Node52</title>
<path fill="none" stroke="#191970" d="M320.8478,-552.6327C304.6387,-533.2273 279.2149,-500.2801 264,-468 255.0878,-449.0919 249.9221,-424.9871 247.5638,-411.7681"/>
<polygon fill="#191970" stroke="#191970" points="318.232,-554.9595 327.3754,-560.3119 323.5655,-550.4258 318.232,-554.9595"/>
</g>
<!-- Node45 -->
<g id="node9" class="node">
<title>Node45</title>
<g id="a_node9"><a xlink:href="../../d5/d72/non__local__functor_8hpp.html" target="_top" xlink:title="Common operation for forces and stress tensor. ">
<polygon fill="#ffffff" stroke="#000000" points="508.5,-336.5 508.5,-355.5 623.5,-355.5 623.5,-336.5 508.5,-336.5"/>
<text text-anchor="middle" x="566" y="-343.5" font-family="Helvetica,sans-Serif" font-size="10.00" fill="#000000">non_local_functor.hpp</text>
</a>
</g>
</g>
<!-- Node44&#45;&gt;Node45 -->
<g id="edge8" class="edge">
<title>Node44&#45;&gt;Node45</title>
<path fill="none" stroke="#191970" d="M458.3078,-499.3481C471.7911,-491.3819 487.4525,-480.5832 499,-468 531.8402,-432.2144 554.4145,-377.414 562.5986,-355.5187"/>
<polygon fill="#191970" stroke="#191970" points="456.3725,-496.4218 449.3985,-504.3977 459.8242,-502.5117 456.3725,-496.4218"/>
</g>
<!-- Node50 -->
<g id="node14" class="node">
<title>Node50</title>
<g id="a_node14"><a xlink:href="../../d6/d1e/force_8hpp.html" target="_top" xlink:title="Contains defintion and implementation of sirius::Force class. ">
<polygon fill="#ffffff" stroke="#000000" points="451,-280.5 451,-299.5 509,-299.5 509,-280.5 451,-280.5"/>
<text text-anchor="middle" x="480" y="-287.5" font-family="Helvetica,sans-Serif" font-size="10.00" fill="#000000">force.hpp</text>
</a>
</g>
</g>
<!-- Node44&#45;&gt;Node50 -->
<g id="edge15" class="edge">
<title>Node44&#45;&gt;Node50</title>
<path fill="none" stroke="#191970" d="M438.1304,-495.0745C446.4597,-474.8791 459.1327,-441.7616 466,-412 475.4909,-370.8681 478.6754,-320.381 479.6313,-299.6154"/>
<polygon fill="#191970" stroke="#191970" points="434.8711,-493.7962 434.2243,-504.3713 441.3247,-496.5077 434.8711,-493.7962"/>
</g>
<!-- Node44&#45;&gt;Node51 -->
<g id="edge16" class="edge">
<title>Node44&#45;&gt;Node51</title>
<path fill="none" stroke="#191970" d="M404.0984,-499.0465C386.8391,-489.0824 364.6624,-476.2794 349.7025,-467.6427"/>
<polygon fill="#191970" stroke="#191970" points="402.6936,-502.2768 413.1039,-504.2455 406.1935,-496.2146 402.6936,-502.2768"/>
</g>
<!-- Node46 -->
<g id="node10" class="node">
<title>Node46</title>
<g id="a_node10"><a xlink:href="../../d7/dd1/stress_8hpp.html" target="_top" xlink:title="Stress tensor calculation. ">
<polygon fill="#ffffff" stroke="#000000" points="531.5,-280.5 531.5,-299.5 594.5,-299.5 594.5,-280.5 531.5,-280.5"/>
<text text-anchor="middle" x="563" y="-287.5" font-family="Helvetica,sans-Serif" font-size="10.00" fill="#000000">stress.hpp</text>
</a>
</g>
</g>
<!-- Node45&#45;&gt;Node46 -->
<g id="edge9" class="edge">
<title>Node45&#45;&gt;Node46</title>
<path fill="none" stroke="#191970" d="M564.937,-326.1575C564.4547,-317.155 563.9064,-306.9199 563.5166,-299.6427"/>
<polygon fill="#191970" stroke="#191970" points="561.4474,-326.4471 565.4774,-336.2455 568.4374,-326.0726 561.4474,-326.4471"/>
</g>
<!-- Node45&#45;&gt;Node50 -->
<g id="edge13" class="edge">
<title>Node45&#45;&gt;Node50</title>
<path fill="none" stroke="#191970" d="M542.6095,-330.769C527.3701,-320.8456 507.9491,-308.1994 494.8084,-299.6427"/>
<polygon fill="#191970" stroke="#191970" points="540.7301,-333.7218 551.0199,-336.2455 544.5498,-327.8558 540.7301,-333.7218"/>
</g>
<!-- Node47 -->
<g id="node11" class="node">
<title>Node47</title>
<g id="a_node11"><a xlink:href="../../df/dc4/dft__ground__state_8hpp.html" target="_top" xlink:title="Contains definition and partial implementation of sirius::DFT_ground_state class. ...">
<polygon fill="#ffffff" stroke="#000000" points="424.5,-224.5 424.5,-243.5 535.5,-243.5 535.5,-224.5 424.5,-224.5"/>
<text text-anchor="middle" x="480" y="-231.5" font-family="Helvetica,sans-Serif" font-size="10.00" fill="#000000">dft_ground_state.hpp</text>
</a>
</g>
</g>
<!-- Node46&#45;&gt;Node47 -->
<g id="edge10" class="edge">
<title>Node46&#45;&gt;Node47</title>
<path fill="none" stroke="#191970" d="M540.012,-274.49C525.3678,-264.6096 506.8556,-252.1194 494.2918,-243.6427"/>
<polygon fill="#191970" stroke="#191970" points="538.2953,-277.5539 548.5425,-280.2455 542.2104,-271.7511 538.2953,-277.5539"/>
</g>
<!-- Node48 -->
<g id="node12" class="node">
<title>Node48</title>
<g id="a_node12"><a xlink:href="../../dd/dc2/sirius_8h.html" target="_top" xlink:title="&quot;All&#45;in&#45;one&quot; include file. ">
<polygon fill="#ffffff" stroke="#000000" points="166,-56.5 166,-75.5 214,-75.5 214,-56.5 166,-56.5"/>
<text text-anchor="middle" x="190" y="-63.5" font-family="Helvetica,sans-Serif" font-size="10.00" fill="#000000">sirius.h</text>
</a>
</g>
</g>
<!-- Node47&#45;&gt;Node48 -->
<g id="edge11" class="edge">
<title>Node47&#45;&gt;Node48</title>
<path fill="none" stroke="#191970" d="M464.7314,-216.7821C451.3422,-202.4165 430.8125,-182.0883 410,-168 344.2825,-123.5147 256.0649,-89.2387 214.1127,-74.2562"/>
<polygon fill="#191970" stroke="#191970" points="462.4114,-219.4322 471.7377,-224.4592 467.5819,-214.7134 462.4114,-219.4322"/>
</g>
<!-- Node49 -->
<g id="node13" class="node">
<title>Node49</title>
<g id="a_node13"><a xlink:href="../../d4/d53/sirius__api_8cpp.html" target="_top" xlink:title="Fortran API. ">
<polygon fill="#ffffff" stroke="#000000" points="151,-.5 151,-19.5 229,-19.5 229,-.5 151,-.5"/>
<text text-anchor="middle" x="190" y="-7.5" font-family="Helvetica,sans-Serif" font-size="10.00" fill="#000000">sirius_api.cpp</text>
</a>
</g>
</g>
<!-- Node48&#45;&gt;Node49 -->
<g id="edge12" class="edge">
<title>Node48&#45;&gt;Node49</title>
<path fill="none" stroke="#191970" d="M190,-46.1575C190,-37.155 190,-26.9199 190,-19.6427"/>
<polygon fill="#191970" stroke="#191970" points="186.5001,-46.2455 190,-56.2455 193.5001,-46.2456 186.5001,-46.2455"/>
</g>
<!-- Node50&#45;&gt;Node47 -->
<g id="edge14" class="edge">
<title>Node50&#45;&gt;Node47</title>
<path fill="none" stroke="#191970" d="M480,-270.1575C480,-261.155 480,-250.9199 480,-243.6427"/>
<polygon fill="#191970" stroke="#191970" points="476.5001,-270.2455 480,-280.2455 483.5001,-270.2456 476.5001,-270.2455"/>
</g>
<!-- Node51&#45;&gt;Node52 -->
<g id="edge17" class="edge">
<title>Node51&#45;&gt;Node52</title>
<path fill="none" stroke="#191970" d="M309.3375,-442.769C293.9209,-432.8456 274.274,-420.1994 260.9806,-411.6427"/>
<polygon fill="#191970" stroke="#191970" points="307.5427,-445.7761 317.8458,-448.2455 311.3315,-439.89 307.5427,-445.7761"/>
</g>
<!-- Node53 -->
<g id="node17" class="node">
<title>Node53</title>
<g id="a_node17"><a xlink:href="../../de/dec/hamiltonian_8hpp.html" target="_top" xlink:title="Contains declaration and definition of sirius::Hamiltonian class. ">
<polygon fill="#ffffff" stroke="#000000" points="146.5,-168.5 146.5,-187.5 233.5,-187.5 233.5,-168.5 146.5,-168.5"/>
<text text-anchor="middle" x="190" y="-175.5" font-family="Helvetica,sans-Serif" font-size="10.00" fill="#000000">hamiltonian.hpp</text>
</a>
</g>
</g>
<!-- Node51&#45;&gt;Node53 -->
<g id="edge22" class="edge">
<title>Node51&#45;&gt;Node53</title>
<path fill="none" stroke="#191970" d="M333.6861,-438.0086C335.3443,-384.5089 338.5604,-240.9663 326,-224 314.7287,-208.775 268.8968,-195.4129 233.5185,-187.0689"/>
<polygon fill="#191970" stroke="#191970" points="330.1802,-438.1367 333.3531,-448.2453 337.1765,-438.3644 330.1802,-438.1367"/>
</g>
<!-- Node55 -->
<g id="node19" class="node">
<title>Node55</title>
<g id="a_node19"><a xlink:href="../../d3/d6a/periodic__function_8hpp.html" target="_top" xlink:title="Contains declaration and partial implementation of sirius::Periodic_function class. ">
<polygon fill="#ffffff" stroke="#000000" points="345,-392.5 345,-411.5 457,-411.5 457,-392.5 345,-392.5"/>
<text text-anchor="middle" x="401" y="-399.5" font-family="Helvetica,sans-Serif" font-size="10.00" fill="#000000">periodic_function.hpp</text>
</a>
</g>
</g>
<!-- Node51&#45;&gt;Node55 -->
<g id="edge23" class="edge">
<title>Node51&#45;&gt;Node55</title>
<path fill="none" stroke="#191970" d="M352.8596,-441.645C364.6858,-431.9058 379.2892,-419.8795 389.291,-411.6427"/>
<polygon fill="#191970" stroke="#191970" points="350.339,-439.1867 344.8447,-448.2455 354.789,-444.5902 350.339,-439.1867"/>
</g>
<!-- Node52&#45;&gt;Node47 -->
<g id="edge18" class="edge">
<title>Node52&#45;&gt;Node47</title>
<path fill="none" stroke="#191970" d="M267.6003,-386.4921C315.1683,-352.3407 427.8176,-271.4643 466.604,-243.6177"/>
<polygon fill="#191970" stroke="#191970" points="265.3333,-383.811 259.2513,-392.4862 269.4158,-389.4973 265.3333,-383.811"/>
</g>
<!-- Node52&#45;&gt;Node53 -->
<g id="edge19" class="edge">
<title>Node52&#45;&gt;Node53</title>
<path fill="none" stroke="#191970" d="M210.3584,-387.8715C196.5862,-380.5111 182.1956,-370.0554 174,-356 141.1791,-299.7125 172.9716,-215.9932 185.4567,-187.724"/>
<polygon fill="#191970" stroke="#191970" points="209.1933,-391.1991 219.7106,-392.4788 212.2868,-384.9198 209.1933,-391.1991"/>
</g>
<!-- Node54 -->
<g id="node18" class="node">
<title>Node54</title>
<g id="a_node18"><a xlink:href="../../da/d3d/band_8hpp.html" target="_top" xlink:title="Contains declaration and partial implementation of sirius::Band class. ">
<polygon fill="#ffffff" stroke="#000000" points="161,-112.5 161,-131.5 219,-131.5 219,-112.5 161,-112.5"/>
<text text-anchor="middle" x="190" y="-119.5" font-family="Helvetica,sans-Serif" font-size="10.00" fill="#000000">band.hpp</text>
</a>
</g>
</g>
<!-- Node53&#45;&gt;Node54 -->
<g id="edge20" class="edge">
<title>Node53&#45;&gt;Node54</title>
<path fill="none" stroke="#191970" d="M190,-158.1575C190,-149.155 190,-138.9199 190,-131.6427"/>
<polygon fill="#191970" stroke="#191970" points="186.5001,-158.2455 190,-168.2455 193.5001,-158.2456 186.5001,-158.2455"/>
</g>
<!-- Node54&#45;&gt;Node48 -->
<g id="edge21" class="edge">
<title>Node54&#45;&gt;Node48</title>
<path fill="none" stroke="#191970" d="M190,-102.1575C190,-93.155 190,-82.9199 190,-75.6427"/>
<polygon fill="#191970" stroke="#191970" points="186.5001,-102.2455 190,-112.2455 193.5001,-102.2456 186.5001,-102.2455"/>
</g>
<!-- Node55&#45;&gt;Node45 -->
<g id="edge30" class="edge">
<title>Node55&#45;&gt;Node45</title>
<path fill="none" stroke="#191970" d="M439.1356,-389.057C469.3325,-378.8084 510.8163,-364.729 538.0056,-355.5011"/>
<polygon fill="#191970" stroke="#191970" points="437.7091,-385.845 429.3645,-392.3733 439.9589,-392.4736 437.7091,-385.845"/>
</g>
<!-- Node55&#45;&gt;Node50 -->
<g id="edge31" class="edge">
<title>Node55&#45;&gt;Node50</title>
<path fill="none" stroke="#191970" d="M413.5475,-384.2111C430.4847,-360.1989 460.061,-318.2679 473.2816,-299.5249"/>
<polygon fill="#191970" stroke="#191970" points="410.6394,-382.2618 407.7355,-392.4509 416.3596,-386.2966 410.6394,-382.2618"/>
</g>
<!-- Node55&#45;&gt;Node54 -->
<g id="edge24" class="edge">
<title>Node55&#45;&gt;Node54</title>
<path fill="none" stroke="#191970" d="M399.582,-382.2071C398.1037,-359.8354 396,-322.3206 396,-290 396,-290 396,-290 396,-234 396,-154.4158 275.8619,-131.0662 219.0779,-124.4748"/>
<polygon fill="#191970" stroke="#191970" points="396.1063,-382.6815 400.2836,-392.4181 403.0898,-382.2016 396.1063,-382.6815"/>
</g>
<!-- Node56 -->
<g id="node20" class="node">
<title>Node56</title>
<g id="a_node20"><a xlink:href="../../d0/d9a/density_8hpp.html" target="_top" xlink:title="Contains definition and partial implementation of sirius::Density class. ">
<polygon fill="#ffffff" stroke="#000000" points="183,-336.5 183,-355.5 251,-355.5 251,-336.5 183,-336.5"/>
<text text-anchor="middle" x="217" y="-343.5" font-family="Helvetica,sans-Serif" font-size="10.00" fill="#000000">density.hpp</text>
</a>
</g>
</g>
<!-- Node55&#45;&gt;Node56 -->
<g id="edge25" class="edge">
<title>Node55&#45;&gt;Node56</title>
<path fill="none" stroke="#191970" d="M359.7843,-389.4561C326.0084,-379.1765 278.9337,-364.8494 248.218,-355.5011"/>
<polygon fill="#191970" stroke="#191970" points="358.7834,-392.8099 369.3693,-392.3733 360.8216,-386.1132 358.7834,-392.8099"/>
</g>
<!-- Node57 -->
<g id="node21" class="node">
<title>Node57</title>
<g id="a_node21"><a xlink:href="../../de/df2/potential_8hpp.html" target="_top" xlink:title="Contains declaration and partial implementation of sirius::Potential class. ">
<polygon fill="#ffffff" stroke="#000000" points="180,-280.5 180,-299.5 254,-299.5 254,-280.5 180,-280.5"/>
<text text-anchor="middle" x="217" y="-287.5" font-family="Helvetica,sans-Serif" font-size="10.00" fill="#000000">potential.hpp</text>
</a>
</g>
</g>
<!-- Node56&#45;&gt;Node57 -->
<g id="edge26" class="edge">
<title>Node56&#45;&gt;Node57</title>
<path fill="none" stroke="#191970" d="M217,-326.1575C217,-317.155 217,-306.9199 217,-299.6427"/>
<polygon fill="#191970" stroke="#191970" points="213.5001,-326.2455 217,-336.2455 220.5001,-326.2456 213.5001,-326.2455"/>
</g>
<!-- Node57&#45;&gt;Node53 -->
<g id="edge27" class="edge">
<title>Node57&#45;&gt;Node53</title>
<path fill="none" stroke="#191970" d="M212.3229,-270.5987C206.4804,-246.363 196.7151,-205.8551 192.2962,-187.5249"/>
<polygon fill="#191970" stroke="#191970" points="208.9518,-271.5497 214.698,-280.4509 215.7569,-269.9092 208.9518,-271.5497"/>
</g>
<!-- Node58 -->
<g id="node22" class="node">
<title>Node58</title>
<g id="a_node22"><a xlink:href="../../d3/d2c/local__operator_8hpp.html" target="_top" xlink:title="Contains declaration and implementation of sirius::Local_operator class. ">
<polygon fill="#ffffff" stroke="#000000" points="218.5,-224.5 218.5,-243.5 317.5,-243.5 317.5,-224.5 218.5,-224.5"/>
<text text-anchor="middle" x="268" y="-231.5" font-family="Helvetica,sans-Serif" font-size="10.00" fill="#000000">local_operator.hpp</text>
</a>
</g>
</g>
<!-- Node57&#45;&gt;Node58 -->
<g id="edge28" class="edge">
<title>Node57&#45;&gt;Node58</title>
<path fill="none" stroke="#191970" d="M232.6749,-272.7884C241.3994,-263.2085 251.9354,-251.6396 259.2183,-243.6427"/>
<polygon fill="#191970" stroke="#191970" points="230.0291,-270.4954 225.8835,-280.2455 235.2046,-275.2088 230.0291,-270.4954"/>
</g>
<!-- Node58&#45;&gt;Node53 -->
<g id="edge29" class="edge">
<title>Node58&#45;&gt;Node53</title>
<path fill="none" stroke="#191970" d="M246.0064,-218.2097C232.3071,-208.3743 215.1264,-196.0394 203.4309,-187.6427"/>
<polygon fill="#191970" stroke="#191970" points="244.2489,-221.2566 254.4134,-224.2455 248.3314,-215.5703 244.2489,-221.2566"/>
</g>
<!-- Node59&#45;&gt;Node43 -->
<g id="edge35" class="edge">
<title>Node59&#45;&gt;Node43</title>
<path fill="none" stroke="#191970" d="M330.189,-606.1575C331.6358,-597.155 333.2807,-586.9199 334.4503,-579.6427"/>
<polygon fill="#191970" stroke="#191970" points="326.6989,-605.8168 328.5677,-616.2455 333.6102,-606.9276 326.6989,-605.8168"/>
</g>
<!-- Node60&#45;&gt;Node52 -->
<g id="edge44" class="edge">
<title>Node60&#45;&gt;Node52</title>
<path fill="none" stroke="#191970" d="M247.9524,-1054.1171C236.8953,-999.769 207,-852.5864 207,-850 207,-850 207,-850 207,-514 207,-474.2621 229.1666,-430.7836 240.0767,-411.7906"/>
<polygon fill="#191970" stroke="#191970" points="244.5844,-1055.1188 250.0083,-1064.2199 251.4438,-1053.7228 244.5844,-1055.1188"/>
</g>
<!-- Node61 -->
<g id="node25" class="node">
<title>Node61</title>
<g id="a_node25"><a xlink:href="../../d3/d9a/k__point_8hpp.html" target="_top" xlink:title="Contains definition and partial implementation of sirius::K_point class. ">
<polygon fill="#ffffff" stroke="#000000" points="89,-448.5 89,-467.5 157,-467.5 157,-448.5 89,-448.5"/>
<text text-anchor="middle" x="123" y="-455.5" font-family="Helvetica,sans-Serif" font-size="10.00" fill="#000000">k_point.hpp</text>
</a>
</g>
</g>
<!-- Node60&#45;&gt;Node61 -->
<g id="edge37" class="edge">
<title>Node60&#45;&gt;Node61</title>
<path fill="none" stroke="#191970" d="M189.4719,-1067.7319C126.3106,-1057.5404 38,-1030.9605 38,-962 38,-962 38,-962 38,-626 38,-559.3178 91.9758,-492.2287 113.9035,-467.7251"/>
<polygon fill="#191970" stroke="#191970" points="188.9644,-1071.1948 199.3756,-1069.2308 190.012,-1064.2737 188.9644,-1071.1948"/>
</g>
<!-- Node60&#45;&gt;Node63 -->
<g id="edge45" class="edge">
<title>Node60&#45;&gt;Node63</title>
<path fill="none" stroke="#191970" d="M232.197,-1057.928C220.1364,-1048.1397 205.1286,-1035.9595 194.8812,-1027.6427"/>
<polygon fill="#191970" stroke="#191970" points="230.0109,-1060.6614 239.9811,-1064.2455 234.4221,-1055.2262 230.0109,-1060.6614"/>
</g>
<!-- Node61&#45;&gt;Node52 -->
<g id="edge42" class="edge">
<title>Node61&#45;&gt;Node52</title>
<path fill="none" stroke="#191970" d="M153.5065,-444.1109C175.8112,-433.9559 205.4799,-420.4482 225.1315,-411.5011"/>
<polygon fill="#191970" stroke="#191970" points="151.7953,-441.0442 144.1445,-448.3733 154.6959,-447.415 151.7953,-441.0442"/>
</g>
<!-- Node61&#45;&gt;Node53 -->
<g id="edge43" class="edge">
<title>Node61&#45;&gt;Node53</title>
<path fill="none" stroke="#191970" d="M108.8407,-439.9387C103.3812,-431.8664 97.7878,-421.9416 95,-412 92.6,-403.4412 93.3012,-400.725 95,-392 111.3922,-307.8114 165.2999,-217.0244 183.7453,-187.7085"/>
<polygon fill="#191970" stroke="#191970" points="106.0952,-442.1151 114.7911,-448.1677 111.7676,-438.0134 106.0952,-442.1151"/>
</g>
<!-- Node62 -->
<g id="node26" class="node">
<title>Node62</title>
<g id="a_node26"><a xlink:href="../../d3/de4/k__point__set_8hpp.html" target="_top" xlink:title="Contains declaration and partial implementation of sirius::K_point_set class. ">
<polygon fill="#ffffff" stroke="#000000" points="104.5,-392.5 104.5,-411.5 191.5,-411.5 191.5,-392.5 104.5,-392.5"/>
<text text-anchor="middle" x="148" y="-399.5" font-family="Helvetica,sans-Serif" font-size="10.00" fill="#000000">k_point_set.hpp</text>
</a>
</g>
</g>
<!-- Node61&#45;&gt;Node62 -->
<g id="edge38" class="edge">
<title>Node61&#45;&gt;Node62</title>
<path fill="none" stroke="#191970" d="M131.4626,-439.0437C135.5745,-429.8331 140.3394,-419.1598 143.6952,-411.6427"/>
<polygon fill="#191970" stroke="#191970" points="128.2352,-437.6874 127.3547,-448.2455 134.6272,-440.541 128.2352,-437.6874"/>
</g>
<!-- Node62&#45;&gt;Node47 -->
<g id="edge41" class="edge">
<title>Node62&#45;&gt;Node47</title>
<path fill="none" stroke="#191970" d="M183.6945,-388.8754C205.9912,-380.3027 235.0948,-368.425 260,-356 319.2025,-326.4644 329.9296,-311.7036 388,-280 412.2943,-266.7365 440.8962,-252.671 459.6834,-243.637"/>
<polygon fill="#191970" stroke="#191970" points="182.3822,-385.6298 174.2788,-392.4551 184.8699,-392.1729 182.3822,-385.6298"/>
</g>
<!-- Node62&#45;&gt;Node54 -->
<g id="edge39" class="edge">
<title>Node62&#45;&gt;Node54</title>
<path fill="none" stroke="#191970" d="M141.2896,-382.2882C128.2766,-340.535 103.6853,-241.0273 137,-168 144.2818,-152.0379 160.1411,-139.4785 172.6242,-131.5442"/>
<polygon fill="#191970" stroke="#191970" points="138.0372,-383.6052 144.4513,-392.0379 144.6958,-381.4458 138.0372,-383.6052"/>
</g>
<!-- Node62&#45;&gt;Node56 -->
<g id="edge40" class="edge">
<title>Node62&#45;&gt;Node56</title>
<path fill="none" stroke="#191970" d="M167.803,-385.928C179.8636,-376.1397 194.8714,-363.9595 205.1188,-355.6427"/>
<polygon fill="#191970" stroke="#191970" points="165.5779,-383.2262 160.0189,-392.2455 169.9891,-388.6614 165.5779,-383.2262"/>
</g>
<!-- Node63&#45;&gt;Node41 -->
<g id="edge53" class="edge">
<title>Node63&#45;&gt;Node41</title>
<path fill="none" stroke="#191970" d="M219.9865,-1004.8547C262.2954,-988.5738 332.1449,-957.7904 382,-916 429.8903,-875.8565 447.0704,-863.2267 467,-804 474.1597,-782.7228 455.4476,-760.2434 442.3969,-747.7821"/>
<polygon fill="#191970" stroke="#191970" points="218.4843,-1001.6807 210.3665,-1008.4889 220.9581,-1008.229 218.4843,-1001.6807"/>
</g>
<!-- Node63&#45;&gt;Node48 -->
<g id="edge55" class="edge">
<title>Node63&#45;&gt;Node48</title>
<path fill="none" stroke="#191970" d="M144.5257,-1012.0427C90.8498,-1001.2978 0,-973.1875 0,-906 0,-906 0,-906 0,-178 0,-101.8017 114.81,-76.3905 165.9364,-68.8521"/>
<polygon fill="#191970" stroke="#191970" points="143.9303,-1015.492 154.4063,-1013.9096 145.23,-1008.6137 143.9303,-1015.492"/>
</g>
<!-- Node64 -->
<g id="node28" class="node">
<title>Node64</title>
<g id="a_node28"><a xlink:href="../../dd/d46/input_8hpp.html" target="_top" xlink:title="Contains input parameters structures. ">
<polygon fill="#ffffff" stroke="#000000" points="160,-952.5 160,-971.5 218,-971.5 218,-952.5 160,-952.5"/>
<text text-anchor="middle" x="189" y="-959.5" font-family="Helvetica,sans-Serif" font-size="10.00" fill="#000000">input.hpp</text>
</a>
</g>
</g>
<!-- Node63&#45;&gt;Node64 -->
<g id="edge46" class="edge">
<title>Node63&#45;&gt;Node64</title>
<path fill="none" stroke="#191970" d="M185.126,-998.1575C186.0905,-989.155 187.1872,-978.9199 187.9669,-971.6427"/>
<polygon fill="#191970" stroke="#191970" points="181.6305,-997.9296 184.0451,-1008.2455 188.5906,-998.6753 181.6305,-997.9296"/>
</g>
<!-- Node67 -->
<g id="node31" class="node">
<title>Node67</title>
<g id="a_node31"><a xlink:href="../../d4/dde/sddk__api_8cpp.html" target="_top" xlink:title="Fortran interface for the SDDK library. ">
<polygon fill="#ffffff" stroke="#000000" points="66.5,-952.5 66.5,-971.5 141.5,-971.5 141.5,-952.5 66.5,-952.5"/>
<text text-anchor="middle" x="104" y="-959.5" font-family="Helvetica,sans-Serif" font-size="10.00" fill="#000000">sddk_api.cpp</text>
</a>
</g>
</g>
<!-- Node63&#45;&gt;Node67 -->
<g id="edge54" class="edge">
<title>Node63&#45;&gt;Node67</title>
<path fill="none" stroke="#191970" d="M160.7244,-1002.2097C146.8495,-992.3743 129.4485,-980.0394 117.6031,-971.6427"/>
<polygon fill="#191970" stroke="#191970" points="159.0569,-1005.3178 169.2393,-1008.2455 163.1051,-999.6071 159.0569,-1005.3178"/>
</g>
<!-- Node64&#45;&gt;Node48 -->
<g id="edge52" class="edge">
<title>Node64&#45;&gt;Node48</title>
<path fill="none" stroke="#191970" d="M158.2342,-947.9047C124.7737,-930.2126 76,-896.4561 76,-850 76,-850 76,-850 76,-626 76,-549.4471 38,-534.5529 38,-458 38,-458 38,-458 38,-178 38,-115.2283 123.0553,-83.6966 165.9151,-71.7924"/>
<polygon fill="#191970" stroke="#191970" points="156.7117,-951.057 167.2125,-952.466 159.8823,-944.8162 156.7117,-951.057"/>
</g>
<!-- Node65 -->
<g id="node29" class="node">
<title>Node65</title>
<g id="a_node29"><a xlink:href="../../de/d06/simulation__parameters_8hpp.html" target="_top" xlink:title="Contains definition and implementation of sirius::Simulation_parameters_base class. ">
<polygon fill="#ffffff" stroke="#000000" points="235.5,-896.5 235.5,-915.5 372.5,-915.5 372.5,-896.5 235.5,-896.5"/>
<text text-anchor="middle" x="304" y="-903.5" font-family="Helvetica,sans-Serif" font-size="10.00" fill="#000000">simulation_parameters.hpp</text>
</a>
</g>
</g>
<!-- Node64&#45;&gt;Node65 -->
<g id="edge47" class="edge">
<title>Node64&#45;&gt;Node65</title>
<path fill="none" stroke="#191970" d="M217.8033,-947.9741C238.625,-937.8348 266.1978,-924.408 284.4888,-915.5011"/>
<polygon fill="#191970" stroke="#191970" points="216.2276,-944.8484 208.7692,-952.3733 219.2922,-951.1419 216.2276,-944.8484"/>
</g>
<!-- Node65&#45;&gt;Node42 -->
<g id="edge51" class="edge">
<title>Node65&#45;&gt;Node42</title>
<path fill="none" stroke="#191970" d="M303.3614,-886.1938C303.0501,-861.7743 304.0661,-819.1858 313,-784 322.0833,-748.2261 343.0223,-709.3681 353.2153,-691.7098"/>
<polygon fill="#191970" stroke="#191970" points="299.8651,-886.406 303.583,-896.327 306.8634,-886.2529 299.8651,-886.406"/>
</g>
<!-- Node65&#45;&gt;Node51 -->
<g id="edge48" class="edge">
<title>Node65&#45;&gt;Node51</title>
<path fill="none" stroke="#191970" d="M290.9145,-888.0403C276.7017,-866.7218 256,-829.5659 256,-794 256,-794 256,-794 256,-626 256,-560.2273 305.3763,-492.0636 325.0497,-467.515"/>
<polygon fill="#191970" stroke="#191970" points="288.1387,-890.1798 296.7098,-896.4077 293.8933,-886.1941 288.1387,-890.1798"/>
</g>
<!-- Node66 -->
<g id="node30" class="node">
<title>Node66</title>
<g id="a_node30"><a xlink:href="../../db/df7/atom__type_8hpp.html" target="_top" xlink:title="Contains declaration and implementation of sirius::Atom_type class. ">
<polygon fill="#ffffff" stroke="#000000" points="329.5,-840.5 329.5,-859.5 412.5,-859.5 412.5,-840.5 329.5,-840.5"/>
<text text-anchor="middle" x="371" y="-847.5" font-family="Helvetica,sans-Serif" font-size="10.00" fill="#000000">atom_type.hpp</text>
</a>
</g>
</g>
<!-- Node65&#45;&gt;Node66 -->
<g id="edge49" class="edge">
<title>Node65&#45;&gt;Node66</title>
<path fill="none" stroke="#191970" d="M323.5676,-889.645C335.2198,-879.9058 349.6084,-867.8795 359.4632,-859.6427"/>
<polygon fill="#191970" stroke="#191970" points="321.0988,-887.1469 315.6705,-896.2455 325.5879,-892.5179 321.0988,-887.1469"/>
</g>
<!-- Node66&#45;&gt;Node40 -->
<g id="edge50" class="edge">
<title>Node66&#45;&gt;Node40</title>
<path fill="none" stroke="#191970" d="M377.5315,-830.7493C380.6336,-821.6064 384.2051,-811.0798 386.7284,-803.6427"/>
<polygon fill="#191970" stroke="#191970" points="374.2082,-829.6512 374.3095,-840.2455 380.837,-831.9003 374.2082,-829.6512"/>
</g>
<!-- Node68&#45;&gt;Node48 -->
<g id="edge60" class="edge">
<title>Node68&#45;&gt;Node48</title>
<path fill="none" stroke="#191970" d="M597.5851,-835.228C610.0819,-827.4641 623.929,-816.8701 633,-804 650.5852,-779.0498 652,-768.5246 652,-738 652,-738 652,-738 652,-178 652,-87.0089 309.2486,-69.6729 214.1886,-66.6147"/>
<polygon fill="#191970" stroke="#191970" points="595.6672,-832.2952 588.8117,-840.3732 599.2083,-838.3335 595.6672,-832.2952"/>
</g>
<!-- Node69 -->
<g id="node33" class="node">
<title>Node69</title>
<g id="a_node33"><a xlink:href="../../d0/df9/spheric__function_8hpp.html" target="_top" xlink:title="Contains declaration and implementation of sirius::Spheric_function and sirius::Spheric_function_grad...">
<polygon fill="#ffffff" stroke="#000000" points="514.5,-784.5 514.5,-803.5 623.5,-803.5 623.5,-784.5 514.5,-784.5"/>
<text text-anchor="middle" x="569" y="-791.5" font-family="Helvetica,sans-Serif" font-size="10.00" fill="#000000">spheric_function.hpp</text>
</a>
</g>
</g>
<!-- Node68&#45;&gt;Node69 -->
<g id="edge57" class="edge">
<title>Node68&#45;&gt;Node69</title>
<path fill="none" stroke="#191970" d="M569,-830.1575C569,-821.155 569,-810.9199 569,-803.6427"/>
<polygon fill="#191970" stroke="#191970" points="565.5001,-830.2455 569,-840.2455 572.5001,-830.2456 565.5001,-830.2455"/>
</g>
<!-- Node69&#45;&gt;Node41 -->
<g id="edge58" class="edge">
<title>Node69&#45;&gt;Node41</title>
<path fill="none" stroke="#191970" d="M535.7787,-780.5189C510.646,-770.3201 476.7582,-756.5685 454.4135,-747.5011"/>
<polygon fill="#191970" stroke="#191970" points="534.6947,-783.8562 545.277,-784.3733 537.3269,-777.3699 534.6947,-783.8562"/>
</g>
<!-- Node69&#45;&gt;Node55 -->
<g id="edge59" class="edge">
<title>Node69&#45;&gt;Node55</title>
<path fill="none" stroke="#191970" d="M557.6592,-775.4826C545.5245,-753.8688 528,-716.6556 528,-682 528,-682 528,-682 528,-514 528,-460.7901 464.5136,-426.8343 427.3145,-411.5053"/>
<polygon fill="#191970" stroke="#191970" points="554.7114,-777.3757 562.773,-784.2504 560.7581,-773.8489 554.7114,-777.3757"/>
</g>
</g>
</svg>
