<?xml version="1.0" encoding="UTF-8" standalone="no"?>
<!DOCTYPE svg PUBLIC "-//W3C//DTD SVG 1.1//EN"
 "http://www.w3.org/Graphics/SVG/1.1/DTD/svg11.dtd">
<!-- Generated by graphviz version 2.40.1 (20161225.0304)
 -->
<!-- Title: nlohmann::detail::is_constructible_string_type_impl&lt; BasicJsonType, ConstructibleStringType, typename &gt; Pages: 1 -->
<svg width="440pt" height="72pt"
 viewBox="0.00 0.00 440.00 72.00" xmlns="http://www.w3.org/2000/svg" xmlns:xlink="http://www.w3.org/1999/xlink">
<g id="graph0" class="graph" transform="scale(1 1) rotate(0) translate(4 68)">
<title>nlohmann::detail::is_constructible_string_type_impl&lt; BasicJsonType, ConstructibleStringType, typename &gt;</title>
<polygon fill="#ffffff" stroke="transparent" points="-4,4 -4,-68 436,-68 436,4 -4,4"/>
<!-- Node1 -->
<g id="node1" class="node">
<title>Node1</title>
<g id="a_node1"><a xlink:title=" ">
<polygon fill="#bfbfbf" stroke="#000000" points="117,-.5 117,-63.5 261,-63.5 261,-.5 117,-.5"/>
<text text-anchor="start" x="125" y="-51.5" font-family="Helvetica,sans-Serif" font-size="10.00" fill="#000000">nlohmann::detail::is</text>
<text text-anchor="start" x="125" y="-40.5" font-family="Helvetica,sans-Serif" font-size="10.00" fill="#000000">_constructible_string</text>
<text text-anchor="start" x="125" y="-29.5" font-family="Helvetica,sans-Serif" font-size="10.00" fill="#000000">_type_impl&lt; BasicJsonType,</text>
<text text-anchor="start" x="125" y="-18.5" font-family="Helvetica,sans-Serif" font-size="10.00" fill="#000000"> ConstructibleStringType,</text>
<text text-anchor="middle" x="189" y="-7.5" font-family="Helvetica,sans-Serif" font-size="10.00" fill="#000000"> typename &gt;</text>
</a>
</g>
</g>
<!-- Node3 -->
<g id="node3" class="node">
<title>Node3</title>
<g id="a_node3"><a xlink:href="../../d3/d84/structnlohmann_1_1detail_1_1is__constructible__string__type.html" target="_top" xlink:title=" ">
<polygon fill="#ffffff" stroke="#000000" points="297,-6 297,-58 432,-58 432,-6 297,-6"/>
<text text-anchor="start" x="305" y="-46" font-family="Helvetica,sans-Serif" font-size="10.00" fill="#000000">nlohmann::detail::is</text>
<text text-anchor="start" x="305" y="-35" font-family="Helvetica,sans-Serif" font-size="10.00" fill="#000000">_constructible_string</text>
<text text-anchor="start" x="305" y="-24" font-family="Helvetica,sans-Serif" font-size="10.00" fill="#000000">_type&lt; BasicJsonType,</text>
<text text-anchor="middle" x="364.5" y="-13" font-family="Helvetica,sans-Serif" font-size="10.00" fill="#000000"> ConstructibleStringType &gt;</text>
</a>
</g>
</g>
<!-- Node1&#45;&gt;Node3 -->
<g id="edge2" class="edge">
<title>Node1&#45;&gt;Node3</title>
<path fill="none" stroke="#191970" d="M271.1862,-32C279.7871,-32 288.4595,-32 296.8712,-32"/>
<polygon fill="#191970" stroke="#191970" points="271.1423,-28.5001 261.1423,-32 271.1423,-35.5001 271.1423,-28.5001"/>
</g>
<!-- Node2 -->
<g id="node2" class="node">
<title>Node2</title>
<g id="a_node2"><a xlink:title=" ">
<polygon fill="#ffffff" stroke="#bfbfbf" points="0,-22.5 0,-41.5 81,-41.5 81,-22.5 0,-22.5"/>
<text text-anchor="middle" x="40.5" y="-29.5" font-family="Helvetica,sans-Serif" font-size="10.00" fill="#000000">std::false_type</text>
</a>
</g>
</g>
<!-- Node2&#45;&gt;Node1 -->
<g id="edge1" class="edge">
<title>Node2&#45;&gt;Node1</title>
<path fill="none" stroke="#191970" d="M91.2449,-32C99.4805,-32 108.1462,-32 116.7755,-32"/>
<polygon fill="#191970" stroke="#191970" points="91.0783,-28.5001 81.0783,-32 91.0782,-35.5001 91.0783,-28.5001"/>
</g>
</g>
</svg>
