<?xml version="1.0" encoding="UTF-8" standalone="no"?>
<!DOCTYPE svg PUBLIC "-//W3C//DTD SVG 1.1//EN"
 "http://www.w3.org/Graphics/SVG/1.1/DTD/svg11.dtd">
<!-- Generated by graphviz version 2.40.1 (20161225.0304)
 -->
<!-- Title: sddk::splindex&lt; splindex_t::block, T &gt; Pages: 1 -->
<svg width="234pt" height="163pt"
 viewBox="0.00 0.00 233.50 163.00" xmlns="http://www.w3.org/2000/svg" xmlns:xlink="http://www.w3.org/1999/xlink">
<g id="graph0" class="graph" transform="scale(1 1) rotate(0) translate(4 159)">
<title>sddk::splindex&lt; splindex_t::block, T &gt;</title>
<polygon fill="#ffffff" stroke="transparent" points="-4,4 -4,-159 229.5,-159 229.5,4 -4,4"/>
<!-- Node2 -->
<g id="node1" class="node">
<title>Node2</title>
<g id="a_node1"><a xlink:title="Specialization for the block distribution.">
<polygon fill="#bfbfbf" stroke="#000000" points="0,-.5 0,-30.5 125,-30.5 125,-.5 0,-.5"/>
<text text-anchor="start" x="8" y="-18.5" font-family="Helvetica,sans-Serif" font-size="10.00" fill="#000000">sddk::splindex&lt; splindex</text>
<text text-anchor="middle" x="62.5" y="-7.5" font-family="Helvetica,sans-Serif" font-size="10.00" fill="#000000">_t::block, T &gt;</text>
</a>
</g>
</g>
<!-- Node3 -->
<g id="node2" class="node">
<title>Node3</title>
<g id="a_node2"><a xlink:href="../../d6/dec/classsddk_1_1splindex__base.html" target="_top" xlink:title="Base class for split index.">
<polygon fill="#ffffff" stroke="#000000" points="95.5,-68.5 95.5,-87.5 225.5,-87.5 225.5,-68.5 95.5,-68.5"/>
<text text-anchor="middle" x="160.5" y="-75.5" font-family="Helvetica,sans-Serif" font-size="10.00" fill="#000000">sddk::splindex_base&lt; T &gt;</text>
</a>
</g>
</g>
<!-- Node3&#45;&gt;Node2 -->
<g id="edge1" class="edge">
<title>Node3&#45;&gt;Node2</title>
<path fill="none" stroke="#191970" d="M136.733,-62.8425C121.3621,-53.0396 101.4355,-40.3313 86.0982,-30.5498"/>
<polygon fill="#191970" stroke="#191970" points="134.8742,-65.8082 145.1875,-68.2344 138.6382,-59.9063 134.8742,-65.8082"/>
</g>
<!-- Node4 -->
<g id="node3" class="node">
<title>Node4</title>
<g id="a_node3"><a xlink:title=" ">
<polygon fill="#ffffff" stroke="#bfbfbf" points="23,-135.5 23,-154.5 52,-154.5 52,-135.5 23,-135.5"/>
<text text-anchor="middle" x="37.5" y="-142.5" font-family="Helvetica,sans-Serif" font-size="10.00" fill="#000000">T</text>
</a>
</g>
</g>
<!-- Node4&#45;&gt;Node2 -->
<g id="edge3" class="edge">
<title>Node4&#45;&gt;Node2</title>
<path fill="none" stroke="#9a32cd" stroke-dasharray="5,2" d="M31.9373,-125.6225C28.3035,-109.8355 25.1348,-87.1107 30.5,-68 34.3661,-54.2289 42.9525,-40.4901 50.2583,-30.5229"/>
<polygon fill="#9a32cd" stroke="#9a32cd" points="28.549,-126.4999 34.4282,-135.3139 35.3287,-124.7574 28.549,-126.4999"/>
<text text-anchor="middle" x="58.5" y="-75.5" font-family="Helvetica,sans-Serif" font-size="10.00" fill="#000000"> block_size_</text>
</g>
<!-- Node4&#45;&gt;Node3 -->
<g id="edge2" class="edge">
<title>Node4&#45;&gt;Node3</title>
<path fill="none" stroke="#9a32cd" stroke-dasharray="5,2" d="M61.1712,-132.1059C85.0166,-119.117 121.268,-99.3703 142.7502,-87.6686"/>
<polygon fill="#9a32cd" stroke="#9a32cd" points="59.2002,-129.194 52.0927,-137.0511 62.5487,-135.3411 59.2002,-129.194"/>
<text text-anchor="middle" x="149.5" y="-109" font-family="Helvetica,sans-Serif" font-size="10.00" fill="#000000"> global_index_size_</text>
</g>
</g>
</svg>
